<?xml version="1.0" encoding="utf-8"?>
<svg xmlns="http://www.w3.org/2000/svg" xmlns:xlink="http://www.w3.org/1999/xlink" width="600" height="400" viewBox="0 0 2400 1600">
<defs>
  <clipPath id="clip330">
    <rect x="0" y="0" width="2400" height="1600"/>
  </clipPath>
</defs>
<path clip-path="url(#clip330)" d="M0 1600 L2400 1600 L2400 0 L0 0  Z" fill="#ffffff" fill-rule="evenodd" fill-opacity="1"/>
<defs>
  <clipPath id="clip331">
    <rect x="480" y="0" width="1681" height="1600"/>
  </clipPath>
</defs>
<path clip-path="url(#clip330)" d="M156.598 1486.45 L2352.76 1486.45 L2352.76 47.2441 L156.598 47.2441  Z" fill="#ffffff" fill-rule="evenodd" fill-opacity="1"/>
<defs>
  <clipPath id="clip332">
    <rect x="156" y="47" width="2197" height="1440"/>
  </clipPath>
</defs>
<polyline clip-path="url(#clip332)" style="stroke:#000000; stroke-linecap:round; stroke-linejoin:round; stroke-width:2; stroke-opacity:0.1; fill:none" points="543.132,1486.45 543.132,47.2441 "/>
<polyline clip-path="url(#clip332)" style="stroke:#000000; stroke-linecap:round; stroke-linejoin:round; stroke-width:2; stroke-opacity:0.1; fill:none" points="1011.95,1486.45 1011.95,47.2441 "/>
<polyline clip-path="url(#clip332)" style="stroke:#000000; stroke-linecap:round; stroke-linejoin:round; stroke-width:2; stroke-opacity:0.1; fill:none" points="1480.76,1486.45 1480.76,47.2441 "/>
<polyline clip-path="url(#clip332)" style="stroke:#000000; stroke-linecap:round; stroke-linejoin:round; stroke-width:2; stroke-opacity:0.1; fill:none" points="1949.57,1486.45 1949.57,47.2441 "/>
<polyline clip-path="url(#clip330)" style="stroke:#000000; stroke-linecap:round; stroke-linejoin:round; stroke-width:4; stroke-opacity:1; fill:none" points="156.598,1486.45 2352.76,1486.45 "/>
<polyline clip-path="url(#clip330)" style="stroke:#000000; stroke-linecap:round; stroke-linejoin:round; stroke-width:4; stroke-opacity:1; fill:none" points="543.132,1486.45 543.132,1467.55 "/>
<polyline clip-path="url(#clip330)" style="stroke:#000000; stroke-linecap:round; stroke-linejoin:round; stroke-width:4; stroke-opacity:1; fill:none" points="1011.95,1486.45 1011.95,1467.55 "/>
<polyline clip-path="url(#clip330)" style="stroke:#000000; stroke-linecap:round; stroke-linejoin:round; stroke-width:4; stroke-opacity:1; fill:none" points="1480.76,1486.45 1480.76,1467.55 "/>
<polyline clip-path="url(#clip330)" style="stroke:#000000; stroke-linecap:round; stroke-linejoin:round; stroke-width:4; stroke-opacity:1; fill:none" points="1949.57,1486.45 1949.57,1467.55 "/>
<path clip-path="url(#clip330)" d="M489.417 1532.02 L519.093 1532.02 L519.093 1535.95 L489.417 1535.95 L489.417 1532.02 Z" fill="#000000" fill-rule="nonzero" fill-opacity="1" /><path clip-path="url(#clip330)" d="M539.185 1517.37 Q535.574 1517.37 533.746 1520.93 Q531.94 1524.47 531.94 1531.6 Q531.94 1538.71 533.746 1542.27 Q535.574 1545.82 539.185 1545.82 Q542.82 1545.82 544.625 1542.27 Q546.454 1538.71 546.454 1531.6 Q546.454 1524.47 544.625 1520.93 Q542.82 1517.37 539.185 1517.37 M539.185 1513.66 Q544.995 1513.66 548.051 1518.27 Q551.13 1522.85 551.13 1531.6 Q551.13 1540.33 548.051 1544.94 Q544.995 1549.52 539.185 1549.52 Q533.375 1549.52 530.296 1544.94 Q527.241 1540.33 527.241 1531.6 Q527.241 1522.85 530.296 1518.27 Q533.375 1513.66 539.185 1513.66 Z" fill="#000000" fill-rule="nonzero" fill-opacity="1" /><path clip-path="url(#clip330)" d="M559.347 1542.97 L564.232 1542.97 L564.232 1548.85 L559.347 1548.85 L559.347 1542.97 Z" fill="#000000" fill-rule="nonzero" fill-opacity="1" /><path clip-path="url(#clip330)" d="M587.264 1518.36 L575.458 1536.81 L587.264 1536.81 L587.264 1518.36 M586.037 1514.29 L591.917 1514.29 L591.917 1536.81 L596.847 1536.81 L596.847 1540.7 L591.917 1540.7 L591.917 1548.85 L587.264 1548.85 L587.264 1540.7 L571.662 1540.7 L571.662 1536.19 L586.037 1514.29 Z" fill="#000000" fill-rule="nonzero" fill-opacity="1" /><path clip-path="url(#clip330)" d="M959.273 1532.02 L988.949 1532.02 L988.949 1535.95 L959.273 1535.95 L959.273 1532.02 Z" fill="#000000" fill-rule="nonzero" fill-opacity="1" /><path clip-path="url(#clip330)" d="M1009.04 1517.37 Q1005.43 1517.37 1003.6 1520.93 Q1001.8 1524.47 1001.8 1531.6 Q1001.8 1538.71 1003.6 1542.27 Q1005.43 1545.82 1009.04 1545.82 Q1012.68 1545.82 1014.48 1542.27 Q1016.31 1538.71 1016.31 1531.6 Q1016.31 1524.47 1014.48 1520.93 Q1012.68 1517.37 1009.04 1517.37 M1009.04 1513.66 Q1014.85 1513.66 1017.91 1518.27 Q1020.99 1522.85 1020.99 1531.6 Q1020.99 1540.33 1017.91 1544.94 Q1014.85 1549.52 1009.04 1549.52 Q1003.23 1549.52 1000.15 1544.94 Q997.097 1540.33 997.097 1531.6 Q997.097 1522.85 1000.15 1518.27 Q1003.23 1513.66 1009.04 1513.66 Z" fill="#000000" fill-rule="nonzero" fill-opacity="1" /><path clip-path="url(#clip330)" d="M1029.2 1542.97 L1034.09 1542.97 L1034.09 1548.85 L1029.2 1548.85 L1029.2 1542.97 Z" fill="#000000" fill-rule="nonzero" fill-opacity="1" /><path clip-path="url(#clip330)" d="M1048.3 1544.91 L1064.62 1544.91 L1064.62 1548.85 L1042.68 1548.85 L1042.68 1544.91 Q1045.34 1542.16 1049.92 1537.53 Q1054.53 1532.88 1055.71 1531.53 Q1057.95 1529.01 1058.83 1527.27 Q1059.74 1525.51 1059.74 1523.82 Q1059.74 1521.07 1057.79 1519.33 Q1055.87 1517.6 1052.77 1517.6 Q1050.57 1517.6 1048.11 1518.36 Q1045.68 1519.13 1042.91 1520.68 L1042.91 1515.95 Q1045.73 1514.82 1048.18 1514.24 Q1050.64 1513.66 1052.68 1513.66 Q1058.05 1513.66 1061.24 1516.35 Q1064.43 1519.03 1064.43 1523.52 Q1064.43 1525.65 1063.62 1527.57 Q1062.84 1529.47 1060.73 1532.07 Q1060.15 1532.74 1057.05 1535.95 Q1053.95 1539.15 1048.3 1544.91 Z" fill="#000000" fill-rule="nonzero" fill-opacity="1" /><path clip-path="url(#clip330)" d="M1458.14 1517.37 Q1454.53 1517.37 1452.7 1520.93 Q1450.9 1524.47 1450.9 1531.6 Q1450.9 1538.71 1452.7 1542.27 Q1454.53 1545.82 1458.14 1545.82 Q1461.78 1545.82 1463.58 1542.27 Q1465.41 1538.71 1465.41 1531.6 Q1465.41 1524.47 1463.58 1520.93 Q1461.78 1517.37 1458.14 1517.37 M1458.14 1513.66 Q1463.95 1513.66 1467.01 1518.27 Q1470.09 1522.85 1470.09 1531.6 Q1470.09 1540.33 1467.01 1544.94 Q1463.95 1549.52 1458.14 1549.52 Q1452.33 1549.52 1449.26 1544.94 Q1446.2 1540.33 1446.2 1531.6 Q1446.2 1522.85 1449.26 1518.27 Q1452.33 1513.66 1458.14 1513.66 Z" fill="#000000" fill-rule="nonzero" fill-opacity="1" /><path clip-path="url(#clip330)" d="M1478.31 1542.97 L1483.19 1542.97 L1483.19 1548.85 L1478.31 1548.85 L1478.31 1542.97 Z" fill="#000000" fill-rule="nonzero" fill-opacity="1" /><path clip-path="url(#clip330)" d="M1503.38 1517.37 Q1499.76 1517.37 1497.94 1520.93 Q1496.13 1524.47 1496.13 1531.6 Q1496.13 1538.71 1497.94 1542.27 Q1499.76 1545.82 1503.38 1545.82 Q1507.01 1545.82 1508.82 1542.27 Q1510.64 1538.71 1510.64 1531.6 Q1510.64 1524.47 1508.82 1520.93 Q1507.01 1517.37 1503.38 1517.37 M1503.38 1513.66 Q1509.19 1513.66 1512.24 1518.27 Q1515.32 1522.85 1515.32 1531.6 Q1515.32 1540.33 1512.24 1544.94 Q1509.19 1549.52 1503.38 1549.52 Q1497.57 1549.52 1494.49 1544.94 Q1491.43 1540.33 1491.43 1531.6 Q1491.43 1522.85 1494.49 1518.27 Q1497.57 1513.66 1503.38 1513.66 Z" fill="#000000" fill-rule="nonzero" fill-opacity="1" /><path clip-path="url(#clip330)" d="M1927.76 1517.37 Q1924.15 1517.37 1922.32 1520.93 Q1920.51 1524.47 1920.51 1531.6 Q1920.51 1538.71 1922.32 1542.27 Q1924.15 1545.82 1927.76 1545.82 Q1931.39 1545.82 1933.2 1542.27 Q1935.03 1538.71 1935.03 1531.6 Q1935.03 1524.47 1933.2 1520.93 Q1931.39 1517.37 1927.76 1517.37 M1927.76 1513.66 Q1933.57 1513.66 1936.62 1518.27 Q1939.7 1522.85 1939.7 1531.6 Q1939.7 1540.33 1936.62 1544.94 Q1933.57 1549.52 1927.76 1549.52 Q1921.95 1549.52 1918.87 1544.94 Q1915.81 1540.33 1915.81 1531.6 Q1915.81 1522.85 1918.87 1518.27 Q1921.95 1513.66 1927.76 1513.66 Z" fill="#000000" fill-rule="nonzero" fill-opacity="1" /><path clip-path="url(#clip330)" d="M1947.92 1542.97 L1952.8 1542.97 L1952.8 1548.85 L1947.92 1548.85 L1947.92 1542.97 Z" fill="#000000" fill-rule="nonzero" fill-opacity="1" /><path clip-path="url(#clip330)" d="M1967.02 1544.91 L1983.34 1544.91 L1983.34 1548.85 L1961.39 1548.85 L1961.39 1544.91 Q1964.05 1542.16 1968.64 1537.53 Q1973.24 1532.88 1974.42 1531.53 Q1976.67 1529.01 1977.55 1527.27 Q1978.45 1525.51 1978.45 1523.82 Q1978.45 1521.07 1976.51 1519.33 Q1974.59 1517.6 1971.48 1517.6 Q1969.28 1517.6 1966.83 1518.36 Q1964.4 1519.13 1961.62 1520.68 L1961.62 1515.95 Q1964.45 1514.82 1966.9 1514.24 Q1969.35 1513.66 1971.39 1513.66 Q1976.76 1513.66 1979.96 1516.35 Q1983.15 1519.03 1983.15 1523.52 Q1983.15 1525.65 1982.34 1527.57 Q1981.55 1529.47 1979.45 1532.07 Q1978.87 1532.74 1975.77 1535.95 Q1972.66 1539.15 1967.02 1544.91 Z" fill="#000000" fill-rule="nonzero" fill-opacity="1" /><polyline clip-path="url(#clip332)" style="stroke:#000000; stroke-linecap:round; stroke-linejoin:round; stroke-width:2; stroke-opacity:0.1; fill:none" points="156.598,1448.97 2352.76,1448.97 "/>
<polyline clip-path="url(#clip332)" style="stroke:#000000; stroke-linecap:round; stroke-linejoin:round; stroke-width:2; stroke-opacity:0.1; fill:none" points="156.598,1194.15 2352.76,1194.15 "/>
<polyline clip-path="url(#clip332)" style="stroke:#000000; stroke-linecap:round; stroke-linejoin:round; stroke-width:2; stroke-opacity:0.1; fill:none" points="156.598,939.329 2352.76,939.329 "/>
<polyline clip-path="url(#clip332)" style="stroke:#000000; stroke-linecap:round; stroke-linejoin:round; stroke-width:2; stroke-opacity:0.1; fill:none" points="156.598,684.507 2352.76,684.507 "/>
<polyline clip-path="url(#clip332)" style="stroke:#000000; stroke-linecap:round; stroke-linejoin:round; stroke-width:2; stroke-opacity:0.1; fill:none" points="156.598,429.686 2352.76,429.686 "/>
<polyline clip-path="url(#clip332)" style="stroke:#000000; stroke-linecap:round; stroke-linejoin:round; stroke-width:2; stroke-opacity:0.1; fill:none" points="156.598,174.864 2352.76,174.864 "/>
<polyline clip-path="url(#clip330)" style="stroke:#000000; stroke-linecap:round; stroke-linejoin:round; stroke-width:4; stroke-opacity:1; fill:none" points="156.598,1486.45 156.598,47.2441 "/>
<polyline clip-path="url(#clip330)" style="stroke:#000000; stroke-linecap:round; stroke-linejoin:round; stroke-width:4; stroke-opacity:1; fill:none" points="156.598,1448.97 175.496,1448.97 "/>
<polyline clip-path="url(#clip330)" style="stroke:#000000; stroke-linecap:round; stroke-linejoin:round; stroke-width:4; stroke-opacity:1; fill:none" points="156.598,1194.15 175.496,1194.15 "/>
<polyline clip-path="url(#clip330)" style="stroke:#000000; stroke-linecap:round; stroke-linejoin:round; stroke-width:4; stroke-opacity:1; fill:none" points="156.598,939.329 175.496,939.329 "/>
<polyline clip-path="url(#clip330)" style="stroke:#000000; stroke-linecap:round; stroke-linejoin:round; stroke-width:4; stroke-opacity:1; fill:none" points="156.598,684.507 175.496,684.507 "/>
<polyline clip-path="url(#clip330)" style="stroke:#000000; stroke-linecap:round; stroke-linejoin:round; stroke-width:4; stroke-opacity:1; fill:none" points="156.598,429.686 175.496,429.686 "/>
<polyline clip-path="url(#clip330)" style="stroke:#000000; stroke-linecap:round; stroke-linejoin:round; stroke-width:4; stroke-opacity:1; fill:none" points="156.598,174.864 175.496,174.864 "/>
<path clip-path="url(#clip330)" d="M63.4226 1434.77 Q59.8115 1434.77 57.9828 1438.34 Q56.1773 1441.88 56.1773 1449.01 Q56.1773 1456.11 57.9828 1459.68 Q59.8115 1463.22 63.4226 1463.22 Q67.0569 1463.22 68.8624 1459.68 Q70.6911 1456.11 70.6911 1449.01 Q70.6911 1441.88 68.8624 1438.34 Q67.0569 1434.77 63.4226 1434.77 M63.4226 1431.07 Q69.2328 1431.07 72.2883 1435.67 Q75.367 1440.26 75.367 1449.01 Q75.367 1457.73 72.2883 1462.34 Q69.2328 1466.92 63.4226 1466.92 Q57.6125 1466.92 54.5338 1462.34 Q51.4782 1457.73 51.4782 1449.01 Q51.4782 1440.26 54.5338 1435.67 Q57.6125 1431.07 63.4226 1431.07 Z" fill="#000000" fill-rule="nonzero" fill-opacity="1" /><path clip-path="url(#clip330)" d="M83.5845 1460.37 L88.4688 1460.37 L88.4688 1466.25 L83.5845 1466.25 L83.5845 1460.37 Z" fill="#000000" fill-rule="nonzero" fill-opacity="1" /><path clip-path="url(#clip330)" d="M108.654 1434.77 Q105.043 1434.77 103.214 1438.34 Q101.409 1441.88 101.409 1449.01 Q101.409 1456.11 103.214 1459.68 Q105.043 1463.22 108.654 1463.22 Q112.288 1463.22 114.094 1459.68 Q115.922 1456.11 115.922 1449.01 Q115.922 1441.88 114.094 1438.34 Q112.288 1434.77 108.654 1434.77 M108.654 1431.07 Q114.464 1431.07 117.52 1435.67 Q120.598 1440.26 120.598 1449.01 Q120.598 1457.73 117.52 1462.34 Q114.464 1466.92 108.654 1466.92 Q102.844 1466.92 99.765 1462.34 Q96.7095 1457.73 96.7095 1449.01 Q96.7095 1440.26 99.765 1435.67 Q102.844 1431.07 108.654 1431.07 Z" fill="#000000" fill-rule="nonzero" fill-opacity="1" /><path clip-path="url(#clip330)" d="M64.6495 1179.95 Q61.0384 1179.95 59.2097 1183.51 Q57.4041 1187.06 57.4041 1194.18 Q57.4041 1201.29 59.2097 1204.86 Q61.0384 1208.4 64.6495 1208.4 Q68.2837 1208.4 70.0892 1204.86 Q71.9179 1201.29 71.9179 1194.18 Q71.9179 1187.06 70.0892 1183.51 Q68.2837 1179.95 64.6495 1179.95 M64.6495 1176.25 Q70.4596 1176.25 73.5152 1180.85 Q76.5938 1185.44 76.5938 1194.18 Q76.5938 1202.91 73.5152 1207.52 Q70.4596 1212.1 64.6495 1212.1 Q58.8393 1212.1 55.7606 1207.52 Q52.7051 1202.91 52.7051 1194.18 Q52.7051 1185.44 55.7606 1180.85 Q58.8393 1176.25 64.6495 1176.25 Z" fill="#000000" fill-rule="nonzero" fill-opacity="1" /><path clip-path="url(#clip330)" d="M84.8114 1205.55 L89.6956 1205.55 L89.6956 1211.43 L84.8114 1211.43 L84.8114 1205.55 Z" fill="#000000" fill-rule="nonzero" fill-opacity="1" /><path clip-path="url(#clip330)" d="M100.691 1207.5 L108.33 1207.5 L108.33 1181.13 L100.02 1182.8 L100.02 1178.54 L108.283 1176.87 L112.959 1176.87 L112.959 1207.5 L120.598 1207.5 L120.598 1211.43 L100.691 1211.43 L100.691 1207.5 Z" fill="#000000" fill-rule="nonzero" fill-opacity="1" /><path clip-path="url(#clip330)" d="M65.0198 925.127 Q61.4087 925.127 59.58 928.692 Q57.7745 932.234 57.7745 939.363 Q57.7745 946.47 59.58 950.035 Q61.4087 953.576 65.0198 953.576 Q68.6541 953.576 70.4596 950.035 Q72.2883 946.47 72.2883 939.363 Q72.2883 932.234 70.4596 928.692 Q68.6541 925.127 65.0198 925.127 M65.0198 921.424 Q70.83 921.424 73.8855 926.03 Q76.9642 930.614 76.9642 939.363 Q76.9642 948.09 73.8855 952.697 Q70.83 957.28 65.0198 957.28 Q59.2097 957.28 56.131 952.697 Q53.0754 948.09 53.0754 939.363 Q53.0754 930.614 56.131 926.03 Q59.2097 921.424 65.0198 921.424 Z" fill="#000000" fill-rule="nonzero" fill-opacity="1" /><path clip-path="url(#clip330)" d="M85.1818 950.729 L90.066 950.729 L90.066 956.609 L85.1818 956.609 L85.1818 950.729 Z" fill="#000000" fill-rule="nonzero" fill-opacity="1" /><path clip-path="url(#clip330)" d="M104.279 952.674 L120.598 952.674 L120.598 956.609 L98.6539 956.609 L98.6539 952.674 Q101.316 949.919 105.899 945.289 Q110.506 940.637 111.686 939.294 Q113.932 936.771 114.811 935.035 Q115.714 933.276 115.714 931.586 Q115.714 928.831 113.77 927.095 Q111.848 925.359 108.746 925.359 Q106.547 925.359 104.094 926.123 Q101.663 926.887 98.8854 928.438 L98.8854 923.715 Q101.709 922.581 104.163 922.002 Q106.617 921.424 108.654 921.424 Q114.024 921.424 117.219 924.109 Q120.413 926.794 120.413 931.285 Q120.413 933.414 119.603 935.336 Q118.816 937.234 116.709 939.826 Q116.131 940.498 113.029 943.715 Q109.927 946.91 104.279 952.674 Z" fill="#000000" fill-rule="nonzero" fill-opacity="1" /><path clip-path="url(#clip330)" d="M64.0708 670.306 Q60.4597 670.306 58.631 673.871 Q56.8254 677.412 56.8254 684.542 Q56.8254 691.648 58.631 695.213 Q60.4597 698.755 64.0708 698.755 Q67.705 698.755 69.5105 695.213 Q71.3392 691.648 71.3392 684.542 Q71.3392 677.412 69.5105 673.871 Q67.705 670.306 64.0708 670.306 M64.0708 666.602 Q69.8809 666.602 72.9365 671.209 Q76.0151 675.792 76.0151 684.542 Q76.0151 693.269 72.9365 697.875 Q69.8809 702.459 64.0708 702.459 Q58.2606 702.459 55.1819 697.875 Q52.1264 693.269 52.1264 684.542 Q52.1264 675.792 55.1819 671.209 Q58.2606 666.602 64.0708 666.602 Z" fill="#000000" fill-rule="nonzero" fill-opacity="1" /><path clip-path="url(#clip330)" d="M84.2327 695.908 L89.1169 695.908 L89.1169 701.787 L84.2327 701.787 L84.2327 695.908 Z" fill="#000000" fill-rule="nonzero" fill-opacity="1" /><path clip-path="url(#clip330)" d="M113.469 683.153 Q116.825 683.871 118.7 686.139 Q120.598 688.408 120.598 691.741 Q120.598 696.857 117.08 699.658 Q113.561 702.459 107.08 702.459 Q104.904 702.459 102.589 702.019 Q100.297 701.602 97.8437 700.746 L97.8437 696.232 Q99.7882 697.366 102.103 697.945 Q104.418 698.523 106.941 698.523 Q111.339 698.523 113.631 696.787 Q115.945 695.051 115.945 691.741 Q115.945 688.685 113.793 686.973 Q111.663 685.236 107.844 685.236 L103.816 685.236 L103.816 681.394 L108.029 681.394 Q111.478 681.394 113.307 680.028 Q115.135 678.639 115.135 676.047 Q115.135 673.385 113.237 671.973 Q111.362 670.537 107.844 670.537 Q105.922 670.537 103.723 670.954 Q101.524 671.371 98.8854 672.25 L98.8854 668.084 Q101.547 667.343 103.862 666.973 Q106.2 666.602 108.26 666.602 Q113.584 666.602 116.686 669.033 Q119.788 671.44 119.788 675.561 Q119.788 678.431 118.145 680.422 Q116.501 682.389 113.469 683.153 Z" fill="#000000" fill-rule="nonzero" fill-opacity="1" /><path clip-path="url(#clip330)" d="M62.9365 415.484 Q59.3254 415.484 57.4967 419.049 Q55.6912 422.591 55.6912 429.72 Q55.6912 436.827 57.4967 440.392 Q59.3254 443.933 62.9365 443.933 Q66.5707 443.933 68.3763 440.392 Q70.205 436.827 70.205 429.72 Q70.205 422.591 68.3763 419.049 Q66.5707 415.484 62.9365 415.484 M62.9365 411.781 Q68.7467 411.781 71.8022 416.387 Q74.8809 420.971 74.8809 429.72 Q74.8809 438.447 71.8022 443.054 Q68.7467 447.637 62.9365 447.637 Q57.1264 447.637 54.0477 443.054 Q50.9921 438.447 50.9921 429.72 Q50.9921 420.971 54.0477 416.387 Q57.1264 411.781 62.9365 411.781 Z" fill="#000000" fill-rule="nonzero" fill-opacity="1" /><path clip-path="url(#clip330)" d="M83.0984 441.086 L87.9827 441.086 L87.9827 446.966 L83.0984 446.966 L83.0984 441.086 Z" fill="#000000" fill-rule="nonzero" fill-opacity="1" /><path clip-path="url(#clip330)" d="M111.015 416.48 L99.2095 434.929 L111.015 434.929 L111.015 416.48 M109.788 412.406 L115.668 412.406 L115.668 434.929 L120.598 434.929 L120.598 438.818 L115.668 438.818 L115.668 446.966 L111.015 446.966 L111.015 438.818 L95.4132 438.818 L95.4132 434.304 L109.788 412.406 Z" fill="#000000" fill-rule="nonzero" fill-opacity="1" /><path clip-path="url(#clip330)" d="M64.418 160.663 Q60.8069 160.663 58.9782 164.228 Q57.1726 167.769 57.1726 174.899 Q57.1726 182.005 58.9782 185.57 Q60.8069 189.112 64.418 189.112 Q68.0522 189.112 69.8578 185.57 Q71.6865 182.005 71.6865 174.899 Q71.6865 167.769 69.8578 164.228 Q68.0522 160.663 64.418 160.663 M64.418 156.959 Q70.2281 156.959 73.2837 161.566 Q76.3624 166.149 76.3624 174.899 Q76.3624 183.626 73.2837 188.232 Q70.2281 192.816 64.418 192.816 Q58.6078 192.816 55.5291 188.232 Q52.4736 183.626 52.4736 174.899 Q52.4736 166.149 55.5291 161.566 Q58.6078 156.959 64.418 156.959 Z" fill="#000000" fill-rule="nonzero" fill-opacity="1" /><path clip-path="url(#clip330)" d="M84.5799 186.265 L89.4641 186.265 L89.4641 192.144 L84.5799 192.144 L84.5799 186.265 Z" fill="#000000" fill-rule="nonzero" fill-opacity="1" /><path clip-path="url(#clip330)" d="M99.6956 157.584 L118.052 157.584 L118.052 161.519 L103.978 161.519 L103.978 169.992 Q104.996 169.644 106.015 169.482 Q107.033 169.297 108.052 169.297 Q113.839 169.297 117.219 172.468 Q120.598 175.64 120.598 181.056 Q120.598 186.635 117.126 189.737 Q113.654 192.816 107.334 192.816 Q105.159 192.816 102.89 192.445 Q100.645 192.075 98.2372 191.334 L98.2372 186.635 Q100.321 187.769 102.543 188.325 Q104.765 188.88 107.242 188.88 Q111.246 188.88 113.584 186.774 Q115.922 184.667 115.922 181.056 Q115.922 177.445 113.584 175.339 Q111.246 173.232 107.242 173.232 Q105.367 173.232 103.492 173.649 Q101.64 174.066 99.6956 174.945 L99.6956 157.584 Z" fill="#000000" fill-rule="nonzero" fill-opacity="1" /><circle clip-path="url(#clip332)" cx="1449.08" cy="1356.8" r="14.4" fill="#808080" fill-rule="evenodd" fill-opacity="1" stroke="#000000" stroke-opacity="1" stroke-width="3.2"/>
<circle clip-path="url(#clip332)" cx="1454.07" cy="1445.72" r="14.4" fill="#808080" fill-rule="evenodd" fill-opacity="1" stroke="#000000" stroke-opacity="1" stroke-width="3.2"/>
<circle clip-path="url(#clip332)" cx="2290.6" cy="1350.18" r="14.4" fill="#808080" fill-rule="evenodd" fill-opacity="1" stroke="#000000" stroke-opacity="1" stroke-width="3.2"/>
<circle clip-path="url(#clip332)" cx="218.754" cy="87.9763" r="14.4" fill="#808080" fill-rule="evenodd" fill-opacity="1" stroke="#000000" stroke-opacity="1" stroke-width="3.2"/>
<path clip-path="url(#clip330)" d="M1453.37 1364.23 Q1444.34 1364.23 1440.85 1366.3 Q1437.37 1368.37 1437.37 1373.35 Q1437.37 1377.32 1439.96 1379.67 Q1442.6 1381.98 1447.09 1381.98 Q1453.29 1381.98 1457.02 1377.6 Q1460.79 1373.19 1460.79 1365.9 L1460.79 1364.23 L1453.37 1364.23 M1468.24 1361.16 L1468.24 1387.04 L1460.79 1387.04 L1460.79 1380.15 Q1458.23 1384.29 1454.43 1386.27 Q1450.62 1388.22 1445.11 1388.22 Q1438.14 1388.22 1434.01 1384.33 Q1429.92 1380.4 1429.92 1373.84 Q1429.92 1366.18 1435.02 1362.29 Q1440.17 1358.4 1450.33 1358.4 L1460.79 1358.4 L1460.79 1357.67 Q1460.79 1352.53 1457.38 1349.73 Q1454.02 1346.9 1447.9 1346.9 Q1444.01 1346.9 1440.33 1347.83 Q1436.64 1348.76 1433.24 1350.62 L1433.24 1343.74 Q1437.33 1342.16 1441.18 1341.39 Q1445.03 1340.58 1448.67 1340.58 Q1458.52 1340.58 1463.38 1345.68 Q1468.24 1350.79 1468.24 1361.16 Z" fill="#000000" fill-rule="nonzero" fill-opacity="1" /><path clip-path="url(#clip330)" d="M1466.63 1453.31 Q1466.63 1445.09 1463.22 1440.43 Q1459.86 1435.73 1453.95 1435.73 Q1448.03 1435.73 1444.63 1440.43 Q1441.27 1445.09 1441.27 1453.31 Q1441.27 1461.53 1444.63 1466.23 Q1448.03 1470.89 1453.95 1470.89 Q1459.86 1470.89 1463.22 1466.23 Q1466.63 1461.53 1466.63 1453.31 M1441.27 1437.47 Q1443.62 1433.42 1447.18 1431.48 Q1450.79 1429.49 1455.77 1429.49 Q1464.03 1429.49 1469.18 1436.05 Q1474.36 1442.62 1474.36 1453.31 Q1474.36 1464.01 1469.18 1470.57 Q1464.03 1477.13 1455.77 1477.13 Q1450.79 1477.13 1447.18 1475.19 Q1443.62 1473.2 1441.27 1469.15 L1441.27 1475.96 L1433.77 1475.96 L1433.77 1412.92 L1441.27 1412.92 L1441.27 1437.47 Z" fill="#000000" fill-rule="nonzero" fill-opacity="1" /><path clip-path="url(#clip330)" d="M2308.55 1336.79 L2308.55 1343.76 Q2305.39 1342.02 2302.19 1341.17 Q2299.03 1340.28 2295.79 1340.28 Q2288.53 1340.28 2284.52 1344.89 Q2280.51 1349.47 2280.51 1357.78 Q2280.51 1366.08 2284.52 1370.7 Q2288.53 1375.28 2295.79 1375.28 Q2299.03 1375.28 2302.19 1374.43 Q2305.39 1373.53 2308.55 1371.79 L2308.55 1378.68 Q2305.43 1380.14 2302.06 1380.87 Q2298.74 1381.6 2294.98 1381.6 Q2284.73 1381.6 2278.69 1375.15 Q2272.65 1368.71 2272.65 1357.78 Q2272.65 1346.68 2278.73 1340.32 Q2284.85 1333.96 2295.46 1333.96 Q2298.9 1333.96 2302.19 1334.69 Q2305.47 1335.37 2308.55 1336.79 Z" fill="#000000" fill-rule="nonzero" fill-opacity="1" /><path clip-path="url(#clip330)" d="M231.575 79.7327 L231.575 55.1842 L239.028 55.1842 L239.028 118.216 L231.575 118.216 L231.575 111.411 Q229.225 115.462 225.62 117.447 Q222.055 119.391 217.032 119.391 Q208.809 119.391 203.624 112.829 Q198.479 106.266 198.479 95.5717 Q198.479 84.8773 203.624 78.3149 Q208.809 71.7524 217.032 71.7524 Q222.055 71.7524 225.62 73.7373 Q229.225 75.6818 231.575 79.7327 M206.176 95.5717 Q206.176 103.795 209.538 108.494 Q212.941 113.153 218.855 113.153 Q224.769 113.153 228.172 108.494 Q231.575 103.795 231.575 95.5717 Q231.575 87.3484 228.172 82.6898 Q224.769 77.9908 218.855 77.9908 Q212.941 77.9908 209.538 82.6898 Q206.176 87.3484 206.176 95.5717 Z" fill="#000000" fill-rule="nonzero" fill-opacity="1" /><path clip-path="url(#clip330)" d="M2007.5 198.898 L2279.55 198.898 L2279.55 95.2176 L2007.5 95.2176  Z" fill="#ffffff" fill-rule="evenodd" fill-opacity="1"/>
<polyline clip-path="url(#clip330)" style="stroke:#000000; stroke-linecap:round; stroke-linejoin:round; stroke-width:4; stroke-opacity:1; fill:none" points="2007.5,198.898 2279.55,198.898 2279.55,95.2176 2007.5,95.2176 2007.5,198.898 "/>
<circle clip-path="url(#clip330)" cx="2105.11" cy="147.058" r="20.48" fill="#808080" fill-rule="evenodd" fill-opacity="1" stroke="#000000" stroke-opacity="1" stroke-width="4.55111"/>
<path clip-path="url(#clip330)" d="M2216.56 166.745 Q2214.76 171.375 2213.04 172.787 Q2211.33 174.199 2208.46 174.199 L2205.06 174.199 L2205.06 170.634 L2207.56 170.634 Q2209.32 170.634 2210.29 169.8 Q2211.26 168.967 2212.44 165.865 L2213.2 163.921 L2202.72 138.412 L2207.23 138.412 L2215.33 158.689 L2223.44 138.412 L2227.95 138.412 L2216.56 166.745 Z" fill="#000000" fill-rule="nonzero" fill-opacity="1" /><path clip-path="url(#clip330)" d="M2235.24 160.402 L2242.88 160.402 L2242.88 134.037 L2234.57 135.703 L2234.57 131.444 L2242.83 129.778 L2247.51 129.778 L2247.51 160.402 L2255.15 160.402 L2255.15 164.338 L2235.24 164.338 L2235.24 160.402 Z" fill="#000000" fill-rule="nonzero" fill-opacity="1" /></svg>
