<?xml version="1.0" encoding="utf-8"?>
<svg xmlns="http://www.w3.org/2000/svg" xmlns:xlink="http://www.w3.org/1999/xlink" width="600" height="400" viewBox="0 0 2400 1600">
<defs>
  <clipPath id="clip390">
    <rect x="0" y="0" width="2400" height="1600"/>
  </clipPath>
</defs>
<path clip-path="url(#clip390)" d="M0 1600 L2400 1600 L2400 0 L0 0  Z" fill="#ffffff" fill-rule="evenodd" fill-opacity="1"/>
<defs>
  <clipPath id="clip391">
    <rect x="480" y="0" width="1681" height="1600"/>
  </clipPath>
</defs>
<path clip-path="url(#clip390)" d="M112.177 1486.45 L2352.76 1486.45 L2352.76 47.2441 L112.177 47.2441  Z" fill="#ffffff" fill-rule="evenodd" fill-opacity="1"/>
<defs>
  <clipPath id="clip392">
    <rect x="112" y="47" width="2242" height="1440"/>
  </clipPath>
</defs>
<polyline clip-path="url(#clip392)" style="stroke:#000000; stroke-linecap:round; stroke-linejoin:round; stroke-width:2; stroke-opacity:0.1; fill:none" points="477.029,1486.45 477.029,47.2441 "/>
<polyline clip-path="url(#clip392)" style="stroke:#000000; stroke-linecap:round; stroke-linejoin:round; stroke-width:2; stroke-opacity:0.1; fill:none" points="1039.43,1486.45 1039.43,47.2441 "/>
<polyline clip-path="url(#clip392)" style="stroke:#000000; stroke-linecap:round; stroke-linejoin:round; stroke-width:2; stroke-opacity:0.1; fill:none" points="1601.83,1486.45 1601.83,47.2441 "/>
<polyline clip-path="url(#clip392)" style="stroke:#000000; stroke-linecap:round; stroke-linejoin:round; stroke-width:2; stroke-opacity:0.1; fill:none" points="2164.23,1486.45 2164.23,47.2441 "/>
<polyline clip-path="url(#clip390)" style="stroke:#000000; stroke-linecap:round; stroke-linejoin:round; stroke-width:4; stroke-opacity:1; fill:none" points="112.177,1486.45 2352.76,1486.45 "/>
<polyline clip-path="url(#clip390)" style="stroke:#000000; stroke-linecap:round; stroke-linejoin:round; stroke-width:4; stroke-opacity:1; fill:none" points="477.029,1486.45 477.029,1467.55 "/>
<polyline clip-path="url(#clip390)" style="stroke:#000000; stroke-linecap:round; stroke-linejoin:round; stroke-width:4; stroke-opacity:1; fill:none" points="1039.43,1486.45 1039.43,1467.55 "/>
<polyline clip-path="url(#clip390)" style="stroke:#000000; stroke-linecap:round; stroke-linejoin:round; stroke-width:4; stroke-opacity:1; fill:none" points="1601.83,1486.45 1601.83,1467.55 "/>
<polyline clip-path="url(#clip390)" style="stroke:#000000; stroke-linecap:round; stroke-linejoin:round; stroke-width:4; stroke-opacity:1; fill:none" points="2164.23,1486.45 2164.23,1467.55 "/>
<path clip-path="url(#clip390)" d="M423.557 1532.02 L453.233 1532.02 L453.233 1535.95 L423.557 1535.95 L423.557 1532.02 Z" fill="#000000" fill-rule="nonzero" fill-opacity="1" /><path clip-path="url(#clip390)" d="M464.136 1544.91 L471.774 1544.91 L471.774 1518.55 L463.464 1520.21 L463.464 1515.95 L471.728 1514.29 L476.404 1514.29 L476.404 1544.91 L484.043 1544.91 L484.043 1548.85 L464.136 1548.85 L464.136 1544.91 Z" fill="#000000" fill-rule="nonzero" fill-opacity="1" /><path clip-path="url(#clip390)" d="M493.487 1542.97 L498.372 1542.97 L498.372 1548.85 L493.487 1548.85 L493.487 1542.97 Z" fill="#000000" fill-rule="nonzero" fill-opacity="1" /><path clip-path="url(#clip390)" d="M518.557 1517.37 Q514.945 1517.37 513.117 1520.93 Q511.311 1524.47 511.311 1531.6 Q511.311 1538.71 513.117 1542.27 Q514.945 1545.82 518.557 1545.82 Q522.191 1545.82 523.996 1542.27 Q525.825 1538.71 525.825 1531.6 Q525.825 1524.47 523.996 1520.93 Q522.191 1517.37 518.557 1517.37 M518.557 1513.66 Q524.367 1513.66 527.422 1518.27 Q530.501 1522.85 530.501 1531.6 Q530.501 1540.33 527.422 1544.94 Q524.367 1549.52 518.557 1549.52 Q512.746 1549.52 509.668 1544.94 Q506.612 1540.33 506.612 1531.6 Q506.612 1522.85 509.668 1518.27 Q512.746 1513.66 518.557 1513.66 Z" fill="#000000" fill-rule="nonzero" fill-opacity="1" /><path clip-path="url(#clip390)" d="M986.455 1532.02 L1016.13 1532.02 L1016.13 1535.95 L986.455 1535.95 L986.455 1532.02 Z" fill="#000000" fill-rule="nonzero" fill-opacity="1" /><path clip-path="url(#clip390)" d="M1036.22 1517.37 Q1032.61 1517.37 1030.78 1520.93 Q1028.98 1524.47 1028.98 1531.6 Q1028.98 1538.71 1030.78 1542.27 Q1032.61 1545.82 1036.22 1545.82 Q1039.86 1545.82 1041.66 1542.27 Q1043.49 1538.71 1043.49 1531.6 Q1043.49 1524.47 1041.66 1520.93 Q1039.86 1517.37 1036.22 1517.37 M1036.22 1513.66 Q1042.03 1513.66 1045.09 1518.27 Q1048.17 1522.85 1048.17 1531.6 Q1048.17 1540.33 1045.09 1544.94 Q1042.03 1549.52 1036.22 1549.52 Q1030.41 1549.52 1027.33 1544.94 Q1024.28 1540.33 1024.28 1531.6 Q1024.28 1522.85 1027.33 1518.27 Q1030.41 1513.66 1036.22 1513.66 Z" fill="#000000" fill-rule="nonzero" fill-opacity="1" /><path clip-path="url(#clip390)" d="M1056.39 1542.97 L1061.27 1542.97 L1061.27 1548.85 L1056.39 1548.85 L1056.39 1542.97 Z" fill="#000000" fill-rule="nonzero" fill-opacity="1" /><path clip-path="url(#clip390)" d="M1071.5 1514.29 L1089.86 1514.29 L1089.86 1518.22 L1075.78 1518.22 L1075.78 1526.7 Q1076.8 1526.35 1077.82 1526.19 Q1078.84 1526 1079.86 1526 Q1085.64 1526 1089.02 1529.17 Q1092.4 1532.34 1092.4 1537.76 Q1092.4 1543.34 1088.93 1546.44 Q1085.46 1549.52 1079.14 1549.52 Q1076.96 1549.52 1074.7 1549.15 Q1072.45 1548.78 1070.04 1548.04 L1070.04 1543.34 Q1072.13 1544.47 1074.35 1545.03 Q1076.57 1545.58 1079.05 1545.58 Q1083.05 1545.58 1085.39 1543.48 Q1087.73 1541.37 1087.73 1537.76 Q1087.73 1534.15 1085.39 1532.04 Q1083.05 1529.94 1079.05 1529.94 Q1077.17 1529.94 1075.3 1530.35 Q1073.45 1530.77 1071.5 1531.65 L1071.5 1514.29 Z" fill="#000000" fill-rule="nonzero" fill-opacity="1" /><path clip-path="url(#clip390)" d="M1579.21 1517.37 Q1575.6 1517.37 1573.77 1520.93 Q1571.97 1524.47 1571.97 1531.6 Q1571.97 1538.71 1573.77 1542.27 Q1575.6 1545.82 1579.21 1545.82 Q1582.85 1545.82 1584.65 1542.27 Q1586.48 1538.71 1586.48 1531.6 Q1586.48 1524.47 1584.65 1520.93 Q1582.85 1517.37 1579.21 1517.37 M1579.21 1513.66 Q1585.02 1513.66 1588.08 1518.27 Q1591.16 1522.85 1591.16 1531.6 Q1591.16 1540.33 1588.08 1544.94 Q1585.02 1549.52 1579.21 1549.52 Q1573.4 1549.52 1570.33 1544.94 Q1567.27 1540.33 1567.27 1531.6 Q1567.27 1522.85 1570.33 1518.27 Q1573.4 1513.66 1579.21 1513.66 Z" fill="#000000" fill-rule="nonzero" fill-opacity="1" /><path clip-path="url(#clip390)" d="M1599.38 1542.97 L1604.26 1542.97 L1604.26 1548.85 L1599.38 1548.85 L1599.38 1542.97 Z" fill="#000000" fill-rule="nonzero" fill-opacity="1" /><path clip-path="url(#clip390)" d="M1624.45 1517.37 Q1620.83 1517.37 1619.01 1520.93 Q1617.2 1524.47 1617.2 1531.6 Q1617.2 1538.71 1619.01 1542.27 Q1620.83 1545.82 1624.45 1545.82 Q1628.08 1545.82 1629.88 1542.27 Q1631.71 1538.71 1631.71 1531.6 Q1631.71 1524.47 1629.88 1520.93 Q1628.08 1517.37 1624.45 1517.37 M1624.45 1513.66 Q1630.26 1513.66 1633.31 1518.27 Q1636.39 1522.85 1636.39 1531.6 Q1636.39 1540.33 1633.31 1544.94 Q1630.26 1549.52 1624.45 1549.52 Q1618.64 1549.52 1615.56 1544.94 Q1612.5 1540.33 1612.5 1531.6 Q1612.5 1522.85 1615.56 1518.27 Q1618.64 1513.66 1624.45 1513.66 Z" fill="#000000" fill-rule="nonzero" fill-opacity="1" /><path clip-path="url(#clip390)" d="M2142.11 1517.37 Q2138.5 1517.37 2136.67 1520.93 Q2134.87 1524.47 2134.87 1531.6 Q2134.87 1538.71 2136.67 1542.27 Q2138.5 1545.82 2142.11 1545.82 Q2145.75 1545.82 2147.55 1542.27 Q2149.38 1538.71 2149.38 1531.6 Q2149.38 1524.47 2147.55 1520.93 Q2145.75 1517.37 2142.11 1517.37 M2142.11 1513.66 Q2147.92 1513.66 2150.98 1518.27 Q2154.06 1522.85 2154.06 1531.6 Q2154.06 1540.33 2150.98 1544.94 Q2147.92 1549.52 2142.11 1549.52 Q2136.3 1549.52 2133.22 1544.94 Q2130.17 1540.33 2130.17 1531.6 Q2130.17 1522.85 2133.22 1518.27 Q2136.3 1513.66 2142.11 1513.66 Z" fill="#000000" fill-rule="nonzero" fill-opacity="1" /><path clip-path="url(#clip390)" d="M2162.27 1542.97 L2167.16 1542.97 L2167.16 1548.85 L2162.27 1548.85 L2162.27 1542.97 Z" fill="#000000" fill-rule="nonzero" fill-opacity="1" /><path clip-path="url(#clip390)" d="M2177.39 1514.29 L2195.75 1514.29 L2195.75 1518.22 L2181.67 1518.22 L2181.67 1526.7 Q2182.69 1526.35 2183.71 1526.19 Q2184.73 1526 2185.75 1526 Q2191.53 1526 2194.91 1529.17 Q2198.29 1532.34 2198.29 1537.76 Q2198.29 1543.34 2194.82 1546.44 Q2191.35 1549.52 2185.03 1549.52 Q2182.85 1549.52 2180.58 1549.15 Q2178.34 1548.78 2175.93 1548.04 L2175.93 1543.34 Q2178.01 1544.47 2180.24 1545.03 Q2182.46 1545.58 2184.94 1545.58 Q2188.94 1545.58 2191.28 1543.48 Q2193.62 1541.37 2193.62 1537.76 Q2193.62 1534.15 2191.28 1532.04 Q2188.94 1529.94 2184.94 1529.94 Q2183.06 1529.94 2181.19 1530.35 Q2179.33 1530.77 2177.39 1531.65 L2177.39 1514.29 Z" fill="#000000" fill-rule="nonzero" fill-opacity="1" /><polyline clip-path="url(#clip392)" style="stroke:#000000; stroke-linecap:round; stroke-linejoin:round; stroke-width:2; stroke-opacity:0.1; fill:none" points="112.177,1209.32 2352.76,1209.32 "/>
<polyline clip-path="url(#clip392)" style="stroke:#000000; stroke-linecap:round; stroke-linejoin:round; stroke-width:2; stroke-opacity:0.1; fill:none" points="112.177,892.458 2352.76,892.458 "/>
<polyline clip-path="url(#clip392)" style="stroke:#000000; stroke-linecap:round; stroke-linejoin:round; stroke-width:2; stroke-opacity:0.1; fill:none" points="112.177,575.599 2352.76,575.599 "/>
<polyline clip-path="url(#clip392)" style="stroke:#000000; stroke-linecap:round; stroke-linejoin:round; stroke-width:2; stroke-opacity:0.1; fill:none" points="112.177,258.741 2352.76,258.741 "/>
<polyline clip-path="url(#clip390)" style="stroke:#000000; stroke-linecap:round; stroke-linejoin:round; stroke-width:4; stroke-opacity:1; fill:none" points="112.177,1486.45 112.177,47.2441 "/>
<polyline clip-path="url(#clip390)" style="stroke:#000000; stroke-linecap:round; stroke-linejoin:round; stroke-width:4; stroke-opacity:1; fill:none" points="112.177,1209.32 131.075,1209.32 "/>
<polyline clip-path="url(#clip390)" style="stroke:#000000; stroke-linecap:round; stroke-linejoin:round; stroke-width:4; stroke-opacity:1; fill:none" points="112.177,892.458 131.075,892.458 "/>
<polyline clip-path="url(#clip390)" style="stroke:#000000; stroke-linecap:round; stroke-linejoin:round; stroke-width:4; stroke-opacity:1; fill:none" points="112.177,575.599 131.075,575.599 "/>
<polyline clip-path="url(#clip390)" style="stroke:#000000; stroke-linecap:round; stroke-linejoin:round; stroke-width:4; stroke-opacity:1; fill:none" points="112.177,258.741 131.075,258.741 "/>
<path clip-path="url(#clip390)" d="M56.2699 1222.66 L63.9087 1222.66 L63.9087 1196.3 L55.5986 1197.96 L55.5986 1193.7 L63.8624 1192.04 L68.5383 1192.04 L68.5383 1222.66 L76.1772 1222.66 L76.1772 1226.6 L56.2699 1226.6 L56.2699 1222.66 Z" fill="#000000" fill-rule="nonzero" fill-opacity="1" /><path clip-path="url(#clip390)" d="M59.8578 905.802 L76.1772 905.802 L76.1772 909.738 L54.2328 909.738 L54.2328 905.802 Q56.8949 903.048 61.4782 898.418 Q66.0846 893.765 67.2652 892.423 Q69.5105 889.9 70.3902 888.164 Q71.2929 886.404 71.2929 884.715 Q71.2929 881.96 69.3485 880.224 Q67.4272 878.488 64.3254 878.488 Q62.1263 878.488 59.6726 879.252 Q57.2421 880.016 54.4643 881.566 L54.4643 876.844 Q57.2884 875.71 59.7421 875.131 Q62.1958 874.553 64.2328 874.553 Q69.6031 874.553 72.7976 877.238 Q75.992 879.923 75.992 884.414 Q75.992 886.543 75.1818 888.465 Q74.3948 890.363 72.2883 892.955 Q71.7096 893.627 68.6078 896.844 Q65.5059 900.039 59.8578 905.802 Z" fill="#000000" fill-rule="nonzero" fill-opacity="1" /><path clip-path="url(#clip390)" d="M69.0476 574.245 Q72.404 574.963 74.279 577.231 Q76.1772 579.5 76.1772 582.833 Q76.1772 587.949 72.6587 590.75 Q69.1402 593.551 62.6587 593.551 Q60.4828 593.551 58.168 593.111 Q55.8764 592.694 53.4227 591.838 L53.4227 587.324 Q55.3671 588.458 57.6819 589.037 Q59.9967 589.615 62.5198 589.615 Q66.918 589.615 69.2096 587.879 Q71.5244 586.143 71.5244 582.833 Q71.5244 579.777 69.3717 578.064 Q67.242 576.328 63.4226 576.328 L59.3949 576.328 L59.3949 572.486 L63.6078 572.486 Q67.0569 572.486 68.8855 571.12 Q70.7142 569.731 70.7142 567.139 Q70.7142 564.477 68.8161 563.065 Q66.9411 561.629 63.4226 561.629 Q61.5013 561.629 59.3023 562.046 Q57.1032 562.463 54.4643 563.342 L54.4643 559.176 Q57.1264 558.435 59.4412 558.065 Q61.7791 557.694 63.8393 557.694 Q69.1633 557.694 72.2652 560.125 Q75.367 562.532 75.367 566.653 Q75.367 569.523 73.7235 571.514 Q72.08 573.481 69.0476 574.245 Z" fill="#000000" fill-rule="nonzero" fill-opacity="1" /><path clip-path="url(#clip390)" d="M66.5939 245.535 L54.7884 263.984 L66.5939 263.984 L66.5939 245.535 M65.367 241.461 L71.2466 241.461 L71.2466 263.984 L76.1772 263.984 L76.1772 267.873 L71.2466 267.873 L71.2466 276.021 L66.5939 276.021 L66.5939 267.873 L50.9921 267.873 L50.9921 263.359 L65.367 241.461 Z" fill="#000000" fill-rule="nonzero" fill-opacity="1" /><circle clip-path="url(#clip392)" cx="2289.34" cy="1396.18" r="14.4" fill="#808080" fill-rule="evenodd" fill-opacity="1" stroke="#000000" stroke-opacity="1" stroke-width="3.2"/>
<circle clip-path="url(#clip392)" cx="175.59" cy="87.9763" r="14.4" fill="#808080" fill-rule="evenodd" fill-opacity="1" stroke="#000000" stroke-opacity="1" stroke-width="3.2"/>
<circle clip-path="url(#clip392)" cx="1511.46" cy="1445.72" r="14.4" fill="#808080" fill-rule="evenodd" fill-opacity="1" stroke="#000000" stroke-opacity="1" stroke-width="3.2"/>
<circle clip-path="url(#clip392)" cx="1543.27" cy="1432.92" r="14.4" fill="#808080" fill-rule="evenodd" fill-opacity="1" stroke="#000000" stroke-opacity="1" stroke-width="3.2"/>
<path clip-path="url(#clip390)" d="M2293.64 1403.61 Q2284.6 1403.61 2281.12 1405.68 Q2277.64 1407.74 2277.64 1412.73 Q2277.64 1416.7 2280.23 1419.05 Q2282.86 1421.35 2287.36 1421.35 Q2293.56 1421.35 2297.28 1416.98 Q2301.05 1412.56 2301.05 1405.27 L2301.05 1403.61 L2293.64 1403.61 M2308.5 1400.53 L2308.5 1426.42 L2301.05 1426.42 L2301.05 1419.53 Q2298.5 1423.66 2294.69 1425.65 Q2290.88 1427.59 2285.37 1427.59 Q2278.41 1427.59 2274.27 1423.7 Q2270.18 1419.78 2270.18 1413.21 Q2270.18 1405.56 2275.29 1401.67 Q2280.43 1397.78 2290.6 1397.78 L2301.05 1397.78 L2301.05 1397.05 Q2301.05 1391.9 2297.65 1389.11 Q2294.29 1386.27 2288.17 1386.27 Q2284.28 1386.27 2280.59 1387.21 Q2276.91 1388.14 2273.5 1390 L2273.5 1383.11 Q2277.6 1381.53 2281.44 1380.76 Q2285.29 1379.95 2288.94 1379.95 Q2298.78 1379.95 2303.64 1385.06 Q2308.5 1390.16 2308.5 1400.53 Z" fill="#000000" fill-rule="nonzero" fill-opacity="1" /><path clip-path="url(#clip390)" d="M188.148 95.5717 Q188.148 87.3484 184.745 82.6898 Q181.383 77.9908 175.468 77.9908 Q169.554 77.9908 166.151 82.6898 Q162.789 87.3484 162.789 95.5717 Q162.789 103.795 166.151 108.494 Q169.554 113.153 175.468 113.153 Q181.383 113.153 184.745 108.494 Q188.148 103.795 188.148 95.5717 M162.789 79.7327 Q165.138 75.6818 168.703 73.7373 Q172.309 71.7524 177.291 71.7524 Q185.555 71.7524 190.7 78.3149 Q195.885 84.8773 195.885 95.5717 Q195.885 106.266 190.7 112.829 Q185.555 119.391 177.291 119.391 Q172.309 119.391 168.703 117.447 Q165.138 115.462 162.789 111.411 L162.789 118.216 L155.295 118.216 L155.295 55.1842 L162.789 55.1842 L162.789 79.7327 Z" fill="#000000" fill-rule="nonzero" fill-opacity="1" /><path clip-path="url(#clip390)" d="M1529.41 1432.33 L1529.41 1439.3 Q1526.25 1437.55 1523.05 1436.7 Q1519.89 1435.81 1516.65 1435.81 Q1509.4 1435.81 1505.39 1440.43 Q1501.38 1445.01 1501.38 1453.31 Q1501.38 1461.62 1505.39 1466.23 Q1509.4 1470.81 1516.65 1470.81 Q1519.89 1470.81 1523.05 1469.96 Q1526.25 1469.07 1529.41 1467.33 L1529.41 1474.21 Q1526.29 1475.67 1522.93 1476.4 Q1519.6 1477.13 1515.84 1477.13 Q1505.59 1477.13 1499.55 1470.69 Q1493.52 1464.25 1493.52 1453.31 Q1493.52 1442.21 1499.59 1435.85 Q1505.71 1429.49 1516.32 1429.49 Q1519.77 1429.49 1523.05 1430.22 Q1526.33 1430.91 1529.41 1432.33 Z" fill="#000000" fill-rule="nonzero" fill-opacity="1" /><path clip-path="url(#clip390)" d="M1556.09 1424.68 L1556.09 1400.13 L1563.54 1400.13 L1563.54 1463.16 L1556.09 1463.16 L1556.09 1456.35 Q1553.74 1460.4 1550.13 1462.39 Q1546.57 1464.33 1541.54 1464.33 Q1533.32 1464.33 1528.14 1457.77 Q1522.99 1451.21 1522.99 1440.51 Q1522.99 1429.82 1528.14 1423.26 Q1533.32 1416.7 1541.54 1416.7 Q1546.57 1416.7 1550.13 1418.68 Q1553.74 1420.63 1556.09 1424.68 M1530.69 1440.51 Q1530.69 1448.74 1534.05 1453.44 Q1537.45 1458.1 1543.37 1458.1 Q1549.28 1458.1 1552.68 1453.44 Q1556.09 1448.74 1556.09 1440.51 Q1556.09 1432.29 1552.68 1427.63 Q1549.28 1422.93 1543.37 1422.93 Q1537.45 1422.93 1534.05 1427.63 Q1530.69 1432.29 1530.69 1440.51 Z" fill="#000000" fill-rule="nonzero" fill-opacity="1" /><path clip-path="url(#clip390)" d="M2001.58 198.898 L2278.07 198.898 L2278.07 95.2176 L2001.58 95.2176  Z" fill="#ffffff" fill-rule="evenodd" fill-opacity="1"/>
<polyline clip-path="url(#clip390)" style="stroke:#000000; stroke-linecap:round; stroke-linejoin:round; stroke-width:4; stroke-opacity:1; fill:none" points="2001.58,198.898 2278.07,198.898 2278.07,95.2176 2001.58,95.2176 2001.58,198.898 "/>
<circle clip-path="url(#clip390)" cx="2101.16" cy="147.058" r="20.48" fill="#808080" fill-rule="evenodd" fill-opacity="1" stroke="#000000" stroke-opacity="1" stroke-width="4.55111"/>
<path clip-path="url(#clip390)" d="M2214.59 166.745 Q2212.78 171.375 2211.07 172.787 Q2209.36 174.199 2206.49 174.199 L2203.08 174.199 L2203.08 170.634 L2205.58 170.634 Q2207.34 170.634 2208.31 169.8 Q2209.29 168.967 2210.47 165.865 L2211.23 163.921 L2200.74 138.412 L2205.26 138.412 L2213.36 158.689 L2221.46 138.412 L2225.98 138.412 L2214.59 166.745 Z" fill="#000000" fill-rule="nonzero" fill-opacity="1" /><path clip-path="url(#clip390)" d="M2233.27 160.402 L2240.91 160.402 L2240.91 134.037 L2232.6 135.703 L2232.6 131.444 L2240.86 129.778 L2245.54 129.778 L2245.54 160.402 L2253.17 160.402 L2253.17 164.338 L2233.27 164.338 L2233.27 160.402 Z" fill="#000000" fill-rule="nonzero" fill-opacity="1" /></svg>
