<?xml version="1.0" encoding="utf-8"?>
<svg xmlns="http://www.w3.org/2000/svg" xmlns:xlink="http://www.w3.org/1999/xlink" width="600" height="400" viewBox="0 0 2400 1600">
<defs>
  <clipPath id="clip050">
    <rect x="0" y="0" width="2400" height="1600"/>
  </clipPath>
</defs>
<path clip-path="url(#clip050)" d="M0 1600 L2400 1600 L2400 0 L0 0  Z" fill="#ffffff" fill-rule="evenodd" fill-opacity="1"/>
<defs>
  <clipPath id="clip051">
    <rect x="480" y="0" width="1681" height="1600"/>
  </clipPath>
</defs>
<path clip-path="url(#clip050)" d="M156.598 1486.45 L2352.76 1486.45 L2352.76 47.2441 L156.598 47.2441  Z" fill="#ffffff" fill-rule="evenodd" fill-opacity="1"/>
<defs>
  <clipPath id="clip052">
    <rect x="156" y="47" width="2197" height="1440"/>
  </clipPath>
</defs>
<polyline clip-path="url(#clip052)" style="stroke:#000000; stroke-linecap:round; stroke-linejoin:round; stroke-width:2; stroke-opacity:0.1; fill:none" points="534.375,1486.45 534.375,47.2441 "/>
<polyline clip-path="url(#clip052)" style="stroke:#000000; stroke-linecap:round; stroke-linejoin:round; stroke-width:2; stroke-opacity:0.1; fill:none" points="987.828,1486.45 987.828,47.2441 "/>
<polyline clip-path="url(#clip052)" style="stroke:#000000; stroke-linecap:round; stroke-linejoin:round; stroke-width:2; stroke-opacity:0.1; fill:none" points="1441.28,1486.45 1441.28,47.2441 "/>
<polyline clip-path="url(#clip052)" style="stroke:#000000; stroke-linecap:round; stroke-linejoin:round; stroke-width:2; stroke-opacity:0.1; fill:none" points="1894.73,1486.45 1894.73,47.2441 "/>
<polyline clip-path="url(#clip052)" style="stroke:#000000; stroke-linecap:round; stroke-linejoin:round; stroke-width:2; stroke-opacity:0.1; fill:none" points="2348.18,1486.45 2348.18,47.2441 "/>
<polyline clip-path="url(#clip050)" style="stroke:#000000; stroke-linecap:round; stroke-linejoin:round; stroke-width:4; stroke-opacity:1; fill:none" points="156.598,1486.45 2352.76,1486.45 "/>
<polyline clip-path="url(#clip050)" style="stroke:#000000; stroke-linecap:round; stroke-linejoin:round; stroke-width:4; stroke-opacity:1; fill:none" points="534.375,1486.45 534.375,1467.55 "/>
<polyline clip-path="url(#clip050)" style="stroke:#000000; stroke-linecap:round; stroke-linejoin:round; stroke-width:4; stroke-opacity:1; fill:none" points="987.828,1486.45 987.828,1467.55 "/>
<polyline clip-path="url(#clip050)" style="stroke:#000000; stroke-linecap:round; stroke-linejoin:round; stroke-width:4; stroke-opacity:1; fill:none" points="1441.28,1486.45 1441.28,1467.55 "/>
<polyline clip-path="url(#clip050)" style="stroke:#000000; stroke-linecap:round; stroke-linejoin:round; stroke-width:4; stroke-opacity:1; fill:none" points="1894.73,1486.45 1894.73,1467.55 "/>
<polyline clip-path="url(#clip050)" style="stroke:#000000; stroke-linecap:round; stroke-linejoin:round; stroke-width:4; stroke-opacity:1; fill:none" points="2348.18,1486.45 2348.18,1467.55 "/>
<path clip-path="url(#clip050)" d="M480.66 1532.02 L510.336 1532.02 L510.336 1535.95 L480.66 1535.95 L480.66 1532.02 Z" fill="#000000" fill-rule="nonzero" fill-opacity="1" /><path clip-path="url(#clip050)" d="M530.429 1517.37 Q526.818 1517.37 524.989 1520.93 Q523.183 1524.47 523.183 1531.6 Q523.183 1538.71 524.989 1542.27 Q526.818 1545.82 530.429 1545.82 Q534.063 1545.82 535.868 1542.27 Q537.697 1538.71 537.697 1531.6 Q537.697 1524.47 535.868 1520.93 Q534.063 1517.37 530.429 1517.37 M530.429 1513.66 Q536.239 1513.66 539.294 1518.27 Q542.373 1522.85 542.373 1531.6 Q542.373 1540.33 539.294 1544.94 Q536.239 1549.52 530.429 1549.52 Q524.618 1549.52 521.54 1544.94 Q518.484 1540.33 518.484 1531.6 Q518.484 1522.85 521.54 1518.27 Q524.618 1513.66 530.429 1513.66 Z" fill="#000000" fill-rule="nonzero" fill-opacity="1" /><path clip-path="url(#clip050)" d="M550.591 1542.97 L555.475 1542.97 L555.475 1548.85 L550.591 1548.85 L550.591 1542.97 Z" fill="#000000" fill-rule="nonzero" fill-opacity="1" /><path clip-path="url(#clip050)" d="M578.507 1518.36 L566.702 1536.81 L578.507 1536.81 L578.507 1518.36 M577.28 1514.29 L583.16 1514.29 L583.16 1536.81 L588.09 1536.81 L588.09 1540.7 L583.16 1540.7 L583.16 1548.85 L578.507 1548.85 L578.507 1540.7 L562.905 1540.7 L562.905 1536.19 L577.28 1514.29 Z" fill="#000000" fill-rule="nonzero" fill-opacity="1" /><path clip-path="url(#clip050)" d="M935.154 1532.02 L964.83 1532.02 L964.83 1535.95 L935.154 1535.95 L935.154 1532.02 Z" fill="#000000" fill-rule="nonzero" fill-opacity="1" /><path clip-path="url(#clip050)" d="M984.923 1517.37 Q981.312 1517.37 979.483 1520.93 Q977.677 1524.47 977.677 1531.6 Q977.677 1538.71 979.483 1542.27 Q981.312 1545.82 984.923 1545.82 Q988.557 1545.82 990.362 1542.27 Q992.191 1538.71 992.191 1531.6 Q992.191 1524.47 990.362 1520.93 Q988.557 1517.37 984.923 1517.37 M984.923 1513.66 Q990.733 1513.66 993.788 1518.27 Q996.867 1522.85 996.867 1531.6 Q996.867 1540.33 993.788 1544.94 Q990.733 1549.52 984.923 1549.52 Q979.112 1549.52 976.034 1544.94 Q972.978 1540.33 972.978 1531.6 Q972.978 1522.85 976.034 1518.27 Q979.112 1513.66 984.923 1513.66 Z" fill="#000000" fill-rule="nonzero" fill-opacity="1" /><path clip-path="url(#clip050)" d="M1005.08 1542.97 L1009.97 1542.97 L1009.97 1548.85 L1005.08 1548.85 L1005.08 1542.97 Z" fill="#000000" fill-rule="nonzero" fill-opacity="1" /><path clip-path="url(#clip050)" d="M1024.18 1544.91 L1040.5 1544.91 L1040.5 1548.85 L1018.56 1548.85 L1018.56 1544.91 Q1021.22 1542.16 1025.8 1537.53 Q1030.41 1532.88 1031.59 1531.53 Q1033.83 1529.01 1034.71 1527.27 Q1035.62 1525.51 1035.62 1523.82 Q1035.62 1521.07 1033.67 1519.33 Q1031.75 1517.6 1028.65 1517.6 Q1026.45 1517.6 1024 1518.36 Q1021.57 1519.13 1018.79 1520.68 L1018.79 1515.95 Q1021.61 1514.82 1024.07 1514.24 Q1026.52 1513.66 1028.56 1513.66 Q1033.93 1513.66 1037.12 1516.35 Q1040.32 1519.03 1040.32 1523.52 Q1040.32 1525.65 1039.51 1527.57 Q1038.72 1529.47 1036.61 1532.07 Q1036.03 1532.74 1032.93 1535.95 Q1029.83 1539.15 1024.18 1544.91 Z" fill="#000000" fill-rule="nonzero" fill-opacity="1" /><path clip-path="url(#clip050)" d="M1418.66 1517.37 Q1415.05 1517.37 1413.22 1520.93 Q1411.42 1524.47 1411.42 1531.6 Q1411.42 1538.71 1413.22 1542.27 Q1415.05 1545.82 1418.66 1545.82 Q1422.3 1545.82 1424.1 1542.27 Q1425.93 1538.71 1425.93 1531.6 Q1425.93 1524.47 1424.1 1520.93 Q1422.3 1517.37 1418.66 1517.37 M1418.66 1513.66 Q1424.47 1513.66 1427.53 1518.27 Q1430.61 1522.85 1430.61 1531.6 Q1430.61 1540.33 1427.53 1544.94 Q1424.47 1549.52 1418.66 1549.52 Q1412.85 1549.52 1409.78 1544.94 Q1406.72 1540.33 1406.72 1531.6 Q1406.72 1522.85 1409.78 1518.27 Q1412.85 1513.66 1418.66 1513.66 Z" fill="#000000" fill-rule="nonzero" fill-opacity="1" /><path clip-path="url(#clip050)" d="M1438.83 1542.97 L1443.71 1542.97 L1443.71 1548.85 L1438.83 1548.85 L1438.83 1542.97 Z" fill="#000000" fill-rule="nonzero" fill-opacity="1" /><path clip-path="url(#clip050)" d="M1463.9 1517.37 Q1460.28 1517.37 1458.46 1520.93 Q1456.65 1524.47 1456.65 1531.6 Q1456.65 1538.71 1458.46 1542.27 Q1460.28 1545.82 1463.9 1545.82 Q1467.53 1545.82 1469.34 1542.27 Q1471.16 1538.71 1471.16 1531.6 Q1471.16 1524.47 1469.34 1520.93 Q1467.53 1517.37 1463.9 1517.37 M1463.9 1513.66 Q1469.71 1513.66 1472.76 1518.27 Q1475.84 1522.85 1475.84 1531.6 Q1475.84 1540.33 1472.76 1544.94 Q1469.71 1549.52 1463.9 1549.52 Q1458.09 1549.52 1455.01 1544.94 Q1451.95 1540.33 1451.95 1531.6 Q1451.95 1522.85 1455.01 1518.27 Q1458.09 1513.66 1463.9 1513.66 Z" fill="#000000" fill-rule="nonzero" fill-opacity="1" /><path clip-path="url(#clip050)" d="M1872.92 1517.37 Q1869.3 1517.37 1867.48 1520.93 Q1865.67 1524.47 1865.67 1531.6 Q1865.67 1538.71 1867.48 1542.27 Q1869.3 1545.82 1872.92 1545.82 Q1876.55 1545.82 1878.36 1542.27 Q1880.18 1538.71 1880.18 1531.6 Q1880.18 1524.47 1878.36 1520.93 Q1876.55 1517.37 1872.92 1517.37 M1872.92 1513.66 Q1878.73 1513.66 1881.78 1518.27 Q1884.86 1522.85 1884.86 1531.6 Q1884.86 1540.33 1881.78 1544.94 Q1878.73 1549.52 1872.92 1549.52 Q1867.11 1549.52 1864.03 1544.94 Q1860.97 1540.33 1860.97 1531.6 Q1860.97 1522.85 1864.03 1518.27 Q1867.11 1513.66 1872.92 1513.66 Z" fill="#000000" fill-rule="nonzero" fill-opacity="1" /><path clip-path="url(#clip050)" d="M1893.08 1542.97 L1897.96 1542.97 L1897.96 1548.85 L1893.08 1548.85 L1893.08 1542.97 Z" fill="#000000" fill-rule="nonzero" fill-opacity="1" /><path clip-path="url(#clip050)" d="M1912.17 1544.91 L1928.49 1544.91 L1928.49 1548.85 L1906.55 1548.85 L1906.55 1544.91 Q1909.21 1542.16 1913.79 1537.53 Q1918.4 1532.88 1919.58 1531.53 Q1921.83 1529.01 1922.71 1527.27 Q1923.61 1525.51 1923.61 1523.82 Q1923.61 1521.07 1921.67 1519.33 Q1919.74 1517.6 1916.64 1517.6 Q1914.44 1517.6 1911.99 1518.36 Q1909.56 1519.13 1906.78 1520.68 L1906.78 1515.95 Q1909.6 1514.82 1912.06 1514.24 Q1914.51 1513.66 1916.55 1513.66 Q1921.92 1513.66 1925.11 1516.35 Q1928.31 1519.03 1928.31 1523.52 Q1928.31 1525.65 1927.5 1527.57 Q1926.71 1529.47 1924.6 1532.07 Q1924.03 1532.74 1920.92 1535.95 Q1917.82 1539.15 1912.17 1544.91 Z" fill="#000000" fill-rule="nonzero" fill-opacity="1" /><path clip-path="url(#clip050)" d="M2325.33 1517.37 Q2321.71 1517.37 2319.89 1520.93 Q2318.08 1524.47 2318.08 1531.6 Q2318.08 1538.71 2319.89 1542.27 Q2321.71 1545.82 2325.33 1545.82 Q2328.96 1545.82 2330.77 1542.27 Q2332.59 1538.71 2332.59 1531.6 Q2332.59 1524.47 2330.77 1520.93 Q2328.96 1517.37 2325.33 1517.37 M2325.33 1513.66 Q2331.14 1513.66 2334.19 1518.27 Q2337.27 1522.85 2337.27 1531.6 Q2337.27 1540.33 2334.19 1544.94 Q2331.14 1549.52 2325.33 1549.52 Q2319.52 1549.52 2316.44 1544.94 Q2313.38 1540.33 2313.38 1531.6 Q2313.38 1522.85 2316.44 1518.27 Q2319.52 1513.66 2325.33 1513.66 Z" fill="#000000" fill-rule="nonzero" fill-opacity="1" /><path clip-path="url(#clip050)" d="M2345.49 1542.97 L2350.37 1542.97 L2350.37 1548.85 L2345.49 1548.85 L2345.49 1542.97 Z" fill="#000000" fill-rule="nonzero" fill-opacity="1" /><path clip-path="url(#clip050)" d="M2373.4 1518.36 L2361.6 1536.81 L2373.4 1536.81 L2373.4 1518.36 M2372.18 1514.29 L2378.06 1514.29 L2378.06 1536.81 L2382.99 1536.81 L2382.99 1540.7 L2378.06 1540.7 L2378.06 1548.85 L2373.4 1548.85 L2373.4 1540.7 L2357.8 1540.7 L2357.8 1536.19 L2372.18 1514.29 Z" fill="#000000" fill-rule="nonzero" fill-opacity="1" /><polyline clip-path="url(#clip052)" style="stroke:#000000; stroke-linecap:round; stroke-linejoin:round; stroke-width:2; stroke-opacity:0.1; fill:none" points="156.598,1448.15 2352.76,1448.15 "/>
<polyline clip-path="url(#clip052)" style="stroke:#000000; stroke-linecap:round; stroke-linejoin:round; stroke-width:2; stroke-opacity:0.1; fill:none" points="156.598,1209.38 2352.76,1209.38 "/>
<polyline clip-path="url(#clip052)" style="stroke:#000000; stroke-linecap:round; stroke-linejoin:round; stroke-width:2; stroke-opacity:0.1; fill:none" points="156.598,970.613 2352.76,970.613 "/>
<polyline clip-path="url(#clip052)" style="stroke:#000000; stroke-linecap:round; stroke-linejoin:round; stroke-width:2; stroke-opacity:0.1; fill:none" points="156.598,731.844 2352.76,731.844 "/>
<polyline clip-path="url(#clip052)" style="stroke:#000000; stroke-linecap:round; stroke-linejoin:round; stroke-width:2; stroke-opacity:0.1; fill:none" points="156.598,493.076 2352.76,493.076 "/>
<polyline clip-path="url(#clip052)" style="stroke:#000000; stroke-linecap:round; stroke-linejoin:round; stroke-width:2; stroke-opacity:0.1; fill:none" points="156.598,254.308 2352.76,254.308 "/>
<polyline clip-path="url(#clip050)" style="stroke:#000000; stroke-linecap:round; stroke-linejoin:round; stroke-width:4; stroke-opacity:1; fill:none" points="156.598,1486.45 156.598,47.2441 "/>
<polyline clip-path="url(#clip050)" style="stroke:#000000; stroke-linecap:round; stroke-linejoin:round; stroke-width:4; stroke-opacity:1; fill:none" points="156.598,1448.15 175.496,1448.15 "/>
<polyline clip-path="url(#clip050)" style="stroke:#000000; stroke-linecap:round; stroke-linejoin:round; stroke-width:4; stroke-opacity:1; fill:none" points="156.598,1209.38 175.496,1209.38 "/>
<polyline clip-path="url(#clip050)" style="stroke:#000000; stroke-linecap:round; stroke-linejoin:round; stroke-width:4; stroke-opacity:1; fill:none" points="156.598,970.613 175.496,970.613 "/>
<polyline clip-path="url(#clip050)" style="stroke:#000000; stroke-linecap:round; stroke-linejoin:round; stroke-width:4; stroke-opacity:1; fill:none" points="156.598,731.844 175.496,731.844 "/>
<polyline clip-path="url(#clip050)" style="stroke:#000000; stroke-linecap:round; stroke-linejoin:round; stroke-width:4; stroke-opacity:1; fill:none" points="156.598,493.076 175.496,493.076 "/>
<polyline clip-path="url(#clip050)" style="stroke:#000000; stroke-linecap:round; stroke-linejoin:round; stroke-width:4; stroke-opacity:1; fill:none" points="156.598,254.308 175.496,254.308 "/>
<path clip-path="url(#clip050)" d="M63.4226 1433.95 Q59.8115 1433.95 57.9828 1437.51 Q56.1773 1441.05 56.1773 1448.18 Q56.1773 1455.29 57.9828 1458.86 Q59.8115 1462.4 63.4226 1462.4 Q67.0569 1462.4 68.8624 1458.86 Q70.6911 1455.29 70.6911 1448.18 Q70.6911 1441.05 68.8624 1437.51 Q67.0569 1433.95 63.4226 1433.95 M63.4226 1430.24 Q69.2328 1430.24 72.2883 1434.85 Q75.367 1439.43 75.367 1448.18 Q75.367 1456.91 72.2883 1461.52 Q69.2328 1466.1 63.4226 1466.1 Q57.6125 1466.1 54.5338 1461.52 Q51.4782 1456.91 51.4782 1448.18 Q51.4782 1439.43 54.5338 1434.85 Q57.6125 1430.24 63.4226 1430.24 Z" fill="#000000" fill-rule="nonzero" fill-opacity="1" /><path clip-path="url(#clip050)" d="M83.5845 1459.55 L88.4688 1459.55 L88.4688 1465.43 L83.5845 1465.43 L83.5845 1459.55 Z" fill="#000000" fill-rule="nonzero" fill-opacity="1" /><path clip-path="url(#clip050)" d="M108.654 1433.95 Q105.043 1433.95 103.214 1437.51 Q101.409 1441.05 101.409 1448.18 Q101.409 1455.29 103.214 1458.86 Q105.043 1462.4 108.654 1462.4 Q112.288 1462.4 114.094 1458.86 Q115.922 1455.29 115.922 1448.18 Q115.922 1441.05 114.094 1437.51 Q112.288 1433.95 108.654 1433.95 M108.654 1430.24 Q114.464 1430.24 117.52 1434.85 Q120.598 1439.43 120.598 1448.18 Q120.598 1456.91 117.52 1461.52 Q114.464 1466.1 108.654 1466.1 Q102.844 1466.1 99.765 1461.52 Q96.7095 1456.91 96.7095 1448.18 Q96.7095 1439.43 99.765 1434.85 Q102.844 1430.24 108.654 1430.24 Z" fill="#000000" fill-rule="nonzero" fill-opacity="1" /><path clip-path="url(#clip050)" d="M64.6495 1195.18 Q61.0384 1195.18 59.2097 1198.74 Q57.4041 1202.29 57.4041 1209.42 Q57.4041 1216.52 59.2097 1220.09 Q61.0384 1223.63 64.6495 1223.63 Q68.2837 1223.63 70.0892 1220.09 Q71.9179 1216.52 71.9179 1209.42 Q71.9179 1202.29 70.0892 1198.74 Q68.2837 1195.18 64.6495 1195.18 M64.6495 1191.48 Q70.4596 1191.48 73.5152 1196.08 Q76.5938 1200.67 76.5938 1209.42 Q76.5938 1218.14 73.5152 1222.75 Q70.4596 1227.33 64.6495 1227.33 Q58.8393 1227.33 55.7606 1222.75 Q52.7051 1218.14 52.7051 1209.42 Q52.7051 1200.67 55.7606 1196.08 Q58.8393 1191.48 64.6495 1191.48 Z" fill="#000000" fill-rule="nonzero" fill-opacity="1" /><path clip-path="url(#clip050)" d="M84.8114 1220.78 L89.6956 1220.78 L89.6956 1226.66 L84.8114 1226.66 L84.8114 1220.78 Z" fill="#000000" fill-rule="nonzero" fill-opacity="1" /><path clip-path="url(#clip050)" d="M100.691 1222.73 L108.33 1222.73 L108.33 1196.36 L100.02 1198.03 L100.02 1193.77 L108.283 1192.1 L112.959 1192.1 L112.959 1222.73 L120.598 1222.73 L120.598 1226.66 L100.691 1226.66 L100.691 1222.73 Z" fill="#000000" fill-rule="nonzero" fill-opacity="1" /><path clip-path="url(#clip050)" d="M65.0198 956.411 Q61.4087 956.411 59.58 959.976 Q57.7745 963.518 57.7745 970.647 Q57.7745 977.754 59.58 981.319 Q61.4087 984.86 65.0198 984.86 Q68.6541 984.86 70.4596 981.319 Q72.2883 977.754 72.2883 970.647 Q72.2883 963.518 70.4596 959.976 Q68.6541 956.411 65.0198 956.411 M65.0198 952.708 Q70.83 952.708 73.8855 957.314 Q76.9642 961.897 76.9642 970.647 Q76.9642 979.374 73.8855 983.981 Q70.83 988.564 65.0198 988.564 Q59.2097 988.564 56.131 983.981 Q53.0754 979.374 53.0754 970.647 Q53.0754 961.897 56.131 957.314 Q59.2097 952.708 65.0198 952.708 Z" fill="#000000" fill-rule="nonzero" fill-opacity="1" /><path clip-path="url(#clip050)" d="M85.1818 982.013 L90.066 982.013 L90.066 987.893 L85.1818 987.893 L85.1818 982.013 Z" fill="#000000" fill-rule="nonzero" fill-opacity="1" /><path clip-path="url(#clip050)" d="M104.279 983.957 L120.598 983.957 L120.598 987.893 L98.6539 987.893 L98.6539 983.957 Q101.316 981.203 105.899 976.573 Q110.506 971.92 111.686 970.578 Q113.932 968.055 114.811 966.319 Q115.714 964.559 115.714 962.87 Q115.714 960.115 113.77 958.379 Q111.848 956.643 108.746 956.643 Q106.547 956.643 104.094 957.407 Q101.663 958.17 98.8854 959.721 L98.8854 954.999 Q101.709 953.865 104.163 953.286 Q106.617 952.708 108.654 952.708 Q114.024 952.708 117.219 955.393 Q120.413 958.078 120.413 962.569 Q120.413 964.698 119.603 966.62 Q118.816 968.518 116.709 971.11 Q116.131 971.782 113.029 974.999 Q109.927 978.194 104.279 983.957 Z" fill="#000000" fill-rule="nonzero" fill-opacity="1" /><path clip-path="url(#clip050)" d="M64.0708 717.643 Q60.4597 717.643 58.631 721.208 Q56.8254 724.749 56.8254 731.879 Q56.8254 738.985 58.631 742.55 Q60.4597 746.092 64.0708 746.092 Q67.705 746.092 69.5105 742.55 Q71.3392 738.985 71.3392 731.879 Q71.3392 724.749 69.5105 721.208 Q67.705 717.643 64.0708 717.643 M64.0708 713.939 Q69.8809 713.939 72.9365 718.546 Q76.0151 723.129 76.0151 731.879 Q76.0151 740.606 72.9365 745.212 Q69.8809 749.796 64.0708 749.796 Q58.2606 749.796 55.1819 745.212 Q52.1264 740.606 52.1264 731.879 Q52.1264 723.129 55.1819 718.546 Q58.2606 713.939 64.0708 713.939 Z" fill="#000000" fill-rule="nonzero" fill-opacity="1" /><path clip-path="url(#clip050)" d="M84.2327 743.245 L89.1169 743.245 L89.1169 749.124 L84.2327 749.124 L84.2327 743.245 Z" fill="#000000" fill-rule="nonzero" fill-opacity="1" /><path clip-path="url(#clip050)" d="M113.469 730.49 Q116.825 731.208 118.7 733.476 Q120.598 735.745 120.598 739.078 Q120.598 744.194 117.08 746.995 Q113.561 749.796 107.08 749.796 Q104.904 749.796 102.589 749.356 Q100.297 748.939 97.8437 748.083 L97.8437 743.569 Q99.7882 744.703 102.103 745.282 Q104.418 745.86 106.941 745.86 Q111.339 745.86 113.631 744.124 Q115.945 742.388 115.945 739.078 Q115.945 736.022 113.793 734.309 Q111.663 732.573 107.844 732.573 L103.816 732.573 L103.816 728.731 L108.029 728.731 Q111.478 728.731 113.307 727.365 Q115.135 725.976 115.135 723.384 Q115.135 720.722 113.237 719.31 Q111.362 717.874 107.844 717.874 Q105.922 717.874 103.723 718.291 Q101.524 718.708 98.8854 719.587 L98.8854 715.421 Q101.547 714.68 103.862 714.31 Q106.2 713.939 108.26 713.939 Q113.584 713.939 116.686 716.37 Q119.788 718.777 119.788 722.897 Q119.788 725.768 118.145 727.759 Q116.501 729.726 113.469 730.49 Z" fill="#000000" fill-rule="nonzero" fill-opacity="1" /><path clip-path="url(#clip050)" d="M62.9365 478.875 Q59.3254 478.875 57.4967 482.439 Q55.6912 485.981 55.6912 493.111 Q55.6912 500.217 57.4967 503.782 Q59.3254 507.323 62.9365 507.323 Q66.5707 507.323 68.3763 503.782 Q70.205 500.217 70.205 493.111 Q70.205 485.981 68.3763 482.439 Q66.5707 478.875 62.9365 478.875 M62.9365 475.171 Q68.7467 475.171 71.8022 479.777 Q74.8809 484.361 74.8809 493.111 Q74.8809 501.837 71.8022 506.444 Q68.7467 511.027 62.9365 511.027 Q57.1264 511.027 54.0477 506.444 Q50.9921 501.837 50.9921 493.111 Q50.9921 484.361 54.0477 479.777 Q57.1264 475.171 62.9365 475.171 Z" fill="#000000" fill-rule="nonzero" fill-opacity="1" /><path clip-path="url(#clip050)" d="M83.0984 504.476 L87.9827 504.476 L87.9827 510.356 L83.0984 510.356 L83.0984 504.476 Z" fill="#000000" fill-rule="nonzero" fill-opacity="1" /><path clip-path="url(#clip050)" d="M111.015 479.87 L99.2095 498.319 L111.015 498.319 L111.015 479.87 M109.788 475.796 L115.668 475.796 L115.668 498.319 L120.598 498.319 L120.598 502.208 L115.668 502.208 L115.668 510.356 L111.015 510.356 L111.015 502.208 L95.4132 502.208 L95.4132 497.694 L109.788 475.796 Z" fill="#000000" fill-rule="nonzero" fill-opacity="1" /><path clip-path="url(#clip050)" d="M64.418 240.106 Q60.8069 240.106 58.9782 243.671 Q57.1726 247.213 57.1726 254.342 Q57.1726 261.449 58.9782 265.013 Q60.8069 268.555 64.418 268.555 Q68.0522 268.555 69.8578 265.013 Q71.6865 261.449 71.6865 254.342 Q71.6865 247.213 69.8578 243.671 Q68.0522 240.106 64.418 240.106 M64.418 236.403 Q70.2281 236.403 73.2837 241.009 Q76.3624 245.592 76.3624 254.342 Q76.3624 263.069 73.2837 267.676 Q70.2281 272.259 64.418 272.259 Q58.6078 272.259 55.5291 267.676 Q52.4736 263.069 52.4736 254.342 Q52.4736 245.592 55.5291 241.009 Q58.6078 236.403 64.418 236.403 Z" fill="#000000" fill-rule="nonzero" fill-opacity="1" /><path clip-path="url(#clip050)" d="M84.5799 265.708 L89.4641 265.708 L89.4641 271.588 L84.5799 271.588 L84.5799 265.708 Z" fill="#000000" fill-rule="nonzero" fill-opacity="1" /><path clip-path="url(#clip050)" d="M99.6956 237.028 L118.052 237.028 L118.052 240.963 L103.978 240.963 L103.978 249.435 Q104.996 249.088 106.015 248.926 Q107.033 248.74 108.052 248.74 Q113.839 248.74 117.219 251.912 Q120.598 255.083 120.598 260.5 Q120.598 266.078 117.126 269.18 Q113.654 272.259 107.334 272.259 Q105.159 272.259 102.89 271.888 Q100.645 271.518 98.2372 270.777 L98.2372 266.078 Q100.321 267.213 102.543 267.768 Q104.765 268.324 107.242 268.324 Q111.246 268.324 113.584 266.217 Q115.922 264.111 115.922 260.5 Q115.922 256.889 113.584 254.782 Q111.246 252.676 107.242 252.676 Q105.367 252.676 103.492 253.092 Q101.64 253.509 99.6956 254.389 L99.6956 237.028 Z" fill="#000000" fill-rule="nonzero" fill-opacity="1" /><circle clip-path="url(#clip052)" cx="1451.19" cy="1384.29" r="14.4" fill="#808080" fill-rule="evenodd" fill-opacity="1" stroke="#000000" stroke-opacity="1" stroke-width="3.2"/>
<circle clip-path="url(#clip052)" cx="1418.4" cy="1445.72" r="14.4" fill="#808080" fill-rule="evenodd" fill-opacity="1" stroke="#000000" stroke-opacity="1" stroke-width="3.2"/>
<circle clip-path="url(#clip052)" cx="2290.6" cy="1360.01" r="14.4" fill="#808080" fill-rule="evenodd" fill-opacity="1" stroke="#000000" stroke-opacity="1" stroke-width="3.2"/>
<circle clip-path="url(#clip052)" cx="218.754" cy="87.9763" r="14.4" fill="#808080" fill-rule="evenodd" fill-opacity="1" stroke="#000000" stroke-opacity="1" stroke-width="3.2"/>
<path clip-path="url(#clip050)" d="M1455.48 1391.72 Q1446.45 1391.72 1442.97 1393.79 Q1439.48 1395.86 1439.48 1400.84 Q1439.48 1404.81 1442.07 1407.16 Q1444.71 1409.47 1449.2 1409.47 Q1455.4 1409.47 1459.13 1405.09 Q1462.9 1400.68 1462.9 1393.38 L1462.9 1391.72 L1455.48 1391.72 M1470.35 1388.64 L1470.35 1414.53 L1462.9 1414.53 L1462.9 1407.64 Q1460.34 1411.78 1456.54 1413.76 Q1452.73 1415.71 1447.22 1415.71 Q1440.25 1415.71 1436.12 1411.82 Q1432.03 1407.89 1432.03 1401.32 Q1432.03 1393.67 1437.13 1389.78 Q1442.28 1385.89 1452.44 1385.89 L1462.9 1385.89 L1462.9 1385.16 Q1462.9 1380.02 1459.49 1377.22 Q1456.13 1374.39 1450.01 1374.39 Q1446.12 1374.39 1442.44 1375.32 Q1438.75 1376.25 1435.35 1378.11 L1435.35 1371.23 Q1439.44 1369.65 1443.29 1368.88 Q1447.14 1368.07 1450.78 1368.07 Q1460.63 1368.07 1465.49 1373.17 Q1470.35 1378.27 1470.35 1388.64 Z" fill="#000000" fill-rule="nonzero" fill-opacity="1" /><path clip-path="url(#clip050)" d="M1430.96 1453.31 Q1430.96 1445.09 1427.56 1440.43 Q1424.2 1435.73 1418.28 1435.73 Q1412.37 1435.73 1408.97 1440.43 Q1405.6 1445.09 1405.6 1453.31 Q1405.6 1461.53 1408.97 1466.23 Q1412.37 1470.89 1418.28 1470.89 Q1424.2 1470.89 1427.56 1466.23 Q1430.96 1461.53 1430.96 1453.31 M1405.6 1437.47 Q1407.95 1433.42 1411.52 1431.48 Q1415.12 1429.49 1420.11 1429.49 Q1428.37 1429.49 1433.51 1436.05 Q1438.7 1442.62 1438.7 1453.31 Q1438.7 1464.01 1433.51 1470.57 Q1428.37 1477.13 1420.11 1477.13 Q1415.12 1477.13 1411.52 1475.19 Q1407.95 1473.2 1405.6 1469.15 L1405.6 1475.96 L1398.11 1475.96 L1398.11 1412.92 L1405.6 1412.92 L1405.6 1437.47 Z" fill="#000000" fill-rule="nonzero" fill-opacity="1" /><path clip-path="url(#clip050)" d="M2308.55 1346.62 L2308.55 1353.59 Q2305.39 1351.85 2302.19 1351 Q2299.03 1350.11 2295.79 1350.11 Q2288.53 1350.11 2284.52 1354.72 Q2280.51 1359.3 2280.51 1367.61 Q2280.51 1375.91 2284.52 1380.53 Q2288.53 1385.11 2295.79 1385.11 Q2299.03 1385.11 2302.19 1384.26 Q2305.39 1383.36 2308.55 1381.62 L2308.55 1388.51 Q2305.43 1389.97 2302.06 1390.7 Q2298.74 1391.43 2294.98 1391.43 Q2284.73 1391.43 2278.69 1384.98 Q2272.65 1378.54 2272.65 1367.61 Q2272.65 1356.51 2278.73 1350.15 Q2284.85 1343.79 2295.46 1343.79 Q2298.9 1343.79 2302.19 1344.52 Q2305.47 1345.21 2308.55 1346.62 Z" fill="#000000" fill-rule="nonzero" fill-opacity="1" /><path clip-path="url(#clip050)" d="M231.575 79.7327 L231.575 55.1842 L239.028 55.1842 L239.028 118.216 L231.575 118.216 L231.575 111.411 Q229.225 115.462 225.62 117.447 Q222.055 119.391 217.032 119.391 Q208.809 119.391 203.624 112.829 Q198.479 106.266 198.479 95.5717 Q198.479 84.8773 203.624 78.3149 Q208.809 71.7524 217.032 71.7524 Q222.055 71.7524 225.62 73.7373 Q229.225 75.6818 231.575 79.7327 M206.176 95.5717 Q206.176 103.795 209.538 108.494 Q212.941 113.153 218.855 113.153 Q224.769 113.153 228.172 108.494 Q231.575 103.795 231.575 95.5717 Q231.575 87.3484 228.172 82.6898 Q224.769 77.9908 218.855 77.9908 Q212.941 77.9908 209.538 82.6898 Q206.176 87.3484 206.176 95.5717 Z" fill="#000000" fill-rule="nonzero" fill-opacity="1" /><path clip-path="url(#clip050)" d="M2007.5 198.898 L2279.55 198.898 L2279.55 95.2176 L2007.5 95.2176  Z" fill="#ffffff" fill-rule="evenodd" fill-opacity="1"/>
<polyline clip-path="url(#clip050)" style="stroke:#000000; stroke-linecap:round; stroke-linejoin:round; stroke-width:4; stroke-opacity:1; fill:none" points="2007.5,198.898 2279.55,198.898 2279.55,95.2176 2007.5,95.2176 2007.5,198.898 "/>
<circle clip-path="url(#clip050)" cx="2105.11" cy="147.058" r="20.48" fill="#808080" fill-rule="evenodd" fill-opacity="1" stroke="#000000" stroke-opacity="1" stroke-width="4.55111"/>
<path clip-path="url(#clip050)" d="M2216.56 166.745 Q2214.76 171.375 2213.04 172.787 Q2211.33 174.199 2208.46 174.199 L2205.06 174.199 L2205.06 170.634 L2207.56 170.634 Q2209.32 170.634 2210.29 169.8 Q2211.26 168.967 2212.44 165.865 L2213.2 163.921 L2202.72 138.412 L2207.23 138.412 L2215.33 158.689 L2223.44 138.412 L2227.95 138.412 L2216.56 166.745 Z" fill="#000000" fill-rule="nonzero" fill-opacity="1" /><path clip-path="url(#clip050)" d="M2235.24 160.402 L2242.88 160.402 L2242.88 134.037 L2234.57 135.703 L2234.57 131.444 L2242.83 129.778 L2247.51 129.778 L2247.51 160.402 L2255.15 160.402 L2255.15 164.338 L2235.24 164.338 L2235.24 160.402 Z" fill="#000000" fill-rule="nonzero" fill-opacity="1" /></svg>
