<?xml version="1.0" encoding="utf-8"?>
<svg xmlns="http://www.w3.org/2000/svg" xmlns:xlink="http://www.w3.org/1999/xlink" width="600" height="400" viewBox="0 0 2400 1600">
<defs>
  <clipPath id="clip110">
    <rect x="0" y="0" width="2400" height="1600"/>
  </clipPath>
</defs>
<path clip-path="url(#clip110)" d="M0 1600 L2400 1600 L2400 0 L0 0  Z" fill="#ffffff" fill-rule="evenodd" fill-opacity="1"/>
<defs>
  <clipPath id="clip111">
    <rect x="480" y="0" width="1681" height="1600"/>
  </clipPath>
</defs>
<path clip-path="url(#clip110)" d="M112.177 1486.45 L2352.76 1486.45 L2352.76 47.2441 L112.177 47.2441  Z" fill="#ffffff" fill-rule="evenodd" fill-opacity="1"/>
<defs>
  <clipPath id="clip112">
    <rect x="112" y="47" width="2242" height="1440"/>
  </clipPath>
</defs>
<polyline clip-path="url(#clip112)" style="stroke:#000000; stroke-linecap:round; stroke-linejoin:round; stroke-width:2; stroke-opacity:0.1; fill:none" points="529.852,1486.45 529.852,47.2441 "/>
<polyline clip-path="url(#clip112)" style="stroke:#000000; stroke-linecap:round; stroke-linejoin:round; stroke-width:2; stroke-opacity:0.1; fill:none" points="1077.82,1486.45 1077.82,47.2441 "/>
<polyline clip-path="url(#clip112)" style="stroke:#000000; stroke-linecap:round; stroke-linejoin:round; stroke-width:2; stroke-opacity:0.1; fill:none" points="1625.78,1486.45 1625.78,47.2441 "/>
<polyline clip-path="url(#clip112)" style="stroke:#000000; stroke-linecap:round; stroke-linejoin:round; stroke-width:2; stroke-opacity:0.1; fill:none" points="2173.75,1486.45 2173.75,47.2441 "/>
<polyline clip-path="url(#clip110)" style="stroke:#000000; stroke-linecap:round; stroke-linejoin:round; stroke-width:4; stroke-opacity:1; fill:none" points="112.177,1486.45 2352.76,1486.45 "/>
<polyline clip-path="url(#clip110)" style="stroke:#000000; stroke-linecap:round; stroke-linejoin:round; stroke-width:4; stroke-opacity:1; fill:none" points="529.852,1486.45 529.852,1467.55 "/>
<polyline clip-path="url(#clip110)" style="stroke:#000000; stroke-linecap:round; stroke-linejoin:round; stroke-width:4; stroke-opacity:1; fill:none" points="1077.82,1486.45 1077.82,1467.55 "/>
<polyline clip-path="url(#clip110)" style="stroke:#000000; stroke-linecap:round; stroke-linejoin:round; stroke-width:4; stroke-opacity:1; fill:none" points="1625.78,1486.45 1625.78,1467.55 "/>
<polyline clip-path="url(#clip110)" style="stroke:#000000; stroke-linecap:round; stroke-linejoin:round; stroke-width:4; stroke-opacity:1; fill:none" points="2173.75,1486.45 2173.75,1467.55 "/>
<path clip-path="url(#clip110)" d="M476.381 1532.02 L506.056 1532.02 L506.056 1535.95 L476.381 1535.95 L476.381 1532.02 Z" fill="#000000" fill-rule="nonzero" fill-opacity="1" /><path clip-path="url(#clip110)" d="M516.959 1544.91 L524.598 1544.91 L524.598 1518.55 L516.288 1520.21 L516.288 1515.95 L524.552 1514.29 L529.227 1514.29 L529.227 1544.91 L536.866 1544.91 L536.866 1548.85 L516.959 1548.85 L516.959 1544.91 Z" fill="#000000" fill-rule="nonzero" fill-opacity="1" /><path clip-path="url(#clip110)" d="M546.311 1542.97 L551.195 1542.97 L551.195 1548.85 L546.311 1548.85 L546.311 1542.97 Z" fill="#000000" fill-rule="nonzero" fill-opacity="1" /><path clip-path="url(#clip110)" d="M571.38 1517.37 Q567.769 1517.37 565.94 1520.93 Q564.135 1524.47 564.135 1531.6 Q564.135 1538.71 565.94 1542.27 Q567.769 1545.82 571.38 1545.82 Q575.014 1545.82 576.82 1542.27 Q578.649 1538.71 578.649 1531.6 Q578.649 1524.47 576.82 1520.93 Q575.014 1517.37 571.38 1517.37 M571.38 1513.66 Q577.19 1513.66 580.246 1518.27 Q583.324 1522.85 583.324 1531.6 Q583.324 1540.33 580.246 1544.94 Q577.19 1549.52 571.38 1549.52 Q565.57 1549.52 562.491 1544.94 Q559.436 1540.33 559.436 1531.6 Q559.436 1522.85 562.491 1518.27 Q565.57 1513.66 571.38 1513.66 Z" fill="#000000" fill-rule="nonzero" fill-opacity="1" /><path clip-path="url(#clip110)" d="M1024.84 1532.02 L1054.52 1532.02 L1054.52 1535.95 L1024.84 1535.95 L1024.84 1532.02 Z" fill="#000000" fill-rule="nonzero" fill-opacity="1" /><path clip-path="url(#clip110)" d="M1074.61 1517.37 Q1071 1517.37 1069.17 1520.93 Q1067.37 1524.47 1067.37 1531.6 Q1067.37 1538.71 1069.17 1542.27 Q1071 1545.82 1074.61 1545.82 Q1078.25 1545.82 1080.05 1542.27 Q1081.88 1538.71 1081.88 1531.6 Q1081.88 1524.47 1080.05 1520.93 Q1078.25 1517.37 1074.61 1517.37 M1074.61 1513.66 Q1080.42 1513.66 1083.48 1518.27 Q1086.56 1522.85 1086.56 1531.6 Q1086.56 1540.33 1083.48 1544.94 Q1080.42 1549.52 1074.61 1549.52 Q1068.8 1549.52 1065.72 1544.94 Q1062.67 1540.33 1062.67 1531.6 Q1062.67 1522.85 1065.72 1518.27 Q1068.8 1513.66 1074.61 1513.66 Z" fill="#000000" fill-rule="nonzero" fill-opacity="1" /><path clip-path="url(#clip110)" d="M1094.77 1542.97 L1099.66 1542.97 L1099.66 1548.85 L1094.77 1548.85 L1094.77 1542.97 Z" fill="#000000" fill-rule="nonzero" fill-opacity="1" /><path clip-path="url(#clip110)" d="M1109.89 1514.29 L1128.25 1514.29 L1128.25 1518.22 L1114.17 1518.22 L1114.17 1526.7 Q1115.19 1526.35 1116.21 1526.19 Q1117.23 1526 1118.25 1526 Q1124.03 1526 1127.41 1529.17 Q1130.79 1532.34 1130.79 1537.76 Q1130.79 1543.34 1127.32 1546.44 Q1123.85 1549.52 1117.53 1549.52 Q1115.35 1549.52 1113.08 1549.15 Q1110.84 1548.78 1108.43 1548.04 L1108.43 1543.34 Q1110.51 1544.47 1112.74 1545.03 Q1114.96 1545.58 1117.44 1545.58 Q1121.44 1545.58 1123.78 1543.48 Q1126.12 1541.37 1126.12 1537.76 Q1126.12 1534.15 1123.78 1532.04 Q1121.44 1529.94 1117.44 1529.94 Q1115.56 1529.94 1113.69 1530.35 Q1111.83 1530.77 1109.89 1531.65 L1109.89 1514.29 Z" fill="#000000" fill-rule="nonzero" fill-opacity="1" /><path clip-path="url(#clip110)" d="M1603.17 1517.37 Q1599.56 1517.37 1597.73 1520.93 Q1595.92 1524.47 1595.92 1531.6 Q1595.92 1538.71 1597.73 1542.27 Q1599.56 1545.82 1603.17 1545.82 Q1606.8 1545.82 1608.61 1542.27 Q1610.44 1538.71 1610.44 1531.6 Q1610.44 1524.47 1608.61 1520.93 Q1606.8 1517.37 1603.17 1517.37 M1603.17 1513.66 Q1608.98 1513.66 1612.03 1518.27 Q1615.11 1522.85 1615.11 1531.6 Q1615.11 1540.33 1612.03 1544.94 Q1608.98 1549.52 1603.17 1549.52 Q1597.36 1549.52 1594.28 1544.94 Q1591.22 1540.33 1591.22 1531.6 Q1591.22 1522.85 1594.28 1518.27 Q1597.36 1513.66 1603.17 1513.66 Z" fill="#000000" fill-rule="nonzero" fill-opacity="1" /><path clip-path="url(#clip110)" d="M1623.33 1542.97 L1628.21 1542.97 L1628.21 1548.85 L1623.33 1548.85 L1623.33 1542.97 Z" fill="#000000" fill-rule="nonzero" fill-opacity="1" /><path clip-path="url(#clip110)" d="M1648.4 1517.37 Q1644.79 1517.37 1642.96 1520.93 Q1641.15 1524.47 1641.15 1531.6 Q1641.15 1538.71 1642.96 1542.27 Q1644.79 1545.82 1648.4 1545.82 Q1652.03 1545.82 1653.84 1542.27 Q1655.67 1538.71 1655.67 1531.6 Q1655.67 1524.47 1653.84 1520.93 Q1652.03 1517.37 1648.4 1517.37 M1648.4 1513.66 Q1654.21 1513.66 1657.26 1518.27 Q1660.34 1522.85 1660.34 1531.6 Q1660.34 1540.33 1657.26 1544.94 Q1654.21 1549.52 1648.4 1549.52 Q1642.59 1549.52 1639.51 1544.94 Q1636.45 1540.33 1636.45 1531.6 Q1636.45 1522.85 1639.51 1518.27 Q1642.59 1513.66 1648.4 1513.66 Z" fill="#000000" fill-rule="nonzero" fill-opacity="1" /><path clip-path="url(#clip110)" d="M2151.63 1517.37 Q2148.02 1517.37 2146.19 1520.93 Q2144.39 1524.47 2144.39 1531.6 Q2144.39 1538.71 2146.19 1542.27 Q2148.02 1545.82 2151.63 1545.82 Q2155.26 1545.82 2157.07 1542.27 Q2158.9 1538.71 2158.9 1531.6 Q2158.9 1524.47 2157.07 1520.93 Q2155.26 1517.37 2151.63 1517.37 M2151.63 1513.66 Q2157.44 1513.66 2160.5 1518.27 Q2163.57 1522.85 2163.57 1531.6 Q2163.57 1540.33 2160.5 1544.94 Q2157.44 1549.52 2151.63 1549.52 Q2145.82 1549.52 2142.74 1544.94 Q2139.69 1540.33 2139.69 1531.6 Q2139.69 1522.85 2142.74 1518.27 Q2145.82 1513.66 2151.63 1513.66 Z" fill="#000000" fill-rule="nonzero" fill-opacity="1" /><path clip-path="url(#clip110)" d="M2171.79 1542.97 L2176.68 1542.97 L2176.68 1548.85 L2171.79 1548.85 L2171.79 1542.97 Z" fill="#000000" fill-rule="nonzero" fill-opacity="1" /><path clip-path="url(#clip110)" d="M2186.91 1514.29 L2205.26 1514.29 L2205.26 1518.22 L2191.19 1518.22 L2191.19 1526.7 Q2192.21 1526.35 2193.23 1526.19 Q2194.25 1526 2195.26 1526 Q2201.05 1526 2204.43 1529.17 Q2207.81 1532.34 2207.81 1537.76 Q2207.81 1543.34 2204.34 1546.44 Q2200.87 1549.52 2194.55 1549.52 Q2192.37 1549.52 2190.1 1549.15 Q2187.86 1548.78 2185.45 1548.04 L2185.45 1543.34 Q2187.53 1544.47 2189.76 1545.03 Q2191.98 1545.58 2194.45 1545.58 Q2198.46 1545.58 2200.8 1543.48 Q2203.13 1541.37 2203.13 1537.76 Q2203.13 1534.15 2200.8 1532.04 Q2198.46 1529.94 2194.45 1529.94 Q2192.58 1529.94 2190.7 1530.35 Q2188.85 1530.77 2186.91 1531.65 L2186.91 1514.29 Z" fill="#000000" fill-rule="nonzero" fill-opacity="1" /><polyline clip-path="url(#clip112)" style="stroke:#000000; stroke-linecap:round; stroke-linejoin:round; stroke-width:2; stroke-opacity:0.1; fill:none" points="112.177,1285.24 2352.76,1285.24 "/>
<polyline clip-path="url(#clip112)" style="stroke:#000000; stroke-linecap:round; stroke-linejoin:round; stroke-width:2; stroke-opacity:0.1; fill:none" points="112.177,1075.31 2352.76,1075.31 "/>
<polyline clip-path="url(#clip112)" style="stroke:#000000; stroke-linecap:round; stroke-linejoin:round; stroke-width:2; stroke-opacity:0.1; fill:none" points="112.177,865.384 2352.76,865.384 "/>
<polyline clip-path="url(#clip112)" style="stroke:#000000; stroke-linecap:round; stroke-linejoin:round; stroke-width:2; stroke-opacity:0.1; fill:none" points="112.177,655.456 2352.76,655.456 "/>
<polyline clip-path="url(#clip112)" style="stroke:#000000; stroke-linecap:round; stroke-linejoin:round; stroke-width:2; stroke-opacity:0.1; fill:none" points="112.177,445.528 2352.76,445.528 "/>
<polyline clip-path="url(#clip112)" style="stroke:#000000; stroke-linecap:round; stroke-linejoin:round; stroke-width:2; stroke-opacity:0.1; fill:none" points="112.177,235.6 2352.76,235.6 "/>
<polyline clip-path="url(#clip110)" style="stroke:#000000; stroke-linecap:round; stroke-linejoin:round; stroke-width:4; stroke-opacity:1; fill:none" points="112.177,1486.45 112.177,47.2441 "/>
<polyline clip-path="url(#clip110)" style="stroke:#000000; stroke-linecap:round; stroke-linejoin:round; stroke-width:4; stroke-opacity:1; fill:none" points="112.177,1285.24 131.075,1285.24 "/>
<polyline clip-path="url(#clip110)" style="stroke:#000000; stroke-linecap:round; stroke-linejoin:round; stroke-width:4; stroke-opacity:1; fill:none" points="112.177,1075.31 131.075,1075.31 "/>
<polyline clip-path="url(#clip110)" style="stroke:#000000; stroke-linecap:round; stroke-linejoin:round; stroke-width:4; stroke-opacity:1; fill:none" points="112.177,865.384 131.075,865.384 "/>
<polyline clip-path="url(#clip110)" style="stroke:#000000; stroke-linecap:round; stroke-linejoin:round; stroke-width:4; stroke-opacity:1; fill:none" points="112.177,655.456 131.075,655.456 "/>
<polyline clip-path="url(#clip110)" style="stroke:#000000; stroke-linecap:round; stroke-linejoin:round; stroke-width:4; stroke-opacity:1; fill:none" points="112.177,445.528 131.075,445.528 "/>
<polyline clip-path="url(#clip110)" style="stroke:#000000; stroke-linecap:round; stroke-linejoin:round; stroke-width:4; stroke-opacity:1; fill:none" points="112.177,235.6 131.075,235.6 "/>
<path clip-path="url(#clip110)" d="M56.2699 1298.59 L63.9087 1298.59 L63.9087 1272.22 L55.5986 1273.89 L55.5986 1269.63 L63.8624 1267.96 L68.5383 1267.96 L68.5383 1298.59 L76.1772 1298.59 L76.1772 1302.52 L56.2699 1302.52 L56.2699 1298.59 Z" fill="#000000" fill-rule="nonzero" fill-opacity="1" /><path clip-path="url(#clip110)" d="M59.8578 1088.66 L76.1772 1088.66 L76.1772 1092.59 L54.2328 1092.59 L54.2328 1088.66 Q56.8949 1085.9 61.4782 1081.27 Q66.0846 1076.62 67.2652 1075.28 Q69.5105 1072.75 70.3902 1071.02 Q71.2929 1069.26 71.2929 1067.57 Q71.2929 1064.81 69.3485 1063.08 Q67.4272 1061.34 64.3254 1061.34 Q62.1263 1061.34 59.6726 1062.11 Q57.2421 1062.87 54.4643 1064.42 L54.4643 1059.7 Q57.2884 1058.56 59.7421 1057.99 Q62.1958 1057.41 64.2328 1057.41 Q69.6031 1057.41 72.7976 1060.09 Q75.992 1062.78 75.992 1067.27 Q75.992 1069.4 75.1818 1071.32 Q74.3948 1073.22 72.2883 1075.81 Q71.7096 1076.48 68.6078 1079.7 Q65.5059 1082.89 59.8578 1088.66 Z" fill="#000000" fill-rule="nonzero" fill-opacity="1" /><path clip-path="url(#clip110)" d="M69.0476 864.03 Q72.404 864.747 74.279 867.016 Q76.1772 869.284 76.1772 872.618 Q76.1772 877.733 72.6587 880.534 Q69.1402 883.335 62.6587 883.335 Q60.4828 883.335 58.168 882.896 Q55.8764 882.479 53.4227 881.622 L53.4227 877.108 Q55.3671 878.243 57.6819 878.821 Q59.9967 879.4 62.5198 879.4 Q66.918 879.4 69.2096 877.664 Q71.5244 875.928 71.5244 872.618 Q71.5244 869.562 69.3717 867.849 Q67.242 866.113 63.4226 866.113 L59.3949 866.113 L59.3949 862.271 L63.6078 862.271 Q67.0569 862.271 68.8855 860.905 Q70.7142 859.516 70.7142 856.923 Q70.7142 854.261 68.8161 852.849 Q66.9411 851.414 63.4226 851.414 Q61.5013 851.414 59.3023 851.831 Q57.1032 852.248 54.4643 853.127 L54.4643 848.96 Q57.1264 848.22 59.4412 847.849 Q61.7791 847.479 63.8393 847.479 Q69.1633 847.479 72.2652 849.91 Q75.367 852.317 75.367 856.437 Q75.367 859.308 73.7235 861.298 Q72.08 863.266 69.0476 864.03 Z" fill="#000000" fill-rule="nonzero" fill-opacity="1" /><path clip-path="url(#clip110)" d="M66.5939 642.25 L54.7884 660.699 L66.5939 660.699 L66.5939 642.25 M65.367 638.176 L71.2466 638.176 L71.2466 660.699 L76.1772 660.699 L76.1772 664.588 L71.2466 664.588 L71.2466 672.736 L66.5939 672.736 L66.5939 664.588 L50.9921 664.588 L50.9921 660.074 L65.367 638.176 Z" fill="#000000" fill-rule="nonzero" fill-opacity="1" /><path clip-path="url(#clip110)" d="M55.2745 428.248 L73.6309 428.248 L73.6309 432.183 L59.5569 432.183 L59.5569 440.655 Q60.5754 440.308 61.5939 440.146 Q62.6124 439.961 63.6309 439.961 Q69.418 439.961 72.7976 443.132 Q76.1772 446.303 76.1772 451.72 Q76.1772 457.299 72.705 460.4 Q69.2328 463.479 62.9134 463.479 Q60.7374 463.479 58.4689 463.109 Q56.2236 462.738 53.8162 461.998 L53.8162 457.299 Q55.8995 458.433 58.1217 458.988 Q60.3439 459.544 62.8208 459.544 Q66.8254 459.544 69.1633 457.437 Q71.5013 455.331 71.5013 451.72 Q71.5013 448.109 69.1633 446.002 Q66.8254 443.896 62.8208 443.896 Q60.9458 443.896 59.0708 444.312 Q57.2189 444.729 55.2745 445.609 L55.2745 428.248 Z" fill="#000000" fill-rule="nonzero" fill-opacity="1" /><path clip-path="url(#clip110)" d="M64.6495 233.736 Q61.5013 233.736 59.6495 235.889 Q57.8208 238.042 57.8208 241.792 Q57.8208 245.519 59.6495 247.694 Q61.5013 249.847 64.6495 249.847 Q67.7976 249.847 69.6263 247.694 Q71.4781 245.519 71.4781 241.792 Q71.4781 238.042 69.6263 235.889 Q67.7976 233.736 64.6495 233.736 M73.9318 219.083 L73.9318 223.343 Q72.1726 222.509 70.367 222.07 Q68.5846 221.63 66.8254 221.63 Q62.1958 221.63 59.7421 224.755 Q57.3115 227.88 56.9643 234.199 Q58.33 232.185 60.3902 231.12 Q62.4504 230.032 64.9272 230.032 Q70.1355 230.032 73.1448 233.204 Q76.1772 236.352 76.1772 241.792 Q76.1772 247.116 73.029 250.333 Q69.8809 253.551 64.6495 253.551 Q58.6541 253.551 55.4828 248.968 Q52.3116 244.361 52.3116 235.634 Q52.3116 227.44 56.2004 222.579 Q60.0893 217.695 66.6402 217.695 Q68.3994 217.695 70.1818 218.042 Q71.9874 218.389 73.9318 219.083 Z" fill="#000000" fill-rule="nonzero" fill-opacity="1" /><circle clip-path="url(#clip112)" cx="2289.34" cy="1373.69" r="14.4" fill="#808080" fill-rule="evenodd" fill-opacity="1" stroke="#000000" stroke-opacity="1" stroke-width="3.2"/>
<circle clip-path="url(#clip112)" cx="175.59" cy="87.9763" r="14.4" fill="#808080" fill-rule="evenodd" fill-opacity="1" stroke="#000000" stroke-opacity="1" stroke-width="3.2"/>
<circle clip-path="url(#clip112)" cx="1641.8" cy="1445.72" r="14.4" fill="#808080" fill-rule="evenodd" fill-opacity="1" stroke="#000000" stroke-opacity="1" stroke-width="3.2"/>
<circle clip-path="url(#clip112)" cx="1532.41" cy="1429.65" r="14.4" fill="#808080" fill-rule="evenodd" fill-opacity="1" stroke="#000000" stroke-opacity="1" stroke-width="3.2"/>
<path clip-path="url(#clip110)" d="M2293.64 1381.12 Q2284.6 1381.12 2281.12 1383.19 Q2277.64 1385.25 2277.64 1390.23 Q2277.64 1394.2 2280.23 1396.55 Q2282.86 1398.86 2287.36 1398.86 Q2293.56 1398.86 2297.28 1394.49 Q2301.05 1390.07 2301.05 1382.78 L2301.05 1381.12 L2293.64 1381.12 M2308.5 1378.04 L2308.5 1403.93 L2301.05 1403.93 L2301.05 1397.04 Q2298.5 1401.17 2294.69 1403.16 Q2290.88 1405.1 2285.37 1405.1 Q2278.41 1405.1 2274.27 1401.21 Q2270.18 1397.28 2270.18 1390.72 Q2270.18 1383.06 2275.29 1379.18 Q2280.43 1375.29 2290.6 1375.29 L2301.05 1375.29 L2301.05 1374.56 Q2301.05 1369.41 2297.65 1366.62 Q2294.29 1363.78 2288.17 1363.78 Q2284.28 1363.78 2280.59 1364.71 Q2276.91 1365.65 2273.5 1367.51 L2273.5 1360.62 Q2277.6 1359.04 2281.44 1358.27 Q2285.29 1357.46 2288.94 1357.46 Q2298.78 1357.46 2303.64 1362.57 Q2308.5 1367.67 2308.5 1378.04 Z" fill="#000000" fill-rule="nonzero" fill-opacity="1" /><path clip-path="url(#clip110)" d="M188.148 95.5717 Q188.148 87.3484 184.745 82.6898 Q181.383 77.9908 175.468 77.9908 Q169.554 77.9908 166.151 82.6898 Q162.789 87.3484 162.789 95.5717 Q162.789 103.795 166.151 108.494 Q169.554 113.153 175.468 113.153 Q181.383 113.153 184.745 108.494 Q188.148 103.795 188.148 95.5717 M162.789 79.7327 Q165.138 75.6818 168.703 73.7373 Q172.309 71.7524 177.291 71.7524 Q185.555 71.7524 190.7 78.3149 Q195.885 84.8773 195.885 95.5717 Q195.885 106.266 190.7 112.829 Q185.555 119.391 177.291 119.391 Q172.309 119.391 168.703 117.447 Q165.138 115.462 162.789 111.411 L162.789 118.216 L155.295 118.216 L155.295 55.1842 L162.789 55.1842 L162.789 79.7327 Z" fill="#000000" fill-rule="nonzero" fill-opacity="1" /><path clip-path="url(#clip110)" d="M1659.74 1432.33 L1659.74 1439.3 Q1656.58 1437.55 1653.38 1436.7 Q1650.23 1435.81 1646.98 1435.81 Q1639.73 1435.81 1635.72 1440.43 Q1631.71 1445.01 1631.71 1453.31 Q1631.71 1461.62 1635.72 1466.23 Q1639.73 1470.81 1646.98 1470.81 Q1650.23 1470.81 1653.38 1469.96 Q1656.58 1469.07 1659.74 1467.33 L1659.74 1474.21 Q1656.63 1475.67 1653.26 1476.4 Q1649.94 1477.13 1646.17 1477.13 Q1635.93 1477.13 1629.89 1470.69 Q1623.85 1464.25 1623.85 1453.31 Q1623.85 1442.21 1629.93 1435.85 Q1636.05 1429.49 1646.66 1429.49 Q1650.1 1429.49 1653.38 1430.22 Q1656.67 1430.91 1659.74 1432.33 Z" fill="#000000" fill-rule="nonzero" fill-opacity="1" /><path clip-path="url(#clip110)" d="M1545.23 1421.4 L1545.23 1396.85 L1552.68 1396.85 L1552.68 1459.89 L1545.23 1459.89 L1545.23 1453.08 Q1542.88 1457.13 1539.28 1459.12 Q1535.71 1461.06 1530.69 1461.06 Q1522.46 1461.06 1517.28 1454.5 Q1512.13 1447.94 1512.13 1437.24 Q1512.13 1426.55 1517.28 1419.98 Q1522.46 1413.42 1530.69 1413.42 Q1535.71 1413.42 1539.28 1415.41 Q1542.88 1417.35 1545.23 1421.4 M1519.83 1437.24 Q1519.83 1445.46 1523.19 1450.16 Q1526.6 1454.82 1532.51 1454.82 Q1538.42 1454.82 1541.83 1450.16 Q1545.23 1445.46 1545.23 1437.24 Q1545.23 1429.02 1541.83 1424.36 Q1538.42 1419.66 1532.51 1419.66 Q1526.6 1419.66 1523.19 1424.36 Q1519.83 1429.02 1519.83 1437.24 Z" fill="#000000" fill-rule="nonzero" fill-opacity="1" /><path clip-path="url(#clip110)" d="M2001.58 198.898 L2278.07 198.898 L2278.07 95.2176 L2001.58 95.2176  Z" fill="#ffffff" fill-rule="evenodd" fill-opacity="1"/>
<polyline clip-path="url(#clip110)" style="stroke:#000000; stroke-linecap:round; stroke-linejoin:round; stroke-width:4; stroke-opacity:1; fill:none" points="2001.58,198.898 2278.07,198.898 2278.07,95.2176 2001.58,95.2176 2001.58,198.898 "/>
<circle clip-path="url(#clip110)" cx="2101.16" cy="147.058" r="20.48" fill="#808080" fill-rule="evenodd" fill-opacity="1" stroke="#000000" stroke-opacity="1" stroke-width="4.55111"/>
<path clip-path="url(#clip110)" d="M2214.59 166.745 Q2212.78 171.375 2211.07 172.787 Q2209.36 174.199 2206.49 174.199 L2203.08 174.199 L2203.08 170.634 L2205.58 170.634 Q2207.34 170.634 2208.31 169.8 Q2209.29 168.967 2210.47 165.865 L2211.23 163.921 L2200.74 138.412 L2205.26 138.412 L2213.36 158.689 L2221.46 138.412 L2225.98 138.412 L2214.59 166.745 Z" fill="#000000" fill-rule="nonzero" fill-opacity="1" /><path clip-path="url(#clip110)" d="M2233.27 160.402 L2240.91 160.402 L2240.91 134.037 L2232.6 135.703 L2232.6 131.444 L2240.86 129.778 L2245.54 129.778 L2245.54 160.402 L2253.17 160.402 L2253.17 164.338 L2233.27 164.338 L2233.27 160.402 Z" fill="#000000" fill-rule="nonzero" fill-opacity="1" /></svg>
