<?xml version="1.0" encoding="utf-8"?>
<svg xmlns="http://www.w3.org/2000/svg" xmlns:xlink="http://www.w3.org/1999/xlink" width="600" height="400" viewBox="0 0 2400 1600">
<defs>
  <clipPath id="clip560">
    <rect x="0" y="0" width="2400" height="1600"/>
  </clipPath>
</defs>
<path clip-path="url(#clip560)" d="M0 1600 L2400 1600 L2400 0 L0 0  Z" fill="#ffffff" fill-rule="evenodd" fill-opacity="1"/>
<defs>
  <clipPath id="clip561">
    <rect x="156" y="47" width="2197" height="1440"/>
  </clipPath>
</defs>
<path clip-path="url(#clip560)" d="M156.598 1486.45 L2352.76 1486.45 L2352.76 47.2441 L156.598 47.2441  Z" fill="#ffffff" fill-rule="evenodd" fill-opacity="1"/>
<polyline clip-path="url(#clip561)" style="stroke:#000000; stroke-linecap:round; stroke-linejoin:round; stroke-width:2; stroke-opacity:0.1; fill:none" points="558.747,1486.45 558.747,47.2441 "/>
<polyline clip-path="url(#clip561)" style="stroke:#000000; stroke-linecap:round; stroke-linejoin:round; stroke-width:2; stroke-opacity:0.1; fill:none" points="1007.19,1486.45 1007.19,47.2441 "/>
<polyline clip-path="url(#clip561)" style="stroke:#000000; stroke-linecap:round; stroke-linejoin:round; stroke-width:2; stroke-opacity:0.1; fill:none" points="1455.64,1486.45 1455.64,47.2441 "/>
<polyline clip-path="url(#clip561)" style="stroke:#000000; stroke-linecap:round; stroke-linejoin:round; stroke-width:2; stroke-opacity:0.1; fill:none" points="1904.08,1486.45 1904.08,47.2441 "/>
<polyline clip-path="url(#clip561)" style="stroke:#000000; stroke-linecap:round; stroke-linejoin:round; stroke-width:2; stroke-opacity:0.1; fill:none" points="2352.52,1486.45 2352.52,47.2441 "/>
<polyline clip-path="url(#clip561)" style="stroke:#000000; stroke-linecap:round; stroke-linejoin:round; stroke-width:2; stroke-opacity:0.1; fill:none" points="156.598,1449.39 2352.76,1449.39 "/>
<polyline clip-path="url(#clip561)" style="stroke:#000000; stroke-linecap:round; stroke-linejoin:round; stroke-width:2; stroke-opacity:0.1; fill:none" points="156.598,1187.41 2352.76,1187.41 "/>
<polyline clip-path="url(#clip561)" style="stroke:#000000; stroke-linecap:round; stroke-linejoin:round; stroke-width:2; stroke-opacity:0.1; fill:none" points="156.598,925.419 2352.76,925.419 "/>
<polyline clip-path="url(#clip561)" style="stroke:#000000; stroke-linecap:round; stroke-linejoin:round; stroke-width:2; stroke-opacity:0.1; fill:none" points="156.598,663.432 2352.76,663.432 "/>
<polyline clip-path="url(#clip561)" style="stroke:#000000; stroke-linecap:round; stroke-linejoin:round; stroke-width:2; stroke-opacity:0.1; fill:none" points="156.598,401.445 2352.76,401.445 "/>
<polyline clip-path="url(#clip561)" style="stroke:#000000; stroke-linecap:round; stroke-linejoin:round; stroke-width:2; stroke-opacity:0.1; fill:none" points="156.598,139.459 2352.76,139.459 "/>
<polyline clip-path="url(#clip560)" style="stroke:#000000; stroke-linecap:round; stroke-linejoin:round; stroke-width:4; stroke-opacity:1; fill:none" points="156.598,1486.45 2352.76,1486.45 "/>
<polyline clip-path="url(#clip560)" style="stroke:#000000; stroke-linecap:round; stroke-linejoin:round; stroke-width:4; stroke-opacity:1; fill:none" points="558.747,1486.45 558.747,1467.55 "/>
<polyline clip-path="url(#clip560)" style="stroke:#000000; stroke-linecap:round; stroke-linejoin:round; stroke-width:4; stroke-opacity:1; fill:none" points="1007.19,1486.45 1007.19,1467.55 "/>
<polyline clip-path="url(#clip560)" style="stroke:#000000; stroke-linecap:round; stroke-linejoin:round; stroke-width:4; stroke-opacity:1; fill:none" points="1455.64,1486.45 1455.64,1467.55 "/>
<polyline clip-path="url(#clip560)" style="stroke:#000000; stroke-linecap:round; stroke-linejoin:round; stroke-width:4; stroke-opacity:1; fill:none" points="1904.08,1486.45 1904.08,1467.55 "/>
<polyline clip-path="url(#clip560)" style="stroke:#000000; stroke-linecap:round; stroke-linejoin:round; stroke-width:4; stroke-opacity:1; fill:none" points="2352.52,1486.45 2352.52,1467.55 "/>
<path clip-path="url(#clip560)" d="M505.032 1532.02 L534.708 1532.02 L534.708 1535.95 L505.032 1535.95 L505.032 1532.02 Z" fill="#000000" fill-rule="nonzero" fill-opacity="1" /><path clip-path="url(#clip560)" d="M554.801 1517.37 Q551.19 1517.37 549.361 1520.93 Q547.555 1524.47 547.555 1531.6 Q547.555 1538.71 549.361 1542.27 Q551.19 1545.82 554.801 1545.82 Q558.435 1545.82 560.241 1542.27 Q562.069 1538.71 562.069 1531.6 Q562.069 1524.47 560.241 1520.93 Q558.435 1517.37 554.801 1517.37 M554.801 1513.66 Q560.611 1513.66 563.666 1518.27 Q566.745 1522.85 566.745 1531.6 Q566.745 1540.33 563.666 1544.94 Q560.611 1549.52 554.801 1549.52 Q548.991 1549.52 545.912 1544.94 Q542.856 1540.33 542.856 1531.6 Q542.856 1522.85 545.912 1518.27 Q548.991 1513.66 554.801 1513.66 Z" fill="#000000" fill-rule="nonzero" fill-opacity="1" /><path clip-path="url(#clip560)" d="M574.963 1542.97 L579.847 1542.97 L579.847 1548.85 L574.963 1548.85 L574.963 1542.97 Z" fill="#000000" fill-rule="nonzero" fill-opacity="1" /><path clip-path="url(#clip560)" d="M602.879 1518.36 L591.074 1536.81 L602.879 1536.81 L602.879 1518.36 M601.652 1514.29 L607.532 1514.29 L607.532 1536.81 L612.462 1536.81 L612.462 1540.7 L607.532 1540.7 L607.532 1548.85 L602.879 1548.85 L602.879 1540.7 L587.277 1540.7 L587.277 1536.19 L601.652 1514.29 Z" fill="#000000" fill-rule="nonzero" fill-opacity="1" /><path clip-path="url(#clip560)" d="M954.518 1532.02 L984.194 1532.02 L984.194 1535.95 L954.518 1535.95 L954.518 1532.02 Z" fill="#000000" fill-rule="nonzero" fill-opacity="1" /><path clip-path="url(#clip560)" d="M1004.29 1517.37 Q1000.68 1517.37 998.847 1520.93 Q997.041 1524.47 997.041 1531.6 Q997.041 1538.71 998.847 1542.27 Q1000.68 1545.82 1004.29 1545.82 Q1007.92 1545.82 1009.73 1542.27 Q1011.55 1538.71 1011.55 1531.6 Q1011.55 1524.47 1009.73 1520.93 Q1007.92 1517.37 1004.29 1517.37 M1004.29 1513.66 Q1010.1 1513.66 1013.15 1518.27 Q1016.23 1522.85 1016.23 1531.6 Q1016.23 1540.33 1013.15 1544.94 Q1010.1 1549.52 1004.29 1549.52 Q998.476 1549.52 995.398 1544.94 Q992.342 1540.33 992.342 1531.6 Q992.342 1522.85 995.398 1518.27 Q998.476 1513.66 1004.29 1513.66 Z" fill="#000000" fill-rule="nonzero" fill-opacity="1" /><path clip-path="url(#clip560)" d="M1024.45 1542.97 L1029.33 1542.97 L1029.33 1548.85 L1024.45 1548.85 L1024.45 1542.97 Z" fill="#000000" fill-rule="nonzero" fill-opacity="1" /><path clip-path="url(#clip560)" d="M1043.55 1544.91 L1059.86 1544.91 L1059.86 1548.85 L1037.92 1548.85 L1037.92 1544.91 Q1040.58 1542.16 1045.17 1537.53 Q1049.77 1532.88 1050.95 1531.53 Q1053.2 1529.01 1054.08 1527.27 Q1054.98 1525.51 1054.98 1523.82 Q1054.98 1521.07 1053.04 1519.33 Q1051.11 1517.6 1048.01 1517.6 Q1045.81 1517.6 1043.36 1518.36 Q1040.93 1519.13 1038.15 1520.68 L1038.15 1515.95 Q1040.98 1514.82 1043.43 1514.24 Q1045.88 1513.66 1047.92 1513.66 Q1053.29 1513.66 1056.49 1516.35 Q1059.68 1519.03 1059.68 1523.52 Q1059.68 1525.65 1058.87 1527.57 Q1058.08 1529.47 1055.98 1532.07 Q1055.4 1532.74 1052.3 1535.95 Q1049.19 1539.15 1043.55 1544.91 Z" fill="#000000" fill-rule="nonzero" fill-opacity="1" /><path clip-path="url(#clip560)" d="M1433.02 1517.37 Q1429.41 1517.37 1427.58 1520.93 Q1425.77 1524.47 1425.77 1531.6 Q1425.77 1538.71 1427.58 1542.27 Q1429.41 1545.82 1433.02 1545.82 Q1436.65 1545.82 1438.46 1542.27 Q1440.29 1538.71 1440.29 1531.6 Q1440.29 1524.47 1438.46 1520.93 Q1436.65 1517.37 1433.02 1517.37 M1433.02 1513.66 Q1438.83 1513.66 1441.89 1518.27 Q1444.96 1522.85 1444.96 1531.6 Q1444.96 1540.33 1441.89 1544.94 Q1438.83 1549.52 1433.02 1549.52 Q1427.21 1549.52 1424.13 1544.94 Q1421.08 1540.33 1421.08 1531.6 Q1421.08 1522.85 1424.13 1518.27 Q1427.21 1513.66 1433.02 1513.66 Z" fill="#000000" fill-rule="nonzero" fill-opacity="1" /><path clip-path="url(#clip560)" d="M1453.18 1542.97 L1458.07 1542.97 L1458.07 1548.85 L1453.18 1548.85 L1453.18 1542.97 Z" fill="#000000" fill-rule="nonzero" fill-opacity="1" /><path clip-path="url(#clip560)" d="M1478.25 1517.37 Q1474.64 1517.37 1472.81 1520.93 Q1471.01 1524.47 1471.01 1531.6 Q1471.01 1538.71 1472.81 1542.27 Q1474.64 1545.82 1478.25 1545.82 Q1481.89 1545.82 1483.69 1542.27 Q1485.52 1538.71 1485.52 1531.6 Q1485.52 1524.47 1483.69 1520.93 Q1481.89 1517.37 1478.25 1517.37 M1478.25 1513.66 Q1484.06 1513.66 1487.12 1518.27 Q1490.2 1522.85 1490.2 1531.6 Q1490.2 1540.33 1487.12 1544.94 Q1484.06 1549.52 1478.25 1549.52 Q1472.44 1549.52 1469.36 1544.94 Q1466.31 1540.33 1466.31 1531.6 Q1466.31 1522.85 1469.36 1518.27 Q1472.44 1513.66 1478.25 1513.66 Z" fill="#000000" fill-rule="nonzero" fill-opacity="1" /><path clip-path="url(#clip560)" d="M1882.26 1517.37 Q1878.65 1517.37 1876.82 1520.93 Q1875.02 1524.47 1875.02 1531.6 Q1875.02 1538.71 1876.82 1542.27 Q1878.65 1545.82 1882.26 1545.82 Q1885.9 1545.82 1887.7 1542.27 Q1889.53 1538.71 1889.53 1531.6 Q1889.53 1524.47 1887.7 1520.93 Q1885.9 1517.37 1882.26 1517.37 M1882.26 1513.66 Q1888.07 1513.66 1891.13 1518.27 Q1894.21 1522.85 1894.21 1531.6 Q1894.21 1540.33 1891.13 1544.94 Q1888.07 1549.52 1882.26 1549.52 Q1876.45 1549.52 1873.37 1544.94 Q1870.32 1540.33 1870.32 1531.6 Q1870.32 1522.85 1873.37 1518.27 Q1876.45 1513.66 1882.26 1513.66 Z" fill="#000000" fill-rule="nonzero" fill-opacity="1" /><path clip-path="url(#clip560)" d="M1902.42 1542.97 L1907.31 1542.97 L1907.31 1548.85 L1902.42 1548.85 L1902.42 1542.97 Z" fill="#000000" fill-rule="nonzero" fill-opacity="1" /><path clip-path="url(#clip560)" d="M1921.52 1544.91 L1937.84 1544.91 L1937.84 1548.85 L1915.9 1548.85 L1915.9 1544.91 Q1918.56 1542.16 1923.14 1537.53 Q1927.75 1532.88 1928.93 1531.53 Q1931.17 1529.01 1932.05 1527.27 Q1932.96 1525.51 1932.96 1523.82 Q1932.96 1521.07 1931.01 1519.33 Q1929.09 1517.6 1925.99 1517.6 Q1923.79 1517.6 1921.34 1518.36 Q1918.91 1519.13 1916.13 1520.68 L1916.13 1515.95 Q1918.95 1514.82 1921.41 1514.24 Q1923.86 1513.66 1925.9 1513.66 Q1931.27 1513.66 1934.46 1516.35 Q1937.66 1519.03 1937.66 1523.52 Q1937.66 1525.65 1936.85 1527.57 Q1936.06 1529.47 1933.95 1532.07 Q1933.37 1532.74 1930.27 1535.95 Q1927.17 1539.15 1921.52 1544.91 Z" fill="#000000" fill-rule="nonzero" fill-opacity="1" /><path clip-path="url(#clip560)" d="M2329.66 1517.37 Q2326.05 1517.37 2324.22 1520.93 Q2322.42 1524.47 2322.42 1531.6 Q2322.42 1538.71 2324.22 1542.27 Q2326.05 1545.82 2329.66 1545.82 Q2333.3 1545.82 2335.1 1542.27 Q2336.93 1538.71 2336.93 1531.6 Q2336.93 1524.47 2335.1 1520.93 Q2333.3 1517.37 2329.66 1517.37 M2329.66 1513.66 Q2335.47 1513.66 2338.53 1518.27 Q2341.61 1522.85 2341.61 1531.6 Q2341.61 1540.33 2338.53 1544.94 Q2335.47 1549.52 2329.66 1549.52 Q2323.85 1549.52 2320.78 1544.94 Q2317.72 1540.33 2317.72 1531.6 Q2317.72 1522.85 2320.78 1518.27 Q2323.85 1513.66 2329.66 1513.66 Z" fill="#000000" fill-rule="nonzero" fill-opacity="1" /><path clip-path="url(#clip560)" d="M2349.83 1542.97 L2354.71 1542.97 L2354.71 1548.85 L2349.83 1548.85 L2349.83 1542.97 Z" fill="#000000" fill-rule="nonzero" fill-opacity="1" /><path clip-path="url(#clip560)" d="M2377.74 1518.36 L2365.94 1536.81 L2377.74 1536.81 L2377.74 1518.36 M2376.52 1514.29 L2382.4 1514.29 L2382.4 1536.81 L2387.33 1536.81 L2387.33 1540.7 L2382.4 1540.7 L2382.4 1548.85 L2377.74 1548.85 L2377.74 1540.7 L2362.14 1540.7 L2362.14 1536.19 L2376.52 1514.29 Z" fill="#000000" fill-rule="nonzero" fill-opacity="1" /><polyline clip-path="url(#clip560)" style="stroke:#000000; stroke-linecap:round; stroke-linejoin:round; stroke-width:4; stroke-opacity:1; fill:none" points="156.598,1486.45 156.598,47.2441 "/>
<polyline clip-path="url(#clip560)" style="stroke:#000000; stroke-linecap:round; stroke-linejoin:round; stroke-width:4; stroke-opacity:1; fill:none" points="156.598,1449.39 175.496,1449.39 "/>
<polyline clip-path="url(#clip560)" style="stroke:#000000; stroke-linecap:round; stroke-linejoin:round; stroke-width:4; stroke-opacity:1; fill:none" points="156.598,1187.41 175.496,1187.41 "/>
<polyline clip-path="url(#clip560)" style="stroke:#000000; stroke-linecap:round; stroke-linejoin:round; stroke-width:4; stroke-opacity:1; fill:none" points="156.598,925.419 175.496,925.419 "/>
<polyline clip-path="url(#clip560)" style="stroke:#000000; stroke-linecap:round; stroke-linejoin:round; stroke-width:4; stroke-opacity:1; fill:none" points="156.598,663.432 175.496,663.432 "/>
<polyline clip-path="url(#clip560)" style="stroke:#000000; stroke-linecap:round; stroke-linejoin:round; stroke-width:4; stroke-opacity:1; fill:none" points="156.598,401.445 175.496,401.445 "/>
<polyline clip-path="url(#clip560)" style="stroke:#000000; stroke-linecap:round; stroke-linejoin:round; stroke-width:4; stroke-opacity:1; fill:none" points="156.598,139.459 175.496,139.459 "/>
<path clip-path="url(#clip560)" d="M63.4226 1435.19 Q59.8115 1435.19 57.9828 1438.76 Q56.1773 1442.3 56.1773 1449.43 Q56.1773 1456.53 57.9828 1460.1 Q59.8115 1463.64 63.4226 1463.64 Q67.0569 1463.64 68.8624 1460.1 Q70.6911 1456.53 70.6911 1449.43 Q70.6911 1442.3 68.8624 1438.76 Q67.0569 1435.19 63.4226 1435.19 M63.4226 1431.49 Q69.2328 1431.49 72.2883 1436.09 Q75.367 1440.68 75.367 1449.43 Q75.367 1458.15 72.2883 1462.76 Q69.2328 1467.34 63.4226 1467.34 Q57.6125 1467.34 54.5338 1462.76 Q51.4782 1458.15 51.4782 1449.43 Q51.4782 1440.68 54.5338 1436.09 Q57.6125 1431.49 63.4226 1431.49 Z" fill="#000000" fill-rule="nonzero" fill-opacity="1" /><path clip-path="url(#clip560)" d="M83.5845 1460.79 L88.4688 1460.79 L88.4688 1466.67 L83.5845 1466.67 L83.5845 1460.79 Z" fill="#000000" fill-rule="nonzero" fill-opacity="1" /><path clip-path="url(#clip560)" d="M108.654 1435.19 Q105.043 1435.19 103.214 1438.76 Q101.409 1442.3 101.409 1449.43 Q101.409 1456.53 103.214 1460.1 Q105.043 1463.64 108.654 1463.64 Q112.288 1463.64 114.094 1460.1 Q115.922 1456.53 115.922 1449.43 Q115.922 1442.3 114.094 1438.76 Q112.288 1435.19 108.654 1435.19 M108.654 1431.49 Q114.464 1431.49 117.52 1436.09 Q120.598 1440.68 120.598 1449.43 Q120.598 1458.15 117.52 1462.76 Q114.464 1467.34 108.654 1467.34 Q102.844 1467.34 99.765 1462.76 Q96.7095 1458.15 96.7095 1449.43 Q96.7095 1440.68 99.765 1436.09 Q102.844 1431.49 108.654 1431.49 Z" fill="#000000" fill-rule="nonzero" fill-opacity="1" /><path clip-path="url(#clip560)" d="M64.6495 1173.2 Q61.0384 1173.2 59.2097 1176.77 Q57.4041 1180.31 57.4041 1187.44 Q57.4041 1194.55 59.2097 1198.11 Q61.0384 1201.65 64.6495 1201.65 Q68.2837 1201.65 70.0892 1198.11 Q71.9179 1194.55 71.9179 1187.44 Q71.9179 1180.31 70.0892 1176.77 Q68.2837 1173.2 64.6495 1173.2 M64.6495 1169.5 Q70.4596 1169.5 73.5152 1174.11 Q76.5938 1178.69 76.5938 1187.44 Q76.5938 1196.17 73.5152 1200.77 Q70.4596 1205.36 64.6495 1205.36 Q58.8393 1205.36 55.7606 1200.77 Q52.7051 1196.17 52.7051 1187.44 Q52.7051 1178.69 55.7606 1174.11 Q58.8393 1169.5 64.6495 1169.5 Z" fill="#000000" fill-rule="nonzero" fill-opacity="1" /><path clip-path="url(#clip560)" d="M84.8114 1198.81 L89.6956 1198.81 L89.6956 1204.69 L84.8114 1204.69 L84.8114 1198.81 Z" fill="#000000" fill-rule="nonzero" fill-opacity="1" /><path clip-path="url(#clip560)" d="M100.691 1200.75 L108.33 1200.75 L108.33 1174.39 L100.02 1176.05 L100.02 1171.79 L108.283 1170.13 L112.959 1170.13 L112.959 1200.75 L120.598 1200.75 L120.598 1204.69 L100.691 1204.69 L100.691 1200.75 Z" fill="#000000" fill-rule="nonzero" fill-opacity="1" /><path clip-path="url(#clip560)" d="M65.0198 911.218 Q61.4087 911.218 59.58 914.783 Q57.7745 918.324 57.7745 925.454 Q57.7745 932.56 59.58 936.125 Q61.4087 939.667 65.0198 939.667 Q68.6541 939.667 70.4596 936.125 Q72.2883 932.56 72.2883 925.454 Q72.2883 918.324 70.4596 914.783 Q68.6541 911.218 65.0198 911.218 M65.0198 907.514 Q70.83 907.514 73.8855 912.121 Q76.9642 916.704 76.9642 925.454 Q76.9642 934.181 73.8855 938.787 Q70.83 943.37 65.0198 943.37 Q59.2097 943.37 56.131 938.787 Q53.0754 934.181 53.0754 925.454 Q53.0754 916.704 56.131 912.121 Q59.2097 907.514 65.0198 907.514 Z" fill="#000000" fill-rule="nonzero" fill-opacity="1" /><path clip-path="url(#clip560)" d="M85.1818 936.82 L90.066 936.82 L90.066 942.699 L85.1818 942.699 L85.1818 936.82 Z" fill="#000000" fill-rule="nonzero" fill-opacity="1" /><path clip-path="url(#clip560)" d="M104.279 938.764 L120.598 938.764 L120.598 942.699 L98.6539 942.699 L98.6539 938.764 Q101.316 936.009 105.899 931.38 Q110.506 926.727 111.686 925.384 Q113.932 922.861 114.811 921.125 Q115.714 919.366 115.714 917.676 Q115.714 914.922 113.77 913.185 Q111.848 911.449 108.746 911.449 Q106.547 911.449 104.094 912.213 Q101.663 912.977 98.8854 914.528 L98.8854 909.806 Q101.709 908.672 104.163 908.093 Q106.617 907.514 108.654 907.514 Q114.024 907.514 117.219 910.199 Q120.413 912.885 120.413 917.375 Q120.413 919.505 119.603 921.426 Q118.816 923.324 116.709 925.917 Q116.131 926.588 113.029 929.806 Q109.927 933 104.279 938.764 Z" fill="#000000" fill-rule="nonzero" fill-opacity="1" /><path clip-path="url(#clip560)" d="M64.0708 649.231 Q60.4597 649.231 58.631 652.796 Q56.8254 656.337 56.8254 663.467 Q56.8254 670.573 58.631 674.138 Q60.4597 677.68 64.0708 677.68 Q67.705 677.68 69.5105 674.138 Q71.3392 670.573 71.3392 663.467 Q71.3392 656.337 69.5105 652.796 Q67.705 649.231 64.0708 649.231 M64.0708 645.527 Q69.8809 645.527 72.9365 650.134 Q76.0151 654.717 76.0151 663.467 Q76.0151 672.194 72.9365 676.8 Q69.8809 681.384 64.0708 681.384 Q58.2606 681.384 55.1819 676.8 Q52.1264 672.194 52.1264 663.467 Q52.1264 654.717 55.1819 650.134 Q58.2606 645.527 64.0708 645.527 Z" fill="#000000" fill-rule="nonzero" fill-opacity="1" /><path clip-path="url(#clip560)" d="M84.2327 674.833 L89.1169 674.833 L89.1169 680.712 L84.2327 680.712 L84.2327 674.833 Z" fill="#000000" fill-rule="nonzero" fill-opacity="1" /><path clip-path="url(#clip560)" d="M113.469 662.078 Q116.825 662.796 118.7 665.064 Q120.598 667.333 120.598 670.666 Q120.598 675.782 117.08 678.583 Q113.561 681.384 107.08 681.384 Q104.904 681.384 102.589 680.944 Q100.297 680.527 97.8437 679.671 L97.8437 675.157 Q99.7882 676.291 102.103 676.87 Q104.418 677.448 106.941 677.448 Q111.339 677.448 113.631 675.712 Q115.945 673.976 115.945 670.666 Q115.945 667.611 113.793 665.898 Q111.663 664.161 107.844 664.161 L103.816 664.161 L103.816 660.319 L108.029 660.319 Q111.478 660.319 113.307 658.953 Q115.135 657.564 115.135 654.972 Q115.135 652.31 113.237 650.898 Q111.362 649.462 107.844 649.462 Q105.922 649.462 103.723 649.879 Q101.524 650.296 98.8854 651.175 L98.8854 647.009 Q101.547 646.268 103.862 645.898 Q106.2 645.527 108.26 645.527 Q113.584 645.527 116.686 647.958 Q119.788 650.365 119.788 654.486 Q119.788 657.356 118.145 659.347 Q116.501 661.314 113.469 662.078 Z" fill="#000000" fill-rule="nonzero" fill-opacity="1" /><path clip-path="url(#clip560)" d="M62.9365 387.244 Q59.3254 387.244 57.4967 390.809 Q55.6912 394.351 55.6912 401.48 Q55.6912 408.587 57.4967 412.151 Q59.3254 415.693 62.9365 415.693 Q66.5707 415.693 68.3763 412.151 Q70.205 408.587 70.205 401.48 Q70.205 394.351 68.3763 390.809 Q66.5707 387.244 62.9365 387.244 M62.9365 383.54 Q68.7467 383.54 71.8022 388.147 Q74.8809 392.73 74.8809 401.48 Q74.8809 410.207 71.8022 414.813 Q68.7467 419.397 62.9365 419.397 Q57.1264 419.397 54.0477 414.813 Q50.9921 410.207 50.9921 401.48 Q50.9921 392.73 54.0477 388.147 Q57.1264 383.54 62.9365 383.54 Z" fill="#000000" fill-rule="nonzero" fill-opacity="1" /><path clip-path="url(#clip560)" d="M83.0984 412.846 L87.9827 412.846 L87.9827 418.725 L83.0984 418.725 L83.0984 412.846 Z" fill="#000000" fill-rule="nonzero" fill-opacity="1" /><path clip-path="url(#clip560)" d="M111.015 388.239 L99.2095 406.688 L111.015 406.688 L111.015 388.239 M109.788 384.165 L115.668 384.165 L115.668 406.688 L120.598 406.688 L120.598 410.577 L115.668 410.577 L115.668 418.725 L111.015 418.725 L111.015 410.577 L95.4132 410.577 L95.4132 406.063 L109.788 384.165 Z" fill="#000000" fill-rule="nonzero" fill-opacity="1" /><path clip-path="url(#clip560)" d="M64.418 125.257 Q60.8069 125.257 58.9782 128.822 Q57.1726 132.364 57.1726 139.493 Q57.1726 146.6 58.9782 150.164 Q60.8069 153.706 64.418 153.706 Q68.0522 153.706 69.8578 150.164 Q71.6865 146.6 71.6865 139.493 Q71.6865 132.364 69.8578 128.822 Q68.0522 125.257 64.418 125.257 M64.418 121.554 Q70.2281 121.554 73.2837 126.16 Q76.3624 130.743 76.3624 139.493 Q76.3624 148.22 73.2837 152.826 Q70.2281 157.41 64.418 157.41 Q58.6078 157.41 55.5291 152.826 Q52.4736 148.22 52.4736 139.493 Q52.4736 130.743 55.5291 126.16 Q58.6078 121.554 64.418 121.554 Z" fill="#000000" fill-rule="nonzero" fill-opacity="1" /><path clip-path="url(#clip560)" d="M84.5799 150.859 L89.4641 150.859 L89.4641 156.739 L84.5799 156.739 L84.5799 150.859 Z" fill="#000000" fill-rule="nonzero" fill-opacity="1" /><path clip-path="url(#clip560)" d="M99.6956 122.179 L118.052 122.179 L118.052 126.114 L103.978 126.114 L103.978 134.586 Q104.996 134.239 106.015 134.077 Q107.033 133.891 108.052 133.891 Q113.839 133.891 117.219 137.063 Q120.598 140.234 120.598 145.651 Q120.598 151.229 117.126 154.331 Q113.654 157.41 107.334 157.41 Q105.159 157.41 102.89 157.039 Q100.645 156.669 98.2372 155.928 L98.2372 151.229 Q100.321 152.364 102.543 152.919 Q104.765 153.475 107.242 153.475 Q111.246 153.475 113.584 151.368 Q115.922 149.262 115.922 145.651 Q115.922 142.04 113.584 139.933 Q111.246 137.827 107.242 137.827 Q105.367 137.827 103.492 138.243 Q101.64 138.66 99.6956 139.54 L99.6956 122.179 Z" fill="#000000" fill-rule="nonzero" fill-opacity="1" /><circle clip-path="url(#clip561)" cx="1583.1" cy="1278.27" r="14.4" fill="#808080" fill-rule="evenodd" fill-opacity="1" stroke="#000000" stroke-opacity="1" stroke-width="3.2"/>
<circle clip-path="url(#clip561)" cx="1415.13" cy="1445.72" r="14.4" fill="#808080" fill-rule="evenodd" fill-opacity="1" stroke="#000000" stroke-opacity="1" stroke-width="3.2"/>
<circle clip-path="url(#clip561)" cx="2290.6" cy="1317.07" r="14.4" fill="#808080" fill-rule="evenodd" fill-opacity="1" stroke="#000000" stroke-opacity="1" stroke-width="3.2"/>
<circle clip-path="url(#clip561)" cx="218.754" cy="87.9763" r="14.4" fill="#808080" fill-rule="evenodd" fill-opacity="1" stroke="#000000" stroke-opacity="1" stroke-width="3.2"/>
<path clip-path="url(#clip560)" d="M1587.39 1285.71 Q1578.36 1285.71 1574.87 1287.77 Q1571.39 1289.84 1571.39 1294.82 Q1571.39 1298.79 1573.98 1301.14 Q1576.61 1303.45 1581.11 1303.45 Q1587.31 1303.45 1591.03 1299.08 Q1594.8 1294.66 1594.8 1287.37 L1594.8 1285.71 L1587.39 1285.71 M1602.26 1282.63 L1602.26 1308.51 L1594.8 1308.51 L1594.8 1301.63 Q1592.25 1305.76 1588.44 1307.75 Q1584.63 1309.69 1579.13 1309.69 Q1572.16 1309.69 1568.03 1305.8 Q1563.93 1301.87 1563.93 1295.31 Q1563.93 1287.65 1569.04 1283.76 Q1574.18 1279.88 1584.35 1279.88 L1594.8 1279.88 L1594.8 1279.15 Q1594.8 1274 1591.4 1271.21 Q1588.04 1268.37 1581.92 1268.37 Q1578.03 1268.37 1574.35 1269.3 Q1570.66 1270.23 1567.26 1272.1 L1567.26 1265.21 Q1571.35 1263.63 1575.2 1262.86 Q1579.04 1262.05 1582.69 1262.05 Q1592.53 1262.05 1597.39 1267.16 Q1602.26 1272.26 1602.26 1282.63 Z" fill="#000000" fill-rule="nonzero" fill-opacity="1" /><path clip-path="url(#clip560)" d="M1427.69 1453.31 Q1427.69 1445.09 1424.29 1440.43 Q1420.92 1435.73 1415.01 1435.73 Q1409.1 1435.73 1405.69 1440.43 Q1402.33 1445.09 1402.33 1453.31 Q1402.33 1461.53 1405.69 1466.23 Q1409.1 1470.89 1415.01 1470.89 Q1420.92 1470.89 1424.29 1466.23 Q1427.69 1461.53 1427.69 1453.31 M1402.33 1437.47 Q1404.68 1433.42 1408.24 1431.48 Q1411.85 1429.49 1416.83 1429.49 Q1425.1 1429.49 1430.24 1436.05 Q1435.43 1442.62 1435.43 1453.31 Q1435.43 1464.01 1430.24 1470.57 Q1425.1 1477.13 1416.83 1477.13 Q1411.85 1477.13 1408.24 1475.19 Q1404.68 1473.2 1402.33 1469.15 L1402.33 1475.96 L1394.84 1475.96 L1394.84 1412.92 L1402.33 1412.92 L1402.33 1437.47 Z" fill="#000000" fill-rule="nonzero" fill-opacity="1" /><path clip-path="url(#clip560)" d="M2308.55 1303.69 L2308.55 1310.65 Q2305.39 1308.91 2302.19 1308.06 Q2299.03 1307.17 2295.79 1307.17 Q2288.53 1307.17 2284.52 1311.79 Q2280.51 1316.37 2280.51 1324.67 Q2280.51 1332.97 2284.52 1337.59 Q2288.53 1342.17 2295.79 1342.17 Q2299.03 1342.17 2302.19 1341.32 Q2305.39 1340.43 2308.55 1338.69 L2308.55 1345.57 Q2305.43 1347.03 2302.06 1347.76 Q2298.74 1348.49 2294.98 1348.49 Q2284.73 1348.49 2278.69 1342.05 Q2272.65 1335.61 2272.65 1324.67 Q2272.65 1313.57 2278.73 1307.21 Q2284.85 1300.85 2295.46 1300.85 Q2298.9 1300.85 2302.19 1301.58 Q2305.47 1302.27 2308.55 1303.69 Z" fill="#000000" fill-rule="nonzero" fill-opacity="1" /><path clip-path="url(#clip560)" d="M231.575 79.7327 L231.575 55.1842 L239.028 55.1842 L239.028 118.216 L231.575 118.216 L231.575 111.411 Q229.225 115.462 225.62 117.447 Q222.055 119.391 217.032 119.391 Q208.809 119.391 203.624 112.829 Q198.479 106.266 198.479 95.5717 Q198.479 84.8773 203.624 78.3149 Q208.809 71.7524 217.032 71.7524 Q222.055 71.7524 225.62 73.7373 Q229.225 75.6818 231.575 79.7327 M206.176 95.5717 Q206.176 103.795 209.538 108.494 Q212.941 113.153 218.855 113.153 Q224.769 113.153 228.172 108.494 Q231.575 103.795 231.575 95.5717 Q231.575 87.3484 228.172 82.6898 Q224.769 77.9908 218.855 77.9908 Q212.941 77.9908 209.538 82.6898 Q206.176 87.3484 206.176 95.5717 Z" fill="#000000" fill-rule="nonzero" fill-opacity="1" /><path clip-path="url(#clip560)" d="M2007.5 198.898 L2279.55 198.898 L2279.55 95.2176 L2007.5 95.2176  Z" fill="#ffffff" fill-rule="evenodd" fill-opacity="1"/>
<polyline clip-path="url(#clip560)" style="stroke:#000000; stroke-linecap:round; stroke-linejoin:round; stroke-width:4; stroke-opacity:1; fill:none" points="2007.5,198.898 2279.55,198.898 2279.55,95.2176 2007.5,95.2176 2007.5,198.898 "/>
<circle clip-path="url(#clip560)" cx="2105.11" cy="147.058" r="20.48" fill="#808080" fill-rule="evenodd" fill-opacity="1" stroke="#000000" stroke-opacity="1" stroke-width="4.55111"/>
<path clip-path="url(#clip560)" d="M2216.56 166.745 Q2214.76 171.375 2213.04 172.787 Q2211.33 174.199 2208.46 174.199 L2205.06 174.199 L2205.06 170.634 L2207.56 170.634 Q2209.32 170.634 2210.29 169.8 Q2211.26 168.967 2212.44 165.865 L2213.2 163.921 L2202.72 138.412 L2207.23 138.412 L2215.33 158.689 L2223.44 138.412 L2227.95 138.412 L2216.56 166.745 Z" fill="#000000" fill-rule="nonzero" fill-opacity="1" /><path clip-path="url(#clip560)" d="M2235.24 160.402 L2242.88 160.402 L2242.88 134.037 L2234.57 135.703 L2234.57 131.444 L2242.83 129.778 L2247.51 129.778 L2247.51 160.402 L2255.15 160.402 L2255.15 164.338 L2235.24 164.338 L2235.24 160.402 Z" fill="#000000" fill-rule="nonzero" fill-opacity="1" /></svg>
