<?xml version="1.0" encoding="utf-8"?>
<svg xmlns="http://www.w3.org/2000/svg" xmlns:xlink="http://www.w3.org/1999/xlink" width="600" height="400" viewBox="0 0 2400 1600">
<defs>
  <clipPath id="clip590">
    <rect x="0" y="0" width="2400" height="1600"/>
  </clipPath>
</defs>
<path clip-path="url(#clip590)" d="M0 1600 L2400 1600 L2400 0 L0 0  Z" fill="#ffffff" fill-rule="evenodd" fill-opacity="1"/>
<defs>
  <clipPath id="clip591">
    <rect x="112" y="47" width="2242" height="1440"/>
  </clipPath>
</defs>
<path clip-path="url(#clip590)" d="M112.177 1486.45 L2352.76 1486.45 L2352.76 47.2441 L112.177 47.2441  Z" fill="#ffffff" fill-rule="evenodd" fill-opacity="1"/>
<polyline clip-path="url(#clip591)" style="stroke:#000000; stroke-linecap:round; stroke-linejoin:round; stroke-width:2; stroke-opacity:0.1; fill:none" points="454.583,1486.45 454.583,47.2441 "/>
<polyline clip-path="url(#clip591)" style="stroke:#000000; stroke-linecap:round; stroke-linejoin:round; stroke-width:2; stroke-opacity:0.1; fill:none" points="970.122,1486.45 970.122,47.2441 "/>
<polyline clip-path="url(#clip591)" style="stroke:#000000; stroke-linecap:round; stroke-linejoin:round; stroke-width:2; stroke-opacity:0.1; fill:none" points="1485.66,1486.45 1485.66,47.2441 "/>
<polyline clip-path="url(#clip591)" style="stroke:#000000; stroke-linecap:round; stroke-linejoin:round; stroke-width:2; stroke-opacity:0.1; fill:none" points="2001.2,1486.45 2001.2,47.2441 "/>
<polyline clip-path="url(#clip591)" style="stroke:#000000; stroke-linecap:round; stroke-linejoin:round; stroke-width:2; stroke-opacity:0.1; fill:none" points="112.177,1239.57 2352.76,1239.57 "/>
<polyline clip-path="url(#clip591)" style="stroke:#000000; stroke-linecap:round; stroke-linejoin:round; stroke-width:2; stroke-opacity:0.1; fill:none" points="112.177,985.023 2352.76,985.023 "/>
<polyline clip-path="url(#clip591)" style="stroke:#000000; stroke-linecap:round; stroke-linejoin:round; stroke-width:2; stroke-opacity:0.1; fill:none" points="112.177,730.481 2352.76,730.481 "/>
<polyline clip-path="url(#clip591)" style="stroke:#000000; stroke-linecap:round; stroke-linejoin:round; stroke-width:2; stroke-opacity:0.1; fill:none" points="112.177,475.938 2352.76,475.938 "/>
<polyline clip-path="url(#clip591)" style="stroke:#000000; stroke-linecap:round; stroke-linejoin:round; stroke-width:2; stroke-opacity:0.1; fill:none" points="112.177,221.395 2352.76,221.395 "/>
<polyline clip-path="url(#clip590)" style="stroke:#000000; stroke-linecap:round; stroke-linejoin:round; stroke-width:4; stroke-opacity:1; fill:none" points="112.177,1486.45 2352.76,1486.45 "/>
<polyline clip-path="url(#clip590)" style="stroke:#000000; stroke-linecap:round; stroke-linejoin:round; stroke-width:4; stroke-opacity:1; fill:none" points="454.583,1486.45 454.583,1467.55 "/>
<polyline clip-path="url(#clip590)" style="stroke:#000000; stroke-linecap:round; stroke-linejoin:round; stroke-width:4; stroke-opacity:1; fill:none" points="970.122,1486.45 970.122,1467.55 "/>
<polyline clip-path="url(#clip590)" style="stroke:#000000; stroke-linecap:round; stroke-linejoin:round; stroke-width:4; stroke-opacity:1; fill:none" points="1485.66,1486.45 1485.66,1467.55 "/>
<polyline clip-path="url(#clip590)" style="stroke:#000000; stroke-linecap:round; stroke-linejoin:round; stroke-width:4; stroke-opacity:1; fill:none" points="2001.2,1486.45 2001.2,1467.55 "/>
<path clip-path="url(#clip590)" d="M401.111 1532.02 L430.787 1532.02 L430.787 1535.95 L401.111 1535.95 L401.111 1532.02 Z" fill="#000000" fill-rule="nonzero" fill-opacity="1" /><path clip-path="url(#clip590)" d="M441.69 1544.91 L449.329 1544.91 L449.329 1518.55 L441.019 1520.21 L441.019 1515.95 L449.282 1514.29 L453.958 1514.29 L453.958 1544.91 L461.597 1544.91 L461.597 1548.85 L441.69 1548.85 L441.69 1544.91 Z" fill="#000000" fill-rule="nonzero" fill-opacity="1" /><path clip-path="url(#clip590)" d="M471.042 1542.97 L475.926 1542.97 L475.926 1548.85 L471.042 1548.85 L471.042 1542.97 Z" fill="#000000" fill-rule="nonzero" fill-opacity="1" /><path clip-path="url(#clip590)" d="M496.111 1517.37 Q492.5 1517.37 490.671 1520.93 Q488.866 1524.47 488.866 1531.6 Q488.866 1538.71 490.671 1542.27 Q492.5 1545.82 496.111 1545.82 Q499.745 1545.82 501.551 1542.27 Q503.379 1538.71 503.379 1531.6 Q503.379 1524.47 501.551 1520.93 Q499.745 1517.37 496.111 1517.37 M496.111 1513.66 Q501.921 1513.66 504.977 1518.27 Q508.055 1522.85 508.055 1531.6 Q508.055 1540.33 504.977 1544.94 Q501.921 1549.52 496.111 1549.52 Q490.301 1549.52 487.222 1544.94 Q484.166 1540.33 484.166 1531.6 Q484.166 1522.85 487.222 1518.27 Q490.301 1513.66 496.111 1513.66 Z" fill="#000000" fill-rule="nonzero" fill-opacity="1" /><path clip-path="url(#clip590)" d="M917.148 1532.02 L946.824 1532.02 L946.824 1535.95 L917.148 1535.95 L917.148 1532.02 Z" fill="#000000" fill-rule="nonzero" fill-opacity="1" /><path clip-path="url(#clip590)" d="M966.916 1517.37 Q963.305 1517.37 961.477 1520.93 Q959.671 1524.47 959.671 1531.6 Q959.671 1538.71 961.477 1542.27 Q963.305 1545.82 966.916 1545.82 Q970.551 1545.82 972.356 1542.27 Q974.185 1538.71 974.185 1531.6 Q974.185 1524.47 972.356 1520.93 Q970.551 1517.37 966.916 1517.37 M966.916 1513.66 Q972.727 1513.66 975.782 1518.27 Q978.861 1522.85 978.861 1531.6 Q978.861 1540.33 975.782 1544.94 Q972.727 1549.52 966.916 1549.52 Q961.106 1549.52 958.028 1544.94 Q954.972 1540.33 954.972 1531.6 Q954.972 1522.85 958.028 1518.27 Q961.106 1513.66 966.916 1513.66 Z" fill="#000000" fill-rule="nonzero" fill-opacity="1" /><path clip-path="url(#clip590)" d="M987.078 1542.97 L991.963 1542.97 L991.963 1548.85 L987.078 1548.85 L987.078 1542.97 Z" fill="#000000" fill-rule="nonzero" fill-opacity="1" /><path clip-path="url(#clip590)" d="M1002.19 1514.29 L1020.55 1514.29 L1020.55 1518.22 L1006.48 1518.22 L1006.48 1526.7 Q1007.49 1526.35 1008.51 1526.19 Q1009.53 1526 1010.55 1526 Q1016.34 1526 1019.72 1529.17 Q1023.1 1532.34 1023.1 1537.76 Q1023.1 1543.34 1019.62 1546.44 Q1016.15 1549.52 1009.83 1549.52 Q1007.66 1549.52 1005.39 1549.15 Q1003.14 1548.78 1000.74 1548.04 L1000.74 1543.34 Q1002.82 1544.47 1005.04 1545.03 Q1007.26 1545.58 1009.74 1545.58 Q1013.74 1545.58 1016.08 1543.48 Q1018.42 1541.37 1018.42 1537.76 Q1018.42 1534.15 1016.08 1532.04 Q1013.74 1529.94 1009.74 1529.94 Q1007.87 1529.94 1005.99 1530.35 Q1004.14 1530.77 1002.19 1531.65 L1002.19 1514.29 Z" fill="#000000" fill-rule="nonzero" fill-opacity="1" /><path clip-path="url(#clip590)" d="M1463.05 1517.37 Q1459.43 1517.37 1457.61 1520.93 Q1455.8 1524.47 1455.8 1531.6 Q1455.8 1538.71 1457.61 1542.27 Q1459.43 1545.82 1463.05 1545.82 Q1466.68 1545.82 1468.49 1542.27 Q1470.31 1538.71 1470.31 1531.6 Q1470.31 1524.47 1468.49 1520.93 Q1466.68 1517.37 1463.05 1517.37 M1463.05 1513.66 Q1468.86 1513.66 1471.91 1518.27 Q1474.99 1522.85 1474.99 1531.6 Q1474.99 1540.33 1471.91 1544.94 Q1468.86 1549.52 1463.05 1549.52 Q1457.24 1549.52 1454.16 1544.94 Q1451.1 1540.33 1451.1 1531.6 Q1451.1 1522.85 1454.16 1518.27 Q1457.24 1513.66 1463.05 1513.66 Z" fill="#000000" fill-rule="nonzero" fill-opacity="1" /><path clip-path="url(#clip590)" d="M1483.21 1542.97 L1488.09 1542.97 L1488.09 1548.85 L1483.21 1548.85 L1483.21 1542.97 Z" fill="#000000" fill-rule="nonzero" fill-opacity="1" /><path clip-path="url(#clip590)" d="M1508.28 1517.37 Q1504.67 1517.37 1502.84 1520.93 Q1501.03 1524.47 1501.03 1531.6 Q1501.03 1538.71 1502.84 1542.27 Q1504.67 1545.82 1508.28 1545.82 Q1511.91 1545.82 1513.72 1542.27 Q1515.55 1538.71 1515.55 1531.6 Q1515.55 1524.47 1513.72 1520.93 Q1511.91 1517.37 1508.28 1517.37 M1508.28 1513.66 Q1514.09 1513.66 1517.14 1518.27 Q1520.22 1522.85 1520.22 1531.6 Q1520.22 1540.33 1517.14 1544.94 Q1514.09 1549.52 1508.28 1549.52 Q1502.47 1549.52 1499.39 1544.94 Q1496.33 1540.33 1496.33 1531.6 Q1496.33 1522.85 1499.39 1518.27 Q1502.47 1513.66 1508.28 1513.66 Z" fill="#000000" fill-rule="nonzero" fill-opacity="1" /><path clip-path="url(#clip590)" d="M1979.08 1517.37 Q1975.47 1517.37 1973.64 1520.93 Q1971.84 1524.47 1971.84 1531.6 Q1971.84 1538.71 1973.64 1542.27 Q1975.47 1545.82 1979.08 1545.82 Q1982.72 1545.82 1984.52 1542.27 Q1986.35 1538.71 1986.35 1531.6 Q1986.35 1524.47 1984.52 1520.93 Q1982.72 1517.37 1979.08 1517.37 M1979.08 1513.66 Q1984.89 1513.66 1987.95 1518.27 Q1991.03 1522.85 1991.03 1531.6 Q1991.03 1540.33 1987.95 1544.94 Q1984.89 1549.52 1979.08 1549.52 Q1973.27 1549.52 1970.19 1544.94 Q1967.14 1540.33 1967.14 1531.6 Q1967.14 1522.85 1970.19 1518.27 Q1973.27 1513.66 1979.08 1513.66 Z" fill="#000000" fill-rule="nonzero" fill-opacity="1" /><path clip-path="url(#clip590)" d="M1999.24 1542.97 L2004.13 1542.97 L2004.13 1548.85 L1999.24 1548.85 L1999.24 1542.97 Z" fill="#000000" fill-rule="nonzero" fill-opacity="1" /><path clip-path="url(#clip590)" d="M2014.36 1514.29 L2032.72 1514.29 L2032.72 1518.22 L2018.64 1518.22 L2018.64 1526.7 Q2019.66 1526.35 2020.68 1526.19 Q2021.7 1526 2022.72 1526 Q2028.5 1526 2031.88 1529.17 Q2035.26 1532.34 2035.26 1537.76 Q2035.26 1543.34 2031.79 1546.44 Q2028.32 1549.52 2022 1549.52 Q2019.82 1549.52 2017.55 1549.15 Q2015.31 1548.78 2012.9 1548.04 L2012.9 1543.34 Q2014.99 1544.47 2017.21 1545.03 Q2019.43 1545.58 2021.91 1545.58 Q2025.91 1545.58 2028.25 1543.48 Q2030.59 1541.37 2030.59 1537.76 Q2030.59 1534.15 2028.25 1532.04 Q2025.91 1529.94 2021.91 1529.94 Q2020.03 1529.94 2018.16 1530.35 Q2016.3 1530.77 2014.36 1531.65 L2014.36 1514.29 Z" fill="#000000" fill-rule="nonzero" fill-opacity="1" /><polyline clip-path="url(#clip590)" style="stroke:#000000; stroke-linecap:round; stroke-linejoin:round; stroke-width:4; stroke-opacity:1; fill:none" points="112.177,1486.45 112.177,47.2441 "/>
<polyline clip-path="url(#clip590)" style="stroke:#000000; stroke-linecap:round; stroke-linejoin:round; stroke-width:4; stroke-opacity:1; fill:none" points="112.177,1239.57 131.075,1239.57 "/>
<polyline clip-path="url(#clip590)" style="stroke:#000000; stroke-linecap:round; stroke-linejoin:round; stroke-width:4; stroke-opacity:1; fill:none" points="112.177,985.023 131.075,985.023 "/>
<polyline clip-path="url(#clip590)" style="stroke:#000000; stroke-linecap:round; stroke-linejoin:round; stroke-width:4; stroke-opacity:1; fill:none" points="112.177,730.481 131.075,730.481 "/>
<polyline clip-path="url(#clip590)" style="stroke:#000000; stroke-linecap:round; stroke-linejoin:round; stroke-width:4; stroke-opacity:1; fill:none" points="112.177,475.938 131.075,475.938 "/>
<polyline clip-path="url(#clip590)" style="stroke:#000000; stroke-linecap:round; stroke-linejoin:round; stroke-width:4; stroke-opacity:1; fill:none" points="112.177,221.395 131.075,221.395 "/>
<path clip-path="url(#clip590)" d="M56.2699 1252.91 L63.9087 1252.91 L63.9087 1226.55 L55.5986 1228.21 L55.5986 1223.95 L63.8624 1222.29 L68.5383 1222.29 L68.5383 1252.91 L76.1772 1252.91 L76.1772 1256.85 L56.2699 1256.85 L56.2699 1252.91 Z" fill="#000000" fill-rule="nonzero" fill-opacity="1" /><path clip-path="url(#clip590)" d="M59.8578 998.368 L76.1772 998.368 L76.1772 1002.3 L54.2328 1002.3 L54.2328 998.368 Q56.8949 995.613 61.4782 990.984 Q66.0846 986.331 67.2652 984.989 Q69.5105 982.465 70.3902 980.729 Q71.2929 978.97 71.2929 977.28 Q71.2929 974.526 69.3485 972.79 Q67.4272 971.053 64.3254 971.053 Q62.1263 971.053 59.6726 971.817 Q57.2421 972.581 54.4643 974.132 L54.4643 969.41 Q57.2884 968.276 59.7421 967.697 Q62.1958 967.118 64.2328 967.118 Q69.6031 967.118 72.7976 969.803 Q75.992 972.489 75.992 976.979 Q75.992 979.109 75.1818 981.03 Q74.3948 982.928 72.2883 985.521 Q71.7096 986.192 68.6078 989.41 Q65.5059 992.604 59.8578 998.368 Z" fill="#000000" fill-rule="nonzero" fill-opacity="1" /><path clip-path="url(#clip590)" d="M69.0476 729.126 Q72.404 729.844 74.279 732.113 Q76.1772 734.381 76.1772 737.714 Q76.1772 742.83 72.6587 745.631 Q69.1402 748.432 62.6587 748.432 Q60.4828 748.432 58.168 747.992 Q55.8764 747.575 53.4227 746.719 L53.4227 742.205 Q55.3671 743.339 57.6819 743.918 Q59.9967 744.497 62.5198 744.497 Q66.918 744.497 69.2096 742.761 Q71.5244 741.025 71.5244 737.714 Q71.5244 734.659 69.3717 732.946 Q67.242 731.21 63.4226 731.21 L59.3949 731.21 L59.3949 727.367 L63.6078 727.367 Q67.0569 727.367 68.8855 726.001 Q70.7142 724.613 70.7142 722.02 Q70.7142 719.358 68.8161 717.946 Q66.9411 716.511 63.4226 716.511 Q61.5013 716.511 59.3023 716.927 Q57.1032 717.344 54.4643 718.224 L54.4643 714.057 Q57.1264 713.316 59.4412 712.946 Q61.7791 712.576 63.8393 712.576 Q69.1633 712.576 72.2652 715.006 Q75.367 717.414 75.367 721.534 Q75.367 724.404 73.7235 726.395 Q72.08 728.363 69.0476 729.126 Z" fill="#000000" fill-rule="nonzero" fill-opacity="1" /><path clip-path="url(#clip590)" d="M66.5939 462.732 L54.7884 481.181 L66.5939 481.181 L66.5939 462.732 M65.367 458.658 L71.2466 458.658 L71.2466 481.181 L76.1772 481.181 L76.1772 485.07 L71.2466 485.07 L71.2466 493.218 L66.5939 493.218 L66.5939 485.07 L50.9921 485.07 L50.9921 480.556 L65.367 458.658 Z" fill="#000000" fill-rule="nonzero" fill-opacity="1" /><path clip-path="url(#clip590)" d="M55.2745 204.115 L73.6309 204.115 L73.6309 208.05 L59.5569 208.05 L59.5569 216.523 Q60.5754 216.175 61.5939 216.013 Q62.6124 215.828 63.6309 215.828 Q69.418 215.828 72.7976 218.999 Q76.1772 222.171 76.1772 227.587 Q76.1772 233.166 72.705 236.268 Q69.2328 239.347 62.9134 239.347 Q60.7374 239.347 58.4689 238.976 Q56.2236 238.606 53.8162 237.865 L53.8162 233.166 Q55.8995 234.3 58.1217 234.856 Q60.3439 235.411 62.8208 235.411 Q66.8254 235.411 69.1633 233.305 Q71.5013 231.198 71.5013 227.587 Q71.5013 223.976 69.1633 221.87 Q66.8254 219.763 62.8208 219.763 Q60.9458 219.763 59.0708 220.18 Q57.2189 220.597 55.2745 221.476 L55.2745 204.115 Z" fill="#000000" fill-rule="nonzero" fill-opacity="1" /><circle clip-path="url(#clip591)" cx="2289.34" cy="1313.53" r="14.4" fill="#808080" fill-rule="evenodd" fill-opacity="1" stroke="#000000" stroke-opacity="1" stroke-width="3.2"/>
<circle clip-path="url(#clip591)" cx="175.59" cy="87.9763" r="14.4" fill="#808080" fill-rule="evenodd" fill-opacity="1" stroke="#000000" stroke-opacity="1" stroke-width="3.2"/>
<circle clip-path="url(#clip591)" cx="1526.38" cy="1445.72" r="14.4" fill="#808080" fill-rule="evenodd" fill-opacity="1" stroke="#000000" stroke-opacity="1" stroke-width="3.2"/>
<circle clip-path="url(#clip591)" cx="1371.47" cy="1422.98" r="14.4" fill="#808080" fill-rule="evenodd" fill-opacity="1" stroke="#000000" stroke-opacity="1" stroke-width="3.2"/>
<path clip-path="url(#clip590)" d="M2293.64 1320.96 Q2284.6 1320.96 2281.12 1323.03 Q2277.64 1325.1 2277.64 1330.08 Q2277.64 1334.05 2280.23 1336.4 Q2282.86 1338.71 2287.36 1338.71 Q2293.56 1338.71 2297.28 1334.33 Q2301.05 1329.92 2301.05 1322.63 L2301.05 1320.96 L2293.64 1320.96 M2308.5 1317.89 L2308.5 1343.77 L2301.05 1343.77 L2301.05 1336.88 Q2298.5 1341.02 2294.69 1343 Q2290.88 1344.95 2285.37 1344.95 Q2278.41 1344.95 2274.27 1341.06 Q2270.18 1337.13 2270.18 1330.57 Q2270.18 1322.91 2275.29 1319.02 Q2280.43 1315.13 2290.6 1315.13 L2301.05 1315.13 L2301.05 1314.4 Q2301.05 1309.26 2297.65 1306.46 Q2294.29 1303.63 2288.17 1303.63 Q2284.28 1303.63 2280.59 1304.56 Q2276.91 1305.49 2273.5 1307.35 L2273.5 1300.47 Q2277.6 1298.89 2281.44 1298.12 Q2285.29 1297.31 2288.94 1297.31 Q2298.78 1297.31 2303.64 1302.41 Q2308.5 1307.52 2308.5 1317.89 Z" fill="#000000" fill-rule="nonzero" fill-opacity="1" /><path clip-path="url(#clip590)" d="M188.148 95.5717 Q188.148 87.3484 184.745 82.6898 Q181.383 77.9908 175.468 77.9908 Q169.554 77.9908 166.151 82.6898 Q162.789 87.3484 162.789 95.5717 Q162.789 103.795 166.151 108.494 Q169.554 113.153 175.468 113.153 Q181.383 113.153 184.745 108.494 Q188.148 103.795 188.148 95.5717 M162.789 79.7327 Q165.138 75.6818 168.703 73.7373 Q172.309 71.7524 177.291 71.7524 Q185.555 71.7524 190.7 78.3149 Q195.885 84.8773 195.885 95.5717 Q195.885 106.266 190.7 112.829 Q185.555 119.391 177.291 119.391 Q172.309 119.391 168.703 117.447 Q165.138 115.462 162.789 111.411 L162.789 118.216 L155.295 118.216 L155.295 55.1842 L162.789 55.1842 L162.789 79.7327 Z" fill="#000000" fill-rule="nonzero" fill-opacity="1" /><path clip-path="url(#clip590)" d="M1544.33 1432.33 L1544.33 1439.3 Q1541.17 1437.55 1537.97 1436.7 Q1534.81 1435.81 1531.57 1435.81 Q1524.32 1435.81 1520.31 1440.43 Q1516.3 1445.01 1516.3 1453.31 Q1516.3 1461.62 1520.31 1466.23 Q1524.32 1470.81 1531.57 1470.81 Q1534.81 1470.81 1537.97 1469.96 Q1541.17 1469.07 1544.33 1467.33 L1544.33 1474.21 Q1541.21 1475.67 1537.85 1476.4 Q1534.53 1477.13 1530.76 1477.13 Q1520.51 1477.13 1514.47 1470.69 Q1508.44 1464.25 1508.44 1453.31 Q1508.44 1442.21 1514.52 1435.85 Q1520.63 1429.49 1531.25 1429.49 Q1534.69 1429.49 1537.97 1430.22 Q1541.25 1430.91 1544.33 1432.33 Z" fill="#000000" fill-rule="nonzero" fill-opacity="1" /><path clip-path="url(#clip590)" d="M1384.29 1414.74 L1384.29 1390.19 L1391.74 1390.19 L1391.74 1453.22 L1384.29 1453.22 L1384.29 1446.42 Q1381.94 1450.47 1378.33 1452.45 Q1374.77 1454.4 1369.75 1454.4 Q1361.52 1454.4 1356.34 1447.83 Q1351.19 1441.27 1351.19 1430.58 Q1351.19 1419.88 1356.34 1413.32 Q1361.52 1406.76 1369.75 1406.76 Q1374.77 1406.76 1378.33 1408.74 Q1381.94 1410.69 1384.29 1414.74 M1358.89 1430.58 Q1358.89 1438.8 1362.25 1443.5 Q1365.66 1448.16 1371.57 1448.16 Q1377.48 1448.16 1380.89 1443.5 Q1384.29 1438.8 1384.29 1430.58 Q1384.29 1422.35 1380.89 1417.7 Q1377.48 1413 1371.57 1413 Q1365.66 1413 1362.25 1417.7 Q1358.89 1422.35 1358.89 1430.58 Z" fill="#000000" fill-rule="nonzero" fill-opacity="1" /><path clip-path="url(#clip590)" d="M2001.58 198.898 L2278.07 198.898 L2278.07 95.2176 L2001.58 95.2176  Z" fill="#ffffff" fill-rule="evenodd" fill-opacity="1"/>
<polyline clip-path="url(#clip590)" style="stroke:#000000; stroke-linecap:round; stroke-linejoin:round; stroke-width:4; stroke-opacity:1; fill:none" points="2001.58,198.898 2278.07,198.898 2278.07,95.2176 2001.58,95.2176 2001.58,198.898 "/>
<circle clip-path="url(#clip590)" cx="2101.16" cy="147.058" r="20.48" fill="#808080" fill-rule="evenodd" fill-opacity="1" stroke="#000000" stroke-opacity="1" stroke-width="4.55111"/>
<path clip-path="url(#clip590)" d="M2214.59 166.745 Q2212.78 171.375 2211.07 172.787 Q2209.36 174.199 2206.49 174.199 L2203.08 174.199 L2203.08 170.634 L2205.58 170.634 Q2207.34 170.634 2208.31 169.8 Q2209.29 168.967 2210.47 165.865 L2211.23 163.921 L2200.74 138.412 L2205.26 138.412 L2213.36 158.689 L2221.46 138.412 L2225.98 138.412 L2214.59 166.745 Z" fill="#000000" fill-rule="nonzero" fill-opacity="1" /><path clip-path="url(#clip590)" d="M2233.27 160.402 L2240.91 160.402 L2240.91 134.037 L2232.6 135.703 L2232.6 131.444 L2240.86 129.778 L2245.54 129.778 L2245.54 160.402 L2253.17 160.402 L2253.17 164.338 L2233.27 164.338 L2233.27 160.402 Z" fill="#000000" fill-rule="nonzero" fill-opacity="1" /></svg>
