<?xml version="1.0" encoding="utf-8"?>
<svg xmlns="http://www.w3.org/2000/svg" xmlns:xlink="http://www.w3.org/1999/xlink" width="600" height="400" viewBox="0 0 2400 1600">
<defs>
  <clipPath id="clip780">
    <rect x="0" y="0" width="2400" height="1600"/>
  </clipPath>
</defs>
<path clip-path="url(#clip780)" d="M0 1600 L2400 1600 L2400 0 L0 0  Z" fill="#ffffff" fill-rule="evenodd" fill-opacity="1"/>
<defs>
  <clipPath id="clip781">
    <rect x="156" y="47" width="2197" height="1440"/>
  </clipPath>
</defs>
<path clip-path="url(#clip780)" d="M156.598 1486.45 L2352.76 1486.45 L2352.76 47.2441 L156.598 47.2441  Z" fill="#ffffff" fill-rule="evenodd" fill-opacity="1"/>
<polyline clip-path="url(#clip781)" style="stroke:#000000; stroke-linecap:round; stroke-linejoin:round; stroke-width:2; stroke-opacity:0.1; fill:none" points="397.401,1486.45 397.401,47.2441 "/>
<polyline clip-path="url(#clip781)" style="stroke:#000000; stroke-linecap:round; stroke-linejoin:round; stroke-width:2; stroke-opacity:0.1; fill:none" points="926.922,1486.45 926.922,47.2441 "/>
<polyline clip-path="url(#clip781)" style="stroke:#000000; stroke-linecap:round; stroke-linejoin:round; stroke-width:2; stroke-opacity:0.1; fill:none" points="1456.44,1486.45 1456.44,47.2441 "/>
<polyline clip-path="url(#clip781)" style="stroke:#000000; stroke-linecap:round; stroke-linejoin:round; stroke-width:2; stroke-opacity:0.1; fill:none" points="1985.96,1486.45 1985.96,47.2441 "/>
<polyline clip-path="url(#clip781)" style="stroke:#000000; stroke-linecap:round; stroke-linejoin:round; stroke-width:2; stroke-opacity:0.1; fill:none" points="156.598,1448.74 2352.76,1448.74 "/>
<polyline clip-path="url(#clip781)" style="stroke:#000000; stroke-linecap:round; stroke-linejoin:round; stroke-width:2; stroke-opacity:0.1; fill:none" points="156.598,1208.7 2352.76,1208.7 "/>
<polyline clip-path="url(#clip781)" style="stroke:#000000; stroke-linecap:round; stroke-linejoin:round; stroke-width:2; stroke-opacity:0.1; fill:none" points="156.598,968.648 2352.76,968.648 "/>
<polyline clip-path="url(#clip781)" style="stroke:#000000; stroke-linecap:round; stroke-linejoin:round; stroke-width:2; stroke-opacity:0.1; fill:none" points="156.598,728.6 2352.76,728.6 "/>
<polyline clip-path="url(#clip781)" style="stroke:#000000; stroke-linecap:round; stroke-linejoin:round; stroke-width:2; stroke-opacity:0.1; fill:none" points="156.598,488.552 2352.76,488.552 "/>
<polyline clip-path="url(#clip781)" style="stroke:#000000; stroke-linecap:round; stroke-linejoin:round; stroke-width:2; stroke-opacity:0.1; fill:none" points="156.598,248.503 2352.76,248.503 "/>
<polyline clip-path="url(#clip780)" style="stroke:#000000; stroke-linecap:round; stroke-linejoin:round; stroke-width:4; stroke-opacity:1; fill:none" points="156.598,1486.45 2352.76,1486.45 "/>
<polyline clip-path="url(#clip780)" style="stroke:#000000; stroke-linecap:round; stroke-linejoin:round; stroke-width:4; stroke-opacity:1; fill:none" points="397.401,1486.45 397.401,1467.55 "/>
<polyline clip-path="url(#clip780)" style="stroke:#000000; stroke-linecap:round; stroke-linejoin:round; stroke-width:4; stroke-opacity:1; fill:none" points="926.922,1486.45 926.922,1467.55 "/>
<polyline clip-path="url(#clip780)" style="stroke:#000000; stroke-linecap:round; stroke-linejoin:round; stroke-width:4; stroke-opacity:1; fill:none" points="1456.44,1486.45 1456.44,1467.55 "/>
<polyline clip-path="url(#clip780)" style="stroke:#000000; stroke-linecap:round; stroke-linejoin:round; stroke-width:4; stroke-opacity:1; fill:none" points="1985.96,1486.45 1985.96,1467.55 "/>
<path clip-path="url(#clip780)" d="M328.848 1532.02 L358.524 1532.02 L358.524 1535.95 L328.848 1535.95 L328.848 1532.02 Z" fill="#000000" fill-rule="nonzero" fill-opacity="1" /><path clip-path="url(#clip780)" d="M378.617 1517.37 Q375.005 1517.37 373.177 1520.93 Q371.371 1524.47 371.371 1531.6 Q371.371 1538.71 373.177 1542.27 Q375.005 1545.82 378.617 1545.82 Q382.251 1545.82 384.056 1542.27 Q385.885 1538.71 385.885 1531.6 Q385.885 1524.47 384.056 1520.93 Q382.251 1517.37 378.617 1517.37 M378.617 1513.66 Q384.427 1513.66 387.482 1518.27 Q390.561 1522.85 390.561 1531.6 Q390.561 1540.33 387.482 1544.94 Q384.427 1549.52 378.617 1549.52 Q372.806 1549.52 369.728 1544.94 Q366.672 1540.33 366.672 1531.6 Q366.672 1522.85 369.728 1518.27 Q372.806 1513.66 378.617 1513.66 Z" fill="#000000" fill-rule="nonzero" fill-opacity="1" /><path clip-path="url(#clip780)" d="M398.778 1542.97 L403.663 1542.97 L403.663 1548.85 L398.778 1548.85 L398.778 1542.97 Z" fill="#000000" fill-rule="nonzero" fill-opacity="1" /><path clip-path="url(#clip780)" d="M413.894 1514.29 L432.251 1514.29 L432.251 1518.22 L418.177 1518.22 L418.177 1526.7 Q419.195 1526.35 420.214 1526.19 Q421.232 1526 422.251 1526 Q428.038 1526 431.417 1529.17 Q434.797 1532.34 434.797 1537.76 Q434.797 1543.34 431.325 1546.44 Q427.852 1549.52 421.533 1549.52 Q419.357 1549.52 417.089 1549.15 Q414.843 1548.78 412.436 1548.04 L412.436 1543.34 Q414.519 1544.47 416.741 1545.03 Q418.964 1545.58 421.44 1545.58 Q425.445 1545.58 427.783 1543.48 Q430.121 1541.37 430.121 1537.76 Q430.121 1534.15 427.783 1532.04 Q425.445 1529.94 421.44 1529.94 Q419.565 1529.94 417.69 1530.35 Q415.839 1530.77 413.894 1531.65 L413.894 1514.29 Z" fill="#000000" fill-rule="nonzero" fill-opacity="1" /><path clip-path="url(#clip780)" d="M454.01 1517.37 Q450.399 1517.37 448.57 1520.93 Q446.764 1524.47 446.764 1531.6 Q446.764 1538.71 448.57 1542.27 Q450.399 1545.82 454.01 1545.82 Q457.644 1545.82 459.449 1542.27 Q461.278 1538.71 461.278 1531.6 Q461.278 1524.47 459.449 1520.93 Q457.644 1517.37 454.01 1517.37 M454.01 1513.66 Q459.82 1513.66 462.875 1518.27 Q465.954 1522.85 465.954 1531.6 Q465.954 1540.33 462.875 1544.94 Q459.82 1549.52 454.01 1549.52 Q448.199 1549.52 445.121 1544.94 Q442.065 1540.33 442.065 1531.6 Q442.065 1522.85 445.121 1518.27 Q448.199 1513.66 454.01 1513.66 Z" fill="#000000" fill-rule="nonzero" fill-opacity="1" /><path clip-path="url(#clip780)" d="M858.867 1532.02 L888.543 1532.02 L888.543 1535.95 L858.867 1535.95 L858.867 1532.02 Z" fill="#000000" fill-rule="nonzero" fill-opacity="1" /><path clip-path="url(#clip780)" d="M908.635 1517.37 Q905.024 1517.37 903.195 1520.93 Q901.39 1524.47 901.39 1531.6 Q901.39 1538.71 903.195 1542.27 Q905.024 1545.82 908.635 1545.82 Q912.269 1545.82 914.075 1542.27 Q915.904 1538.71 915.904 1531.6 Q915.904 1524.47 914.075 1520.93 Q912.269 1517.37 908.635 1517.37 M908.635 1513.66 Q914.445 1513.66 917.501 1518.27 Q920.58 1522.85 920.58 1531.6 Q920.58 1540.33 917.501 1544.94 Q914.445 1549.52 908.635 1549.52 Q902.825 1549.52 899.746 1544.94 Q896.691 1540.33 896.691 1531.6 Q896.691 1522.85 899.746 1518.27 Q902.825 1513.66 908.635 1513.66 Z" fill="#000000" fill-rule="nonzero" fill-opacity="1" /><path clip-path="url(#clip780)" d="M928.797 1542.97 L933.681 1542.97 L933.681 1548.85 L928.797 1548.85 L928.797 1542.97 Z" fill="#000000" fill-rule="nonzero" fill-opacity="1" /><path clip-path="url(#clip780)" d="M947.894 1544.91 L964.214 1544.91 L964.214 1548.85 L942.269 1548.85 L942.269 1544.91 Q944.931 1542.16 949.515 1537.53 Q954.121 1532.88 955.302 1531.53 Q957.547 1529.01 958.427 1527.27 Q959.329 1525.51 959.329 1523.82 Q959.329 1521.07 957.385 1519.33 Q955.464 1517.6 952.362 1517.6 Q950.163 1517.6 947.709 1518.36 Q945.279 1519.13 942.501 1520.68 L942.501 1515.95 Q945.325 1514.82 947.779 1514.24 Q950.232 1513.66 952.269 1513.66 Q957.64 1513.66 960.834 1516.35 Q964.028 1519.03 964.028 1523.52 Q964.028 1525.65 963.218 1527.57 Q962.431 1529.47 960.325 1532.07 Q959.746 1532.74 956.644 1535.95 Q953.542 1539.15 947.894 1544.91 Z" fill="#000000" fill-rule="nonzero" fill-opacity="1" /><path clip-path="url(#clip780)" d="M974.075 1514.29 L992.431 1514.29 L992.431 1518.22 L978.357 1518.22 L978.357 1526.7 Q979.376 1526.35 980.394 1526.19 Q981.413 1526 982.431 1526 Q988.218 1526 991.598 1529.17 Q994.977 1532.34 994.977 1537.76 Q994.977 1543.34 991.505 1546.44 Q988.033 1549.52 981.714 1549.52 Q979.538 1549.52 977.269 1549.15 Q975.024 1548.78 972.616 1548.04 L972.616 1543.34 Q974.7 1544.47 976.922 1545.03 Q979.144 1545.58 981.621 1545.58 Q985.626 1545.58 987.963 1543.48 Q990.301 1541.37 990.301 1537.76 Q990.301 1534.15 987.963 1532.04 Q985.626 1529.94 981.621 1529.94 Q979.746 1529.94 977.871 1530.35 Q976.019 1530.77 974.075 1531.65 L974.075 1514.29 Z" fill="#000000" fill-rule="nonzero" fill-opacity="1" /><path clip-path="url(#clip780)" d="M1418.75 1517.37 Q1415.14 1517.37 1413.31 1520.93 Q1411.5 1524.47 1411.5 1531.6 Q1411.5 1538.71 1413.31 1542.27 Q1415.14 1545.82 1418.75 1545.82 Q1422.38 1545.82 1424.19 1542.27 Q1426.02 1538.71 1426.02 1531.6 Q1426.02 1524.47 1424.19 1520.93 Q1422.38 1517.37 1418.75 1517.37 M1418.75 1513.66 Q1424.56 1513.66 1427.61 1518.27 Q1430.69 1522.85 1430.69 1531.6 Q1430.69 1540.33 1427.61 1544.94 Q1424.56 1549.52 1418.75 1549.52 Q1412.94 1549.52 1409.86 1544.94 Q1406.8 1540.33 1406.8 1531.6 Q1406.8 1522.85 1409.86 1518.27 Q1412.94 1513.66 1418.75 1513.66 Z" fill="#000000" fill-rule="nonzero" fill-opacity="1" /><path clip-path="url(#clip780)" d="M1438.91 1542.97 L1443.79 1542.97 L1443.79 1548.85 L1438.91 1548.85 L1438.91 1542.97 Z" fill="#000000" fill-rule="nonzero" fill-opacity="1" /><path clip-path="url(#clip780)" d="M1463.98 1517.37 Q1460.37 1517.37 1458.54 1520.93 Q1456.73 1524.47 1456.73 1531.6 Q1456.73 1538.71 1458.54 1542.27 Q1460.37 1545.82 1463.98 1545.82 Q1467.61 1545.82 1469.42 1542.27 Q1471.25 1538.71 1471.25 1531.6 Q1471.25 1524.47 1469.42 1520.93 Q1467.61 1517.37 1463.98 1517.37 M1463.98 1513.66 Q1469.79 1513.66 1472.84 1518.27 Q1475.92 1522.85 1475.92 1531.6 Q1475.92 1540.33 1472.84 1544.94 Q1469.79 1549.52 1463.98 1549.52 Q1458.17 1549.52 1455.09 1544.94 Q1452.03 1540.33 1452.03 1531.6 Q1452.03 1522.85 1455.09 1518.27 Q1458.17 1513.66 1463.98 1513.66 Z" fill="#000000" fill-rule="nonzero" fill-opacity="1" /><path clip-path="url(#clip780)" d="M1494.14 1517.37 Q1490.53 1517.37 1488.7 1520.93 Q1486.89 1524.47 1486.89 1531.6 Q1486.89 1538.71 1488.7 1542.27 Q1490.53 1545.82 1494.14 1545.82 Q1497.77 1545.82 1499.58 1542.27 Q1501.41 1538.71 1501.41 1531.6 Q1501.41 1524.47 1499.58 1520.93 Q1497.77 1517.37 1494.14 1517.37 M1494.14 1513.66 Q1499.95 1513.66 1503.01 1518.27 Q1506.08 1522.85 1506.08 1531.6 Q1506.08 1540.33 1503.01 1544.94 Q1499.95 1549.52 1494.14 1549.52 Q1488.33 1549.52 1485.25 1544.94 Q1482.2 1540.33 1482.2 1531.6 Q1482.2 1522.85 1485.25 1518.27 Q1488.33 1513.66 1494.14 1513.66 Z" fill="#000000" fill-rule="nonzero" fill-opacity="1" /><path clip-path="url(#clip780)" d="M1948.77 1517.37 Q1945.15 1517.37 1943.33 1520.93 Q1941.52 1524.47 1941.52 1531.6 Q1941.52 1538.71 1943.33 1542.27 Q1945.15 1545.82 1948.77 1545.82 Q1952.4 1545.82 1954.2 1542.27 Q1956.03 1538.71 1956.03 1531.6 Q1956.03 1524.47 1954.2 1520.93 Q1952.4 1517.37 1948.77 1517.37 M1948.77 1513.66 Q1954.58 1513.66 1957.63 1518.27 Q1960.71 1522.85 1960.71 1531.6 Q1960.71 1540.33 1957.63 1544.94 Q1954.58 1549.52 1948.77 1549.52 Q1942.96 1549.52 1939.88 1544.94 Q1936.82 1540.33 1936.82 1531.6 Q1936.82 1522.85 1939.88 1518.27 Q1942.96 1513.66 1948.77 1513.66 Z" fill="#000000" fill-rule="nonzero" fill-opacity="1" /><path clip-path="url(#clip780)" d="M1968.93 1542.97 L1973.81 1542.97 L1973.81 1548.85 L1968.93 1548.85 L1968.93 1542.97 Z" fill="#000000" fill-rule="nonzero" fill-opacity="1" /><path clip-path="url(#clip780)" d="M1988.02 1544.91 L2004.34 1544.91 L2004.34 1548.85 L1982.4 1548.85 L1982.4 1544.91 Q1985.06 1542.16 1989.64 1537.53 Q1994.25 1532.88 1995.43 1531.53 Q1997.68 1529.01 1998.56 1527.27 Q1999.46 1525.51 1999.46 1523.82 Q1999.46 1521.07 1997.51 1519.33 Q1995.59 1517.6 1992.49 1517.6 Q1990.29 1517.6 1987.84 1518.36 Q1985.41 1519.13 1982.63 1520.68 L1982.63 1515.95 Q1985.45 1514.82 1987.91 1514.24 Q1990.36 1513.66 1992.4 1513.66 Q1997.77 1513.66 2000.96 1516.35 Q2004.16 1519.03 2004.16 1523.52 Q2004.16 1525.65 2003.35 1527.57 Q2002.56 1529.47 2000.45 1532.07 Q1999.88 1532.74 1996.77 1535.95 Q1993.67 1539.15 1988.02 1544.91 Z" fill="#000000" fill-rule="nonzero" fill-opacity="1" /><path clip-path="url(#clip780)" d="M2014.2 1514.29 L2032.56 1514.29 L2032.56 1518.22 L2018.49 1518.22 L2018.49 1526.7 Q2019.51 1526.35 2020.52 1526.19 Q2021.54 1526 2022.56 1526 Q2028.35 1526 2031.73 1529.17 Q2035.11 1532.34 2035.11 1537.76 Q2035.11 1543.34 2031.64 1546.44 Q2028.16 1549.52 2021.84 1549.52 Q2019.67 1549.52 2017.4 1549.15 Q2015.15 1548.78 2012.75 1548.04 L2012.75 1543.34 Q2014.83 1544.47 2017.05 1545.03 Q2019.27 1545.58 2021.75 1545.58 Q2025.76 1545.58 2028.09 1543.48 Q2030.43 1541.37 2030.43 1537.76 Q2030.43 1534.15 2028.09 1532.04 Q2025.76 1529.94 2021.75 1529.94 Q2019.88 1529.94 2018 1530.35 Q2016.15 1530.77 2014.2 1531.65 L2014.2 1514.29 Z" fill="#000000" fill-rule="nonzero" fill-opacity="1" /><polyline clip-path="url(#clip780)" style="stroke:#000000; stroke-linecap:round; stroke-linejoin:round; stroke-width:4; stroke-opacity:1; fill:none" points="156.598,1486.45 156.598,47.2441 "/>
<polyline clip-path="url(#clip780)" style="stroke:#000000; stroke-linecap:round; stroke-linejoin:round; stroke-width:4; stroke-opacity:1; fill:none" points="156.598,1448.74 175.496,1448.74 "/>
<polyline clip-path="url(#clip780)" style="stroke:#000000; stroke-linecap:round; stroke-linejoin:round; stroke-width:4; stroke-opacity:1; fill:none" points="156.598,1208.7 175.496,1208.7 "/>
<polyline clip-path="url(#clip780)" style="stroke:#000000; stroke-linecap:round; stroke-linejoin:round; stroke-width:4; stroke-opacity:1; fill:none" points="156.598,968.648 175.496,968.648 "/>
<polyline clip-path="url(#clip780)" style="stroke:#000000; stroke-linecap:round; stroke-linejoin:round; stroke-width:4; stroke-opacity:1; fill:none" points="156.598,728.6 175.496,728.6 "/>
<polyline clip-path="url(#clip780)" style="stroke:#000000; stroke-linecap:round; stroke-linejoin:round; stroke-width:4; stroke-opacity:1; fill:none" points="156.598,488.552 175.496,488.552 "/>
<polyline clip-path="url(#clip780)" style="stroke:#000000; stroke-linecap:round; stroke-linejoin:round; stroke-width:4; stroke-opacity:1; fill:none" points="156.598,248.503 175.496,248.503 "/>
<path clip-path="url(#clip780)" d="M63.4226 1434.54 Q59.8115 1434.54 57.9828 1438.11 Q56.1773 1441.65 56.1773 1448.78 Q56.1773 1455.89 57.9828 1459.45 Q59.8115 1462.99 63.4226 1462.99 Q67.0569 1462.99 68.8624 1459.45 Q70.6911 1455.89 70.6911 1448.78 Q70.6911 1441.65 68.8624 1438.11 Q67.0569 1434.54 63.4226 1434.54 M63.4226 1430.84 Q69.2328 1430.84 72.2883 1435.45 Q75.367 1440.03 75.367 1448.78 Q75.367 1457.51 72.2883 1462.11 Q69.2328 1466.7 63.4226 1466.7 Q57.6125 1466.7 54.5338 1462.11 Q51.4782 1457.51 51.4782 1448.78 Q51.4782 1440.03 54.5338 1435.45 Q57.6125 1430.84 63.4226 1430.84 Z" fill="#000000" fill-rule="nonzero" fill-opacity="1" /><path clip-path="url(#clip780)" d="M83.5845 1460.14 L88.4688 1460.14 L88.4688 1466.02 L83.5845 1466.02 L83.5845 1460.14 Z" fill="#000000" fill-rule="nonzero" fill-opacity="1" /><path clip-path="url(#clip780)" d="M108.654 1434.54 Q105.043 1434.54 103.214 1438.11 Q101.409 1441.65 101.409 1448.78 Q101.409 1455.89 103.214 1459.45 Q105.043 1462.99 108.654 1462.99 Q112.288 1462.99 114.094 1459.45 Q115.922 1455.89 115.922 1448.78 Q115.922 1441.65 114.094 1438.11 Q112.288 1434.54 108.654 1434.54 M108.654 1430.84 Q114.464 1430.84 117.52 1435.45 Q120.598 1440.03 120.598 1448.78 Q120.598 1457.51 117.52 1462.11 Q114.464 1466.7 108.654 1466.7 Q102.844 1466.7 99.765 1462.11 Q96.7095 1457.51 96.7095 1448.78 Q96.7095 1440.03 99.765 1435.45 Q102.844 1430.84 108.654 1430.84 Z" fill="#000000" fill-rule="nonzero" fill-opacity="1" /><path clip-path="url(#clip780)" d="M64.6495 1194.49 Q61.0384 1194.49 59.2097 1198.06 Q57.4041 1201.6 57.4041 1208.73 Q57.4041 1215.84 59.2097 1219.4 Q61.0384 1222.94 64.6495 1222.94 Q68.2837 1222.94 70.0892 1219.4 Q71.9179 1215.84 71.9179 1208.73 Q71.9179 1201.6 70.0892 1198.06 Q68.2837 1194.49 64.6495 1194.49 M64.6495 1190.79 Q70.4596 1190.79 73.5152 1195.4 Q76.5938 1199.98 76.5938 1208.73 Q76.5938 1217.46 73.5152 1222.06 Q70.4596 1226.65 64.6495 1226.65 Q58.8393 1226.65 55.7606 1222.06 Q52.7051 1217.46 52.7051 1208.73 Q52.7051 1199.98 55.7606 1195.4 Q58.8393 1190.79 64.6495 1190.79 Z" fill="#000000" fill-rule="nonzero" fill-opacity="1" /><path clip-path="url(#clip780)" d="M84.8114 1220.1 L89.6956 1220.1 L89.6956 1225.98 L84.8114 1225.98 L84.8114 1220.1 Z" fill="#000000" fill-rule="nonzero" fill-opacity="1" /><path clip-path="url(#clip780)" d="M100.691 1222.04 L108.33 1222.04 L108.33 1195.68 L100.02 1197.34 L100.02 1193.08 L108.283 1191.42 L112.959 1191.42 L112.959 1222.04 L120.598 1222.04 L120.598 1225.98 L100.691 1225.98 L100.691 1222.04 Z" fill="#000000" fill-rule="nonzero" fill-opacity="1" /><path clip-path="url(#clip780)" d="M65.0198 954.447 Q61.4087 954.447 59.58 958.011 Q57.7745 961.553 57.7745 968.683 Q57.7745 975.789 59.58 979.354 Q61.4087 982.895 65.0198 982.895 Q68.6541 982.895 70.4596 979.354 Q72.2883 975.789 72.2883 968.683 Q72.2883 961.553 70.4596 958.011 Q68.6541 954.447 65.0198 954.447 M65.0198 950.743 Q70.83 950.743 73.8855 955.349 Q76.9642 959.933 76.9642 968.683 Q76.9642 977.409 73.8855 982.016 Q70.83 986.599 65.0198 986.599 Q59.2097 986.599 56.131 982.016 Q53.0754 977.409 53.0754 968.683 Q53.0754 959.933 56.131 955.349 Q59.2097 950.743 65.0198 950.743 Z" fill="#000000" fill-rule="nonzero" fill-opacity="1" /><path clip-path="url(#clip780)" d="M85.1818 980.048 L90.066 980.048 L90.066 985.928 L85.1818 985.928 L85.1818 980.048 Z" fill="#000000" fill-rule="nonzero" fill-opacity="1" /><path clip-path="url(#clip780)" d="M104.279 981.993 L120.598 981.993 L120.598 985.928 L98.6539 985.928 L98.6539 981.993 Q101.316 979.238 105.899 974.608 Q110.506 969.956 111.686 968.613 Q113.932 966.09 114.811 964.354 Q115.714 962.595 115.714 960.905 Q115.714 958.15 113.77 956.414 Q111.848 954.678 108.746 954.678 Q106.547 954.678 104.094 955.442 Q101.663 956.206 98.8854 957.757 L98.8854 953.035 Q101.709 951.9 104.163 951.322 Q106.617 950.743 108.654 950.743 Q114.024 950.743 117.219 953.428 Q120.413 956.113 120.413 960.604 Q120.413 962.734 119.603 964.655 Q118.816 966.553 116.709 969.146 Q116.131 969.817 113.029 973.034 Q109.927 976.229 104.279 981.993 Z" fill="#000000" fill-rule="nonzero" fill-opacity="1" /><path clip-path="url(#clip780)" d="M64.0708 714.398 Q60.4597 714.398 58.631 717.963 Q56.8254 721.505 56.8254 728.634 Q56.8254 735.741 58.631 739.306 Q60.4597 742.847 64.0708 742.847 Q67.705 742.847 69.5105 739.306 Q71.3392 735.741 71.3392 728.634 Q71.3392 721.505 69.5105 717.963 Q67.705 714.398 64.0708 714.398 M64.0708 710.695 Q69.8809 710.695 72.9365 715.301 Q76.0151 719.884 76.0151 728.634 Q76.0151 737.361 72.9365 741.968 Q69.8809 746.551 64.0708 746.551 Q58.2606 746.551 55.1819 741.968 Q52.1264 737.361 52.1264 728.634 Q52.1264 719.884 55.1819 715.301 Q58.2606 710.695 64.0708 710.695 Z" fill="#000000" fill-rule="nonzero" fill-opacity="1" /><path clip-path="url(#clip780)" d="M84.2327 740 L89.1169 740 L89.1169 745.88 L84.2327 745.88 L84.2327 740 Z" fill="#000000" fill-rule="nonzero" fill-opacity="1" /><path clip-path="url(#clip780)" d="M113.469 727.246 Q116.825 727.963 118.7 730.232 Q120.598 732.5 120.598 735.833 Q120.598 740.949 117.08 743.75 Q113.561 746.551 107.08 746.551 Q104.904 746.551 102.589 746.111 Q100.297 745.695 97.8437 744.838 L97.8437 740.324 Q99.7882 741.458 102.103 742.037 Q104.418 742.616 106.941 742.616 Q111.339 742.616 113.631 740.88 Q115.945 739.144 115.945 735.833 Q115.945 732.778 113.793 731.065 Q111.663 729.329 107.844 729.329 L103.816 729.329 L103.816 725.486 L108.029 725.486 Q111.478 725.486 113.307 724.121 Q115.135 722.732 115.135 720.139 Q115.135 717.477 113.237 716.065 Q111.362 714.63 107.844 714.63 Q105.922 714.63 103.723 715.047 Q101.524 715.463 98.8854 716.343 L98.8854 712.176 Q101.547 711.435 103.862 711.065 Q106.2 710.695 108.26 710.695 Q113.584 710.695 116.686 713.125 Q119.788 715.533 119.788 719.653 Q119.788 722.523 118.145 724.514 Q116.501 726.482 113.469 727.246 Z" fill="#000000" fill-rule="nonzero" fill-opacity="1" /><path clip-path="url(#clip780)" d="M62.9365 474.35 Q59.3254 474.35 57.4967 477.915 Q55.6912 481.457 55.6912 488.586 Q55.6912 495.693 57.4967 499.258 Q59.3254 502.799 62.9365 502.799 Q66.5707 502.799 68.3763 499.258 Q70.205 495.693 70.205 488.586 Q70.205 481.457 68.3763 477.915 Q66.5707 474.35 62.9365 474.35 M62.9365 470.647 Q68.7467 470.647 71.8022 475.253 Q74.8809 479.836 74.8809 488.586 Q74.8809 497.313 71.8022 501.92 Q68.7467 506.503 62.9365 506.503 Q57.1264 506.503 54.0477 501.92 Q50.9921 497.313 50.9921 488.586 Q50.9921 479.836 54.0477 475.253 Q57.1264 470.647 62.9365 470.647 Z" fill="#000000" fill-rule="nonzero" fill-opacity="1" /><path clip-path="url(#clip780)" d="M83.0984 499.952 L87.9827 499.952 L87.9827 505.832 L83.0984 505.832 L83.0984 499.952 Z" fill="#000000" fill-rule="nonzero" fill-opacity="1" /><path clip-path="url(#clip780)" d="M111.015 475.346 L99.2095 493.795 L111.015 493.795 L111.015 475.346 M109.788 471.272 L115.668 471.272 L115.668 493.795 L120.598 493.795 L120.598 497.683 L115.668 497.683 L115.668 505.832 L111.015 505.832 L111.015 497.683 L95.4132 497.683 L95.4132 493.17 L109.788 471.272 Z" fill="#000000" fill-rule="nonzero" fill-opacity="1" /><path clip-path="url(#clip780)" d="M64.418 234.302 Q60.8069 234.302 58.9782 237.867 Q57.1726 241.409 57.1726 248.538 Q57.1726 255.645 58.9782 259.209 Q60.8069 262.751 64.418 262.751 Q68.0522 262.751 69.8578 259.209 Q71.6865 255.645 71.6865 248.538 Q71.6865 241.409 69.8578 237.867 Q68.0522 234.302 64.418 234.302 M64.418 230.598 Q70.2281 230.598 73.2837 235.205 Q76.3624 239.788 76.3624 248.538 Q76.3624 257.265 73.2837 261.871 Q70.2281 266.455 64.418 266.455 Q58.6078 266.455 55.5291 261.871 Q52.4736 257.265 52.4736 248.538 Q52.4736 239.788 55.5291 235.205 Q58.6078 230.598 64.418 230.598 Z" fill="#000000" fill-rule="nonzero" fill-opacity="1" /><path clip-path="url(#clip780)" d="M84.5799 259.904 L89.4641 259.904 L89.4641 265.783 L84.5799 265.783 L84.5799 259.904 Z" fill="#000000" fill-rule="nonzero" fill-opacity="1" /><path clip-path="url(#clip780)" d="M99.6956 231.223 L118.052 231.223 L118.052 235.159 L103.978 235.159 L103.978 243.631 Q104.996 243.284 106.015 243.122 Q107.033 242.936 108.052 242.936 Q113.839 242.936 117.219 246.108 Q120.598 249.279 120.598 254.696 Q120.598 260.274 117.126 263.376 Q113.654 266.455 107.334 266.455 Q105.159 266.455 102.89 266.084 Q100.645 265.714 98.2372 264.973 L98.2372 260.274 Q100.321 261.408 102.543 261.964 Q104.765 262.52 107.242 262.52 Q111.246 262.52 113.584 260.413 Q115.922 258.307 115.922 254.696 Q115.922 251.084 113.584 248.978 Q111.246 246.871 107.242 246.871 Q105.367 246.871 103.492 247.288 Q101.64 247.705 99.6956 248.584 L99.6956 231.223 Z" fill="#000000" fill-rule="nonzero" fill-opacity="1" /><circle clip-path="url(#clip781)" cx="1505.52" cy="1268.71" r="14.4" fill="#808080" fill-rule="evenodd" fill-opacity="1" stroke="#000000" stroke-opacity="1" stroke-width="3.2"/>
<circle clip-path="url(#clip781)" cx="1439.31" cy="1445.72" r="14.4" fill="#808080" fill-rule="evenodd" fill-opacity="1" stroke="#000000" stroke-opacity="1" stroke-width="3.2"/>
<circle clip-path="url(#clip781)" cx="2290.6" cy="1314.67" r="14.4" fill="#808080" fill-rule="evenodd" fill-opacity="1" stroke="#000000" stroke-opacity="1" stroke-width="3.2"/>
<circle clip-path="url(#clip781)" cx="218.754" cy="87.9763" r="14.4" fill="#808080" fill-rule="evenodd" fill-opacity="1" stroke="#000000" stroke-opacity="1" stroke-width="3.2"/>
<path clip-path="url(#clip780)" d="M1509.82 1276.14 Q1500.78 1276.14 1497.3 1278.21 Q1493.82 1280.27 1493.82 1285.26 Q1493.82 1289.23 1496.41 1291.58 Q1499.04 1293.88 1503.54 1293.88 Q1509.74 1293.88 1513.46 1289.51 Q1517.23 1285.09 1517.23 1277.8 L1517.23 1276.14 L1509.82 1276.14 M1524.69 1273.06 L1524.69 1298.95 L1517.23 1298.95 L1517.23 1292.06 Q1514.68 1296.19 1510.87 1298.18 Q1507.06 1300.12 1501.55 1300.12 Q1494.59 1300.12 1490.46 1296.23 Q1486.36 1292.3 1486.36 1285.74 Q1486.36 1278.09 1491.47 1274.2 Q1496.61 1270.31 1506.78 1270.31 L1517.23 1270.31 L1517.23 1269.58 Q1517.23 1264.43 1513.83 1261.64 Q1510.47 1258.8 1504.35 1258.8 Q1500.46 1258.8 1496.77 1259.74 Q1493.09 1260.67 1489.69 1262.53 L1489.69 1255.64 Q1493.78 1254.06 1497.63 1253.29 Q1501.47 1252.48 1505.12 1252.48 Q1514.96 1252.48 1519.82 1257.59 Q1524.69 1262.69 1524.69 1273.06 Z" fill="#000000" fill-rule="nonzero" fill-opacity="1" /><path clip-path="url(#clip780)" d="M1451.86 1453.31 Q1451.86 1445.09 1448.46 1440.43 Q1445.1 1435.73 1439.18 1435.73 Q1433.27 1435.73 1429.87 1440.43 Q1426.51 1445.09 1426.51 1453.31 Q1426.51 1461.53 1429.87 1466.23 Q1433.27 1470.89 1439.18 1470.89 Q1445.1 1470.89 1448.46 1466.23 Q1451.86 1461.53 1451.86 1453.31 M1426.51 1437.47 Q1428.86 1433.42 1432.42 1431.48 Q1436.03 1429.49 1441.01 1429.49 Q1449.27 1429.49 1454.42 1436.05 Q1459.6 1442.62 1459.6 1453.31 Q1459.6 1464.01 1454.42 1470.57 Q1449.27 1477.13 1441.01 1477.13 Q1436.03 1477.13 1432.42 1475.19 Q1428.86 1473.2 1426.51 1469.15 L1426.51 1475.96 L1419.01 1475.96 L1419.01 1412.92 L1426.51 1412.92 L1426.51 1437.47 Z" fill="#000000" fill-rule="nonzero" fill-opacity="1" /><path clip-path="url(#clip780)" d="M2308.55 1301.28 L2308.55 1308.25 Q2305.39 1306.51 2302.19 1305.66 Q2299.03 1304.77 2295.79 1304.77 Q2288.53 1304.77 2284.52 1309.38 Q2280.51 1313.96 2280.51 1322.27 Q2280.51 1330.57 2284.52 1335.19 Q2288.53 1339.77 2295.79 1339.77 Q2299.03 1339.77 2302.19 1338.91 Q2305.39 1338.02 2308.55 1336.28 L2308.55 1343.17 Q2305.43 1344.63 2302.06 1345.36 Q2298.74 1346.08 2294.98 1346.08 Q2284.73 1346.08 2278.69 1339.64 Q2272.65 1333.2 2272.65 1322.27 Q2272.65 1311.17 2278.73 1304.81 Q2284.85 1298.45 2295.46 1298.45 Q2298.9 1298.45 2302.19 1299.18 Q2305.47 1299.86 2308.55 1301.28 Z" fill="#000000" fill-rule="nonzero" fill-opacity="1" /><path clip-path="url(#clip780)" d="M231.575 79.7327 L231.575 55.1842 L239.028 55.1842 L239.028 118.216 L231.575 118.216 L231.575 111.411 Q229.225 115.462 225.62 117.447 Q222.055 119.391 217.032 119.391 Q208.809 119.391 203.624 112.829 Q198.479 106.266 198.479 95.5717 Q198.479 84.8773 203.624 78.3149 Q208.809 71.7524 217.032 71.7524 Q222.055 71.7524 225.62 73.7373 Q229.225 75.6818 231.575 79.7327 M206.176 95.5717 Q206.176 103.795 209.538 108.494 Q212.941 113.153 218.855 113.153 Q224.769 113.153 228.172 108.494 Q231.575 103.795 231.575 95.5717 Q231.575 87.3484 228.172 82.6898 Q224.769 77.9908 218.855 77.9908 Q212.941 77.9908 209.538 82.6898 Q206.176 87.3484 206.176 95.5717 Z" fill="#000000" fill-rule="nonzero" fill-opacity="1" /><path clip-path="url(#clip780)" d="M2007.5 198.898 L2279.55 198.898 L2279.55 95.2176 L2007.5 95.2176  Z" fill="#ffffff" fill-rule="evenodd" fill-opacity="1"/>
<polyline clip-path="url(#clip780)" style="stroke:#000000; stroke-linecap:round; stroke-linejoin:round; stroke-width:4; stroke-opacity:1; fill:none" points="2007.5,198.898 2279.55,198.898 2279.55,95.2176 2007.5,95.2176 2007.5,198.898 "/>
<circle clip-path="url(#clip780)" cx="2105.11" cy="147.058" r="20.48" fill="#808080" fill-rule="evenodd" fill-opacity="1" stroke="#000000" stroke-opacity="1" stroke-width="4.55111"/>
<path clip-path="url(#clip780)" d="M2216.56 166.745 Q2214.76 171.375 2213.04 172.787 Q2211.33 174.199 2208.46 174.199 L2205.06 174.199 L2205.06 170.634 L2207.56 170.634 Q2209.32 170.634 2210.29 169.8 Q2211.26 168.967 2212.44 165.865 L2213.2 163.921 L2202.72 138.412 L2207.23 138.412 L2215.33 158.689 L2223.44 138.412 L2227.95 138.412 L2216.56 166.745 Z" fill="#000000" fill-rule="nonzero" fill-opacity="1" /><path clip-path="url(#clip780)" d="M2235.24 160.402 L2242.88 160.402 L2242.88 134.037 L2234.57 135.703 L2234.57 131.444 L2242.83 129.778 L2247.51 129.778 L2247.51 160.402 L2255.15 160.402 L2255.15 164.338 L2235.24 164.338 L2235.24 160.402 Z" fill="#000000" fill-rule="nonzero" fill-opacity="1" /></svg>
