<?xml version="1.0" encoding="utf-8"?>
<svg xmlns="http://www.w3.org/2000/svg" xmlns:xlink="http://www.w3.org/1999/xlink" width="600" height="400" viewBox="0 0 2400 1600">
<defs>
  <clipPath id="clip810">
    <rect x="0" y="0" width="2400" height="1600"/>
  </clipPath>
</defs>
<path clip-path="url(#clip810)" d="M0 1600 L2400 1600 L2400 0 L0 0  Z" fill="#ffffff" fill-rule="evenodd" fill-opacity="1"/>
<defs>
  <clipPath id="clip811">
    <rect x="112" y="47" width="2242" height="1440"/>
  </clipPath>
</defs>
<path clip-path="url(#clip810)" d="M112.177 1486.45 L2352.76 1486.45 L2352.76 47.2441 L112.177 47.2441  Z" fill="#ffffff" fill-rule="evenodd" fill-opacity="1"/>
<polyline clip-path="url(#clip811)" style="stroke:#000000; stroke-linecap:round; stroke-linejoin:round; stroke-width:2; stroke-opacity:0.1; fill:none" points="388.595,1486.45 388.595,47.2441 "/>
<polyline clip-path="url(#clip811)" style="stroke:#000000; stroke-linecap:round; stroke-linejoin:round; stroke-width:2; stroke-opacity:0.1; fill:none" points="955.997,1486.45 955.997,47.2441 "/>
<polyline clip-path="url(#clip811)" style="stroke:#000000; stroke-linecap:round; stroke-linejoin:round; stroke-width:2; stroke-opacity:0.1; fill:none" points="1523.4,1486.45 1523.4,47.2441 "/>
<polyline clip-path="url(#clip811)" style="stroke:#000000; stroke-linecap:round; stroke-linejoin:round; stroke-width:2; stroke-opacity:0.1; fill:none" points="2090.8,1486.45 2090.8,47.2441 "/>
<polyline clip-path="url(#clip811)" style="stroke:#000000; stroke-linecap:round; stroke-linejoin:round; stroke-width:2; stroke-opacity:0.1; fill:none" points="112.177,1216.11 2352.76,1216.11 "/>
<polyline clip-path="url(#clip811)" style="stroke:#000000; stroke-linecap:round; stroke-linejoin:round; stroke-width:2; stroke-opacity:0.1; fill:none" points="112.177,932.887 2352.76,932.887 "/>
<polyline clip-path="url(#clip811)" style="stroke:#000000; stroke-linecap:round; stroke-linejoin:round; stroke-width:2; stroke-opacity:0.1; fill:none" points="112.177,649.666 2352.76,649.666 "/>
<polyline clip-path="url(#clip811)" style="stroke:#000000; stroke-linecap:round; stroke-linejoin:round; stroke-width:2; stroke-opacity:0.1; fill:none" points="112.177,366.446 2352.76,366.446 "/>
<polyline clip-path="url(#clip811)" style="stroke:#000000; stroke-linecap:round; stroke-linejoin:round; stroke-width:2; stroke-opacity:0.1; fill:none" points="112.177,83.2254 2352.76,83.2254 "/>
<polyline clip-path="url(#clip810)" style="stroke:#000000; stroke-linecap:round; stroke-linejoin:round; stroke-width:4; stroke-opacity:1; fill:none" points="112.177,1486.45 2352.76,1486.45 "/>
<polyline clip-path="url(#clip810)" style="stroke:#000000; stroke-linecap:round; stroke-linejoin:round; stroke-width:4; stroke-opacity:1; fill:none" points="388.595,1486.45 388.595,1467.55 "/>
<polyline clip-path="url(#clip810)" style="stroke:#000000; stroke-linecap:round; stroke-linejoin:round; stroke-width:4; stroke-opacity:1; fill:none" points="955.997,1486.45 955.997,1467.55 "/>
<polyline clip-path="url(#clip810)" style="stroke:#000000; stroke-linecap:round; stroke-linejoin:round; stroke-width:4; stroke-opacity:1; fill:none" points="1523.4,1486.45 1523.4,1467.55 "/>
<polyline clip-path="url(#clip810)" style="stroke:#000000; stroke-linecap:round; stroke-linejoin:round; stroke-width:4; stroke-opacity:1; fill:none" points="2090.8,1486.45 2090.8,1467.55 "/>
<path clip-path="url(#clip810)" d="M335.123 1532.02 L364.799 1532.02 L364.799 1535.95 L335.123 1535.95 L335.123 1532.02 Z" fill="#000000" fill-rule="nonzero" fill-opacity="1" /><path clip-path="url(#clip810)" d="M375.701 1544.91 L383.34 1544.91 L383.34 1518.55 L375.03 1520.21 L375.03 1515.95 L383.294 1514.29 L387.97 1514.29 L387.97 1544.91 L395.609 1544.91 L395.609 1548.85 L375.701 1548.85 L375.701 1544.91 Z" fill="#000000" fill-rule="nonzero" fill-opacity="1" /><path clip-path="url(#clip810)" d="M405.053 1542.97 L409.937 1542.97 L409.937 1548.85 L405.053 1548.85 L405.053 1542.97 Z" fill="#000000" fill-rule="nonzero" fill-opacity="1" /><path clip-path="url(#clip810)" d="M430.122 1517.37 Q426.511 1517.37 424.683 1520.93 Q422.877 1524.47 422.877 1531.6 Q422.877 1538.71 424.683 1542.27 Q426.511 1545.82 430.122 1545.82 Q433.757 1545.82 435.562 1542.27 Q437.391 1538.71 437.391 1531.6 Q437.391 1524.47 435.562 1520.93 Q433.757 1517.37 430.122 1517.37 M430.122 1513.66 Q435.933 1513.66 438.988 1518.27 Q442.067 1522.85 442.067 1531.6 Q442.067 1540.33 438.988 1544.94 Q435.933 1549.52 430.122 1549.52 Q424.312 1549.52 421.234 1544.94 Q418.178 1540.33 418.178 1531.6 Q418.178 1522.85 421.234 1518.27 Q424.312 1513.66 430.122 1513.66 Z" fill="#000000" fill-rule="nonzero" fill-opacity="1" /><path clip-path="url(#clip810)" d="M903.022 1532.02 L932.698 1532.02 L932.698 1535.95 L903.022 1535.95 L903.022 1532.02 Z" fill="#000000" fill-rule="nonzero" fill-opacity="1" /><path clip-path="url(#clip810)" d="M952.791 1517.37 Q949.18 1517.37 947.351 1520.93 Q945.545 1524.47 945.545 1531.6 Q945.545 1538.71 947.351 1542.27 Q949.18 1545.82 952.791 1545.82 Q956.425 1545.82 958.23 1542.27 Q960.059 1538.71 960.059 1531.6 Q960.059 1524.47 958.23 1520.93 Q956.425 1517.37 952.791 1517.37 M952.791 1513.66 Q958.601 1513.66 961.656 1518.27 Q964.735 1522.85 964.735 1531.6 Q964.735 1540.33 961.656 1544.94 Q958.601 1549.52 952.791 1549.52 Q946.981 1549.52 943.902 1544.94 Q940.846 1540.33 940.846 1531.6 Q940.846 1522.85 943.902 1518.27 Q946.981 1513.66 952.791 1513.66 Z" fill="#000000" fill-rule="nonzero" fill-opacity="1" /><path clip-path="url(#clip810)" d="M972.953 1542.97 L977.837 1542.97 L977.837 1548.85 L972.953 1548.85 L972.953 1542.97 Z" fill="#000000" fill-rule="nonzero" fill-opacity="1" /><path clip-path="url(#clip810)" d="M988.068 1514.29 L1006.42 1514.29 L1006.42 1518.22 L992.351 1518.22 L992.351 1526.7 Q993.369 1526.35 994.388 1526.19 Q995.406 1526 996.425 1526 Q1002.21 1526 1005.59 1529.17 Q1008.97 1532.34 1008.97 1537.76 Q1008.97 1543.34 1005.5 1546.44 Q1002.03 1549.52 995.707 1549.52 Q993.531 1549.52 991.263 1549.15 Q989.017 1548.78 986.61 1548.04 L986.61 1543.34 Q988.693 1544.47 990.915 1545.03 Q993.138 1545.58 995.615 1545.58 Q999.619 1545.58 1001.96 1543.48 Q1004.3 1541.37 1004.3 1537.76 Q1004.3 1534.15 1001.96 1532.04 Q999.619 1529.94 995.615 1529.94 Q993.74 1529.94 991.865 1530.35 Q990.013 1530.77 988.068 1531.65 L988.068 1514.29 Z" fill="#000000" fill-rule="nonzero" fill-opacity="1" /><path clip-path="url(#clip810)" d="M1500.78 1517.37 Q1497.17 1517.37 1495.34 1520.93 Q1493.54 1524.47 1493.54 1531.6 Q1493.54 1538.71 1495.34 1542.27 Q1497.17 1545.82 1500.78 1545.82 Q1504.42 1545.82 1506.22 1542.27 Q1508.05 1538.71 1508.05 1531.6 Q1508.05 1524.47 1506.22 1520.93 Q1504.42 1517.37 1500.78 1517.37 M1500.78 1513.66 Q1506.59 1513.66 1509.65 1518.27 Q1512.73 1522.85 1512.73 1531.6 Q1512.73 1540.33 1509.65 1544.94 Q1506.59 1549.52 1500.78 1549.52 Q1494.97 1549.52 1491.89 1544.94 Q1488.84 1540.33 1488.84 1531.6 Q1488.84 1522.85 1491.89 1518.27 Q1494.97 1513.66 1500.78 1513.66 Z" fill="#000000" fill-rule="nonzero" fill-opacity="1" /><path clip-path="url(#clip810)" d="M1520.94 1542.97 L1525.83 1542.97 L1525.83 1548.85 L1520.94 1548.85 L1520.94 1542.97 Z" fill="#000000" fill-rule="nonzero" fill-opacity="1" /><path clip-path="url(#clip810)" d="M1546.01 1517.37 Q1542.4 1517.37 1540.57 1520.93 Q1538.77 1524.47 1538.77 1531.6 Q1538.77 1538.71 1540.57 1542.27 Q1542.4 1545.82 1546.01 1545.82 Q1549.65 1545.82 1551.45 1542.27 Q1553.28 1538.71 1553.28 1531.6 Q1553.28 1524.47 1551.45 1520.93 Q1549.65 1517.37 1546.01 1517.37 M1546.01 1513.66 Q1551.82 1513.66 1554.88 1518.27 Q1557.96 1522.85 1557.96 1531.6 Q1557.96 1540.33 1554.88 1544.94 Q1551.82 1549.52 1546.01 1549.52 Q1540.2 1549.52 1537.13 1544.94 Q1534.07 1540.33 1534.07 1531.6 Q1534.07 1522.85 1537.13 1518.27 Q1540.2 1513.66 1546.01 1513.66 Z" fill="#000000" fill-rule="nonzero" fill-opacity="1" /><path clip-path="url(#clip810)" d="M2068.68 1517.37 Q2065.07 1517.37 2063.24 1520.93 Q2061.44 1524.47 2061.44 1531.6 Q2061.44 1538.71 2063.24 1542.27 Q2065.07 1545.82 2068.68 1545.82 Q2072.32 1545.82 2074.12 1542.27 Q2075.95 1538.71 2075.95 1531.6 Q2075.95 1524.47 2074.12 1520.93 Q2072.32 1517.37 2068.68 1517.37 M2068.68 1513.66 Q2074.49 1513.66 2077.55 1518.27 Q2080.63 1522.85 2080.63 1531.6 Q2080.63 1540.33 2077.55 1544.94 Q2074.49 1549.52 2068.68 1549.52 Q2062.87 1549.52 2059.79 1544.94 Q2056.74 1540.33 2056.74 1531.6 Q2056.74 1522.85 2059.79 1518.27 Q2062.87 1513.66 2068.68 1513.66 Z" fill="#000000" fill-rule="nonzero" fill-opacity="1" /><path clip-path="url(#clip810)" d="M2088.84 1542.97 L2093.73 1542.97 L2093.73 1548.85 L2088.84 1548.85 L2088.84 1542.97 Z" fill="#000000" fill-rule="nonzero" fill-opacity="1" /><path clip-path="url(#clip810)" d="M2103.96 1514.29 L2122.32 1514.29 L2122.32 1518.22 L2108.24 1518.22 L2108.24 1526.7 Q2109.26 1526.35 2110.28 1526.19 Q2111.3 1526 2112.32 1526 Q2118.1 1526 2121.48 1529.17 Q2124.86 1532.34 2124.86 1537.76 Q2124.86 1543.34 2121.39 1546.44 Q2117.92 1549.52 2111.6 1549.52 Q2109.42 1549.52 2107.15 1549.15 Q2104.91 1548.78 2102.5 1548.04 L2102.5 1543.34 Q2104.58 1544.47 2106.81 1545.03 Q2109.03 1545.58 2111.51 1545.58 Q2115.51 1545.58 2117.85 1543.48 Q2120.19 1541.37 2120.19 1537.76 Q2120.19 1534.15 2117.85 1532.04 Q2115.51 1529.94 2111.51 1529.94 Q2109.63 1529.94 2107.76 1530.35 Q2105.9 1530.77 2103.96 1531.65 L2103.96 1514.29 Z" fill="#000000" fill-rule="nonzero" fill-opacity="1" /><polyline clip-path="url(#clip810)" style="stroke:#000000; stroke-linecap:round; stroke-linejoin:round; stroke-width:4; stroke-opacity:1; fill:none" points="112.177,1486.45 112.177,47.2441 "/>
<polyline clip-path="url(#clip810)" style="stroke:#000000; stroke-linecap:round; stroke-linejoin:round; stroke-width:4; stroke-opacity:1; fill:none" points="112.177,1216.11 131.075,1216.11 "/>
<polyline clip-path="url(#clip810)" style="stroke:#000000; stroke-linecap:round; stroke-linejoin:round; stroke-width:4; stroke-opacity:1; fill:none" points="112.177,932.887 131.075,932.887 "/>
<polyline clip-path="url(#clip810)" style="stroke:#000000; stroke-linecap:round; stroke-linejoin:round; stroke-width:4; stroke-opacity:1; fill:none" points="112.177,649.666 131.075,649.666 "/>
<polyline clip-path="url(#clip810)" style="stroke:#000000; stroke-linecap:round; stroke-linejoin:round; stroke-width:4; stroke-opacity:1; fill:none" points="112.177,366.446 131.075,366.446 "/>
<polyline clip-path="url(#clip810)" style="stroke:#000000; stroke-linecap:round; stroke-linejoin:round; stroke-width:4; stroke-opacity:1; fill:none" points="112.177,83.2254 131.075,83.2254 "/>
<path clip-path="url(#clip810)" d="M56.2699 1229.45 L63.9087 1229.45 L63.9087 1203.09 L55.5986 1204.75 L55.5986 1200.49 L63.8624 1198.83 L68.5383 1198.83 L68.5383 1229.45 L76.1772 1229.45 L76.1772 1233.39 L56.2699 1233.39 L56.2699 1229.45 Z" fill="#000000" fill-rule="nonzero" fill-opacity="1" /><path clip-path="url(#clip810)" d="M59.8578 946.231 L76.1772 946.231 L76.1772 950.167 L54.2328 950.167 L54.2328 946.231 Q56.8949 943.477 61.4782 938.847 Q66.0846 934.194 67.2652 932.852 Q69.5105 930.329 70.3902 928.593 Q71.2929 926.833 71.2929 925.144 Q71.2929 922.389 69.3485 920.653 Q67.4272 918.917 64.3254 918.917 Q62.1263 918.917 59.6726 919.681 Q57.2421 920.444 54.4643 921.995 L54.4643 917.273 Q57.2884 916.139 59.7421 915.56 Q62.1958 914.982 64.2328 914.982 Q69.6031 914.982 72.7976 917.667 Q75.992 920.352 75.992 924.843 Q75.992 926.972 75.1818 928.893 Q74.3948 930.792 72.2883 933.384 Q71.7096 934.055 68.6078 937.273 Q65.5059 940.467 59.8578 946.231 Z" fill="#000000" fill-rule="nonzero" fill-opacity="1" /><path clip-path="url(#clip810)" d="M69.0476 648.312 Q72.404 649.03 74.279 651.298 Q76.1772 653.567 76.1772 656.9 Q76.1772 662.016 72.6587 664.817 Q69.1402 667.617 62.6587 667.617 Q60.4828 667.617 58.168 667.178 Q55.8764 666.761 53.4227 665.904 L53.4227 661.391 Q55.3671 662.525 57.6819 663.104 Q59.9967 663.682 62.5198 663.682 Q66.918 663.682 69.2096 661.946 Q71.5244 660.21 71.5244 656.9 Q71.5244 653.844 69.3717 652.131 Q67.242 650.395 63.4226 650.395 L59.3949 650.395 L59.3949 646.553 L63.6078 646.553 Q67.0569 646.553 68.8855 645.187 Q70.7142 643.798 70.7142 641.206 Q70.7142 638.544 68.8161 637.131 Q66.9411 635.696 63.4226 635.696 Q61.5013 635.696 59.3023 636.113 Q57.1032 636.53 54.4643 637.409 L54.4643 633.243 Q57.1264 632.502 59.4412 632.132 Q61.7791 631.761 63.8393 631.761 Q69.1633 631.761 72.2652 634.192 Q75.367 636.599 75.367 640.719 Q75.367 643.59 73.7235 645.581 Q72.08 647.548 69.0476 648.312 Z" fill="#000000" fill-rule="nonzero" fill-opacity="1" /><path clip-path="url(#clip810)" d="M66.5939 353.24 L54.7884 371.689 L66.5939 371.689 L66.5939 353.24 M65.367 349.166 L71.2466 349.166 L71.2466 371.689 L76.1772 371.689 L76.1772 375.578 L71.2466 375.578 L71.2466 383.726 L66.5939 383.726 L66.5939 375.578 L50.9921 375.578 L50.9921 371.064 L65.367 349.166 Z" fill="#000000" fill-rule="nonzero" fill-opacity="1" /><path clip-path="url(#clip810)" d="M55.2745 65.9454 L73.6309 65.9454 L73.6309 69.8806 L59.5569 69.8806 L59.5569 78.3527 Q60.5754 78.0055 61.5939 77.8435 Q62.6124 77.6583 63.6309 77.6583 Q69.418 77.6583 72.7976 80.8296 Q76.1772 84.0009 76.1772 89.4175 Q76.1772 94.9962 72.705 98.098 Q69.2328 101.177 62.9134 101.177 Q60.7374 101.177 58.4689 100.806 Q56.2236 100.436 53.8162 99.6952 L53.8162 94.9962 Q55.8995 96.1304 58.1217 96.686 Q60.3439 97.2415 62.8208 97.2415 Q66.8254 97.2415 69.1633 95.1351 Q71.5013 93.0286 71.5013 89.4175 Q71.5013 85.8064 69.1633 83.6999 Q66.8254 81.5935 62.8208 81.5935 Q60.9458 81.5935 59.0708 82.0101 Q57.2189 82.4268 55.2745 83.3064 L55.2745 65.9454 Z" fill="#000000" fill-rule="nonzero" fill-opacity="1" /><circle clip-path="url(#clip811)" cx="2289.34" cy="1347.41" r="14.4" fill="#808080" fill-rule="evenodd" fill-opacity="1" stroke="#000000" stroke-opacity="1" stroke-width="3.2"/>
<circle clip-path="url(#clip811)" cx="175.59" cy="87.9763" r="14.4" fill="#808080" fill-rule="evenodd" fill-opacity="1" stroke="#000000" stroke-opacity="1" stroke-width="3.2"/>
<circle clip-path="url(#clip811)" cx="1597.53" cy="1445.72" r="14.4" fill="#808080" fill-rule="evenodd" fill-opacity="1" stroke="#000000" stroke-opacity="1" stroke-width="3.2"/>
<circle clip-path="url(#clip811)" cx="1376.81" cy="1419.14" r="14.4" fill="#808080" fill-rule="evenodd" fill-opacity="1" stroke="#000000" stroke-opacity="1" stroke-width="3.2"/>
<path clip-path="url(#clip810)" d="M2293.64 1354.85 Q2284.6 1354.85 2281.12 1356.91 Q2277.64 1358.98 2277.64 1363.96 Q2277.64 1367.93 2280.23 1370.28 Q2282.86 1372.59 2287.36 1372.59 Q2293.56 1372.59 2297.28 1368.22 Q2301.05 1363.8 2301.05 1356.51 L2301.05 1354.85 L2293.64 1354.85 M2308.5 1351.77 L2308.5 1377.65 L2301.05 1377.65 L2301.05 1370.77 Q2298.5 1374.9 2294.69 1376.89 Q2290.88 1378.83 2285.37 1378.83 Q2278.41 1378.83 2274.27 1374.94 Q2270.18 1371.01 2270.18 1364.45 Q2270.18 1356.79 2275.29 1352.9 Q2280.43 1349.01 2290.6 1349.01 L2301.05 1349.01 L2301.05 1348.29 Q2301.05 1343.14 2297.65 1340.35 Q2294.29 1337.51 2288.17 1337.51 Q2284.28 1337.51 2280.59 1338.44 Q2276.91 1339.37 2273.5 1341.24 L2273.5 1334.35 Q2277.6 1332.77 2281.44 1332 Q2285.29 1331.19 2288.94 1331.19 Q2298.78 1331.19 2303.64 1336.3 Q2308.5 1341.4 2308.5 1351.77 Z" fill="#000000" fill-rule="nonzero" fill-opacity="1" /><path clip-path="url(#clip810)" d="M188.148 95.5717 Q188.148 87.3484 184.745 82.6898 Q181.383 77.9908 175.468 77.9908 Q169.554 77.9908 166.151 82.6898 Q162.789 87.3484 162.789 95.5717 Q162.789 103.795 166.151 108.494 Q169.554 113.153 175.468 113.153 Q181.383 113.153 184.745 108.494 Q188.148 103.795 188.148 95.5717 M162.789 79.7327 Q165.138 75.6818 168.703 73.7373 Q172.309 71.7524 177.291 71.7524 Q185.555 71.7524 190.7 78.3149 Q195.885 84.8773 195.885 95.5717 Q195.885 106.266 190.7 112.829 Q185.555 119.391 177.291 119.391 Q172.309 119.391 168.703 117.447 Q165.138 115.462 162.789 111.411 L162.789 118.216 L155.295 118.216 L155.295 55.1842 L162.789 55.1842 L162.789 79.7327 Z" fill="#000000" fill-rule="nonzero" fill-opacity="1" /><path clip-path="url(#clip810)" d="M1615.47 1432.33 L1615.47 1439.3 Q1612.31 1437.55 1609.11 1436.7 Q1605.95 1435.81 1602.71 1435.81 Q1595.46 1435.81 1591.45 1440.43 Q1587.44 1445.01 1587.44 1453.31 Q1587.44 1461.62 1591.45 1466.23 Q1595.46 1470.81 1602.71 1470.81 Q1605.95 1470.81 1609.11 1469.96 Q1612.31 1469.07 1615.47 1467.33 L1615.47 1474.21 Q1612.35 1475.67 1608.99 1476.4 Q1605.67 1477.13 1601.9 1477.13 Q1591.65 1477.13 1585.62 1470.69 Q1579.58 1464.25 1579.58 1453.31 Q1579.58 1442.21 1585.66 1435.85 Q1591.77 1429.49 1602.39 1429.49 Q1605.83 1429.49 1609.11 1430.22 Q1612.39 1430.91 1615.47 1432.33 Z" fill="#000000" fill-rule="nonzero" fill-opacity="1" /><path clip-path="url(#clip810)" d="M1389.63 1410.9 L1389.63 1386.35 L1397.08 1386.35 L1397.08 1449.38 L1389.63 1449.38 L1389.63 1442.58 Q1387.28 1446.63 1383.67 1448.61 Q1380.11 1450.56 1375.08 1450.56 Q1366.86 1450.56 1361.68 1443.99 Q1356.53 1437.43 1356.53 1426.74 Q1356.53 1416.04 1361.68 1409.48 Q1366.86 1402.92 1375.08 1402.92 Q1380.11 1402.92 1383.67 1404.9 Q1387.28 1406.85 1389.63 1410.9 M1364.23 1426.74 Q1364.23 1434.96 1367.59 1439.66 Q1370.99 1444.32 1376.91 1444.32 Q1382.82 1444.32 1386.22 1439.66 Q1389.63 1434.96 1389.63 1426.74 Q1389.63 1418.51 1386.22 1413.86 Q1382.82 1409.16 1376.91 1409.16 Q1370.99 1409.16 1367.59 1413.86 Q1364.23 1418.51 1364.23 1426.74 Z" fill="#000000" fill-rule="nonzero" fill-opacity="1" /><path clip-path="url(#clip810)" d="M2001.58 198.898 L2278.07 198.898 L2278.07 95.2176 L2001.58 95.2176  Z" fill="#ffffff" fill-rule="evenodd" fill-opacity="1"/>
<polyline clip-path="url(#clip810)" style="stroke:#000000; stroke-linecap:round; stroke-linejoin:round; stroke-width:4; stroke-opacity:1; fill:none" points="2001.58,198.898 2278.07,198.898 2278.07,95.2176 2001.58,95.2176 2001.58,198.898 "/>
<circle clip-path="url(#clip810)" cx="2101.16" cy="147.058" r="20.48" fill="#808080" fill-rule="evenodd" fill-opacity="1" stroke="#000000" stroke-opacity="1" stroke-width="4.55111"/>
<path clip-path="url(#clip810)" d="M2214.59 166.745 Q2212.78 171.375 2211.07 172.787 Q2209.36 174.199 2206.49 174.199 L2203.08 174.199 L2203.08 170.634 L2205.58 170.634 Q2207.34 170.634 2208.31 169.8 Q2209.29 168.967 2210.47 165.865 L2211.23 163.921 L2200.74 138.412 L2205.26 138.412 L2213.36 158.689 L2221.46 138.412 L2225.98 138.412 L2214.59 166.745 Z" fill="#000000" fill-rule="nonzero" fill-opacity="1" /><path clip-path="url(#clip810)" d="M2233.27 160.402 L2240.91 160.402 L2240.91 134.037 L2232.6 135.703 L2232.6 131.444 L2240.86 129.778 L2245.54 129.778 L2245.54 160.402 L2253.17 160.402 L2253.17 164.338 L2233.27 164.338 L2233.27 160.402 Z" fill="#000000" fill-rule="nonzero" fill-opacity="1" /></svg>
