<?xml version="1.0" encoding="utf-8"?>
<svg xmlns="http://www.w3.org/2000/svg" xmlns:xlink="http://www.w3.org/1999/xlink" width="600" height="400" viewBox="0 0 2400 1600">
<defs>
  <clipPath id="clip500">
    <rect x="0" y="0" width="2400" height="1600"/>
  </clipPath>
</defs>
<path clip-path="url(#clip500)" d="M0 1600 L2400 1600 L2400 0 L0 0  Z" fill="#ffffff" fill-rule="evenodd" fill-opacity="1"/>
<defs>
  <clipPath id="clip501">
    <rect x="480" y="0" width="1681" height="1600"/>
  </clipPath>
</defs>
<path clip-path="url(#clip500)" d="M186.274 1486.45 L2352.76 1486.45 L2352.76 47.2441 L186.274 47.2441  Z" fill="#ffffff" fill-rule="evenodd" fill-opacity="1"/>
<defs>
  <clipPath id="clip502">
    <rect x="186" y="47" width="2167" height="1440"/>
  </clipPath>
</defs>
<polyline clip-path="url(#clip502)" style="stroke:#000000; stroke-linecap:round; stroke-linejoin:round; stroke-width:2; stroke-opacity:0.1; fill:none" points="532.945,1486.45 532.945,47.2441 "/>
<polyline clip-path="url(#clip502)" style="stroke:#000000; stroke-linecap:round; stroke-linejoin:round; stroke-width:2; stroke-opacity:0.1; fill:none" points="978.909,1486.45 978.909,47.2441 "/>
<polyline clip-path="url(#clip502)" style="stroke:#000000; stroke-linecap:round; stroke-linejoin:round; stroke-width:2; stroke-opacity:0.1; fill:none" points="1424.87,1486.45 1424.87,47.2441 "/>
<polyline clip-path="url(#clip502)" style="stroke:#000000; stroke-linecap:round; stroke-linejoin:round; stroke-width:2; stroke-opacity:0.1; fill:none" points="1870.84,1486.45 1870.84,47.2441 "/>
<polyline clip-path="url(#clip502)" style="stroke:#000000; stroke-linecap:round; stroke-linejoin:round; stroke-width:2; stroke-opacity:0.1; fill:none" points="2316.8,1486.45 2316.8,47.2441 "/>
<polyline clip-path="url(#clip500)" style="stroke:#000000; stroke-linecap:round; stroke-linejoin:round; stroke-width:4; stroke-opacity:1; fill:none" points="186.274,1486.45 2352.76,1486.45 "/>
<polyline clip-path="url(#clip500)" style="stroke:#000000; stroke-linecap:round; stroke-linejoin:round; stroke-width:4; stroke-opacity:1; fill:none" points="532.945,1486.45 532.945,1467.55 "/>
<polyline clip-path="url(#clip500)" style="stroke:#000000; stroke-linecap:round; stroke-linejoin:round; stroke-width:4; stroke-opacity:1; fill:none" points="978.909,1486.45 978.909,1467.55 "/>
<polyline clip-path="url(#clip500)" style="stroke:#000000; stroke-linecap:round; stroke-linejoin:round; stroke-width:4; stroke-opacity:1; fill:none" points="1424.87,1486.45 1424.87,1467.55 "/>
<polyline clip-path="url(#clip500)" style="stroke:#000000; stroke-linecap:round; stroke-linejoin:round; stroke-width:4; stroke-opacity:1; fill:none" points="1870.84,1486.45 1870.84,1467.55 "/>
<polyline clip-path="url(#clip500)" style="stroke:#000000; stroke-linecap:round; stroke-linejoin:round; stroke-width:4; stroke-opacity:1; fill:none" points="2316.8,1486.45 2316.8,1467.55 "/>
<path clip-path="url(#clip500)" d="M479.23 1532.02 L508.906 1532.02 L508.906 1535.95 L479.23 1535.95 L479.23 1532.02 Z" fill="#000000" fill-rule="nonzero" fill-opacity="1" /><path clip-path="url(#clip500)" d="M528.998 1517.37 Q525.387 1517.37 523.558 1520.93 Q521.753 1524.47 521.753 1531.6 Q521.753 1538.71 523.558 1542.27 Q525.387 1545.82 528.998 1545.82 Q532.632 1545.82 534.438 1542.27 Q536.267 1538.71 536.267 1531.6 Q536.267 1524.47 534.438 1520.93 Q532.632 1517.37 528.998 1517.37 M528.998 1513.66 Q534.808 1513.66 537.864 1518.27 Q540.942 1522.85 540.942 1531.6 Q540.942 1540.33 537.864 1544.94 Q534.808 1549.52 528.998 1549.52 Q523.188 1549.52 520.109 1544.94 Q517.054 1540.33 517.054 1531.6 Q517.054 1522.85 520.109 1518.27 Q523.188 1513.66 528.998 1513.66 Z" fill="#000000" fill-rule="nonzero" fill-opacity="1" /><path clip-path="url(#clip500)" d="M549.16 1542.97 L554.044 1542.97 L554.044 1548.85 L549.16 1548.85 L549.16 1542.97 Z" fill="#000000" fill-rule="nonzero" fill-opacity="1" /><path clip-path="url(#clip500)" d="M577.076 1518.36 L565.271 1536.81 L577.076 1536.81 L577.076 1518.36 M575.85 1514.29 L581.729 1514.29 L581.729 1536.81 L586.66 1536.81 L586.66 1540.7 L581.729 1540.7 L581.729 1548.85 L577.076 1548.85 L577.076 1540.7 L561.475 1540.7 L561.475 1536.19 L575.85 1514.29 Z" fill="#000000" fill-rule="nonzero" fill-opacity="1" /><path clip-path="url(#clip500)" d="M926.235 1532.02 L955.911 1532.02 L955.911 1535.95 L926.235 1535.95 L926.235 1532.02 Z" fill="#000000" fill-rule="nonzero" fill-opacity="1" /><path clip-path="url(#clip500)" d="M976.004 1517.37 Q972.393 1517.37 970.564 1520.93 Q968.758 1524.47 968.758 1531.6 Q968.758 1538.71 970.564 1542.27 Q972.393 1545.82 976.004 1545.82 Q979.638 1545.82 981.443 1542.27 Q983.272 1538.71 983.272 1531.6 Q983.272 1524.47 981.443 1520.93 Q979.638 1517.37 976.004 1517.37 M976.004 1513.66 Q981.814 1513.66 984.869 1518.27 Q987.948 1522.85 987.948 1531.6 Q987.948 1540.33 984.869 1544.94 Q981.814 1549.52 976.004 1549.52 Q970.194 1549.52 967.115 1544.94 Q964.059 1540.33 964.059 1531.6 Q964.059 1522.85 967.115 1518.27 Q970.194 1513.66 976.004 1513.66 Z" fill="#000000" fill-rule="nonzero" fill-opacity="1" /><path clip-path="url(#clip500)" d="M996.166 1542.97 L1001.05 1542.97 L1001.05 1548.85 L996.166 1548.85 L996.166 1542.97 Z" fill="#000000" fill-rule="nonzero" fill-opacity="1" /><path clip-path="url(#clip500)" d="M1015.26 1544.91 L1031.58 1544.91 L1031.58 1548.85 L1009.64 1548.85 L1009.64 1544.91 Q1012.3 1542.16 1016.88 1537.53 Q1021.49 1532.88 1022.67 1531.53 Q1024.92 1529.01 1025.8 1527.27 Q1026.7 1525.51 1026.7 1523.82 Q1026.7 1521.07 1024.75 1519.33 Q1022.83 1517.6 1019.73 1517.6 Q1017.53 1517.6 1015.08 1518.36 Q1012.65 1519.13 1009.87 1520.68 L1009.87 1515.95 Q1012.69 1514.82 1015.15 1514.24 Q1017.6 1513.66 1019.64 1513.66 Q1025.01 1513.66 1028.2 1516.35 Q1031.4 1519.03 1031.4 1523.52 Q1031.4 1525.65 1030.59 1527.57 Q1029.8 1529.47 1027.69 1532.07 Q1027.11 1532.74 1024.01 1535.95 Q1020.91 1539.15 1015.26 1544.91 Z" fill="#000000" fill-rule="nonzero" fill-opacity="1" /><path clip-path="url(#clip500)" d="M1402.26 1517.37 Q1398.65 1517.37 1396.82 1520.93 Q1395.01 1524.47 1395.01 1531.6 Q1395.01 1538.71 1396.82 1542.27 Q1398.65 1545.82 1402.26 1545.82 Q1405.89 1545.82 1407.7 1542.27 Q1409.53 1538.71 1409.53 1531.6 Q1409.53 1524.47 1407.7 1520.93 Q1405.89 1517.37 1402.26 1517.37 M1402.26 1513.66 Q1408.07 1513.66 1411.12 1518.27 Q1414.2 1522.85 1414.2 1531.6 Q1414.2 1540.33 1411.12 1544.94 Q1408.07 1549.52 1402.26 1549.52 Q1396.45 1549.52 1393.37 1544.94 Q1390.31 1540.33 1390.31 1531.6 Q1390.31 1522.85 1393.37 1518.27 Q1396.45 1513.66 1402.26 1513.66 Z" fill="#000000" fill-rule="nonzero" fill-opacity="1" /><path clip-path="url(#clip500)" d="M1422.42 1542.97 L1427.3 1542.97 L1427.3 1548.85 L1422.42 1548.85 L1422.42 1542.97 Z" fill="#000000" fill-rule="nonzero" fill-opacity="1" /><path clip-path="url(#clip500)" d="M1447.49 1517.37 Q1443.88 1517.37 1442.05 1520.93 Q1440.24 1524.47 1440.24 1531.6 Q1440.24 1538.71 1442.05 1542.27 Q1443.88 1545.82 1447.49 1545.82 Q1451.12 1545.82 1452.93 1542.27 Q1454.76 1538.71 1454.76 1531.6 Q1454.76 1524.47 1452.93 1520.93 Q1451.12 1517.37 1447.49 1517.37 M1447.49 1513.66 Q1453.3 1513.66 1456.35 1518.27 Q1459.43 1522.85 1459.43 1531.6 Q1459.43 1540.33 1456.35 1544.94 Q1453.3 1549.52 1447.49 1549.52 Q1441.68 1549.52 1438.6 1544.94 Q1435.54 1540.33 1435.54 1531.6 Q1435.54 1522.85 1438.6 1518.27 Q1441.68 1513.66 1447.49 1513.66 Z" fill="#000000" fill-rule="nonzero" fill-opacity="1" /><path clip-path="url(#clip500)" d="M1849.02 1517.37 Q1845.41 1517.37 1843.58 1520.93 Q1841.77 1524.47 1841.77 1531.6 Q1841.77 1538.71 1843.58 1542.27 Q1845.41 1545.82 1849.02 1545.82 Q1852.65 1545.82 1854.46 1542.27 Q1856.29 1538.71 1856.29 1531.6 Q1856.29 1524.47 1854.46 1520.93 Q1852.65 1517.37 1849.02 1517.37 M1849.02 1513.66 Q1854.83 1513.66 1857.89 1518.27 Q1860.96 1522.85 1860.96 1531.6 Q1860.96 1540.33 1857.89 1544.94 Q1854.83 1549.52 1849.02 1549.52 Q1843.21 1549.52 1840.13 1544.94 Q1837.08 1540.33 1837.08 1531.6 Q1837.08 1522.85 1840.13 1518.27 Q1843.21 1513.66 1849.02 1513.66 Z" fill="#000000" fill-rule="nonzero" fill-opacity="1" /><path clip-path="url(#clip500)" d="M1869.18 1542.97 L1874.07 1542.97 L1874.07 1548.85 L1869.18 1548.85 L1869.18 1542.97 Z" fill="#000000" fill-rule="nonzero" fill-opacity="1" /><path clip-path="url(#clip500)" d="M1888.28 1544.91 L1904.6 1544.91 L1904.6 1548.85 L1882.65 1548.85 L1882.65 1544.91 Q1885.32 1542.16 1889.9 1537.53 Q1894.51 1532.88 1895.69 1531.53 Q1897.93 1529.01 1898.81 1527.27 Q1899.71 1525.51 1899.71 1523.82 Q1899.71 1521.07 1897.77 1519.33 Q1895.85 1517.6 1892.75 1517.6 Q1890.55 1517.6 1888.09 1518.36 Q1885.66 1519.13 1882.89 1520.68 L1882.89 1515.95 Q1885.71 1514.82 1888.16 1514.24 Q1890.62 1513.66 1892.65 1513.66 Q1898.02 1513.66 1901.22 1516.35 Q1904.41 1519.03 1904.41 1523.52 Q1904.41 1525.65 1903.6 1527.57 Q1902.82 1529.47 1900.71 1532.07 Q1900.13 1532.74 1897.03 1535.95 Q1893.93 1539.15 1888.28 1544.91 Z" fill="#000000" fill-rule="nonzero" fill-opacity="1" /><path clip-path="url(#clip500)" d="M2293.94 1517.37 Q2290.33 1517.37 2288.5 1520.93 Q2286.7 1524.47 2286.7 1531.6 Q2286.7 1538.71 2288.5 1542.27 Q2290.33 1545.82 2293.94 1545.82 Q2297.58 1545.82 2299.38 1542.27 Q2301.21 1538.71 2301.21 1531.6 Q2301.21 1524.47 2299.38 1520.93 Q2297.58 1517.37 2293.94 1517.37 M2293.94 1513.66 Q2299.75 1513.66 2302.81 1518.27 Q2305.89 1522.85 2305.89 1531.6 Q2305.89 1540.33 2302.81 1544.94 Q2299.75 1549.52 2293.94 1549.52 Q2288.13 1549.52 2285.05 1544.94 Q2282 1540.33 2282 1531.6 Q2282 1522.85 2285.05 1518.27 Q2288.13 1513.66 2293.94 1513.66 Z" fill="#000000" fill-rule="nonzero" fill-opacity="1" /><path clip-path="url(#clip500)" d="M2314.1 1542.97 L2318.99 1542.97 L2318.99 1548.85 L2314.1 1548.85 L2314.1 1542.97 Z" fill="#000000" fill-rule="nonzero" fill-opacity="1" /><path clip-path="url(#clip500)" d="M2342.02 1518.36 L2330.21 1536.81 L2342.02 1536.81 L2342.02 1518.36 M2340.79 1514.29 L2346.67 1514.29 L2346.67 1536.81 L2351.6 1536.81 L2351.6 1540.7 L2346.67 1540.7 L2346.67 1548.85 L2342.02 1548.85 L2342.02 1540.7 L2326.42 1540.7 L2326.42 1536.19 L2340.79 1514.29 Z" fill="#000000" fill-rule="nonzero" fill-opacity="1" /><polyline clip-path="url(#clip502)" style="stroke:#000000; stroke-linecap:round; stroke-linejoin:round; stroke-width:2; stroke-opacity:0.1; fill:none" points="186.274,1452.15 2352.76,1452.15 "/>
<polyline clip-path="url(#clip502)" style="stroke:#000000; stroke-linecap:round; stroke-linejoin:round; stroke-width:2; stroke-opacity:0.1; fill:none" points="186.274,1211.21 2352.76,1211.21 "/>
<polyline clip-path="url(#clip502)" style="stroke:#000000; stroke-linecap:round; stroke-linejoin:round; stroke-width:2; stroke-opacity:0.1; fill:none" points="186.274,970.261 2352.76,970.261 "/>
<polyline clip-path="url(#clip502)" style="stroke:#000000; stroke-linecap:round; stroke-linejoin:round; stroke-width:2; stroke-opacity:0.1; fill:none" points="186.274,729.316 2352.76,729.316 "/>
<polyline clip-path="url(#clip502)" style="stroke:#000000; stroke-linecap:round; stroke-linejoin:round; stroke-width:2; stroke-opacity:0.1; fill:none" points="186.274,488.371 2352.76,488.371 "/>
<polyline clip-path="url(#clip502)" style="stroke:#000000; stroke-linecap:round; stroke-linejoin:round; stroke-width:2; stroke-opacity:0.1; fill:none" points="186.274,247.426 2352.76,247.426 "/>
<polyline clip-path="url(#clip500)" style="stroke:#000000; stroke-linecap:round; stroke-linejoin:round; stroke-width:4; stroke-opacity:1; fill:none" points="186.274,1486.45 186.274,47.2441 "/>
<polyline clip-path="url(#clip500)" style="stroke:#000000; stroke-linecap:round; stroke-linejoin:round; stroke-width:4; stroke-opacity:1; fill:none" points="186.274,1452.15 205.172,1452.15 "/>
<polyline clip-path="url(#clip500)" style="stroke:#000000; stroke-linecap:round; stroke-linejoin:round; stroke-width:4; stroke-opacity:1; fill:none" points="186.274,1211.21 205.172,1211.21 "/>
<polyline clip-path="url(#clip500)" style="stroke:#000000; stroke-linecap:round; stroke-linejoin:round; stroke-width:4; stroke-opacity:1; fill:none" points="186.274,970.261 205.172,970.261 "/>
<polyline clip-path="url(#clip500)" style="stroke:#000000; stroke-linecap:round; stroke-linejoin:round; stroke-width:4; stroke-opacity:1; fill:none" points="186.274,729.316 205.172,729.316 "/>
<polyline clip-path="url(#clip500)" style="stroke:#000000; stroke-linecap:round; stroke-linejoin:round; stroke-width:4; stroke-opacity:1; fill:none" points="186.274,488.371 205.172,488.371 "/>
<polyline clip-path="url(#clip500)" style="stroke:#000000; stroke-linecap:round; stroke-linejoin:round; stroke-width:4; stroke-opacity:1; fill:none" points="186.274,247.426 205.172,247.426 "/>
<path clip-path="url(#clip500)" d="M62.9365 1437.95 Q59.3254 1437.95 57.4967 1441.51 Q55.6912 1445.06 55.6912 1452.19 Q55.6912 1459.29 57.4967 1462.86 Q59.3254 1466.4 62.9365 1466.4 Q66.5707 1466.4 68.3763 1462.86 Q70.205 1459.29 70.205 1452.19 Q70.205 1445.06 68.3763 1441.51 Q66.5707 1437.95 62.9365 1437.95 M62.9365 1434.25 Q68.7467 1434.25 71.8022 1438.85 Q74.8809 1443.44 74.8809 1452.19 Q74.8809 1460.91 71.8022 1465.52 Q68.7467 1470.1 62.9365 1470.1 Q57.1264 1470.1 54.0477 1465.52 Q50.9921 1460.91 50.9921 1452.19 Q50.9921 1443.44 54.0477 1438.85 Q57.1264 1434.25 62.9365 1434.25 Z" fill="#000000" fill-rule="nonzero" fill-opacity="1" /><path clip-path="url(#clip500)" d="M83.0984 1463.55 L87.9827 1463.55 L87.9827 1469.43 L83.0984 1469.43 L83.0984 1463.55 Z" fill="#000000" fill-rule="nonzero" fill-opacity="1" /><path clip-path="url(#clip500)" d="M108.168 1437.95 Q104.557 1437.95 102.728 1441.51 Q100.922 1445.06 100.922 1452.19 Q100.922 1459.29 102.728 1462.86 Q104.557 1466.4 108.168 1466.4 Q111.802 1466.4 113.608 1462.86 Q115.436 1459.29 115.436 1452.19 Q115.436 1445.06 113.608 1441.51 Q111.802 1437.95 108.168 1437.95 M108.168 1434.25 Q113.978 1434.25 117.033 1438.85 Q120.112 1443.44 120.112 1452.19 Q120.112 1460.91 117.033 1465.52 Q113.978 1470.1 108.168 1470.1 Q102.358 1470.1 99.2789 1465.52 Q96.2234 1460.91 96.2234 1452.19 Q96.2234 1443.44 99.2789 1438.85 Q102.358 1434.25 108.168 1434.25 Z" fill="#000000" fill-rule="nonzero" fill-opacity="1" /><path clip-path="url(#clip500)" d="M138.33 1437.95 Q134.719 1437.95 132.89 1441.51 Q131.084 1445.06 131.084 1452.19 Q131.084 1459.29 132.89 1462.86 Q134.719 1466.4 138.33 1466.4 Q141.964 1466.4 143.769 1462.86 Q145.598 1459.29 145.598 1452.19 Q145.598 1445.06 143.769 1441.51 Q141.964 1437.95 138.33 1437.95 M138.33 1434.25 Q144.14 1434.25 147.195 1438.85 Q150.274 1443.44 150.274 1452.19 Q150.274 1460.91 147.195 1465.52 Q144.14 1470.1 138.33 1470.1 Q132.519 1470.1 129.441 1465.52 Q126.385 1460.91 126.385 1452.19 Q126.385 1443.44 129.441 1438.85 Q132.519 1434.25 138.33 1434.25 Z" fill="#000000" fill-rule="nonzero" fill-opacity="1" /><path clip-path="url(#clip500)" d="M63.9319 1197 Q60.3208 1197 58.4921 1200.57 Q56.6865 1204.11 56.6865 1211.24 Q56.6865 1218.35 58.4921 1221.91 Q60.3208 1225.45 63.9319 1225.45 Q67.5661 1225.45 69.3717 1221.91 Q71.2004 1218.35 71.2004 1211.24 Q71.2004 1204.11 69.3717 1200.57 Q67.5661 1197 63.9319 1197 M63.9319 1193.3 Q69.742 1193.3 72.7976 1197.91 Q75.8763 1202.49 75.8763 1211.24 Q75.8763 1219.97 72.7976 1224.57 Q69.742 1229.16 63.9319 1229.16 Q58.1217 1229.16 55.043 1224.57 Q51.9875 1219.97 51.9875 1211.24 Q51.9875 1202.49 55.043 1197.91 Q58.1217 1193.3 63.9319 1193.3 Z" fill="#000000" fill-rule="nonzero" fill-opacity="1" /><path clip-path="url(#clip500)" d="M84.0938 1222.61 L88.978 1222.61 L88.978 1228.49 L84.0938 1228.49 L84.0938 1222.61 Z" fill="#000000" fill-rule="nonzero" fill-opacity="1" /><path clip-path="url(#clip500)" d="M109.163 1197 Q105.552 1197 103.723 1200.57 Q101.918 1204.11 101.918 1211.24 Q101.918 1218.35 103.723 1221.91 Q105.552 1225.45 109.163 1225.45 Q112.797 1225.45 114.603 1221.91 Q116.432 1218.35 116.432 1211.24 Q116.432 1204.11 114.603 1200.57 Q112.797 1197 109.163 1197 M109.163 1193.3 Q114.973 1193.3 118.029 1197.91 Q121.107 1202.49 121.107 1211.24 Q121.107 1219.97 118.029 1224.57 Q114.973 1229.16 109.163 1229.16 Q103.353 1229.16 100.274 1224.57 Q97.2187 1219.97 97.2187 1211.24 Q97.2187 1202.49 100.274 1197.91 Q103.353 1193.3 109.163 1193.3 Z" fill="#000000" fill-rule="nonzero" fill-opacity="1" /><path clip-path="url(#clip500)" d="M129.371 1193.93 L147.728 1193.93 L147.728 1197.86 L133.654 1197.86 L133.654 1206.33 Q134.672 1205.99 135.691 1205.82 Q136.709 1205.64 137.728 1205.64 Q143.515 1205.64 146.894 1208.81 Q150.274 1211.98 150.274 1217.4 Q150.274 1222.98 146.802 1226.08 Q143.33 1229.16 137.01 1229.16 Q134.834 1229.16 132.566 1228.79 Q130.32 1228.42 127.913 1227.68 L127.913 1222.98 Q129.996 1224.11 132.219 1224.67 Q134.441 1225.22 136.918 1225.22 Q140.922 1225.22 143.26 1223.12 Q145.598 1221.01 145.598 1217.4 Q145.598 1213.79 143.26 1211.68 Q140.922 1209.57 136.918 1209.57 Q135.043 1209.57 133.168 1209.99 Q131.316 1210.41 129.371 1211.29 L129.371 1193.93 Z" fill="#000000" fill-rule="nonzero" fill-opacity="1" /><path clip-path="url(#clip500)" d="M62.9365 956.06 Q59.3254 956.06 57.4967 959.625 Q55.6912 963.166 55.6912 970.296 Q55.6912 977.402 57.4967 980.967 Q59.3254 984.509 62.9365 984.509 Q66.5707 984.509 68.3763 980.967 Q70.205 977.402 70.205 970.296 Q70.205 963.166 68.3763 959.625 Q66.5707 956.06 62.9365 956.06 M62.9365 952.356 Q68.7467 952.356 71.8022 956.962 Q74.8809 961.546 74.8809 970.296 Q74.8809 979.023 71.8022 983.629 Q68.7467 988.212 62.9365 988.212 Q57.1264 988.212 54.0477 983.629 Q50.9921 979.023 50.9921 970.296 Q50.9921 961.546 54.0477 956.962 Q57.1264 952.356 62.9365 952.356 Z" fill="#000000" fill-rule="nonzero" fill-opacity="1" /><path clip-path="url(#clip500)" d="M83.0984 981.661 L87.9827 981.661 L87.9827 987.541 L83.0984 987.541 L83.0984 981.661 Z" fill="#000000" fill-rule="nonzero" fill-opacity="1" /><path clip-path="url(#clip500)" d="M98.978 983.606 L106.617 983.606 L106.617 957.24 L98.3067 958.907 L98.3067 954.648 L106.571 952.981 L111.246 952.981 L111.246 983.606 L118.885 983.606 L118.885 987.541 L98.978 987.541 L98.978 983.606 Z" fill="#000000" fill-rule="nonzero" fill-opacity="1" /><path clip-path="url(#clip500)" d="M138.33 956.06 Q134.719 956.06 132.89 959.625 Q131.084 963.166 131.084 970.296 Q131.084 977.402 132.89 980.967 Q134.719 984.509 138.33 984.509 Q141.964 984.509 143.769 980.967 Q145.598 977.402 145.598 970.296 Q145.598 963.166 143.769 959.625 Q141.964 956.06 138.33 956.06 M138.33 952.356 Q144.14 952.356 147.195 956.962 Q150.274 961.546 150.274 970.296 Q150.274 979.023 147.195 983.629 Q144.14 988.212 138.33 988.212 Q132.519 988.212 129.441 983.629 Q126.385 979.023 126.385 970.296 Q126.385 961.546 129.441 956.962 Q132.519 952.356 138.33 952.356 Z" fill="#000000" fill-rule="nonzero" fill-opacity="1" /><path clip-path="url(#clip500)" d="M63.9319 715.115 Q60.3208 715.115 58.4921 718.679 Q56.6865 722.221 56.6865 729.351 Q56.6865 736.457 58.4921 740.022 Q60.3208 743.564 63.9319 743.564 Q67.5661 743.564 69.3717 740.022 Q71.2004 736.457 71.2004 729.351 Q71.2004 722.221 69.3717 718.679 Q67.5661 715.115 63.9319 715.115 M63.9319 711.411 Q69.742 711.411 72.7976 716.017 Q75.8763 720.601 75.8763 729.351 Q75.8763 738.078 72.7976 742.684 Q69.742 747.267 63.9319 747.267 Q58.1217 747.267 55.043 742.684 Q51.9875 738.078 51.9875 729.351 Q51.9875 720.601 55.043 716.017 Q58.1217 711.411 63.9319 711.411 Z" fill="#000000" fill-rule="nonzero" fill-opacity="1" /><path clip-path="url(#clip500)" d="M84.0938 740.716 L88.978 740.716 L88.978 746.596 L84.0938 746.596 L84.0938 740.716 Z" fill="#000000" fill-rule="nonzero" fill-opacity="1" /><path clip-path="url(#clip500)" d="M99.9733 742.661 L107.612 742.661 L107.612 716.295 L99.3021 717.962 L99.3021 713.703 L107.566 712.036 L112.242 712.036 L112.242 742.661 L119.881 742.661 L119.881 746.596 L99.9733 746.596 L99.9733 742.661 Z" fill="#000000" fill-rule="nonzero" fill-opacity="1" /><path clip-path="url(#clip500)" d="M129.371 712.036 L147.728 712.036 L147.728 715.971 L133.654 715.971 L133.654 724.443 Q134.672 724.096 135.691 723.934 Q136.709 723.749 137.728 723.749 Q143.515 723.749 146.894 726.92 Q150.274 730.091 150.274 735.508 Q150.274 741.087 146.802 744.189 Q143.33 747.267 137.01 747.267 Q134.834 747.267 132.566 746.897 Q130.32 746.527 127.913 745.786 L127.913 741.087 Q129.996 742.221 132.219 742.777 Q134.441 743.332 136.918 743.332 Q140.922 743.332 143.26 741.226 Q145.598 739.119 145.598 735.508 Q145.598 731.897 143.26 729.791 Q140.922 727.684 136.918 727.684 Q135.043 727.684 133.168 728.101 Q131.316 728.517 129.371 729.397 L129.371 712.036 Z" fill="#000000" fill-rule="nonzero" fill-opacity="1" /><path clip-path="url(#clip500)" d="M62.9365 474.17 Q59.3254 474.17 57.4967 477.734 Q55.6912 481.276 55.6912 488.406 Q55.6912 495.512 57.4967 499.077 Q59.3254 502.619 62.9365 502.619 Q66.5707 502.619 68.3763 499.077 Q70.205 495.512 70.205 488.406 Q70.205 481.276 68.3763 477.734 Q66.5707 474.17 62.9365 474.17 M62.9365 470.466 Q68.7467 470.466 71.8022 475.072 Q74.8809 479.656 74.8809 488.406 Q74.8809 497.132 71.8022 501.739 Q68.7467 506.322 62.9365 506.322 Q57.1264 506.322 54.0477 501.739 Q50.9921 497.132 50.9921 488.406 Q50.9921 479.656 54.0477 475.072 Q57.1264 470.466 62.9365 470.466 Z" fill="#000000" fill-rule="nonzero" fill-opacity="1" /><path clip-path="url(#clip500)" d="M83.0984 499.771 L87.9827 499.771 L87.9827 505.651 L83.0984 505.651 L83.0984 499.771 Z" fill="#000000" fill-rule="nonzero" fill-opacity="1" /><path clip-path="url(#clip500)" d="M102.196 501.716 L118.515 501.716 L118.515 505.651 L96.5706 505.651 L96.5706 501.716 Q99.2326 498.961 103.816 494.332 Q108.422 489.679 109.603 488.336 Q111.848 485.813 112.728 484.077 Q113.631 482.318 113.631 480.628 Q113.631 477.873 111.686 476.137 Q109.765 474.401 106.663 474.401 Q104.464 474.401 102.01 475.165 Q99.5798 475.929 96.8021 477.48 L96.8021 472.758 Q99.6261 471.623 102.08 471.045 Q104.534 470.466 106.571 470.466 Q111.941 470.466 115.135 473.151 Q118.33 475.836 118.33 480.327 Q118.33 482.457 117.52 484.378 Q116.733 486.276 114.626 488.869 Q114.047 489.54 110.946 492.758 Q107.844 495.952 102.196 501.716 Z" fill="#000000" fill-rule="nonzero" fill-opacity="1" /><path clip-path="url(#clip500)" d="M138.33 474.17 Q134.719 474.17 132.89 477.734 Q131.084 481.276 131.084 488.406 Q131.084 495.512 132.89 499.077 Q134.719 502.619 138.33 502.619 Q141.964 502.619 143.769 499.077 Q145.598 495.512 145.598 488.406 Q145.598 481.276 143.769 477.734 Q141.964 474.17 138.33 474.17 M138.33 470.466 Q144.14 470.466 147.195 475.072 Q150.274 479.656 150.274 488.406 Q150.274 497.132 147.195 501.739 Q144.14 506.322 138.33 506.322 Q132.519 506.322 129.441 501.739 Q126.385 497.132 126.385 488.406 Q126.385 479.656 129.441 475.072 Q132.519 470.466 138.33 470.466 Z" fill="#000000" fill-rule="nonzero" fill-opacity="1" /><path clip-path="url(#clip500)" d="M63.9319 233.225 Q60.3208 233.225 58.4921 236.789 Q56.6865 240.331 56.6865 247.461 Q56.6865 254.567 58.4921 258.132 Q60.3208 261.674 63.9319 261.674 Q67.5661 261.674 69.3717 258.132 Q71.2004 254.567 71.2004 247.461 Q71.2004 240.331 69.3717 236.789 Q67.5661 233.225 63.9319 233.225 M63.9319 229.521 Q69.742 229.521 72.7976 234.127 Q75.8763 238.711 75.8763 247.461 Q75.8763 256.187 72.7976 260.794 Q69.742 265.377 63.9319 265.377 Q58.1217 265.377 55.043 260.794 Q51.9875 256.187 51.9875 247.461 Q51.9875 238.711 55.043 234.127 Q58.1217 229.521 63.9319 229.521 Z" fill="#000000" fill-rule="nonzero" fill-opacity="1" /><path clip-path="url(#clip500)" d="M84.0938 258.826 L88.978 258.826 L88.978 264.706 L84.0938 264.706 L84.0938 258.826 Z" fill="#000000" fill-rule="nonzero" fill-opacity="1" /><path clip-path="url(#clip500)" d="M103.191 260.771 L119.51 260.771 L119.51 264.706 L97.566 264.706 L97.566 260.771 Q100.228 258.016 104.811 253.387 Q109.418 248.734 110.598 247.391 Q112.844 244.868 113.723 243.132 Q114.626 241.373 114.626 239.683 Q114.626 236.928 112.682 235.192 Q110.76 233.456 107.658 233.456 Q105.459 233.456 103.006 234.22 Q100.575 234.984 97.7974 236.535 L97.7974 231.813 Q100.621 230.678 103.075 230.1 Q105.529 229.521 107.566 229.521 Q112.936 229.521 116.131 232.206 Q119.325 234.891 119.325 239.382 Q119.325 241.512 118.515 243.433 Q117.728 245.331 115.621 247.924 Q115.043 248.595 111.941 251.812 Q108.839 255.007 103.191 260.771 Z" fill="#000000" fill-rule="nonzero" fill-opacity="1" /><path clip-path="url(#clip500)" d="M129.371 230.146 L147.728 230.146 L147.728 234.081 L133.654 234.081 L133.654 242.553 Q134.672 242.206 135.691 242.044 Q136.709 241.859 137.728 241.859 Q143.515 241.859 146.894 245.03 Q150.274 248.201 150.274 253.618 Q150.274 259.197 146.802 262.299 Q143.33 265.377 137.01 265.377 Q134.834 265.377 132.566 265.007 Q130.32 264.636 127.913 263.896 L127.913 259.197 Q129.996 260.331 132.219 260.887 Q134.441 261.442 136.918 261.442 Q140.922 261.442 143.26 259.336 Q145.598 257.229 145.598 253.618 Q145.598 250.007 143.26 247.9 Q140.922 245.794 136.918 245.794 Q135.043 245.794 133.168 246.211 Q131.316 246.627 129.371 247.507 L129.371 230.146 Z" fill="#000000" fill-rule="nonzero" fill-opacity="1" /><circle clip-path="url(#clip502)" cx="1521.4" cy="1169.34" r="14.4" fill="#808080" fill-rule="evenodd" fill-opacity="1" stroke="#000000" stroke-opacity="1" stroke-width="3.2"/>
<circle clip-path="url(#clip502)" cx="1380.13" cy="1445.72" r="14.4" fill="#808080" fill-rule="evenodd" fill-opacity="1" stroke="#000000" stroke-opacity="1" stroke-width="3.2"/>
<circle clip-path="url(#clip502)" cx="2291.44" cy="1204.95" r="14.4" fill="#808080" fill-rule="evenodd" fill-opacity="1" stroke="#000000" stroke-opacity="1" stroke-width="3.2"/>
<circle clip-path="url(#clip502)" cx="247.59" cy="87.9763" r="14.4" fill="#808080" fill-rule="evenodd" fill-opacity="1" stroke="#000000" stroke-opacity="1" stroke-width="3.2"/>
<path clip-path="url(#clip500)" d="M1525.69 1176.77 Q1516.66 1176.77 1513.17 1178.84 Q1509.69 1180.9 1509.69 1185.89 Q1509.69 1189.86 1512.28 1192.21 Q1514.92 1194.52 1519.41 1194.52 Q1525.61 1194.52 1529.34 1190.14 Q1533.11 1185.73 1533.11 1178.43 L1533.11 1176.77 L1525.69 1176.77 M1540.56 1173.69 L1540.56 1199.58 L1533.11 1199.58 L1533.11 1192.69 Q1530.55 1196.82 1526.75 1198.81 Q1522.94 1200.75 1517.43 1200.75 Q1510.46 1200.75 1506.33 1196.87 Q1502.24 1192.94 1502.24 1186.37 Q1502.24 1178.72 1507.34 1174.83 Q1512.49 1170.94 1522.65 1170.94 L1533.11 1170.94 L1533.11 1170.21 Q1533.11 1165.07 1529.7 1162.27 Q1526.34 1159.43 1520.22 1159.43 Q1516.33 1159.43 1512.65 1160.37 Q1508.96 1161.3 1505.56 1163.16 L1505.56 1156.28 Q1509.65 1154.7 1513.5 1153.93 Q1517.35 1153.12 1520.99 1153.12 Q1530.84 1153.12 1535.7 1158.22 Q1540.56 1163.32 1540.56 1173.69 Z" fill="#000000" fill-rule="nonzero" fill-opacity="1" /><path clip-path="url(#clip500)" d="M1392.69 1453.31 Q1392.69 1445.09 1389.29 1440.43 Q1385.93 1435.73 1380.01 1435.73 Q1374.1 1435.73 1370.7 1440.43 Q1367.33 1445.09 1367.33 1453.31 Q1367.33 1461.53 1370.7 1466.23 Q1374.1 1470.89 1380.01 1470.89 Q1385.93 1470.89 1389.29 1466.23 Q1392.69 1461.53 1392.69 1453.31 M1367.33 1437.47 Q1369.68 1433.42 1373.25 1431.48 Q1376.85 1429.49 1381.84 1429.49 Q1390.1 1429.49 1395.24 1436.05 Q1400.43 1442.62 1400.43 1453.31 Q1400.43 1464.01 1395.24 1470.57 Q1390.1 1477.13 1381.84 1477.13 Q1376.85 1477.13 1373.25 1475.19 Q1369.68 1473.2 1367.33 1469.15 L1367.33 1475.96 L1359.84 1475.96 L1359.84 1412.92 L1367.33 1412.92 L1367.33 1437.47 Z" fill="#000000" fill-rule="nonzero" fill-opacity="1" /><path clip-path="url(#clip500)" d="M2309.39 1191.57 L2309.39 1198.53 Q2306.23 1196.79 2303.03 1195.94 Q2299.87 1195.05 2296.63 1195.05 Q2289.37 1195.05 2285.36 1199.67 Q2281.35 1204.25 2281.35 1212.55 Q2281.35 1220.85 2285.36 1225.47 Q2289.37 1230.05 2296.63 1230.05 Q2299.87 1230.05 2303.03 1229.2 Q2306.23 1228.31 2309.39 1226.57 L2309.39 1233.45 Q2306.27 1234.91 2302.9 1235.64 Q2299.58 1236.37 2295.82 1236.37 Q2285.57 1236.37 2279.53 1229.93 Q2273.49 1223.49 2273.49 1212.55 Q2273.49 1201.45 2279.57 1195.09 Q2285.69 1188.73 2296.3 1188.73 Q2299.74 1188.73 2303.03 1189.46 Q2306.31 1190.15 2309.39 1191.57 Z" fill="#000000" fill-rule="nonzero" fill-opacity="1" /><path clip-path="url(#clip500)" d="M260.411 79.7327 L260.411 55.1842 L267.864 55.1842 L267.864 118.216 L260.411 118.216 L260.411 111.411 Q258.061 115.462 254.456 117.447 Q250.891 119.391 245.868 119.391 Q237.645 119.391 232.459 112.829 Q227.315 106.266 227.315 95.5717 Q227.315 84.8773 232.459 78.3149 Q237.645 71.7524 245.868 71.7524 Q250.891 71.7524 254.456 73.7373 Q258.061 75.6818 260.411 79.7327 M235.011 95.5717 Q235.011 103.795 238.374 108.494 Q241.776 113.153 247.691 113.153 Q253.605 113.153 257.008 108.494 Q260.411 103.795 260.411 95.5717 Q260.411 87.3484 257.008 82.6898 Q253.605 77.9908 247.691 77.9908 Q241.776 77.9908 238.374 82.6898 Q235.011 87.3484 235.011 95.5717 Z" fill="#000000" fill-rule="nonzero" fill-opacity="1" /><path clip-path="url(#clip500)" d="M2011.46 198.898 L2280.54 198.898 L2280.54 95.2176 L2011.46 95.2176  Z" fill="#ffffff" fill-rule="evenodd" fill-opacity="1"/>
<polyline clip-path="url(#clip500)" style="stroke:#000000; stroke-linecap:round; stroke-linejoin:round; stroke-width:4; stroke-opacity:1; fill:none" points="2011.46,198.898 2280.54,198.898 2280.54,95.2176 2011.46,95.2176 2011.46,198.898 "/>
<circle clip-path="url(#clip500)" cx="2107.75" cy="147.058" r="20.48" fill="#808080" fill-rule="evenodd" fill-opacity="1" stroke="#000000" stroke-opacity="1" stroke-width="4.55111"/>
<path clip-path="url(#clip500)" d="M2217.88 166.745 Q2216.07 171.375 2214.36 172.787 Q2212.65 174.199 2209.78 174.199 L2206.38 174.199 L2206.38 170.634 L2208.88 170.634 Q2210.63 170.634 2211.61 169.8 Q2212.58 168.967 2213.76 165.865 L2214.52 163.921 L2204.04 138.412 L2208.55 138.412 L2216.65 158.689 L2224.76 138.412 L2229.27 138.412 L2217.88 166.745 Z" fill="#000000" fill-rule="nonzero" fill-opacity="1" /><path clip-path="url(#clip500)" d="M2236.56 160.402 L2244.2 160.402 L2244.2 134.037 L2235.89 135.703 L2235.89 131.444 L2244.15 129.778 L2248.83 129.778 L2248.83 160.402 L2256.47 160.402 L2256.47 164.338 L2236.56 164.338 L2236.56 160.402 Z" fill="#000000" fill-rule="nonzero" fill-opacity="1" /></svg>
