<?xml version="1.0" encoding="utf-8"?>
<svg xmlns="http://www.w3.org/2000/svg" xmlns:xlink="http://www.w3.org/1999/xlink" width="600" height="400" viewBox="0 0 2400 1600">
<defs>
  <clipPath id="clip560">
    <rect x="0" y="0" width="2400" height="1600"/>
  </clipPath>
</defs>
<path clip-path="url(#clip560)" d="M0 1600 L2400 1600 L2400 0 L0 0  Z" fill="#ffffff" fill-rule="evenodd" fill-opacity="1"/>
<defs>
  <clipPath id="clip561">
    <rect x="480" y="0" width="1681" height="1600"/>
  </clipPath>
</defs>
<path clip-path="url(#clip560)" d="M184.191 1486.45 L2352.76 1486.45 L2352.76 47.2441 L184.191 47.2441  Z" fill="#ffffff" fill-rule="evenodd" fill-opacity="1"/>
<defs>
  <clipPath id="clip562">
    <rect x="184" y="47" width="2170" height="1440"/>
  </clipPath>
</defs>
<polyline clip-path="url(#clip562)" style="stroke:#000000; stroke-linecap:round; stroke-linejoin:round; stroke-width:2; stroke-opacity:0.1; fill:none" points="323.942,1486.45 323.942,47.2441 "/>
<polyline clip-path="url(#clip562)" style="stroke:#000000; stroke-linecap:round; stroke-linejoin:round; stroke-width:2; stroke-opacity:0.1; fill:none" points="753.305,1486.45 753.305,47.2441 "/>
<polyline clip-path="url(#clip562)" style="stroke:#000000; stroke-linecap:round; stroke-linejoin:round; stroke-width:2; stroke-opacity:0.1; fill:none" points="1182.67,1486.45 1182.67,47.2441 "/>
<polyline clip-path="url(#clip562)" style="stroke:#000000; stroke-linecap:round; stroke-linejoin:round; stroke-width:2; stroke-opacity:0.1; fill:none" points="1612.03,1486.45 1612.03,47.2441 "/>
<polyline clip-path="url(#clip562)" style="stroke:#000000; stroke-linecap:round; stroke-linejoin:round; stroke-width:2; stroke-opacity:0.1; fill:none" points="2041.4,1486.45 2041.4,47.2441 "/>
<polyline clip-path="url(#clip560)" style="stroke:#000000; stroke-linecap:round; stroke-linejoin:round; stroke-width:4; stroke-opacity:1; fill:none" points="184.191,1486.45 2352.76,1486.45 "/>
<polyline clip-path="url(#clip560)" style="stroke:#000000; stroke-linecap:round; stroke-linejoin:round; stroke-width:4; stroke-opacity:1; fill:none" points="323.942,1486.45 323.942,1467.55 "/>
<polyline clip-path="url(#clip560)" style="stroke:#000000; stroke-linecap:round; stroke-linejoin:round; stroke-width:4; stroke-opacity:1; fill:none" points="753.305,1486.45 753.305,1467.55 "/>
<polyline clip-path="url(#clip560)" style="stroke:#000000; stroke-linecap:round; stroke-linejoin:round; stroke-width:4; stroke-opacity:1; fill:none" points="1182.67,1486.45 1182.67,1467.55 "/>
<polyline clip-path="url(#clip560)" style="stroke:#000000; stroke-linecap:round; stroke-linejoin:round; stroke-width:4; stroke-opacity:1; fill:none" points="1612.03,1486.45 1612.03,1467.55 "/>
<polyline clip-path="url(#clip560)" style="stroke:#000000; stroke-linecap:round; stroke-linejoin:round; stroke-width:4; stroke-opacity:1; fill:none" points="2041.4,1486.45 2041.4,1467.55 "/>
<path clip-path="url(#clip560)" d="M270.968 1532.02 L300.643 1532.02 L300.643 1535.95 L270.968 1535.95 L270.968 1532.02 Z" fill="#000000" fill-rule="nonzero" fill-opacity="1" /><path clip-path="url(#clip560)" d="M311.546 1544.91 L319.185 1544.91 L319.185 1518.55 L310.875 1520.21 L310.875 1515.95 L319.139 1514.29 L323.814 1514.29 L323.814 1544.91 L331.453 1544.91 L331.453 1548.85 L311.546 1548.85 L311.546 1544.91 Z" fill="#000000" fill-rule="nonzero" fill-opacity="1" /><path clip-path="url(#clip560)" d="M340.898 1542.97 L345.782 1542.97 L345.782 1548.85 L340.898 1548.85 L340.898 1542.97 Z" fill="#000000" fill-rule="nonzero" fill-opacity="1" /><path clip-path="url(#clip560)" d="M356.013 1514.29 L374.37 1514.29 L374.37 1518.22 L360.296 1518.22 L360.296 1526.7 Q361.314 1526.35 362.333 1526.19 Q363.351 1526 364.37 1526 Q370.157 1526 373.536 1529.17 Q376.916 1532.34 376.916 1537.76 Q376.916 1543.34 373.444 1546.44 Q369.972 1549.52 363.652 1549.52 Q361.476 1549.52 359.208 1549.15 Q356.962 1548.78 354.555 1548.04 L354.555 1543.34 Q356.638 1544.47 358.861 1545.03 Q361.083 1545.58 363.56 1545.58 Q367.564 1545.58 369.902 1543.48 Q372.24 1541.37 372.24 1537.76 Q372.24 1534.15 369.902 1532.04 Q367.564 1529.94 363.56 1529.94 Q361.685 1529.94 359.81 1530.35 Q357.958 1530.77 356.013 1531.65 L356.013 1514.29 Z" fill="#000000" fill-rule="nonzero" fill-opacity="1" /><path clip-path="url(#clip560)" d="M699.833 1532.02 L729.509 1532.02 L729.509 1535.95 L699.833 1535.95 L699.833 1532.02 Z" fill="#000000" fill-rule="nonzero" fill-opacity="1" /><path clip-path="url(#clip560)" d="M740.412 1544.91 L748.051 1544.91 L748.051 1518.55 L739.74 1520.21 L739.74 1515.95 L748.004 1514.29 L752.68 1514.29 L752.68 1544.91 L760.319 1544.91 L760.319 1548.85 L740.412 1548.85 L740.412 1544.91 Z" fill="#000000" fill-rule="nonzero" fill-opacity="1" /><path clip-path="url(#clip560)" d="M769.763 1542.97 L774.648 1542.97 L774.648 1548.85 L769.763 1548.85 L769.763 1542.97 Z" fill="#000000" fill-rule="nonzero" fill-opacity="1" /><path clip-path="url(#clip560)" d="M794.833 1517.37 Q791.222 1517.37 789.393 1520.93 Q787.587 1524.47 787.587 1531.6 Q787.587 1538.71 789.393 1542.27 Q791.222 1545.82 794.833 1545.82 Q798.467 1545.82 800.273 1542.27 Q802.101 1538.71 802.101 1531.6 Q802.101 1524.47 800.273 1520.93 Q798.467 1517.37 794.833 1517.37 M794.833 1513.66 Q800.643 1513.66 803.698 1518.27 Q806.777 1522.85 806.777 1531.6 Q806.777 1540.33 803.698 1544.94 Q800.643 1549.52 794.833 1549.52 Q789.023 1549.52 785.944 1544.94 Q782.888 1540.33 782.888 1531.6 Q782.888 1522.85 785.944 1518.27 Q789.023 1513.66 794.833 1513.66 Z" fill="#000000" fill-rule="nonzero" fill-opacity="1" /><path clip-path="url(#clip560)" d="M1129.69 1532.02 L1159.37 1532.02 L1159.37 1535.95 L1129.69 1535.95 L1129.69 1532.02 Z" fill="#000000" fill-rule="nonzero" fill-opacity="1" /><path clip-path="url(#clip560)" d="M1179.46 1517.37 Q1175.85 1517.37 1174.02 1520.93 Q1172.22 1524.47 1172.22 1531.6 Q1172.22 1538.71 1174.02 1542.27 Q1175.85 1545.82 1179.46 1545.82 Q1183.1 1545.82 1184.9 1542.27 Q1186.73 1538.71 1186.73 1531.6 Q1186.73 1524.47 1184.9 1520.93 Q1183.1 1517.37 1179.46 1517.37 M1179.46 1513.66 Q1185.27 1513.66 1188.33 1518.27 Q1191.41 1522.85 1191.41 1531.6 Q1191.41 1540.33 1188.33 1544.94 Q1185.27 1549.52 1179.46 1549.52 Q1173.65 1549.52 1170.57 1544.94 Q1167.52 1540.33 1167.52 1531.6 Q1167.52 1522.85 1170.57 1518.27 Q1173.65 1513.66 1179.46 1513.66 Z" fill="#000000" fill-rule="nonzero" fill-opacity="1" /><path clip-path="url(#clip560)" d="M1199.62 1542.97 L1204.51 1542.97 L1204.51 1548.85 L1199.62 1548.85 L1199.62 1542.97 Z" fill="#000000" fill-rule="nonzero" fill-opacity="1" /><path clip-path="url(#clip560)" d="M1214.74 1514.29 L1233.1 1514.29 L1233.1 1518.22 L1219.02 1518.22 L1219.02 1526.7 Q1220.04 1526.35 1221.06 1526.19 Q1222.08 1526 1223.1 1526 Q1228.88 1526 1232.26 1529.17 Q1235.64 1532.34 1235.64 1537.76 Q1235.64 1543.34 1232.17 1546.44 Q1228.7 1549.52 1222.38 1549.52 Q1220.2 1549.52 1217.93 1549.15 Q1215.69 1548.78 1213.28 1548.04 L1213.28 1543.34 Q1215.37 1544.47 1217.59 1545.03 Q1219.81 1545.58 1222.29 1545.58 Q1226.29 1545.58 1228.63 1543.48 Q1230.97 1541.37 1230.97 1537.76 Q1230.97 1534.15 1228.63 1532.04 Q1226.29 1529.94 1222.29 1529.94 Q1220.41 1529.94 1218.54 1530.35 Q1216.68 1530.77 1214.74 1531.65 L1214.74 1514.29 Z" fill="#000000" fill-rule="nonzero" fill-opacity="1" /><path clip-path="url(#clip560)" d="M1589.42 1517.37 Q1585.81 1517.37 1583.98 1520.93 Q1582.17 1524.47 1582.17 1531.6 Q1582.17 1538.71 1583.98 1542.27 Q1585.81 1545.82 1589.42 1545.82 Q1593.05 1545.82 1594.86 1542.27 Q1596.68 1538.71 1596.68 1531.6 Q1596.68 1524.47 1594.86 1520.93 Q1593.05 1517.37 1589.42 1517.37 M1589.42 1513.66 Q1595.23 1513.66 1598.28 1518.27 Q1601.36 1522.85 1601.36 1531.6 Q1601.36 1540.33 1598.28 1544.94 Q1595.23 1549.52 1589.42 1549.52 Q1583.61 1549.52 1580.53 1544.94 Q1577.47 1540.33 1577.47 1531.6 Q1577.47 1522.85 1580.53 1518.27 Q1583.61 1513.66 1589.42 1513.66 Z" fill="#000000" fill-rule="nonzero" fill-opacity="1" /><path clip-path="url(#clip560)" d="M1609.58 1542.97 L1614.46 1542.97 L1614.46 1548.85 L1609.58 1548.85 L1609.58 1542.97 Z" fill="#000000" fill-rule="nonzero" fill-opacity="1" /><path clip-path="url(#clip560)" d="M1634.65 1517.37 Q1631.04 1517.37 1629.21 1520.93 Q1627.4 1524.47 1627.4 1531.6 Q1627.4 1538.71 1629.21 1542.27 Q1631.04 1545.82 1634.65 1545.82 Q1638.28 1545.82 1640.09 1542.27 Q1641.92 1538.71 1641.92 1531.6 Q1641.92 1524.47 1640.09 1520.93 Q1638.28 1517.37 1634.65 1517.37 M1634.65 1513.66 Q1640.46 1513.66 1643.51 1518.27 Q1646.59 1522.85 1646.59 1531.6 Q1646.59 1540.33 1643.51 1544.94 Q1640.46 1549.52 1634.65 1549.52 Q1628.84 1549.52 1625.76 1544.94 Q1622.7 1540.33 1622.7 1531.6 Q1622.7 1522.85 1625.76 1518.27 Q1628.84 1513.66 1634.65 1513.66 Z" fill="#000000" fill-rule="nonzero" fill-opacity="1" /><path clip-path="url(#clip560)" d="M2019.28 1517.37 Q2015.67 1517.37 2013.84 1520.93 Q2012.03 1524.47 2012.03 1531.6 Q2012.03 1538.71 2013.84 1542.27 Q2015.67 1545.82 2019.28 1545.82 Q2022.91 1545.82 2024.72 1542.27 Q2026.55 1538.71 2026.55 1531.6 Q2026.55 1524.47 2024.72 1520.93 Q2022.91 1517.37 2019.28 1517.37 M2019.28 1513.66 Q2025.09 1513.66 2028.14 1518.27 Q2031.22 1522.85 2031.22 1531.6 Q2031.22 1540.33 2028.14 1544.94 Q2025.09 1549.52 2019.28 1549.52 Q2013.47 1549.52 2010.39 1544.94 Q2007.33 1540.33 2007.33 1531.6 Q2007.33 1522.85 2010.39 1518.27 Q2013.47 1513.66 2019.28 1513.66 Z" fill="#000000" fill-rule="nonzero" fill-opacity="1" /><path clip-path="url(#clip560)" d="M2039.44 1542.97 L2044.32 1542.97 L2044.32 1548.85 L2039.44 1548.85 L2039.44 1542.97 Z" fill="#000000" fill-rule="nonzero" fill-opacity="1" /><path clip-path="url(#clip560)" d="M2054.55 1514.29 L2072.91 1514.29 L2072.91 1518.22 L2058.84 1518.22 L2058.84 1526.7 Q2059.86 1526.35 2060.87 1526.19 Q2061.89 1526 2062.91 1526 Q2068.7 1526 2072.08 1529.17 Q2075.46 1532.34 2075.46 1537.76 Q2075.46 1543.34 2071.99 1546.44 Q2068.51 1549.52 2062.19 1549.52 Q2060.02 1549.52 2057.75 1549.15 Q2055.5 1548.78 2053.1 1548.04 L2053.1 1543.34 Q2055.18 1544.47 2057.4 1545.03 Q2059.62 1545.58 2062.1 1545.58 Q2066.11 1545.58 2068.44 1543.48 Q2070.78 1541.37 2070.78 1537.76 Q2070.78 1534.15 2068.44 1532.04 Q2066.11 1529.94 2062.1 1529.94 Q2060.23 1529.94 2058.35 1530.35 Q2056.5 1530.77 2054.55 1531.65 L2054.55 1514.29 Z" fill="#000000" fill-rule="nonzero" fill-opacity="1" /><polyline clip-path="url(#clip562)" style="stroke:#000000; stroke-linecap:round; stroke-linejoin:round; stroke-width:2; stroke-opacity:0.1; fill:none" points="184.191,1469.29 2352.76,1469.29 "/>
<polyline clip-path="url(#clip562)" style="stroke:#000000; stroke-linecap:round; stroke-linejoin:round; stroke-width:2; stroke-opacity:0.1; fill:none" points="184.191,1115.92 2352.76,1115.92 "/>
<polyline clip-path="url(#clip562)" style="stroke:#000000; stroke-linecap:round; stroke-linejoin:round; stroke-width:2; stroke-opacity:0.1; fill:none" points="184.191,762.549 2352.76,762.549 "/>
<polyline clip-path="url(#clip562)" style="stroke:#000000; stroke-linecap:round; stroke-linejoin:round; stroke-width:2; stroke-opacity:0.1; fill:none" points="184.191,409.177 2352.76,409.177 "/>
<polyline clip-path="url(#clip562)" style="stroke:#000000; stroke-linecap:round; stroke-linejoin:round; stroke-width:2; stroke-opacity:0.1; fill:none" points="184.191,55.8055 2352.76,55.8055 "/>
<polyline clip-path="url(#clip560)" style="stroke:#000000; stroke-linecap:round; stroke-linejoin:round; stroke-width:4; stroke-opacity:1; fill:none" points="184.191,1486.45 184.191,47.2441 "/>
<polyline clip-path="url(#clip560)" style="stroke:#000000; stroke-linecap:round; stroke-linejoin:round; stroke-width:4; stroke-opacity:1; fill:none" points="184.191,1469.29 203.088,1469.29 "/>
<polyline clip-path="url(#clip560)" style="stroke:#000000; stroke-linecap:round; stroke-linejoin:round; stroke-width:4; stroke-opacity:1; fill:none" points="184.191,1115.92 203.088,1115.92 "/>
<polyline clip-path="url(#clip560)" style="stroke:#000000; stroke-linecap:round; stroke-linejoin:round; stroke-width:4; stroke-opacity:1; fill:none" points="184.191,762.549 203.088,762.549 "/>
<polyline clip-path="url(#clip560)" style="stroke:#000000; stroke-linecap:round; stroke-linejoin:round; stroke-width:4; stroke-opacity:1; fill:none" points="184.191,409.177 203.088,409.177 "/>
<polyline clip-path="url(#clip560)" style="stroke:#000000; stroke-linecap:round; stroke-linejoin:round; stroke-width:4; stroke-opacity:1; fill:none" points="184.191,55.8055 203.088,55.8055 "/>
<path clip-path="url(#clip560)" d="M91.0151 1455.09 Q87.404 1455.09 85.5753 1458.66 Q83.7697 1462.2 83.7697 1469.33 Q83.7697 1476.43 85.5753 1480 Q87.404 1483.54 91.0151 1483.54 Q94.6493 1483.54 96.4548 1480 Q98.2835 1476.43 98.2835 1469.33 Q98.2835 1462.2 96.4548 1458.66 Q94.6493 1455.09 91.0151 1455.09 M91.0151 1451.39 Q96.8252 1451.39 99.8808 1455.99 Q102.959 1460.58 102.959 1469.33 Q102.959 1478.05 99.8808 1482.66 Q96.8252 1487.24 91.0151 1487.24 Q85.2049 1487.24 82.1262 1482.66 Q79.0707 1478.05 79.0707 1469.33 Q79.0707 1460.58 82.1262 1455.99 Q85.2049 1451.39 91.0151 1451.39 Z" fill="#000000" fill-rule="nonzero" fill-opacity="1" /><path clip-path="url(#clip560)" d="M111.177 1480.69 L116.061 1480.69 L116.061 1486.57 L111.177 1486.57 L111.177 1480.69 Z" fill="#000000" fill-rule="nonzero" fill-opacity="1" /><path clip-path="url(#clip560)" d="M136.246 1455.09 Q132.635 1455.09 130.807 1458.66 Q129.001 1462.2 129.001 1469.33 Q129.001 1476.43 130.807 1480 Q132.635 1483.54 136.246 1483.54 Q139.881 1483.54 141.686 1480 Q143.515 1476.43 143.515 1469.33 Q143.515 1462.2 141.686 1458.66 Q139.881 1455.09 136.246 1455.09 M136.246 1451.39 Q142.056 1451.39 145.112 1455.99 Q148.191 1460.58 148.191 1469.33 Q148.191 1478.05 145.112 1482.66 Q142.056 1487.24 136.246 1487.24 Q130.436 1487.24 127.357 1482.66 Q124.302 1478.05 124.302 1469.33 Q124.302 1460.58 127.357 1455.99 Q130.436 1451.39 136.246 1451.39 Z" fill="#000000" fill-rule="nonzero" fill-opacity="1" /><path clip-path="url(#clip560)" d="M86.0382 1129.27 L102.358 1129.27 L102.358 1133.2 L80.4133 1133.2 L80.4133 1129.27 Q83.0753 1126.51 87.6586 1121.88 Q92.2651 1117.23 93.4456 1115.89 Q95.691 1113.36 96.5706 1111.63 Q97.4734 1109.87 97.4734 1108.18 Q97.4734 1105.42 95.5289 1103.69 Q93.6076 1101.95 90.5058 1101.95 Q88.3067 1101.95 85.8531 1102.72 Q83.4225 1103.48 80.6447 1105.03 L80.6447 1100.31 Q83.4688 1099.17 85.9225 1098.59 Q88.3762 1098.02 90.4132 1098.02 Q95.7836 1098.02 98.978 1100.7 Q102.172 1103.39 102.172 1107.88 Q102.172 1110.01 101.362 1111.93 Q100.575 1113.83 98.4687 1116.42 Q97.89 1117.09 94.7882 1120.31 Q91.6864 1123.5 86.0382 1129.27 Z" fill="#000000" fill-rule="nonzero" fill-opacity="1" /><path clip-path="url(#clip560)" d="M112.172 1127.32 L117.057 1127.32 L117.057 1133.2 L112.172 1133.2 L112.172 1127.32 Z" fill="#000000" fill-rule="nonzero" fill-opacity="1" /><path clip-path="url(#clip560)" d="M127.288 1098.64 L145.644 1098.64 L145.644 1102.58 L131.57 1102.58 L131.57 1111.05 Q132.589 1110.7 133.607 1110.54 Q134.626 1110.35 135.644 1110.35 Q141.431 1110.35 144.811 1113.53 Q148.191 1116.7 148.191 1122.11 Q148.191 1127.69 144.718 1130.79 Q141.246 1133.87 134.927 1133.87 Q132.751 1133.87 130.482 1133.5 Q128.237 1133.13 125.83 1132.39 L125.83 1127.69 Q127.913 1128.83 130.135 1129.38 Q132.357 1129.94 134.834 1129.94 Q138.839 1129.94 141.177 1127.83 Q143.515 1125.72 143.515 1122.11 Q143.515 1118.5 141.177 1116.4 Q138.839 1114.29 134.834 1114.29 Q132.959 1114.29 131.084 1114.71 Q129.232 1115.12 127.288 1116 L127.288 1098.64 Z" fill="#000000" fill-rule="nonzero" fill-opacity="1" /><path clip-path="url(#clip560)" d="M81.0614 745.269 L99.4178 745.269 L99.4178 749.204 L85.3438 749.204 L85.3438 757.677 Q86.3623 757.329 87.3808 757.167 Q88.3993 756.982 89.4178 756.982 Q95.2049 756.982 98.5845 760.153 Q101.964 763.325 101.964 768.741 Q101.964 774.32 98.4919 777.422 Q95.0197 780.501 88.7003 780.501 Q86.5243 780.501 84.2558 780.13 Q82.0105 779.76 79.6031 779.019 L79.6031 774.32 Q81.6864 775.454 83.9086 776.01 Q86.1308 776.565 88.6077 776.565 Q92.6123 776.565 94.9502 774.459 Q97.2882 772.352 97.2882 768.741 Q97.2882 765.13 94.9502 763.024 Q92.6123 760.917 88.6077 760.917 Q86.7327 760.917 84.8577 761.334 Q83.0058 761.751 81.0614 762.63 L81.0614 745.269 Z" fill="#000000" fill-rule="nonzero" fill-opacity="1" /><path clip-path="url(#clip560)" d="M111.177 773.95 L116.061 773.95 L116.061 779.829 L111.177 779.829 L111.177 773.95 Z" fill="#000000" fill-rule="nonzero" fill-opacity="1" /><path clip-path="url(#clip560)" d="M136.246 748.348 Q132.635 748.348 130.807 751.913 Q129.001 755.454 129.001 762.584 Q129.001 769.69 130.807 773.255 Q132.635 776.797 136.246 776.797 Q139.881 776.797 141.686 773.255 Q143.515 769.69 143.515 762.584 Q143.515 755.454 141.686 751.913 Q139.881 748.348 136.246 748.348 M136.246 744.644 Q142.056 744.644 145.112 749.251 Q148.191 753.834 148.191 762.584 Q148.191 771.311 145.112 775.917 Q142.056 780.501 136.246 780.501 Q130.436 780.501 127.357 775.917 Q124.302 771.311 124.302 762.584 Q124.302 753.834 127.357 749.251 Q130.436 744.644 136.246 744.644 Z" fill="#000000" fill-rule="nonzero" fill-opacity="1" /><path clip-path="url(#clip560)" d="M80.8299 391.897 L103.052 391.897 L103.052 393.888 L90.5058 426.457 L85.6216 426.457 L97.4271 395.833 L80.8299 395.833 L80.8299 391.897 Z" fill="#000000" fill-rule="nonzero" fill-opacity="1" /><path clip-path="url(#clip560)" d="M112.172 420.578 L117.057 420.578 L117.057 426.457 L112.172 426.457 L112.172 420.578 Z" fill="#000000" fill-rule="nonzero" fill-opacity="1" /><path clip-path="url(#clip560)" d="M127.288 391.897 L145.644 391.897 L145.644 395.833 L131.57 395.833 L131.57 404.305 Q132.589 403.958 133.607 403.795 Q134.626 403.61 135.644 403.61 Q141.431 403.61 144.811 406.782 Q148.191 409.953 148.191 415.369 Q148.191 420.948 144.718 424.05 Q141.246 427.129 134.927 427.129 Q132.751 427.129 130.482 426.758 Q128.237 426.388 125.83 425.647 L125.83 420.948 Q127.913 422.082 130.135 422.638 Q132.357 423.194 134.834 423.194 Q138.839 423.194 141.177 421.087 Q143.515 418.981 143.515 415.369 Q143.515 411.758 141.177 409.652 Q138.839 407.545 134.834 407.545 Q132.959 407.545 131.084 407.962 Q129.232 408.379 127.288 409.258 L127.288 391.897 Z" fill="#000000" fill-rule="nonzero" fill-opacity="1" /><path clip-path="url(#clip560)" d="M51.6634 69.1503 L59.3023 69.1503 L59.3023 42.7847 L50.9921 44.4514 L50.9921 40.1921 L59.256 38.5255 L63.9319 38.5255 L63.9319 69.1503 L71.5707 69.1503 L71.5707 73.0855 L51.6634 73.0855 L51.6634 69.1503 Z" fill="#000000" fill-rule="nonzero" fill-opacity="1" /><path clip-path="url(#clip560)" d="M91.0151 41.6042 Q87.404 41.6042 85.5753 45.169 Q83.7697 48.7106 83.7697 55.8402 Q83.7697 62.9467 85.5753 66.5114 Q87.404 70.0531 91.0151 70.0531 Q94.6493 70.0531 96.4548 66.5114 Q98.2835 62.9467 98.2835 55.8402 Q98.2835 48.7106 96.4548 45.169 Q94.6493 41.6042 91.0151 41.6042 M91.0151 37.9005 Q96.8252 37.9005 99.8808 42.5069 Q102.959 47.0903 102.959 55.8402 Q102.959 64.567 99.8808 69.1735 Q96.8252 73.7568 91.0151 73.7568 Q85.2049 73.7568 82.1262 69.1735 Q79.0707 64.567 79.0707 55.8402 Q79.0707 47.0903 82.1262 42.5069 Q85.2049 37.9005 91.0151 37.9005 Z" fill="#000000" fill-rule="nonzero" fill-opacity="1" /><path clip-path="url(#clip560)" d="M111.177 67.2059 L116.061 67.2059 L116.061 73.0855 L111.177 73.0855 L111.177 67.2059 Z" fill="#000000" fill-rule="nonzero" fill-opacity="1" /><path clip-path="url(#clip560)" d="M136.246 41.6042 Q132.635 41.6042 130.807 45.169 Q129.001 48.7106 129.001 55.8402 Q129.001 62.9467 130.807 66.5114 Q132.635 70.0531 136.246 70.0531 Q139.881 70.0531 141.686 66.5114 Q143.515 62.9467 143.515 55.8402 Q143.515 48.7106 141.686 45.169 Q139.881 41.6042 136.246 41.6042 M136.246 37.9005 Q142.056 37.9005 145.112 42.5069 Q148.191 47.0903 148.191 55.8402 Q148.191 64.567 145.112 69.1735 Q142.056 73.7568 136.246 73.7568 Q130.436 73.7568 127.357 69.1735 Q124.302 64.567 124.302 55.8402 Q124.302 47.0903 127.357 42.5069 Q130.436 37.9005 136.246 37.9005 Z" fill="#000000" fill-rule="nonzero" fill-opacity="1" /><circle clip-path="url(#clip562)" cx="2291.38" cy="1354.81" r="14.4" fill="#808080" fill-rule="evenodd" fill-opacity="1" stroke="#000000" stroke-opacity="1" stroke-width="3.2"/>
<circle clip-path="url(#clip562)" cx="245.565" cy="87.9763" r="14.4" fill="#808080" fill-rule="evenodd" fill-opacity="1" stroke="#000000" stroke-opacity="1" stroke-width="3.2"/>
<circle clip-path="url(#clip562)" cx="1650.38" cy="1445.72" r="14.4" fill="#808080" fill-rule="evenodd" fill-opacity="1" stroke="#000000" stroke-opacity="1" stroke-width="3.2"/>
<circle clip-path="url(#clip562)" cx="1499.19" cy="1433.82" r="14.4" fill="#808080" fill-rule="evenodd" fill-opacity="1" stroke="#000000" stroke-opacity="1" stroke-width="3.2"/>
<path clip-path="url(#clip560)" d="M2295.68 1362.24 Q2286.64 1362.24 2283.16 1364.31 Q2279.67 1366.38 2279.67 1371.36 Q2279.67 1375.33 2282.27 1377.68 Q2284.9 1379.99 2289.4 1379.99 Q2295.59 1379.99 2299.32 1375.61 Q2303.09 1371.2 2303.09 1363.91 L2303.09 1362.24 L2295.68 1362.24 M2310.54 1359.17 L2310.54 1385.05 L2303.09 1385.05 L2303.09 1378.16 Q2300.54 1382.3 2296.73 1384.28 Q2292.92 1386.23 2287.41 1386.23 Q2280.44 1386.23 2276.31 1382.34 Q2272.22 1378.41 2272.22 1371.84 Q2272.22 1364.19 2277.32 1360.3 Q2282.47 1356.41 2292.64 1356.41 L2303.09 1356.41 L2303.09 1355.68 Q2303.09 1350.54 2299.69 1347.74 Q2296.32 1344.91 2290.21 1344.91 Q2286.32 1344.91 2282.63 1345.84 Q2278.95 1346.77 2275.54 1348.63 L2275.54 1341.75 Q2279.63 1340.17 2283.48 1339.4 Q2287.33 1338.59 2290.98 1338.59 Q2300.82 1338.59 2305.68 1343.69 Q2310.54 1348.8 2310.54 1359.17 Z" fill="#000000" fill-rule="nonzero" fill-opacity="1" /><path clip-path="url(#clip560)" d="M258.123 95.5717 Q258.123 87.3484 254.72 82.6898 Q251.358 77.9908 245.444 77.9908 Q239.529 77.9908 236.127 82.6898 Q232.764 87.3484 232.764 95.5717 Q232.764 103.795 236.127 108.494 Q239.529 113.153 245.444 113.153 Q251.358 113.153 254.72 108.494 Q258.123 103.795 258.123 95.5717 M232.764 79.7327 Q235.114 75.6818 238.679 73.7373 Q242.284 71.7524 247.267 71.7524 Q255.53 71.7524 260.675 78.3149 Q265.86 84.8773 265.86 95.5717 Q265.86 106.266 260.675 112.829 Q255.53 119.391 247.267 119.391 Q242.284 119.391 238.679 117.447 Q235.114 115.462 232.764 111.411 L232.764 118.216 L225.27 118.216 L225.27 55.1842 L232.764 55.1842 L232.764 79.7327 Z" fill="#000000" fill-rule="nonzero" fill-opacity="1" /><path clip-path="url(#clip560)" d="M1668.33 1432.33 L1668.33 1439.3 Q1665.17 1437.55 1661.97 1436.7 Q1658.81 1435.81 1655.57 1435.81 Q1648.32 1435.81 1644.31 1440.43 Q1640.3 1445.01 1640.3 1453.31 Q1640.3 1461.62 1644.31 1466.23 Q1648.32 1470.81 1655.57 1470.81 Q1658.81 1470.81 1661.97 1469.96 Q1665.17 1469.07 1668.33 1467.33 L1668.33 1474.21 Q1665.21 1475.67 1661.85 1476.4 Q1658.53 1477.13 1654.76 1477.13 Q1644.51 1477.13 1638.47 1470.69 Q1632.44 1464.25 1632.44 1453.31 Q1632.44 1442.21 1638.51 1435.85 Q1644.63 1429.49 1655.24 1429.49 Q1658.69 1429.49 1661.97 1430.22 Q1665.25 1430.91 1668.33 1432.33 Z" fill="#000000" fill-rule="nonzero" fill-opacity="1" /><path clip-path="url(#clip560)" d="M1512.01 1425.58 L1512.01 1401.03 L1519.47 1401.03 L1519.47 1464.06 L1512.01 1464.06 L1512.01 1457.26 Q1509.66 1461.31 1506.06 1463.29 Q1502.49 1465.24 1497.47 1465.24 Q1489.25 1465.24 1484.06 1458.67 Q1478.92 1452.11 1478.92 1441.42 Q1478.92 1430.72 1484.06 1424.16 Q1489.25 1417.6 1497.47 1417.6 Q1502.49 1417.6 1506.06 1419.58 Q1509.66 1421.53 1512.01 1425.58 M1486.62 1441.42 Q1486.62 1449.64 1489.98 1454.34 Q1493.38 1459 1499.29 1459 Q1505.21 1459 1508.61 1454.34 Q1512.01 1449.64 1512.01 1441.42 Q1512.01 1433.19 1508.61 1428.53 Q1505.21 1423.84 1499.29 1423.84 Q1493.38 1423.84 1489.98 1428.53 Q1486.62 1433.19 1486.62 1441.42 Z" fill="#000000" fill-rule="nonzero" fill-opacity="1" /><path clip-path="url(#clip560)" d="M2011.18 198.898 L2280.47 198.898 L2280.47 95.2176 L2011.18 95.2176  Z" fill="#ffffff" fill-rule="evenodd" fill-opacity="1"/>
<polyline clip-path="url(#clip560)" style="stroke:#000000; stroke-linecap:round; stroke-linejoin:round; stroke-width:4; stroke-opacity:1; fill:none" points="2011.18,198.898 2280.47,198.898 2280.47,95.2176 2011.18,95.2176 2011.18,198.898 "/>
<circle clip-path="url(#clip560)" cx="2107.56" cy="147.058" r="20.48" fill="#808080" fill-rule="evenodd" fill-opacity="1" stroke="#000000" stroke-opacity="1" stroke-width="4.55111"/>
<path clip-path="url(#clip560)" d="M2217.79 166.745 Q2215.98 171.375 2214.27 172.787 Q2212.56 174.199 2209.69 174.199 L2206.28 174.199 L2206.28 170.634 L2208.78 170.634 Q2210.54 170.634 2211.51 169.8 Q2212.49 168.967 2213.67 165.865 L2214.43 163.921 L2203.94 138.412 L2208.46 138.412 L2216.56 158.689 L2224.66 138.412 L2229.18 138.412 L2217.79 166.745 Z" fill="#000000" fill-rule="nonzero" fill-opacity="1" /><path clip-path="url(#clip560)" d="M2236.47 160.402 L2244.11 160.402 L2244.11 134.037 L2235.8 135.703 L2235.8 131.444 L2244.06 129.778 L2248.74 129.778 L2248.74 160.402 L2256.38 160.402 L2256.38 164.338 L2236.47 164.338 L2236.47 160.402 Z" fill="#000000" fill-rule="nonzero" fill-opacity="1" /></svg>
