<?xml version="1.0" encoding="utf-8"?>
<svg xmlns="http://www.w3.org/2000/svg" xmlns:xlink="http://www.w3.org/1999/xlink" width="600" height="400" viewBox="0 0 2400 1600">
<defs>
  <clipPath id="clip640">
    <rect x="0" y="0" width="2400" height="1600"/>
  </clipPath>
</defs>
<path clip-path="url(#clip640)" d="M0 1600 L2400 1600 L2400 0 L0 0  Z" fill="#ffffff" fill-rule="evenodd" fill-opacity="1"/>
<defs>
  <clipPath id="clip641">
    <rect x="480" y="0" width="1681" height="1600"/>
  </clipPath>
</defs>
<path clip-path="url(#clip640)" d="M156.112 1486.45 L2352.76 1486.45 L2352.76 47.2441 L156.112 47.2441  Z" fill="#ffffff" fill-rule="evenodd" fill-opacity="1"/>
<defs>
  <clipPath id="clip642">
    <rect x="156" y="47" width="2198" height="1440"/>
  </clipPath>
</defs>
<polyline clip-path="url(#clip642)" style="stroke:#000000; stroke-linecap:round; stroke-linejoin:round; stroke-width:2; stroke-opacity:0.1; fill:none" points="344.184,1486.45 344.184,47.2441 "/>
<polyline clip-path="url(#clip642)" style="stroke:#000000; stroke-linecap:round; stroke-linejoin:round; stroke-width:2; stroke-opacity:0.1; fill:none" points="881.904,1486.45 881.904,47.2441 "/>
<polyline clip-path="url(#clip642)" style="stroke:#000000; stroke-linecap:round; stroke-linejoin:round; stroke-width:2; stroke-opacity:0.1; fill:none" points="1419.62,1486.45 1419.62,47.2441 "/>
<polyline clip-path="url(#clip642)" style="stroke:#000000; stroke-linecap:round; stroke-linejoin:round; stroke-width:2; stroke-opacity:0.1; fill:none" points="1957.34,1486.45 1957.34,47.2441 "/>
<polyline clip-path="url(#clip642)" style="stroke:#000000; stroke-linecap:round; stroke-linejoin:round; stroke-width:2; stroke-opacity:0.1; fill:none" points="156.112,1449.86 2352.76,1449.86 "/>
<polyline clip-path="url(#clip642)" style="stroke:#000000; stroke-linecap:round; stroke-linejoin:round; stroke-width:2; stroke-opacity:0.1; fill:none" points="156.112,1010.34 2352.76,1010.34 "/>
<polyline clip-path="url(#clip642)" style="stroke:#000000; stroke-linecap:round; stroke-linejoin:round; stroke-width:2; stroke-opacity:0.1; fill:none" points="156.112,570.817 2352.76,570.817 "/>
<polyline clip-path="url(#clip642)" style="stroke:#000000; stroke-linecap:round; stroke-linejoin:round; stroke-width:2; stroke-opacity:0.1; fill:none" points="156.112,131.294 2352.76,131.294 "/>
<polyline clip-path="url(#clip640)" style="stroke:#000000; stroke-linecap:round; stroke-linejoin:round; stroke-width:4; stroke-opacity:1; fill:none" points="156.112,1486.45 2352.76,1486.45 "/>
<polyline clip-path="url(#clip640)" style="stroke:#000000; stroke-linecap:round; stroke-linejoin:round; stroke-width:4; stroke-opacity:1; fill:none" points="344.184,1486.45 344.184,1467.55 "/>
<polyline clip-path="url(#clip640)" style="stroke:#000000; stroke-linecap:round; stroke-linejoin:round; stroke-width:4; stroke-opacity:1; fill:none" points="881.904,1486.45 881.904,1467.55 "/>
<polyline clip-path="url(#clip640)" style="stroke:#000000; stroke-linecap:round; stroke-linejoin:round; stroke-width:4; stroke-opacity:1; fill:none" points="1419.62,1486.45 1419.62,1467.55 "/>
<polyline clip-path="url(#clip640)" style="stroke:#000000; stroke-linecap:round; stroke-linejoin:round; stroke-width:4; stroke-opacity:1; fill:none" points="1957.34,1486.45 1957.34,1467.55 "/>
<path clip-path="url(#clip640)" d="M290.47 1532.02 L320.145 1532.02 L320.145 1535.95 L290.47 1535.95 L290.47 1532.02 Z" fill="#000000" fill-rule="nonzero" fill-opacity="1" /><path clip-path="url(#clip640)" d="M340.238 1517.37 Q336.627 1517.37 334.798 1520.93 Q332.992 1524.47 332.992 1531.6 Q332.992 1538.71 334.798 1542.27 Q336.627 1545.82 340.238 1545.82 Q343.872 1545.82 345.678 1542.27 Q347.506 1538.71 347.506 1531.6 Q347.506 1524.47 345.678 1520.93 Q343.872 1517.37 340.238 1517.37 M340.238 1513.66 Q346.048 1513.66 349.103 1518.27 Q352.182 1522.85 352.182 1531.6 Q352.182 1540.33 349.103 1544.94 Q346.048 1549.52 340.238 1549.52 Q334.428 1549.52 331.349 1544.94 Q328.293 1540.33 328.293 1531.6 Q328.293 1522.85 331.349 1518.27 Q334.428 1513.66 340.238 1513.66 Z" fill="#000000" fill-rule="nonzero" fill-opacity="1" /><path clip-path="url(#clip640)" d="M360.4 1542.97 L365.284 1542.97 L365.284 1548.85 L360.4 1548.85 L360.4 1542.97 Z" fill="#000000" fill-rule="nonzero" fill-opacity="1" /><path clip-path="url(#clip640)" d="M388.316 1518.36 L376.511 1536.81 L388.316 1536.81 L388.316 1518.36 M387.089 1514.29 L392.969 1514.29 L392.969 1536.81 L397.899 1536.81 L397.899 1540.7 L392.969 1540.7 L392.969 1548.85 L388.316 1548.85 L388.316 1540.7 L372.714 1540.7 L372.714 1536.19 L387.089 1514.29 Z" fill="#000000" fill-rule="nonzero" fill-opacity="1" /><path clip-path="url(#clip640)" d="M829.231 1532.02 L858.907 1532.02 L858.907 1535.95 L829.231 1535.95 L829.231 1532.02 Z" fill="#000000" fill-rule="nonzero" fill-opacity="1" /><path clip-path="url(#clip640)" d="M878.999 1517.37 Q875.388 1517.37 873.559 1520.93 Q871.754 1524.47 871.754 1531.6 Q871.754 1538.71 873.559 1542.27 Q875.388 1545.82 878.999 1545.82 Q882.633 1545.82 884.439 1542.27 Q886.268 1538.71 886.268 1531.6 Q886.268 1524.47 884.439 1520.93 Q882.633 1517.37 878.999 1517.37 M878.999 1513.66 Q884.809 1513.66 887.865 1518.27 Q890.943 1522.85 890.943 1531.6 Q890.943 1540.33 887.865 1544.94 Q884.809 1549.52 878.999 1549.52 Q873.189 1549.52 870.11 1544.94 Q867.055 1540.33 867.055 1531.6 Q867.055 1522.85 870.11 1518.27 Q873.189 1513.66 878.999 1513.66 Z" fill="#000000" fill-rule="nonzero" fill-opacity="1" /><path clip-path="url(#clip640)" d="M899.161 1542.97 L904.045 1542.97 L904.045 1548.85 L899.161 1548.85 L899.161 1542.97 Z" fill="#000000" fill-rule="nonzero" fill-opacity="1" /><path clip-path="url(#clip640)" d="M918.258 1544.91 L934.577 1544.91 L934.577 1548.85 L912.633 1548.85 L912.633 1544.91 Q915.295 1542.16 919.879 1537.53 Q924.485 1532.88 925.666 1531.53 Q927.911 1529.01 928.79 1527.27 Q929.693 1525.51 929.693 1523.82 Q929.693 1521.07 927.749 1519.33 Q925.828 1517.6 922.726 1517.6 Q920.527 1517.6 918.073 1518.36 Q915.642 1519.13 912.865 1520.68 L912.865 1515.95 Q915.689 1514.82 918.142 1514.24 Q920.596 1513.66 922.633 1513.66 Q928.003 1513.66 931.198 1516.35 Q934.392 1519.03 934.392 1523.52 Q934.392 1525.65 933.582 1527.57 Q932.795 1529.47 930.689 1532.07 Q930.11 1532.74 927.008 1535.95 Q923.906 1539.15 918.258 1544.91 Z" fill="#000000" fill-rule="nonzero" fill-opacity="1" /><path clip-path="url(#clip640)" d="M1397.01 1517.37 Q1393.4 1517.37 1391.57 1520.93 Q1389.76 1524.47 1389.76 1531.6 Q1389.76 1538.71 1391.57 1542.27 Q1393.4 1545.82 1397.01 1545.82 Q1400.64 1545.82 1402.45 1542.27 Q1404.28 1538.71 1404.28 1531.6 Q1404.28 1524.47 1402.45 1520.93 Q1400.64 1517.37 1397.01 1517.37 M1397.01 1513.66 Q1402.82 1513.66 1405.87 1518.27 Q1408.95 1522.85 1408.95 1531.6 Q1408.95 1540.33 1405.87 1544.94 Q1402.82 1549.52 1397.01 1549.52 Q1391.2 1549.52 1388.12 1544.94 Q1385.06 1540.33 1385.06 1531.6 Q1385.06 1522.85 1388.12 1518.27 Q1391.2 1513.66 1397.01 1513.66 Z" fill="#000000" fill-rule="nonzero" fill-opacity="1" /><path clip-path="url(#clip640)" d="M1417.17 1542.97 L1422.05 1542.97 L1422.05 1548.85 L1417.17 1548.85 L1417.17 1542.97 Z" fill="#000000" fill-rule="nonzero" fill-opacity="1" /><path clip-path="url(#clip640)" d="M1442.24 1517.37 Q1438.63 1517.37 1436.8 1520.93 Q1434.99 1524.47 1434.99 1531.6 Q1434.99 1538.71 1436.8 1542.27 Q1438.63 1545.82 1442.24 1545.82 Q1445.87 1545.82 1447.68 1542.27 Q1449.51 1538.71 1449.51 1531.6 Q1449.51 1524.47 1447.68 1520.93 Q1445.87 1517.37 1442.24 1517.37 M1442.24 1513.66 Q1448.05 1513.66 1451.11 1518.27 Q1454.18 1522.85 1454.18 1531.6 Q1454.18 1540.33 1451.11 1544.94 Q1448.05 1549.52 1442.24 1549.52 Q1436.43 1549.52 1433.35 1544.94 Q1430.3 1540.33 1430.3 1531.6 Q1430.3 1522.85 1433.35 1518.27 Q1436.43 1513.66 1442.24 1513.66 Z" fill="#000000" fill-rule="nonzero" fill-opacity="1" /><path clip-path="url(#clip640)" d="M1935.53 1517.37 Q1931.92 1517.37 1930.09 1520.93 Q1928.28 1524.47 1928.28 1531.6 Q1928.28 1538.71 1930.09 1542.27 Q1931.92 1545.82 1935.53 1545.82 Q1939.16 1545.82 1940.97 1542.27 Q1942.79 1538.71 1942.79 1531.6 Q1942.79 1524.47 1940.97 1520.93 Q1939.16 1517.37 1935.53 1517.37 M1935.53 1513.66 Q1941.34 1513.66 1944.39 1518.27 Q1947.47 1522.85 1947.47 1531.6 Q1947.47 1540.33 1944.39 1544.94 Q1941.34 1549.52 1935.53 1549.52 Q1929.72 1549.52 1926.64 1544.94 Q1923.58 1540.33 1923.58 1531.6 Q1923.58 1522.85 1926.64 1518.27 Q1929.72 1513.66 1935.53 1513.66 Z" fill="#000000" fill-rule="nonzero" fill-opacity="1" /><path clip-path="url(#clip640)" d="M1955.69 1542.97 L1960.57 1542.97 L1960.57 1548.85 L1955.69 1548.85 L1955.69 1542.97 Z" fill="#000000" fill-rule="nonzero" fill-opacity="1" /><path clip-path="url(#clip640)" d="M1974.79 1544.91 L1991.1 1544.91 L1991.1 1548.85 L1969.16 1548.85 L1969.16 1544.91 Q1971.82 1542.16 1976.41 1537.53 Q1981.01 1532.88 1982.19 1531.53 Q1984.44 1529.01 1985.32 1527.27 Q1986.22 1525.51 1986.22 1523.82 Q1986.22 1521.07 1984.28 1519.33 Q1982.35 1517.6 1979.25 1517.6 Q1977.05 1517.6 1974.6 1518.36 Q1972.17 1519.13 1969.39 1520.68 L1969.39 1515.95 Q1972.22 1514.82 1974.67 1514.24 Q1977.12 1513.66 1979.16 1513.66 Q1984.53 1513.66 1987.73 1516.35 Q1990.92 1519.03 1990.92 1523.52 Q1990.92 1525.65 1990.11 1527.57 Q1989.32 1529.47 1987.22 1532.07 Q1986.64 1532.74 1983.54 1535.95 Q1980.43 1539.15 1974.79 1544.91 Z" fill="#000000" fill-rule="nonzero" fill-opacity="1" /><polyline clip-path="url(#clip640)" style="stroke:#000000; stroke-linecap:round; stroke-linejoin:round; stroke-width:4; stroke-opacity:1; fill:none" points="156.112,1486.45 156.112,47.2441 "/>
<polyline clip-path="url(#clip640)" style="stroke:#000000; stroke-linecap:round; stroke-linejoin:round; stroke-width:4; stroke-opacity:1; fill:none" points="156.112,1449.86 175.01,1449.86 "/>
<polyline clip-path="url(#clip640)" style="stroke:#000000; stroke-linecap:round; stroke-linejoin:round; stroke-width:4; stroke-opacity:1; fill:none" points="156.112,1010.34 175.01,1010.34 "/>
<polyline clip-path="url(#clip640)" style="stroke:#000000; stroke-linecap:round; stroke-linejoin:round; stroke-width:4; stroke-opacity:1; fill:none" points="156.112,570.817 175.01,570.817 "/>
<polyline clip-path="url(#clip640)" style="stroke:#000000; stroke-linecap:round; stroke-linejoin:round; stroke-width:4; stroke-opacity:1; fill:none" points="156.112,131.294 175.01,131.294 "/>
<path clip-path="url(#clip640)" d="M62.9365 1435.66 Q59.3254 1435.66 57.4967 1439.23 Q55.6912 1442.77 55.6912 1449.9 Q55.6912 1457 57.4967 1460.57 Q59.3254 1464.11 62.9365 1464.11 Q66.5707 1464.11 68.3763 1460.57 Q70.205 1457 70.205 1449.9 Q70.205 1442.77 68.3763 1439.23 Q66.5707 1435.66 62.9365 1435.66 M62.9365 1431.96 Q68.7467 1431.96 71.8022 1436.56 Q74.8809 1441.15 74.8809 1449.9 Q74.8809 1458.62 71.8022 1463.23 Q68.7467 1467.81 62.9365 1467.81 Q57.1264 1467.81 54.0477 1463.23 Q50.9921 1458.62 50.9921 1449.9 Q50.9921 1441.15 54.0477 1436.56 Q57.1264 1431.96 62.9365 1431.96 Z" fill="#000000" fill-rule="nonzero" fill-opacity="1" /><path clip-path="url(#clip640)" d="M83.0984 1461.26 L87.9827 1461.26 L87.9827 1467.14 L83.0984 1467.14 L83.0984 1461.26 Z" fill="#000000" fill-rule="nonzero" fill-opacity="1" /><path clip-path="url(#clip640)" d="M108.168 1435.66 Q104.557 1435.66 102.728 1439.23 Q100.922 1442.77 100.922 1449.9 Q100.922 1457 102.728 1460.57 Q104.557 1464.11 108.168 1464.11 Q111.802 1464.11 113.608 1460.57 Q115.436 1457 115.436 1449.9 Q115.436 1442.77 113.608 1439.23 Q111.802 1435.66 108.168 1435.66 M108.168 1431.96 Q113.978 1431.96 117.033 1436.56 Q120.112 1441.15 120.112 1449.9 Q120.112 1458.62 117.033 1463.23 Q113.978 1467.81 108.168 1467.81 Q102.358 1467.81 99.2789 1463.23 Q96.2234 1458.62 96.2234 1449.9 Q96.2234 1441.15 99.2789 1436.56 Q102.358 1431.96 108.168 1431.96 Z" fill="#000000" fill-rule="nonzero" fill-opacity="1" /><path clip-path="url(#clip640)" d="M64.1634 996.139 Q60.5523 996.139 58.7236 999.703 Q56.918 1003.25 56.918 1010.37 Q56.918 1017.48 58.7236 1021.05 Q60.5523 1024.59 64.1634 1024.59 Q67.7976 1024.59 69.6031 1021.05 Q71.4318 1017.48 71.4318 1010.37 Q71.4318 1003.25 69.6031 999.703 Q67.7976 996.139 64.1634 996.139 M64.1634 992.435 Q69.9735 992.435 73.029 997.041 Q76.1077 1001.62 76.1077 1010.37 Q76.1077 1019.1 73.029 1023.71 Q69.9735 1028.29 64.1634 1028.29 Q58.3532 1028.29 55.2745 1023.71 Q52.219 1019.1 52.219 1010.37 Q52.219 1001.62 55.2745 997.041 Q58.3532 992.435 64.1634 992.435 Z" fill="#000000" fill-rule="nonzero" fill-opacity="1" /><path clip-path="url(#clip640)" d="M84.3253 1021.74 L89.2095 1021.74 L89.2095 1027.62 L84.3253 1027.62 L84.3253 1021.74 Z" fill="#000000" fill-rule="nonzero" fill-opacity="1" /><path clip-path="url(#clip640)" d="M100.205 1023.68 L107.844 1023.68 L107.844 997.319 L99.5335 998.986 L99.5335 994.727 L107.797 993.06 L112.473 993.06 L112.473 1023.68 L120.112 1023.68 L120.112 1027.62 L100.205 1027.62 L100.205 1023.68 Z" fill="#000000" fill-rule="nonzero" fill-opacity="1" /><path clip-path="url(#clip640)" d="M64.5337 556.615 Q60.9226 556.615 59.0939 560.18 Q57.2884 563.722 57.2884 570.852 Q57.2884 577.958 59.0939 581.523 Q60.9226 585.064 64.5337 585.064 Q68.168 585.064 69.9735 581.523 Q71.8022 577.958 71.8022 570.852 Q71.8022 563.722 69.9735 560.18 Q68.168 556.615 64.5337 556.615 M64.5337 552.912 Q70.3439 552.912 73.3994 557.518 Q76.4781 562.102 76.4781 570.852 Q76.4781 579.578 73.3994 584.185 Q70.3439 588.768 64.5337 588.768 Q58.7236 588.768 55.6449 584.185 Q52.5893 579.578 52.5893 570.852 Q52.5893 562.102 55.6449 557.518 Q58.7236 552.912 64.5337 552.912 Z" fill="#000000" fill-rule="nonzero" fill-opacity="1" /><path clip-path="url(#clip640)" d="M84.6956 582.217 L89.5799 582.217 L89.5799 588.097 L84.6956 588.097 L84.6956 582.217 Z" fill="#000000" fill-rule="nonzero" fill-opacity="1" /><path clip-path="url(#clip640)" d="M103.793 584.162 L120.112 584.162 L120.112 588.097 L98.1678 588.097 L98.1678 584.162 Q100.83 581.407 105.413 576.777 Q110.02 572.125 111.2 570.782 Q113.445 568.259 114.325 566.523 Q115.228 564.764 115.228 563.074 Q115.228 560.319 113.283 558.583 Q111.362 556.847 108.26 556.847 Q106.061 556.847 103.608 557.611 Q101.177 558.375 98.3993 559.926 L98.3993 555.203 Q101.223 554.069 103.677 553.49 Q106.131 552.912 108.168 552.912 Q113.538 552.912 116.733 555.597 Q119.927 558.282 119.927 562.773 Q119.927 564.902 119.117 566.824 Q118.33 568.722 116.223 571.314 Q115.645 571.986 112.543 575.203 Q109.441 578.398 103.793 584.162 Z" fill="#000000" fill-rule="nonzero" fill-opacity="1" /><path clip-path="url(#clip640)" d="M63.5847 117.092 Q59.9736 117.092 58.1449 120.657 Q56.3393 124.199 56.3393 131.328 Q56.3393 138.435 58.1449 142 Q59.9736 145.541 63.5847 145.541 Q67.2189 145.541 69.0244 142 Q70.8531 138.435 70.8531 131.328 Q70.8531 124.199 69.0244 120.657 Q67.2189 117.092 63.5847 117.092 M63.5847 113.389 Q69.3948 113.389 72.4503 117.995 Q75.529 122.578 75.529 131.328 Q75.529 140.055 72.4503 144.662 Q69.3948 149.245 63.5847 149.245 Q57.7745 149.245 54.6958 144.662 Q51.6403 140.055 51.6403 131.328 Q51.6403 122.578 54.6958 117.995 Q57.7745 113.389 63.5847 113.389 Z" fill="#000000" fill-rule="nonzero" fill-opacity="1" /><path clip-path="url(#clip640)" d="M83.7466 142.694 L88.6308 142.694 L88.6308 148.574 L83.7466 148.574 L83.7466 142.694 Z" fill="#000000" fill-rule="nonzero" fill-opacity="1" /><path clip-path="url(#clip640)" d="M112.983 129.94 Q116.339 130.657 118.214 132.926 Q120.112 135.194 120.112 138.527 Q120.112 143.643 116.594 146.444 Q113.075 149.245 106.594 149.245 Q104.418 149.245 102.103 148.805 Q99.8113 148.388 97.3576 147.532 L97.3576 143.018 Q99.3021 144.152 101.617 144.731 Q103.932 145.31 106.455 145.31 Q110.853 145.31 113.145 143.574 Q115.459 141.838 115.459 138.527 Q115.459 135.472 113.307 133.759 Q111.177 132.023 107.358 132.023 L103.33 132.023 L103.33 128.18 L107.543 128.18 Q110.992 128.18 112.82 126.815 Q114.649 125.426 114.649 122.833 Q114.649 120.171 112.751 118.759 Q110.876 117.324 107.358 117.324 Q105.436 117.324 103.237 117.741 Q101.038 118.157 98.3993 119.037 L98.3993 114.87 Q101.061 114.129 103.376 113.759 Q105.714 113.389 107.774 113.389 Q113.098 113.389 116.2 115.819 Q119.302 118.227 119.302 122.347 Q119.302 125.217 117.658 127.208 Q116.015 129.176 112.983 129.94 Z" fill="#000000" fill-rule="nonzero" fill-opacity="1" /><circle clip-path="url(#clip642)" cx="1560.34" cy="1240.41" r="14.4" fill="#808080" fill-rule="evenodd" fill-opacity="1" stroke="#000000" stroke-opacity="1" stroke-width="3.2"/>
<circle clip-path="url(#clip642)" cx="1376.18" cy="1445.72" r="14.4" fill="#808080" fill-rule="evenodd" fill-opacity="1" stroke="#000000" stroke-opacity="1" stroke-width="3.2"/>
<circle clip-path="url(#clip642)" cx="2290.59" cy="1324.96" r="14.4" fill="#808080" fill-rule="evenodd" fill-opacity="1" stroke="#000000" stroke-opacity="1" stroke-width="3.2"/>
<circle clip-path="url(#clip642)" cx="218.281" cy="87.9763" r="14.4" fill="#808080" fill-rule="evenodd" fill-opacity="1" stroke="#000000" stroke-opacity="1" stroke-width="3.2"/>
<path clip-path="url(#clip640)" d="M1564.64 1247.84 Q1555.6 1247.84 1552.12 1249.9 Q1548.64 1251.97 1548.64 1256.95 Q1548.64 1260.92 1551.23 1263.27 Q1553.86 1265.58 1558.36 1265.58 Q1564.56 1265.58 1568.28 1261.21 Q1572.05 1256.79 1572.05 1249.5 L1572.05 1247.84 L1564.64 1247.84 M1579.5 1244.76 L1579.5 1270.65 L1572.05 1270.65 L1572.05 1263.76 Q1569.5 1267.89 1565.69 1269.88 Q1561.88 1271.82 1556.37 1271.82 Q1549.4 1271.82 1545.27 1267.93 Q1541.18 1264 1541.18 1257.44 Q1541.18 1249.78 1546.29 1245.89 Q1551.43 1242.01 1561.6 1242.01 L1572.05 1242.01 L1572.05 1241.28 Q1572.05 1236.13 1568.65 1233.34 Q1565.28 1230.5 1559.17 1230.5 Q1555.28 1230.5 1551.59 1231.43 Q1547.91 1232.36 1544.5 1234.23 L1544.5 1227.34 Q1548.59 1225.76 1552.44 1224.99 Q1556.29 1224.18 1559.94 1224.18 Q1569.78 1224.18 1574.64 1229.29 Q1579.5 1234.39 1579.5 1244.76 Z" fill="#000000" fill-rule="nonzero" fill-opacity="1" /><path clip-path="url(#clip640)" d="M1388.73 1453.31 Q1388.73 1445.09 1385.33 1440.43 Q1381.97 1435.73 1376.06 1435.73 Q1370.14 1435.73 1366.74 1440.43 Q1363.38 1445.09 1363.38 1453.31 Q1363.38 1461.53 1366.74 1466.23 Q1370.14 1470.89 1376.06 1470.89 Q1381.97 1470.89 1385.33 1466.23 Q1388.73 1461.53 1388.73 1453.31 M1363.38 1437.47 Q1365.73 1433.42 1369.29 1431.48 Q1372.9 1429.49 1377.88 1429.49 Q1386.14 1429.49 1391.29 1436.05 Q1396.47 1442.62 1396.47 1453.31 Q1396.47 1464.01 1391.29 1470.57 Q1386.14 1477.13 1377.88 1477.13 Q1372.9 1477.13 1369.29 1475.19 Q1365.73 1473.2 1363.38 1469.15 L1363.38 1475.96 L1355.88 1475.96 L1355.88 1412.92 L1363.38 1412.92 L1363.38 1437.47 Z" fill="#000000" fill-rule="nonzero" fill-opacity="1" /><path clip-path="url(#clip640)" d="M2308.53 1311.57 L2308.53 1318.54 Q2305.37 1316.8 2302.17 1315.95 Q2299.01 1315.06 2295.77 1315.06 Q2288.52 1315.06 2284.51 1319.68 Q2280.5 1324.25 2280.5 1332.56 Q2280.5 1340.86 2284.51 1345.48 Q2288.52 1350.06 2295.77 1350.06 Q2299.01 1350.06 2302.17 1349.21 Q2305.37 1348.32 2308.53 1346.57 L2308.53 1353.46 Q2305.41 1354.92 2302.05 1355.65 Q2298.73 1356.38 2294.96 1356.38 Q2284.71 1356.38 2278.68 1349.94 Q2272.64 1343.5 2272.64 1332.56 Q2272.64 1321.46 2278.72 1315.1 Q2284.83 1308.74 2295.45 1308.74 Q2298.89 1308.74 2302.17 1309.47 Q2305.45 1310.16 2308.53 1311.57 Z" fill="#000000" fill-rule="nonzero" fill-opacity="1" /><path clip-path="url(#clip640)" d="M231.102 79.7327 L231.102 55.1842 L238.556 55.1842 L238.556 118.216 L231.102 118.216 L231.102 111.411 Q228.753 115.462 225.148 117.447 Q221.583 119.391 216.56 119.391 Q208.336 119.391 203.151 112.829 Q198.007 106.266 198.007 95.5717 Q198.007 84.8773 203.151 78.3149 Q208.336 71.7524 216.56 71.7524 Q221.583 71.7524 225.148 73.7373 Q228.753 75.6818 231.102 79.7327 M205.703 95.5717 Q205.703 103.795 209.065 108.494 Q212.468 113.153 218.383 113.153 Q224.297 113.153 227.7 108.494 Q231.102 103.795 231.102 95.5717 Q231.102 87.3484 227.7 82.6898 Q224.297 77.9908 218.383 77.9908 Q212.468 77.9908 209.065 82.6898 Q205.703 87.3484 205.703 95.5717 Z" fill="#000000" fill-rule="nonzero" fill-opacity="1" /><path clip-path="url(#clip640)" d="M2007.44 198.898 L2279.53 198.898 L2279.53 95.2176 L2007.44 95.2176  Z" fill="#ffffff" fill-rule="evenodd" fill-opacity="1"/>
<polyline clip-path="url(#clip640)" style="stroke:#000000; stroke-linecap:round; stroke-linejoin:round; stroke-width:4; stroke-opacity:1; fill:none" points="2007.44,198.898 2279.53,198.898 2279.53,95.2176 2007.44,95.2176 2007.44,198.898 "/>
<circle clip-path="url(#clip640)" cx="2105.07" cy="147.058" r="20.48" fill="#808080" fill-rule="evenodd" fill-opacity="1" stroke="#000000" stroke-opacity="1" stroke-width="4.55111"/>
<path clip-path="url(#clip640)" d="M2216.54 166.745 Q2214.73 171.375 2213.02 172.787 Q2211.31 174.199 2208.44 174.199 L2205.03 174.199 L2205.03 170.634 L2207.53 170.634 Q2209.29 170.634 2210.27 169.8 Q2211.24 168.967 2212.42 165.865 L2213.18 163.921 L2202.7 138.412 L2207.21 138.412 L2215.31 158.689 L2223.41 138.412 L2227.93 138.412 L2216.54 166.745 Z" fill="#000000" fill-rule="nonzero" fill-opacity="1" /><path clip-path="url(#clip640)" d="M2235.22 160.402 L2242.86 160.402 L2242.86 134.037 L2234.55 135.703 L2234.55 131.444 L2242.81 129.778 L2247.49 129.778 L2247.49 160.402 L2255.13 160.402 L2255.13 164.338 L2235.22 164.338 L2235.22 160.402 Z" fill="#000000" fill-rule="nonzero" fill-opacity="1" /></svg>
