<?xml version="1.0" encoding="utf-8"?>
<svg xmlns="http://www.w3.org/2000/svg" xmlns:xlink="http://www.w3.org/1999/xlink" width="600" height="400" viewBox="0 0 2400 1600">
<defs>
  <clipPath id="clip700">
    <rect x="0" y="0" width="2400" height="1600"/>
  </clipPath>
</defs>
<path clip-path="url(#clip700)" d="M0 1600 L2400 1600 L2400 0 L0 0  Z" fill="#ffffff" fill-rule="evenodd" fill-opacity="1"/>
<defs>
  <clipPath id="clip701">
    <rect x="480" y="0" width="1681" height="1600"/>
  </clipPath>
</defs>
<path clip-path="url(#clip700)" d="M155.765 1486.45 L2352.76 1486.45 L2352.76 47.2441 L155.765 47.2441  Z" fill="#ffffff" fill-rule="evenodd" fill-opacity="1"/>
<defs>
  <clipPath id="clip702">
    <rect x="155" y="47" width="2198" height="1440"/>
  </clipPath>
</defs>
<polyline clip-path="url(#clip702)" style="stroke:#000000; stroke-linecap:round; stroke-linejoin:round; stroke-width:2; stroke-opacity:0.1; fill:none" points="276.586,1486.45 276.586,47.2441 "/>
<polyline clip-path="url(#clip702)" style="stroke:#000000; stroke-linecap:round; stroke-linejoin:round; stroke-width:2; stroke-opacity:0.1; fill:none" points="907.706,1486.45 907.706,47.2441 "/>
<polyline clip-path="url(#clip702)" style="stroke:#000000; stroke-linecap:round; stroke-linejoin:round; stroke-width:2; stroke-opacity:0.1; fill:none" points="1538.83,1486.45 1538.83,47.2441 "/>
<polyline clip-path="url(#clip702)" style="stroke:#000000; stroke-linecap:round; stroke-linejoin:round; stroke-width:2; stroke-opacity:0.1; fill:none" points="2169.95,1486.45 2169.95,47.2441 "/>
<polyline clip-path="url(#clip702)" style="stroke:#000000; stroke-linecap:round; stroke-linejoin:round; stroke-width:2; stroke-opacity:0.1; fill:none" points="155.765,1299.01 2352.76,1299.01 "/>
<polyline clip-path="url(#clip702)" style="stroke:#000000; stroke-linecap:round; stroke-linejoin:round; stroke-width:2; stroke-opacity:0.1; fill:none" points="155.765,1091.96 2352.76,1091.96 "/>
<polyline clip-path="url(#clip702)" style="stroke:#000000; stroke-linecap:round; stroke-linejoin:round; stroke-width:2; stroke-opacity:0.1; fill:none" points="155.765,884.897 2352.76,884.897 "/>
<polyline clip-path="url(#clip702)" style="stroke:#000000; stroke-linecap:round; stroke-linejoin:round; stroke-width:2; stroke-opacity:0.1; fill:none" points="155.765,677.839 2352.76,677.839 "/>
<polyline clip-path="url(#clip702)" style="stroke:#000000; stroke-linecap:round; stroke-linejoin:round; stroke-width:2; stroke-opacity:0.1; fill:none" points="155.765,470.781 2352.76,470.781 "/>
<polyline clip-path="url(#clip702)" style="stroke:#000000; stroke-linecap:round; stroke-linejoin:round; stroke-width:2; stroke-opacity:0.1; fill:none" points="155.765,263.723 2352.76,263.723 "/>
<polyline clip-path="url(#clip702)" style="stroke:#000000; stroke-linecap:round; stroke-linejoin:round; stroke-width:2; stroke-opacity:0.1; fill:none" points="155.765,56.6647 2352.76,56.6647 "/>
<polyline clip-path="url(#clip700)" style="stroke:#000000; stroke-linecap:round; stroke-linejoin:round; stroke-width:4; stroke-opacity:1; fill:none" points="155.765,1486.45 2352.76,1486.45 "/>
<polyline clip-path="url(#clip700)" style="stroke:#000000; stroke-linecap:round; stroke-linejoin:round; stroke-width:4; stroke-opacity:1; fill:none" points="276.586,1486.45 276.586,1467.55 "/>
<polyline clip-path="url(#clip700)" style="stroke:#000000; stroke-linecap:round; stroke-linejoin:round; stroke-width:4; stroke-opacity:1; fill:none" points="907.706,1486.45 907.706,1467.55 "/>
<polyline clip-path="url(#clip700)" style="stroke:#000000; stroke-linecap:round; stroke-linejoin:round; stroke-width:4; stroke-opacity:1; fill:none" points="1538.83,1486.45 1538.83,1467.55 "/>
<polyline clip-path="url(#clip700)" style="stroke:#000000; stroke-linecap:round; stroke-linejoin:round; stroke-width:4; stroke-opacity:1; fill:none" points="2169.95,1486.45 2169.95,1467.55 "/>
<path clip-path="url(#clip700)" d="M223.114 1532.02 L252.789 1532.02 L252.789 1535.95 L223.114 1535.95 L223.114 1532.02 Z" fill="#000000" fill-rule="nonzero" fill-opacity="1" /><path clip-path="url(#clip700)" d="M263.692 1544.91 L271.331 1544.91 L271.331 1518.55 L263.021 1520.21 L263.021 1515.95 L271.285 1514.29 L275.961 1514.29 L275.961 1544.91 L283.599 1544.91 L283.599 1548.85 L263.692 1548.85 L263.692 1544.91 Z" fill="#000000" fill-rule="nonzero" fill-opacity="1" /><path clip-path="url(#clip700)" d="M293.044 1542.97 L297.928 1542.97 L297.928 1548.85 L293.044 1548.85 L293.044 1542.97 Z" fill="#000000" fill-rule="nonzero" fill-opacity="1" /><path clip-path="url(#clip700)" d="M318.113 1517.37 Q314.502 1517.37 312.673 1520.93 Q310.868 1524.47 310.868 1531.6 Q310.868 1538.71 312.673 1542.27 Q314.502 1545.82 318.113 1545.82 Q321.747 1545.82 323.553 1542.27 Q325.382 1538.71 325.382 1531.6 Q325.382 1524.47 323.553 1520.93 Q321.747 1517.37 318.113 1517.37 M318.113 1513.66 Q323.923 1513.66 326.979 1518.27 Q330.057 1522.85 330.057 1531.6 Q330.057 1540.33 326.979 1544.94 Q323.923 1549.52 318.113 1549.52 Q312.303 1549.52 309.224 1544.94 Q306.169 1540.33 306.169 1531.6 Q306.169 1522.85 309.224 1518.27 Q312.303 1513.66 318.113 1513.66 Z" fill="#000000" fill-rule="nonzero" fill-opacity="1" /><path clip-path="url(#clip700)" d="M854.732 1532.02 L884.407 1532.02 L884.407 1535.95 L854.732 1535.95 L854.732 1532.02 Z" fill="#000000" fill-rule="nonzero" fill-opacity="1" /><path clip-path="url(#clip700)" d="M904.5 1517.37 Q900.889 1517.37 899.06 1520.93 Q897.255 1524.47 897.255 1531.6 Q897.255 1538.71 899.06 1542.27 Q900.889 1545.82 904.5 1545.82 Q908.134 1545.82 909.94 1542.27 Q911.768 1538.71 911.768 1531.6 Q911.768 1524.47 909.94 1520.93 Q908.134 1517.37 904.5 1517.37 M904.5 1513.66 Q910.31 1513.66 913.366 1518.27 Q916.444 1522.85 916.444 1531.6 Q916.444 1540.33 913.366 1544.94 Q910.31 1549.52 904.5 1549.52 Q898.69 1549.52 895.611 1544.94 Q892.556 1540.33 892.556 1531.6 Q892.556 1522.85 895.611 1518.27 Q898.69 1513.66 904.5 1513.66 Z" fill="#000000" fill-rule="nonzero" fill-opacity="1" /><path clip-path="url(#clip700)" d="M924.662 1542.97 L929.546 1542.97 L929.546 1548.85 L924.662 1548.85 L924.662 1542.97 Z" fill="#000000" fill-rule="nonzero" fill-opacity="1" /><path clip-path="url(#clip700)" d="M939.777 1514.29 L958.134 1514.29 L958.134 1518.22 L944.06 1518.22 L944.06 1526.7 Q945.078 1526.35 946.097 1526.19 Q947.115 1526 948.134 1526 Q953.921 1526 957.301 1529.17 Q960.68 1532.34 960.68 1537.76 Q960.68 1543.34 957.208 1546.44 Q953.736 1549.52 947.416 1549.52 Q945.24 1549.52 942.972 1549.15 Q940.727 1548.78 938.319 1548.04 L938.319 1543.34 Q940.402 1544.47 942.625 1545.03 Q944.847 1545.58 947.324 1545.58 Q951.328 1545.58 953.666 1543.48 Q956.004 1541.37 956.004 1537.76 Q956.004 1534.15 953.666 1532.04 Q951.328 1529.94 947.324 1529.94 Q945.449 1529.94 943.574 1530.35 Q941.722 1530.77 939.777 1531.65 L939.777 1514.29 Z" fill="#000000" fill-rule="nonzero" fill-opacity="1" /><path clip-path="url(#clip700)" d="M1516.21 1517.37 Q1512.6 1517.37 1510.77 1520.93 Q1508.97 1524.47 1508.97 1531.6 Q1508.97 1538.71 1510.77 1542.27 Q1512.6 1545.82 1516.21 1545.82 Q1519.84 1545.82 1521.65 1542.27 Q1523.48 1538.71 1523.48 1531.6 Q1523.48 1524.47 1521.65 1520.93 Q1519.84 1517.37 1516.21 1517.37 M1516.21 1513.66 Q1522.02 1513.66 1525.08 1518.27 Q1528.16 1522.85 1528.16 1531.6 Q1528.16 1540.33 1525.08 1544.94 Q1522.02 1549.52 1516.21 1549.52 Q1510.4 1549.52 1507.32 1544.94 Q1504.27 1540.33 1504.27 1531.6 Q1504.27 1522.85 1507.32 1518.27 Q1510.4 1513.66 1516.21 1513.66 Z" fill="#000000" fill-rule="nonzero" fill-opacity="1" /><path clip-path="url(#clip700)" d="M1536.37 1542.97 L1541.26 1542.97 L1541.26 1548.85 L1536.37 1548.85 L1536.37 1542.97 Z" fill="#000000" fill-rule="nonzero" fill-opacity="1" /><path clip-path="url(#clip700)" d="M1561.44 1517.37 Q1557.83 1517.37 1556 1520.93 Q1554.2 1524.47 1554.2 1531.6 Q1554.2 1538.71 1556 1542.27 Q1557.83 1545.82 1561.44 1545.82 Q1565.08 1545.82 1566.88 1542.27 Q1568.71 1538.71 1568.71 1531.6 Q1568.71 1524.47 1566.88 1520.93 Q1565.08 1517.37 1561.44 1517.37 M1561.44 1513.66 Q1567.25 1513.66 1570.31 1518.27 Q1573.39 1522.85 1573.39 1531.6 Q1573.39 1540.33 1570.31 1544.94 Q1567.25 1549.52 1561.44 1549.52 Q1555.63 1549.52 1552.55 1544.94 Q1549.5 1540.33 1549.5 1531.6 Q1549.5 1522.85 1552.55 1518.27 Q1555.63 1513.66 1561.44 1513.66 Z" fill="#000000" fill-rule="nonzero" fill-opacity="1" /><path clip-path="url(#clip700)" d="M2147.83 1517.37 Q2144.22 1517.37 2142.39 1520.93 Q2140.58 1524.47 2140.58 1531.6 Q2140.58 1538.71 2142.39 1542.27 Q2144.22 1545.82 2147.83 1545.82 Q2151.46 1545.82 2153.27 1542.27 Q2155.1 1538.71 2155.1 1531.6 Q2155.1 1524.47 2153.27 1520.93 Q2151.46 1517.37 2147.83 1517.37 M2147.83 1513.66 Q2153.64 1513.66 2156.69 1518.27 Q2159.77 1522.85 2159.77 1531.6 Q2159.77 1540.33 2156.69 1544.94 Q2153.64 1549.52 2147.83 1549.52 Q2142.02 1549.52 2138.94 1544.94 Q2135.88 1540.33 2135.88 1531.6 Q2135.88 1522.85 2138.94 1518.27 Q2142.02 1513.66 2147.83 1513.66 Z" fill="#000000" fill-rule="nonzero" fill-opacity="1" /><path clip-path="url(#clip700)" d="M2167.99 1542.97 L2172.87 1542.97 L2172.87 1548.85 L2167.99 1548.85 L2167.99 1542.97 Z" fill="#000000" fill-rule="nonzero" fill-opacity="1" /><path clip-path="url(#clip700)" d="M2183.11 1514.29 L2201.46 1514.29 L2201.46 1518.22 L2187.39 1518.22 L2187.39 1526.7 Q2188.41 1526.35 2189.43 1526.19 Q2190.44 1526 2191.46 1526 Q2197.25 1526 2200.63 1529.17 Q2204.01 1532.34 2204.01 1537.76 Q2204.01 1543.34 2200.54 1546.44 Q2197.06 1549.52 2190.75 1549.52 Q2188.57 1549.52 2186.3 1549.15 Q2184.06 1548.78 2181.65 1548.04 L2181.65 1543.34 Q2183.73 1544.47 2185.95 1545.03 Q2188.18 1545.58 2190.65 1545.58 Q2194.66 1545.58 2197 1543.48 Q2199.33 1541.37 2199.33 1537.76 Q2199.33 1534.15 2197 1532.04 Q2194.66 1529.94 2190.65 1529.94 Q2188.78 1529.94 2186.9 1530.35 Q2185.05 1530.77 2183.11 1531.65 L2183.11 1514.29 Z" fill="#000000" fill-rule="nonzero" fill-opacity="1" /><polyline clip-path="url(#clip700)" style="stroke:#000000; stroke-linecap:round; stroke-linejoin:round; stroke-width:4; stroke-opacity:1; fill:none" points="155.765,1486.45 155.765,47.2441 "/>
<polyline clip-path="url(#clip700)" style="stroke:#000000; stroke-linecap:round; stroke-linejoin:round; stroke-width:4; stroke-opacity:1; fill:none" points="155.765,1299.01 174.663,1299.01 "/>
<polyline clip-path="url(#clip700)" style="stroke:#000000; stroke-linecap:round; stroke-linejoin:round; stroke-width:4; stroke-opacity:1; fill:none" points="155.765,1091.96 174.663,1091.96 "/>
<polyline clip-path="url(#clip700)" style="stroke:#000000; stroke-linecap:round; stroke-linejoin:round; stroke-width:4; stroke-opacity:1; fill:none" points="155.765,884.897 174.663,884.897 "/>
<polyline clip-path="url(#clip700)" style="stroke:#000000; stroke-linecap:round; stroke-linejoin:round; stroke-width:4; stroke-opacity:1; fill:none" points="155.765,677.839 174.663,677.839 "/>
<polyline clip-path="url(#clip700)" style="stroke:#000000; stroke-linecap:round; stroke-linejoin:round; stroke-width:4; stroke-opacity:1; fill:none" points="155.765,470.781 174.663,470.781 "/>
<polyline clip-path="url(#clip700)" style="stroke:#000000; stroke-linecap:round; stroke-linejoin:round; stroke-width:4; stroke-opacity:1; fill:none" points="155.765,263.723 174.663,263.723 "/>
<polyline clip-path="url(#clip700)" style="stroke:#000000; stroke-linecap:round; stroke-linejoin:round; stroke-width:4; stroke-opacity:1; fill:none" points="155.765,56.6647 174.663,56.6647 "/>
<path clip-path="url(#clip700)" d="M63.5847 1284.81 Q59.9736 1284.81 58.1449 1288.38 Q56.3393 1291.92 56.3393 1299.05 Q56.3393 1306.15 58.1449 1309.72 Q59.9736 1313.26 63.5847 1313.26 Q67.2189 1313.26 69.0244 1309.72 Q70.8531 1306.15 70.8531 1299.05 Q70.8531 1291.92 69.0244 1288.38 Q67.2189 1284.81 63.5847 1284.81 M63.5847 1281.11 Q69.3948 1281.11 72.4503 1285.71 Q75.529 1290.3 75.529 1299.05 Q75.529 1307.78 72.4503 1312.38 Q69.3948 1316.96 63.5847 1316.96 Q57.7745 1316.96 54.6958 1312.38 Q51.6403 1307.78 51.6403 1299.05 Q51.6403 1290.3 54.6958 1285.71 Q57.7745 1281.11 63.5847 1281.11 Z" fill="#000000" fill-rule="nonzero" fill-opacity="1" /><path clip-path="url(#clip700)" d="M83.7466 1310.41 L88.6308 1310.41 L88.6308 1316.29 L83.7466 1316.29 L83.7466 1310.41 Z" fill="#000000" fill-rule="nonzero" fill-opacity="1" /><path clip-path="url(#clip700)" d="M98.8622 1281.73 L117.219 1281.73 L117.219 1285.67 L103.145 1285.67 L103.145 1294.14 Q104.163 1293.79 105.182 1293.63 Q106.2 1293.45 107.219 1293.45 Q113.006 1293.45 116.385 1296.62 Q119.765 1299.79 119.765 1305.21 Q119.765 1310.78 116.293 1313.89 Q112.82 1316.96 106.501 1316.96 Q104.325 1316.96 102.057 1316.59 Q99.8113 1316.22 97.4039 1315.48 L97.4039 1310.78 Q99.4872 1311.92 101.709 1312.47 Q103.932 1313.03 106.408 1313.03 Q110.413 1313.03 112.751 1310.92 Q115.089 1308.82 115.089 1305.21 Q115.089 1301.59 112.751 1299.49 Q110.413 1297.38 106.408 1297.38 Q104.534 1297.38 102.659 1297.8 Q100.807 1298.21 98.8622 1299.09 L98.8622 1281.73 Z" fill="#000000" fill-rule="nonzero" fill-opacity="1" /><path clip-path="url(#clip700)" d="M53.3995 1105.3 L61.0384 1105.3 L61.0384 1078.93 L52.7282 1080.6 L52.7282 1076.34 L60.9921 1074.68 L65.668 1074.68 L65.668 1105.3 L73.3068 1105.3 L73.3068 1109.24 L53.3995 1109.24 L53.3995 1105.3 Z" fill="#000000" fill-rule="nonzero" fill-opacity="1" /><path clip-path="url(#clip700)" d="M82.7512 1103.36 L87.6354 1103.36 L87.6354 1109.24 L82.7512 1109.24 L82.7512 1103.36 Z" fill="#000000" fill-rule="nonzero" fill-opacity="1" /><path clip-path="url(#clip700)" d="M107.821 1077.75 Q104.209 1077.75 102.381 1081.32 Q100.575 1084.86 100.575 1091.99 Q100.575 1099.1 102.381 1102.66 Q104.209 1106.2 107.821 1106.2 Q111.455 1106.2 113.26 1102.66 Q115.089 1099.1 115.089 1091.99 Q115.089 1084.86 113.26 1081.32 Q111.455 1077.75 107.821 1077.75 M107.821 1074.05 Q113.631 1074.05 116.686 1078.66 Q119.765 1083.24 119.765 1091.99 Q119.765 1100.72 116.686 1105.32 Q113.631 1109.91 107.821 1109.91 Q102.01 1109.91 98.9317 1105.32 Q95.8761 1100.72 95.8761 1091.99 Q95.8761 1083.24 98.9317 1078.66 Q102.01 1074.05 107.821 1074.05 Z" fill="#000000" fill-rule="nonzero" fill-opacity="1" /><path clip-path="url(#clip700)" d="M54.3949 898.242 L62.0337 898.242 L62.0337 871.876 L53.7236 873.543 L53.7236 869.284 L61.9874 867.617 L66.6633 867.617 L66.6633 898.242 L74.3022 898.242 L74.3022 902.177 L54.3949 902.177 L54.3949 898.242 Z" fill="#000000" fill-rule="nonzero" fill-opacity="1" /><path clip-path="url(#clip700)" d="M83.7466 896.298 L88.6308 896.298 L88.6308 902.177 L83.7466 902.177 L83.7466 896.298 Z" fill="#000000" fill-rule="nonzero" fill-opacity="1" /><path clip-path="url(#clip700)" d="M98.8622 867.617 L117.219 867.617 L117.219 871.552 L103.145 871.552 L103.145 880.025 Q104.163 879.677 105.182 879.515 Q106.2 879.33 107.219 879.33 Q113.006 879.33 116.385 882.501 Q119.765 885.673 119.765 891.089 Q119.765 896.668 116.293 899.77 Q112.82 902.849 106.501 902.849 Q104.325 902.849 102.057 902.478 Q99.8113 902.108 97.4039 901.367 L97.4039 896.668 Q99.4872 897.802 101.709 898.358 Q103.932 898.913 106.408 898.913 Q110.413 898.913 112.751 896.807 Q115.089 894.7 115.089 891.089 Q115.089 887.478 112.751 885.372 Q110.413 883.265 106.408 883.265 Q104.534 883.265 102.659 883.682 Q100.807 884.099 98.8622 884.978 L98.8622 867.617 Z" fill="#000000" fill-rule="nonzero" fill-opacity="1" /><path clip-path="url(#clip700)" d="M56.6171 691.184 L72.9365 691.184 L72.9365 695.119 L50.9921 695.119 L50.9921 691.184 Q53.6541 688.429 58.2375 683.8 Q62.8439 679.147 64.0245 677.804 Q66.2698 675.281 67.1494 673.545 Q68.0522 671.786 68.0522 670.096 Q68.0522 667.341 66.1078 665.605 Q64.1865 663.869 61.0847 663.869 Q58.8856 663.869 56.4319 664.633 Q54.0014 665.397 51.2236 666.948 L51.2236 662.226 Q54.0477 661.091 56.5014 660.513 Q58.955 659.934 60.9921 659.934 Q66.3624 659.934 69.5568 662.619 Q72.7513 665.304 72.7513 669.795 Q72.7513 671.925 71.9411 673.846 Q71.1541 675.744 69.0476 678.337 Q68.4689 679.008 65.367 682.226 Q62.2652 685.42 56.6171 691.184 Z" fill="#000000" fill-rule="nonzero" fill-opacity="1" /><path clip-path="url(#clip700)" d="M82.7512 689.239 L87.6354 689.239 L87.6354 695.119 L82.7512 695.119 L82.7512 689.239 Z" fill="#000000" fill-rule="nonzero" fill-opacity="1" /><path clip-path="url(#clip700)" d="M107.821 663.638 Q104.209 663.638 102.381 667.203 Q100.575 670.744 100.575 677.874 Q100.575 684.98 102.381 688.545 Q104.209 692.087 107.821 692.087 Q111.455 692.087 113.26 688.545 Q115.089 684.98 115.089 677.874 Q115.089 670.744 113.26 667.203 Q111.455 663.638 107.821 663.638 M107.821 659.934 Q113.631 659.934 116.686 664.541 Q119.765 669.124 119.765 677.874 Q119.765 686.601 116.686 691.207 Q113.631 695.79 107.821 695.79 Q102.01 695.79 98.9317 691.207 Q95.8761 686.601 95.8761 677.874 Q95.8761 669.124 98.9317 664.541 Q102.01 659.934 107.821 659.934 Z" fill="#000000" fill-rule="nonzero" fill-opacity="1" /><path clip-path="url(#clip700)" d="M57.6125 484.126 L73.9318 484.126 L73.9318 488.061 L51.9875 488.061 L51.9875 484.126 Q54.6495 481.371 59.2328 476.742 Q63.8393 472.089 65.0198 470.746 Q67.2652 468.223 68.1448 466.487 Q69.0476 464.728 69.0476 463.038 Q69.0476 460.283 67.1032 458.547 Q65.1819 456.811 62.08 456.811 Q59.881 456.811 57.4273 457.575 Q54.9967 458.339 52.219 459.89 L52.219 455.168 Q55.043 454.033 57.4967 453.455 Q59.9504 452.876 61.9874 452.876 Q67.3578 452.876 70.5522 455.561 Q73.7466 458.246 73.7466 462.737 Q73.7466 464.867 72.9365 466.788 Q72.1494 468.686 70.0429 471.279 Q69.4642 471.95 66.3624 475.167 Q63.2606 478.362 57.6125 484.126 Z" fill="#000000" fill-rule="nonzero" fill-opacity="1" /><path clip-path="url(#clip700)" d="M83.7466 482.181 L88.6308 482.181 L88.6308 488.061 L83.7466 488.061 L83.7466 482.181 Z" fill="#000000" fill-rule="nonzero" fill-opacity="1" /><path clip-path="url(#clip700)" d="M98.8622 453.501 L117.219 453.501 L117.219 457.436 L103.145 457.436 L103.145 465.908 Q104.163 465.561 105.182 465.399 Q106.2 465.214 107.219 465.214 Q113.006 465.214 116.385 468.385 Q119.765 471.556 119.765 476.973 Q119.765 482.552 116.293 485.654 Q112.82 488.732 106.501 488.732 Q104.325 488.732 102.057 488.362 Q99.8113 487.991 97.4039 487.251 L97.4039 482.552 Q99.4872 483.686 101.709 484.242 Q103.932 484.797 106.408 484.797 Q110.413 484.797 112.751 482.691 Q115.089 480.584 115.089 476.973 Q115.089 473.362 112.751 471.255 Q110.413 469.149 106.408 469.149 Q104.534 469.149 102.659 469.566 Q100.807 469.982 98.8622 470.862 L98.8622 453.501 Z" fill="#000000" fill-rule="nonzero" fill-opacity="1" /><path clip-path="url(#clip700)" d="M66.7559 262.369 Q70.1124 263.086 71.9874 265.355 Q73.8855 267.623 73.8855 270.957 Q73.8855 276.072 70.367 278.873 Q66.8485 281.674 60.3671 281.674 Q58.1912 281.674 55.8764 281.234 Q53.5847 280.818 51.131 279.961 L51.131 275.447 Q53.0754 276.582 55.3903 277.16 Q57.7051 277.739 60.2282 277.739 Q64.6263 277.739 66.918 276.003 Q69.2328 274.267 69.2328 270.957 Q69.2328 267.901 67.08 266.188 Q64.9504 264.452 61.131 264.452 L57.1032 264.452 L57.1032 260.609 L61.3161 260.609 Q64.7652 260.609 66.5939 259.244 Q68.4226 257.855 68.4226 255.262 Q68.4226 252.6 66.5245 251.188 Q64.6495 249.753 61.131 249.753 Q59.2097 249.753 57.0106 250.17 Q54.8115 250.586 52.1727 251.466 L52.1727 247.299 Q54.8347 246.559 57.1495 246.188 Q59.4875 245.818 61.5476 245.818 Q66.8717 245.818 69.9735 248.248 Q73.0753 250.656 73.0753 254.776 Q73.0753 257.646 71.4318 259.637 Q69.7883 261.605 66.7559 262.369 Z" fill="#000000" fill-rule="nonzero" fill-opacity="1" /><path clip-path="url(#clip700)" d="M82.7512 275.123 L87.6354 275.123 L87.6354 281.003 L82.7512 281.003 L82.7512 275.123 Z" fill="#000000" fill-rule="nonzero" fill-opacity="1" /><path clip-path="url(#clip700)" d="M107.821 249.521 Q104.209 249.521 102.381 253.086 Q100.575 256.628 100.575 263.758 Q100.575 270.864 102.381 274.429 Q104.209 277.97 107.821 277.97 Q111.455 277.97 113.26 274.429 Q115.089 270.864 115.089 263.758 Q115.089 256.628 113.26 253.086 Q111.455 249.521 107.821 249.521 M107.821 245.818 Q113.631 245.818 116.686 250.424 Q119.765 255.008 119.765 263.758 Q119.765 272.484 116.686 277.091 Q113.631 281.674 107.821 281.674 Q102.01 281.674 98.9317 277.091 Q95.8761 272.484 95.8761 263.758 Q95.8761 255.008 98.9317 250.424 Q102.01 245.818 107.821 245.818 Z" fill="#000000" fill-rule="nonzero" fill-opacity="1" /><path clip-path="url(#clip700)" d="M67.7513 55.3105 Q71.1078 56.0281 72.9827 58.2966 Q74.8809 60.5651 74.8809 63.8984 Q74.8809 69.0141 71.3624 71.8151 Q67.8439 74.616 61.3624 74.616 Q59.1865 74.616 56.8717 74.1761 Q54.5801 73.7595 52.1264 72.903 L52.1264 68.3891 Q54.0708 69.5234 56.3856 70.1021 Q58.7004 70.6808 61.2236 70.6808 Q65.6217 70.6808 67.9133 68.9447 Q70.2281 67.2086 70.2281 63.8984 Q70.2281 60.8429 68.0754 59.1299 Q65.9457 57.3938 62.1263 57.3938 L58.0986 57.3938 L58.0986 53.5513 L62.3115 53.5513 Q65.7606 53.5513 67.5893 52.1855 Q69.418 50.7966 69.418 48.2041 Q69.418 45.542 67.5198 44.13 Q65.6448 42.6948 62.1263 42.6948 Q60.205 42.6948 58.006 43.1115 Q55.8069 43.5282 53.168 44.4078 L53.168 40.2411 Q55.8301 39.5004 58.1449 39.13 Q60.4828 38.7597 62.543 38.7597 Q67.867 38.7597 70.9689 41.1902 Q74.0707 43.5976 74.0707 47.718 Q74.0707 50.5883 72.4272 52.579 Q70.7837 54.5466 67.7513 55.3105 Z" fill="#000000" fill-rule="nonzero" fill-opacity="1" /><path clip-path="url(#clip700)" d="M83.7466 68.0651 L88.6308 68.0651 L88.6308 73.9447 L83.7466 73.9447 L83.7466 68.0651 Z" fill="#000000" fill-rule="nonzero" fill-opacity="1" /><path clip-path="url(#clip700)" d="M98.8622 39.3847 L117.219 39.3847 L117.219 43.3198 L103.145 43.3198 L103.145 51.792 Q104.163 51.4448 105.182 51.2828 Q106.2 51.0976 107.219 51.0976 Q113.006 51.0976 116.385 54.2688 Q119.765 57.4401 119.765 62.8568 Q119.765 68.4354 116.293 71.5373 Q112.82 74.616 106.501 74.616 Q104.325 74.616 102.057 74.2456 Q99.8113 73.8752 97.4039 73.1345 L97.4039 68.4354 Q99.4872 69.5697 101.709 70.1252 Q103.932 70.6808 106.408 70.6808 Q110.413 70.6808 112.751 68.5743 Q115.089 66.4679 115.089 62.8568 Q115.089 59.2457 112.751 57.1392 Q110.413 55.0327 106.408 55.0327 Q104.534 55.0327 102.659 55.4494 Q100.807 55.8661 98.8622 56.7457 L98.8622 39.3847 Z" fill="#000000" fill-rule="nonzero" fill-opacity="1" /><circle clip-path="url(#clip702)" cx="2290.58" cy="1284.83" r="14.4" fill="#808080" fill-rule="evenodd" fill-opacity="1" stroke="#000000" stroke-opacity="1" stroke-width="3.2"/>
<circle clip-path="url(#clip702)" cx="217.944" cy="87.9763" r="14.4" fill="#808080" fill-rule="evenodd" fill-opacity="1" stroke="#000000" stroke-opacity="1" stroke-width="3.2"/>
<circle clip-path="url(#clip702)" cx="1433.67" cy="1445.72" r="14.4" fill="#808080" fill-rule="evenodd" fill-opacity="1" stroke="#000000" stroke-opacity="1" stroke-width="3.2"/>
<circle clip-path="url(#clip702)" cx="1524.54" cy="1427.2" r="14.4" fill="#808080" fill-rule="evenodd" fill-opacity="1" stroke="#000000" stroke-opacity="1" stroke-width="3.2"/>
<path clip-path="url(#clip700)" d="M2294.87 1292.26 Q2285.84 1292.26 2282.35 1294.33 Q2278.87 1296.39 2278.87 1301.38 Q2278.87 1305.35 2281.46 1307.7 Q2284.1 1310 2288.59 1310 Q2294.79 1310 2298.52 1305.63 Q2302.28 1301.21 2302.28 1293.92 L2302.28 1292.26 L2294.87 1292.26 M2309.74 1289.18 L2309.74 1315.07 L2302.28 1315.07 L2302.28 1308.18 Q2299.73 1312.31 2295.92 1314.3 Q2292.12 1316.24 2286.61 1316.24 Q2279.64 1316.24 2275.51 1312.35 Q2271.42 1308.42 2271.42 1301.86 Q2271.42 1294.21 2276.52 1290.32 Q2281.66 1286.43 2291.83 1286.43 L2302.28 1286.43 L2302.28 1285.7 Q2302.28 1280.55 2298.88 1277.76 Q2295.52 1274.92 2289.4 1274.92 Q2285.51 1274.92 2281.83 1275.86 Q2278.14 1276.79 2274.74 1278.65 L2274.74 1271.76 Q2278.83 1270.18 2282.68 1269.41 Q2286.53 1268.6 2290.17 1268.6 Q2300.02 1268.6 2304.88 1273.71 Q2309.74 1278.81 2309.74 1289.18 Z" fill="#000000" fill-rule="nonzero" fill-opacity="1" /><path clip-path="url(#clip700)" d="M230.502 95.5717 Q230.502 87.3484 227.099 82.6898 Q223.737 77.9908 217.822 77.9908 Q211.908 77.9908 208.505 82.6898 Q205.143 87.3484 205.143 95.5717 Q205.143 103.795 208.505 108.494 Q211.908 113.153 217.822 113.153 Q223.737 113.153 227.099 108.494 Q230.502 103.795 230.502 95.5717 M205.143 79.7327 Q207.493 75.6818 211.057 73.7373 Q214.663 71.7524 219.645 71.7524 Q227.909 71.7524 233.054 78.3149 Q238.239 84.8773 238.239 95.5717 Q238.239 106.266 233.054 112.829 Q227.909 119.391 219.645 119.391 Q214.663 119.391 211.057 117.447 Q207.493 115.462 205.143 111.411 L205.143 118.216 L197.649 118.216 L197.649 55.1842 L205.143 55.1842 L205.143 79.7327 Z" fill="#000000" fill-rule="nonzero" fill-opacity="1" /><path clip-path="url(#clip700)" d="M1451.62 1432.33 L1451.62 1439.3 Q1448.46 1437.55 1445.26 1436.7 Q1442.1 1435.81 1438.86 1435.81 Q1431.6 1435.81 1427.59 1440.43 Q1423.58 1445.01 1423.58 1453.31 Q1423.58 1461.62 1427.59 1466.23 Q1431.6 1470.81 1438.86 1470.81 Q1442.1 1470.81 1445.26 1469.96 Q1448.46 1469.07 1451.62 1467.33 L1451.62 1474.21 Q1448.5 1475.67 1445.13 1476.4 Q1441.81 1477.13 1438.05 1477.13 Q1427.8 1477.13 1421.76 1470.69 Q1415.72 1464.25 1415.72 1453.31 Q1415.72 1442.21 1421.8 1435.85 Q1427.92 1429.49 1438.53 1429.49 Q1441.97 1429.49 1445.26 1430.22 Q1448.54 1430.91 1451.62 1432.33 Z" fill="#000000" fill-rule="nonzero" fill-opacity="1" /><path clip-path="url(#clip700)" d="M1537.36 1418.96 L1537.36 1394.41 L1544.81 1394.41 L1544.81 1457.44 L1537.36 1457.44 L1537.36 1450.64 Q1535.01 1454.69 1531.41 1456.67 Q1527.84 1458.62 1522.82 1458.62 Q1514.59 1458.62 1509.41 1452.05 Q1504.26 1445.49 1504.26 1434.8 Q1504.26 1424.1 1509.41 1417.54 Q1514.59 1410.98 1522.82 1410.98 Q1527.84 1410.98 1531.41 1412.96 Q1535.01 1414.91 1537.36 1418.96 M1511.96 1434.8 Q1511.96 1443.02 1515.32 1447.72 Q1518.73 1452.38 1524.64 1452.38 Q1530.55 1452.38 1533.96 1447.72 Q1537.36 1443.02 1537.36 1434.8 Q1537.36 1426.57 1533.96 1421.91 Q1530.55 1417.22 1524.64 1417.22 Q1518.73 1417.22 1515.32 1421.91 Q1511.96 1426.57 1511.96 1434.8 Z" fill="#000000" fill-rule="nonzero" fill-opacity="1" /><path clip-path="url(#clip700)" d="M2007.39 198.898 L2279.52 198.898 L2279.52 95.2176 L2007.39 95.2176  Z" fill="#ffffff" fill-rule="evenodd" fill-opacity="1"/>
<polyline clip-path="url(#clip700)" style="stroke:#000000; stroke-linecap:round; stroke-linejoin:round; stroke-width:4; stroke-opacity:1; fill:none" points="2007.39,198.898 2279.52,198.898 2279.52,95.2176 2007.39,95.2176 2007.39,198.898 "/>
<circle clip-path="url(#clip700)" cx="2105.04" cy="147.058" r="20.48" fill="#808080" fill-rule="evenodd" fill-opacity="1" stroke="#000000" stroke-opacity="1" stroke-width="4.55111"/>
<path clip-path="url(#clip700)" d="M2216.52 166.745 Q2214.72 171.375 2213.01 172.787 Q2211.29 174.199 2208.42 174.199 L2205.02 174.199 L2205.02 170.634 L2207.52 170.634 Q2209.28 170.634 2210.25 169.8 Q2211.22 168.967 2212.4 165.865 L2213.17 163.921 L2202.68 138.412 L2207.2 138.412 L2215.3 158.689 L2223.4 138.412 L2227.91 138.412 L2216.52 166.745 Z" fill="#000000" fill-rule="nonzero" fill-opacity="1" /><path clip-path="url(#clip700)" d="M2235.2 160.402 L2242.84 160.402 L2242.84 134.037 L2234.53 135.703 L2234.53 131.444 L2242.8 129.778 L2247.47 129.778 L2247.47 160.402 L2255.11 160.402 L2255.11 164.338 L2235.2 164.338 L2235.2 160.402 Z" fill="#000000" fill-rule="nonzero" fill-opacity="1" /></svg>
