<?xml version="1.0" encoding="utf-8"?>
<svg xmlns="http://www.w3.org/2000/svg" xmlns:xlink="http://www.w3.org/1999/xlink" width="600" height="400" viewBox="0 0 2400 1600">
<defs>
  <clipPath id="clip030">
    <rect x="0" y="0" width="2400" height="1600"/>
  </clipPath>
</defs>
<path clip-path="url(#clip030)" d="M0 1600 L2400 1600 L2400 0 L0 0  Z" fill="#ffffff" fill-rule="evenodd" fill-opacity="1"/>
<defs>
  <clipPath id="clip031">
    <rect x="480" y="0" width="1681" height="1600"/>
  </clipPath>
</defs>
<path clip-path="url(#clip030)" d="M186.274 1486.45 L2352.76 1486.45 L2352.76 47.2441 L186.274 47.2441  Z" fill="#ffffff" fill-rule="evenodd" fill-opacity="1"/>
<defs>
  <clipPath id="clip032">
    <rect x="186" y="47" width="2167" height="1440"/>
  </clipPath>
</defs>
<polyline clip-path="url(#clip032)" style="stroke:#000000; stroke-linecap:round; stroke-linejoin:round; stroke-width:2; stroke-opacity:0.1; fill:none" points="402.145,1486.45 402.145,47.2441 "/>
<polyline clip-path="url(#clip032)" style="stroke:#000000; stroke-linecap:round; stroke-linejoin:round; stroke-width:2; stroke-opacity:0.1; fill:none" points="888.006,1486.45 888.006,47.2441 "/>
<polyline clip-path="url(#clip032)" style="stroke:#000000; stroke-linecap:round; stroke-linejoin:round; stroke-width:2; stroke-opacity:0.1; fill:none" points="1373.87,1486.45 1373.87,47.2441 "/>
<polyline clip-path="url(#clip032)" style="stroke:#000000; stroke-linecap:round; stroke-linejoin:round; stroke-width:2; stroke-opacity:0.1; fill:none" points="1859.73,1486.45 1859.73,47.2441 "/>
<polyline clip-path="url(#clip032)" style="stroke:#000000; stroke-linecap:round; stroke-linejoin:round; stroke-width:2; stroke-opacity:0.1; fill:none" points="2345.59,1486.45 2345.59,47.2441 "/>
<polyline clip-path="url(#clip030)" style="stroke:#000000; stroke-linecap:round; stroke-linejoin:round; stroke-width:4; stroke-opacity:1; fill:none" points="186.274,1486.45 2352.76,1486.45 "/>
<polyline clip-path="url(#clip030)" style="stroke:#000000; stroke-linecap:round; stroke-linejoin:round; stroke-width:4; stroke-opacity:1; fill:none" points="402.145,1486.45 402.145,1467.55 "/>
<polyline clip-path="url(#clip030)" style="stroke:#000000; stroke-linecap:round; stroke-linejoin:round; stroke-width:4; stroke-opacity:1; fill:none" points="888.006,1486.45 888.006,1467.55 "/>
<polyline clip-path="url(#clip030)" style="stroke:#000000; stroke-linecap:round; stroke-linejoin:round; stroke-width:4; stroke-opacity:1; fill:none" points="1373.87,1486.45 1373.87,1467.55 "/>
<polyline clip-path="url(#clip030)" style="stroke:#000000; stroke-linecap:round; stroke-linejoin:round; stroke-width:4; stroke-opacity:1; fill:none" points="1859.73,1486.45 1859.73,1467.55 "/>
<polyline clip-path="url(#clip030)" style="stroke:#000000; stroke-linecap:round; stroke-linejoin:round; stroke-width:4; stroke-opacity:1; fill:none" points="2345.59,1486.45 2345.59,1467.55 "/>
<path clip-path="url(#clip030)" d="M348.43 1532.02 L378.106 1532.02 L378.106 1535.95 L348.43 1535.95 L348.43 1532.02 Z" fill="#000000" fill-rule="nonzero" fill-opacity="1" /><path clip-path="url(#clip030)" d="M398.198 1517.37 Q394.587 1517.37 392.759 1520.93 Q390.953 1524.47 390.953 1531.6 Q390.953 1538.71 392.759 1542.27 Q394.587 1545.82 398.198 1545.82 Q401.833 1545.82 403.638 1542.27 Q405.467 1538.71 405.467 1531.6 Q405.467 1524.47 403.638 1520.93 Q401.833 1517.37 398.198 1517.37 M398.198 1513.66 Q404.009 1513.66 407.064 1518.27 Q410.143 1522.85 410.143 1531.6 Q410.143 1540.33 407.064 1544.94 Q404.009 1549.52 398.198 1549.52 Q392.388 1549.52 389.31 1544.94 Q386.254 1540.33 386.254 1531.6 Q386.254 1522.85 389.31 1518.27 Q392.388 1513.66 398.198 1513.66 Z" fill="#000000" fill-rule="nonzero" fill-opacity="1" /><path clip-path="url(#clip030)" d="M418.36 1542.97 L423.245 1542.97 L423.245 1548.85 L418.36 1548.85 L418.36 1542.97 Z" fill="#000000" fill-rule="nonzero" fill-opacity="1" /><path clip-path="url(#clip030)" d="M446.277 1518.36 L434.471 1536.81 L446.277 1536.81 L446.277 1518.36 M445.05 1514.29 L450.93 1514.29 L450.93 1536.81 L455.86 1536.81 L455.86 1540.7 L450.93 1540.7 L450.93 1548.85 L446.277 1548.85 L446.277 1540.7 L430.675 1540.7 L430.675 1536.19 L445.05 1514.29 Z" fill="#000000" fill-rule="nonzero" fill-opacity="1" /><path clip-path="url(#clip030)" d="M835.332 1532.02 L865.008 1532.02 L865.008 1535.95 L835.332 1535.95 L835.332 1532.02 Z" fill="#000000" fill-rule="nonzero" fill-opacity="1" /><path clip-path="url(#clip030)" d="M885.101 1517.37 Q881.49 1517.37 879.661 1520.93 Q877.855 1524.47 877.855 1531.6 Q877.855 1538.71 879.661 1542.27 Q881.49 1545.82 885.101 1545.82 Q888.735 1545.82 890.54 1542.27 Q892.369 1538.71 892.369 1531.6 Q892.369 1524.47 890.54 1520.93 Q888.735 1517.37 885.101 1517.37 M885.101 1513.66 Q890.911 1513.66 893.966 1518.27 Q897.045 1522.85 897.045 1531.6 Q897.045 1540.33 893.966 1544.94 Q890.911 1549.52 885.101 1549.52 Q879.29 1549.52 876.212 1544.94 Q873.156 1540.33 873.156 1531.6 Q873.156 1522.85 876.212 1518.27 Q879.29 1513.66 885.101 1513.66 Z" fill="#000000" fill-rule="nonzero" fill-opacity="1" /><path clip-path="url(#clip030)" d="M905.263 1542.97 L910.147 1542.97 L910.147 1548.85 L905.263 1548.85 L905.263 1542.97 Z" fill="#000000" fill-rule="nonzero" fill-opacity="1" /><path clip-path="url(#clip030)" d="M924.36 1544.91 L940.679 1544.91 L940.679 1548.85 L918.735 1548.85 L918.735 1544.91 Q921.397 1542.16 925.98 1537.53 Q930.586 1532.88 931.767 1531.53 Q934.012 1529.01 934.892 1527.27 Q935.795 1525.51 935.795 1523.82 Q935.795 1521.07 933.85 1519.33 Q931.929 1517.6 928.827 1517.6 Q926.628 1517.6 924.174 1518.36 Q921.744 1519.13 918.966 1520.68 L918.966 1515.95 Q921.79 1514.82 924.244 1514.24 Q926.698 1513.66 928.735 1513.66 Q934.105 1513.66 937.299 1516.35 Q940.494 1519.03 940.494 1523.52 Q940.494 1525.65 939.684 1527.57 Q938.897 1529.47 936.79 1532.07 Q936.211 1532.74 933.11 1535.95 Q930.008 1539.15 924.36 1544.91 Z" fill="#000000" fill-rule="nonzero" fill-opacity="1" /><path clip-path="url(#clip030)" d="M1351.25 1517.37 Q1347.64 1517.37 1345.81 1520.93 Q1344.01 1524.47 1344.01 1531.6 Q1344.01 1538.71 1345.81 1542.27 Q1347.64 1545.82 1351.25 1545.82 Q1354.88 1545.82 1356.69 1542.27 Q1358.52 1538.71 1358.52 1531.6 Q1358.52 1524.47 1356.69 1520.93 Q1354.88 1517.37 1351.25 1517.37 M1351.25 1513.66 Q1357.06 1513.66 1360.12 1518.27 Q1363.2 1522.85 1363.2 1531.6 Q1363.2 1540.33 1360.12 1544.94 Q1357.06 1549.52 1351.25 1549.52 Q1345.44 1549.52 1342.36 1544.94 Q1339.31 1540.33 1339.31 1531.6 Q1339.31 1522.85 1342.36 1518.27 Q1345.44 1513.66 1351.25 1513.66 Z" fill="#000000" fill-rule="nonzero" fill-opacity="1" /><path clip-path="url(#clip030)" d="M1371.41 1542.97 L1376.3 1542.97 L1376.3 1548.85 L1371.41 1548.85 L1371.41 1542.97 Z" fill="#000000" fill-rule="nonzero" fill-opacity="1" /><path clip-path="url(#clip030)" d="M1396.48 1517.37 Q1392.87 1517.37 1391.04 1520.93 Q1389.24 1524.47 1389.24 1531.6 Q1389.24 1538.71 1391.04 1542.27 Q1392.87 1545.82 1396.48 1545.82 Q1400.12 1545.82 1401.92 1542.27 Q1403.75 1538.71 1403.75 1531.6 Q1403.75 1524.47 1401.92 1520.93 Q1400.12 1517.37 1396.48 1517.37 M1396.48 1513.66 Q1402.29 1513.66 1405.35 1518.27 Q1408.43 1522.85 1408.43 1531.6 Q1408.43 1540.33 1405.35 1544.94 Q1402.29 1549.52 1396.48 1549.52 Q1390.67 1549.52 1387.59 1544.94 Q1384.54 1540.33 1384.54 1531.6 Q1384.54 1522.85 1387.59 1518.27 Q1390.67 1513.66 1396.48 1513.66 Z" fill="#000000" fill-rule="nonzero" fill-opacity="1" /><path clip-path="url(#clip030)" d="M1837.91 1517.37 Q1834.3 1517.37 1832.47 1520.93 Q1830.66 1524.47 1830.66 1531.6 Q1830.66 1538.71 1832.47 1542.27 Q1834.3 1545.82 1837.91 1545.82 Q1841.54 1545.82 1843.35 1542.27 Q1845.18 1538.71 1845.18 1531.6 Q1845.18 1524.47 1843.35 1520.93 Q1841.54 1517.37 1837.91 1517.37 M1837.91 1513.66 Q1843.72 1513.66 1846.78 1518.27 Q1849.85 1522.85 1849.85 1531.6 Q1849.85 1540.33 1846.78 1544.94 Q1843.72 1549.52 1837.91 1549.52 Q1832.1 1549.52 1829.02 1544.94 Q1825.97 1540.33 1825.97 1531.6 Q1825.97 1522.85 1829.02 1518.27 Q1832.1 1513.66 1837.91 1513.66 Z" fill="#000000" fill-rule="nonzero" fill-opacity="1" /><path clip-path="url(#clip030)" d="M1858.07 1542.97 L1862.96 1542.97 L1862.96 1548.85 L1858.07 1548.85 L1858.07 1542.97 Z" fill="#000000" fill-rule="nonzero" fill-opacity="1" /><path clip-path="url(#clip030)" d="M1877.17 1544.91 L1893.49 1544.91 L1893.49 1548.85 L1871.54 1548.85 L1871.54 1544.91 Q1874.21 1542.16 1878.79 1537.53 Q1883.4 1532.88 1884.58 1531.53 Q1886.82 1529.01 1887.7 1527.27 Q1888.6 1525.51 1888.6 1523.82 Q1888.6 1521.07 1886.66 1519.33 Q1884.74 1517.6 1881.64 1517.6 Q1879.44 1517.6 1876.98 1518.36 Q1874.55 1519.13 1871.78 1520.68 L1871.78 1515.95 Q1874.6 1514.82 1877.05 1514.24 Q1879.51 1513.66 1881.54 1513.66 Q1886.91 1513.66 1890.11 1516.35 Q1893.3 1519.03 1893.3 1523.52 Q1893.3 1525.65 1892.49 1527.57 Q1891.71 1529.47 1889.6 1532.07 Q1889.02 1532.74 1885.92 1535.95 Q1882.82 1539.15 1877.17 1544.91 Z" fill="#000000" fill-rule="nonzero" fill-opacity="1" /><path clip-path="url(#clip030)" d="M2322.73 1517.37 Q2319.12 1517.37 2317.29 1520.93 Q2315.48 1524.47 2315.48 1531.6 Q2315.48 1538.71 2317.29 1542.27 Q2319.12 1545.82 2322.73 1545.82 Q2326.36 1545.82 2328.17 1542.27 Q2330 1538.71 2330 1531.6 Q2330 1524.47 2328.17 1520.93 Q2326.36 1517.37 2322.73 1517.37 M2322.73 1513.66 Q2328.54 1513.66 2331.59 1518.27 Q2334.67 1522.85 2334.67 1531.6 Q2334.67 1540.33 2331.59 1544.94 Q2328.54 1549.52 2322.73 1549.52 Q2316.92 1549.52 2313.84 1544.94 Q2310.78 1540.33 2310.78 1531.6 Q2310.78 1522.85 2313.84 1518.27 Q2316.92 1513.66 2322.73 1513.66 Z" fill="#000000" fill-rule="nonzero" fill-opacity="1" /><path clip-path="url(#clip030)" d="M2342.89 1542.97 L2347.77 1542.97 L2347.77 1548.85 L2342.89 1548.85 L2342.89 1542.97 Z" fill="#000000" fill-rule="nonzero" fill-opacity="1" /><path clip-path="url(#clip030)" d="M2370.81 1518.36 L2359 1536.81 L2370.81 1536.81 L2370.81 1518.36 M2369.58 1514.29 L2375.46 1514.29 L2375.46 1536.81 L2380.39 1536.81 L2380.39 1540.7 L2375.46 1540.7 L2375.46 1548.85 L2370.81 1548.85 L2370.81 1540.7 L2355.21 1540.7 L2355.21 1536.19 L2369.58 1514.29 Z" fill="#000000" fill-rule="nonzero" fill-opacity="1" /><polyline clip-path="url(#clip032)" style="stroke:#000000; stroke-linecap:round; stroke-linejoin:round; stroke-width:2; stroke-opacity:0.1; fill:none" points="186.274,1459.96 2352.76,1459.96 "/>
<polyline clip-path="url(#clip032)" style="stroke:#000000; stroke-linecap:round; stroke-linejoin:round; stroke-width:2; stroke-opacity:0.1; fill:none" points="186.274,1206.18 2352.76,1206.18 "/>
<polyline clip-path="url(#clip032)" style="stroke:#000000; stroke-linecap:round; stroke-linejoin:round; stroke-width:2; stroke-opacity:0.1; fill:none" points="186.274,952.399 2352.76,952.399 "/>
<polyline clip-path="url(#clip032)" style="stroke:#000000; stroke-linecap:round; stroke-linejoin:round; stroke-width:2; stroke-opacity:0.1; fill:none" points="186.274,698.616 2352.76,698.616 "/>
<polyline clip-path="url(#clip032)" style="stroke:#000000; stroke-linecap:round; stroke-linejoin:round; stroke-width:2; stroke-opacity:0.1; fill:none" points="186.274,444.833 2352.76,444.833 "/>
<polyline clip-path="url(#clip032)" style="stroke:#000000; stroke-linecap:round; stroke-linejoin:round; stroke-width:2; stroke-opacity:0.1; fill:none" points="186.274,191.05 2352.76,191.05 "/>
<polyline clip-path="url(#clip030)" style="stroke:#000000; stroke-linecap:round; stroke-linejoin:round; stroke-width:4; stroke-opacity:1; fill:none" points="186.274,1486.45 186.274,47.2441 "/>
<polyline clip-path="url(#clip030)" style="stroke:#000000; stroke-linecap:round; stroke-linejoin:round; stroke-width:4; stroke-opacity:1; fill:none" points="186.274,1459.96 205.172,1459.96 "/>
<polyline clip-path="url(#clip030)" style="stroke:#000000; stroke-linecap:round; stroke-linejoin:round; stroke-width:4; stroke-opacity:1; fill:none" points="186.274,1206.18 205.172,1206.18 "/>
<polyline clip-path="url(#clip030)" style="stroke:#000000; stroke-linecap:round; stroke-linejoin:round; stroke-width:4; stroke-opacity:1; fill:none" points="186.274,952.399 205.172,952.399 "/>
<polyline clip-path="url(#clip030)" style="stroke:#000000; stroke-linecap:round; stroke-linejoin:round; stroke-width:4; stroke-opacity:1; fill:none" points="186.274,698.616 205.172,698.616 "/>
<polyline clip-path="url(#clip030)" style="stroke:#000000; stroke-linecap:round; stroke-linejoin:round; stroke-width:4; stroke-opacity:1; fill:none" points="186.274,444.833 205.172,444.833 "/>
<polyline clip-path="url(#clip030)" style="stroke:#000000; stroke-linecap:round; stroke-linejoin:round; stroke-width:4; stroke-opacity:1; fill:none" points="186.274,191.05 205.172,191.05 "/>
<path clip-path="url(#clip030)" d="M62.9365 1445.76 Q59.3254 1445.76 57.4967 1449.33 Q55.6912 1452.87 55.6912 1460 Q55.6912 1467.11 57.4967 1470.67 Q59.3254 1474.21 62.9365 1474.21 Q66.5707 1474.21 68.3763 1470.67 Q70.205 1467.11 70.205 1460 Q70.205 1452.87 68.3763 1449.33 Q66.5707 1445.76 62.9365 1445.76 M62.9365 1442.06 Q68.7467 1442.06 71.8022 1446.67 Q74.8809 1451.25 74.8809 1460 Q74.8809 1468.73 71.8022 1473.33 Q68.7467 1477.92 62.9365 1477.92 Q57.1264 1477.92 54.0477 1473.33 Q50.9921 1468.73 50.9921 1460 Q50.9921 1451.25 54.0477 1446.67 Q57.1264 1442.06 62.9365 1442.06 Z" fill="#000000" fill-rule="nonzero" fill-opacity="1" /><path clip-path="url(#clip030)" d="M83.0984 1471.36 L87.9827 1471.36 L87.9827 1477.24 L83.0984 1477.24 L83.0984 1471.36 Z" fill="#000000" fill-rule="nonzero" fill-opacity="1" /><path clip-path="url(#clip030)" d="M108.168 1445.76 Q104.557 1445.76 102.728 1449.33 Q100.922 1452.87 100.922 1460 Q100.922 1467.11 102.728 1470.67 Q104.557 1474.21 108.168 1474.21 Q111.802 1474.21 113.608 1470.67 Q115.436 1467.11 115.436 1460 Q115.436 1452.87 113.608 1449.33 Q111.802 1445.76 108.168 1445.76 M108.168 1442.06 Q113.978 1442.06 117.033 1446.67 Q120.112 1451.25 120.112 1460 Q120.112 1468.73 117.033 1473.33 Q113.978 1477.92 108.168 1477.92 Q102.358 1477.92 99.2789 1473.33 Q96.2234 1468.73 96.2234 1460 Q96.2234 1451.25 99.2789 1446.67 Q102.358 1442.06 108.168 1442.06 Z" fill="#000000" fill-rule="nonzero" fill-opacity="1" /><path clip-path="url(#clip030)" d="M138.33 1445.76 Q134.719 1445.76 132.89 1449.33 Q131.084 1452.87 131.084 1460 Q131.084 1467.11 132.89 1470.67 Q134.719 1474.21 138.33 1474.21 Q141.964 1474.21 143.769 1470.67 Q145.598 1467.11 145.598 1460 Q145.598 1452.87 143.769 1449.33 Q141.964 1445.76 138.33 1445.76 M138.33 1442.06 Q144.14 1442.06 147.195 1446.67 Q150.274 1451.25 150.274 1460 Q150.274 1468.73 147.195 1473.33 Q144.14 1477.92 138.33 1477.92 Q132.519 1477.92 129.441 1473.33 Q126.385 1468.73 126.385 1460 Q126.385 1451.25 129.441 1446.67 Q132.519 1442.06 138.33 1442.06 Z" fill="#000000" fill-rule="nonzero" fill-opacity="1" /><path clip-path="url(#clip030)" d="M63.9319 1191.98 Q60.3208 1191.98 58.4921 1195.54 Q56.6865 1199.09 56.6865 1206.22 Q56.6865 1213.32 58.4921 1216.89 Q60.3208 1220.43 63.9319 1220.43 Q67.5661 1220.43 69.3717 1216.89 Q71.2004 1213.32 71.2004 1206.22 Q71.2004 1199.09 69.3717 1195.54 Q67.5661 1191.98 63.9319 1191.98 M63.9319 1188.28 Q69.742 1188.28 72.7976 1192.88 Q75.8763 1197.47 75.8763 1206.22 Q75.8763 1214.94 72.7976 1219.55 Q69.742 1224.13 63.9319 1224.13 Q58.1217 1224.13 55.043 1219.55 Q51.9875 1214.94 51.9875 1206.22 Q51.9875 1197.47 55.043 1192.88 Q58.1217 1188.28 63.9319 1188.28 Z" fill="#000000" fill-rule="nonzero" fill-opacity="1" /><path clip-path="url(#clip030)" d="M84.0938 1217.58 L88.978 1217.58 L88.978 1223.46 L84.0938 1223.46 L84.0938 1217.58 Z" fill="#000000" fill-rule="nonzero" fill-opacity="1" /><path clip-path="url(#clip030)" d="M109.163 1191.98 Q105.552 1191.98 103.723 1195.54 Q101.918 1199.09 101.918 1206.22 Q101.918 1213.32 103.723 1216.89 Q105.552 1220.43 109.163 1220.43 Q112.797 1220.43 114.603 1216.89 Q116.432 1213.32 116.432 1206.22 Q116.432 1199.09 114.603 1195.54 Q112.797 1191.98 109.163 1191.98 M109.163 1188.28 Q114.973 1188.28 118.029 1192.88 Q121.107 1197.47 121.107 1206.22 Q121.107 1214.94 118.029 1219.55 Q114.973 1224.13 109.163 1224.13 Q103.353 1224.13 100.274 1219.55 Q97.2187 1214.94 97.2187 1206.22 Q97.2187 1197.47 100.274 1192.88 Q103.353 1188.28 109.163 1188.28 Z" fill="#000000" fill-rule="nonzero" fill-opacity="1" /><path clip-path="url(#clip030)" d="M129.371 1188.9 L147.728 1188.9 L147.728 1192.84 L133.654 1192.84 L133.654 1201.31 Q134.672 1200.96 135.691 1200.8 Q136.709 1200.61 137.728 1200.61 Q143.515 1200.61 146.894 1203.79 Q150.274 1206.96 150.274 1212.37 Q150.274 1217.95 146.802 1221.05 Q143.33 1224.13 137.01 1224.13 Q134.834 1224.13 132.566 1223.76 Q130.32 1223.39 127.913 1222.65 L127.913 1217.95 Q129.996 1219.09 132.219 1219.64 Q134.441 1220.2 136.918 1220.2 Q140.922 1220.2 143.26 1218.09 Q145.598 1215.98 145.598 1212.37 Q145.598 1208.76 143.26 1206.66 Q140.922 1204.55 136.918 1204.55 Q135.043 1204.55 133.168 1204.97 Q131.316 1205.38 129.371 1206.26 L129.371 1188.9 Z" fill="#000000" fill-rule="nonzero" fill-opacity="1" /><path clip-path="url(#clip030)" d="M62.9365 938.197 Q59.3254 938.197 57.4967 941.762 Q55.6912 945.304 55.6912 952.433 Q55.6912 959.54 57.4967 963.104 Q59.3254 966.646 62.9365 966.646 Q66.5707 966.646 68.3763 963.104 Q70.205 959.54 70.205 952.433 Q70.205 945.304 68.3763 941.762 Q66.5707 938.197 62.9365 938.197 M62.9365 934.494 Q68.7467 934.494 71.8022 939.1 Q74.8809 943.683 74.8809 952.433 Q74.8809 961.16 71.8022 965.766 Q68.7467 970.35 62.9365 970.35 Q57.1264 970.35 54.0477 965.766 Q50.9921 961.16 50.9921 952.433 Q50.9921 943.683 54.0477 939.1 Q57.1264 934.494 62.9365 934.494 Z" fill="#000000" fill-rule="nonzero" fill-opacity="1" /><path clip-path="url(#clip030)" d="M83.0984 963.799 L87.9827 963.799 L87.9827 969.679 L83.0984 969.679 L83.0984 963.799 Z" fill="#000000" fill-rule="nonzero" fill-opacity="1" /><path clip-path="url(#clip030)" d="M98.978 965.743 L106.617 965.743 L106.617 939.378 L98.3067 941.044 L98.3067 936.785 L106.571 935.119 L111.246 935.119 L111.246 965.743 L118.885 965.743 L118.885 969.679 L98.978 969.679 L98.978 965.743 Z" fill="#000000" fill-rule="nonzero" fill-opacity="1" /><path clip-path="url(#clip030)" d="M138.33 938.197 Q134.719 938.197 132.89 941.762 Q131.084 945.304 131.084 952.433 Q131.084 959.54 132.89 963.104 Q134.719 966.646 138.33 966.646 Q141.964 966.646 143.769 963.104 Q145.598 959.54 145.598 952.433 Q145.598 945.304 143.769 941.762 Q141.964 938.197 138.33 938.197 M138.33 934.494 Q144.14 934.494 147.195 939.1 Q150.274 943.683 150.274 952.433 Q150.274 961.16 147.195 965.766 Q144.14 970.35 138.33 970.35 Q132.519 970.35 129.441 965.766 Q126.385 961.16 126.385 952.433 Q126.385 943.683 129.441 939.1 Q132.519 934.494 138.33 934.494 Z" fill="#000000" fill-rule="nonzero" fill-opacity="1" /><path clip-path="url(#clip030)" d="M63.9319 684.414 Q60.3208 684.414 58.4921 687.979 Q56.6865 691.521 56.6865 698.65 Q56.6865 705.757 58.4921 709.322 Q60.3208 712.863 63.9319 712.863 Q67.5661 712.863 69.3717 709.322 Q71.2004 705.757 71.2004 698.65 Q71.2004 691.521 69.3717 687.979 Q67.5661 684.414 63.9319 684.414 M63.9319 680.711 Q69.742 680.711 72.7976 685.317 Q75.8763 689.9 75.8763 698.65 Q75.8763 707.377 72.7976 711.984 Q69.742 716.567 63.9319 716.567 Q58.1217 716.567 55.043 711.984 Q51.9875 707.377 51.9875 698.65 Q51.9875 689.9 55.043 685.317 Q58.1217 680.711 63.9319 680.711 Z" fill="#000000" fill-rule="nonzero" fill-opacity="1" /><path clip-path="url(#clip030)" d="M84.0938 710.016 L88.978 710.016 L88.978 715.896 L84.0938 715.896 L84.0938 710.016 Z" fill="#000000" fill-rule="nonzero" fill-opacity="1" /><path clip-path="url(#clip030)" d="M99.9733 711.96 L107.612 711.96 L107.612 685.595 L99.3021 687.262 L99.3021 683.002 L107.566 681.336 L112.242 681.336 L112.242 711.96 L119.881 711.96 L119.881 715.896 L99.9733 715.896 L99.9733 711.96 Z" fill="#000000" fill-rule="nonzero" fill-opacity="1" /><path clip-path="url(#clip030)" d="M129.371 681.336 L147.728 681.336 L147.728 685.271 L133.654 685.271 L133.654 693.743 Q134.672 693.396 135.691 693.234 Q136.709 693.049 137.728 693.049 Q143.515 693.049 146.894 696.22 Q150.274 699.391 150.274 704.808 Q150.274 710.386 146.802 713.488 Q143.33 716.567 137.01 716.567 Q134.834 716.567 132.566 716.197 Q130.32 715.826 127.913 715.085 L127.913 710.386 Q129.996 711.521 132.219 712.076 Q134.441 712.632 136.918 712.632 Q140.922 712.632 143.26 710.525 Q145.598 708.419 145.598 704.808 Q145.598 701.197 143.26 699.09 Q140.922 696.984 136.918 696.984 Q135.043 696.984 133.168 697.4 Q131.316 697.817 129.371 698.697 L129.371 681.336 Z" fill="#000000" fill-rule="nonzero" fill-opacity="1" /><path clip-path="url(#clip030)" d="M62.9365 430.631 Q59.3254 430.631 57.4967 434.196 Q55.6912 437.738 55.6912 444.868 Q55.6912 451.974 57.4967 455.539 Q59.3254 459.08 62.9365 459.08 Q66.5707 459.08 68.3763 455.539 Q70.205 451.974 70.205 444.868 Q70.205 437.738 68.3763 434.196 Q66.5707 430.631 62.9365 430.631 M62.9365 426.928 Q68.7467 426.928 71.8022 431.534 Q74.8809 436.118 74.8809 444.868 Q74.8809 453.594 71.8022 458.201 Q68.7467 462.784 62.9365 462.784 Q57.1264 462.784 54.0477 458.201 Q50.9921 453.594 50.9921 444.868 Q50.9921 436.118 54.0477 431.534 Q57.1264 426.928 62.9365 426.928 Z" fill="#000000" fill-rule="nonzero" fill-opacity="1" /><path clip-path="url(#clip030)" d="M83.0984 456.233 L87.9827 456.233 L87.9827 462.113 L83.0984 462.113 L83.0984 456.233 Z" fill="#000000" fill-rule="nonzero" fill-opacity="1" /><path clip-path="url(#clip030)" d="M102.196 458.178 L118.515 458.178 L118.515 462.113 L96.5706 462.113 L96.5706 458.178 Q99.2326 455.423 103.816 450.793 Q108.422 446.141 109.603 444.798 Q111.848 442.275 112.728 440.539 Q113.631 438.78 113.631 437.09 Q113.631 434.335 111.686 432.599 Q109.765 430.863 106.663 430.863 Q104.464 430.863 102.01 431.627 Q99.5798 432.391 96.8021 433.942 L96.8021 429.219 Q99.6261 428.085 102.08 427.506 Q104.534 426.928 106.571 426.928 Q111.941 426.928 115.135 429.613 Q118.33 432.298 118.33 436.789 Q118.33 438.918 117.52 440.84 Q116.733 442.738 114.626 445.33 Q114.047 446.002 110.946 449.219 Q107.844 452.414 102.196 458.178 Z" fill="#000000" fill-rule="nonzero" fill-opacity="1" /><path clip-path="url(#clip030)" d="M138.33 430.631 Q134.719 430.631 132.89 434.196 Q131.084 437.738 131.084 444.868 Q131.084 451.974 132.89 455.539 Q134.719 459.08 138.33 459.08 Q141.964 459.08 143.769 455.539 Q145.598 451.974 145.598 444.868 Q145.598 437.738 143.769 434.196 Q141.964 430.631 138.33 430.631 M138.33 426.928 Q144.14 426.928 147.195 431.534 Q150.274 436.118 150.274 444.868 Q150.274 453.594 147.195 458.201 Q144.14 462.784 138.33 462.784 Q132.519 462.784 129.441 458.201 Q126.385 453.594 126.385 444.868 Q126.385 436.118 129.441 431.534 Q132.519 426.928 138.33 426.928 Z" fill="#000000" fill-rule="nonzero" fill-opacity="1" /><path clip-path="url(#clip030)" d="M63.9319 176.849 Q60.3208 176.849 58.4921 180.413 Q56.6865 183.955 56.6865 191.085 Q56.6865 198.191 58.4921 201.756 Q60.3208 205.298 63.9319 205.298 Q67.5661 205.298 69.3717 201.756 Q71.2004 198.191 71.2004 191.085 Q71.2004 183.955 69.3717 180.413 Q67.5661 176.849 63.9319 176.849 M63.9319 173.145 Q69.742 173.145 72.7976 177.751 Q75.8763 182.335 75.8763 191.085 Q75.8763 199.811 72.7976 204.418 Q69.742 209.001 63.9319 209.001 Q58.1217 209.001 55.043 204.418 Q51.9875 199.811 51.9875 191.085 Q51.9875 182.335 55.043 177.751 Q58.1217 173.145 63.9319 173.145 Z" fill="#000000" fill-rule="nonzero" fill-opacity="1" /><path clip-path="url(#clip030)" d="M84.0938 202.45 L88.978 202.45 L88.978 208.33 L84.0938 208.33 L84.0938 202.45 Z" fill="#000000" fill-rule="nonzero" fill-opacity="1" /><path clip-path="url(#clip030)" d="M103.191 204.395 L119.51 204.395 L119.51 208.33 L97.566 208.33 L97.566 204.395 Q100.228 201.64 104.811 197.011 Q109.418 192.358 110.598 191.015 Q112.844 188.492 113.723 186.756 Q114.626 184.997 114.626 183.307 Q114.626 180.552 112.682 178.816 Q110.76 177.08 107.658 177.08 Q105.459 177.08 103.006 177.844 Q100.575 178.608 97.7974 180.159 L97.7974 175.437 Q100.621 174.302 103.075 173.724 Q105.529 173.145 107.566 173.145 Q112.936 173.145 116.131 175.83 Q119.325 178.515 119.325 183.006 Q119.325 185.136 118.515 187.057 Q117.728 188.955 115.621 191.548 Q115.043 192.219 111.941 195.436 Q108.839 198.631 103.191 204.395 Z" fill="#000000" fill-rule="nonzero" fill-opacity="1" /><path clip-path="url(#clip030)" d="M129.371 173.77 L147.728 173.77 L147.728 177.705 L133.654 177.705 L133.654 186.177 Q134.672 185.83 135.691 185.668 Q136.709 185.483 137.728 185.483 Q143.515 185.483 146.894 188.654 Q150.274 191.825 150.274 197.242 Q150.274 202.821 146.802 205.923 Q143.33 209.001 137.01 209.001 Q134.834 209.001 132.566 208.631 Q130.32 208.26 127.913 207.52 L127.913 202.821 Q129.996 203.955 132.219 204.511 Q134.441 205.066 136.918 205.066 Q140.922 205.066 143.26 202.96 Q145.598 200.853 145.598 197.242 Q145.598 193.631 143.26 191.524 Q140.922 189.418 136.918 189.418 Q135.043 189.418 133.168 189.835 Q131.316 190.251 129.371 191.131 L129.371 173.77 Z" fill="#000000" fill-rule="nonzero" fill-opacity="1" /><circle clip-path="url(#clip032)" cx="1448.81" cy="1151.35" r="14.4" fill="#808080" fill-rule="evenodd" fill-opacity="1" stroke="#000000" stroke-opacity="1" stroke-width="3.2"/>
<circle clip-path="url(#clip032)" cx="1321.3" cy="1445.72" r="14.4" fill="#808080" fill-rule="evenodd" fill-opacity="1" stroke="#000000" stroke-opacity="1" stroke-width="3.2"/>
<circle clip-path="url(#clip032)" cx="2291.44" cy="1169.7" r="14.4" fill="#808080" fill-rule="evenodd" fill-opacity="1" stroke="#000000" stroke-opacity="1" stroke-width="3.2"/>
<circle clip-path="url(#clip032)" cx="247.59" cy="87.9763" r="14.4" fill="#808080" fill-rule="evenodd" fill-opacity="1" stroke="#000000" stroke-opacity="1" stroke-width="3.2"/>
<path clip-path="url(#clip030)" d="M1453.11 1158.79 Q1444.08 1158.79 1440.59 1160.85 Q1437.11 1162.92 1437.11 1167.9 Q1437.11 1171.87 1439.7 1174.22 Q1442.33 1176.53 1446.83 1176.53 Q1453.03 1176.53 1456.75 1172.15 Q1460.52 1167.74 1460.52 1160.45 L1460.52 1158.79 L1453.11 1158.79 M1467.98 1155.71 L1467.98 1181.59 L1460.52 1181.59 L1460.52 1174.71 Q1457.97 1178.84 1454.16 1180.82 Q1450.35 1182.77 1444.85 1182.77 Q1437.88 1182.77 1433.75 1178.88 Q1429.65 1174.95 1429.65 1168.39 Q1429.65 1160.73 1434.76 1156.84 Q1439.9 1152.95 1450.07 1152.95 L1460.52 1152.95 L1460.52 1152.22 Q1460.52 1147.08 1457.12 1144.28 Q1453.76 1141.45 1447.64 1141.45 Q1443.75 1141.45 1440.07 1142.38 Q1436.38 1143.31 1432.98 1145.17 L1432.98 1138.29 Q1437.07 1136.71 1440.92 1135.94 Q1444.76 1135.13 1448.41 1135.13 Q1458.25 1135.13 1463.11 1140.23 Q1467.98 1145.34 1467.98 1155.71 Z" fill="#000000" fill-rule="nonzero" fill-opacity="1" /><path clip-path="url(#clip030)" d="M1333.86 1453.31 Q1333.86 1445.09 1330.46 1440.43 Q1327.1 1435.73 1321.18 1435.73 Q1315.27 1435.73 1311.86 1440.43 Q1308.5 1445.09 1308.5 1453.31 Q1308.5 1461.53 1311.86 1466.23 Q1315.27 1470.89 1321.18 1470.89 Q1327.1 1470.89 1330.46 1466.23 Q1333.86 1461.53 1333.86 1453.31 M1308.5 1437.47 Q1310.85 1433.42 1314.42 1431.48 Q1318.02 1429.49 1323 1429.49 Q1331.27 1429.49 1336.41 1436.05 Q1341.6 1442.62 1341.6 1453.31 Q1341.6 1464.01 1336.41 1470.57 Q1331.27 1477.13 1323 1477.13 Q1318.02 1477.13 1314.42 1475.19 Q1310.85 1473.2 1308.5 1469.15 L1308.5 1475.96 L1301.01 1475.96 L1301.01 1412.92 L1308.5 1412.92 L1308.5 1437.47 Z" fill="#000000" fill-rule="nonzero" fill-opacity="1" /><path clip-path="url(#clip030)" d="M2309.39 1156.31 L2309.39 1163.28 Q2306.23 1161.54 2303.03 1160.69 Q2299.87 1159.8 2296.63 1159.8 Q2289.37 1159.8 2285.36 1164.42 Q2281.35 1168.99 2281.35 1177.3 Q2281.35 1185.6 2285.36 1190.22 Q2289.37 1194.8 2296.63 1194.8 Q2299.87 1194.8 2303.03 1193.95 Q2306.23 1193.06 2309.39 1191.31 L2309.39 1198.2 Q2306.27 1199.66 2302.9 1200.39 Q2299.58 1201.12 2295.82 1201.12 Q2285.57 1201.12 2279.53 1194.68 Q2273.49 1188.24 2273.49 1177.3 Q2273.49 1166.2 2279.57 1159.84 Q2285.69 1153.48 2296.3 1153.48 Q2299.74 1153.48 2303.03 1154.21 Q2306.31 1154.9 2309.39 1156.31 Z" fill="#000000" fill-rule="nonzero" fill-opacity="1" /><path clip-path="url(#clip030)" d="M260.411 79.7327 L260.411 55.1842 L267.864 55.1842 L267.864 118.216 L260.411 118.216 L260.411 111.411 Q258.061 115.462 254.456 117.447 Q250.891 119.391 245.868 119.391 Q237.645 119.391 232.459 112.829 Q227.315 106.266 227.315 95.5717 Q227.315 84.8773 232.459 78.3149 Q237.645 71.7524 245.868 71.7524 Q250.891 71.7524 254.456 73.7373 Q258.061 75.6818 260.411 79.7327 M235.011 95.5717 Q235.011 103.795 238.374 108.494 Q241.776 113.153 247.691 113.153 Q253.605 113.153 257.008 108.494 Q260.411 103.795 260.411 95.5717 Q260.411 87.3484 257.008 82.6898 Q253.605 77.9908 247.691 77.9908 Q241.776 77.9908 238.374 82.6898 Q235.011 87.3484 235.011 95.5717 Z" fill="#000000" fill-rule="nonzero" fill-opacity="1" /><path clip-path="url(#clip030)" d="M2011.46 198.898 L2280.54 198.898 L2280.54 95.2176 L2011.46 95.2176  Z" fill="#ffffff" fill-rule="evenodd" fill-opacity="1"/>
<polyline clip-path="url(#clip030)" style="stroke:#000000; stroke-linecap:round; stroke-linejoin:round; stroke-width:4; stroke-opacity:1; fill:none" points="2011.46,198.898 2280.54,198.898 2280.54,95.2176 2011.46,95.2176 2011.46,198.898 "/>
<circle clip-path="url(#clip030)" cx="2107.75" cy="147.058" r="20.48" fill="#808080" fill-rule="evenodd" fill-opacity="1" stroke="#000000" stroke-opacity="1" stroke-width="4.55111"/>
<path clip-path="url(#clip030)" d="M2217.88 166.745 Q2216.07 171.375 2214.36 172.787 Q2212.65 174.199 2209.78 174.199 L2206.38 174.199 L2206.38 170.634 L2208.88 170.634 Q2210.63 170.634 2211.61 169.8 Q2212.58 168.967 2213.76 165.865 L2214.52 163.921 L2204.04 138.412 L2208.55 138.412 L2216.65 158.689 L2224.76 138.412 L2229.27 138.412 L2217.88 166.745 Z" fill="#000000" fill-rule="nonzero" fill-opacity="1" /><path clip-path="url(#clip030)" d="M2236.56 160.402 L2244.2 160.402 L2244.2 134.037 L2235.89 135.703 L2235.89 131.444 L2244.15 129.778 L2248.83 129.778 L2248.83 160.402 L2256.47 160.402 L2256.47 164.338 L2236.56 164.338 L2236.56 160.402 Z" fill="#000000" fill-rule="nonzero" fill-opacity="1" /></svg>
