<?xml version="1.0" encoding="utf-8"?>
<svg xmlns="http://www.w3.org/2000/svg" xmlns:xlink="http://www.w3.org/1999/xlink" width="600" height="400" viewBox="0 0 2400 1600">
<defs>
  <clipPath id="clip090">
    <rect x="0" y="0" width="2400" height="1600"/>
  </clipPath>
</defs>
<path clip-path="url(#clip090)" d="M0 1600 L2400 1600 L2400 0 L0 0  Z" fill="#ffffff" fill-rule="evenodd" fill-opacity="1"/>
<defs>
  <clipPath id="clip091">
    <rect x="480" y="0" width="1681" height="1600"/>
  </clipPath>
</defs>
<path clip-path="url(#clip090)" d="M112.177 1486.45 L2352.76 1486.45 L2352.76 47.2441 L112.177 47.2441  Z" fill="#ffffff" fill-rule="evenodd" fill-opacity="1"/>
<defs>
  <clipPath id="clip092">
    <rect x="112" y="47" width="2242" height="1440"/>
  </clipPath>
</defs>
<polyline clip-path="url(#clip092)" style="stroke:#000000; stroke-linecap:round; stroke-linejoin:round; stroke-width:2; stroke-opacity:0.1; fill:none" points="563.216,1486.45 563.216,47.2441 "/>
<polyline clip-path="url(#clip092)" style="stroke:#000000; stroke-linecap:round; stroke-linejoin:round; stroke-width:2; stroke-opacity:0.1; fill:none" points="1036.15,1486.45 1036.15,47.2441 "/>
<polyline clip-path="url(#clip092)" style="stroke:#000000; stroke-linecap:round; stroke-linejoin:round; stroke-width:2; stroke-opacity:0.1; fill:none" points="1509.09,1486.45 1509.09,47.2441 "/>
<polyline clip-path="url(#clip092)" style="stroke:#000000; stroke-linecap:round; stroke-linejoin:round; stroke-width:2; stroke-opacity:0.1; fill:none" points="1982.02,1486.45 1982.02,47.2441 "/>
<polyline clip-path="url(#clip090)" style="stroke:#000000; stroke-linecap:round; stroke-linejoin:round; stroke-width:4; stroke-opacity:1; fill:none" points="112.177,1486.45 2352.76,1486.45 "/>
<polyline clip-path="url(#clip090)" style="stroke:#000000; stroke-linecap:round; stroke-linejoin:round; stroke-width:4; stroke-opacity:1; fill:none" points="563.216,1486.45 563.216,1467.55 "/>
<polyline clip-path="url(#clip090)" style="stroke:#000000; stroke-linecap:round; stroke-linejoin:round; stroke-width:4; stroke-opacity:1; fill:none" points="1036.15,1486.45 1036.15,1467.55 "/>
<polyline clip-path="url(#clip090)" style="stroke:#000000; stroke-linecap:round; stroke-linejoin:round; stroke-width:4; stroke-opacity:1; fill:none" points="1509.09,1486.45 1509.09,1467.55 "/>
<polyline clip-path="url(#clip090)" style="stroke:#000000; stroke-linecap:round; stroke-linejoin:round; stroke-width:4; stroke-opacity:1; fill:none" points="1982.02,1486.45 1982.02,1467.55 "/>
<path clip-path="url(#clip090)" d="M509.744 1532.02 L539.419 1532.02 L539.419 1535.95 L509.744 1535.95 L509.744 1532.02 Z" fill="#000000" fill-rule="nonzero" fill-opacity="1" /><path clip-path="url(#clip090)" d="M550.322 1544.91 L557.961 1544.91 L557.961 1518.55 L549.651 1520.21 L549.651 1515.95 L557.915 1514.29 L562.591 1514.29 L562.591 1544.91 L570.229 1544.91 L570.229 1548.85 L550.322 1548.85 L550.322 1544.91 Z" fill="#000000" fill-rule="nonzero" fill-opacity="1" /><path clip-path="url(#clip090)" d="M579.674 1542.97 L584.558 1542.97 L584.558 1548.85 L579.674 1548.85 L579.674 1542.97 Z" fill="#000000" fill-rule="nonzero" fill-opacity="1" /><path clip-path="url(#clip090)" d="M604.743 1517.37 Q601.132 1517.37 599.303 1520.93 Q597.498 1524.47 597.498 1531.6 Q597.498 1538.71 599.303 1542.27 Q601.132 1545.82 604.743 1545.82 Q608.377 1545.82 610.183 1542.27 Q612.012 1538.71 612.012 1531.6 Q612.012 1524.47 610.183 1520.93 Q608.377 1517.37 604.743 1517.37 M604.743 1513.66 Q610.553 1513.66 613.609 1518.27 Q616.688 1522.85 616.688 1531.6 Q616.688 1540.33 613.609 1544.94 Q610.553 1549.52 604.743 1549.52 Q598.933 1549.52 595.854 1544.94 Q592.799 1540.33 592.799 1531.6 Q592.799 1522.85 595.854 1518.27 Q598.933 1513.66 604.743 1513.66 Z" fill="#000000" fill-rule="nonzero" fill-opacity="1" /><path clip-path="url(#clip090)" d="M983.176 1532.02 L1012.85 1532.02 L1012.85 1535.95 L983.176 1535.95 L983.176 1532.02 Z" fill="#000000" fill-rule="nonzero" fill-opacity="1" /><path clip-path="url(#clip090)" d="M1032.94 1517.37 Q1029.33 1517.37 1027.5 1520.93 Q1025.7 1524.47 1025.7 1531.6 Q1025.7 1538.71 1027.5 1542.27 Q1029.33 1545.82 1032.94 1545.82 Q1036.58 1545.82 1038.38 1542.27 Q1040.21 1538.71 1040.21 1531.6 Q1040.21 1524.47 1038.38 1520.93 Q1036.58 1517.37 1032.94 1517.37 M1032.94 1513.66 Q1038.75 1513.66 1041.81 1518.27 Q1044.89 1522.85 1044.89 1531.6 Q1044.89 1540.33 1041.81 1544.94 Q1038.75 1549.52 1032.94 1549.52 Q1027.13 1549.52 1024.06 1544.94 Q1021 1540.33 1021 1531.6 Q1021 1522.85 1024.06 1518.27 Q1027.13 1513.66 1032.94 1513.66 Z" fill="#000000" fill-rule="nonzero" fill-opacity="1" /><path clip-path="url(#clip090)" d="M1053.11 1542.97 L1057.99 1542.97 L1057.99 1548.85 L1053.11 1548.85 L1053.11 1542.97 Z" fill="#000000" fill-rule="nonzero" fill-opacity="1" /><path clip-path="url(#clip090)" d="M1068.22 1514.29 L1086.58 1514.29 L1086.58 1518.22 L1072.5 1518.22 L1072.5 1526.7 Q1073.52 1526.35 1074.54 1526.19 Q1075.56 1526 1076.58 1526 Q1082.37 1526 1085.75 1529.17 Q1089.12 1532.34 1089.12 1537.76 Q1089.12 1543.34 1085.65 1546.44 Q1082.18 1549.52 1075.86 1549.52 Q1073.68 1549.52 1071.42 1549.15 Q1069.17 1548.78 1066.76 1548.04 L1066.76 1543.34 Q1068.85 1544.47 1071.07 1545.03 Q1073.29 1545.58 1075.77 1545.58 Q1079.77 1545.58 1082.11 1543.48 Q1084.45 1541.37 1084.45 1537.76 Q1084.45 1534.15 1082.11 1532.04 Q1079.77 1529.94 1075.77 1529.94 Q1073.89 1529.94 1072.02 1530.35 Q1070.17 1530.77 1068.22 1531.65 L1068.22 1514.29 Z" fill="#000000" fill-rule="nonzero" fill-opacity="1" /><path clip-path="url(#clip090)" d="M1486.47 1517.37 Q1482.86 1517.37 1481.03 1520.93 Q1479.22 1524.47 1479.22 1531.6 Q1479.22 1538.71 1481.03 1542.27 Q1482.86 1545.82 1486.47 1545.82 Q1490.1 1545.82 1491.91 1542.27 Q1493.74 1538.71 1493.74 1531.6 Q1493.74 1524.47 1491.91 1520.93 Q1490.1 1517.37 1486.47 1517.37 M1486.47 1513.66 Q1492.28 1513.66 1495.34 1518.27 Q1498.41 1522.85 1498.41 1531.6 Q1498.41 1540.33 1495.34 1544.94 Q1492.28 1549.52 1486.47 1549.52 Q1480.66 1549.52 1477.58 1544.94 Q1474.53 1540.33 1474.53 1531.6 Q1474.53 1522.85 1477.58 1518.27 Q1480.66 1513.66 1486.47 1513.66 Z" fill="#000000" fill-rule="nonzero" fill-opacity="1" /><path clip-path="url(#clip090)" d="M1506.63 1542.97 L1511.52 1542.97 L1511.52 1548.85 L1506.63 1548.85 L1506.63 1542.97 Z" fill="#000000" fill-rule="nonzero" fill-opacity="1" /><path clip-path="url(#clip090)" d="M1531.7 1517.37 Q1528.09 1517.37 1526.26 1520.93 Q1524.46 1524.47 1524.46 1531.6 Q1524.46 1538.71 1526.26 1542.27 Q1528.09 1545.82 1531.7 1545.82 Q1535.34 1545.82 1537.14 1542.27 Q1538.97 1538.71 1538.97 1531.6 Q1538.97 1524.47 1537.14 1520.93 Q1535.34 1517.37 1531.7 1517.37 M1531.7 1513.66 Q1537.51 1513.66 1540.57 1518.27 Q1543.65 1522.85 1543.65 1531.6 Q1543.65 1540.33 1540.57 1544.94 Q1537.51 1549.52 1531.7 1549.52 Q1525.89 1549.52 1522.81 1544.94 Q1519.76 1540.33 1519.76 1531.6 Q1519.76 1522.85 1522.81 1518.27 Q1525.89 1513.66 1531.7 1513.66 Z" fill="#000000" fill-rule="nonzero" fill-opacity="1" /><path clip-path="url(#clip090)" d="M1959.9 1517.37 Q1956.29 1517.37 1954.46 1520.93 Q1952.66 1524.47 1952.66 1531.6 Q1952.66 1538.71 1954.46 1542.27 Q1956.29 1545.82 1959.9 1545.82 Q1963.54 1545.82 1965.34 1542.27 Q1967.17 1538.71 1967.17 1531.6 Q1967.17 1524.47 1965.34 1520.93 Q1963.54 1517.37 1959.9 1517.37 M1959.9 1513.66 Q1965.71 1513.66 1968.77 1518.27 Q1971.85 1522.85 1971.85 1531.6 Q1971.85 1540.33 1968.77 1544.94 Q1965.71 1549.52 1959.9 1549.52 Q1954.09 1549.52 1951.01 1544.94 Q1947.96 1540.33 1947.96 1531.6 Q1947.96 1522.85 1951.01 1518.27 Q1954.09 1513.66 1959.9 1513.66 Z" fill="#000000" fill-rule="nonzero" fill-opacity="1" /><path clip-path="url(#clip090)" d="M1980.06 1542.97 L1984.95 1542.97 L1984.95 1548.85 L1980.06 1548.85 L1980.06 1542.97 Z" fill="#000000" fill-rule="nonzero" fill-opacity="1" /><path clip-path="url(#clip090)" d="M1995.18 1514.29 L2013.54 1514.29 L2013.54 1518.22 L1999.46 1518.22 L1999.46 1526.7 Q2000.48 1526.35 2001.5 1526.19 Q2002.52 1526 2003.54 1526 Q2009.32 1526 2012.7 1529.17 Q2016.08 1532.34 2016.08 1537.76 Q2016.08 1543.34 2012.61 1546.44 Q2009.14 1549.52 2002.82 1549.52 Q2000.64 1549.52 1998.37 1549.15 Q1996.13 1548.78 1993.72 1548.04 L1993.72 1543.34 Q1995.8 1544.47 1998.03 1545.03 Q2000.25 1545.58 2002.73 1545.58 Q2006.73 1545.58 2009.07 1543.48 Q2011.41 1541.37 2011.41 1537.76 Q2011.41 1534.15 2009.07 1532.04 Q2006.73 1529.94 2002.73 1529.94 Q2000.85 1529.94 1998.98 1530.35 Q1997.12 1530.77 1995.18 1531.65 L1995.18 1514.29 Z" fill="#000000" fill-rule="nonzero" fill-opacity="1" /><polyline clip-path="url(#clip092)" style="stroke:#000000; stroke-linecap:round; stroke-linejoin:round; stroke-width:2; stroke-opacity:0.1; fill:none" points="112.177,1296.43 2352.76,1296.43 "/>
<polyline clip-path="url(#clip092)" style="stroke:#000000; stroke-linecap:round; stroke-linejoin:round; stroke-width:2; stroke-opacity:0.1; fill:none" points="112.177,1089.37 2352.76,1089.37 "/>
<polyline clip-path="url(#clip092)" style="stroke:#000000; stroke-linecap:round; stroke-linejoin:round; stroke-width:2; stroke-opacity:0.1; fill:none" points="112.177,882.32 2352.76,882.32 "/>
<polyline clip-path="url(#clip092)" style="stroke:#000000; stroke-linecap:round; stroke-linejoin:round; stroke-width:2; stroke-opacity:0.1; fill:none" points="112.177,675.266 2352.76,675.266 "/>
<polyline clip-path="url(#clip092)" style="stroke:#000000; stroke-linecap:round; stroke-linejoin:round; stroke-width:2; stroke-opacity:0.1; fill:none" points="112.177,468.211 2352.76,468.211 "/>
<polyline clip-path="url(#clip092)" style="stroke:#000000; stroke-linecap:round; stroke-linejoin:round; stroke-width:2; stroke-opacity:0.1; fill:none" points="112.177,261.156 2352.76,261.156 "/>
<polyline clip-path="url(#clip092)" style="stroke:#000000; stroke-linecap:round; stroke-linejoin:round; stroke-width:2; stroke-opacity:0.1; fill:none" points="112.177,54.1017 2352.76,54.1017 "/>
<polyline clip-path="url(#clip090)" style="stroke:#000000; stroke-linecap:round; stroke-linejoin:round; stroke-width:4; stroke-opacity:1; fill:none" points="112.177,1486.45 112.177,47.2441 "/>
<polyline clip-path="url(#clip090)" style="stroke:#000000; stroke-linecap:round; stroke-linejoin:round; stroke-width:4; stroke-opacity:1; fill:none" points="112.177,1296.43 131.075,1296.43 "/>
<polyline clip-path="url(#clip090)" style="stroke:#000000; stroke-linecap:round; stroke-linejoin:round; stroke-width:4; stroke-opacity:1; fill:none" points="112.177,1089.37 131.075,1089.37 "/>
<polyline clip-path="url(#clip090)" style="stroke:#000000; stroke-linecap:round; stroke-linejoin:round; stroke-width:4; stroke-opacity:1; fill:none" points="112.177,882.32 131.075,882.32 "/>
<polyline clip-path="url(#clip090)" style="stroke:#000000; stroke-linecap:round; stroke-linejoin:round; stroke-width:4; stroke-opacity:1; fill:none" points="112.177,675.266 131.075,675.266 "/>
<polyline clip-path="url(#clip090)" style="stroke:#000000; stroke-linecap:round; stroke-linejoin:round; stroke-width:4; stroke-opacity:1; fill:none" points="112.177,468.211 131.075,468.211 "/>
<polyline clip-path="url(#clip090)" style="stroke:#000000; stroke-linecap:round; stroke-linejoin:round; stroke-width:4; stroke-opacity:1; fill:none" points="112.177,261.156 131.075,261.156 "/>
<polyline clip-path="url(#clip090)" style="stroke:#000000; stroke-linecap:round; stroke-linejoin:round; stroke-width:4; stroke-opacity:1; fill:none" points="112.177,54.1017 131.075,54.1017 "/>
<path clip-path="url(#clip090)" d="M56.2699 1309.77 L63.9087 1309.77 L63.9087 1283.41 L55.5986 1285.08 L55.5986 1280.82 L63.8624 1279.15 L68.5383 1279.15 L68.5383 1309.77 L76.1772 1309.77 L76.1772 1313.71 L56.2699 1313.71 L56.2699 1309.77 Z" fill="#000000" fill-rule="nonzero" fill-opacity="1" /><path clip-path="url(#clip090)" d="M59.8578 1102.72 L76.1772 1102.72 L76.1772 1106.65 L54.2328 1106.65 L54.2328 1102.72 Q56.8949 1099.97 61.4782 1095.34 Q66.0846 1090.68 67.2652 1089.34 Q69.5105 1086.82 70.3902 1085.08 Q71.2929 1083.32 71.2929 1081.63 Q71.2929 1078.88 69.3485 1077.14 Q67.4272 1075.41 64.3254 1075.41 Q62.1263 1075.41 59.6726 1076.17 Q57.2421 1076.93 54.4643 1078.48 L54.4643 1073.76 Q57.2884 1072.63 59.7421 1072.05 Q62.1958 1071.47 64.2328 1071.47 Q69.6031 1071.47 72.7976 1074.16 Q75.992 1076.84 75.992 1081.33 Q75.992 1083.46 75.1818 1085.38 Q74.3948 1087.28 72.2883 1089.87 Q71.7096 1090.54 68.6078 1093.76 Q65.5059 1096.96 59.8578 1102.72 Z" fill="#000000" fill-rule="nonzero" fill-opacity="1" /><path clip-path="url(#clip090)" d="M69.0476 880.966 Q72.404 881.684 74.279 883.952 Q76.1772 886.221 76.1772 889.554 Q76.1772 894.67 72.6587 897.471 Q69.1402 900.272 62.6587 900.272 Q60.4828 900.272 58.168 899.832 Q55.8764 899.415 53.4227 898.559 L53.4227 894.045 Q55.3671 895.179 57.6819 895.758 Q59.9967 896.336 62.5198 896.336 Q66.918 896.336 69.2096 894.6 Q71.5244 892.864 71.5244 889.554 Q71.5244 886.498 69.3717 884.786 Q67.242 883.049 63.4226 883.049 L59.3949 883.049 L59.3949 879.207 L63.6078 879.207 Q67.0569 879.207 68.8855 877.841 Q70.7142 876.452 70.7142 873.86 Q70.7142 871.198 68.8161 869.786 Q66.9411 868.35 63.4226 868.35 Q61.5013 868.35 59.3023 868.767 Q57.1032 869.184 54.4643 870.063 L54.4643 865.897 Q57.1264 865.156 59.4412 864.786 Q61.7791 864.415 63.8393 864.415 Q69.1633 864.415 72.2652 866.846 Q75.367 869.253 75.367 873.374 Q75.367 876.244 73.7235 878.235 Q72.08 880.202 69.0476 880.966 Z" fill="#000000" fill-rule="nonzero" fill-opacity="1" /><path clip-path="url(#clip090)" d="M66.5939 662.06 L54.7884 680.509 L66.5939 680.509 L66.5939 662.06 M65.367 657.986 L71.2466 657.986 L71.2466 680.509 L76.1772 680.509 L76.1772 684.397 L71.2466 684.397 L71.2466 692.546 L66.5939 692.546 L66.5939 684.397 L50.9921 684.397 L50.9921 679.884 L65.367 657.986 Z" fill="#000000" fill-rule="nonzero" fill-opacity="1" /><path clip-path="url(#clip090)" d="M55.2745 450.931 L73.6309 450.931 L73.6309 454.866 L59.5569 454.866 L59.5569 463.338 Q60.5754 462.991 61.5939 462.829 Q62.6124 462.644 63.6309 462.644 Q69.418 462.644 72.7976 465.815 Q76.1772 468.986 76.1772 474.403 Q76.1772 479.982 72.705 483.084 Q69.2328 486.162 62.9134 486.162 Q60.7374 486.162 58.4689 485.792 Q56.2236 485.422 53.8162 484.681 L53.8162 479.982 Q55.8995 481.116 58.1217 481.672 Q60.3439 482.227 62.8208 482.227 Q66.8254 482.227 69.1633 480.121 Q71.5013 478.014 71.5013 474.403 Q71.5013 470.792 69.1633 468.685 Q66.8254 466.579 62.8208 466.579 Q60.9458 466.579 59.0708 466.996 Q57.2189 467.412 55.2745 468.292 L55.2745 450.931 Z" fill="#000000" fill-rule="nonzero" fill-opacity="1" /><path clip-path="url(#clip090)" d="M64.6495 259.293 Q61.5013 259.293 59.6495 261.446 Q57.8208 263.598 57.8208 267.348 Q57.8208 271.075 59.6495 273.251 Q61.5013 275.404 64.6495 275.404 Q67.7976 275.404 69.6263 273.251 Q71.4781 271.075 71.4781 267.348 Q71.4781 263.598 69.6263 261.446 Q67.7976 259.293 64.6495 259.293 M73.9318 244.64 L73.9318 248.899 Q72.1726 248.066 70.367 247.626 Q68.5846 247.186 66.8254 247.186 Q62.1958 247.186 59.7421 250.311 Q57.3115 253.436 56.9643 259.756 Q58.33 257.742 60.3902 256.677 Q62.4504 255.589 64.9272 255.589 Q70.1355 255.589 73.1448 258.76 Q76.1772 261.909 76.1772 267.348 Q76.1772 272.672 73.029 275.89 Q69.8809 279.108 64.6495 279.108 Q58.6541 279.108 55.4828 274.524 Q52.3116 269.918 52.3116 261.191 Q52.3116 252.997 56.2004 248.136 Q60.0893 243.251 66.6402 243.251 Q68.3994 243.251 70.1818 243.599 Q71.9874 243.946 73.9318 244.64 Z" fill="#000000" fill-rule="nonzero" fill-opacity="1" /><path clip-path="url(#clip090)" d="M53.9551 36.8217 L76.1772 36.8217 L76.1772 38.8124 L63.6309 71.3817 L58.7467 71.3817 L70.5522 40.7568 L53.9551 40.7568 L53.9551 36.8217 Z" fill="#000000" fill-rule="nonzero" fill-opacity="1" /><circle clip-path="url(#clip092)" cx="2289.34" cy="1315.03" r="14.4" fill="#808080" fill-rule="evenodd" fill-opacity="1" stroke="#000000" stroke-opacity="1" stroke-width="3.2"/>
<circle clip-path="url(#clip092)" cx="175.59" cy="87.9763" r="14.4" fill="#808080" fill-rule="evenodd" fill-opacity="1" stroke="#000000" stroke-opacity="1" stroke-width="3.2"/>
<circle clip-path="url(#clip092)" cx="1542.88" cy="1445.72" r="14.4" fill="#808080" fill-rule="evenodd" fill-opacity="1" stroke="#000000" stroke-opacity="1" stroke-width="3.2"/>
<circle clip-path="url(#clip092)" cx="1425.03" cy="1428.93" r="14.4" fill="#808080" fill-rule="evenodd" fill-opacity="1" stroke="#000000" stroke-opacity="1" stroke-width="3.2"/>
<path clip-path="url(#clip090)" d="M2293.64 1322.46 Q2284.6 1322.46 2281.12 1324.52 Q2277.64 1326.59 2277.64 1331.57 Q2277.64 1335.54 2280.23 1337.89 Q2282.86 1340.2 2287.36 1340.2 Q2293.56 1340.2 2297.28 1335.83 Q2301.05 1331.41 2301.05 1324.12 L2301.05 1322.46 L2293.64 1322.46 M2308.5 1319.38 L2308.5 1345.27 L2301.05 1345.27 L2301.05 1338.38 Q2298.5 1342.51 2294.69 1344.5 Q2290.88 1346.44 2285.37 1346.44 Q2278.41 1346.44 2274.27 1342.55 Q2270.18 1338.62 2270.18 1332.06 Q2270.18 1324.4 2275.29 1320.51 Q2280.43 1316.63 2290.6 1316.63 L2301.05 1316.63 L2301.05 1315.9 Q2301.05 1310.75 2297.65 1307.96 Q2294.29 1305.12 2288.17 1305.12 Q2284.28 1305.12 2280.59 1306.05 Q2276.91 1306.98 2273.5 1308.85 L2273.5 1301.96 Q2277.6 1300.38 2281.44 1299.61 Q2285.29 1298.8 2288.94 1298.8 Q2298.78 1298.8 2303.64 1303.91 Q2308.5 1309.01 2308.5 1319.38 Z" fill="#000000" fill-rule="nonzero" fill-opacity="1" /><path clip-path="url(#clip090)" d="M188.148 95.5717 Q188.148 87.3484 184.745 82.6898 Q181.383 77.9908 175.468 77.9908 Q169.554 77.9908 166.151 82.6898 Q162.789 87.3484 162.789 95.5717 Q162.789 103.795 166.151 108.494 Q169.554 113.153 175.468 113.153 Q181.383 113.153 184.745 108.494 Q188.148 103.795 188.148 95.5717 M162.789 79.7327 Q165.138 75.6818 168.703 73.7373 Q172.309 71.7524 177.291 71.7524 Q185.555 71.7524 190.7 78.3149 Q195.885 84.8773 195.885 95.5717 Q195.885 106.266 190.7 112.829 Q185.555 119.391 177.291 119.391 Q172.309 119.391 168.703 117.447 Q165.138 115.462 162.789 111.411 L162.789 118.216 L155.295 118.216 L155.295 55.1842 L162.789 55.1842 L162.789 79.7327 Z" fill="#000000" fill-rule="nonzero" fill-opacity="1" /><path clip-path="url(#clip090)" d="M1560.82 1432.33 L1560.82 1439.3 Q1557.66 1437.55 1554.46 1436.7 Q1551.3 1435.81 1548.06 1435.81 Q1540.81 1435.81 1536.8 1440.43 Q1532.79 1445.01 1532.79 1453.31 Q1532.79 1461.62 1536.8 1466.23 Q1540.81 1470.81 1548.06 1470.81 Q1551.3 1470.81 1554.46 1469.96 Q1557.66 1469.07 1560.82 1467.33 L1560.82 1474.21 Q1557.7 1475.67 1554.34 1476.4 Q1551.02 1477.13 1547.25 1477.13 Q1537 1477.13 1530.97 1470.69 Q1524.93 1464.25 1524.93 1453.31 Q1524.93 1442.21 1531.01 1435.85 Q1537.13 1429.49 1547.74 1429.49 Q1551.18 1429.49 1554.46 1430.22 Q1557.74 1430.91 1560.82 1432.33 Z" fill="#000000" fill-rule="nonzero" fill-opacity="1" /><path clip-path="url(#clip090)" d="M1437.85 1420.69 L1437.85 1396.14 L1445.3 1396.14 L1445.3 1459.17 L1437.85 1459.17 L1437.85 1452.37 Q1435.5 1456.42 1431.9 1458.4 Q1428.33 1460.35 1423.31 1460.35 Q1415.08 1460.35 1409.9 1453.78 Q1404.75 1447.22 1404.75 1436.53 Q1404.75 1425.83 1409.9 1419.27 Q1415.08 1412.71 1423.31 1412.71 Q1428.33 1412.71 1431.9 1414.69 Q1435.5 1416.64 1437.85 1420.69 M1412.45 1436.53 Q1412.45 1444.75 1415.81 1449.45 Q1419.22 1454.11 1425.13 1454.11 Q1431.04 1454.11 1434.45 1449.45 Q1437.85 1444.75 1437.85 1436.53 Q1437.85 1428.3 1434.45 1423.65 Q1431.04 1418.95 1425.13 1418.95 Q1419.22 1418.95 1415.81 1423.65 Q1412.45 1428.3 1412.45 1436.53 Z" fill="#000000" fill-rule="nonzero" fill-opacity="1" /><path clip-path="url(#clip090)" d="M2001.58 198.898 L2278.07 198.898 L2278.07 95.2176 L2001.58 95.2176  Z" fill="#ffffff" fill-rule="evenodd" fill-opacity="1"/>
<polyline clip-path="url(#clip090)" style="stroke:#000000; stroke-linecap:round; stroke-linejoin:round; stroke-width:4; stroke-opacity:1; fill:none" points="2001.58,198.898 2278.07,198.898 2278.07,95.2176 2001.58,95.2176 2001.58,198.898 "/>
<circle clip-path="url(#clip090)" cx="2101.16" cy="147.058" r="20.48" fill="#808080" fill-rule="evenodd" fill-opacity="1" stroke="#000000" stroke-opacity="1" stroke-width="4.55111"/>
<path clip-path="url(#clip090)" d="M2214.59 166.745 Q2212.78 171.375 2211.07 172.787 Q2209.36 174.199 2206.49 174.199 L2203.08 174.199 L2203.08 170.634 L2205.58 170.634 Q2207.34 170.634 2208.31 169.8 Q2209.29 168.967 2210.47 165.865 L2211.23 163.921 L2200.74 138.412 L2205.26 138.412 L2213.36 158.689 L2221.46 138.412 L2225.98 138.412 L2214.59 166.745 Z" fill="#000000" fill-rule="nonzero" fill-opacity="1" /><path clip-path="url(#clip090)" d="M2233.27 160.402 L2240.91 160.402 L2240.91 134.037 L2232.6 135.703 L2232.6 131.444 L2240.86 129.778 L2245.54 129.778 L2245.54 160.402 L2253.17 160.402 L2253.17 164.338 L2233.27 164.338 L2233.27 160.402 Z" fill="#000000" fill-rule="nonzero" fill-opacity="1" /></svg>
