<?xml version="1.0" encoding="utf-8"?>
<svg xmlns="http://www.w3.org/2000/svg" xmlns:xlink="http://www.w3.org/1999/xlink" width="600" height="400" viewBox="0 0 2400 1600">
<defs>
  <clipPath id="clip870">
    <rect x="0" y="0" width="2400" height="1600"/>
  </clipPath>
</defs>
<path clip-path="url(#clip870)" d="M0 1600 L2400 1600 L2400 0 L0 0  Z" fill="#ffffff" fill-rule="evenodd" fill-opacity="1"/>
<defs>
  <clipPath id="clip871">
    <rect x="112" y="47" width="2242" height="1440"/>
  </clipPath>
</defs>
<path clip-path="url(#clip870)" d="M112.177 1486.45 L2352.76 1486.45 L2352.76 47.2441 L112.177 47.2441  Z" fill="#ffffff" fill-rule="evenodd" fill-opacity="1"/>
<polyline clip-path="url(#clip871)" style="stroke:#000000; stroke-linecap:round; stroke-linejoin:round; stroke-width:2; stroke-opacity:0.1; fill:none" points="476.267,1486.45 476.267,47.2441 "/>
<polyline clip-path="url(#clip871)" style="stroke:#000000; stroke-linecap:round; stroke-linejoin:round; stroke-width:2; stroke-opacity:0.1; fill:none" points="1005.57,1486.45 1005.57,47.2441 "/>
<polyline clip-path="url(#clip871)" style="stroke:#000000; stroke-linecap:round; stroke-linejoin:round; stroke-width:2; stroke-opacity:0.1; fill:none" points="1534.88,1486.45 1534.88,47.2441 "/>
<polyline clip-path="url(#clip871)" style="stroke:#000000; stroke-linecap:round; stroke-linejoin:round; stroke-width:2; stroke-opacity:0.1; fill:none" points="2064.19,1486.45 2064.19,47.2441 "/>
<polyline clip-path="url(#clip871)" style="stroke:#000000; stroke-linecap:round; stroke-linejoin:round; stroke-width:2; stroke-opacity:0.1; fill:none" points="112.177,1254.8 2352.76,1254.8 "/>
<polyline clip-path="url(#clip871)" style="stroke:#000000; stroke-linecap:round; stroke-linejoin:round; stroke-width:2; stroke-opacity:0.1; fill:none" points="112.177,1019.13 2352.76,1019.13 "/>
<polyline clip-path="url(#clip871)" style="stroke:#000000; stroke-linecap:round; stroke-linejoin:round; stroke-width:2; stroke-opacity:0.1; fill:none" points="112.177,783.463 2352.76,783.463 "/>
<polyline clip-path="url(#clip871)" style="stroke:#000000; stroke-linecap:round; stroke-linejoin:round; stroke-width:2; stroke-opacity:0.1; fill:none" points="112.177,547.794 2352.76,547.794 "/>
<polyline clip-path="url(#clip871)" style="stroke:#000000; stroke-linecap:round; stroke-linejoin:round; stroke-width:2; stroke-opacity:0.1; fill:none" points="112.177,312.124 2352.76,312.124 "/>
<polyline clip-path="url(#clip871)" style="stroke:#000000; stroke-linecap:round; stroke-linejoin:round; stroke-width:2; stroke-opacity:0.1; fill:none" points="112.177,76.4547 2352.76,76.4547 "/>
<polyline clip-path="url(#clip870)" style="stroke:#000000; stroke-linecap:round; stroke-linejoin:round; stroke-width:4; stroke-opacity:1; fill:none" points="112.177,1486.45 2352.76,1486.45 "/>
<polyline clip-path="url(#clip870)" style="stroke:#000000; stroke-linecap:round; stroke-linejoin:round; stroke-width:4; stroke-opacity:1; fill:none" points="476.267,1486.45 476.267,1467.55 "/>
<polyline clip-path="url(#clip870)" style="stroke:#000000; stroke-linecap:round; stroke-linejoin:round; stroke-width:4; stroke-opacity:1; fill:none" points="1005.57,1486.45 1005.57,1467.55 "/>
<polyline clip-path="url(#clip870)" style="stroke:#000000; stroke-linecap:round; stroke-linejoin:round; stroke-width:4; stroke-opacity:1; fill:none" points="1534.88,1486.45 1534.88,1467.55 "/>
<polyline clip-path="url(#clip870)" style="stroke:#000000; stroke-linecap:round; stroke-linejoin:round; stroke-width:4; stroke-opacity:1; fill:none" points="2064.19,1486.45 2064.19,1467.55 "/>
<path clip-path="url(#clip870)" d="M422.795 1532.02 L452.471 1532.02 L452.471 1535.95 L422.795 1535.95 L422.795 1532.02 Z" fill="#000000" fill-rule="nonzero" fill-opacity="1" /><path clip-path="url(#clip870)" d="M463.374 1544.91 L471.013 1544.91 L471.013 1518.55 L462.703 1520.21 L462.703 1515.95 L470.966 1514.29 L475.642 1514.29 L475.642 1544.91 L483.281 1544.91 L483.281 1548.85 L463.374 1548.85 L463.374 1544.91 Z" fill="#000000" fill-rule="nonzero" fill-opacity="1" /><path clip-path="url(#clip870)" d="M492.726 1542.97 L497.61 1542.97 L497.61 1548.85 L492.726 1548.85 L492.726 1542.97 Z" fill="#000000" fill-rule="nonzero" fill-opacity="1" /><path clip-path="url(#clip870)" d="M517.795 1517.37 Q514.184 1517.37 512.355 1520.93 Q510.55 1524.47 510.55 1531.6 Q510.55 1538.71 512.355 1542.27 Q514.184 1545.82 517.795 1545.82 Q521.429 1545.82 523.235 1542.27 Q525.063 1538.71 525.063 1531.6 Q525.063 1524.47 523.235 1520.93 Q521.429 1517.37 517.795 1517.37 M517.795 1513.66 Q523.605 1513.66 526.661 1518.27 Q529.739 1522.85 529.739 1531.6 Q529.739 1540.33 526.661 1544.94 Q523.605 1549.52 517.795 1549.52 Q511.985 1549.52 508.906 1544.94 Q505.85 1540.33 505.85 1531.6 Q505.85 1522.85 508.906 1518.27 Q511.985 1513.66 517.795 1513.66 Z" fill="#000000" fill-rule="nonzero" fill-opacity="1" /><path clip-path="url(#clip870)" d="M952.599 1532.02 L982.275 1532.02 L982.275 1535.95 L952.599 1535.95 L952.599 1532.02 Z" fill="#000000" fill-rule="nonzero" fill-opacity="1" /><path clip-path="url(#clip870)" d="M1002.37 1517.37 Q998.756 1517.37 996.928 1520.93 Q995.122 1524.47 995.122 1531.6 Q995.122 1538.71 996.928 1542.27 Q998.756 1545.82 1002.37 1545.82 Q1006 1545.82 1007.81 1542.27 Q1009.64 1538.71 1009.64 1531.6 Q1009.64 1524.47 1007.81 1520.93 Q1006 1517.37 1002.37 1517.37 M1002.37 1513.66 Q1008.18 1513.66 1011.23 1518.27 Q1014.31 1522.85 1014.31 1531.6 Q1014.31 1540.33 1011.23 1544.94 Q1008.18 1549.52 1002.37 1549.52 Q996.557 1549.52 993.479 1544.94 Q990.423 1540.33 990.423 1531.6 Q990.423 1522.85 993.479 1518.27 Q996.557 1513.66 1002.37 1513.66 Z" fill="#000000" fill-rule="nonzero" fill-opacity="1" /><path clip-path="url(#clip870)" d="M1022.53 1542.97 L1027.41 1542.97 L1027.41 1548.85 L1022.53 1548.85 L1022.53 1542.97 Z" fill="#000000" fill-rule="nonzero" fill-opacity="1" /><path clip-path="url(#clip870)" d="M1037.65 1514.29 L1056 1514.29 L1056 1518.22 L1041.93 1518.22 L1041.93 1526.7 Q1042.95 1526.35 1043.96 1526.19 Q1044.98 1526 1046 1526 Q1051.79 1526 1055.17 1529.17 Q1058.55 1532.34 1058.55 1537.76 Q1058.55 1543.34 1055.08 1546.44 Q1051.6 1549.52 1045.28 1549.52 Q1043.11 1549.52 1040.84 1549.15 Q1038.59 1548.78 1036.19 1548.04 L1036.19 1543.34 Q1038.27 1544.47 1040.49 1545.03 Q1042.71 1545.58 1045.19 1545.58 Q1049.2 1545.58 1051.53 1543.48 Q1053.87 1541.37 1053.87 1537.76 Q1053.87 1534.15 1051.53 1532.04 Q1049.2 1529.94 1045.19 1529.94 Q1043.32 1529.94 1041.44 1530.35 Q1039.59 1530.77 1037.65 1531.65 L1037.65 1514.29 Z" fill="#000000" fill-rule="nonzero" fill-opacity="1" /><path clip-path="url(#clip870)" d="M1512.26 1517.37 Q1508.65 1517.37 1506.82 1520.93 Q1505.02 1524.47 1505.02 1531.6 Q1505.02 1538.71 1506.82 1542.27 Q1508.65 1545.82 1512.26 1545.82 Q1515.9 1545.82 1517.7 1542.27 Q1519.53 1538.71 1519.53 1531.6 Q1519.53 1524.47 1517.7 1520.93 Q1515.9 1517.37 1512.26 1517.37 M1512.26 1513.66 Q1518.07 1513.66 1521.13 1518.27 Q1524.21 1522.85 1524.21 1531.6 Q1524.21 1540.33 1521.13 1544.94 Q1518.07 1549.52 1512.26 1549.52 Q1506.45 1549.52 1503.38 1544.94 Q1500.32 1540.33 1500.32 1531.6 Q1500.32 1522.85 1503.38 1518.27 Q1506.45 1513.66 1512.26 1513.66 Z" fill="#000000" fill-rule="nonzero" fill-opacity="1" /><path clip-path="url(#clip870)" d="M1532.43 1542.97 L1537.31 1542.97 L1537.31 1548.85 L1532.43 1548.85 L1532.43 1542.97 Z" fill="#000000" fill-rule="nonzero" fill-opacity="1" /><path clip-path="url(#clip870)" d="M1557.5 1517.37 Q1553.88 1517.37 1552.06 1520.93 Q1550.25 1524.47 1550.25 1531.6 Q1550.25 1538.71 1552.06 1542.27 Q1553.88 1545.82 1557.5 1545.82 Q1561.13 1545.82 1562.94 1542.27 Q1564.76 1538.71 1564.76 1531.6 Q1564.76 1524.47 1562.94 1520.93 Q1561.13 1517.37 1557.5 1517.37 M1557.5 1513.66 Q1563.31 1513.66 1566.36 1518.27 Q1569.44 1522.85 1569.44 1531.6 Q1569.44 1540.33 1566.36 1544.94 Q1563.31 1549.52 1557.5 1549.52 Q1551.69 1549.52 1548.61 1544.94 Q1545.55 1540.33 1545.55 1531.6 Q1545.55 1522.85 1548.61 1518.27 Q1551.69 1513.66 1557.5 1513.66 Z" fill="#000000" fill-rule="nonzero" fill-opacity="1" /><path clip-path="url(#clip870)" d="M2042.07 1517.37 Q2038.46 1517.37 2036.63 1520.93 Q2034.82 1524.47 2034.82 1531.6 Q2034.82 1538.71 2036.63 1542.27 Q2038.46 1545.82 2042.07 1545.82 Q2045.7 1545.82 2047.51 1542.27 Q2049.34 1538.71 2049.34 1531.6 Q2049.34 1524.47 2047.51 1520.93 Q2045.7 1517.37 2042.07 1517.37 M2042.07 1513.66 Q2047.88 1513.66 2050.93 1518.27 Q2054.01 1522.85 2054.01 1531.6 Q2054.01 1540.33 2050.93 1544.94 Q2047.88 1549.52 2042.07 1549.52 Q2036.26 1549.52 2033.18 1544.94 Q2030.12 1540.33 2030.12 1531.6 Q2030.12 1522.85 2033.18 1518.27 Q2036.26 1513.66 2042.07 1513.66 Z" fill="#000000" fill-rule="nonzero" fill-opacity="1" /><path clip-path="url(#clip870)" d="M2062.23 1542.97 L2067.11 1542.97 L2067.11 1548.85 L2062.23 1548.85 L2062.23 1542.97 Z" fill="#000000" fill-rule="nonzero" fill-opacity="1" /><path clip-path="url(#clip870)" d="M2077.35 1514.29 L2095.7 1514.29 L2095.7 1518.22 L2081.63 1518.22 L2081.63 1526.7 Q2082.65 1526.35 2083.67 1526.19 Q2084.68 1526 2085.7 1526 Q2091.49 1526 2094.87 1529.17 Q2098.25 1532.34 2098.25 1537.76 Q2098.25 1543.34 2094.78 1546.44 Q2091.3 1549.52 2084.98 1549.52 Q2082.81 1549.52 2080.54 1549.15 Q2078.29 1548.78 2075.89 1548.04 L2075.89 1543.34 Q2077.97 1544.47 2080.19 1545.03 Q2082.42 1545.58 2084.89 1545.58 Q2088.9 1545.58 2091.23 1543.48 Q2093.57 1541.37 2093.57 1537.76 Q2093.57 1534.15 2091.23 1532.04 Q2088.9 1529.94 2084.89 1529.94 Q2083.02 1529.94 2081.14 1530.35 Q2079.29 1530.77 2077.35 1531.65 L2077.35 1514.29 Z" fill="#000000" fill-rule="nonzero" fill-opacity="1" /><polyline clip-path="url(#clip870)" style="stroke:#000000; stroke-linecap:round; stroke-linejoin:round; stroke-width:4; stroke-opacity:1; fill:none" points="112.177,1486.45 112.177,47.2441 "/>
<polyline clip-path="url(#clip870)" style="stroke:#000000; stroke-linecap:round; stroke-linejoin:round; stroke-width:4; stroke-opacity:1; fill:none" points="112.177,1254.8 131.075,1254.8 "/>
<polyline clip-path="url(#clip870)" style="stroke:#000000; stroke-linecap:round; stroke-linejoin:round; stroke-width:4; stroke-opacity:1; fill:none" points="112.177,1019.13 131.075,1019.13 "/>
<polyline clip-path="url(#clip870)" style="stroke:#000000; stroke-linecap:round; stroke-linejoin:round; stroke-width:4; stroke-opacity:1; fill:none" points="112.177,783.463 131.075,783.463 "/>
<polyline clip-path="url(#clip870)" style="stroke:#000000; stroke-linecap:round; stroke-linejoin:round; stroke-width:4; stroke-opacity:1; fill:none" points="112.177,547.794 131.075,547.794 "/>
<polyline clip-path="url(#clip870)" style="stroke:#000000; stroke-linecap:round; stroke-linejoin:round; stroke-width:4; stroke-opacity:1; fill:none" points="112.177,312.124 131.075,312.124 "/>
<polyline clip-path="url(#clip870)" style="stroke:#000000; stroke-linecap:round; stroke-linejoin:round; stroke-width:4; stroke-opacity:1; fill:none" points="112.177,76.4547 131.075,76.4547 "/>
<path clip-path="url(#clip870)" d="M56.2699 1268.15 L63.9087 1268.15 L63.9087 1241.78 L55.5986 1243.45 L55.5986 1239.19 L63.8624 1237.52 L68.5383 1237.52 L68.5383 1268.15 L76.1772 1268.15 L76.1772 1272.08 L56.2699 1272.08 L56.2699 1268.15 Z" fill="#000000" fill-rule="nonzero" fill-opacity="1" /><path clip-path="url(#clip870)" d="M59.8578 1032.48 L76.1772 1032.48 L76.1772 1036.41 L54.2328 1036.41 L54.2328 1032.48 Q56.8949 1029.72 61.4782 1025.09 Q66.0846 1020.44 67.2652 1019.1 Q69.5105 1016.57 70.3902 1014.84 Q71.2929 1013.08 71.2929 1011.39 Q71.2929 1008.63 69.3485 1006.9 Q67.4272 1005.16 64.3254 1005.16 Q62.1263 1005.16 59.6726 1005.93 Q57.2421 1006.69 54.4643 1008.24 L54.4643 1003.52 Q57.2884 1002.38 59.7421 1001.81 Q62.1958 1001.23 64.2328 1001.23 Q69.6031 1001.23 72.7976 1003.91 Q75.992 1006.6 75.992 1011.09 Q75.992 1013.22 75.1818 1015.14 Q74.3948 1017.04 72.2883 1019.63 Q71.7096 1020.3 68.6078 1023.52 Q65.5059 1026.71 59.8578 1032.48 Z" fill="#000000" fill-rule="nonzero" fill-opacity="1" /><path clip-path="url(#clip870)" d="M69.0476 782.109 Q72.404 782.826 74.279 785.095 Q76.1772 787.363 76.1772 790.697 Q76.1772 795.812 72.6587 798.613 Q69.1402 801.414 62.6587 801.414 Q60.4828 801.414 58.168 800.974 Q55.8764 800.558 53.4227 799.701 L53.4227 795.187 Q55.3671 796.322 57.6819 796.9 Q59.9967 797.479 62.5198 797.479 Q66.918 797.479 69.2096 795.743 Q71.5244 794.007 71.5244 790.697 Q71.5244 787.641 69.3717 785.928 Q67.242 784.192 63.4226 784.192 L59.3949 784.192 L59.3949 780.35 L63.6078 780.35 Q67.0569 780.35 68.8855 778.984 Q70.7142 777.595 70.7142 775.002 Q70.7142 772.34 68.8161 770.928 Q66.9411 769.493 63.4226 769.493 Q61.5013 769.493 59.3023 769.91 Q57.1032 770.326 54.4643 771.206 L54.4643 767.039 Q57.1264 766.299 59.4412 765.928 Q61.7791 765.558 63.8393 765.558 Q69.1633 765.558 72.2652 767.989 Q75.367 770.396 75.367 774.516 Q75.367 777.387 73.7235 779.377 Q72.08 781.345 69.0476 782.109 Z" fill="#000000" fill-rule="nonzero" fill-opacity="1" /><path clip-path="url(#clip870)" d="M66.5939 534.588 L54.7884 553.037 L66.5939 553.037 L66.5939 534.588 M65.367 530.514 L71.2466 530.514 L71.2466 553.037 L76.1772 553.037 L76.1772 556.925 L71.2466 556.925 L71.2466 565.074 L66.5939 565.074 L66.5939 556.925 L50.9921 556.925 L50.9921 552.412 L65.367 530.514 Z" fill="#000000" fill-rule="nonzero" fill-opacity="1" /><path clip-path="url(#clip870)" d="M55.2745 294.844 L73.6309 294.844 L73.6309 298.779 L59.5569 298.779 L59.5569 307.251 Q60.5754 306.904 61.5939 306.742 Q62.6124 306.557 63.6309 306.557 Q69.418 306.557 72.7976 309.728 Q76.1772 312.9 76.1772 318.316 Q76.1772 323.895 72.705 326.997 Q69.2328 330.075 62.9134 330.075 Q60.7374 330.075 58.4689 329.705 Q56.2236 329.335 53.8162 328.594 L53.8162 323.895 Q55.8995 325.029 58.1217 325.585 Q60.3439 326.14 62.8208 326.14 Q66.8254 326.14 69.1633 324.034 Q71.5013 321.927 71.5013 318.316 Q71.5013 314.705 69.1633 312.599 Q66.8254 310.492 62.8208 310.492 Q60.9458 310.492 59.0708 310.909 Q57.2189 311.326 55.2745 312.205 L55.2745 294.844 Z" fill="#000000" fill-rule="nonzero" fill-opacity="1" /><path clip-path="url(#clip870)" d="M64.6495 74.5913 Q61.5013 74.5913 59.6495 76.7441 Q57.8208 78.8968 57.8208 82.6468 Q57.8208 86.3737 59.6495 88.5496 Q61.5013 90.7023 64.6495 90.7023 Q67.7976 90.7023 69.6263 88.5496 Q71.4781 86.3737 71.4781 82.6468 Q71.4781 78.8968 69.6263 76.7441 Q67.7976 74.5913 64.6495 74.5913 M73.9318 59.9386 L73.9318 64.1979 Q72.1726 63.3645 70.367 62.9247 Q68.5846 62.4849 66.8254 62.4849 Q62.1958 62.4849 59.7421 65.6099 Q57.3115 68.7349 56.9643 75.0543 Q58.33 73.0404 60.3902 71.9756 Q62.4504 70.8876 64.9272 70.8876 Q70.1355 70.8876 73.1448 74.0589 Q76.1772 77.207 76.1772 82.6468 Q76.1772 87.9709 73.029 91.1884 Q69.8809 94.406 64.6495 94.406 Q58.6541 94.406 55.4828 89.8227 Q52.3116 85.2163 52.3116 76.4895 Q52.3116 68.2951 56.2004 63.434 Q60.0893 58.5497 66.6402 58.5497 Q68.3994 58.5497 70.1818 58.897 Q71.9874 59.2442 73.9318 59.9386 Z" fill="#000000" fill-rule="nonzero" fill-opacity="1" /><circle clip-path="url(#clip871)" cx="2289.34" cy="1319.9" r="14.4" fill="#808080" fill-rule="evenodd" fill-opacity="1" stroke="#000000" stroke-opacity="1" stroke-width="3.2"/>
<circle clip-path="url(#clip871)" cx="175.59" cy="87.9763" r="14.4" fill="#808080" fill-rule="evenodd" fill-opacity="1" stroke="#000000" stroke-opacity="1" stroke-width="3.2"/>
<circle clip-path="url(#clip871)" cx="1568.04" cy="1445.72" r="14.4" fill="#808080" fill-rule="evenodd" fill-opacity="1" stroke="#000000" stroke-opacity="1" stroke-width="3.2"/>
<circle clip-path="url(#clip871)" cx="1423.1" cy="1423.05" r="14.4" fill="#808080" fill-rule="evenodd" fill-opacity="1" stroke="#000000" stroke-opacity="1" stroke-width="3.2"/>
<path clip-path="url(#clip870)" d="M2293.64 1327.34 Q2284.6 1327.34 2281.12 1329.4 Q2277.64 1331.47 2277.64 1336.45 Q2277.64 1340.42 2280.23 1342.77 Q2282.86 1345.08 2287.36 1345.08 Q2293.56 1345.08 2297.28 1340.7 Q2301.05 1336.29 2301.05 1329 L2301.05 1327.34 L2293.64 1327.34 M2308.5 1324.26 L2308.5 1350.14 L2301.05 1350.14 L2301.05 1343.26 Q2298.5 1347.39 2294.69 1349.37 Q2290.88 1351.32 2285.37 1351.32 Q2278.41 1351.32 2274.27 1347.43 Q2270.18 1343.5 2270.18 1336.94 Q2270.18 1329.28 2275.29 1325.39 Q2280.43 1321.5 2290.6 1321.5 L2301.05 1321.5 L2301.05 1320.77 Q2301.05 1315.63 2297.65 1312.83 Q2294.29 1310 2288.17 1310 Q2284.28 1310 2280.59 1310.93 Q2276.91 1311.86 2273.5 1313.73 L2273.5 1306.84 Q2277.6 1305.26 2281.44 1304.49 Q2285.29 1303.68 2288.94 1303.68 Q2298.78 1303.68 2303.64 1308.78 Q2308.5 1313.89 2308.5 1324.26 Z" fill="#000000" fill-rule="nonzero" fill-opacity="1" /><path clip-path="url(#clip870)" d="M188.148 95.5717 Q188.148 87.3484 184.745 82.6898 Q181.383 77.9908 175.468 77.9908 Q169.554 77.9908 166.151 82.6898 Q162.789 87.3484 162.789 95.5717 Q162.789 103.795 166.151 108.494 Q169.554 113.153 175.468 113.153 Q181.383 113.153 184.745 108.494 Q188.148 103.795 188.148 95.5717 M162.789 79.7327 Q165.138 75.6818 168.703 73.7373 Q172.309 71.7524 177.291 71.7524 Q185.555 71.7524 190.7 78.3149 Q195.885 84.8773 195.885 95.5717 Q195.885 106.266 190.7 112.829 Q185.555 119.391 177.291 119.391 Q172.309 119.391 168.703 117.447 Q165.138 115.462 162.789 111.411 L162.789 118.216 L155.295 118.216 L155.295 55.1842 L162.789 55.1842 L162.789 79.7327 Z" fill="#000000" fill-rule="nonzero" fill-opacity="1" /><path clip-path="url(#clip870)" d="M1585.98 1432.33 L1585.98 1439.3 Q1582.82 1437.55 1579.62 1436.7 Q1576.46 1435.81 1573.22 1435.81 Q1565.97 1435.81 1561.96 1440.43 Q1557.95 1445.01 1557.95 1453.31 Q1557.95 1461.62 1561.96 1466.23 Q1565.97 1470.81 1573.22 1470.81 Q1576.46 1470.81 1579.62 1469.96 Q1582.82 1469.07 1585.98 1467.33 L1585.98 1474.21 Q1582.86 1475.67 1579.5 1476.4 Q1576.18 1477.13 1572.41 1477.13 Q1562.16 1477.13 1556.13 1470.69 Q1550.09 1464.25 1550.09 1453.31 Q1550.09 1442.21 1556.17 1435.85 Q1562.28 1429.49 1572.9 1429.49 Q1576.34 1429.49 1579.62 1430.22 Q1582.9 1430.91 1585.98 1432.33 Z" fill="#000000" fill-rule="nonzero" fill-opacity="1" /><path clip-path="url(#clip870)" d="M1435.92 1414.8 L1435.92 1390.25 L1443.38 1390.25 L1443.38 1453.29 L1435.92 1453.29 L1435.92 1446.48 Q1433.57 1450.53 1429.97 1452.52 Q1426.4 1454.46 1421.38 1454.46 Q1413.16 1454.46 1407.97 1447.9 Q1402.83 1441.34 1402.83 1430.64 Q1402.83 1419.95 1407.97 1413.39 Q1413.16 1406.82 1421.38 1406.82 Q1426.4 1406.82 1429.97 1408.81 Q1433.57 1410.75 1435.92 1414.8 M1410.52 1430.64 Q1410.52 1438.87 1413.88 1443.56 Q1417.29 1448.22 1423.2 1448.22 Q1429.12 1448.22 1432.52 1443.56 Q1435.92 1438.87 1435.92 1430.64 Q1435.92 1422.42 1432.52 1417.76 Q1429.12 1413.06 1423.2 1413.06 Q1417.29 1413.06 1413.88 1417.76 Q1410.52 1422.42 1410.52 1430.64 Z" fill="#000000" fill-rule="nonzero" fill-opacity="1" /><path clip-path="url(#clip870)" d="M2001.58 198.898 L2278.07 198.898 L2278.07 95.2176 L2001.58 95.2176  Z" fill="#ffffff" fill-rule="evenodd" fill-opacity="1"/>
<polyline clip-path="url(#clip870)" style="stroke:#000000; stroke-linecap:round; stroke-linejoin:round; stroke-width:4; stroke-opacity:1; fill:none" points="2001.58,198.898 2278.07,198.898 2278.07,95.2176 2001.58,95.2176 2001.58,198.898 "/>
<circle clip-path="url(#clip870)" cx="2101.16" cy="147.058" r="20.48" fill="#808080" fill-rule="evenodd" fill-opacity="1" stroke="#000000" stroke-opacity="1" stroke-width="4.55111"/>
<path clip-path="url(#clip870)" d="M2214.59 166.745 Q2212.78 171.375 2211.07 172.787 Q2209.36 174.199 2206.49 174.199 L2203.08 174.199 L2203.08 170.634 L2205.58 170.634 Q2207.34 170.634 2208.31 169.8 Q2209.29 168.967 2210.47 165.865 L2211.23 163.921 L2200.74 138.412 L2205.26 138.412 L2213.36 158.689 L2221.46 138.412 L2225.98 138.412 L2214.59 166.745 Z" fill="#000000" fill-rule="nonzero" fill-opacity="1" /><path clip-path="url(#clip870)" d="M2233.27 160.402 L2240.91 160.402 L2240.91 134.037 L2232.6 135.703 L2232.6 131.444 L2240.86 129.778 L2245.54 129.778 L2245.54 160.402 L2253.17 160.402 L2253.17 164.338 L2233.27 164.338 L2233.27 160.402 Z" fill="#000000" fill-rule="nonzero" fill-opacity="1" /></svg>
