<?xml version="1.0" encoding="utf-8"?>
<svg xmlns="http://www.w3.org/2000/svg" xmlns:xlink="http://www.w3.org/1999/xlink" width="600" height="400" viewBox="0 0 2400 1600">
<defs>
  <clipPath id="clip840">
    <rect x="0" y="0" width="2400" height="1600"/>
  </clipPath>
</defs>
<path clip-path="url(#clip840)" d="M0 1600 L2400 1600 L2400 0 L0 0  Z" fill="#ffffff" fill-rule="evenodd" fill-opacity="1"/>
<defs>
  <clipPath id="clip841">
    <rect x="156" y="47" width="2197" height="1440"/>
  </clipPath>
</defs>
<path clip-path="url(#clip840)" d="M156.598 1486.45 L2352.76 1486.45 L2352.76 47.2441 L156.598 47.2441  Z" fill="#ffffff" fill-rule="evenodd" fill-opacity="1"/>
<polyline clip-path="url(#clip841)" style="stroke:#000000; stroke-linecap:round; stroke-linejoin:round; stroke-width:2; stroke-opacity:0.1; fill:none" points="202.548,1486.45 202.548,47.2441 "/>
<polyline clip-path="url(#clip841)" style="stroke:#000000; stroke-linecap:round; stroke-linejoin:round; stroke-width:2; stroke-opacity:0.1; fill:none" points="632.94,1486.45 632.94,47.2441 "/>
<polyline clip-path="url(#clip841)" style="stroke:#000000; stroke-linecap:round; stroke-linejoin:round; stroke-width:2; stroke-opacity:0.1; fill:none" points="1063.33,1486.45 1063.33,47.2441 "/>
<polyline clip-path="url(#clip841)" style="stroke:#000000; stroke-linecap:round; stroke-linejoin:round; stroke-width:2; stroke-opacity:0.1; fill:none" points="1493.72,1486.45 1493.72,47.2441 "/>
<polyline clip-path="url(#clip841)" style="stroke:#000000; stroke-linecap:round; stroke-linejoin:round; stroke-width:2; stroke-opacity:0.1; fill:none" points="1924.12,1486.45 1924.12,47.2441 "/>
<polyline clip-path="url(#clip841)" style="stroke:#000000; stroke-linecap:round; stroke-linejoin:round; stroke-width:2; stroke-opacity:0.1; fill:none" points="156.598,1449.91 2352.76,1449.91 "/>
<polyline clip-path="url(#clip841)" style="stroke:#000000; stroke-linecap:round; stroke-linejoin:round; stroke-width:2; stroke-opacity:0.1; fill:none" points="156.598,1224.12 2352.76,1224.12 "/>
<polyline clip-path="url(#clip841)" style="stroke:#000000; stroke-linecap:round; stroke-linejoin:round; stroke-width:2; stroke-opacity:0.1; fill:none" points="156.598,998.328 2352.76,998.328 "/>
<polyline clip-path="url(#clip841)" style="stroke:#000000; stroke-linecap:round; stroke-linejoin:round; stroke-width:2; stroke-opacity:0.1; fill:none" points="156.598,772.535 2352.76,772.535 "/>
<polyline clip-path="url(#clip841)" style="stroke:#000000; stroke-linecap:round; stroke-linejoin:round; stroke-width:2; stroke-opacity:0.1; fill:none" points="156.598,546.743 2352.76,546.743 "/>
<polyline clip-path="url(#clip841)" style="stroke:#000000; stroke-linecap:round; stroke-linejoin:round; stroke-width:2; stroke-opacity:0.1; fill:none" points="156.598,320.95 2352.76,320.95 "/>
<polyline clip-path="url(#clip841)" style="stroke:#000000; stroke-linecap:round; stroke-linejoin:round; stroke-width:2; stroke-opacity:0.1; fill:none" points="156.598,95.1577 2352.76,95.1577 "/>
<polyline clip-path="url(#clip840)" style="stroke:#000000; stroke-linecap:round; stroke-linejoin:round; stroke-width:4; stroke-opacity:1; fill:none" points="156.598,1486.45 2352.76,1486.45 "/>
<polyline clip-path="url(#clip840)" style="stroke:#000000; stroke-linecap:round; stroke-linejoin:round; stroke-width:4; stroke-opacity:1; fill:none" points="202.548,1486.45 202.548,1467.55 "/>
<polyline clip-path="url(#clip840)" style="stroke:#000000; stroke-linecap:round; stroke-linejoin:round; stroke-width:4; stroke-opacity:1; fill:none" points="632.94,1486.45 632.94,1467.55 "/>
<polyline clip-path="url(#clip840)" style="stroke:#000000; stroke-linecap:round; stroke-linejoin:round; stroke-width:4; stroke-opacity:1; fill:none" points="1063.33,1486.45 1063.33,1467.55 "/>
<polyline clip-path="url(#clip840)" style="stroke:#000000; stroke-linecap:round; stroke-linejoin:round; stroke-width:4; stroke-opacity:1; fill:none" points="1493.72,1486.45 1493.72,1467.55 "/>
<polyline clip-path="url(#clip840)" style="stroke:#000000; stroke-linecap:round; stroke-linejoin:round; stroke-width:4; stroke-opacity:1; fill:none" points="1924.12,1486.45 1924.12,1467.55 "/>
<path clip-path="url(#clip840)" d="M148.995 1532.02 L178.671 1532.02 L178.671 1535.95 L148.995 1535.95 L148.995 1532.02 Z" fill="#000000" fill-rule="nonzero" fill-opacity="1" /><path clip-path="url(#clip840)" d="M198.763 1517.37 Q195.152 1517.37 193.323 1520.93 Q191.518 1524.47 191.518 1531.6 Q191.518 1538.71 193.323 1542.27 Q195.152 1545.82 198.763 1545.82 Q202.397 1545.82 204.203 1542.27 Q206.032 1538.71 206.032 1531.6 Q206.032 1524.47 204.203 1520.93 Q202.397 1517.37 198.763 1517.37 M198.763 1513.66 Q204.573 1513.66 207.629 1518.27 Q210.708 1522.85 210.708 1531.6 Q210.708 1540.33 207.629 1544.94 Q204.573 1549.52 198.763 1549.52 Q192.953 1549.52 189.874 1544.94 Q186.819 1540.33 186.819 1531.6 Q186.819 1522.85 189.874 1518.27 Q192.953 1513.66 198.763 1513.66 Z" fill="#000000" fill-rule="nonzero" fill-opacity="1" /><path clip-path="url(#clip840)" d="M218.925 1542.97 L223.809 1542.97 L223.809 1548.85 L218.925 1548.85 L218.925 1542.97 Z" fill="#000000" fill-rule="nonzero" fill-opacity="1" /><path clip-path="url(#clip840)" d="M244.573 1529.7 Q241.425 1529.7 239.573 1531.86 Q237.744 1534.01 237.744 1537.76 Q237.744 1541.49 239.573 1543.66 Q241.425 1545.82 244.573 1545.82 Q247.721 1545.82 249.55 1543.66 Q251.402 1541.49 251.402 1537.76 Q251.402 1534.01 249.55 1531.86 Q247.721 1529.7 244.573 1529.7 M253.856 1515.05 L253.856 1519.31 Q252.096 1518.48 250.291 1518.04 Q248.508 1517.6 246.749 1517.6 Q242.119 1517.6 239.666 1520.72 Q237.235 1523.85 236.888 1530.17 Q238.254 1528.15 240.314 1527.09 Q242.374 1526 244.851 1526 Q250.059 1526 253.068 1529.17 Q256.101 1532.32 256.101 1537.76 Q256.101 1543.08 252.953 1546.3 Q249.805 1549.52 244.573 1549.52 Q238.578 1549.52 235.407 1544.94 Q232.235 1540.33 232.235 1531.6 Q232.235 1523.41 236.124 1518.55 Q240.013 1513.66 246.564 1513.66 Q248.323 1513.66 250.106 1514.01 Q251.911 1514.36 253.856 1515.05 Z" fill="#000000" fill-rule="nonzero" fill-opacity="1" /><path clip-path="url(#clip840)" d="M579.225 1532.02 L608.901 1532.02 L608.901 1535.95 L579.225 1535.95 L579.225 1532.02 Z" fill="#000000" fill-rule="nonzero" fill-opacity="1" /><path clip-path="url(#clip840)" d="M628.993 1517.37 Q625.382 1517.37 623.553 1520.93 Q621.748 1524.47 621.748 1531.6 Q621.748 1538.71 623.553 1542.27 Q625.382 1545.82 628.993 1545.82 Q632.627 1545.82 634.433 1542.27 Q636.262 1538.71 636.262 1531.6 Q636.262 1524.47 634.433 1520.93 Q632.627 1517.37 628.993 1517.37 M628.993 1513.66 Q634.803 1513.66 637.859 1518.27 Q640.938 1522.85 640.938 1531.6 Q640.938 1540.33 637.859 1544.94 Q634.803 1549.52 628.993 1549.52 Q623.183 1549.52 620.104 1544.94 Q617.049 1540.33 617.049 1531.6 Q617.049 1522.85 620.104 1518.27 Q623.183 1513.66 628.993 1513.66 Z" fill="#000000" fill-rule="nonzero" fill-opacity="1" /><path clip-path="url(#clip840)" d="M649.155 1542.97 L654.039 1542.97 L654.039 1548.85 L649.155 1548.85 L649.155 1542.97 Z" fill="#000000" fill-rule="nonzero" fill-opacity="1" /><path clip-path="url(#clip840)" d="M677.072 1518.36 L665.266 1536.81 L677.072 1536.81 L677.072 1518.36 M675.845 1514.29 L681.724 1514.29 L681.724 1536.81 L686.655 1536.81 L686.655 1540.7 L681.724 1540.7 L681.724 1548.85 L677.072 1548.85 L677.072 1540.7 L661.47 1540.7 L661.47 1536.19 L675.845 1514.29 Z" fill="#000000" fill-rule="nonzero" fill-opacity="1" /><path clip-path="url(#clip840)" d="M1010.66 1532.02 L1040.33 1532.02 L1040.33 1535.95 L1010.66 1535.95 L1010.66 1532.02 Z" fill="#000000" fill-rule="nonzero" fill-opacity="1" /><path clip-path="url(#clip840)" d="M1060.43 1517.37 Q1056.82 1517.37 1054.99 1520.93 Q1053.18 1524.47 1053.18 1531.6 Q1053.18 1538.71 1054.99 1542.27 Q1056.82 1545.82 1060.43 1545.82 Q1064.06 1545.82 1065.87 1542.27 Q1067.7 1538.71 1067.7 1531.6 Q1067.7 1524.47 1065.87 1520.93 Q1064.06 1517.37 1060.43 1517.37 M1060.43 1513.66 Q1066.24 1513.66 1069.29 1518.27 Q1072.37 1522.85 1072.37 1531.6 Q1072.37 1540.33 1069.29 1544.94 Q1066.24 1549.52 1060.43 1549.52 Q1054.62 1549.52 1051.54 1544.94 Q1048.48 1540.33 1048.48 1531.6 Q1048.48 1522.85 1051.54 1518.27 Q1054.62 1513.66 1060.43 1513.66 Z" fill="#000000" fill-rule="nonzero" fill-opacity="1" /><path clip-path="url(#clip840)" d="M1080.59 1542.97 L1085.47 1542.97 L1085.47 1548.85 L1080.59 1548.85 L1080.59 1542.97 Z" fill="#000000" fill-rule="nonzero" fill-opacity="1" /><path clip-path="url(#clip840)" d="M1099.69 1544.91 L1116.01 1544.91 L1116.01 1548.85 L1094.06 1548.85 L1094.06 1544.91 Q1096.72 1542.16 1101.31 1537.53 Q1105.91 1532.88 1107.09 1531.53 Q1109.34 1529.01 1110.22 1527.27 Q1111.12 1525.51 1111.12 1523.82 Q1111.12 1521.07 1109.18 1519.33 Q1107.26 1517.6 1104.15 1517.6 Q1101.95 1517.6 1099.5 1518.36 Q1097.07 1519.13 1094.29 1520.68 L1094.29 1515.95 Q1097.12 1514.82 1099.57 1514.24 Q1102.02 1513.66 1104.06 1513.66 Q1109.43 1513.66 1112.63 1516.35 Q1115.82 1519.03 1115.82 1523.52 Q1115.82 1525.65 1115.01 1527.57 Q1114.22 1529.47 1112.12 1532.07 Q1111.54 1532.74 1108.44 1535.95 Q1105.33 1539.15 1099.69 1544.91 Z" fill="#000000" fill-rule="nonzero" fill-opacity="1" /><path clip-path="url(#clip840)" d="M1471.11 1517.37 Q1467.5 1517.37 1465.67 1520.93 Q1463.86 1524.47 1463.86 1531.6 Q1463.86 1538.71 1465.67 1542.27 Q1467.5 1545.82 1471.11 1545.82 Q1474.74 1545.82 1476.55 1542.27 Q1478.38 1538.71 1478.38 1531.6 Q1478.38 1524.47 1476.55 1520.93 Q1474.74 1517.37 1471.11 1517.37 M1471.11 1513.66 Q1476.92 1513.66 1479.97 1518.27 Q1483.05 1522.85 1483.05 1531.6 Q1483.05 1540.33 1479.97 1544.94 Q1476.92 1549.52 1471.11 1549.52 Q1465.3 1549.52 1462.22 1544.94 Q1459.16 1540.33 1459.16 1531.6 Q1459.16 1522.85 1462.22 1518.27 Q1465.3 1513.66 1471.11 1513.66 Z" fill="#000000" fill-rule="nonzero" fill-opacity="1" /><path clip-path="url(#clip840)" d="M1491.27 1542.97 L1496.15 1542.97 L1496.15 1548.85 L1491.27 1548.85 L1491.27 1542.97 Z" fill="#000000" fill-rule="nonzero" fill-opacity="1" /><path clip-path="url(#clip840)" d="M1516.34 1517.37 Q1512.73 1517.37 1510.9 1520.93 Q1509.09 1524.47 1509.09 1531.6 Q1509.09 1538.71 1510.9 1542.27 Q1512.73 1545.82 1516.34 1545.82 Q1519.97 1545.82 1521.78 1542.27 Q1523.61 1538.71 1523.61 1531.6 Q1523.61 1524.47 1521.78 1520.93 Q1519.97 1517.37 1516.34 1517.37 M1516.34 1513.66 Q1522.15 1513.66 1525.21 1518.27 Q1528.28 1522.85 1528.28 1531.6 Q1528.28 1540.33 1525.21 1544.94 Q1522.15 1549.52 1516.34 1549.52 Q1510.53 1549.52 1507.45 1544.94 Q1504.4 1540.33 1504.4 1531.6 Q1504.4 1522.85 1507.45 1518.27 Q1510.53 1513.66 1516.34 1513.66 Z" fill="#000000" fill-rule="nonzero" fill-opacity="1" /><path clip-path="url(#clip840)" d="M1902.3 1517.37 Q1898.69 1517.37 1896.86 1520.93 Q1895.05 1524.47 1895.05 1531.6 Q1895.05 1538.71 1896.86 1542.27 Q1898.69 1545.82 1902.3 1545.82 Q1905.93 1545.82 1907.74 1542.27 Q1909.57 1538.71 1909.57 1531.6 Q1909.57 1524.47 1907.74 1520.93 Q1905.93 1517.37 1902.3 1517.37 M1902.3 1513.66 Q1908.11 1513.66 1911.16 1518.27 Q1914.24 1522.85 1914.24 1531.6 Q1914.24 1540.33 1911.16 1544.94 Q1908.11 1549.52 1902.3 1549.52 Q1896.49 1549.52 1893.41 1544.94 Q1890.35 1540.33 1890.35 1531.6 Q1890.35 1522.85 1893.41 1518.27 Q1896.49 1513.66 1902.3 1513.66 Z" fill="#000000" fill-rule="nonzero" fill-opacity="1" /><path clip-path="url(#clip840)" d="M1922.46 1542.97 L1927.35 1542.97 L1927.35 1548.85 L1922.46 1548.85 L1922.46 1542.97 Z" fill="#000000" fill-rule="nonzero" fill-opacity="1" /><path clip-path="url(#clip840)" d="M1941.56 1544.91 L1957.88 1544.91 L1957.88 1548.85 L1935.93 1548.85 L1935.93 1544.91 Q1938.59 1542.16 1943.18 1537.53 Q1947.78 1532.88 1948.97 1531.53 Q1951.21 1529.01 1952.09 1527.27 Q1952.99 1525.51 1952.99 1523.82 Q1952.99 1521.07 1951.05 1519.33 Q1949.13 1517.6 1946.03 1517.6 Q1943.83 1517.6 1941.37 1518.36 Q1938.94 1519.13 1936.16 1520.68 L1936.16 1515.95 Q1938.99 1514.82 1941.44 1514.24 Q1943.9 1513.66 1945.93 1513.66 Q1951.3 1513.66 1954.5 1516.35 Q1957.69 1519.03 1957.69 1523.52 Q1957.69 1525.65 1956.88 1527.57 Q1956.09 1529.47 1953.99 1532.07 Q1953.41 1532.74 1950.31 1535.95 Q1947.21 1539.15 1941.56 1544.91 Z" fill="#000000" fill-rule="nonzero" fill-opacity="1" /><polyline clip-path="url(#clip840)" style="stroke:#000000; stroke-linecap:round; stroke-linejoin:round; stroke-width:4; stroke-opacity:1; fill:none" points="156.598,1486.45 156.598,47.2441 "/>
<polyline clip-path="url(#clip840)" style="stroke:#000000; stroke-linecap:round; stroke-linejoin:round; stroke-width:4; stroke-opacity:1; fill:none" points="156.598,1449.91 175.496,1449.91 "/>
<polyline clip-path="url(#clip840)" style="stroke:#000000; stroke-linecap:round; stroke-linejoin:round; stroke-width:4; stroke-opacity:1; fill:none" points="156.598,1224.12 175.496,1224.12 "/>
<polyline clip-path="url(#clip840)" style="stroke:#000000; stroke-linecap:round; stroke-linejoin:round; stroke-width:4; stroke-opacity:1; fill:none" points="156.598,998.328 175.496,998.328 "/>
<polyline clip-path="url(#clip840)" style="stroke:#000000; stroke-linecap:round; stroke-linejoin:round; stroke-width:4; stroke-opacity:1; fill:none" points="156.598,772.535 175.496,772.535 "/>
<polyline clip-path="url(#clip840)" style="stroke:#000000; stroke-linecap:round; stroke-linejoin:round; stroke-width:4; stroke-opacity:1; fill:none" points="156.598,546.743 175.496,546.743 "/>
<polyline clip-path="url(#clip840)" style="stroke:#000000; stroke-linecap:round; stroke-linejoin:round; stroke-width:4; stroke-opacity:1; fill:none" points="156.598,320.95 175.496,320.95 "/>
<polyline clip-path="url(#clip840)" style="stroke:#000000; stroke-linecap:round; stroke-linejoin:round; stroke-width:4; stroke-opacity:1; fill:none" points="156.598,95.1577 175.496,95.1577 "/>
<path clip-path="url(#clip840)" d="M63.4226 1435.71 Q59.8115 1435.71 57.9828 1439.28 Q56.1773 1442.82 56.1773 1449.95 Q56.1773 1457.05 57.9828 1460.62 Q59.8115 1464.16 63.4226 1464.16 Q67.0569 1464.16 68.8624 1460.62 Q70.6911 1457.05 70.6911 1449.95 Q70.6911 1442.82 68.8624 1439.28 Q67.0569 1435.71 63.4226 1435.71 M63.4226 1432.01 Q69.2328 1432.01 72.2883 1436.61 Q75.367 1441.2 75.367 1449.95 Q75.367 1458.67 72.2883 1463.28 Q69.2328 1467.86 63.4226 1467.86 Q57.6125 1467.86 54.5338 1463.28 Q51.4782 1458.67 51.4782 1449.95 Q51.4782 1441.2 54.5338 1436.61 Q57.6125 1432.01 63.4226 1432.01 Z" fill="#000000" fill-rule="nonzero" fill-opacity="1" /><path clip-path="url(#clip840)" d="M83.5845 1461.31 L88.4688 1461.31 L88.4688 1467.19 L83.5845 1467.19 L83.5845 1461.31 Z" fill="#000000" fill-rule="nonzero" fill-opacity="1" /><path clip-path="url(#clip840)" d="M108.654 1435.71 Q105.043 1435.71 103.214 1439.28 Q101.409 1442.82 101.409 1449.95 Q101.409 1457.05 103.214 1460.62 Q105.043 1464.16 108.654 1464.16 Q112.288 1464.16 114.094 1460.62 Q115.922 1457.05 115.922 1449.95 Q115.922 1442.82 114.094 1439.28 Q112.288 1435.71 108.654 1435.71 M108.654 1432.01 Q114.464 1432.01 117.52 1436.61 Q120.598 1441.2 120.598 1449.95 Q120.598 1458.67 117.52 1463.28 Q114.464 1467.86 108.654 1467.86 Q102.844 1467.86 99.765 1463.28 Q96.7095 1458.67 96.7095 1449.95 Q96.7095 1441.2 99.765 1436.61 Q102.844 1432.01 108.654 1432.01 Z" fill="#000000" fill-rule="nonzero" fill-opacity="1" /><path clip-path="url(#clip840)" d="M64.6495 1209.92 Q61.0384 1209.92 59.2097 1213.48 Q57.4041 1217.03 57.4041 1224.15 Q57.4041 1231.26 59.2097 1234.83 Q61.0384 1238.37 64.6495 1238.37 Q68.2837 1238.37 70.0892 1234.83 Q71.9179 1231.26 71.9179 1224.15 Q71.9179 1217.03 70.0892 1213.48 Q68.2837 1209.92 64.6495 1209.92 M64.6495 1206.22 Q70.4596 1206.22 73.5152 1210.82 Q76.5938 1215.4 76.5938 1224.15 Q76.5938 1232.88 73.5152 1237.49 Q70.4596 1242.07 64.6495 1242.07 Q58.8393 1242.07 55.7606 1237.49 Q52.7051 1232.88 52.7051 1224.15 Q52.7051 1215.4 55.7606 1210.82 Q58.8393 1206.22 64.6495 1206.22 Z" fill="#000000" fill-rule="nonzero" fill-opacity="1" /><path clip-path="url(#clip840)" d="M84.8114 1235.52 L89.6956 1235.52 L89.6956 1241.4 L84.8114 1241.4 L84.8114 1235.52 Z" fill="#000000" fill-rule="nonzero" fill-opacity="1" /><path clip-path="url(#clip840)" d="M100.691 1237.46 L108.33 1237.46 L108.33 1211.1 L100.02 1212.77 L100.02 1208.51 L108.283 1206.84 L112.959 1206.84 L112.959 1237.46 L120.598 1237.46 L120.598 1241.4 L100.691 1241.4 L100.691 1237.46 Z" fill="#000000" fill-rule="nonzero" fill-opacity="1" /><path clip-path="url(#clip840)" d="M65.0198 984.126 Q61.4087 984.126 59.58 987.691 Q57.7745 991.233 57.7745 998.362 Q57.7745 1005.47 59.58 1009.03 Q61.4087 1012.58 65.0198 1012.58 Q68.6541 1012.58 70.4596 1009.03 Q72.2883 1005.47 72.2883 998.362 Q72.2883 991.233 70.4596 987.691 Q68.6541 984.126 65.0198 984.126 M65.0198 980.423 Q70.83 980.423 73.8855 985.029 Q76.9642 989.612 76.9642 998.362 Q76.9642 1007.09 73.8855 1011.7 Q70.83 1016.28 65.0198 1016.28 Q59.2097 1016.28 56.131 1011.7 Q53.0754 1007.09 53.0754 998.362 Q53.0754 989.612 56.131 985.029 Q59.2097 980.423 65.0198 980.423 Z" fill="#000000" fill-rule="nonzero" fill-opacity="1" /><path clip-path="url(#clip840)" d="M85.1818 1009.73 L90.066 1009.73 L90.066 1015.61 L85.1818 1015.61 L85.1818 1009.73 Z" fill="#000000" fill-rule="nonzero" fill-opacity="1" /><path clip-path="url(#clip840)" d="M104.279 1011.67 L120.598 1011.67 L120.598 1015.61 L98.6539 1015.61 L98.6539 1011.67 Q101.316 1008.92 105.899 1004.29 Q110.506 999.635 111.686 998.293 Q113.932 995.77 114.811 994.034 Q115.714 992.274 115.714 990.585 Q115.714 987.83 113.77 986.094 Q111.848 984.358 108.746 984.358 Q106.547 984.358 104.094 985.122 Q101.663 985.886 98.8854 987.436 L98.8854 982.714 Q101.709 981.58 104.163 981.001 Q106.617 980.423 108.654 980.423 Q114.024 980.423 117.219 983.108 Q120.413 985.793 120.413 990.284 Q120.413 992.413 119.603 994.335 Q118.816 996.233 116.709 998.825 Q116.131 999.497 113.029 1002.71 Q109.927 1005.91 104.279 1011.67 Z" fill="#000000" fill-rule="nonzero" fill-opacity="1" /><path clip-path="url(#clip840)" d="M64.0708 758.334 Q60.4597 758.334 58.631 761.899 Q56.8254 765.44 56.8254 772.57 Q56.8254 779.676 58.631 783.241 Q60.4597 786.783 64.0708 786.783 Q67.705 786.783 69.5105 783.241 Q71.3392 779.676 71.3392 772.57 Q71.3392 765.44 69.5105 761.899 Q67.705 758.334 64.0708 758.334 M64.0708 754.63 Q69.8809 754.63 72.9365 759.237 Q76.0151 763.82 76.0151 772.57 Q76.0151 781.297 72.9365 785.903 Q69.8809 790.486 64.0708 790.486 Q58.2606 790.486 55.1819 785.903 Q52.1264 781.297 52.1264 772.57 Q52.1264 763.82 55.1819 759.237 Q58.2606 754.63 64.0708 754.63 Z" fill="#000000" fill-rule="nonzero" fill-opacity="1" /><path clip-path="url(#clip840)" d="M84.2327 783.936 L89.1169 783.936 L89.1169 789.815 L84.2327 789.815 L84.2327 783.936 Z" fill="#000000" fill-rule="nonzero" fill-opacity="1" /><path clip-path="url(#clip840)" d="M113.469 771.181 Q116.825 771.899 118.7 774.167 Q120.598 776.436 120.598 779.769 Q120.598 784.885 117.08 787.685 Q113.561 790.486 107.08 790.486 Q104.904 790.486 102.589 790.047 Q100.297 789.63 97.8437 788.773 L97.8437 784.26 Q99.7882 785.394 102.103 785.973 Q104.418 786.551 106.941 786.551 Q111.339 786.551 113.631 784.815 Q115.945 783.079 115.945 779.769 Q115.945 776.713 113.793 775 Q111.663 773.264 107.844 773.264 L103.816 773.264 L103.816 769.422 L108.029 769.422 Q111.478 769.422 113.307 768.056 Q115.135 766.667 115.135 764.075 Q115.135 761.412 113.237 760 Q111.362 758.565 107.844 758.565 Q105.922 758.565 103.723 758.982 Q101.524 759.399 98.8854 760.278 L98.8854 756.112 Q101.547 755.371 103.862 755 Q106.2 754.63 108.26 754.63 Q113.584 754.63 116.686 757.061 Q119.788 759.468 119.788 763.588 Q119.788 766.459 118.145 768.449 Q116.501 770.417 113.469 771.181 Z" fill="#000000" fill-rule="nonzero" fill-opacity="1" /><path clip-path="url(#clip840)" d="M62.9365 532.541 Q59.3254 532.541 57.4967 536.106 Q55.6912 539.648 55.6912 546.777 Q55.6912 553.884 57.4967 557.449 Q59.3254 560.99 62.9365 560.99 Q66.5707 560.99 68.3763 557.449 Q70.205 553.884 70.205 546.777 Q70.205 539.648 68.3763 536.106 Q66.5707 532.541 62.9365 532.541 M62.9365 528.838 Q68.7467 528.838 71.8022 533.444 Q74.8809 538.027 74.8809 546.777 Q74.8809 555.504 71.8022 560.111 Q68.7467 564.694 62.9365 564.694 Q57.1264 564.694 54.0477 560.111 Q50.9921 555.504 50.9921 546.777 Q50.9921 538.027 54.0477 533.444 Q57.1264 528.838 62.9365 528.838 Z" fill="#000000" fill-rule="nonzero" fill-opacity="1" /><path clip-path="url(#clip840)" d="M83.0984 558.143 L87.9827 558.143 L87.9827 564.023 L83.0984 564.023 L83.0984 558.143 Z" fill="#000000" fill-rule="nonzero" fill-opacity="1" /><path clip-path="url(#clip840)" d="M111.015 533.537 L99.2095 551.986 L111.015 551.986 L111.015 533.537 M109.788 529.463 L115.668 529.463 L115.668 551.986 L120.598 551.986 L120.598 555.875 L115.668 555.875 L115.668 564.023 L111.015 564.023 L111.015 555.875 L95.4132 555.875 L95.4132 551.361 L109.788 529.463 Z" fill="#000000" fill-rule="nonzero" fill-opacity="1" /><path clip-path="url(#clip840)" d="M64.418 306.749 Q60.8069 306.749 58.9782 310.314 Q57.1726 313.855 57.1726 320.985 Q57.1726 328.091 58.9782 331.656 Q60.8069 335.198 64.418 335.198 Q68.0522 335.198 69.8578 331.656 Q71.6865 328.091 71.6865 320.985 Q71.6865 313.855 69.8578 310.314 Q68.0522 306.749 64.418 306.749 M64.418 303.045 Q70.2281 303.045 73.2837 307.652 Q76.3624 312.235 76.3624 320.985 Q76.3624 329.712 73.2837 334.318 Q70.2281 338.901 64.418 338.901 Q58.6078 338.901 55.5291 334.318 Q52.4736 329.712 52.4736 320.985 Q52.4736 312.235 55.5291 307.652 Q58.6078 303.045 64.418 303.045 Z" fill="#000000" fill-rule="nonzero" fill-opacity="1" /><path clip-path="url(#clip840)" d="M84.5799 332.351 L89.4641 332.351 L89.4641 338.23 L84.5799 338.23 L84.5799 332.351 Z" fill="#000000" fill-rule="nonzero" fill-opacity="1" /><path clip-path="url(#clip840)" d="M99.6956 303.67 L118.052 303.67 L118.052 307.605 L103.978 307.605 L103.978 316.077 Q104.996 315.73 106.015 315.568 Q107.033 315.383 108.052 315.383 Q113.839 315.383 117.219 318.554 Q120.598 321.726 120.598 327.142 Q120.598 332.721 117.126 335.823 Q113.654 338.901 107.334 338.901 Q105.159 338.901 102.89 338.531 Q100.645 338.161 98.2372 337.42 L98.2372 332.721 Q100.321 333.855 102.543 334.411 Q104.765 334.966 107.242 334.966 Q111.246 334.966 113.584 332.86 Q115.922 330.753 115.922 327.142 Q115.922 323.531 113.584 321.425 Q111.246 319.318 107.242 319.318 Q105.367 319.318 103.492 319.735 Q101.64 320.152 99.6956 321.031 L99.6956 303.67 Z" fill="#000000" fill-rule="nonzero" fill-opacity="1" /><path clip-path="url(#clip840)" d="M63.2606 80.9563 Q59.6495 80.9563 57.8208 84.5211 Q56.0152 88.0628 56.0152 95.1924 Q56.0152 102.299 57.8208 105.864 Q59.6495 109.405 63.2606 109.405 Q66.8948 109.405 68.7004 105.864 Q70.5291 102.299 70.5291 95.1924 Q70.5291 88.0628 68.7004 84.5211 Q66.8948 80.9563 63.2606 80.9563 M63.2606 77.2527 Q69.0707 77.2527 72.1263 81.8591 Q75.205 86.4424 75.205 95.1924 Q75.205 103.919 72.1263 108.526 Q69.0707 113.109 63.2606 113.109 Q57.4504 113.109 54.3717 108.526 Q51.3162 103.919 51.3162 95.1924 Q51.3162 86.4424 54.3717 81.8591 Q57.4504 77.2527 63.2606 77.2527 Z" fill="#000000" fill-rule="nonzero" fill-opacity="1" /><path clip-path="url(#clip840)" d="M83.4225 106.558 L88.3067 106.558 L88.3067 112.438 L83.4225 112.438 L83.4225 106.558 Z" fill="#000000" fill-rule="nonzero" fill-opacity="1" /><path clip-path="url(#clip840)" d="M109.071 93.2942 Q105.922 93.2942 104.071 95.447 Q102.242 97.5998 102.242 101.35 Q102.242 105.077 104.071 107.253 Q105.922 109.405 109.071 109.405 Q112.219 109.405 114.047 107.253 Q115.899 105.077 115.899 101.35 Q115.899 97.5998 114.047 95.447 Q112.219 93.2942 109.071 93.2942 M118.353 78.6415 L118.353 82.9008 Q116.594 82.0674 114.788 81.6276 Q113.006 81.1878 111.246 81.1878 Q106.617 81.1878 104.163 84.3128 Q101.733 87.4378 101.385 93.7572 Q102.751 91.7433 104.811 90.6785 Q106.871 89.5906 109.348 89.5906 Q114.557 89.5906 117.566 92.7618 Q120.598 95.91 120.598 101.35 Q120.598 106.674 117.45 109.891 Q114.302 113.109 109.071 113.109 Q103.075 113.109 99.9039 108.526 Q96.7326 103.919 96.7326 95.1924 Q96.7326 86.998 100.621 82.1369 Q104.51 77.2527 111.061 77.2527 Q112.82 77.2527 114.603 77.5999 Q116.408 77.9471 118.353 78.6415 Z" fill="#000000" fill-rule="nonzero" fill-opacity="1" /><circle clip-path="url(#clip841)" cx="1487.86" cy="1355.69" r="14.4" fill="#808080" fill-rule="evenodd" fill-opacity="1" stroke="#000000" stroke-opacity="1" stroke-width="3.2"/>
<circle clip-path="url(#clip841)" cx="1473.08" cy="1445.72" r="14.4" fill="#808080" fill-rule="evenodd" fill-opacity="1" stroke="#000000" stroke-opacity="1" stroke-width="3.2"/>
<circle clip-path="url(#clip841)" cx="2290.6" cy="1368.97" r="14.4" fill="#808080" fill-rule="evenodd" fill-opacity="1" stroke="#000000" stroke-opacity="1" stroke-width="3.2"/>
<circle clip-path="url(#clip841)" cx="218.754" cy="87.9763" r="14.4" fill="#808080" fill-rule="evenodd" fill-opacity="1" stroke="#000000" stroke-opacity="1" stroke-width="3.2"/>
<path clip-path="url(#clip840)" d="M1492.15 1363.13 Q1483.12 1363.13 1479.64 1365.19 Q1476.15 1367.26 1476.15 1372.24 Q1476.15 1376.21 1478.75 1378.56 Q1481.38 1380.87 1485.88 1380.87 Q1492.07 1380.87 1495.8 1376.49 Q1499.57 1372.08 1499.57 1364.79 L1499.57 1363.13 L1492.15 1363.13 M1507.02 1360.05 L1507.02 1385.93 L1499.57 1385.93 L1499.57 1379.05 Q1497.02 1383.18 1493.21 1385.16 Q1489.4 1387.11 1483.89 1387.11 Q1476.92 1387.11 1472.79 1383.22 Q1468.7 1379.29 1468.7 1372.73 Q1468.7 1365.07 1473.8 1361.18 Q1478.95 1357.29 1489.12 1357.29 L1499.57 1357.29 L1499.57 1356.56 Q1499.57 1351.42 1496.16 1348.62 Q1492.8 1345.79 1486.69 1345.79 Q1482.8 1345.79 1479.11 1346.72 Q1475.42 1347.65 1472.02 1349.52 L1472.02 1342.63 Q1476.11 1341.05 1479.96 1340.28 Q1483.81 1339.47 1487.45 1339.47 Q1497.3 1339.47 1502.16 1344.57 Q1507.02 1349.68 1507.02 1360.05 Z" fill="#000000" fill-rule="nonzero" fill-opacity="1" /><path clip-path="url(#clip840)" d="M1485.64 1453.31 Q1485.64 1445.09 1482.24 1440.43 Q1478.87 1435.73 1472.96 1435.73 Q1467.04 1435.73 1463.64 1440.43 Q1460.28 1445.09 1460.28 1453.31 Q1460.28 1461.53 1463.64 1466.23 Q1467.04 1470.89 1472.96 1470.89 Q1478.87 1470.89 1482.24 1466.23 Q1485.64 1461.53 1485.64 1453.31 M1460.28 1437.47 Q1462.63 1433.42 1466.19 1431.48 Q1469.8 1429.49 1474.78 1429.49 Q1483.05 1429.49 1488.19 1436.05 Q1493.38 1442.62 1493.38 1453.31 Q1493.38 1464.01 1488.19 1470.57 Q1483.05 1477.13 1474.78 1477.13 Q1469.8 1477.13 1466.19 1475.19 Q1462.63 1473.2 1460.28 1469.15 L1460.28 1475.96 L1452.79 1475.96 L1452.79 1412.92 L1460.28 1412.92 L1460.28 1437.47 Z" fill="#000000" fill-rule="nonzero" fill-opacity="1" /><path clip-path="url(#clip840)" d="M2308.55 1355.58 L2308.55 1362.55 Q2305.39 1360.81 2302.19 1359.96 Q2299.03 1359.07 2295.79 1359.07 Q2288.53 1359.07 2284.52 1363.68 Q2280.51 1368.26 2280.51 1376.57 Q2280.51 1384.87 2284.52 1389.49 Q2288.53 1394.07 2295.79 1394.07 Q2299.03 1394.07 2302.19 1393.21 Q2305.39 1392.32 2308.55 1390.58 L2308.55 1397.47 Q2305.43 1398.93 2302.06 1399.66 Q2298.74 1400.38 2294.98 1400.38 Q2284.73 1400.38 2278.69 1393.94 Q2272.65 1387.5 2272.65 1376.57 Q2272.65 1365.47 2278.73 1359.11 Q2284.85 1352.75 2295.46 1352.75 Q2298.9 1352.75 2302.19 1353.48 Q2305.47 1354.16 2308.55 1355.58 Z" fill="#000000" fill-rule="nonzero" fill-opacity="1" /><path clip-path="url(#clip840)" d="M231.575 79.7327 L231.575 55.1842 L239.028 55.1842 L239.028 118.216 L231.575 118.216 L231.575 111.411 Q229.225 115.462 225.62 117.447 Q222.055 119.391 217.032 119.391 Q208.809 119.391 203.624 112.829 Q198.479 106.266 198.479 95.5717 Q198.479 84.8773 203.624 78.3149 Q208.809 71.7524 217.032 71.7524 Q222.055 71.7524 225.62 73.7373 Q229.225 75.6818 231.575 79.7327 M206.176 95.5717 Q206.176 103.795 209.538 108.494 Q212.941 113.153 218.855 113.153 Q224.769 113.153 228.172 108.494 Q231.575 103.795 231.575 95.5717 Q231.575 87.3484 228.172 82.6898 Q224.769 77.9908 218.855 77.9908 Q212.941 77.9908 209.538 82.6898 Q206.176 87.3484 206.176 95.5717 Z" fill="#000000" fill-rule="nonzero" fill-opacity="1" /><path clip-path="url(#clip840)" d="M2007.5 198.898 L2279.55 198.898 L2279.55 95.2176 L2007.5 95.2176  Z" fill="#ffffff" fill-rule="evenodd" fill-opacity="1"/>
<polyline clip-path="url(#clip840)" style="stroke:#000000; stroke-linecap:round; stroke-linejoin:round; stroke-width:4; stroke-opacity:1; fill:none" points="2007.5,198.898 2279.55,198.898 2279.55,95.2176 2007.5,95.2176 2007.5,198.898 "/>
<circle clip-path="url(#clip840)" cx="2105.11" cy="147.058" r="20.48" fill="#808080" fill-rule="evenodd" fill-opacity="1" stroke="#000000" stroke-opacity="1" stroke-width="4.55111"/>
<path clip-path="url(#clip840)" d="M2216.56 166.745 Q2214.76 171.375 2213.04 172.787 Q2211.33 174.199 2208.46 174.199 L2205.06 174.199 L2205.06 170.634 L2207.56 170.634 Q2209.32 170.634 2210.29 169.8 Q2211.26 168.967 2212.44 165.865 L2213.2 163.921 L2202.72 138.412 L2207.23 138.412 L2215.33 158.689 L2223.44 138.412 L2227.95 138.412 L2216.56 166.745 Z" fill="#000000" fill-rule="nonzero" fill-opacity="1" /><path clip-path="url(#clip840)" d="M2235.24 160.402 L2242.88 160.402 L2242.88 134.037 L2234.57 135.703 L2234.57 131.444 L2242.83 129.778 L2247.51 129.778 L2247.51 160.402 L2255.15 160.402 L2255.15 164.338 L2235.24 164.338 L2235.24 160.402 Z" fill="#000000" fill-rule="nonzero" fill-opacity="1" /></svg>
