<?xml version="1.0" encoding="utf-8"?>
<svg xmlns="http://www.w3.org/2000/svg" xmlns:xlink="http://www.w3.org/1999/xlink" width="600" height="400" viewBox="0 0 2400 1600">
<defs>
  <clipPath id="clip290">
    <rect x="0" y="0" width="2400" height="1600"/>
  </clipPath>
</defs>
<path clip-path="url(#clip290)" d="M0 1600 L2400 1600 L2400 0 L0 0  Z" fill="#ffffff" fill-rule="evenodd" fill-opacity="1"/>
<defs>
  <clipPath id="clip291">
    <rect x="480" y="0" width="1681" height="1600"/>
  </clipPath>
</defs>
<path clip-path="url(#clip290)" d="M112.177 1486.45 L2352.76 1486.45 L2352.76 47.2441 L112.177 47.2441  Z" fill="#ffffff" fill-rule="evenodd" fill-opacity="1"/>
<defs>
  <clipPath id="clip292">
    <rect x="112" y="47" width="2242" height="1440"/>
  </clipPath>
</defs>
<polyline clip-path="url(#clip292)" style="stroke:#000000; stroke-linecap:round; stroke-linejoin:round; stroke-width:2; stroke-opacity:0.1; fill:none" points="296.692,1486.45 296.692,47.2441 "/>
<polyline clip-path="url(#clip292)" style="stroke:#000000; stroke-linecap:round; stroke-linejoin:round; stroke-width:2; stroke-opacity:0.1; fill:none" points="753.063,1486.45 753.063,47.2441 "/>
<polyline clip-path="url(#clip292)" style="stroke:#000000; stroke-linecap:round; stroke-linejoin:round; stroke-width:2; stroke-opacity:0.1; fill:none" points="1209.43,1486.45 1209.43,47.2441 "/>
<polyline clip-path="url(#clip292)" style="stroke:#000000; stroke-linecap:round; stroke-linejoin:round; stroke-width:2; stroke-opacity:0.1; fill:none" points="1665.8,1486.45 1665.8,47.2441 "/>
<polyline clip-path="url(#clip292)" style="stroke:#000000; stroke-linecap:round; stroke-linejoin:round; stroke-width:2; stroke-opacity:0.1; fill:none" points="2122.18,1486.45 2122.18,47.2441 "/>
<polyline clip-path="url(#clip290)" style="stroke:#000000; stroke-linecap:round; stroke-linejoin:round; stroke-width:4; stroke-opacity:1; fill:none" points="112.177,1486.45 2352.76,1486.45 "/>
<polyline clip-path="url(#clip290)" style="stroke:#000000; stroke-linecap:round; stroke-linejoin:round; stroke-width:4; stroke-opacity:1; fill:none" points="296.692,1486.45 296.692,1467.55 "/>
<polyline clip-path="url(#clip290)" style="stroke:#000000; stroke-linecap:round; stroke-linejoin:round; stroke-width:4; stroke-opacity:1; fill:none" points="753.063,1486.45 753.063,1467.55 "/>
<polyline clip-path="url(#clip290)" style="stroke:#000000; stroke-linecap:round; stroke-linejoin:round; stroke-width:4; stroke-opacity:1; fill:none" points="1209.43,1486.45 1209.43,1467.55 "/>
<polyline clip-path="url(#clip290)" style="stroke:#000000; stroke-linecap:round; stroke-linejoin:round; stroke-width:4; stroke-opacity:1; fill:none" points="1665.8,1486.45 1665.8,1467.55 "/>
<polyline clip-path="url(#clip290)" style="stroke:#000000; stroke-linecap:round; stroke-linejoin:round; stroke-width:4; stroke-opacity:1; fill:none" points="2122.18,1486.45 2122.18,1467.55 "/>
<path clip-path="url(#clip290)" d="M243.718 1532.02 L273.394 1532.02 L273.394 1535.95 L243.718 1535.95 L243.718 1532.02 Z" fill="#000000" fill-rule="nonzero" fill-opacity="1" /><path clip-path="url(#clip290)" d="M284.296 1544.91 L291.935 1544.91 L291.935 1518.55 L283.625 1520.21 L283.625 1515.95 L291.889 1514.29 L296.565 1514.29 L296.565 1544.91 L304.204 1544.91 L304.204 1548.85 L284.296 1548.85 L284.296 1544.91 Z" fill="#000000" fill-rule="nonzero" fill-opacity="1" /><path clip-path="url(#clip290)" d="M313.648 1542.97 L318.532 1542.97 L318.532 1548.85 L313.648 1548.85 L313.648 1542.97 Z" fill="#000000" fill-rule="nonzero" fill-opacity="1" /><path clip-path="url(#clip290)" d="M328.764 1514.29 L347.12 1514.29 L347.12 1518.22 L333.046 1518.22 L333.046 1526.7 Q334.065 1526.35 335.083 1526.19 Q336.102 1526 337.12 1526 Q342.907 1526 346.287 1529.17 Q349.666 1532.34 349.666 1537.76 Q349.666 1543.34 346.194 1546.44 Q342.722 1549.52 336.403 1549.52 Q334.227 1549.52 331.958 1549.15 Q329.713 1548.78 327.305 1548.04 L327.305 1543.34 Q329.389 1544.47 331.611 1545.03 Q333.833 1545.58 336.31 1545.58 Q340.315 1545.58 342.653 1543.48 Q344.99 1541.37 344.99 1537.76 Q344.99 1534.15 342.653 1532.04 Q340.315 1529.94 336.31 1529.94 Q334.435 1529.94 332.56 1530.35 Q330.708 1530.77 328.764 1531.65 L328.764 1514.29 Z" fill="#000000" fill-rule="nonzero" fill-opacity="1" /><path clip-path="url(#clip290)" d="M699.591 1532.02 L729.267 1532.02 L729.267 1535.95 L699.591 1535.95 L699.591 1532.02 Z" fill="#000000" fill-rule="nonzero" fill-opacity="1" /><path clip-path="url(#clip290)" d="M740.169 1544.91 L747.808 1544.91 L747.808 1518.55 L739.498 1520.21 L739.498 1515.95 L747.762 1514.29 L752.438 1514.29 L752.438 1544.91 L760.077 1544.91 L760.077 1548.85 L740.169 1548.85 L740.169 1544.91 Z" fill="#000000" fill-rule="nonzero" fill-opacity="1" /><path clip-path="url(#clip290)" d="M769.521 1542.97 L774.405 1542.97 L774.405 1548.85 L769.521 1548.85 L769.521 1542.97 Z" fill="#000000" fill-rule="nonzero" fill-opacity="1" /><path clip-path="url(#clip290)" d="M794.59 1517.37 Q790.979 1517.37 789.151 1520.93 Q787.345 1524.47 787.345 1531.6 Q787.345 1538.71 789.151 1542.27 Q790.979 1545.82 794.59 1545.82 Q798.225 1545.82 800.03 1542.27 Q801.859 1538.71 801.859 1531.6 Q801.859 1524.47 800.03 1520.93 Q798.225 1517.37 794.59 1517.37 M794.59 1513.66 Q800.401 1513.66 803.456 1518.27 Q806.535 1522.85 806.535 1531.6 Q806.535 1540.33 803.456 1544.94 Q800.401 1549.52 794.59 1549.52 Q788.78 1549.52 785.702 1544.94 Q782.646 1540.33 782.646 1531.6 Q782.646 1522.85 785.702 1518.27 Q788.78 1513.66 794.59 1513.66 Z" fill="#000000" fill-rule="nonzero" fill-opacity="1" /><path clip-path="url(#clip290)" d="M1156.46 1532.02 L1186.14 1532.02 L1186.14 1535.95 L1156.46 1535.95 L1156.46 1532.02 Z" fill="#000000" fill-rule="nonzero" fill-opacity="1" /><path clip-path="url(#clip290)" d="M1206.23 1517.37 Q1202.62 1517.37 1200.79 1520.93 Q1198.98 1524.47 1198.98 1531.6 Q1198.98 1538.71 1200.79 1542.27 Q1202.62 1545.82 1206.23 1545.82 Q1209.86 1545.82 1211.67 1542.27 Q1213.5 1538.71 1213.5 1531.6 Q1213.5 1524.47 1211.67 1520.93 Q1209.86 1517.37 1206.23 1517.37 M1206.23 1513.66 Q1212.04 1513.66 1215.09 1518.27 Q1218.17 1522.85 1218.17 1531.6 Q1218.17 1540.33 1215.09 1544.94 Q1212.04 1549.52 1206.23 1549.52 Q1200.42 1549.52 1197.34 1544.94 Q1194.28 1540.33 1194.28 1531.6 Q1194.28 1522.85 1197.34 1518.27 Q1200.42 1513.66 1206.23 1513.66 Z" fill="#000000" fill-rule="nonzero" fill-opacity="1" /><path clip-path="url(#clip290)" d="M1226.39 1542.97 L1231.27 1542.97 L1231.27 1548.85 L1226.39 1548.85 L1226.39 1542.97 Z" fill="#000000" fill-rule="nonzero" fill-opacity="1" /><path clip-path="url(#clip290)" d="M1241.51 1514.29 L1259.86 1514.29 L1259.86 1518.22 L1245.79 1518.22 L1245.79 1526.7 Q1246.81 1526.35 1247.82 1526.19 Q1248.84 1526 1249.86 1526 Q1255.65 1526 1259.03 1529.17 Q1262.41 1532.34 1262.41 1537.76 Q1262.41 1543.34 1258.94 1546.44 Q1255.46 1549.52 1249.14 1549.52 Q1246.97 1549.52 1244.7 1549.15 Q1242.45 1548.78 1240.05 1548.04 L1240.05 1543.34 Q1242.13 1544.47 1244.35 1545.03 Q1246.57 1545.58 1249.05 1545.58 Q1253.06 1545.58 1255.39 1543.48 Q1257.73 1541.37 1257.73 1537.76 Q1257.73 1534.15 1255.39 1532.04 Q1253.06 1529.94 1249.05 1529.94 Q1247.18 1529.94 1245.3 1530.35 Q1243.45 1530.77 1241.51 1531.65 L1241.51 1514.29 Z" fill="#000000" fill-rule="nonzero" fill-opacity="1" /><path clip-path="url(#clip290)" d="M1643.19 1517.37 Q1639.58 1517.37 1637.75 1520.93 Q1635.94 1524.47 1635.94 1531.6 Q1635.94 1538.71 1637.75 1542.27 Q1639.58 1545.82 1643.19 1545.82 Q1646.82 1545.82 1648.63 1542.27 Q1650.46 1538.71 1650.46 1531.6 Q1650.46 1524.47 1648.63 1520.93 Q1646.82 1517.37 1643.19 1517.37 M1643.19 1513.66 Q1649 1513.66 1652.05 1518.27 Q1655.13 1522.85 1655.13 1531.6 Q1655.13 1540.33 1652.05 1544.94 Q1649 1549.52 1643.19 1549.52 Q1637.38 1549.52 1634.3 1544.94 Q1631.24 1540.33 1631.24 1531.6 Q1631.24 1522.85 1634.3 1518.27 Q1637.38 1513.66 1643.19 1513.66 Z" fill="#000000" fill-rule="nonzero" fill-opacity="1" /><path clip-path="url(#clip290)" d="M1663.35 1542.97 L1668.23 1542.97 L1668.23 1548.85 L1663.35 1548.85 L1663.35 1542.97 Z" fill="#000000" fill-rule="nonzero" fill-opacity="1" /><path clip-path="url(#clip290)" d="M1688.42 1517.37 Q1684.81 1517.37 1682.98 1520.93 Q1681.17 1524.47 1681.17 1531.6 Q1681.17 1538.71 1682.98 1542.27 Q1684.81 1545.82 1688.42 1545.82 Q1692.05 1545.82 1693.86 1542.27 Q1695.69 1538.71 1695.69 1531.6 Q1695.69 1524.47 1693.86 1520.93 Q1692.05 1517.37 1688.42 1517.37 M1688.42 1513.66 Q1694.23 1513.66 1697.29 1518.27 Q1700.36 1522.85 1700.36 1531.6 Q1700.36 1540.33 1697.29 1544.94 Q1694.23 1549.52 1688.42 1549.52 Q1682.61 1549.52 1679.53 1544.94 Q1676.48 1540.33 1676.48 1531.6 Q1676.48 1522.85 1679.53 1518.27 Q1682.61 1513.66 1688.42 1513.66 Z" fill="#000000" fill-rule="nonzero" fill-opacity="1" /><path clip-path="url(#clip290)" d="M2100.06 1517.37 Q2096.45 1517.37 2094.62 1520.93 Q2092.81 1524.47 2092.81 1531.6 Q2092.81 1538.71 2094.62 1542.27 Q2096.45 1545.82 2100.06 1545.82 Q2103.69 1545.82 2105.5 1542.27 Q2107.33 1538.71 2107.33 1531.6 Q2107.33 1524.47 2105.5 1520.93 Q2103.69 1517.37 2100.06 1517.37 M2100.06 1513.66 Q2105.87 1513.66 2108.92 1518.27 Q2112 1522.85 2112 1531.6 Q2112 1540.33 2108.92 1544.94 Q2105.87 1549.52 2100.06 1549.52 Q2094.25 1549.52 2091.17 1544.94 Q2088.11 1540.33 2088.11 1531.6 Q2088.11 1522.85 2091.17 1518.27 Q2094.25 1513.66 2100.06 1513.66 Z" fill="#000000" fill-rule="nonzero" fill-opacity="1" /><path clip-path="url(#clip290)" d="M2120.22 1542.97 L2125.1 1542.97 L2125.1 1548.85 L2120.22 1548.85 L2120.22 1542.97 Z" fill="#000000" fill-rule="nonzero" fill-opacity="1" /><path clip-path="url(#clip290)" d="M2135.33 1514.29 L2153.69 1514.29 L2153.69 1518.22 L2139.62 1518.22 L2139.62 1526.7 Q2140.64 1526.35 2141.65 1526.19 Q2142.67 1526 2143.69 1526 Q2149.48 1526 2152.86 1529.17 Q2156.24 1532.34 2156.24 1537.76 Q2156.24 1543.34 2152.77 1546.44 Q2149.29 1549.52 2142.97 1549.52 Q2140.8 1549.52 2138.53 1549.15 Q2136.28 1548.78 2133.88 1548.04 L2133.88 1543.34 Q2135.96 1544.47 2138.18 1545.03 Q2140.4 1545.58 2142.88 1545.58 Q2146.89 1545.58 2149.22 1543.48 Q2151.56 1541.37 2151.56 1537.76 Q2151.56 1534.15 2149.22 1532.04 Q2146.89 1529.94 2142.88 1529.94 Q2141.01 1529.94 2139.13 1530.35 Q2137.28 1530.77 2135.33 1531.65 L2135.33 1514.29 Z" fill="#000000" fill-rule="nonzero" fill-opacity="1" /><polyline clip-path="url(#clip292)" style="stroke:#000000; stroke-linecap:round; stroke-linejoin:round; stroke-width:2; stroke-opacity:0.1; fill:none" points="112.177,1481.57 2352.76,1481.57 "/>
<polyline clip-path="url(#clip292)" style="stroke:#000000; stroke-linecap:round; stroke-linejoin:round; stroke-width:2; stroke-opacity:0.1; fill:none" points="112.177,1086.38 2352.76,1086.38 "/>
<polyline clip-path="url(#clip292)" style="stroke:#000000; stroke-linecap:round; stroke-linejoin:round; stroke-width:2; stroke-opacity:0.1; fill:none" points="112.177,691.186 2352.76,691.186 "/>
<polyline clip-path="url(#clip292)" style="stroke:#000000; stroke-linecap:round; stroke-linejoin:round; stroke-width:2; stroke-opacity:0.1; fill:none" points="112.177,295.996 2352.76,295.996 "/>
<polyline clip-path="url(#clip290)" style="stroke:#000000; stroke-linecap:round; stroke-linejoin:round; stroke-width:4; stroke-opacity:1; fill:none" points="112.177,1486.45 112.177,47.2441 "/>
<polyline clip-path="url(#clip290)" style="stroke:#000000; stroke-linecap:round; stroke-linejoin:round; stroke-width:4; stroke-opacity:1; fill:none" points="112.177,1481.57 131.075,1481.57 "/>
<polyline clip-path="url(#clip290)" style="stroke:#000000; stroke-linecap:round; stroke-linejoin:round; stroke-width:4; stroke-opacity:1; fill:none" points="112.177,1086.38 131.075,1086.38 "/>
<polyline clip-path="url(#clip290)" style="stroke:#000000; stroke-linecap:round; stroke-linejoin:round; stroke-width:4; stroke-opacity:1; fill:none" points="112.177,691.186 131.075,691.186 "/>
<polyline clip-path="url(#clip290)" style="stroke:#000000; stroke-linecap:round; stroke-linejoin:round; stroke-width:4; stroke-opacity:1; fill:none" points="112.177,295.996 131.075,295.996 "/>
<path clip-path="url(#clip290)" d="M64.2328 1467.36 Q60.6217 1467.36 58.793 1470.93 Q56.9875 1474.47 56.9875 1481.6 Q56.9875 1488.71 58.793 1492.27 Q60.6217 1495.81 64.2328 1495.81 Q67.867 1495.81 69.6726 1492.27 Q71.5013 1488.71 71.5013 1481.6 Q71.5013 1474.47 69.6726 1470.93 Q67.867 1467.36 64.2328 1467.36 M64.2328 1463.66 Q70.0429 1463.66 73.0985 1468.27 Q76.1772 1472.85 76.1772 1481.6 Q76.1772 1490.33 73.0985 1494.93 Q70.0429 1499.52 64.2328 1499.52 Q58.4226 1499.52 55.344 1494.93 Q52.2884 1490.33 52.2884 1481.6 Q52.2884 1472.85 55.344 1468.27 Q58.4226 1463.66 64.2328 1463.66 Z" fill="#000000" fill-rule="nonzero" fill-opacity="1" /><path clip-path="url(#clip290)" d="M59.8578 1099.72 L76.1772 1099.72 L76.1772 1103.66 L54.2328 1103.66 L54.2328 1099.72 Q56.8949 1096.97 61.4782 1092.34 Q66.0846 1087.68 67.2652 1086.34 Q69.5105 1083.82 70.3902 1082.08 Q71.2929 1080.32 71.2929 1078.63 Q71.2929 1075.88 69.3485 1074.14 Q67.4272 1072.41 64.3254 1072.41 Q62.1263 1072.41 59.6726 1073.17 Q57.2421 1073.93 54.4643 1075.48 L54.4643 1070.76 Q57.2884 1069.63 59.7421 1069.05 Q62.1958 1068.47 64.2328 1068.47 Q69.6031 1068.47 72.7976 1071.16 Q75.992 1073.84 75.992 1078.33 Q75.992 1080.46 75.1818 1082.38 Q74.3948 1084.28 72.2883 1086.87 Q71.7096 1087.54 68.6078 1090.76 Q65.5059 1093.96 59.8578 1099.72 Z" fill="#000000" fill-rule="nonzero" fill-opacity="1" /><path clip-path="url(#clip290)" d="M66.5939 677.98 L54.7884 696.429 L66.5939 696.429 L66.5939 677.98 M65.367 673.906 L71.2466 673.906 L71.2466 696.429 L76.1772 696.429 L76.1772 700.318 L71.2466 700.318 L71.2466 708.466 L66.5939 708.466 L66.5939 700.318 L50.9921 700.318 L50.9921 695.804 L65.367 673.906 Z" fill="#000000" fill-rule="nonzero" fill-opacity="1" /><path clip-path="url(#clip290)" d="M64.6495 294.132 Q61.5013 294.132 59.6495 296.285 Q57.8208 298.438 57.8208 302.188 Q57.8208 305.915 59.6495 308.091 Q61.5013 310.243 64.6495 310.243 Q67.7976 310.243 69.6263 308.091 Q71.4781 305.915 71.4781 302.188 Q71.4781 298.438 69.6263 296.285 Q67.7976 294.132 64.6495 294.132 M73.9318 279.48 L73.9318 283.739 Q72.1726 282.906 70.367 282.466 Q68.5846 282.026 66.8254 282.026 Q62.1958 282.026 59.7421 285.151 Q57.3115 288.276 56.9643 294.595 Q58.33 292.581 60.3902 291.517 Q62.4504 290.429 64.9272 290.429 Q70.1355 290.429 73.1448 293.6 Q76.1772 296.748 76.1772 302.188 Q76.1772 307.512 73.029 310.729 Q69.8809 313.947 64.6495 313.947 Q58.6541 313.947 55.4828 309.364 Q52.3116 304.757 52.3116 296.03 Q52.3116 287.836 56.2004 282.975 Q60.0893 278.091 66.6402 278.091 Q68.3994 278.091 70.1818 278.438 Q71.9874 278.785 73.9318 279.48 Z" fill="#000000" fill-rule="nonzero" fill-opacity="1" /><circle clip-path="url(#clip292)" cx="2289.34" cy="1350.36" r="14.4" fill="#808080" fill-rule="evenodd" fill-opacity="1" stroke="#000000" stroke-opacity="1" stroke-width="3.2"/>
<circle clip-path="url(#clip292)" cx="175.59" cy="87.9763" r="14.4" fill="#808080" fill-rule="evenodd" fill-opacity="1" stroke="#000000" stroke-opacity="1" stroke-width="3.2"/>
<circle clip-path="url(#clip292)" cx="1584.57" cy="1431.77" r="14.4" fill="#808080" fill-rule="evenodd" fill-opacity="1" stroke="#000000" stroke-opacity="1" stroke-width="3.2"/>
<circle clip-path="url(#clip292)" cx="1720.55" cy="1445.72" r="14.4" fill="#808080" fill-rule="evenodd" fill-opacity="1" stroke="#000000" stroke-opacity="1" stroke-width="3.2"/>
<path clip-path="url(#clip290)" d="M2293.64 1357.79 Q2284.6 1357.79 2281.12 1359.85 Q2277.64 1361.92 2277.64 1366.9 Q2277.64 1370.87 2280.23 1373.22 Q2282.86 1375.53 2287.36 1375.53 Q2293.56 1375.53 2297.28 1371.16 Q2301.05 1366.74 2301.05 1359.45 L2301.05 1357.79 L2293.64 1357.79 M2308.5 1354.71 L2308.5 1380.6 L2301.05 1380.6 L2301.05 1373.71 Q2298.5 1377.84 2294.69 1379.83 Q2290.88 1381.77 2285.37 1381.77 Q2278.41 1381.77 2274.27 1377.88 Q2270.18 1373.95 2270.18 1367.39 Q2270.18 1359.73 2275.29 1355.84 Q2280.43 1351.96 2290.6 1351.96 L2301.05 1351.96 L2301.05 1351.23 Q2301.05 1346.08 2297.65 1343.29 Q2294.29 1340.45 2288.17 1340.45 Q2284.28 1340.45 2280.59 1341.38 Q2276.91 1342.31 2273.5 1344.18 L2273.5 1337.29 Q2277.6 1335.71 2281.44 1334.94 Q2285.29 1334.13 2288.94 1334.13 Q2298.78 1334.13 2303.64 1339.24 Q2308.5 1344.34 2308.5 1354.71 Z" fill="#000000" fill-rule="nonzero" fill-opacity="1" /><path clip-path="url(#clip290)" d="M188.148 95.5717 Q188.148 87.3484 184.745 82.6898 Q181.383 77.9908 175.468 77.9908 Q169.554 77.9908 166.151 82.6898 Q162.789 87.3484 162.789 95.5717 Q162.789 103.795 166.151 108.494 Q169.554 113.153 175.468 113.153 Q181.383 113.153 184.745 108.494 Q188.148 103.795 188.148 95.5717 M162.789 79.7327 Q165.138 75.6818 168.703 73.7373 Q172.309 71.7524 177.291 71.7524 Q185.555 71.7524 190.7 78.3149 Q195.885 84.8773 195.885 95.5717 Q195.885 106.266 190.7 112.829 Q185.555 119.391 177.291 119.391 Q172.309 119.391 168.703 117.447 Q165.138 115.462 162.789 111.411 L162.789 118.216 L155.295 118.216 L155.295 55.1842 L162.789 55.1842 L162.789 79.7327 Z" fill="#000000" fill-rule="nonzero" fill-opacity="1" /><path clip-path="url(#clip290)" d="M1602.52 1418.38 L1602.52 1425.35 Q1599.36 1423.61 1596.16 1422.76 Q1593 1421.87 1589.76 1421.87 Q1582.51 1421.87 1578.5 1426.48 Q1574.48 1431.06 1574.48 1439.37 Q1574.48 1447.67 1578.5 1452.29 Q1582.51 1456.87 1589.76 1456.87 Q1593 1456.87 1596.16 1456.01 Q1599.36 1455.12 1602.52 1453.38 L1602.52 1460.27 Q1599.4 1461.73 1596.04 1462.46 Q1592.71 1463.18 1588.95 1463.18 Q1578.7 1463.18 1572.66 1456.74 Q1566.63 1450.3 1566.63 1439.37 Q1566.63 1428.27 1572.7 1421.91 Q1578.82 1415.55 1589.43 1415.55 Q1592.88 1415.55 1596.16 1416.27 Q1599.44 1416.96 1602.52 1418.38 Z" fill="#000000" fill-rule="nonzero" fill-opacity="1" /><path clip-path="url(#clip290)" d="M1733.37 1437.47 L1733.37 1412.92 L1740.82 1412.92 L1740.82 1475.96 L1733.37 1475.96 L1733.37 1469.15 Q1731.02 1473.2 1727.42 1475.19 Q1723.85 1477.13 1718.83 1477.13 Q1710.61 1477.13 1705.42 1470.57 Q1700.28 1464.01 1700.28 1453.31 Q1700.28 1442.62 1705.42 1436.05 Q1710.61 1429.49 1718.83 1429.49 Q1723.85 1429.49 1727.42 1431.48 Q1731.02 1433.42 1733.37 1437.47 M1707.97 1453.31 Q1707.97 1461.53 1711.33 1466.23 Q1714.74 1470.89 1720.65 1470.89 Q1726.57 1470.89 1729.97 1466.23 Q1733.37 1461.53 1733.37 1453.31 Q1733.37 1445.09 1729.97 1440.43 Q1726.57 1435.73 1720.65 1435.73 Q1714.74 1435.73 1711.33 1440.43 Q1707.97 1445.09 1707.97 1453.31 Z" fill="#000000" fill-rule="nonzero" fill-opacity="1" /><path clip-path="url(#clip290)" d="M2001.58 198.898 L2278.07 198.898 L2278.07 95.2176 L2001.58 95.2176  Z" fill="#ffffff" fill-rule="evenodd" fill-opacity="1"/>
<polyline clip-path="url(#clip290)" style="stroke:#000000; stroke-linecap:round; stroke-linejoin:round; stroke-width:4; stroke-opacity:1; fill:none" points="2001.58,198.898 2278.07,198.898 2278.07,95.2176 2001.58,95.2176 2001.58,198.898 "/>
<circle clip-path="url(#clip290)" cx="2101.16" cy="147.058" r="20.48" fill="#808080" fill-rule="evenodd" fill-opacity="1" stroke="#000000" stroke-opacity="1" stroke-width="4.55111"/>
<path clip-path="url(#clip290)" d="M2214.59 166.745 Q2212.78 171.375 2211.07 172.787 Q2209.36 174.199 2206.49 174.199 L2203.08 174.199 L2203.08 170.634 L2205.58 170.634 Q2207.34 170.634 2208.31 169.8 Q2209.29 168.967 2210.47 165.865 L2211.23 163.921 L2200.74 138.412 L2205.26 138.412 L2213.36 158.689 L2221.46 138.412 L2225.98 138.412 L2214.59 166.745 Z" fill="#000000" fill-rule="nonzero" fill-opacity="1" /><path clip-path="url(#clip290)" d="M2233.27 160.402 L2240.91 160.402 L2240.91 134.037 L2232.6 135.703 L2232.6 131.444 L2240.86 129.778 L2245.54 129.778 L2245.54 160.402 L2253.17 160.402 L2253.17 164.338 L2233.27 164.338 L2233.27 160.402 Z" fill="#000000" fill-rule="nonzero" fill-opacity="1" /></svg>
