<?xml version="1.0" encoding="utf-8"?>
<svg xmlns="http://www.w3.org/2000/svg" xmlns:xlink="http://www.w3.org/1999/xlink" width="600" height="400" viewBox="0 0 2400 1600">
<defs>
  <clipPath id="clip230">
    <rect x="0" y="0" width="2400" height="1600"/>
  </clipPath>
</defs>
<path clip-path="url(#clip230)" d="M0 1600 L2400 1600 L2400 0 L0 0  Z" fill="#ffffff" fill-rule="evenodd" fill-opacity="1"/>
<defs>
  <clipPath id="clip231">
    <rect x="480" y="0" width="1681" height="1600"/>
  </clipPath>
</defs>
<path clip-path="url(#clip230)" d="M186.274 1486.45 L2352.76 1486.45 L2352.76 47.2441 L186.274 47.2441  Z" fill="#ffffff" fill-rule="evenodd" fill-opacity="1"/>
<defs>
  <clipPath id="clip232">
    <rect x="186" y="47" width="2167" height="1440"/>
  </clipPath>
</defs>
<polyline clip-path="url(#clip232)" style="stroke:#000000; stroke-linecap:round; stroke-linejoin:round; stroke-width:2; stroke-opacity:0.1; fill:none" points="197.471,1486.45 197.471,47.2441 "/>
<polyline clip-path="url(#clip232)" style="stroke:#000000; stroke-linecap:round; stroke-linejoin:round; stroke-width:2; stroke-opacity:0.1; fill:none" points="754.265,1486.45 754.265,47.2441 "/>
<polyline clip-path="url(#clip232)" style="stroke:#000000; stroke-linecap:round; stroke-linejoin:round; stroke-width:2; stroke-opacity:0.1; fill:none" points="1311.06,1486.45 1311.06,47.2441 "/>
<polyline clip-path="url(#clip232)" style="stroke:#000000; stroke-linecap:round; stroke-linejoin:round; stroke-width:2; stroke-opacity:0.1; fill:none" points="1867.85,1486.45 1867.85,47.2441 "/>
<polyline clip-path="url(#clip230)" style="stroke:#000000; stroke-linecap:round; stroke-linejoin:round; stroke-width:4; stroke-opacity:1; fill:none" points="186.274,1486.45 2352.76,1486.45 "/>
<polyline clip-path="url(#clip230)" style="stroke:#000000; stroke-linecap:round; stroke-linejoin:round; stroke-width:4; stroke-opacity:1; fill:none" points="197.471,1486.45 197.471,1467.55 "/>
<polyline clip-path="url(#clip230)" style="stroke:#000000; stroke-linecap:round; stroke-linejoin:round; stroke-width:4; stroke-opacity:1; fill:none" points="754.265,1486.45 754.265,1467.55 "/>
<polyline clip-path="url(#clip230)" style="stroke:#000000; stroke-linecap:round; stroke-linejoin:round; stroke-width:4; stroke-opacity:1; fill:none" points="1311.06,1486.45 1311.06,1467.55 "/>
<polyline clip-path="url(#clip230)" style="stroke:#000000; stroke-linecap:round; stroke-linejoin:round; stroke-width:4; stroke-opacity:1; fill:none" points="1867.85,1486.45 1867.85,1467.55 "/>
<path clip-path="url(#clip230)" d="M143.756 1532.02 L173.432 1532.02 L173.432 1535.95 L143.756 1535.95 L143.756 1532.02 Z" fill="#000000" fill-rule="nonzero" fill-opacity="1" /><path clip-path="url(#clip230)" d="M193.525 1517.37 Q189.914 1517.37 188.085 1520.93 Q186.279 1524.47 186.279 1531.6 Q186.279 1538.71 188.085 1542.27 Q189.914 1545.82 193.525 1545.82 Q197.159 1545.82 198.964 1542.27 Q200.793 1538.71 200.793 1531.6 Q200.793 1524.47 198.964 1520.93 Q197.159 1517.37 193.525 1517.37 M193.525 1513.66 Q199.335 1513.66 202.39 1518.27 Q205.469 1522.85 205.469 1531.6 Q205.469 1540.33 202.39 1544.94 Q199.335 1549.52 193.525 1549.52 Q187.715 1549.52 184.636 1544.94 Q181.58 1540.33 181.58 1531.6 Q181.58 1522.85 184.636 1518.27 Q187.715 1513.66 193.525 1513.66 Z" fill="#000000" fill-rule="nonzero" fill-opacity="1" /><path clip-path="url(#clip230)" d="M213.687 1542.97 L218.571 1542.97 L218.571 1548.85 L213.687 1548.85 L213.687 1542.97 Z" fill="#000000" fill-rule="nonzero" fill-opacity="1" /><path clip-path="url(#clip230)" d="M241.603 1518.36 L229.798 1536.81 L241.603 1536.81 L241.603 1518.36 M240.376 1514.29 L246.256 1514.29 L246.256 1536.81 L251.186 1536.81 L251.186 1540.7 L246.256 1540.7 L246.256 1548.85 L241.603 1548.85 L241.603 1540.7 L226.001 1540.7 L226.001 1536.19 L240.376 1514.29 Z" fill="#000000" fill-rule="nonzero" fill-opacity="1" /><path clip-path="url(#clip230)" d="M701.592 1532.02 L731.267 1532.02 L731.267 1535.95 L701.592 1535.95 L701.592 1532.02 Z" fill="#000000" fill-rule="nonzero" fill-opacity="1" /><path clip-path="url(#clip230)" d="M751.36 1517.37 Q747.749 1517.37 745.92 1520.93 Q744.115 1524.47 744.115 1531.6 Q744.115 1538.71 745.92 1542.27 Q747.749 1545.82 751.36 1545.82 Q754.994 1545.82 756.8 1542.27 Q758.628 1538.71 758.628 1531.6 Q758.628 1524.47 756.8 1520.93 Q754.994 1517.37 751.36 1517.37 M751.36 1513.66 Q757.17 1513.66 760.226 1518.27 Q763.304 1522.85 763.304 1531.6 Q763.304 1540.33 760.226 1544.94 Q757.17 1549.52 751.36 1549.52 Q745.55 1549.52 742.471 1544.94 Q739.416 1540.33 739.416 1531.6 Q739.416 1522.85 742.471 1518.27 Q745.55 1513.66 751.36 1513.66 Z" fill="#000000" fill-rule="nonzero" fill-opacity="1" /><path clip-path="url(#clip230)" d="M771.522 1542.97 L776.406 1542.97 L776.406 1548.85 L771.522 1548.85 L771.522 1542.97 Z" fill="#000000" fill-rule="nonzero" fill-opacity="1" /><path clip-path="url(#clip230)" d="M790.619 1544.91 L806.938 1544.91 L806.938 1548.85 L784.994 1548.85 L784.994 1544.91 Q787.656 1542.16 792.239 1537.53 Q796.846 1532.88 798.026 1531.53 Q800.272 1529.01 801.151 1527.27 Q802.054 1525.51 802.054 1523.82 Q802.054 1521.07 800.11 1519.33 Q798.188 1517.6 795.087 1517.6 Q792.888 1517.6 790.434 1518.36 Q788.003 1519.13 785.226 1520.68 L785.226 1515.95 Q788.05 1514.82 790.503 1514.24 Q792.957 1513.66 794.994 1513.66 Q800.364 1513.66 803.559 1516.35 Q806.753 1519.03 806.753 1523.52 Q806.753 1525.65 805.943 1527.57 Q805.156 1529.47 803.05 1532.07 Q802.471 1532.74 799.369 1535.95 Q796.267 1539.15 790.619 1544.91 Z" fill="#000000" fill-rule="nonzero" fill-opacity="1" /><path clip-path="url(#clip230)" d="M1288.44 1517.37 Q1284.83 1517.37 1283 1520.93 Q1281.2 1524.47 1281.2 1531.6 Q1281.2 1538.71 1283 1542.27 Q1284.83 1545.82 1288.44 1545.82 Q1292.08 1545.82 1293.88 1542.27 Q1295.71 1538.71 1295.71 1531.6 Q1295.71 1524.47 1293.88 1520.93 Q1292.08 1517.37 1288.44 1517.37 M1288.44 1513.66 Q1294.25 1513.66 1297.31 1518.27 Q1300.39 1522.85 1300.39 1531.6 Q1300.39 1540.33 1297.31 1544.94 Q1294.25 1549.52 1288.44 1549.52 Q1282.63 1549.52 1279.55 1544.94 Q1276.5 1540.33 1276.5 1531.6 Q1276.5 1522.85 1279.55 1518.27 Q1282.63 1513.66 1288.44 1513.66 Z" fill="#000000" fill-rule="nonzero" fill-opacity="1" /><path clip-path="url(#clip230)" d="M1308.6 1542.97 L1313.49 1542.97 L1313.49 1548.85 L1308.6 1548.85 L1308.6 1542.97 Z" fill="#000000" fill-rule="nonzero" fill-opacity="1" /><path clip-path="url(#clip230)" d="M1333.67 1517.37 Q1330.06 1517.37 1328.23 1520.93 Q1326.43 1524.47 1326.43 1531.6 Q1326.43 1538.71 1328.23 1542.27 Q1330.06 1545.82 1333.67 1545.82 Q1337.31 1545.82 1339.11 1542.27 Q1340.94 1538.71 1340.94 1531.6 Q1340.94 1524.47 1339.11 1520.93 Q1337.31 1517.37 1333.67 1517.37 M1333.67 1513.66 Q1339.48 1513.66 1342.54 1518.27 Q1345.62 1522.85 1345.62 1531.6 Q1345.62 1540.33 1342.54 1544.94 Q1339.48 1549.52 1333.67 1549.52 Q1327.86 1549.52 1324.79 1544.94 Q1321.73 1540.33 1321.73 1531.6 Q1321.73 1522.85 1324.79 1518.27 Q1327.86 1513.66 1333.67 1513.66 Z" fill="#000000" fill-rule="nonzero" fill-opacity="1" /><path clip-path="url(#clip230)" d="M1846.04 1517.37 Q1842.42 1517.37 1840.6 1520.93 Q1838.79 1524.47 1838.79 1531.6 Q1838.79 1538.71 1840.6 1542.27 Q1842.42 1545.82 1846.04 1545.82 Q1849.67 1545.82 1851.48 1542.27 Q1853.3 1538.71 1853.3 1531.6 Q1853.3 1524.47 1851.48 1520.93 Q1849.67 1517.37 1846.04 1517.37 M1846.04 1513.66 Q1851.85 1513.66 1854.9 1518.27 Q1857.98 1522.85 1857.98 1531.6 Q1857.98 1540.33 1854.9 1544.94 Q1851.85 1549.52 1846.04 1549.52 Q1840.23 1549.52 1837.15 1544.94 Q1834.09 1540.33 1834.09 1531.6 Q1834.09 1522.85 1837.15 1518.27 Q1840.23 1513.66 1846.04 1513.66 Z" fill="#000000" fill-rule="nonzero" fill-opacity="1" /><path clip-path="url(#clip230)" d="M1866.2 1542.97 L1871.08 1542.97 L1871.08 1548.85 L1866.2 1548.85 L1866.2 1542.97 Z" fill="#000000" fill-rule="nonzero" fill-opacity="1" /><path clip-path="url(#clip230)" d="M1885.29 1544.91 L1901.61 1544.91 L1901.61 1548.85 L1879.67 1548.85 L1879.67 1544.91 Q1882.33 1542.16 1886.91 1537.53 Q1891.52 1532.88 1892.7 1531.53 Q1894.95 1529.01 1895.83 1527.27 Q1896.73 1525.51 1896.73 1523.82 Q1896.73 1521.07 1894.79 1519.33 Q1892.86 1517.6 1889.76 1517.6 Q1887.56 1517.6 1885.11 1518.36 Q1882.68 1519.13 1879.9 1520.68 L1879.9 1515.95 Q1882.72 1514.82 1885.18 1514.24 Q1887.63 1513.66 1889.67 1513.66 Q1895.04 1513.66 1898.23 1516.35 Q1901.43 1519.03 1901.43 1523.52 Q1901.43 1525.65 1900.62 1527.57 Q1899.83 1529.47 1897.72 1532.07 Q1897.15 1532.74 1894.04 1535.95 Q1890.94 1539.15 1885.29 1544.91 Z" fill="#000000" fill-rule="nonzero" fill-opacity="1" /><polyline clip-path="url(#clip232)" style="stroke:#000000; stroke-linecap:round; stroke-linejoin:round; stroke-width:2; stroke-opacity:0.1; fill:none" points="186.274,1460.84 2352.76,1460.84 "/>
<polyline clip-path="url(#clip232)" style="stroke:#000000; stroke-linecap:round; stroke-linejoin:round; stroke-width:2; stroke-opacity:0.1; fill:none" points="186.274,1136.74 2352.76,1136.74 "/>
<polyline clip-path="url(#clip232)" style="stroke:#000000; stroke-linecap:round; stroke-linejoin:round; stroke-width:2; stroke-opacity:0.1; fill:none" points="186.274,812.646 2352.76,812.646 "/>
<polyline clip-path="url(#clip232)" style="stroke:#000000; stroke-linecap:round; stroke-linejoin:round; stroke-width:2; stroke-opacity:0.1; fill:none" points="186.274,488.551 2352.76,488.551 "/>
<polyline clip-path="url(#clip232)" style="stroke:#000000; stroke-linecap:round; stroke-linejoin:round; stroke-width:2; stroke-opacity:0.1; fill:none" points="186.274,164.456 2352.76,164.456 "/>
<polyline clip-path="url(#clip230)" style="stroke:#000000; stroke-linecap:round; stroke-linejoin:round; stroke-width:4; stroke-opacity:1; fill:none" points="186.274,1486.45 186.274,47.2441 "/>
<polyline clip-path="url(#clip230)" style="stroke:#000000; stroke-linecap:round; stroke-linejoin:round; stroke-width:4; stroke-opacity:1; fill:none" points="186.274,1460.84 205.172,1460.84 "/>
<polyline clip-path="url(#clip230)" style="stroke:#000000; stroke-linecap:round; stroke-linejoin:round; stroke-width:4; stroke-opacity:1; fill:none" points="186.274,1136.74 205.172,1136.74 "/>
<polyline clip-path="url(#clip230)" style="stroke:#000000; stroke-linecap:round; stroke-linejoin:round; stroke-width:4; stroke-opacity:1; fill:none" points="186.274,812.646 205.172,812.646 "/>
<polyline clip-path="url(#clip230)" style="stroke:#000000; stroke-linecap:round; stroke-linejoin:round; stroke-width:4; stroke-opacity:1; fill:none" points="186.274,488.551 205.172,488.551 "/>
<polyline clip-path="url(#clip230)" style="stroke:#000000; stroke-linecap:round; stroke-linejoin:round; stroke-width:4; stroke-opacity:1; fill:none" points="186.274,164.456 205.172,164.456 "/>
<path clip-path="url(#clip230)" d="M62.9365 1446.63 Q59.3254 1446.63 57.4967 1450.2 Q55.6912 1453.74 55.6912 1460.87 Q55.6912 1467.98 57.4967 1471.54 Q59.3254 1475.08 62.9365 1475.08 Q66.5707 1475.08 68.3763 1471.54 Q70.205 1467.98 70.205 1460.87 Q70.205 1453.74 68.3763 1450.2 Q66.5707 1446.63 62.9365 1446.63 M62.9365 1442.93 Q68.7467 1442.93 71.8022 1447.54 Q74.8809 1452.12 74.8809 1460.87 Q74.8809 1469.6 71.8022 1474.2 Q68.7467 1478.79 62.9365 1478.79 Q57.1264 1478.79 54.0477 1474.2 Q50.9921 1469.6 50.9921 1460.87 Q50.9921 1452.12 54.0477 1447.54 Q57.1264 1442.93 62.9365 1442.93 Z" fill="#000000" fill-rule="nonzero" fill-opacity="1" /><path clip-path="url(#clip230)" d="M83.0984 1472.24 L87.9827 1472.24 L87.9827 1478.12 L83.0984 1478.12 L83.0984 1472.24 Z" fill="#000000" fill-rule="nonzero" fill-opacity="1" /><path clip-path="url(#clip230)" d="M108.168 1446.63 Q104.557 1446.63 102.728 1450.2 Q100.922 1453.74 100.922 1460.87 Q100.922 1467.98 102.728 1471.54 Q104.557 1475.08 108.168 1475.08 Q111.802 1475.08 113.608 1471.54 Q115.436 1467.98 115.436 1460.87 Q115.436 1453.74 113.608 1450.2 Q111.802 1446.63 108.168 1446.63 M108.168 1442.93 Q113.978 1442.93 117.033 1447.54 Q120.112 1452.12 120.112 1460.87 Q120.112 1469.6 117.033 1474.2 Q113.978 1478.79 108.168 1478.79 Q102.358 1478.79 99.2789 1474.2 Q96.2234 1469.6 96.2234 1460.87 Q96.2234 1452.12 99.2789 1447.54 Q102.358 1442.93 108.168 1442.93 Z" fill="#000000" fill-rule="nonzero" fill-opacity="1" /><path clip-path="url(#clip230)" d="M138.33 1446.63 Q134.719 1446.63 132.89 1450.2 Q131.084 1453.74 131.084 1460.87 Q131.084 1467.98 132.89 1471.54 Q134.719 1475.08 138.33 1475.08 Q141.964 1475.08 143.769 1471.54 Q145.598 1467.98 145.598 1460.87 Q145.598 1453.74 143.769 1450.2 Q141.964 1446.63 138.33 1446.63 M138.33 1442.93 Q144.14 1442.93 147.195 1447.54 Q150.274 1452.12 150.274 1460.87 Q150.274 1469.6 147.195 1474.2 Q144.14 1478.79 138.33 1478.79 Q132.519 1478.79 129.441 1474.2 Q126.385 1469.6 126.385 1460.87 Q126.385 1452.12 129.441 1447.54 Q132.519 1442.93 138.33 1442.93 Z" fill="#000000" fill-rule="nonzero" fill-opacity="1" /><path clip-path="url(#clip230)" d="M63.9319 1122.54 Q60.3208 1122.54 58.4921 1126.1 Q56.6865 1129.65 56.6865 1136.78 Q56.6865 1143.88 58.4921 1147.45 Q60.3208 1150.99 63.9319 1150.99 Q67.5661 1150.99 69.3717 1147.45 Q71.2004 1143.88 71.2004 1136.78 Q71.2004 1129.65 69.3717 1126.1 Q67.5661 1122.54 63.9319 1122.54 M63.9319 1118.84 Q69.742 1118.84 72.7976 1123.44 Q75.8763 1128.03 75.8763 1136.78 Q75.8763 1145.5 72.7976 1150.11 Q69.742 1154.69 63.9319 1154.69 Q58.1217 1154.69 55.043 1150.11 Q51.9875 1145.5 51.9875 1136.78 Q51.9875 1128.03 55.043 1123.44 Q58.1217 1118.84 63.9319 1118.84 Z" fill="#000000" fill-rule="nonzero" fill-opacity="1" /><path clip-path="url(#clip230)" d="M84.0938 1148.14 L88.978 1148.14 L88.978 1154.02 L84.0938 1154.02 L84.0938 1148.14 Z" fill="#000000" fill-rule="nonzero" fill-opacity="1" /><path clip-path="url(#clip230)" d="M109.163 1122.54 Q105.552 1122.54 103.723 1126.1 Q101.918 1129.65 101.918 1136.78 Q101.918 1143.88 103.723 1147.45 Q105.552 1150.99 109.163 1150.99 Q112.797 1150.99 114.603 1147.45 Q116.432 1143.88 116.432 1136.78 Q116.432 1129.65 114.603 1126.1 Q112.797 1122.54 109.163 1122.54 M109.163 1118.84 Q114.973 1118.84 118.029 1123.44 Q121.107 1128.03 121.107 1136.78 Q121.107 1145.5 118.029 1150.11 Q114.973 1154.69 109.163 1154.69 Q103.353 1154.69 100.274 1150.11 Q97.2187 1145.5 97.2187 1136.78 Q97.2187 1128.03 100.274 1123.44 Q103.353 1118.84 109.163 1118.84 Z" fill="#000000" fill-rule="nonzero" fill-opacity="1" /><path clip-path="url(#clip230)" d="M129.371 1119.46 L147.728 1119.46 L147.728 1123.4 L133.654 1123.4 L133.654 1131.87 Q134.672 1131.52 135.691 1131.36 Q136.709 1131.17 137.728 1131.17 Q143.515 1131.17 146.894 1134.34 Q150.274 1137.52 150.274 1142.93 Q150.274 1148.51 146.802 1151.61 Q143.33 1154.69 137.01 1154.69 Q134.834 1154.69 132.566 1154.32 Q130.32 1153.95 127.913 1153.21 L127.913 1148.51 Q129.996 1149.65 132.219 1150.2 Q134.441 1150.76 136.918 1150.76 Q140.922 1150.76 143.26 1148.65 Q145.598 1146.54 145.598 1142.93 Q145.598 1139.32 143.26 1137.22 Q140.922 1135.11 136.918 1135.11 Q135.043 1135.11 133.168 1135.53 Q131.316 1135.94 129.371 1136.82 L129.371 1119.46 Z" fill="#000000" fill-rule="nonzero" fill-opacity="1" /><path clip-path="url(#clip230)" d="M62.9365 798.444 Q59.3254 798.444 57.4967 802.009 Q55.6912 805.551 55.6912 812.68 Q55.6912 819.787 57.4967 823.351 Q59.3254 826.893 62.9365 826.893 Q66.5707 826.893 68.3763 823.351 Q70.205 819.787 70.205 812.68 Q70.205 805.551 68.3763 802.009 Q66.5707 798.444 62.9365 798.444 M62.9365 794.741 Q68.7467 794.741 71.8022 799.347 Q74.8809 803.93 74.8809 812.68 Q74.8809 821.407 71.8022 826.014 Q68.7467 830.597 62.9365 830.597 Q57.1264 830.597 54.0477 826.014 Q50.9921 821.407 50.9921 812.68 Q50.9921 803.93 54.0477 799.347 Q57.1264 794.741 62.9365 794.741 Z" fill="#000000" fill-rule="nonzero" fill-opacity="1" /><path clip-path="url(#clip230)" d="M83.0984 824.046 L87.9827 824.046 L87.9827 829.926 L83.0984 829.926 L83.0984 824.046 Z" fill="#000000" fill-rule="nonzero" fill-opacity="1" /><path clip-path="url(#clip230)" d="M98.978 825.99 L106.617 825.99 L106.617 799.625 L98.3067 801.291 L98.3067 797.032 L106.571 795.366 L111.246 795.366 L111.246 825.99 L118.885 825.99 L118.885 829.926 L98.978 829.926 L98.978 825.99 Z" fill="#000000" fill-rule="nonzero" fill-opacity="1" /><path clip-path="url(#clip230)" d="M138.33 798.444 Q134.719 798.444 132.89 802.009 Q131.084 805.551 131.084 812.68 Q131.084 819.787 132.89 823.351 Q134.719 826.893 138.33 826.893 Q141.964 826.893 143.769 823.351 Q145.598 819.787 145.598 812.68 Q145.598 805.551 143.769 802.009 Q141.964 798.444 138.33 798.444 M138.33 794.741 Q144.14 794.741 147.195 799.347 Q150.274 803.93 150.274 812.68 Q150.274 821.407 147.195 826.014 Q144.14 830.597 138.33 830.597 Q132.519 830.597 129.441 826.014 Q126.385 821.407 126.385 812.68 Q126.385 803.93 129.441 799.347 Q132.519 794.741 138.33 794.741 Z" fill="#000000" fill-rule="nonzero" fill-opacity="1" /><path clip-path="url(#clip230)" d="M63.9319 474.349 Q60.3208 474.349 58.4921 477.914 Q56.6865 481.456 56.6865 488.585 Q56.6865 495.692 58.4921 499.257 Q60.3208 502.798 63.9319 502.798 Q67.5661 502.798 69.3717 499.257 Q71.2004 495.692 71.2004 488.585 Q71.2004 481.456 69.3717 477.914 Q67.5661 474.349 63.9319 474.349 M63.9319 470.646 Q69.742 470.646 72.7976 475.252 Q75.8763 479.835 75.8763 488.585 Q75.8763 497.312 72.7976 501.919 Q69.742 506.502 63.9319 506.502 Q58.1217 506.502 55.043 501.919 Q51.9875 497.312 51.9875 488.585 Q51.9875 479.835 55.043 475.252 Q58.1217 470.646 63.9319 470.646 Z" fill="#000000" fill-rule="nonzero" fill-opacity="1" /><path clip-path="url(#clip230)" d="M84.0938 499.951 L88.978 499.951 L88.978 505.831 L84.0938 505.831 L84.0938 499.951 Z" fill="#000000" fill-rule="nonzero" fill-opacity="1" /><path clip-path="url(#clip230)" d="M99.9733 501.895 L107.612 501.895 L107.612 475.53 L99.3021 477.196 L99.3021 472.937 L107.566 471.271 L112.242 471.271 L112.242 501.895 L119.881 501.895 L119.881 505.831 L99.9733 505.831 L99.9733 501.895 Z" fill="#000000" fill-rule="nonzero" fill-opacity="1" /><path clip-path="url(#clip230)" d="M129.371 471.271 L147.728 471.271 L147.728 475.206 L133.654 475.206 L133.654 483.678 Q134.672 483.331 135.691 483.169 Q136.709 482.983 137.728 482.983 Q143.515 482.983 146.894 486.155 Q150.274 489.326 150.274 494.743 Q150.274 500.321 146.802 503.423 Q143.33 506.502 137.01 506.502 Q134.834 506.502 132.566 506.132 Q130.32 505.761 127.913 505.02 L127.913 500.321 Q129.996 501.456 132.219 502.011 Q134.441 502.567 136.918 502.567 Q140.922 502.567 143.26 500.46 Q145.598 498.354 145.598 494.743 Q145.598 491.132 143.26 489.025 Q140.922 486.919 136.918 486.919 Q135.043 486.919 133.168 487.335 Q131.316 487.752 129.371 488.632 L129.371 471.271 Z" fill="#000000" fill-rule="nonzero" fill-opacity="1" /><path clip-path="url(#clip230)" d="M62.9365 150.254 Q59.3254 150.254 57.4967 153.819 Q55.6912 157.361 55.6912 164.49 Q55.6912 171.597 57.4967 175.162 Q59.3254 178.703 62.9365 178.703 Q66.5707 178.703 68.3763 175.162 Q70.205 171.597 70.205 164.49 Q70.205 157.361 68.3763 153.819 Q66.5707 150.254 62.9365 150.254 M62.9365 146.551 Q68.7467 146.551 71.8022 151.157 Q74.8809 155.74 74.8809 164.49 Q74.8809 173.217 71.8022 177.824 Q68.7467 182.407 62.9365 182.407 Q57.1264 182.407 54.0477 177.824 Q50.9921 173.217 50.9921 164.49 Q50.9921 155.74 54.0477 151.157 Q57.1264 146.551 62.9365 146.551 Z" fill="#000000" fill-rule="nonzero" fill-opacity="1" /><path clip-path="url(#clip230)" d="M83.0984 175.856 L87.9827 175.856 L87.9827 181.736 L83.0984 181.736 L83.0984 175.856 Z" fill="#000000" fill-rule="nonzero" fill-opacity="1" /><path clip-path="url(#clip230)" d="M102.196 177.8 L118.515 177.8 L118.515 181.736 L96.5706 181.736 L96.5706 177.8 Q99.2326 175.046 103.816 170.416 Q108.422 165.763 109.603 164.421 Q111.848 161.898 112.728 160.162 Q113.631 158.402 113.631 156.713 Q113.631 153.958 111.686 152.222 Q109.765 150.486 106.663 150.486 Q104.464 150.486 102.01 151.25 Q99.5798 152.014 96.8021 153.564 L96.8021 148.842 Q99.6261 147.708 102.08 147.129 Q104.534 146.551 106.571 146.551 Q111.941 146.551 115.135 149.236 Q118.33 151.921 118.33 156.412 Q118.33 158.541 117.52 160.463 Q116.733 162.361 114.626 164.953 Q114.047 165.625 110.946 168.842 Q107.844 172.037 102.196 177.8 Z" fill="#000000" fill-rule="nonzero" fill-opacity="1" /><path clip-path="url(#clip230)" d="M138.33 150.254 Q134.719 150.254 132.89 153.819 Q131.084 157.361 131.084 164.49 Q131.084 171.597 132.89 175.162 Q134.719 178.703 138.33 178.703 Q141.964 178.703 143.769 175.162 Q145.598 171.597 145.598 164.49 Q145.598 157.361 143.769 153.819 Q141.964 150.254 138.33 150.254 M138.33 146.551 Q144.14 146.551 147.195 151.157 Q150.274 155.74 150.274 164.49 Q150.274 173.217 147.195 177.824 Q144.14 182.407 138.33 182.407 Q132.519 182.407 129.441 177.824 Q126.385 173.217 126.385 164.49 Q126.385 155.74 129.441 151.157 Q132.519 146.551 138.33 146.551 Z" fill="#000000" fill-rule="nonzero" fill-opacity="1" /><circle clip-path="url(#clip232)" cx="1338.31" cy="1119.37" r="14.4" fill="#808080" fill-rule="evenodd" fill-opacity="1" stroke="#000000" stroke-opacity="1" stroke-width="3.2"/>
<circle clip-path="url(#clip232)" cx="1265.71" cy="1445.72" r="14.4" fill="#808080" fill-rule="evenodd" fill-opacity="1" stroke="#000000" stroke-opacity="1" stroke-width="3.2"/>
<circle clip-path="url(#clip232)" cx="2291.44" cy="1094.61" r="14.4" fill="#808080" fill-rule="evenodd" fill-opacity="1" stroke="#000000" stroke-opacity="1" stroke-width="3.2"/>
<circle clip-path="url(#clip232)" cx="247.59" cy="87.9763" r="14.4" fill="#808080" fill-rule="evenodd" fill-opacity="1" stroke="#000000" stroke-opacity="1" stroke-width="3.2"/>
<path clip-path="url(#clip230)" d="M1342.6 1126.8 Q1333.57 1126.8 1330.09 1128.87 Q1326.6 1130.93 1326.6 1135.92 Q1326.6 1139.89 1329.2 1142.24 Q1331.83 1144.55 1336.33 1144.55 Q1342.52 1144.55 1346.25 1140.17 Q1350.02 1135.75 1350.02 1128.46 L1350.02 1126.8 L1342.6 1126.8 M1357.47 1123.72 L1357.47 1149.61 L1350.02 1149.61 L1350.02 1142.72 Q1347.47 1146.85 1343.66 1148.84 Q1339.85 1150.78 1334.34 1150.78 Q1327.37 1150.78 1323.24 1146.89 Q1319.15 1142.97 1319.15 1136.4 Q1319.15 1128.75 1324.25 1124.86 Q1329.4 1120.97 1339.57 1120.97 L1350.02 1120.97 L1350.02 1120.24 Q1350.02 1115.09 1346.62 1112.3 Q1343.25 1109.46 1337.14 1109.46 Q1333.25 1109.46 1329.56 1110.4 Q1325.87 1111.33 1322.47 1113.19 L1322.47 1106.3 Q1326.56 1104.72 1330.41 1103.95 Q1334.26 1103.14 1337.91 1103.14 Q1347.75 1103.14 1352.61 1108.25 Q1357.47 1113.35 1357.47 1123.72 Z" fill="#000000" fill-rule="nonzero" fill-opacity="1" /><path clip-path="url(#clip230)" d="M1278.27 1453.31 Q1278.27 1445.09 1274.87 1440.43 Q1271.5 1435.73 1265.59 1435.73 Q1259.67 1435.73 1256.27 1440.43 Q1252.91 1445.09 1252.91 1453.31 Q1252.91 1461.53 1256.27 1466.23 Q1259.67 1470.89 1265.59 1470.89 Q1271.5 1470.89 1274.87 1466.23 Q1278.27 1461.53 1278.27 1453.31 M1252.91 1437.47 Q1255.26 1433.42 1258.82 1431.48 Q1262.43 1429.49 1267.41 1429.49 Q1275.68 1429.49 1280.82 1436.05 Q1286.01 1442.62 1286.01 1453.31 Q1286.01 1464.01 1280.82 1470.57 Q1275.68 1477.13 1267.41 1477.13 Q1262.43 1477.13 1258.82 1475.19 Q1255.26 1473.2 1252.91 1469.15 L1252.91 1475.96 L1245.42 1475.96 L1245.42 1412.92 L1252.91 1412.92 L1252.91 1437.47 Z" fill="#000000" fill-rule="nonzero" fill-opacity="1" /><path clip-path="url(#clip230)" d="M2309.39 1081.22 L2309.39 1088.19 Q2306.23 1086.45 2303.03 1085.59 Q2299.87 1084.7 2296.63 1084.7 Q2289.37 1084.7 2285.36 1089.32 Q2281.35 1093.9 2281.35 1102.2 Q2281.35 1110.51 2285.36 1115.13 Q2289.37 1119.7 2296.63 1119.7 Q2299.87 1119.7 2303.03 1118.85 Q2306.23 1117.96 2309.39 1116.22 L2309.39 1123.11 Q2306.27 1124.56 2302.9 1125.29 Q2299.58 1126.02 2295.82 1126.02 Q2285.57 1126.02 2279.53 1119.58 Q2273.49 1113.14 2273.49 1102.2 Q2273.49 1091.1 2279.57 1084.74 Q2285.69 1078.38 2296.3 1078.38 Q2299.74 1078.38 2303.03 1079.11 Q2306.31 1079.8 2309.39 1081.22 Z" fill="#000000" fill-rule="nonzero" fill-opacity="1" /><path clip-path="url(#clip230)" d="M260.411 79.7327 L260.411 55.1842 L267.864 55.1842 L267.864 118.216 L260.411 118.216 L260.411 111.411 Q258.061 115.462 254.456 117.447 Q250.891 119.391 245.868 119.391 Q237.645 119.391 232.459 112.829 Q227.315 106.266 227.315 95.5717 Q227.315 84.8773 232.459 78.3149 Q237.645 71.7524 245.868 71.7524 Q250.891 71.7524 254.456 73.7373 Q258.061 75.6818 260.411 79.7327 M235.011 95.5717 Q235.011 103.795 238.374 108.494 Q241.776 113.153 247.691 113.153 Q253.605 113.153 257.008 108.494 Q260.411 103.795 260.411 95.5717 Q260.411 87.3484 257.008 82.6898 Q253.605 77.9908 247.691 77.9908 Q241.776 77.9908 238.374 82.6898 Q235.011 87.3484 235.011 95.5717 Z" fill="#000000" fill-rule="nonzero" fill-opacity="1" /><path clip-path="url(#clip230)" d="M2011.46 198.898 L2280.54 198.898 L2280.54 95.2176 L2011.46 95.2176  Z" fill="#ffffff" fill-rule="evenodd" fill-opacity="1"/>
<polyline clip-path="url(#clip230)" style="stroke:#000000; stroke-linecap:round; stroke-linejoin:round; stroke-width:4; stroke-opacity:1; fill:none" points="2011.46,198.898 2280.54,198.898 2280.54,95.2176 2011.46,95.2176 2011.46,198.898 "/>
<circle clip-path="url(#clip230)" cx="2107.75" cy="147.058" r="20.48" fill="#808080" fill-rule="evenodd" fill-opacity="1" stroke="#000000" stroke-opacity="1" stroke-width="4.55111"/>
<path clip-path="url(#clip230)" d="M2217.88 166.745 Q2216.07 171.375 2214.36 172.787 Q2212.65 174.199 2209.78 174.199 L2206.38 174.199 L2206.38 170.634 L2208.88 170.634 Q2210.63 170.634 2211.61 169.8 Q2212.58 168.967 2213.76 165.865 L2214.52 163.921 L2204.04 138.412 L2208.55 138.412 L2216.65 158.689 L2224.76 138.412 L2229.27 138.412 L2217.88 166.745 Z" fill="#000000" fill-rule="nonzero" fill-opacity="1" /><path clip-path="url(#clip230)" d="M2236.56 160.402 L2244.2 160.402 L2244.2 134.037 L2235.89 135.703 L2235.89 131.444 L2244.15 129.778 L2248.83 129.778 L2248.83 160.402 L2256.47 160.402 L2256.47 164.338 L2236.56 164.338 L2236.56 160.402 Z" fill="#000000" fill-rule="nonzero" fill-opacity="1" /></svg>
