<?xml version="1.0" encoding="utf-8"?>
<svg xmlns="http://www.w3.org/2000/svg" xmlns:xlink="http://www.w3.org/1999/xlink" width="600" height="400" viewBox="0 0 2400 1600">
<defs>
  <clipPath id="clip140">
    <rect x="0" y="0" width="2400" height="1600"/>
  </clipPath>
</defs>
<path clip-path="url(#clip140)" d="M0 1600 L2400 1600 L2400 0 L0 0  Z" fill="#ffffff" fill-rule="evenodd" fill-opacity="1"/>
<defs>
  <clipPath id="clip141">
    <rect x="480" y="0" width="1681" height="1600"/>
  </clipPath>
</defs>
<path clip-path="url(#clip140)" d="M156.598 1486.45 L2352.76 1486.45 L2352.76 47.2441 L156.598 47.2441  Z" fill="#ffffff" fill-rule="evenodd" fill-opacity="1"/>
<defs>
  <clipPath id="clip142">
    <rect x="156" y="47" width="2197" height="1440"/>
  </clipPath>
</defs>
<polyline clip-path="url(#clip142)" style="stroke:#000000; stroke-linecap:round; stroke-linejoin:round; stroke-width:2; stroke-opacity:0.1; fill:none" points="574.632,1486.45 574.632,47.2441 "/>
<polyline clip-path="url(#clip142)" style="stroke:#000000; stroke-linecap:round; stroke-linejoin:round; stroke-width:2; stroke-opacity:0.1; fill:none" points="1010.92,1486.45 1010.92,47.2441 "/>
<polyline clip-path="url(#clip142)" style="stroke:#000000; stroke-linecap:round; stroke-linejoin:round; stroke-width:2; stroke-opacity:0.1; fill:none" points="1447.21,1486.45 1447.21,47.2441 "/>
<polyline clip-path="url(#clip142)" style="stroke:#000000; stroke-linecap:round; stroke-linejoin:round; stroke-width:2; stroke-opacity:0.1; fill:none" points="1883.5,1486.45 1883.5,47.2441 "/>
<polyline clip-path="url(#clip142)" style="stroke:#000000; stroke-linecap:round; stroke-linejoin:round; stroke-width:2; stroke-opacity:0.1; fill:none" points="2319.79,1486.45 2319.79,47.2441 "/>
<polyline clip-path="url(#clip140)" style="stroke:#000000; stroke-linecap:round; stroke-linejoin:round; stroke-width:4; stroke-opacity:1; fill:none" points="156.598,1486.45 2352.76,1486.45 "/>
<polyline clip-path="url(#clip140)" style="stroke:#000000; stroke-linecap:round; stroke-linejoin:round; stroke-width:4; stroke-opacity:1; fill:none" points="574.632,1486.45 574.632,1467.55 "/>
<polyline clip-path="url(#clip140)" style="stroke:#000000; stroke-linecap:round; stroke-linejoin:round; stroke-width:4; stroke-opacity:1; fill:none" points="1010.92,1486.45 1010.92,1467.55 "/>
<polyline clip-path="url(#clip140)" style="stroke:#000000; stroke-linecap:round; stroke-linejoin:round; stroke-width:4; stroke-opacity:1; fill:none" points="1447.21,1486.45 1447.21,1467.55 "/>
<polyline clip-path="url(#clip140)" style="stroke:#000000; stroke-linecap:round; stroke-linejoin:round; stroke-width:4; stroke-opacity:1; fill:none" points="1883.5,1486.45 1883.5,1467.55 "/>
<polyline clip-path="url(#clip140)" style="stroke:#000000; stroke-linecap:round; stroke-linejoin:round; stroke-width:4; stroke-opacity:1; fill:none" points="2319.79,1486.45 2319.79,1467.55 "/>
<path clip-path="url(#clip140)" d="M520.917 1532.02 L550.592 1532.02 L550.592 1535.95 L520.917 1535.95 L520.917 1532.02 Z" fill="#000000" fill-rule="nonzero" fill-opacity="1" /><path clip-path="url(#clip140)" d="M570.685 1517.37 Q567.074 1517.37 565.245 1520.93 Q563.44 1524.47 563.44 1531.6 Q563.44 1538.71 565.245 1542.27 Q567.074 1545.82 570.685 1545.82 Q574.319 1545.82 576.125 1542.27 Q577.953 1538.71 577.953 1531.6 Q577.953 1524.47 576.125 1520.93 Q574.319 1517.37 570.685 1517.37 M570.685 1513.66 Q576.495 1513.66 579.551 1518.27 Q582.629 1522.85 582.629 1531.6 Q582.629 1540.33 579.551 1544.94 Q576.495 1549.52 570.685 1549.52 Q564.875 1549.52 561.796 1544.94 Q558.741 1540.33 558.741 1531.6 Q558.741 1522.85 561.796 1518.27 Q564.875 1513.66 570.685 1513.66 Z" fill="#000000" fill-rule="nonzero" fill-opacity="1" /><path clip-path="url(#clip140)" d="M590.847 1542.97 L595.731 1542.97 L595.731 1548.85 L590.847 1548.85 L590.847 1542.97 Z" fill="#000000" fill-rule="nonzero" fill-opacity="1" /><path clip-path="url(#clip140)" d="M618.763 1518.36 L606.958 1536.81 L618.763 1536.81 L618.763 1518.36 M617.537 1514.29 L623.416 1514.29 L623.416 1536.81 L628.347 1536.81 L628.347 1540.7 L623.416 1540.7 L623.416 1548.85 L618.763 1548.85 L618.763 1540.7 L603.162 1540.7 L603.162 1536.19 L617.537 1514.29 Z" fill="#000000" fill-rule="nonzero" fill-opacity="1" /><path clip-path="url(#clip140)" d="M958.247 1532.02 L987.923 1532.02 L987.923 1535.95 L958.247 1535.95 L958.247 1532.02 Z" fill="#000000" fill-rule="nonzero" fill-opacity="1" /><path clip-path="url(#clip140)" d="M1008.02 1517.37 Q1004.4 1517.37 1002.58 1520.93 Q1000.77 1524.47 1000.77 1531.6 Q1000.77 1538.71 1002.58 1542.27 Q1004.4 1545.82 1008.02 1545.82 Q1011.65 1545.82 1013.45 1542.27 Q1015.28 1538.71 1015.28 1531.6 Q1015.28 1524.47 1013.45 1520.93 Q1011.65 1517.37 1008.02 1517.37 M1008.02 1513.66 Q1013.83 1513.66 1016.88 1518.27 Q1019.96 1522.85 1019.96 1531.6 Q1019.96 1540.33 1016.88 1544.94 Q1013.83 1549.52 1008.02 1549.52 Q1002.21 1549.52 999.126 1544.94 Q996.071 1540.33 996.071 1531.6 Q996.071 1522.85 999.126 1518.27 Q1002.21 1513.66 1008.02 1513.66 Z" fill="#000000" fill-rule="nonzero" fill-opacity="1" /><path clip-path="url(#clip140)" d="M1028.18 1542.97 L1033.06 1542.97 L1033.06 1548.85 L1028.18 1548.85 L1028.18 1542.97 Z" fill="#000000" fill-rule="nonzero" fill-opacity="1" /><path clip-path="url(#clip140)" d="M1047.27 1544.91 L1063.59 1544.91 L1063.59 1548.85 L1041.65 1548.85 L1041.65 1544.91 Q1044.31 1542.16 1048.89 1537.53 Q1053.5 1532.88 1054.68 1531.53 Q1056.93 1529.01 1057.81 1527.27 Q1058.71 1525.51 1058.71 1523.82 Q1058.71 1521.07 1056.76 1519.33 Q1054.84 1517.6 1051.74 1517.6 Q1049.54 1517.6 1047.09 1518.36 Q1044.66 1519.13 1041.88 1520.68 L1041.88 1515.95 Q1044.7 1514.82 1047.16 1514.24 Q1049.61 1513.66 1051.65 1513.66 Q1057.02 1513.66 1060.21 1516.35 Q1063.41 1519.03 1063.41 1523.52 Q1063.41 1525.65 1062.6 1527.57 Q1061.81 1529.47 1059.7 1532.07 Q1059.13 1532.74 1056.02 1535.95 Q1052.92 1539.15 1047.27 1544.91 Z" fill="#000000" fill-rule="nonzero" fill-opacity="1" /><path clip-path="url(#clip140)" d="M1424.59 1517.37 Q1420.98 1517.37 1419.15 1520.93 Q1417.35 1524.47 1417.35 1531.6 Q1417.35 1538.71 1419.15 1542.27 Q1420.98 1545.82 1424.59 1545.82 Q1428.23 1545.82 1430.03 1542.27 Q1431.86 1538.71 1431.86 1531.6 Q1431.86 1524.47 1430.03 1520.93 Q1428.23 1517.37 1424.59 1517.37 M1424.59 1513.66 Q1430.4 1513.66 1433.46 1518.27 Q1436.54 1522.85 1436.54 1531.6 Q1436.54 1540.33 1433.46 1544.94 Q1430.4 1549.52 1424.59 1549.52 Q1418.78 1549.52 1415.7 1544.94 Q1412.65 1540.33 1412.65 1531.6 Q1412.65 1522.85 1415.7 1518.27 Q1418.78 1513.66 1424.59 1513.66 Z" fill="#000000" fill-rule="nonzero" fill-opacity="1" /><path clip-path="url(#clip140)" d="M1444.76 1542.97 L1449.64 1542.97 L1449.64 1548.85 L1444.76 1548.85 L1444.76 1542.97 Z" fill="#000000" fill-rule="nonzero" fill-opacity="1" /><path clip-path="url(#clip140)" d="M1469.82 1517.37 Q1466.21 1517.37 1464.38 1520.93 Q1462.58 1524.47 1462.58 1531.6 Q1462.58 1538.71 1464.38 1542.27 Q1466.21 1545.82 1469.82 1545.82 Q1473.46 1545.82 1475.26 1542.27 Q1477.09 1538.71 1477.09 1531.6 Q1477.09 1524.47 1475.26 1520.93 Q1473.46 1517.37 1469.82 1517.37 M1469.82 1513.66 Q1475.63 1513.66 1478.69 1518.27 Q1481.77 1522.85 1481.77 1531.6 Q1481.77 1540.33 1478.69 1544.94 Q1475.63 1549.52 1469.82 1549.52 Q1464.01 1549.52 1460.94 1544.94 Q1457.88 1540.33 1457.88 1531.6 Q1457.88 1522.85 1460.94 1518.27 Q1464.01 1513.66 1469.82 1513.66 Z" fill="#000000" fill-rule="nonzero" fill-opacity="1" /><path clip-path="url(#clip140)" d="M1861.68 1517.37 Q1858.07 1517.37 1856.24 1520.93 Q1854.43 1524.47 1854.43 1531.6 Q1854.43 1538.71 1856.24 1542.27 Q1858.07 1545.82 1861.68 1545.82 Q1865.31 1545.82 1867.12 1542.27 Q1868.95 1538.71 1868.95 1531.6 Q1868.95 1524.47 1867.12 1520.93 Q1865.31 1517.37 1861.68 1517.37 M1861.68 1513.66 Q1867.49 1513.66 1870.55 1518.27 Q1873.62 1522.85 1873.62 1531.6 Q1873.62 1540.33 1870.55 1544.94 Q1867.49 1549.52 1861.68 1549.52 Q1855.87 1549.52 1852.79 1544.94 Q1849.74 1540.33 1849.74 1531.6 Q1849.74 1522.85 1852.79 1518.27 Q1855.87 1513.66 1861.68 1513.66 Z" fill="#000000" fill-rule="nonzero" fill-opacity="1" /><path clip-path="url(#clip140)" d="M1881.84 1542.97 L1886.73 1542.97 L1886.73 1548.85 L1881.84 1548.85 L1881.84 1542.97 Z" fill="#000000" fill-rule="nonzero" fill-opacity="1" /><path clip-path="url(#clip140)" d="M1900.94 1544.91 L1917.26 1544.91 L1917.26 1548.85 L1895.31 1548.85 L1895.31 1544.91 Q1897.98 1542.16 1902.56 1537.53 Q1907.17 1532.88 1908.35 1531.53 Q1910.59 1529.01 1911.47 1527.27 Q1912.37 1525.51 1912.37 1523.82 Q1912.37 1521.07 1910.43 1519.33 Q1908.51 1517.6 1905.41 1517.6 Q1903.21 1517.6 1900.75 1518.36 Q1898.32 1519.13 1895.55 1520.68 L1895.55 1515.95 Q1898.37 1514.82 1900.82 1514.24 Q1903.28 1513.66 1905.31 1513.66 Q1910.68 1513.66 1913.88 1516.35 Q1917.07 1519.03 1917.07 1523.52 Q1917.07 1525.65 1916.26 1527.57 Q1915.48 1529.47 1913.37 1532.07 Q1912.79 1532.74 1909.69 1535.95 Q1906.59 1539.15 1900.94 1544.91 Z" fill="#000000" fill-rule="nonzero" fill-opacity="1" /><path clip-path="url(#clip140)" d="M2296.93 1517.37 Q2293.32 1517.37 2291.49 1520.93 Q2289.68 1524.47 2289.68 1531.6 Q2289.68 1538.71 2291.49 1542.27 Q2293.32 1545.82 2296.93 1545.82 Q2300.56 1545.82 2302.37 1542.27 Q2304.2 1538.71 2304.2 1531.6 Q2304.2 1524.47 2302.37 1520.93 Q2300.56 1517.37 2296.93 1517.37 M2296.93 1513.66 Q2302.74 1513.66 2305.79 1518.27 Q2308.87 1522.85 2308.87 1531.6 Q2308.87 1540.33 2305.79 1544.94 Q2302.74 1549.52 2296.93 1549.52 Q2291.12 1549.52 2288.04 1544.94 Q2284.98 1540.33 2284.98 1531.6 Q2284.98 1522.85 2288.04 1518.27 Q2291.12 1513.66 2296.93 1513.66 Z" fill="#000000" fill-rule="nonzero" fill-opacity="1" /><path clip-path="url(#clip140)" d="M2317.09 1542.97 L2321.97 1542.97 L2321.97 1548.85 L2317.09 1548.85 L2317.09 1542.97 Z" fill="#000000" fill-rule="nonzero" fill-opacity="1" /><path clip-path="url(#clip140)" d="M2345.01 1518.36 L2333.2 1536.81 L2345.01 1536.81 L2345.01 1518.36 M2343.78 1514.29 L2349.66 1514.29 L2349.66 1536.81 L2354.59 1536.81 L2354.59 1540.7 L2349.66 1540.7 L2349.66 1548.85 L2345.01 1548.85 L2345.01 1540.7 L2329.4 1540.7 L2329.4 1536.19 L2343.78 1514.29 Z" fill="#000000" fill-rule="nonzero" fill-opacity="1" /><polyline clip-path="url(#clip142)" style="stroke:#000000; stroke-linecap:round; stroke-linejoin:round; stroke-width:2; stroke-opacity:0.1; fill:none" points="156.598,1454.89 2352.76,1454.89 "/>
<polyline clip-path="url(#clip142)" style="stroke:#000000; stroke-linecap:round; stroke-linejoin:round; stroke-width:2; stroke-opacity:0.1; fill:none" points="156.598,1213.38 2352.76,1213.38 "/>
<polyline clip-path="url(#clip142)" style="stroke:#000000; stroke-linecap:round; stroke-linejoin:round; stroke-width:2; stroke-opacity:0.1; fill:none" points="156.598,971.873 2352.76,971.873 "/>
<polyline clip-path="url(#clip142)" style="stroke:#000000; stroke-linecap:round; stroke-linejoin:round; stroke-width:2; stroke-opacity:0.1; fill:none" points="156.598,730.362 2352.76,730.362 "/>
<polyline clip-path="url(#clip142)" style="stroke:#000000; stroke-linecap:round; stroke-linejoin:round; stroke-width:2; stroke-opacity:0.1; fill:none" points="156.598,488.852 2352.76,488.852 "/>
<polyline clip-path="url(#clip142)" style="stroke:#000000; stroke-linecap:round; stroke-linejoin:round; stroke-width:2; stroke-opacity:0.1; fill:none" points="156.598,247.341 2352.76,247.341 "/>
<polyline clip-path="url(#clip140)" style="stroke:#000000; stroke-linecap:round; stroke-linejoin:round; stroke-width:4; stroke-opacity:1; fill:none" points="156.598,1486.45 156.598,47.2441 "/>
<polyline clip-path="url(#clip140)" style="stroke:#000000; stroke-linecap:round; stroke-linejoin:round; stroke-width:4; stroke-opacity:1; fill:none" points="156.598,1454.89 175.496,1454.89 "/>
<polyline clip-path="url(#clip140)" style="stroke:#000000; stroke-linecap:round; stroke-linejoin:round; stroke-width:4; stroke-opacity:1; fill:none" points="156.598,1213.38 175.496,1213.38 "/>
<polyline clip-path="url(#clip140)" style="stroke:#000000; stroke-linecap:round; stroke-linejoin:round; stroke-width:4; stroke-opacity:1; fill:none" points="156.598,971.873 175.496,971.873 "/>
<polyline clip-path="url(#clip140)" style="stroke:#000000; stroke-linecap:round; stroke-linejoin:round; stroke-width:4; stroke-opacity:1; fill:none" points="156.598,730.362 175.496,730.362 "/>
<polyline clip-path="url(#clip140)" style="stroke:#000000; stroke-linecap:round; stroke-linejoin:round; stroke-width:4; stroke-opacity:1; fill:none" points="156.598,488.852 175.496,488.852 "/>
<polyline clip-path="url(#clip140)" style="stroke:#000000; stroke-linecap:round; stroke-linejoin:round; stroke-width:4; stroke-opacity:1; fill:none" points="156.598,247.341 175.496,247.341 "/>
<path clip-path="url(#clip140)" d="M63.4226 1440.69 Q59.8115 1440.69 57.9828 1444.26 Q56.1773 1447.8 56.1773 1454.93 Q56.1773 1462.04 57.9828 1465.6 Q59.8115 1469.14 63.4226 1469.14 Q67.0569 1469.14 68.8624 1465.6 Q70.6911 1462.04 70.6911 1454.93 Q70.6911 1447.8 68.8624 1444.26 Q67.0569 1440.69 63.4226 1440.69 M63.4226 1436.99 Q69.2328 1436.99 72.2883 1441.6 Q75.367 1446.18 75.367 1454.93 Q75.367 1463.66 72.2883 1468.26 Q69.2328 1472.85 63.4226 1472.85 Q57.6125 1472.85 54.5338 1468.26 Q51.4782 1463.66 51.4782 1454.93 Q51.4782 1446.18 54.5338 1441.6 Q57.6125 1436.99 63.4226 1436.99 Z" fill="#000000" fill-rule="nonzero" fill-opacity="1" /><path clip-path="url(#clip140)" d="M83.5845 1466.29 L88.4688 1466.29 L88.4688 1472.17 L83.5845 1472.17 L83.5845 1466.29 Z" fill="#000000" fill-rule="nonzero" fill-opacity="1" /><path clip-path="url(#clip140)" d="M108.654 1440.69 Q105.043 1440.69 103.214 1444.26 Q101.409 1447.8 101.409 1454.93 Q101.409 1462.04 103.214 1465.6 Q105.043 1469.14 108.654 1469.14 Q112.288 1469.14 114.094 1465.6 Q115.922 1462.04 115.922 1454.93 Q115.922 1447.8 114.094 1444.26 Q112.288 1440.69 108.654 1440.69 M108.654 1436.99 Q114.464 1436.99 117.52 1441.6 Q120.598 1446.18 120.598 1454.93 Q120.598 1463.66 117.52 1468.26 Q114.464 1472.85 108.654 1472.85 Q102.844 1472.85 99.765 1468.26 Q96.7095 1463.66 96.7095 1454.93 Q96.7095 1446.18 99.765 1441.6 Q102.844 1436.99 108.654 1436.99 Z" fill="#000000" fill-rule="nonzero" fill-opacity="1" /><path clip-path="url(#clip140)" d="M64.6495 1199.18 Q61.0384 1199.18 59.2097 1202.75 Q57.4041 1206.29 57.4041 1213.42 Q57.4041 1220.52 59.2097 1224.09 Q61.0384 1227.63 64.6495 1227.63 Q68.2837 1227.63 70.0892 1224.09 Q71.9179 1220.52 71.9179 1213.42 Q71.9179 1206.29 70.0892 1202.75 Q68.2837 1199.18 64.6495 1199.18 M64.6495 1195.48 Q70.4596 1195.48 73.5152 1200.09 Q76.5938 1204.67 76.5938 1213.42 Q76.5938 1222.15 73.5152 1226.75 Q70.4596 1231.33 64.6495 1231.33 Q58.8393 1231.33 55.7606 1226.75 Q52.7051 1222.15 52.7051 1213.42 Q52.7051 1204.67 55.7606 1200.09 Q58.8393 1195.48 64.6495 1195.48 Z" fill="#000000" fill-rule="nonzero" fill-opacity="1" /><path clip-path="url(#clip140)" d="M84.8114 1224.78 L89.6956 1224.78 L89.6956 1230.66 L84.8114 1230.66 L84.8114 1224.78 Z" fill="#000000" fill-rule="nonzero" fill-opacity="1" /><path clip-path="url(#clip140)" d="M100.691 1226.73 L108.33 1226.73 L108.33 1200.36 L100.02 1202.03 L100.02 1197.77 L108.283 1196.1 L112.959 1196.1 L112.959 1226.73 L120.598 1226.73 L120.598 1230.66 L100.691 1230.66 L100.691 1226.73 Z" fill="#000000" fill-rule="nonzero" fill-opacity="1" /><path clip-path="url(#clip140)" d="M65.0198 957.672 Q61.4087 957.672 59.58 961.236 Q57.7745 964.778 57.7745 971.908 Q57.7745 979.014 59.58 982.579 Q61.4087 986.121 65.0198 986.121 Q68.6541 986.121 70.4596 982.579 Q72.2883 979.014 72.2883 971.908 Q72.2883 964.778 70.4596 961.236 Q68.6541 957.672 65.0198 957.672 M65.0198 953.968 Q70.83 953.968 73.8855 958.574 Q76.9642 963.158 76.9642 971.908 Q76.9642 980.635 73.8855 985.241 Q70.83 989.824 65.0198 989.824 Q59.2097 989.824 56.131 985.241 Q53.0754 980.635 53.0754 971.908 Q53.0754 963.158 56.131 958.574 Q59.2097 953.968 65.0198 953.968 Z" fill="#000000" fill-rule="nonzero" fill-opacity="1" /><path clip-path="url(#clip140)" d="M85.1818 983.273 L90.066 983.273 L90.066 989.153 L85.1818 989.153 L85.1818 983.273 Z" fill="#000000" fill-rule="nonzero" fill-opacity="1" /><path clip-path="url(#clip140)" d="M104.279 985.218 L120.598 985.218 L120.598 989.153 L98.6539 989.153 L98.6539 985.218 Q101.316 982.463 105.899 977.834 Q110.506 973.181 111.686 971.838 Q113.932 969.315 114.811 967.579 Q115.714 965.82 115.714 964.13 Q115.714 961.375 113.77 959.639 Q111.848 957.903 108.746 957.903 Q106.547 957.903 104.094 958.667 Q101.663 959.431 98.8854 960.982 L98.8854 956.26 Q101.709 955.125 104.163 954.547 Q106.617 953.968 108.654 953.968 Q114.024 953.968 117.219 956.653 Q120.413 959.338 120.413 963.829 Q120.413 965.959 119.603 967.88 Q118.816 969.778 116.709 972.371 Q116.131 973.042 113.029 976.26 Q109.927 979.454 104.279 985.218 Z" fill="#000000" fill-rule="nonzero" fill-opacity="1" /><path clip-path="url(#clip140)" d="M64.0708 716.161 Q60.4597 716.161 58.631 719.726 Q56.8254 723.267 56.8254 730.397 Q56.8254 737.503 58.631 741.068 Q60.4597 744.61 64.0708 744.61 Q67.705 744.61 69.5105 741.068 Q71.3392 737.503 71.3392 730.397 Q71.3392 723.267 69.5105 719.726 Q67.705 716.161 64.0708 716.161 M64.0708 712.457 Q69.8809 712.457 72.9365 717.064 Q76.0151 721.647 76.0151 730.397 Q76.0151 739.124 72.9365 743.73 Q69.8809 748.314 64.0708 748.314 Q58.2606 748.314 55.1819 743.73 Q52.1264 739.124 52.1264 730.397 Q52.1264 721.647 55.1819 717.064 Q58.2606 712.457 64.0708 712.457 Z" fill="#000000" fill-rule="nonzero" fill-opacity="1" /><path clip-path="url(#clip140)" d="M84.2327 741.763 L89.1169 741.763 L89.1169 747.642 L84.2327 747.642 L84.2327 741.763 Z" fill="#000000" fill-rule="nonzero" fill-opacity="1" /><path clip-path="url(#clip140)" d="M113.469 729.008 Q116.825 729.726 118.7 731.994 Q120.598 734.263 120.598 737.596 Q120.598 742.712 117.08 745.513 Q113.561 748.314 107.08 748.314 Q104.904 748.314 102.589 747.874 Q100.297 747.457 97.8437 746.601 L97.8437 742.087 Q99.7882 743.221 102.103 743.8 Q104.418 744.378 106.941 744.378 Q111.339 744.378 113.631 742.642 Q115.945 740.906 115.945 737.596 Q115.945 734.54 113.793 732.828 Q111.663 731.091 107.844 731.091 L103.816 731.091 L103.816 727.249 L108.029 727.249 Q111.478 727.249 113.307 725.883 Q115.135 724.494 115.135 721.902 Q115.135 719.24 113.237 717.828 Q111.362 716.392 107.844 716.392 Q105.922 716.392 103.723 716.809 Q101.524 717.226 98.8854 718.105 L98.8854 713.939 Q101.547 713.198 103.862 712.828 Q106.2 712.457 108.26 712.457 Q113.584 712.457 116.686 714.888 Q119.788 717.295 119.788 721.416 Q119.788 724.286 118.145 726.277 Q116.501 728.244 113.469 729.008 Z" fill="#000000" fill-rule="nonzero" fill-opacity="1" /><path clip-path="url(#clip140)" d="M62.9365 474.65 Q59.3254 474.65 57.4967 478.215 Q55.6912 481.757 55.6912 488.886 Q55.6912 495.993 57.4967 499.558 Q59.3254 503.099 62.9365 503.099 Q66.5707 503.099 68.3763 499.558 Q70.205 495.993 70.205 488.886 Q70.205 481.757 68.3763 478.215 Q66.5707 474.65 62.9365 474.65 M62.9365 470.947 Q68.7467 470.947 71.8022 475.553 Q74.8809 480.136 74.8809 488.886 Q74.8809 497.613 71.8022 502.22 Q68.7467 506.803 62.9365 506.803 Q57.1264 506.803 54.0477 502.22 Q50.9921 497.613 50.9921 488.886 Q50.9921 480.136 54.0477 475.553 Q57.1264 470.947 62.9365 470.947 Z" fill="#000000" fill-rule="nonzero" fill-opacity="1" /><path clip-path="url(#clip140)" d="M83.0984 500.252 L87.9827 500.252 L87.9827 506.132 L83.0984 506.132 L83.0984 500.252 Z" fill="#000000" fill-rule="nonzero" fill-opacity="1" /><path clip-path="url(#clip140)" d="M111.015 475.646 L99.2095 494.095 L111.015 494.095 L111.015 475.646 M109.788 471.572 L115.668 471.572 L115.668 494.095 L120.598 494.095 L120.598 497.983 L115.668 497.983 L115.668 506.132 L111.015 506.132 L111.015 497.983 L95.4132 497.983 L95.4132 493.47 L109.788 471.572 Z" fill="#000000" fill-rule="nonzero" fill-opacity="1" /><path clip-path="url(#clip140)" d="M64.418 233.14 Q60.8069 233.14 58.9782 236.704 Q57.1726 240.246 57.1726 247.376 Q57.1726 254.482 58.9782 258.047 Q60.8069 261.588 64.418 261.588 Q68.0522 261.588 69.8578 258.047 Q71.6865 254.482 71.6865 247.376 Q71.6865 240.246 69.8578 236.704 Q68.0522 233.14 64.418 233.14 M64.418 229.436 Q70.2281 229.436 73.2837 234.042 Q76.3624 238.626 76.3624 247.376 Q76.3624 256.102 73.2837 260.709 Q70.2281 265.292 64.418 265.292 Q58.6078 265.292 55.5291 260.709 Q52.4736 256.102 52.4736 247.376 Q52.4736 238.626 55.5291 234.042 Q58.6078 229.436 64.418 229.436 Z" fill="#000000" fill-rule="nonzero" fill-opacity="1" /><path clip-path="url(#clip140)" d="M84.5799 258.741 L89.4641 258.741 L89.4641 264.621 L84.5799 264.621 L84.5799 258.741 Z" fill="#000000" fill-rule="nonzero" fill-opacity="1" /><path clip-path="url(#clip140)" d="M99.6956 230.061 L118.052 230.061 L118.052 233.996 L103.978 233.996 L103.978 242.468 Q104.996 242.121 106.015 241.959 Q107.033 241.774 108.052 241.774 Q113.839 241.774 117.219 244.945 Q120.598 248.116 120.598 253.533 Q120.598 259.112 117.126 262.213 Q113.654 265.292 107.334 265.292 Q105.159 265.292 102.89 264.922 Q100.645 264.551 98.2372 263.811 L98.2372 259.112 Q100.321 260.246 102.543 260.801 Q104.765 261.357 107.242 261.357 Q111.246 261.357 113.584 259.25 Q115.922 257.144 115.922 253.533 Q115.922 249.922 113.584 247.815 Q111.246 245.709 107.242 245.709 Q105.367 245.709 103.492 246.126 Q101.64 246.542 99.6956 247.422 L99.6956 230.061 Z" fill="#000000" fill-rule="nonzero" fill-opacity="1" /><circle clip-path="url(#clip142)" cx="1511.98" cy="1245.14" r="14.4" fill="#808080" fill-rule="evenodd" fill-opacity="1" stroke="#000000" stroke-opacity="1" stroke-width="3.2"/>
<circle clip-path="url(#clip142)" cx="1411.86" cy="1445.72" r="14.4" fill="#808080" fill-rule="evenodd" fill-opacity="1" stroke="#000000" stroke-opacity="1" stroke-width="3.2"/>
<circle clip-path="url(#clip142)" cx="2290.6" cy="1311.46" r="14.4" fill="#808080" fill-rule="evenodd" fill-opacity="1" stroke="#000000" stroke-opacity="1" stroke-width="3.2"/>
<circle clip-path="url(#clip142)" cx="218.754" cy="87.9763" r="14.4" fill="#808080" fill-rule="evenodd" fill-opacity="1" stroke="#000000" stroke-opacity="1" stroke-width="3.2"/>
<path clip-path="url(#clip140)" d="M1516.27 1252.57 Q1507.24 1252.57 1503.76 1254.64 Q1500.27 1256.7 1500.27 1261.69 Q1500.27 1265.65 1502.87 1268 Q1505.5 1270.31 1510 1270.31 Q1516.19 1270.31 1519.92 1265.94 Q1523.69 1261.52 1523.69 1254.23 L1523.69 1252.57 L1516.27 1252.57 M1531.14 1249.49 L1531.14 1275.38 L1523.69 1275.38 L1523.69 1268.49 Q1521.14 1272.62 1517.33 1274.61 Q1513.52 1276.55 1508.01 1276.55 Q1501.04 1276.55 1496.91 1272.66 Q1492.82 1268.73 1492.82 1262.17 Q1492.82 1254.51 1497.92 1250.63 Q1503.07 1246.74 1513.24 1246.74 L1523.69 1246.74 L1523.69 1246.01 Q1523.69 1240.86 1520.28 1238.07 Q1516.92 1235.23 1510.81 1235.23 Q1506.92 1235.23 1503.23 1236.16 Q1499.54 1237.1 1496.14 1238.96 L1496.14 1232.07 Q1500.23 1230.49 1504.08 1229.72 Q1507.93 1228.91 1511.57 1228.91 Q1521.42 1228.91 1526.28 1234.02 Q1531.14 1239.12 1531.14 1249.49 Z" fill="#000000" fill-rule="nonzero" fill-opacity="1" /><path clip-path="url(#clip140)" d="M1424.42 1453.31 Q1424.42 1445.09 1421.01 1440.43 Q1417.65 1435.73 1411.74 1435.73 Q1405.82 1435.73 1402.42 1440.43 Q1399.06 1445.09 1399.06 1453.31 Q1399.06 1461.53 1402.42 1466.23 Q1405.82 1470.89 1411.74 1470.89 Q1417.65 1470.89 1421.01 1466.23 Q1424.42 1461.53 1424.42 1453.31 M1399.06 1437.47 Q1401.41 1433.42 1404.97 1431.48 Q1408.58 1429.49 1413.56 1429.49 Q1421.82 1429.49 1426.97 1436.05 Q1432.15 1442.62 1432.15 1453.31 Q1432.15 1464.01 1426.97 1470.57 Q1421.82 1477.13 1413.56 1477.13 Q1408.58 1477.13 1404.97 1475.19 Q1401.41 1473.2 1399.06 1469.15 L1399.06 1475.96 L1391.56 1475.96 L1391.56 1412.92 L1399.06 1412.92 L1399.06 1437.47 Z" fill="#000000" fill-rule="nonzero" fill-opacity="1" /><path clip-path="url(#clip140)" d="M2308.55 1298.07 L2308.55 1305.03 Q2305.39 1303.29 2302.19 1302.44 Q2299.03 1301.55 2295.79 1301.55 Q2288.53 1301.55 2284.52 1306.17 Q2280.51 1310.75 2280.51 1319.05 Q2280.51 1327.35 2284.52 1331.97 Q2288.53 1336.55 2295.79 1336.55 Q2299.03 1336.55 2302.19 1335.7 Q2305.39 1334.81 2308.55 1333.07 L2308.55 1339.95 Q2305.43 1341.41 2302.06 1342.14 Q2298.74 1342.87 2294.98 1342.87 Q2284.73 1342.87 2278.69 1336.43 Q2272.65 1329.99 2272.65 1319.05 Q2272.65 1307.95 2278.73 1301.59 Q2284.85 1295.23 2295.46 1295.23 Q2298.9 1295.23 2302.19 1295.96 Q2305.47 1296.65 2308.55 1298.07 Z" fill="#000000" fill-rule="nonzero" fill-opacity="1" /><path clip-path="url(#clip140)" d="M231.575 79.7327 L231.575 55.1842 L239.028 55.1842 L239.028 118.216 L231.575 118.216 L231.575 111.411 Q229.225 115.462 225.62 117.447 Q222.055 119.391 217.032 119.391 Q208.809 119.391 203.624 112.829 Q198.479 106.266 198.479 95.5717 Q198.479 84.8773 203.624 78.3149 Q208.809 71.7524 217.032 71.7524 Q222.055 71.7524 225.62 73.7373 Q229.225 75.6818 231.575 79.7327 M206.176 95.5717 Q206.176 103.795 209.538 108.494 Q212.941 113.153 218.855 113.153 Q224.769 113.153 228.172 108.494 Q231.575 103.795 231.575 95.5717 Q231.575 87.3484 228.172 82.6898 Q224.769 77.9908 218.855 77.9908 Q212.941 77.9908 209.538 82.6898 Q206.176 87.3484 206.176 95.5717 Z" fill="#000000" fill-rule="nonzero" fill-opacity="1" /><path clip-path="url(#clip140)" d="M2007.5 198.898 L2279.55 198.898 L2279.55 95.2176 L2007.5 95.2176  Z" fill="#ffffff" fill-rule="evenodd" fill-opacity="1"/>
<polyline clip-path="url(#clip140)" style="stroke:#000000; stroke-linecap:round; stroke-linejoin:round; stroke-width:4; stroke-opacity:1; fill:none" points="2007.5,198.898 2279.55,198.898 2279.55,95.2176 2007.5,95.2176 2007.5,198.898 "/>
<circle clip-path="url(#clip140)" cx="2105.11" cy="147.058" r="20.48" fill="#808080" fill-rule="evenodd" fill-opacity="1" stroke="#000000" stroke-opacity="1" stroke-width="4.55111"/>
<path clip-path="url(#clip140)" d="M2216.56 166.745 Q2214.76 171.375 2213.04 172.787 Q2211.33 174.199 2208.46 174.199 L2205.06 174.199 L2205.06 170.634 L2207.56 170.634 Q2209.32 170.634 2210.29 169.8 Q2211.26 168.967 2212.44 165.865 L2213.2 163.921 L2202.72 138.412 L2207.23 138.412 L2215.33 158.689 L2223.44 138.412 L2227.95 138.412 L2216.56 166.745 Z" fill="#000000" fill-rule="nonzero" fill-opacity="1" /><path clip-path="url(#clip140)" d="M2235.24 160.402 L2242.88 160.402 L2242.88 134.037 L2234.57 135.703 L2234.57 131.444 L2242.83 129.778 L2247.51 129.778 L2247.51 160.402 L2255.15 160.402 L2255.15 164.338 L2235.24 164.338 L2235.24 160.402 Z" fill="#000000" fill-rule="nonzero" fill-opacity="1" /></svg>
