<?xml version="1.0" encoding="utf-8"?>
<svg xmlns="http://www.w3.org/2000/svg" xmlns:xlink="http://www.w3.org/1999/xlink" width="600" height="400" viewBox="0 0 2400 1600">
<defs>
  <clipPath id="clip200">
    <rect x="0" y="0" width="2400" height="1600"/>
  </clipPath>
</defs>
<path clip-path="url(#clip200)" d="M0 1600 L2400 1600 L2400 0 L0 0  Z" fill="#ffffff" fill-rule="evenodd" fill-opacity="1"/>
<defs>
  <clipPath id="clip201">
    <rect x="480" y="0" width="1681" height="1600"/>
  </clipPath>
</defs>
<path clip-path="url(#clip200)" d="M112.177 1486.45 L2352.76 1486.45 L2352.76 47.2441 L112.177 47.2441  Z" fill="#ffffff" fill-rule="evenodd" fill-opacity="1"/>
<defs>
  <clipPath id="clip202">
    <rect x="112" y="47" width="2242" height="1440"/>
  </clipPath>
</defs>
<polyline clip-path="url(#clip202)" style="stroke:#000000; stroke-linecap:round; stroke-linejoin:round; stroke-width:2; stroke-opacity:0.1; fill:none" points="128.363,1486.45 128.363,47.2441 "/>
<polyline clip-path="url(#clip202)" style="stroke:#000000; stroke-linecap:round; stroke-linejoin:round; stroke-width:2; stroke-opacity:0.1; fill:none" points="601.48,1486.45 601.48,47.2441 "/>
<polyline clip-path="url(#clip202)" style="stroke:#000000; stroke-linecap:round; stroke-linejoin:round; stroke-width:2; stroke-opacity:0.1; fill:none" points="1074.6,1486.45 1074.6,47.2441 "/>
<polyline clip-path="url(#clip202)" style="stroke:#000000; stroke-linecap:round; stroke-linejoin:round; stroke-width:2; stroke-opacity:0.1; fill:none" points="1547.71,1486.45 1547.71,47.2441 "/>
<polyline clip-path="url(#clip202)" style="stroke:#000000; stroke-linecap:round; stroke-linejoin:round; stroke-width:2; stroke-opacity:0.1; fill:none" points="2020.83,1486.45 2020.83,47.2441 "/>
<polyline clip-path="url(#clip200)" style="stroke:#000000; stroke-linecap:round; stroke-linejoin:round; stroke-width:4; stroke-opacity:1; fill:none" points="112.177,1486.45 2352.76,1486.45 "/>
<polyline clip-path="url(#clip200)" style="stroke:#000000; stroke-linecap:round; stroke-linejoin:round; stroke-width:4; stroke-opacity:1; fill:none" points="128.363,1486.45 128.363,1467.55 "/>
<polyline clip-path="url(#clip200)" style="stroke:#000000; stroke-linecap:round; stroke-linejoin:round; stroke-width:4; stroke-opacity:1; fill:none" points="601.48,1486.45 601.48,1467.55 "/>
<polyline clip-path="url(#clip200)" style="stroke:#000000; stroke-linecap:round; stroke-linejoin:round; stroke-width:4; stroke-opacity:1; fill:none" points="1074.6,1486.45 1074.6,1467.55 "/>
<polyline clip-path="url(#clip200)" style="stroke:#000000; stroke-linecap:round; stroke-linejoin:round; stroke-width:4; stroke-opacity:1; fill:none" points="1547.71,1486.45 1547.71,1467.55 "/>
<polyline clip-path="url(#clip200)" style="stroke:#000000; stroke-linecap:round; stroke-linejoin:round; stroke-width:4; stroke-opacity:1; fill:none" points="2020.83,1486.45 2020.83,1467.55 "/>
<path clip-path="url(#clip200)" d="M75.3889 1532.02 L105.065 1532.02 L105.065 1535.95 L75.3889 1535.95 L75.3889 1532.02 Z" fill="#000000" fill-rule="nonzero" fill-opacity="1" /><path clip-path="url(#clip200)" d="M115.967 1544.91 L123.606 1544.91 L123.606 1518.55 L115.296 1520.21 L115.296 1515.95 L123.56 1514.29 L128.236 1514.29 L128.236 1544.91 L135.875 1544.91 L135.875 1548.85 L115.967 1548.85 L115.967 1544.91 Z" fill="#000000" fill-rule="nonzero" fill-opacity="1" /><path clip-path="url(#clip200)" d="M145.319 1542.97 L150.203 1542.97 L150.203 1548.85 L145.319 1548.85 L145.319 1542.97 Z" fill="#000000" fill-rule="nonzero" fill-opacity="1" /><path clip-path="url(#clip200)" d="M160.435 1514.29 L178.791 1514.29 L178.791 1518.22 L164.717 1518.22 L164.717 1526.7 Q165.736 1526.35 166.754 1526.19 Q167.773 1526 168.791 1526 Q174.578 1526 177.958 1529.17 Q181.337 1532.34 181.337 1537.76 Q181.337 1543.34 177.865 1546.44 Q174.393 1549.52 168.074 1549.52 Q165.898 1549.52 163.629 1549.15 Q161.384 1548.78 158.976 1548.04 L158.976 1543.34 Q161.06 1544.47 163.282 1545.03 Q165.504 1545.58 167.981 1545.58 Q171.986 1545.58 174.324 1543.48 Q176.661 1541.37 176.661 1537.76 Q176.661 1534.15 174.324 1532.04 Q171.986 1529.94 167.981 1529.94 Q166.106 1529.94 164.231 1530.35 Q162.379 1530.77 160.435 1531.65 L160.435 1514.29 Z" fill="#000000" fill-rule="nonzero" fill-opacity="1" /><path clip-path="url(#clip200)" d="M548.008 1532.02 L577.683 1532.02 L577.683 1535.95 L548.008 1535.95 L548.008 1532.02 Z" fill="#000000" fill-rule="nonzero" fill-opacity="1" /><path clip-path="url(#clip200)" d="M588.586 1544.91 L596.225 1544.91 L596.225 1518.55 L587.915 1520.21 L587.915 1515.95 L596.179 1514.29 L600.855 1514.29 L600.855 1544.91 L608.493 1544.91 L608.493 1548.85 L588.586 1548.85 L588.586 1544.91 Z" fill="#000000" fill-rule="nonzero" fill-opacity="1" /><path clip-path="url(#clip200)" d="M617.938 1542.97 L622.822 1542.97 L622.822 1548.85 L617.938 1548.85 L617.938 1542.97 Z" fill="#000000" fill-rule="nonzero" fill-opacity="1" /><path clip-path="url(#clip200)" d="M643.007 1517.37 Q639.396 1517.37 637.567 1520.93 Q635.762 1524.47 635.762 1531.6 Q635.762 1538.71 637.567 1542.27 Q639.396 1545.82 643.007 1545.82 Q646.641 1545.82 648.447 1542.27 Q650.276 1538.71 650.276 1531.6 Q650.276 1524.47 648.447 1520.93 Q646.641 1517.37 643.007 1517.37 M643.007 1513.66 Q648.817 1513.66 651.873 1518.27 Q654.952 1522.85 654.952 1531.6 Q654.952 1540.33 651.873 1544.94 Q648.817 1549.52 643.007 1549.52 Q637.197 1549.52 634.118 1544.94 Q631.063 1540.33 631.063 1531.6 Q631.063 1522.85 634.118 1518.27 Q637.197 1513.66 643.007 1513.66 Z" fill="#000000" fill-rule="nonzero" fill-opacity="1" /><path clip-path="url(#clip200)" d="M1021.62 1532.02 L1051.3 1532.02 L1051.3 1535.95 L1021.62 1535.95 L1021.62 1532.02 Z" fill="#000000" fill-rule="nonzero" fill-opacity="1" /><path clip-path="url(#clip200)" d="M1071.39 1517.37 Q1067.78 1517.37 1065.95 1520.93 Q1064.14 1524.47 1064.14 1531.6 Q1064.14 1538.71 1065.95 1542.27 Q1067.78 1545.82 1071.39 1545.82 Q1075.02 1545.82 1076.83 1542.27 Q1078.66 1538.71 1078.66 1531.6 Q1078.66 1524.47 1076.83 1520.93 Q1075.02 1517.37 1071.39 1517.37 M1071.39 1513.66 Q1077.2 1513.66 1080.26 1518.27 Q1083.33 1522.85 1083.33 1531.6 Q1083.33 1540.33 1080.26 1544.94 Q1077.2 1549.52 1071.39 1549.52 Q1065.58 1549.52 1062.5 1544.94 Q1059.45 1540.33 1059.45 1531.6 Q1059.45 1522.85 1062.5 1518.27 Q1065.58 1513.66 1071.39 1513.66 Z" fill="#000000" fill-rule="nonzero" fill-opacity="1" /><path clip-path="url(#clip200)" d="M1091.55 1542.97 L1096.44 1542.97 L1096.44 1548.85 L1091.55 1548.85 L1091.55 1542.97 Z" fill="#000000" fill-rule="nonzero" fill-opacity="1" /><path clip-path="url(#clip200)" d="M1106.67 1514.29 L1125.02 1514.29 L1125.02 1518.22 L1110.95 1518.22 L1110.95 1526.7 Q1111.97 1526.35 1112.99 1526.19 Q1114.01 1526 1115.02 1526 Q1120.81 1526 1124.19 1529.17 Q1127.57 1532.34 1127.57 1537.76 Q1127.57 1543.34 1124.1 1546.44 Q1120.63 1549.52 1114.31 1549.52 Q1112.13 1549.52 1109.86 1549.15 Q1107.62 1548.78 1105.21 1548.04 L1105.21 1543.34 Q1107.29 1544.47 1109.51 1545.03 Q1111.74 1545.58 1114.21 1545.58 Q1118.22 1545.58 1120.56 1543.48 Q1122.89 1541.37 1122.89 1537.76 Q1122.89 1534.15 1120.56 1532.04 Q1118.22 1529.94 1114.21 1529.94 Q1112.34 1529.94 1110.46 1530.35 Q1108.61 1530.77 1106.67 1531.65 L1106.67 1514.29 Z" fill="#000000" fill-rule="nonzero" fill-opacity="1" /><path clip-path="url(#clip200)" d="M1525.1 1517.37 Q1521.49 1517.37 1519.66 1520.93 Q1517.85 1524.47 1517.85 1531.6 Q1517.85 1538.71 1519.66 1542.27 Q1521.49 1545.82 1525.1 1545.82 Q1528.73 1545.82 1530.54 1542.27 Q1532.37 1538.71 1532.37 1531.6 Q1532.37 1524.47 1530.54 1520.93 Q1528.73 1517.37 1525.1 1517.37 M1525.1 1513.66 Q1530.91 1513.66 1533.96 1518.27 Q1537.04 1522.85 1537.04 1531.6 Q1537.04 1540.33 1533.96 1544.94 Q1530.91 1549.52 1525.1 1549.52 Q1519.29 1549.52 1516.21 1544.94 Q1513.15 1540.33 1513.15 1531.6 Q1513.15 1522.85 1516.21 1518.27 Q1519.29 1513.66 1525.1 1513.66 Z" fill="#000000" fill-rule="nonzero" fill-opacity="1" /><path clip-path="url(#clip200)" d="M1545.26 1542.97 L1550.14 1542.97 L1550.14 1548.85 L1545.26 1548.85 L1545.26 1542.97 Z" fill="#000000" fill-rule="nonzero" fill-opacity="1" /><path clip-path="url(#clip200)" d="M1570.33 1517.37 Q1566.72 1517.37 1564.89 1520.93 Q1563.08 1524.47 1563.08 1531.6 Q1563.08 1538.71 1564.89 1542.27 Q1566.72 1545.82 1570.33 1545.82 Q1573.96 1545.82 1575.77 1542.27 Q1577.6 1538.71 1577.6 1531.6 Q1577.6 1524.47 1575.77 1520.93 Q1573.96 1517.37 1570.33 1517.37 M1570.33 1513.66 Q1576.14 1513.66 1579.19 1518.27 Q1582.27 1522.85 1582.27 1531.6 Q1582.27 1540.33 1579.19 1544.94 Q1576.14 1549.52 1570.33 1549.52 Q1564.52 1549.52 1561.44 1544.94 Q1558.38 1540.33 1558.38 1531.6 Q1558.38 1522.85 1561.44 1518.27 Q1564.52 1513.66 1570.33 1513.66 Z" fill="#000000" fill-rule="nonzero" fill-opacity="1" /><path clip-path="url(#clip200)" d="M1998.71 1517.37 Q1995.1 1517.37 1993.27 1520.93 Q1991.47 1524.47 1991.47 1531.6 Q1991.47 1538.71 1993.27 1542.27 Q1995.1 1545.82 1998.71 1545.82 Q2002.35 1545.82 2004.15 1542.27 Q2005.98 1538.71 2005.98 1531.6 Q2005.98 1524.47 2004.15 1520.93 Q2002.35 1517.37 1998.71 1517.37 M1998.71 1513.66 Q2004.52 1513.66 2007.58 1518.27 Q2010.66 1522.85 2010.66 1531.6 Q2010.66 1540.33 2007.58 1544.94 Q2004.52 1549.52 1998.71 1549.52 Q1992.9 1549.52 1989.82 1544.94 Q1986.77 1540.33 1986.77 1531.6 Q1986.77 1522.85 1989.82 1518.27 Q1992.9 1513.66 1998.71 1513.66 Z" fill="#000000" fill-rule="nonzero" fill-opacity="1" /><path clip-path="url(#clip200)" d="M2018.87 1542.97 L2023.76 1542.97 L2023.76 1548.85 L2018.87 1548.85 L2018.87 1542.97 Z" fill="#000000" fill-rule="nonzero" fill-opacity="1" /><path clip-path="url(#clip200)" d="M2033.99 1514.29 L2052.35 1514.29 L2052.35 1518.22 L2038.27 1518.22 L2038.27 1526.7 Q2039.29 1526.35 2040.31 1526.19 Q2041.33 1526 2042.35 1526 Q2048.13 1526 2051.51 1529.17 Q2054.89 1532.34 2054.89 1537.76 Q2054.89 1543.34 2051.42 1546.44 Q2047.95 1549.52 2041.63 1549.52 Q2039.45 1549.52 2037.18 1549.15 Q2034.94 1548.78 2032.53 1548.04 L2032.53 1543.34 Q2034.61 1544.47 2036.84 1545.03 Q2039.06 1545.58 2041.53 1545.58 Q2045.54 1545.58 2047.88 1543.48 Q2050.22 1541.37 2050.22 1537.76 Q2050.22 1534.15 2047.88 1532.04 Q2045.54 1529.94 2041.53 1529.94 Q2039.66 1529.94 2037.78 1530.35 Q2035.93 1530.77 2033.99 1531.65 L2033.99 1514.29 Z" fill="#000000" fill-rule="nonzero" fill-opacity="1" /><polyline clip-path="url(#clip202)" style="stroke:#000000; stroke-linecap:round; stroke-linejoin:round; stroke-width:2; stroke-opacity:0.1; fill:none" points="112.177,1288.27 2352.76,1288.27 "/>
<polyline clip-path="url(#clip202)" style="stroke:#000000; stroke-linecap:round; stroke-linejoin:round; stroke-width:2; stroke-opacity:0.1; fill:none" points="112.177,1086.51 2352.76,1086.51 "/>
<polyline clip-path="url(#clip202)" style="stroke:#000000; stroke-linecap:round; stroke-linejoin:round; stroke-width:2; stroke-opacity:0.1; fill:none" points="112.177,884.744 2352.76,884.744 "/>
<polyline clip-path="url(#clip202)" style="stroke:#000000; stroke-linecap:round; stroke-linejoin:round; stroke-width:2; stroke-opacity:0.1; fill:none" points="112.177,682.983 2352.76,682.983 "/>
<polyline clip-path="url(#clip202)" style="stroke:#000000; stroke-linecap:round; stroke-linejoin:round; stroke-width:2; stroke-opacity:0.1; fill:none" points="112.177,481.223 2352.76,481.223 "/>
<polyline clip-path="url(#clip202)" style="stroke:#000000; stroke-linecap:round; stroke-linejoin:round; stroke-width:2; stroke-opacity:0.1; fill:none" points="112.177,279.462 2352.76,279.462 "/>
<polyline clip-path="url(#clip202)" style="stroke:#000000; stroke-linecap:round; stroke-linejoin:round; stroke-width:2; stroke-opacity:0.1; fill:none" points="112.177,77.7011 2352.76,77.7011 "/>
<polyline clip-path="url(#clip200)" style="stroke:#000000; stroke-linecap:round; stroke-linejoin:round; stroke-width:4; stroke-opacity:1; fill:none" points="112.177,1486.45 112.177,47.2441 "/>
<polyline clip-path="url(#clip200)" style="stroke:#000000; stroke-linecap:round; stroke-linejoin:round; stroke-width:4; stroke-opacity:1; fill:none" points="112.177,1288.27 131.075,1288.27 "/>
<polyline clip-path="url(#clip200)" style="stroke:#000000; stroke-linecap:round; stroke-linejoin:round; stroke-width:4; stroke-opacity:1; fill:none" points="112.177,1086.51 131.075,1086.51 "/>
<polyline clip-path="url(#clip200)" style="stroke:#000000; stroke-linecap:round; stroke-linejoin:round; stroke-width:4; stroke-opacity:1; fill:none" points="112.177,884.744 131.075,884.744 "/>
<polyline clip-path="url(#clip200)" style="stroke:#000000; stroke-linecap:round; stroke-linejoin:round; stroke-width:4; stroke-opacity:1; fill:none" points="112.177,682.983 131.075,682.983 "/>
<polyline clip-path="url(#clip200)" style="stroke:#000000; stroke-linecap:round; stroke-linejoin:round; stroke-width:4; stroke-opacity:1; fill:none" points="112.177,481.223 131.075,481.223 "/>
<polyline clip-path="url(#clip200)" style="stroke:#000000; stroke-linecap:round; stroke-linejoin:round; stroke-width:4; stroke-opacity:1; fill:none" points="112.177,279.462 131.075,279.462 "/>
<polyline clip-path="url(#clip200)" style="stroke:#000000; stroke-linecap:round; stroke-linejoin:round; stroke-width:4; stroke-opacity:1; fill:none" points="112.177,77.7011 131.075,77.7011 "/>
<path clip-path="url(#clip200)" d="M56.2699 1301.61 L63.9087 1301.61 L63.9087 1275.25 L55.5986 1276.91 L55.5986 1272.65 L63.8624 1270.99 L68.5383 1270.99 L68.5383 1301.61 L76.1772 1301.61 L76.1772 1305.55 L56.2699 1305.55 L56.2699 1301.61 Z" fill="#000000" fill-rule="nonzero" fill-opacity="1" /><path clip-path="url(#clip200)" d="M59.8578 1099.85 L76.1772 1099.85 L76.1772 1103.79 L54.2328 1103.79 L54.2328 1099.85 Q56.8949 1097.1 61.4782 1092.47 Q66.0846 1087.81 67.2652 1086.47 Q69.5105 1083.95 70.3902 1082.21 Q71.2929 1080.45 71.2929 1078.76 Q71.2929 1076.01 69.3485 1074.27 Q67.4272 1072.54 64.3254 1072.54 Q62.1263 1072.54 59.6726 1073.3 Q57.2421 1074.06 54.4643 1075.61 L54.4643 1070.89 Q57.2884 1069.76 59.7421 1069.18 Q62.1958 1068.6 64.2328 1068.6 Q69.6031 1068.6 72.7976 1071.29 Q75.992 1073.97 75.992 1078.46 Q75.992 1080.59 75.1818 1082.51 Q74.3948 1084.41 72.2883 1087 Q71.7096 1087.67 68.6078 1090.89 Q65.5059 1094.09 59.8578 1099.85 Z" fill="#000000" fill-rule="nonzero" fill-opacity="1" /><path clip-path="url(#clip200)" d="M69.0476 883.39 Q72.404 884.108 74.279 886.376 Q76.1772 888.645 76.1772 891.978 Q76.1772 897.094 72.6587 899.895 Q69.1402 902.696 62.6587 902.696 Q60.4828 902.696 58.168 902.256 Q55.8764 901.839 53.4227 900.983 L53.4227 896.469 Q55.3671 897.603 57.6819 898.182 Q59.9967 898.76 62.5198 898.76 Q66.918 898.76 69.2096 897.024 Q71.5244 895.288 71.5244 891.978 Q71.5244 888.922 69.3717 887.21 Q67.242 885.473 63.4226 885.473 L59.3949 885.473 L59.3949 881.631 L63.6078 881.631 Q67.0569 881.631 68.8855 880.265 Q70.7142 878.876 70.7142 876.284 Q70.7142 873.622 68.8161 872.21 Q66.9411 870.774 63.4226 870.774 Q61.5013 870.774 59.3023 871.191 Q57.1032 871.608 54.4643 872.487 L54.4643 868.321 Q57.1264 867.58 59.4412 867.21 Q61.7791 866.839 63.8393 866.839 Q69.1633 866.839 72.2652 869.27 Q75.367 871.677 75.367 875.798 Q75.367 878.668 73.7235 880.659 Q72.08 882.626 69.0476 883.39 Z" fill="#000000" fill-rule="nonzero" fill-opacity="1" /><path clip-path="url(#clip200)" d="M66.5939 669.778 L54.7884 688.227 L66.5939 688.227 L66.5939 669.778 M65.367 665.703 L71.2466 665.703 L71.2466 688.227 L76.1772 688.227 L76.1772 692.115 L71.2466 692.115 L71.2466 700.263 L66.5939 700.263 L66.5939 692.115 L50.9921 692.115 L50.9921 687.602 L65.367 665.703 Z" fill="#000000" fill-rule="nonzero" fill-opacity="1" /><path clip-path="url(#clip200)" d="M55.2745 463.943 L73.6309 463.943 L73.6309 467.878 L59.5569 467.878 L59.5569 476.35 Q60.5754 476.003 61.5939 475.841 Q62.6124 475.656 63.6309 475.656 Q69.418 475.656 72.7976 478.827 Q76.1772 481.998 76.1772 487.415 Q76.1772 492.993 72.705 496.095 Q69.2328 499.174 62.9134 499.174 Q60.7374 499.174 58.4689 498.804 Q56.2236 498.433 53.8162 497.693 L53.8162 492.993 Q55.8995 494.128 58.1217 494.683 Q60.3439 495.239 62.8208 495.239 Q66.8254 495.239 69.1633 493.132 Q71.5013 491.026 71.5013 487.415 Q71.5013 483.804 69.1633 481.697 Q66.8254 479.591 62.8208 479.591 Q60.9458 479.591 59.0708 480.007 Q57.2189 480.424 55.2745 481.304 L55.2745 463.943 Z" fill="#000000" fill-rule="nonzero" fill-opacity="1" /><path clip-path="url(#clip200)" d="M64.6495 277.598 Q61.5013 277.598 59.6495 279.751 Q57.8208 281.904 57.8208 285.654 Q57.8208 289.381 59.6495 291.557 Q61.5013 293.71 64.6495 293.71 Q67.7976 293.71 69.6263 291.557 Q71.4781 289.381 71.4781 285.654 Q71.4781 281.904 69.6263 279.751 Q67.7976 277.598 64.6495 277.598 M73.9318 262.946 L73.9318 267.205 Q72.1726 266.372 70.367 265.932 Q68.5846 265.492 66.8254 265.492 Q62.1958 265.492 59.7421 268.617 Q57.3115 271.742 56.9643 278.061 Q58.33 276.048 60.3902 274.983 Q62.4504 273.895 64.9272 273.895 Q70.1355 273.895 73.1448 277.066 Q76.1772 280.214 76.1772 285.654 Q76.1772 290.978 73.029 294.196 Q69.8809 297.413 64.6495 297.413 Q58.6541 297.413 55.4828 292.83 Q52.3116 288.223 52.3116 279.497 Q52.3116 271.302 56.2004 266.441 Q60.0893 261.557 66.6402 261.557 Q68.3994 261.557 70.1818 261.904 Q71.9874 262.251 73.9318 262.946 Z" fill="#000000" fill-rule="nonzero" fill-opacity="1" /><path clip-path="url(#clip200)" d="M53.9551 60.4211 L76.1772 60.4211 L76.1772 62.4119 L63.6309 94.9811 L58.7467 94.9811 L70.5522 64.3563 L53.9551 64.3563 L53.9551 60.4211 Z" fill="#000000" fill-rule="nonzero" fill-opacity="1" /><circle clip-path="url(#clip202)" cx="2289.34" cy="1327.5" r="14.4" fill="#808080" fill-rule="evenodd" fill-opacity="1" stroke="#000000" stroke-opacity="1" stroke-width="3.2"/>
<circle clip-path="url(#clip202)" cx="175.59" cy="87.9763" r="14.4" fill="#808080" fill-rule="evenodd" fill-opacity="1" stroke="#000000" stroke-opacity="1" stroke-width="3.2"/>
<circle clip-path="url(#clip202)" cx="1564.99" cy="1445.72" r="14.4" fill="#808080" fill-rule="evenodd" fill-opacity="1" stroke="#000000" stroke-opacity="1" stroke-width="3.2"/>
<circle clip-path="url(#clip202)" cx="1447.51" cy="1438.37" r="14.4" fill="#808080" fill-rule="evenodd" fill-opacity="1" stroke="#000000" stroke-opacity="1" stroke-width="3.2"/>
<path clip-path="url(#clip200)" d="M2293.64 1334.93 Q2284.6 1334.93 2281.12 1337 Q2277.64 1339.07 2277.64 1344.05 Q2277.64 1348.02 2280.23 1350.37 Q2282.86 1352.68 2287.36 1352.68 Q2293.56 1352.68 2297.28 1348.3 Q2301.05 1343.89 2301.05 1336.59 L2301.05 1334.93 L2293.64 1334.93 M2308.5 1331.86 L2308.5 1357.74 L2301.05 1357.74 L2301.05 1350.85 Q2298.5 1354.99 2294.69 1356.97 Q2290.88 1358.92 2285.37 1358.92 Q2278.41 1358.92 2274.27 1355.03 Q2270.18 1351.1 2270.18 1344.53 Q2270.18 1336.88 2275.29 1332.99 Q2280.43 1329.1 2290.6 1329.1 L2301.05 1329.1 L2301.05 1328.37 Q2301.05 1323.23 2297.65 1320.43 Q2294.29 1317.6 2288.17 1317.6 Q2284.28 1317.6 2280.59 1318.53 Q2276.91 1319.46 2273.5 1321.32 L2273.5 1314.44 Q2277.6 1312.86 2281.44 1312.09 Q2285.29 1311.28 2288.94 1311.28 Q2298.78 1311.28 2303.64 1316.38 Q2308.5 1321.48 2308.5 1331.86 Z" fill="#000000" fill-rule="nonzero" fill-opacity="1" /><path clip-path="url(#clip200)" d="M188.148 95.5717 Q188.148 87.3484 184.745 82.6898 Q181.383 77.9908 175.468 77.9908 Q169.554 77.9908 166.151 82.6898 Q162.789 87.3484 162.789 95.5717 Q162.789 103.795 166.151 108.494 Q169.554 113.153 175.468 113.153 Q181.383 113.153 184.745 108.494 Q188.148 103.795 188.148 95.5717 M162.789 79.7327 Q165.138 75.6818 168.703 73.7373 Q172.309 71.7524 177.291 71.7524 Q185.555 71.7524 190.7 78.3149 Q195.885 84.8773 195.885 95.5717 Q195.885 106.266 190.7 112.829 Q185.555 119.391 177.291 119.391 Q172.309 119.391 168.703 117.447 Q165.138 115.462 162.789 111.411 L162.789 118.216 L155.295 118.216 L155.295 55.1842 L162.789 55.1842 L162.789 79.7327 Z" fill="#000000" fill-rule="nonzero" fill-opacity="1" /><path clip-path="url(#clip200)" d="M1582.94 1432.33 L1582.94 1439.3 Q1579.78 1437.55 1576.58 1436.7 Q1573.42 1435.81 1570.18 1435.81 Q1562.93 1435.81 1558.91 1440.43 Q1554.9 1445.01 1554.9 1453.31 Q1554.9 1461.62 1558.91 1466.23 Q1562.93 1470.81 1570.18 1470.81 Q1573.42 1470.81 1576.58 1469.96 Q1579.78 1469.07 1582.94 1467.33 L1582.94 1474.21 Q1579.82 1475.67 1576.46 1476.4 Q1573.13 1477.13 1569.37 1477.13 Q1559.12 1477.13 1553.08 1470.69 Q1547.05 1464.25 1547.05 1453.31 Q1547.05 1442.21 1553.12 1435.85 Q1559.24 1429.49 1569.85 1429.49 Q1573.3 1429.49 1576.58 1430.22 Q1579.86 1430.91 1582.94 1432.33 Z" fill="#000000" fill-rule="nonzero" fill-opacity="1" /><path clip-path="url(#clip200)" d="M1460.33 1430.12 L1460.33 1405.57 L1467.78 1405.57 L1467.78 1468.61 L1460.33 1468.61 L1460.33 1461.8 Q1457.98 1465.85 1454.37 1467.84 Q1450.81 1469.78 1445.78 1469.78 Q1437.56 1469.78 1432.38 1463.22 Q1427.23 1456.66 1427.23 1445.96 Q1427.23 1435.27 1432.38 1428.71 Q1437.56 1422.14 1445.78 1422.14 Q1450.81 1422.14 1454.37 1424.13 Q1457.98 1426.07 1460.33 1430.12 M1434.93 1445.96 Q1434.93 1454.19 1438.29 1458.88 Q1441.69 1463.54 1447.61 1463.54 Q1453.52 1463.54 1456.92 1458.88 Q1460.33 1454.19 1460.33 1445.96 Q1460.33 1437.74 1456.92 1433.08 Q1453.52 1428.38 1447.61 1428.38 Q1441.69 1428.38 1438.29 1433.08 Q1434.93 1437.74 1434.93 1445.96 Z" fill="#000000" fill-rule="nonzero" fill-opacity="1" /><path clip-path="url(#clip200)" d="M2001.58 198.898 L2278.07 198.898 L2278.07 95.2176 L2001.58 95.2176  Z" fill="#ffffff" fill-rule="evenodd" fill-opacity="1"/>
<polyline clip-path="url(#clip200)" style="stroke:#000000; stroke-linecap:round; stroke-linejoin:round; stroke-width:4; stroke-opacity:1; fill:none" points="2001.58,198.898 2278.07,198.898 2278.07,95.2176 2001.58,95.2176 2001.58,198.898 "/>
<circle clip-path="url(#clip200)" cx="2101.16" cy="147.058" r="20.48" fill="#808080" fill-rule="evenodd" fill-opacity="1" stroke="#000000" stroke-opacity="1" stroke-width="4.55111"/>
<path clip-path="url(#clip200)" d="M2214.59 166.745 Q2212.78 171.375 2211.07 172.787 Q2209.36 174.199 2206.49 174.199 L2203.08 174.199 L2203.08 170.634 L2205.58 170.634 Q2207.34 170.634 2208.31 169.8 Q2209.29 168.967 2210.47 165.865 L2211.23 163.921 L2200.74 138.412 L2205.26 138.412 L2213.36 158.689 L2221.46 138.412 L2225.98 138.412 L2214.59 166.745 Z" fill="#000000" fill-rule="nonzero" fill-opacity="1" /><path clip-path="url(#clip200)" d="M2233.27 160.402 L2240.91 160.402 L2240.91 134.037 L2232.6 135.703 L2232.6 131.444 L2240.86 129.778 L2245.54 129.778 L2245.54 160.402 L2253.17 160.402 L2253.17 164.338 L2233.27 164.338 L2233.27 160.402 Z" fill="#000000" fill-rule="nonzero" fill-opacity="1" /></svg>
