<?xml version="1.0" encoding="utf-8"?>
<svg xmlns="http://www.w3.org/2000/svg" xmlns:xlink="http://www.w3.org/1999/xlink" width="600" height="400" viewBox="0 0 2400 1600">
<defs>
  <clipPath id="clip470">
    <rect x="0" y="0" width="2400" height="1600"/>
  </clipPath>
</defs>
<path clip-path="url(#clip470)" d="M0 1600 L2400 1600 L2400 0 L0 0  Z" fill="#ffffff" fill-rule="evenodd" fill-opacity="1"/>
<defs>
  <clipPath id="clip471">
    <rect x="480" y="0" width="1681" height="1600"/>
  </clipPath>
</defs>
<path clip-path="url(#clip470)" d="M156.112 1486.45 L2352.76 1486.45 L2352.76 47.2441 L156.112 47.2441  Z" fill="#ffffff" fill-rule="evenodd" fill-opacity="1"/>
<defs>
  <clipPath id="clip472">
    <rect x="156" y="47" width="2198" height="1440"/>
  </clipPath>
</defs>
<polyline clip-path="url(#clip472)" style="stroke:#000000; stroke-linecap:round; stroke-linejoin:round; stroke-width:2; stroke-opacity:0.1; fill:none" points="287.634,1486.45 287.634,47.2441 "/>
<polyline clip-path="url(#clip472)" style="stroke:#000000; stroke-linecap:round; stroke-linejoin:round; stroke-width:2; stroke-opacity:0.1; fill:none" points="835.425,1486.45 835.425,47.2441 "/>
<polyline clip-path="url(#clip472)" style="stroke:#000000; stroke-linecap:round; stroke-linejoin:round; stroke-width:2; stroke-opacity:0.1; fill:none" points="1383.22,1486.45 1383.22,47.2441 "/>
<polyline clip-path="url(#clip472)" style="stroke:#000000; stroke-linecap:round; stroke-linejoin:round; stroke-width:2; stroke-opacity:0.1; fill:none" points="1931.01,1486.45 1931.01,47.2441 "/>
<polyline clip-path="url(#clip470)" style="stroke:#000000; stroke-linecap:round; stroke-linejoin:round; stroke-width:4; stroke-opacity:1; fill:none" points="156.112,1486.45 2352.76,1486.45 "/>
<polyline clip-path="url(#clip470)" style="stroke:#000000; stroke-linecap:round; stroke-linejoin:round; stroke-width:4; stroke-opacity:1; fill:none" points="287.634,1486.45 287.634,1467.55 "/>
<polyline clip-path="url(#clip470)" style="stroke:#000000; stroke-linecap:round; stroke-linejoin:round; stroke-width:4; stroke-opacity:1; fill:none" points="835.425,1486.45 835.425,1467.55 "/>
<polyline clip-path="url(#clip470)" style="stroke:#000000; stroke-linecap:round; stroke-linejoin:round; stroke-width:4; stroke-opacity:1; fill:none" points="1383.22,1486.45 1383.22,1467.55 "/>
<polyline clip-path="url(#clip470)" style="stroke:#000000; stroke-linecap:round; stroke-linejoin:round; stroke-width:4; stroke-opacity:1; fill:none" points="1931.01,1486.45 1931.01,1467.55 "/>
<path clip-path="url(#clip470)" d="M233.919 1532.02 L263.595 1532.02 L263.595 1535.95 L233.919 1535.95 L233.919 1532.02 Z" fill="#000000" fill-rule="nonzero" fill-opacity="1" /><path clip-path="url(#clip470)" d="M283.687 1517.37 Q280.076 1517.37 278.247 1520.93 Q276.442 1524.47 276.442 1531.6 Q276.442 1538.71 278.247 1542.27 Q280.076 1545.82 283.687 1545.82 Q287.321 1545.82 289.127 1542.27 Q290.956 1538.71 290.956 1531.6 Q290.956 1524.47 289.127 1520.93 Q287.321 1517.37 283.687 1517.37 M283.687 1513.66 Q289.497 1513.66 292.553 1518.27 Q295.631 1522.85 295.631 1531.6 Q295.631 1540.33 292.553 1544.94 Q289.497 1549.52 283.687 1549.52 Q277.877 1549.52 274.798 1544.94 Q271.743 1540.33 271.743 1531.6 Q271.743 1522.85 274.798 1518.27 Q277.877 1513.66 283.687 1513.66 Z" fill="#000000" fill-rule="nonzero" fill-opacity="1" /><path clip-path="url(#clip470)" d="M303.849 1542.97 L308.733 1542.97 L308.733 1548.85 L303.849 1548.85 L303.849 1542.97 Z" fill="#000000" fill-rule="nonzero" fill-opacity="1" /><path clip-path="url(#clip470)" d="M331.766 1518.36 L319.96 1536.81 L331.766 1536.81 L331.766 1518.36 M330.539 1514.29 L336.418 1514.29 L336.418 1536.81 L341.349 1536.81 L341.349 1540.7 L336.418 1540.7 L336.418 1548.85 L331.766 1548.85 L331.766 1540.7 L316.164 1540.7 L316.164 1536.19 L330.539 1514.29 Z" fill="#000000" fill-rule="nonzero" fill-opacity="1" /><path clip-path="url(#clip470)" d="M782.751 1532.02 L812.427 1532.02 L812.427 1535.95 L782.751 1535.95 L782.751 1532.02 Z" fill="#000000" fill-rule="nonzero" fill-opacity="1" /><path clip-path="url(#clip470)" d="M832.52 1517.37 Q828.909 1517.37 827.08 1520.93 Q825.274 1524.47 825.274 1531.6 Q825.274 1538.71 827.08 1542.27 Q828.909 1545.82 832.52 1545.82 Q836.154 1545.82 837.96 1542.27 Q839.788 1538.71 839.788 1531.6 Q839.788 1524.47 837.96 1520.93 Q836.154 1517.37 832.52 1517.37 M832.52 1513.66 Q838.33 1513.66 841.385 1518.27 Q844.464 1522.85 844.464 1531.6 Q844.464 1540.33 841.385 1544.94 Q838.33 1549.52 832.52 1549.52 Q826.71 1549.52 823.631 1544.94 Q820.575 1540.33 820.575 1531.6 Q820.575 1522.85 823.631 1518.27 Q826.71 1513.66 832.52 1513.66 Z" fill="#000000" fill-rule="nonzero" fill-opacity="1" /><path clip-path="url(#clip470)" d="M852.682 1542.97 L857.566 1542.97 L857.566 1548.85 L852.682 1548.85 L852.682 1542.97 Z" fill="#000000" fill-rule="nonzero" fill-opacity="1" /><path clip-path="url(#clip470)" d="M871.779 1544.91 L888.098 1544.91 L888.098 1548.85 L866.154 1548.85 L866.154 1544.91 Q868.816 1542.16 873.399 1537.53 Q878.006 1532.88 879.186 1531.53 Q881.432 1529.01 882.311 1527.27 Q883.214 1525.51 883.214 1523.82 Q883.214 1521.07 881.269 1519.33 Q879.348 1517.6 876.246 1517.6 Q874.047 1517.6 871.594 1518.36 Q869.163 1519.13 866.385 1520.68 L866.385 1515.95 Q869.209 1514.82 871.663 1514.24 Q874.117 1513.66 876.154 1513.66 Q881.524 1513.66 884.719 1516.35 Q887.913 1519.03 887.913 1523.52 Q887.913 1525.65 887.103 1527.57 Q886.316 1529.47 884.209 1532.07 Q883.631 1532.74 880.529 1535.95 Q877.427 1539.15 871.779 1544.91 Z" fill="#000000" fill-rule="nonzero" fill-opacity="1" /><path clip-path="url(#clip470)" d="M1360.6 1517.37 Q1356.99 1517.37 1355.16 1520.93 Q1353.35 1524.47 1353.35 1531.6 Q1353.35 1538.71 1355.16 1542.27 Q1356.99 1545.82 1360.6 1545.82 Q1364.23 1545.82 1366.04 1542.27 Q1367.87 1538.71 1367.87 1531.6 Q1367.87 1524.47 1366.04 1520.93 Q1364.23 1517.37 1360.6 1517.37 M1360.6 1513.66 Q1366.41 1513.66 1369.47 1518.27 Q1372.54 1522.85 1372.54 1531.6 Q1372.54 1540.33 1369.47 1544.94 Q1366.41 1549.52 1360.6 1549.52 Q1354.79 1549.52 1351.71 1544.94 Q1348.66 1540.33 1348.66 1531.6 Q1348.66 1522.85 1351.71 1518.27 Q1354.79 1513.66 1360.6 1513.66 Z" fill="#000000" fill-rule="nonzero" fill-opacity="1" /><path clip-path="url(#clip470)" d="M1380.76 1542.97 L1385.65 1542.97 L1385.65 1548.85 L1380.76 1548.85 L1380.76 1542.97 Z" fill="#000000" fill-rule="nonzero" fill-opacity="1" /><path clip-path="url(#clip470)" d="M1405.83 1517.37 Q1402.22 1517.37 1400.39 1520.93 Q1398.59 1524.47 1398.59 1531.6 Q1398.59 1538.71 1400.39 1542.27 Q1402.22 1545.82 1405.83 1545.82 Q1409.47 1545.82 1411.27 1542.27 Q1413.1 1538.71 1413.1 1531.6 Q1413.1 1524.47 1411.27 1520.93 Q1409.47 1517.37 1405.83 1517.37 M1405.83 1513.66 Q1411.64 1513.66 1414.7 1518.27 Q1417.78 1522.85 1417.78 1531.6 Q1417.78 1540.33 1414.7 1544.94 Q1411.64 1549.52 1405.83 1549.52 Q1400.02 1549.52 1396.94 1544.94 Q1393.89 1540.33 1393.89 1531.6 Q1393.89 1522.85 1396.94 1518.27 Q1400.02 1513.66 1405.83 1513.66 Z" fill="#000000" fill-rule="nonzero" fill-opacity="1" /><path clip-path="url(#clip470)" d="M1909.19 1517.37 Q1905.58 1517.37 1903.75 1520.93 Q1901.94 1524.47 1901.94 1531.6 Q1901.94 1538.71 1903.75 1542.27 Q1905.58 1545.82 1909.19 1545.82 Q1912.82 1545.82 1914.63 1542.27 Q1916.46 1538.71 1916.46 1531.6 Q1916.46 1524.47 1914.63 1520.93 Q1912.82 1517.37 1909.19 1517.37 M1909.19 1513.66 Q1915 1513.66 1918.06 1518.27 Q1921.13 1522.85 1921.13 1531.6 Q1921.13 1540.33 1918.06 1544.94 Q1915 1549.52 1909.19 1549.52 Q1903.38 1549.52 1900.3 1544.94 Q1897.25 1540.33 1897.25 1531.6 Q1897.25 1522.85 1900.3 1518.27 Q1903.38 1513.66 1909.19 1513.66 Z" fill="#000000" fill-rule="nonzero" fill-opacity="1" /><path clip-path="url(#clip470)" d="M1929.35 1542.97 L1934.24 1542.97 L1934.24 1548.85 L1929.35 1548.85 L1929.35 1542.97 Z" fill="#000000" fill-rule="nonzero" fill-opacity="1" /><path clip-path="url(#clip470)" d="M1948.45 1544.91 L1964.77 1544.91 L1964.77 1548.85 L1942.82 1548.85 L1942.82 1544.91 Q1945.49 1542.16 1950.07 1537.53 Q1954.68 1532.88 1955.86 1531.53 Q1958.1 1529.01 1958.98 1527.27 Q1959.88 1525.51 1959.88 1523.82 Q1959.88 1521.07 1957.94 1519.33 Q1956.02 1517.6 1952.92 1517.6 Q1950.72 1517.6 1948.26 1518.36 Q1945.83 1519.13 1943.06 1520.68 L1943.06 1515.95 Q1945.88 1514.82 1948.33 1514.24 Q1950.79 1513.66 1952.82 1513.66 Q1958.19 1513.66 1961.39 1516.35 Q1964.58 1519.03 1964.58 1523.52 Q1964.58 1525.65 1963.77 1527.57 Q1962.99 1529.47 1960.88 1532.07 Q1960.3 1532.74 1957.2 1535.95 Q1954.1 1539.15 1948.45 1544.91 Z" fill="#000000" fill-rule="nonzero" fill-opacity="1" /><polyline clip-path="url(#clip472)" style="stroke:#000000; stroke-linecap:round; stroke-linejoin:round; stroke-width:2; stroke-opacity:0.1; fill:none" points="156.112,1452.1 2352.76,1452.1 "/>
<polyline clip-path="url(#clip472)" style="stroke:#000000; stroke-linecap:round; stroke-linejoin:round; stroke-width:2; stroke-opacity:0.1; fill:none" points="156.112,1004.53 2352.76,1004.53 "/>
<polyline clip-path="url(#clip472)" style="stroke:#000000; stroke-linecap:round; stroke-linejoin:round; stroke-width:2; stroke-opacity:0.1; fill:none" points="156.112,556.967 2352.76,556.967 "/>
<polyline clip-path="url(#clip472)" style="stroke:#000000; stroke-linecap:round; stroke-linejoin:round; stroke-width:2; stroke-opacity:0.1; fill:none" points="156.112,109.402 2352.76,109.402 "/>
<polyline clip-path="url(#clip470)" style="stroke:#000000; stroke-linecap:round; stroke-linejoin:round; stroke-width:4; stroke-opacity:1; fill:none" points="156.112,1486.45 156.112,47.2441 "/>
<polyline clip-path="url(#clip470)" style="stroke:#000000; stroke-linecap:round; stroke-linejoin:round; stroke-width:4; stroke-opacity:1; fill:none" points="156.112,1452.1 175.01,1452.1 "/>
<polyline clip-path="url(#clip470)" style="stroke:#000000; stroke-linecap:round; stroke-linejoin:round; stroke-width:4; stroke-opacity:1; fill:none" points="156.112,1004.53 175.01,1004.53 "/>
<polyline clip-path="url(#clip470)" style="stroke:#000000; stroke-linecap:round; stroke-linejoin:round; stroke-width:4; stroke-opacity:1; fill:none" points="156.112,556.967 175.01,556.967 "/>
<polyline clip-path="url(#clip470)" style="stroke:#000000; stroke-linecap:round; stroke-linejoin:round; stroke-width:4; stroke-opacity:1; fill:none" points="156.112,109.402 175.01,109.402 "/>
<path clip-path="url(#clip470)" d="M62.9365 1437.89 Q59.3254 1437.89 57.4967 1441.46 Q55.6912 1445 55.6912 1452.13 Q55.6912 1459.24 57.4967 1462.8 Q59.3254 1466.34 62.9365 1466.34 Q66.5707 1466.34 68.3763 1462.8 Q70.205 1459.24 70.205 1452.13 Q70.205 1445 68.3763 1441.46 Q66.5707 1437.89 62.9365 1437.89 M62.9365 1434.19 Q68.7467 1434.19 71.8022 1438.8 Q74.8809 1443.38 74.8809 1452.13 Q74.8809 1460.86 71.8022 1465.46 Q68.7467 1470.05 62.9365 1470.05 Q57.1264 1470.05 54.0477 1465.46 Q50.9921 1460.86 50.9921 1452.13 Q50.9921 1443.38 54.0477 1438.8 Q57.1264 1434.19 62.9365 1434.19 Z" fill="#000000" fill-rule="nonzero" fill-opacity="1" /><path clip-path="url(#clip470)" d="M83.0984 1463.5 L87.9827 1463.5 L87.9827 1469.38 L83.0984 1469.38 L83.0984 1463.5 Z" fill="#000000" fill-rule="nonzero" fill-opacity="1" /><path clip-path="url(#clip470)" d="M108.168 1437.89 Q104.557 1437.89 102.728 1441.46 Q100.922 1445 100.922 1452.13 Q100.922 1459.24 102.728 1462.8 Q104.557 1466.34 108.168 1466.34 Q111.802 1466.34 113.608 1462.8 Q115.436 1459.24 115.436 1452.13 Q115.436 1445 113.608 1441.46 Q111.802 1437.89 108.168 1437.89 M108.168 1434.19 Q113.978 1434.19 117.033 1438.8 Q120.112 1443.38 120.112 1452.13 Q120.112 1460.86 117.033 1465.46 Q113.978 1470.05 108.168 1470.05 Q102.358 1470.05 99.2789 1465.46 Q96.2234 1460.86 96.2234 1452.13 Q96.2234 1443.38 99.2789 1438.8 Q102.358 1434.19 108.168 1434.19 Z" fill="#000000" fill-rule="nonzero" fill-opacity="1" /><path clip-path="url(#clip470)" d="M64.1634 990.33 Q60.5523 990.33 58.7236 993.895 Q56.918 997.437 56.918 1004.57 Q56.918 1011.67 58.7236 1015.24 Q60.5523 1018.78 64.1634 1018.78 Q67.7976 1018.78 69.6031 1015.24 Q71.4318 1011.67 71.4318 1004.57 Q71.4318 997.437 69.6031 993.895 Q67.7976 990.33 64.1634 990.33 M64.1634 986.627 Q69.9735 986.627 73.029 991.233 Q76.1077 995.816 76.1077 1004.57 Q76.1077 1013.29 73.029 1017.9 Q69.9735 1022.48 64.1634 1022.48 Q58.3532 1022.48 55.2745 1017.9 Q52.219 1013.29 52.219 1004.57 Q52.219 995.816 55.2745 991.233 Q58.3532 986.627 64.1634 986.627 Z" fill="#000000" fill-rule="nonzero" fill-opacity="1" /><path clip-path="url(#clip470)" d="M84.3253 1015.93 L89.2095 1015.93 L89.2095 1021.81 L84.3253 1021.81 L84.3253 1015.93 Z" fill="#000000" fill-rule="nonzero" fill-opacity="1" /><path clip-path="url(#clip470)" d="M100.205 1017.88 L107.844 1017.88 L107.844 991.511 L99.5335 993.177 L99.5335 988.918 L107.797 987.252 L112.473 987.252 L112.473 1017.88 L120.112 1017.88 L120.112 1021.81 L100.205 1021.81 L100.205 1017.88 Z" fill="#000000" fill-rule="nonzero" fill-opacity="1" /><path clip-path="url(#clip470)" d="M64.5337 542.766 Q60.9226 542.766 59.0939 546.33 Q57.2884 549.872 57.2884 557.002 Q57.2884 564.108 59.0939 567.673 Q60.9226 571.215 64.5337 571.215 Q68.168 571.215 69.9735 567.673 Q71.8022 564.108 71.8022 557.002 Q71.8022 549.872 69.9735 546.33 Q68.168 542.766 64.5337 542.766 M64.5337 539.062 Q70.3439 539.062 73.3994 543.668 Q76.4781 548.252 76.4781 557.002 Q76.4781 565.729 73.3994 570.335 Q70.3439 574.918 64.5337 574.918 Q58.7236 574.918 55.6449 570.335 Q52.5893 565.729 52.5893 557.002 Q52.5893 548.252 55.6449 543.668 Q58.7236 539.062 64.5337 539.062 Z" fill="#000000" fill-rule="nonzero" fill-opacity="1" /><path clip-path="url(#clip470)" d="M84.6956 568.367 L89.5799 568.367 L89.5799 574.247 L84.6956 574.247 L84.6956 568.367 Z" fill="#000000" fill-rule="nonzero" fill-opacity="1" /><path clip-path="url(#clip470)" d="M103.793 570.312 L120.112 570.312 L120.112 574.247 L98.1678 574.247 L98.1678 570.312 Q100.83 567.557 105.413 562.928 Q110.02 558.275 111.2 556.932 Q113.445 554.409 114.325 552.673 Q115.228 550.914 115.228 549.224 Q115.228 546.469 113.283 544.733 Q111.362 542.997 108.26 542.997 Q106.061 542.997 103.608 543.761 Q101.177 544.525 98.3993 546.076 L98.3993 541.354 Q101.223 540.219 103.677 539.641 Q106.131 539.062 108.168 539.062 Q113.538 539.062 116.733 541.747 Q119.927 544.432 119.927 548.923 Q119.927 551.053 119.117 552.974 Q118.33 554.872 116.223 557.465 Q115.645 558.136 112.543 561.354 Q109.441 564.548 103.793 570.312 Z" fill="#000000" fill-rule="nonzero" fill-opacity="1" /><path clip-path="url(#clip470)" d="M63.5847 95.2011 Q59.9736 95.2011 58.1449 98.7659 Q56.3393 102.308 56.3393 109.437 Q56.3393 116.544 58.1449 120.108 Q59.9736 123.65 63.5847 123.65 Q67.2189 123.65 69.0244 120.108 Q70.8531 116.544 70.8531 109.437 Q70.8531 102.308 69.0244 98.7659 Q67.2189 95.2011 63.5847 95.2011 M63.5847 91.4975 Q69.3948 91.4975 72.4503 96.1039 Q75.529 100.687 75.529 109.437 Q75.529 118.164 72.4503 122.77 Q69.3948 127.354 63.5847 127.354 Q57.7745 127.354 54.6958 122.77 Q51.6403 118.164 51.6403 109.437 Q51.6403 100.687 54.6958 96.1039 Q57.7745 91.4975 63.5847 91.4975 Z" fill="#000000" fill-rule="nonzero" fill-opacity="1" /><path clip-path="url(#clip470)" d="M83.7466 120.803 L88.6308 120.803 L88.6308 126.682 L83.7466 126.682 L83.7466 120.803 Z" fill="#000000" fill-rule="nonzero" fill-opacity="1" /><path clip-path="url(#clip470)" d="M112.983 108.048 Q116.339 108.766 118.214 111.034 Q120.112 113.303 120.112 116.636 Q120.112 121.752 116.594 124.553 Q113.075 127.354 106.594 127.354 Q104.418 127.354 102.103 126.914 Q99.8113 126.497 97.3576 125.641 L97.3576 121.127 Q99.3021 122.261 101.617 122.84 Q103.932 123.419 106.455 123.419 Q110.853 123.419 113.145 121.682 Q115.459 119.946 115.459 116.636 Q115.459 113.581 113.307 111.868 Q111.177 110.132 107.358 110.132 L103.33 110.132 L103.33 106.289 L107.543 106.289 Q110.992 106.289 112.82 104.923 Q114.649 103.534 114.649 100.942 Q114.649 98.2798 112.751 96.8678 Q110.876 95.4326 107.358 95.4326 Q105.436 95.4326 103.237 95.8493 Q101.038 96.2659 98.3993 97.1456 L98.3993 92.9789 Q101.061 92.2382 103.376 91.8678 Q105.714 91.4975 107.774 91.4975 Q113.098 91.4975 116.2 93.928 Q119.302 96.3354 119.302 100.456 Q119.302 103.326 117.658 105.317 Q116.015 107.284 112.983 108.048 Z" fill="#000000" fill-rule="nonzero" fill-opacity="1" /><circle clip-path="url(#clip472)" cx="1372.58" cy="1386.77" r="14.4" fill="#808080" fill-rule="evenodd" fill-opacity="1" stroke="#000000" stroke-opacity="1" stroke-width="3.2"/>
<circle clip-path="url(#clip472)" cx="1356.25" cy="1445.72" r="14.4" fill="#808080" fill-rule="evenodd" fill-opacity="1" stroke="#000000" stroke-opacity="1" stroke-width="3.2"/>
<circle clip-path="url(#clip472)" cx="2290.59" cy="1314.33" r="14.4" fill="#808080" fill-rule="evenodd" fill-opacity="1" stroke="#000000" stroke-opacity="1" stroke-width="3.2"/>
<circle clip-path="url(#clip472)" cx="218.281" cy="87.9763" r="14.4" fill="#808080" fill-rule="evenodd" fill-opacity="1" stroke="#000000" stroke-opacity="1" stroke-width="3.2"/>
<path clip-path="url(#clip470)" d="M1376.87 1394.2 Q1367.84 1394.2 1364.36 1396.27 Q1360.87 1398.33 1360.87 1403.31 Q1360.87 1407.28 1363.47 1409.63 Q1366.1 1411.94 1370.6 1411.94 Q1376.79 1411.94 1380.52 1407.57 Q1384.29 1403.15 1384.29 1395.86 L1384.29 1394.2 L1376.87 1394.2 M1391.74 1391.12 L1391.74 1417.01 L1384.29 1417.01 L1384.29 1410.12 Q1381.74 1414.25 1377.93 1416.24 Q1374.12 1418.18 1368.61 1418.18 Q1361.64 1418.18 1357.51 1414.29 Q1353.42 1410.36 1353.42 1403.8 Q1353.42 1396.14 1358.52 1392.26 Q1363.67 1388.37 1373.84 1388.37 L1384.29 1388.37 L1384.29 1387.64 Q1384.29 1382.49 1380.89 1379.7 Q1377.52 1376.86 1371.41 1376.86 Q1367.52 1376.86 1363.83 1377.79 Q1360.14 1378.73 1356.74 1380.59 L1356.74 1373.7 Q1360.83 1372.12 1364.68 1371.35 Q1368.53 1370.54 1372.18 1370.54 Q1382.02 1370.54 1386.88 1375.65 Q1391.74 1380.75 1391.74 1391.12 Z" fill="#000000" fill-rule="nonzero" fill-opacity="1" /><path clip-path="url(#clip470)" d="M1368.81 1453.31 Q1368.81 1445.09 1365.41 1440.43 Q1362.04 1435.73 1356.13 1435.73 Q1350.21 1435.73 1346.81 1440.43 Q1343.45 1445.09 1343.45 1453.31 Q1343.45 1461.53 1346.81 1466.23 Q1350.21 1470.89 1356.13 1470.89 Q1362.04 1470.89 1365.41 1466.23 Q1368.81 1461.53 1368.81 1453.31 M1343.45 1437.47 Q1345.8 1433.42 1349.36 1431.48 Q1352.97 1429.49 1357.95 1429.49 Q1366.22 1429.49 1371.36 1436.05 Q1376.55 1442.62 1376.55 1453.31 Q1376.55 1464.01 1371.36 1470.57 Q1366.22 1477.13 1357.95 1477.13 Q1352.97 1477.13 1349.36 1475.19 Q1345.8 1473.2 1343.45 1469.15 L1343.45 1475.96 L1335.96 1475.96 L1335.96 1412.92 L1343.45 1412.92 L1343.45 1437.47 Z" fill="#000000" fill-rule="nonzero" fill-opacity="1" /><path clip-path="url(#clip470)" d="M2308.53 1300.94 L2308.53 1307.91 Q2305.37 1306.17 2302.17 1305.31 Q2299.01 1304.42 2295.77 1304.42 Q2288.52 1304.42 2284.51 1309.04 Q2280.5 1313.62 2280.5 1321.92 Q2280.5 1330.23 2284.51 1334.85 Q2288.52 1339.42 2295.77 1339.42 Q2299.01 1339.42 2302.17 1338.57 Q2305.37 1337.68 2308.53 1335.94 L2308.53 1342.83 Q2305.41 1344.28 2302.05 1345.01 Q2298.73 1345.74 2294.96 1345.74 Q2284.71 1345.74 2278.68 1339.3 Q2272.64 1332.86 2272.64 1321.92 Q2272.64 1310.82 2278.72 1304.46 Q2284.83 1298.1 2295.45 1298.1 Q2298.89 1298.1 2302.17 1298.83 Q2305.45 1299.52 2308.53 1300.94 Z" fill="#000000" fill-rule="nonzero" fill-opacity="1" /><path clip-path="url(#clip470)" d="M231.102 79.7327 L231.102 55.1842 L238.556 55.1842 L238.556 118.216 L231.102 118.216 L231.102 111.411 Q228.753 115.462 225.148 117.447 Q221.583 119.391 216.56 119.391 Q208.336 119.391 203.151 112.829 Q198.007 106.266 198.007 95.5717 Q198.007 84.8773 203.151 78.3149 Q208.336 71.7524 216.56 71.7524 Q221.583 71.7524 225.148 73.7373 Q228.753 75.6818 231.102 79.7327 M205.703 95.5717 Q205.703 103.795 209.065 108.494 Q212.468 113.153 218.383 113.153 Q224.297 113.153 227.7 108.494 Q231.102 103.795 231.102 95.5717 Q231.102 87.3484 227.7 82.6898 Q224.297 77.9908 218.383 77.9908 Q212.468 77.9908 209.065 82.6898 Q205.703 87.3484 205.703 95.5717 Z" fill="#000000" fill-rule="nonzero" fill-opacity="1" /><path clip-path="url(#clip470)" d="M2007.44 198.898 L2279.53 198.898 L2279.53 95.2176 L2007.44 95.2176  Z" fill="#ffffff" fill-rule="evenodd" fill-opacity="1"/>
<polyline clip-path="url(#clip470)" style="stroke:#000000; stroke-linecap:round; stroke-linejoin:round; stroke-width:4; stroke-opacity:1; fill:none" points="2007.44,198.898 2279.53,198.898 2279.53,95.2176 2007.44,95.2176 2007.44,198.898 "/>
<circle clip-path="url(#clip470)" cx="2105.07" cy="147.058" r="20.48" fill="#808080" fill-rule="evenodd" fill-opacity="1" stroke="#000000" stroke-opacity="1" stroke-width="4.55111"/>
<path clip-path="url(#clip470)" d="M2216.54 166.745 Q2214.73 171.375 2213.02 172.787 Q2211.31 174.199 2208.44 174.199 L2205.03 174.199 L2205.03 170.634 L2207.53 170.634 Q2209.29 170.634 2210.27 169.8 Q2211.24 168.967 2212.42 165.865 L2213.18 163.921 L2202.7 138.412 L2207.21 138.412 L2215.31 158.689 L2223.41 138.412 L2227.93 138.412 L2216.54 166.745 Z" fill="#000000" fill-rule="nonzero" fill-opacity="1" /><path clip-path="url(#clip470)" d="M2235.22 160.402 L2242.86 160.402 L2242.86 134.037 L2234.55 135.703 L2234.55 131.444 L2242.81 129.778 L2247.49 129.778 L2247.49 160.402 L2255.13 160.402 L2255.13 164.338 L2235.22 164.338 L2235.22 160.402 Z" fill="#000000" fill-rule="nonzero" fill-opacity="1" /></svg>
