<?xml version="1.0" encoding="utf-8"?>
<svg xmlns="http://www.w3.org/2000/svg" xmlns:xlink="http://www.w3.org/1999/xlink" width="600" height="400" viewBox="0 0 2400 1600">
<defs>
  <clipPath id="clip550">
    <rect x="0" y="0" width="2400" height="1600"/>
  </clipPath>
</defs>
<path clip-path="url(#clip550)" d="M0 1600 L2400 1600 L2400 0 L0 0  Z" fill="#ffffff" fill-rule="evenodd" fill-opacity="1"/>
<defs>
  <clipPath id="clip551">
    <rect x="480" y="0" width="1681" height="1600"/>
  </clipPath>
</defs>
<path clip-path="url(#clip550)" d="M156.598 1486.45 L2352.76 1486.45 L2352.76 47.2441 L156.598 47.2441  Z" fill="#ffffff" fill-rule="evenodd" fill-opacity="1"/>
<defs>
  <clipPath id="clip552">
    <rect x="156" y="47" width="2197" height="1440"/>
  </clipPath>
</defs>
<polyline clip-path="url(#clip552)" style="stroke:#000000; stroke-linecap:round; stroke-linejoin:round; stroke-width:2; stroke-opacity:0.1; fill:none" points="462.289,1486.45 462.289,47.2441 "/>
<polyline clip-path="url(#clip552)" style="stroke:#000000; stroke-linecap:round; stroke-linejoin:round; stroke-width:2; stroke-opacity:0.1; fill:none" points="935.447,1486.45 935.447,47.2441 "/>
<polyline clip-path="url(#clip552)" style="stroke:#000000; stroke-linecap:round; stroke-linejoin:round; stroke-width:2; stroke-opacity:0.1; fill:none" points="1408.6,1486.45 1408.6,47.2441 "/>
<polyline clip-path="url(#clip552)" style="stroke:#000000; stroke-linecap:round; stroke-linejoin:round; stroke-width:2; stroke-opacity:0.1; fill:none" points="1881.76,1486.45 1881.76,47.2441 "/>
<polyline clip-path="url(#clip550)" style="stroke:#000000; stroke-linecap:round; stroke-linejoin:round; stroke-width:4; stroke-opacity:1; fill:none" points="156.598,1486.45 2352.76,1486.45 "/>
<polyline clip-path="url(#clip550)" style="stroke:#000000; stroke-linecap:round; stroke-linejoin:round; stroke-width:4; stroke-opacity:1; fill:none" points="462.289,1486.45 462.289,1467.55 "/>
<polyline clip-path="url(#clip550)" style="stroke:#000000; stroke-linecap:round; stroke-linejoin:round; stroke-width:4; stroke-opacity:1; fill:none" points="935.447,1486.45 935.447,1467.55 "/>
<polyline clip-path="url(#clip550)" style="stroke:#000000; stroke-linecap:round; stroke-linejoin:round; stroke-width:4; stroke-opacity:1; fill:none" points="1408.6,1486.45 1408.6,1467.55 "/>
<polyline clip-path="url(#clip550)" style="stroke:#000000; stroke-linecap:round; stroke-linejoin:round; stroke-width:4; stroke-opacity:1; fill:none" points="1881.76,1486.45 1881.76,1467.55 "/>
<path clip-path="url(#clip550)" d="M408.574 1532.02 L438.25 1532.02 L438.25 1535.95 L408.574 1535.95 L408.574 1532.02 Z" fill="#000000" fill-rule="nonzero" fill-opacity="1" /><path clip-path="url(#clip550)" d="M458.343 1517.37 Q454.731 1517.37 452.903 1520.93 Q451.097 1524.47 451.097 1531.6 Q451.097 1538.71 452.903 1542.27 Q454.731 1545.82 458.343 1545.82 Q461.977 1545.82 463.782 1542.27 Q465.611 1538.71 465.611 1531.6 Q465.611 1524.47 463.782 1520.93 Q461.977 1517.37 458.343 1517.37 M458.343 1513.66 Q464.153 1513.66 467.208 1518.27 Q470.287 1522.85 470.287 1531.6 Q470.287 1540.33 467.208 1544.94 Q464.153 1549.52 458.343 1549.52 Q452.532 1549.52 449.454 1544.94 Q446.398 1540.33 446.398 1531.6 Q446.398 1522.85 449.454 1518.27 Q452.532 1513.66 458.343 1513.66 Z" fill="#000000" fill-rule="nonzero" fill-opacity="1" /><path clip-path="url(#clip550)" d="M478.505 1542.97 L483.389 1542.97 L483.389 1548.85 L478.505 1548.85 L478.505 1542.97 Z" fill="#000000" fill-rule="nonzero" fill-opacity="1" /><path clip-path="url(#clip550)" d="M506.421 1518.36 L494.616 1536.81 L506.421 1536.81 L506.421 1518.36 M505.194 1514.29 L511.074 1514.29 L511.074 1536.81 L516.004 1536.81 L516.004 1540.7 L511.074 1540.7 L511.074 1548.85 L506.421 1548.85 L506.421 1540.7 L490.819 1540.7 L490.819 1536.19 L505.194 1514.29 Z" fill="#000000" fill-rule="nonzero" fill-opacity="1" /><path clip-path="url(#clip550)" d="M882.774 1532.02 L912.449 1532.02 L912.449 1535.95 L882.774 1535.95 L882.774 1532.02 Z" fill="#000000" fill-rule="nonzero" fill-opacity="1" /><path clip-path="url(#clip550)" d="M932.542 1517.37 Q928.931 1517.37 927.102 1520.93 Q925.296 1524.47 925.296 1531.6 Q925.296 1538.71 927.102 1542.27 Q928.931 1545.82 932.542 1545.82 Q936.176 1545.82 937.982 1542.27 Q939.81 1538.71 939.81 1531.6 Q939.81 1524.47 937.982 1520.93 Q936.176 1517.37 932.542 1517.37 M932.542 1513.66 Q938.352 1513.66 941.407 1518.27 Q944.486 1522.85 944.486 1531.6 Q944.486 1540.33 941.407 1544.94 Q938.352 1549.52 932.542 1549.52 Q926.732 1549.52 923.653 1544.94 Q920.597 1540.33 920.597 1531.6 Q920.597 1522.85 923.653 1518.27 Q926.732 1513.66 932.542 1513.66 Z" fill="#000000" fill-rule="nonzero" fill-opacity="1" /><path clip-path="url(#clip550)" d="M952.704 1542.97 L957.588 1542.97 L957.588 1548.85 L952.704 1548.85 L952.704 1542.97 Z" fill="#000000" fill-rule="nonzero" fill-opacity="1" /><path clip-path="url(#clip550)" d="M971.801 1544.91 L988.12 1544.91 L988.12 1548.85 L966.176 1548.85 L966.176 1544.91 Q968.838 1542.16 973.421 1537.53 Q978.028 1532.88 979.208 1531.53 Q981.454 1529.01 982.333 1527.27 Q983.236 1525.51 983.236 1523.82 Q983.236 1521.07 981.291 1519.33 Q979.37 1517.6 976.268 1517.6 Q974.069 1517.6 971.616 1518.36 Q969.185 1519.13 966.407 1520.68 L966.407 1515.95 Q969.231 1514.82 971.685 1514.24 Q974.139 1513.66 976.176 1513.66 Q981.546 1513.66 984.741 1516.35 Q987.935 1519.03 987.935 1523.52 Q987.935 1525.65 987.125 1527.57 Q986.338 1529.47 984.231 1532.07 Q983.653 1532.74 980.551 1535.95 Q977.449 1539.15 971.801 1544.91 Z" fill="#000000" fill-rule="nonzero" fill-opacity="1" /><path clip-path="url(#clip550)" d="M1385.99 1517.37 Q1382.38 1517.37 1380.55 1520.93 Q1378.74 1524.47 1378.74 1531.6 Q1378.74 1538.71 1380.55 1542.27 Q1382.38 1545.82 1385.99 1545.82 Q1389.62 1545.82 1391.43 1542.27 Q1393.26 1538.71 1393.26 1531.6 Q1393.26 1524.47 1391.43 1520.93 Q1389.62 1517.37 1385.99 1517.37 M1385.99 1513.66 Q1391.8 1513.66 1394.85 1518.27 Q1397.93 1522.85 1397.93 1531.6 Q1397.93 1540.33 1394.85 1544.94 Q1391.8 1549.52 1385.99 1549.52 Q1380.18 1549.52 1377.1 1544.94 Q1374.04 1540.33 1374.04 1531.6 Q1374.04 1522.85 1377.1 1518.27 Q1380.18 1513.66 1385.99 1513.66 Z" fill="#000000" fill-rule="nonzero" fill-opacity="1" /><path clip-path="url(#clip550)" d="M1406.15 1542.97 L1411.03 1542.97 L1411.03 1548.85 L1406.15 1548.85 L1406.15 1542.97 Z" fill="#000000" fill-rule="nonzero" fill-opacity="1" /><path clip-path="url(#clip550)" d="M1431.22 1517.37 Q1427.61 1517.37 1425.78 1520.93 Q1423.97 1524.47 1423.97 1531.6 Q1423.97 1538.71 1425.78 1542.27 Q1427.61 1545.82 1431.22 1545.82 Q1434.85 1545.82 1436.66 1542.27 Q1438.49 1538.71 1438.49 1531.6 Q1438.49 1524.47 1436.66 1520.93 Q1434.85 1517.37 1431.22 1517.37 M1431.22 1513.66 Q1437.03 1513.66 1440.09 1518.27 Q1443.16 1522.85 1443.16 1531.6 Q1443.16 1540.33 1440.09 1544.94 Q1437.03 1549.52 1431.22 1549.52 Q1425.41 1549.52 1422.33 1544.94 Q1419.28 1540.33 1419.28 1531.6 Q1419.28 1522.85 1422.33 1518.27 Q1425.41 1513.66 1431.22 1513.66 Z" fill="#000000" fill-rule="nonzero" fill-opacity="1" /><path clip-path="url(#clip550)" d="M1859.94 1517.37 Q1856.33 1517.37 1854.51 1520.93 Q1852.7 1524.47 1852.7 1531.6 Q1852.7 1538.71 1854.51 1542.27 Q1856.33 1545.82 1859.94 1545.82 Q1863.58 1545.82 1865.38 1542.27 Q1867.21 1538.71 1867.21 1531.6 Q1867.21 1524.47 1865.38 1520.93 Q1863.58 1517.37 1859.94 1517.37 M1859.94 1513.66 Q1865.76 1513.66 1868.81 1518.27 Q1871.89 1522.85 1871.89 1531.6 Q1871.89 1540.33 1868.81 1544.94 Q1865.76 1549.52 1859.94 1549.52 Q1854.13 1549.52 1851.06 1544.94 Q1848 1540.33 1848 1531.6 Q1848 1522.85 1851.06 1518.27 Q1854.13 1513.66 1859.94 1513.66 Z" fill="#000000" fill-rule="nonzero" fill-opacity="1" /><path clip-path="url(#clip550)" d="M1880.11 1542.97 L1884.99 1542.97 L1884.99 1548.85 L1880.11 1548.85 L1880.11 1542.97 Z" fill="#000000" fill-rule="nonzero" fill-opacity="1" /><path clip-path="url(#clip550)" d="M1899.2 1544.91 L1915.52 1544.91 L1915.52 1548.85 L1893.58 1548.85 L1893.58 1544.91 Q1896.24 1542.16 1900.82 1537.53 Q1905.43 1532.88 1906.61 1531.53 Q1908.86 1529.01 1909.74 1527.27 Q1910.64 1525.51 1910.64 1523.82 Q1910.64 1521.07 1908.69 1519.33 Q1906.77 1517.6 1903.67 1517.6 Q1901.47 1517.6 1899.02 1518.36 Q1896.59 1519.13 1893.81 1520.68 L1893.81 1515.95 Q1896.63 1514.82 1899.09 1514.24 Q1901.54 1513.66 1903.58 1513.66 Q1908.95 1513.66 1912.14 1516.35 Q1915.34 1519.03 1915.34 1523.52 Q1915.34 1525.65 1914.53 1527.57 Q1913.74 1529.47 1911.63 1532.07 Q1911.06 1532.74 1907.95 1535.95 Q1904.85 1539.15 1899.2 1544.91 Z" fill="#000000" fill-rule="nonzero" fill-opacity="1" /><polyline clip-path="url(#clip552)" style="stroke:#000000; stroke-linecap:round; stroke-linejoin:round; stroke-width:2; stroke-opacity:0.1; fill:none" points="156.598,1450.62 2352.76,1450.62 "/>
<polyline clip-path="url(#clip552)" style="stroke:#000000; stroke-linecap:round; stroke-linejoin:round; stroke-width:2; stroke-opacity:0.1; fill:none" points="156.598,1118.25 2352.76,1118.25 "/>
<polyline clip-path="url(#clip552)" style="stroke:#000000; stroke-linecap:round; stroke-linejoin:round; stroke-width:2; stroke-opacity:0.1; fill:none" points="156.598,785.88 2352.76,785.88 "/>
<polyline clip-path="url(#clip552)" style="stroke:#000000; stroke-linecap:round; stroke-linejoin:round; stroke-width:2; stroke-opacity:0.1; fill:none" points="156.598,453.509 2352.76,453.509 "/>
<polyline clip-path="url(#clip552)" style="stroke:#000000; stroke-linecap:round; stroke-linejoin:round; stroke-width:2; stroke-opacity:0.1; fill:none" points="156.598,121.137 2352.76,121.137 "/>
<polyline clip-path="url(#clip550)" style="stroke:#000000; stroke-linecap:round; stroke-linejoin:round; stroke-width:4; stroke-opacity:1; fill:none" points="156.598,1486.45 156.598,47.2441 "/>
<polyline clip-path="url(#clip550)" style="stroke:#000000; stroke-linecap:round; stroke-linejoin:round; stroke-width:4; stroke-opacity:1; fill:none" points="156.598,1450.62 175.496,1450.62 "/>
<polyline clip-path="url(#clip550)" style="stroke:#000000; stroke-linecap:round; stroke-linejoin:round; stroke-width:4; stroke-opacity:1; fill:none" points="156.598,1118.25 175.496,1118.25 "/>
<polyline clip-path="url(#clip550)" style="stroke:#000000; stroke-linecap:round; stroke-linejoin:round; stroke-width:4; stroke-opacity:1; fill:none" points="156.598,785.88 175.496,785.88 "/>
<polyline clip-path="url(#clip550)" style="stroke:#000000; stroke-linecap:round; stroke-linejoin:round; stroke-width:4; stroke-opacity:1; fill:none" points="156.598,453.509 175.496,453.509 "/>
<polyline clip-path="url(#clip550)" style="stroke:#000000; stroke-linecap:round; stroke-linejoin:round; stroke-width:4; stroke-opacity:1; fill:none" points="156.598,121.137 175.496,121.137 "/>
<path clip-path="url(#clip550)" d="M63.4226 1436.42 Q59.8115 1436.42 57.9828 1439.99 Q56.1773 1443.53 56.1773 1450.66 Q56.1773 1457.76 57.9828 1461.33 Q59.8115 1464.87 63.4226 1464.87 Q67.0569 1464.87 68.8624 1461.33 Q70.6911 1457.76 70.6911 1450.66 Q70.6911 1443.53 68.8624 1439.99 Q67.0569 1436.42 63.4226 1436.42 M63.4226 1432.72 Q69.2328 1432.72 72.2883 1437.33 Q75.367 1441.91 75.367 1450.66 Q75.367 1459.39 72.2883 1463.99 Q69.2328 1468.57 63.4226 1468.57 Q57.6125 1468.57 54.5338 1463.99 Q51.4782 1459.39 51.4782 1450.66 Q51.4782 1441.91 54.5338 1437.33 Q57.6125 1432.72 63.4226 1432.72 Z" fill="#000000" fill-rule="nonzero" fill-opacity="1" /><path clip-path="url(#clip550)" d="M83.5845 1462.02 L88.4688 1462.02 L88.4688 1467.9 L83.5845 1467.9 L83.5845 1462.02 Z" fill="#000000" fill-rule="nonzero" fill-opacity="1" /><path clip-path="url(#clip550)" d="M108.654 1436.42 Q105.043 1436.42 103.214 1439.99 Q101.409 1443.53 101.409 1450.66 Q101.409 1457.76 103.214 1461.33 Q105.043 1464.87 108.654 1464.87 Q112.288 1464.87 114.094 1461.33 Q115.922 1457.76 115.922 1450.66 Q115.922 1443.53 114.094 1439.99 Q112.288 1436.42 108.654 1436.42 M108.654 1432.72 Q114.464 1432.72 117.52 1437.33 Q120.598 1441.91 120.598 1450.66 Q120.598 1459.39 117.52 1463.99 Q114.464 1468.57 108.654 1468.57 Q102.844 1468.57 99.765 1463.99 Q96.7095 1459.39 96.7095 1450.66 Q96.7095 1441.91 99.765 1437.33 Q102.844 1432.72 108.654 1432.72 Z" fill="#000000" fill-rule="nonzero" fill-opacity="1" /><path clip-path="url(#clip550)" d="M64.6495 1104.05 Q61.0384 1104.05 59.2097 1107.62 Q57.4041 1111.16 57.4041 1118.29 Q57.4041 1125.39 59.2097 1128.96 Q61.0384 1132.5 64.6495 1132.5 Q68.2837 1132.5 70.0892 1128.96 Q71.9179 1125.39 71.9179 1118.29 Q71.9179 1111.16 70.0892 1107.62 Q68.2837 1104.05 64.6495 1104.05 M64.6495 1100.35 Q70.4596 1100.35 73.5152 1104.95 Q76.5938 1109.54 76.5938 1118.29 Q76.5938 1127.01 73.5152 1131.62 Q70.4596 1136.2 64.6495 1136.2 Q58.8393 1136.2 55.7606 1131.62 Q52.7051 1127.01 52.7051 1118.29 Q52.7051 1109.54 55.7606 1104.95 Q58.8393 1100.35 64.6495 1100.35 Z" fill="#000000" fill-rule="nonzero" fill-opacity="1" /><path clip-path="url(#clip550)" d="M84.8114 1129.65 L89.6956 1129.65 L89.6956 1135.53 L84.8114 1135.53 L84.8114 1129.65 Z" fill="#000000" fill-rule="nonzero" fill-opacity="1" /><path clip-path="url(#clip550)" d="M100.691 1131.6 L108.33 1131.6 L108.33 1105.23 L100.02 1106.9 L100.02 1102.64 L108.283 1100.97 L112.959 1100.97 L112.959 1131.6 L120.598 1131.6 L120.598 1135.53 L100.691 1135.53 L100.691 1131.6 Z" fill="#000000" fill-rule="nonzero" fill-opacity="1" /><path clip-path="url(#clip550)" d="M65.0198 771.679 Q61.4087 771.679 59.58 775.244 Q57.7745 778.785 57.7745 785.915 Q57.7745 793.021 59.58 796.586 Q61.4087 800.128 65.0198 800.128 Q68.6541 800.128 70.4596 796.586 Q72.2883 793.021 72.2883 785.915 Q72.2883 778.785 70.4596 775.244 Q68.6541 771.679 65.0198 771.679 M65.0198 767.975 Q70.83 767.975 73.8855 772.582 Q76.9642 777.165 76.9642 785.915 Q76.9642 794.642 73.8855 799.248 Q70.83 803.832 65.0198 803.832 Q59.2097 803.832 56.131 799.248 Q53.0754 794.642 53.0754 785.915 Q53.0754 777.165 56.131 772.582 Q59.2097 767.975 65.0198 767.975 Z" fill="#000000" fill-rule="nonzero" fill-opacity="1" /><path clip-path="url(#clip550)" d="M85.1818 797.281 L90.066 797.281 L90.066 803.16 L85.1818 803.16 L85.1818 797.281 Z" fill="#000000" fill-rule="nonzero" fill-opacity="1" /><path clip-path="url(#clip550)" d="M104.279 799.225 L120.598 799.225 L120.598 803.16 L98.6539 803.16 L98.6539 799.225 Q101.316 796.471 105.899 791.841 Q110.506 787.188 111.686 785.846 Q113.932 783.322 114.811 781.586 Q115.714 779.827 115.714 778.137 Q115.714 775.383 113.77 773.647 Q111.848 771.91 108.746 771.91 Q106.547 771.91 104.094 772.674 Q101.663 773.438 98.8854 774.989 L98.8854 770.267 Q101.709 769.133 104.163 768.554 Q106.617 767.975 108.654 767.975 Q114.024 767.975 117.219 770.66 Q120.413 773.346 120.413 777.836 Q120.413 779.966 119.603 781.887 Q118.816 783.785 116.709 786.378 Q116.131 787.049 113.029 790.267 Q109.927 793.461 104.279 799.225 Z" fill="#000000" fill-rule="nonzero" fill-opacity="1" /><path clip-path="url(#clip550)" d="M64.0708 439.307 Q60.4597 439.307 58.631 442.872 Q56.8254 446.414 56.8254 453.543 Q56.8254 460.65 58.631 464.215 Q60.4597 467.756 64.0708 467.756 Q67.705 467.756 69.5105 464.215 Q71.3392 460.65 71.3392 453.543 Q71.3392 446.414 69.5105 442.872 Q67.705 439.307 64.0708 439.307 M64.0708 435.604 Q69.8809 435.604 72.9365 440.21 Q76.0151 444.793 76.0151 453.543 Q76.0151 462.27 72.9365 466.877 Q69.8809 471.46 64.0708 471.46 Q58.2606 471.46 55.1819 466.877 Q52.1264 462.27 52.1264 453.543 Q52.1264 444.793 55.1819 440.21 Q58.2606 435.604 64.0708 435.604 Z" fill="#000000" fill-rule="nonzero" fill-opacity="1" /><path clip-path="url(#clip550)" d="M84.2327 464.909 L89.1169 464.909 L89.1169 470.789 L84.2327 470.789 L84.2327 464.909 Z" fill="#000000" fill-rule="nonzero" fill-opacity="1" /><path clip-path="url(#clip550)" d="M113.469 452.155 Q116.825 452.872 118.7 455.141 Q120.598 457.409 120.598 460.742 Q120.598 465.858 117.08 468.659 Q113.561 471.46 107.08 471.46 Q104.904 471.46 102.589 471.02 Q100.297 470.604 97.8437 469.747 L97.8437 465.233 Q99.7882 466.367 102.103 466.946 Q104.418 467.525 106.941 467.525 Q111.339 467.525 113.631 465.789 Q115.945 464.053 115.945 460.742 Q115.945 457.687 113.793 455.974 Q111.663 454.238 107.844 454.238 L103.816 454.238 L103.816 450.395 L108.029 450.395 Q111.478 450.395 113.307 449.03 Q115.135 447.641 115.135 445.048 Q115.135 442.386 113.237 440.974 Q111.362 439.539 107.844 439.539 Q105.922 439.539 103.723 439.956 Q101.524 440.372 98.8854 441.252 L98.8854 437.085 Q101.547 436.344 103.862 435.974 Q106.2 435.604 108.26 435.604 Q113.584 435.604 116.686 438.034 Q119.788 440.442 119.788 444.562 Q119.788 447.432 118.145 449.423 Q116.501 451.391 113.469 452.155 Z" fill="#000000" fill-rule="nonzero" fill-opacity="1" /><path clip-path="url(#clip550)" d="M62.9365 106.936 Q59.3254 106.936 57.4967 110.501 Q55.6912 114.042 55.6912 121.172 Q55.6912 128.278 57.4967 131.843 Q59.3254 135.385 62.9365 135.385 Q66.5707 135.385 68.3763 131.843 Q70.205 128.278 70.205 121.172 Q70.205 114.042 68.3763 110.501 Q66.5707 106.936 62.9365 106.936 M62.9365 103.232 Q68.7467 103.232 71.8022 107.839 Q74.8809 112.422 74.8809 121.172 Q74.8809 129.899 71.8022 134.505 Q68.7467 139.088 62.9365 139.088 Q57.1264 139.088 54.0477 134.505 Q50.9921 129.899 50.9921 121.172 Q50.9921 112.422 54.0477 107.839 Q57.1264 103.232 62.9365 103.232 Z" fill="#000000" fill-rule="nonzero" fill-opacity="1" /><path clip-path="url(#clip550)" d="M83.0984 132.537 L87.9827 132.537 L87.9827 138.417 L83.0984 138.417 L83.0984 132.537 Z" fill="#000000" fill-rule="nonzero" fill-opacity="1" /><path clip-path="url(#clip550)" d="M111.015 107.931 L99.2095 126.38 L111.015 126.38 L111.015 107.931 M109.788 103.857 L115.668 103.857 L115.668 126.38 L120.598 126.38 L120.598 130.269 L115.668 130.269 L115.668 138.417 L111.015 138.417 L111.015 130.269 L95.4132 130.269 L95.4132 125.755 L109.788 103.857 Z" fill="#000000" fill-rule="nonzero" fill-opacity="1" /><circle clip-path="url(#clip552)" cx="1450.6" cy="1283.21" r="14.4" fill="#808080" fill-rule="evenodd" fill-opacity="1" stroke="#000000" stroke-opacity="1" stroke-width="3.2"/>
<circle clip-path="url(#clip552)" cx="1372.47" cy="1445.72" r="14.4" fill="#808080" fill-rule="evenodd" fill-opacity="1" stroke="#000000" stroke-opacity="1" stroke-width="3.2"/>
<circle clip-path="url(#clip552)" cx="2290.6" cy="1334.22" r="14.4" fill="#808080" fill-rule="evenodd" fill-opacity="1" stroke="#000000" stroke-opacity="1" stroke-width="3.2"/>
<circle clip-path="url(#clip552)" cx="218.754" cy="87.9763" r="14.4" fill="#808080" fill-rule="evenodd" fill-opacity="1" stroke="#000000" stroke-opacity="1" stroke-width="3.2"/>
<path clip-path="url(#clip550)" d="M1454.9 1290.65 Q1445.86 1290.65 1442.38 1292.71 Q1438.89 1294.78 1438.89 1299.76 Q1438.89 1303.73 1441.49 1306.08 Q1444.12 1308.39 1448.62 1308.39 Q1454.81 1308.39 1458.54 1304.01 Q1462.31 1299.6 1462.31 1292.31 L1462.31 1290.65 L1454.9 1290.65 M1469.76 1287.57 L1469.76 1313.45 L1462.31 1313.45 L1462.31 1306.57 Q1459.76 1310.7 1455.95 1312.68 Q1452.14 1314.63 1446.63 1314.63 Q1439.66 1314.63 1435.53 1310.74 Q1431.44 1306.81 1431.44 1300.25 Q1431.44 1292.59 1436.55 1288.7 Q1441.69 1284.81 1451.86 1284.81 L1462.31 1284.81 L1462.31 1284.08 Q1462.31 1278.94 1458.91 1276.14 Q1455.54 1273.31 1449.43 1273.31 Q1445.54 1273.31 1441.85 1274.24 Q1438.17 1275.17 1434.76 1277.03 L1434.76 1270.15 Q1438.85 1268.57 1442.7 1267.8 Q1446.55 1266.99 1450.2 1266.99 Q1460.04 1266.99 1464.9 1272.09 Q1469.76 1277.2 1469.76 1287.57 Z" fill="#000000" fill-rule="nonzero" fill-opacity="1" /><path clip-path="url(#clip550)" d="M1385.03 1453.31 Q1385.03 1445.09 1381.62 1440.43 Q1378.26 1435.73 1372.35 1435.73 Q1366.43 1435.73 1363.03 1440.43 Q1359.67 1445.09 1359.67 1453.31 Q1359.67 1461.53 1363.03 1466.23 Q1366.43 1470.89 1372.35 1470.89 Q1378.26 1470.89 1381.62 1466.23 Q1385.03 1461.53 1385.03 1453.31 M1359.67 1437.47 Q1362.02 1433.42 1365.58 1431.48 Q1369.19 1429.49 1374.17 1429.49 Q1382.43 1429.49 1387.58 1436.05 Q1392.76 1442.62 1392.76 1453.31 Q1392.76 1464.01 1387.58 1470.57 Q1382.43 1477.13 1374.17 1477.13 Q1369.19 1477.13 1365.58 1475.19 Q1362.02 1473.2 1359.67 1469.15 L1359.67 1475.96 L1352.17 1475.96 L1352.17 1412.92 L1359.67 1412.92 L1359.67 1437.47 Z" fill="#000000" fill-rule="nonzero" fill-opacity="1" /><path clip-path="url(#clip550)" d="M2308.55 1320.83 L2308.55 1327.8 Q2305.39 1326.06 2302.19 1325.21 Q2299.03 1324.32 2295.79 1324.32 Q2288.53 1324.32 2284.52 1328.94 Q2280.51 1333.51 2280.51 1341.82 Q2280.51 1350.12 2284.52 1354.74 Q2288.53 1359.32 2295.79 1359.32 Q2299.03 1359.32 2302.19 1358.47 Q2305.39 1357.58 2308.55 1355.83 L2308.55 1362.72 Q2305.43 1364.18 2302.06 1364.91 Q2298.74 1365.64 2294.98 1365.64 Q2284.73 1365.64 2278.69 1359.2 Q2272.65 1352.76 2272.65 1341.82 Q2272.65 1330.72 2278.73 1324.36 Q2284.85 1318 2295.46 1318 Q2298.9 1318 2302.19 1318.73 Q2305.47 1319.42 2308.55 1320.83 Z" fill="#000000" fill-rule="nonzero" fill-opacity="1" /><path clip-path="url(#clip550)" d="M231.575 79.7327 L231.575 55.1842 L239.028 55.1842 L239.028 118.216 L231.575 118.216 L231.575 111.411 Q229.225 115.462 225.62 117.447 Q222.055 119.391 217.032 119.391 Q208.809 119.391 203.624 112.829 Q198.479 106.266 198.479 95.5717 Q198.479 84.8773 203.624 78.3149 Q208.809 71.7524 217.032 71.7524 Q222.055 71.7524 225.62 73.7373 Q229.225 75.6818 231.575 79.7327 M206.176 95.5717 Q206.176 103.795 209.538 108.494 Q212.941 113.153 218.855 113.153 Q224.769 113.153 228.172 108.494 Q231.575 103.795 231.575 95.5717 Q231.575 87.3484 228.172 82.6898 Q224.769 77.9908 218.855 77.9908 Q212.941 77.9908 209.538 82.6898 Q206.176 87.3484 206.176 95.5717 Z" fill="#000000" fill-rule="nonzero" fill-opacity="1" /><path clip-path="url(#clip550)" d="M2007.5 198.898 L2279.55 198.898 L2279.55 95.2176 L2007.5 95.2176  Z" fill="#ffffff" fill-rule="evenodd" fill-opacity="1"/>
<polyline clip-path="url(#clip550)" style="stroke:#000000; stroke-linecap:round; stroke-linejoin:round; stroke-width:4; stroke-opacity:1; fill:none" points="2007.5,198.898 2279.55,198.898 2279.55,95.2176 2007.5,95.2176 2007.5,198.898 "/>
<circle clip-path="url(#clip550)" cx="2105.11" cy="147.058" r="20.48" fill="#808080" fill-rule="evenodd" fill-opacity="1" stroke="#000000" stroke-opacity="1" stroke-width="4.55111"/>
<path clip-path="url(#clip550)" d="M2216.56 166.745 Q2214.76 171.375 2213.04 172.787 Q2211.33 174.199 2208.46 174.199 L2205.06 174.199 L2205.06 170.634 L2207.56 170.634 Q2209.32 170.634 2210.29 169.8 Q2211.26 168.967 2212.44 165.865 L2213.2 163.921 L2202.72 138.412 L2207.23 138.412 L2215.33 158.689 L2223.44 138.412 L2227.95 138.412 L2216.56 166.745 Z" fill="#000000" fill-rule="nonzero" fill-opacity="1" /><path clip-path="url(#clip550)" d="M2235.24 160.402 L2242.88 160.402 L2242.88 134.037 L2234.57 135.703 L2234.57 131.444 L2242.83 129.778 L2247.51 129.778 L2247.51 160.402 L2255.15 160.402 L2255.15 164.338 L2235.24 164.338 L2235.24 160.402 Z" fill="#000000" fill-rule="nonzero" fill-opacity="1" /></svg>
