<?xml version="1.0" encoding="utf-8"?>
<svg xmlns="http://www.w3.org/2000/svg" xmlns:xlink="http://www.w3.org/1999/xlink" width="600" height="400" viewBox="0 0 2400 1600">
<defs>
  <clipPath id="clip530">
    <rect x="0" y="0" width="2400" height="1600"/>
  </clipPath>
</defs>
<path clip-path="url(#clip530)" d="M0 1600 L2400 1600 L2400 0 L0 0  Z" fill="#ffffff" fill-rule="evenodd" fill-opacity="1"/>
<defs>
  <clipPath id="clip531">
    <rect x="480" y="0" width="1681" height="1600"/>
  </clipPath>
</defs>
<path clip-path="url(#clip530)" d="M112.177 1486.45 L2352.76 1486.45 L2352.76 47.2441 L112.177 47.2441  Z" fill="#ffffff" fill-rule="evenodd" fill-opacity="1"/>
<defs>
  <clipPath id="clip532">
    <rect x="112" y="47" width="2242" height="1440"/>
  </clipPath>
</defs>
<polyline clip-path="url(#clip532)" style="stroke:#000000; stroke-linecap:round; stroke-linejoin:round; stroke-width:2; stroke-opacity:0.1; fill:none" points="323.632,1486.45 323.632,47.2441 "/>
<polyline clip-path="url(#clip532)" style="stroke:#000000; stroke-linecap:round; stroke-linejoin:round; stroke-width:2; stroke-opacity:0.1; fill:none" points="739.577,1486.45 739.577,47.2441 "/>
<polyline clip-path="url(#clip532)" style="stroke:#000000; stroke-linecap:round; stroke-linejoin:round; stroke-width:2; stroke-opacity:0.1; fill:none" points="1155.52,1486.45 1155.52,47.2441 "/>
<polyline clip-path="url(#clip532)" style="stroke:#000000; stroke-linecap:round; stroke-linejoin:round; stroke-width:2; stroke-opacity:0.1; fill:none" points="1571.47,1486.45 1571.47,47.2441 "/>
<polyline clip-path="url(#clip532)" style="stroke:#000000; stroke-linecap:round; stroke-linejoin:round; stroke-width:2; stroke-opacity:0.1; fill:none" points="1987.41,1486.45 1987.41,47.2441 "/>
<polyline clip-path="url(#clip530)" style="stroke:#000000; stroke-linecap:round; stroke-linejoin:round; stroke-width:4; stroke-opacity:1; fill:none" points="112.177,1486.45 2352.76,1486.45 "/>
<polyline clip-path="url(#clip530)" style="stroke:#000000; stroke-linecap:round; stroke-linejoin:round; stroke-width:4; stroke-opacity:1; fill:none" points="323.632,1486.45 323.632,1467.55 "/>
<polyline clip-path="url(#clip530)" style="stroke:#000000; stroke-linecap:round; stroke-linejoin:round; stroke-width:4; stroke-opacity:1; fill:none" points="739.577,1486.45 739.577,1467.55 "/>
<polyline clip-path="url(#clip530)" style="stroke:#000000; stroke-linecap:round; stroke-linejoin:round; stroke-width:4; stroke-opacity:1; fill:none" points="1155.52,1486.45 1155.52,1467.55 "/>
<polyline clip-path="url(#clip530)" style="stroke:#000000; stroke-linecap:round; stroke-linejoin:round; stroke-width:4; stroke-opacity:1; fill:none" points="1571.47,1486.45 1571.47,1467.55 "/>
<polyline clip-path="url(#clip530)" style="stroke:#000000; stroke-linecap:round; stroke-linejoin:round; stroke-width:4; stroke-opacity:1; fill:none" points="1987.41,1486.45 1987.41,1467.55 "/>
<path clip-path="url(#clip530)" d="M270.658 1532.02 L300.333 1532.02 L300.333 1535.95 L270.658 1535.95 L270.658 1532.02 Z" fill="#000000" fill-rule="nonzero" fill-opacity="1" /><path clip-path="url(#clip530)" d="M311.236 1544.91 L318.875 1544.91 L318.875 1518.55 L310.565 1520.21 L310.565 1515.95 L318.829 1514.29 L323.504 1514.29 L323.504 1544.91 L331.143 1544.91 L331.143 1548.85 L311.236 1548.85 L311.236 1544.91 Z" fill="#000000" fill-rule="nonzero" fill-opacity="1" /><path clip-path="url(#clip530)" d="M340.588 1542.97 L345.472 1542.97 L345.472 1548.85 L340.588 1548.85 L340.588 1542.97 Z" fill="#000000" fill-rule="nonzero" fill-opacity="1" /><path clip-path="url(#clip530)" d="M355.703 1514.29 L374.06 1514.29 L374.06 1518.22 L359.986 1518.22 L359.986 1526.7 Q361.004 1526.35 362.023 1526.19 Q363.041 1526 364.06 1526 Q369.847 1526 373.226 1529.17 Q376.606 1532.34 376.606 1537.76 Q376.606 1543.34 373.134 1546.44 Q369.662 1549.52 363.342 1549.52 Q361.166 1549.52 358.898 1549.15 Q356.652 1548.78 354.245 1548.04 L354.245 1543.34 Q356.328 1544.47 358.551 1545.03 Q360.773 1545.58 363.25 1545.58 Q367.254 1545.58 369.592 1543.48 Q371.93 1541.37 371.93 1537.76 Q371.93 1534.15 369.592 1532.04 Q367.254 1529.94 363.25 1529.94 Q361.375 1529.94 359.5 1530.35 Q357.648 1530.77 355.703 1531.65 L355.703 1514.29 Z" fill="#000000" fill-rule="nonzero" fill-opacity="1" /><path clip-path="url(#clip530)" d="M686.105 1532.02 L715.781 1532.02 L715.781 1535.95 L686.105 1535.95 L686.105 1532.02 Z" fill="#000000" fill-rule="nonzero" fill-opacity="1" /><path clip-path="url(#clip530)" d="M726.684 1544.91 L734.323 1544.91 L734.323 1518.55 L726.013 1520.21 L726.013 1515.95 L734.276 1514.29 L738.952 1514.29 L738.952 1544.91 L746.591 1544.91 L746.591 1548.85 L726.684 1548.85 L726.684 1544.91 Z" fill="#000000" fill-rule="nonzero" fill-opacity="1" /><path clip-path="url(#clip530)" d="M756.036 1542.97 L760.92 1542.97 L760.92 1548.85 L756.036 1548.85 L756.036 1542.97 Z" fill="#000000" fill-rule="nonzero" fill-opacity="1" /><path clip-path="url(#clip530)" d="M781.105 1517.37 Q777.494 1517.37 775.665 1520.93 Q773.86 1524.47 773.86 1531.6 Q773.86 1538.71 775.665 1542.27 Q777.494 1545.82 781.105 1545.82 Q784.739 1545.82 786.545 1542.27 Q788.373 1538.71 788.373 1531.6 Q788.373 1524.47 786.545 1520.93 Q784.739 1517.37 781.105 1517.37 M781.105 1513.66 Q786.915 1513.66 789.971 1518.27 Q793.049 1522.85 793.049 1531.6 Q793.049 1540.33 789.971 1544.94 Q786.915 1549.52 781.105 1549.52 Q775.295 1549.52 772.216 1544.94 Q769.161 1540.33 769.161 1531.6 Q769.161 1522.85 772.216 1518.27 Q775.295 1513.66 781.105 1513.66 Z" fill="#000000" fill-rule="nonzero" fill-opacity="1" /><path clip-path="url(#clip530)" d="M1102.55 1532.02 L1132.22 1532.02 L1132.22 1535.95 L1102.55 1535.95 L1102.55 1532.02 Z" fill="#000000" fill-rule="nonzero" fill-opacity="1" /><path clip-path="url(#clip530)" d="M1152.32 1517.37 Q1148.71 1517.37 1146.88 1520.93 Q1145.07 1524.47 1145.07 1531.6 Q1145.07 1538.71 1146.88 1542.27 Q1148.71 1545.82 1152.32 1545.82 Q1155.95 1545.82 1157.76 1542.27 Q1159.59 1538.71 1159.59 1531.6 Q1159.59 1524.47 1157.76 1520.93 Q1155.95 1517.37 1152.32 1517.37 M1152.32 1513.66 Q1158.13 1513.66 1161.18 1518.27 Q1164.26 1522.85 1164.26 1531.6 Q1164.26 1540.33 1161.18 1544.94 Q1158.13 1549.52 1152.32 1549.52 Q1146.51 1549.52 1143.43 1544.94 Q1140.37 1540.33 1140.37 1531.6 Q1140.37 1522.85 1143.43 1518.27 Q1146.51 1513.66 1152.32 1513.66 Z" fill="#000000" fill-rule="nonzero" fill-opacity="1" /><path clip-path="url(#clip530)" d="M1172.48 1542.97 L1177.36 1542.97 L1177.36 1548.85 L1172.48 1548.85 L1172.48 1542.97 Z" fill="#000000" fill-rule="nonzero" fill-opacity="1" /><path clip-path="url(#clip530)" d="M1187.59 1514.29 L1205.95 1514.29 L1205.95 1518.22 L1191.88 1518.22 L1191.88 1526.7 Q1192.9 1526.35 1193.91 1526.19 Q1194.93 1526 1195.95 1526 Q1201.74 1526 1205.12 1529.17 Q1208.5 1532.34 1208.5 1537.76 Q1208.5 1543.34 1205.02 1546.44 Q1201.55 1549.52 1195.23 1549.52 Q1193.06 1549.52 1190.79 1549.15 Q1188.54 1548.78 1186.14 1548.04 L1186.14 1543.34 Q1188.22 1544.47 1190.44 1545.03 Q1192.66 1545.58 1195.14 1545.58 Q1199.15 1545.58 1201.48 1543.48 Q1203.82 1541.37 1203.82 1537.76 Q1203.82 1534.15 1201.48 1532.04 Q1199.15 1529.94 1195.14 1529.94 Q1193.27 1529.94 1191.39 1530.35 Q1189.54 1530.77 1187.59 1531.65 L1187.59 1514.29 Z" fill="#000000" fill-rule="nonzero" fill-opacity="1" /><path clip-path="url(#clip530)" d="M1548.85 1517.37 Q1545.24 1517.37 1543.41 1520.93 Q1541.61 1524.47 1541.61 1531.6 Q1541.61 1538.71 1543.41 1542.27 Q1545.24 1545.82 1548.85 1545.82 Q1552.49 1545.82 1554.29 1542.27 Q1556.12 1538.71 1556.12 1531.6 Q1556.12 1524.47 1554.29 1520.93 Q1552.49 1517.37 1548.85 1517.37 M1548.85 1513.66 Q1554.66 1513.66 1557.72 1518.27 Q1560.8 1522.85 1560.8 1531.6 Q1560.8 1540.33 1557.72 1544.94 Q1554.66 1549.52 1548.85 1549.52 Q1543.04 1549.52 1539.96 1544.94 Q1536.91 1540.33 1536.91 1531.6 Q1536.91 1522.85 1539.96 1518.27 Q1543.04 1513.66 1548.85 1513.66 Z" fill="#000000" fill-rule="nonzero" fill-opacity="1" /><path clip-path="url(#clip530)" d="M1569.01 1542.97 L1573.9 1542.97 L1573.9 1548.85 L1569.01 1548.85 L1569.01 1542.97 Z" fill="#000000" fill-rule="nonzero" fill-opacity="1" /><path clip-path="url(#clip530)" d="M1594.08 1517.37 Q1590.47 1517.37 1588.64 1520.93 Q1586.84 1524.47 1586.84 1531.6 Q1586.84 1538.71 1588.64 1542.27 Q1590.47 1545.82 1594.08 1545.82 Q1597.72 1545.82 1599.52 1542.27 Q1601.35 1538.71 1601.35 1531.6 Q1601.35 1524.47 1599.52 1520.93 Q1597.72 1517.37 1594.08 1517.37 M1594.08 1513.66 Q1599.89 1513.66 1602.95 1518.27 Q1606.03 1522.85 1606.03 1531.6 Q1606.03 1540.33 1602.95 1544.94 Q1599.89 1549.52 1594.08 1549.52 Q1588.27 1549.52 1585.2 1544.94 Q1582.14 1540.33 1582.14 1531.6 Q1582.14 1522.85 1585.2 1518.27 Q1588.27 1513.66 1594.08 1513.66 Z" fill="#000000" fill-rule="nonzero" fill-opacity="1" /><path clip-path="url(#clip530)" d="M1965.3 1517.37 Q1961.69 1517.37 1959.86 1520.93 Q1958.05 1524.47 1958.05 1531.6 Q1958.05 1538.71 1959.86 1542.27 Q1961.69 1545.82 1965.3 1545.82 Q1968.93 1545.82 1970.74 1542.27 Q1972.56 1538.71 1972.56 1531.6 Q1972.56 1524.47 1970.74 1520.93 Q1968.93 1517.37 1965.3 1517.37 M1965.3 1513.66 Q1971.11 1513.66 1974.16 1518.27 Q1977.24 1522.85 1977.24 1531.6 Q1977.24 1540.33 1974.16 1544.94 Q1971.11 1549.52 1965.3 1549.52 Q1959.49 1549.52 1956.41 1544.94 Q1953.35 1540.33 1953.35 1531.6 Q1953.35 1522.85 1956.41 1518.27 Q1959.49 1513.66 1965.3 1513.66 Z" fill="#000000" fill-rule="nonzero" fill-opacity="1" /><path clip-path="url(#clip530)" d="M1985.46 1542.97 L1990.34 1542.97 L1990.34 1548.85 L1985.46 1548.85 L1985.46 1542.97 Z" fill="#000000" fill-rule="nonzero" fill-opacity="1" /><path clip-path="url(#clip530)" d="M2000.57 1514.29 L2018.93 1514.29 L2018.93 1518.22 L2004.86 1518.22 L2004.86 1526.7 Q2005.87 1526.35 2006.89 1526.19 Q2007.91 1526 2008.93 1526 Q2014.72 1526 2018.1 1529.17 Q2021.48 1532.34 2021.48 1537.76 Q2021.48 1543.34 2018 1546.44 Q2014.53 1549.52 2008.21 1549.52 Q2006.04 1549.52 2003.77 1549.15 Q2001.52 1548.78 1999.12 1548.04 L1999.12 1543.34 Q2001.2 1544.47 2003.42 1545.03 Q2005.64 1545.58 2008.12 1545.58 Q2012.12 1545.58 2014.46 1543.48 Q2016.8 1541.37 2016.8 1537.76 Q2016.8 1534.15 2014.46 1532.04 Q2012.12 1529.94 2008.12 1529.94 Q2006.24 1529.94 2004.37 1530.35 Q2002.52 1530.77 2000.57 1531.65 L2000.57 1514.29 Z" fill="#000000" fill-rule="nonzero" fill-opacity="1" /><polyline clip-path="url(#clip532)" style="stroke:#000000; stroke-linecap:round; stroke-linejoin:round; stroke-width:2; stroke-opacity:0.1; fill:none" points="112.177,1152.4 2352.76,1152.4 "/>
<polyline clip-path="url(#clip532)" style="stroke:#000000; stroke-linecap:round; stroke-linejoin:round; stroke-width:2; stroke-opacity:0.1; fill:none" points="112.177,802.189 2352.76,802.189 "/>
<polyline clip-path="url(#clip532)" style="stroke:#000000; stroke-linecap:round; stroke-linejoin:round; stroke-width:2; stroke-opacity:0.1; fill:none" points="112.177,451.974 2352.76,451.974 "/>
<polyline clip-path="url(#clip532)" style="stroke:#000000; stroke-linecap:round; stroke-linejoin:round; stroke-width:2; stroke-opacity:0.1; fill:none" points="112.177,101.76 2352.76,101.76 "/>
<polyline clip-path="url(#clip530)" style="stroke:#000000; stroke-linecap:round; stroke-linejoin:round; stroke-width:4; stroke-opacity:1; fill:none" points="112.177,1486.45 112.177,47.2441 "/>
<polyline clip-path="url(#clip530)" style="stroke:#000000; stroke-linecap:round; stroke-linejoin:round; stroke-width:4; stroke-opacity:1; fill:none" points="112.177,1152.4 131.075,1152.4 "/>
<polyline clip-path="url(#clip530)" style="stroke:#000000; stroke-linecap:round; stroke-linejoin:round; stroke-width:4; stroke-opacity:1; fill:none" points="112.177,802.189 131.075,802.189 "/>
<polyline clip-path="url(#clip530)" style="stroke:#000000; stroke-linecap:round; stroke-linejoin:round; stroke-width:4; stroke-opacity:1; fill:none" points="112.177,451.974 131.075,451.974 "/>
<polyline clip-path="url(#clip530)" style="stroke:#000000; stroke-linecap:round; stroke-linejoin:round; stroke-width:4; stroke-opacity:1; fill:none" points="112.177,101.76 131.075,101.76 "/>
<path clip-path="url(#clip530)" d="M59.8578 1165.75 L76.1772 1165.75 L76.1772 1169.68 L54.2328 1169.68 L54.2328 1165.75 Q56.8949 1162.99 61.4782 1158.36 Q66.0846 1153.71 67.2652 1152.37 Q69.5105 1149.85 70.3902 1148.11 Q71.2929 1146.35 71.2929 1144.66 Q71.2929 1141.91 69.3485 1140.17 Q67.4272 1138.43 64.3254 1138.43 Q62.1263 1138.43 59.6726 1139.2 Q57.2421 1139.96 54.4643 1141.51 L54.4643 1136.79 Q57.2884 1135.66 59.7421 1135.08 Q62.1958 1134.5 64.2328 1134.5 Q69.6031 1134.5 72.7976 1137.18 Q75.992 1139.87 75.992 1144.36 Q75.992 1146.49 75.1818 1148.41 Q74.3948 1150.31 72.2883 1152.9 Q71.7096 1153.57 68.6078 1156.79 Q65.5059 1159.98 59.8578 1165.75 Z" fill="#000000" fill-rule="nonzero" fill-opacity="1" /><path clip-path="url(#clip530)" d="M66.5939 788.983 L54.7884 807.432 L66.5939 807.432 L66.5939 788.983 M65.367 784.909 L71.2466 784.909 L71.2466 807.432 L76.1772 807.432 L76.1772 811.321 L71.2466 811.321 L71.2466 819.469 L66.5939 819.469 L66.5939 811.321 L50.9921 811.321 L50.9921 806.807 L65.367 784.909 Z" fill="#000000" fill-rule="nonzero" fill-opacity="1" /><path clip-path="url(#clip530)" d="M64.6495 450.111 Q61.5013 450.111 59.6495 452.264 Q57.8208 454.417 57.8208 458.167 Q57.8208 461.893 59.6495 464.069 Q61.5013 466.222 64.6495 466.222 Q67.7976 466.222 69.6263 464.069 Q71.4781 461.893 71.4781 458.167 Q71.4781 454.417 69.6263 452.264 Q67.7976 450.111 64.6495 450.111 M73.9318 435.458 L73.9318 439.718 Q72.1726 438.884 70.367 438.444 Q68.5846 438.005 66.8254 438.005 Q62.1958 438.005 59.7421 441.13 Q57.3115 444.255 56.9643 450.574 Q58.33 448.56 60.3902 447.495 Q62.4504 446.407 64.9272 446.407 Q70.1355 446.407 73.1448 449.579 Q76.1772 452.727 76.1772 458.167 Q76.1772 463.491 73.029 466.708 Q69.8809 469.926 64.6495 469.926 Q58.6541 469.926 55.4828 465.342 Q52.3116 460.736 52.3116 452.009 Q52.3116 443.815 56.2004 438.954 Q60.0893 434.069 66.6402 434.069 Q68.3994 434.069 70.1818 434.417 Q71.9874 434.764 73.9318 435.458 Z" fill="#000000" fill-rule="nonzero" fill-opacity="1" /><path clip-path="url(#clip530)" d="M64.3254 102.628 Q60.9921 102.628 59.0708 104.41 Q57.1726 106.193 57.1726 109.318 Q57.1726 112.443 59.0708 114.225 Q60.9921 116.008 64.3254 116.008 Q67.6587 116.008 69.58 114.225 Q71.5013 112.42 71.5013 109.318 Q71.5013 106.193 69.58 104.41 Q67.6819 102.628 64.3254 102.628 M59.6495 100.637 Q56.6402 99.8966 54.9504 97.8364 Q53.2838 95.7762 53.2838 92.8133 Q53.2838 88.6698 56.2236 86.2624 Q59.1865 83.855 64.3254 83.855 Q69.4874 83.855 72.4272 86.2624 Q75.367 88.6698 75.367 92.8133 Q75.367 95.7762 73.6772 97.8364 Q72.0105 99.8966 69.0244 100.637 Q72.404 101.424 74.279 103.716 Q76.1772 106.008 76.1772 109.318 Q76.1772 114.341 73.0985 117.026 Q70.0429 119.711 64.3254 119.711 Q58.6078 119.711 55.5291 117.026 Q52.4736 114.341 52.4736 109.318 Q52.4736 106.008 54.3717 103.716 Q56.2699 101.424 59.6495 100.637 M57.9365 93.2531 Q57.9365 95.9382 59.6032 97.4429 Q61.293 98.9475 64.3254 98.9475 Q67.3346 98.9475 69.0244 97.4429 Q70.7374 95.9382 70.7374 93.2531 Q70.7374 90.5679 69.0244 89.0633 Q67.3346 87.5587 64.3254 87.5587 Q61.293 87.5587 59.6032 89.0633 Q57.9365 90.5679 57.9365 93.2531 Z" fill="#000000" fill-rule="nonzero" fill-opacity="1" /><circle clip-path="url(#clip532)" cx="2289.34" cy="1346.77" r="14.4" fill="#808080" fill-rule="evenodd" fill-opacity="1" stroke="#000000" stroke-opacity="1" stroke-width="3.2"/>
<circle clip-path="url(#clip532)" cx="175.59" cy="87.9763" r="14.4" fill="#808080" fill-rule="evenodd" fill-opacity="1" stroke="#000000" stroke-opacity="1" stroke-width="3.2"/>
<circle clip-path="url(#clip532)" cx="1588.1" cy="1445.72" r="14.4" fill="#808080" fill-rule="evenodd" fill-opacity="1" stroke="#000000" stroke-opacity="1" stroke-width="3.2"/>
<circle clip-path="url(#clip532)" cx="1518.82" cy="1423.29" r="14.4" fill="#808080" fill-rule="evenodd" fill-opacity="1" stroke="#000000" stroke-opacity="1" stroke-width="3.2"/>
<path clip-path="url(#clip530)" d="M2293.64 1354.2 Q2284.6 1354.2 2281.12 1356.27 Q2277.64 1358.34 2277.64 1363.32 Q2277.64 1367.29 2280.23 1369.64 Q2282.86 1371.95 2287.36 1371.95 Q2293.56 1371.95 2297.28 1367.57 Q2301.05 1363.16 2301.05 1355.87 L2301.05 1354.2 L2293.64 1354.2 M2308.5 1351.13 L2308.5 1377.01 L2301.05 1377.01 L2301.05 1370.12 Q2298.5 1374.26 2294.69 1376.24 Q2290.88 1378.19 2285.37 1378.19 Q2278.41 1378.19 2274.27 1374.3 Q2270.18 1370.37 2270.18 1363.81 Q2270.18 1356.15 2275.29 1352.26 Q2280.43 1348.37 2290.6 1348.37 L2301.05 1348.37 L2301.05 1347.64 Q2301.05 1342.5 2297.65 1339.7 Q2294.29 1336.87 2288.17 1336.87 Q2284.28 1336.87 2280.59 1337.8 Q2276.91 1338.73 2273.5 1340.59 L2273.5 1333.71 Q2277.6 1332.13 2281.44 1331.36 Q2285.29 1330.55 2288.94 1330.55 Q2298.78 1330.55 2303.64 1335.65 Q2308.5 1340.76 2308.5 1351.13 Z" fill="#000000" fill-rule="nonzero" fill-opacity="1" /><path clip-path="url(#clip530)" d="M188.148 95.5717 Q188.148 87.3484 184.745 82.6898 Q181.383 77.9908 175.468 77.9908 Q169.554 77.9908 166.151 82.6898 Q162.789 87.3484 162.789 95.5717 Q162.789 103.795 166.151 108.494 Q169.554 113.153 175.468 113.153 Q181.383 113.153 184.745 108.494 Q188.148 103.795 188.148 95.5717 M162.789 79.7327 Q165.138 75.6818 168.703 73.7373 Q172.309 71.7524 177.291 71.7524 Q185.555 71.7524 190.7 78.3149 Q195.885 84.8773 195.885 95.5717 Q195.885 106.266 190.7 112.829 Q185.555 119.391 177.291 119.391 Q172.309 119.391 168.703 117.447 Q165.138 115.462 162.789 111.411 L162.789 118.216 L155.295 118.216 L155.295 55.1842 L162.789 55.1842 L162.789 79.7327 Z" fill="#000000" fill-rule="nonzero" fill-opacity="1" /><path clip-path="url(#clip530)" d="M1606.04 1432.33 L1606.04 1439.3 Q1602.88 1437.55 1599.68 1436.7 Q1596.52 1435.81 1593.28 1435.81 Q1586.03 1435.81 1582.02 1440.43 Q1578.01 1445.01 1578.01 1453.31 Q1578.01 1461.62 1582.02 1466.23 Q1586.03 1470.81 1593.28 1470.81 Q1596.52 1470.81 1599.68 1469.96 Q1602.88 1469.07 1606.04 1467.33 L1606.04 1474.21 Q1602.93 1475.67 1599.56 1476.4 Q1596.24 1477.13 1592.47 1477.13 Q1582.23 1477.13 1576.19 1470.69 Q1570.15 1464.25 1570.15 1453.31 Q1570.15 1442.21 1576.23 1435.85 Q1582.35 1429.49 1592.96 1429.49 Q1596.4 1429.49 1599.68 1430.22 Q1602.97 1430.91 1606.04 1432.33 Z" fill="#000000" fill-rule="nonzero" fill-opacity="1" /><path clip-path="url(#clip530)" d="M1531.64 1415.04 L1531.64 1390.5 L1539.09 1390.5 L1539.09 1453.53 L1531.64 1453.53 L1531.64 1446.72 Q1529.29 1450.77 1525.69 1452.76 Q1522.12 1454.7 1517.1 1454.7 Q1508.88 1454.7 1503.69 1448.14 Q1498.55 1441.58 1498.55 1430.88 Q1498.55 1420.19 1503.69 1413.63 Q1508.88 1407.06 1517.1 1407.06 Q1522.12 1407.06 1525.69 1409.05 Q1529.29 1410.99 1531.64 1415.04 M1506.24 1430.88 Q1506.24 1439.11 1509.6 1443.81 Q1513.01 1448.46 1518.92 1448.46 Q1524.84 1448.46 1528.24 1443.81 Q1531.64 1439.11 1531.64 1430.88 Q1531.64 1422.66 1528.24 1418 Q1524.84 1413.3 1518.92 1413.3 Q1513.01 1413.3 1509.6 1418 Q1506.24 1422.66 1506.24 1430.88 Z" fill="#000000" fill-rule="nonzero" fill-opacity="1" /><path clip-path="url(#clip530)" d="M2001.58 198.898 L2278.07 198.898 L2278.07 95.2176 L2001.58 95.2176  Z" fill="#ffffff" fill-rule="evenodd" fill-opacity="1"/>
<polyline clip-path="url(#clip530)" style="stroke:#000000; stroke-linecap:round; stroke-linejoin:round; stroke-width:4; stroke-opacity:1; fill:none" points="2001.58,198.898 2278.07,198.898 2278.07,95.2176 2001.58,95.2176 2001.58,198.898 "/>
<circle clip-path="url(#clip530)" cx="2101.16" cy="147.058" r="20.48" fill="#808080" fill-rule="evenodd" fill-opacity="1" stroke="#000000" stroke-opacity="1" stroke-width="4.55111"/>
<path clip-path="url(#clip530)" d="M2214.59 166.745 Q2212.78 171.375 2211.07 172.787 Q2209.36 174.199 2206.49 174.199 L2203.08 174.199 L2203.08 170.634 L2205.58 170.634 Q2207.34 170.634 2208.31 169.8 Q2209.29 168.967 2210.47 165.865 L2211.23 163.921 L2200.74 138.412 L2205.26 138.412 L2213.36 158.689 L2221.46 138.412 L2225.98 138.412 L2214.59 166.745 Z" fill="#000000" fill-rule="nonzero" fill-opacity="1" /><path clip-path="url(#clip530)" d="M2233.27 160.402 L2240.91 160.402 L2240.91 134.037 L2232.6 135.703 L2232.6 131.444 L2240.86 129.778 L2245.54 129.778 L2245.54 160.402 L2253.17 160.402 L2253.17 164.338 L2233.27 164.338 L2233.27 160.402 Z" fill="#000000" fill-rule="nonzero" fill-opacity="1" /></svg>
