<?xml version="1.0" encoding="utf-8"?>
<svg xmlns="http://www.w3.org/2000/svg" xmlns:xlink="http://www.w3.org/1999/xlink" width="600" height="400" viewBox="0 0 2400 1600">
<defs>
  <clipPath id="clip610">
    <rect x="0" y="0" width="2400" height="1600"/>
  </clipPath>
</defs>
<path clip-path="url(#clip610)" d="M0 1600 L2400 1600 L2400 0 L0 0  Z" fill="#ffffff" fill-rule="evenodd" fill-opacity="1"/>
<defs>
  <clipPath id="clip611">
    <rect x="480" y="0" width="1681" height="1600"/>
  </clipPath>
</defs>
<path clip-path="url(#clip610)" d="M112.177 1486.45 L2352.76 1486.45 L2352.76 47.2441 L112.177 47.2441  Z" fill="#ffffff" fill-rule="evenodd" fill-opacity="1"/>
<defs>
  <clipPath id="clip612">
    <rect x="112" y="47" width="2242" height="1440"/>
  </clipPath>
</defs>
<polyline clip-path="url(#clip612)" style="stroke:#000000; stroke-linecap:round; stroke-linejoin:round; stroke-width:2; stroke-opacity:0.1; fill:none" points="462.752,1486.45 462.752,47.2441 "/>
<polyline clip-path="url(#clip612)" style="stroke:#000000; stroke-linecap:round; stroke-linejoin:round; stroke-width:2; stroke-opacity:0.1; fill:none" points="1023.08,1486.45 1023.08,47.2441 "/>
<polyline clip-path="url(#clip612)" style="stroke:#000000; stroke-linecap:round; stroke-linejoin:round; stroke-width:2; stroke-opacity:0.1; fill:none" points="1583.4,1486.45 1583.4,47.2441 "/>
<polyline clip-path="url(#clip612)" style="stroke:#000000; stroke-linecap:round; stroke-linejoin:round; stroke-width:2; stroke-opacity:0.1; fill:none" points="2143.72,1486.45 2143.72,47.2441 "/>
<polyline clip-path="url(#clip610)" style="stroke:#000000; stroke-linecap:round; stroke-linejoin:round; stroke-width:4; stroke-opacity:1; fill:none" points="112.177,1486.45 2352.76,1486.45 "/>
<polyline clip-path="url(#clip610)" style="stroke:#000000; stroke-linecap:round; stroke-linejoin:round; stroke-width:4; stroke-opacity:1; fill:none" points="462.752,1486.45 462.752,1467.55 "/>
<polyline clip-path="url(#clip610)" style="stroke:#000000; stroke-linecap:round; stroke-linejoin:round; stroke-width:4; stroke-opacity:1; fill:none" points="1023.08,1486.45 1023.08,1467.55 "/>
<polyline clip-path="url(#clip610)" style="stroke:#000000; stroke-linecap:round; stroke-linejoin:round; stroke-width:4; stroke-opacity:1; fill:none" points="1583.4,1486.45 1583.4,1467.55 "/>
<polyline clip-path="url(#clip610)" style="stroke:#000000; stroke-linecap:round; stroke-linejoin:round; stroke-width:4; stroke-opacity:1; fill:none" points="2143.72,1486.45 2143.72,1467.55 "/>
<path clip-path="url(#clip610)" d="M409.281 1532.02 L438.956 1532.02 L438.956 1535.95 L409.281 1535.95 L409.281 1532.02 Z" fill="#000000" fill-rule="nonzero" fill-opacity="1" /><path clip-path="url(#clip610)" d="M449.859 1544.91 L457.498 1544.91 L457.498 1518.55 L449.188 1520.21 L449.188 1515.95 L457.452 1514.29 L462.127 1514.29 L462.127 1544.91 L469.766 1544.91 L469.766 1548.85 L449.859 1548.85 L449.859 1544.91 Z" fill="#000000" fill-rule="nonzero" fill-opacity="1" /><path clip-path="url(#clip610)" d="M479.211 1542.97 L484.095 1542.97 L484.095 1548.85 L479.211 1548.85 L479.211 1542.97 Z" fill="#000000" fill-rule="nonzero" fill-opacity="1" /><path clip-path="url(#clip610)" d="M504.28 1517.37 Q500.669 1517.37 498.84 1520.93 Q497.035 1524.47 497.035 1531.6 Q497.035 1538.71 498.84 1542.27 Q500.669 1545.82 504.28 1545.82 Q507.914 1545.82 509.72 1542.27 Q511.549 1538.71 511.549 1531.6 Q511.549 1524.47 509.72 1520.93 Q507.914 1517.37 504.28 1517.37 M504.28 1513.66 Q510.09 1513.66 513.146 1518.27 Q516.224 1522.85 516.224 1531.6 Q516.224 1540.33 513.146 1544.94 Q510.09 1549.52 504.28 1549.52 Q498.47 1549.52 495.391 1544.94 Q492.336 1540.33 492.336 1531.6 Q492.336 1522.85 495.391 1518.27 Q498.47 1513.66 504.28 1513.66 Z" fill="#000000" fill-rule="nonzero" fill-opacity="1" /><path clip-path="url(#clip610)" d="M970.102 1532.02 L999.778 1532.02 L999.778 1535.95 L970.102 1535.95 L970.102 1532.02 Z" fill="#000000" fill-rule="nonzero" fill-opacity="1" /><path clip-path="url(#clip610)" d="M1019.87 1517.37 Q1016.26 1517.37 1014.43 1520.93 Q1012.62 1524.47 1012.62 1531.6 Q1012.62 1538.71 1014.43 1542.27 Q1016.26 1545.82 1019.87 1545.82 Q1023.5 1545.82 1025.31 1542.27 Q1027.14 1538.71 1027.14 1531.6 Q1027.14 1524.47 1025.31 1520.93 Q1023.5 1517.37 1019.87 1517.37 M1019.87 1513.66 Q1025.68 1513.66 1028.74 1518.27 Q1031.81 1522.85 1031.81 1531.6 Q1031.81 1540.33 1028.74 1544.94 Q1025.68 1549.52 1019.87 1549.52 Q1014.06 1549.52 1010.98 1544.94 Q1007.93 1540.33 1007.93 1531.6 Q1007.93 1522.85 1010.98 1518.27 Q1014.06 1513.66 1019.87 1513.66 Z" fill="#000000" fill-rule="nonzero" fill-opacity="1" /><path clip-path="url(#clip610)" d="M1040.03 1542.97 L1044.92 1542.97 L1044.92 1548.85 L1040.03 1548.85 L1040.03 1542.97 Z" fill="#000000" fill-rule="nonzero" fill-opacity="1" /><path clip-path="url(#clip610)" d="M1055.15 1514.29 L1073.5 1514.29 L1073.5 1518.22 L1059.43 1518.22 L1059.43 1526.7 Q1060.45 1526.35 1061.47 1526.19 Q1062.49 1526 1063.5 1526 Q1069.29 1526 1072.67 1529.17 Q1076.05 1532.34 1076.05 1537.76 Q1076.05 1543.34 1072.58 1546.44 Q1069.11 1549.52 1062.79 1549.52 Q1060.61 1549.52 1058.34 1549.15 Q1056.1 1548.78 1053.69 1548.04 L1053.69 1543.34 Q1055.77 1544.47 1057.99 1545.03 Q1060.22 1545.58 1062.69 1545.58 Q1066.7 1545.58 1069.04 1543.48 Q1071.37 1541.37 1071.37 1537.76 Q1071.37 1534.15 1069.04 1532.04 Q1066.7 1529.94 1062.69 1529.94 Q1060.82 1529.94 1058.94 1530.35 Q1057.09 1530.77 1055.15 1531.65 L1055.15 1514.29 Z" fill="#000000" fill-rule="nonzero" fill-opacity="1" /><path clip-path="url(#clip610)" d="M1560.78 1517.37 Q1557.17 1517.37 1555.34 1520.93 Q1553.54 1524.47 1553.54 1531.6 Q1553.54 1538.71 1555.34 1542.27 Q1557.17 1545.82 1560.78 1545.82 Q1564.42 1545.82 1566.22 1542.27 Q1568.05 1538.71 1568.05 1531.6 Q1568.05 1524.47 1566.22 1520.93 Q1564.42 1517.37 1560.78 1517.37 M1560.78 1513.66 Q1566.59 1513.66 1569.65 1518.27 Q1572.73 1522.85 1572.73 1531.6 Q1572.73 1540.33 1569.65 1544.94 Q1566.59 1549.52 1560.78 1549.52 Q1554.97 1549.52 1551.9 1544.94 Q1548.84 1540.33 1548.84 1531.6 Q1548.84 1522.85 1551.9 1518.27 Q1554.97 1513.66 1560.78 1513.66 Z" fill="#000000" fill-rule="nonzero" fill-opacity="1" /><path clip-path="url(#clip610)" d="M1580.95 1542.97 L1585.83 1542.97 L1585.83 1548.85 L1580.95 1548.85 L1580.95 1542.97 Z" fill="#000000" fill-rule="nonzero" fill-opacity="1" /><path clip-path="url(#clip610)" d="M1606.02 1517.37 Q1602.4 1517.37 1600.58 1520.93 Q1598.77 1524.47 1598.77 1531.6 Q1598.77 1538.71 1600.58 1542.27 Q1602.4 1545.82 1606.02 1545.82 Q1609.65 1545.82 1611.45 1542.27 Q1613.28 1538.71 1613.28 1531.6 Q1613.28 1524.47 1611.45 1520.93 Q1609.65 1517.37 1606.02 1517.37 M1606.02 1513.66 Q1611.83 1513.66 1614.88 1518.27 Q1617.96 1522.85 1617.96 1531.6 Q1617.96 1540.33 1614.88 1544.94 Q1611.83 1549.52 1606.02 1549.52 Q1600.21 1549.52 1597.13 1544.94 Q1594.07 1540.33 1594.07 1531.6 Q1594.07 1522.85 1597.13 1518.27 Q1600.21 1513.66 1606.02 1513.66 Z" fill="#000000" fill-rule="nonzero" fill-opacity="1" /><path clip-path="url(#clip610)" d="M2121.61 1517.37 Q2117.99 1517.37 2116.17 1520.93 Q2114.36 1524.47 2114.36 1531.6 Q2114.36 1538.71 2116.17 1542.27 Q2117.99 1545.82 2121.61 1545.82 Q2125.24 1545.82 2127.04 1542.27 Q2128.87 1538.71 2128.87 1531.6 Q2128.87 1524.47 2127.04 1520.93 Q2125.24 1517.37 2121.61 1517.37 M2121.61 1513.66 Q2127.42 1513.66 2130.47 1518.27 Q2133.55 1522.85 2133.55 1531.6 Q2133.55 1540.33 2130.47 1544.94 Q2127.42 1549.52 2121.61 1549.52 Q2115.8 1549.52 2112.72 1544.94 Q2109.66 1540.33 2109.66 1531.6 Q2109.66 1522.85 2112.72 1518.27 Q2115.8 1513.66 2121.61 1513.66 Z" fill="#000000" fill-rule="nonzero" fill-opacity="1" /><path clip-path="url(#clip610)" d="M2141.77 1542.97 L2146.65 1542.97 L2146.65 1548.85 L2141.77 1548.85 L2141.77 1542.97 Z" fill="#000000" fill-rule="nonzero" fill-opacity="1" /><path clip-path="url(#clip610)" d="M2156.88 1514.29 L2175.24 1514.29 L2175.24 1518.22 L2161.17 1518.22 L2161.17 1526.7 Q2162.18 1526.35 2163.2 1526.19 Q2164.22 1526 2165.24 1526 Q2171.03 1526 2174.41 1529.17 Q2177.79 1532.34 2177.79 1537.76 Q2177.79 1543.34 2174.31 1546.44 Q2170.84 1549.52 2164.52 1549.52 Q2162.35 1549.52 2160.08 1549.15 Q2157.83 1548.78 2155.42 1548.04 L2155.42 1543.34 Q2157.51 1544.47 2159.73 1545.03 Q2161.95 1545.58 2164.43 1545.58 Q2168.43 1545.58 2170.77 1543.48 Q2173.11 1541.37 2173.11 1537.76 Q2173.11 1534.15 2170.77 1532.04 Q2168.43 1529.94 2164.43 1529.94 Q2162.55 1529.94 2160.68 1530.35 Q2158.83 1530.77 2156.88 1531.65 L2156.88 1514.29 Z" fill="#000000" fill-rule="nonzero" fill-opacity="1" /><polyline clip-path="url(#clip612)" style="stroke:#000000; stroke-linecap:round; stroke-linejoin:round; stroke-width:2; stroke-opacity:0.1; fill:none" points="112.177,1182.57 2352.76,1182.57 "/>
<polyline clip-path="url(#clip612)" style="stroke:#000000; stroke-linecap:round; stroke-linejoin:round; stroke-width:2; stroke-opacity:0.1; fill:none" points="112.177,859.808 2352.76,859.808 "/>
<polyline clip-path="url(#clip612)" style="stroke:#000000; stroke-linecap:round; stroke-linejoin:round; stroke-width:2; stroke-opacity:0.1; fill:none" points="112.177,537.047 2352.76,537.047 "/>
<polyline clip-path="url(#clip612)" style="stroke:#000000; stroke-linecap:round; stroke-linejoin:round; stroke-width:2; stroke-opacity:0.1; fill:none" points="112.177,214.286 2352.76,214.286 "/>
<polyline clip-path="url(#clip610)" style="stroke:#000000; stroke-linecap:round; stroke-linejoin:round; stroke-width:4; stroke-opacity:1; fill:none" points="112.177,1486.45 112.177,47.2441 "/>
<polyline clip-path="url(#clip610)" style="stroke:#000000; stroke-linecap:round; stroke-linejoin:round; stroke-width:4; stroke-opacity:1; fill:none" points="112.177,1182.57 131.075,1182.57 "/>
<polyline clip-path="url(#clip610)" style="stroke:#000000; stroke-linecap:round; stroke-linejoin:round; stroke-width:4; stroke-opacity:1; fill:none" points="112.177,859.808 131.075,859.808 "/>
<polyline clip-path="url(#clip610)" style="stroke:#000000; stroke-linecap:round; stroke-linejoin:round; stroke-width:4; stroke-opacity:1; fill:none" points="112.177,537.047 131.075,537.047 "/>
<polyline clip-path="url(#clip610)" style="stroke:#000000; stroke-linecap:round; stroke-linejoin:round; stroke-width:4; stroke-opacity:1; fill:none" points="112.177,214.286 131.075,214.286 "/>
<path clip-path="url(#clip610)" d="M56.2699 1195.91 L63.9087 1195.91 L63.9087 1169.55 L55.5986 1171.22 L55.5986 1166.96 L63.8624 1165.29 L68.5383 1165.29 L68.5383 1195.91 L76.1772 1195.91 L76.1772 1199.85 L56.2699 1199.85 L56.2699 1195.91 Z" fill="#000000" fill-rule="nonzero" fill-opacity="1" /><path clip-path="url(#clip610)" d="M59.8578 873.153 L76.1772 873.153 L76.1772 877.088 L54.2328 877.088 L54.2328 873.153 Q56.8949 870.398 61.4782 865.769 Q66.0846 861.116 67.2652 859.774 Q69.5105 857.25 70.3902 855.514 Q71.2929 853.755 71.2929 852.065 Q71.2929 849.311 69.3485 847.575 Q67.4272 845.838 64.3254 845.838 Q62.1263 845.838 59.6726 846.602 Q57.2421 847.366 54.4643 848.917 L54.4643 844.195 Q57.2884 843.061 59.7421 842.482 Q62.1958 841.903 64.2328 841.903 Q69.6031 841.903 72.7976 844.588 Q75.992 847.274 75.992 851.764 Q75.992 853.894 75.1818 855.815 Q74.3948 857.713 72.2883 860.306 Q71.7096 860.977 68.6078 864.195 Q65.5059 867.389 59.8578 873.153 Z" fill="#000000" fill-rule="nonzero" fill-opacity="1" /><path clip-path="url(#clip610)" d="M69.0476 535.693 Q72.404 536.41 74.279 538.679 Q76.1772 540.947 76.1772 544.281 Q76.1772 549.396 72.6587 552.197 Q69.1402 554.998 62.6587 554.998 Q60.4828 554.998 58.168 554.558 Q55.8764 554.142 53.4227 553.285 L53.4227 548.771 Q55.3671 549.906 57.6819 550.484 Q59.9967 551.063 62.5198 551.063 Q66.918 551.063 69.2096 549.327 Q71.5244 547.591 71.5244 544.281 Q71.5244 541.225 69.3717 539.512 Q67.242 537.776 63.4226 537.776 L59.3949 537.776 L59.3949 533.934 L63.6078 533.934 Q67.0569 533.934 68.8855 532.568 Q70.7142 531.179 70.7142 528.586 Q70.7142 525.924 68.8161 524.512 Q66.9411 523.077 63.4226 523.077 Q61.5013 523.077 59.3023 523.494 Q57.1032 523.91 54.4643 524.79 L54.4643 520.623 Q57.1264 519.883 59.4412 519.512 Q61.7791 519.142 63.8393 519.142 Q69.1633 519.142 72.2652 521.572 Q75.367 523.98 75.367 528.1 Q75.367 530.971 73.7235 532.961 Q72.08 534.929 69.0476 535.693 Z" fill="#000000" fill-rule="nonzero" fill-opacity="1" /><path clip-path="url(#clip610)" d="M66.5939 201.08 L54.7884 219.529 L66.5939 219.529 L66.5939 201.08 M65.367 197.006 L71.2466 197.006 L71.2466 219.529 L76.1772 219.529 L76.1772 223.418 L71.2466 223.418 L71.2466 231.566 L66.5939 231.566 L66.5939 223.418 L50.9921 223.418 L50.9921 218.904 L65.367 197.006 Z" fill="#000000" fill-rule="nonzero" fill-opacity="1" /><circle clip-path="url(#clip612)" cx="2289.34" cy="1320.69" r="14.4" fill="#808080" fill-rule="evenodd" fill-opacity="1" stroke="#000000" stroke-opacity="1" stroke-width="3.2"/>
<circle clip-path="url(#clip612)" cx="175.59" cy="87.9763" r="14.4" fill="#808080" fill-rule="evenodd" fill-opacity="1" stroke="#000000" stroke-opacity="1" stroke-width="3.2"/>
<circle clip-path="url(#clip612)" cx="1670" cy="1445.72" r="14.4" fill="#808080" fill-rule="evenodd" fill-opacity="1" stroke="#000000" stroke-opacity="1" stroke-width="3.2"/>
<circle clip-path="url(#clip612)" cx="1472.92" cy="1426.41" r="14.4" fill="#808080" fill-rule="evenodd" fill-opacity="1" stroke="#000000" stroke-opacity="1" stroke-width="3.2"/>
<path clip-path="url(#clip610)" d="M2293.64 1328.12 Q2284.6 1328.12 2281.12 1330.19 Q2277.64 1332.25 2277.64 1337.24 Q2277.64 1341.21 2280.23 1343.56 Q2282.86 1345.87 2287.36 1345.87 Q2293.56 1345.87 2297.28 1341.49 Q2301.05 1337.08 2301.05 1329.78 L2301.05 1328.12 L2293.64 1328.12 M2308.5 1325.04 L2308.5 1350.93 L2301.05 1350.93 L2301.05 1344.04 Q2298.5 1348.17 2294.69 1350.16 Q2290.88 1352.1 2285.37 1352.1 Q2278.41 1352.1 2274.27 1348.22 Q2270.18 1344.29 2270.18 1337.72 Q2270.18 1330.07 2275.29 1326.18 Q2280.43 1322.29 2290.6 1322.29 L2301.05 1322.29 L2301.05 1321.56 Q2301.05 1316.42 2297.65 1313.62 Q2294.29 1310.78 2288.17 1310.78 Q2284.28 1310.78 2280.59 1311.72 Q2276.91 1312.65 2273.5 1314.51 L2273.5 1307.63 Q2277.6 1306.05 2281.44 1305.28 Q2285.29 1304.47 2288.94 1304.47 Q2298.78 1304.47 2303.64 1309.57 Q2308.5 1314.67 2308.5 1325.04 Z" fill="#000000" fill-rule="nonzero" fill-opacity="1" /><path clip-path="url(#clip610)" d="M188.148 95.5717 Q188.148 87.3484 184.745 82.6898 Q181.383 77.9908 175.468 77.9908 Q169.554 77.9908 166.151 82.6898 Q162.789 87.3484 162.789 95.5717 Q162.789 103.795 166.151 108.494 Q169.554 113.153 175.468 113.153 Q181.383 113.153 184.745 108.494 Q188.148 103.795 188.148 95.5717 M162.789 79.7327 Q165.138 75.6818 168.703 73.7373 Q172.309 71.7524 177.291 71.7524 Q185.555 71.7524 190.7 78.3149 Q195.885 84.8773 195.885 95.5717 Q195.885 106.266 190.7 112.829 Q185.555 119.391 177.291 119.391 Q172.309 119.391 168.703 117.447 Q165.138 115.462 162.789 111.411 L162.789 118.216 L155.295 118.216 L155.295 55.1842 L162.789 55.1842 L162.789 79.7327 Z" fill="#000000" fill-rule="nonzero" fill-opacity="1" /><path clip-path="url(#clip610)" d="M1687.94 1432.33 L1687.94 1439.3 Q1684.78 1437.55 1681.58 1436.7 Q1678.42 1435.81 1675.18 1435.81 Q1667.93 1435.81 1663.92 1440.43 Q1659.91 1445.01 1659.91 1453.31 Q1659.91 1461.62 1663.92 1466.23 Q1667.93 1470.81 1675.18 1470.81 Q1678.42 1470.81 1681.58 1469.96 Q1684.78 1469.07 1687.94 1467.33 L1687.94 1474.21 Q1684.82 1475.67 1681.46 1476.4 Q1678.14 1477.13 1674.37 1477.13 Q1664.12 1477.13 1658.09 1470.69 Q1652.05 1464.25 1652.05 1453.31 Q1652.05 1442.21 1658.13 1435.85 Q1664.25 1429.49 1674.86 1429.49 Q1678.3 1429.49 1681.58 1430.22 Q1684.86 1430.91 1687.94 1432.33 Z" fill="#000000" fill-rule="nonzero" fill-opacity="1" /><path clip-path="url(#clip610)" d="M1485.74 1418.16 L1485.74 1393.62 L1493.2 1393.62 L1493.2 1456.65 L1485.74 1456.65 L1485.74 1449.84 Q1483.39 1453.89 1479.79 1455.88 Q1476.22 1457.82 1471.2 1457.82 Q1462.98 1457.82 1457.79 1451.26 Q1452.65 1444.7 1452.65 1434 Q1452.65 1423.31 1457.79 1416.75 Q1462.98 1410.18 1471.2 1410.18 Q1476.22 1410.18 1479.79 1412.17 Q1483.39 1414.11 1485.74 1418.16 M1460.35 1434 Q1460.35 1442.23 1463.71 1446.93 Q1467.11 1451.58 1473.02 1451.58 Q1478.94 1451.58 1482.34 1446.93 Q1485.74 1442.23 1485.74 1434 Q1485.74 1425.78 1482.34 1421.12 Q1478.94 1416.42 1473.02 1416.42 Q1467.11 1416.42 1463.71 1421.12 Q1460.35 1425.78 1460.35 1434 Z" fill="#000000" fill-rule="nonzero" fill-opacity="1" /><path clip-path="url(#clip610)" d="M2001.58 198.898 L2278.07 198.898 L2278.07 95.2176 L2001.58 95.2176  Z" fill="#ffffff" fill-rule="evenodd" fill-opacity="1"/>
<polyline clip-path="url(#clip610)" style="stroke:#000000; stroke-linecap:round; stroke-linejoin:round; stroke-width:4; stroke-opacity:1; fill:none" points="2001.58,198.898 2278.07,198.898 2278.07,95.2176 2001.58,95.2176 2001.58,198.898 "/>
<circle clip-path="url(#clip610)" cx="2101.16" cy="147.058" r="20.48" fill="#808080" fill-rule="evenodd" fill-opacity="1" stroke="#000000" stroke-opacity="1" stroke-width="4.55111"/>
<path clip-path="url(#clip610)" d="M2214.59 166.745 Q2212.78 171.375 2211.07 172.787 Q2209.36 174.199 2206.49 174.199 L2203.08 174.199 L2203.08 170.634 L2205.58 170.634 Q2207.34 170.634 2208.31 169.8 Q2209.29 168.967 2210.47 165.865 L2211.23 163.921 L2200.74 138.412 L2205.26 138.412 L2213.36 158.689 L2221.46 138.412 L2225.98 138.412 L2214.59 166.745 Z" fill="#000000" fill-rule="nonzero" fill-opacity="1" /><path clip-path="url(#clip610)" d="M2233.27 160.402 L2240.91 160.402 L2240.91 134.037 L2232.6 135.703 L2232.6 131.444 L2240.86 129.778 L2245.54 129.778 L2245.54 160.402 L2253.17 160.402 L2253.17 164.338 L2233.27 164.338 L2233.27 160.402 Z" fill="#000000" fill-rule="nonzero" fill-opacity="1" /></svg>
