<?xml version="1.0" encoding="utf-8"?>
<svg xmlns="http://www.w3.org/2000/svg" xmlns:xlink="http://www.w3.org/1999/xlink" width="600" height="400" viewBox="0 0 2400 1600">
<defs>
  <clipPath id="clip140">
    <rect x="0" y="0" width="2400" height="1600"/>
  </clipPath>
</defs>
<path clip-path="url(#clip140)" d="M0 1600 L2400 1600 L2400 0 L0 0  Z" fill="#ffffff" fill-rule="evenodd" fill-opacity="1"/>
<defs>
  <clipPath id="clip141">
    <rect x="480" y="0" width="1681" height="1600"/>
  </clipPath>
</defs>
<path clip-path="url(#clip140)" d="M156.598 1486.45 L2352.76 1486.45 L2352.76 47.2441 L156.598 47.2441  Z" fill="#ffffff" fill-rule="evenodd" fill-opacity="1"/>
<defs>
  <clipPath id="clip142">
    <rect x="156" y="47" width="2197" height="1440"/>
  </clipPath>
</defs>
<polyline clip-path="url(#clip142)" style="stroke:#000000; stroke-linecap:round; stroke-linejoin:round; stroke-width:2; stroke-opacity:0.1; fill:none" points="411.559,1486.45 411.559,47.2441 "/>
<polyline clip-path="url(#clip142)" style="stroke:#000000; stroke-linecap:round; stroke-linejoin:round; stroke-width:2; stroke-opacity:0.1; fill:none" points="926.035,1486.45 926.035,47.2441 "/>
<polyline clip-path="url(#clip142)" style="stroke:#000000; stroke-linecap:round; stroke-linejoin:round; stroke-width:2; stroke-opacity:0.1; fill:none" points="1440.51,1486.45 1440.51,47.2441 "/>
<polyline clip-path="url(#clip142)" style="stroke:#000000; stroke-linecap:round; stroke-linejoin:round; stroke-width:2; stroke-opacity:0.1; fill:none" points="1954.99,1486.45 1954.99,47.2441 "/>
<polyline clip-path="url(#clip142)" style="stroke:#000000; stroke-linecap:round; stroke-linejoin:round; stroke-width:2; stroke-opacity:0.1; fill:none" points="156.598,1448.34 2352.76,1448.34 "/>
<polyline clip-path="url(#clip142)" style="stroke:#000000; stroke-linecap:round; stroke-linejoin:round; stroke-width:2; stroke-opacity:0.1; fill:none" points="156.598,1212.93 2352.76,1212.93 "/>
<polyline clip-path="url(#clip142)" style="stroke:#000000; stroke-linecap:round; stroke-linejoin:round; stroke-width:2; stroke-opacity:0.1; fill:none" points="156.598,977.515 2352.76,977.515 "/>
<polyline clip-path="url(#clip142)" style="stroke:#000000; stroke-linecap:round; stroke-linejoin:round; stroke-width:2; stroke-opacity:0.1; fill:none" points="156.598,742.105 2352.76,742.105 "/>
<polyline clip-path="url(#clip142)" style="stroke:#000000; stroke-linecap:round; stroke-linejoin:round; stroke-width:2; stroke-opacity:0.1; fill:none" points="156.598,506.694 2352.76,506.694 "/>
<polyline clip-path="url(#clip142)" style="stroke:#000000; stroke-linecap:round; stroke-linejoin:round; stroke-width:2; stroke-opacity:0.1; fill:none" points="156.598,271.284 2352.76,271.284 "/>
<polyline clip-path="url(#clip140)" style="stroke:#000000; stroke-linecap:round; stroke-linejoin:round; stroke-width:4; stroke-opacity:1; fill:none" points="156.598,1486.45 2352.76,1486.45 "/>
<polyline clip-path="url(#clip140)" style="stroke:#000000; stroke-linecap:round; stroke-linejoin:round; stroke-width:4; stroke-opacity:1; fill:none" points="411.559,1486.45 411.559,1467.55 "/>
<polyline clip-path="url(#clip140)" style="stroke:#000000; stroke-linecap:round; stroke-linejoin:round; stroke-width:4; stroke-opacity:1; fill:none" points="926.035,1486.45 926.035,1467.55 "/>
<polyline clip-path="url(#clip140)" style="stroke:#000000; stroke-linecap:round; stroke-linejoin:round; stroke-width:4; stroke-opacity:1; fill:none" points="1440.51,1486.45 1440.51,1467.55 "/>
<polyline clip-path="url(#clip140)" style="stroke:#000000; stroke-linecap:round; stroke-linejoin:round; stroke-width:4; stroke-opacity:1; fill:none" points="1954.99,1486.45 1954.99,1467.55 "/>
<path clip-path="url(#clip140)" d="M343.006 1532.02 L372.682 1532.02 L372.682 1535.95 L343.006 1535.95 L343.006 1532.02 Z" fill="#000000" fill-rule="nonzero" fill-opacity="1" /><path clip-path="url(#clip140)" d="M392.775 1517.37 Q389.164 1517.37 387.335 1520.93 Q385.529 1524.47 385.529 1531.6 Q385.529 1538.71 387.335 1542.27 Q389.164 1545.82 392.775 1545.82 Q396.409 1545.82 398.214 1542.27 Q400.043 1538.71 400.043 1531.6 Q400.043 1524.47 398.214 1520.93 Q396.409 1517.37 392.775 1517.37 M392.775 1513.66 Q398.585 1513.66 401.64 1518.27 Q404.719 1522.85 404.719 1531.6 Q404.719 1540.33 401.64 1544.94 Q398.585 1549.52 392.775 1549.52 Q386.965 1549.52 383.886 1544.94 Q380.83 1540.33 380.83 1531.6 Q380.83 1522.85 383.886 1518.27 Q386.965 1513.66 392.775 1513.66 Z" fill="#000000" fill-rule="nonzero" fill-opacity="1" /><path clip-path="url(#clip140)" d="M412.937 1542.97 L417.821 1542.97 L417.821 1548.85 L412.937 1548.85 L412.937 1542.97 Z" fill="#000000" fill-rule="nonzero" fill-opacity="1" /><path clip-path="url(#clip140)" d="M428.052 1514.29 L446.409 1514.29 L446.409 1518.22 L432.335 1518.22 L432.335 1526.7 Q433.353 1526.35 434.372 1526.19 Q435.39 1526 436.409 1526 Q442.196 1526 445.575 1529.17 Q448.955 1532.34 448.955 1537.76 Q448.955 1543.34 445.483 1546.44 Q442.011 1549.52 435.691 1549.52 Q433.515 1549.52 431.247 1549.15 Q429.001 1548.78 426.594 1548.04 L426.594 1543.34 Q428.677 1544.47 430.899 1545.03 Q433.122 1545.58 435.599 1545.58 Q439.603 1545.58 441.941 1543.48 Q444.279 1541.37 444.279 1537.76 Q444.279 1534.15 441.941 1532.04 Q439.603 1529.94 435.599 1529.94 Q433.724 1529.94 431.849 1530.35 Q429.997 1530.77 428.052 1531.65 L428.052 1514.29 Z" fill="#000000" fill-rule="nonzero" fill-opacity="1" /><path clip-path="url(#clip140)" d="M468.168 1517.37 Q464.557 1517.37 462.728 1520.93 Q460.922 1524.47 460.922 1531.6 Q460.922 1538.71 462.728 1542.27 Q464.557 1545.82 468.168 1545.82 Q471.802 1545.82 473.608 1542.27 Q475.436 1538.71 475.436 1531.6 Q475.436 1524.47 473.608 1520.93 Q471.802 1517.37 468.168 1517.37 M468.168 1513.66 Q473.978 1513.66 477.033 1518.27 Q480.112 1522.85 480.112 1531.6 Q480.112 1540.33 477.033 1544.94 Q473.978 1549.52 468.168 1549.52 Q462.358 1549.52 459.279 1544.94 Q456.223 1540.33 456.223 1531.6 Q456.223 1522.85 459.279 1518.27 Q462.358 1513.66 468.168 1513.66 Z" fill="#000000" fill-rule="nonzero" fill-opacity="1" /><path clip-path="url(#clip140)" d="M857.98 1532.02 L887.655 1532.02 L887.655 1535.95 L857.98 1535.95 L857.98 1532.02 Z" fill="#000000" fill-rule="nonzero" fill-opacity="1" /><path clip-path="url(#clip140)" d="M907.748 1517.37 Q904.137 1517.37 902.308 1520.93 Q900.502 1524.47 900.502 1531.6 Q900.502 1538.71 902.308 1542.27 Q904.137 1545.82 907.748 1545.82 Q911.382 1545.82 913.188 1542.27 Q915.016 1538.71 915.016 1531.6 Q915.016 1524.47 913.188 1520.93 Q911.382 1517.37 907.748 1517.37 M907.748 1513.66 Q913.558 1513.66 916.613 1518.27 Q919.692 1522.85 919.692 1531.6 Q919.692 1540.33 916.613 1544.94 Q913.558 1549.52 907.748 1549.52 Q901.938 1549.52 898.859 1544.94 Q895.803 1540.33 895.803 1531.6 Q895.803 1522.85 898.859 1518.27 Q901.938 1513.66 907.748 1513.66 Z" fill="#000000" fill-rule="nonzero" fill-opacity="1" /><path clip-path="url(#clip140)" d="M927.91 1542.97 L932.794 1542.97 L932.794 1548.85 L927.91 1548.85 L927.91 1542.97 Z" fill="#000000" fill-rule="nonzero" fill-opacity="1" /><path clip-path="url(#clip140)" d="M947.007 1544.91 L963.326 1544.91 L963.326 1548.85 L941.382 1548.85 L941.382 1544.91 Q944.044 1542.16 948.627 1537.53 Q953.234 1532.88 954.414 1531.53 Q956.66 1529.01 957.539 1527.27 Q958.442 1525.51 958.442 1523.82 Q958.442 1521.07 956.498 1519.33 Q954.576 1517.6 951.474 1517.6 Q949.275 1517.6 946.822 1518.36 Q944.391 1519.13 941.613 1520.68 L941.613 1515.95 Q944.437 1514.82 946.891 1514.24 Q949.345 1513.66 951.382 1513.66 Q956.752 1513.66 959.947 1516.35 Q963.141 1519.03 963.141 1523.52 Q963.141 1525.65 962.331 1527.57 Q961.544 1529.47 959.437 1532.07 Q958.859 1532.74 955.757 1535.95 Q952.655 1539.15 947.007 1544.91 Z" fill="#000000" fill-rule="nonzero" fill-opacity="1" /><path clip-path="url(#clip140)" d="M973.187 1514.29 L991.544 1514.29 L991.544 1518.22 L977.47 1518.22 L977.47 1526.7 Q978.488 1526.35 979.507 1526.19 Q980.525 1526 981.544 1526 Q987.331 1526 990.71 1529.17 Q994.09 1532.34 994.09 1537.76 Q994.09 1543.34 990.618 1546.44 Q987.145 1549.52 980.826 1549.52 Q978.65 1549.52 976.382 1549.15 Q974.136 1548.78 971.729 1548.04 L971.729 1543.34 Q973.812 1544.47 976.034 1545.03 Q978.257 1545.58 980.733 1545.58 Q984.738 1545.58 987.076 1543.48 Q989.414 1541.37 989.414 1537.76 Q989.414 1534.15 987.076 1532.04 Q984.738 1529.94 980.733 1529.94 Q978.859 1529.94 976.984 1530.35 Q975.132 1530.77 973.187 1531.65 L973.187 1514.29 Z" fill="#000000" fill-rule="nonzero" fill-opacity="1" /><path clip-path="url(#clip140)" d="M1402.81 1517.37 Q1399.2 1517.37 1397.37 1520.93 Q1395.57 1524.47 1395.57 1531.6 Q1395.57 1538.71 1397.37 1542.27 Q1399.2 1545.82 1402.81 1545.82 Q1406.45 1545.82 1408.25 1542.27 Q1410.08 1538.71 1410.08 1531.6 Q1410.08 1524.47 1408.25 1520.93 Q1406.45 1517.37 1402.81 1517.37 M1402.81 1513.66 Q1408.62 1513.66 1411.68 1518.27 Q1414.76 1522.85 1414.76 1531.6 Q1414.76 1540.33 1411.68 1544.94 Q1408.62 1549.52 1402.81 1549.52 Q1397 1549.52 1393.92 1544.94 Q1390.87 1540.33 1390.87 1531.6 Q1390.87 1522.85 1393.92 1518.27 Q1397 1513.66 1402.81 1513.66 Z" fill="#000000" fill-rule="nonzero" fill-opacity="1" /><path clip-path="url(#clip140)" d="M1422.98 1542.97 L1427.86 1542.97 L1427.86 1548.85 L1422.98 1548.85 L1422.98 1542.97 Z" fill="#000000" fill-rule="nonzero" fill-opacity="1" /><path clip-path="url(#clip140)" d="M1448.04 1517.37 Q1444.43 1517.37 1442.61 1520.93 Q1440.8 1524.47 1440.8 1531.6 Q1440.8 1538.71 1442.61 1542.27 Q1444.43 1545.82 1448.04 1545.82 Q1451.68 1545.82 1453.48 1542.27 Q1455.31 1538.71 1455.31 1531.6 Q1455.31 1524.47 1453.48 1520.93 Q1451.68 1517.37 1448.04 1517.37 M1448.04 1513.66 Q1453.85 1513.66 1456.91 1518.27 Q1459.99 1522.85 1459.99 1531.6 Q1459.99 1540.33 1456.91 1544.94 Q1453.85 1549.52 1448.04 1549.52 Q1442.23 1549.52 1439.16 1544.94 Q1436.1 1540.33 1436.1 1531.6 Q1436.1 1522.85 1439.16 1518.27 Q1442.23 1513.66 1448.04 1513.66 Z" fill="#000000" fill-rule="nonzero" fill-opacity="1" /><path clip-path="url(#clip140)" d="M1478.21 1517.37 Q1474.6 1517.37 1472.77 1520.93 Q1470.96 1524.47 1470.96 1531.6 Q1470.96 1538.71 1472.77 1542.27 Q1474.6 1545.82 1478.21 1545.82 Q1481.84 1545.82 1483.65 1542.27 Q1485.48 1538.71 1485.48 1531.6 Q1485.48 1524.47 1483.65 1520.93 Q1481.84 1517.37 1478.21 1517.37 M1478.21 1513.66 Q1484.02 1513.66 1487.07 1518.27 Q1490.15 1522.85 1490.15 1531.6 Q1490.15 1540.33 1487.07 1544.94 Q1484.02 1549.52 1478.21 1549.52 Q1472.4 1549.52 1469.32 1544.94 Q1466.26 1540.33 1466.26 1531.6 Q1466.26 1522.85 1469.32 1518.27 Q1472.4 1513.66 1478.21 1513.66 Z" fill="#000000" fill-rule="nonzero" fill-opacity="1" /><path clip-path="url(#clip140)" d="M1917.79 1517.37 Q1914.18 1517.37 1912.35 1520.93 Q1910.54 1524.47 1910.54 1531.6 Q1910.54 1538.71 1912.35 1542.27 Q1914.18 1545.82 1917.79 1545.82 Q1921.42 1545.82 1923.23 1542.27 Q1925.06 1538.71 1925.06 1531.6 Q1925.06 1524.47 1923.23 1520.93 Q1921.42 1517.37 1917.79 1517.37 M1917.79 1513.66 Q1923.6 1513.66 1926.65 1518.27 Q1929.73 1522.85 1929.73 1531.6 Q1929.73 1540.33 1926.65 1544.94 Q1923.6 1549.52 1917.79 1549.52 Q1911.98 1549.52 1908.9 1544.94 Q1905.84 1540.33 1905.84 1531.6 Q1905.84 1522.85 1908.9 1518.27 Q1911.98 1513.66 1917.79 1513.66 Z" fill="#000000" fill-rule="nonzero" fill-opacity="1" /><path clip-path="url(#clip140)" d="M1937.95 1542.97 L1942.83 1542.97 L1942.83 1548.85 L1937.95 1548.85 L1937.95 1542.97 Z" fill="#000000" fill-rule="nonzero" fill-opacity="1" /><path clip-path="url(#clip140)" d="M1957.05 1544.91 L1973.37 1544.91 L1973.37 1548.85 L1951.42 1548.85 L1951.42 1544.91 Q1954.08 1542.16 1958.67 1537.53 Q1963.27 1532.88 1964.45 1531.53 Q1966.7 1529.01 1967.58 1527.27 Q1968.48 1525.51 1968.48 1523.82 Q1968.48 1521.07 1966.54 1519.33 Q1964.62 1517.6 1961.51 1517.6 Q1959.31 1517.6 1956.86 1518.36 Q1954.43 1519.13 1951.65 1520.68 L1951.65 1515.95 Q1954.48 1514.82 1956.93 1514.24 Q1959.38 1513.66 1961.42 1513.66 Q1966.79 1513.66 1969.99 1516.35 Q1973.18 1519.03 1973.18 1523.52 Q1973.18 1525.65 1972.37 1527.57 Q1971.58 1529.47 1969.48 1532.07 Q1968.9 1532.74 1965.8 1535.95 Q1962.69 1539.15 1957.05 1544.91 Z" fill="#000000" fill-rule="nonzero" fill-opacity="1" /><path clip-path="url(#clip140)" d="M1983.23 1514.29 L2001.58 1514.29 L2001.58 1518.22 L1987.51 1518.22 L1987.51 1526.7 Q1988.53 1526.35 1989.55 1526.19 Q1990.56 1526 1991.58 1526 Q1997.37 1526 2000.75 1529.17 Q2004.13 1532.34 2004.13 1537.76 Q2004.13 1543.34 2000.66 1546.44 Q1997.18 1549.52 1990.86 1549.52 Q1988.69 1549.52 1986.42 1549.15 Q1984.18 1548.78 1981.77 1548.04 L1981.77 1543.34 Q1983.85 1544.47 1986.07 1545.03 Q1988.3 1545.58 1990.77 1545.58 Q1994.78 1545.58 1997.11 1543.48 Q1999.45 1541.37 1999.45 1537.76 Q1999.45 1534.15 1997.11 1532.04 Q1994.78 1529.94 1990.77 1529.94 Q1988.9 1529.94 1987.02 1530.35 Q1985.17 1530.77 1983.23 1531.65 L1983.23 1514.29 Z" fill="#000000" fill-rule="nonzero" fill-opacity="1" /><polyline clip-path="url(#clip140)" style="stroke:#000000; stroke-linecap:round; stroke-linejoin:round; stroke-width:4; stroke-opacity:1; fill:none" points="156.598,1486.45 156.598,47.2441 "/>
<polyline clip-path="url(#clip140)" style="stroke:#000000; stroke-linecap:round; stroke-linejoin:round; stroke-width:4; stroke-opacity:1; fill:none" points="156.598,1448.34 175.496,1448.34 "/>
<polyline clip-path="url(#clip140)" style="stroke:#000000; stroke-linecap:round; stroke-linejoin:round; stroke-width:4; stroke-opacity:1; fill:none" points="156.598,1212.93 175.496,1212.93 "/>
<polyline clip-path="url(#clip140)" style="stroke:#000000; stroke-linecap:round; stroke-linejoin:round; stroke-width:4; stroke-opacity:1; fill:none" points="156.598,977.515 175.496,977.515 "/>
<polyline clip-path="url(#clip140)" style="stroke:#000000; stroke-linecap:round; stroke-linejoin:round; stroke-width:4; stroke-opacity:1; fill:none" points="156.598,742.105 175.496,742.105 "/>
<polyline clip-path="url(#clip140)" style="stroke:#000000; stroke-linecap:round; stroke-linejoin:round; stroke-width:4; stroke-opacity:1; fill:none" points="156.598,506.694 175.496,506.694 "/>
<polyline clip-path="url(#clip140)" style="stroke:#000000; stroke-linecap:round; stroke-linejoin:round; stroke-width:4; stroke-opacity:1; fill:none" points="156.598,271.284 175.496,271.284 "/>
<path clip-path="url(#clip140)" d="M63.4226 1434.13 Q59.8115 1434.13 57.9828 1437.7 Q56.1773 1441.24 56.1773 1448.37 Q56.1773 1455.48 57.9828 1459.04 Q59.8115 1462.58 63.4226 1462.58 Q67.0569 1462.58 68.8624 1459.04 Q70.6911 1455.48 70.6911 1448.37 Q70.6911 1441.24 68.8624 1437.7 Q67.0569 1434.13 63.4226 1434.13 M63.4226 1430.43 Q69.2328 1430.43 72.2883 1435.04 Q75.367 1439.62 75.367 1448.37 Q75.367 1457.1 72.2883 1461.7 Q69.2328 1466.29 63.4226 1466.29 Q57.6125 1466.29 54.5338 1461.7 Q51.4782 1457.1 51.4782 1448.37 Q51.4782 1439.62 54.5338 1435.04 Q57.6125 1430.43 63.4226 1430.43 Z" fill="#000000" fill-rule="nonzero" fill-opacity="1" /><path clip-path="url(#clip140)" d="M83.5845 1459.74 L88.4688 1459.74 L88.4688 1465.62 L83.5845 1465.62 L83.5845 1459.74 Z" fill="#000000" fill-rule="nonzero" fill-opacity="1" /><path clip-path="url(#clip140)" d="M108.654 1434.13 Q105.043 1434.13 103.214 1437.7 Q101.409 1441.24 101.409 1448.37 Q101.409 1455.48 103.214 1459.04 Q105.043 1462.58 108.654 1462.58 Q112.288 1462.58 114.094 1459.04 Q115.922 1455.48 115.922 1448.37 Q115.922 1441.24 114.094 1437.7 Q112.288 1434.13 108.654 1434.13 M108.654 1430.43 Q114.464 1430.43 117.52 1435.04 Q120.598 1439.62 120.598 1448.37 Q120.598 1457.1 117.52 1461.7 Q114.464 1466.29 108.654 1466.29 Q102.844 1466.29 99.765 1461.7 Q96.7095 1457.1 96.7095 1448.37 Q96.7095 1439.62 99.765 1435.04 Q102.844 1430.43 108.654 1430.43 Z" fill="#000000" fill-rule="nonzero" fill-opacity="1" /><path clip-path="url(#clip140)" d="M64.6495 1198.72 Q61.0384 1198.72 59.2097 1202.29 Q57.4041 1205.83 57.4041 1212.96 Q57.4041 1220.07 59.2097 1223.63 Q61.0384 1227.17 64.6495 1227.17 Q68.2837 1227.17 70.0892 1223.63 Q71.9179 1220.07 71.9179 1212.96 Q71.9179 1205.83 70.0892 1202.29 Q68.2837 1198.72 64.6495 1198.72 M64.6495 1195.02 Q70.4596 1195.02 73.5152 1199.63 Q76.5938 1204.21 76.5938 1212.96 Q76.5938 1221.69 73.5152 1226.29 Q70.4596 1230.88 64.6495 1230.88 Q58.8393 1230.88 55.7606 1226.29 Q52.7051 1221.69 52.7051 1212.96 Q52.7051 1204.21 55.7606 1199.63 Q58.8393 1195.02 64.6495 1195.02 Z" fill="#000000" fill-rule="nonzero" fill-opacity="1" /><path clip-path="url(#clip140)" d="M84.8114 1224.33 L89.6956 1224.33 L89.6956 1230.21 L84.8114 1230.21 L84.8114 1224.33 Z" fill="#000000" fill-rule="nonzero" fill-opacity="1" /><path clip-path="url(#clip140)" d="M100.691 1226.27 L108.33 1226.27 L108.33 1199.9 L100.02 1201.57 L100.02 1197.31 L108.283 1195.65 L112.959 1195.65 L112.959 1226.27 L120.598 1226.27 L120.598 1230.21 L100.691 1230.21 L100.691 1226.27 Z" fill="#000000" fill-rule="nonzero" fill-opacity="1" /><path clip-path="url(#clip140)" d="M65.0198 963.314 Q61.4087 963.314 59.58 966.879 Q57.7745 970.42 57.7745 977.55 Q57.7745 984.656 59.58 988.221 Q61.4087 991.763 65.0198 991.763 Q68.6541 991.763 70.4596 988.221 Q72.2883 984.656 72.2883 977.55 Q72.2883 970.42 70.4596 966.879 Q68.6541 963.314 65.0198 963.314 M65.0198 959.61 Q70.83 959.61 73.8855 964.217 Q76.9642 968.8 76.9642 977.55 Q76.9642 986.277 73.8855 990.883 Q70.83 995.466 65.0198 995.466 Q59.2097 995.466 56.131 990.883 Q53.0754 986.277 53.0754 977.55 Q53.0754 968.8 56.131 964.217 Q59.2097 959.61 65.0198 959.61 Z" fill="#000000" fill-rule="nonzero" fill-opacity="1" /><path clip-path="url(#clip140)" d="M85.1818 988.916 L90.066 988.916 L90.066 994.795 L85.1818 994.795 L85.1818 988.916 Z" fill="#000000" fill-rule="nonzero" fill-opacity="1" /><path clip-path="url(#clip140)" d="M104.279 990.86 L120.598 990.86 L120.598 994.795 L98.6539 994.795 L98.6539 990.86 Q101.316 988.105 105.899 983.476 Q110.506 978.823 111.686 977.48 Q113.932 974.957 114.811 973.221 Q115.714 971.462 115.714 969.772 Q115.714 967.018 113.77 965.281 Q111.848 963.545 108.746 963.545 Q106.547 963.545 104.094 964.309 Q101.663 965.073 98.8854 966.624 L98.8854 961.902 Q101.709 960.768 104.163 960.189 Q106.617 959.61 108.654 959.61 Q114.024 959.61 117.219 962.295 Q120.413 964.981 120.413 969.471 Q120.413 971.601 119.603 973.522 Q118.816 975.42 116.709 978.013 Q116.131 978.684 113.029 981.902 Q109.927 985.096 104.279 990.86 Z" fill="#000000" fill-rule="nonzero" fill-opacity="1" /><path clip-path="url(#clip140)" d="M64.0708 727.903 Q60.4597 727.903 58.631 731.468 Q56.8254 735.01 56.8254 742.139 Q56.8254 749.246 58.631 752.811 Q60.4597 756.352 64.0708 756.352 Q67.705 756.352 69.5105 752.811 Q71.3392 749.246 71.3392 742.139 Q71.3392 735.01 69.5105 731.468 Q67.705 727.903 64.0708 727.903 M64.0708 724.2 Q69.8809 724.2 72.9365 728.806 Q76.0151 733.39 76.0151 742.139 Q76.0151 750.866 72.9365 755.473 Q69.8809 760.056 64.0708 760.056 Q58.2606 760.056 55.1819 755.473 Q52.1264 750.866 52.1264 742.139 Q52.1264 733.39 55.1819 728.806 Q58.2606 724.2 64.0708 724.2 Z" fill="#000000" fill-rule="nonzero" fill-opacity="1" /><path clip-path="url(#clip140)" d="M84.2327 753.505 L89.1169 753.505 L89.1169 759.385 L84.2327 759.385 L84.2327 753.505 Z" fill="#000000" fill-rule="nonzero" fill-opacity="1" /><path clip-path="url(#clip140)" d="M113.469 740.751 Q116.825 741.468 118.7 743.737 Q120.598 746.005 120.598 749.338 Q120.598 754.454 117.08 757.255 Q113.561 760.056 107.08 760.056 Q104.904 760.056 102.589 759.616 Q100.297 759.2 97.8437 758.343 L97.8437 753.829 Q99.7882 754.963 102.103 755.542 Q104.418 756.121 106.941 756.121 Q111.339 756.121 113.631 754.385 Q115.945 752.649 115.945 749.338 Q115.945 746.283 113.793 744.57 Q111.663 742.834 107.844 742.834 L103.816 742.834 L103.816 738.991 L108.029 738.991 Q111.478 738.991 113.307 737.626 Q115.135 736.237 115.135 733.644 Q115.135 730.982 113.237 729.57 Q111.362 728.135 107.844 728.135 Q105.922 728.135 103.723 728.552 Q101.524 728.968 98.8854 729.848 L98.8854 725.681 Q101.547 724.94 103.862 724.57 Q106.2 724.2 108.26 724.2 Q113.584 724.2 116.686 726.63 Q119.788 729.038 119.788 733.158 Q119.788 736.028 118.145 738.019 Q116.501 739.987 113.469 740.751 Z" fill="#000000" fill-rule="nonzero" fill-opacity="1" /><path clip-path="url(#clip140)" d="M62.9365 492.493 Q59.3254 492.493 57.4967 496.058 Q55.6912 499.599 55.6912 506.729 Q55.6912 513.835 57.4967 517.4 Q59.3254 520.942 62.9365 520.942 Q66.5707 520.942 68.3763 517.4 Q70.205 513.835 70.205 506.729 Q70.205 499.599 68.3763 496.058 Q66.5707 492.493 62.9365 492.493 M62.9365 488.789 Q68.7467 488.789 71.8022 493.396 Q74.8809 497.979 74.8809 506.729 Q74.8809 515.456 71.8022 520.062 Q68.7467 524.646 62.9365 524.646 Q57.1264 524.646 54.0477 520.062 Q50.9921 515.456 50.9921 506.729 Q50.9921 497.979 54.0477 493.396 Q57.1264 488.789 62.9365 488.789 Z" fill="#000000" fill-rule="nonzero" fill-opacity="1" /><path clip-path="url(#clip140)" d="M83.0984 518.095 L87.9827 518.095 L87.9827 523.974 L83.0984 523.974 L83.0984 518.095 Z" fill="#000000" fill-rule="nonzero" fill-opacity="1" /><path clip-path="url(#clip140)" d="M111.015 493.488 L99.2095 511.937 L111.015 511.937 L111.015 493.488 M109.788 489.414 L115.668 489.414 L115.668 511.937 L120.598 511.937 L120.598 515.826 L115.668 515.826 L115.668 523.974 L111.015 523.974 L111.015 515.826 L95.4132 515.826 L95.4132 511.312 L109.788 489.414 Z" fill="#000000" fill-rule="nonzero" fill-opacity="1" /><path clip-path="url(#clip140)" d="M64.418 257.083 Q60.8069 257.083 58.9782 260.647 Q57.1726 264.189 57.1726 271.319 Q57.1726 278.425 58.9782 281.99 Q60.8069 285.531 64.418 285.531 Q68.0522 285.531 69.8578 281.99 Q71.6865 278.425 71.6865 271.319 Q71.6865 264.189 69.8578 260.647 Q68.0522 257.083 64.418 257.083 M64.418 253.379 Q70.2281 253.379 73.2837 257.985 Q76.3624 262.569 76.3624 271.319 Q76.3624 280.045 73.2837 284.652 Q70.2281 289.235 64.418 289.235 Q58.6078 289.235 55.5291 284.652 Q52.4736 280.045 52.4736 271.319 Q52.4736 262.569 55.5291 257.985 Q58.6078 253.379 64.418 253.379 Z" fill="#000000" fill-rule="nonzero" fill-opacity="1" /><path clip-path="url(#clip140)" d="M84.5799 282.684 L89.4641 282.684 L89.4641 288.564 L84.5799 288.564 L84.5799 282.684 Z" fill="#000000" fill-rule="nonzero" fill-opacity="1" /><path clip-path="url(#clip140)" d="M99.6956 254.004 L118.052 254.004 L118.052 257.939 L103.978 257.939 L103.978 266.411 Q104.996 266.064 106.015 265.902 Q107.033 265.717 108.052 265.717 Q113.839 265.717 117.219 268.888 Q120.598 272.059 120.598 277.476 Q120.598 283.055 117.126 286.156 Q113.654 289.235 107.334 289.235 Q105.159 289.235 102.89 288.865 Q100.645 288.494 98.2372 287.754 L98.2372 283.055 Q100.321 284.189 102.543 284.744 Q104.765 285.3 107.242 285.3 Q111.246 285.3 113.584 283.194 Q115.922 281.087 115.922 277.476 Q115.922 273.865 113.584 271.758 Q111.246 269.652 107.242 269.652 Q105.367 269.652 103.492 270.069 Q101.64 270.485 99.6956 271.365 L99.6956 254.004 Z" fill="#000000" fill-rule="nonzero" fill-opacity="1" /><circle clip-path="url(#clip142)" cx="1498.07" cy="1324.27" r="14.4" fill="#808080" fill-rule="evenodd" fill-opacity="1" stroke="#000000" stroke-opacity="1" stroke-width="3.2"/>
<circle clip-path="url(#clip142)" cx="1403.91" cy="1445.72" r="14.4" fill="#808080" fill-rule="evenodd" fill-opacity="1" stroke="#000000" stroke-opacity="1" stroke-width="3.2"/>
<circle clip-path="url(#clip142)" cx="2290.6" cy="1314.73" r="14.4" fill="#808080" fill-rule="evenodd" fill-opacity="1" stroke="#000000" stroke-opacity="1" stroke-width="3.2"/>
<circle clip-path="url(#clip142)" cx="218.754" cy="87.9763" r="14.4" fill="#808080" fill-rule="evenodd" fill-opacity="1" stroke="#000000" stroke-opacity="1" stroke-width="3.2"/>
<path clip-path="url(#clip140)" d="M1502.36 1331.7 Q1493.33 1331.7 1489.84 1333.77 Q1486.36 1335.83 1486.36 1340.82 Q1486.36 1344.79 1488.95 1347.14 Q1491.59 1349.44 1496.08 1349.44 Q1502.28 1349.44 1506.01 1345.07 Q1509.77 1340.65 1509.77 1333.36 L1509.77 1331.7 L1502.36 1331.7 M1517.23 1328.62 L1517.23 1354.51 L1509.77 1354.51 L1509.77 1347.62 Q1507.22 1351.75 1503.41 1353.74 Q1499.61 1355.68 1494.1 1355.68 Q1487.13 1355.68 1483 1351.79 Q1478.91 1347.86 1478.91 1341.3 Q1478.91 1333.65 1484.01 1329.76 Q1489.15 1325.87 1499.32 1325.87 L1509.77 1325.87 L1509.77 1325.14 Q1509.77 1319.99 1506.37 1317.2 Q1503.01 1314.36 1496.89 1314.36 Q1493 1314.36 1489.32 1315.3 Q1485.63 1316.23 1482.23 1318.09 L1482.23 1311.2 Q1486.32 1309.62 1490.17 1308.85 Q1494.02 1308.04 1497.66 1308.04 Q1507.51 1308.04 1512.37 1313.15 Q1517.23 1318.25 1517.23 1328.62 Z" fill="#000000" fill-rule="nonzero" fill-opacity="1" /><path clip-path="url(#clip140)" d="M1416.47 1453.31 Q1416.47 1445.09 1413.06 1440.43 Q1409.7 1435.73 1403.79 1435.73 Q1397.87 1435.73 1394.47 1440.43 Q1391.11 1445.09 1391.11 1453.31 Q1391.11 1461.53 1394.47 1466.23 Q1397.87 1470.89 1403.79 1470.89 Q1409.7 1470.89 1413.06 1466.23 Q1416.47 1461.53 1416.47 1453.31 M1391.11 1437.47 Q1393.46 1433.42 1397.02 1431.48 Q1400.63 1429.49 1405.61 1429.49 Q1413.87 1429.49 1419.02 1436.05 Q1424.2 1442.62 1424.2 1453.31 Q1424.2 1464.01 1419.02 1470.57 Q1413.87 1477.13 1405.61 1477.13 Q1400.63 1477.13 1397.02 1475.19 Q1393.46 1473.2 1391.11 1469.15 L1391.11 1475.96 L1383.61 1475.96 L1383.61 1412.92 L1391.11 1412.92 L1391.11 1437.47 Z" fill="#000000" fill-rule="nonzero" fill-opacity="1" /><path clip-path="url(#clip140)" d="M2308.55 1301.34 L2308.55 1308.31 Q2305.39 1306.57 2302.19 1305.71 Q2299.03 1304.82 2295.79 1304.82 Q2288.53 1304.82 2284.52 1309.44 Q2280.51 1314.02 2280.51 1322.32 Q2280.51 1330.63 2284.52 1335.25 Q2288.53 1339.82 2295.79 1339.82 Q2299.03 1339.82 2302.19 1338.97 Q2305.39 1338.08 2308.55 1336.34 L2308.55 1343.23 Q2305.43 1344.68 2302.06 1345.41 Q2298.74 1346.14 2294.98 1346.14 Q2284.73 1346.14 2278.69 1339.7 Q2272.65 1333.26 2272.65 1322.32 Q2272.65 1311.22 2278.73 1304.86 Q2284.85 1298.5 2295.46 1298.5 Q2298.9 1298.5 2302.19 1299.23 Q2305.47 1299.92 2308.55 1301.34 Z" fill="#000000" fill-rule="nonzero" fill-opacity="1" /><path clip-path="url(#clip140)" d="M231.575 79.7327 L231.575 55.1842 L239.028 55.1842 L239.028 118.216 L231.575 118.216 L231.575 111.411 Q229.225 115.462 225.62 117.447 Q222.055 119.391 217.032 119.391 Q208.809 119.391 203.624 112.829 Q198.479 106.266 198.479 95.5717 Q198.479 84.8773 203.624 78.3149 Q208.809 71.7524 217.032 71.7524 Q222.055 71.7524 225.62 73.7373 Q229.225 75.6818 231.575 79.7327 M206.176 95.5717 Q206.176 103.795 209.538 108.494 Q212.941 113.153 218.855 113.153 Q224.769 113.153 228.172 108.494 Q231.575 103.795 231.575 95.5717 Q231.575 87.3484 228.172 82.6898 Q224.769 77.9908 218.855 77.9908 Q212.941 77.9908 209.538 82.6898 Q206.176 87.3484 206.176 95.5717 Z" fill="#000000" fill-rule="nonzero" fill-opacity="1" /><path clip-path="url(#clip140)" d="M2007.5 198.898 L2279.55 198.898 L2279.55 95.2176 L2007.5 95.2176  Z" fill="#ffffff" fill-rule="evenodd" fill-opacity="1"/>
<polyline clip-path="url(#clip140)" style="stroke:#000000; stroke-linecap:round; stroke-linejoin:round; stroke-width:4; stroke-opacity:1; fill:none" points="2007.5,198.898 2279.55,198.898 2279.55,95.2176 2007.5,95.2176 2007.5,198.898 "/>
<circle clip-path="url(#clip140)" cx="2105.11" cy="147.058" r="20.48" fill="#808080" fill-rule="evenodd" fill-opacity="1" stroke="#000000" stroke-opacity="1" stroke-width="4.55111"/>
<path clip-path="url(#clip140)" d="M2216.56 166.745 Q2214.76 171.375 2213.04 172.787 Q2211.33 174.199 2208.46 174.199 L2205.06 174.199 L2205.06 170.634 L2207.56 170.634 Q2209.32 170.634 2210.29 169.8 Q2211.26 168.967 2212.44 165.865 L2213.2 163.921 L2202.72 138.412 L2207.23 138.412 L2215.33 158.689 L2223.44 138.412 L2227.95 138.412 L2216.56 166.745 Z" fill="#000000" fill-rule="nonzero" fill-opacity="1" /><path clip-path="url(#clip140)" d="M2235.24 160.402 L2242.88 160.402 L2242.88 134.037 L2234.57 135.703 L2234.57 131.444 L2242.83 129.778 L2247.51 129.778 L2247.51 160.402 L2255.15 160.402 L2255.15 164.338 L2235.24 164.338 L2235.24 160.402 Z" fill="#000000" fill-rule="nonzero" fill-opacity="1" /></svg>
