<?xml version="1.0" encoding="utf-8"?>
<svg xmlns="http://www.w3.org/2000/svg" xmlns:xlink="http://www.w3.org/1999/xlink" width="600" height="400" viewBox="0 0 2400 1600">
<defs>
  <clipPath id="clip170">
    <rect x="0" y="0" width="2400" height="1600"/>
  </clipPath>
</defs>
<path clip-path="url(#clip170)" d="M0 1600 L2400 1600 L2400 0 L0 0  Z" fill="#ffffff" fill-rule="evenodd" fill-opacity="1"/>
<defs>
  <clipPath id="clip171">
    <rect x="480" y="0" width="1681" height="1600"/>
  </clipPath>
</defs>
<path clip-path="url(#clip170)" d="M112.177 1486.45 L2352.76 1486.45 L2352.76 47.2441 L112.177 47.2441  Z" fill="#ffffff" fill-rule="evenodd" fill-opacity="1"/>
<defs>
  <clipPath id="clip172">
    <rect x="112" y="47" width="2242" height="1440"/>
  </clipPath>
</defs>
<polyline clip-path="url(#clip172)" style="stroke:#000000; stroke-linecap:round; stroke-linejoin:round; stroke-width:2; stroke-opacity:0.1; fill:none" points="412.62,1486.45 412.62,47.2441 "/>
<polyline clip-path="url(#clip172)" style="stroke:#000000; stroke-linecap:round; stroke-linejoin:round; stroke-width:2; stroke-opacity:0.1; fill:none" points="964.085,1486.45 964.085,47.2441 "/>
<polyline clip-path="url(#clip172)" style="stroke:#000000; stroke-linecap:round; stroke-linejoin:round; stroke-width:2; stroke-opacity:0.1; fill:none" points="1515.55,1486.45 1515.55,47.2441 "/>
<polyline clip-path="url(#clip172)" style="stroke:#000000; stroke-linecap:round; stroke-linejoin:round; stroke-width:2; stroke-opacity:0.1; fill:none" points="2067.02,1486.45 2067.02,47.2441 "/>
<polyline clip-path="url(#clip172)" style="stroke:#000000; stroke-linecap:round; stroke-linejoin:round; stroke-width:2; stroke-opacity:0.1; fill:none" points="112.177,1163.98 2352.76,1163.98 "/>
<polyline clip-path="url(#clip172)" style="stroke:#000000; stroke-linecap:round; stroke-linejoin:round; stroke-width:2; stroke-opacity:0.1; fill:none" points="112.177,812.974 2352.76,812.974 "/>
<polyline clip-path="url(#clip172)" style="stroke:#000000; stroke-linecap:round; stroke-linejoin:round; stroke-width:2; stroke-opacity:0.1; fill:none" points="112.177,461.971 2352.76,461.971 "/>
<polyline clip-path="url(#clip172)" style="stroke:#000000; stroke-linecap:round; stroke-linejoin:round; stroke-width:2; stroke-opacity:0.1; fill:none" points="112.177,110.967 2352.76,110.967 "/>
<polyline clip-path="url(#clip170)" style="stroke:#000000; stroke-linecap:round; stroke-linejoin:round; stroke-width:4; stroke-opacity:1; fill:none" points="112.177,1486.45 2352.76,1486.45 "/>
<polyline clip-path="url(#clip170)" style="stroke:#000000; stroke-linecap:round; stroke-linejoin:round; stroke-width:4; stroke-opacity:1; fill:none" points="412.62,1486.45 412.62,1467.55 "/>
<polyline clip-path="url(#clip170)" style="stroke:#000000; stroke-linecap:round; stroke-linejoin:round; stroke-width:4; stroke-opacity:1; fill:none" points="964.085,1486.45 964.085,1467.55 "/>
<polyline clip-path="url(#clip170)" style="stroke:#000000; stroke-linecap:round; stroke-linejoin:round; stroke-width:4; stroke-opacity:1; fill:none" points="1515.55,1486.45 1515.55,1467.55 "/>
<polyline clip-path="url(#clip170)" style="stroke:#000000; stroke-linecap:round; stroke-linejoin:round; stroke-width:4; stroke-opacity:1; fill:none" points="2067.02,1486.45 2067.02,1467.55 "/>
<path clip-path="url(#clip170)" d="M359.148 1532.02 L388.823 1532.02 L388.823 1535.95 L359.148 1535.95 L359.148 1532.02 Z" fill="#000000" fill-rule="nonzero" fill-opacity="1" /><path clip-path="url(#clip170)" d="M399.726 1544.91 L407.365 1544.91 L407.365 1518.55 L399.055 1520.21 L399.055 1515.95 L407.319 1514.29 L411.995 1514.29 L411.995 1544.91 L419.633 1544.91 L419.633 1548.85 L399.726 1548.85 L399.726 1544.91 Z" fill="#000000" fill-rule="nonzero" fill-opacity="1" /><path clip-path="url(#clip170)" d="M429.078 1542.97 L433.962 1542.97 L433.962 1548.85 L429.078 1548.85 L429.078 1542.97 Z" fill="#000000" fill-rule="nonzero" fill-opacity="1" /><path clip-path="url(#clip170)" d="M454.147 1517.37 Q450.536 1517.37 448.707 1520.93 Q446.902 1524.47 446.902 1531.6 Q446.902 1538.71 448.707 1542.27 Q450.536 1545.82 454.147 1545.82 Q457.781 1545.82 459.587 1542.27 Q461.416 1538.71 461.416 1531.6 Q461.416 1524.47 459.587 1520.93 Q457.781 1517.37 454.147 1517.37 M454.147 1513.66 Q459.957 1513.66 463.013 1518.27 Q466.092 1522.85 466.092 1531.6 Q466.092 1540.33 463.013 1544.94 Q459.957 1549.52 454.147 1549.52 Q448.337 1549.52 445.258 1544.94 Q442.203 1540.33 442.203 1531.6 Q442.203 1522.85 445.258 1518.27 Q448.337 1513.66 454.147 1513.66 Z" fill="#000000" fill-rule="nonzero" fill-opacity="1" /><path clip-path="url(#clip170)" d="M911.111 1532.02 L940.787 1532.02 L940.787 1535.95 L911.111 1535.95 L911.111 1532.02 Z" fill="#000000" fill-rule="nonzero" fill-opacity="1" /><path clip-path="url(#clip170)" d="M960.879 1517.37 Q957.268 1517.37 955.44 1520.93 Q953.634 1524.47 953.634 1531.6 Q953.634 1538.71 955.44 1542.27 Q957.268 1545.82 960.879 1545.82 Q964.514 1545.82 966.319 1542.27 Q968.148 1538.71 968.148 1531.6 Q968.148 1524.47 966.319 1520.93 Q964.514 1517.37 960.879 1517.37 M960.879 1513.66 Q966.69 1513.66 969.745 1518.27 Q972.824 1522.85 972.824 1531.6 Q972.824 1540.33 969.745 1544.94 Q966.69 1549.52 960.879 1549.52 Q955.069 1549.52 951.991 1544.94 Q948.935 1540.33 948.935 1531.6 Q948.935 1522.85 951.991 1518.27 Q955.069 1513.66 960.879 1513.66 Z" fill="#000000" fill-rule="nonzero" fill-opacity="1" /><path clip-path="url(#clip170)" d="M981.041 1542.97 L985.926 1542.97 L985.926 1548.85 L981.041 1548.85 L981.041 1542.97 Z" fill="#000000" fill-rule="nonzero" fill-opacity="1" /><path clip-path="url(#clip170)" d="M996.157 1514.29 L1014.51 1514.29 L1014.51 1518.22 L1000.44 1518.22 L1000.44 1526.7 Q1001.46 1526.35 1002.48 1526.19 Q1003.5 1526 1004.51 1526 Q1010.3 1526 1013.68 1529.17 Q1017.06 1532.34 1017.06 1537.76 Q1017.06 1543.34 1013.59 1546.44 Q1010.12 1549.52 1003.8 1549.52 Q1001.62 1549.52 999.352 1549.15 Q997.106 1548.78 994.699 1548.04 L994.699 1543.34 Q996.782 1544.47 999.004 1545.03 Q1001.23 1545.58 1003.7 1545.58 Q1007.71 1545.58 1010.05 1543.48 Q1012.38 1541.37 1012.38 1537.76 Q1012.38 1534.15 1010.05 1532.04 Q1007.71 1529.94 1003.7 1529.94 Q1001.83 1529.94 999.953 1530.35 Q998.102 1530.77 996.157 1531.65 L996.157 1514.29 Z" fill="#000000" fill-rule="nonzero" fill-opacity="1" /><path clip-path="url(#clip170)" d="M1492.94 1517.37 Q1489.32 1517.37 1487.5 1520.93 Q1485.69 1524.47 1485.69 1531.6 Q1485.69 1538.71 1487.5 1542.27 Q1489.32 1545.82 1492.94 1545.82 Q1496.57 1545.82 1498.38 1542.27 Q1500.2 1538.71 1500.2 1531.6 Q1500.2 1524.47 1498.38 1520.93 Q1496.57 1517.37 1492.94 1517.37 M1492.94 1513.66 Q1498.75 1513.66 1501.8 1518.27 Q1504.88 1522.85 1504.88 1531.6 Q1504.88 1540.33 1501.8 1544.94 Q1498.75 1549.52 1492.94 1549.52 Q1487.13 1549.52 1484.05 1544.94 Q1480.99 1540.33 1480.99 1531.6 Q1480.99 1522.85 1484.05 1518.27 Q1487.13 1513.66 1492.94 1513.66 Z" fill="#000000" fill-rule="nonzero" fill-opacity="1" /><path clip-path="url(#clip170)" d="M1513.1 1542.97 L1517.98 1542.97 L1517.98 1548.85 L1513.1 1548.85 L1513.1 1542.97 Z" fill="#000000" fill-rule="nonzero" fill-opacity="1" /><path clip-path="url(#clip170)" d="M1538.17 1517.37 Q1534.56 1517.37 1532.73 1520.93 Q1530.92 1524.47 1530.92 1531.6 Q1530.92 1538.71 1532.73 1542.27 Q1534.56 1545.82 1538.17 1545.82 Q1541.8 1545.82 1543.61 1542.27 Q1545.44 1538.71 1545.44 1531.6 Q1545.44 1524.47 1543.61 1520.93 Q1541.8 1517.37 1538.17 1517.37 M1538.17 1513.66 Q1543.98 1513.66 1547.03 1518.27 Q1550.11 1522.85 1550.11 1531.6 Q1550.11 1540.33 1547.03 1544.94 Q1543.98 1549.52 1538.17 1549.52 Q1532.36 1549.52 1529.28 1544.94 Q1526.22 1540.33 1526.22 1531.6 Q1526.22 1522.85 1529.28 1518.27 Q1532.36 1513.66 1538.17 1513.66 Z" fill="#000000" fill-rule="nonzero" fill-opacity="1" /><path clip-path="url(#clip170)" d="M2044.9 1517.37 Q2041.29 1517.37 2039.46 1520.93 Q2037.65 1524.47 2037.65 1531.6 Q2037.65 1538.71 2039.46 1542.27 Q2041.29 1545.82 2044.9 1545.82 Q2048.53 1545.82 2050.34 1542.27 Q2052.17 1538.71 2052.17 1531.6 Q2052.17 1524.47 2050.34 1520.93 Q2048.53 1517.37 2044.9 1517.37 M2044.9 1513.66 Q2050.71 1513.66 2053.77 1518.27 Q2056.84 1522.85 2056.84 1531.6 Q2056.84 1540.33 2053.77 1544.94 Q2050.71 1549.52 2044.9 1549.52 Q2039.09 1549.52 2036.01 1544.94 Q2032.95 1540.33 2032.95 1531.6 Q2032.95 1522.85 2036.01 1518.27 Q2039.09 1513.66 2044.9 1513.66 Z" fill="#000000" fill-rule="nonzero" fill-opacity="1" /><path clip-path="url(#clip170)" d="M2065.06 1542.97 L2069.95 1542.97 L2069.95 1548.85 L2065.06 1548.85 L2065.06 1542.97 Z" fill="#000000" fill-rule="nonzero" fill-opacity="1" /><path clip-path="url(#clip170)" d="M2080.18 1514.29 L2098.53 1514.29 L2098.53 1518.22 L2084.46 1518.22 L2084.46 1526.7 Q2085.48 1526.35 2086.5 1526.19 Q2087.51 1526 2088.53 1526 Q2094.32 1526 2097.7 1529.17 Q2101.08 1532.34 2101.08 1537.76 Q2101.08 1543.34 2097.61 1546.44 Q2094.14 1549.52 2087.82 1549.52 Q2085.64 1549.52 2083.37 1549.15 Q2081.13 1548.78 2078.72 1548.04 L2078.72 1543.34 Q2080.8 1544.47 2083.02 1545.03 Q2085.25 1545.58 2087.72 1545.58 Q2091.73 1545.58 2094.07 1543.48 Q2096.4 1541.37 2096.4 1537.76 Q2096.4 1534.15 2094.07 1532.04 Q2091.73 1529.94 2087.72 1529.94 Q2085.85 1529.94 2083.97 1530.35 Q2082.12 1530.77 2080.18 1531.65 L2080.18 1514.29 Z" fill="#000000" fill-rule="nonzero" fill-opacity="1" /><polyline clip-path="url(#clip170)" style="stroke:#000000; stroke-linecap:round; stroke-linejoin:round; stroke-width:4; stroke-opacity:1; fill:none" points="112.177,1486.45 112.177,47.2441 "/>
<polyline clip-path="url(#clip170)" style="stroke:#000000; stroke-linecap:round; stroke-linejoin:round; stroke-width:4; stroke-opacity:1; fill:none" points="112.177,1163.98 131.075,1163.98 "/>
<polyline clip-path="url(#clip170)" style="stroke:#000000; stroke-linecap:round; stroke-linejoin:round; stroke-width:4; stroke-opacity:1; fill:none" points="112.177,812.974 131.075,812.974 "/>
<polyline clip-path="url(#clip170)" style="stroke:#000000; stroke-linecap:round; stroke-linejoin:round; stroke-width:4; stroke-opacity:1; fill:none" points="112.177,461.971 131.075,461.971 "/>
<polyline clip-path="url(#clip170)" style="stroke:#000000; stroke-linecap:round; stroke-linejoin:round; stroke-width:4; stroke-opacity:1; fill:none" points="112.177,110.967 131.075,110.967 "/>
<path clip-path="url(#clip170)" d="M56.2699 1177.32 L63.9087 1177.32 L63.9087 1150.96 L55.5986 1152.62 L55.5986 1148.36 L63.8624 1146.7 L68.5383 1146.7 L68.5383 1177.32 L76.1772 1177.32 L76.1772 1181.26 L56.2699 1181.26 L56.2699 1177.32 Z" fill="#000000" fill-rule="nonzero" fill-opacity="1" /><path clip-path="url(#clip170)" d="M59.8578 826.319 L76.1772 826.319 L76.1772 830.254 L54.2328 830.254 L54.2328 826.319 Q56.8949 823.564 61.4782 818.935 Q66.0846 814.282 67.2652 812.939 Q69.5105 810.416 70.3902 808.68 Q71.2929 806.921 71.2929 805.231 Q71.2929 802.476 69.3485 800.74 Q67.4272 799.004 64.3254 799.004 Q62.1263 799.004 59.6726 799.768 Q57.2421 800.532 54.4643 802.083 L54.4643 797.361 Q57.2884 796.226 59.7421 795.648 Q62.1958 795.069 64.2328 795.069 Q69.6031 795.069 72.7976 797.754 Q75.992 800.439 75.992 804.93 Q75.992 807.06 75.1818 808.981 Q74.3948 810.879 72.2883 813.472 Q71.7096 814.143 68.6078 817.361 Q65.5059 820.555 59.8578 826.319 Z" fill="#000000" fill-rule="nonzero" fill-opacity="1" /><path clip-path="url(#clip170)" d="M69.0476 460.616 Q72.404 461.334 74.279 463.602 Q76.1772 465.871 76.1772 469.204 Q76.1772 474.32 72.6587 477.121 Q69.1402 479.922 62.6587 479.922 Q60.4828 479.922 58.168 479.482 Q55.8764 479.065 53.4227 478.209 L53.4227 473.695 Q55.3671 474.829 57.6819 475.408 Q59.9967 475.987 62.5198 475.987 Q66.918 475.987 69.2096 474.251 Q71.5244 472.514 71.5244 469.204 Q71.5244 466.149 69.3717 464.436 Q67.242 462.7 63.4226 462.7 L59.3949 462.7 L59.3949 458.857 L63.6078 458.857 Q67.0569 458.857 68.8855 457.491 Q70.7142 456.103 70.7142 453.51 Q70.7142 450.848 68.8161 449.436 Q66.9411 448.001 63.4226 448.001 Q61.5013 448.001 59.3023 448.417 Q57.1032 448.834 54.4643 449.714 L54.4643 445.547 Q57.1264 444.806 59.4412 444.436 Q61.7791 444.066 63.8393 444.066 Q69.1633 444.066 72.2652 446.496 Q75.367 448.903 75.367 453.024 Q75.367 455.894 73.7235 457.885 Q72.08 459.852 69.0476 460.616 Z" fill="#000000" fill-rule="nonzero" fill-opacity="1" /><path clip-path="url(#clip170)" d="M66.5939 97.7611 L54.7884 116.21 L66.5939 116.21 L66.5939 97.7611 M65.367 93.687 L71.2466 93.687 L71.2466 116.21 L76.1772 116.21 L76.1772 120.099 L71.2466 120.099 L71.2466 128.247 L66.5939 128.247 L66.5939 120.099 L50.9921 120.099 L50.9921 115.585 L65.367 93.687 Z" fill="#000000" fill-rule="nonzero" fill-opacity="1" /><circle clip-path="url(#clip172)" cx="2289.34" cy="1305.52" r="14.4" fill="#808080" fill-rule="evenodd" fill-opacity="1" stroke="#000000" stroke-opacity="1" stroke-width="3.2"/>
<circle clip-path="url(#clip172)" cx="175.59" cy="87.9763" r="14.4" fill="#808080" fill-rule="evenodd" fill-opacity="1" stroke="#000000" stroke-opacity="1" stroke-width="3.2"/>
<circle clip-path="url(#clip172)" cx="1569.4" cy="1445.72" r="14.4" fill="#808080" fill-rule="evenodd" fill-opacity="1" stroke="#000000" stroke-opacity="1" stroke-width="3.2"/>
<circle clip-path="url(#clip172)" cx="1390.04" cy="1420.12" r="14.4" fill="#808080" fill-rule="evenodd" fill-opacity="1" stroke="#000000" stroke-opacity="1" stroke-width="3.2"/>
<path clip-path="url(#clip170)" d="M2293.64 1312.95 Q2284.6 1312.95 2281.12 1315.02 Q2277.64 1317.08 2277.64 1322.06 Q2277.64 1326.03 2280.23 1328.38 Q2282.86 1330.69 2287.36 1330.69 Q2293.56 1330.69 2297.28 1326.32 Q2301.05 1321.9 2301.05 1314.61 L2301.05 1312.95 L2293.64 1312.95 M2308.5 1309.87 L2308.5 1335.76 L2301.05 1335.76 L2301.05 1328.87 Q2298.5 1333 2294.69 1334.99 Q2290.88 1336.93 2285.37 1336.93 Q2278.41 1336.93 2274.27 1333.04 Q2270.18 1329.11 2270.18 1322.55 Q2270.18 1314.89 2275.29 1311 Q2280.43 1307.12 2290.6 1307.12 L2301.05 1307.12 L2301.05 1306.39 Q2301.05 1301.24 2297.65 1298.45 Q2294.29 1295.61 2288.17 1295.61 Q2284.28 1295.61 2280.59 1296.54 Q2276.91 1297.47 2273.5 1299.34 L2273.5 1292.45 Q2277.6 1290.87 2281.44 1290.1 Q2285.29 1289.29 2288.94 1289.29 Q2298.78 1289.29 2303.64 1294.4 Q2308.5 1299.5 2308.5 1309.87 Z" fill="#000000" fill-rule="nonzero" fill-opacity="1" /><path clip-path="url(#clip170)" d="M188.148 95.5717 Q188.148 87.3484 184.745 82.6898 Q181.383 77.9908 175.468 77.9908 Q169.554 77.9908 166.151 82.6898 Q162.789 87.3484 162.789 95.5717 Q162.789 103.795 166.151 108.494 Q169.554 113.153 175.468 113.153 Q181.383 113.153 184.745 108.494 Q188.148 103.795 188.148 95.5717 M162.789 79.7327 Q165.138 75.6818 168.703 73.7373 Q172.309 71.7524 177.291 71.7524 Q185.555 71.7524 190.7 78.3149 Q195.885 84.8773 195.885 95.5717 Q195.885 106.266 190.7 112.829 Q185.555 119.391 177.291 119.391 Q172.309 119.391 168.703 117.447 Q165.138 115.462 162.789 111.411 L162.789 118.216 L155.295 118.216 L155.295 55.1842 L162.789 55.1842 L162.789 79.7327 Z" fill="#000000" fill-rule="nonzero" fill-opacity="1" /><path clip-path="url(#clip170)" d="M1587.34 1432.33 L1587.34 1439.3 Q1584.18 1437.55 1580.98 1436.7 Q1577.82 1435.81 1574.58 1435.81 Q1567.33 1435.81 1563.32 1440.43 Q1559.31 1445.01 1559.31 1453.31 Q1559.31 1461.62 1563.32 1466.23 Q1567.33 1470.81 1574.58 1470.81 Q1577.82 1470.81 1580.98 1469.96 Q1584.18 1469.07 1587.34 1467.33 L1587.34 1474.21 Q1584.23 1475.67 1580.86 1476.4 Q1577.54 1477.13 1573.77 1477.13 Q1563.52 1477.13 1557.49 1470.69 Q1551.45 1464.25 1551.45 1453.31 Q1551.45 1442.21 1557.53 1435.85 Q1563.65 1429.49 1574.26 1429.49 Q1577.7 1429.49 1580.98 1430.22 Q1584.27 1430.91 1587.34 1432.33 Z" fill="#000000" fill-rule="nonzero" fill-opacity="1" /><path clip-path="url(#clip170)" d="M1402.86 1411.87 L1402.86 1387.32 L1410.31 1387.32 L1410.31 1450.36 L1402.86 1450.36 L1402.86 1443.55 Q1400.51 1447.6 1396.91 1449.59 Q1393.34 1451.53 1388.32 1451.53 Q1380.09 1451.53 1374.91 1444.97 Q1369.76 1438.41 1369.76 1427.71 Q1369.76 1417.02 1374.91 1410.45 Q1380.09 1403.89 1388.32 1403.89 Q1393.34 1403.89 1396.91 1405.88 Q1400.51 1407.82 1402.86 1411.87 M1377.46 1427.71 Q1377.46 1435.93 1380.82 1440.63 Q1384.23 1445.29 1390.14 1445.29 Q1396.05 1445.29 1399.46 1440.63 Q1402.86 1435.93 1402.86 1427.71 Q1402.86 1419.49 1399.46 1414.83 Q1396.05 1410.13 1390.14 1410.13 Q1384.23 1410.13 1380.82 1414.83 Q1377.46 1419.49 1377.46 1427.71 Z" fill="#000000" fill-rule="nonzero" fill-opacity="1" /><path clip-path="url(#clip170)" d="M2001.58 198.898 L2278.07 198.898 L2278.07 95.2176 L2001.58 95.2176  Z" fill="#ffffff" fill-rule="evenodd" fill-opacity="1"/>
<polyline clip-path="url(#clip170)" style="stroke:#000000; stroke-linecap:round; stroke-linejoin:round; stroke-width:4; stroke-opacity:1; fill:none" points="2001.58,198.898 2278.07,198.898 2278.07,95.2176 2001.58,95.2176 2001.58,198.898 "/>
<circle clip-path="url(#clip170)" cx="2101.16" cy="147.058" r="20.48" fill="#808080" fill-rule="evenodd" fill-opacity="1" stroke="#000000" stroke-opacity="1" stroke-width="4.55111"/>
<path clip-path="url(#clip170)" d="M2214.59 166.745 Q2212.78 171.375 2211.07 172.787 Q2209.36 174.199 2206.49 174.199 L2203.08 174.199 L2203.08 170.634 L2205.58 170.634 Q2207.34 170.634 2208.31 169.8 Q2209.29 168.967 2210.47 165.865 L2211.23 163.921 L2200.74 138.412 L2205.26 138.412 L2213.36 158.689 L2221.46 138.412 L2225.98 138.412 L2214.59 166.745 Z" fill="#000000" fill-rule="nonzero" fill-opacity="1" /><path clip-path="url(#clip170)" d="M2233.27 160.402 L2240.91 160.402 L2240.91 134.037 L2232.6 135.703 L2232.6 131.444 L2240.86 129.778 L2245.54 129.778 L2245.54 160.402 L2253.17 160.402 L2253.17 164.338 L2233.27 164.338 L2233.27 160.402 Z" fill="#000000" fill-rule="nonzero" fill-opacity="1" /></svg>
