<?xml version="1.0" encoding="utf-8"?>
<svg xmlns="http://www.w3.org/2000/svg" xmlns:xlink="http://www.w3.org/1999/xlink" width="600" height="400" viewBox="0 0 2400 1600">
<defs>
  <clipPath id="clip920">
    <rect x="0" y="0" width="2400" height="1600"/>
  </clipPath>
</defs>
<path clip-path="url(#clip920)" d="M0 1600 L2400 1600 L2400 0 L0 0  Z" fill="#ffffff" fill-rule="evenodd" fill-opacity="1"/>
<defs>
  <clipPath id="clip921">
    <rect x="156" y="47" width="2198" height="1440"/>
  </clipPath>
</defs>
<path clip-path="url(#clip920)" d="M156.112 1486.45 L2352.76 1486.45 L2352.76 47.2441 L156.112 47.2441  Z" fill="#ffffff" fill-rule="evenodd" fill-opacity="1"/>
<polyline clip-path="url(#clip921)" style="stroke:#000000; stroke-linecap:round; stroke-linejoin:round; stroke-width:2; stroke-opacity:0.1; fill:none" points="507.182,1486.45 507.182,47.2441 "/>
<polyline clip-path="url(#clip921)" style="stroke:#000000; stroke-linecap:round; stroke-linejoin:round; stroke-width:2; stroke-opacity:0.1; fill:none" points="975.078,1486.45 975.078,47.2441 "/>
<polyline clip-path="url(#clip921)" style="stroke:#000000; stroke-linecap:round; stroke-linejoin:round; stroke-width:2; stroke-opacity:0.1; fill:none" points="1442.98,1486.45 1442.98,47.2441 "/>
<polyline clip-path="url(#clip921)" style="stroke:#000000; stroke-linecap:round; stroke-linejoin:round; stroke-width:2; stroke-opacity:0.1; fill:none" points="1910.87,1486.45 1910.87,47.2441 "/>
<polyline clip-path="url(#clip921)" style="stroke:#000000; stroke-linecap:round; stroke-linejoin:round; stroke-width:2; stroke-opacity:0.1; fill:none" points="156.112,1449.56 2352.76,1449.56 "/>
<polyline clip-path="url(#clip921)" style="stroke:#000000; stroke-linecap:round; stroke-linejoin:round; stroke-width:2; stroke-opacity:0.1; fill:none" points="156.112,1050.09 2352.76,1050.09 "/>
<polyline clip-path="url(#clip921)" style="stroke:#000000; stroke-linecap:round; stroke-linejoin:round; stroke-width:2; stroke-opacity:0.1; fill:none" points="156.112,650.626 2352.76,650.626 "/>
<polyline clip-path="url(#clip921)" style="stroke:#000000; stroke-linecap:round; stroke-linejoin:round; stroke-width:2; stroke-opacity:0.1; fill:none" points="156.112,251.159 2352.76,251.159 "/>
<polyline clip-path="url(#clip920)" style="stroke:#000000; stroke-linecap:round; stroke-linejoin:round; stroke-width:4; stroke-opacity:1; fill:none" points="156.112,1486.45 2352.76,1486.45 "/>
<polyline clip-path="url(#clip920)" style="stroke:#000000; stroke-linecap:round; stroke-linejoin:round; stroke-width:4; stroke-opacity:1; fill:none" points="507.182,1486.45 507.182,1467.55 "/>
<polyline clip-path="url(#clip920)" style="stroke:#000000; stroke-linecap:round; stroke-linejoin:round; stroke-width:4; stroke-opacity:1; fill:none" points="975.078,1486.45 975.078,1467.55 "/>
<polyline clip-path="url(#clip920)" style="stroke:#000000; stroke-linecap:round; stroke-linejoin:round; stroke-width:4; stroke-opacity:1; fill:none" points="1442.98,1486.45 1442.98,1467.55 "/>
<polyline clip-path="url(#clip920)" style="stroke:#000000; stroke-linecap:round; stroke-linejoin:round; stroke-width:4; stroke-opacity:1; fill:none" points="1910.87,1486.45 1910.87,1467.55 "/>
<path clip-path="url(#clip920)" d="M453.467 1532.02 L483.142 1532.02 L483.142 1535.95 L453.467 1535.95 L453.467 1532.02 Z" fill="#000000" fill-rule="nonzero" fill-opacity="1" /><path clip-path="url(#clip920)" d="M503.235 1517.37 Q499.624 1517.37 497.795 1520.93 Q495.99 1524.47 495.99 1531.6 Q495.99 1538.71 497.795 1542.27 Q499.624 1545.82 503.235 1545.82 Q506.869 1545.82 508.675 1542.27 Q510.503 1538.71 510.503 1531.6 Q510.503 1524.47 508.675 1520.93 Q506.869 1517.37 503.235 1517.37 M503.235 1513.66 Q509.045 1513.66 512.101 1518.27 Q515.179 1522.85 515.179 1531.6 Q515.179 1540.33 512.101 1544.94 Q509.045 1549.52 503.235 1549.52 Q497.425 1549.52 494.346 1544.94 Q491.291 1540.33 491.291 1531.6 Q491.291 1522.85 494.346 1518.27 Q497.425 1513.66 503.235 1513.66 Z" fill="#000000" fill-rule="nonzero" fill-opacity="1" /><path clip-path="url(#clip920)" d="M523.397 1542.97 L528.281 1542.97 L528.281 1548.85 L523.397 1548.85 L523.397 1542.97 Z" fill="#000000" fill-rule="nonzero" fill-opacity="1" /><path clip-path="url(#clip920)" d="M551.313 1518.36 L539.508 1536.81 L551.313 1536.81 L551.313 1518.36 M550.087 1514.29 L555.966 1514.29 L555.966 1536.81 L560.897 1536.81 L560.897 1540.7 L555.966 1540.7 L555.966 1548.85 L551.313 1548.85 L551.313 1540.7 L535.712 1540.7 L535.712 1536.19 L550.087 1514.29 Z" fill="#000000" fill-rule="nonzero" fill-opacity="1" /><path clip-path="url(#clip920)" d="M922.405 1532.02 L952.081 1532.02 L952.081 1535.95 L922.405 1535.95 L922.405 1532.02 Z" fill="#000000" fill-rule="nonzero" fill-opacity="1" /><path clip-path="url(#clip920)" d="M972.173 1517.37 Q968.562 1517.37 966.734 1520.93 Q964.928 1524.47 964.928 1531.6 Q964.928 1538.71 966.734 1542.27 Q968.562 1545.82 972.173 1545.82 Q975.808 1545.82 977.613 1542.27 Q979.442 1538.71 979.442 1531.6 Q979.442 1524.47 977.613 1520.93 Q975.808 1517.37 972.173 1517.37 M972.173 1513.66 Q977.983 1513.66 981.039 1518.27 Q984.118 1522.85 984.118 1531.6 Q984.118 1540.33 981.039 1544.94 Q977.983 1549.52 972.173 1549.52 Q966.363 1549.52 963.284 1544.94 Q960.229 1540.33 960.229 1531.6 Q960.229 1522.85 963.284 1518.27 Q966.363 1513.66 972.173 1513.66 Z" fill="#000000" fill-rule="nonzero" fill-opacity="1" /><path clip-path="url(#clip920)" d="M992.335 1542.97 L997.219 1542.97 L997.219 1548.85 L992.335 1548.85 L992.335 1542.97 Z" fill="#000000" fill-rule="nonzero" fill-opacity="1" /><path clip-path="url(#clip920)" d="M1011.43 1544.91 L1027.75 1544.91 L1027.75 1548.85 L1005.81 1548.85 L1005.81 1544.91 Q1008.47 1542.16 1013.05 1537.53 Q1017.66 1532.88 1018.84 1531.53 Q1021.09 1529.01 1021.96 1527.27 Q1022.87 1525.51 1022.87 1523.82 Q1022.87 1521.07 1020.92 1519.33 Q1019 1517.6 1015.9 1517.6 Q1013.7 1517.6 1011.25 1518.36 Q1008.82 1519.13 1006.04 1520.68 L1006.04 1515.95 Q1008.86 1514.82 1011.32 1514.24 Q1013.77 1513.66 1015.81 1513.66 Q1021.18 1513.66 1024.37 1516.35 Q1027.57 1519.03 1027.57 1523.52 Q1027.57 1525.65 1026.76 1527.57 Q1025.97 1529.47 1023.86 1532.07 Q1023.28 1532.74 1020.18 1535.95 Q1017.08 1539.15 1011.43 1544.91 Z" fill="#000000" fill-rule="nonzero" fill-opacity="1" /><path clip-path="url(#clip920)" d="M1420.36 1517.37 Q1416.75 1517.37 1414.92 1520.93 Q1413.11 1524.47 1413.11 1531.6 Q1413.11 1538.71 1414.92 1542.27 Q1416.75 1545.82 1420.36 1545.82 Q1423.99 1545.82 1425.8 1542.27 Q1427.63 1538.71 1427.63 1531.6 Q1427.63 1524.47 1425.8 1520.93 Q1423.99 1517.37 1420.36 1517.37 M1420.36 1513.66 Q1426.17 1513.66 1429.23 1518.27 Q1432.3 1522.85 1432.3 1531.6 Q1432.3 1540.33 1429.23 1544.94 Q1426.17 1549.52 1420.36 1549.52 Q1414.55 1549.52 1411.47 1544.94 Q1408.42 1540.33 1408.42 1531.6 Q1408.42 1522.85 1411.47 1518.27 Q1414.55 1513.66 1420.36 1513.66 Z" fill="#000000" fill-rule="nonzero" fill-opacity="1" /><path clip-path="url(#clip920)" d="M1440.52 1542.97 L1445.41 1542.97 L1445.41 1548.85 L1440.52 1548.85 L1440.52 1542.97 Z" fill="#000000" fill-rule="nonzero" fill-opacity="1" /><path clip-path="url(#clip920)" d="M1465.59 1517.37 Q1461.98 1517.37 1460.15 1520.93 Q1458.35 1524.47 1458.35 1531.6 Q1458.35 1538.71 1460.15 1542.27 Q1461.98 1545.82 1465.59 1545.82 Q1469.23 1545.82 1471.03 1542.27 Q1472.86 1538.71 1472.86 1531.6 Q1472.86 1524.47 1471.03 1520.93 Q1469.23 1517.37 1465.59 1517.37 M1465.59 1513.66 Q1471.4 1513.66 1474.46 1518.27 Q1477.54 1522.85 1477.54 1531.6 Q1477.54 1540.33 1474.46 1544.94 Q1471.4 1549.52 1465.59 1549.52 Q1459.78 1549.52 1456.7 1544.94 Q1453.65 1540.33 1453.65 1531.6 Q1453.65 1522.85 1456.7 1518.27 Q1459.78 1513.66 1465.59 1513.66 Z" fill="#000000" fill-rule="nonzero" fill-opacity="1" /><path clip-path="url(#clip920)" d="M1889.05 1517.37 Q1885.44 1517.37 1883.62 1520.93 Q1881.81 1524.47 1881.81 1531.6 Q1881.81 1538.71 1883.62 1542.27 Q1885.44 1545.82 1889.05 1545.82 Q1892.69 1545.82 1894.49 1542.27 Q1896.32 1538.71 1896.32 1531.6 Q1896.32 1524.47 1894.49 1520.93 Q1892.69 1517.37 1889.05 1517.37 M1889.05 1513.66 Q1894.87 1513.66 1897.92 1518.27 Q1901 1522.85 1901 1531.6 Q1901 1540.33 1897.92 1544.94 Q1894.87 1549.52 1889.05 1549.52 Q1883.24 1549.52 1880.17 1544.94 Q1877.11 1540.33 1877.11 1531.6 Q1877.11 1522.85 1880.17 1518.27 Q1883.24 1513.66 1889.05 1513.66 Z" fill="#000000" fill-rule="nonzero" fill-opacity="1" /><path clip-path="url(#clip920)" d="M1909.22 1542.97 L1914.1 1542.97 L1914.1 1548.85 L1909.22 1548.85 L1909.22 1542.97 Z" fill="#000000" fill-rule="nonzero" fill-opacity="1" /><path clip-path="url(#clip920)" d="M1928.31 1544.91 L1944.63 1544.91 L1944.63 1548.85 L1922.69 1548.85 L1922.69 1544.91 Q1925.35 1542.16 1929.93 1537.53 Q1934.54 1532.88 1935.72 1531.53 Q1937.97 1529.01 1938.85 1527.27 Q1939.75 1525.51 1939.75 1523.82 Q1939.75 1521.07 1937.8 1519.33 Q1935.88 1517.6 1932.78 1517.6 Q1930.58 1517.6 1928.13 1518.36 Q1925.7 1519.13 1922.92 1520.68 L1922.92 1515.95 Q1925.74 1514.82 1928.2 1514.24 Q1930.65 1513.66 1932.69 1513.66 Q1938.06 1513.66 1941.25 1516.35 Q1944.45 1519.03 1944.45 1523.52 Q1944.45 1525.65 1943.64 1527.57 Q1942.85 1529.47 1940.74 1532.07 Q1940.17 1532.74 1937.06 1535.95 Q1933.96 1539.15 1928.31 1544.91 Z" fill="#000000" fill-rule="nonzero" fill-opacity="1" /><polyline clip-path="url(#clip920)" style="stroke:#000000; stroke-linecap:round; stroke-linejoin:round; stroke-width:4; stroke-opacity:1; fill:none" points="156.112,1486.45 156.112,47.2441 "/>
<polyline clip-path="url(#clip920)" style="stroke:#000000; stroke-linecap:round; stroke-linejoin:round; stroke-width:4; stroke-opacity:1; fill:none" points="156.112,1449.56 175.01,1449.56 "/>
<polyline clip-path="url(#clip920)" style="stroke:#000000; stroke-linecap:round; stroke-linejoin:round; stroke-width:4; stroke-opacity:1; fill:none" points="156.112,1050.09 175.01,1050.09 "/>
<polyline clip-path="url(#clip920)" style="stroke:#000000; stroke-linecap:round; stroke-linejoin:round; stroke-width:4; stroke-opacity:1; fill:none" points="156.112,650.626 175.01,650.626 "/>
<polyline clip-path="url(#clip920)" style="stroke:#000000; stroke-linecap:round; stroke-linejoin:round; stroke-width:4; stroke-opacity:1; fill:none" points="156.112,251.159 175.01,251.159 "/>
<path clip-path="url(#clip920)" d="M62.9365 1435.36 Q59.3254 1435.36 57.4967 1438.92 Q55.6912 1442.46 55.6912 1449.59 Q55.6912 1456.7 57.4967 1460.27 Q59.3254 1463.81 62.9365 1463.81 Q66.5707 1463.81 68.3763 1460.27 Q70.205 1456.7 70.205 1449.59 Q70.205 1442.46 68.3763 1438.92 Q66.5707 1435.36 62.9365 1435.36 M62.9365 1431.65 Q68.7467 1431.65 71.8022 1436.26 Q74.8809 1440.84 74.8809 1449.59 Q74.8809 1458.32 71.8022 1462.93 Q68.7467 1467.51 62.9365 1467.51 Q57.1264 1467.51 54.0477 1462.93 Q50.9921 1458.32 50.9921 1449.59 Q50.9921 1440.84 54.0477 1436.26 Q57.1264 1431.65 62.9365 1431.65 Z" fill="#000000" fill-rule="nonzero" fill-opacity="1" /><path clip-path="url(#clip920)" d="M83.0984 1460.96 L87.9827 1460.96 L87.9827 1466.84 L83.0984 1466.84 L83.0984 1460.96 Z" fill="#000000" fill-rule="nonzero" fill-opacity="1" /><path clip-path="url(#clip920)" d="M108.168 1435.36 Q104.557 1435.36 102.728 1438.92 Q100.922 1442.46 100.922 1449.59 Q100.922 1456.7 102.728 1460.27 Q104.557 1463.81 108.168 1463.81 Q111.802 1463.81 113.608 1460.27 Q115.436 1456.7 115.436 1449.59 Q115.436 1442.46 113.608 1438.92 Q111.802 1435.36 108.168 1435.36 M108.168 1431.65 Q113.978 1431.65 117.033 1436.26 Q120.112 1440.84 120.112 1449.59 Q120.112 1458.32 117.033 1462.93 Q113.978 1467.51 108.168 1467.51 Q102.358 1467.51 99.2789 1462.93 Q96.2234 1458.32 96.2234 1449.59 Q96.2234 1440.84 99.2789 1436.26 Q102.358 1431.65 108.168 1431.65 Z" fill="#000000" fill-rule="nonzero" fill-opacity="1" /><path clip-path="url(#clip920)" d="M64.1634 1035.89 Q60.5523 1035.89 58.7236 1039.46 Q56.918 1043 56.918 1050.13 Q56.918 1057.23 58.7236 1060.8 Q60.5523 1064.34 64.1634 1064.34 Q67.7976 1064.34 69.6031 1060.8 Q71.4318 1057.23 71.4318 1050.13 Q71.4318 1043 69.6031 1039.46 Q67.7976 1035.89 64.1634 1035.89 M64.1634 1032.19 Q69.9735 1032.19 73.029 1036.79 Q76.1077 1041.38 76.1077 1050.13 Q76.1077 1058.85 73.029 1063.46 Q69.9735 1068.04 64.1634 1068.04 Q58.3532 1068.04 55.2745 1063.46 Q52.219 1058.85 52.219 1050.13 Q52.219 1041.38 55.2745 1036.79 Q58.3532 1032.19 64.1634 1032.19 Z" fill="#000000" fill-rule="nonzero" fill-opacity="1" /><path clip-path="url(#clip920)" d="M84.3253 1061.49 L89.2095 1061.49 L89.2095 1067.37 L84.3253 1067.37 L84.3253 1061.49 Z" fill="#000000" fill-rule="nonzero" fill-opacity="1" /><path clip-path="url(#clip920)" d="M100.205 1063.44 L107.844 1063.44 L107.844 1037.07 L99.5335 1038.74 L99.5335 1034.48 L107.797 1032.81 L112.473 1032.81 L112.473 1063.44 L120.112 1063.44 L120.112 1067.37 L100.205 1067.37 L100.205 1063.44 Z" fill="#000000" fill-rule="nonzero" fill-opacity="1" /><path clip-path="url(#clip920)" d="M64.5337 636.424 Q60.9226 636.424 59.0939 639.989 Q57.2884 643.531 57.2884 650.661 Q57.2884 657.767 59.0939 661.332 Q60.9226 664.873 64.5337 664.873 Q68.168 664.873 69.9735 661.332 Q71.8022 657.767 71.8022 650.661 Q71.8022 643.531 69.9735 639.989 Q68.168 636.424 64.5337 636.424 M64.5337 632.721 Q70.3439 632.721 73.3994 637.327 Q76.4781 641.911 76.4781 650.661 Q76.4781 659.387 73.3994 663.994 Q70.3439 668.577 64.5337 668.577 Q58.7236 668.577 55.6449 663.994 Q52.5893 659.387 52.5893 650.661 Q52.5893 641.911 55.6449 637.327 Q58.7236 632.721 64.5337 632.721 Z" fill="#000000" fill-rule="nonzero" fill-opacity="1" /><path clip-path="url(#clip920)" d="M84.6956 662.026 L89.5799 662.026 L89.5799 667.906 L84.6956 667.906 L84.6956 662.026 Z" fill="#000000" fill-rule="nonzero" fill-opacity="1" /><path clip-path="url(#clip920)" d="M103.793 663.971 L120.112 663.971 L120.112 667.906 L98.1678 667.906 L98.1678 663.971 Q100.83 661.216 105.413 656.586 Q110.02 651.934 111.2 650.591 Q113.445 648.068 114.325 646.332 Q115.228 644.573 115.228 642.883 Q115.228 640.128 113.283 638.392 Q111.362 636.656 108.26 636.656 Q106.061 636.656 103.608 637.42 Q101.177 638.184 98.3993 639.735 L98.3993 635.012 Q101.223 633.878 103.677 633.299 Q106.131 632.721 108.168 632.721 Q113.538 632.721 116.733 635.406 Q119.927 638.091 119.927 642.582 Q119.927 644.711 119.117 646.633 Q118.33 648.531 116.223 651.123 Q115.645 651.795 112.543 655.012 Q109.441 658.207 103.793 663.971 Z" fill="#000000" fill-rule="nonzero" fill-opacity="1" /><path clip-path="url(#clip920)" d="M63.5847 236.958 Q59.9736 236.958 58.1449 240.523 Q56.3393 244.064 56.3393 251.194 Q56.3393 258.3 58.1449 261.865 Q59.9736 265.407 63.5847 265.407 Q67.2189 265.407 69.0244 261.865 Q70.8531 258.3 70.8531 251.194 Q70.8531 244.064 69.0244 240.523 Q67.2189 236.958 63.5847 236.958 M63.5847 233.254 Q69.3948 233.254 72.4503 237.861 Q75.529 242.444 75.529 251.194 Q75.529 259.921 72.4503 264.527 Q69.3948 269.11 63.5847 269.11 Q57.7745 269.11 54.6958 264.527 Q51.6403 259.921 51.6403 251.194 Q51.6403 242.444 54.6958 237.861 Q57.7745 233.254 63.5847 233.254 Z" fill="#000000" fill-rule="nonzero" fill-opacity="1" /><path clip-path="url(#clip920)" d="M83.7466 262.559 L88.6308 262.559 L88.6308 268.439 L83.7466 268.439 L83.7466 262.559 Z" fill="#000000" fill-rule="nonzero" fill-opacity="1" /><path clip-path="url(#clip920)" d="M112.983 249.805 Q116.339 250.522 118.214 252.791 Q120.112 255.059 120.112 258.393 Q120.112 263.509 116.594 266.309 Q113.075 269.11 106.594 269.11 Q104.418 269.11 102.103 268.671 Q99.8113 268.254 97.3576 267.397 L97.3576 262.884 Q99.3021 264.018 101.617 264.596 Q103.932 265.175 106.455 265.175 Q110.853 265.175 113.145 263.439 Q115.459 261.703 115.459 258.393 Q115.459 255.337 113.307 253.624 Q111.177 251.888 107.358 251.888 L103.33 251.888 L103.33 248.046 L107.543 248.046 Q110.992 248.046 112.82 246.68 Q114.649 245.291 114.649 242.698 Q114.649 240.036 112.751 238.624 Q110.876 237.189 107.358 237.189 Q105.436 237.189 103.237 237.606 Q101.038 238.023 98.3993 238.902 L98.3993 234.736 Q101.061 233.995 103.376 233.624 Q105.714 233.254 107.774 233.254 Q113.098 233.254 116.2 235.685 Q119.302 238.092 119.302 242.212 Q119.302 245.083 117.658 247.073 Q116.015 249.041 112.983 249.805 Z" fill="#000000" fill-rule="nonzero" fill-opacity="1" /><circle clip-path="url(#clip921)" cx="1468.37" cy="1295.46" r="14.4" fill="#808080" fill-rule="evenodd" fill-opacity="1" stroke="#000000" stroke-opacity="1" stroke-width="3.2"/>
<circle clip-path="url(#clip921)" cx="1421" cy="1445.72" r="14.4" fill="#808080" fill-rule="evenodd" fill-opacity="1" stroke="#000000" stroke-opacity="1" stroke-width="3.2"/>
<circle clip-path="url(#clip921)" cx="2290.59" cy="1318.66" r="14.4" fill="#808080" fill-rule="evenodd" fill-opacity="1" stroke="#000000" stroke-opacity="1" stroke-width="3.2"/>
<circle clip-path="url(#clip921)" cx="218.281" cy="87.9763" r="14.4" fill="#808080" fill-rule="evenodd" fill-opacity="1" stroke="#000000" stroke-opacity="1" stroke-width="3.2"/>
<path clip-path="url(#clip920)" d="M1472.66 1302.9 Q1463.63 1302.9 1460.14 1304.96 Q1456.66 1307.03 1456.66 1312.01 Q1456.66 1315.98 1459.25 1318.33 Q1461.88 1320.64 1466.38 1320.64 Q1472.58 1320.64 1476.31 1316.27 Q1480.07 1311.85 1480.07 1304.56 L1480.07 1302.9 L1472.66 1302.9 M1487.53 1299.82 L1487.53 1325.7 L1480.07 1325.7 L1480.07 1318.82 Q1477.52 1322.95 1473.71 1324.94 Q1469.91 1326.88 1464.4 1326.88 Q1457.43 1326.88 1453.3 1322.99 Q1449.21 1319.06 1449.21 1312.5 Q1449.21 1304.84 1454.31 1300.95 Q1459.45 1297.06 1469.62 1297.06 L1480.07 1297.06 L1480.07 1296.34 Q1480.07 1291.19 1476.67 1288.4 Q1473.31 1285.56 1467.19 1285.56 Q1463.3 1285.56 1459.62 1286.49 Q1455.93 1287.42 1452.53 1289.29 L1452.53 1282.4 Q1456.62 1280.82 1460.47 1280.05 Q1464.32 1279.24 1467.96 1279.24 Q1477.8 1279.24 1482.67 1284.35 Q1487.53 1289.45 1487.53 1299.82 Z" fill="#000000" fill-rule="nonzero" fill-opacity="1" /><path clip-path="url(#clip920)" d="M1433.56 1453.31 Q1433.56 1445.09 1430.15 1440.43 Q1426.79 1435.73 1420.88 1435.73 Q1414.96 1435.73 1411.56 1440.43 Q1408.2 1445.09 1408.2 1453.31 Q1408.2 1461.53 1411.56 1466.23 Q1414.96 1470.89 1420.88 1470.89 Q1426.79 1470.89 1430.15 1466.23 Q1433.56 1461.53 1433.56 1453.31 M1408.2 1437.47 Q1410.55 1433.42 1414.11 1431.48 Q1417.72 1429.49 1422.7 1429.49 Q1430.96 1429.49 1436.11 1436.05 Q1441.29 1442.62 1441.29 1453.31 Q1441.29 1464.01 1436.11 1470.57 Q1430.96 1477.13 1422.7 1477.13 Q1417.72 1477.13 1414.11 1475.19 Q1410.55 1473.2 1408.2 1469.15 L1408.2 1475.96 L1400.7 1475.96 L1400.7 1412.92 L1408.2 1412.92 L1408.2 1437.47 Z" fill="#000000" fill-rule="nonzero" fill-opacity="1" /><path clip-path="url(#clip920)" d="M2308.53 1305.27 L2308.53 1312.24 Q2305.37 1310.5 2302.17 1309.65 Q2299.01 1308.76 2295.77 1308.76 Q2288.52 1308.76 2284.51 1313.38 Q2280.5 1317.95 2280.5 1326.26 Q2280.5 1334.56 2284.51 1339.18 Q2288.52 1343.76 2295.77 1343.76 Q2299.01 1343.76 2302.17 1342.91 Q2305.37 1342.02 2308.53 1340.27 L2308.53 1347.16 Q2305.41 1348.62 2302.05 1349.35 Q2298.73 1350.08 2294.96 1350.08 Q2284.71 1350.08 2278.68 1343.64 Q2272.64 1337.2 2272.64 1326.26 Q2272.64 1315.16 2278.72 1308.8 Q2284.83 1302.44 2295.45 1302.44 Q2298.89 1302.44 2302.17 1303.17 Q2305.45 1303.86 2308.53 1305.27 Z" fill="#000000" fill-rule="nonzero" fill-opacity="1" /><path clip-path="url(#clip920)" d="M231.102 79.7327 L231.102 55.1842 L238.556 55.1842 L238.556 118.216 L231.102 118.216 L231.102 111.411 Q228.753 115.462 225.148 117.447 Q221.583 119.391 216.56 119.391 Q208.336 119.391 203.151 112.829 Q198.007 106.266 198.007 95.5717 Q198.007 84.8773 203.151 78.3149 Q208.336 71.7524 216.56 71.7524 Q221.583 71.7524 225.148 73.7373 Q228.753 75.6818 231.102 79.7327 M205.703 95.5717 Q205.703 103.795 209.065 108.494 Q212.468 113.153 218.383 113.153 Q224.297 113.153 227.7 108.494 Q231.102 103.795 231.102 95.5717 Q231.102 87.3484 227.7 82.6898 Q224.297 77.9908 218.383 77.9908 Q212.468 77.9908 209.065 82.6898 Q205.703 87.3484 205.703 95.5717 Z" fill="#000000" fill-rule="nonzero" fill-opacity="1" /><path clip-path="url(#clip920)" d="M2007.44 198.898 L2279.53 198.898 L2279.53 95.2176 L2007.44 95.2176  Z" fill="#ffffff" fill-rule="evenodd" fill-opacity="1"/>
<polyline clip-path="url(#clip920)" style="stroke:#000000; stroke-linecap:round; stroke-linejoin:round; stroke-width:4; stroke-opacity:1; fill:none" points="2007.44,198.898 2279.53,198.898 2279.53,95.2176 2007.44,95.2176 2007.44,198.898 "/>
<circle clip-path="url(#clip920)" cx="2105.07" cy="147.058" r="20.48" fill="#808080" fill-rule="evenodd" fill-opacity="1" stroke="#000000" stroke-opacity="1" stroke-width="4.55111"/>
<path clip-path="url(#clip920)" d="M2216.54 166.745 Q2214.73 171.375 2213.02 172.787 Q2211.31 174.199 2208.44 174.199 L2205.03 174.199 L2205.03 170.634 L2207.53 170.634 Q2209.29 170.634 2210.27 169.8 Q2211.24 168.967 2212.42 165.865 L2213.18 163.921 L2202.7 138.412 L2207.21 138.412 L2215.31 158.689 L2223.41 138.412 L2227.93 138.412 L2216.54 166.745 Z" fill="#000000" fill-rule="nonzero" fill-opacity="1" /><path clip-path="url(#clip920)" d="M2235.22 160.402 L2242.86 160.402 L2242.86 134.037 L2234.55 135.703 L2234.55 131.444 L2242.81 129.778 L2247.49 129.778 L2247.49 160.402 L2255.13 160.402 L2255.13 164.338 L2235.22 164.338 L2235.22 160.402 Z" fill="#000000" fill-rule="nonzero" fill-opacity="1" /></svg>
