<?xml version="1.0" encoding="utf-8"?>
<svg xmlns="http://www.w3.org/2000/svg" xmlns:xlink="http://www.w3.org/1999/xlink" width="600" height="400" viewBox="0 0 2400 1600">
<defs>
  <clipPath id="clip810">
    <rect x="0" y="0" width="2400" height="1600"/>
  </clipPath>
</defs>
<path clip-path="url(#clip810)" d="M0 1600 L2400 1600 L2400 0 L0 0  Z" fill="#ffffff" fill-rule="evenodd" fill-opacity="1"/>
<defs>
  <clipPath id="clip811">
    <rect x="112" y="47" width="2242" height="1440"/>
  </clipPath>
</defs>
<path clip-path="url(#clip810)" d="M112.177 1486.45 L2352.76 1486.45 L2352.76 47.2441 L112.177 47.2441  Z" fill="#ffffff" fill-rule="evenodd" fill-opacity="1"/>
<polyline clip-path="url(#clip811)" style="stroke:#000000; stroke-linecap:round; stroke-linejoin:round; stroke-width:2; stroke-opacity:0.1; fill:none" points="560.041,1486.45 560.041,47.2441 "/>
<polyline clip-path="url(#clip811)" style="stroke:#000000; stroke-linecap:round; stroke-linejoin:round; stroke-width:2; stroke-opacity:0.1; fill:none" points="1045.18,1486.45 1045.18,47.2441 "/>
<polyline clip-path="url(#clip811)" style="stroke:#000000; stroke-linecap:round; stroke-linejoin:round; stroke-width:2; stroke-opacity:0.1; fill:none" points="1530.33,1486.45 1530.33,47.2441 "/>
<polyline clip-path="url(#clip811)" style="stroke:#000000; stroke-linecap:round; stroke-linejoin:round; stroke-width:2; stroke-opacity:0.1; fill:none" points="2015.47,1486.45 2015.47,47.2441 "/>
<polyline clip-path="url(#clip811)" style="stroke:#000000; stroke-linecap:round; stroke-linejoin:round; stroke-width:2; stroke-opacity:0.1; fill:none" points="112.177,1250.71 2352.76,1250.71 "/>
<polyline clip-path="url(#clip811)" style="stroke:#000000; stroke-linecap:round; stroke-linejoin:round; stroke-width:2; stroke-opacity:0.1; fill:none" points="112.177,1011.68 2352.76,1011.68 "/>
<polyline clip-path="url(#clip811)" style="stroke:#000000; stroke-linecap:round; stroke-linejoin:round; stroke-width:2; stroke-opacity:0.1; fill:none" points="112.177,772.648 2352.76,772.648 "/>
<polyline clip-path="url(#clip811)" style="stroke:#000000; stroke-linecap:round; stroke-linejoin:round; stroke-width:2; stroke-opacity:0.1; fill:none" points="112.177,533.617 2352.76,533.617 "/>
<polyline clip-path="url(#clip811)" style="stroke:#000000; stroke-linecap:round; stroke-linejoin:round; stroke-width:2; stroke-opacity:0.1; fill:none" points="112.177,294.585 2352.76,294.585 "/>
<polyline clip-path="url(#clip811)" style="stroke:#000000; stroke-linecap:round; stroke-linejoin:round; stroke-width:2; stroke-opacity:0.1; fill:none" points="112.177,55.553 2352.76,55.553 "/>
<polyline clip-path="url(#clip810)" style="stroke:#000000; stroke-linecap:round; stroke-linejoin:round; stroke-width:4; stroke-opacity:1; fill:none" points="112.177,1486.45 2352.76,1486.45 "/>
<polyline clip-path="url(#clip810)" style="stroke:#000000; stroke-linecap:round; stroke-linejoin:round; stroke-width:4; stroke-opacity:1; fill:none" points="560.041,1486.45 560.041,1467.55 "/>
<polyline clip-path="url(#clip810)" style="stroke:#000000; stroke-linecap:round; stroke-linejoin:round; stroke-width:4; stroke-opacity:1; fill:none" points="1045.18,1486.45 1045.18,1467.55 "/>
<polyline clip-path="url(#clip810)" style="stroke:#000000; stroke-linecap:round; stroke-linejoin:round; stroke-width:4; stroke-opacity:1; fill:none" points="1530.33,1486.45 1530.33,1467.55 "/>
<polyline clip-path="url(#clip810)" style="stroke:#000000; stroke-linecap:round; stroke-linejoin:round; stroke-width:4; stroke-opacity:1; fill:none" points="2015.47,1486.45 2015.47,1467.55 "/>
<path clip-path="url(#clip810)" d="M506.569 1532.02 L536.245 1532.02 L536.245 1535.95 L506.569 1535.95 L506.569 1532.02 Z" fill="#000000" fill-rule="nonzero" fill-opacity="1" /><path clip-path="url(#clip810)" d="M547.147 1544.91 L554.786 1544.91 L554.786 1518.55 L546.476 1520.21 L546.476 1515.95 L554.74 1514.29 L559.416 1514.29 L559.416 1544.91 L567.055 1544.91 L567.055 1548.85 L547.147 1548.85 L547.147 1544.91 Z" fill="#000000" fill-rule="nonzero" fill-opacity="1" /><path clip-path="url(#clip810)" d="M576.499 1542.97 L581.383 1542.97 L581.383 1548.85 L576.499 1548.85 L576.499 1542.97 Z" fill="#000000" fill-rule="nonzero" fill-opacity="1" /><path clip-path="url(#clip810)" d="M601.568 1517.37 Q597.957 1517.37 596.129 1520.93 Q594.323 1524.47 594.323 1531.6 Q594.323 1538.71 596.129 1542.27 Q597.957 1545.82 601.568 1545.82 Q605.203 1545.82 607.008 1542.27 Q608.837 1538.71 608.837 1531.6 Q608.837 1524.47 607.008 1520.93 Q605.203 1517.37 601.568 1517.37 M601.568 1513.66 Q607.379 1513.66 610.434 1518.27 Q613.513 1522.85 613.513 1531.6 Q613.513 1540.33 610.434 1544.94 Q607.379 1549.52 601.568 1549.52 Q595.758 1549.52 592.68 1544.94 Q589.624 1540.33 589.624 1531.6 Q589.624 1522.85 592.68 1518.27 Q595.758 1513.66 601.568 1513.66 Z" fill="#000000" fill-rule="nonzero" fill-opacity="1" /><path clip-path="url(#clip810)" d="M992.211 1532.02 L1021.89 1532.02 L1021.89 1535.95 L992.211 1535.95 L992.211 1532.02 Z" fill="#000000" fill-rule="nonzero" fill-opacity="1" /><path clip-path="url(#clip810)" d="M1041.98 1517.37 Q1038.37 1517.37 1036.54 1520.93 Q1034.73 1524.47 1034.73 1531.6 Q1034.73 1538.71 1036.54 1542.27 Q1038.37 1545.82 1041.98 1545.82 Q1045.61 1545.82 1047.42 1542.27 Q1049.25 1538.71 1049.25 1531.6 Q1049.25 1524.47 1047.42 1520.93 Q1045.61 1517.37 1041.98 1517.37 M1041.98 1513.66 Q1047.79 1513.66 1050.84 1518.27 Q1053.92 1522.85 1053.92 1531.6 Q1053.92 1540.33 1050.84 1544.94 Q1047.79 1549.52 1041.98 1549.52 Q1036.17 1549.52 1033.09 1544.94 Q1030.03 1540.33 1030.03 1531.6 Q1030.03 1522.85 1033.09 1518.27 Q1036.17 1513.66 1041.98 1513.66 Z" fill="#000000" fill-rule="nonzero" fill-opacity="1" /><path clip-path="url(#clip810)" d="M1062.14 1542.97 L1067.03 1542.97 L1067.03 1548.85 L1062.14 1548.85 L1062.14 1542.97 Z" fill="#000000" fill-rule="nonzero" fill-opacity="1" /><path clip-path="url(#clip810)" d="M1077.26 1514.29 L1095.61 1514.29 L1095.61 1518.22 L1081.54 1518.22 L1081.54 1526.7 Q1082.56 1526.35 1083.58 1526.19 Q1084.59 1526 1085.61 1526 Q1091.4 1526 1094.78 1529.17 Q1098.16 1532.34 1098.16 1537.76 Q1098.16 1543.34 1094.69 1546.44 Q1091.21 1549.52 1084.9 1549.52 Q1082.72 1549.52 1080.45 1549.15 Q1078.21 1548.78 1075.8 1548.04 L1075.8 1543.34 Q1077.88 1544.47 1080.1 1545.03 Q1082.33 1545.58 1084.8 1545.58 Q1088.81 1545.58 1091.15 1543.48 Q1093.48 1541.37 1093.48 1537.76 Q1093.48 1534.15 1091.15 1532.04 Q1088.81 1529.94 1084.8 1529.94 Q1082.93 1529.94 1081.05 1530.35 Q1079.2 1530.77 1077.26 1531.65 L1077.26 1514.29 Z" fill="#000000" fill-rule="nonzero" fill-opacity="1" /><path clip-path="url(#clip810)" d="M1507.71 1517.37 Q1504.1 1517.37 1502.27 1520.93 Q1500.47 1524.47 1500.47 1531.6 Q1500.47 1538.71 1502.27 1542.27 Q1504.1 1545.82 1507.71 1545.82 Q1511.35 1545.82 1513.15 1542.27 Q1514.98 1538.71 1514.98 1531.6 Q1514.98 1524.47 1513.15 1520.93 Q1511.35 1517.37 1507.71 1517.37 M1507.71 1513.66 Q1513.52 1513.66 1516.58 1518.27 Q1519.66 1522.85 1519.66 1531.6 Q1519.66 1540.33 1516.58 1544.94 Q1513.52 1549.52 1507.71 1549.52 Q1501.9 1549.52 1498.82 1544.94 Q1495.77 1540.33 1495.77 1531.6 Q1495.77 1522.85 1498.82 1518.27 Q1501.9 1513.66 1507.71 1513.66 Z" fill="#000000" fill-rule="nonzero" fill-opacity="1" /><path clip-path="url(#clip810)" d="M1527.88 1542.97 L1532.76 1542.97 L1532.76 1548.85 L1527.88 1548.85 L1527.88 1542.97 Z" fill="#000000" fill-rule="nonzero" fill-opacity="1" /><path clip-path="url(#clip810)" d="M1552.94 1517.37 Q1549.33 1517.37 1547.5 1520.93 Q1545.7 1524.47 1545.7 1531.6 Q1545.7 1538.71 1547.5 1542.27 Q1549.33 1545.82 1552.94 1545.82 Q1556.58 1545.82 1558.38 1542.27 Q1560.21 1538.71 1560.21 1531.6 Q1560.21 1524.47 1558.38 1520.93 Q1556.58 1517.37 1552.94 1517.37 M1552.94 1513.66 Q1558.75 1513.66 1561.81 1518.27 Q1564.89 1522.85 1564.89 1531.6 Q1564.89 1540.33 1561.81 1544.94 Q1558.75 1549.52 1552.94 1549.52 Q1547.13 1549.52 1544.06 1544.94 Q1541 1540.33 1541 1531.6 Q1541 1522.85 1544.06 1518.27 Q1547.13 1513.66 1552.94 1513.66 Z" fill="#000000" fill-rule="nonzero" fill-opacity="1" /><path clip-path="url(#clip810)" d="M1993.35 1517.37 Q1989.74 1517.37 1987.91 1520.93 Q1986.11 1524.47 1986.11 1531.6 Q1986.11 1538.71 1987.91 1542.27 Q1989.74 1545.82 1993.35 1545.82 Q1996.99 1545.82 1998.79 1542.27 Q2000.62 1538.71 2000.62 1531.6 Q2000.62 1524.47 1998.79 1520.93 Q1996.99 1517.37 1993.35 1517.37 M1993.35 1513.66 Q1999.16 1513.66 2002.22 1518.27 Q2005.3 1522.85 2005.3 1531.6 Q2005.3 1540.33 2002.22 1544.94 Q1999.16 1549.52 1993.35 1549.52 Q1987.54 1549.52 1984.47 1544.94 Q1981.41 1540.33 1981.41 1531.6 Q1981.41 1522.85 1984.47 1518.27 Q1987.54 1513.66 1993.35 1513.66 Z" fill="#000000" fill-rule="nonzero" fill-opacity="1" /><path clip-path="url(#clip810)" d="M2013.52 1542.97 L2018.4 1542.97 L2018.4 1548.85 L2013.52 1548.85 L2013.52 1542.97 Z" fill="#000000" fill-rule="nonzero" fill-opacity="1" /><path clip-path="url(#clip810)" d="M2028.63 1514.29 L2046.99 1514.29 L2046.99 1518.22 L2032.91 1518.22 L2032.91 1526.7 Q2033.93 1526.35 2034.95 1526.19 Q2035.97 1526 2036.99 1526 Q2042.78 1526 2046.16 1529.17 Q2049.54 1532.34 2049.54 1537.76 Q2049.54 1543.34 2046.06 1546.44 Q2042.59 1549.52 2036.27 1549.52 Q2034.1 1549.52 2031.83 1549.15 Q2029.58 1548.78 2027.17 1548.04 L2027.17 1543.34 Q2029.26 1544.47 2031.48 1545.03 Q2033.7 1545.58 2036.18 1545.58 Q2040.18 1545.58 2042.52 1543.48 Q2044.86 1541.37 2044.86 1537.76 Q2044.86 1534.15 2042.52 1532.04 Q2040.18 1529.94 2036.18 1529.94 Q2034.3 1529.94 2032.43 1530.35 Q2030.58 1530.77 2028.63 1531.65 L2028.63 1514.29 Z" fill="#000000" fill-rule="nonzero" fill-opacity="1" /><polyline clip-path="url(#clip810)" style="stroke:#000000; stroke-linecap:round; stroke-linejoin:round; stroke-width:4; stroke-opacity:1; fill:none" points="112.177,1486.45 112.177,47.2441 "/>
<polyline clip-path="url(#clip810)" style="stroke:#000000; stroke-linecap:round; stroke-linejoin:round; stroke-width:4; stroke-opacity:1; fill:none" points="112.177,1250.71 131.075,1250.71 "/>
<polyline clip-path="url(#clip810)" style="stroke:#000000; stroke-linecap:round; stroke-linejoin:round; stroke-width:4; stroke-opacity:1; fill:none" points="112.177,1011.68 131.075,1011.68 "/>
<polyline clip-path="url(#clip810)" style="stroke:#000000; stroke-linecap:round; stroke-linejoin:round; stroke-width:4; stroke-opacity:1; fill:none" points="112.177,772.648 131.075,772.648 "/>
<polyline clip-path="url(#clip810)" style="stroke:#000000; stroke-linecap:round; stroke-linejoin:round; stroke-width:4; stroke-opacity:1; fill:none" points="112.177,533.617 131.075,533.617 "/>
<polyline clip-path="url(#clip810)" style="stroke:#000000; stroke-linecap:round; stroke-linejoin:round; stroke-width:4; stroke-opacity:1; fill:none" points="112.177,294.585 131.075,294.585 "/>
<polyline clip-path="url(#clip810)" style="stroke:#000000; stroke-linecap:round; stroke-linejoin:round; stroke-width:4; stroke-opacity:1; fill:none" points="112.177,55.553 131.075,55.553 "/>
<path clip-path="url(#clip810)" d="M56.2699 1264.06 L63.9087 1264.06 L63.9087 1237.69 L55.5986 1239.36 L55.5986 1235.1 L63.8624 1233.43 L68.5383 1233.43 L68.5383 1264.06 L76.1772 1264.06 L76.1772 1267.99 L56.2699 1267.99 L56.2699 1264.06 Z" fill="#000000" fill-rule="nonzero" fill-opacity="1" /><path clip-path="url(#clip810)" d="M59.8578 1025.02 L76.1772 1025.02 L76.1772 1028.96 L54.2328 1028.96 L54.2328 1025.02 Q56.8949 1022.27 61.4782 1017.64 Q66.0846 1012.99 67.2652 1011.65 Q69.5105 1009.12 70.3902 1007.39 Q71.2929 1005.63 71.2929 1003.94 Q71.2929 1001.18 69.3485 999.446 Q67.4272 997.71 64.3254 997.71 Q62.1263 997.71 59.6726 998.474 Q57.2421 999.238 54.4643 1000.79 L54.4643 996.067 Q57.2884 994.933 59.7421 994.354 Q62.1958 993.775 64.2328 993.775 Q69.6031 993.775 72.7976 996.46 Q75.992 999.146 75.992 1003.64 Q75.992 1005.77 75.1818 1007.69 Q74.3948 1009.59 72.2883 1012.18 Q71.7096 1012.85 68.6078 1016.07 Q65.5059 1019.26 59.8578 1025.02 Z" fill="#000000" fill-rule="nonzero" fill-opacity="1" /><path clip-path="url(#clip810)" d="M69.0476 771.294 Q72.404 772.012 74.279 774.28 Q76.1772 776.549 76.1772 779.882 Q76.1772 784.998 72.6587 787.799 Q69.1402 790.6 62.6587 790.6 Q60.4828 790.6 58.168 790.16 Q55.8764 789.743 53.4227 788.887 L53.4227 784.373 Q55.3671 785.507 57.6819 786.086 Q59.9967 786.665 62.5198 786.665 Q66.918 786.665 69.2096 784.928 Q71.5244 783.192 71.5244 779.882 Q71.5244 776.827 69.3717 775.114 Q67.242 773.378 63.4226 773.378 L59.3949 773.378 L59.3949 769.535 L63.6078 769.535 Q67.0569 769.535 68.8855 768.169 Q70.7142 766.78 70.7142 764.188 Q70.7142 761.526 68.8161 760.114 Q66.9411 758.679 63.4226 758.679 Q61.5013 758.679 59.3023 759.095 Q57.1032 759.512 54.4643 760.391 L54.4643 756.225 Q57.1264 755.484 59.4412 755.114 Q61.7791 754.743 63.8393 754.743 Q69.1633 754.743 72.2652 757.174 Q75.367 759.581 75.367 763.702 Q75.367 766.572 73.7235 768.563 Q72.08 770.53 69.0476 771.294 Z" fill="#000000" fill-rule="nonzero" fill-opacity="1" /><path clip-path="url(#clip810)" d="M66.5939 520.411 L54.7884 538.86 L66.5939 538.86 L66.5939 520.411 M65.367 516.337 L71.2466 516.337 L71.2466 538.86 L76.1772 538.86 L76.1772 542.748 L71.2466 542.748 L71.2466 550.897 L66.5939 550.897 L66.5939 542.748 L50.9921 542.748 L50.9921 538.235 L65.367 516.337 Z" fill="#000000" fill-rule="nonzero" fill-opacity="1" /><path clip-path="url(#clip810)" d="M55.2745 277.305 L73.6309 277.305 L73.6309 281.24 L59.5569 281.24 L59.5569 289.712 Q60.5754 289.365 61.5939 289.203 Q62.6124 289.018 63.6309 289.018 Q69.418 289.018 72.7976 292.189 Q76.1772 295.36 76.1772 300.777 Q76.1772 306.356 72.705 309.457 Q69.2328 312.536 62.9134 312.536 Q60.7374 312.536 58.4689 312.166 Q56.2236 311.795 53.8162 311.055 L53.8162 306.356 Q55.8995 307.49 58.1217 308.045 Q60.3439 308.601 62.8208 308.601 Q66.8254 308.601 69.1633 306.494 Q71.5013 304.388 71.5013 300.777 Q71.5013 297.166 69.1633 295.059 Q66.8254 292.953 62.8208 292.953 Q60.9458 292.953 59.0708 293.37 Q57.2189 293.786 55.2745 294.666 L55.2745 277.305 Z" fill="#000000" fill-rule="nonzero" fill-opacity="1" /><path clip-path="url(#clip810)" d="M64.6495 53.6896 Q61.5013 53.6896 59.6495 55.8424 Q57.8208 57.9951 57.8208 61.7451 Q57.8208 65.472 59.6495 67.6479 Q61.5013 69.8006 64.6495 69.8006 Q67.7976 69.8006 69.6263 67.6479 Q71.4781 65.472 71.4781 61.7451 Q71.4781 57.9951 69.6263 55.8424 Q67.7976 53.6896 64.6495 53.6896 M73.9318 39.0369 L73.9318 43.2962 Q72.1726 42.4628 70.367 42.023 Q68.5846 41.5832 66.8254 41.5832 Q62.1958 41.5832 59.7421 44.7082 Q57.3115 47.8332 56.9643 54.1526 Q58.33 52.1387 60.3902 51.0739 Q62.4504 49.9859 64.9272 49.9859 Q70.1355 49.9859 73.1448 53.1572 Q76.1772 56.3053 76.1772 61.7451 Q76.1772 67.0692 73.029 70.2867 Q69.8809 73.5043 64.6495 73.5043 Q58.6541 73.5043 55.4828 68.921 Q52.3116 64.3146 52.3116 55.5878 Q52.3116 47.3934 56.2004 42.5323 Q60.0893 37.648 66.6402 37.648 Q68.3994 37.648 70.1818 37.9953 Q71.9874 38.3425 73.9318 39.0369 Z" fill="#000000" fill-rule="nonzero" fill-opacity="1" /><circle clip-path="url(#clip811)" cx="2289.34" cy="1313.53" r="14.4" fill="#808080" fill-rule="evenodd" fill-opacity="1" stroke="#000000" stroke-opacity="1" stroke-width="3.2"/>
<circle clip-path="url(#clip811)" cx="175.59" cy="87.9763" r="14.4" fill="#808080" fill-rule="evenodd" fill-opacity="1" stroke="#000000" stroke-opacity="1" stroke-width="3.2"/>
<circle clip-path="url(#clip811)" cx="1538.43" cy="1445.72" r="14.4" fill="#808080" fill-rule="evenodd" fill-opacity="1" stroke="#000000" stroke-opacity="1" stroke-width="3.2"/>
<circle clip-path="url(#clip811)" cx="1433.3" cy="1425.94" r="14.4" fill="#808080" fill-rule="evenodd" fill-opacity="1" stroke="#000000" stroke-opacity="1" stroke-width="3.2"/>
<path clip-path="url(#clip810)" d="M2293.64 1320.96 Q2284.6 1320.96 2281.12 1323.03 Q2277.64 1325.1 2277.64 1330.08 Q2277.64 1334.05 2280.23 1336.4 Q2282.86 1338.71 2287.36 1338.71 Q2293.56 1338.71 2297.28 1334.33 Q2301.05 1329.92 2301.05 1322.62 L2301.05 1320.96 L2293.64 1320.96 M2308.5 1317.88 L2308.5 1343.77 L2301.05 1343.77 L2301.05 1336.88 Q2298.5 1341.02 2294.69 1343 Q2290.88 1344.94 2285.37 1344.94 Q2278.41 1344.94 2274.27 1341.06 Q2270.18 1337.13 2270.18 1330.56 Q2270.18 1322.91 2275.29 1319.02 Q2280.43 1315.13 2290.6 1315.13 L2301.05 1315.13 L2301.05 1314.4 Q2301.05 1309.26 2297.65 1306.46 Q2294.29 1303.63 2288.17 1303.63 Q2284.28 1303.63 2280.59 1304.56 Q2276.91 1305.49 2273.5 1307.35 L2273.5 1300.47 Q2277.6 1298.89 2281.44 1298.12 Q2285.29 1297.31 2288.94 1297.31 Q2298.78 1297.31 2303.64 1302.41 Q2308.5 1307.51 2308.5 1317.88 Z" fill="#000000" fill-rule="nonzero" fill-opacity="1" /><path clip-path="url(#clip810)" d="M188.148 95.5717 Q188.148 87.3484 184.745 82.6898 Q181.383 77.9908 175.468 77.9908 Q169.554 77.9908 166.151 82.6898 Q162.789 87.3484 162.789 95.5717 Q162.789 103.795 166.151 108.494 Q169.554 113.153 175.468 113.153 Q181.383 113.153 184.745 108.494 Q188.148 103.795 188.148 95.5717 M162.789 79.7327 Q165.138 75.6818 168.703 73.7373 Q172.309 71.7524 177.291 71.7524 Q185.555 71.7524 190.7 78.3149 Q195.885 84.8773 195.885 95.5717 Q195.885 106.266 190.7 112.829 Q185.555 119.391 177.291 119.391 Q172.309 119.391 168.703 117.447 Q165.138 115.462 162.789 111.411 L162.789 118.216 L155.295 118.216 L155.295 55.1842 L162.789 55.1842 L162.789 79.7327 Z" fill="#000000" fill-rule="nonzero" fill-opacity="1" /><path clip-path="url(#clip810)" d="M1556.38 1432.33 L1556.38 1439.3 Q1553.22 1437.55 1550.02 1436.7 Q1546.86 1435.81 1543.62 1435.81 Q1536.37 1435.81 1532.36 1440.43 Q1528.35 1445.01 1528.35 1453.31 Q1528.35 1461.62 1532.36 1466.23 Q1536.37 1470.81 1543.62 1470.81 Q1546.86 1470.81 1550.02 1469.96 Q1553.22 1469.07 1556.38 1467.33 L1556.38 1474.21 Q1553.26 1475.67 1549.9 1476.4 Q1546.58 1477.13 1542.81 1477.13 Q1532.56 1477.13 1526.52 1470.69 Q1520.49 1464.25 1520.49 1453.31 Q1520.49 1442.21 1526.56 1435.85 Q1532.68 1429.49 1543.29 1429.49 Q1546.74 1429.49 1550.02 1430.22 Q1553.3 1430.91 1556.38 1432.33 Z" fill="#000000" fill-rule="nonzero" fill-opacity="1" /><path clip-path="url(#clip810)" d="M1446.12 1417.7 L1446.12 1393.15 L1453.58 1393.15 L1453.58 1456.18 L1446.12 1456.18 L1446.12 1449.38 Q1443.77 1453.43 1440.17 1455.41 Q1436.6 1457.36 1431.58 1457.36 Q1423.36 1457.36 1418.17 1450.79 Q1413.03 1444.23 1413.03 1433.54 Q1413.03 1422.84 1418.17 1416.28 Q1423.36 1409.72 1431.58 1409.72 Q1436.6 1409.72 1440.17 1411.7 Q1443.77 1413.65 1446.12 1417.7 M1420.72 1433.54 Q1420.72 1441.76 1424.09 1446.46 Q1427.49 1451.12 1433.4 1451.12 Q1439.32 1451.12 1442.72 1446.46 Q1446.12 1441.76 1446.12 1433.54 Q1446.12 1425.31 1442.72 1420.65 Q1439.32 1415.96 1433.4 1415.96 Q1427.49 1415.96 1424.09 1420.65 Q1420.72 1425.31 1420.72 1433.54 Z" fill="#000000" fill-rule="nonzero" fill-opacity="1" /><path clip-path="url(#clip810)" d="M2001.58 198.898 L2278.07 198.898 L2278.07 95.2176 L2001.58 95.2176  Z" fill="#ffffff" fill-rule="evenodd" fill-opacity="1"/>
<polyline clip-path="url(#clip810)" style="stroke:#000000; stroke-linecap:round; stroke-linejoin:round; stroke-width:4; stroke-opacity:1; fill:none" points="2001.58,198.898 2278.07,198.898 2278.07,95.2176 2001.58,95.2176 2001.58,198.898 "/>
<circle clip-path="url(#clip810)" cx="2101.16" cy="147.058" r="20.48" fill="#808080" fill-rule="evenodd" fill-opacity="1" stroke="#000000" stroke-opacity="1" stroke-width="4.55111"/>
<path clip-path="url(#clip810)" d="M2214.59 166.745 Q2212.78 171.375 2211.07 172.787 Q2209.36 174.199 2206.49 174.199 L2203.08 174.199 L2203.08 170.634 L2205.58 170.634 Q2207.34 170.634 2208.31 169.8 Q2209.29 168.967 2210.47 165.865 L2211.23 163.921 L2200.74 138.412 L2205.26 138.412 L2213.36 158.689 L2221.46 138.412 L2225.98 138.412 L2214.59 166.745 Z" fill="#000000" fill-rule="nonzero" fill-opacity="1" /><path clip-path="url(#clip810)" d="M2233.27 160.402 L2240.91 160.402 L2240.91 134.037 L2232.6 135.703 L2232.6 131.444 L2240.86 129.778 L2245.54 129.778 L2245.54 160.402 L2253.17 160.402 L2253.17 164.338 L2233.27 164.338 L2233.27 160.402 Z" fill="#000000" fill-rule="nonzero" fill-opacity="1" /></svg>
