<?xml version="1.0" encoding="utf-8"?>
<svg xmlns="http://www.w3.org/2000/svg" xmlns:xlink="http://www.w3.org/1999/xlink" width="600" height="400" viewBox="0 0 2400 1600">
<defs>
  <clipPath id="clip180">
    <rect x="0" y="0" width="2400" height="1600"/>
  </clipPath>
</defs>
<path clip-path="url(#clip180)" d="M0 1600 L2400 1600 L2400 0 L0 0  Z" fill="#ffffff" fill-rule="evenodd" fill-opacity="1"/>
<defs>
  <clipPath id="clip181">
    <rect x="155" y="47" width="2198" height="1440"/>
  </clipPath>
</defs>
<path clip-path="url(#clip180)" d="M155.765 1486.45 L2352.76 1486.45 L2352.76 47.2441 L155.765 47.2441  Z" fill="#ffffff" fill-rule="evenodd" fill-opacity="1"/>
<polyline clip-path="url(#clip181)" style="stroke:#000000; stroke-linecap:round; stroke-linejoin:round; stroke-width:2; stroke-opacity:0.1; fill:none" points="212.195,1486.45 212.195,47.2441 "/>
<polyline clip-path="url(#clip181)" style="stroke:#000000; stroke-linecap:round; stroke-linejoin:round; stroke-width:2; stroke-opacity:0.1; fill:none" points="838.604,1486.45 838.604,47.2441 "/>
<polyline clip-path="url(#clip181)" style="stroke:#000000; stroke-linecap:round; stroke-linejoin:round; stroke-width:2; stroke-opacity:0.1; fill:none" points="1465.01,1486.45 1465.01,47.2441 "/>
<polyline clip-path="url(#clip181)" style="stroke:#000000; stroke-linecap:round; stroke-linejoin:round; stroke-width:2; stroke-opacity:0.1; fill:none" points="2091.42,1486.45 2091.42,47.2441 "/>
<polyline clip-path="url(#clip181)" style="stroke:#000000; stroke-linecap:round; stroke-linejoin:round; stroke-width:2; stroke-opacity:0.1; fill:none" points="155.765,1306.64 2352.76,1306.64 "/>
<polyline clip-path="url(#clip181)" style="stroke:#000000; stroke-linecap:round; stroke-linejoin:round; stroke-width:2; stroke-opacity:0.1; fill:none" points="155.765,1095.63 2352.76,1095.63 "/>
<polyline clip-path="url(#clip181)" style="stroke:#000000; stroke-linecap:round; stroke-linejoin:round; stroke-width:2; stroke-opacity:0.1; fill:none" points="155.765,884.627 2352.76,884.627 "/>
<polyline clip-path="url(#clip181)" style="stroke:#000000; stroke-linecap:round; stroke-linejoin:round; stroke-width:2; stroke-opacity:0.1; fill:none" points="155.765,673.621 2352.76,673.621 "/>
<polyline clip-path="url(#clip181)" style="stroke:#000000; stroke-linecap:round; stroke-linejoin:round; stroke-width:2; stroke-opacity:0.1; fill:none" points="155.765,462.615 2352.76,462.615 "/>
<polyline clip-path="url(#clip181)" style="stroke:#000000; stroke-linecap:round; stroke-linejoin:round; stroke-width:2; stroke-opacity:0.1; fill:none" points="155.765,251.608 2352.76,251.608 "/>
<polyline clip-path="url(#clip180)" style="stroke:#000000; stroke-linecap:round; stroke-linejoin:round; stroke-width:4; stroke-opacity:1; fill:none" points="155.765,1486.45 2352.76,1486.45 "/>
<polyline clip-path="url(#clip180)" style="stroke:#000000; stroke-linecap:round; stroke-linejoin:round; stroke-width:4; stroke-opacity:1; fill:none" points="212.195,1486.45 212.195,1467.55 "/>
<polyline clip-path="url(#clip180)" style="stroke:#000000; stroke-linecap:round; stroke-linejoin:round; stroke-width:4; stroke-opacity:1; fill:none" points="838.604,1486.45 838.604,1467.55 "/>
<polyline clip-path="url(#clip180)" style="stroke:#000000; stroke-linecap:round; stroke-linejoin:round; stroke-width:4; stroke-opacity:1; fill:none" points="1465.01,1486.45 1465.01,1467.55 "/>
<polyline clip-path="url(#clip180)" style="stroke:#000000; stroke-linecap:round; stroke-linejoin:round; stroke-width:4; stroke-opacity:1; fill:none" points="2091.42,1486.45 2091.42,1467.55 "/>
<path clip-path="url(#clip180)" d="M158.723 1532.02 L188.399 1532.02 L188.399 1535.95 L158.723 1535.95 L158.723 1532.02 Z" fill="#000000" fill-rule="nonzero" fill-opacity="1" /><path clip-path="url(#clip180)" d="M199.302 1544.91 L206.941 1544.91 L206.941 1518.55 L198.63 1520.21 L198.63 1515.95 L206.894 1514.29 L211.57 1514.29 L211.57 1544.91 L219.209 1544.91 L219.209 1548.85 L199.302 1548.85 L199.302 1544.91 Z" fill="#000000" fill-rule="nonzero" fill-opacity="1" /><path clip-path="url(#clip180)" d="M228.653 1542.97 L233.538 1542.97 L233.538 1548.85 L228.653 1548.85 L228.653 1542.97 Z" fill="#000000" fill-rule="nonzero" fill-opacity="1" /><path clip-path="url(#clip180)" d="M253.723 1517.37 Q250.112 1517.37 248.283 1520.93 Q246.477 1524.47 246.477 1531.6 Q246.477 1538.71 248.283 1542.27 Q250.112 1545.82 253.723 1545.82 Q257.357 1545.82 259.163 1542.27 Q260.991 1538.71 260.991 1531.6 Q260.991 1524.47 259.163 1520.93 Q257.357 1517.37 253.723 1517.37 M253.723 1513.66 Q259.533 1513.66 262.588 1518.27 Q265.667 1522.85 265.667 1531.6 Q265.667 1540.33 262.588 1544.94 Q259.533 1549.52 253.723 1549.52 Q247.913 1549.52 244.834 1544.94 Q241.778 1540.33 241.778 1531.6 Q241.778 1522.85 244.834 1518.27 Q247.913 1513.66 253.723 1513.66 Z" fill="#000000" fill-rule="nonzero" fill-opacity="1" /><path clip-path="url(#clip180)" d="M785.63 1532.02 L815.306 1532.02 L815.306 1535.95 L785.63 1535.95 L785.63 1532.02 Z" fill="#000000" fill-rule="nonzero" fill-opacity="1" /><path clip-path="url(#clip180)" d="M835.398 1517.37 Q831.787 1517.37 829.958 1520.93 Q828.153 1524.47 828.153 1531.6 Q828.153 1538.71 829.958 1542.27 Q831.787 1545.82 835.398 1545.82 Q839.032 1545.82 840.838 1542.27 Q842.666 1538.71 842.666 1531.6 Q842.666 1524.47 840.838 1520.93 Q839.032 1517.37 835.398 1517.37 M835.398 1513.66 Q841.208 1513.66 844.264 1518.27 Q847.342 1522.85 847.342 1531.6 Q847.342 1540.33 844.264 1544.94 Q841.208 1549.52 835.398 1549.52 Q829.588 1549.52 826.509 1544.94 Q823.454 1540.33 823.454 1531.6 Q823.454 1522.85 826.509 1518.27 Q829.588 1513.66 835.398 1513.66 Z" fill="#000000" fill-rule="nonzero" fill-opacity="1" /><path clip-path="url(#clip180)" d="M855.56 1542.97 L860.444 1542.97 L860.444 1548.85 L855.56 1548.85 L855.56 1542.97 Z" fill="#000000" fill-rule="nonzero" fill-opacity="1" /><path clip-path="url(#clip180)" d="M870.676 1514.29 L889.032 1514.29 L889.032 1518.22 L874.958 1518.22 L874.958 1526.7 Q875.976 1526.35 876.995 1526.19 Q878.014 1526 879.032 1526 Q884.819 1526 888.199 1529.17 Q891.578 1532.34 891.578 1537.76 Q891.578 1543.34 888.106 1546.44 Q884.634 1549.52 878.314 1549.52 Q876.139 1549.52 873.87 1549.15 Q871.625 1548.78 869.217 1548.04 L869.217 1543.34 Q871.301 1544.47 873.523 1545.03 Q875.745 1545.58 878.222 1545.58 Q882.226 1545.58 884.564 1543.48 Q886.902 1541.37 886.902 1537.76 Q886.902 1534.15 884.564 1532.04 Q882.226 1529.94 878.222 1529.94 Q876.347 1529.94 874.472 1530.35 Q872.62 1530.77 870.676 1531.65 L870.676 1514.29 Z" fill="#000000" fill-rule="nonzero" fill-opacity="1" /><path clip-path="url(#clip180)" d="M1442.4 1517.37 Q1438.79 1517.37 1436.96 1520.93 Q1435.15 1524.47 1435.15 1531.6 Q1435.15 1538.71 1436.96 1542.27 Q1438.79 1545.82 1442.4 1545.82 Q1446.03 1545.82 1447.84 1542.27 Q1449.67 1538.71 1449.67 1531.6 Q1449.67 1524.47 1447.84 1520.93 Q1446.03 1517.37 1442.4 1517.37 M1442.4 1513.66 Q1448.21 1513.66 1451.26 1518.27 Q1454.34 1522.85 1454.34 1531.6 Q1454.34 1540.33 1451.26 1544.94 Q1448.21 1549.52 1442.4 1549.52 Q1436.59 1549.52 1433.51 1544.94 Q1430.45 1540.33 1430.45 1531.6 Q1430.45 1522.85 1433.51 1518.27 Q1436.59 1513.66 1442.4 1513.66 Z" fill="#000000" fill-rule="nonzero" fill-opacity="1" /><path clip-path="url(#clip180)" d="M1462.56 1542.97 L1467.44 1542.97 L1467.44 1548.85 L1462.56 1548.85 L1462.56 1542.97 Z" fill="#000000" fill-rule="nonzero" fill-opacity="1" /><path clip-path="url(#clip180)" d="M1487.63 1517.37 Q1484.02 1517.37 1482.19 1520.93 Q1480.38 1524.47 1480.38 1531.6 Q1480.38 1538.71 1482.19 1542.27 Q1484.02 1545.82 1487.63 1545.82 Q1491.26 1545.82 1493.07 1542.27 Q1494.9 1538.71 1494.9 1531.6 Q1494.9 1524.47 1493.07 1520.93 Q1491.26 1517.37 1487.63 1517.37 M1487.63 1513.66 Q1493.44 1513.66 1496.49 1518.27 Q1499.57 1522.85 1499.57 1531.6 Q1499.57 1540.33 1496.49 1544.94 Q1493.44 1549.52 1487.63 1549.52 Q1481.82 1549.52 1478.74 1544.94 Q1475.68 1540.33 1475.68 1531.6 Q1475.68 1522.85 1478.74 1518.27 Q1481.82 1513.66 1487.63 1513.66 Z" fill="#000000" fill-rule="nonzero" fill-opacity="1" /><path clip-path="url(#clip180)" d="M2069.3 1517.37 Q2065.69 1517.37 2063.86 1520.93 Q2062.06 1524.47 2062.06 1531.6 Q2062.06 1538.71 2063.86 1542.27 Q2065.69 1545.82 2069.3 1545.82 Q2072.94 1545.82 2074.74 1542.27 Q2076.57 1538.71 2076.57 1531.6 Q2076.57 1524.47 2074.74 1520.93 Q2072.94 1517.37 2069.3 1517.37 M2069.3 1513.66 Q2075.11 1513.66 2078.17 1518.27 Q2081.25 1522.85 2081.25 1531.6 Q2081.25 1540.33 2078.17 1544.94 Q2075.11 1549.52 2069.3 1549.52 Q2063.49 1549.52 2060.41 1544.94 Q2057.36 1540.33 2057.36 1531.6 Q2057.36 1522.85 2060.41 1518.27 Q2063.49 1513.66 2069.3 1513.66 Z" fill="#000000" fill-rule="nonzero" fill-opacity="1" /><path clip-path="url(#clip180)" d="M2089.47 1542.97 L2094.35 1542.97 L2094.35 1548.85 L2089.47 1548.85 L2089.47 1542.97 Z" fill="#000000" fill-rule="nonzero" fill-opacity="1" /><path clip-path="url(#clip180)" d="M2104.58 1514.29 L2122.94 1514.29 L2122.94 1518.22 L2108.86 1518.22 L2108.86 1526.7 Q2109.88 1526.35 2110.9 1526.19 Q2111.92 1526 2112.94 1526 Q2118.72 1526 2122.1 1529.17 Q2125.48 1532.34 2125.48 1537.76 Q2125.48 1543.34 2122.01 1546.44 Q2118.54 1549.52 2112.22 1549.52 Q2110.04 1549.52 2107.78 1549.15 Q2105.53 1548.78 2103.12 1548.04 L2103.12 1543.34 Q2105.21 1544.47 2107.43 1545.03 Q2109.65 1545.58 2112.13 1545.58 Q2116.13 1545.58 2118.47 1543.48 Q2120.81 1541.37 2120.81 1537.76 Q2120.81 1534.15 2118.47 1532.04 Q2116.13 1529.94 2112.13 1529.94 Q2110.25 1529.94 2108.38 1530.35 Q2106.53 1530.77 2104.58 1531.65 L2104.58 1514.29 Z" fill="#000000" fill-rule="nonzero" fill-opacity="1" /><polyline clip-path="url(#clip180)" style="stroke:#000000; stroke-linecap:round; stroke-linejoin:round; stroke-width:4; stroke-opacity:1; fill:none" points="155.765,1486.45 155.765,47.2441 "/>
<polyline clip-path="url(#clip180)" style="stroke:#000000; stroke-linecap:round; stroke-linejoin:round; stroke-width:4; stroke-opacity:1; fill:none" points="155.765,1306.64 174.663,1306.64 "/>
<polyline clip-path="url(#clip180)" style="stroke:#000000; stroke-linecap:round; stroke-linejoin:round; stroke-width:4; stroke-opacity:1; fill:none" points="155.765,1095.63 174.663,1095.63 "/>
<polyline clip-path="url(#clip180)" style="stroke:#000000; stroke-linecap:round; stroke-linejoin:round; stroke-width:4; stroke-opacity:1; fill:none" points="155.765,884.627 174.663,884.627 "/>
<polyline clip-path="url(#clip180)" style="stroke:#000000; stroke-linecap:round; stroke-linejoin:round; stroke-width:4; stroke-opacity:1; fill:none" points="155.765,673.621 174.663,673.621 "/>
<polyline clip-path="url(#clip180)" style="stroke:#000000; stroke-linecap:round; stroke-linejoin:round; stroke-width:4; stroke-opacity:1; fill:none" points="155.765,462.615 174.663,462.615 "/>
<polyline clip-path="url(#clip180)" style="stroke:#000000; stroke-linecap:round; stroke-linejoin:round; stroke-width:4; stroke-opacity:1; fill:none" points="155.765,251.608 174.663,251.608 "/>
<path clip-path="url(#clip180)" d="M63.5847 1292.44 Q59.9736 1292.44 58.1449 1296 Q56.3393 1299.54 56.3393 1306.67 Q56.3393 1313.78 58.1449 1317.35 Q59.9736 1320.89 63.5847 1320.89 Q67.2189 1320.89 69.0244 1317.35 Q70.8531 1313.78 70.8531 1306.67 Q70.8531 1299.54 69.0244 1296 Q67.2189 1292.44 63.5847 1292.44 M63.5847 1288.73 Q69.3948 1288.73 72.4503 1293.34 Q75.529 1297.92 75.529 1306.67 Q75.529 1315.4 72.4503 1320.01 Q69.3948 1324.59 63.5847 1324.59 Q57.7745 1324.59 54.6958 1320.01 Q51.6403 1315.4 51.6403 1306.67 Q51.6403 1297.92 54.6958 1293.34 Q57.7745 1288.73 63.5847 1288.73 Z" fill="#000000" fill-rule="nonzero" fill-opacity="1" /><path clip-path="url(#clip180)" d="M83.7466 1318.04 L88.6308 1318.04 L88.6308 1323.92 L83.7466 1323.92 L83.7466 1318.04 Z" fill="#000000" fill-rule="nonzero" fill-opacity="1" /><path clip-path="url(#clip180)" d="M98.8622 1289.36 L117.219 1289.36 L117.219 1293.29 L103.145 1293.29 L103.145 1301.77 Q104.163 1301.42 105.182 1301.26 Q106.2 1301.07 107.219 1301.07 Q113.006 1301.07 116.385 1304.24 Q119.765 1307.42 119.765 1312.83 Q119.765 1318.41 116.293 1321.51 Q112.82 1324.59 106.501 1324.59 Q104.325 1324.59 102.057 1324.22 Q99.8113 1323.85 97.4039 1323.11 L97.4039 1318.41 Q99.4872 1319.54 101.709 1320.1 Q103.932 1320.66 106.408 1320.66 Q110.413 1320.66 112.751 1318.55 Q115.089 1316.44 115.089 1312.83 Q115.089 1309.22 112.751 1307.11 Q110.413 1305.01 106.408 1305.01 Q104.534 1305.01 102.659 1305.42 Q100.807 1305.84 98.8622 1306.72 L98.8622 1289.36 Z" fill="#000000" fill-rule="nonzero" fill-opacity="1" /><path clip-path="url(#clip180)" d="M53.3995 1108.98 L61.0384 1108.98 L61.0384 1082.61 L52.7282 1084.28 L52.7282 1080.02 L60.9921 1078.35 L65.668 1078.35 L65.668 1108.98 L73.3068 1108.98 L73.3068 1112.91 L53.3995 1112.91 L53.3995 1108.98 Z" fill="#000000" fill-rule="nonzero" fill-opacity="1" /><path clip-path="url(#clip180)" d="M82.7512 1107.03 L87.6354 1107.03 L87.6354 1112.91 L82.7512 1112.91 L82.7512 1107.03 Z" fill="#000000" fill-rule="nonzero" fill-opacity="1" /><path clip-path="url(#clip180)" d="M107.821 1081.43 Q104.209 1081.43 102.381 1085 Q100.575 1088.54 100.575 1095.67 Q100.575 1102.77 102.381 1106.34 Q104.209 1109.88 107.821 1109.88 Q111.455 1109.88 113.26 1106.34 Q115.089 1102.77 115.089 1095.67 Q115.089 1088.54 113.26 1085 Q111.455 1081.43 107.821 1081.43 M107.821 1077.73 Q113.631 1077.73 116.686 1082.33 Q119.765 1086.92 119.765 1095.67 Q119.765 1104.4 116.686 1109 Q113.631 1113.58 107.821 1113.58 Q102.01 1113.58 98.9317 1109 Q95.8761 1104.4 95.8761 1095.67 Q95.8761 1086.92 98.9317 1082.33 Q102.01 1077.73 107.821 1077.73 Z" fill="#000000" fill-rule="nonzero" fill-opacity="1" /><path clip-path="url(#clip180)" d="M54.3949 897.972 L62.0337 897.972 L62.0337 871.606 L53.7236 873.273 L53.7236 869.014 L61.9874 867.347 L66.6633 867.347 L66.6633 897.972 L74.3022 897.972 L74.3022 901.907 L54.3949 901.907 L54.3949 897.972 Z" fill="#000000" fill-rule="nonzero" fill-opacity="1" /><path clip-path="url(#clip180)" d="M83.7466 896.028 L88.6308 896.028 L88.6308 901.907 L83.7466 901.907 L83.7466 896.028 Z" fill="#000000" fill-rule="nonzero" fill-opacity="1" /><path clip-path="url(#clip180)" d="M98.8622 867.347 L117.219 867.347 L117.219 871.282 L103.145 871.282 L103.145 879.755 Q104.163 879.407 105.182 879.245 Q106.2 879.06 107.219 879.06 Q113.006 879.06 116.385 882.231 Q119.765 885.403 119.765 890.819 Q119.765 896.398 116.293 899.5 Q112.82 902.579 106.501 902.579 Q104.325 902.579 102.057 902.208 Q99.8113 901.838 97.4039 901.097 L97.4039 896.398 Q99.4872 897.532 101.709 898.088 Q103.932 898.643 106.408 898.643 Q110.413 898.643 112.751 896.537 Q115.089 894.43 115.089 890.819 Q115.089 887.208 112.751 885.102 Q110.413 882.995 106.408 882.995 Q104.534 882.995 102.659 883.412 Q100.807 883.829 98.8622 884.708 L98.8622 867.347 Z" fill="#000000" fill-rule="nonzero" fill-opacity="1" /><path clip-path="url(#clip180)" d="M56.6171 686.966 L72.9365 686.966 L72.9365 690.901 L50.9921 690.901 L50.9921 686.966 Q53.6541 684.211 58.2375 679.582 Q62.8439 674.929 64.0245 673.586 Q66.2698 671.063 67.1494 669.327 Q68.0522 667.568 68.0522 665.878 Q68.0522 663.123 66.1078 661.387 Q64.1865 659.651 61.0847 659.651 Q58.8856 659.651 56.4319 660.415 Q54.0014 661.179 51.2236 662.73 L51.2236 658.008 Q54.0477 656.873 56.5014 656.295 Q58.955 655.716 60.9921 655.716 Q66.3624 655.716 69.5568 658.401 Q72.7513 661.086 72.7513 665.577 Q72.7513 667.707 71.9411 669.628 Q71.1541 671.526 69.0476 674.119 Q68.4689 674.79 65.367 678.007 Q62.2652 681.202 56.6171 686.966 Z" fill="#000000" fill-rule="nonzero" fill-opacity="1" /><path clip-path="url(#clip180)" d="M82.7512 685.021 L87.6354 685.021 L87.6354 690.901 L82.7512 690.901 L82.7512 685.021 Z" fill="#000000" fill-rule="nonzero" fill-opacity="1" /><path clip-path="url(#clip180)" d="M107.821 659.42 Q104.209 659.42 102.381 662.984 Q100.575 666.526 100.575 673.656 Q100.575 680.762 102.381 684.327 Q104.209 687.869 107.821 687.869 Q111.455 687.869 113.26 684.327 Q115.089 680.762 115.089 673.656 Q115.089 666.526 113.26 662.984 Q111.455 659.42 107.821 659.42 M107.821 655.716 Q113.631 655.716 116.686 660.322 Q119.765 664.906 119.765 673.656 Q119.765 682.382 116.686 686.989 Q113.631 691.572 107.821 691.572 Q102.01 691.572 98.9317 686.989 Q95.8761 682.382 95.8761 673.656 Q95.8761 664.906 98.9317 660.322 Q102.01 655.716 107.821 655.716 Z" fill="#000000" fill-rule="nonzero" fill-opacity="1" /><path clip-path="url(#clip180)" d="M57.6125 475.96 L73.9318 475.96 L73.9318 479.895 L51.9875 479.895 L51.9875 475.96 Q54.6495 473.205 59.2328 468.575 Q63.8393 463.923 65.0198 462.58 Q67.2652 460.057 68.1448 458.321 Q69.0476 456.561 69.0476 454.872 Q69.0476 452.117 67.1032 450.381 Q65.1819 448.645 62.08 448.645 Q59.881 448.645 57.4273 449.409 Q54.9967 450.173 52.219 451.724 L52.219 447.001 Q55.043 445.867 57.4967 445.288 Q59.9504 444.71 61.9874 444.71 Q67.3578 444.71 70.5522 447.395 Q73.7466 450.08 73.7466 454.571 Q73.7466 456.7 72.9365 458.622 Q72.1494 460.52 70.0429 463.112 Q69.4642 463.784 66.3624 467.001 Q63.2606 470.196 57.6125 475.96 Z" fill="#000000" fill-rule="nonzero" fill-opacity="1" /><path clip-path="url(#clip180)" d="M83.7466 474.015 L88.6308 474.015 L88.6308 479.895 L83.7466 479.895 L83.7466 474.015 Z" fill="#000000" fill-rule="nonzero" fill-opacity="1" /><path clip-path="url(#clip180)" d="M98.8622 445.335 L117.219 445.335 L117.219 449.27 L103.145 449.27 L103.145 457.742 Q104.163 457.395 105.182 457.233 Q106.2 457.048 107.219 457.048 Q113.006 457.048 116.385 460.219 Q119.765 463.39 119.765 468.807 Q119.765 474.385 116.293 477.487 Q112.82 480.566 106.501 480.566 Q104.325 480.566 102.057 480.196 Q99.8113 479.825 97.4039 479.084 L97.4039 474.385 Q99.4872 475.52 101.709 476.075 Q103.932 476.631 106.408 476.631 Q110.413 476.631 112.751 474.524 Q115.089 472.418 115.089 468.807 Q115.089 465.196 112.751 463.089 Q110.413 460.983 106.408 460.983 Q104.534 460.983 102.659 461.399 Q100.807 461.816 98.8622 462.696 L98.8622 445.335 Z" fill="#000000" fill-rule="nonzero" fill-opacity="1" /><path clip-path="url(#clip180)" d="M66.7559 250.254 Q70.1124 250.972 71.9874 253.24 Q73.8855 255.509 73.8855 258.842 Q73.8855 263.958 70.367 266.759 Q66.8485 269.56 60.3671 269.56 Q58.1912 269.56 55.8764 269.12 Q53.5847 268.703 51.131 267.847 L51.131 263.333 Q53.0754 264.467 55.3903 265.046 Q57.7051 265.625 60.2282 265.625 Q64.6263 265.625 66.918 263.888 Q69.2328 262.152 69.2328 258.842 Q69.2328 255.787 67.08 254.074 Q64.9504 252.338 61.131 252.338 L57.1032 252.338 L57.1032 248.495 L61.3161 248.495 Q64.7652 248.495 66.5939 247.129 Q68.4226 245.74 68.4226 243.148 Q68.4226 240.486 66.5245 239.074 Q64.6495 237.639 61.131 237.639 Q59.2097 237.639 57.0106 238.055 Q54.8115 238.472 52.1727 239.352 L52.1727 235.185 Q54.8347 234.444 57.1495 234.074 Q59.4875 233.703 61.5476 233.703 Q66.8717 233.703 69.9735 236.134 Q73.0753 238.541 73.0753 242.662 Q73.0753 245.532 71.4318 247.523 Q69.7883 249.49 66.7559 250.254 Z" fill="#000000" fill-rule="nonzero" fill-opacity="1" /><path clip-path="url(#clip180)" d="M82.7512 263.009 L87.6354 263.009 L87.6354 268.888 L82.7512 268.888 L82.7512 263.009 Z" fill="#000000" fill-rule="nonzero" fill-opacity="1" /><path clip-path="url(#clip180)" d="M107.821 237.407 Q104.209 237.407 102.381 240.972 Q100.575 244.514 100.575 251.643 Q100.575 258.75 102.381 262.314 Q104.209 265.856 107.821 265.856 Q111.455 265.856 113.26 262.314 Q115.089 258.75 115.089 251.643 Q115.089 244.514 113.26 240.972 Q111.455 237.407 107.821 237.407 M107.821 233.703 Q113.631 233.703 116.686 238.31 Q119.765 242.893 119.765 251.643 Q119.765 260.37 116.686 264.976 Q113.631 269.56 107.821 269.56 Q102.01 269.56 98.9317 264.976 Q95.8761 260.37 95.8761 251.643 Q95.8761 242.893 98.9317 238.31 Q102.01 233.703 107.821 233.703 Z" fill="#000000" fill-rule="nonzero" fill-opacity="1" /><circle clip-path="url(#clip181)" cx="2290.58" cy="1266.61" r="14.4" fill="#808080" fill-rule="evenodd" fill-opacity="1" stroke="#000000" stroke-opacity="1" stroke-width="3.2"/>
<circle clip-path="url(#clip181)" cx="217.944" cy="87.9763" r="14.4" fill="#808080" fill-rule="evenodd" fill-opacity="1" stroke="#000000" stroke-opacity="1" stroke-width="3.2"/>
<circle clip-path="url(#clip181)" cx="1502.28" cy="1445.72" r="14.4" fill="#808080" fill-rule="evenodd" fill-opacity="1" stroke="#000000" stroke-opacity="1" stroke-width="3.2"/>
<circle clip-path="url(#clip181)" cx="1200.51" cy="1341.38" r="14.4" fill="#808080" fill-rule="evenodd" fill-opacity="1" stroke="#000000" stroke-opacity="1" stroke-width="3.2"/>
<path clip-path="url(#clip180)" d="M2294.87 1274.05 Q2285.84 1274.05 2282.35 1276.11 Q2278.87 1278.18 2278.87 1283.16 Q2278.87 1287.13 2281.46 1289.48 Q2284.1 1291.79 2288.59 1291.79 Q2294.79 1291.79 2298.52 1287.41 Q2302.28 1283 2302.28 1275.71 L2302.28 1274.05 L2294.87 1274.05 M2309.74 1270.97 L2309.74 1296.85 L2302.28 1296.85 L2302.28 1289.97 Q2299.73 1294.1 2295.92 1296.08 Q2292.12 1298.03 2286.61 1298.03 Q2279.64 1298.03 2275.51 1294.14 Q2271.42 1290.21 2271.42 1283.65 Q2271.42 1275.99 2276.52 1272.1 Q2281.66 1268.21 2291.83 1268.21 L2302.28 1268.21 L2302.28 1267.48 Q2302.28 1262.34 2298.88 1259.54 Q2295.52 1256.71 2289.4 1256.71 Q2285.51 1256.71 2281.83 1257.64 Q2278.14 1258.57 2274.74 1260.44 L2274.74 1253.55 Q2278.83 1251.97 2282.68 1251.2 Q2286.53 1250.39 2290.17 1250.39 Q2300.02 1250.39 2304.88 1255.49 Q2309.74 1260.6 2309.74 1270.97 Z" fill="#000000" fill-rule="nonzero" fill-opacity="1" /><path clip-path="url(#clip180)" d="M230.502 95.5717 Q230.502 87.3484 227.099 82.6898 Q223.737 77.9908 217.822 77.9908 Q211.908 77.9908 208.505 82.6898 Q205.143 87.3484 205.143 95.5717 Q205.143 103.795 208.505 108.494 Q211.908 113.153 217.822 113.153 Q223.737 113.153 227.099 108.494 Q230.502 103.795 230.502 95.5717 M205.143 79.7327 Q207.493 75.6818 211.057 73.7373 Q214.663 71.7524 219.645 71.7524 Q227.909 71.7524 233.054 78.3149 Q238.239 84.8773 238.239 95.5717 Q238.239 106.266 233.054 112.829 Q227.909 119.391 219.645 119.391 Q214.663 119.391 211.057 117.447 Q207.493 115.462 205.143 111.411 L205.143 118.216 L197.649 118.216 L197.649 55.1842 L205.143 55.1842 L205.143 79.7327 Z" fill="#000000" fill-rule="nonzero" fill-opacity="1" /><path clip-path="url(#clip180)" d="M1520.22 1432.33 L1520.22 1439.3 Q1517.06 1437.55 1513.86 1436.7 Q1510.7 1435.81 1507.46 1435.81 Q1500.21 1435.81 1496.2 1440.43 Q1492.19 1445.01 1492.19 1453.31 Q1492.19 1461.62 1496.2 1466.23 Q1500.21 1470.81 1507.46 1470.81 Q1510.7 1470.81 1513.86 1469.96 Q1517.06 1469.07 1520.22 1467.33 L1520.22 1474.21 Q1517.1 1475.67 1513.74 1476.4 Q1510.42 1477.13 1506.65 1477.13 Q1496.4 1477.13 1490.37 1470.69 Q1484.33 1464.25 1484.33 1453.31 Q1484.33 1442.21 1490.41 1435.85 Q1496.53 1429.49 1507.14 1429.49 Q1510.58 1429.49 1513.86 1430.22 Q1517.15 1430.91 1520.22 1432.33 Z" fill="#000000" fill-rule="nonzero" fill-opacity="1" /><path clip-path="url(#clip180)" d="M1213.33 1333.14 L1213.33 1308.59 L1220.78 1308.59 L1220.78 1371.62 L1213.33 1371.62 L1213.33 1364.81 Q1210.98 1368.86 1207.37 1370.85 Q1203.81 1372.79 1198.78 1372.79 Q1190.56 1372.79 1185.38 1366.23 Q1180.23 1359.67 1180.23 1348.97 Q1180.23 1338.28 1185.38 1331.72 Q1190.56 1325.16 1198.78 1325.16 Q1203.81 1325.16 1207.37 1327.14 Q1210.98 1329.08 1213.33 1333.14 M1187.93 1348.97 Q1187.93 1357.2 1191.29 1361.9 Q1194.69 1366.56 1200.61 1366.56 Q1206.52 1366.56 1209.92 1361.9 Q1213.33 1357.2 1213.33 1348.97 Q1213.33 1340.75 1209.92 1336.09 Q1206.52 1331.39 1200.61 1331.39 Q1194.69 1331.39 1191.29 1336.09 Q1187.93 1340.75 1187.93 1348.97 Z" fill="#000000" fill-rule="nonzero" fill-opacity="1" /><path clip-path="url(#clip180)" d="M2007.39 198.898 L2279.52 198.898 L2279.52 95.2176 L2007.39 95.2176  Z" fill="#ffffff" fill-rule="evenodd" fill-opacity="1"/>
<polyline clip-path="url(#clip180)" style="stroke:#000000; stroke-linecap:round; stroke-linejoin:round; stroke-width:4; stroke-opacity:1; fill:none" points="2007.39,198.898 2279.52,198.898 2279.52,95.2176 2007.39,95.2176 2007.39,198.898 "/>
<circle clip-path="url(#clip180)" cx="2105.04" cy="147.058" r="20.48" fill="#808080" fill-rule="evenodd" fill-opacity="1" stroke="#000000" stroke-opacity="1" stroke-width="4.55111"/>
<path clip-path="url(#clip180)" d="M2216.52 166.745 Q2214.72 171.375 2213.01 172.787 Q2211.29 174.199 2208.42 174.199 L2205.02 174.199 L2205.02 170.634 L2207.52 170.634 Q2209.28 170.634 2210.25 169.8 Q2211.22 168.967 2212.4 165.865 L2213.17 163.921 L2202.68 138.412 L2207.2 138.412 L2215.3 158.689 L2223.4 138.412 L2227.91 138.412 L2216.52 166.745 Z" fill="#000000" fill-rule="nonzero" fill-opacity="1" /><path clip-path="url(#clip180)" d="M2235.2 160.402 L2242.84 160.402 L2242.84 134.037 L2234.53 135.703 L2234.53 131.444 L2242.8 129.778 L2247.47 129.778 L2247.47 160.402 L2255.11 160.402 L2255.11 164.338 L2235.2 164.338 L2235.2 160.402 Z" fill="#000000" fill-rule="nonzero" fill-opacity="1" /></svg>
