<?xml version="1.0" encoding="utf-8"?>
<svg xmlns="http://www.w3.org/2000/svg" xmlns:xlink="http://www.w3.org/1999/xlink" width="600" height="400" viewBox="0 0 2400 1600">
<defs>
  <clipPath id="clip640">
    <rect x="0" y="0" width="2400" height="1600"/>
  </clipPath>
</defs>
<path clip-path="url(#clip640)" d="M0 1600 L2400 1600 L2400 0 L0 0  Z" fill="#ffffff" fill-rule="evenodd" fill-opacity="1"/>
<defs>
  <clipPath id="clip641">
    <rect x="156" y="47" width="2197" height="1440"/>
  </clipPath>
</defs>
<path clip-path="url(#clip640)" d="M156.598 1486.45 L2352.76 1486.45 L2352.76 47.2441 L156.598 47.2441  Z" fill="#ffffff" fill-rule="evenodd" fill-opacity="1"/>
<polyline clip-path="url(#clip641)" style="stroke:#000000; stroke-linecap:round; stroke-linejoin:round; stroke-width:2; stroke-opacity:0.1; fill:none" points="196.421,1486.45 196.421,47.2441 "/>
<polyline clip-path="url(#clip641)" style="stroke:#000000; stroke-linecap:round; stroke-linejoin:round; stroke-width:2; stroke-opacity:0.1; fill:none" points="627.771,1486.45 627.771,47.2441 "/>
<polyline clip-path="url(#clip641)" style="stroke:#000000; stroke-linecap:round; stroke-linejoin:round; stroke-width:2; stroke-opacity:0.1; fill:none" points="1059.12,1486.45 1059.12,47.2441 "/>
<polyline clip-path="url(#clip641)" style="stroke:#000000; stroke-linecap:round; stroke-linejoin:round; stroke-width:2; stroke-opacity:0.1; fill:none" points="1490.47,1486.45 1490.47,47.2441 "/>
<polyline clip-path="url(#clip641)" style="stroke:#000000; stroke-linecap:round; stroke-linejoin:round; stroke-width:2; stroke-opacity:0.1; fill:none" points="1921.82,1486.45 1921.82,47.2441 "/>
<polyline clip-path="url(#clip641)" style="stroke:#000000; stroke-linecap:round; stroke-linejoin:round; stroke-width:2; stroke-opacity:0.1; fill:none" points="156.598,1451 2352.76,1451 "/>
<polyline clip-path="url(#clip641)" style="stroke:#000000; stroke-linecap:round; stroke-linejoin:round; stroke-width:2; stroke-opacity:0.1; fill:none" points="156.598,1187.8 2352.76,1187.8 "/>
<polyline clip-path="url(#clip641)" style="stroke:#000000; stroke-linecap:round; stroke-linejoin:round; stroke-width:2; stroke-opacity:0.1; fill:none" points="156.598,924.599 2352.76,924.599 "/>
<polyline clip-path="url(#clip641)" style="stroke:#000000; stroke-linecap:round; stroke-linejoin:round; stroke-width:2; stroke-opacity:0.1; fill:none" points="156.598,661.399 2352.76,661.399 "/>
<polyline clip-path="url(#clip641)" style="stroke:#000000; stroke-linecap:round; stroke-linejoin:round; stroke-width:2; stroke-opacity:0.1; fill:none" points="156.598,398.198 2352.76,398.198 "/>
<polyline clip-path="url(#clip641)" style="stroke:#000000; stroke-linecap:round; stroke-linejoin:round; stroke-width:2; stroke-opacity:0.1; fill:none" points="156.598,134.998 2352.76,134.998 "/>
<polyline clip-path="url(#clip640)" style="stroke:#000000; stroke-linecap:round; stroke-linejoin:round; stroke-width:4; stroke-opacity:1; fill:none" points="156.598,1486.45 2352.76,1486.45 "/>
<polyline clip-path="url(#clip640)" style="stroke:#000000; stroke-linecap:round; stroke-linejoin:round; stroke-width:4; stroke-opacity:1; fill:none" points="196.421,1486.45 196.421,1467.55 "/>
<polyline clip-path="url(#clip640)" style="stroke:#000000; stroke-linecap:round; stroke-linejoin:round; stroke-width:4; stroke-opacity:1; fill:none" points="627.771,1486.45 627.771,1467.55 "/>
<polyline clip-path="url(#clip640)" style="stroke:#000000; stroke-linecap:round; stroke-linejoin:round; stroke-width:4; stroke-opacity:1; fill:none" points="1059.12,1486.45 1059.12,1467.55 "/>
<polyline clip-path="url(#clip640)" style="stroke:#000000; stroke-linecap:round; stroke-linejoin:round; stroke-width:4; stroke-opacity:1; fill:none" points="1490.47,1486.45 1490.47,1467.55 "/>
<polyline clip-path="url(#clip640)" style="stroke:#000000; stroke-linecap:round; stroke-linejoin:round; stroke-width:4; stroke-opacity:1; fill:none" points="1921.82,1486.45 1921.82,1467.55 "/>
<path clip-path="url(#clip640)" d="M142.868 1532.02 L172.544 1532.02 L172.544 1535.95 L142.868 1535.95 L142.868 1532.02 Z" fill="#000000" fill-rule="nonzero" fill-opacity="1" /><path clip-path="url(#clip640)" d="M192.637 1517.37 Q189.026 1517.37 187.197 1520.93 Q185.391 1524.47 185.391 1531.6 Q185.391 1538.71 187.197 1542.27 Q189.026 1545.82 192.637 1545.82 Q196.271 1545.82 198.076 1542.27 Q199.905 1538.71 199.905 1531.6 Q199.905 1524.47 198.076 1520.93 Q196.271 1517.37 192.637 1517.37 M192.637 1513.66 Q198.447 1513.66 201.502 1518.27 Q204.581 1522.85 204.581 1531.6 Q204.581 1540.33 201.502 1544.94 Q198.447 1549.52 192.637 1549.52 Q186.827 1549.52 183.748 1544.94 Q180.692 1540.33 180.692 1531.6 Q180.692 1522.85 183.748 1518.27 Q186.827 1513.66 192.637 1513.66 Z" fill="#000000" fill-rule="nonzero" fill-opacity="1" /><path clip-path="url(#clip640)" d="M212.799 1542.97 L217.683 1542.97 L217.683 1548.85 L212.799 1548.85 L212.799 1542.97 Z" fill="#000000" fill-rule="nonzero" fill-opacity="1" /><path clip-path="url(#clip640)" d="M238.447 1529.7 Q235.298 1529.7 233.447 1531.86 Q231.618 1534.01 231.618 1537.76 Q231.618 1541.49 233.447 1543.66 Q235.298 1545.82 238.447 1545.82 Q241.595 1545.82 243.423 1543.66 Q245.275 1541.49 245.275 1537.76 Q245.275 1534.01 243.423 1531.86 Q241.595 1529.7 238.447 1529.7 M247.729 1515.05 L247.729 1519.31 Q245.97 1518.48 244.164 1518.04 Q242.382 1517.6 240.623 1517.6 Q235.993 1517.6 233.539 1520.72 Q231.109 1523.85 230.761 1530.17 Q232.127 1528.15 234.187 1527.09 Q236.248 1526 238.724 1526 Q243.933 1526 246.942 1529.17 Q249.974 1532.32 249.974 1537.76 Q249.974 1543.08 246.826 1546.3 Q243.678 1549.52 238.447 1549.52 Q232.451 1549.52 229.28 1544.94 Q226.109 1540.33 226.109 1531.6 Q226.109 1523.41 229.998 1518.55 Q233.886 1513.66 240.437 1513.66 Q242.197 1513.66 243.979 1514.01 Q245.785 1514.36 247.729 1515.05 Z" fill="#000000" fill-rule="nonzero" fill-opacity="1" /><path clip-path="url(#clip640)" d="M574.056 1532.02 L603.732 1532.02 L603.732 1535.95 L574.056 1535.95 L574.056 1532.02 Z" fill="#000000" fill-rule="nonzero" fill-opacity="1" /><path clip-path="url(#clip640)" d="M623.825 1517.37 Q620.213 1517.37 618.385 1520.93 Q616.579 1524.47 616.579 1531.6 Q616.579 1538.71 618.385 1542.27 Q620.213 1545.82 623.825 1545.82 Q627.459 1545.82 629.264 1542.27 Q631.093 1538.71 631.093 1531.6 Q631.093 1524.47 629.264 1520.93 Q627.459 1517.37 623.825 1517.37 M623.825 1513.66 Q629.635 1513.66 632.69 1518.27 Q635.769 1522.85 635.769 1531.6 Q635.769 1540.33 632.69 1544.94 Q629.635 1549.52 623.825 1549.52 Q618.014 1549.52 614.936 1544.94 Q611.88 1540.33 611.88 1531.6 Q611.88 1522.85 614.936 1518.27 Q618.014 1513.66 623.825 1513.66 Z" fill="#000000" fill-rule="nonzero" fill-opacity="1" /><path clip-path="url(#clip640)" d="M643.986 1542.97 L648.871 1542.97 L648.871 1548.85 L643.986 1548.85 L643.986 1542.97 Z" fill="#000000" fill-rule="nonzero" fill-opacity="1" /><path clip-path="url(#clip640)" d="M671.903 1518.36 L660.097 1536.81 L671.903 1536.81 L671.903 1518.36 M670.676 1514.29 L676.556 1514.29 L676.556 1536.81 L681.486 1536.81 L681.486 1540.7 L676.556 1540.7 L676.556 1548.85 L671.903 1548.85 L671.903 1540.7 L656.301 1540.7 L656.301 1536.19 L670.676 1514.29 Z" fill="#000000" fill-rule="nonzero" fill-opacity="1" /><path clip-path="url(#clip640)" d="M1006.45 1532.02 L1036.12 1532.02 L1036.12 1535.95 L1006.45 1535.95 L1006.45 1532.02 Z" fill="#000000" fill-rule="nonzero" fill-opacity="1" /><path clip-path="url(#clip640)" d="M1056.22 1517.37 Q1052.6 1517.37 1050.78 1520.93 Q1048.97 1524.47 1048.97 1531.6 Q1048.97 1538.71 1050.78 1542.27 Q1052.6 1545.82 1056.22 1545.82 Q1059.85 1545.82 1061.66 1542.27 Q1063.48 1538.71 1063.48 1531.6 Q1063.48 1524.47 1061.66 1520.93 Q1059.85 1517.37 1056.22 1517.37 M1056.22 1513.66 Q1062.03 1513.66 1065.08 1518.27 Q1068.16 1522.85 1068.16 1531.6 Q1068.16 1540.33 1065.08 1544.94 Q1062.03 1549.52 1056.22 1549.52 Q1050.41 1549.52 1047.33 1544.94 Q1044.27 1540.33 1044.27 1531.6 Q1044.27 1522.85 1047.33 1518.27 Q1050.41 1513.66 1056.22 1513.66 Z" fill="#000000" fill-rule="nonzero" fill-opacity="1" /><path clip-path="url(#clip640)" d="M1076.38 1542.97 L1081.26 1542.97 L1081.26 1548.85 L1076.38 1548.85 L1076.38 1542.97 Z" fill="#000000" fill-rule="nonzero" fill-opacity="1" /><path clip-path="url(#clip640)" d="M1095.48 1544.91 L1111.79 1544.91 L1111.79 1548.85 L1089.85 1548.85 L1089.85 1544.91 Q1092.51 1542.16 1097.1 1537.53 Q1101.7 1532.88 1102.88 1531.53 Q1105.13 1529.01 1106.01 1527.27 Q1106.91 1525.51 1106.91 1523.82 Q1106.91 1521.07 1104.97 1519.33 Q1103.04 1517.6 1099.94 1517.6 Q1097.74 1517.6 1095.29 1518.36 Q1092.86 1519.13 1090.08 1520.68 L1090.08 1515.95 Q1092.91 1514.82 1095.36 1514.24 Q1097.81 1513.66 1099.85 1513.66 Q1105.22 1513.66 1108.41 1516.35 Q1111.61 1519.03 1111.61 1523.52 Q1111.61 1525.65 1110.8 1527.57 Q1110.01 1529.47 1107.91 1532.07 Q1107.33 1532.74 1104.23 1535.95 Q1101.12 1539.15 1095.48 1544.91 Z" fill="#000000" fill-rule="nonzero" fill-opacity="1" /><path clip-path="url(#clip640)" d="M1467.86 1517.37 Q1464.24 1517.37 1462.42 1520.93 Q1460.61 1524.47 1460.61 1531.6 Q1460.61 1538.71 1462.42 1542.27 Q1464.24 1545.82 1467.86 1545.82 Q1471.49 1545.82 1473.3 1542.27 Q1475.12 1538.71 1475.12 1531.6 Q1475.12 1524.47 1473.3 1520.93 Q1471.49 1517.37 1467.86 1517.37 M1467.86 1513.66 Q1473.67 1513.66 1476.72 1518.27 Q1479.8 1522.85 1479.8 1531.6 Q1479.8 1540.33 1476.72 1544.94 Q1473.67 1549.52 1467.86 1549.52 Q1462.05 1549.52 1458.97 1544.94 Q1455.91 1540.33 1455.91 1531.6 Q1455.91 1522.85 1458.97 1518.27 Q1462.05 1513.66 1467.86 1513.66 Z" fill="#000000" fill-rule="nonzero" fill-opacity="1" /><path clip-path="url(#clip640)" d="M1488.02 1542.97 L1492.9 1542.97 L1492.9 1548.85 L1488.02 1548.85 L1488.02 1542.97 Z" fill="#000000" fill-rule="nonzero" fill-opacity="1" /><path clip-path="url(#clip640)" d="M1513.09 1517.37 Q1509.48 1517.37 1507.65 1520.93 Q1505.84 1524.47 1505.84 1531.6 Q1505.84 1538.71 1507.65 1542.27 Q1509.48 1545.82 1513.09 1545.82 Q1516.72 1545.82 1518.53 1542.27 Q1520.36 1538.71 1520.36 1531.6 Q1520.36 1524.47 1518.53 1520.93 Q1516.72 1517.37 1513.09 1517.37 M1513.09 1513.66 Q1518.9 1513.66 1521.95 1518.27 Q1525.03 1522.85 1525.03 1531.6 Q1525.03 1540.33 1521.95 1544.94 Q1518.9 1549.52 1513.09 1549.52 Q1507.28 1549.52 1504.2 1544.94 Q1501.14 1540.33 1501.14 1531.6 Q1501.14 1522.85 1504.2 1518.27 Q1507.28 1513.66 1513.09 1513.66 Z" fill="#000000" fill-rule="nonzero" fill-opacity="1" /><path clip-path="url(#clip640)" d="M1900 1517.37 Q1896.39 1517.37 1894.56 1520.93 Q1892.76 1524.47 1892.76 1531.6 Q1892.76 1538.71 1894.56 1542.27 Q1896.39 1545.82 1900 1545.82 Q1903.64 1545.82 1905.44 1542.27 Q1907.27 1538.71 1907.27 1531.6 Q1907.27 1524.47 1905.44 1520.93 Q1903.64 1517.37 1900 1517.37 M1900 1513.66 Q1905.81 1513.66 1908.87 1518.27 Q1911.95 1522.85 1911.95 1531.6 Q1911.95 1540.33 1908.87 1544.94 Q1905.81 1549.52 1900 1549.52 Q1894.19 1549.52 1891.12 1544.94 Q1888.06 1540.33 1888.06 1531.6 Q1888.06 1522.85 1891.12 1518.27 Q1894.19 1513.66 1900 1513.66 Z" fill="#000000" fill-rule="nonzero" fill-opacity="1" /><path clip-path="url(#clip640)" d="M1920.17 1542.97 L1925.05 1542.97 L1925.05 1548.85 L1920.17 1548.85 L1920.17 1542.97 Z" fill="#000000" fill-rule="nonzero" fill-opacity="1" /><path clip-path="url(#clip640)" d="M1939.26 1544.91 L1955.58 1544.91 L1955.58 1548.85 L1933.64 1548.85 L1933.64 1544.91 Q1936.3 1542.16 1940.88 1537.53 Q1945.49 1532.88 1946.67 1531.53 Q1948.92 1529.01 1949.8 1527.27 Q1950.7 1525.51 1950.7 1523.82 Q1950.7 1521.07 1948.75 1519.33 Q1946.83 1517.6 1943.73 1517.6 Q1941.53 1517.6 1939.08 1518.36 Q1936.65 1519.13 1933.87 1520.68 L1933.87 1515.95 Q1936.69 1514.82 1939.15 1514.24 Q1941.6 1513.66 1943.64 1513.66 Q1949.01 1513.66 1952.2 1516.35 Q1955.4 1519.03 1955.4 1523.52 Q1955.4 1525.65 1954.59 1527.57 Q1953.8 1529.47 1951.69 1532.07 Q1951.11 1532.74 1948.01 1535.95 Q1944.91 1539.15 1939.26 1544.91 Z" fill="#000000" fill-rule="nonzero" fill-opacity="1" /><polyline clip-path="url(#clip640)" style="stroke:#000000; stroke-linecap:round; stroke-linejoin:round; stroke-width:4; stroke-opacity:1; fill:none" points="156.598,1486.45 156.598,47.2441 "/>
<polyline clip-path="url(#clip640)" style="stroke:#000000; stroke-linecap:round; stroke-linejoin:round; stroke-width:4; stroke-opacity:1; fill:none" points="156.598,1451 175.496,1451 "/>
<polyline clip-path="url(#clip640)" style="stroke:#000000; stroke-linecap:round; stroke-linejoin:round; stroke-width:4; stroke-opacity:1; fill:none" points="156.598,1187.8 175.496,1187.8 "/>
<polyline clip-path="url(#clip640)" style="stroke:#000000; stroke-linecap:round; stroke-linejoin:round; stroke-width:4; stroke-opacity:1; fill:none" points="156.598,924.599 175.496,924.599 "/>
<polyline clip-path="url(#clip640)" style="stroke:#000000; stroke-linecap:round; stroke-linejoin:round; stroke-width:4; stroke-opacity:1; fill:none" points="156.598,661.399 175.496,661.399 "/>
<polyline clip-path="url(#clip640)" style="stroke:#000000; stroke-linecap:round; stroke-linejoin:round; stroke-width:4; stroke-opacity:1; fill:none" points="156.598,398.198 175.496,398.198 "/>
<polyline clip-path="url(#clip640)" style="stroke:#000000; stroke-linecap:round; stroke-linejoin:round; stroke-width:4; stroke-opacity:1; fill:none" points="156.598,134.998 175.496,134.998 "/>
<path clip-path="url(#clip640)" d="M63.4226 1436.8 Q59.8115 1436.8 57.9828 1440.36 Q56.1773 1443.91 56.1773 1451.03 Q56.1773 1458.14 57.9828 1461.71 Q59.8115 1465.25 63.4226 1465.25 Q67.0569 1465.25 68.8624 1461.71 Q70.6911 1458.14 70.6911 1451.03 Q70.6911 1443.91 68.8624 1440.36 Q67.0569 1436.8 63.4226 1436.8 M63.4226 1433.09 Q69.2328 1433.09 72.2883 1437.7 Q75.367 1442.28 75.367 1451.03 Q75.367 1459.76 72.2883 1464.37 Q69.2328 1468.95 63.4226 1468.95 Q57.6125 1468.95 54.5338 1464.37 Q51.4782 1459.76 51.4782 1451.03 Q51.4782 1442.28 54.5338 1437.7 Q57.6125 1433.09 63.4226 1433.09 Z" fill="#000000" fill-rule="nonzero" fill-opacity="1" /><path clip-path="url(#clip640)" d="M83.5845 1462.4 L88.4688 1462.4 L88.4688 1468.28 L83.5845 1468.28 L83.5845 1462.4 Z" fill="#000000" fill-rule="nonzero" fill-opacity="1" /><path clip-path="url(#clip640)" d="M108.654 1436.8 Q105.043 1436.8 103.214 1440.36 Q101.409 1443.91 101.409 1451.03 Q101.409 1458.14 103.214 1461.71 Q105.043 1465.25 108.654 1465.25 Q112.288 1465.25 114.094 1461.71 Q115.922 1458.14 115.922 1451.03 Q115.922 1443.91 114.094 1440.36 Q112.288 1436.8 108.654 1436.8 M108.654 1433.09 Q114.464 1433.09 117.52 1437.7 Q120.598 1442.28 120.598 1451.03 Q120.598 1459.76 117.52 1464.37 Q114.464 1468.95 108.654 1468.95 Q102.844 1468.95 99.765 1464.37 Q96.7095 1459.76 96.7095 1451.03 Q96.7095 1442.28 99.765 1437.7 Q102.844 1433.09 108.654 1433.09 Z" fill="#000000" fill-rule="nonzero" fill-opacity="1" /><path clip-path="url(#clip640)" d="M64.6495 1173.6 Q61.0384 1173.6 59.2097 1177.16 Q57.4041 1180.7 57.4041 1187.83 Q57.4041 1194.94 59.2097 1198.51 Q61.0384 1202.05 64.6495 1202.05 Q68.2837 1202.05 70.0892 1198.51 Q71.9179 1194.94 71.9179 1187.83 Q71.9179 1180.7 70.0892 1177.16 Q68.2837 1173.6 64.6495 1173.6 M64.6495 1169.89 Q70.4596 1169.89 73.5152 1174.5 Q76.5938 1179.08 76.5938 1187.83 Q76.5938 1196.56 73.5152 1201.17 Q70.4596 1205.75 64.6495 1205.75 Q58.8393 1205.75 55.7606 1201.17 Q52.7051 1196.56 52.7051 1187.83 Q52.7051 1179.08 55.7606 1174.5 Q58.8393 1169.89 64.6495 1169.89 Z" fill="#000000" fill-rule="nonzero" fill-opacity="1" /><path clip-path="url(#clip640)" d="M84.8114 1199.2 L89.6956 1199.2 L89.6956 1205.08 L84.8114 1205.08 L84.8114 1199.2 Z" fill="#000000" fill-rule="nonzero" fill-opacity="1" /><path clip-path="url(#clip640)" d="M100.691 1201.14 L108.33 1201.14 L108.33 1174.78 L100.02 1176.45 L100.02 1172.19 L108.283 1170.52 L112.959 1170.52 L112.959 1201.14 L120.598 1201.14 L120.598 1205.08 L100.691 1205.08 L100.691 1201.14 Z" fill="#000000" fill-rule="nonzero" fill-opacity="1" /><path clip-path="url(#clip640)" d="M65.0198 910.398 Q61.4087 910.398 59.58 913.963 Q57.7745 917.504 57.7745 924.634 Q57.7745 931.74 59.58 935.305 Q61.4087 938.847 65.0198 938.847 Q68.6541 938.847 70.4596 935.305 Q72.2883 931.74 72.2883 924.634 Q72.2883 917.504 70.4596 913.963 Q68.6541 910.398 65.0198 910.398 M65.0198 906.694 Q70.83 906.694 73.8855 911.301 Q76.9642 915.884 76.9642 924.634 Q76.9642 933.361 73.8855 937.967 Q70.83 942.55 65.0198 942.55 Q59.2097 942.55 56.131 937.967 Q53.0754 933.361 53.0754 924.634 Q53.0754 915.884 56.131 911.301 Q59.2097 906.694 65.0198 906.694 Z" fill="#000000" fill-rule="nonzero" fill-opacity="1" /><path clip-path="url(#clip640)" d="M85.1818 936 L90.066 936 L90.066 941.879 L85.1818 941.879 L85.1818 936 Z" fill="#000000" fill-rule="nonzero" fill-opacity="1" /><path clip-path="url(#clip640)" d="M104.279 937.944 L120.598 937.944 L120.598 941.879 L98.6539 941.879 L98.6539 937.944 Q101.316 935.189 105.899 930.56 Q110.506 925.907 111.686 924.564 Q113.932 922.041 114.811 920.305 Q115.714 918.546 115.714 916.856 Q115.714 914.101 113.77 912.365 Q111.848 910.629 108.746 910.629 Q106.547 910.629 104.094 911.393 Q101.663 912.157 98.8854 913.708 L98.8854 908.986 Q101.709 907.852 104.163 907.273 Q106.617 906.694 108.654 906.694 Q114.024 906.694 117.219 909.379 Q120.413 912.064 120.413 916.555 Q120.413 918.685 119.603 920.606 Q118.816 922.504 116.709 925.097 Q116.131 925.768 113.029 928.986 Q109.927 932.18 104.279 937.944 Z" fill="#000000" fill-rule="nonzero" fill-opacity="1" /><path clip-path="url(#clip640)" d="M64.0708 647.197 Q60.4597 647.197 58.631 650.762 Q56.8254 654.304 56.8254 661.433 Q56.8254 668.54 58.631 672.105 Q60.4597 675.646 64.0708 675.646 Q67.705 675.646 69.5105 672.105 Q71.3392 668.54 71.3392 661.433 Q71.3392 654.304 69.5105 650.762 Q67.705 647.197 64.0708 647.197 M64.0708 643.494 Q69.8809 643.494 72.9365 648.1 Q76.0151 652.684 76.0151 661.433 Q76.0151 670.16 72.9365 674.767 Q69.8809 679.35 64.0708 679.35 Q58.2606 679.35 55.1819 674.767 Q52.1264 670.16 52.1264 661.433 Q52.1264 652.684 55.1819 648.1 Q58.2606 643.494 64.0708 643.494 Z" fill="#000000" fill-rule="nonzero" fill-opacity="1" /><path clip-path="url(#clip640)" d="M84.2327 672.799 L89.1169 672.799 L89.1169 678.679 L84.2327 678.679 L84.2327 672.799 Z" fill="#000000" fill-rule="nonzero" fill-opacity="1" /><path clip-path="url(#clip640)" d="M113.469 660.045 Q116.825 660.762 118.7 663.031 Q120.598 665.299 120.598 668.632 Q120.598 673.748 117.08 676.549 Q113.561 679.35 107.08 679.35 Q104.904 679.35 102.589 678.91 Q100.297 678.494 97.8437 677.637 L97.8437 673.123 Q99.7882 674.257 102.103 674.836 Q104.418 675.415 106.941 675.415 Q111.339 675.415 113.631 673.679 Q115.945 671.943 115.945 668.632 Q115.945 665.577 113.793 663.864 Q111.663 662.128 107.844 662.128 L103.816 662.128 L103.816 658.285 L108.029 658.285 Q111.478 658.285 113.307 656.92 Q115.135 655.531 115.135 652.938 Q115.135 650.276 113.237 648.864 Q111.362 647.429 107.844 647.429 Q105.922 647.429 103.723 647.846 Q101.524 648.262 98.8854 649.142 L98.8854 644.975 Q101.547 644.234 103.862 643.864 Q106.2 643.494 108.26 643.494 Q113.584 643.494 116.686 645.924 Q119.788 648.332 119.788 652.452 Q119.788 655.322 118.145 657.313 Q116.501 659.281 113.469 660.045 Z" fill="#000000" fill-rule="nonzero" fill-opacity="1" /><path clip-path="url(#clip640)" d="M62.9365 383.997 Q59.3254 383.997 57.4967 387.562 Q55.6912 391.103 55.6912 398.233 Q55.6912 405.34 57.4967 408.904 Q59.3254 412.446 62.9365 412.446 Q66.5707 412.446 68.3763 408.904 Q70.205 405.34 70.205 398.233 Q70.205 391.103 68.3763 387.562 Q66.5707 383.997 62.9365 383.997 M62.9365 380.293 Q68.7467 380.293 71.8022 384.9 Q74.8809 389.483 74.8809 398.233 Q74.8809 406.96 71.8022 411.566 Q68.7467 416.15 62.9365 416.15 Q57.1264 416.15 54.0477 411.566 Q50.9921 406.96 50.9921 398.233 Q50.9921 389.483 54.0477 384.9 Q57.1264 380.293 62.9365 380.293 Z" fill="#000000" fill-rule="nonzero" fill-opacity="1" /><path clip-path="url(#clip640)" d="M83.0984 409.599 L87.9827 409.599 L87.9827 415.478 L83.0984 415.478 L83.0984 409.599 Z" fill="#000000" fill-rule="nonzero" fill-opacity="1" /><path clip-path="url(#clip640)" d="M111.015 384.992 L99.2095 403.441 L111.015 403.441 L111.015 384.992 M109.788 380.918 L115.668 380.918 L115.668 403.441 L120.598 403.441 L120.598 407.33 L115.668 407.33 L115.668 415.478 L111.015 415.478 L111.015 407.33 L95.4132 407.33 L95.4132 402.816 L109.788 380.918 Z" fill="#000000" fill-rule="nonzero" fill-opacity="1" /><path clip-path="url(#clip640)" d="M64.418 120.797 Q60.8069 120.797 58.9782 124.361 Q57.1726 127.903 57.1726 135.033 Q57.1726 142.139 58.9782 145.704 Q60.8069 149.246 64.418 149.246 Q68.0522 149.246 69.8578 145.704 Q71.6865 142.139 71.6865 135.033 Q71.6865 127.903 69.8578 124.361 Q68.0522 120.797 64.418 120.797 M64.418 117.093 Q70.2281 117.093 73.2837 121.699 Q76.3624 126.283 76.3624 135.033 Q76.3624 143.76 73.2837 148.366 Q70.2281 152.949 64.418 152.949 Q58.6078 152.949 55.5291 148.366 Q52.4736 143.76 52.4736 135.033 Q52.4736 126.283 55.5291 121.699 Q58.6078 117.093 64.418 117.093 Z" fill="#000000" fill-rule="nonzero" fill-opacity="1" /><path clip-path="url(#clip640)" d="M84.5799 146.398 L89.4641 146.398 L89.4641 152.278 L84.5799 152.278 L84.5799 146.398 Z" fill="#000000" fill-rule="nonzero" fill-opacity="1" /><path clip-path="url(#clip640)" d="M99.6956 117.718 L118.052 117.718 L118.052 121.653 L103.978 121.653 L103.978 130.125 Q104.996 129.778 106.015 129.616 Q107.033 129.431 108.052 129.431 Q113.839 129.431 117.219 132.602 Q120.598 135.773 120.598 141.19 Q120.598 146.769 117.126 149.871 Q113.654 152.949 107.334 152.949 Q105.159 152.949 102.89 152.579 Q100.645 152.209 98.2372 151.468 L98.2372 146.769 Q100.321 147.903 102.543 148.459 Q104.765 149.014 107.242 149.014 Q111.246 149.014 113.584 146.908 Q115.922 144.801 115.922 141.19 Q115.922 137.579 113.584 135.473 Q111.246 133.366 107.242 133.366 Q105.367 133.366 103.492 133.783 Q101.64 134.199 99.6956 135.079 L99.6956 117.718 Z" fill="#000000" fill-rule="nonzero" fill-opacity="1" /><circle clip-path="url(#clip641)" cx="1580.79" cy="1224.33" r="14.4" fill="#808080" fill-rule="evenodd" fill-opacity="1" stroke="#000000" stroke-opacity="1" stroke-width="3.2"/>
<circle clip-path="url(#clip641)" cx="1454.1" cy="1445.72" r="14.4" fill="#808080" fill-rule="evenodd" fill-opacity="1" stroke="#000000" stroke-opacity="1" stroke-width="3.2"/>
<circle clip-path="url(#clip641)" cx="2290.6" cy="1324.73" r="14.4" fill="#808080" fill-rule="evenodd" fill-opacity="1" stroke="#000000" stroke-opacity="1" stroke-width="3.2"/>
<circle clip-path="url(#clip641)" cx="218.754" cy="87.9763" r="14.4" fill="#808080" fill-rule="evenodd" fill-opacity="1" stroke="#000000" stroke-opacity="1" stroke-width="3.2"/>
<path clip-path="url(#clip640)" d="M1585.08 1231.76 Q1576.05 1231.76 1572.57 1233.83 Q1569.08 1235.9 1569.08 1240.88 Q1569.08 1244.85 1571.68 1247.2 Q1574.31 1249.51 1578.81 1249.51 Q1585 1249.51 1588.73 1245.13 Q1592.5 1240.72 1592.5 1233.43 L1592.5 1231.76 L1585.08 1231.76 M1599.95 1228.69 L1599.95 1254.57 L1592.5 1254.57 L1592.5 1247.68 Q1589.95 1251.82 1586.14 1253.8 Q1582.33 1255.75 1576.82 1255.75 Q1569.85 1255.75 1565.72 1251.86 Q1561.63 1247.93 1561.63 1241.37 Q1561.63 1233.71 1566.73 1229.82 Q1571.88 1225.93 1582.05 1225.93 L1592.5 1225.93 L1592.5 1225.2 Q1592.5 1220.06 1589.09 1217.26 Q1585.73 1214.43 1579.62 1214.43 Q1575.73 1214.43 1572.04 1215.36 Q1568.35 1216.29 1564.95 1218.15 L1564.95 1211.27 Q1569.04 1209.69 1572.89 1208.92 Q1576.74 1208.11 1580.39 1208.11 Q1590.23 1208.11 1595.09 1213.21 Q1599.95 1218.32 1599.95 1228.69 Z" fill="#000000" fill-rule="nonzero" fill-opacity="1" /><path clip-path="url(#clip640)" d="M1466.66 1453.31 Q1466.66 1445.09 1463.26 1440.43 Q1459.89 1435.73 1453.98 1435.73 Q1448.07 1435.73 1444.66 1440.43 Q1441.3 1445.09 1441.3 1453.31 Q1441.3 1461.53 1444.66 1466.23 Q1448.07 1470.89 1453.98 1470.89 Q1459.89 1470.89 1463.26 1466.23 Q1466.66 1461.53 1466.66 1453.31 M1441.3 1437.47 Q1443.65 1433.42 1447.21 1431.48 Q1450.82 1429.49 1455.8 1429.49 Q1464.07 1429.49 1469.21 1436.05 Q1474.4 1442.62 1474.4 1453.31 Q1474.4 1464.01 1469.21 1470.57 Q1464.07 1477.13 1455.8 1477.13 Q1450.82 1477.13 1447.21 1475.19 Q1443.65 1473.2 1441.3 1469.15 L1441.3 1475.96 L1433.81 1475.96 L1433.81 1412.92 L1441.3 1412.92 L1441.3 1437.47 Z" fill="#000000" fill-rule="nonzero" fill-opacity="1" /><path clip-path="url(#clip640)" d="M2308.55 1311.34 L2308.55 1318.31 Q2305.39 1316.57 2302.19 1315.72 Q2299.03 1314.82 2295.79 1314.82 Q2288.53 1314.82 2284.52 1319.44 Q2280.51 1324.02 2280.51 1332.32 Q2280.51 1340.63 2284.52 1345.25 Q2288.53 1349.82 2295.79 1349.82 Q2299.03 1349.82 2302.19 1348.97 Q2305.39 1348.08 2308.55 1346.34 L2308.55 1353.23 Q2305.43 1354.69 2302.06 1355.41 Q2298.74 1356.14 2294.98 1356.14 Q2284.73 1356.14 2278.69 1349.7 Q2272.65 1343.26 2272.65 1332.32 Q2272.65 1321.22 2278.73 1314.86 Q2284.85 1308.5 2295.46 1308.5 Q2298.9 1308.5 2302.19 1309.23 Q2305.47 1309.92 2308.55 1311.34 Z" fill="#000000" fill-rule="nonzero" fill-opacity="1" /><path clip-path="url(#clip640)" d="M231.575 79.7327 L231.575 55.1842 L239.028 55.1842 L239.028 118.216 L231.575 118.216 L231.575 111.411 Q229.225 115.462 225.62 117.447 Q222.055 119.391 217.032 119.391 Q208.809 119.391 203.624 112.829 Q198.479 106.266 198.479 95.5717 Q198.479 84.8773 203.624 78.3149 Q208.809 71.7524 217.032 71.7524 Q222.055 71.7524 225.62 73.7373 Q229.225 75.6818 231.575 79.7327 M206.176 95.5717 Q206.176 103.795 209.538 108.494 Q212.941 113.153 218.855 113.153 Q224.769 113.153 228.172 108.494 Q231.575 103.795 231.575 95.5717 Q231.575 87.3484 228.172 82.6898 Q224.769 77.9908 218.855 77.9908 Q212.941 77.9908 209.538 82.6898 Q206.176 87.3484 206.176 95.5717 Z" fill="#000000" fill-rule="nonzero" fill-opacity="1" /><path clip-path="url(#clip640)" d="M2007.5 198.898 L2279.55 198.898 L2279.55 95.2176 L2007.5 95.2176  Z" fill="#ffffff" fill-rule="evenodd" fill-opacity="1"/>
<polyline clip-path="url(#clip640)" style="stroke:#000000; stroke-linecap:round; stroke-linejoin:round; stroke-width:4; stroke-opacity:1; fill:none" points="2007.5,198.898 2279.55,198.898 2279.55,95.2176 2007.5,95.2176 2007.5,198.898 "/>
<circle clip-path="url(#clip640)" cx="2105.11" cy="147.058" r="20.48" fill="#808080" fill-rule="evenodd" fill-opacity="1" stroke="#000000" stroke-opacity="1" stroke-width="4.55111"/>
<path clip-path="url(#clip640)" d="M2216.56 166.745 Q2214.76 171.375 2213.04 172.787 Q2211.33 174.199 2208.46 174.199 L2205.06 174.199 L2205.06 170.634 L2207.56 170.634 Q2209.32 170.634 2210.29 169.8 Q2211.26 168.967 2212.44 165.865 L2213.2 163.921 L2202.72 138.412 L2207.23 138.412 L2215.33 158.689 L2223.44 138.412 L2227.95 138.412 L2216.56 166.745 Z" fill="#000000" fill-rule="nonzero" fill-opacity="1" /><path clip-path="url(#clip640)" d="M2235.24 160.402 L2242.88 160.402 L2242.88 134.037 L2234.57 135.703 L2234.57 131.444 L2242.83 129.778 L2247.51 129.778 L2247.51 160.402 L2255.15 160.402 L2255.15 164.338 L2235.24 164.338 L2235.24 160.402 Z" fill="#000000" fill-rule="nonzero" fill-opacity="1" /></svg>
