<?xml version="1.0" encoding="utf-8"?>
<svg xmlns="http://www.w3.org/2000/svg" xmlns:xlink="http://www.w3.org/1999/xlink" width="600" height="400" viewBox="0 0 2400 1600">
<defs>
  <clipPath id="clip780">
    <rect x="0" y="0" width="2400" height="1600"/>
  </clipPath>
</defs>
<path clip-path="url(#clip780)" d="M0 1600 L2400 1600 L2400 0 L0 0  Z" fill="#ffffff" fill-rule="evenodd" fill-opacity="1"/>
<defs>
  <clipPath id="clip781">
    <rect x="156" y="47" width="2197" height="1440"/>
  </clipPath>
</defs>
<path clip-path="url(#clip780)" d="M156.598 1486.45 L2352.76 1486.45 L2352.76 47.2441 L156.598 47.2441  Z" fill="#ffffff" fill-rule="evenodd" fill-opacity="1"/>
<polyline clip-path="url(#clip781)" style="stroke:#000000; stroke-linecap:round; stroke-linejoin:round; stroke-width:2; stroke-opacity:0.1; fill:none" points="512.617,1486.45 512.617,47.2441 "/>
<polyline clip-path="url(#clip781)" style="stroke:#000000; stroke-linecap:round; stroke-linejoin:round; stroke-width:2; stroke-opacity:0.1; fill:none" points="983.983,1486.45 983.983,47.2441 "/>
<polyline clip-path="url(#clip781)" style="stroke:#000000; stroke-linecap:round; stroke-linejoin:round; stroke-width:2; stroke-opacity:0.1; fill:none" points="1455.35,1486.45 1455.35,47.2441 "/>
<polyline clip-path="url(#clip781)" style="stroke:#000000; stroke-linecap:round; stroke-linejoin:round; stroke-width:2; stroke-opacity:0.1; fill:none" points="1926.71,1486.45 1926.71,47.2441 "/>
<polyline clip-path="url(#clip781)" style="stroke:#000000; stroke-linecap:round; stroke-linejoin:round; stroke-width:2; stroke-opacity:0.1; fill:none" points="156.598,1451.75 2352.76,1451.75 "/>
<polyline clip-path="url(#clip781)" style="stroke:#000000; stroke-linecap:round; stroke-linejoin:round; stroke-width:2; stroke-opacity:0.1; fill:none" points="156.598,1111.84 2352.76,1111.84 "/>
<polyline clip-path="url(#clip781)" style="stroke:#000000; stroke-linecap:round; stroke-linejoin:round; stroke-width:2; stroke-opacity:0.1; fill:none" points="156.598,771.93 2352.76,771.93 "/>
<polyline clip-path="url(#clip781)" style="stroke:#000000; stroke-linecap:round; stroke-linejoin:round; stroke-width:2; stroke-opacity:0.1; fill:none" points="156.598,432.018 2352.76,432.018 "/>
<polyline clip-path="url(#clip781)" style="stroke:#000000; stroke-linecap:round; stroke-linejoin:round; stroke-width:2; stroke-opacity:0.1; fill:none" points="156.598,92.1069 2352.76,92.1069 "/>
<polyline clip-path="url(#clip780)" style="stroke:#000000; stroke-linecap:round; stroke-linejoin:round; stroke-width:4; stroke-opacity:1; fill:none" points="156.598,1486.45 2352.76,1486.45 "/>
<polyline clip-path="url(#clip780)" style="stroke:#000000; stroke-linecap:round; stroke-linejoin:round; stroke-width:4; stroke-opacity:1; fill:none" points="512.617,1486.45 512.617,1467.55 "/>
<polyline clip-path="url(#clip780)" style="stroke:#000000; stroke-linecap:round; stroke-linejoin:round; stroke-width:4; stroke-opacity:1; fill:none" points="983.983,1486.45 983.983,1467.55 "/>
<polyline clip-path="url(#clip780)" style="stroke:#000000; stroke-linecap:round; stroke-linejoin:round; stroke-width:4; stroke-opacity:1; fill:none" points="1455.35,1486.45 1455.35,1467.55 "/>
<polyline clip-path="url(#clip780)" style="stroke:#000000; stroke-linecap:round; stroke-linejoin:round; stroke-width:4; stroke-opacity:1; fill:none" points="1926.71,1486.45 1926.71,1467.55 "/>
<path clip-path="url(#clip780)" d="M458.902 1532.02 L488.577 1532.02 L488.577 1535.95 L458.902 1535.95 L458.902 1532.02 Z" fill="#000000" fill-rule="nonzero" fill-opacity="1" /><path clip-path="url(#clip780)" d="M508.67 1517.37 Q505.059 1517.37 503.23 1520.93 Q501.425 1524.47 501.425 1531.6 Q501.425 1538.71 503.23 1542.27 Q505.059 1545.82 508.67 1545.82 Q512.304 1545.82 514.11 1542.27 Q515.938 1538.71 515.938 1531.6 Q515.938 1524.47 514.11 1520.93 Q512.304 1517.37 508.67 1517.37 M508.67 1513.66 Q514.48 1513.66 517.536 1518.27 Q520.614 1522.85 520.614 1531.6 Q520.614 1540.33 517.536 1544.94 Q514.48 1549.52 508.67 1549.52 Q502.86 1549.52 499.781 1544.94 Q496.726 1540.33 496.726 1531.6 Q496.726 1522.85 499.781 1518.27 Q502.86 1513.66 508.67 1513.66 Z" fill="#000000" fill-rule="nonzero" fill-opacity="1" /><path clip-path="url(#clip780)" d="M528.832 1542.97 L533.716 1542.97 L533.716 1548.85 L528.832 1548.85 L528.832 1542.97 Z" fill="#000000" fill-rule="nonzero" fill-opacity="1" /><path clip-path="url(#clip780)" d="M556.748 1518.36 L544.943 1536.81 L556.748 1536.81 L556.748 1518.36 M555.522 1514.29 L561.401 1514.29 L561.401 1536.81 L566.332 1536.81 L566.332 1540.7 L561.401 1540.7 L561.401 1548.85 L556.748 1548.85 L556.748 1540.7 L541.147 1540.7 L541.147 1536.19 L555.522 1514.29 Z" fill="#000000" fill-rule="nonzero" fill-opacity="1" /><path clip-path="url(#clip780)" d="M931.309 1532.02 L960.985 1532.02 L960.985 1535.95 L931.309 1535.95 L931.309 1532.02 Z" fill="#000000" fill-rule="nonzero" fill-opacity="1" /><path clip-path="url(#clip780)" d="M981.078 1517.37 Q977.467 1517.37 975.638 1520.93 Q973.832 1524.47 973.832 1531.6 Q973.832 1538.71 975.638 1542.27 Q977.467 1545.82 981.078 1545.82 Q984.712 1545.82 986.517 1542.27 Q988.346 1538.71 988.346 1531.6 Q988.346 1524.47 986.517 1520.93 Q984.712 1517.37 981.078 1517.37 M981.078 1513.66 Q986.888 1513.66 989.943 1518.27 Q993.022 1522.85 993.022 1531.6 Q993.022 1540.33 989.943 1544.94 Q986.888 1549.52 981.078 1549.52 Q975.268 1549.52 972.189 1544.94 Q969.133 1540.33 969.133 1531.6 Q969.133 1522.85 972.189 1518.27 Q975.268 1513.66 981.078 1513.66 Z" fill="#000000" fill-rule="nonzero" fill-opacity="1" /><path clip-path="url(#clip780)" d="M1001.24 1542.97 L1006.12 1542.97 L1006.12 1548.85 L1001.24 1548.85 L1001.24 1542.97 Z" fill="#000000" fill-rule="nonzero" fill-opacity="1" /><path clip-path="url(#clip780)" d="M1020.34 1544.91 L1036.66 1544.91 L1036.66 1548.85 L1014.71 1548.85 L1014.71 1544.91 Q1017.37 1542.16 1021.96 1537.53 Q1026.56 1532.88 1027.74 1531.53 Q1029.99 1529.01 1030.87 1527.27 Q1031.77 1525.51 1031.77 1523.82 Q1031.77 1521.07 1029.83 1519.33 Q1027.91 1517.6 1024.8 1517.6 Q1022.61 1517.6 1020.15 1518.36 Q1017.72 1519.13 1014.94 1520.68 L1014.94 1515.95 Q1017.77 1514.82 1020.22 1514.24 Q1022.67 1513.66 1024.71 1513.66 Q1030.08 1513.66 1033.28 1516.35 Q1036.47 1519.03 1036.47 1523.52 Q1036.47 1525.65 1035.66 1527.57 Q1034.87 1529.47 1032.77 1532.07 Q1032.19 1532.74 1029.09 1535.95 Q1025.98 1539.15 1020.34 1544.91 Z" fill="#000000" fill-rule="nonzero" fill-opacity="1" /><path clip-path="url(#clip780)" d="M1432.73 1517.37 Q1429.12 1517.37 1427.29 1520.93 Q1425.49 1524.47 1425.49 1531.6 Q1425.49 1538.71 1427.29 1542.27 Q1429.12 1545.82 1432.73 1545.82 Q1436.37 1545.82 1438.17 1542.27 Q1440 1538.71 1440 1531.6 Q1440 1524.47 1438.17 1520.93 Q1436.37 1517.37 1432.73 1517.37 M1432.73 1513.66 Q1438.54 1513.66 1441.6 1518.27 Q1444.68 1522.85 1444.68 1531.6 Q1444.68 1540.33 1441.6 1544.94 Q1438.54 1549.52 1432.73 1549.52 Q1426.92 1549.52 1423.84 1544.94 Q1420.79 1540.33 1420.79 1531.6 Q1420.79 1522.85 1423.84 1518.27 Q1426.92 1513.66 1432.73 1513.66 Z" fill="#000000" fill-rule="nonzero" fill-opacity="1" /><path clip-path="url(#clip780)" d="M1452.9 1542.97 L1457.78 1542.97 L1457.78 1548.85 L1452.9 1548.85 L1452.9 1542.97 Z" fill="#000000" fill-rule="nonzero" fill-opacity="1" /><path clip-path="url(#clip780)" d="M1477.96 1517.37 Q1474.35 1517.37 1472.52 1520.93 Q1470.72 1524.47 1470.72 1531.6 Q1470.72 1538.71 1472.52 1542.27 Q1474.35 1545.82 1477.96 1545.82 Q1481.6 1545.82 1483.4 1542.27 Q1485.23 1538.71 1485.23 1531.6 Q1485.23 1524.47 1483.4 1520.93 Q1481.6 1517.37 1477.96 1517.37 M1477.96 1513.66 Q1483.77 1513.66 1486.83 1518.27 Q1489.91 1522.85 1489.91 1531.6 Q1489.91 1540.33 1486.83 1544.94 Q1483.77 1549.52 1477.96 1549.52 Q1472.15 1549.52 1469.08 1544.94 Q1466.02 1540.33 1466.02 1531.6 Q1466.02 1522.85 1469.08 1518.27 Q1472.15 1513.66 1477.96 1513.66 Z" fill="#000000" fill-rule="nonzero" fill-opacity="1" /><path clip-path="url(#clip780)" d="M1904.9 1517.37 Q1901.29 1517.37 1899.46 1520.93 Q1897.65 1524.47 1897.65 1531.6 Q1897.65 1538.71 1899.46 1542.27 Q1901.29 1545.82 1904.9 1545.82 Q1908.53 1545.82 1910.34 1542.27 Q1912.17 1538.71 1912.17 1531.6 Q1912.17 1524.47 1910.34 1520.93 Q1908.53 1517.37 1904.9 1517.37 M1904.9 1513.66 Q1910.71 1513.66 1913.76 1518.27 Q1916.84 1522.85 1916.84 1531.6 Q1916.84 1540.33 1913.76 1544.94 Q1910.71 1549.52 1904.9 1549.52 Q1899.09 1549.52 1896.01 1544.94 Q1892.95 1540.33 1892.95 1531.6 Q1892.95 1522.85 1896.01 1518.27 Q1899.09 1513.66 1904.9 1513.66 Z" fill="#000000" fill-rule="nonzero" fill-opacity="1" /><path clip-path="url(#clip780)" d="M1925.06 1542.97 L1929.94 1542.97 L1929.94 1548.85 L1925.06 1548.85 L1925.06 1542.97 Z" fill="#000000" fill-rule="nonzero" fill-opacity="1" /><path clip-path="url(#clip780)" d="M1944.16 1544.91 L1960.48 1544.91 L1960.48 1548.85 L1938.53 1548.85 L1938.53 1544.91 Q1941.19 1542.16 1945.78 1537.53 Q1950.38 1532.88 1951.56 1531.53 Q1953.81 1529.01 1954.69 1527.27 Q1955.59 1525.51 1955.59 1523.82 Q1955.59 1521.07 1953.65 1519.33 Q1951.73 1517.6 1948.62 1517.6 Q1946.43 1517.6 1943.97 1518.36 Q1941.54 1519.13 1938.76 1520.68 L1938.76 1515.95 Q1941.59 1514.82 1944.04 1514.24 Q1946.49 1513.66 1948.53 1513.66 Q1953.9 1513.66 1957.1 1516.35 Q1960.29 1519.03 1960.29 1523.52 Q1960.29 1525.65 1959.48 1527.57 Q1958.69 1529.47 1956.59 1532.07 Q1956.01 1532.74 1952.91 1535.95 Q1949.8 1539.15 1944.16 1544.91 Z" fill="#000000" fill-rule="nonzero" fill-opacity="1" /><polyline clip-path="url(#clip780)" style="stroke:#000000; stroke-linecap:round; stroke-linejoin:round; stroke-width:4; stroke-opacity:1; fill:none" points="156.598,1486.45 156.598,47.2441 "/>
<polyline clip-path="url(#clip780)" style="stroke:#000000; stroke-linecap:round; stroke-linejoin:round; stroke-width:4; stroke-opacity:1; fill:none" points="156.598,1451.75 175.496,1451.75 "/>
<polyline clip-path="url(#clip780)" style="stroke:#000000; stroke-linecap:round; stroke-linejoin:round; stroke-width:4; stroke-opacity:1; fill:none" points="156.598,1111.84 175.496,1111.84 "/>
<polyline clip-path="url(#clip780)" style="stroke:#000000; stroke-linecap:round; stroke-linejoin:round; stroke-width:4; stroke-opacity:1; fill:none" points="156.598,771.93 175.496,771.93 "/>
<polyline clip-path="url(#clip780)" style="stroke:#000000; stroke-linecap:round; stroke-linejoin:round; stroke-width:4; stroke-opacity:1; fill:none" points="156.598,432.018 175.496,432.018 "/>
<polyline clip-path="url(#clip780)" style="stroke:#000000; stroke-linecap:round; stroke-linejoin:round; stroke-width:4; stroke-opacity:1; fill:none" points="156.598,92.1069 175.496,92.1069 "/>
<path clip-path="url(#clip780)" d="M63.4226 1437.55 Q59.8115 1437.55 57.9828 1441.12 Q56.1773 1444.66 56.1773 1451.79 Q56.1773 1458.89 57.9828 1462.46 Q59.8115 1466 63.4226 1466 Q67.0569 1466 68.8624 1462.46 Q70.6911 1458.89 70.6911 1451.79 Q70.6911 1444.66 68.8624 1441.12 Q67.0569 1437.55 63.4226 1437.55 M63.4226 1433.85 Q69.2328 1433.85 72.2883 1438.45 Q75.367 1443.04 75.367 1451.79 Q75.367 1460.51 72.2883 1465.12 Q69.2328 1469.7 63.4226 1469.7 Q57.6125 1469.7 54.5338 1465.12 Q51.4782 1460.51 51.4782 1451.79 Q51.4782 1443.04 54.5338 1438.45 Q57.6125 1433.85 63.4226 1433.85 Z" fill="#000000" fill-rule="nonzero" fill-opacity="1" /><path clip-path="url(#clip780)" d="M83.5845 1463.15 L88.4688 1463.15 L88.4688 1469.03 L83.5845 1469.03 L83.5845 1463.15 Z" fill="#000000" fill-rule="nonzero" fill-opacity="1" /><path clip-path="url(#clip780)" d="M108.654 1437.55 Q105.043 1437.55 103.214 1441.12 Q101.409 1444.66 101.409 1451.79 Q101.409 1458.89 103.214 1462.46 Q105.043 1466 108.654 1466 Q112.288 1466 114.094 1462.46 Q115.922 1458.89 115.922 1451.79 Q115.922 1444.66 114.094 1441.12 Q112.288 1437.55 108.654 1437.55 M108.654 1433.85 Q114.464 1433.85 117.52 1438.45 Q120.598 1443.04 120.598 1451.79 Q120.598 1460.51 117.52 1465.12 Q114.464 1469.7 108.654 1469.7 Q102.844 1469.7 99.765 1465.12 Q96.7095 1460.51 96.7095 1451.79 Q96.7095 1443.04 99.765 1438.45 Q102.844 1433.85 108.654 1433.85 Z" fill="#000000" fill-rule="nonzero" fill-opacity="1" /><path clip-path="url(#clip780)" d="M64.6495 1097.64 Q61.0384 1097.64 59.2097 1101.2 Q57.4041 1104.75 57.4041 1111.88 Q57.4041 1118.98 59.2097 1122.55 Q61.0384 1126.09 64.6495 1126.09 Q68.2837 1126.09 70.0892 1122.55 Q71.9179 1118.98 71.9179 1111.88 Q71.9179 1104.75 70.0892 1101.2 Q68.2837 1097.64 64.6495 1097.64 M64.6495 1093.94 Q70.4596 1093.94 73.5152 1098.54 Q76.5938 1103.13 76.5938 1111.88 Q76.5938 1120.6 73.5152 1125.21 Q70.4596 1129.79 64.6495 1129.79 Q58.8393 1129.79 55.7606 1125.21 Q52.7051 1120.6 52.7051 1111.88 Q52.7051 1103.13 55.7606 1098.54 Q58.8393 1093.94 64.6495 1093.94 Z" fill="#000000" fill-rule="nonzero" fill-opacity="1" /><path clip-path="url(#clip780)" d="M84.8114 1123.24 L89.6956 1123.24 L89.6956 1129.12 L84.8114 1129.12 L84.8114 1123.24 Z" fill="#000000" fill-rule="nonzero" fill-opacity="1" /><path clip-path="url(#clip780)" d="M100.691 1125.19 L108.33 1125.19 L108.33 1098.82 L100.02 1100.49 L100.02 1096.23 L108.283 1094.56 L112.959 1094.56 L112.959 1125.19 L120.598 1125.19 L120.598 1129.12 L100.691 1129.12 L100.691 1125.19 Z" fill="#000000" fill-rule="nonzero" fill-opacity="1" /><path clip-path="url(#clip780)" d="M65.0198 757.728 Q61.4087 757.728 59.58 761.293 Q57.7745 764.835 57.7745 771.964 Q57.7745 779.071 59.58 782.636 Q61.4087 786.177 65.0198 786.177 Q68.6541 786.177 70.4596 782.636 Q72.2883 779.071 72.2883 771.964 Q72.2883 764.835 70.4596 761.293 Q68.6541 757.728 65.0198 757.728 M65.0198 754.025 Q70.83 754.025 73.8855 758.631 Q76.9642 763.214 76.9642 771.964 Q76.9642 780.691 73.8855 785.298 Q70.83 789.881 65.0198 789.881 Q59.2097 789.881 56.131 785.298 Q53.0754 780.691 53.0754 771.964 Q53.0754 763.214 56.131 758.631 Q59.2097 754.025 65.0198 754.025 Z" fill="#000000" fill-rule="nonzero" fill-opacity="1" /><path clip-path="url(#clip780)" d="M85.1818 783.33 L90.066 783.33 L90.066 789.21 L85.1818 789.21 L85.1818 783.33 Z" fill="#000000" fill-rule="nonzero" fill-opacity="1" /><path clip-path="url(#clip780)" d="M104.279 785.274 L120.598 785.274 L120.598 789.21 L98.6539 789.21 L98.6539 785.274 Q101.316 782.52 105.899 777.89 Q110.506 773.237 111.686 771.895 Q113.932 769.372 114.811 767.636 Q115.714 765.876 115.714 764.187 Q115.714 761.432 113.77 759.696 Q111.848 757.96 108.746 757.96 Q106.547 757.96 104.094 758.724 Q101.663 759.487 98.8854 761.038 L98.8854 756.316 Q101.709 755.182 104.163 754.603 Q106.617 754.025 108.654 754.025 Q114.024 754.025 117.219 756.71 Q120.413 759.395 120.413 763.886 Q120.413 766.015 119.603 767.937 Q118.816 769.835 116.709 772.427 Q116.131 773.099 113.029 776.316 Q109.927 779.511 104.279 785.274 Z" fill="#000000" fill-rule="nonzero" fill-opacity="1" /><path clip-path="url(#clip780)" d="M64.0708 417.817 Q60.4597 417.817 58.631 421.382 Q56.8254 424.923 56.8254 432.053 Q56.8254 439.159 58.631 442.724 Q60.4597 446.266 64.0708 446.266 Q67.705 446.266 69.5105 442.724 Q71.3392 439.159 71.3392 432.053 Q71.3392 424.923 69.5105 421.382 Q67.705 417.817 64.0708 417.817 M64.0708 414.113 Q69.8809 414.113 72.9365 418.72 Q76.0151 423.303 76.0151 432.053 Q76.0151 440.78 72.9365 445.386 Q69.8809 449.97 64.0708 449.97 Q58.2606 449.97 55.1819 445.386 Q52.1264 440.78 52.1264 432.053 Q52.1264 423.303 55.1819 418.72 Q58.2606 414.113 64.0708 414.113 Z" fill="#000000" fill-rule="nonzero" fill-opacity="1" /><path clip-path="url(#clip780)" d="M84.2327 443.419 L89.1169 443.419 L89.1169 449.298 L84.2327 449.298 L84.2327 443.419 Z" fill="#000000" fill-rule="nonzero" fill-opacity="1" /><path clip-path="url(#clip780)" d="M113.469 430.664 Q116.825 431.382 118.7 433.65 Q120.598 435.919 120.598 439.252 Q120.598 444.368 117.08 447.169 Q113.561 449.97 107.08 449.97 Q104.904 449.97 102.589 449.53 Q100.297 449.113 97.8437 448.257 L97.8437 443.743 Q99.7882 444.877 102.103 445.456 Q104.418 446.034 106.941 446.034 Q111.339 446.034 113.631 444.298 Q115.945 442.562 115.945 439.252 Q115.945 436.196 113.793 434.484 Q111.663 432.747 107.844 432.747 L103.816 432.747 L103.816 428.905 L108.029 428.905 Q111.478 428.905 113.307 427.539 Q115.135 426.15 115.135 423.558 Q115.135 420.896 113.237 419.484 Q111.362 418.048 107.844 418.048 Q105.922 418.048 103.723 418.465 Q101.524 418.882 98.8854 419.761 L98.8854 415.595 Q101.547 414.854 103.862 414.484 Q106.2 414.113 108.26 414.113 Q113.584 414.113 116.686 416.544 Q119.788 418.951 119.788 423.072 Q119.788 425.942 118.145 427.933 Q116.501 429.9 113.469 430.664 Z" fill="#000000" fill-rule="nonzero" fill-opacity="1" /><path clip-path="url(#clip780)" d="M62.9365 77.9056 Q59.3254 77.9056 57.4967 81.4704 Q55.6912 85.0121 55.6912 92.1417 Q55.6912 99.2481 57.4967 102.813 Q59.3254 106.355 62.9365 106.355 Q66.5707 106.355 68.3763 102.813 Q70.205 99.2481 70.205 92.1417 Q70.205 85.0121 68.3763 81.4704 Q66.5707 77.9056 62.9365 77.9056 M62.9365 74.2019 Q68.7467 74.2019 71.8022 78.8084 Q74.8809 83.3917 74.8809 92.1417 Q74.8809 100.868 71.8022 105.475 Q68.7467 110.058 62.9365 110.058 Q57.1264 110.058 54.0477 105.475 Q50.9921 100.868 50.9921 92.1417 Q50.9921 83.3917 54.0477 78.8084 Q57.1264 74.2019 62.9365 74.2019 Z" fill="#000000" fill-rule="nonzero" fill-opacity="1" /><path clip-path="url(#clip780)" d="M83.0984 103.507 L87.9827 103.507 L87.9827 109.387 L83.0984 109.387 L83.0984 103.507 Z" fill="#000000" fill-rule="nonzero" fill-opacity="1" /><path clip-path="url(#clip780)" d="M111.015 78.901 L99.2095 97.35 L111.015 97.35 L111.015 78.901 M109.788 74.8269 L115.668 74.8269 L115.668 97.35 L120.598 97.35 L120.598 101.239 L115.668 101.239 L115.668 109.387 L111.015 109.387 L111.015 101.239 L95.4132 101.239 L95.4132 96.725 L109.788 74.8269 Z" fill="#000000" fill-rule="nonzero" fill-opacity="1" /><circle clip-path="url(#clip781)" cx="1504.43" cy="1353.67" r="14.4" fill="#808080" fill-rule="evenodd" fill-opacity="1" stroke="#000000" stroke-opacity="1" stroke-width="3.2"/>
<circle clip-path="url(#clip781)" cx="1418.53" cy="1445.72" r="14.4" fill="#808080" fill-rule="evenodd" fill-opacity="1" stroke="#000000" stroke-opacity="1" stroke-width="3.2"/>
<circle clip-path="url(#clip781)" cx="2290.6" cy="1276.21" r="14.4" fill="#808080" fill-rule="evenodd" fill-opacity="1" stroke="#000000" stroke-opacity="1" stroke-width="3.2"/>
<circle clip-path="url(#clip781)" cx="218.754" cy="87.9763" r="14.4" fill="#808080" fill-rule="evenodd" fill-opacity="1" stroke="#000000" stroke-opacity="1" stroke-width="3.2"/>
<path clip-path="url(#clip780)" d="M1508.73 1361.1 Q1499.69 1361.1 1496.21 1363.17 Q1492.73 1365.24 1492.73 1370.22 Q1492.73 1374.19 1495.32 1376.54 Q1497.95 1378.85 1502.45 1378.85 Q1508.65 1378.85 1512.37 1374.47 Q1516.14 1370.06 1516.14 1362.76 L1516.14 1361.1 L1508.73 1361.1 M1523.59 1358.02 L1523.59 1383.91 L1516.14 1383.91 L1516.14 1377.02 Q1513.59 1381.16 1509.78 1383.14 Q1505.97 1385.08 1500.46 1385.08 Q1493.49 1385.08 1489.36 1381.2 Q1485.27 1377.27 1485.27 1370.7 Q1485.27 1363.05 1490.38 1359.16 Q1495.52 1355.27 1505.69 1355.27 L1516.14 1355.27 L1516.14 1354.54 Q1516.14 1349.4 1512.74 1346.6 Q1509.37 1343.77 1503.26 1343.77 Q1499.37 1343.77 1495.68 1344.7 Q1492 1345.63 1488.59 1347.49 L1488.59 1340.61 Q1492.68 1339.03 1496.53 1338.26 Q1500.38 1337.45 1504.03 1337.45 Q1513.87 1337.45 1518.73 1342.55 Q1523.59 1347.65 1523.59 1358.02 Z" fill="#000000" fill-rule="nonzero" fill-opacity="1" /><path clip-path="url(#clip780)" d="M1431.09 1453.31 Q1431.09 1445.09 1427.69 1440.43 Q1424.32 1435.73 1418.41 1435.73 Q1412.49 1435.73 1409.09 1440.43 Q1405.73 1445.09 1405.73 1453.31 Q1405.73 1461.53 1409.09 1466.23 Q1412.49 1470.89 1418.41 1470.89 Q1424.32 1470.89 1427.69 1466.23 Q1431.09 1461.53 1431.09 1453.31 M1405.73 1437.47 Q1408.08 1433.42 1411.64 1431.48 Q1415.25 1429.49 1420.23 1429.49 Q1428.5 1429.49 1433.64 1436.05 Q1438.83 1442.62 1438.83 1453.31 Q1438.83 1464.01 1433.64 1470.57 Q1428.5 1477.13 1420.23 1477.13 Q1415.25 1477.13 1411.64 1475.19 Q1408.08 1473.2 1405.73 1469.15 L1405.73 1475.96 L1398.24 1475.96 L1398.24 1412.92 L1405.73 1412.92 L1405.73 1437.47 Z" fill="#000000" fill-rule="nonzero" fill-opacity="1" /><path clip-path="url(#clip780)" d="M2308.55 1262.82 L2308.55 1269.79 Q2305.39 1268.04 2302.19 1267.19 Q2299.03 1266.3 2295.79 1266.3 Q2288.53 1266.3 2284.52 1270.92 Q2280.51 1275.5 2280.51 1283.8 Q2280.51 1292.11 2284.52 1296.72 Q2288.53 1301.3 2295.79 1301.3 Q2299.03 1301.3 2302.19 1300.45 Q2305.39 1299.56 2308.55 1297.82 L2308.55 1304.71 Q2305.43 1306.16 2302.06 1306.89 Q2298.74 1307.62 2294.98 1307.62 Q2284.73 1307.62 2278.69 1301.18 Q2272.65 1294.74 2272.65 1283.8 Q2272.65 1272.7 2278.73 1266.34 Q2284.85 1259.98 2295.46 1259.98 Q2298.9 1259.98 2302.19 1260.71 Q2305.47 1261.4 2308.55 1262.82 Z" fill="#000000" fill-rule="nonzero" fill-opacity="1" /><path clip-path="url(#clip780)" d="M231.575 79.7327 L231.575 55.1842 L239.028 55.1842 L239.028 118.216 L231.575 118.216 L231.575 111.411 Q229.225 115.462 225.62 117.447 Q222.055 119.391 217.032 119.391 Q208.809 119.391 203.624 112.829 Q198.479 106.266 198.479 95.5717 Q198.479 84.8773 203.624 78.3149 Q208.809 71.7524 217.032 71.7524 Q222.055 71.7524 225.62 73.7373 Q229.225 75.6818 231.575 79.7327 M206.176 95.5717 Q206.176 103.795 209.538 108.494 Q212.941 113.153 218.855 113.153 Q224.769 113.153 228.172 108.494 Q231.575 103.795 231.575 95.5717 Q231.575 87.3484 228.172 82.6898 Q224.769 77.9908 218.855 77.9908 Q212.941 77.9908 209.538 82.6898 Q206.176 87.3484 206.176 95.5717 Z" fill="#000000" fill-rule="nonzero" fill-opacity="1" /><path clip-path="url(#clip780)" d="M2007.5 198.898 L2279.55 198.898 L2279.55 95.2176 L2007.5 95.2176  Z" fill="#ffffff" fill-rule="evenodd" fill-opacity="1"/>
<polyline clip-path="url(#clip780)" style="stroke:#000000; stroke-linecap:round; stroke-linejoin:round; stroke-width:4; stroke-opacity:1; fill:none" points="2007.5,198.898 2279.55,198.898 2279.55,95.2176 2007.5,95.2176 2007.5,198.898 "/>
<circle clip-path="url(#clip780)" cx="2105.11" cy="147.058" r="20.48" fill="#808080" fill-rule="evenodd" fill-opacity="1" stroke="#000000" stroke-opacity="1" stroke-width="4.55111"/>
<path clip-path="url(#clip780)" d="M2216.56 166.745 Q2214.76 171.375 2213.04 172.787 Q2211.33 174.199 2208.46 174.199 L2205.06 174.199 L2205.06 170.634 L2207.56 170.634 Q2209.32 170.634 2210.29 169.8 Q2211.26 168.967 2212.44 165.865 L2213.2 163.921 L2202.72 138.412 L2207.23 138.412 L2215.33 158.689 L2223.44 138.412 L2227.95 138.412 L2216.56 166.745 Z" fill="#000000" fill-rule="nonzero" fill-opacity="1" /><path clip-path="url(#clip780)" d="M2235.24 160.402 L2242.88 160.402 L2242.88 134.037 L2234.57 135.703 L2234.57 131.444 L2242.83 129.778 L2247.51 129.778 L2247.51 160.402 L2255.15 160.402 L2255.15 164.338 L2235.24 164.338 L2235.24 160.402 Z" fill="#000000" fill-rule="nonzero" fill-opacity="1" /></svg>
