<?xml version="1.0" encoding="utf-8"?>
<svg xmlns="http://www.w3.org/2000/svg" xmlns:xlink="http://www.w3.org/1999/xlink" width="600" height="400" viewBox="0 0 2400 1600">
<defs>
  <clipPath id="clip950">
    <rect x="0" y="0" width="2400" height="1600"/>
  </clipPath>
</defs>
<path clip-path="url(#clip950)" d="M0 1600 L2400 1600 L2400 0 L0 0  Z" fill="#ffffff" fill-rule="evenodd" fill-opacity="1"/>
<defs>
  <clipPath id="clip951">
    <rect x="112" y="47" width="2242" height="1440"/>
  </clipPath>
</defs>
<path clip-path="url(#clip950)" d="M112.177 1486.45 L2352.76 1486.45 L2352.76 47.2441 L112.177 47.2441  Z" fill="#ffffff" fill-rule="evenodd" fill-opacity="1"/>
<polyline clip-path="url(#clip951)" style="stroke:#000000; stroke-linecap:round; stroke-linejoin:round; stroke-width:2; stroke-opacity:0.1; fill:none" points="408.744,1486.45 408.744,47.2441 "/>
<polyline clip-path="url(#clip951)" style="stroke:#000000; stroke-linecap:round; stroke-linejoin:round; stroke-width:2; stroke-opacity:0.1; fill:none" points="968.127,1486.45 968.127,47.2441 "/>
<polyline clip-path="url(#clip951)" style="stroke:#000000; stroke-linecap:round; stroke-linejoin:round; stroke-width:2; stroke-opacity:0.1; fill:none" points="1527.51,1486.45 1527.51,47.2441 "/>
<polyline clip-path="url(#clip951)" style="stroke:#000000; stroke-linecap:round; stroke-linejoin:round; stroke-width:2; stroke-opacity:0.1; fill:none" points="2086.89,1486.45 2086.89,47.2441 "/>
<polyline clip-path="url(#clip951)" style="stroke:#000000; stroke-linecap:round; stroke-linejoin:round; stroke-width:2; stroke-opacity:0.1; fill:none" points="112.177,1184.93 2352.76,1184.93 "/>
<polyline clip-path="url(#clip951)" style="stroke:#000000; stroke-linecap:round; stroke-linejoin:round; stroke-width:2; stroke-opacity:0.1; fill:none" points="112.177,835.088 2352.76,835.088 "/>
<polyline clip-path="url(#clip951)" style="stroke:#000000; stroke-linecap:round; stroke-linejoin:round; stroke-width:2; stroke-opacity:0.1; fill:none" points="112.177,485.242 2352.76,485.242 "/>
<polyline clip-path="url(#clip951)" style="stroke:#000000; stroke-linecap:round; stroke-linejoin:round; stroke-width:2; stroke-opacity:0.1; fill:none" points="112.177,135.395 2352.76,135.395 "/>
<polyline clip-path="url(#clip950)" style="stroke:#000000; stroke-linecap:round; stroke-linejoin:round; stroke-width:4; stroke-opacity:1; fill:none" points="112.177,1486.45 2352.76,1486.45 "/>
<polyline clip-path="url(#clip950)" style="stroke:#000000; stroke-linecap:round; stroke-linejoin:round; stroke-width:4; stroke-opacity:1; fill:none" points="408.744,1486.45 408.744,1467.55 "/>
<polyline clip-path="url(#clip950)" style="stroke:#000000; stroke-linecap:round; stroke-linejoin:round; stroke-width:4; stroke-opacity:1; fill:none" points="968.127,1486.45 968.127,1467.55 "/>
<polyline clip-path="url(#clip950)" style="stroke:#000000; stroke-linecap:round; stroke-linejoin:round; stroke-width:4; stroke-opacity:1; fill:none" points="1527.51,1486.45 1527.51,1467.55 "/>
<polyline clip-path="url(#clip950)" style="stroke:#000000; stroke-linecap:round; stroke-linejoin:round; stroke-width:4; stroke-opacity:1; fill:none" points="2086.89,1486.45 2086.89,1467.55 "/>
<path clip-path="url(#clip950)" d="M355.272 1532.02 L384.948 1532.02 L384.948 1535.95 L355.272 1535.95 L355.272 1532.02 Z" fill="#000000" fill-rule="nonzero" fill-opacity="1" /><path clip-path="url(#clip950)" d="M395.851 1544.91 L403.489 1544.91 L403.489 1518.55 L395.179 1520.21 L395.179 1515.95 L403.443 1514.29 L408.119 1514.29 L408.119 1544.91 L415.758 1544.91 L415.758 1548.85 L395.851 1548.85 L395.851 1544.91 Z" fill="#000000" fill-rule="nonzero" fill-opacity="1" /><path clip-path="url(#clip950)" d="M425.202 1542.97 L430.086 1542.97 L430.086 1548.85 L425.202 1548.85 L425.202 1542.97 Z" fill="#000000" fill-rule="nonzero" fill-opacity="1" /><path clip-path="url(#clip950)" d="M450.272 1517.37 Q446.66 1517.37 444.832 1520.93 Q443.026 1524.47 443.026 1531.6 Q443.026 1538.71 444.832 1542.27 Q446.66 1545.82 450.272 1545.82 Q453.906 1545.82 455.711 1542.27 Q457.54 1538.71 457.54 1531.6 Q457.54 1524.47 455.711 1520.93 Q453.906 1517.37 450.272 1517.37 M450.272 1513.66 Q456.082 1513.66 459.137 1518.27 Q462.216 1522.85 462.216 1531.6 Q462.216 1540.33 459.137 1544.94 Q456.082 1549.52 450.272 1549.52 Q444.461 1549.52 441.383 1544.94 Q438.327 1540.33 438.327 1531.6 Q438.327 1522.85 441.383 1518.27 Q444.461 1513.66 450.272 1513.66 Z" fill="#000000" fill-rule="nonzero" fill-opacity="1" /><path clip-path="url(#clip950)" d="M915.153 1532.02 L944.828 1532.02 L944.828 1535.95 L915.153 1535.95 L915.153 1532.02 Z" fill="#000000" fill-rule="nonzero" fill-opacity="1" /><path clip-path="url(#clip950)" d="M964.921 1517.37 Q961.31 1517.37 959.481 1520.93 Q957.676 1524.47 957.676 1531.6 Q957.676 1538.71 959.481 1542.27 Q961.31 1545.82 964.921 1545.82 Q968.555 1545.82 970.361 1542.27 Q972.189 1538.71 972.189 1531.6 Q972.189 1524.47 970.361 1520.93 Q968.555 1517.37 964.921 1517.37 M964.921 1513.66 Q970.731 1513.66 973.787 1518.27 Q976.865 1522.85 976.865 1531.6 Q976.865 1540.33 973.787 1544.94 Q970.731 1549.52 964.921 1549.52 Q959.111 1549.52 956.032 1544.94 Q952.977 1540.33 952.977 1531.6 Q952.977 1522.85 956.032 1518.27 Q959.111 1513.66 964.921 1513.66 Z" fill="#000000" fill-rule="nonzero" fill-opacity="1" /><path clip-path="url(#clip950)" d="M985.083 1542.97 L989.967 1542.97 L989.967 1548.85 L985.083 1548.85 L985.083 1542.97 Z" fill="#000000" fill-rule="nonzero" fill-opacity="1" /><path clip-path="url(#clip950)" d="M1000.2 1514.29 L1018.55 1514.29 L1018.55 1518.22 L1004.48 1518.22 L1004.48 1526.7 Q1005.5 1526.35 1006.52 1526.19 Q1007.54 1526 1008.55 1526 Q1014.34 1526 1017.72 1529.17 Q1021.1 1532.34 1021.1 1537.76 Q1021.1 1543.34 1017.63 1546.44 Q1014.16 1549.52 1007.84 1549.52 Q1005.66 1549.52 1003.39 1549.15 Q1001.15 1548.78 998.74 1548.04 L998.74 1543.34 Q1000.82 1544.47 1003.05 1545.03 Q1005.27 1545.58 1007.74 1545.58 Q1011.75 1545.58 1014.09 1543.48 Q1016.43 1541.37 1016.43 1537.76 Q1016.43 1534.15 1014.09 1532.04 Q1011.75 1529.94 1007.74 1529.94 Q1005.87 1529.94 1003.99 1530.35 Q1002.14 1530.77 1000.2 1531.65 L1000.2 1514.29 Z" fill="#000000" fill-rule="nonzero" fill-opacity="1" /><path clip-path="url(#clip950)" d="M1504.89 1517.37 Q1501.28 1517.37 1499.45 1520.93 Q1497.65 1524.47 1497.65 1531.6 Q1497.65 1538.71 1499.45 1542.27 Q1501.28 1545.82 1504.89 1545.82 Q1508.53 1545.82 1510.33 1542.27 Q1512.16 1538.71 1512.16 1531.6 Q1512.16 1524.47 1510.33 1520.93 Q1508.53 1517.37 1504.89 1517.37 M1504.89 1513.66 Q1510.7 1513.66 1513.76 1518.27 Q1516.84 1522.85 1516.84 1531.6 Q1516.84 1540.33 1513.76 1544.94 Q1510.7 1549.52 1504.89 1549.52 Q1499.08 1549.52 1496.01 1544.94 Q1492.95 1540.33 1492.95 1531.6 Q1492.95 1522.85 1496.01 1518.27 Q1499.08 1513.66 1504.89 1513.66 Z" fill="#000000" fill-rule="nonzero" fill-opacity="1" /><path clip-path="url(#clip950)" d="M1525.06 1542.97 L1529.94 1542.97 L1529.94 1548.85 L1525.06 1548.85 L1525.06 1542.97 Z" fill="#000000" fill-rule="nonzero" fill-opacity="1" /><path clip-path="url(#clip950)" d="M1550.13 1517.37 Q1546.51 1517.37 1544.69 1520.93 Q1542.88 1524.47 1542.88 1531.6 Q1542.88 1538.71 1544.69 1542.27 Q1546.51 1545.82 1550.13 1545.82 Q1553.76 1545.82 1555.57 1542.27 Q1557.39 1538.71 1557.39 1531.6 Q1557.39 1524.47 1555.57 1520.93 Q1553.76 1517.37 1550.13 1517.37 M1550.13 1513.66 Q1555.94 1513.66 1558.99 1518.27 Q1562.07 1522.85 1562.07 1531.6 Q1562.07 1540.33 1558.99 1544.94 Q1555.94 1549.52 1550.13 1549.52 Q1544.32 1549.52 1541.24 1544.94 Q1538.18 1540.33 1538.18 1531.6 Q1538.18 1522.85 1541.24 1518.27 Q1544.32 1513.66 1550.13 1513.66 Z" fill="#000000" fill-rule="nonzero" fill-opacity="1" /><path clip-path="url(#clip950)" d="M2064.77 1517.37 Q2061.16 1517.37 2059.34 1520.93 Q2057.53 1524.47 2057.53 1531.6 Q2057.53 1538.71 2059.34 1542.27 Q2061.16 1545.82 2064.77 1545.82 Q2068.41 1545.82 2070.21 1542.27 Q2072.04 1538.71 2072.04 1531.6 Q2072.04 1524.47 2070.21 1520.93 Q2068.41 1517.37 2064.77 1517.37 M2064.77 1513.66 Q2070.59 1513.66 2073.64 1518.27 Q2076.72 1522.85 2076.72 1531.6 Q2076.72 1540.33 2073.64 1544.94 Q2070.59 1549.52 2064.77 1549.52 Q2058.96 1549.52 2055.89 1544.94 Q2052.83 1540.33 2052.83 1531.6 Q2052.83 1522.85 2055.89 1518.27 Q2058.96 1513.66 2064.77 1513.66 Z" fill="#000000" fill-rule="nonzero" fill-opacity="1" /><path clip-path="url(#clip950)" d="M2084.94 1542.97 L2089.82 1542.97 L2089.82 1548.85 L2084.94 1548.85 L2084.94 1542.97 Z" fill="#000000" fill-rule="nonzero" fill-opacity="1" /><path clip-path="url(#clip950)" d="M2100.05 1514.29 L2118.41 1514.29 L2118.41 1518.22 L2104.33 1518.22 L2104.33 1526.7 Q2105.35 1526.35 2106.37 1526.19 Q2107.39 1526 2108.41 1526 Q2114.2 1526 2117.58 1529.17 Q2120.96 1532.34 2120.96 1537.76 Q2120.96 1543.34 2117.48 1546.44 Q2114.01 1549.52 2107.69 1549.52 Q2105.52 1549.52 2103.25 1549.15 Q2101 1548.78 2098.59 1548.04 L2098.59 1543.34 Q2100.68 1544.47 2102.9 1545.03 Q2105.12 1545.58 2107.6 1545.58 Q2111.6 1545.58 2113.94 1543.48 Q2116.28 1541.37 2116.28 1537.76 Q2116.28 1534.15 2113.94 1532.04 Q2111.6 1529.94 2107.6 1529.94 Q2105.72 1529.94 2103.85 1530.35 Q2102 1530.77 2100.05 1531.65 L2100.05 1514.29 Z" fill="#000000" fill-rule="nonzero" fill-opacity="1" /><polyline clip-path="url(#clip950)" style="stroke:#000000; stroke-linecap:round; stroke-linejoin:round; stroke-width:4; stroke-opacity:1; fill:none" points="112.177,1486.45 112.177,47.2441 "/>
<polyline clip-path="url(#clip950)" style="stroke:#000000; stroke-linecap:round; stroke-linejoin:round; stroke-width:4; stroke-opacity:1; fill:none" points="112.177,1184.93 131.075,1184.93 "/>
<polyline clip-path="url(#clip950)" style="stroke:#000000; stroke-linecap:round; stroke-linejoin:round; stroke-width:4; stroke-opacity:1; fill:none" points="112.177,835.088 131.075,835.088 "/>
<polyline clip-path="url(#clip950)" style="stroke:#000000; stroke-linecap:round; stroke-linejoin:round; stroke-width:4; stroke-opacity:1; fill:none" points="112.177,485.242 131.075,485.242 "/>
<polyline clip-path="url(#clip950)" style="stroke:#000000; stroke-linecap:round; stroke-linejoin:round; stroke-width:4; stroke-opacity:1; fill:none" points="112.177,135.395 131.075,135.395 "/>
<path clip-path="url(#clip950)" d="M56.2699 1198.28 L63.9087 1198.28 L63.9087 1171.91 L55.5986 1173.58 L55.5986 1169.32 L63.8624 1167.65 L68.5383 1167.65 L68.5383 1198.28 L76.1772 1198.28 L76.1772 1202.21 L56.2699 1202.21 L56.2699 1198.28 Z" fill="#000000" fill-rule="nonzero" fill-opacity="1" /><path clip-path="url(#clip950)" d="M59.8578 848.433 L76.1772 848.433 L76.1772 852.368 L54.2328 852.368 L54.2328 848.433 Q56.8949 845.678 61.4782 841.048 Q66.0846 836.396 67.2652 835.053 Q69.5105 832.53 70.3902 830.794 Q71.2929 829.035 71.2929 827.345 Q71.2929 824.59 69.3485 822.854 Q67.4272 821.118 64.3254 821.118 Q62.1263 821.118 59.6726 821.882 Q57.2421 822.646 54.4643 824.197 L54.4643 819.474 Q57.2884 818.34 59.7421 817.761 Q62.1958 817.183 64.2328 817.183 Q69.6031 817.183 72.7976 819.868 Q75.992 822.553 75.992 827.044 Q75.992 829.173 75.1818 831.095 Q74.3948 832.993 72.2883 835.585 Q71.7096 836.257 68.6078 839.474 Q65.5059 842.669 59.8578 848.433 Z" fill="#000000" fill-rule="nonzero" fill-opacity="1" /><path clip-path="url(#clip950)" d="M69.0476 483.887 Q72.404 484.605 74.279 486.874 Q76.1772 489.142 76.1772 492.475 Q76.1772 497.591 72.6587 500.392 Q69.1402 503.193 62.6587 503.193 Q60.4828 503.193 58.168 502.753 Q55.8764 502.336 53.4227 501.48 L53.4227 496.966 Q55.3671 498.1 57.6819 498.679 Q59.9967 499.258 62.5198 499.258 Q66.918 499.258 69.2096 497.522 Q71.5244 495.786 71.5244 492.475 Q71.5244 489.42 69.3717 487.707 Q67.242 485.971 63.4226 485.971 L59.3949 485.971 L59.3949 482.128 L63.6078 482.128 Q67.0569 482.128 68.8855 480.762 Q70.7142 479.374 70.7142 476.781 Q70.7142 474.119 68.8161 472.707 Q66.9411 471.272 63.4226 471.272 Q61.5013 471.272 59.3023 471.688 Q57.1032 472.105 54.4643 472.985 L54.4643 468.818 Q57.1264 468.077 59.4412 467.707 Q61.7791 467.337 63.8393 467.337 Q69.1633 467.337 72.2652 469.767 Q75.367 472.175 75.367 476.295 Q75.367 479.165 73.7235 481.156 Q72.08 483.124 69.0476 483.887 Z" fill="#000000" fill-rule="nonzero" fill-opacity="1" /><path clip-path="url(#clip950)" d="M66.5939 122.19 L54.7884 140.639 L66.5939 140.639 L66.5939 122.19 M65.367 118.115 L71.2466 118.115 L71.2466 140.639 L76.1772 140.639 L76.1772 144.527 L71.2466 144.527 L71.2466 152.675 L66.5939 152.675 L66.5939 144.527 L50.9921 144.527 L50.9921 140.014 L65.367 118.115 Z" fill="#000000" fill-rule="nonzero" fill-opacity="1" /><circle clip-path="url(#clip951)" cx="2289.34" cy="1349.44" r="14.4" fill="#808080" fill-rule="evenodd" fill-opacity="1" stroke="#000000" stroke-opacity="1" stroke-width="3.2"/>
<circle clip-path="url(#clip951)" cx="175.59" cy="87.9763" r="14.4" fill="#808080" fill-rule="evenodd" fill-opacity="1" stroke="#000000" stroke-opacity="1" stroke-width="3.2"/>
<circle clip-path="url(#clip951)" cx="1568.8" cy="1445.72" r="14.4" fill="#808080" fill-rule="evenodd" fill-opacity="1" stroke="#000000" stroke-opacity="1" stroke-width="3.2"/>
<circle clip-path="url(#clip951)" cx="1372.64" cy="1416.31" r="14.4" fill="#808080" fill-rule="evenodd" fill-opacity="1" stroke="#000000" stroke-opacity="1" stroke-width="3.2"/>
<path clip-path="url(#clip950)" d="M2293.64 1356.88 Q2284.6 1356.88 2281.12 1358.94 Q2277.64 1361.01 2277.64 1365.99 Q2277.64 1369.96 2280.23 1372.31 Q2282.86 1374.62 2287.36 1374.62 Q2293.56 1374.62 2297.28 1370.24 Q2301.05 1365.83 2301.05 1358.54 L2301.05 1356.88 L2293.64 1356.88 M2308.5 1353.8 L2308.5 1379.68 L2301.05 1379.68 L2301.05 1372.8 Q2298.5 1376.93 2294.69 1378.91 Q2290.88 1380.86 2285.37 1380.86 Q2278.41 1380.86 2274.27 1376.97 Q2270.18 1373.04 2270.18 1366.48 Q2270.18 1358.82 2275.29 1354.93 Q2280.43 1351.04 2290.6 1351.04 L2301.05 1351.04 L2301.05 1350.31 Q2301.05 1345.17 2297.65 1342.37 Q2294.29 1339.54 2288.17 1339.54 Q2284.28 1339.54 2280.59 1340.47 Q2276.91 1341.4 2273.5 1343.27 L2273.5 1336.38 Q2277.6 1334.8 2281.44 1334.03 Q2285.29 1333.22 2288.94 1333.22 Q2298.78 1333.22 2303.64 1338.32 Q2308.5 1343.43 2308.5 1353.8 Z" fill="#000000" fill-rule="nonzero" fill-opacity="1" /><path clip-path="url(#clip950)" d="M188.148 95.5717 Q188.148 87.3484 184.745 82.6898 Q181.383 77.9908 175.468 77.9908 Q169.554 77.9908 166.151 82.6898 Q162.789 87.3484 162.789 95.5717 Q162.789 103.795 166.151 108.494 Q169.554 113.153 175.468 113.153 Q181.383 113.153 184.745 108.494 Q188.148 103.795 188.148 95.5717 M162.789 79.7327 Q165.138 75.6818 168.703 73.7373 Q172.309 71.7524 177.291 71.7524 Q185.555 71.7524 190.7 78.3149 Q195.885 84.8773 195.885 95.5717 Q195.885 106.266 190.7 112.829 Q185.555 119.391 177.291 119.391 Q172.309 119.391 168.703 117.447 Q165.138 115.462 162.789 111.411 L162.789 118.216 L155.295 118.216 L155.295 55.1842 L162.789 55.1842 L162.789 79.7327 Z" fill="#000000" fill-rule="nonzero" fill-opacity="1" /><path clip-path="url(#clip950)" d="M1586.75 1432.33 L1586.75 1439.3 Q1583.59 1437.55 1580.39 1436.7 Q1577.23 1435.81 1573.99 1435.81 Q1566.74 1435.81 1562.73 1440.43 Q1558.72 1445.01 1558.72 1453.31 Q1558.72 1461.62 1562.73 1466.23 Q1566.74 1470.81 1573.99 1470.81 Q1577.23 1470.81 1580.39 1469.96 Q1583.59 1469.07 1586.75 1467.33 L1586.75 1474.21 Q1583.63 1475.67 1580.27 1476.4 Q1576.94 1477.13 1573.18 1477.13 Q1562.93 1477.13 1556.89 1470.69 Q1550.86 1464.25 1550.86 1453.31 Q1550.86 1442.21 1556.93 1435.85 Q1563.05 1429.49 1573.66 1429.49 Q1577.11 1429.49 1580.39 1430.22 Q1583.67 1430.91 1586.75 1432.33 Z" fill="#000000" fill-rule="nonzero" fill-opacity="1" /><path clip-path="url(#clip950)" d="M1385.47 1408.06 L1385.47 1383.51 L1392.92 1383.51 L1392.92 1446.55 L1385.47 1446.55 L1385.47 1439.74 Q1383.12 1443.79 1379.51 1445.78 Q1375.95 1447.72 1370.92 1447.72 Q1362.7 1447.72 1357.51 1441.16 Q1352.37 1434.6 1352.37 1423.9 Q1352.37 1413.21 1357.51 1406.64 Q1362.7 1400.08 1370.92 1400.08 Q1375.95 1400.08 1379.51 1402.07 Q1383.12 1404.01 1385.47 1408.06 M1360.07 1423.9 Q1360.07 1432.12 1363.43 1436.82 Q1366.83 1441.48 1372.75 1441.48 Q1378.66 1441.48 1382.06 1436.82 Q1385.47 1432.12 1385.47 1423.9 Q1385.47 1415.68 1382.06 1411.02 Q1378.66 1406.32 1372.75 1406.32 Q1366.83 1406.32 1363.43 1411.02 Q1360.07 1415.68 1360.07 1423.9 Z" fill="#000000" fill-rule="nonzero" fill-opacity="1" /><path clip-path="url(#clip950)" d="M2001.58 198.898 L2278.07 198.898 L2278.07 95.2176 L2001.58 95.2176  Z" fill="#ffffff" fill-rule="evenodd" fill-opacity="1"/>
<polyline clip-path="url(#clip950)" style="stroke:#000000; stroke-linecap:round; stroke-linejoin:round; stroke-width:4; stroke-opacity:1; fill:none" points="2001.58,198.898 2278.07,198.898 2278.07,95.2176 2001.58,95.2176 2001.58,198.898 "/>
<circle clip-path="url(#clip950)" cx="2101.16" cy="147.058" r="20.48" fill="#808080" fill-rule="evenodd" fill-opacity="1" stroke="#000000" stroke-opacity="1" stroke-width="4.55111"/>
<path clip-path="url(#clip950)" d="M2214.59 166.745 Q2212.78 171.375 2211.07 172.787 Q2209.36 174.199 2206.49 174.199 L2203.08 174.199 L2203.08 170.634 L2205.58 170.634 Q2207.34 170.634 2208.31 169.8 Q2209.29 168.967 2210.47 165.865 L2211.23 163.921 L2200.74 138.412 L2205.26 138.412 L2213.36 158.689 L2221.46 138.412 L2225.98 138.412 L2214.59 166.745 Z" fill="#000000" fill-rule="nonzero" fill-opacity="1" /><path clip-path="url(#clip950)" d="M2233.27 160.402 L2240.91 160.402 L2240.91 134.037 L2232.6 135.703 L2232.6 131.444 L2240.86 129.778 L2245.54 129.778 L2245.54 160.402 L2253.17 160.402 L2253.17 164.338 L2233.27 164.338 L2233.27 160.402 Z" fill="#000000" fill-rule="nonzero" fill-opacity="1" /></svg>
