<?xml version="1.0" encoding="utf-8"?>
<svg xmlns="http://www.w3.org/2000/svg" xmlns:xlink="http://www.w3.org/1999/xlink" width="600" height="400" viewBox="0 0 2400 1600">
<defs>
  <clipPath id="clip420">
    <rect x="0" y="0" width="2400" height="1600"/>
  </clipPath>
</defs>
<path clip-path="url(#clip420)" d="M0 1600 L2400 1600 L2400 0 L0 0  Z" fill="#ffffff" fill-rule="evenodd" fill-opacity="1"/>
<defs>
  <clipPath id="clip421">
    <rect x="156" y="47" width="2197" height="1440"/>
  </clipPath>
</defs>
<path clip-path="url(#clip420)" d="M156.598 1486.45 L2352.76 1486.45 L2352.76 47.2441 L156.598 47.2441  Z" fill="#ffffff" fill-rule="evenodd" fill-opacity="1"/>
<polyline clip-path="url(#clip421)" style="stroke:#000000; stroke-linecap:round; stroke-linejoin:round; stroke-width:2; stroke-opacity:0.1; fill:none" points="415.851,1486.45 415.851,47.2441 "/>
<polyline clip-path="url(#clip421)" style="stroke:#000000; stroke-linecap:round; stroke-linejoin:round; stroke-width:2; stroke-opacity:0.1; fill:none" points="896.074,1486.45 896.074,47.2441 "/>
<polyline clip-path="url(#clip421)" style="stroke:#000000; stroke-linecap:round; stroke-linejoin:round; stroke-width:2; stroke-opacity:0.1; fill:none" points="1376.3,1486.45 1376.3,47.2441 "/>
<polyline clip-path="url(#clip421)" style="stroke:#000000; stroke-linecap:round; stroke-linejoin:round; stroke-width:2; stroke-opacity:0.1; fill:none" points="1856.52,1486.45 1856.52,47.2441 "/>
<polyline clip-path="url(#clip421)" style="stroke:#000000; stroke-linecap:round; stroke-linejoin:round; stroke-width:2; stroke-opacity:0.1; fill:none" points="2336.74,1486.45 2336.74,47.2441 "/>
<polyline clip-path="url(#clip421)" style="stroke:#000000; stroke-linecap:round; stroke-linejoin:round; stroke-width:2; stroke-opacity:0.1; fill:none" points="156.598,1451.61 2352.76,1451.61 "/>
<polyline clip-path="url(#clip421)" style="stroke:#000000; stroke-linecap:round; stroke-linejoin:round; stroke-width:2; stroke-opacity:0.1; fill:none" points="156.598,1111.21 2352.76,1111.21 "/>
<polyline clip-path="url(#clip421)" style="stroke:#000000; stroke-linecap:round; stroke-linejoin:round; stroke-width:2; stroke-opacity:0.1; fill:none" points="156.598,770.814 2352.76,770.814 "/>
<polyline clip-path="url(#clip421)" style="stroke:#000000; stroke-linecap:round; stroke-linejoin:round; stroke-width:2; stroke-opacity:0.1; fill:none" points="156.598,430.416 2352.76,430.416 "/>
<polyline clip-path="url(#clip421)" style="stroke:#000000; stroke-linecap:round; stroke-linejoin:round; stroke-width:2; stroke-opacity:0.1; fill:none" points="156.598,90.0181 2352.76,90.0181 "/>
<polyline clip-path="url(#clip420)" style="stroke:#000000; stroke-linecap:round; stroke-linejoin:round; stroke-width:4; stroke-opacity:1; fill:none" points="156.598,1486.45 2352.76,1486.45 "/>
<polyline clip-path="url(#clip420)" style="stroke:#000000; stroke-linecap:round; stroke-linejoin:round; stroke-width:4; stroke-opacity:1; fill:none" points="415.851,1486.45 415.851,1467.55 "/>
<polyline clip-path="url(#clip420)" style="stroke:#000000; stroke-linecap:round; stroke-linejoin:round; stroke-width:4; stroke-opacity:1; fill:none" points="896.074,1486.45 896.074,1467.55 "/>
<polyline clip-path="url(#clip420)" style="stroke:#000000; stroke-linecap:round; stroke-linejoin:round; stroke-width:4; stroke-opacity:1; fill:none" points="1376.3,1486.45 1376.3,1467.55 "/>
<polyline clip-path="url(#clip420)" style="stroke:#000000; stroke-linecap:round; stroke-linejoin:round; stroke-width:4; stroke-opacity:1; fill:none" points="1856.52,1486.45 1856.52,1467.55 "/>
<polyline clip-path="url(#clip420)" style="stroke:#000000; stroke-linecap:round; stroke-linejoin:round; stroke-width:4; stroke-opacity:1; fill:none" points="2336.74,1486.45 2336.74,1467.55 "/>
<path clip-path="url(#clip420)" d="M362.136 1532.02 L391.812 1532.02 L391.812 1535.95 L362.136 1535.95 L362.136 1532.02 Z" fill="#000000" fill-rule="nonzero" fill-opacity="1" /><path clip-path="url(#clip420)" d="M411.904 1517.37 Q408.293 1517.37 406.464 1520.93 Q404.659 1524.47 404.659 1531.6 Q404.659 1538.71 406.464 1542.27 Q408.293 1545.82 411.904 1545.82 Q415.538 1545.82 417.344 1542.27 Q419.173 1538.71 419.173 1531.6 Q419.173 1524.47 417.344 1520.93 Q415.538 1517.37 411.904 1517.37 M411.904 1513.66 Q417.714 1513.66 420.77 1518.27 Q423.849 1522.85 423.849 1531.6 Q423.849 1540.33 420.77 1544.94 Q417.714 1549.52 411.904 1549.52 Q406.094 1549.52 403.015 1544.94 Q399.96 1540.33 399.96 1531.6 Q399.96 1522.85 403.015 1518.27 Q406.094 1513.66 411.904 1513.66 Z" fill="#000000" fill-rule="nonzero" fill-opacity="1" /><path clip-path="url(#clip420)" d="M432.066 1542.97 L436.95 1542.97 L436.95 1548.85 L432.066 1548.85 L432.066 1542.97 Z" fill="#000000" fill-rule="nonzero" fill-opacity="1" /><path clip-path="url(#clip420)" d="M459.983 1518.36 L448.177 1536.81 L459.983 1536.81 L459.983 1518.36 M458.756 1514.29 L464.635 1514.29 L464.635 1536.81 L469.566 1536.81 L469.566 1540.7 L464.635 1540.7 L464.635 1548.85 L459.983 1548.85 L459.983 1540.7 L444.381 1540.7 L444.381 1536.19 L458.756 1514.29 Z" fill="#000000" fill-rule="nonzero" fill-opacity="1" /><path clip-path="url(#clip420)" d="M843.401 1532.02 L873.076 1532.02 L873.076 1535.95 L843.401 1535.95 L843.401 1532.02 Z" fill="#000000" fill-rule="nonzero" fill-opacity="1" /><path clip-path="url(#clip420)" d="M893.169 1517.37 Q889.558 1517.37 887.729 1520.93 Q885.924 1524.47 885.924 1531.6 Q885.924 1538.71 887.729 1542.27 Q889.558 1545.82 893.169 1545.82 Q896.803 1545.82 898.609 1542.27 Q900.437 1538.71 900.437 1531.6 Q900.437 1524.47 898.609 1520.93 Q896.803 1517.37 893.169 1517.37 M893.169 1513.66 Q898.979 1513.66 902.035 1518.27 Q905.113 1522.85 905.113 1531.6 Q905.113 1540.33 902.035 1544.94 Q898.979 1549.52 893.169 1549.52 Q887.359 1549.52 884.28 1544.94 Q881.225 1540.33 881.225 1531.6 Q881.225 1522.85 884.28 1518.27 Q887.359 1513.66 893.169 1513.66 Z" fill="#000000" fill-rule="nonzero" fill-opacity="1" /><path clip-path="url(#clip420)" d="M913.331 1542.97 L918.215 1542.97 L918.215 1548.85 L913.331 1548.85 L913.331 1542.97 Z" fill="#000000" fill-rule="nonzero" fill-opacity="1" /><path clip-path="url(#clip420)" d="M932.428 1544.91 L948.747 1544.91 L948.747 1548.85 L926.803 1548.85 L926.803 1544.91 Q929.465 1542.16 934.048 1537.53 Q938.655 1532.88 939.835 1531.53 Q942.081 1529.01 942.96 1527.27 Q943.863 1525.51 943.863 1523.82 Q943.863 1521.07 941.919 1519.33 Q939.997 1517.6 936.896 1517.6 Q934.696 1517.6 932.243 1518.36 Q929.812 1519.13 927.034 1520.68 L927.034 1515.95 Q929.859 1514.82 932.312 1514.24 Q934.766 1513.66 936.803 1513.66 Q942.173 1513.66 945.368 1516.35 Q948.562 1519.03 948.562 1523.52 Q948.562 1525.65 947.752 1527.57 Q946.965 1529.47 944.858 1532.07 Q944.28 1532.74 941.178 1535.95 Q938.076 1539.15 932.428 1544.91 Z" fill="#000000" fill-rule="nonzero" fill-opacity="1" /><path clip-path="url(#clip420)" d="M1353.68 1517.37 Q1350.07 1517.37 1348.24 1520.93 Q1346.44 1524.47 1346.44 1531.6 Q1346.44 1538.71 1348.24 1542.27 Q1350.07 1545.82 1353.68 1545.82 Q1357.32 1545.82 1359.12 1542.27 Q1360.95 1538.71 1360.95 1531.6 Q1360.95 1524.47 1359.12 1520.93 Q1357.32 1517.37 1353.68 1517.37 M1353.68 1513.66 Q1359.49 1513.66 1362.55 1518.27 Q1365.63 1522.85 1365.63 1531.6 Q1365.63 1540.33 1362.55 1544.94 Q1359.49 1549.52 1353.68 1549.52 Q1347.87 1549.52 1344.79 1544.94 Q1341.74 1540.33 1341.74 1531.6 Q1341.74 1522.85 1344.79 1518.27 Q1347.87 1513.66 1353.68 1513.66 Z" fill="#000000" fill-rule="nonzero" fill-opacity="1" /><path clip-path="url(#clip420)" d="M1373.84 1542.97 L1378.73 1542.97 L1378.73 1548.85 L1373.84 1548.85 L1373.84 1542.97 Z" fill="#000000" fill-rule="nonzero" fill-opacity="1" /><path clip-path="url(#clip420)" d="M1398.91 1517.37 Q1395.3 1517.37 1393.47 1520.93 Q1391.67 1524.47 1391.67 1531.6 Q1391.67 1538.71 1393.47 1542.27 Q1395.3 1545.82 1398.91 1545.82 Q1402.55 1545.82 1404.35 1542.27 Q1406.18 1538.71 1406.18 1531.6 Q1406.18 1524.47 1404.35 1520.93 Q1402.55 1517.37 1398.91 1517.37 M1398.91 1513.66 Q1404.72 1513.66 1407.78 1518.27 Q1410.86 1522.85 1410.86 1531.6 Q1410.86 1540.33 1407.78 1544.94 Q1404.72 1549.52 1398.91 1549.52 Q1393.1 1549.52 1390.02 1544.94 Q1386.97 1540.33 1386.97 1531.6 Q1386.97 1522.85 1390.02 1518.27 Q1393.1 1513.66 1398.91 1513.66 Z" fill="#000000" fill-rule="nonzero" fill-opacity="1" /><path clip-path="url(#clip420)" d="M1834.7 1517.37 Q1831.09 1517.37 1829.26 1520.93 Q1827.46 1524.47 1827.46 1531.6 Q1827.46 1538.71 1829.26 1542.27 Q1831.09 1545.82 1834.7 1545.82 Q1838.34 1545.82 1840.14 1542.27 Q1841.97 1538.71 1841.97 1531.6 Q1841.97 1524.47 1840.14 1520.93 Q1838.34 1517.37 1834.7 1517.37 M1834.7 1513.66 Q1840.51 1513.66 1843.57 1518.27 Q1846.65 1522.85 1846.65 1531.6 Q1846.65 1540.33 1843.57 1544.94 Q1840.51 1549.52 1834.7 1549.52 Q1828.89 1549.52 1825.81 1544.94 Q1822.76 1540.33 1822.76 1531.6 Q1822.76 1522.85 1825.81 1518.27 Q1828.89 1513.66 1834.7 1513.66 Z" fill="#000000" fill-rule="nonzero" fill-opacity="1" /><path clip-path="url(#clip420)" d="M1854.87 1542.97 L1859.75 1542.97 L1859.75 1548.85 L1854.87 1548.85 L1854.87 1542.97 Z" fill="#000000" fill-rule="nonzero" fill-opacity="1" /><path clip-path="url(#clip420)" d="M1873.96 1544.91 L1890.28 1544.91 L1890.28 1548.85 L1868.34 1548.85 L1868.34 1544.91 Q1871 1542.16 1875.58 1537.53 Q1880.19 1532.88 1881.37 1531.53 Q1883.61 1529.01 1884.49 1527.27 Q1885.4 1525.51 1885.4 1523.82 Q1885.4 1521.07 1883.45 1519.33 Q1881.53 1517.6 1878.43 1517.6 Q1876.23 1517.6 1873.78 1518.36 Q1871.35 1519.13 1868.57 1520.68 L1868.57 1515.95 Q1871.39 1514.82 1873.85 1514.24 Q1876.3 1513.66 1878.34 1513.66 Q1883.71 1513.66 1886.9 1516.35 Q1890.1 1519.03 1890.1 1523.52 Q1890.1 1525.65 1889.29 1527.57 Q1888.5 1529.47 1886.39 1532.07 Q1885.81 1532.74 1882.71 1535.95 Q1879.61 1539.15 1873.96 1544.91 Z" fill="#000000" fill-rule="nonzero" fill-opacity="1" /><path clip-path="url(#clip420)" d="M2313.88 1517.37 Q2310.27 1517.37 2308.44 1520.93 Q2306.64 1524.47 2306.64 1531.6 Q2306.64 1538.71 2308.44 1542.27 Q2310.27 1545.82 2313.88 1545.82 Q2317.52 1545.82 2319.32 1542.27 Q2321.15 1538.71 2321.15 1531.6 Q2321.15 1524.47 2319.32 1520.93 Q2317.52 1517.37 2313.88 1517.37 M2313.88 1513.66 Q2319.69 1513.66 2322.75 1518.27 Q2325.83 1522.85 2325.83 1531.6 Q2325.83 1540.33 2322.75 1544.94 Q2319.69 1549.52 2313.88 1549.52 Q2308.07 1549.52 2305 1544.94 Q2301.94 1540.33 2301.94 1531.6 Q2301.94 1522.85 2305 1518.27 Q2308.07 1513.66 2313.88 1513.66 Z" fill="#000000" fill-rule="nonzero" fill-opacity="1" /><path clip-path="url(#clip420)" d="M2334.05 1542.97 L2338.93 1542.97 L2338.93 1548.85 L2334.05 1548.85 L2334.05 1542.97 Z" fill="#000000" fill-rule="nonzero" fill-opacity="1" /><path clip-path="url(#clip420)" d="M2361.96 1518.36 L2350.16 1536.81 L2361.96 1536.81 L2361.96 1518.36 M2360.74 1514.29 L2366.62 1514.29 L2366.62 1536.81 L2371.55 1536.81 L2371.55 1540.7 L2366.62 1540.7 L2366.62 1548.85 L2361.96 1548.85 L2361.96 1540.7 L2346.36 1540.7 L2346.36 1536.19 L2360.74 1514.29 Z" fill="#000000" fill-rule="nonzero" fill-opacity="1" /><polyline clip-path="url(#clip420)" style="stroke:#000000; stroke-linecap:round; stroke-linejoin:round; stroke-width:4; stroke-opacity:1; fill:none" points="156.598,1486.45 156.598,47.2441 "/>
<polyline clip-path="url(#clip420)" style="stroke:#000000; stroke-linecap:round; stroke-linejoin:round; stroke-width:4; stroke-opacity:1; fill:none" points="156.598,1451.61 175.496,1451.61 "/>
<polyline clip-path="url(#clip420)" style="stroke:#000000; stroke-linecap:round; stroke-linejoin:round; stroke-width:4; stroke-opacity:1; fill:none" points="156.598,1111.21 175.496,1111.21 "/>
<polyline clip-path="url(#clip420)" style="stroke:#000000; stroke-linecap:round; stroke-linejoin:round; stroke-width:4; stroke-opacity:1; fill:none" points="156.598,770.814 175.496,770.814 "/>
<polyline clip-path="url(#clip420)" style="stroke:#000000; stroke-linecap:round; stroke-linejoin:round; stroke-width:4; stroke-opacity:1; fill:none" points="156.598,430.416 175.496,430.416 "/>
<polyline clip-path="url(#clip420)" style="stroke:#000000; stroke-linecap:round; stroke-linejoin:round; stroke-width:4; stroke-opacity:1; fill:none" points="156.598,90.0181 175.496,90.0181 "/>
<path clip-path="url(#clip420)" d="M63.4226 1437.41 Q59.8115 1437.41 57.9828 1440.97 Q56.1773 1444.52 56.1773 1451.64 Q56.1773 1458.75 57.9828 1462.32 Q59.8115 1465.86 63.4226 1465.86 Q67.0569 1465.86 68.8624 1462.32 Q70.6911 1458.75 70.6911 1451.64 Q70.6911 1444.52 68.8624 1440.97 Q67.0569 1437.41 63.4226 1437.41 M63.4226 1433.71 Q69.2328 1433.71 72.2883 1438.31 Q75.367 1442.89 75.367 1451.64 Q75.367 1460.37 72.2883 1464.98 Q69.2328 1469.56 63.4226 1469.56 Q57.6125 1469.56 54.5338 1464.98 Q51.4782 1460.37 51.4782 1451.64 Q51.4782 1442.89 54.5338 1438.31 Q57.6125 1433.71 63.4226 1433.71 Z" fill="#000000" fill-rule="nonzero" fill-opacity="1" /><path clip-path="url(#clip420)" d="M83.5845 1463.01 L88.4688 1463.01 L88.4688 1468.89 L83.5845 1468.89 L83.5845 1463.01 Z" fill="#000000" fill-rule="nonzero" fill-opacity="1" /><path clip-path="url(#clip420)" d="M108.654 1437.41 Q105.043 1437.41 103.214 1440.97 Q101.409 1444.52 101.409 1451.64 Q101.409 1458.75 103.214 1462.32 Q105.043 1465.86 108.654 1465.86 Q112.288 1465.86 114.094 1462.32 Q115.922 1458.75 115.922 1451.64 Q115.922 1444.52 114.094 1440.97 Q112.288 1437.41 108.654 1437.41 M108.654 1433.71 Q114.464 1433.71 117.52 1438.31 Q120.598 1442.89 120.598 1451.64 Q120.598 1460.37 117.52 1464.98 Q114.464 1469.56 108.654 1469.56 Q102.844 1469.56 99.765 1464.98 Q96.7095 1460.37 96.7095 1451.64 Q96.7095 1442.89 99.765 1438.31 Q102.844 1433.71 108.654 1433.71 Z" fill="#000000" fill-rule="nonzero" fill-opacity="1" /><path clip-path="url(#clip420)" d="M64.6495 1097.01 Q61.0384 1097.01 59.2097 1100.58 Q57.4041 1104.12 57.4041 1111.25 Q57.4041 1118.35 59.2097 1121.92 Q61.0384 1125.46 64.6495 1125.46 Q68.2837 1125.46 70.0892 1121.92 Q71.9179 1118.35 71.9179 1111.25 Q71.9179 1104.12 70.0892 1100.58 Q68.2837 1097.01 64.6495 1097.01 M64.6495 1093.31 Q70.4596 1093.31 73.5152 1097.91 Q76.5938 1102.5 76.5938 1111.25 Q76.5938 1119.97 73.5152 1124.58 Q70.4596 1129.16 64.6495 1129.16 Q58.8393 1129.16 55.7606 1124.58 Q52.7051 1119.97 52.7051 1111.25 Q52.7051 1102.5 55.7606 1097.91 Q58.8393 1093.31 64.6495 1093.31 Z" fill="#000000" fill-rule="nonzero" fill-opacity="1" /><path clip-path="url(#clip420)" d="M84.8114 1122.61 L89.6956 1122.61 L89.6956 1128.49 L84.8114 1128.49 L84.8114 1122.61 Z" fill="#000000" fill-rule="nonzero" fill-opacity="1" /><path clip-path="url(#clip420)" d="M100.691 1124.56 L108.33 1124.56 L108.33 1098.19 L100.02 1099.86 L100.02 1095.6 L108.283 1093.93 L112.959 1093.93 L112.959 1124.56 L120.598 1124.56 L120.598 1128.49 L100.691 1128.49 L100.691 1124.56 Z" fill="#000000" fill-rule="nonzero" fill-opacity="1" /><path clip-path="url(#clip420)" d="M65.0198 756.613 Q61.4087 756.613 59.58 760.178 Q57.7745 763.719 57.7745 770.849 Q57.7745 777.955 59.58 781.52 Q61.4087 785.062 65.0198 785.062 Q68.6541 785.062 70.4596 781.52 Q72.2883 777.955 72.2883 770.849 Q72.2883 763.719 70.4596 760.178 Q68.6541 756.613 65.0198 756.613 M65.0198 752.909 Q70.83 752.909 73.8855 757.516 Q76.9642 762.099 76.9642 770.849 Q76.9642 779.576 73.8855 784.182 Q70.83 788.765 65.0198 788.765 Q59.2097 788.765 56.131 784.182 Q53.0754 779.576 53.0754 770.849 Q53.0754 762.099 56.131 757.516 Q59.2097 752.909 65.0198 752.909 Z" fill="#000000" fill-rule="nonzero" fill-opacity="1" /><path clip-path="url(#clip420)" d="M85.1818 782.214 L90.066 782.214 L90.066 788.094 L85.1818 788.094 L85.1818 782.214 Z" fill="#000000" fill-rule="nonzero" fill-opacity="1" /><path clip-path="url(#clip420)" d="M104.279 784.159 L120.598 784.159 L120.598 788.094 L98.6539 788.094 L98.6539 784.159 Q101.316 781.404 105.899 776.775 Q110.506 772.122 111.686 770.779 Q113.932 768.256 114.811 766.52 Q115.714 764.761 115.714 763.071 Q115.714 760.316 113.77 758.58 Q111.848 756.844 108.746 756.844 Q106.547 756.844 104.094 757.608 Q101.663 758.372 98.8854 759.923 L98.8854 755.201 Q101.709 754.066 104.163 753.488 Q106.617 752.909 108.654 752.909 Q114.024 752.909 117.219 755.594 Q120.413 758.279 120.413 762.77 Q120.413 764.9 119.603 766.821 Q118.816 768.719 116.709 771.312 Q116.131 771.983 113.029 775.201 Q109.927 778.395 104.279 784.159 Z" fill="#000000" fill-rule="nonzero" fill-opacity="1" /><path clip-path="url(#clip420)" d="M64.0708 416.215 Q60.4597 416.215 58.631 419.78 Q56.8254 423.321 56.8254 430.451 Q56.8254 437.557 58.631 441.122 Q60.4597 444.664 64.0708 444.664 Q67.705 444.664 69.5105 441.122 Q71.3392 437.557 71.3392 430.451 Q71.3392 423.321 69.5105 419.78 Q67.705 416.215 64.0708 416.215 M64.0708 412.511 Q69.8809 412.511 72.9365 417.118 Q76.0151 421.701 76.0151 430.451 Q76.0151 439.178 72.9365 443.784 Q69.8809 448.367 64.0708 448.367 Q58.2606 448.367 55.1819 443.784 Q52.1264 439.178 52.1264 430.451 Q52.1264 421.701 55.1819 417.118 Q58.2606 412.511 64.0708 412.511 Z" fill="#000000" fill-rule="nonzero" fill-opacity="1" /><path clip-path="url(#clip420)" d="M84.2327 441.816 L89.1169 441.816 L89.1169 447.696 L84.2327 447.696 L84.2327 441.816 Z" fill="#000000" fill-rule="nonzero" fill-opacity="1" /><path clip-path="url(#clip420)" d="M113.469 429.062 Q116.825 429.779 118.7 432.048 Q120.598 434.316 120.598 437.65 Q120.598 442.766 117.08 445.566 Q113.561 448.367 107.08 448.367 Q104.904 448.367 102.589 447.928 Q100.297 447.511 97.8437 446.654 L97.8437 442.141 Q99.7882 443.275 102.103 443.853 Q104.418 444.432 106.941 444.432 Q111.339 444.432 113.631 442.696 Q115.945 440.96 115.945 437.65 Q115.945 434.594 113.793 432.881 Q111.663 431.145 107.844 431.145 L103.816 431.145 L103.816 427.303 L108.029 427.303 Q111.478 427.303 113.307 425.937 Q115.135 424.548 115.135 421.955 Q115.135 419.293 113.237 417.881 Q111.362 416.446 107.844 416.446 Q105.922 416.446 103.723 416.863 Q101.524 417.28 98.8854 418.159 L98.8854 413.993 Q101.547 413.252 103.862 412.881 Q106.2 412.511 108.26 412.511 Q113.584 412.511 116.686 414.942 Q119.788 417.349 119.788 421.469 Q119.788 424.34 118.145 426.33 Q116.501 428.298 113.469 429.062 Z" fill="#000000" fill-rule="nonzero" fill-opacity="1" /><path clip-path="url(#clip420)" d="M62.9365 75.8167 Q59.3254 75.8167 57.4967 79.3815 Q55.6912 82.9232 55.6912 90.0528 Q55.6912 97.1592 57.4967 100.724 Q59.3254 104.266 62.9365 104.266 Q66.5707 104.266 68.3763 100.724 Q70.205 97.1592 70.205 90.0528 Q70.205 82.9232 68.3763 79.3815 Q66.5707 75.8167 62.9365 75.8167 M62.9365 72.1131 Q68.7467 72.1131 71.8022 76.7195 Q74.8809 81.3028 74.8809 90.0528 Q74.8809 98.7796 71.8022 103.386 Q68.7467 107.969 62.9365 107.969 Q57.1264 107.969 54.0477 103.386 Q50.9921 98.7796 50.9921 90.0528 Q50.9921 81.3028 54.0477 76.7195 Q57.1264 72.1131 62.9365 72.1131 Z" fill="#000000" fill-rule="nonzero" fill-opacity="1" /><path clip-path="url(#clip420)" d="M83.0984 101.418 L87.9827 101.418 L87.9827 107.298 L83.0984 107.298 L83.0984 101.418 Z" fill="#000000" fill-rule="nonzero" fill-opacity="1" /><path clip-path="url(#clip420)" d="M111.015 76.8121 L99.2095 95.2611 L111.015 95.2611 L111.015 76.8121 M109.788 72.7381 L115.668 72.7381 L115.668 95.2611 L120.598 95.2611 L120.598 99.15 L115.668 99.15 L115.668 107.298 L111.015 107.298 L111.015 99.15 L95.4132 99.15 L95.4132 94.6361 L109.788 72.7381 Z" fill="#000000" fill-rule="nonzero" fill-opacity="1" /><circle clip-path="url(#clip421)" cx="1427.69" cy="1157.95" r="14.4" fill="#808080" fill-rule="evenodd" fill-opacity="1" stroke="#000000" stroke-opacity="1" stroke-width="3.2"/>
<circle clip-path="url(#clip421)" cx="1334.1" cy="1445.72" r="14.4" fill="#808080" fill-rule="evenodd" fill-opacity="1" stroke="#000000" stroke-opacity="1" stroke-width="3.2"/>
<circle clip-path="url(#clip421)" cx="2290.6" cy="1281.91" r="14.4" fill="#808080" fill-rule="evenodd" fill-opacity="1" stroke="#000000" stroke-opacity="1" stroke-width="3.2"/>
<circle clip-path="url(#clip421)" cx="218.754" cy="87.9763" r="14.4" fill="#808080" fill-rule="evenodd" fill-opacity="1" stroke="#000000" stroke-opacity="1" stroke-width="3.2"/>
<path clip-path="url(#clip420)" d="M1431.99 1165.38 Q1422.95 1165.38 1419.47 1167.45 Q1415.98 1169.51 1415.98 1174.49 Q1415.98 1178.46 1418.58 1180.81 Q1421.21 1183.12 1425.71 1183.12 Q1431.9 1183.12 1435.63 1178.75 Q1439.4 1174.33 1439.4 1167.04 L1439.4 1165.38 L1431.99 1165.38 M1446.85 1162.3 L1446.85 1188.19 L1439.4 1188.19 L1439.4 1181.3 Q1436.85 1185.43 1433.04 1187.42 Q1429.23 1189.36 1423.72 1189.36 Q1416.75 1189.36 1412.62 1185.47 Q1408.53 1181.54 1408.53 1174.98 Q1408.53 1167.32 1413.64 1163.43 Q1418.78 1159.55 1428.95 1159.55 L1439.4 1159.55 L1439.4 1158.82 Q1439.4 1153.67 1436 1150.88 Q1432.63 1148.04 1426.52 1148.04 Q1422.63 1148.04 1418.94 1148.97 Q1415.26 1149.9 1411.85 1151.77 L1411.85 1144.88 Q1415.94 1143.3 1419.79 1142.53 Q1423.64 1141.72 1427.29 1141.72 Q1437.13 1141.72 1441.99 1146.83 Q1446.85 1151.93 1446.85 1162.3 Z" fill="#000000" fill-rule="nonzero" fill-opacity="1" /><path clip-path="url(#clip420)" d="M1346.66 1453.31 Q1346.66 1445.09 1343.25 1440.43 Q1339.89 1435.73 1333.98 1435.73 Q1328.06 1435.73 1324.66 1440.43 Q1321.3 1445.09 1321.3 1453.31 Q1321.3 1461.53 1324.66 1466.23 Q1328.06 1470.89 1333.98 1470.89 Q1339.89 1470.89 1343.25 1466.23 Q1346.66 1461.53 1346.66 1453.31 M1321.3 1437.47 Q1323.65 1433.42 1327.21 1431.48 Q1330.82 1429.49 1335.8 1429.49 Q1344.06 1429.49 1349.21 1436.05 Q1354.39 1442.62 1354.39 1453.31 Q1354.39 1464.01 1349.21 1470.57 Q1344.06 1477.13 1335.8 1477.13 Q1330.82 1477.13 1327.21 1475.19 Q1323.65 1473.2 1321.3 1469.15 L1321.3 1475.96 L1313.8 1475.96 L1313.8 1412.92 L1321.3 1412.92 L1321.3 1437.47 Z" fill="#000000" fill-rule="nonzero" fill-opacity="1" /><path clip-path="url(#clip420)" d="M2308.55 1268.52 L2308.55 1275.49 Q2305.39 1273.75 2302.19 1272.9 Q2299.03 1272 2295.79 1272 Q2288.53 1272 2284.52 1276.62 Q2280.51 1281.2 2280.51 1289.5 Q2280.51 1297.81 2284.52 1302.43 Q2288.53 1307 2295.79 1307 Q2299.03 1307 2302.19 1306.15 Q2305.39 1305.26 2308.55 1303.52 L2308.55 1310.41 Q2305.43 1311.87 2302.06 1312.59 Q2298.74 1313.32 2294.98 1313.32 Q2284.73 1313.32 2278.69 1306.88 Q2272.65 1300.44 2272.65 1289.5 Q2272.65 1278.41 2278.73 1272.05 Q2284.85 1265.69 2295.46 1265.69 Q2298.9 1265.69 2302.19 1266.41 Q2305.47 1267.1 2308.55 1268.52 Z" fill="#000000" fill-rule="nonzero" fill-opacity="1" /><path clip-path="url(#clip420)" d="M231.575 79.7327 L231.575 55.1842 L239.028 55.1842 L239.028 118.216 L231.575 118.216 L231.575 111.411 Q229.225 115.462 225.62 117.447 Q222.055 119.391 217.032 119.391 Q208.809 119.391 203.624 112.829 Q198.479 106.266 198.479 95.5717 Q198.479 84.8773 203.624 78.3149 Q208.809 71.7524 217.032 71.7524 Q222.055 71.7524 225.62 73.7373 Q229.225 75.6818 231.575 79.7327 M206.176 95.5717 Q206.176 103.795 209.538 108.494 Q212.941 113.153 218.855 113.153 Q224.769 113.153 228.172 108.494 Q231.575 103.795 231.575 95.5717 Q231.575 87.3484 228.172 82.6898 Q224.769 77.9908 218.855 77.9908 Q212.941 77.9908 209.538 82.6898 Q206.176 87.3484 206.176 95.5717 Z" fill="#000000" fill-rule="nonzero" fill-opacity="1" /><path clip-path="url(#clip420)" d="M2007.5 198.898 L2279.55 198.898 L2279.55 95.2176 L2007.5 95.2176  Z" fill="#ffffff" fill-rule="evenodd" fill-opacity="1"/>
<polyline clip-path="url(#clip420)" style="stroke:#000000; stroke-linecap:round; stroke-linejoin:round; stroke-width:4; stroke-opacity:1; fill:none" points="2007.5,198.898 2279.55,198.898 2279.55,95.2176 2007.5,95.2176 2007.5,198.898 "/>
<circle clip-path="url(#clip420)" cx="2105.11" cy="147.058" r="20.48" fill="#808080" fill-rule="evenodd" fill-opacity="1" stroke="#000000" stroke-opacity="1" stroke-width="4.55111"/>
<path clip-path="url(#clip420)" d="M2216.56 166.745 Q2214.76 171.375 2213.04 172.787 Q2211.33 174.199 2208.46 174.199 L2205.06 174.199 L2205.06 170.634 L2207.56 170.634 Q2209.32 170.634 2210.29 169.8 Q2211.26 168.967 2212.44 165.865 L2213.2 163.921 L2202.72 138.412 L2207.23 138.412 L2215.33 158.689 L2223.44 138.412 L2227.95 138.412 L2216.56 166.745 Z" fill="#000000" fill-rule="nonzero" fill-opacity="1" /><path clip-path="url(#clip420)" d="M2235.24 160.402 L2242.88 160.402 L2242.88 134.037 L2234.57 135.703 L2234.57 131.444 L2242.83 129.778 L2247.51 129.778 L2247.51 160.402 L2255.15 160.402 L2255.15 164.338 L2235.24 164.338 L2235.24 160.402 Z" fill="#000000" fill-rule="nonzero" fill-opacity="1" /></svg>
