<?xml version="1.0" encoding="utf-8"?>
<svg xmlns="http://www.w3.org/2000/svg" xmlns:xlink="http://www.w3.org/1999/xlink" width="600" height="400" viewBox="0 0 2400 1600">
<defs>
  <clipPath id="clip680">
    <rect x="0" y="0" width="2400" height="1600"/>
  </clipPath>
</defs>
<path clip-path="url(#clip680)" d="M0 1600 L2400 1600 L2400 0 L0 0  Z" fill="#ffffff" fill-rule="evenodd" fill-opacity="1"/>
<defs>
  <clipPath id="clip681">
    <rect x="112" y="47" width="2242" height="1440"/>
  </clipPath>
</defs>
<path clip-path="url(#clip680)" d="M112.177 1486.45 L2352.76 1486.45 L2352.76 47.2441 L112.177 47.2441  Z" fill="#ffffff" fill-rule="evenodd" fill-opacity="1"/>
<polyline clip-path="url(#clip681)" style="stroke:#000000; stroke-linecap:round; stroke-linejoin:round; stroke-width:2; stroke-opacity:0.1; fill:none" points="570.4,1486.45 570.4,47.2441 "/>
<polyline clip-path="url(#clip681)" style="stroke:#000000; stroke-linecap:round; stroke-linejoin:round; stroke-width:2; stroke-opacity:0.1; fill:none" points="1071.43,1486.45 1071.43,47.2441 "/>
<polyline clip-path="url(#clip681)" style="stroke:#000000; stroke-linecap:round; stroke-linejoin:round; stroke-width:2; stroke-opacity:0.1; fill:none" points="1572.45,1486.45 1572.45,47.2441 "/>
<polyline clip-path="url(#clip681)" style="stroke:#000000; stroke-linecap:round; stroke-linejoin:round; stroke-width:2; stroke-opacity:0.1; fill:none" points="2073.48,1486.45 2073.48,47.2441 "/>
<polyline clip-path="url(#clip681)" style="stroke:#000000; stroke-linecap:round; stroke-linejoin:round; stroke-width:2; stroke-opacity:0.1; fill:none" points="112.177,1480.88 2352.76,1480.88 "/>
<polyline clip-path="url(#clip681)" style="stroke:#000000; stroke-linecap:round; stroke-linejoin:round; stroke-width:2; stroke-opacity:0.1; fill:none" points="112.177,1118.66 2352.76,1118.66 "/>
<polyline clip-path="url(#clip681)" style="stroke:#000000; stroke-linecap:round; stroke-linejoin:round; stroke-width:2; stroke-opacity:0.1; fill:none" points="112.177,756.432 2352.76,756.432 "/>
<polyline clip-path="url(#clip681)" style="stroke:#000000; stroke-linecap:round; stroke-linejoin:round; stroke-width:2; stroke-opacity:0.1; fill:none" points="112.177,394.209 2352.76,394.209 "/>
<polyline clip-path="url(#clip680)" style="stroke:#000000; stroke-linecap:round; stroke-linejoin:round; stroke-width:4; stroke-opacity:1; fill:none" points="112.177,1486.45 2352.76,1486.45 "/>
<polyline clip-path="url(#clip680)" style="stroke:#000000; stroke-linecap:round; stroke-linejoin:round; stroke-width:4; stroke-opacity:1; fill:none" points="570.4,1486.45 570.4,1467.55 "/>
<polyline clip-path="url(#clip680)" style="stroke:#000000; stroke-linecap:round; stroke-linejoin:round; stroke-width:4; stroke-opacity:1; fill:none" points="1071.43,1486.45 1071.43,1467.55 "/>
<polyline clip-path="url(#clip680)" style="stroke:#000000; stroke-linecap:round; stroke-linejoin:round; stroke-width:4; stroke-opacity:1; fill:none" points="1572.45,1486.45 1572.45,1467.55 "/>
<polyline clip-path="url(#clip680)" style="stroke:#000000; stroke-linecap:round; stroke-linejoin:round; stroke-width:4; stroke-opacity:1; fill:none" points="2073.48,1486.45 2073.48,1467.55 "/>
<path clip-path="url(#clip680)" d="M516.928 1532.02 L546.604 1532.02 L546.604 1535.95 L516.928 1535.95 L516.928 1532.02 Z" fill="#000000" fill-rule="nonzero" fill-opacity="1" /><path clip-path="url(#clip680)" d="M557.507 1544.91 L565.146 1544.91 L565.146 1518.55 L556.835 1520.21 L556.835 1515.95 L565.099 1514.29 L569.775 1514.29 L569.775 1544.91 L577.414 1544.91 L577.414 1548.85 L557.507 1548.85 L557.507 1544.91 Z" fill="#000000" fill-rule="nonzero" fill-opacity="1" /><path clip-path="url(#clip680)" d="M586.858 1542.97 L591.743 1542.97 L591.743 1548.85 L586.858 1548.85 L586.858 1542.97 Z" fill="#000000" fill-rule="nonzero" fill-opacity="1" /><path clip-path="url(#clip680)" d="M611.928 1517.37 Q608.317 1517.37 606.488 1520.93 Q604.682 1524.47 604.682 1531.6 Q604.682 1538.71 606.488 1542.27 Q608.317 1545.82 611.928 1545.82 Q615.562 1545.82 617.367 1542.27 Q619.196 1538.71 619.196 1531.6 Q619.196 1524.47 617.367 1520.93 Q615.562 1517.37 611.928 1517.37 M611.928 1513.66 Q617.738 1513.66 620.793 1518.27 Q623.872 1522.85 623.872 1531.6 Q623.872 1540.33 620.793 1544.94 Q617.738 1549.52 611.928 1549.52 Q606.118 1549.52 603.039 1544.94 Q599.983 1540.33 599.983 1531.6 Q599.983 1522.85 603.039 1518.27 Q606.118 1513.66 611.928 1513.66 Z" fill="#000000" fill-rule="nonzero" fill-opacity="1" /><path clip-path="url(#clip680)" d="M1018.45 1532.02 L1048.13 1532.02 L1048.13 1535.95 L1018.45 1535.95 L1018.45 1532.02 Z" fill="#000000" fill-rule="nonzero" fill-opacity="1" /><path clip-path="url(#clip680)" d="M1068.22 1517.37 Q1064.61 1517.37 1062.78 1520.93 Q1060.97 1524.47 1060.97 1531.6 Q1060.97 1538.71 1062.78 1542.27 Q1064.61 1545.82 1068.22 1545.82 Q1071.85 1545.82 1073.66 1542.27 Q1075.49 1538.71 1075.49 1531.6 Q1075.49 1524.47 1073.66 1520.93 Q1071.85 1517.37 1068.22 1517.37 M1068.22 1513.66 Q1074.03 1513.66 1077.09 1518.27 Q1080.16 1522.85 1080.16 1531.6 Q1080.16 1540.33 1077.09 1544.94 Q1074.03 1549.52 1068.22 1549.52 Q1062.41 1549.52 1059.33 1544.94 Q1056.28 1540.33 1056.28 1531.6 Q1056.28 1522.85 1059.33 1518.27 Q1062.41 1513.66 1068.22 1513.66 Z" fill="#000000" fill-rule="nonzero" fill-opacity="1" /><path clip-path="url(#clip680)" d="M1088.38 1542.97 L1093.27 1542.97 L1093.27 1548.85 L1088.38 1548.85 L1088.38 1542.97 Z" fill="#000000" fill-rule="nonzero" fill-opacity="1" /><path clip-path="url(#clip680)" d="M1103.5 1514.29 L1121.85 1514.29 L1121.85 1518.22 L1107.78 1518.22 L1107.78 1526.7 Q1108.8 1526.35 1109.82 1526.19 Q1110.84 1526 1111.85 1526 Q1117.64 1526 1121.02 1529.17 Q1124.4 1532.34 1124.4 1537.76 Q1124.4 1543.34 1120.93 1546.44 Q1117.46 1549.52 1111.14 1549.52 Q1108.96 1549.52 1106.69 1549.15 Q1104.45 1548.78 1102.04 1548.04 L1102.04 1543.34 Q1104.12 1544.47 1106.35 1545.03 Q1108.57 1545.58 1111.04 1545.58 Q1115.05 1545.58 1117.39 1543.48 Q1119.72 1541.37 1119.72 1537.76 Q1119.72 1534.15 1117.39 1532.04 Q1115.05 1529.94 1111.04 1529.94 Q1109.17 1529.94 1107.29 1530.35 Q1105.44 1530.77 1103.5 1531.65 L1103.5 1514.29 Z" fill="#000000" fill-rule="nonzero" fill-opacity="1" /><path clip-path="url(#clip680)" d="M1549.84 1517.37 Q1546.23 1517.37 1544.4 1520.93 Q1542.59 1524.47 1542.59 1531.6 Q1542.59 1538.71 1544.4 1542.27 Q1546.23 1545.82 1549.84 1545.82 Q1553.47 1545.82 1555.28 1542.27 Q1557.11 1538.71 1557.11 1531.6 Q1557.11 1524.47 1555.28 1520.93 Q1553.47 1517.37 1549.84 1517.37 M1549.84 1513.66 Q1555.65 1513.66 1558.7 1518.27 Q1561.78 1522.85 1561.78 1531.6 Q1561.78 1540.33 1558.7 1544.94 Q1555.65 1549.52 1549.84 1549.52 Q1544.03 1549.52 1540.95 1544.94 Q1537.89 1540.33 1537.89 1531.6 Q1537.89 1522.85 1540.95 1518.27 Q1544.03 1513.66 1549.84 1513.66 Z" fill="#000000" fill-rule="nonzero" fill-opacity="1" /><path clip-path="url(#clip680)" d="M1570 1542.97 L1574.88 1542.97 L1574.88 1548.85 L1570 1548.85 L1570 1542.97 Z" fill="#000000" fill-rule="nonzero" fill-opacity="1" /><path clip-path="url(#clip680)" d="M1595.07 1517.37 Q1591.46 1517.37 1589.63 1520.93 Q1587.82 1524.47 1587.82 1531.6 Q1587.82 1538.71 1589.63 1542.27 Q1591.46 1545.82 1595.07 1545.82 Q1598.7 1545.82 1600.51 1542.27 Q1602.34 1538.71 1602.34 1531.6 Q1602.34 1524.47 1600.51 1520.93 Q1598.7 1517.37 1595.07 1517.37 M1595.07 1513.66 Q1600.88 1513.66 1603.93 1518.27 Q1607.01 1522.85 1607.01 1531.6 Q1607.01 1540.33 1603.93 1544.94 Q1600.88 1549.52 1595.07 1549.52 Q1589.26 1549.52 1586.18 1544.94 Q1583.12 1540.33 1583.12 1531.6 Q1583.12 1522.85 1586.18 1518.27 Q1589.26 1513.66 1595.07 1513.66 Z" fill="#000000" fill-rule="nonzero" fill-opacity="1" /><path clip-path="url(#clip680)" d="M2051.36 1517.37 Q2047.75 1517.37 2045.92 1520.93 Q2044.12 1524.47 2044.12 1531.6 Q2044.12 1538.71 2045.92 1542.27 Q2047.75 1545.82 2051.36 1545.82 Q2055 1545.82 2056.8 1542.27 Q2058.63 1538.71 2058.63 1531.6 Q2058.63 1524.47 2056.8 1520.93 Q2055 1517.37 2051.36 1517.37 M2051.36 1513.66 Q2057.17 1513.66 2060.23 1518.27 Q2063.31 1522.85 2063.31 1531.6 Q2063.31 1540.33 2060.23 1544.94 Q2057.17 1549.52 2051.36 1549.52 Q2045.55 1549.52 2042.47 1544.94 Q2039.42 1540.33 2039.42 1531.6 Q2039.42 1522.85 2042.47 1518.27 Q2045.55 1513.66 2051.36 1513.66 Z" fill="#000000" fill-rule="nonzero" fill-opacity="1" /><path clip-path="url(#clip680)" d="M2071.52 1542.97 L2076.41 1542.97 L2076.41 1548.85 L2071.52 1548.85 L2071.52 1542.97 Z" fill="#000000" fill-rule="nonzero" fill-opacity="1" /><path clip-path="url(#clip680)" d="M2086.64 1514.29 L2104.99 1514.29 L2104.99 1518.22 L2090.92 1518.22 L2090.92 1526.7 Q2091.94 1526.35 2092.96 1526.19 Q2093.98 1526 2094.99 1526 Q2100.78 1526 2104.16 1529.17 Q2107.54 1532.34 2107.54 1537.76 Q2107.54 1543.34 2104.07 1546.44 Q2100.6 1549.52 2094.28 1549.52 Q2092.1 1549.52 2089.83 1549.15 Q2087.59 1548.78 2085.18 1548.04 L2085.18 1543.34 Q2087.26 1544.47 2089.49 1545.03 Q2091.71 1545.58 2094.18 1545.58 Q2098.19 1545.58 2100.53 1543.48 Q2102.87 1541.37 2102.87 1537.76 Q2102.87 1534.15 2100.53 1532.04 Q2098.19 1529.94 2094.18 1529.94 Q2092.31 1529.94 2090.43 1530.35 Q2088.58 1530.77 2086.64 1531.65 L2086.64 1514.29 Z" fill="#000000" fill-rule="nonzero" fill-opacity="1" /><polyline clip-path="url(#clip680)" style="stroke:#000000; stroke-linecap:round; stroke-linejoin:round; stroke-width:4; stroke-opacity:1; fill:none" points="112.177,1486.45 112.177,47.2441 "/>
<polyline clip-path="url(#clip680)" style="stroke:#000000; stroke-linecap:round; stroke-linejoin:round; stroke-width:4; stroke-opacity:1; fill:none" points="112.177,1480.88 131.075,1480.88 "/>
<polyline clip-path="url(#clip680)" style="stroke:#000000; stroke-linecap:round; stroke-linejoin:round; stroke-width:4; stroke-opacity:1; fill:none" points="112.177,1118.66 131.075,1118.66 "/>
<polyline clip-path="url(#clip680)" style="stroke:#000000; stroke-linecap:round; stroke-linejoin:round; stroke-width:4; stroke-opacity:1; fill:none" points="112.177,756.432 131.075,756.432 "/>
<polyline clip-path="url(#clip680)" style="stroke:#000000; stroke-linecap:round; stroke-linejoin:round; stroke-width:4; stroke-opacity:1; fill:none" points="112.177,394.209 131.075,394.209 "/>
<path clip-path="url(#clip680)" d="M64.2328 1466.68 Q60.6217 1466.68 58.793 1470.24 Q56.9875 1473.78 56.9875 1480.91 Q56.9875 1488.02 58.793 1491.58 Q60.6217 1495.13 64.2328 1495.13 Q67.867 1495.13 69.6726 1491.58 Q71.5013 1488.02 71.5013 1480.91 Q71.5013 1473.78 69.6726 1470.24 Q67.867 1466.68 64.2328 1466.68 M64.2328 1462.97 Q70.0429 1462.97 73.0985 1467.58 Q76.1772 1472.16 76.1772 1480.91 Q76.1772 1489.64 73.0985 1494.25 Q70.0429 1498.83 64.2328 1498.83 Q58.4226 1498.83 55.344 1494.25 Q52.2884 1489.64 52.2884 1480.91 Q52.2884 1472.16 55.344 1467.58 Q58.4226 1462.97 64.2328 1462.97 Z" fill="#000000" fill-rule="nonzero" fill-opacity="1" /><path clip-path="url(#clip680)" d="M59.8578 1132 L76.1772 1132 L76.1772 1135.94 L54.2328 1135.94 L54.2328 1132 Q56.8949 1129.25 61.4782 1124.62 Q66.0846 1119.96 67.2652 1118.62 Q69.5105 1116.1 70.3902 1114.36 Q71.2929 1112.6 71.2929 1110.91 Q71.2929 1108.16 69.3485 1106.42 Q67.4272 1104.69 64.3254 1104.69 Q62.1263 1104.69 59.6726 1105.45 Q57.2421 1106.21 54.4643 1107.76 L54.4643 1103.04 Q57.2884 1101.91 59.7421 1101.33 Q62.1958 1100.75 64.2328 1100.75 Q69.6031 1100.75 72.7976 1103.44 Q75.992 1106.12 75.992 1110.61 Q75.992 1112.74 75.1818 1114.66 Q74.3948 1116.56 72.2883 1119.15 Q71.7096 1119.82 68.6078 1123.04 Q65.5059 1126.24 59.8578 1132 Z" fill="#000000" fill-rule="nonzero" fill-opacity="1" /><path clip-path="url(#clip680)" d="M66.5939 743.226 L54.7884 761.675 L66.5939 761.675 L66.5939 743.226 M65.367 739.152 L71.2466 739.152 L71.2466 761.675 L76.1772 761.675 L76.1772 765.564 L71.2466 765.564 L71.2466 773.712 L66.5939 773.712 L66.5939 765.564 L50.9921 765.564 L50.9921 761.05 L65.367 739.152 Z" fill="#000000" fill-rule="nonzero" fill-opacity="1" /><path clip-path="url(#clip680)" d="M64.6495 392.346 Q61.5013 392.346 59.6495 394.498 Q57.8208 396.651 57.8208 400.401 Q57.8208 404.128 59.6495 406.304 Q61.5013 408.457 64.6495 408.457 Q67.7976 408.457 69.6263 406.304 Q71.4781 404.128 71.4781 400.401 Q71.4781 396.651 69.6263 394.498 Q67.7976 392.346 64.6495 392.346 M73.9318 377.693 L73.9318 381.952 Q72.1726 381.119 70.367 380.679 Q68.5846 380.239 66.8254 380.239 Q62.1958 380.239 59.7421 383.364 Q57.3115 386.489 56.9643 392.809 Q58.33 390.795 60.3902 389.73 Q62.4504 388.642 64.9272 388.642 Q70.1355 388.642 73.1448 391.813 Q76.1772 394.961 76.1772 400.401 Q76.1772 405.725 73.029 408.943 Q69.8809 412.16 64.6495 412.16 Q58.6541 412.16 55.4828 407.577 Q52.3116 402.97 52.3116 394.244 Q52.3116 386.049 56.2004 381.188 Q60.0893 376.304 66.6402 376.304 Q68.3994 376.304 70.1818 376.651 Q71.9874 376.998 73.9318 377.693 Z" fill="#000000" fill-rule="nonzero" fill-opacity="1" /><circle clip-path="url(#clip681)" cx="2289.34" cy="1332.62" r="14.4" fill="#808080" fill-rule="evenodd" fill-opacity="1" stroke="#000000" stroke-opacity="1" stroke-width="3.2"/>
<circle clip-path="url(#clip681)" cx="175.59" cy="87.9763" r="14.4" fill="#808080" fill-rule="evenodd" fill-opacity="1" stroke="#000000" stroke-opacity="1" stroke-width="3.2"/>
<circle clip-path="url(#clip681)" cx="1655.14" cy="1445.72" r="14.4" fill="#808080" fill-rule="evenodd" fill-opacity="1" stroke="#000000" stroke-opacity="1" stroke-width="3.2"/>
<circle clip-path="url(#clip681)" cx="1453.48" cy="1431.38" r="14.4" fill="#808080" fill-rule="evenodd" fill-opacity="1" stroke="#000000" stroke-opacity="1" stroke-width="3.2"/>
<path clip-path="url(#clip680)" d="M2293.64 1340.06 Q2284.6 1340.06 2281.12 1342.12 Q2277.64 1344.19 2277.64 1349.17 Q2277.64 1353.14 2280.23 1355.49 Q2282.86 1357.8 2287.36 1357.8 Q2293.56 1357.8 2297.28 1353.42 Q2301.05 1349.01 2301.05 1341.72 L2301.05 1340.06 L2293.64 1340.06 M2308.5 1336.98 L2308.5 1362.86 L2301.05 1362.86 L2301.05 1355.98 Q2298.5 1360.11 2294.69 1362.09 Q2290.88 1364.04 2285.37 1364.04 Q2278.41 1364.04 2274.27 1360.15 Q2270.18 1356.22 2270.18 1349.66 Q2270.18 1342 2275.29 1338.11 Q2280.43 1334.22 2290.6 1334.22 L2301.05 1334.22 L2301.05 1333.49 Q2301.05 1328.35 2297.65 1325.55 Q2294.29 1322.72 2288.17 1322.72 Q2284.28 1322.72 2280.59 1323.65 Q2276.91 1324.58 2273.5 1326.44 L2273.5 1319.56 Q2277.6 1317.98 2281.44 1317.21 Q2285.29 1316.4 2288.94 1316.4 Q2298.78 1316.4 2303.64 1321.5 Q2308.5 1326.61 2308.5 1336.98 Z" fill="#000000" fill-rule="nonzero" fill-opacity="1" /><path clip-path="url(#clip680)" d="M188.148 95.5717 Q188.148 87.3484 184.745 82.6898 Q181.383 77.9908 175.468 77.9908 Q169.554 77.9908 166.151 82.6898 Q162.789 87.3484 162.789 95.5717 Q162.789 103.795 166.151 108.494 Q169.554 113.153 175.468 113.153 Q181.383 113.153 184.745 108.494 Q188.148 103.795 188.148 95.5717 M162.789 79.7327 Q165.138 75.6818 168.703 73.7373 Q172.309 71.7524 177.291 71.7524 Q185.555 71.7524 190.7 78.3149 Q195.885 84.8773 195.885 95.5717 Q195.885 106.266 190.7 112.829 Q185.555 119.391 177.291 119.391 Q172.309 119.391 168.703 117.447 Q165.138 115.462 162.789 111.411 L162.789 118.216 L155.295 118.216 L155.295 55.1842 L162.789 55.1842 L162.789 79.7327 Z" fill="#000000" fill-rule="nonzero" fill-opacity="1" /><path clip-path="url(#clip680)" d="M1673.08 1432.33 L1673.08 1439.3 Q1669.92 1437.55 1666.72 1436.7 Q1663.56 1435.81 1660.32 1435.81 Q1653.07 1435.81 1649.06 1440.43 Q1645.05 1445.01 1645.05 1453.31 Q1645.05 1461.62 1649.06 1466.23 Q1653.07 1470.81 1660.32 1470.81 Q1663.56 1470.81 1666.72 1469.96 Q1669.92 1469.07 1673.08 1467.33 L1673.08 1474.21 Q1669.96 1475.67 1666.6 1476.4 Q1663.28 1477.13 1659.51 1477.13 Q1649.26 1477.13 1643.23 1470.69 Q1637.19 1464.25 1637.19 1453.31 Q1637.19 1442.21 1643.27 1435.85 Q1649.38 1429.49 1660 1429.49 Q1663.44 1429.49 1666.72 1430.22 Q1670 1430.91 1673.08 1432.33 Z" fill="#000000" fill-rule="nonzero" fill-opacity="1" /><path clip-path="url(#clip680)" d="M1466.3 1423.14 L1466.3 1398.59 L1473.76 1398.59 L1473.76 1461.62 L1466.3 1461.62 L1466.3 1454.81 Q1463.95 1458.86 1460.35 1460.85 Q1456.78 1462.79 1451.76 1462.79 Q1443.54 1462.79 1438.35 1456.23 Q1433.21 1449.67 1433.21 1438.97 Q1433.21 1428.28 1438.35 1421.72 Q1443.54 1415.16 1451.76 1415.16 Q1456.78 1415.16 1460.35 1417.14 Q1463.95 1419.08 1466.3 1423.14 M1440.9 1438.97 Q1440.9 1447.2 1444.27 1451.9 Q1447.67 1456.56 1453.58 1456.56 Q1459.5 1456.56 1462.9 1451.9 Q1466.3 1447.2 1466.3 1438.97 Q1466.3 1430.75 1462.9 1426.09 Q1459.5 1421.39 1453.58 1421.39 Q1447.67 1421.39 1444.27 1426.09 Q1440.9 1430.75 1440.9 1438.97 Z" fill="#000000" fill-rule="nonzero" fill-opacity="1" /><path clip-path="url(#clip680)" d="M2001.58 198.898 L2278.07 198.898 L2278.07 95.2176 L2001.58 95.2176  Z" fill="#ffffff" fill-rule="evenodd" fill-opacity="1"/>
<polyline clip-path="url(#clip680)" style="stroke:#000000; stroke-linecap:round; stroke-linejoin:round; stroke-width:4; stroke-opacity:1; fill:none" points="2001.58,198.898 2278.07,198.898 2278.07,95.2176 2001.58,95.2176 2001.58,198.898 "/>
<circle clip-path="url(#clip680)" cx="2101.16" cy="147.058" r="20.48" fill="#808080" fill-rule="evenodd" fill-opacity="1" stroke="#000000" stroke-opacity="1" stroke-width="4.55111"/>
<path clip-path="url(#clip680)" d="M2214.59 166.745 Q2212.78 171.375 2211.07 172.787 Q2209.36 174.199 2206.49 174.199 L2203.08 174.199 L2203.08 170.634 L2205.58 170.634 Q2207.34 170.634 2208.31 169.8 Q2209.29 168.967 2210.47 165.865 L2211.23 163.921 L2200.74 138.412 L2205.26 138.412 L2213.36 158.689 L2221.46 138.412 L2225.98 138.412 L2214.59 166.745 Z" fill="#000000" fill-rule="nonzero" fill-opacity="1" /><path clip-path="url(#clip680)" d="M2233.27 160.402 L2240.91 160.402 L2240.91 134.037 L2232.6 135.703 L2232.6 131.444 L2240.86 129.778 L2245.54 129.778 L2245.54 160.402 L2253.17 160.402 L2253.17 164.338 L2233.27 164.338 L2233.27 160.402 Z" fill="#000000" fill-rule="nonzero" fill-opacity="1" /></svg>
