<?xml version="1.0" encoding="utf-8"?>
<svg xmlns="http://www.w3.org/2000/svg" xmlns:xlink="http://www.w3.org/1999/xlink" width="600" height="400" viewBox="0 0 2400 1600">
<defs>
  <clipPath id="clip190">
    <rect x="0" y="0" width="2400" height="1600"/>
  </clipPath>
</defs>
<path clip-path="url(#clip190)" d="M0 1600 L2400 1600 L2400 0 L0 0  Z" fill="#ffffff" fill-rule="evenodd" fill-opacity="1"/>
<defs>
  <clipPath id="clip191">
    <rect x="156" y="47" width="2197" height="1440"/>
  </clipPath>
</defs>
<path clip-path="url(#clip190)" d="M156.598 1486.45 L2352.76 1486.45 L2352.76 47.2441 L156.598 47.2441  Z" fill="#ffffff" fill-rule="evenodd" fill-opacity="1"/>
<polyline clip-path="url(#clip191)" style="stroke:#000000; stroke-linecap:round; stroke-linejoin:round; stroke-width:2; stroke-opacity:0.1; fill:none" points="588.206,1486.45 588.206,47.2441 "/>
<polyline clip-path="url(#clip191)" style="stroke:#000000; stroke-linecap:round; stroke-linejoin:round; stroke-width:2; stroke-opacity:0.1; fill:none" points="1021.42,1486.45 1021.42,47.2441 "/>
<polyline clip-path="url(#clip191)" style="stroke:#000000; stroke-linecap:round; stroke-linejoin:round; stroke-width:2; stroke-opacity:0.1; fill:none" points="1454.63,1486.45 1454.63,47.2441 "/>
<polyline clip-path="url(#clip191)" style="stroke:#000000; stroke-linecap:round; stroke-linejoin:round; stroke-width:2; stroke-opacity:0.1; fill:none" points="1887.84,1486.45 1887.84,47.2441 "/>
<polyline clip-path="url(#clip191)" style="stroke:#000000; stroke-linecap:round; stroke-linejoin:round; stroke-width:2; stroke-opacity:0.1; fill:none" points="2321.05,1486.45 2321.05,47.2441 "/>
<polyline clip-path="url(#clip191)" style="stroke:#000000; stroke-linecap:round; stroke-linejoin:round; stroke-width:2; stroke-opacity:0.1; fill:none" points="156.598,1449.54 2352.76,1449.54 "/>
<polyline clip-path="url(#clip191)" style="stroke:#000000; stroke-linecap:round; stroke-linejoin:round; stroke-width:2; stroke-opacity:0.1; fill:none" points="156.598,1151.8 2352.76,1151.8 "/>
<polyline clip-path="url(#clip191)" style="stroke:#000000; stroke-linecap:round; stroke-linejoin:round; stroke-width:2; stroke-opacity:0.1; fill:none" points="156.598,854.05 2352.76,854.05 "/>
<polyline clip-path="url(#clip191)" style="stroke:#000000; stroke-linecap:round; stroke-linejoin:round; stroke-width:2; stroke-opacity:0.1; fill:none" points="156.598,556.303 2352.76,556.303 "/>
<polyline clip-path="url(#clip191)" style="stroke:#000000; stroke-linecap:round; stroke-linejoin:round; stroke-width:2; stroke-opacity:0.1; fill:none" points="156.598,258.556 2352.76,258.556 "/>
<polyline clip-path="url(#clip190)" style="stroke:#000000; stroke-linecap:round; stroke-linejoin:round; stroke-width:4; stroke-opacity:1; fill:none" points="156.598,1486.45 2352.76,1486.45 "/>
<polyline clip-path="url(#clip190)" style="stroke:#000000; stroke-linecap:round; stroke-linejoin:round; stroke-width:4; stroke-opacity:1; fill:none" points="588.206,1486.45 588.206,1467.55 "/>
<polyline clip-path="url(#clip190)" style="stroke:#000000; stroke-linecap:round; stroke-linejoin:round; stroke-width:4; stroke-opacity:1; fill:none" points="1021.42,1486.45 1021.42,1467.55 "/>
<polyline clip-path="url(#clip190)" style="stroke:#000000; stroke-linecap:round; stroke-linejoin:round; stroke-width:4; stroke-opacity:1; fill:none" points="1454.63,1486.45 1454.63,1467.55 "/>
<polyline clip-path="url(#clip190)" style="stroke:#000000; stroke-linecap:round; stroke-linejoin:round; stroke-width:4; stroke-opacity:1; fill:none" points="1887.84,1486.45 1887.84,1467.55 "/>
<polyline clip-path="url(#clip190)" style="stroke:#000000; stroke-linecap:round; stroke-linejoin:round; stroke-width:4; stroke-opacity:1; fill:none" points="2321.05,1486.45 2321.05,1467.55 "/>
<path clip-path="url(#clip190)" d="M534.491 1532.02 L564.166 1532.02 L564.166 1535.95 L534.491 1535.95 L534.491 1532.02 Z" fill="#000000" fill-rule="nonzero" fill-opacity="1" /><path clip-path="url(#clip190)" d="M584.259 1517.37 Q580.648 1517.37 578.819 1520.93 Q577.013 1524.47 577.013 1531.6 Q577.013 1538.71 578.819 1542.27 Q580.648 1545.82 584.259 1545.82 Q587.893 1545.82 589.699 1542.27 Q591.527 1538.71 591.527 1531.6 Q591.527 1524.47 589.699 1520.93 Q587.893 1517.37 584.259 1517.37 M584.259 1513.66 Q590.069 1513.66 593.125 1518.27 Q596.203 1522.85 596.203 1531.6 Q596.203 1540.33 593.125 1544.94 Q590.069 1549.52 584.259 1549.52 Q578.449 1549.52 575.37 1544.94 Q572.314 1540.33 572.314 1531.6 Q572.314 1522.85 575.37 1518.27 Q578.449 1513.66 584.259 1513.66 Z" fill="#000000" fill-rule="nonzero" fill-opacity="1" /><path clip-path="url(#clip190)" d="M604.421 1542.97 L609.305 1542.97 L609.305 1548.85 L604.421 1548.85 L604.421 1542.97 Z" fill="#000000" fill-rule="nonzero" fill-opacity="1" /><path clip-path="url(#clip190)" d="M632.337 1518.36 L620.532 1536.81 L632.337 1536.81 L632.337 1518.36 M631.11 1514.29 L636.99 1514.29 L636.99 1536.81 L641.921 1536.81 L641.921 1540.7 L636.99 1540.7 L636.99 1548.85 L632.337 1548.85 L632.337 1540.7 L616.736 1540.7 L616.736 1536.19 L631.11 1514.29 Z" fill="#000000" fill-rule="nonzero" fill-opacity="1" /><path clip-path="url(#clip190)" d="M968.742 1532.02 L998.418 1532.02 L998.418 1535.95 L968.742 1535.95 L968.742 1532.02 Z" fill="#000000" fill-rule="nonzero" fill-opacity="1" /><path clip-path="url(#clip190)" d="M1018.51 1517.37 Q1014.9 1517.37 1013.07 1520.93 Q1011.27 1524.47 1011.27 1531.6 Q1011.27 1538.71 1013.07 1542.27 Q1014.9 1545.82 1018.51 1545.82 Q1022.14 1545.82 1023.95 1542.27 Q1025.78 1538.71 1025.78 1531.6 Q1025.78 1524.47 1023.95 1520.93 Q1022.14 1517.37 1018.51 1517.37 M1018.51 1513.66 Q1024.32 1513.66 1027.38 1518.27 Q1030.46 1522.85 1030.46 1531.6 Q1030.46 1540.33 1027.38 1544.94 Q1024.32 1549.52 1018.51 1549.52 Q1012.7 1549.52 1009.62 1544.94 Q1006.57 1540.33 1006.57 1531.6 Q1006.57 1522.85 1009.62 1518.27 Q1012.7 1513.66 1018.51 1513.66 Z" fill="#000000" fill-rule="nonzero" fill-opacity="1" /><path clip-path="url(#clip190)" d="M1038.67 1542.97 L1043.56 1542.97 L1043.56 1548.85 L1038.67 1548.85 L1038.67 1542.97 Z" fill="#000000" fill-rule="nonzero" fill-opacity="1" /><path clip-path="url(#clip190)" d="M1057.77 1544.91 L1074.09 1544.91 L1074.09 1548.85 L1052.14 1548.85 L1052.14 1544.91 Q1054.81 1542.16 1059.39 1537.53 Q1064 1532.88 1065.18 1531.53 Q1067.42 1529.01 1068.3 1527.27 Q1069.2 1525.51 1069.2 1523.82 Q1069.2 1521.07 1067.26 1519.33 Q1065.34 1517.6 1062.24 1517.6 Q1060.04 1517.6 1057.58 1518.36 Q1055.15 1519.13 1052.38 1520.68 L1052.38 1515.95 Q1055.2 1514.82 1057.65 1514.24 Q1060.11 1513.66 1062.14 1513.66 Q1067.52 1513.66 1070.71 1516.35 Q1073.9 1519.03 1073.9 1523.52 Q1073.9 1525.65 1073.09 1527.57 Q1072.31 1529.47 1070.2 1532.07 Q1069.62 1532.74 1066.52 1535.95 Q1063.42 1539.15 1057.77 1544.91 Z" fill="#000000" fill-rule="nonzero" fill-opacity="1" /><path clip-path="url(#clip190)" d="M1432.01 1517.37 Q1428.4 1517.37 1426.57 1520.93 Q1424.77 1524.47 1424.77 1531.6 Q1424.77 1538.71 1426.57 1542.27 Q1428.4 1545.82 1432.01 1545.82 Q1435.64 1545.82 1437.45 1542.27 Q1439.28 1538.71 1439.28 1531.6 Q1439.28 1524.47 1437.45 1520.93 Q1435.64 1517.37 1432.01 1517.37 M1432.01 1513.66 Q1437.82 1513.66 1440.88 1518.27 Q1443.95 1522.85 1443.95 1531.6 Q1443.95 1540.33 1440.88 1544.94 Q1437.82 1549.52 1432.01 1549.52 Q1426.2 1549.52 1423.12 1544.94 Q1420.07 1540.33 1420.07 1531.6 Q1420.07 1522.85 1423.12 1518.27 Q1426.2 1513.66 1432.01 1513.66 Z" fill="#000000" fill-rule="nonzero" fill-opacity="1" /><path clip-path="url(#clip190)" d="M1452.17 1542.97 L1457.06 1542.97 L1457.06 1548.85 L1452.17 1548.85 L1452.17 1542.97 Z" fill="#000000" fill-rule="nonzero" fill-opacity="1" /><path clip-path="url(#clip190)" d="M1477.24 1517.37 Q1473.63 1517.37 1471.8 1520.93 Q1470 1524.47 1470 1531.6 Q1470 1538.71 1471.8 1542.27 Q1473.63 1545.82 1477.24 1545.82 Q1480.88 1545.82 1482.68 1542.27 Q1484.51 1538.71 1484.51 1531.6 Q1484.51 1524.47 1482.68 1520.93 Q1480.88 1517.37 1477.24 1517.37 M1477.24 1513.66 Q1483.05 1513.66 1486.11 1518.27 Q1489.19 1522.85 1489.19 1531.6 Q1489.19 1540.33 1486.11 1544.94 Q1483.05 1549.52 1477.24 1549.52 Q1471.43 1549.52 1468.35 1544.94 Q1465.3 1540.33 1465.3 1531.6 Q1465.3 1522.85 1468.35 1518.27 Q1471.43 1513.66 1477.24 1513.66 Z" fill="#000000" fill-rule="nonzero" fill-opacity="1" /><path clip-path="url(#clip190)" d="M1866.02 1517.37 Q1862.41 1517.37 1860.58 1520.93 Q1858.77 1524.47 1858.77 1531.6 Q1858.77 1538.71 1860.58 1542.27 Q1862.41 1545.82 1866.02 1545.82 Q1869.65 1545.82 1871.46 1542.27 Q1873.29 1538.71 1873.29 1531.6 Q1873.29 1524.47 1871.46 1520.93 Q1869.65 1517.37 1866.02 1517.37 M1866.02 1513.66 Q1871.83 1513.66 1874.88 1518.27 Q1877.96 1522.85 1877.96 1531.6 Q1877.96 1540.33 1874.88 1544.94 Q1871.83 1549.52 1866.02 1549.52 Q1860.21 1549.52 1857.13 1544.94 Q1854.07 1540.33 1854.07 1531.6 Q1854.07 1522.85 1857.13 1518.27 Q1860.21 1513.66 1866.02 1513.66 Z" fill="#000000" fill-rule="nonzero" fill-opacity="1" /><path clip-path="url(#clip190)" d="M1886.18 1542.97 L1891.07 1542.97 L1891.07 1548.85 L1886.18 1548.85 L1886.18 1542.97 Z" fill="#000000" fill-rule="nonzero" fill-opacity="1" /><path clip-path="url(#clip190)" d="M1905.28 1544.91 L1921.6 1544.91 L1921.6 1548.85 L1899.65 1548.85 L1899.65 1544.91 Q1902.32 1542.16 1906.9 1537.53 Q1911.51 1532.88 1912.69 1531.53 Q1914.93 1529.01 1915.81 1527.27 Q1916.71 1525.51 1916.71 1523.82 Q1916.71 1521.07 1914.77 1519.33 Q1912.85 1517.6 1909.75 1517.6 Q1907.55 1517.6 1905.09 1518.36 Q1902.66 1519.13 1899.88 1520.68 L1899.88 1515.95 Q1902.71 1514.82 1905.16 1514.24 Q1907.62 1513.66 1909.65 1513.66 Q1915.02 1513.66 1918.22 1516.35 Q1921.41 1519.03 1921.41 1523.52 Q1921.41 1525.65 1920.6 1527.57 Q1919.82 1529.47 1917.71 1532.07 Q1917.13 1532.74 1914.03 1535.95 Q1910.93 1539.15 1905.28 1544.91 Z" fill="#000000" fill-rule="nonzero" fill-opacity="1" /><path clip-path="url(#clip190)" d="M2298.19 1517.37 Q2294.58 1517.37 2292.75 1520.93 Q2290.94 1524.47 2290.94 1531.6 Q2290.94 1538.71 2292.75 1542.27 Q2294.58 1545.82 2298.19 1545.82 Q2301.82 1545.82 2303.63 1542.27 Q2305.46 1538.71 2305.46 1531.6 Q2305.46 1524.47 2303.63 1520.93 Q2301.82 1517.37 2298.19 1517.37 M2298.19 1513.66 Q2304 1513.66 2307.05 1518.27 Q2310.13 1522.85 2310.13 1531.6 Q2310.13 1540.33 2307.05 1544.94 Q2304 1549.52 2298.19 1549.52 Q2292.38 1549.52 2289.3 1544.94 Q2286.24 1540.33 2286.24 1531.6 Q2286.24 1522.85 2289.3 1518.27 Q2292.38 1513.66 2298.19 1513.66 Z" fill="#000000" fill-rule="nonzero" fill-opacity="1" /><path clip-path="url(#clip190)" d="M2318.35 1542.97 L2323.23 1542.97 L2323.23 1548.85 L2318.35 1548.85 L2318.35 1542.97 Z" fill="#000000" fill-rule="nonzero" fill-opacity="1" /><path clip-path="url(#clip190)" d="M2346.27 1518.36 L2334.46 1536.81 L2346.27 1536.81 L2346.27 1518.36 M2345.04 1514.29 L2350.92 1514.29 L2350.92 1536.81 L2355.85 1536.81 L2355.85 1540.7 L2350.92 1540.7 L2350.92 1548.85 L2346.27 1548.85 L2346.27 1540.7 L2330.66 1540.7 L2330.66 1536.19 L2345.04 1514.29 Z" fill="#000000" fill-rule="nonzero" fill-opacity="1" /><polyline clip-path="url(#clip190)" style="stroke:#000000; stroke-linecap:round; stroke-linejoin:round; stroke-width:4; stroke-opacity:1; fill:none" points="156.598,1486.45 156.598,47.2441 "/>
<polyline clip-path="url(#clip190)" style="stroke:#000000; stroke-linecap:round; stroke-linejoin:round; stroke-width:4; stroke-opacity:1; fill:none" points="156.598,1449.54 175.496,1449.54 "/>
<polyline clip-path="url(#clip190)" style="stroke:#000000; stroke-linecap:round; stroke-linejoin:round; stroke-width:4; stroke-opacity:1; fill:none" points="156.598,1151.8 175.496,1151.8 "/>
<polyline clip-path="url(#clip190)" style="stroke:#000000; stroke-linecap:round; stroke-linejoin:round; stroke-width:4; stroke-opacity:1; fill:none" points="156.598,854.05 175.496,854.05 "/>
<polyline clip-path="url(#clip190)" style="stroke:#000000; stroke-linecap:round; stroke-linejoin:round; stroke-width:4; stroke-opacity:1; fill:none" points="156.598,556.303 175.496,556.303 "/>
<polyline clip-path="url(#clip190)" style="stroke:#000000; stroke-linecap:round; stroke-linejoin:round; stroke-width:4; stroke-opacity:1; fill:none" points="156.598,258.556 175.496,258.556 "/>
<path clip-path="url(#clip190)" d="M63.4226 1435.34 Q59.8115 1435.34 57.9828 1438.91 Q56.1773 1442.45 56.1773 1449.58 Q56.1773 1456.69 57.9828 1460.25 Q59.8115 1463.79 63.4226 1463.79 Q67.0569 1463.79 68.8624 1460.25 Q70.6911 1456.69 70.6911 1449.58 Q70.6911 1442.45 68.8624 1438.91 Q67.0569 1435.34 63.4226 1435.34 M63.4226 1431.64 Q69.2328 1431.64 72.2883 1436.25 Q75.367 1440.83 75.367 1449.58 Q75.367 1458.31 72.2883 1462.91 Q69.2328 1467.5 63.4226 1467.5 Q57.6125 1467.5 54.5338 1462.91 Q51.4782 1458.31 51.4782 1449.58 Q51.4782 1440.83 54.5338 1436.25 Q57.6125 1431.64 63.4226 1431.64 Z" fill="#000000" fill-rule="nonzero" fill-opacity="1" /><path clip-path="url(#clip190)" d="M83.5845 1460.94 L88.4688 1460.94 L88.4688 1466.82 L83.5845 1466.82 L83.5845 1460.94 Z" fill="#000000" fill-rule="nonzero" fill-opacity="1" /><path clip-path="url(#clip190)" d="M108.654 1435.34 Q105.043 1435.34 103.214 1438.91 Q101.409 1442.45 101.409 1449.58 Q101.409 1456.69 103.214 1460.25 Q105.043 1463.79 108.654 1463.79 Q112.288 1463.79 114.094 1460.25 Q115.922 1456.69 115.922 1449.58 Q115.922 1442.45 114.094 1438.91 Q112.288 1435.34 108.654 1435.34 M108.654 1431.64 Q114.464 1431.64 117.52 1436.25 Q120.598 1440.83 120.598 1449.58 Q120.598 1458.31 117.52 1462.91 Q114.464 1467.5 108.654 1467.5 Q102.844 1467.5 99.765 1462.91 Q96.7095 1458.31 96.7095 1449.58 Q96.7095 1440.83 99.765 1436.25 Q102.844 1431.64 108.654 1431.64 Z" fill="#000000" fill-rule="nonzero" fill-opacity="1" /><path clip-path="url(#clip190)" d="M64.6495 1137.6 Q61.0384 1137.6 59.2097 1141.16 Q57.4041 1144.7 57.4041 1151.83 Q57.4041 1158.94 59.2097 1162.5 Q61.0384 1166.04 64.6495 1166.04 Q68.2837 1166.04 70.0892 1162.5 Q71.9179 1158.94 71.9179 1151.83 Q71.9179 1144.7 70.0892 1141.16 Q68.2837 1137.6 64.6495 1137.6 M64.6495 1133.89 Q70.4596 1133.89 73.5152 1138.5 Q76.5938 1143.08 76.5938 1151.83 Q76.5938 1160.56 73.5152 1165.17 Q70.4596 1169.75 64.6495 1169.75 Q58.8393 1169.75 55.7606 1165.17 Q52.7051 1160.56 52.7051 1151.83 Q52.7051 1143.08 55.7606 1138.5 Q58.8393 1133.89 64.6495 1133.89 Z" fill="#000000" fill-rule="nonzero" fill-opacity="1" /><path clip-path="url(#clip190)" d="M84.8114 1163.2 L89.6956 1163.2 L89.6956 1169.08 L84.8114 1169.08 L84.8114 1163.2 Z" fill="#000000" fill-rule="nonzero" fill-opacity="1" /><path clip-path="url(#clip190)" d="M100.691 1165.14 L108.33 1165.14 L108.33 1138.78 L100.02 1140.44 L100.02 1136.18 L108.283 1134.52 L112.959 1134.52 L112.959 1165.14 L120.598 1165.14 L120.598 1169.08 L100.691 1169.08 L100.691 1165.14 Z" fill="#000000" fill-rule="nonzero" fill-opacity="1" /><path clip-path="url(#clip190)" d="M65.0198 839.849 Q61.4087 839.849 59.58 843.414 Q57.7745 846.955 57.7745 854.085 Q57.7745 861.191 59.58 864.756 Q61.4087 868.298 65.0198 868.298 Q68.6541 868.298 70.4596 864.756 Q72.2883 861.191 72.2883 854.085 Q72.2883 846.955 70.4596 843.414 Q68.6541 839.849 65.0198 839.849 M65.0198 836.145 Q70.83 836.145 73.8855 840.752 Q76.9642 845.335 76.9642 854.085 Q76.9642 862.812 73.8855 867.418 Q70.83 872.002 65.0198 872.002 Q59.2097 872.002 56.131 867.418 Q53.0754 862.812 53.0754 854.085 Q53.0754 845.335 56.131 840.752 Q59.2097 836.145 65.0198 836.145 Z" fill="#000000" fill-rule="nonzero" fill-opacity="1" /><path clip-path="url(#clip190)" d="M85.1818 865.451 L90.066 865.451 L90.066 871.33 L85.1818 871.33 L85.1818 865.451 Z" fill="#000000" fill-rule="nonzero" fill-opacity="1" /><path clip-path="url(#clip190)" d="M104.279 867.395 L120.598 867.395 L120.598 871.33 L98.6539 871.33 L98.6539 867.395 Q101.316 864.64 105.899 860.011 Q110.506 855.358 111.686 854.015 Q113.932 851.492 114.811 849.756 Q115.714 847.997 115.714 846.307 Q115.714 843.553 113.77 841.816 Q111.848 840.08 108.746 840.08 Q106.547 840.08 104.094 840.844 Q101.663 841.608 98.8854 843.159 L98.8854 838.437 Q101.709 837.303 104.163 836.724 Q106.617 836.145 108.654 836.145 Q114.024 836.145 117.219 838.83 Q120.413 841.516 120.413 846.006 Q120.413 848.136 119.603 850.057 Q118.816 851.955 116.709 854.548 Q116.131 855.219 113.029 858.437 Q109.927 861.631 104.279 867.395 Z" fill="#000000" fill-rule="nonzero" fill-opacity="1" /><path clip-path="url(#clip190)" d="M64.0708 542.102 Q60.4597 542.102 58.631 545.667 Q56.8254 549.208 56.8254 556.338 Q56.8254 563.444 58.631 567.009 Q60.4597 570.551 64.0708 570.551 Q67.705 570.551 69.5105 567.009 Q71.3392 563.444 71.3392 556.338 Q71.3392 549.208 69.5105 545.667 Q67.705 542.102 64.0708 542.102 M64.0708 538.398 Q69.8809 538.398 72.9365 543.005 Q76.0151 547.588 76.0151 556.338 Q76.0151 565.065 72.9365 569.671 Q69.8809 574.254 64.0708 574.254 Q58.2606 574.254 55.1819 569.671 Q52.1264 565.065 52.1264 556.338 Q52.1264 547.588 55.1819 543.005 Q58.2606 538.398 64.0708 538.398 Z" fill="#000000" fill-rule="nonzero" fill-opacity="1" /><path clip-path="url(#clip190)" d="M84.2327 567.704 L89.1169 567.704 L89.1169 573.583 L84.2327 573.583 L84.2327 567.704 Z" fill="#000000" fill-rule="nonzero" fill-opacity="1" /><path clip-path="url(#clip190)" d="M113.469 554.949 Q116.825 555.667 118.7 557.935 Q120.598 560.204 120.598 563.537 Q120.598 568.653 117.08 571.453 Q113.561 574.254 107.08 574.254 Q104.904 574.254 102.589 573.815 Q100.297 573.398 97.8437 572.541 L97.8437 568.028 Q99.7882 569.162 102.103 569.741 Q104.418 570.319 106.941 570.319 Q111.339 570.319 113.631 568.583 Q115.945 566.847 115.945 563.537 Q115.945 560.481 113.793 558.768 Q111.663 557.032 107.844 557.032 L103.816 557.032 L103.816 553.19 L108.029 553.19 Q111.478 553.19 113.307 551.824 Q115.135 550.435 115.135 547.842 Q115.135 545.18 113.237 543.768 Q111.362 542.333 107.844 542.333 Q105.922 542.333 103.723 542.75 Q101.524 543.167 98.8854 544.046 L98.8854 539.88 Q101.547 539.139 103.862 538.768 Q106.2 538.398 108.26 538.398 Q113.584 538.398 116.686 540.829 Q119.788 543.236 119.788 547.356 Q119.788 550.227 118.145 552.217 Q116.501 554.185 113.469 554.949 Z" fill="#000000" fill-rule="nonzero" fill-opacity="1" /><path clip-path="url(#clip190)" d="M62.9365 244.355 Q59.3254 244.355 57.4967 247.919 Q55.6912 251.461 55.6912 258.591 Q55.6912 265.697 57.4967 269.262 Q59.3254 272.804 62.9365 272.804 Q66.5707 272.804 68.3763 269.262 Q70.205 265.697 70.205 258.591 Q70.205 251.461 68.3763 247.919 Q66.5707 244.355 62.9365 244.355 M62.9365 240.651 Q68.7467 240.651 71.8022 245.257 Q74.8809 249.841 74.8809 258.591 Q74.8809 267.318 71.8022 271.924 Q68.7467 276.507 62.9365 276.507 Q57.1264 276.507 54.0477 271.924 Q50.9921 267.318 50.9921 258.591 Q50.9921 249.841 54.0477 245.257 Q57.1264 240.651 62.9365 240.651 Z" fill="#000000" fill-rule="nonzero" fill-opacity="1" /><path clip-path="url(#clip190)" d="M83.0984 269.956 L87.9827 269.956 L87.9827 275.836 L83.0984 275.836 L83.0984 269.956 Z" fill="#000000" fill-rule="nonzero" fill-opacity="1" /><path clip-path="url(#clip190)" d="M111.015 245.35 L99.2095 263.799 L111.015 263.799 L111.015 245.35 M109.788 241.276 L115.668 241.276 L115.668 263.799 L120.598 263.799 L120.598 267.688 L115.668 267.688 L115.668 275.836 L111.015 275.836 L111.015 267.688 L95.4132 267.688 L95.4132 263.174 L109.788 241.276 Z" fill="#000000" fill-rule="nonzero" fill-opacity="1" /><circle clip-path="url(#clip191)" cx="1538.01" cy="1236.12" r="14.4" fill="#808080" fill-rule="evenodd" fill-opacity="1" stroke="#000000" stroke-opacity="1" stroke-width="3.2"/>
<circle clip-path="url(#clip191)" cx="1415.8" cy="1445.72" r="14.4" fill="#808080" fill-rule="evenodd" fill-opacity="1" stroke="#000000" stroke-opacity="1" stroke-width="3.2"/>
<circle clip-path="url(#clip191)" cx="2290.6" cy="1310.34" r="14.4" fill="#808080" fill-rule="evenodd" fill-opacity="1" stroke="#000000" stroke-opacity="1" stroke-width="3.2"/>
<circle clip-path="url(#clip191)" cx="218.754" cy="87.9763" r="14.4" fill="#808080" fill-rule="evenodd" fill-opacity="1" stroke="#000000" stroke-opacity="1" stroke-width="3.2"/>
<path clip-path="url(#clip190)" d="M1542.3 1243.55 Q1533.27 1243.55 1529.79 1245.62 Q1526.3 1247.69 1526.3 1252.67 Q1526.3 1256.64 1528.89 1258.99 Q1531.53 1261.3 1536.02 1261.3 Q1542.22 1261.3 1545.95 1256.92 Q1549.72 1252.51 1549.72 1245.22 L1549.72 1243.55 L1542.3 1243.55 M1557.17 1240.48 L1557.17 1266.36 L1549.72 1266.36 L1549.72 1259.47 Q1547.16 1263.61 1543.36 1265.59 Q1539.55 1267.54 1534.04 1267.54 Q1527.07 1267.54 1522.94 1263.65 Q1518.85 1259.72 1518.85 1253.16 Q1518.85 1245.5 1523.95 1241.61 Q1529.1 1237.72 1539.26 1237.72 L1549.72 1237.72 L1549.72 1236.99 Q1549.72 1231.85 1546.31 1229.05 Q1542.95 1226.22 1536.83 1226.22 Q1532.95 1226.22 1529.26 1227.15 Q1525.57 1228.08 1522.17 1229.94 L1522.17 1223.06 Q1526.26 1221.48 1530.11 1220.71 Q1533.96 1219.9 1537.6 1219.9 Q1547.45 1219.9 1552.31 1225 Q1557.17 1230.11 1557.17 1240.48 Z" fill="#000000" fill-rule="nonzero" fill-opacity="1" /><path clip-path="url(#clip190)" d="M1428.35 1453.31 Q1428.35 1445.09 1424.95 1440.43 Q1421.59 1435.73 1415.68 1435.73 Q1409.76 1435.73 1406.36 1440.43 Q1403 1445.09 1403 1453.31 Q1403 1461.53 1406.36 1466.23 Q1409.76 1470.89 1415.68 1470.89 Q1421.59 1470.89 1424.95 1466.23 Q1428.35 1461.53 1428.35 1453.31 M1403 1437.47 Q1405.35 1433.42 1408.91 1431.48 Q1412.52 1429.49 1417.5 1429.49 Q1425.76 1429.49 1430.91 1436.05 Q1436.09 1442.62 1436.09 1453.31 Q1436.09 1464.01 1430.91 1470.57 Q1425.76 1477.13 1417.5 1477.13 Q1412.52 1477.13 1408.91 1475.19 Q1405.35 1473.2 1403 1469.15 L1403 1475.96 L1395.5 1475.96 L1395.5 1412.92 L1403 1412.92 L1403 1437.47 Z" fill="#000000" fill-rule="nonzero" fill-opacity="1" /><path clip-path="url(#clip190)" d="M2308.55 1296.95 L2308.55 1303.92 Q2305.39 1302.18 2302.19 1301.32 Q2299.03 1300.43 2295.79 1300.43 Q2288.53 1300.43 2284.52 1305.05 Q2280.51 1309.63 2280.51 1317.93 Q2280.51 1326.24 2284.52 1330.86 Q2288.53 1335.43 2295.79 1335.43 Q2299.03 1335.43 2302.19 1334.58 Q2305.39 1333.69 2308.55 1331.95 L2308.55 1338.84 Q2305.43 1340.29 2302.06 1341.02 Q2298.74 1341.75 2294.98 1341.75 Q2284.73 1341.75 2278.69 1335.31 Q2272.65 1328.87 2272.65 1317.93 Q2272.65 1306.83 2278.73 1300.47 Q2284.85 1294.11 2295.46 1294.11 Q2298.9 1294.11 2302.19 1294.84 Q2305.47 1295.53 2308.55 1296.95 Z" fill="#000000" fill-rule="nonzero" fill-opacity="1" /><path clip-path="url(#clip190)" d="M231.575 79.7327 L231.575 55.1842 L239.028 55.1842 L239.028 118.216 L231.575 118.216 L231.575 111.411 Q229.225 115.462 225.62 117.447 Q222.055 119.391 217.032 119.391 Q208.809 119.391 203.624 112.829 Q198.479 106.266 198.479 95.5717 Q198.479 84.8773 203.624 78.3149 Q208.809 71.7524 217.032 71.7524 Q222.055 71.7524 225.62 73.7373 Q229.225 75.6818 231.575 79.7327 M206.176 95.5717 Q206.176 103.795 209.538 108.494 Q212.941 113.153 218.855 113.153 Q224.769 113.153 228.172 108.494 Q231.575 103.795 231.575 95.5717 Q231.575 87.3484 228.172 82.6898 Q224.769 77.9908 218.855 77.9908 Q212.941 77.9908 209.538 82.6898 Q206.176 87.3484 206.176 95.5717 Z" fill="#000000" fill-rule="nonzero" fill-opacity="1" /><path clip-path="url(#clip190)" d="M2007.5 198.898 L2279.55 198.898 L2279.55 95.2176 L2007.5 95.2176  Z" fill="#ffffff" fill-rule="evenodd" fill-opacity="1"/>
<polyline clip-path="url(#clip190)" style="stroke:#000000; stroke-linecap:round; stroke-linejoin:round; stroke-width:4; stroke-opacity:1; fill:none" points="2007.5,198.898 2279.55,198.898 2279.55,95.2176 2007.5,95.2176 2007.5,198.898 "/>
<circle clip-path="url(#clip190)" cx="2105.11" cy="147.058" r="20.48" fill="#808080" fill-rule="evenodd" fill-opacity="1" stroke="#000000" stroke-opacity="1" stroke-width="4.55111"/>
<path clip-path="url(#clip190)" d="M2216.56 166.745 Q2214.76 171.375 2213.04 172.787 Q2211.33 174.199 2208.46 174.199 L2205.06 174.199 L2205.06 170.634 L2207.56 170.634 Q2209.32 170.634 2210.29 169.8 Q2211.26 168.967 2212.44 165.865 L2213.2 163.921 L2202.72 138.412 L2207.23 138.412 L2215.33 158.689 L2223.44 138.412 L2227.95 138.412 L2216.56 166.745 Z" fill="#000000" fill-rule="nonzero" fill-opacity="1" /><path clip-path="url(#clip190)" d="M2235.24 160.402 L2242.88 160.402 L2242.88 134.037 L2234.57 135.703 L2234.57 131.444 L2242.83 129.778 L2247.51 129.778 L2247.51 160.402 L2255.15 160.402 L2255.15 164.338 L2235.24 164.338 L2235.24 160.402 Z" fill="#000000" fill-rule="nonzero" fill-opacity="1" /></svg>
