<?xml version="1.0" encoding="utf-8"?>
<svg xmlns="http://www.w3.org/2000/svg" xmlns:xlink="http://www.w3.org/1999/xlink" width="600" height="400" viewBox="0 0 2400 1600">
<defs>
  <clipPath id="clip750">
    <rect x="0" y="0" width="2400" height="1600"/>
  </clipPath>
</defs>
<path clip-path="url(#clip750)" d="M0 1600 L2400 1600 L2400 0 L0 0  Z" fill="#ffffff" fill-rule="evenodd" fill-opacity="1"/>
<defs>
  <clipPath id="clip751">
    <rect x="186" y="47" width="2167" height="1440"/>
  </clipPath>
</defs>
<path clip-path="url(#clip750)" d="M186.274 1486.45 L2352.76 1486.45 L2352.76 47.2441 L186.274 47.2441  Z" fill="#ffffff" fill-rule="evenodd" fill-opacity="1"/>
<polyline clip-path="url(#clip751)" style="stroke:#000000; stroke-linecap:round; stroke-linejoin:round; stroke-width:2; stroke-opacity:0.1; fill:none" points="331.179,1486.45 331.179,47.2441 "/>
<polyline clip-path="url(#clip751)" style="stroke:#000000; stroke-linecap:round; stroke-linejoin:round; stroke-width:2; stroke-opacity:0.1; fill:none" points="866.566,1486.45 866.566,47.2441 "/>
<polyline clip-path="url(#clip751)" style="stroke:#000000; stroke-linecap:round; stroke-linejoin:round; stroke-width:2; stroke-opacity:0.1; fill:none" points="1401.95,1486.45 1401.95,47.2441 "/>
<polyline clip-path="url(#clip751)" style="stroke:#000000; stroke-linecap:round; stroke-linejoin:round; stroke-width:2; stroke-opacity:0.1; fill:none" points="1937.34,1486.45 1937.34,47.2441 "/>
<polyline clip-path="url(#clip751)" style="stroke:#000000; stroke-linecap:round; stroke-linejoin:round; stroke-width:2; stroke-opacity:0.1; fill:none" points="186.274,1450.48 2352.76,1450.48 "/>
<polyline clip-path="url(#clip751)" style="stroke:#000000; stroke-linecap:round; stroke-linejoin:round; stroke-width:2; stroke-opacity:0.1; fill:none" points="186.274,1203.5 2352.76,1203.5 "/>
<polyline clip-path="url(#clip751)" style="stroke:#000000; stroke-linecap:round; stroke-linejoin:round; stroke-width:2; stroke-opacity:0.1; fill:none" points="186.274,956.532 2352.76,956.532 "/>
<polyline clip-path="url(#clip751)" style="stroke:#000000; stroke-linecap:round; stroke-linejoin:round; stroke-width:2; stroke-opacity:0.1; fill:none" points="186.274,709.561 2352.76,709.561 "/>
<polyline clip-path="url(#clip751)" style="stroke:#000000; stroke-linecap:round; stroke-linejoin:round; stroke-width:2; stroke-opacity:0.1; fill:none" points="186.274,462.589 2352.76,462.589 "/>
<polyline clip-path="url(#clip751)" style="stroke:#000000; stroke-linecap:round; stroke-linejoin:round; stroke-width:2; stroke-opacity:0.1; fill:none" points="186.274,215.617 2352.76,215.617 "/>
<polyline clip-path="url(#clip750)" style="stroke:#000000; stroke-linecap:round; stroke-linejoin:round; stroke-width:4; stroke-opacity:1; fill:none" points="186.274,1486.45 2352.76,1486.45 "/>
<polyline clip-path="url(#clip750)" style="stroke:#000000; stroke-linecap:round; stroke-linejoin:round; stroke-width:4; stroke-opacity:1; fill:none" points="331.179,1486.45 331.179,1467.55 "/>
<polyline clip-path="url(#clip750)" style="stroke:#000000; stroke-linecap:round; stroke-linejoin:round; stroke-width:4; stroke-opacity:1; fill:none" points="866.566,1486.45 866.566,1467.55 "/>
<polyline clip-path="url(#clip750)" style="stroke:#000000; stroke-linecap:round; stroke-linejoin:round; stroke-width:4; stroke-opacity:1; fill:none" points="1401.95,1486.45 1401.95,1467.55 "/>
<polyline clip-path="url(#clip750)" style="stroke:#000000; stroke-linecap:round; stroke-linejoin:round; stroke-width:4; stroke-opacity:1; fill:none" points="1937.34,1486.45 1937.34,1467.55 "/>
<path clip-path="url(#clip750)" d="M277.464 1532.02 L307.139 1532.02 L307.139 1535.95 L277.464 1535.95 L277.464 1532.02 Z" fill="#000000" fill-rule="nonzero" fill-opacity="1" /><path clip-path="url(#clip750)" d="M327.232 1517.37 Q323.621 1517.37 321.792 1520.93 Q319.987 1524.47 319.987 1531.6 Q319.987 1538.71 321.792 1542.27 Q323.621 1545.82 327.232 1545.82 Q330.866 1545.82 332.672 1542.27 Q334.5 1538.71 334.5 1531.6 Q334.5 1524.47 332.672 1520.93 Q330.866 1517.37 327.232 1517.37 M327.232 1513.66 Q333.042 1513.66 336.098 1518.27 Q339.176 1522.85 339.176 1531.6 Q339.176 1540.33 336.098 1544.94 Q333.042 1549.52 327.232 1549.52 Q321.422 1549.52 318.343 1544.94 Q315.288 1540.33 315.288 1531.6 Q315.288 1522.85 318.343 1518.27 Q321.422 1513.66 327.232 1513.66 Z" fill="#000000" fill-rule="nonzero" fill-opacity="1" /><path clip-path="url(#clip750)" d="M347.394 1542.97 L352.278 1542.97 L352.278 1548.85 L347.394 1548.85 L347.394 1542.97 Z" fill="#000000" fill-rule="nonzero" fill-opacity="1" /><path clip-path="url(#clip750)" d="M375.31 1518.36 L363.505 1536.81 L375.31 1536.81 L375.31 1518.36 M374.084 1514.29 L379.963 1514.29 L379.963 1536.81 L384.894 1536.81 L384.894 1540.7 L379.963 1540.7 L379.963 1548.85 L375.31 1548.85 L375.31 1540.7 L359.709 1540.7 L359.709 1536.19 L374.084 1514.29 Z" fill="#000000" fill-rule="nonzero" fill-opacity="1" /><path clip-path="url(#clip750)" d="M813.892 1532.02 L843.568 1532.02 L843.568 1535.95 L813.892 1535.95 L813.892 1532.02 Z" fill="#000000" fill-rule="nonzero" fill-opacity="1" /><path clip-path="url(#clip750)" d="M863.661 1517.37 Q860.05 1517.37 858.221 1520.93 Q856.415 1524.47 856.415 1531.6 Q856.415 1538.71 858.221 1542.27 Q860.05 1545.82 863.661 1545.82 Q867.295 1545.82 869.101 1542.27 Q870.929 1538.71 870.929 1531.6 Q870.929 1524.47 869.101 1520.93 Q867.295 1517.37 863.661 1517.37 M863.661 1513.66 Q869.471 1513.66 872.526 1518.27 Q875.605 1522.85 875.605 1531.6 Q875.605 1540.33 872.526 1544.94 Q869.471 1549.52 863.661 1549.52 Q857.851 1549.52 854.772 1544.94 Q851.716 1540.33 851.716 1531.6 Q851.716 1522.85 854.772 1518.27 Q857.851 1513.66 863.661 1513.66 Z" fill="#000000" fill-rule="nonzero" fill-opacity="1" /><path clip-path="url(#clip750)" d="M883.823 1542.97 L888.707 1542.97 L888.707 1548.85 L883.823 1548.85 L883.823 1542.97 Z" fill="#000000" fill-rule="nonzero" fill-opacity="1" /><path clip-path="url(#clip750)" d="M902.92 1544.91 L919.239 1544.91 L919.239 1548.85 L897.295 1548.85 L897.295 1544.91 Q899.957 1542.16 904.54 1537.53 Q909.147 1532.88 910.327 1531.53 Q912.572 1529.01 913.452 1527.27 Q914.355 1525.51 914.355 1523.82 Q914.355 1521.07 912.41 1519.33 Q910.489 1517.6 907.387 1517.6 Q905.188 1517.6 902.735 1518.36 Q900.304 1519.13 897.526 1520.68 L897.526 1515.95 Q900.35 1514.82 902.804 1514.24 Q905.258 1513.66 907.295 1513.66 Q912.665 1513.66 915.86 1516.35 Q919.054 1519.03 919.054 1523.52 Q919.054 1525.65 918.244 1527.57 Q917.457 1529.47 915.35 1532.07 Q914.772 1532.74 911.67 1535.95 Q908.568 1539.15 902.92 1544.91 Z" fill="#000000" fill-rule="nonzero" fill-opacity="1" /><path clip-path="url(#clip750)" d="M1379.34 1517.37 Q1375.73 1517.37 1373.9 1520.93 Q1372.09 1524.47 1372.09 1531.6 Q1372.09 1538.71 1373.9 1542.27 Q1375.73 1545.82 1379.34 1545.82 Q1382.97 1545.82 1384.78 1542.27 Q1386.61 1538.71 1386.61 1531.6 Q1386.61 1524.47 1384.78 1520.93 Q1382.97 1517.37 1379.34 1517.37 M1379.34 1513.66 Q1385.15 1513.66 1388.2 1518.27 Q1391.28 1522.85 1391.28 1531.6 Q1391.28 1540.33 1388.2 1544.94 Q1385.15 1549.52 1379.34 1549.52 Q1373.53 1549.52 1370.45 1544.94 Q1367.39 1540.33 1367.39 1531.6 Q1367.39 1522.85 1370.45 1518.27 Q1373.53 1513.66 1379.34 1513.66 Z" fill="#000000" fill-rule="nonzero" fill-opacity="1" /><path clip-path="url(#clip750)" d="M1399.5 1542.97 L1404.38 1542.97 L1404.38 1548.85 L1399.5 1548.85 L1399.5 1542.97 Z" fill="#000000" fill-rule="nonzero" fill-opacity="1" /><path clip-path="url(#clip750)" d="M1424.57 1517.37 Q1420.96 1517.37 1419.13 1520.93 Q1417.32 1524.47 1417.32 1531.6 Q1417.32 1538.71 1419.13 1542.27 Q1420.96 1545.82 1424.57 1545.82 Q1428.2 1545.82 1430.01 1542.27 Q1431.84 1538.71 1431.84 1531.6 Q1431.84 1524.47 1430.01 1520.93 Q1428.2 1517.37 1424.57 1517.37 M1424.57 1513.66 Q1430.38 1513.66 1433.43 1518.27 Q1436.51 1522.85 1436.51 1531.6 Q1436.51 1540.33 1433.43 1544.94 Q1430.38 1549.52 1424.57 1549.52 Q1418.76 1549.52 1415.68 1544.94 Q1412.62 1540.33 1412.62 1531.6 Q1412.62 1522.85 1415.68 1518.27 Q1418.76 1513.66 1424.57 1513.66 Z" fill="#000000" fill-rule="nonzero" fill-opacity="1" /><path clip-path="url(#clip750)" d="M1915.52 1517.37 Q1911.91 1517.37 1910.08 1520.93 Q1908.28 1524.47 1908.28 1531.6 Q1908.28 1538.71 1910.08 1542.27 Q1911.91 1545.82 1915.52 1545.82 Q1919.16 1545.82 1920.96 1542.27 Q1922.79 1538.71 1922.79 1531.6 Q1922.79 1524.47 1920.96 1520.93 Q1919.16 1517.37 1915.52 1517.37 M1915.52 1513.66 Q1921.33 1513.66 1924.39 1518.27 Q1927.47 1522.85 1927.47 1531.6 Q1927.47 1540.33 1924.39 1544.94 Q1921.33 1549.52 1915.52 1549.52 Q1909.71 1549.52 1906.63 1544.94 Q1903.58 1540.33 1903.58 1531.6 Q1903.58 1522.85 1906.63 1518.27 Q1909.71 1513.66 1915.52 1513.66 Z" fill="#000000" fill-rule="nonzero" fill-opacity="1" /><path clip-path="url(#clip750)" d="M1935.68 1542.97 L1940.57 1542.97 L1940.57 1548.85 L1935.68 1548.85 L1935.68 1542.97 Z" fill="#000000" fill-rule="nonzero" fill-opacity="1" /><path clip-path="url(#clip750)" d="M1954.78 1544.91 L1971.1 1544.91 L1971.1 1548.85 L1949.16 1548.85 L1949.16 1544.91 Q1951.82 1542.16 1956.4 1537.53 Q1961.01 1532.88 1962.19 1531.53 Q1964.43 1529.01 1965.31 1527.27 Q1966.22 1525.51 1966.22 1523.82 Q1966.22 1521.07 1964.27 1519.33 Q1962.35 1517.6 1959.25 1517.6 Q1957.05 1517.6 1954.6 1518.36 Q1952.17 1519.13 1949.39 1520.68 L1949.39 1515.95 Q1952.21 1514.82 1954.67 1514.24 Q1957.12 1513.66 1959.16 1513.66 Q1964.53 1513.66 1967.72 1516.35 Q1970.92 1519.03 1970.92 1523.52 Q1970.92 1525.65 1970.11 1527.57 Q1969.32 1529.47 1967.21 1532.07 Q1966.63 1532.74 1963.53 1535.95 Q1960.43 1539.15 1954.78 1544.91 Z" fill="#000000" fill-rule="nonzero" fill-opacity="1" /><polyline clip-path="url(#clip750)" style="stroke:#000000; stroke-linecap:round; stroke-linejoin:round; stroke-width:4; stroke-opacity:1; fill:none" points="186.274,1486.45 186.274,47.2441 "/>
<polyline clip-path="url(#clip750)" style="stroke:#000000; stroke-linecap:round; stroke-linejoin:round; stroke-width:4; stroke-opacity:1; fill:none" points="186.274,1450.48 205.172,1450.48 "/>
<polyline clip-path="url(#clip750)" style="stroke:#000000; stroke-linecap:round; stroke-linejoin:round; stroke-width:4; stroke-opacity:1; fill:none" points="186.274,1203.5 205.172,1203.5 "/>
<polyline clip-path="url(#clip750)" style="stroke:#000000; stroke-linecap:round; stroke-linejoin:round; stroke-width:4; stroke-opacity:1; fill:none" points="186.274,956.532 205.172,956.532 "/>
<polyline clip-path="url(#clip750)" style="stroke:#000000; stroke-linecap:round; stroke-linejoin:round; stroke-width:4; stroke-opacity:1; fill:none" points="186.274,709.561 205.172,709.561 "/>
<polyline clip-path="url(#clip750)" style="stroke:#000000; stroke-linecap:round; stroke-linejoin:round; stroke-width:4; stroke-opacity:1; fill:none" points="186.274,462.589 205.172,462.589 "/>
<polyline clip-path="url(#clip750)" style="stroke:#000000; stroke-linecap:round; stroke-linejoin:round; stroke-width:4; stroke-opacity:1; fill:none" points="186.274,215.617 205.172,215.617 "/>
<path clip-path="url(#clip750)" d="M62.9365 1436.27 Q59.3254 1436.27 57.4967 1439.84 Q55.6912 1443.38 55.6912 1450.51 Q55.6912 1457.62 57.4967 1461.18 Q59.3254 1464.72 62.9365 1464.72 Q66.5707 1464.72 68.3763 1461.18 Q70.205 1457.62 70.205 1450.51 Q70.205 1443.38 68.3763 1439.84 Q66.5707 1436.27 62.9365 1436.27 M62.9365 1432.57 Q68.7467 1432.57 71.8022 1437.18 Q74.8809 1441.76 74.8809 1450.51 Q74.8809 1459.24 71.8022 1463.84 Q68.7467 1468.43 62.9365 1468.43 Q57.1264 1468.43 54.0477 1463.84 Q50.9921 1459.24 50.9921 1450.51 Q50.9921 1441.76 54.0477 1437.18 Q57.1264 1432.57 62.9365 1432.57 Z" fill="#000000" fill-rule="nonzero" fill-opacity="1" /><path clip-path="url(#clip750)" d="M83.0984 1461.88 L87.9827 1461.88 L87.9827 1467.76 L83.0984 1467.76 L83.0984 1461.88 Z" fill="#000000" fill-rule="nonzero" fill-opacity="1" /><path clip-path="url(#clip750)" d="M108.168 1436.27 Q104.557 1436.27 102.728 1439.84 Q100.922 1443.38 100.922 1450.51 Q100.922 1457.62 102.728 1461.18 Q104.557 1464.72 108.168 1464.72 Q111.802 1464.72 113.608 1461.18 Q115.436 1457.62 115.436 1450.51 Q115.436 1443.38 113.608 1439.84 Q111.802 1436.27 108.168 1436.27 M108.168 1432.57 Q113.978 1432.57 117.033 1437.18 Q120.112 1441.76 120.112 1450.51 Q120.112 1459.24 117.033 1463.84 Q113.978 1468.43 108.168 1468.43 Q102.358 1468.43 99.2789 1463.84 Q96.2234 1459.24 96.2234 1450.51 Q96.2234 1441.76 99.2789 1437.18 Q102.358 1432.57 108.168 1432.57 Z" fill="#000000" fill-rule="nonzero" fill-opacity="1" /><path clip-path="url(#clip750)" d="M138.33 1436.27 Q134.719 1436.27 132.89 1439.84 Q131.084 1443.38 131.084 1450.51 Q131.084 1457.62 132.89 1461.18 Q134.719 1464.72 138.33 1464.72 Q141.964 1464.72 143.769 1461.18 Q145.598 1457.62 145.598 1450.51 Q145.598 1443.38 143.769 1439.84 Q141.964 1436.27 138.33 1436.27 M138.33 1432.57 Q144.14 1432.57 147.195 1437.18 Q150.274 1441.76 150.274 1450.51 Q150.274 1459.24 147.195 1463.84 Q144.14 1468.43 138.33 1468.43 Q132.519 1468.43 129.441 1463.84 Q126.385 1459.24 126.385 1450.51 Q126.385 1441.76 129.441 1437.18 Q132.519 1432.57 138.33 1432.57 Z" fill="#000000" fill-rule="nonzero" fill-opacity="1" /><path clip-path="url(#clip750)" d="M63.9319 1189.3 Q60.3208 1189.3 58.4921 1192.87 Q56.6865 1196.41 56.6865 1203.54 Q56.6865 1210.65 58.4921 1214.21 Q60.3208 1217.75 63.9319 1217.75 Q67.5661 1217.75 69.3717 1214.21 Q71.2004 1210.65 71.2004 1203.54 Q71.2004 1196.41 69.3717 1192.87 Q67.5661 1189.3 63.9319 1189.3 M63.9319 1185.6 Q69.742 1185.6 72.7976 1190.21 Q75.8763 1194.79 75.8763 1203.54 Q75.8763 1212.27 72.7976 1216.87 Q69.742 1221.46 63.9319 1221.46 Q58.1217 1221.46 55.043 1216.87 Q51.9875 1212.27 51.9875 1203.54 Q51.9875 1194.79 55.043 1190.21 Q58.1217 1185.6 63.9319 1185.6 Z" fill="#000000" fill-rule="nonzero" fill-opacity="1" /><path clip-path="url(#clip750)" d="M84.0938 1214.9 L88.978 1214.9 L88.978 1220.78 L84.0938 1220.78 L84.0938 1214.9 Z" fill="#000000" fill-rule="nonzero" fill-opacity="1" /><path clip-path="url(#clip750)" d="M109.163 1189.3 Q105.552 1189.3 103.723 1192.87 Q101.918 1196.41 101.918 1203.54 Q101.918 1210.65 103.723 1214.21 Q105.552 1217.75 109.163 1217.75 Q112.797 1217.75 114.603 1214.21 Q116.432 1210.65 116.432 1203.54 Q116.432 1196.41 114.603 1192.87 Q112.797 1189.3 109.163 1189.3 M109.163 1185.6 Q114.973 1185.6 118.029 1190.21 Q121.107 1194.79 121.107 1203.54 Q121.107 1212.27 118.029 1216.87 Q114.973 1221.46 109.163 1221.46 Q103.353 1221.46 100.274 1216.87 Q97.2187 1212.27 97.2187 1203.54 Q97.2187 1194.79 100.274 1190.21 Q103.353 1185.6 109.163 1185.6 Z" fill="#000000" fill-rule="nonzero" fill-opacity="1" /><path clip-path="url(#clip750)" d="M129.371 1186.22 L147.728 1186.22 L147.728 1190.16 L133.654 1190.16 L133.654 1198.63 Q134.672 1198.28 135.691 1198.12 Q136.709 1197.94 137.728 1197.94 Q143.515 1197.94 146.894 1201.11 Q150.274 1204.28 150.274 1209.7 Q150.274 1215.27 146.802 1218.38 Q143.33 1221.46 137.01 1221.46 Q134.834 1221.46 132.566 1221.09 Q130.32 1220.71 127.913 1219.97 L127.913 1215.27 Q129.996 1216.41 132.219 1216.96 Q134.441 1217.52 136.918 1217.52 Q140.922 1217.52 143.26 1215.41 Q145.598 1213.31 145.598 1209.7 Q145.598 1206.09 143.26 1203.98 Q140.922 1201.87 136.918 1201.87 Q135.043 1201.87 133.168 1202.29 Q131.316 1202.71 129.371 1203.59 L129.371 1186.22 Z" fill="#000000" fill-rule="nonzero" fill-opacity="1" /><path clip-path="url(#clip750)" d="M62.9365 942.331 Q59.3254 942.331 57.4967 945.896 Q55.6912 949.438 55.6912 956.567 Q55.6912 963.674 57.4967 967.238 Q59.3254 970.78 62.9365 970.78 Q66.5707 970.78 68.3763 967.238 Q70.205 963.674 70.205 956.567 Q70.205 949.438 68.3763 945.896 Q66.5707 942.331 62.9365 942.331 M62.9365 938.627 Q68.7467 938.627 71.8022 943.234 Q74.8809 947.817 74.8809 956.567 Q74.8809 965.294 71.8022 969.9 Q68.7467 974.484 62.9365 974.484 Q57.1264 974.484 54.0477 969.9 Q50.9921 965.294 50.9921 956.567 Q50.9921 947.817 54.0477 943.234 Q57.1264 938.627 62.9365 938.627 Z" fill="#000000" fill-rule="nonzero" fill-opacity="1" /><path clip-path="url(#clip750)" d="M83.0984 967.933 L87.9827 967.933 L87.9827 973.812 L83.0984 973.812 L83.0984 967.933 Z" fill="#000000" fill-rule="nonzero" fill-opacity="1" /><path clip-path="url(#clip750)" d="M98.978 969.877 L106.617 969.877 L106.617 943.512 L98.3067 945.178 L98.3067 940.919 L106.571 939.252 L111.246 939.252 L111.246 969.877 L118.885 969.877 L118.885 973.812 L98.978 973.812 L98.978 969.877 Z" fill="#000000" fill-rule="nonzero" fill-opacity="1" /><path clip-path="url(#clip750)" d="M138.33 942.331 Q134.719 942.331 132.89 945.896 Q131.084 949.438 131.084 956.567 Q131.084 963.674 132.89 967.238 Q134.719 970.78 138.33 970.78 Q141.964 970.78 143.769 967.238 Q145.598 963.674 145.598 956.567 Q145.598 949.438 143.769 945.896 Q141.964 942.331 138.33 942.331 M138.33 938.627 Q144.14 938.627 147.195 943.234 Q150.274 947.817 150.274 956.567 Q150.274 965.294 147.195 969.9 Q144.14 974.484 138.33 974.484 Q132.519 974.484 129.441 969.9 Q126.385 965.294 126.385 956.567 Q126.385 947.817 129.441 943.234 Q132.519 938.627 138.33 938.627 Z" fill="#000000" fill-rule="nonzero" fill-opacity="1" /><path clip-path="url(#clip750)" d="M63.9319 695.359 Q60.3208 695.359 58.4921 698.924 Q56.6865 702.466 56.6865 709.595 Q56.6865 716.702 58.4921 720.267 Q60.3208 723.808 63.9319 723.808 Q67.5661 723.808 69.3717 720.267 Q71.2004 716.702 71.2004 709.595 Q71.2004 702.466 69.3717 698.924 Q67.5661 695.359 63.9319 695.359 M63.9319 691.656 Q69.742 691.656 72.7976 696.262 Q75.8763 700.845 75.8763 709.595 Q75.8763 718.322 72.7976 722.929 Q69.742 727.512 63.9319 727.512 Q58.1217 727.512 55.043 722.929 Q51.9875 718.322 51.9875 709.595 Q51.9875 700.845 55.043 696.262 Q58.1217 691.656 63.9319 691.656 Z" fill="#000000" fill-rule="nonzero" fill-opacity="1" /><path clip-path="url(#clip750)" d="M84.0938 720.961 L88.978 720.961 L88.978 726.841 L84.0938 726.841 L84.0938 720.961 Z" fill="#000000" fill-rule="nonzero" fill-opacity="1" /><path clip-path="url(#clip750)" d="M99.9733 722.906 L107.612 722.906 L107.612 696.54 L99.3021 698.207 L99.3021 693.947 L107.566 692.281 L112.242 692.281 L112.242 722.906 L119.881 722.906 L119.881 726.841 L99.9733 726.841 L99.9733 722.906 Z" fill="#000000" fill-rule="nonzero" fill-opacity="1" /><path clip-path="url(#clip750)" d="M129.371 692.281 L147.728 692.281 L147.728 696.216 L133.654 696.216 L133.654 704.688 Q134.672 704.341 135.691 704.179 Q136.709 703.994 137.728 703.994 Q143.515 703.994 146.894 707.165 Q150.274 710.336 150.274 715.753 Q150.274 721.331 146.802 724.433 Q143.33 727.512 137.01 727.512 Q134.834 727.512 132.566 727.142 Q130.32 726.771 127.913 726.031 L127.913 721.331 Q129.996 722.466 132.219 723.021 Q134.441 723.577 136.918 723.577 Q140.922 723.577 143.26 721.47 Q145.598 719.364 145.598 715.753 Q145.598 712.142 143.26 710.035 Q140.922 707.929 136.918 707.929 Q135.043 707.929 133.168 708.345 Q131.316 708.762 129.371 709.642 L129.371 692.281 Z" fill="#000000" fill-rule="nonzero" fill-opacity="1" /><path clip-path="url(#clip750)" d="M62.9365 448.388 Q59.3254 448.388 57.4967 451.953 Q55.6912 455.494 55.6912 462.624 Q55.6912 469.73 57.4967 473.295 Q59.3254 476.837 62.9365 476.837 Q66.5707 476.837 68.3763 473.295 Q70.205 469.73 70.205 462.624 Q70.205 455.494 68.3763 451.953 Q66.5707 448.388 62.9365 448.388 M62.9365 444.684 Q68.7467 444.684 71.8022 449.29 Q74.8809 453.874 74.8809 462.624 Q74.8809 471.351 71.8022 475.957 Q68.7467 480.54 62.9365 480.54 Q57.1264 480.54 54.0477 475.957 Q50.9921 471.351 50.9921 462.624 Q50.9921 453.874 54.0477 449.29 Q57.1264 444.684 62.9365 444.684 Z" fill="#000000" fill-rule="nonzero" fill-opacity="1" /><path clip-path="url(#clip750)" d="M83.0984 473.989 L87.9827 473.989 L87.9827 479.869 L83.0984 479.869 L83.0984 473.989 Z" fill="#000000" fill-rule="nonzero" fill-opacity="1" /><path clip-path="url(#clip750)" d="M102.196 475.934 L118.515 475.934 L118.515 479.869 L96.5706 479.869 L96.5706 475.934 Q99.2326 473.179 103.816 468.55 Q108.422 463.897 109.603 462.554 Q111.848 460.031 112.728 458.295 Q113.631 456.536 113.631 454.846 Q113.631 452.091 111.686 450.355 Q109.765 448.619 106.663 448.619 Q104.464 448.619 102.01 449.383 Q99.5798 450.147 96.8021 451.698 L96.8021 446.976 Q99.6261 445.841 102.08 445.263 Q104.534 444.684 106.571 444.684 Q111.941 444.684 115.135 447.369 Q118.33 450.054 118.33 454.545 Q118.33 456.675 117.52 458.596 Q116.733 460.494 114.626 463.087 Q114.047 463.758 110.946 466.976 Q107.844 470.17 102.196 475.934 Z" fill="#000000" fill-rule="nonzero" fill-opacity="1" /><path clip-path="url(#clip750)" d="M138.33 448.388 Q134.719 448.388 132.89 451.953 Q131.084 455.494 131.084 462.624 Q131.084 469.73 132.89 473.295 Q134.719 476.837 138.33 476.837 Q141.964 476.837 143.769 473.295 Q145.598 469.73 145.598 462.624 Q145.598 455.494 143.769 451.953 Q141.964 448.388 138.33 448.388 M138.33 444.684 Q144.14 444.684 147.195 449.29 Q150.274 453.874 150.274 462.624 Q150.274 471.351 147.195 475.957 Q144.14 480.54 138.33 480.54 Q132.519 480.54 129.441 475.957 Q126.385 471.351 126.385 462.624 Q126.385 453.874 129.441 449.29 Q132.519 444.684 138.33 444.684 Z" fill="#000000" fill-rule="nonzero" fill-opacity="1" /><path clip-path="url(#clip750)" d="M63.9319 201.416 Q60.3208 201.416 58.4921 204.981 Q56.6865 208.522 56.6865 215.652 Q56.6865 222.758 58.4921 226.323 Q60.3208 229.865 63.9319 229.865 Q67.5661 229.865 69.3717 226.323 Q71.2004 222.758 71.2004 215.652 Q71.2004 208.522 69.3717 204.981 Q67.5661 201.416 63.9319 201.416 M63.9319 197.712 Q69.742 197.712 72.7976 202.319 Q75.8763 206.902 75.8763 215.652 Q75.8763 224.379 72.7976 228.985 Q69.742 233.569 63.9319 233.569 Q58.1217 233.569 55.043 228.985 Q51.9875 224.379 51.9875 215.652 Q51.9875 206.902 55.043 202.319 Q58.1217 197.712 63.9319 197.712 Z" fill="#000000" fill-rule="nonzero" fill-opacity="1" /><path clip-path="url(#clip750)" d="M84.0938 227.018 L88.978 227.018 L88.978 232.897 L84.0938 232.897 L84.0938 227.018 Z" fill="#000000" fill-rule="nonzero" fill-opacity="1" /><path clip-path="url(#clip750)" d="M103.191 228.962 L119.51 228.962 L119.51 232.897 L97.566 232.897 L97.566 228.962 Q100.228 226.208 104.811 221.578 Q109.418 216.925 110.598 215.583 Q112.844 213.059 113.723 211.323 Q114.626 209.564 114.626 207.874 Q114.626 205.12 112.682 203.384 Q110.76 201.647 107.658 201.647 Q105.459 201.647 103.006 202.411 Q100.575 203.175 97.7974 204.726 L97.7974 200.004 Q100.621 198.87 103.075 198.291 Q105.529 197.712 107.566 197.712 Q112.936 197.712 116.131 200.397 Q119.325 203.083 119.325 207.573 Q119.325 209.703 118.515 211.624 Q117.728 213.522 115.621 216.115 Q115.043 216.786 111.941 220.004 Q108.839 223.198 103.191 228.962 Z" fill="#000000" fill-rule="nonzero" fill-opacity="1" /><path clip-path="url(#clip750)" d="M129.371 198.337 L147.728 198.337 L147.728 202.272 L133.654 202.272 L133.654 210.745 Q134.672 210.397 135.691 210.235 Q136.709 210.05 137.728 210.05 Q143.515 210.05 146.894 213.222 Q150.274 216.393 150.274 221.809 Q150.274 227.388 146.802 230.49 Q143.33 233.569 137.01 233.569 Q134.834 233.569 132.566 233.198 Q130.32 232.828 127.913 232.087 L127.913 227.388 Q129.996 228.522 132.219 229.078 Q134.441 229.633 136.918 229.633 Q140.922 229.633 143.26 227.527 Q145.598 225.421 145.598 221.809 Q145.598 218.198 143.26 216.092 Q140.922 213.985 136.918 213.985 Q135.043 213.985 133.168 214.402 Q131.316 214.819 129.371 215.698 L129.371 198.337 Z" fill="#000000" fill-rule="nonzero" fill-opacity="1" /><circle clip-path="url(#clip751)" cx="1381.97" cy="1253.59" r="14.4" fill="#808080" fill-rule="evenodd" fill-opacity="1" stroke="#000000" stroke-opacity="1" stroke-width="3.2"/>
<circle clip-path="url(#clip751)" cx="1380.73" cy="1445.72" r="14.4" fill="#808080" fill-rule="evenodd" fill-opacity="1" stroke="#000000" stroke-opacity="1" stroke-width="3.2"/>
<circle clip-path="url(#clip751)" cx="2291.44" cy="1305.71" r="14.4" fill="#808080" fill-rule="evenodd" fill-opacity="1" stroke="#000000" stroke-opacity="1" stroke-width="3.2"/>
<circle clip-path="url(#clip751)" cx="247.59" cy="87.9763" r="14.4" fill="#808080" fill-rule="evenodd" fill-opacity="1" stroke="#000000" stroke-opacity="1" stroke-width="3.2"/>
<path clip-path="url(#clip750)" d="M1386.26 1261.03 Q1377.23 1261.03 1373.74 1263.09 Q1370.26 1265.16 1370.26 1270.14 Q1370.26 1274.11 1372.85 1276.46 Q1375.49 1278.77 1379.98 1278.77 Q1386.18 1278.77 1389.91 1274.4 Q1393.68 1269.98 1393.68 1262.69 L1393.68 1261.03 L1386.26 1261.03 M1401.13 1257.95 L1401.13 1283.83 L1393.68 1283.83 L1393.68 1276.95 Q1391.12 1281.08 1387.32 1283.06 Q1383.51 1285.01 1378 1285.01 Q1371.03 1285.01 1366.9 1281.12 Q1362.81 1277.19 1362.81 1270.63 Q1362.81 1262.97 1367.91 1259.08 Q1373.06 1255.19 1383.22 1255.19 L1393.68 1255.19 L1393.68 1254.46 Q1393.68 1249.32 1390.27 1246.53 Q1386.91 1243.69 1380.79 1243.69 Q1376.9 1243.69 1373.22 1244.62 Q1369.53 1245.55 1366.13 1247.42 L1366.13 1240.53 Q1370.22 1238.95 1374.07 1238.18 Q1377.92 1237.37 1381.56 1237.37 Q1391.41 1237.37 1396.27 1242.47 Q1401.13 1247.58 1401.13 1257.95 Z" fill="#000000" fill-rule="nonzero" fill-opacity="1" /><path clip-path="url(#clip750)" d="M1393.29 1453.31 Q1393.29 1445.09 1389.89 1440.43 Q1386.53 1435.73 1380.61 1435.73 Q1374.7 1435.73 1371.3 1440.43 Q1367.93 1445.09 1367.93 1453.31 Q1367.93 1461.53 1371.3 1466.23 Q1374.7 1470.89 1380.61 1470.89 Q1386.53 1470.89 1389.89 1466.23 Q1393.29 1461.53 1393.29 1453.31 M1367.93 1437.47 Q1370.28 1433.42 1373.85 1431.48 Q1377.45 1429.49 1382.44 1429.49 Q1390.7 1429.49 1395.84 1436.05 Q1401.03 1442.62 1401.03 1453.31 Q1401.03 1464.01 1395.84 1470.57 Q1390.7 1477.13 1382.44 1477.13 Q1377.45 1477.13 1373.85 1475.19 Q1370.28 1473.2 1367.93 1469.15 L1367.93 1475.96 L1360.44 1475.96 L1360.44 1412.92 L1367.93 1412.92 L1367.93 1437.47 Z" fill="#000000" fill-rule="nonzero" fill-opacity="1" /><path clip-path="url(#clip750)" d="M2309.39 1292.32 L2309.39 1299.29 Q2306.23 1297.55 2303.03 1296.7 Q2299.87 1295.81 2296.63 1295.81 Q2289.37 1295.81 2285.36 1300.43 Q2281.35 1305 2281.35 1313.31 Q2281.35 1321.61 2285.36 1326.23 Q2289.37 1330.81 2296.63 1330.81 Q2299.87 1330.81 2303.03 1329.96 Q2306.23 1329.07 2309.39 1327.32 L2309.39 1334.21 Q2306.27 1335.67 2302.9 1336.4 Q2299.58 1337.13 2295.82 1337.13 Q2285.57 1337.13 2279.53 1330.69 Q2273.49 1324.24 2273.49 1313.31 Q2273.49 1302.21 2279.57 1295.85 Q2285.69 1289.49 2296.3 1289.49 Q2299.74 1289.49 2303.03 1290.22 Q2306.31 1290.91 2309.39 1292.32 Z" fill="#000000" fill-rule="nonzero" fill-opacity="1" /><path clip-path="url(#clip750)" d="M260.411 79.7327 L260.411 55.1842 L267.864 55.1842 L267.864 118.216 L260.411 118.216 L260.411 111.411 Q258.061 115.462 254.456 117.447 Q250.891 119.391 245.868 119.391 Q237.645 119.391 232.459 112.829 Q227.315 106.266 227.315 95.5717 Q227.315 84.8773 232.459 78.3149 Q237.645 71.7524 245.868 71.7524 Q250.891 71.7524 254.456 73.7373 Q258.061 75.6818 260.411 79.7327 M235.011 95.5717 Q235.011 103.795 238.374 108.494 Q241.776 113.153 247.691 113.153 Q253.605 113.153 257.008 108.494 Q260.411 103.795 260.411 95.5717 Q260.411 87.3484 257.008 82.6898 Q253.605 77.9908 247.691 77.9908 Q241.776 77.9908 238.374 82.6898 Q235.011 87.3484 235.011 95.5717 Z" fill="#000000" fill-rule="nonzero" fill-opacity="1" /><path clip-path="url(#clip750)" d="M2011.46 198.898 L2280.54 198.898 L2280.54 95.2176 L2011.46 95.2176  Z" fill="#ffffff" fill-rule="evenodd" fill-opacity="1"/>
<polyline clip-path="url(#clip750)" style="stroke:#000000; stroke-linecap:round; stroke-linejoin:round; stroke-width:4; stroke-opacity:1; fill:none" points="2011.46,198.898 2280.54,198.898 2280.54,95.2176 2011.46,95.2176 2011.46,198.898 "/>
<circle clip-path="url(#clip750)" cx="2107.75" cy="147.058" r="20.48" fill="#808080" fill-rule="evenodd" fill-opacity="1" stroke="#000000" stroke-opacity="1" stroke-width="4.55111"/>
<path clip-path="url(#clip750)" d="M2217.88 166.745 Q2216.07 171.375 2214.36 172.787 Q2212.65 174.199 2209.78 174.199 L2206.38 174.199 L2206.38 170.634 L2208.88 170.634 Q2210.63 170.634 2211.61 169.8 Q2212.58 168.967 2213.76 165.865 L2214.52 163.921 L2204.04 138.412 L2208.55 138.412 L2216.65 158.689 L2224.76 138.412 L2229.27 138.412 L2217.88 166.745 Z" fill="#000000" fill-rule="nonzero" fill-opacity="1" /><path clip-path="url(#clip750)" d="M2236.56 160.402 L2244.2 160.402 L2244.2 134.037 L2235.89 135.703 L2235.89 131.444 L2244.15 129.778 L2248.83 129.778 L2248.83 160.402 L2256.47 160.402 L2256.47 164.338 L2236.56 164.338 L2236.56 160.402 Z" fill="#000000" fill-rule="nonzero" fill-opacity="1" /></svg>
