<?xml version="1.0" encoding="utf-8"?>
<svg xmlns="http://www.w3.org/2000/svg" xmlns:xlink="http://www.w3.org/1999/xlink" width="600" height="400" viewBox="0 0 2400 1600">
<defs>
  <clipPath id="clip750">
    <rect x="0" y="0" width="2400" height="1600"/>
  </clipPath>
</defs>
<path clip-path="url(#clip750)" d="M0 1600 L2400 1600 L2400 0 L0 0  Z" fill="#ffffff" fill-rule="evenodd" fill-opacity="1"/>
<defs>
  <clipPath id="clip751">
    <rect x="156" y="47" width="2197" height="1440"/>
  </clipPath>
</defs>
<path clip-path="url(#clip750)" d="M156.598 1486.45 L2352.76 1486.45 L2352.76 47.2441 L156.598 47.2441  Z" fill="#ffffff" fill-rule="evenodd" fill-opacity="1"/>
<polyline clip-path="url(#clip751)" style="stroke:#000000; stroke-linecap:round; stroke-linejoin:round; stroke-width:2; stroke-opacity:0.1; fill:none" points="609.689,1486.45 609.689,47.2441 "/>
<polyline clip-path="url(#clip751)" style="stroke:#000000; stroke-linecap:round; stroke-linejoin:round; stroke-width:2; stroke-opacity:0.1; fill:none" points="1069.35,1486.45 1069.35,47.2441 "/>
<polyline clip-path="url(#clip751)" style="stroke:#000000; stroke-linecap:round; stroke-linejoin:round; stroke-width:2; stroke-opacity:0.1; fill:none" points="1529.02,1486.45 1529.02,47.2441 "/>
<polyline clip-path="url(#clip751)" style="stroke:#000000; stroke-linecap:round; stroke-linejoin:round; stroke-width:2; stroke-opacity:0.1; fill:none" points="1988.69,1486.45 1988.69,47.2441 "/>
<polyline clip-path="url(#clip751)" style="stroke:#000000; stroke-linecap:round; stroke-linejoin:round; stroke-width:2; stroke-opacity:0.1; fill:none" points="156.598,1452.77 2352.76,1452.77 "/>
<polyline clip-path="url(#clip751)" style="stroke:#000000; stroke-linecap:round; stroke-linejoin:round; stroke-width:2; stroke-opacity:0.1; fill:none" points="156.598,1162.47 2352.76,1162.47 "/>
<polyline clip-path="url(#clip751)" style="stroke:#000000; stroke-linecap:round; stroke-linejoin:round; stroke-width:2; stroke-opacity:0.1; fill:none" points="156.598,872.165 2352.76,872.165 "/>
<polyline clip-path="url(#clip751)" style="stroke:#000000; stroke-linecap:round; stroke-linejoin:round; stroke-width:2; stroke-opacity:0.1; fill:none" points="156.598,581.863 2352.76,581.863 "/>
<polyline clip-path="url(#clip751)" style="stroke:#000000; stroke-linecap:round; stroke-linejoin:round; stroke-width:2; stroke-opacity:0.1; fill:none" points="156.598,291.561 2352.76,291.561 "/>
<polyline clip-path="url(#clip750)" style="stroke:#000000; stroke-linecap:round; stroke-linejoin:round; stroke-width:4; stroke-opacity:1; fill:none" points="156.598,1486.45 2352.76,1486.45 "/>
<polyline clip-path="url(#clip750)" style="stroke:#000000; stroke-linecap:round; stroke-linejoin:round; stroke-width:4; stroke-opacity:1; fill:none" points="609.689,1486.45 609.689,1467.55 "/>
<polyline clip-path="url(#clip750)" style="stroke:#000000; stroke-linecap:round; stroke-linejoin:round; stroke-width:4; stroke-opacity:1; fill:none" points="1069.35,1486.45 1069.35,1467.55 "/>
<polyline clip-path="url(#clip750)" style="stroke:#000000; stroke-linecap:round; stroke-linejoin:round; stroke-width:4; stroke-opacity:1; fill:none" points="1529.02,1486.45 1529.02,1467.55 "/>
<polyline clip-path="url(#clip750)" style="stroke:#000000; stroke-linecap:round; stroke-linejoin:round; stroke-width:4; stroke-opacity:1; fill:none" points="1988.69,1486.45 1988.69,1467.55 "/>
<path clip-path="url(#clip750)" d="M555.974 1532.02 L585.649 1532.02 L585.649 1535.95 L555.974 1535.95 L555.974 1532.02 Z" fill="#000000" fill-rule="nonzero" fill-opacity="1" /><path clip-path="url(#clip750)" d="M605.742 1517.37 Q602.131 1517.37 600.302 1520.93 Q598.497 1524.47 598.497 1531.6 Q598.497 1538.71 600.302 1542.27 Q602.131 1545.82 605.742 1545.82 Q609.376 1545.82 611.182 1542.27 Q613.01 1538.71 613.01 1531.6 Q613.01 1524.47 611.182 1520.93 Q609.376 1517.37 605.742 1517.37 M605.742 1513.66 Q611.552 1513.66 614.608 1518.27 Q617.686 1522.85 617.686 1531.6 Q617.686 1540.33 614.608 1544.94 Q611.552 1549.52 605.742 1549.52 Q599.932 1549.52 596.853 1544.94 Q593.798 1540.33 593.798 1531.6 Q593.798 1522.85 596.853 1518.27 Q599.932 1513.66 605.742 1513.66 Z" fill="#000000" fill-rule="nonzero" fill-opacity="1" /><path clip-path="url(#clip750)" d="M625.904 1542.97 L630.788 1542.97 L630.788 1548.85 L625.904 1548.85 L625.904 1542.97 Z" fill="#000000" fill-rule="nonzero" fill-opacity="1" /><path clip-path="url(#clip750)" d="M653.82 1518.36 L642.015 1536.81 L653.82 1536.81 L653.82 1518.36 M652.594 1514.29 L658.473 1514.29 L658.473 1536.81 L663.404 1536.81 L663.404 1540.7 L658.473 1540.7 L658.473 1548.85 L653.82 1548.85 L653.82 1540.7 L638.219 1540.7 L638.219 1536.19 L652.594 1514.29 Z" fill="#000000" fill-rule="nonzero" fill-opacity="1" /><path clip-path="url(#clip750)" d="M1016.68 1532.02 L1046.36 1532.02 L1046.36 1535.95 L1016.68 1535.95 L1016.68 1532.02 Z" fill="#000000" fill-rule="nonzero" fill-opacity="1" /><path clip-path="url(#clip750)" d="M1066.45 1517.37 Q1062.84 1517.37 1061.01 1520.93 Q1059.2 1524.47 1059.2 1531.6 Q1059.2 1538.71 1061.01 1542.27 Q1062.84 1545.82 1066.45 1545.82 Q1070.08 1545.82 1071.89 1542.27 Q1073.72 1538.71 1073.72 1531.6 Q1073.72 1524.47 1071.89 1520.93 Q1070.08 1517.37 1066.45 1517.37 M1066.45 1513.66 Q1072.26 1513.66 1075.32 1518.27 Q1078.39 1522.85 1078.39 1531.6 Q1078.39 1540.33 1075.32 1544.94 Q1072.26 1549.52 1066.45 1549.52 Q1060.64 1549.52 1057.56 1544.94 Q1054.51 1540.33 1054.51 1531.6 Q1054.51 1522.85 1057.56 1518.27 Q1060.64 1513.66 1066.45 1513.66 Z" fill="#000000" fill-rule="nonzero" fill-opacity="1" /><path clip-path="url(#clip750)" d="M1086.61 1542.97 L1091.5 1542.97 L1091.5 1548.85 L1086.61 1548.85 L1086.61 1542.97 Z" fill="#000000" fill-rule="nonzero" fill-opacity="1" /><path clip-path="url(#clip750)" d="M1105.71 1544.91 L1122.03 1544.91 L1122.03 1548.85 L1100.08 1548.85 L1100.08 1544.91 Q1102.75 1542.16 1107.33 1537.53 Q1111.94 1532.88 1113.12 1531.53 Q1115.36 1529.01 1116.24 1527.27 Q1117.14 1525.51 1117.14 1523.82 Q1117.14 1521.07 1115.2 1519.33 Q1113.28 1517.6 1110.18 1517.6 Q1107.98 1517.6 1105.52 1518.36 Q1103.09 1519.13 1100.32 1520.68 L1100.32 1515.95 Q1103.14 1514.82 1105.59 1514.24 Q1108.05 1513.66 1110.08 1513.66 Q1115.45 1513.66 1118.65 1516.35 Q1121.84 1519.03 1121.84 1523.52 Q1121.84 1525.65 1121.03 1527.57 Q1120.25 1529.47 1118.14 1532.07 Q1117.56 1532.74 1114.46 1535.95 Q1111.36 1539.15 1105.71 1544.91 Z" fill="#000000" fill-rule="nonzero" fill-opacity="1" /><path clip-path="url(#clip750)" d="M1506.4 1517.37 Q1502.79 1517.37 1500.97 1520.93 Q1499.16 1524.47 1499.16 1531.6 Q1499.16 1538.71 1500.97 1542.27 Q1502.79 1545.82 1506.4 1545.82 Q1510.04 1545.82 1511.84 1542.27 Q1513.67 1538.71 1513.67 1531.6 Q1513.67 1524.47 1511.84 1520.93 Q1510.04 1517.37 1506.4 1517.37 M1506.4 1513.66 Q1512.22 1513.66 1515.27 1518.27 Q1518.35 1522.85 1518.35 1531.6 Q1518.35 1540.33 1515.27 1544.94 Q1512.22 1549.52 1506.4 1549.52 Q1500.59 1549.52 1497.52 1544.94 Q1494.46 1540.33 1494.46 1531.6 Q1494.46 1522.85 1497.52 1518.27 Q1500.59 1513.66 1506.4 1513.66 Z" fill="#000000" fill-rule="nonzero" fill-opacity="1" /><path clip-path="url(#clip750)" d="M1526.57 1542.97 L1531.45 1542.97 L1531.45 1548.85 L1526.57 1548.85 L1526.57 1542.97 Z" fill="#000000" fill-rule="nonzero" fill-opacity="1" /><path clip-path="url(#clip750)" d="M1551.64 1517.37 Q1548.03 1517.37 1546.2 1520.93 Q1544.39 1524.47 1544.39 1531.6 Q1544.39 1538.71 1546.2 1542.27 Q1548.03 1545.82 1551.64 1545.82 Q1555.27 1545.82 1557.08 1542.27 Q1558.9 1538.71 1558.9 1531.6 Q1558.9 1524.47 1557.08 1520.93 Q1555.27 1517.37 1551.64 1517.37 M1551.64 1513.66 Q1557.45 1513.66 1560.5 1518.27 Q1563.58 1522.85 1563.58 1531.6 Q1563.58 1540.33 1560.5 1544.94 Q1557.45 1549.52 1551.64 1549.52 Q1545.83 1549.52 1542.75 1544.94 Q1539.69 1540.33 1539.69 1531.6 Q1539.69 1522.85 1542.75 1518.27 Q1545.83 1513.66 1551.64 1513.66 Z" fill="#000000" fill-rule="nonzero" fill-opacity="1" /><path clip-path="url(#clip750)" d="M1966.87 1517.37 Q1963.26 1517.37 1961.43 1520.93 Q1959.62 1524.47 1959.62 1531.6 Q1959.62 1538.71 1961.43 1542.27 Q1963.26 1545.82 1966.87 1545.82 Q1970.5 1545.82 1972.31 1542.27 Q1974.14 1538.71 1974.14 1531.6 Q1974.14 1524.47 1972.31 1520.93 Q1970.5 1517.37 1966.87 1517.37 M1966.87 1513.66 Q1972.68 1513.66 1975.74 1518.27 Q1978.81 1522.85 1978.81 1531.6 Q1978.81 1540.33 1975.74 1544.94 Q1972.68 1549.52 1966.87 1549.52 Q1961.06 1549.52 1957.98 1544.94 Q1954.93 1540.33 1954.93 1531.6 Q1954.93 1522.85 1957.98 1518.27 Q1961.06 1513.66 1966.87 1513.66 Z" fill="#000000" fill-rule="nonzero" fill-opacity="1" /><path clip-path="url(#clip750)" d="M1987.03 1542.97 L1991.92 1542.97 L1991.92 1548.85 L1987.03 1548.85 L1987.03 1542.97 Z" fill="#000000" fill-rule="nonzero" fill-opacity="1" /><path clip-path="url(#clip750)" d="M2006.13 1544.91 L2022.45 1544.91 L2022.45 1548.85 L2000.5 1548.85 L2000.5 1544.91 Q2003.17 1542.16 2007.75 1537.53 Q2012.36 1532.88 2013.54 1531.53 Q2015.78 1529.01 2016.66 1527.27 Q2017.56 1525.51 2017.56 1523.82 Q2017.56 1521.07 2015.62 1519.33 Q2013.7 1517.6 2010.6 1517.6 Q2008.4 1517.6 2005.94 1518.36 Q2003.51 1519.13 2000.74 1520.68 L2000.74 1515.95 Q2003.56 1514.82 2006.01 1514.24 Q2008.47 1513.66 2010.5 1513.66 Q2015.87 1513.66 2019.07 1516.35 Q2022.26 1519.03 2022.26 1523.52 Q2022.26 1525.65 2021.45 1527.57 Q2020.67 1529.47 2018.56 1532.07 Q2017.98 1532.74 2014.88 1535.95 Q2011.78 1539.15 2006.13 1544.91 Z" fill="#000000" fill-rule="nonzero" fill-opacity="1" /><polyline clip-path="url(#clip750)" style="stroke:#000000; stroke-linecap:round; stroke-linejoin:round; stroke-width:4; stroke-opacity:1; fill:none" points="156.598,1486.45 156.598,47.2441 "/>
<polyline clip-path="url(#clip750)" style="stroke:#000000; stroke-linecap:round; stroke-linejoin:round; stroke-width:4; stroke-opacity:1; fill:none" points="156.598,1452.77 175.496,1452.77 "/>
<polyline clip-path="url(#clip750)" style="stroke:#000000; stroke-linecap:round; stroke-linejoin:round; stroke-width:4; stroke-opacity:1; fill:none" points="156.598,1162.47 175.496,1162.47 "/>
<polyline clip-path="url(#clip750)" style="stroke:#000000; stroke-linecap:round; stroke-linejoin:round; stroke-width:4; stroke-opacity:1; fill:none" points="156.598,872.165 175.496,872.165 "/>
<polyline clip-path="url(#clip750)" style="stroke:#000000; stroke-linecap:round; stroke-linejoin:round; stroke-width:4; stroke-opacity:1; fill:none" points="156.598,581.863 175.496,581.863 "/>
<polyline clip-path="url(#clip750)" style="stroke:#000000; stroke-linecap:round; stroke-linejoin:round; stroke-width:4; stroke-opacity:1; fill:none" points="156.598,291.561 175.496,291.561 "/>
<path clip-path="url(#clip750)" d="M63.4226 1438.57 Q59.8115 1438.57 57.9828 1442.13 Q56.1773 1445.67 56.1773 1452.8 Q56.1773 1459.91 57.9828 1463.47 Q59.8115 1467.02 63.4226 1467.02 Q67.0569 1467.02 68.8624 1463.47 Q70.6911 1459.91 70.6911 1452.8 Q70.6911 1445.67 68.8624 1442.13 Q67.0569 1438.57 63.4226 1438.57 M63.4226 1434.86 Q69.2328 1434.86 72.2883 1439.47 Q75.367 1444.05 75.367 1452.8 Q75.367 1461.53 72.2883 1466.14 Q69.2328 1470.72 63.4226 1470.72 Q57.6125 1470.72 54.5338 1466.14 Q51.4782 1461.53 51.4782 1452.8 Q51.4782 1444.05 54.5338 1439.47 Q57.6125 1434.86 63.4226 1434.86 Z" fill="#000000" fill-rule="nonzero" fill-opacity="1" /><path clip-path="url(#clip750)" d="M83.5845 1464.17 L88.4688 1464.17 L88.4688 1470.05 L83.5845 1470.05 L83.5845 1464.17 Z" fill="#000000" fill-rule="nonzero" fill-opacity="1" /><path clip-path="url(#clip750)" d="M108.654 1438.57 Q105.043 1438.57 103.214 1442.13 Q101.409 1445.67 101.409 1452.8 Q101.409 1459.91 103.214 1463.47 Q105.043 1467.02 108.654 1467.02 Q112.288 1467.02 114.094 1463.47 Q115.922 1459.91 115.922 1452.8 Q115.922 1445.67 114.094 1442.13 Q112.288 1438.57 108.654 1438.57 M108.654 1434.86 Q114.464 1434.86 117.52 1439.47 Q120.598 1444.05 120.598 1452.8 Q120.598 1461.53 117.52 1466.14 Q114.464 1470.72 108.654 1470.72 Q102.844 1470.72 99.765 1466.14 Q96.7095 1461.53 96.7095 1452.8 Q96.7095 1444.05 99.765 1439.47 Q102.844 1434.86 108.654 1434.86 Z" fill="#000000" fill-rule="nonzero" fill-opacity="1" /><path clip-path="url(#clip750)" d="M64.6495 1148.27 Q61.0384 1148.27 59.2097 1151.83 Q57.4041 1155.37 57.4041 1162.5 Q57.4041 1169.61 59.2097 1173.17 Q61.0384 1176.71 64.6495 1176.71 Q68.2837 1176.71 70.0892 1173.17 Q71.9179 1169.61 71.9179 1162.5 Q71.9179 1155.37 70.0892 1151.83 Q68.2837 1148.27 64.6495 1148.27 M64.6495 1144.56 Q70.4596 1144.56 73.5152 1149.17 Q76.5938 1153.75 76.5938 1162.5 Q76.5938 1171.23 73.5152 1175.83 Q70.4596 1180.42 64.6495 1180.42 Q58.8393 1180.42 55.7606 1175.83 Q52.7051 1171.23 52.7051 1162.5 Q52.7051 1153.75 55.7606 1149.17 Q58.8393 1144.56 64.6495 1144.56 Z" fill="#000000" fill-rule="nonzero" fill-opacity="1" /><path clip-path="url(#clip750)" d="M84.8114 1173.87 L89.6956 1173.87 L89.6956 1179.75 L84.8114 1179.75 L84.8114 1173.87 Z" fill="#000000" fill-rule="nonzero" fill-opacity="1" /><path clip-path="url(#clip750)" d="M100.691 1175.81 L108.33 1175.81 L108.33 1149.45 L100.02 1151.11 L100.02 1146.85 L108.283 1145.19 L112.959 1145.19 L112.959 1175.81 L120.598 1175.81 L120.598 1179.75 L100.691 1179.75 L100.691 1175.81 Z" fill="#000000" fill-rule="nonzero" fill-opacity="1" /><path clip-path="url(#clip750)" d="M65.0198 857.964 Q61.4087 857.964 59.58 861.528 Q57.7745 865.07 57.7745 872.2 Q57.7745 879.306 59.58 882.871 Q61.4087 886.413 65.0198 886.413 Q68.6541 886.413 70.4596 882.871 Q72.2883 879.306 72.2883 872.2 Q72.2883 865.07 70.4596 861.528 Q68.6541 857.964 65.0198 857.964 M65.0198 854.26 Q70.83 854.26 73.8855 858.866 Q76.9642 863.45 76.9642 872.2 Q76.9642 880.927 73.8855 885.533 Q70.83 890.116 65.0198 890.116 Q59.2097 890.116 56.131 885.533 Q53.0754 880.927 53.0754 872.2 Q53.0754 863.45 56.131 858.866 Q59.2097 854.26 65.0198 854.26 Z" fill="#000000" fill-rule="nonzero" fill-opacity="1" /><path clip-path="url(#clip750)" d="M85.1818 883.565 L90.066 883.565 L90.066 889.445 L85.1818 889.445 L85.1818 883.565 Z" fill="#000000" fill-rule="nonzero" fill-opacity="1" /><path clip-path="url(#clip750)" d="M104.279 885.51 L120.598 885.51 L120.598 889.445 L98.6539 889.445 L98.6539 885.51 Q101.316 882.755 105.899 878.126 Q110.506 873.473 111.686 872.13 Q113.932 869.607 114.811 867.871 Q115.714 866.112 115.714 864.422 Q115.714 861.667 113.77 859.931 Q111.848 858.195 108.746 858.195 Q106.547 858.195 104.094 858.959 Q101.663 859.723 98.8854 861.274 L98.8854 856.552 Q101.709 855.417 104.163 854.839 Q106.617 854.26 108.654 854.26 Q114.024 854.26 117.219 856.945 Q120.413 859.63 120.413 864.121 Q120.413 866.251 119.603 868.172 Q118.816 870.07 116.709 872.663 Q116.131 873.334 113.029 876.552 Q109.927 879.746 104.279 885.51 Z" fill="#000000" fill-rule="nonzero" fill-opacity="1" /><path clip-path="url(#clip750)" d="M64.0708 567.662 Q60.4597 567.662 58.631 571.227 Q56.8254 574.768 56.8254 581.898 Q56.8254 589.004 58.631 592.569 Q60.4597 596.111 64.0708 596.111 Q67.705 596.111 69.5105 592.569 Q71.3392 589.004 71.3392 581.898 Q71.3392 574.768 69.5105 571.227 Q67.705 567.662 64.0708 567.662 M64.0708 563.958 Q69.8809 563.958 72.9365 568.565 Q76.0151 573.148 76.0151 581.898 Q76.0151 590.625 72.9365 595.231 Q69.8809 599.814 64.0708 599.814 Q58.2606 599.814 55.1819 595.231 Q52.1264 590.625 52.1264 581.898 Q52.1264 573.148 55.1819 568.565 Q58.2606 563.958 64.0708 563.958 Z" fill="#000000" fill-rule="nonzero" fill-opacity="1" /><path clip-path="url(#clip750)" d="M84.2327 593.264 L89.1169 593.264 L89.1169 599.143 L84.2327 599.143 L84.2327 593.264 Z" fill="#000000" fill-rule="nonzero" fill-opacity="1" /><path clip-path="url(#clip750)" d="M113.469 580.509 Q116.825 581.227 118.7 583.495 Q120.598 585.764 120.598 589.097 Q120.598 594.213 117.08 597.014 Q113.561 599.814 107.08 599.814 Q104.904 599.814 102.589 599.375 Q100.297 598.958 97.8437 598.102 L97.8437 593.588 Q99.7882 594.722 102.103 595.301 Q104.418 595.879 106.941 595.879 Q111.339 595.879 113.631 594.143 Q115.945 592.407 115.945 589.097 Q115.945 586.041 113.793 584.328 Q111.663 582.592 107.844 582.592 L103.816 582.592 L103.816 578.75 L108.029 578.75 Q111.478 578.75 113.307 577.384 Q115.135 575.995 115.135 573.403 Q115.135 570.741 113.237 569.329 Q111.362 567.893 107.844 567.893 Q105.922 567.893 103.723 568.31 Q101.524 568.727 98.8854 569.606 L98.8854 565.44 Q101.547 564.699 103.862 564.329 Q106.2 563.958 108.26 563.958 Q113.584 563.958 116.686 566.389 Q119.788 568.796 119.788 572.916 Q119.788 575.787 118.145 577.778 Q116.501 579.745 113.469 580.509 Z" fill="#000000" fill-rule="nonzero" fill-opacity="1" /><path clip-path="url(#clip750)" d="M62.9365 277.36 Q59.3254 277.36 57.4967 280.925 Q55.6912 284.467 55.6912 291.596 Q55.6912 298.703 57.4967 302.267 Q59.3254 305.809 62.9365 305.809 Q66.5707 305.809 68.3763 302.267 Q70.205 298.703 70.205 291.596 Q70.205 284.467 68.3763 280.925 Q66.5707 277.36 62.9365 277.36 M62.9365 273.656 Q68.7467 273.656 71.8022 278.263 Q74.8809 282.846 74.8809 291.596 Q74.8809 300.323 71.8022 304.929 Q68.7467 309.513 62.9365 309.513 Q57.1264 309.513 54.0477 304.929 Q50.9921 300.323 50.9921 291.596 Q50.9921 282.846 54.0477 278.263 Q57.1264 273.656 62.9365 273.656 Z" fill="#000000" fill-rule="nonzero" fill-opacity="1" /><path clip-path="url(#clip750)" d="M83.0984 302.962 L87.9827 302.962 L87.9827 308.841 L83.0984 308.841 L83.0984 302.962 Z" fill="#000000" fill-rule="nonzero" fill-opacity="1" /><path clip-path="url(#clip750)" d="M111.015 278.355 L99.2095 296.804 L111.015 296.804 L111.015 278.355 M109.788 274.281 L115.668 274.281 L115.668 296.804 L120.598 296.804 L120.598 300.693 L115.668 300.693 L115.668 308.841 L111.015 308.841 L111.015 300.693 L95.4132 300.693 L95.4132 296.179 L109.788 274.281 Z" fill="#000000" fill-rule="nonzero" fill-opacity="1" /><circle clip-path="url(#clip751)" cx="1549.12" cy="1347.93" r="14.4" fill="#808080" fill-rule="evenodd" fill-opacity="1" stroke="#000000" stroke-opacity="1" stroke-width="3.2"/>
<circle clip-path="url(#clip751)" cx="1495.42" cy="1445.72" r="14.4" fill="#808080" fill-rule="evenodd" fill-opacity="1" stroke="#000000" stroke-opacity="1" stroke-width="3.2"/>
<circle clip-path="url(#clip751)" cx="2290.6" cy="1349.7" r="14.4" fill="#808080" fill-rule="evenodd" fill-opacity="1" stroke="#000000" stroke-opacity="1" stroke-width="3.2"/>
<circle clip-path="url(#clip751)" cx="218.754" cy="87.9763" r="14.4" fill="#808080" fill-rule="evenodd" fill-opacity="1" stroke="#000000" stroke-opacity="1" stroke-width="3.2"/>
<path clip-path="url(#clip750)" d="M1553.41 1355.36 Q1544.38 1355.36 1540.89 1357.43 Q1537.41 1359.49 1537.41 1364.47 Q1537.41 1368.44 1540 1370.79 Q1542.63 1373.1 1547.13 1373.1 Q1553.33 1373.1 1557.05 1368.73 Q1560.82 1364.31 1560.82 1357.02 L1560.82 1355.36 L1553.41 1355.36 M1568.28 1352.28 L1568.28 1378.17 L1560.82 1378.17 L1560.82 1371.28 Q1558.27 1375.41 1554.46 1377.4 Q1550.65 1379.34 1545.15 1379.34 Q1538.18 1379.34 1534.05 1375.45 Q1529.95 1371.52 1529.95 1364.96 Q1529.95 1357.3 1535.06 1353.42 Q1540.2 1349.53 1550.37 1349.53 L1560.82 1349.53 L1560.82 1348.8 Q1560.82 1343.65 1557.42 1340.86 Q1554.06 1338.02 1547.94 1338.02 Q1544.05 1338.02 1540.37 1338.95 Q1536.68 1339.89 1533.28 1341.75 L1533.28 1334.86 Q1537.37 1333.28 1541.22 1332.51 Q1545.06 1331.7 1548.71 1331.7 Q1558.55 1331.7 1563.41 1336.81 Q1568.28 1341.91 1568.28 1352.28 Z" fill="#000000" fill-rule="nonzero" fill-opacity="1" /><path clip-path="url(#clip750)" d="M1507.98 1453.31 Q1507.98 1445.09 1504.58 1440.43 Q1501.21 1435.73 1495.3 1435.73 Q1489.38 1435.73 1485.98 1440.43 Q1482.62 1445.09 1482.62 1453.31 Q1482.62 1461.53 1485.98 1466.23 Q1489.38 1470.89 1495.3 1470.89 Q1501.21 1470.89 1504.58 1466.23 Q1507.98 1461.53 1507.98 1453.31 M1482.62 1437.47 Q1484.97 1433.42 1488.53 1431.48 Q1492.14 1429.49 1497.12 1429.49 Q1505.39 1429.49 1510.53 1436.05 Q1515.72 1442.62 1515.72 1453.31 Q1515.72 1464.01 1510.53 1470.57 Q1505.39 1477.13 1497.12 1477.13 Q1492.14 1477.13 1488.53 1475.19 Q1484.97 1473.2 1482.62 1469.15 L1482.62 1475.96 L1475.13 1475.96 L1475.13 1412.92 L1482.62 1412.92 L1482.62 1437.47 Z" fill="#000000" fill-rule="nonzero" fill-opacity="1" /><path clip-path="url(#clip750)" d="M2308.55 1336.32 L2308.55 1343.28 Q2305.39 1341.54 2302.19 1340.69 Q2299.03 1339.8 2295.79 1339.8 Q2288.53 1339.8 2284.52 1344.42 Q2280.51 1348.99 2280.51 1357.3 Q2280.51 1365.6 2284.52 1370.22 Q2288.53 1374.8 2295.79 1374.8 Q2299.03 1374.8 2302.19 1373.95 Q2305.39 1373.06 2308.55 1371.31 L2308.55 1378.2 Q2305.43 1379.66 2302.06 1380.39 Q2298.74 1381.12 2294.98 1381.12 Q2284.73 1381.12 2278.69 1374.68 Q2272.65 1368.24 2272.65 1357.3 Q2272.65 1346.2 2278.73 1339.84 Q2284.85 1333.48 2295.46 1333.48 Q2298.9 1333.48 2302.19 1334.21 Q2305.47 1334.9 2308.55 1336.32 Z" fill="#000000" fill-rule="nonzero" fill-opacity="1" /><path clip-path="url(#clip750)" d="M231.575 79.7327 L231.575 55.1842 L239.028 55.1842 L239.028 118.216 L231.575 118.216 L231.575 111.411 Q229.225 115.462 225.62 117.447 Q222.055 119.391 217.032 119.391 Q208.809 119.391 203.624 112.829 Q198.479 106.266 198.479 95.5717 Q198.479 84.8773 203.624 78.3149 Q208.809 71.7524 217.032 71.7524 Q222.055 71.7524 225.62 73.7373 Q229.225 75.6818 231.575 79.7327 M206.176 95.5717 Q206.176 103.795 209.538 108.494 Q212.941 113.153 218.855 113.153 Q224.769 113.153 228.172 108.494 Q231.575 103.795 231.575 95.5717 Q231.575 87.3484 228.172 82.6898 Q224.769 77.9908 218.855 77.9908 Q212.941 77.9908 209.538 82.6898 Q206.176 87.3484 206.176 95.5717 Z" fill="#000000" fill-rule="nonzero" fill-opacity="1" /><path clip-path="url(#clip750)" d="M2007.5 198.898 L2279.55 198.898 L2279.55 95.2176 L2007.5 95.2176  Z" fill="#ffffff" fill-rule="evenodd" fill-opacity="1"/>
<polyline clip-path="url(#clip750)" style="stroke:#000000; stroke-linecap:round; stroke-linejoin:round; stroke-width:4; stroke-opacity:1; fill:none" points="2007.5,198.898 2279.55,198.898 2279.55,95.2176 2007.5,95.2176 2007.5,198.898 "/>
<circle clip-path="url(#clip750)" cx="2105.11" cy="147.058" r="20.48" fill="#808080" fill-rule="evenodd" fill-opacity="1" stroke="#000000" stroke-opacity="1" stroke-width="4.55111"/>
<path clip-path="url(#clip750)" d="M2216.56 166.745 Q2214.76 171.375 2213.04 172.787 Q2211.33 174.199 2208.46 174.199 L2205.06 174.199 L2205.06 170.634 L2207.56 170.634 Q2209.32 170.634 2210.29 169.8 Q2211.26 168.967 2212.44 165.865 L2213.2 163.921 L2202.72 138.412 L2207.23 138.412 L2215.33 158.689 L2223.44 138.412 L2227.95 138.412 L2216.56 166.745 Z" fill="#000000" fill-rule="nonzero" fill-opacity="1" /><path clip-path="url(#clip750)" d="M2235.24 160.402 L2242.88 160.402 L2242.88 134.037 L2234.57 135.703 L2234.57 131.444 L2242.83 129.778 L2247.51 129.778 L2247.51 160.402 L2255.15 160.402 L2255.15 164.338 L2235.24 164.338 L2235.24 160.402 Z" fill="#000000" fill-rule="nonzero" fill-opacity="1" /></svg>
