<?xml version="1.0" encoding="utf-8"?>
<svg xmlns="http://www.w3.org/2000/svg" xmlns:xlink="http://www.w3.org/1999/xlink" width="600" height="400" viewBox="0 0 2400 1600">
<defs>
  <clipPath id="clip120">
    <rect x="0" y="0" width="2400" height="1600"/>
  </clipPath>
</defs>
<path clip-path="url(#clip120)" d="M0 1600 L2400 1600 L2400 0 L0 0  Z" fill="#ffffff" fill-rule="evenodd" fill-opacity="1"/>
<defs>
  <clipPath id="clip121">
    <rect x="156" y="47" width="2197" height="1440"/>
  </clipPath>
</defs>
<path clip-path="url(#clip120)" d="M156.598 1486.45 L2352.76 1486.45 L2352.76 47.2441 L156.598 47.2441  Z" fill="#ffffff" fill-rule="evenodd" fill-opacity="1"/>
<polyline clip-path="url(#clip121)" style="stroke:#000000; stroke-linecap:round; stroke-linejoin:round; stroke-width:2; stroke-opacity:0.1; fill:none" points="509.062,1486.45 509.062,47.2441 "/>
<polyline clip-path="url(#clip121)" style="stroke:#000000; stroke-linecap:round; stroke-linejoin:round; stroke-width:2; stroke-opacity:0.1; fill:none" points="975.461,1486.45 975.461,47.2441 "/>
<polyline clip-path="url(#clip121)" style="stroke:#000000; stroke-linecap:round; stroke-linejoin:round; stroke-width:2; stroke-opacity:0.1; fill:none" points="1441.86,1486.45 1441.86,47.2441 "/>
<polyline clip-path="url(#clip121)" style="stroke:#000000; stroke-linecap:round; stroke-linejoin:round; stroke-width:2; stroke-opacity:0.1; fill:none" points="1908.26,1486.45 1908.26,47.2441 "/>
<polyline clip-path="url(#clip121)" style="stroke:#000000; stroke-linecap:round; stroke-linejoin:round; stroke-width:2; stroke-opacity:0.1; fill:none" points="156.598,1452.33 2352.76,1452.33 "/>
<polyline clip-path="url(#clip121)" style="stroke:#000000; stroke-linecap:round; stroke-linejoin:round; stroke-width:2; stroke-opacity:0.1; fill:none" points="156.598,1156.51 2352.76,1156.51 "/>
<polyline clip-path="url(#clip121)" style="stroke:#000000; stroke-linecap:round; stroke-linejoin:round; stroke-width:2; stroke-opacity:0.1; fill:none" points="156.598,860.693 2352.76,860.693 "/>
<polyline clip-path="url(#clip121)" style="stroke:#000000; stroke-linecap:round; stroke-linejoin:round; stroke-width:2; stroke-opacity:0.1; fill:none" points="156.598,564.876 2352.76,564.876 "/>
<polyline clip-path="url(#clip121)" style="stroke:#000000; stroke-linecap:round; stroke-linejoin:round; stroke-width:2; stroke-opacity:0.1; fill:none" points="156.598,269.059 2352.76,269.059 "/>
<polyline clip-path="url(#clip120)" style="stroke:#000000; stroke-linecap:round; stroke-linejoin:round; stroke-width:4; stroke-opacity:1; fill:none" points="156.598,1486.45 2352.76,1486.45 "/>
<polyline clip-path="url(#clip120)" style="stroke:#000000; stroke-linecap:round; stroke-linejoin:round; stroke-width:4; stroke-opacity:1; fill:none" points="509.062,1486.45 509.062,1467.55 "/>
<polyline clip-path="url(#clip120)" style="stroke:#000000; stroke-linecap:round; stroke-linejoin:round; stroke-width:4; stroke-opacity:1; fill:none" points="975.461,1486.45 975.461,1467.55 "/>
<polyline clip-path="url(#clip120)" style="stroke:#000000; stroke-linecap:round; stroke-linejoin:round; stroke-width:4; stroke-opacity:1; fill:none" points="1441.86,1486.45 1441.86,1467.55 "/>
<polyline clip-path="url(#clip120)" style="stroke:#000000; stroke-linecap:round; stroke-linejoin:round; stroke-width:4; stroke-opacity:1; fill:none" points="1908.26,1486.45 1908.26,1467.55 "/>
<path clip-path="url(#clip120)" d="M455.347 1532.02 L485.023 1532.02 L485.023 1535.95 L455.347 1535.95 L455.347 1532.02 Z" fill="#000000" fill-rule="nonzero" fill-opacity="1" /><path clip-path="url(#clip120)" d="M505.115 1517.37 Q501.504 1517.37 499.675 1520.93 Q497.87 1524.47 497.87 1531.6 Q497.87 1538.71 499.675 1542.27 Q501.504 1545.82 505.115 1545.82 Q508.749 1545.82 510.555 1542.27 Q512.384 1538.71 512.384 1531.6 Q512.384 1524.47 510.555 1520.93 Q508.749 1517.37 505.115 1517.37 M505.115 1513.66 Q510.925 1513.66 513.981 1518.27 Q517.06 1522.85 517.06 1531.6 Q517.06 1540.33 513.981 1544.94 Q510.925 1549.52 505.115 1549.52 Q499.305 1549.52 496.226 1544.94 Q493.171 1540.33 493.171 1531.6 Q493.171 1522.85 496.226 1518.27 Q499.305 1513.66 505.115 1513.66 Z" fill="#000000" fill-rule="nonzero" fill-opacity="1" /><path clip-path="url(#clip120)" d="M525.277 1542.97 L530.161 1542.97 L530.161 1548.85 L525.277 1548.85 L525.277 1542.97 Z" fill="#000000" fill-rule="nonzero" fill-opacity="1" /><path clip-path="url(#clip120)" d="M553.194 1518.36 L541.388 1536.81 L553.194 1536.81 L553.194 1518.36 M551.967 1514.29 L557.846 1514.29 L557.846 1536.81 L562.777 1536.81 L562.777 1540.7 L557.846 1540.7 L557.846 1548.85 L553.194 1548.85 L553.194 1540.7 L537.592 1540.7 L537.592 1536.19 L551.967 1514.29 Z" fill="#000000" fill-rule="nonzero" fill-opacity="1" /><path clip-path="url(#clip120)" d="M922.788 1532.02 L952.464 1532.02 L952.464 1535.95 L922.788 1535.95 L922.788 1532.02 Z" fill="#000000" fill-rule="nonzero" fill-opacity="1" /><path clip-path="url(#clip120)" d="M972.556 1517.37 Q968.945 1517.37 967.116 1520.93 Q965.311 1524.47 965.311 1531.6 Q965.311 1538.71 967.116 1542.27 Q968.945 1545.82 972.556 1545.82 Q976.19 1545.82 977.996 1542.27 Q979.824 1538.71 979.824 1531.6 Q979.824 1524.47 977.996 1520.93 Q976.19 1517.37 972.556 1517.37 M972.556 1513.66 Q978.366 1513.66 981.422 1518.27 Q984.5 1522.85 984.5 1531.6 Q984.5 1540.33 981.422 1544.94 Q978.366 1549.52 972.556 1549.52 Q966.746 1549.52 963.667 1544.94 Q960.612 1540.33 960.612 1531.6 Q960.612 1522.85 963.667 1518.27 Q966.746 1513.66 972.556 1513.66 Z" fill="#000000" fill-rule="nonzero" fill-opacity="1" /><path clip-path="url(#clip120)" d="M992.718 1542.97 L997.602 1542.97 L997.602 1548.85 L992.718 1548.85 L992.718 1542.97 Z" fill="#000000" fill-rule="nonzero" fill-opacity="1" /><path clip-path="url(#clip120)" d="M1011.82 1544.91 L1028.13 1544.91 L1028.13 1548.85 L1006.19 1548.85 L1006.19 1544.91 Q1008.85 1542.16 1013.44 1537.53 Q1018.04 1532.88 1019.22 1531.53 Q1021.47 1529.01 1022.35 1527.27 Q1023.25 1525.51 1023.25 1523.82 Q1023.25 1521.07 1021.31 1519.33 Q1019.38 1517.6 1016.28 1517.6 Q1014.08 1517.6 1011.63 1518.36 Q1009.2 1519.13 1006.42 1520.68 L1006.42 1515.95 Q1009.25 1514.82 1011.7 1514.24 Q1014.15 1513.66 1016.19 1513.66 Q1021.56 1513.66 1024.75 1516.35 Q1027.95 1519.03 1027.95 1523.52 Q1027.95 1525.65 1027.14 1527.57 Q1026.35 1529.47 1024.25 1532.07 Q1023.67 1532.74 1020.57 1535.95 Q1017.46 1539.15 1011.82 1544.91 Z" fill="#000000" fill-rule="nonzero" fill-opacity="1" /><path clip-path="url(#clip120)" d="M1419.24 1517.37 Q1415.63 1517.37 1413.8 1520.93 Q1412 1524.47 1412 1531.6 Q1412 1538.71 1413.8 1542.27 Q1415.63 1545.82 1419.24 1545.82 Q1422.88 1545.82 1424.68 1542.27 Q1426.51 1538.71 1426.51 1531.6 Q1426.51 1524.47 1424.68 1520.93 Q1422.88 1517.37 1419.24 1517.37 M1419.24 1513.66 Q1425.05 1513.66 1428.11 1518.27 Q1431.19 1522.85 1431.19 1531.6 Q1431.19 1540.33 1428.11 1544.94 Q1425.05 1549.52 1419.24 1549.52 Q1413.43 1549.52 1410.36 1544.94 Q1407.3 1540.33 1407.3 1531.6 Q1407.3 1522.85 1410.36 1518.27 Q1413.43 1513.66 1419.24 1513.66 Z" fill="#000000" fill-rule="nonzero" fill-opacity="1" /><path clip-path="url(#clip120)" d="M1439.41 1542.97 L1444.29 1542.97 L1444.29 1548.85 L1439.41 1548.85 L1439.41 1542.97 Z" fill="#000000" fill-rule="nonzero" fill-opacity="1" /><path clip-path="url(#clip120)" d="M1464.48 1517.37 Q1460.86 1517.37 1459.04 1520.93 Q1457.23 1524.47 1457.23 1531.6 Q1457.23 1538.71 1459.04 1542.27 Q1460.86 1545.82 1464.48 1545.82 Q1468.11 1545.82 1469.92 1542.27 Q1471.74 1538.71 1471.74 1531.6 Q1471.74 1524.47 1469.92 1520.93 Q1468.11 1517.37 1464.48 1517.37 M1464.48 1513.66 Q1470.29 1513.66 1473.34 1518.27 Q1476.42 1522.85 1476.42 1531.6 Q1476.42 1540.33 1473.34 1544.94 Q1470.29 1549.52 1464.48 1549.52 Q1458.67 1549.52 1455.59 1544.94 Q1452.53 1540.33 1452.53 1531.6 Q1452.53 1522.85 1455.59 1518.27 Q1458.67 1513.66 1464.48 1513.66 Z" fill="#000000" fill-rule="nonzero" fill-opacity="1" /><path clip-path="url(#clip120)" d="M1886.44 1517.37 Q1882.83 1517.37 1881 1520.93 Q1879.2 1524.47 1879.2 1531.6 Q1879.2 1538.71 1881 1542.27 Q1882.83 1545.82 1886.44 1545.82 Q1890.08 1545.82 1891.88 1542.27 Q1893.71 1538.71 1893.71 1531.6 Q1893.71 1524.47 1891.88 1520.93 Q1890.08 1517.37 1886.44 1517.37 M1886.44 1513.66 Q1892.25 1513.66 1895.31 1518.27 Q1898.39 1522.85 1898.39 1531.6 Q1898.39 1540.33 1895.31 1544.94 Q1892.25 1549.52 1886.44 1549.52 Q1880.63 1549.52 1877.55 1544.94 Q1874.5 1540.33 1874.5 1531.6 Q1874.5 1522.85 1877.55 1518.27 Q1880.63 1513.66 1886.44 1513.66 Z" fill="#000000" fill-rule="nonzero" fill-opacity="1" /><path clip-path="url(#clip120)" d="M1906.6 1542.97 L1911.49 1542.97 L1911.49 1548.85 L1906.6 1548.85 L1906.6 1542.97 Z" fill="#000000" fill-rule="nonzero" fill-opacity="1" /><path clip-path="url(#clip120)" d="M1925.7 1544.91 L1942.02 1544.91 L1942.02 1548.85 L1920.08 1548.85 L1920.08 1544.91 Q1922.74 1542.16 1927.32 1537.53 Q1931.93 1532.88 1933.11 1531.53 Q1935.35 1529.01 1936.23 1527.27 Q1937.14 1525.51 1937.14 1523.82 Q1937.14 1521.07 1935.19 1519.33 Q1933.27 1517.6 1930.17 1517.6 Q1927.97 1517.6 1925.52 1518.36 Q1923.09 1519.13 1920.31 1520.68 L1920.31 1515.95 Q1923.13 1514.82 1925.59 1514.24 Q1928.04 1513.66 1930.08 1513.66 Q1935.45 1513.66 1938.64 1516.35 Q1941.84 1519.03 1941.84 1523.52 Q1941.84 1525.65 1941.03 1527.57 Q1940.24 1529.47 1938.13 1532.07 Q1937.55 1532.74 1934.45 1535.95 Q1931.35 1539.15 1925.7 1544.91 Z" fill="#000000" fill-rule="nonzero" fill-opacity="1" /><polyline clip-path="url(#clip120)" style="stroke:#000000; stroke-linecap:round; stroke-linejoin:round; stroke-width:4; stroke-opacity:1; fill:none" points="156.598,1486.45 156.598,47.2441 "/>
<polyline clip-path="url(#clip120)" style="stroke:#000000; stroke-linecap:round; stroke-linejoin:round; stroke-width:4; stroke-opacity:1; fill:none" points="156.598,1452.33 175.496,1452.33 "/>
<polyline clip-path="url(#clip120)" style="stroke:#000000; stroke-linecap:round; stroke-linejoin:round; stroke-width:4; stroke-opacity:1; fill:none" points="156.598,1156.51 175.496,1156.51 "/>
<polyline clip-path="url(#clip120)" style="stroke:#000000; stroke-linecap:round; stroke-linejoin:round; stroke-width:4; stroke-opacity:1; fill:none" points="156.598,860.693 175.496,860.693 "/>
<polyline clip-path="url(#clip120)" style="stroke:#000000; stroke-linecap:round; stroke-linejoin:round; stroke-width:4; stroke-opacity:1; fill:none" points="156.598,564.876 175.496,564.876 "/>
<polyline clip-path="url(#clip120)" style="stroke:#000000; stroke-linecap:round; stroke-linejoin:round; stroke-width:4; stroke-opacity:1; fill:none" points="156.598,269.059 175.496,269.059 "/>
<path clip-path="url(#clip120)" d="M63.4226 1438.13 Q59.8115 1438.13 57.9828 1441.69 Q56.1773 1445.23 56.1773 1452.36 Q56.1773 1459.47 57.9828 1463.03 Q59.8115 1466.58 63.4226 1466.58 Q67.0569 1466.58 68.8624 1463.03 Q70.6911 1459.47 70.6911 1452.36 Q70.6911 1445.23 68.8624 1441.69 Q67.0569 1438.13 63.4226 1438.13 M63.4226 1434.42 Q69.2328 1434.42 72.2883 1439.03 Q75.367 1443.61 75.367 1452.36 Q75.367 1461.09 72.2883 1465.7 Q69.2328 1470.28 63.4226 1470.28 Q57.6125 1470.28 54.5338 1465.7 Q51.4782 1461.09 51.4782 1452.36 Q51.4782 1443.61 54.5338 1439.03 Q57.6125 1434.42 63.4226 1434.42 Z" fill="#000000" fill-rule="nonzero" fill-opacity="1" /><path clip-path="url(#clip120)" d="M83.5845 1463.73 L88.4688 1463.73 L88.4688 1469.61 L83.5845 1469.61 L83.5845 1463.73 Z" fill="#000000" fill-rule="nonzero" fill-opacity="1" /><path clip-path="url(#clip120)" d="M108.654 1438.13 Q105.043 1438.13 103.214 1441.69 Q101.409 1445.23 101.409 1452.36 Q101.409 1459.47 103.214 1463.03 Q105.043 1466.58 108.654 1466.58 Q112.288 1466.58 114.094 1463.03 Q115.922 1459.47 115.922 1452.36 Q115.922 1445.23 114.094 1441.69 Q112.288 1438.13 108.654 1438.13 M108.654 1434.42 Q114.464 1434.42 117.52 1439.03 Q120.598 1443.61 120.598 1452.36 Q120.598 1461.09 117.52 1465.7 Q114.464 1470.28 108.654 1470.28 Q102.844 1470.28 99.765 1465.7 Q96.7095 1461.09 96.7095 1452.36 Q96.7095 1443.61 99.765 1439.03 Q102.844 1434.42 108.654 1434.42 Z" fill="#000000" fill-rule="nonzero" fill-opacity="1" /><path clip-path="url(#clip120)" d="M64.6495 1142.31 Q61.0384 1142.31 59.2097 1145.87 Q57.4041 1149.42 57.4041 1156.55 Q57.4041 1163.65 59.2097 1167.22 Q61.0384 1170.76 64.6495 1170.76 Q68.2837 1170.76 70.0892 1167.22 Q71.9179 1163.65 71.9179 1156.55 Q71.9179 1149.42 70.0892 1145.87 Q68.2837 1142.31 64.6495 1142.31 M64.6495 1138.61 Q70.4596 1138.61 73.5152 1143.21 Q76.5938 1147.8 76.5938 1156.55 Q76.5938 1165.27 73.5152 1169.88 Q70.4596 1174.46 64.6495 1174.46 Q58.8393 1174.46 55.7606 1169.88 Q52.7051 1165.27 52.7051 1156.55 Q52.7051 1147.8 55.7606 1143.21 Q58.8393 1138.61 64.6495 1138.61 Z" fill="#000000" fill-rule="nonzero" fill-opacity="1" /><path clip-path="url(#clip120)" d="M84.8114 1167.91 L89.6956 1167.91 L89.6956 1173.79 L84.8114 1173.79 L84.8114 1167.91 Z" fill="#000000" fill-rule="nonzero" fill-opacity="1" /><path clip-path="url(#clip120)" d="M100.691 1169.86 L108.33 1169.86 L108.33 1143.49 L100.02 1145.16 L100.02 1140.9 L108.283 1139.23 L112.959 1139.23 L112.959 1169.86 L120.598 1169.86 L120.598 1173.79 L100.691 1173.79 L100.691 1169.86 Z" fill="#000000" fill-rule="nonzero" fill-opacity="1" /><path clip-path="url(#clip120)" d="M65.0198 846.492 Q61.4087 846.492 59.58 850.057 Q57.7745 853.599 57.7745 860.728 Q57.7745 867.835 59.58 871.399 Q61.4087 874.941 65.0198 874.941 Q68.6541 874.941 70.4596 871.399 Q72.2883 867.835 72.2883 860.728 Q72.2883 853.599 70.4596 850.057 Q68.6541 846.492 65.0198 846.492 M65.0198 842.788 Q70.83 842.788 73.8855 847.395 Q76.9642 851.978 76.9642 860.728 Q76.9642 869.455 73.8855 874.061 Q70.83 878.645 65.0198 878.645 Q59.2097 878.645 56.131 874.061 Q53.0754 869.455 53.0754 860.728 Q53.0754 851.978 56.131 847.395 Q59.2097 842.788 65.0198 842.788 Z" fill="#000000" fill-rule="nonzero" fill-opacity="1" /><path clip-path="url(#clip120)" d="M85.1818 872.094 L90.066 872.094 L90.066 877.973 L85.1818 877.973 L85.1818 872.094 Z" fill="#000000" fill-rule="nonzero" fill-opacity="1" /><path clip-path="url(#clip120)" d="M104.279 874.038 L120.598 874.038 L120.598 877.973 L98.6539 877.973 L98.6539 874.038 Q101.316 871.284 105.899 866.654 Q110.506 862.001 111.686 860.659 Q113.932 858.136 114.811 856.399 Q115.714 854.64 115.714 852.95 Q115.714 850.196 113.77 848.46 Q111.848 846.724 108.746 846.724 Q106.547 846.724 104.094 847.487 Q101.663 848.251 98.8854 849.802 L98.8854 845.08 Q101.709 843.946 104.163 843.367 Q106.617 842.788 108.654 842.788 Q114.024 842.788 117.219 845.474 Q120.413 848.159 120.413 852.65 Q120.413 854.779 119.603 856.7 Q118.816 858.599 116.709 861.191 Q116.131 861.862 113.029 865.08 Q109.927 868.274 104.279 874.038 Z" fill="#000000" fill-rule="nonzero" fill-opacity="1" /><path clip-path="url(#clip120)" d="M64.0708 550.675 Q60.4597 550.675 58.631 554.239 Q56.8254 557.781 56.8254 564.911 Q56.8254 572.017 58.631 575.582 Q60.4597 579.124 64.0708 579.124 Q67.705 579.124 69.5105 575.582 Q71.3392 572.017 71.3392 564.911 Q71.3392 557.781 69.5105 554.239 Q67.705 550.675 64.0708 550.675 M64.0708 546.971 Q69.8809 546.971 72.9365 551.577 Q76.0151 556.161 76.0151 564.911 Q76.0151 573.638 72.9365 578.244 Q69.8809 582.827 64.0708 582.827 Q58.2606 582.827 55.1819 578.244 Q52.1264 573.638 52.1264 564.911 Q52.1264 556.161 55.1819 551.577 Q58.2606 546.971 64.0708 546.971 Z" fill="#000000" fill-rule="nonzero" fill-opacity="1" /><path clip-path="url(#clip120)" d="M84.2327 576.276 L89.1169 576.276 L89.1169 582.156 L84.2327 582.156 L84.2327 576.276 Z" fill="#000000" fill-rule="nonzero" fill-opacity="1" /><path clip-path="url(#clip120)" d="M113.469 563.522 Q116.825 564.239 118.7 566.508 Q120.598 568.776 120.598 572.11 Q120.598 577.225 117.08 580.026 Q113.561 582.827 107.08 582.827 Q104.904 582.827 102.589 582.387 Q100.297 581.971 97.8437 581.114 L97.8437 576.6 Q99.7882 577.735 102.103 578.313 Q104.418 578.892 106.941 578.892 Q111.339 578.892 113.631 577.156 Q115.945 575.42 115.945 572.11 Q115.945 569.054 113.793 567.341 Q111.663 565.605 107.844 565.605 L103.816 565.605 L103.816 561.763 L108.029 561.763 Q111.478 561.763 113.307 560.397 Q115.135 559.008 115.135 556.415 Q115.135 553.753 113.237 552.341 Q111.362 550.906 107.844 550.906 Q105.922 550.906 103.723 551.323 Q101.524 551.739 98.8854 552.619 L98.8854 548.452 Q101.547 547.712 103.862 547.341 Q106.2 546.971 108.26 546.971 Q113.584 546.971 116.686 549.402 Q119.788 551.809 119.788 555.929 Q119.788 558.8 118.145 560.79 Q116.501 562.758 113.469 563.522 Z" fill="#000000" fill-rule="nonzero" fill-opacity="1" /><path clip-path="url(#clip120)" d="M62.9365 254.857 Q59.3254 254.857 57.4967 258.422 Q55.6912 261.964 55.6912 269.093 Q55.6912 276.2 57.4967 279.764 Q59.3254 283.306 62.9365 283.306 Q66.5707 283.306 68.3763 279.764 Q70.205 276.2 70.205 269.093 Q70.205 261.964 68.3763 258.422 Q66.5707 254.857 62.9365 254.857 M62.9365 251.154 Q68.7467 251.154 71.8022 255.76 Q74.8809 260.343 74.8809 269.093 Q74.8809 277.82 71.8022 282.426 Q68.7467 287.01 62.9365 287.01 Q57.1264 287.01 54.0477 282.426 Q50.9921 277.82 50.9921 269.093 Q50.9921 260.343 54.0477 255.76 Q57.1264 251.154 62.9365 251.154 Z" fill="#000000" fill-rule="nonzero" fill-opacity="1" /><path clip-path="url(#clip120)" d="M83.0984 280.459 L87.9827 280.459 L87.9827 286.339 L83.0984 286.339 L83.0984 280.459 Z" fill="#000000" fill-rule="nonzero" fill-opacity="1" /><path clip-path="url(#clip120)" d="M111.015 255.853 L99.2095 274.302 L111.015 274.302 L111.015 255.853 M109.788 251.779 L115.668 251.779 L115.668 274.302 L120.598 274.302 L120.598 278.19 L115.668 278.19 L115.668 286.339 L111.015 286.339 L111.015 278.19 L95.4132 278.19 L95.4132 273.677 L109.788 251.779 Z" fill="#000000" fill-rule="nonzero" fill-opacity="1" /><circle clip-path="url(#clip121)" cx="1453.58" cy="1251.86" r="14.4" fill="#808080" fill-rule="evenodd" fill-opacity="1" stroke="#000000" stroke-opacity="1" stroke-width="3.2"/>
<circle clip-path="url(#clip121)" cx="1404.62" cy="1445.72" r="14.4" fill="#808080" fill-rule="evenodd" fill-opacity="1" stroke="#000000" stroke-opacity="1" stroke-width="3.2"/>
<circle clip-path="url(#clip121)" cx="2290.6" cy="1283.54" r="14.4" fill="#808080" fill-rule="evenodd" fill-opacity="1" stroke="#000000" stroke-opacity="1" stroke-width="3.2"/>
<circle clip-path="url(#clip121)" cx="218.754" cy="87.9763" r="14.4" fill="#808080" fill-rule="evenodd" fill-opacity="1" stroke="#000000" stroke-opacity="1" stroke-width="3.2"/>
<path clip-path="url(#clip120)" d="M1457.88 1259.29 Q1448.84 1259.29 1445.36 1261.36 Q1441.88 1263.42 1441.88 1268.41 Q1441.88 1272.37 1444.47 1274.72 Q1447.1 1277.03 1451.6 1277.03 Q1457.8 1277.03 1461.52 1272.66 Q1465.29 1268.24 1465.29 1260.95 L1465.29 1259.29 L1457.88 1259.29 M1472.74 1256.21 L1472.74 1282.1 L1465.29 1282.1 L1465.29 1275.21 Q1462.74 1279.34 1458.93 1281.33 Q1455.12 1283.27 1449.61 1283.27 Q1442.65 1283.27 1438.51 1279.38 Q1434.42 1275.45 1434.42 1268.89 Q1434.42 1261.23 1439.53 1257.35 Q1444.67 1253.46 1454.84 1253.46 L1465.29 1253.46 L1465.29 1252.73 Q1465.29 1247.58 1461.89 1244.79 Q1458.53 1241.95 1452.41 1241.95 Q1448.52 1241.95 1444.83 1242.88 Q1441.15 1243.82 1437.74 1245.68 L1437.74 1238.79 Q1441.84 1237.21 1445.68 1236.44 Q1449.53 1235.63 1453.18 1235.63 Q1463.02 1235.63 1467.88 1240.74 Q1472.74 1245.84 1472.74 1256.21 Z" fill="#000000" fill-rule="nonzero" fill-opacity="1" /><path clip-path="url(#clip120)" d="M1417.18 1453.31 Q1417.18 1445.09 1413.77 1440.43 Q1410.41 1435.73 1404.5 1435.73 Q1398.58 1435.73 1395.18 1440.43 Q1391.82 1445.09 1391.82 1453.31 Q1391.82 1461.53 1395.18 1466.23 Q1398.58 1470.89 1404.5 1470.89 Q1410.41 1470.89 1413.77 1466.23 Q1417.18 1461.53 1417.18 1453.31 M1391.82 1437.47 Q1394.17 1433.42 1397.73 1431.48 Q1401.34 1429.49 1406.32 1429.49 Q1414.58 1429.49 1419.73 1436.05 Q1424.91 1442.62 1424.91 1453.31 Q1424.91 1464.01 1419.73 1470.57 Q1414.58 1477.13 1406.32 1477.13 Q1401.34 1477.13 1397.73 1475.19 Q1394.17 1473.2 1391.82 1469.15 L1391.82 1475.96 L1384.32 1475.96 L1384.32 1412.92 L1391.82 1412.92 L1391.82 1437.47 Z" fill="#000000" fill-rule="nonzero" fill-opacity="1" /><path clip-path="url(#clip120)" d="M2308.55 1270.15 L2308.55 1277.12 Q2305.39 1275.37 2302.19 1274.52 Q2299.03 1273.63 2295.79 1273.63 Q2288.53 1273.63 2284.52 1278.25 Q2280.51 1282.83 2280.51 1291.13 Q2280.51 1299.44 2284.52 1304.05 Q2288.53 1308.63 2295.79 1308.63 Q2299.03 1308.63 2302.19 1307.78 Q2305.39 1306.89 2308.55 1305.15 L2308.55 1312.03 Q2305.43 1313.49 2302.06 1314.22 Q2298.74 1314.95 2294.98 1314.95 Q2284.73 1314.95 2278.69 1308.51 Q2272.65 1302.07 2272.65 1291.13 Q2272.65 1280.03 2278.73 1273.67 Q2284.85 1267.31 2295.46 1267.31 Q2298.9 1267.31 2302.19 1268.04 Q2305.47 1268.73 2308.55 1270.15 Z" fill="#000000" fill-rule="nonzero" fill-opacity="1" /><path clip-path="url(#clip120)" d="M231.575 79.7327 L231.575 55.1842 L239.028 55.1842 L239.028 118.216 L231.575 118.216 L231.575 111.411 Q229.225 115.462 225.62 117.447 Q222.055 119.391 217.032 119.391 Q208.809 119.391 203.624 112.829 Q198.479 106.266 198.479 95.5717 Q198.479 84.8773 203.624 78.3149 Q208.809 71.7524 217.032 71.7524 Q222.055 71.7524 225.62 73.7373 Q229.225 75.6818 231.575 79.7327 M206.176 95.5717 Q206.176 103.795 209.538 108.494 Q212.941 113.153 218.855 113.153 Q224.769 113.153 228.172 108.494 Q231.575 103.795 231.575 95.5717 Q231.575 87.3484 228.172 82.6898 Q224.769 77.9908 218.855 77.9908 Q212.941 77.9908 209.538 82.6898 Q206.176 87.3484 206.176 95.5717 Z" fill="#000000" fill-rule="nonzero" fill-opacity="1" /><path clip-path="url(#clip120)" d="M2007.5 198.898 L2279.55 198.898 L2279.55 95.2176 L2007.5 95.2176  Z" fill="#ffffff" fill-rule="evenodd" fill-opacity="1"/>
<polyline clip-path="url(#clip120)" style="stroke:#000000; stroke-linecap:round; stroke-linejoin:round; stroke-width:4; stroke-opacity:1; fill:none" points="2007.5,198.898 2279.55,198.898 2279.55,95.2176 2007.5,95.2176 2007.5,198.898 "/>
<circle clip-path="url(#clip120)" cx="2105.11" cy="147.058" r="20.48" fill="#808080" fill-rule="evenodd" fill-opacity="1" stroke="#000000" stroke-opacity="1" stroke-width="4.55111"/>
<path clip-path="url(#clip120)" d="M2216.56 166.745 Q2214.76 171.375 2213.04 172.787 Q2211.33 174.199 2208.46 174.199 L2205.06 174.199 L2205.06 170.634 L2207.56 170.634 Q2209.32 170.634 2210.29 169.8 Q2211.26 168.967 2212.44 165.865 L2213.2 163.921 L2202.72 138.412 L2207.23 138.412 L2215.33 158.689 L2223.44 138.412 L2227.95 138.412 L2216.56 166.745 Z" fill="#000000" fill-rule="nonzero" fill-opacity="1" /><path clip-path="url(#clip120)" d="M2235.24 160.402 L2242.88 160.402 L2242.88 134.037 L2234.57 135.703 L2234.57 131.444 L2242.83 129.778 L2247.51 129.778 L2247.51 160.402 L2255.15 160.402 L2255.15 164.338 L2235.24 164.338 L2235.24 160.402 Z" fill="#000000" fill-rule="nonzero" fill-opacity="1" /></svg>
