<?xml version="1.0" encoding="utf-8"?>
<svg xmlns="http://www.w3.org/2000/svg" xmlns:xlink="http://www.w3.org/1999/xlink" width="600" height="400" viewBox="0 0 2400 1600">
<defs>
  <clipPath id="clip790">
    <rect x="0" y="0" width="2400" height="1600"/>
  </clipPath>
</defs>
<path clip-path="url(#clip790)" d="M0 1600 L2400 1600 L2400 0 L0 0  Z" fill="#ffffff" fill-rule="evenodd" fill-opacity="1"/>
<defs>
  <clipPath id="clip791">
    <rect x="184" y="47" width="2170" height="1440"/>
  </clipPath>
</defs>
<path clip-path="url(#clip790)" d="M184.191 1486.45 L2352.76 1486.45 L2352.76 47.2441 L184.191 47.2441  Z" fill="#ffffff" fill-rule="evenodd" fill-opacity="1"/>
<polyline clip-path="url(#clip791)" style="stroke:#000000; stroke-linecap:round; stroke-linejoin:round; stroke-width:2; stroke-opacity:0.1; fill:none" points="495.522,1486.45 495.522,47.2441 "/>
<polyline clip-path="url(#clip791)" style="stroke:#000000; stroke-linecap:round; stroke-linejoin:round; stroke-width:2; stroke-opacity:0.1; fill:none" points="903.436,1486.45 903.436,47.2441 "/>
<polyline clip-path="url(#clip791)" style="stroke:#000000; stroke-linecap:round; stroke-linejoin:round; stroke-width:2; stroke-opacity:0.1; fill:none" points="1311.35,1486.45 1311.35,47.2441 "/>
<polyline clip-path="url(#clip791)" style="stroke:#000000; stroke-linecap:round; stroke-linejoin:round; stroke-width:2; stroke-opacity:0.1; fill:none" points="1719.26,1486.45 1719.26,47.2441 "/>
<polyline clip-path="url(#clip791)" style="stroke:#000000; stroke-linecap:round; stroke-linejoin:round; stroke-width:2; stroke-opacity:0.1; fill:none" points="2127.17,1486.45 2127.17,47.2441 "/>
<polyline clip-path="url(#clip791)" style="stroke:#000000; stroke-linecap:round; stroke-linejoin:round; stroke-width:2; stroke-opacity:0.1; fill:none" points="184.191,1471.21 2352.76,1471.21 "/>
<polyline clip-path="url(#clip791)" style="stroke:#000000; stroke-linecap:round; stroke-linejoin:round; stroke-width:2; stroke-opacity:0.1; fill:none" points="184.191,1131.86 2352.76,1131.86 "/>
<polyline clip-path="url(#clip791)" style="stroke:#000000; stroke-linecap:round; stroke-linejoin:round; stroke-width:2; stroke-opacity:0.1; fill:none" points="184.191,792.508 2352.76,792.508 "/>
<polyline clip-path="url(#clip791)" style="stroke:#000000; stroke-linecap:round; stroke-linejoin:round; stroke-width:2; stroke-opacity:0.1; fill:none" points="184.191,453.156 2352.76,453.156 "/>
<polyline clip-path="url(#clip791)" style="stroke:#000000; stroke-linecap:round; stroke-linejoin:round; stroke-width:2; stroke-opacity:0.1; fill:none" points="184.191,113.804 2352.76,113.804 "/>
<polyline clip-path="url(#clip790)" style="stroke:#000000; stroke-linecap:round; stroke-linejoin:round; stroke-width:4; stroke-opacity:1; fill:none" points="184.191,1486.45 2352.76,1486.45 "/>
<polyline clip-path="url(#clip790)" style="stroke:#000000; stroke-linecap:round; stroke-linejoin:round; stroke-width:4; stroke-opacity:1; fill:none" points="495.522,1486.45 495.522,1467.55 "/>
<polyline clip-path="url(#clip790)" style="stroke:#000000; stroke-linecap:round; stroke-linejoin:round; stroke-width:4; stroke-opacity:1; fill:none" points="903.436,1486.45 903.436,1467.55 "/>
<polyline clip-path="url(#clip790)" style="stroke:#000000; stroke-linecap:round; stroke-linejoin:round; stroke-width:4; stroke-opacity:1; fill:none" points="1311.35,1486.45 1311.35,1467.55 "/>
<polyline clip-path="url(#clip790)" style="stroke:#000000; stroke-linecap:round; stroke-linejoin:round; stroke-width:4; stroke-opacity:1; fill:none" points="1719.26,1486.45 1719.26,1467.55 "/>
<polyline clip-path="url(#clip790)" style="stroke:#000000; stroke-linecap:round; stroke-linejoin:round; stroke-width:4; stroke-opacity:1; fill:none" points="2127.17,1486.45 2127.17,1467.55 "/>
<path clip-path="url(#clip790)" d="M442.548 1532.02 L472.224 1532.02 L472.224 1535.95 L442.548 1535.95 L442.548 1532.02 Z" fill="#000000" fill-rule="nonzero" fill-opacity="1" /><path clip-path="url(#clip790)" d="M483.127 1544.91 L490.766 1544.91 L490.766 1518.55 L482.455 1520.21 L482.455 1515.95 L490.719 1514.29 L495.395 1514.29 L495.395 1544.91 L503.034 1544.91 L503.034 1548.85 L483.127 1548.85 L483.127 1544.91 Z" fill="#000000" fill-rule="nonzero" fill-opacity="1" /><path clip-path="url(#clip790)" d="M512.478 1542.97 L517.363 1542.97 L517.363 1548.85 L512.478 1548.85 L512.478 1542.97 Z" fill="#000000" fill-rule="nonzero" fill-opacity="1" /><path clip-path="url(#clip790)" d="M527.594 1514.29 L545.95 1514.29 L545.95 1518.22 L531.876 1518.22 L531.876 1526.7 Q532.895 1526.35 533.913 1526.19 Q534.932 1526 535.951 1526 Q541.738 1526 545.117 1529.17 Q548.497 1532.34 548.497 1537.76 Q548.497 1543.34 545.025 1546.44 Q541.552 1549.52 535.233 1549.52 Q533.057 1549.52 530.789 1549.15 Q528.543 1548.78 526.136 1548.04 L526.136 1543.34 Q528.219 1544.47 530.441 1545.03 Q532.664 1545.58 535.14 1545.58 Q539.145 1545.58 541.483 1543.48 Q543.821 1541.37 543.821 1537.76 Q543.821 1534.15 541.483 1532.04 Q539.145 1529.94 535.14 1529.94 Q533.265 1529.94 531.39 1530.35 Q529.539 1530.77 527.594 1531.65 L527.594 1514.29 Z" fill="#000000" fill-rule="nonzero" fill-opacity="1" /><path clip-path="url(#clip790)" d="M849.964 1532.02 L879.639 1532.02 L879.639 1535.95 L849.964 1535.95 L849.964 1532.02 Z" fill="#000000" fill-rule="nonzero" fill-opacity="1" /><path clip-path="url(#clip790)" d="M890.542 1544.91 L898.181 1544.91 L898.181 1518.55 L889.871 1520.21 L889.871 1515.95 L898.135 1514.29 L902.811 1514.29 L902.811 1544.91 L910.449 1544.91 L910.449 1548.85 L890.542 1548.85 L890.542 1544.91 Z" fill="#000000" fill-rule="nonzero" fill-opacity="1" /><path clip-path="url(#clip790)" d="M919.894 1542.97 L924.778 1542.97 L924.778 1548.85 L919.894 1548.85 L919.894 1542.97 Z" fill="#000000" fill-rule="nonzero" fill-opacity="1" /><path clip-path="url(#clip790)" d="M944.963 1517.37 Q941.352 1517.37 939.523 1520.93 Q937.718 1524.47 937.718 1531.6 Q937.718 1538.71 939.523 1542.27 Q941.352 1545.82 944.963 1545.82 Q948.597 1545.82 950.403 1542.27 Q952.232 1538.71 952.232 1531.6 Q952.232 1524.47 950.403 1520.93 Q948.597 1517.37 944.963 1517.37 M944.963 1513.66 Q950.773 1513.66 953.829 1518.27 Q956.908 1522.85 956.908 1531.6 Q956.908 1540.33 953.829 1544.94 Q950.773 1549.52 944.963 1549.52 Q939.153 1549.52 936.074 1544.94 Q933.019 1540.33 933.019 1531.6 Q933.019 1522.85 936.074 1518.27 Q939.153 1513.66 944.963 1513.66 Z" fill="#000000" fill-rule="nonzero" fill-opacity="1" /><path clip-path="url(#clip790)" d="M1258.37 1532.02 L1288.05 1532.02 L1288.05 1535.95 L1258.37 1535.95 L1258.37 1532.02 Z" fill="#000000" fill-rule="nonzero" fill-opacity="1" /><path clip-path="url(#clip790)" d="M1308.14 1517.37 Q1304.53 1517.37 1302.7 1520.93 Q1300.9 1524.47 1300.9 1531.6 Q1300.9 1538.71 1302.7 1542.27 Q1304.53 1545.82 1308.14 1545.82 Q1311.78 1545.82 1313.58 1542.27 Q1315.41 1538.71 1315.41 1531.6 Q1315.41 1524.47 1313.58 1520.93 Q1311.78 1517.37 1308.14 1517.37 M1308.14 1513.66 Q1313.95 1513.66 1317.01 1518.27 Q1320.09 1522.85 1320.09 1531.6 Q1320.09 1540.33 1317.01 1544.94 Q1313.95 1549.52 1308.14 1549.52 Q1302.33 1549.52 1299.25 1544.94 Q1296.2 1540.33 1296.2 1531.6 Q1296.2 1522.85 1299.25 1518.27 Q1302.33 1513.66 1308.14 1513.66 Z" fill="#000000" fill-rule="nonzero" fill-opacity="1" /><path clip-path="url(#clip790)" d="M1328.3 1542.97 L1333.19 1542.97 L1333.19 1548.85 L1328.3 1548.85 L1328.3 1542.97 Z" fill="#000000" fill-rule="nonzero" fill-opacity="1" /><path clip-path="url(#clip790)" d="M1343.42 1514.29 L1361.78 1514.29 L1361.78 1518.22 L1347.7 1518.22 L1347.7 1526.7 Q1348.72 1526.35 1349.74 1526.19 Q1350.76 1526 1351.78 1526 Q1357.56 1526 1360.94 1529.17 Q1364.32 1532.34 1364.32 1537.76 Q1364.32 1543.34 1360.85 1546.44 Q1357.38 1549.52 1351.06 1549.52 Q1348.88 1549.52 1346.61 1549.15 Q1344.37 1548.78 1341.96 1548.04 L1341.96 1543.34 Q1344.05 1544.47 1346.27 1545.03 Q1348.49 1545.58 1350.97 1545.58 Q1354.97 1545.58 1357.31 1543.48 Q1359.65 1541.37 1359.65 1537.76 Q1359.65 1534.15 1357.31 1532.04 Q1354.97 1529.94 1350.97 1529.94 Q1349.09 1529.94 1347.22 1530.35 Q1345.36 1530.77 1343.42 1531.65 L1343.42 1514.29 Z" fill="#000000" fill-rule="nonzero" fill-opacity="1" /><path clip-path="url(#clip790)" d="M1696.65 1517.37 Q1693.03 1517.37 1691.21 1520.93 Q1689.4 1524.47 1689.4 1531.6 Q1689.4 1538.71 1691.21 1542.27 Q1693.03 1545.82 1696.65 1545.82 Q1700.28 1545.82 1702.09 1542.27 Q1703.91 1538.71 1703.91 1531.6 Q1703.91 1524.47 1702.09 1520.93 Q1700.28 1517.37 1696.65 1517.37 M1696.65 1513.66 Q1702.46 1513.66 1705.51 1518.27 Q1708.59 1522.85 1708.59 1531.6 Q1708.59 1540.33 1705.51 1544.94 Q1702.46 1549.52 1696.65 1549.52 Q1690.84 1549.52 1687.76 1544.94 Q1684.7 1540.33 1684.7 1531.6 Q1684.7 1522.85 1687.76 1518.27 Q1690.84 1513.66 1696.65 1513.66 Z" fill="#000000" fill-rule="nonzero" fill-opacity="1" /><path clip-path="url(#clip790)" d="M1716.81 1542.97 L1721.69 1542.97 L1721.69 1548.85 L1716.81 1548.85 L1716.81 1542.97 Z" fill="#000000" fill-rule="nonzero" fill-opacity="1" /><path clip-path="url(#clip790)" d="M1741.88 1517.37 Q1738.27 1517.37 1736.44 1520.93 Q1734.63 1524.47 1734.63 1531.6 Q1734.63 1538.71 1736.44 1542.27 Q1738.27 1545.82 1741.88 1545.82 Q1745.51 1545.82 1747.32 1542.27 Q1749.15 1538.71 1749.15 1531.6 Q1749.15 1524.47 1747.32 1520.93 Q1745.51 1517.37 1741.88 1517.37 M1741.88 1513.66 Q1747.69 1513.66 1750.74 1518.27 Q1753.82 1522.85 1753.82 1531.6 Q1753.82 1540.33 1750.74 1544.94 Q1747.69 1549.52 1741.88 1549.52 Q1736.07 1549.52 1732.99 1544.94 Q1729.93 1540.33 1729.93 1531.6 Q1729.93 1522.85 1732.99 1518.27 Q1736.07 1513.66 1741.88 1513.66 Z" fill="#000000" fill-rule="nonzero" fill-opacity="1" /><path clip-path="url(#clip790)" d="M2105.06 1517.37 Q2101.45 1517.37 2099.62 1520.93 Q2097.81 1524.47 2097.81 1531.6 Q2097.81 1538.71 2099.62 1542.27 Q2101.45 1545.82 2105.06 1545.82 Q2108.69 1545.82 2110.5 1542.27 Q2112.33 1538.71 2112.33 1531.6 Q2112.33 1524.47 2110.5 1520.93 Q2108.69 1517.37 2105.06 1517.37 M2105.06 1513.66 Q2110.87 1513.66 2113.92 1518.27 Q2117 1522.85 2117 1531.6 Q2117 1540.33 2113.92 1544.94 Q2110.87 1549.52 2105.06 1549.52 Q2099.25 1549.52 2096.17 1544.94 Q2093.11 1540.33 2093.11 1531.6 Q2093.11 1522.85 2096.17 1518.27 Q2099.25 1513.66 2105.06 1513.66 Z" fill="#000000" fill-rule="nonzero" fill-opacity="1" /><path clip-path="url(#clip790)" d="M2125.22 1542.97 L2130.1 1542.97 L2130.1 1548.85 L2125.22 1548.85 L2125.22 1542.97 Z" fill="#000000" fill-rule="nonzero" fill-opacity="1" /><path clip-path="url(#clip790)" d="M2140.33 1514.29 L2158.69 1514.29 L2158.69 1518.22 L2144.62 1518.22 L2144.62 1526.7 Q2145.64 1526.35 2146.65 1526.19 Q2147.67 1526 2148.69 1526 Q2154.48 1526 2157.86 1529.17 Q2161.24 1532.34 2161.24 1537.76 Q2161.24 1543.34 2157.76 1546.44 Q2154.29 1549.52 2147.97 1549.52 Q2145.8 1549.52 2143.53 1549.15 Q2141.28 1548.78 2138.88 1548.04 L2138.88 1543.34 Q2140.96 1544.47 2143.18 1545.03 Q2145.4 1545.58 2147.88 1545.58 Q2151.89 1545.58 2154.22 1543.48 Q2156.56 1541.37 2156.56 1537.76 Q2156.56 1534.15 2154.22 1532.04 Q2151.89 1529.94 2147.88 1529.94 Q2146.01 1529.94 2144.13 1530.35 Q2142.28 1530.77 2140.33 1531.65 L2140.33 1514.29 Z" fill="#000000" fill-rule="nonzero" fill-opacity="1" /><polyline clip-path="url(#clip790)" style="stroke:#000000; stroke-linecap:round; stroke-linejoin:round; stroke-width:4; stroke-opacity:1; fill:none" points="184.191,1486.45 184.191,47.2441 "/>
<polyline clip-path="url(#clip790)" style="stroke:#000000; stroke-linecap:round; stroke-linejoin:round; stroke-width:4; stroke-opacity:1; fill:none" points="184.191,1471.21 203.088,1471.21 "/>
<polyline clip-path="url(#clip790)" style="stroke:#000000; stroke-linecap:round; stroke-linejoin:round; stroke-width:4; stroke-opacity:1; fill:none" points="184.191,1131.86 203.088,1131.86 "/>
<polyline clip-path="url(#clip790)" style="stroke:#000000; stroke-linecap:round; stroke-linejoin:round; stroke-width:4; stroke-opacity:1; fill:none" points="184.191,792.508 203.088,792.508 "/>
<polyline clip-path="url(#clip790)" style="stroke:#000000; stroke-linecap:round; stroke-linejoin:round; stroke-width:4; stroke-opacity:1; fill:none" points="184.191,453.156 203.088,453.156 "/>
<polyline clip-path="url(#clip790)" style="stroke:#000000; stroke-linecap:round; stroke-linejoin:round; stroke-width:4; stroke-opacity:1; fill:none" points="184.191,113.804 203.088,113.804 "/>
<path clip-path="url(#clip790)" d="M91.0151 1457.01 Q87.404 1457.01 85.5753 1460.58 Q83.7697 1464.12 83.7697 1471.25 Q83.7697 1478.35 85.5753 1481.92 Q87.404 1485.46 91.0151 1485.46 Q94.6493 1485.46 96.4548 1481.92 Q98.2835 1478.35 98.2835 1471.25 Q98.2835 1464.12 96.4548 1460.58 Q94.6493 1457.01 91.0151 1457.01 M91.0151 1453.31 Q96.8252 1453.31 99.8808 1457.91 Q102.959 1462.5 102.959 1471.25 Q102.959 1479.97 99.8808 1484.58 Q96.8252 1489.16 91.0151 1489.16 Q85.2049 1489.16 82.1262 1484.58 Q79.0707 1479.97 79.0707 1471.25 Q79.0707 1462.5 82.1262 1457.91 Q85.2049 1453.31 91.0151 1453.31 Z" fill="#000000" fill-rule="nonzero" fill-opacity="1" /><path clip-path="url(#clip790)" d="M111.177 1482.61 L116.061 1482.61 L116.061 1488.49 L111.177 1488.49 L111.177 1482.61 Z" fill="#000000" fill-rule="nonzero" fill-opacity="1" /><path clip-path="url(#clip790)" d="M136.246 1457.01 Q132.635 1457.01 130.807 1460.58 Q129.001 1464.12 129.001 1471.25 Q129.001 1478.35 130.807 1481.92 Q132.635 1485.46 136.246 1485.46 Q139.881 1485.46 141.686 1481.92 Q143.515 1478.35 143.515 1471.25 Q143.515 1464.12 141.686 1460.58 Q139.881 1457.01 136.246 1457.01 M136.246 1453.31 Q142.056 1453.31 145.112 1457.91 Q148.191 1462.5 148.191 1471.25 Q148.191 1479.97 145.112 1484.58 Q142.056 1489.16 136.246 1489.16 Q130.436 1489.16 127.357 1484.58 Q124.302 1479.97 124.302 1471.25 Q124.302 1462.5 127.357 1457.91 Q130.436 1453.31 136.246 1453.31 Z" fill="#000000" fill-rule="nonzero" fill-opacity="1" /><path clip-path="url(#clip790)" d="M86.0382 1145.21 L102.358 1145.21 L102.358 1149.14 L80.4133 1149.14 L80.4133 1145.21 Q83.0753 1142.45 87.6586 1137.82 Q92.2651 1133.17 93.4456 1131.83 Q95.691 1129.3 96.5706 1127.57 Q97.4734 1125.81 97.4734 1124.12 Q97.4734 1121.36 95.5289 1119.63 Q93.6076 1117.89 90.5058 1117.89 Q88.3067 1117.89 85.8531 1118.65 Q83.4225 1119.42 80.6447 1120.97 L80.6447 1116.25 Q83.4688 1115.11 85.9225 1114.53 Q88.3762 1113.96 90.4132 1113.96 Q95.7836 1113.96 98.978 1116.64 Q102.172 1119.33 102.172 1123.82 Q102.172 1125.95 101.362 1127.87 Q100.575 1129.77 98.4687 1132.36 Q97.89 1133.03 94.7882 1136.25 Q91.6864 1139.44 86.0382 1145.21 Z" fill="#000000" fill-rule="nonzero" fill-opacity="1" /><path clip-path="url(#clip790)" d="M112.172 1143.26 L117.057 1143.26 L117.057 1149.14 L112.172 1149.14 L112.172 1143.26 Z" fill="#000000" fill-rule="nonzero" fill-opacity="1" /><path clip-path="url(#clip790)" d="M127.288 1114.58 L145.644 1114.58 L145.644 1118.52 L131.57 1118.52 L131.57 1126.99 Q132.589 1126.64 133.607 1126.48 Q134.626 1126.29 135.644 1126.29 Q141.431 1126.29 144.811 1129.46 Q148.191 1132.64 148.191 1138.05 Q148.191 1143.63 144.718 1146.73 Q141.246 1149.81 134.927 1149.81 Q132.751 1149.81 130.482 1149.44 Q128.237 1149.07 125.83 1148.33 L125.83 1143.63 Q127.913 1144.77 130.135 1145.32 Q132.357 1145.88 134.834 1145.88 Q138.839 1145.88 141.177 1143.77 Q143.515 1141.66 143.515 1138.05 Q143.515 1134.44 141.177 1132.33 Q138.839 1130.23 134.834 1130.23 Q132.959 1130.23 131.084 1130.65 Q129.232 1131.06 127.288 1131.94 L127.288 1114.58 Z" fill="#000000" fill-rule="nonzero" fill-opacity="1" /><path clip-path="url(#clip790)" d="M81.0614 775.228 L99.4178 775.228 L99.4178 779.163 L85.3438 779.163 L85.3438 787.636 Q86.3623 787.288 87.3808 787.126 Q88.3993 786.941 89.4178 786.941 Q95.2049 786.941 98.5845 790.112 Q101.964 793.284 101.964 798.7 Q101.964 804.279 98.4919 807.381 Q95.0197 810.459 88.7003 810.459 Q86.5243 810.459 84.2558 810.089 Q82.0105 809.719 79.6031 808.978 L79.6031 804.279 Q81.6864 805.413 83.9086 805.969 Q86.1308 806.524 88.6077 806.524 Q92.6123 806.524 94.9502 804.418 Q97.2882 802.311 97.2882 798.7 Q97.2882 795.089 94.9502 792.983 Q92.6123 790.876 88.6077 790.876 Q86.7327 790.876 84.8577 791.293 Q83.0058 791.71 81.0614 792.589 L81.0614 775.228 Z" fill="#000000" fill-rule="nonzero" fill-opacity="1" /><path clip-path="url(#clip790)" d="M111.177 803.909 L116.061 803.909 L116.061 809.788 L111.177 809.788 L111.177 803.909 Z" fill="#000000" fill-rule="nonzero" fill-opacity="1" /><path clip-path="url(#clip790)" d="M136.246 778.307 Q132.635 778.307 130.807 781.872 Q129.001 785.413 129.001 792.543 Q129.001 799.649 130.807 803.214 Q132.635 806.756 136.246 806.756 Q139.881 806.756 141.686 803.214 Q143.515 799.649 143.515 792.543 Q143.515 785.413 141.686 781.872 Q139.881 778.307 136.246 778.307 M136.246 774.603 Q142.056 774.603 145.112 779.21 Q148.191 783.793 148.191 792.543 Q148.191 801.27 145.112 805.876 Q142.056 810.459 136.246 810.459 Q130.436 810.459 127.357 805.876 Q124.302 801.27 124.302 792.543 Q124.302 783.793 127.357 779.21 Q130.436 774.603 136.246 774.603 Z" fill="#000000" fill-rule="nonzero" fill-opacity="1" /><path clip-path="url(#clip790)" d="M80.8299 435.876 L103.052 435.876 L103.052 437.867 L90.5058 470.436 L85.6216 470.436 L97.4271 439.811 L80.8299 439.811 L80.8299 435.876 Z" fill="#000000" fill-rule="nonzero" fill-opacity="1" /><path clip-path="url(#clip790)" d="M112.172 464.556 L117.057 464.556 L117.057 470.436 L112.172 470.436 L112.172 464.556 Z" fill="#000000" fill-rule="nonzero" fill-opacity="1" /><path clip-path="url(#clip790)" d="M127.288 435.876 L145.644 435.876 L145.644 439.811 L131.57 439.811 L131.57 448.283 Q132.589 447.936 133.607 447.774 Q134.626 447.589 135.644 447.589 Q141.431 447.589 144.811 450.76 Q148.191 453.931 148.191 459.348 Q148.191 464.927 144.718 468.029 Q141.246 471.107 134.927 471.107 Q132.751 471.107 130.482 470.737 Q128.237 470.367 125.83 469.626 L125.83 464.927 Q127.913 466.061 130.135 466.617 Q132.357 467.172 134.834 467.172 Q138.839 467.172 141.177 465.066 Q143.515 462.959 143.515 459.348 Q143.515 455.737 141.177 453.631 Q138.839 451.524 134.834 451.524 Q132.959 451.524 131.084 451.941 Q129.232 452.357 127.288 453.237 L127.288 435.876 Z" fill="#000000" fill-rule="nonzero" fill-opacity="1" /><path clip-path="url(#clip790)" d="M51.6634 127.149 L59.3023 127.149 L59.3023 100.783 L50.9921 102.45 L50.9921 98.1904 L59.256 96.5238 L63.9319 96.5238 L63.9319 127.149 L71.5707 127.149 L71.5707 131.084 L51.6634 131.084 L51.6634 127.149 Z" fill="#000000" fill-rule="nonzero" fill-opacity="1" /><path clip-path="url(#clip790)" d="M91.0151 99.6025 Q87.404 99.6025 85.5753 103.167 Q83.7697 106.709 83.7697 113.838 Q83.7697 120.945 85.5753 124.51 Q87.404 128.051 91.0151 128.051 Q94.6493 128.051 96.4548 124.51 Q98.2835 120.945 98.2835 113.838 Q98.2835 106.709 96.4548 103.167 Q94.6493 99.6025 91.0151 99.6025 M91.0151 95.8988 Q96.8252 95.8988 99.8808 100.505 Q102.959 105.089 102.959 113.838 Q102.959 122.565 99.8808 127.172 Q96.8252 131.755 91.0151 131.755 Q85.2049 131.755 82.1262 127.172 Q79.0707 122.565 79.0707 113.838 Q79.0707 105.089 82.1262 100.505 Q85.2049 95.8988 91.0151 95.8988 Z" fill="#000000" fill-rule="nonzero" fill-opacity="1" /><path clip-path="url(#clip790)" d="M111.177 125.204 L116.061 125.204 L116.061 131.084 L111.177 131.084 L111.177 125.204 Z" fill="#000000" fill-rule="nonzero" fill-opacity="1" /><path clip-path="url(#clip790)" d="M136.246 99.6025 Q132.635 99.6025 130.807 103.167 Q129.001 106.709 129.001 113.838 Q129.001 120.945 130.807 124.51 Q132.635 128.051 136.246 128.051 Q139.881 128.051 141.686 124.51 Q143.515 120.945 143.515 113.838 Q143.515 106.709 141.686 103.167 Q139.881 99.6025 136.246 99.6025 M136.246 95.8988 Q142.056 95.8988 145.112 100.505 Q148.191 105.089 148.191 113.838 Q148.191 122.565 145.112 127.172 Q142.056 131.755 136.246 131.755 Q130.436 131.755 127.357 127.172 Q124.302 122.565 124.302 113.838 Q124.302 105.089 127.357 100.505 Q130.436 95.8988 136.246 95.8988 Z" fill="#000000" fill-rule="nonzero" fill-opacity="1" /><circle clip-path="url(#clip791)" cx="2291.38" cy="1380.47" r="14.4" fill="#808080" fill-rule="evenodd" fill-opacity="1" stroke="#000000" stroke-opacity="1" stroke-width="3.2"/>
<circle clip-path="url(#clip791)" cx="245.565" cy="87.9763" r="14.4" fill="#808080" fill-rule="evenodd" fill-opacity="1" stroke="#000000" stroke-opacity="1" stroke-width="3.2"/>
<circle clip-path="url(#clip791)" cx="1752.89" cy="1445.72" r="14.4" fill="#808080" fill-rule="evenodd" fill-opacity="1" stroke="#000000" stroke-opacity="1" stroke-width="3.2"/>
<circle clip-path="url(#clip791)" cx="1585.11" cy="1417.4" r="14.4" fill="#808080" fill-rule="evenodd" fill-opacity="1" stroke="#000000" stroke-opacity="1" stroke-width="3.2"/>
<path clip-path="url(#clip790)" d="M2295.68 1387.91 Q2286.64 1387.91 2283.16 1389.97 Q2279.67 1392.04 2279.67 1397.02 Q2279.67 1400.99 2282.27 1403.34 Q2284.9 1405.65 2289.4 1405.65 Q2295.59 1405.65 2299.32 1401.27 Q2303.09 1396.86 2303.09 1389.57 L2303.09 1387.91 L2295.68 1387.91 M2310.54 1384.83 L2310.54 1410.71 L2303.09 1410.71 L2303.09 1403.83 Q2300.54 1407.96 2296.73 1409.94 Q2292.92 1411.89 2287.41 1411.89 Q2280.44 1411.89 2276.31 1408 Q2272.22 1404.07 2272.22 1397.51 Q2272.22 1389.85 2277.32 1385.96 Q2282.47 1382.07 2292.64 1382.07 L2303.09 1382.07 L2303.09 1381.34 Q2303.09 1376.2 2299.69 1373.4 Q2296.32 1370.57 2290.21 1370.57 Q2286.32 1370.57 2282.63 1371.5 Q2278.95 1372.43 2275.54 1374.3 L2275.54 1367.41 Q2279.63 1365.83 2283.48 1365.06 Q2287.33 1364.25 2290.98 1364.25 Q2300.82 1364.25 2305.68 1369.35 Q2310.54 1374.46 2310.54 1384.83 Z" fill="#000000" fill-rule="nonzero" fill-opacity="1" /><path clip-path="url(#clip790)" d="M258.123 95.5717 Q258.123 87.3484 254.72 82.6898 Q251.358 77.9908 245.444 77.9908 Q239.529 77.9908 236.127 82.6898 Q232.764 87.3484 232.764 95.5717 Q232.764 103.795 236.127 108.494 Q239.529 113.153 245.444 113.153 Q251.358 113.153 254.72 108.494 Q258.123 103.795 258.123 95.5717 M232.764 79.7327 Q235.114 75.6818 238.679 73.7373 Q242.284 71.7524 247.267 71.7524 Q255.53 71.7524 260.675 78.3149 Q265.86 84.8773 265.86 95.5717 Q265.86 106.266 260.675 112.829 Q255.53 119.391 247.267 119.391 Q242.284 119.391 238.679 117.447 Q235.114 115.462 232.764 111.411 L232.764 118.216 L225.27 118.216 L225.27 55.1842 L232.764 55.1842 L232.764 79.7327 Z" fill="#000000" fill-rule="nonzero" fill-opacity="1" /><path clip-path="url(#clip790)" d="M1770.83 1432.33 L1770.83 1439.3 Q1767.67 1437.55 1764.47 1436.7 Q1761.31 1435.81 1758.07 1435.81 Q1750.82 1435.81 1746.81 1440.43 Q1742.8 1445.01 1742.8 1453.31 Q1742.8 1461.62 1746.81 1466.23 Q1750.82 1470.81 1758.07 1470.81 Q1761.31 1470.81 1764.47 1469.96 Q1767.67 1469.07 1770.83 1467.33 L1770.83 1474.21 Q1767.71 1475.67 1764.35 1476.4 Q1761.03 1477.13 1757.26 1477.13 Q1747.01 1477.13 1740.98 1470.69 Q1734.94 1464.25 1734.94 1453.31 Q1734.94 1442.21 1741.02 1435.85 Q1747.13 1429.49 1757.75 1429.49 Q1761.19 1429.49 1764.47 1430.22 Q1767.75 1430.91 1770.83 1432.33 Z" fill="#000000" fill-rule="nonzero" fill-opacity="1" /><path clip-path="url(#clip790)" d="M1597.94 1409.16 L1597.94 1384.61 L1605.39 1384.61 L1605.39 1447.64 L1597.94 1447.64 L1597.94 1440.84 Q1595.59 1444.89 1591.98 1446.87 Q1588.42 1448.82 1583.39 1448.82 Q1575.17 1448.82 1569.98 1442.25 Q1564.84 1435.69 1564.84 1425 Q1564.84 1414.3 1569.98 1407.74 Q1575.17 1401.18 1583.39 1401.18 Q1588.42 1401.18 1591.98 1403.16 Q1595.59 1405.11 1597.94 1409.16 M1572.54 1425 Q1572.54 1433.22 1575.9 1437.92 Q1579.3 1442.58 1585.22 1442.58 Q1591.13 1442.58 1594.53 1437.92 Q1597.94 1433.22 1597.94 1425 Q1597.94 1416.77 1594.53 1412.12 Q1591.13 1407.42 1585.22 1407.42 Q1579.3 1407.42 1575.9 1412.12 Q1572.54 1416.77 1572.54 1425 Z" fill="#000000" fill-rule="nonzero" fill-opacity="1" /><path clip-path="url(#clip790)" d="M2011.18 198.898 L2280.47 198.898 L2280.47 95.2176 L2011.18 95.2176  Z" fill="#ffffff" fill-rule="evenodd" fill-opacity="1"/>
<polyline clip-path="url(#clip790)" style="stroke:#000000; stroke-linecap:round; stroke-linejoin:round; stroke-width:4; stroke-opacity:1; fill:none" points="2011.18,198.898 2280.47,198.898 2280.47,95.2176 2011.18,95.2176 2011.18,198.898 "/>
<circle clip-path="url(#clip790)" cx="2107.56" cy="147.058" r="20.48" fill="#808080" fill-rule="evenodd" fill-opacity="1" stroke="#000000" stroke-opacity="1" stroke-width="4.55111"/>
<path clip-path="url(#clip790)" d="M2217.79 166.745 Q2215.98 171.375 2214.27 172.787 Q2212.56 174.199 2209.69 174.199 L2206.28 174.199 L2206.28 170.634 L2208.78 170.634 Q2210.54 170.634 2211.51 169.8 Q2212.49 168.967 2213.67 165.865 L2214.43 163.921 L2203.94 138.412 L2208.46 138.412 L2216.56 158.689 L2224.66 138.412 L2229.18 138.412 L2217.79 166.745 Z" fill="#000000" fill-rule="nonzero" fill-opacity="1" /><path clip-path="url(#clip790)" d="M2236.47 160.402 L2244.11 160.402 L2244.11 134.037 L2235.8 135.703 L2235.8 131.444 L2244.06 129.778 L2248.74 129.778 L2248.74 160.402 L2256.38 160.402 L2256.38 164.338 L2236.47 164.338 L2236.47 160.402 Z" fill="#000000" fill-rule="nonzero" fill-opacity="1" /></svg>
