<?xml version="1.0" encoding="utf-8"?>
<svg xmlns="http://www.w3.org/2000/svg" xmlns:xlink="http://www.w3.org/1999/xlink" width="600" height="400" viewBox="0 0 2400 1600">
<defs>
  <clipPath id="clip760">
    <rect x="0" y="0" width="2400" height="1600"/>
  </clipPath>
</defs>
<path clip-path="url(#clip760)" d="M0 1600 L2400 1600 L2400 0 L0 0  Z" fill="#ffffff" fill-rule="evenodd" fill-opacity="1"/>
<defs>
  <clipPath id="clip761">
    <rect x="480" y="0" width="1681" height="1600"/>
  </clipPath>
</defs>
<path clip-path="url(#clip760)" d="M112.177 1486.45 L2352.76 1486.45 L2352.76 47.2441 L112.177 47.2441  Z" fill="#ffffff" fill-rule="evenodd" fill-opacity="1"/>
<defs>
  <clipPath id="clip762">
    <rect x="112" y="47" width="2242" height="1440"/>
  </clipPath>
</defs>
<polyline clip-path="url(#clip762)" style="stroke:#000000; stroke-linecap:round; stroke-linejoin:round; stroke-width:2; stroke-opacity:0.1; fill:none" points="186.653,1486.45 186.653,47.2441 "/>
<polyline clip-path="url(#clip762)" style="stroke:#000000; stroke-linecap:round; stroke-linejoin:round; stroke-width:2; stroke-opacity:0.1; fill:none" points="637.773,1486.45 637.773,47.2441 "/>
<polyline clip-path="url(#clip762)" style="stroke:#000000; stroke-linecap:round; stroke-linejoin:round; stroke-width:2; stroke-opacity:0.1; fill:none" points="1088.89,1486.45 1088.89,47.2441 "/>
<polyline clip-path="url(#clip762)" style="stroke:#000000; stroke-linecap:round; stroke-linejoin:round; stroke-width:2; stroke-opacity:0.1; fill:none" points="1540.01,1486.45 1540.01,47.2441 "/>
<polyline clip-path="url(#clip762)" style="stroke:#000000; stroke-linecap:round; stroke-linejoin:round; stroke-width:2; stroke-opacity:0.1; fill:none" points="1991.13,1486.45 1991.13,47.2441 "/>
<polyline clip-path="url(#clip762)" style="stroke:#000000; stroke-linecap:round; stroke-linejoin:round; stroke-width:2; stroke-opacity:0.1; fill:none" points="112.177,1484.36 2352.76,1484.36 "/>
<polyline clip-path="url(#clip762)" style="stroke:#000000; stroke-linecap:round; stroke-linejoin:round; stroke-width:2; stroke-opacity:0.1; fill:none" points="112.177,1276.74 2352.76,1276.74 "/>
<polyline clip-path="url(#clip762)" style="stroke:#000000; stroke-linecap:round; stroke-linejoin:round; stroke-width:2; stroke-opacity:0.1; fill:none" points="112.177,1069.12 2352.76,1069.12 "/>
<polyline clip-path="url(#clip762)" style="stroke:#000000; stroke-linecap:round; stroke-linejoin:round; stroke-width:2; stroke-opacity:0.1; fill:none" points="112.177,861.497 2352.76,861.497 "/>
<polyline clip-path="url(#clip762)" style="stroke:#000000; stroke-linecap:round; stroke-linejoin:round; stroke-width:2; stroke-opacity:0.1; fill:none" points="112.177,653.875 2352.76,653.875 "/>
<polyline clip-path="url(#clip762)" style="stroke:#000000; stroke-linecap:round; stroke-linejoin:round; stroke-width:2; stroke-opacity:0.1; fill:none" points="112.177,446.253 2352.76,446.253 "/>
<polyline clip-path="url(#clip762)" style="stroke:#000000; stroke-linecap:round; stroke-linejoin:round; stroke-width:2; stroke-opacity:0.1; fill:none" points="112.177,238.631 2352.76,238.631 "/>
<polyline clip-path="url(#clip760)" style="stroke:#000000; stroke-linecap:round; stroke-linejoin:round; stroke-width:4; stroke-opacity:1; fill:none" points="112.177,1486.45 2352.76,1486.45 "/>
<polyline clip-path="url(#clip760)" style="stroke:#000000; stroke-linecap:round; stroke-linejoin:round; stroke-width:4; stroke-opacity:1; fill:none" points="186.653,1486.45 186.653,1467.55 "/>
<polyline clip-path="url(#clip760)" style="stroke:#000000; stroke-linecap:round; stroke-linejoin:round; stroke-width:4; stroke-opacity:1; fill:none" points="637.773,1486.45 637.773,1467.55 "/>
<polyline clip-path="url(#clip760)" style="stroke:#000000; stroke-linecap:round; stroke-linejoin:round; stroke-width:4; stroke-opacity:1; fill:none" points="1088.89,1486.45 1088.89,1467.55 "/>
<polyline clip-path="url(#clip760)" style="stroke:#000000; stroke-linecap:round; stroke-linejoin:round; stroke-width:4; stroke-opacity:1; fill:none" points="1540.01,1486.45 1540.01,1467.55 "/>
<polyline clip-path="url(#clip760)" style="stroke:#000000; stroke-linecap:round; stroke-linejoin:round; stroke-width:4; stroke-opacity:1; fill:none" points="1991.13,1486.45 1991.13,1467.55 "/>
<path clip-path="url(#clip760)" d="M133.678 1532.02 L163.354 1532.02 L163.354 1535.95 L133.678 1535.95 L133.678 1532.02 Z" fill="#000000" fill-rule="nonzero" fill-opacity="1" /><path clip-path="url(#clip760)" d="M174.257 1544.91 L181.896 1544.91 L181.896 1518.55 L173.586 1520.21 L173.586 1515.95 L181.85 1514.29 L186.525 1514.29 L186.525 1544.91 L194.164 1544.91 L194.164 1548.85 L174.257 1548.85 L174.257 1544.91 Z" fill="#000000" fill-rule="nonzero" fill-opacity="1" /><path clip-path="url(#clip760)" d="M203.609 1542.97 L208.493 1542.97 L208.493 1548.85 L203.609 1548.85 L203.609 1542.97 Z" fill="#000000" fill-rule="nonzero" fill-opacity="1" /><path clip-path="url(#clip760)" d="M218.724 1514.29 L237.081 1514.29 L237.081 1518.22 L223.007 1518.22 L223.007 1526.7 Q224.025 1526.35 225.044 1526.19 Q226.062 1526 227.081 1526 Q232.868 1526 236.247 1529.17 Q239.627 1532.34 239.627 1537.76 Q239.627 1543.34 236.155 1546.44 Q232.683 1549.52 226.363 1549.52 Q224.187 1549.52 221.919 1549.15 Q219.673 1548.78 217.266 1548.04 L217.266 1543.34 Q219.349 1544.47 221.572 1545.03 Q223.794 1545.58 226.271 1545.58 Q230.275 1545.58 232.613 1543.48 Q234.951 1541.37 234.951 1537.76 Q234.951 1534.15 232.613 1532.04 Q230.275 1529.94 226.271 1529.94 Q224.396 1529.94 222.521 1530.35 Q220.669 1530.77 218.724 1531.65 L218.724 1514.29 Z" fill="#000000" fill-rule="nonzero" fill-opacity="1" /><path clip-path="url(#clip760)" d="M584.301 1532.02 L613.977 1532.02 L613.977 1535.95 L584.301 1535.95 L584.301 1532.02 Z" fill="#000000" fill-rule="nonzero" fill-opacity="1" /><path clip-path="url(#clip760)" d="M624.879 1544.91 L632.518 1544.91 L632.518 1518.55 L624.208 1520.21 L624.208 1515.95 L632.472 1514.29 L637.148 1514.29 L637.148 1544.91 L644.787 1544.91 L644.787 1548.85 L624.879 1548.85 L624.879 1544.91 Z" fill="#000000" fill-rule="nonzero" fill-opacity="1" /><path clip-path="url(#clip760)" d="M654.231 1542.97 L659.115 1542.97 L659.115 1548.85 L654.231 1548.85 L654.231 1542.97 Z" fill="#000000" fill-rule="nonzero" fill-opacity="1" /><path clip-path="url(#clip760)" d="M679.3 1517.37 Q675.689 1517.37 673.861 1520.93 Q672.055 1524.47 672.055 1531.6 Q672.055 1538.71 673.861 1542.27 Q675.689 1545.82 679.3 1545.82 Q682.935 1545.82 684.74 1542.27 Q686.569 1538.71 686.569 1531.6 Q686.569 1524.47 684.74 1520.93 Q682.935 1517.37 679.3 1517.37 M679.3 1513.66 Q685.111 1513.66 688.166 1518.27 Q691.245 1522.85 691.245 1531.6 Q691.245 1540.33 688.166 1544.94 Q685.111 1549.52 679.3 1549.52 Q673.49 1549.52 670.412 1544.94 Q667.356 1540.33 667.356 1531.6 Q667.356 1522.85 670.412 1518.27 Q673.49 1513.66 679.3 1513.66 Z" fill="#000000" fill-rule="nonzero" fill-opacity="1" /><path clip-path="url(#clip760)" d="M1035.92 1532.02 L1065.59 1532.02 L1065.59 1535.95 L1035.92 1535.95 L1035.92 1532.02 Z" fill="#000000" fill-rule="nonzero" fill-opacity="1" /><path clip-path="url(#clip760)" d="M1085.69 1517.37 Q1082.08 1517.37 1080.25 1520.93 Q1078.44 1524.47 1078.44 1531.6 Q1078.44 1538.71 1080.25 1542.27 Q1082.08 1545.82 1085.69 1545.82 Q1089.32 1545.82 1091.13 1542.27 Q1092.96 1538.71 1092.96 1531.6 Q1092.96 1524.47 1091.13 1520.93 Q1089.32 1517.37 1085.69 1517.37 M1085.69 1513.66 Q1091.5 1513.66 1094.55 1518.27 Q1097.63 1522.85 1097.63 1531.6 Q1097.63 1540.33 1094.55 1544.94 Q1091.5 1549.52 1085.69 1549.52 Q1079.88 1549.52 1076.8 1544.94 Q1073.74 1540.33 1073.74 1531.6 Q1073.74 1522.85 1076.8 1518.27 Q1079.88 1513.66 1085.69 1513.66 Z" fill="#000000" fill-rule="nonzero" fill-opacity="1" /><path clip-path="url(#clip760)" d="M1105.85 1542.97 L1110.73 1542.97 L1110.73 1548.85 L1105.85 1548.85 L1105.85 1542.97 Z" fill="#000000" fill-rule="nonzero" fill-opacity="1" /><path clip-path="url(#clip760)" d="M1120.96 1514.29 L1139.32 1514.29 L1139.32 1518.22 L1125.25 1518.22 L1125.25 1526.7 Q1126.27 1526.35 1127.28 1526.19 Q1128.3 1526 1129.32 1526 Q1135.11 1526 1138.49 1529.17 Q1141.87 1532.34 1141.87 1537.76 Q1141.87 1543.34 1138.39 1546.44 Q1134.92 1549.52 1128.6 1549.52 Q1126.43 1549.52 1124.16 1549.15 Q1121.91 1548.78 1119.51 1548.04 L1119.51 1543.34 Q1121.59 1544.47 1123.81 1545.03 Q1126.03 1545.58 1128.51 1545.58 Q1132.52 1545.58 1134.85 1543.48 Q1137.19 1541.37 1137.19 1537.76 Q1137.19 1534.15 1134.85 1532.04 Q1132.52 1529.94 1128.51 1529.94 Q1126.64 1529.94 1124.76 1530.35 Q1122.91 1530.77 1120.96 1531.65 L1120.96 1514.29 Z" fill="#000000" fill-rule="nonzero" fill-opacity="1" /><path clip-path="url(#clip760)" d="M1517.4 1517.37 Q1513.79 1517.37 1511.96 1520.93 Q1510.15 1524.47 1510.15 1531.6 Q1510.15 1538.71 1511.96 1542.27 Q1513.79 1545.82 1517.4 1545.82 Q1521.03 1545.82 1522.84 1542.27 Q1524.67 1538.71 1524.67 1531.6 Q1524.67 1524.47 1522.84 1520.93 Q1521.03 1517.37 1517.4 1517.37 M1517.4 1513.66 Q1523.21 1513.66 1526.26 1518.27 Q1529.34 1522.85 1529.34 1531.6 Q1529.34 1540.33 1526.26 1544.94 Q1523.21 1549.52 1517.4 1549.52 Q1511.59 1549.52 1508.51 1544.94 Q1505.45 1540.33 1505.45 1531.6 Q1505.45 1522.85 1508.51 1518.27 Q1511.59 1513.66 1517.4 1513.66 Z" fill="#000000" fill-rule="nonzero" fill-opacity="1" /><path clip-path="url(#clip760)" d="M1537.56 1542.97 L1542.44 1542.97 L1542.44 1548.85 L1537.56 1548.85 L1537.56 1542.97 Z" fill="#000000" fill-rule="nonzero" fill-opacity="1" /><path clip-path="url(#clip760)" d="M1562.63 1517.37 Q1559.02 1517.37 1557.19 1520.93 Q1555.38 1524.47 1555.38 1531.6 Q1555.38 1538.71 1557.19 1542.27 Q1559.02 1545.82 1562.63 1545.82 Q1566.26 1545.82 1568.07 1542.27 Q1569.9 1538.71 1569.9 1531.6 Q1569.9 1524.47 1568.07 1520.93 Q1566.26 1517.37 1562.63 1517.37 M1562.63 1513.66 Q1568.44 1513.66 1571.49 1518.27 Q1574.57 1522.85 1574.57 1531.6 Q1574.57 1540.33 1571.49 1544.94 Q1568.44 1549.52 1562.63 1549.52 Q1556.82 1549.52 1553.74 1544.94 Q1550.68 1540.33 1550.68 1531.6 Q1550.68 1522.85 1553.74 1518.27 Q1556.82 1513.66 1562.63 1513.66 Z" fill="#000000" fill-rule="nonzero" fill-opacity="1" /><path clip-path="url(#clip760)" d="M1969.02 1517.37 Q1965.4 1517.37 1963.58 1520.93 Q1961.77 1524.47 1961.77 1531.6 Q1961.77 1538.71 1963.58 1542.27 Q1965.4 1545.82 1969.02 1545.82 Q1972.65 1545.82 1974.45 1542.27 Q1976.28 1538.71 1976.28 1531.6 Q1976.28 1524.47 1974.45 1520.93 Q1972.65 1517.37 1969.02 1517.37 M1969.02 1513.66 Q1974.83 1513.66 1977.88 1518.27 Q1980.96 1522.85 1980.96 1531.6 Q1980.96 1540.33 1977.88 1544.94 Q1974.83 1549.52 1969.02 1549.52 Q1963.2 1549.52 1960.13 1544.94 Q1957.07 1540.33 1957.07 1531.6 Q1957.07 1522.85 1960.13 1518.27 Q1963.2 1513.66 1969.02 1513.66 Z" fill="#000000" fill-rule="nonzero" fill-opacity="1" /><path clip-path="url(#clip760)" d="M1989.18 1542.97 L1994.06 1542.97 L1994.06 1548.85 L1989.18 1548.85 L1989.18 1542.97 Z" fill="#000000" fill-rule="nonzero" fill-opacity="1" /><path clip-path="url(#clip760)" d="M2004.29 1514.29 L2022.65 1514.29 L2022.65 1518.22 L2008.58 1518.22 L2008.58 1526.7 Q2009.59 1526.35 2010.61 1526.19 Q2011.63 1526 2012.65 1526 Q2018.44 1526 2021.82 1529.17 Q2025.2 1532.34 2025.2 1537.76 Q2025.2 1543.34 2021.72 1546.44 Q2018.25 1549.52 2011.93 1549.52 Q2009.76 1549.52 2007.49 1549.15 Q2005.24 1548.78 2002.83 1548.04 L2002.83 1543.34 Q2004.92 1544.47 2007.14 1545.03 Q2009.36 1545.58 2011.84 1545.58 Q2015.84 1545.58 2018.18 1543.48 Q2020.52 1541.37 2020.52 1537.76 Q2020.52 1534.15 2018.18 1532.04 Q2015.84 1529.94 2011.84 1529.94 Q2009.96 1529.94 2008.09 1530.35 Q2006.24 1530.77 2004.29 1531.65 L2004.29 1514.29 Z" fill="#000000" fill-rule="nonzero" fill-opacity="1" /><polyline clip-path="url(#clip760)" style="stroke:#000000; stroke-linecap:round; stroke-linejoin:round; stroke-width:4; stroke-opacity:1; fill:none" points="112.177,1486.45 112.177,47.2441 "/>
<polyline clip-path="url(#clip760)" style="stroke:#000000; stroke-linecap:round; stroke-linejoin:round; stroke-width:4; stroke-opacity:1; fill:none" points="112.177,1484.36 131.075,1484.36 "/>
<polyline clip-path="url(#clip760)" style="stroke:#000000; stroke-linecap:round; stroke-linejoin:round; stroke-width:4; stroke-opacity:1; fill:none" points="112.177,1276.74 131.075,1276.74 "/>
<polyline clip-path="url(#clip760)" style="stroke:#000000; stroke-linecap:round; stroke-linejoin:round; stroke-width:4; stroke-opacity:1; fill:none" points="112.177,1069.12 131.075,1069.12 "/>
<polyline clip-path="url(#clip760)" style="stroke:#000000; stroke-linecap:round; stroke-linejoin:round; stroke-width:4; stroke-opacity:1; fill:none" points="112.177,861.497 131.075,861.497 "/>
<polyline clip-path="url(#clip760)" style="stroke:#000000; stroke-linecap:round; stroke-linejoin:round; stroke-width:4; stroke-opacity:1; fill:none" points="112.177,653.875 131.075,653.875 "/>
<polyline clip-path="url(#clip760)" style="stroke:#000000; stroke-linecap:round; stroke-linejoin:round; stroke-width:4; stroke-opacity:1; fill:none" points="112.177,446.253 131.075,446.253 "/>
<polyline clip-path="url(#clip760)" style="stroke:#000000; stroke-linecap:round; stroke-linejoin:round; stroke-width:4; stroke-opacity:1; fill:none" points="112.177,238.631 131.075,238.631 "/>
<path clip-path="url(#clip760)" d="M64.2328 1470.16 Q60.6217 1470.16 58.793 1473.73 Q56.9875 1477.27 56.9875 1484.4 Q56.9875 1491.5 58.793 1495.07 Q60.6217 1498.61 64.2328 1498.61 Q67.867 1498.61 69.6726 1495.07 Q71.5013 1491.5 71.5013 1484.4 Q71.5013 1477.27 69.6726 1473.73 Q67.867 1470.16 64.2328 1470.16 M64.2328 1466.46 Q70.0429 1466.46 73.0985 1471.06 Q76.1772 1475.65 76.1772 1484.4 Q76.1772 1493.12 73.0985 1497.73 Q70.0429 1502.31 64.2328 1502.31 Q58.4226 1502.31 55.344 1497.73 Q52.2884 1493.12 52.2884 1484.4 Q52.2884 1475.65 55.344 1471.06 Q58.4226 1466.46 64.2328 1466.46 Z" fill="#000000" fill-rule="nonzero" fill-opacity="1" /><path clip-path="url(#clip760)" d="M56.2699 1290.09 L63.9087 1290.09 L63.9087 1263.72 L55.5986 1265.39 L55.5986 1261.13 L63.8624 1259.46 L68.5383 1259.46 L68.5383 1290.09 L76.1772 1290.09 L76.1772 1294.02 L56.2699 1294.02 L56.2699 1290.09 Z" fill="#000000" fill-rule="nonzero" fill-opacity="1" /><path clip-path="url(#clip760)" d="M59.8578 1082.46 L76.1772 1082.46 L76.1772 1086.4 L54.2328 1086.4 L54.2328 1082.46 Q56.8949 1079.71 61.4782 1075.08 Q66.0846 1070.43 67.2652 1069.08 Q69.5105 1066.56 70.3902 1064.82 Q71.2929 1063.07 71.2929 1061.38 Q71.2929 1058.62 69.3485 1056.89 Q67.4272 1055.15 64.3254 1055.15 Q62.1263 1055.15 59.6726 1055.91 Q57.2421 1056.68 54.4643 1058.23 L54.4643 1053.51 Q57.2884 1052.37 59.7421 1051.79 Q62.1958 1051.21 64.2328 1051.21 Q69.6031 1051.21 72.7976 1053.9 Q75.992 1056.58 75.992 1061.07 Q75.992 1063.2 75.1818 1065.13 Q74.3948 1067.02 72.2883 1069.62 Q71.7096 1070.29 68.6078 1073.51 Q65.5059 1076.7 59.8578 1082.46 Z" fill="#000000" fill-rule="nonzero" fill-opacity="1" /><path clip-path="url(#clip760)" d="M69.0476 860.143 Q72.404 860.86 74.279 863.129 Q76.1772 865.397 76.1772 868.73 Q76.1772 873.846 72.6587 876.647 Q69.1402 879.448 62.6587 879.448 Q60.4828 879.448 58.168 879.008 Q55.8764 878.592 53.4227 877.735 L53.4227 873.221 Q55.3671 874.355 57.6819 874.934 Q59.9967 875.513 62.5198 875.513 Q66.918 875.513 69.2096 873.777 Q71.5244 872.041 71.5244 868.73 Q71.5244 865.675 69.3717 863.962 Q67.242 862.226 63.4226 862.226 L59.3949 862.226 L59.3949 858.383 L63.6078 858.383 Q67.0569 858.383 68.8855 857.018 Q70.7142 855.629 70.7142 853.036 Q70.7142 850.374 68.8161 848.962 Q66.9411 847.527 63.4226 847.527 Q61.5013 847.527 59.3023 847.944 Q57.1032 848.36 54.4643 849.24 L54.4643 845.073 Q57.1264 844.332 59.4412 843.962 Q61.7791 843.592 63.8393 843.592 Q69.1633 843.592 72.2652 846.022 Q75.367 848.43 75.367 852.55 Q75.367 855.42 73.7235 857.411 Q72.08 859.379 69.0476 860.143 Z" fill="#000000" fill-rule="nonzero" fill-opacity="1" /><path clip-path="url(#clip760)" d="M66.5939 640.669 L54.7884 659.118 L66.5939 659.118 L66.5939 640.669 M65.367 636.595 L71.2466 636.595 L71.2466 659.118 L76.1772 659.118 L76.1772 663.007 L71.2466 663.007 L71.2466 671.155 L66.5939 671.155 L66.5939 663.007 L50.9921 663.007 L50.9921 658.493 L65.367 636.595 Z" fill="#000000" fill-rule="nonzero" fill-opacity="1" /><path clip-path="url(#clip760)" d="M55.2745 428.973 L73.6309 428.973 L73.6309 432.908 L59.5569 432.908 L59.5569 441.38 Q60.5754 441.033 61.5939 440.871 Q62.6124 440.686 63.6309 440.686 Q69.418 440.686 72.7976 443.857 Q76.1772 447.028 76.1772 452.445 Q76.1772 458.023 72.705 461.125 Q69.2328 464.204 62.9134 464.204 Q60.7374 464.204 58.4689 463.834 Q56.2236 463.463 53.8162 462.722 L53.8162 458.023 Q55.8995 459.158 58.1217 459.713 Q60.3439 460.269 62.8208 460.269 Q66.8254 460.269 69.1633 458.162 Q71.5013 456.056 71.5013 452.445 Q71.5013 448.834 69.1633 446.727 Q66.8254 444.621 62.8208 444.621 Q60.9458 444.621 59.0708 445.037 Q57.2189 445.454 55.2745 446.334 L55.2745 428.973 Z" fill="#000000" fill-rule="nonzero" fill-opacity="1" /><path clip-path="url(#clip760)" d="M64.6495 236.767 Q61.5013 236.767 59.6495 238.92 Q57.8208 241.073 57.8208 244.823 Q57.8208 248.55 59.6495 250.725 Q61.5013 252.878 64.6495 252.878 Q67.7976 252.878 69.6263 250.725 Q71.4781 248.55 71.4781 244.823 Q71.4781 241.073 69.6263 238.92 Q67.7976 236.767 64.6495 236.767 M73.9318 222.114 L73.9318 226.374 Q72.1726 225.54 70.367 225.101 Q68.5846 224.661 66.8254 224.661 Q62.1958 224.661 59.7421 227.786 Q57.3115 230.911 56.9643 237.23 Q58.33 235.216 60.3902 234.151 Q62.4504 233.063 64.9272 233.063 Q70.1355 233.063 73.1448 236.235 Q76.1772 239.383 76.1772 244.823 Q76.1772 250.147 73.029 253.364 Q69.8809 256.582 64.6495 256.582 Q58.6541 256.582 55.4828 251.999 Q52.3116 247.392 52.3116 238.665 Q52.3116 230.471 56.2004 225.61 Q60.0893 220.726 66.6402 220.726 Q68.3994 220.726 70.1818 221.073 Q71.9874 221.42 73.9318 222.114 Z" fill="#000000" fill-rule="nonzero" fill-opacity="1" /><circle clip-path="url(#clip762)" cx="2289.34" cy="1306.98" r="14.4" fill="#808080" fill-rule="evenodd" fill-opacity="1" stroke="#000000" stroke-opacity="1" stroke-width="3.2"/>
<circle clip-path="url(#clip762)" cx="175.59" cy="87.9763" r="14.4" fill="#808080" fill-rule="evenodd" fill-opacity="1" stroke="#000000" stroke-opacity="1" stroke-width="3.2"/>
<circle clip-path="url(#clip762)" cx="1559.42" cy="1445.72" r="14.4" fill="#808080" fill-rule="evenodd" fill-opacity="1" stroke="#000000" stroke-opacity="1" stroke-width="3.2"/>
<circle clip-path="url(#clip762)" cx="1444.59" cy="1441.26" r="14.4" fill="#808080" fill-rule="evenodd" fill-opacity="1" stroke="#000000" stroke-opacity="1" stroke-width="3.2"/>
<path clip-path="url(#clip760)" d="M2293.64 1314.42 Q2284.6 1314.42 2281.12 1316.48 Q2277.64 1318.55 2277.64 1323.53 Q2277.64 1327.5 2280.23 1329.85 Q2282.86 1332.16 2287.36 1332.16 Q2293.56 1332.16 2297.28 1327.78 Q2301.05 1323.37 2301.05 1316.08 L2301.05 1314.42 L2293.64 1314.42 M2308.5 1311.34 L2308.5 1337.22 L2301.05 1337.22 L2301.05 1330.34 Q2298.5 1334.47 2294.69 1336.45 Q2290.88 1338.4 2285.37 1338.4 Q2278.41 1338.4 2274.27 1334.51 Q2270.18 1330.58 2270.18 1324.02 Q2270.18 1316.36 2275.29 1312.47 Q2280.43 1308.58 2290.6 1308.58 L2301.05 1308.58 L2301.05 1307.85 Q2301.05 1302.71 2297.65 1299.91 Q2294.29 1297.08 2288.17 1297.08 Q2284.28 1297.08 2280.59 1298.01 Q2276.91 1298.94 2273.5 1300.8 L2273.5 1293.92 Q2277.6 1292.34 2281.44 1291.57 Q2285.29 1290.76 2288.94 1290.76 Q2298.78 1290.76 2303.64 1295.86 Q2308.5 1300.97 2308.5 1311.34 Z" fill="#000000" fill-rule="nonzero" fill-opacity="1" /><path clip-path="url(#clip760)" d="M188.148 95.5717 Q188.148 87.3484 184.745 82.6898 Q181.383 77.9908 175.468 77.9908 Q169.554 77.9908 166.151 82.6898 Q162.789 87.3484 162.789 95.5717 Q162.789 103.795 166.151 108.494 Q169.554 113.153 175.468 113.153 Q181.383 113.153 184.745 108.494 Q188.148 103.795 188.148 95.5717 M162.789 79.7327 Q165.138 75.6818 168.703 73.7373 Q172.309 71.7524 177.291 71.7524 Q185.555 71.7524 190.7 78.3149 Q195.885 84.8773 195.885 95.5717 Q195.885 106.266 190.7 112.829 Q185.555 119.391 177.291 119.391 Q172.309 119.391 168.703 117.447 Q165.138 115.462 162.789 111.411 L162.789 118.216 L155.295 118.216 L155.295 55.1842 L162.789 55.1842 L162.789 79.7327 Z" fill="#000000" fill-rule="nonzero" fill-opacity="1" /><path clip-path="url(#clip760)" d="M1577.37 1432.33 L1577.37 1439.3 Q1574.21 1437.55 1571.01 1436.7 Q1567.85 1435.81 1564.61 1435.81 Q1557.36 1435.81 1553.35 1440.43 Q1549.34 1445.01 1549.34 1453.31 Q1549.34 1461.62 1553.35 1466.23 Q1557.36 1470.81 1564.61 1470.81 Q1567.85 1470.81 1571.01 1469.96 Q1574.21 1469.07 1577.37 1467.33 L1577.37 1474.21 Q1574.25 1475.67 1570.89 1476.4 Q1567.57 1477.13 1563.8 1477.13 Q1553.55 1477.13 1547.51 1470.69 Q1541.48 1464.25 1541.48 1453.31 Q1541.48 1442.21 1547.55 1435.85 Q1553.67 1429.49 1564.28 1429.49 Q1567.73 1429.49 1571.01 1430.22 Q1574.29 1430.91 1577.37 1432.33 Z" fill="#000000" fill-rule="nonzero" fill-opacity="1" /><path clip-path="url(#clip760)" d="M1457.41 1433.02 L1457.41 1408.47 L1464.87 1408.47 L1464.87 1471.5 L1457.41 1471.5 L1457.41 1464.7 Q1455.07 1468.75 1451.46 1470.74 Q1447.9 1472.68 1442.87 1472.68 Q1434.65 1472.68 1429.46 1466.12 Q1424.32 1459.55 1424.32 1448.86 Q1424.32 1438.17 1429.46 1431.6 Q1434.65 1425.04 1442.87 1425.04 Q1447.9 1425.04 1451.46 1427.03 Q1455.07 1428.97 1457.41 1433.02 M1432.02 1448.86 Q1432.02 1457.08 1435.38 1461.78 Q1438.78 1466.44 1444.7 1466.44 Q1450.61 1466.44 1454.01 1461.78 Q1457.41 1457.08 1457.41 1448.86 Q1457.41 1440.64 1454.01 1435.98 Q1450.61 1431.28 1444.7 1431.28 Q1438.78 1431.28 1435.38 1435.98 Q1432.02 1440.64 1432.02 1448.86 Z" fill="#000000" fill-rule="nonzero" fill-opacity="1" /><path clip-path="url(#clip760)" d="M2001.58 198.898 L2278.07 198.898 L2278.07 95.2176 L2001.58 95.2176  Z" fill="#ffffff" fill-rule="evenodd" fill-opacity="1"/>
<polyline clip-path="url(#clip760)" style="stroke:#000000; stroke-linecap:round; stroke-linejoin:round; stroke-width:4; stroke-opacity:1; fill:none" points="2001.58,198.898 2278.07,198.898 2278.07,95.2176 2001.58,95.2176 2001.58,198.898 "/>
<circle clip-path="url(#clip760)" cx="2101.16" cy="147.058" r="20.48" fill="#808080" fill-rule="evenodd" fill-opacity="1" stroke="#000000" stroke-opacity="1" stroke-width="4.55111"/>
<path clip-path="url(#clip760)" d="M2214.59 166.745 Q2212.78 171.375 2211.07 172.787 Q2209.36 174.199 2206.49 174.199 L2203.08 174.199 L2203.08 170.634 L2205.58 170.634 Q2207.34 170.634 2208.31 169.8 Q2209.29 168.967 2210.47 165.865 L2211.23 163.921 L2200.74 138.412 L2205.26 138.412 L2213.36 158.689 L2221.46 138.412 L2225.98 138.412 L2214.59 166.745 Z" fill="#000000" fill-rule="nonzero" fill-opacity="1" /><path clip-path="url(#clip760)" d="M2233.27 160.402 L2240.91 160.402 L2240.91 134.037 L2232.6 135.703 L2232.6 131.444 L2240.86 129.778 L2245.54 129.778 L2245.54 160.402 L2253.17 160.402 L2253.17 164.338 L2233.27 164.338 L2233.27 160.402 Z" fill="#000000" fill-rule="nonzero" fill-opacity="1" /></svg>
