<?xml version="1.0" encoding="utf-8"?>
<svg xmlns="http://www.w3.org/2000/svg" xmlns:xlink="http://www.w3.org/1999/xlink" width="600" height="400" viewBox="0 0 2400 1600">
<defs>
  <clipPath id="clip700">
    <rect x="0" y="0" width="2400" height="1600"/>
  </clipPath>
</defs>
<path clip-path="url(#clip700)" d="M0 1600 L2400 1600 L2400 0 L0 0  Z" fill="#ffffff" fill-rule="evenodd" fill-opacity="1"/>
<defs>
  <clipPath id="clip701">
    <rect x="480" y="0" width="1681" height="1600"/>
  </clipPath>
</defs>
<path clip-path="url(#clip700)" d="M156.598 1486.45 L2352.76 1486.45 L2352.76 47.2441 L156.598 47.2441  Z" fill="#ffffff" fill-rule="evenodd" fill-opacity="1"/>
<defs>
  <clipPath id="clip702">
    <rect x="156" y="47" width="2197" height="1440"/>
  </clipPath>
</defs>
<polyline clip-path="url(#clip702)" style="stroke:#000000; stroke-linecap:round; stroke-linejoin:round; stroke-width:2; stroke-opacity:0.1; fill:none" points="435.141,1486.45 435.141,47.2441 "/>
<polyline clip-path="url(#clip702)" style="stroke:#000000; stroke-linecap:round; stroke-linejoin:round; stroke-width:2; stroke-opacity:0.1; fill:none" points="941.431,1486.45 941.431,47.2441 "/>
<polyline clip-path="url(#clip702)" style="stroke:#000000; stroke-linecap:round; stroke-linejoin:round; stroke-width:2; stroke-opacity:0.1; fill:none" points="1447.72,1486.45 1447.72,47.2441 "/>
<polyline clip-path="url(#clip702)" style="stroke:#000000; stroke-linecap:round; stroke-linejoin:round; stroke-width:2; stroke-opacity:0.1; fill:none" points="1954.01,1486.45 1954.01,47.2441 "/>
<polyline clip-path="url(#clip702)" style="stroke:#000000; stroke-linecap:round; stroke-linejoin:round; stroke-width:2; stroke-opacity:0.1; fill:none" points="156.598,1448.23 2352.76,1448.23 "/>
<polyline clip-path="url(#clip702)" style="stroke:#000000; stroke-linecap:round; stroke-linejoin:round; stroke-width:2; stroke-opacity:0.1; fill:none" points="156.598,1100.72 2352.76,1100.72 "/>
<polyline clip-path="url(#clip702)" style="stroke:#000000; stroke-linecap:round; stroke-linejoin:round; stroke-width:2; stroke-opacity:0.1; fill:none" points="156.598,753.209 2352.76,753.209 "/>
<polyline clip-path="url(#clip702)" style="stroke:#000000; stroke-linecap:round; stroke-linejoin:round; stroke-width:2; stroke-opacity:0.1; fill:none" points="156.598,405.697 2352.76,405.697 "/>
<polyline clip-path="url(#clip702)" style="stroke:#000000; stroke-linecap:round; stroke-linejoin:round; stroke-width:2; stroke-opacity:0.1; fill:none" points="156.598,58.1853 2352.76,58.1853 "/>
<polyline clip-path="url(#clip700)" style="stroke:#000000; stroke-linecap:round; stroke-linejoin:round; stroke-width:4; stroke-opacity:1; fill:none" points="156.598,1486.45 2352.76,1486.45 "/>
<polyline clip-path="url(#clip700)" style="stroke:#000000; stroke-linecap:round; stroke-linejoin:round; stroke-width:4; stroke-opacity:1; fill:none" points="435.141,1486.45 435.141,1467.55 "/>
<polyline clip-path="url(#clip700)" style="stroke:#000000; stroke-linecap:round; stroke-linejoin:round; stroke-width:4; stroke-opacity:1; fill:none" points="941.431,1486.45 941.431,1467.55 "/>
<polyline clip-path="url(#clip700)" style="stroke:#000000; stroke-linecap:round; stroke-linejoin:round; stroke-width:4; stroke-opacity:1; fill:none" points="1447.72,1486.45 1447.72,1467.55 "/>
<polyline clip-path="url(#clip700)" style="stroke:#000000; stroke-linecap:round; stroke-linejoin:round; stroke-width:4; stroke-opacity:1; fill:none" points="1954.01,1486.45 1954.01,1467.55 "/>
<path clip-path="url(#clip700)" d="M381.426 1532.02 L411.102 1532.02 L411.102 1535.95 L381.426 1535.95 L381.426 1532.02 Z" fill="#000000" fill-rule="nonzero" fill-opacity="1" /><path clip-path="url(#clip700)" d="M431.194 1517.37 Q427.583 1517.37 425.755 1520.93 Q423.949 1524.47 423.949 1531.6 Q423.949 1538.71 425.755 1542.27 Q427.583 1545.82 431.194 1545.82 Q434.829 1545.82 436.634 1542.27 Q438.463 1538.71 438.463 1531.6 Q438.463 1524.47 436.634 1520.93 Q434.829 1517.37 431.194 1517.37 M431.194 1513.66 Q437.004 1513.66 440.06 1518.27 Q443.139 1522.85 443.139 1531.6 Q443.139 1540.33 440.06 1544.94 Q437.004 1549.52 431.194 1549.52 Q425.384 1549.52 422.305 1544.94 Q419.25 1540.33 419.25 1531.6 Q419.25 1522.85 422.305 1518.27 Q425.384 1513.66 431.194 1513.66 Z" fill="#000000" fill-rule="nonzero" fill-opacity="1" /><path clip-path="url(#clip700)" d="M451.356 1542.97 L456.24 1542.97 L456.24 1548.85 L451.356 1548.85 L451.356 1542.97 Z" fill="#000000" fill-rule="nonzero" fill-opacity="1" /><path clip-path="url(#clip700)" d="M479.273 1518.36 L467.467 1536.81 L479.273 1536.81 L479.273 1518.36 M478.046 1514.29 L483.926 1514.29 L483.926 1536.81 L488.856 1536.81 L488.856 1540.7 L483.926 1540.7 L483.926 1548.85 L479.273 1548.85 L479.273 1540.7 L463.671 1540.7 L463.671 1536.19 L478.046 1514.29 Z" fill="#000000" fill-rule="nonzero" fill-opacity="1" /><path clip-path="url(#clip700)" d="M888.757 1532.02 L918.433 1532.02 L918.433 1535.95 L888.757 1535.95 L888.757 1532.02 Z" fill="#000000" fill-rule="nonzero" fill-opacity="1" /><path clip-path="url(#clip700)" d="M938.526 1517.37 Q934.914 1517.37 933.086 1520.93 Q931.28 1524.47 931.28 1531.6 Q931.28 1538.71 933.086 1542.27 Q934.914 1545.82 938.526 1545.82 Q942.16 1545.82 943.965 1542.27 Q945.794 1538.71 945.794 1531.6 Q945.794 1524.47 943.965 1520.93 Q942.16 1517.37 938.526 1517.37 M938.526 1513.66 Q944.336 1513.66 947.391 1518.27 Q950.47 1522.85 950.47 1531.6 Q950.47 1540.33 947.391 1544.94 Q944.336 1549.52 938.526 1549.52 Q932.715 1549.52 929.637 1544.94 Q926.581 1540.33 926.581 1531.6 Q926.581 1522.85 929.637 1518.27 Q932.715 1513.66 938.526 1513.66 Z" fill="#000000" fill-rule="nonzero" fill-opacity="1" /><path clip-path="url(#clip700)" d="M958.687 1542.97 L963.572 1542.97 L963.572 1548.85 L958.687 1548.85 L958.687 1542.97 Z" fill="#000000" fill-rule="nonzero" fill-opacity="1" /><path clip-path="url(#clip700)" d="M977.785 1544.91 L994.104 1544.91 L994.104 1548.85 L972.16 1548.85 L972.16 1544.91 Q974.822 1542.16 979.405 1537.53 Q984.011 1532.88 985.192 1531.53 Q987.437 1529.01 988.317 1527.27 Q989.22 1525.51 989.22 1523.82 Q989.22 1521.07 987.275 1519.33 Q985.354 1517.6 982.252 1517.6 Q980.053 1517.6 977.599 1518.36 Q975.169 1519.13 972.391 1520.68 L972.391 1515.95 Q975.215 1514.82 977.669 1514.24 Q980.123 1513.66 982.16 1513.66 Q987.53 1513.66 990.724 1516.35 Q993.919 1519.03 993.919 1523.52 Q993.919 1525.65 993.109 1527.57 Q992.322 1529.47 990.215 1532.07 Q989.636 1532.74 986.535 1535.95 Q983.433 1539.15 977.785 1544.91 Z" fill="#000000" fill-rule="nonzero" fill-opacity="1" /><path clip-path="url(#clip700)" d="M1425.1 1517.37 Q1421.49 1517.37 1419.66 1520.93 Q1417.86 1524.47 1417.86 1531.6 Q1417.86 1538.71 1419.66 1542.27 Q1421.49 1545.82 1425.1 1545.82 Q1428.74 1545.82 1430.54 1542.27 Q1432.37 1538.71 1432.37 1531.6 Q1432.37 1524.47 1430.54 1520.93 Q1428.74 1517.37 1425.1 1517.37 M1425.1 1513.66 Q1430.91 1513.66 1433.97 1518.27 Q1437.05 1522.85 1437.05 1531.6 Q1437.05 1540.33 1433.97 1544.94 Q1430.91 1549.52 1425.1 1549.52 Q1419.29 1549.52 1416.22 1544.94 Q1413.16 1540.33 1413.16 1531.6 Q1413.16 1522.85 1416.22 1518.27 Q1419.29 1513.66 1425.1 1513.66 Z" fill="#000000" fill-rule="nonzero" fill-opacity="1" /><path clip-path="url(#clip700)" d="M1445.27 1542.97 L1450.15 1542.97 L1450.15 1548.85 L1445.27 1548.85 L1445.27 1542.97 Z" fill="#000000" fill-rule="nonzero" fill-opacity="1" /><path clip-path="url(#clip700)" d="M1470.34 1517.37 Q1466.72 1517.37 1464.9 1520.93 Q1463.09 1524.47 1463.09 1531.6 Q1463.09 1538.71 1464.9 1542.27 Q1466.72 1545.82 1470.34 1545.82 Q1473.97 1545.82 1475.78 1542.27 Q1477.6 1538.71 1477.6 1531.6 Q1477.6 1524.47 1475.78 1520.93 Q1473.97 1517.37 1470.34 1517.37 M1470.34 1513.66 Q1476.15 1513.66 1479.2 1518.27 Q1482.28 1522.85 1482.28 1531.6 Q1482.28 1540.33 1479.2 1544.94 Q1476.15 1549.52 1470.34 1549.52 Q1464.53 1549.52 1461.45 1544.94 Q1458.39 1540.33 1458.39 1531.6 Q1458.39 1522.85 1461.45 1518.27 Q1464.53 1513.66 1470.34 1513.66 Z" fill="#000000" fill-rule="nonzero" fill-opacity="1" /><path clip-path="url(#clip700)" d="M1932.19 1517.37 Q1928.58 1517.37 1926.75 1520.93 Q1924.95 1524.47 1924.95 1531.6 Q1924.95 1538.71 1926.75 1542.27 Q1928.58 1545.82 1932.19 1545.82 Q1935.83 1545.82 1937.63 1542.27 Q1939.46 1538.71 1939.46 1531.6 Q1939.46 1524.47 1937.63 1520.93 Q1935.83 1517.37 1932.19 1517.37 M1932.19 1513.66 Q1938 1513.66 1941.06 1518.27 Q1944.14 1522.85 1944.14 1531.6 Q1944.14 1540.33 1941.06 1544.94 Q1938 1549.52 1932.19 1549.52 Q1926.38 1549.52 1923.3 1544.94 Q1920.25 1540.33 1920.25 1531.6 Q1920.25 1522.85 1923.3 1518.27 Q1926.38 1513.66 1932.19 1513.66 Z" fill="#000000" fill-rule="nonzero" fill-opacity="1" /><path clip-path="url(#clip700)" d="M1952.35 1542.97 L1957.24 1542.97 L1957.24 1548.85 L1952.35 1548.85 L1952.35 1542.97 Z" fill="#000000" fill-rule="nonzero" fill-opacity="1" /><path clip-path="url(#clip700)" d="M1971.45 1544.91 L1987.77 1544.91 L1987.77 1548.85 L1965.83 1548.85 L1965.83 1544.91 Q1968.49 1542.16 1973.07 1537.53 Q1977.68 1532.88 1978.86 1531.53 Q1981.1 1529.01 1981.98 1527.27 Q1982.89 1525.51 1982.89 1523.82 Q1982.89 1521.07 1980.94 1519.33 Q1979.02 1517.6 1975.92 1517.6 Q1973.72 1517.6 1971.27 1518.36 Q1968.84 1519.13 1966.06 1520.68 L1966.06 1515.95 Q1968.88 1514.82 1971.34 1514.24 Q1973.79 1513.66 1975.83 1513.66 Q1981.2 1513.66 1984.39 1516.35 Q1987.59 1519.03 1987.59 1523.52 Q1987.59 1525.65 1986.78 1527.57 Q1985.99 1529.47 1983.88 1532.07 Q1983.3 1532.74 1980.2 1535.95 Q1977.1 1539.15 1971.45 1544.91 Z" fill="#000000" fill-rule="nonzero" fill-opacity="1" /><polyline clip-path="url(#clip700)" style="stroke:#000000; stroke-linecap:round; stroke-linejoin:round; stroke-width:4; stroke-opacity:1; fill:none" points="156.598,1486.45 156.598,47.2441 "/>
<polyline clip-path="url(#clip700)" style="stroke:#000000; stroke-linecap:round; stroke-linejoin:round; stroke-width:4; stroke-opacity:1; fill:none" points="156.598,1448.23 175.496,1448.23 "/>
<polyline clip-path="url(#clip700)" style="stroke:#000000; stroke-linecap:round; stroke-linejoin:round; stroke-width:4; stroke-opacity:1; fill:none" points="156.598,1100.72 175.496,1100.72 "/>
<polyline clip-path="url(#clip700)" style="stroke:#000000; stroke-linecap:round; stroke-linejoin:round; stroke-width:4; stroke-opacity:1; fill:none" points="156.598,753.209 175.496,753.209 "/>
<polyline clip-path="url(#clip700)" style="stroke:#000000; stroke-linecap:round; stroke-linejoin:round; stroke-width:4; stroke-opacity:1; fill:none" points="156.598,405.697 175.496,405.697 "/>
<polyline clip-path="url(#clip700)" style="stroke:#000000; stroke-linecap:round; stroke-linejoin:round; stroke-width:4; stroke-opacity:1; fill:none" points="156.598,58.1853 175.496,58.1853 "/>
<path clip-path="url(#clip700)" d="M63.4226 1434.03 Q59.8115 1434.03 57.9828 1437.6 Q56.1773 1441.14 56.1773 1448.27 Q56.1773 1455.37 57.9828 1458.94 Q59.8115 1462.48 63.4226 1462.48 Q67.0569 1462.48 68.8624 1458.94 Q70.6911 1455.37 70.6911 1448.27 Q70.6911 1441.14 68.8624 1437.6 Q67.0569 1434.03 63.4226 1434.03 M63.4226 1430.33 Q69.2328 1430.33 72.2883 1434.93 Q75.367 1439.52 75.367 1448.27 Q75.367 1456.99 72.2883 1461.6 Q69.2328 1466.18 63.4226 1466.18 Q57.6125 1466.18 54.5338 1461.6 Q51.4782 1456.99 51.4782 1448.27 Q51.4782 1439.52 54.5338 1434.93 Q57.6125 1430.33 63.4226 1430.33 Z" fill="#000000" fill-rule="nonzero" fill-opacity="1" /><path clip-path="url(#clip700)" d="M83.5845 1459.63 L88.4688 1459.63 L88.4688 1465.51 L83.5845 1465.51 L83.5845 1459.63 Z" fill="#000000" fill-rule="nonzero" fill-opacity="1" /><path clip-path="url(#clip700)" d="M108.654 1434.03 Q105.043 1434.03 103.214 1437.6 Q101.409 1441.14 101.409 1448.27 Q101.409 1455.37 103.214 1458.94 Q105.043 1462.48 108.654 1462.48 Q112.288 1462.48 114.094 1458.94 Q115.922 1455.37 115.922 1448.27 Q115.922 1441.14 114.094 1437.6 Q112.288 1434.03 108.654 1434.03 M108.654 1430.33 Q114.464 1430.33 117.52 1434.93 Q120.598 1439.52 120.598 1448.27 Q120.598 1456.99 117.52 1461.6 Q114.464 1466.18 108.654 1466.18 Q102.844 1466.18 99.765 1461.6 Q96.7095 1456.99 96.7095 1448.27 Q96.7095 1439.52 99.765 1434.93 Q102.844 1430.33 108.654 1430.33 Z" fill="#000000" fill-rule="nonzero" fill-opacity="1" /><path clip-path="url(#clip700)" d="M64.6495 1086.52 Q61.0384 1086.52 59.2097 1090.08 Q57.4041 1093.63 57.4041 1100.76 Q57.4041 1107.86 59.2097 1111.43 Q61.0384 1114.97 64.6495 1114.97 Q68.2837 1114.97 70.0892 1111.43 Q71.9179 1107.86 71.9179 1100.76 Q71.9179 1093.63 70.0892 1090.08 Q68.2837 1086.52 64.6495 1086.52 M64.6495 1082.82 Q70.4596 1082.82 73.5152 1087.42 Q76.5938 1092.01 76.5938 1100.76 Q76.5938 1109.48 73.5152 1114.09 Q70.4596 1118.67 64.6495 1118.67 Q58.8393 1118.67 55.7606 1114.09 Q52.7051 1109.48 52.7051 1100.76 Q52.7051 1092.01 55.7606 1087.42 Q58.8393 1082.82 64.6495 1082.82 Z" fill="#000000" fill-rule="nonzero" fill-opacity="1" /><path clip-path="url(#clip700)" d="M84.8114 1112.12 L89.6956 1112.12 L89.6956 1118 L84.8114 1118 L84.8114 1112.12 Z" fill="#000000" fill-rule="nonzero" fill-opacity="1" /><path clip-path="url(#clip700)" d="M100.691 1114.07 L108.33 1114.07 L108.33 1087.7 L100.02 1089.37 L100.02 1085.11 L108.283 1083.44 L112.959 1083.44 L112.959 1114.07 L120.598 1114.07 L120.598 1118 L100.691 1118 L100.691 1114.07 Z" fill="#000000" fill-rule="nonzero" fill-opacity="1" /><path clip-path="url(#clip700)" d="M65.0198 739.008 Q61.4087 739.008 59.58 742.572 Q57.7745 746.114 57.7745 753.244 Q57.7745 760.35 59.58 763.915 Q61.4087 767.456 65.0198 767.456 Q68.6541 767.456 70.4596 763.915 Q72.2883 760.35 72.2883 753.244 Q72.2883 746.114 70.4596 742.572 Q68.6541 739.008 65.0198 739.008 M65.0198 735.304 Q70.83 735.304 73.8855 739.91 Q76.9642 744.494 76.9642 753.244 Q76.9642 761.97 73.8855 766.577 Q70.83 771.16 65.0198 771.16 Q59.2097 771.16 56.131 766.577 Q53.0754 761.97 53.0754 753.244 Q53.0754 744.494 56.131 739.91 Q59.2097 735.304 65.0198 735.304 Z" fill="#000000" fill-rule="nonzero" fill-opacity="1" /><path clip-path="url(#clip700)" d="M85.1818 764.609 L90.066 764.609 L90.066 770.489 L85.1818 770.489 L85.1818 764.609 Z" fill="#000000" fill-rule="nonzero" fill-opacity="1" /><path clip-path="url(#clip700)" d="M104.279 766.554 L120.598 766.554 L120.598 770.489 L98.6539 770.489 L98.6539 766.554 Q101.316 763.799 105.899 759.169 Q110.506 754.517 111.686 753.174 Q113.932 750.651 114.811 748.915 Q115.714 747.156 115.714 745.466 Q115.714 742.711 113.77 740.975 Q111.848 739.239 108.746 739.239 Q106.547 739.239 104.094 740.003 Q101.663 740.767 98.8854 742.318 L98.8854 737.596 Q101.709 736.461 104.163 735.883 Q106.617 735.304 108.654 735.304 Q114.024 735.304 117.219 737.989 Q120.413 740.674 120.413 745.165 Q120.413 747.295 119.603 749.216 Q118.816 751.114 116.709 753.707 Q116.131 754.378 113.029 757.595 Q109.927 760.79 104.279 766.554 Z" fill="#000000" fill-rule="nonzero" fill-opacity="1" /><path clip-path="url(#clip700)" d="M64.0708 391.496 Q60.4597 391.496 58.631 395.061 Q56.8254 398.602 56.8254 405.732 Q56.8254 412.838 58.631 416.403 Q60.4597 419.945 64.0708 419.945 Q67.705 419.945 69.5105 416.403 Q71.3392 412.838 71.3392 405.732 Q71.3392 398.602 69.5105 395.061 Q67.705 391.496 64.0708 391.496 M64.0708 387.792 Q69.8809 387.792 72.9365 392.399 Q76.0151 396.982 76.0151 405.732 Q76.0151 414.459 72.9365 419.065 Q69.8809 423.648 64.0708 423.648 Q58.2606 423.648 55.1819 419.065 Q52.1264 414.459 52.1264 405.732 Q52.1264 396.982 55.1819 392.399 Q58.2606 387.792 64.0708 387.792 Z" fill="#000000" fill-rule="nonzero" fill-opacity="1" /><path clip-path="url(#clip700)" d="M84.2327 417.097 L89.1169 417.097 L89.1169 422.977 L84.2327 422.977 L84.2327 417.097 Z" fill="#000000" fill-rule="nonzero" fill-opacity="1" /><path clip-path="url(#clip700)" d="M113.469 404.343 Q116.825 405.06 118.7 407.329 Q120.598 409.598 120.598 412.931 Q120.598 418.047 117.08 420.847 Q113.561 423.648 107.08 423.648 Q104.904 423.648 102.589 423.209 Q100.297 422.792 97.8437 421.935 L97.8437 417.422 Q99.7882 418.556 102.103 419.134 Q104.418 419.713 106.941 419.713 Q111.339 419.713 113.631 417.977 Q115.945 416.241 115.945 412.931 Q115.945 409.875 113.793 408.162 Q111.663 406.426 107.844 406.426 L103.816 406.426 L103.816 402.584 L108.029 402.584 Q111.478 402.584 113.307 401.218 Q115.135 399.829 115.135 397.236 Q115.135 394.574 113.237 393.162 Q111.362 391.727 107.844 391.727 Q105.922 391.727 103.723 392.144 Q101.524 392.561 98.8854 393.44 L98.8854 389.274 Q101.547 388.533 103.862 388.162 Q106.2 387.792 108.26 387.792 Q113.584 387.792 116.686 390.223 Q119.788 392.63 119.788 396.75 Q119.788 399.621 118.145 401.611 Q116.501 403.579 113.469 404.343 Z" fill="#000000" fill-rule="nonzero" fill-opacity="1" /><path clip-path="url(#clip700)" d="M62.9365 43.984 Q59.3254 43.984 57.4967 47.5488 Q55.6912 51.0904 55.6912 58.22 Q55.6912 65.3264 57.4967 68.8912 Q59.3254 72.4329 62.9365 72.4329 Q66.5707 72.4329 68.3763 68.8912 Q70.205 65.3264 70.205 58.22 Q70.205 51.0904 68.3763 47.5488 Q66.5707 43.984 62.9365 43.984 M62.9365 40.2803 Q68.7467 40.2803 71.8022 44.8867 Q74.8809 49.47 74.8809 58.22 Q74.8809 66.9468 71.8022 71.5533 Q68.7467 76.1366 62.9365 76.1366 Q57.1264 76.1366 54.0477 71.5533 Q50.9921 66.9468 50.9921 58.22 Q50.9921 49.47 54.0477 44.8867 Q57.1264 40.2803 62.9365 40.2803 Z" fill="#000000" fill-rule="nonzero" fill-opacity="1" /><path clip-path="url(#clip700)" d="M83.0984 69.5857 L87.9827 69.5857 L87.9827 75.4653 L83.0984 75.4653 L83.0984 69.5857 Z" fill="#000000" fill-rule="nonzero" fill-opacity="1" /><path clip-path="url(#clip700)" d="M111.015 44.9793 L99.2095 63.4283 L111.015 63.4283 L111.015 44.9793 M109.788 40.9053 L115.668 40.9053 L115.668 63.4283 L120.598 63.4283 L120.598 67.3172 L115.668 67.3172 L115.668 75.4653 L111.015 75.4653 L111.015 67.3172 L95.4132 67.3172 L95.4132 62.8033 L109.788 40.9053 Z" fill="#000000" fill-rule="nonzero" fill-opacity="1" /><circle clip-path="url(#clip702)" cx="1452.48" cy="1343.46" r="14.4" fill="#808080" fill-rule="evenodd" fill-opacity="1" stroke="#000000" stroke-opacity="1" stroke-width="3.2"/>
<circle clip-path="url(#clip702)" cx="1418.06" cy="1445.72" r="14.4" fill="#808080" fill-rule="evenodd" fill-opacity="1" stroke="#000000" stroke-opacity="1" stroke-width="3.2"/>
<circle clip-path="url(#clip702)" cx="2290.6" cy="1341.73" r="14.4" fill="#808080" fill-rule="evenodd" fill-opacity="1" stroke="#000000" stroke-opacity="1" stroke-width="3.2"/>
<circle clip-path="url(#clip702)" cx="218.754" cy="87.9763" r="14.4" fill="#808080" fill-rule="evenodd" fill-opacity="1" stroke="#000000" stroke-opacity="1" stroke-width="3.2"/>
<path clip-path="url(#clip700)" d="M1456.77 1350.9 Q1447.74 1350.9 1444.26 1352.96 Q1440.77 1355.03 1440.77 1360.01 Q1440.77 1363.98 1443.37 1366.33 Q1446 1368.64 1450.49 1368.64 Q1456.69 1368.64 1460.42 1364.26 Q1464.19 1359.85 1464.19 1352.56 L1464.19 1350.9 L1456.77 1350.9 M1471.64 1347.82 L1471.64 1373.7 L1464.19 1373.7 L1464.19 1366.82 Q1461.63 1370.95 1457.83 1372.93 Q1454.02 1374.88 1448.51 1374.88 Q1441.54 1374.88 1437.41 1370.99 Q1433.32 1367.06 1433.32 1360.5 Q1433.32 1352.84 1438.42 1348.95 Q1443.57 1345.06 1453.74 1345.06 L1464.19 1345.06 L1464.19 1344.33 Q1464.19 1339.19 1460.78 1336.39 Q1457.42 1333.56 1451.3 1333.56 Q1447.42 1333.56 1443.73 1334.49 Q1440.04 1335.42 1436.64 1337.29 L1436.64 1330.4 Q1440.73 1328.82 1444.58 1328.05 Q1448.43 1327.24 1452.07 1327.24 Q1461.92 1327.24 1466.78 1332.34 Q1471.64 1337.45 1471.64 1347.82 Z" fill="#000000" fill-rule="nonzero" fill-opacity="1" /><path clip-path="url(#clip700)" d="M1430.62 1453.31 Q1430.62 1445.09 1427.21 1440.43 Q1423.85 1435.73 1417.94 1435.73 Q1412.02 1435.73 1408.62 1440.43 Q1405.26 1445.09 1405.26 1453.31 Q1405.26 1461.53 1408.62 1466.23 Q1412.02 1470.89 1417.94 1470.89 Q1423.85 1470.89 1427.21 1466.23 Q1430.62 1461.53 1430.62 1453.31 M1405.26 1437.47 Q1407.61 1433.42 1411.17 1431.48 Q1414.78 1429.49 1419.76 1429.49 Q1428.02 1429.49 1433.17 1436.05 Q1438.35 1442.62 1438.35 1453.31 Q1438.35 1464.01 1433.17 1470.57 Q1428.02 1477.13 1419.76 1477.13 Q1414.78 1477.13 1411.17 1475.19 Q1407.61 1473.2 1405.26 1469.15 L1405.26 1475.96 L1397.76 1475.96 L1397.76 1412.92 L1405.26 1412.92 L1405.26 1437.47 Z" fill="#000000" fill-rule="nonzero" fill-opacity="1" /><path clip-path="url(#clip700)" d="M2308.55 1328.34 L2308.55 1335.31 Q2305.39 1333.56 2302.19 1332.71 Q2299.03 1331.82 2295.79 1331.82 Q2288.53 1331.82 2284.52 1336.44 Q2280.51 1341.02 2280.51 1349.32 Q2280.51 1357.63 2284.52 1362.24 Q2288.53 1366.82 2295.79 1366.82 Q2299.03 1366.82 2302.19 1365.97 Q2305.39 1365.08 2308.55 1363.34 L2308.55 1370.22 Q2305.43 1371.68 2302.06 1372.41 Q2298.74 1373.14 2294.98 1373.14 Q2284.73 1373.14 2278.69 1366.7 Q2272.65 1360.26 2272.65 1349.32 Q2272.65 1338.22 2278.73 1331.86 Q2284.85 1325.5 2295.46 1325.5 Q2298.9 1325.5 2302.19 1326.23 Q2305.47 1326.92 2308.55 1328.34 Z" fill="#000000" fill-rule="nonzero" fill-opacity="1" /><path clip-path="url(#clip700)" d="M231.575 79.7327 L231.575 55.1842 L239.028 55.1842 L239.028 118.216 L231.575 118.216 L231.575 111.411 Q229.225 115.462 225.62 117.447 Q222.055 119.391 217.032 119.391 Q208.809 119.391 203.624 112.829 Q198.479 106.266 198.479 95.5717 Q198.479 84.8773 203.624 78.3149 Q208.809 71.7524 217.032 71.7524 Q222.055 71.7524 225.62 73.7373 Q229.225 75.6818 231.575 79.7327 M206.176 95.5717 Q206.176 103.795 209.538 108.494 Q212.941 113.153 218.855 113.153 Q224.769 113.153 228.172 108.494 Q231.575 103.795 231.575 95.5717 Q231.575 87.3484 228.172 82.6898 Q224.769 77.9908 218.855 77.9908 Q212.941 77.9908 209.538 82.6898 Q206.176 87.3484 206.176 95.5717 Z" fill="#000000" fill-rule="nonzero" fill-opacity="1" /><path clip-path="url(#clip700)" d="M2007.5 198.898 L2279.55 198.898 L2279.55 95.2176 L2007.5 95.2176  Z" fill="#ffffff" fill-rule="evenodd" fill-opacity="1"/>
<polyline clip-path="url(#clip700)" style="stroke:#000000; stroke-linecap:round; stroke-linejoin:round; stroke-width:4; stroke-opacity:1; fill:none" points="2007.5,198.898 2279.55,198.898 2279.55,95.2176 2007.5,95.2176 2007.5,198.898 "/>
<circle clip-path="url(#clip700)" cx="2105.11" cy="147.058" r="20.48" fill="#808080" fill-rule="evenodd" fill-opacity="1" stroke="#000000" stroke-opacity="1" stroke-width="4.55111"/>
<path clip-path="url(#clip700)" d="M2216.56 166.745 Q2214.76 171.375 2213.04 172.787 Q2211.33 174.199 2208.46 174.199 L2205.06 174.199 L2205.06 170.634 L2207.56 170.634 Q2209.32 170.634 2210.29 169.8 Q2211.26 168.967 2212.44 165.865 L2213.2 163.921 L2202.72 138.412 L2207.23 138.412 L2215.33 158.689 L2223.44 138.412 L2227.95 138.412 L2216.56 166.745 Z" fill="#000000" fill-rule="nonzero" fill-opacity="1" /><path clip-path="url(#clip700)" d="M2235.24 160.402 L2242.88 160.402 L2242.88 134.037 L2234.57 135.703 L2234.57 131.444 L2242.83 129.778 L2247.51 129.778 L2247.51 160.402 L2255.15 160.402 L2255.15 164.338 L2235.24 164.338 L2235.24 160.402 Z" fill="#000000" fill-rule="nonzero" fill-opacity="1" /></svg>
