<?xml version="1.0" encoding="utf-8"?>
<svg xmlns="http://www.w3.org/2000/svg" xmlns:xlink="http://www.w3.org/1999/xlink" width="600" height="400" viewBox="0 0 2400 1600">
<defs>
  <clipPath id="clip000">
    <rect x="0" y="0" width="2400" height="1600"/>
  </clipPath>
</defs>
<path clip-path="url(#clip000)" d="M0 1600 L2400 1600 L2400 0 L0 0  Z" fill="#ffffff" fill-rule="evenodd" fill-opacity="1"/>
<defs>
  <clipPath id="clip001">
    <rect x="112" y="47" width="2242" height="1440"/>
  </clipPath>
</defs>
<path clip-path="url(#clip000)" d="M112.177 1486.45 L2352.76 1486.45 L2352.76 47.2441 L112.177 47.2441  Z" fill="#ffffff" fill-rule="evenodd" fill-opacity="1"/>
<polyline clip-path="url(#clip001)" style="stroke:#000000; stroke-linecap:round; stroke-linejoin:round; stroke-width:2; stroke-opacity:0.1; fill:none" points="270.094,1486.45 270.094,47.2441 "/>
<polyline clip-path="url(#clip001)" style="stroke:#000000; stroke-linecap:round; stroke-linejoin:round; stroke-width:2; stroke-opacity:0.1; fill:none" points="724.467,1486.45 724.467,47.2441 "/>
<polyline clip-path="url(#clip001)" style="stroke:#000000; stroke-linecap:round; stroke-linejoin:round; stroke-width:2; stroke-opacity:0.1; fill:none" points="1178.84,1486.45 1178.84,47.2441 "/>
<polyline clip-path="url(#clip001)" style="stroke:#000000; stroke-linecap:round; stroke-linejoin:round; stroke-width:2; stroke-opacity:0.1; fill:none" points="1633.21,1486.45 1633.21,47.2441 "/>
<polyline clip-path="url(#clip001)" style="stroke:#000000; stroke-linecap:round; stroke-linejoin:round; stroke-width:2; stroke-opacity:0.1; fill:none" points="2087.59,1486.45 2087.59,47.2441 "/>
<polyline clip-path="url(#clip001)" style="stroke:#000000; stroke-linecap:round; stroke-linejoin:round; stroke-width:2; stroke-opacity:0.1; fill:none" points="112.177,1480.48 2352.76,1480.48 "/>
<polyline clip-path="url(#clip001)" style="stroke:#000000; stroke-linecap:round; stroke-linejoin:round; stroke-width:2; stroke-opacity:0.1; fill:none" points="112.177,1112.4 2352.76,1112.4 "/>
<polyline clip-path="url(#clip001)" style="stroke:#000000; stroke-linecap:round; stroke-linejoin:round; stroke-width:2; stroke-opacity:0.1; fill:none" points="112.177,744.307 2352.76,744.307 "/>
<polyline clip-path="url(#clip001)" style="stroke:#000000; stroke-linecap:round; stroke-linejoin:round; stroke-width:2; stroke-opacity:0.1; fill:none" points="112.177,376.217 2352.76,376.217 "/>
<polyline clip-path="url(#clip000)" style="stroke:#000000; stroke-linecap:round; stroke-linejoin:round; stroke-width:4; stroke-opacity:1; fill:none" points="112.177,1486.45 2352.76,1486.45 "/>
<polyline clip-path="url(#clip000)" style="stroke:#000000; stroke-linecap:round; stroke-linejoin:round; stroke-width:4; stroke-opacity:1; fill:none" points="270.094,1486.45 270.094,1467.55 "/>
<polyline clip-path="url(#clip000)" style="stroke:#000000; stroke-linecap:round; stroke-linejoin:round; stroke-width:4; stroke-opacity:1; fill:none" points="724.467,1486.45 724.467,1467.55 "/>
<polyline clip-path="url(#clip000)" style="stroke:#000000; stroke-linecap:round; stroke-linejoin:round; stroke-width:4; stroke-opacity:1; fill:none" points="1178.84,1486.45 1178.84,1467.55 "/>
<polyline clip-path="url(#clip000)" style="stroke:#000000; stroke-linecap:round; stroke-linejoin:round; stroke-width:4; stroke-opacity:1; fill:none" points="1633.21,1486.45 1633.21,1467.55 "/>
<polyline clip-path="url(#clip000)" style="stroke:#000000; stroke-linecap:round; stroke-linejoin:round; stroke-width:4; stroke-opacity:1; fill:none" points="2087.59,1486.45 2087.59,1467.55 "/>
<path clip-path="url(#clip000)" d="M217.12 1532.02 L246.796 1532.02 L246.796 1535.95 L217.12 1535.95 L217.12 1532.02 Z" fill="#000000" fill-rule="nonzero" fill-opacity="1" /><path clip-path="url(#clip000)" d="M257.699 1544.91 L265.337 1544.91 L265.337 1518.55 L257.027 1520.21 L257.027 1515.95 L265.291 1514.29 L269.967 1514.29 L269.967 1544.91 L277.606 1544.91 L277.606 1548.85 L257.699 1548.85 L257.699 1544.91 Z" fill="#000000" fill-rule="nonzero" fill-opacity="1" /><path clip-path="url(#clip000)" d="M287.05 1542.97 L291.935 1542.97 L291.935 1548.85 L287.05 1548.85 L287.05 1542.97 Z" fill="#000000" fill-rule="nonzero" fill-opacity="1" /><path clip-path="url(#clip000)" d="M302.166 1514.29 L320.522 1514.29 L320.522 1518.22 L306.448 1518.22 L306.448 1526.7 Q307.467 1526.35 308.485 1526.19 Q309.504 1526 310.522 1526 Q316.309 1526 319.689 1529.17 Q323.069 1532.34 323.069 1537.76 Q323.069 1543.34 319.596 1546.44 Q316.124 1549.52 309.805 1549.52 Q307.629 1549.52 305.36 1549.15 Q303.115 1548.78 300.708 1548.04 L300.708 1543.34 Q302.791 1544.47 305.013 1545.03 Q307.235 1545.58 309.712 1545.58 Q313.717 1545.58 316.055 1543.48 Q318.393 1541.37 318.393 1537.76 Q318.393 1534.15 316.055 1532.04 Q313.717 1529.94 309.712 1529.94 Q307.837 1529.94 305.962 1530.35 Q304.11 1530.77 302.166 1531.65 L302.166 1514.29 Z" fill="#000000" fill-rule="nonzero" fill-opacity="1" /><path clip-path="url(#clip000)" d="M670.996 1532.02 L700.671 1532.02 L700.671 1535.95 L670.996 1535.95 L670.996 1532.02 Z" fill="#000000" fill-rule="nonzero" fill-opacity="1" /><path clip-path="url(#clip000)" d="M711.574 1544.91 L719.213 1544.91 L719.213 1518.55 L710.903 1520.21 L710.903 1515.95 L719.167 1514.29 L723.842 1514.29 L723.842 1544.91 L731.481 1544.91 L731.481 1548.85 L711.574 1548.85 L711.574 1544.91 Z" fill="#000000" fill-rule="nonzero" fill-opacity="1" /><path clip-path="url(#clip000)" d="M740.926 1542.97 L745.81 1542.97 L745.81 1548.85 L740.926 1548.85 L740.926 1542.97 Z" fill="#000000" fill-rule="nonzero" fill-opacity="1" /><path clip-path="url(#clip000)" d="M765.995 1517.37 Q762.384 1517.37 760.555 1520.93 Q758.75 1524.47 758.75 1531.6 Q758.75 1538.71 760.555 1542.27 Q762.384 1545.82 765.995 1545.82 Q769.629 1545.82 771.435 1542.27 Q773.264 1538.71 773.264 1531.6 Q773.264 1524.47 771.435 1520.93 Q769.629 1517.37 765.995 1517.37 M765.995 1513.66 Q771.805 1513.66 774.861 1518.27 Q777.939 1522.85 777.939 1531.6 Q777.939 1540.33 774.861 1544.94 Q771.805 1549.52 765.995 1549.52 Q760.185 1549.52 757.106 1544.94 Q754.051 1540.33 754.051 1531.6 Q754.051 1522.85 757.106 1518.27 Q760.185 1513.66 765.995 1513.66 Z" fill="#000000" fill-rule="nonzero" fill-opacity="1" /><path clip-path="url(#clip000)" d="M1125.87 1532.02 L1155.54 1532.02 L1155.54 1535.95 L1125.87 1535.95 L1125.87 1532.02 Z" fill="#000000" fill-rule="nonzero" fill-opacity="1" /><path clip-path="url(#clip000)" d="M1175.63 1517.37 Q1172.02 1517.37 1170.19 1520.93 Q1168.39 1524.47 1168.39 1531.6 Q1168.39 1538.71 1170.19 1542.27 Q1172.02 1545.82 1175.63 1545.82 Q1179.27 1545.82 1181.07 1542.27 Q1182.9 1538.71 1182.9 1531.6 Q1182.9 1524.47 1181.07 1520.93 Q1179.27 1517.37 1175.63 1517.37 M1175.63 1513.66 Q1181.44 1513.66 1184.5 1518.27 Q1187.58 1522.85 1187.58 1531.6 Q1187.58 1540.33 1184.5 1544.94 Q1181.44 1549.52 1175.63 1549.52 Q1169.82 1549.52 1166.75 1544.94 Q1163.69 1540.33 1163.69 1531.6 Q1163.69 1522.85 1166.75 1518.27 Q1169.82 1513.66 1175.63 1513.66 Z" fill="#000000" fill-rule="nonzero" fill-opacity="1" /><path clip-path="url(#clip000)" d="M1195.8 1542.97 L1200.68 1542.97 L1200.68 1548.85 L1195.8 1548.85 L1195.8 1542.97 Z" fill="#000000" fill-rule="nonzero" fill-opacity="1" /><path clip-path="url(#clip000)" d="M1210.91 1514.29 L1229.27 1514.29 L1229.27 1518.22 L1215.19 1518.22 L1215.19 1526.7 Q1216.21 1526.35 1217.23 1526.19 Q1218.25 1526 1219.27 1526 Q1225.06 1526 1228.44 1529.17 Q1231.81 1532.34 1231.81 1537.76 Q1231.81 1543.34 1228.34 1546.44 Q1224.87 1549.52 1218.55 1549.52 Q1216.38 1549.52 1214.11 1549.15 Q1211.86 1548.78 1209.45 1548.04 L1209.45 1543.34 Q1211.54 1544.47 1213.76 1545.03 Q1215.98 1545.58 1218.46 1545.58 Q1222.46 1545.58 1224.8 1543.48 Q1227.14 1541.37 1227.14 1537.76 Q1227.14 1534.15 1224.8 1532.04 Q1222.46 1529.94 1218.46 1529.94 Q1216.58 1529.94 1214.71 1530.35 Q1212.86 1530.77 1210.91 1531.65 L1210.91 1514.29 Z" fill="#000000" fill-rule="nonzero" fill-opacity="1" /><path clip-path="url(#clip000)" d="M1610.6 1517.37 Q1606.99 1517.37 1605.16 1520.93 Q1603.35 1524.47 1603.35 1531.6 Q1603.35 1538.71 1605.16 1542.27 Q1606.99 1545.82 1610.6 1545.82 Q1614.23 1545.82 1616.04 1542.27 Q1617.87 1538.71 1617.87 1531.6 Q1617.87 1524.47 1616.04 1520.93 Q1614.23 1517.37 1610.6 1517.37 M1610.6 1513.66 Q1616.41 1513.66 1619.46 1518.27 Q1622.54 1522.85 1622.54 1531.6 Q1622.54 1540.33 1619.46 1544.94 Q1616.41 1549.52 1610.6 1549.52 Q1604.79 1549.52 1601.71 1544.94 Q1598.65 1540.33 1598.65 1531.6 Q1598.65 1522.85 1601.71 1518.27 Q1604.79 1513.66 1610.6 1513.66 Z" fill="#000000" fill-rule="nonzero" fill-opacity="1" /><path clip-path="url(#clip000)" d="M1630.76 1542.97 L1635.64 1542.97 L1635.64 1548.85 L1630.76 1548.85 L1630.76 1542.97 Z" fill="#000000" fill-rule="nonzero" fill-opacity="1" /><path clip-path="url(#clip000)" d="M1655.83 1517.37 Q1652.22 1517.37 1650.39 1520.93 Q1648.58 1524.47 1648.58 1531.6 Q1648.58 1538.71 1650.39 1542.27 Q1652.22 1545.82 1655.83 1545.82 Q1659.46 1545.82 1661.27 1542.27 Q1663.1 1538.71 1663.1 1531.6 Q1663.1 1524.47 1661.27 1520.93 Q1659.46 1517.37 1655.83 1517.37 M1655.83 1513.66 Q1661.64 1513.66 1664.69 1518.27 Q1667.77 1522.85 1667.77 1531.6 Q1667.77 1540.33 1664.69 1544.94 Q1661.64 1549.52 1655.83 1549.52 Q1650.02 1549.52 1646.94 1544.94 Q1643.88 1540.33 1643.88 1531.6 Q1643.88 1522.85 1646.94 1518.27 Q1650.02 1513.66 1655.83 1513.66 Z" fill="#000000" fill-rule="nonzero" fill-opacity="1" /><path clip-path="url(#clip000)" d="M2065.47 1517.37 Q2061.86 1517.37 2060.03 1520.93 Q2058.22 1524.47 2058.22 1531.6 Q2058.22 1538.71 2060.03 1542.27 Q2061.86 1545.82 2065.47 1545.82 Q2069.1 1545.82 2070.91 1542.27 Q2072.74 1538.71 2072.74 1531.6 Q2072.74 1524.47 2070.91 1520.93 Q2069.1 1517.37 2065.47 1517.37 M2065.47 1513.66 Q2071.28 1513.66 2074.33 1518.27 Q2077.41 1522.85 2077.41 1531.6 Q2077.41 1540.33 2074.33 1544.94 Q2071.28 1549.52 2065.47 1549.52 Q2059.66 1549.52 2056.58 1544.94 Q2053.52 1540.33 2053.52 1531.6 Q2053.52 1522.85 2056.58 1518.27 Q2059.66 1513.66 2065.47 1513.66 Z" fill="#000000" fill-rule="nonzero" fill-opacity="1" /><path clip-path="url(#clip000)" d="M2085.63 1542.97 L2090.51 1542.97 L2090.51 1548.85 L2085.63 1548.85 L2085.63 1542.97 Z" fill="#000000" fill-rule="nonzero" fill-opacity="1" /><path clip-path="url(#clip000)" d="M2100.75 1514.29 L2119.1 1514.29 L2119.1 1518.22 L2105.03 1518.22 L2105.03 1526.7 Q2106.05 1526.35 2107.07 1526.19 Q2108.08 1526 2109.1 1526 Q2114.89 1526 2118.27 1529.17 Q2121.65 1532.34 2121.65 1537.76 Q2121.65 1543.34 2118.18 1546.44 Q2114.7 1549.52 2108.39 1549.52 Q2106.21 1549.52 2103.94 1549.15 Q2101.7 1548.78 2099.29 1548.04 L2099.29 1543.34 Q2101.37 1544.47 2103.59 1545.03 Q2105.82 1545.58 2108.29 1545.58 Q2112.3 1545.58 2114.64 1543.48 Q2116.97 1541.37 2116.97 1537.76 Q2116.97 1534.15 2114.64 1532.04 Q2112.3 1529.94 2108.29 1529.94 Q2106.42 1529.94 2104.54 1530.35 Q2102.69 1530.77 2100.75 1531.65 L2100.75 1514.29 Z" fill="#000000" fill-rule="nonzero" fill-opacity="1" /><polyline clip-path="url(#clip000)" style="stroke:#000000; stroke-linecap:round; stroke-linejoin:round; stroke-width:4; stroke-opacity:1; fill:none" points="112.177,1486.45 112.177,47.2441 "/>
<polyline clip-path="url(#clip000)" style="stroke:#000000; stroke-linecap:round; stroke-linejoin:round; stroke-width:4; stroke-opacity:1; fill:none" points="112.177,1480.48 131.075,1480.48 "/>
<polyline clip-path="url(#clip000)" style="stroke:#000000; stroke-linecap:round; stroke-linejoin:round; stroke-width:4; stroke-opacity:1; fill:none" points="112.177,1112.4 131.075,1112.4 "/>
<polyline clip-path="url(#clip000)" style="stroke:#000000; stroke-linecap:round; stroke-linejoin:round; stroke-width:4; stroke-opacity:1; fill:none" points="112.177,744.307 131.075,744.307 "/>
<polyline clip-path="url(#clip000)" style="stroke:#000000; stroke-linecap:round; stroke-linejoin:round; stroke-width:4; stroke-opacity:1; fill:none" points="112.177,376.217 131.075,376.217 "/>
<path clip-path="url(#clip000)" d="M64.2328 1466.28 Q60.6217 1466.28 58.793 1469.85 Q56.9875 1473.39 56.9875 1480.52 Q56.9875 1487.63 58.793 1491.19 Q60.6217 1494.73 64.2328 1494.73 Q67.867 1494.73 69.6726 1491.19 Q71.5013 1487.63 71.5013 1480.52 Q71.5013 1473.39 69.6726 1469.85 Q67.867 1466.28 64.2328 1466.28 M64.2328 1462.58 Q70.0429 1462.58 73.0985 1467.19 Q76.1772 1471.77 76.1772 1480.52 Q76.1772 1489.25 73.0985 1493.85 Q70.0429 1498.44 64.2328 1498.44 Q58.4226 1498.44 55.344 1493.85 Q52.2884 1489.25 52.2884 1480.52 Q52.2884 1471.77 55.344 1467.19 Q58.4226 1462.58 64.2328 1462.58 Z" fill="#000000" fill-rule="nonzero" fill-opacity="1" /><path clip-path="url(#clip000)" d="M59.8578 1125.74 L76.1772 1125.74 L76.1772 1129.68 L54.2328 1129.68 L54.2328 1125.74 Q56.8949 1122.99 61.4782 1118.36 Q66.0846 1113.7 67.2652 1112.36 Q69.5105 1109.84 70.3902 1108.1 Q71.2929 1106.34 71.2929 1104.65 Q71.2929 1101.9 69.3485 1100.16 Q67.4272 1098.43 64.3254 1098.43 Q62.1263 1098.43 59.6726 1099.19 Q57.2421 1099.95 54.4643 1101.5 L54.4643 1096.78 Q57.2884 1095.65 59.7421 1095.07 Q62.1958 1094.49 64.2328 1094.49 Q69.6031 1094.49 72.7976 1097.18 Q75.992 1099.86 75.992 1104.35 Q75.992 1106.48 75.1818 1108.4 Q74.3948 1110.3 72.2883 1112.89 Q71.7096 1113.56 68.6078 1116.78 Q65.5059 1119.98 59.8578 1125.74 Z" fill="#000000" fill-rule="nonzero" fill-opacity="1" /><path clip-path="url(#clip000)" d="M66.5939 731.101 L54.7884 749.55 L66.5939 749.55 L66.5939 731.101 M65.367 727.027 L71.2466 727.027 L71.2466 749.55 L76.1772 749.55 L76.1772 753.438 L71.2466 753.438 L71.2466 761.587 L66.5939 761.587 L66.5939 753.438 L50.9921 753.438 L50.9921 748.925 L65.367 727.027 Z" fill="#000000" fill-rule="nonzero" fill-opacity="1" /><path clip-path="url(#clip000)" d="M64.6495 374.354 Q61.5013 374.354 59.6495 376.507 Q57.8208 378.66 57.8208 382.41 Q57.8208 386.136 59.6495 388.312 Q61.5013 390.465 64.6495 390.465 Q67.7976 390.465 69.6263 388.312 Q71.4781 386.136 71.4781 382.41 Q71.4781 378.66 69.6263 376.507 Q67.7976 374.354 64.6495 374.354 M73.9318 359.701 L73.9318 363.961 Q72.1726 363.127 70.367 362.687 Q68.5846 362.248 66.8254 362.248 Q62.1958 362.248 59.7421 365.373 Q57.3115 368.498 56.9643 374.817 Q58.33 372.803 60.3902 371.738 Q62.4504 370.65 64.9272 370.65 Q70.1355 370.65 73.1448 373.822 Q76.1772 376.97 76.1772 382.41 Q76.1772 387.734 73.029 390.951 Q69.8809 394.169 64.6495 394.169 Q58.6541 394.169 55.4828 389.585 Q52.3116 384.979 52.3116 376.252 Q52.3116 368.058 56.2004 363.197 Q60.0893 358.312 66.6402 358.312 Q68.3994 358.312 70.1818 358.66 Q71.9874 359.007 73.9318 359.701 Z" fill="#000000" fill-rule="nonzero" fill-opacity="1" /><circle clip-path="url(#clip001)" cx="2289.34" cy="1360" r="14.4" fill="#808080" fill-rule="evenodd" fill-opacity="1" stroke="#000000" stroke-opacity="1" stroke-width="3.2"/>
<circle clip-path="url(#clip001)" cx="175.59" cy="87.9763" r="14.4" fill="#808080" fill-rule="evenodd" fill-opacity="1" stroke="#000000" stroke-opacity="1" stroke-width="3.2"/>
<circle clip-path="url(#clip001)" cx="1624.38" cy="1439.47" r="14.4" fill="#808080" fill-rule="evenodd" fill-opacity="1" stroke="#000000" stroke-opacity="1" stroke-width="3.2"/>
<circle clip-path="url(#clip001)" cx="1581.04" cy="1445.72" r="14.4" fill="#808080" fill-rule="evenodd" fill-opacity="1" stroke="#000000" stroke-opacity="1" stroke-width="3.2"/>
<path clip-path="url(#clip000)" d="M2293.64 1367.43 Q2284.6 1367.43 2281.12 1369.49 Q2277.64 1371.56 2277.64 1376.54 Q2277.64 1380.51 2280.23 1382.86 Q2282.86 1385.17 2287.36 1385.17 Q2293.56 1385.17 2297.28 1380.8 Q2301.05 1376.38 2301.05 1369.09 L2301.05 1367.43 L2293.64 1367.43 M2308.5 1364.35 L2308.5 1390.24 L2301.05 1390.24 L2301.05 1383.35 Q2298.5 1387.48 2294.69 1389.47 Q2290.88 1391.41 2285.37 1391.41 Q2278.41 1391.41 2274.27 1387.52 Q2270.18 1383.59 2270.18 1377.03 Q2270.18 1369.37 2275.29 1365.48 Q2280.43 1361.6 2290.6 1361.6 L2301.05 1361.6 L2301.05 1360.87 Q2301.05 1355.72 2297.65 1352.93 Q2294.29 1350.09 2288.17 1350.09 Q2284.28 1350.09 2280.59 1351.02 Q2276.91 1351.95 2273.5 1353.82 L2273.5 1346.93 Q2277.6 1345.35 2281.44 1344.58 Q2285.29 1343.77 2288.94 1343.77 Q2298.78 1343.77 2303.64 1348.88 Q2308.5 1353.98 2308.5 1364.35 Z" fill="#000000" fill-rule="nonzero" fill-opacity="1" /><path clip-path="url(#clip000)" d="M188.148 95.5717 Q188.148 87.3484 184.745 82.6898 Q181.383 77.9908 175.468 77.9908 Q169.554 77.9908 166.151 82.6898 Q162.789 87.3484 162.789 95.5717 Q162.789 103.795 166.151 108.494 Q169.554 113.153 175.468 113.153 Q181.383 113.153 184.745 108.494 Q188.148 103.795 188.148 95.5717 M162.789 79.7327 Q165.138 75.6818 168.703 73.7373 Q172.309 71.7524 177.291 71.7524 Q185.555 71.7524 190.7 78.3149 Q195.885 84.8773 195.885 95.5717 Q195.885 106.266 190.7 112.829 Q185.555 119.391 177.291 119.391 Q172.309 119.391 168.703 117.447 Q165.138 115.462 162.789 111.411 L162.789 118.216 L155.295 118.216 L155.295 55.1842 L162.789 55.1842 L162.789 79.7327 Z" fill="#000000" fill-rule="nonzero" fill-opacity="1" /><path clip-path="url(#clip000)" d="M1642.33 1426.08 L1642.33 1433.05 Q1639.17 1431.3 1635.97 1430.45 Q1632.81 1429.56 1629.57 1429.56 Q1622.32 1429.56 1618.31 1434.18 Q1614.3 1438.76 1614.3 1447.06 Q1614.3 1455.37 1618.31 1459.98 Q1622.32 1464.56 1629.57 1464.56 Q1632.81 1464.56 1635.97 1463.71 Q1639.17 1462.82 1642.33 1461.08 L1642.33 1467.96 Q1639.21 1469.42 1635.85 1470.15 Q1632.53 1470.88 1628.76 1470.88 Q1618.51 1470.88 1612.47 1464.44 Q1606.44 1458 1606.44 1447.06 Q1606.44 1435.96 1612.52 1429.6 Q1618.63 1423.24 1629.25 1423.24 Q1632.69 1423.24 1635.97 1423.97 Q1639.25 1424.66 1642.33 1426.08 Z" fill="#000000" fill-rule="nonzero" fill-opacity="1" /><path clip-path="url(#clip000)" d="M1593.86 1437.47 L1593.86 1412.92 L1601.31 1412.92 L1601.31 1475.96 L1593.86 1475.96 L1593.86 1469.15 Q1591.51 1473.2 1587.9 1475.19 Q1584.34 1477.13 1579.32 1477.13 Q1571.09 1477.13 1565.91 1470.57 Q1560.76 1464.01 1560.76 1453.31 Q1560.76 1442.62 1565.91 1436.05 Q1571.09 1429.49 1579.32 1429.49 Q1584.34 1429.49 1587.9 1431.48 Q1591.51 1433.42 1593.86 1437.47 M1568.46 1453.31 Q1568.46 1461.53 1571.82 1466.23 Q1575.22 1470.89 1581.14 1470.89 Q1587.05 1470.89 1590.46 1466.23 Q1593.86 1461.53 1593.86 1453.31 Q1593.86 1445.09 1590.46 1440.43 Q1587.05 1435.73 1581.14 1435.73 Q1575.22 1435.73 1571.82 1440.43 Q1568.46 1445.09 1568.46 1453.31 Z" fill="#000000" fill-rule="nonzero" fill-opacity="1" /><path clip-path="url(#clip000)" d="M2001.58 198.898 L2278.07 198.898 L2278.07 95.2176 L2001.58 95.2176  Z" fill="#ffffff" fill-rule="evenodd" fill-opacity="1"/>
<polyline clip-path="url(#clip000)" style="stroke:#000000; stroke-linecap:round; stroke-linejoin:round; stroke-width:4; stroke-opacity:1; fill:none" points="2001.58,198.898 2278.07,198.898 2278.07,95.2176 2001.58,95.2176 2001.58,198.898 "/>
<circle clip-path="url(#clip000)" cx="2101.16" cy="147.058" r="20.48" fill="#808080" fill-rule="evenodd" fill-opacity="1" stroke="#000000" stroke-opacity="1" stroke-width="4.55111"/>
<path clip-path="url(#clip000)" d="M2214.59 166.745 Q2212.78 171.375 2211.07 172.787 Q2209.36 174.199 2206.49 174.199 L2203.08 174.199 L2203.08 170.634 L2205.58 170.634 Q2207.34 170.634 2208.31 169.8 Q2209.29 168.967 2210.47 165.865 L2211.23 163.921 L2200.74 138.412 L2205.26 138.412 L2213.36 158.689 L2221.46 138.412 L2225.98 138.412 L2214.59 166.745 Z" fill="#000000" fill-rule="nonzero" fill-opacity="1" /><path clip-path="url(#clip000)" d="M2233.27 160.402 L2240.91 160.402 L2240.91 134.037 L2232.6 135.703 L2232.6 131.444 L2240.86 129.778 L2245.54 129.778 L2245.54 160.402 L2253.17 160.402 L2253.17 164.338 L2233.27 164.338 L2233.27 160.402 Z" fill="#000000" fill-rule="nonzero" fill-opacity="1" /></svg>
