<?xml version="1.0" encoding="utf-8"?>
<svg xmlns="http://www.w3.org/2000/svg" xmlns:xlink="http://www.w3.org/1999/xlink" width="600" height="400" viewBox="0 0 2400 1600">
<defs>
  <clipPath id="clip970">
    <rect x="0" y="0" width="2400" height="1600"/>
  </clipPath>
</defs>
<path clip-path="url(#clip970)" d="M0 1600 L2400 1600 L2400 0 L0 0  Z" fill="#ffffff" fill-rule="evenodd" fill-opacity="1"/>
<defs>
  <clipPath id="clip971">
    <rect x="186" y="47" width="2167" height="1440"/>
  </clipPath>
</defs>
<path clip-path="url(#clip970)" d="M186.274 1486.45 L2352.76 1486.45 L2352.76 47.2441 L186.274 47.2441  Z" fill="#ffffff" fill-rule="evenodd" fill-opacity="1"/>
<polyline clip-path="url(#clip971)" style="stroke:#000000; stroke-linecap:round; stroke-linejoin:round; stroke-width:2; stroke-opacity:0.1; fill:none" points="348.576,1486.45 348.576,47.2441 "/>
<polyline clip-path="url(#clip971)" style="stroke:#000000; stroke-linecap:round; stroke-linejoin:round; stroke-width:2; stroke-opacity:0.1; fill:none" points="846.457,1486.45 846.457,47.2441 "/>
<polyline clip-path="url(#clip971)" style="stroke:#000000; stroke-linecap:round; stroke-linejoin:round; stroke-width:2; stroke-opacity:0.1; fill:none" points="1344.34,1486.45 1344.34,47.2441 "/>
<polyline clip-path="url(#clip971)" style="stroke:#000000; stroke-linecap:round; stroke-linejoin:round; stroke-width:2; stroke-opacity:0.1; fill:none" points="1842.22,1486.45 1842.22,47.2441 "/>
<polyline clip-path="url(#clip971)" style="stroke:#000000; stroke-linecap:round; stroke-linejoin:round; stroke-width:2; stroke-opacity:0.1; fill:none" points="2340.1,1486.45 2340.1,47.2441 "/>
<polyline clip-path="url(#clip971)" style="stroke:#000000; stroke-linecap:round; stroke-linejoin:round; stroke-width:2; stroke-opacity:0.1; fill:none" points="186.274,1467.97 2352.76,1467.97 "/>
<polyline clip-path="url(#clip971)" style="stroke:#000000; stroke-linecap:round; stroke-linejoin:round; stroke-width:2; stroke-opacity:0.1; fill:none" points="186.274,1123.02 2352.76,1123.02 "/>
<polyline clip-path="url(#clip971)" style="stroke:#000000; stroke-linecap:round; stroke-linejoin:round; stroke-width:2; stroke-opacity:0.1; fill:none" points="186.274,778.058 2352.76,778.058 "/>
<polyline clip-path="url(#clip971)" style="stroke:#000000; stroke-linecap:round; stroke-linejoin:round; stroke-width:2; stroke-opacity:0.1; fill:none" points="186.274,433.099 2352.76,433.099 "/>
<polyline clip-path="url(#clip971)" style="stroke:#000000; stroke-linecap:round; stroke-linejoin:round; stroke-width:2; stroke-opacity:0.1; fill:none" points="186.274,88.1404 2352.76,88.1404 "/>
<polyline clip-path="url(#clip970)" style="stroke:#000000; stroke-linecap:round; stroke-linejoin:round; stroke-width:4; stroke-opacity:1; fill:none" points="186.274,1486.45 2352.76,1486.45 "/>
<polyline clip-path="url(#clip970)" style="stroke:#000000; stroke-linecap:round; stroke-linejoin:round; stroke-width:4; stroke-opacity:1; fill:none" points="348.576,1486.45 348.576,1467.55 "/>
<polyline clip-path="url(#clip970)" style="stroke:#000000; stroke-linecap:round; stroke-linejoin:round; stroke-width:4; stroke-opacity:1; fill:none" points="846.457,1486.45 846.457,1467.55 "/>
<polyline clip-path="url(#clip970)" style="stroke:#000000; stroke-linecap:round; stroke-linejoin:round; stroke-width:4; stroke-opacity:1; fill:none" points="1344.34,1486.45 1344.34,1467.55 "/>
<polyline clip-path="url(#clip970)" style="stroke:#000000; stroke-linecap:round; stroke-linejoin:round; stroke-width:4; stroke-opacity:1; fill:none" points="1842.22,1486.45 1842.22,1467.55 "/>
<polyline clip-path="url(#clip970)" style="stroke:#000000; stroke-linecap:round; stroke-linejoin:round; stroke-width:4; stroke-opacity:1; fill:none" points="2340.1,1486.45 2340.1,1467.55 "/>
<path clip-path="url(#clip970)" d="M294.861 1532.02 L324.537 1532.02 L324.537 1535.95 L294.861 1535.95 L294.861 1532.02 Z" fill="#000000" fill-rule="nonzero" fill-opacity="1" /><path clip-path="url(#clip970)" d="M344.629 1517.37 Q341.018 1517.37 339.19 1520.93 Q337.384 1524.47 337.384 1531.6 Q337.384 1538.71 339.19 1542.27 Q341.018 1545.82 344.629 1545.82 Q348.264 1545.82 350.069 1542.27 Q351.898 1538.71 351.898 1531.6 Q351.898 1524.47 350.069 1520.93 Q348.264 1517.37 344.629 1517.37 M344.629 1513.66 Q350.44 1513.66 353.495 1518.27 Q356.574 1522.85 356.574 1531.6 Q356.574 1540.33 353.495 1544.94 Q350.44 1549.52 344.629 1549.52 Q338.819 1549.52 335.741 1544.94 Q332.685 1540.33 332.685 1531.6 Q332.685 1522.85 335.741 1518.27 Q338.819 1513.66 344.629 1513.66 Z" fill="#000000" fill-rule="nonzero" fill-opacity="1" /><path clip-path="url(#clip970)" d="M364.791 1542.97 L369.676 1542.97 L369.676 1548.85 L364.791 1548.85 L364.791 1542.97 Z" fill="#000000" fill-rule="nonzero" fill-opacity="1" /><path clip-path="url(#clip970)" d="M392.708 1518.36 L380.902 1536.81 L392.708 1536.81 L392.708 1518.36 M391.481 1514.29 L397.361 1514.29 L397.361 1536.81 L402.291 1536.81 L402.291 1540.7 L397.361 1540.7 L397.361 1548.85 L392.708 1548.85 L392.708 1540.7 L377.106 1540.7 L377.106 1536.19 L391.481 1514.29 Z" fill="#000000" fill-rule="nonzero" fill-opacity="1" /><path clip-path="url(#clip970)" d="M793.783 1532.02 L823.459 1532.02 L823.459 1535.95 L793.783 1535.95 L793.783 1532.02 Z" fill="#000000" fill-rule="nonzero" fill-opacity="1" /><path clip-path="url(#clip970)" d="M843.552 1517.37 Q839.941 1517.37 838.112 1520.93 Q836.306 1524.47 836.306 1531.6 Q836.306 1538.71 838.112 1542.27 Q839.941 1545.82 843.552 1545.82 Q847.186 1545.82 848.991 1542.27 Q850.82 1538.71 850.82 1531.6 Q850.82 1524.47 848.991 1520.93 Q847.186 1517.37 843.552 1517.37 M843.552 1513.66 Q849.362 1513.66 852.417 1518.27 Q855.496 1522.85 855.496 1531.6 Q855.496 1540.33 852.417 1544.94 Q849.362 1549.52 843.552 1549.52 Q837.742 1549.52 834.663 1544.94 Q831.607 1540.33 831.607 1531.6 Q831.607 1522.85 834.663 1518.27 Q837.742 1513.66 843.552 1513.66 Z" fill="#000000" fill-rule="nonzero" fill-opacity="1" /><path clip-path="url(#clip970)" d="M863.714 1542.97 L868.598 1542.97 L868.598 1548.85 L863.714 1548.85 L863.714 1542.97 Z" fill="#000000" fill-rule="nonzero" fill-opacity="1" /><path clip-path="url(#clip970)" d="M882.811 1544.91 L899.13 1544.91 L899.13 1548.85 L877.186 1548.85 L877.186 1544.91 Q879.848 1542.16 884.431 1537.53 Q889.038 1532.88 890.218 1531.53 Q892.463 1529.01 893.343 1527.27 Q894.246 1525.51 894.246 1523.82 Q894.246 1521.07 892.301 1519.33 Q890.38 1517.6 887.278 1517.6 Q885.079 1517.6 882.626 1518.36 Q880.195 1519.13 877.417 1520.68 L877.417 1515.95 Q880.241 1514.82 882.695 1514.24 Q885.149 1513.66 887.186 1513.66 Q892.556 1513.66 895.751 1516.35 Q898.945 1519.03 898.945 1523.52 Q898.945 1525.65 898.135 1527.57 Q897.348 1529.47 895.241 1532.07 Q894.663 1532.74 891.561 1535.95 Q888.459 1539.15 882.811 1544.91 Z" fill="#000000" fill-rule="nonzero" fill-opacity="1" /><path clip-path="url(#clip970)" d="M1321.72 1517.37 Q1318.11 1517.37 1316.28 1520.93 Q1314.48 1524.47 1314.48 1531.6 Q1314.48 1538.71 1316.28 1542.27 Q1318.11 1545.82 1321.72 1545.82 Q1325.36 1545.82 1327.16 1542.27 Q1328.99 1538.71 1328.99 1531.6 Q1328.99 1524.47 1327.16 1520.93 Q1325.36 1517.37 1321.72 1517.37 M1321.72 1513.66 Q1327.53 1513.66 1330.59 1518.27 Q1333.67 1522.85 1333.67 1531.6 Q1333.67 1540.33 1330.59 1544.94 Q1327.53 1549.52 1321.72 1549.52 Q1315.91 1549.52 1312.83 1544.94 Q1309.78 1540.33 1309.78 1531.6 Q1309.78 1522.85 1312.83 1518.27 Q1315.91 1513.66 1321.72 1513.66 Z" fill="#000000" fill-rule="nonzero" fill-opacity="1" /><path clip-path="url(#clip970)" d="M1341.88 1542.97 L1346.77 1542.97 L1346.77 1548.85 L1341.88 1548.85 L1341.88 1542.97 Z" fill="#000000" fill-rule="nonzero" fill-opacity="1" /><path clip-path="url(#clip970)" d="M1366.95 1517.37 Q1363.34 1517.37 1361.51 1520.93 Q1359.71 1524.47 1359.71 1531.6 Q1359.71 1538.71 1361.51 1542.27 Q1363.34 1545.82 1366.95 1545.82 Q1370.59 1545.82 1372.39 1542.27 Q1374.22 1538.71 1374.22 1531.6 Q1374.22 1524.47 1372.39 1520.93 Q1370.59 1517.37 1366.95 1517.37 M1366.95 1513.66 Q1372.76 1513.66 1375.82 1518.27 Q1378.9 1522.85 1378.9 1531.6 Q1378.9 1540.33 1375.82 1544.94 Q1372.76 1549.52 1366.95 1549.52 Q1361.14 1549.52 1358.06 1544.94 Q1355.01 1540.33 1355.01 1531.6 Q1355.01 1522.85 1358.06 1518.27 Q1361.14 1513.66 1366.95 1513.66 Z" fill="#000000" fill-rule="nonzero" fill-opacity="1" /><path clip-path="url(#clip970)" d="M1820.4 1517.37 Q1816.79 1517.37 1814.96 1520.93 Q1813.16 1524.47 1813.16 1531.6 Q1813.16 1538.71 1814.96 1542.27 Q1816.79 1545.82 1820.4 1545.82 Q1824.04 1545.82 1825.84 1542.27 Q1827.67 1538.71 1827.67 1531.6 Q1827.67 1524.47 1825.84 1520.93 Q1824.04 1517.37 1820.4 1517.37 M1820.4 1513.66 Q1826.21 1513.66 1829.27 1518.27 Q1832.35 1522.85 1832.35 1531.6 Q1832.35 1540.33 1829.27 1544.94 Q1826.21 1549.52 1820.4 1549.52 Q1814.59 1549.52 1811.51 1544.94 Q1808.46 1540.33 1808.46 1531.6 Q1808.46 1522.85 1811.51 1518.27 Q1814.59 1513.66 1820.4 1513.66 Z" fill="#000000" fill-rule="nonzero" fill-opacity="1" /><path clip-path="url(#clip970)" d="M1840.56 1542.97 L1845.45 1542.97 L1845.45 1548.85 L1840.56 1548.85 L1840.56 1542.97 Z" fill="#000000" fill-rule="nonzero" fill-opacity="1" /><path clip-path="url(#clip970)" d="M1859.66 1544.91 L1875.98 1544.91 L1875.98 1548.85 L1854.04 1548.85 L1854.04 1544.91 Q1856.7 1542.16 1861.28 1537.53 Q1865.89 1532.88 1867.07 1531.53 Q1869.31 1529.01 1870.19 1527.27 Q1871.1 1525.51 1871.1 1523.82 Q1871.1 1521.07 1869.15 1519.33 Q1867.23 1517.6 1864.13 1517.6 Q1861.93 1517.6 1859.47 1518.36 Q1857.04 1519.13 1854.27 1520.68 L1854.27 1515.95 Q1857.09 1514.82 1859.54 1514.24 Q1862 1513.66 1864.03 1513.66 Q1869.41 1513.66 1872.6 1516.35 Q1875.79 1519.03 1875.79 1523.52 Q1875.79 1525.65 1874.98 1527.57 Q1874.2 1529.47 1872.09 1532.07 Q1871.51 1532.74 1868.41 1535.95 Q1865.31 1539.15 1859.66 1544.91 Z" fill="#000000" fill-rule="nonzero" fill-opacity="1" /><path clip-path="url(#clip970)" d="M2317.24 1517.37 Q2313.63 1517.37 2311.8 1520.93 Q2309.99 1524.47 2309.99 1531.6 Q2309.99 1538.71 2311.8 1542.27 Q2313.63 1545.82 2317.24 1545.82 Q2320.87 1545.82 2322.68 1542.27 Q2324.51 1538.71 2324.51 1531.6 Q2324.51 1524.47 2322.68 1520.93 Q2320.87 1517.37 2317.24 1517.37 M2317.24 1513.66 Q2323.05 1513.66 2326.11 1518.27 Q2329.18 1522.85 2329.18 1531.6 Q2329.18 1540.33 2326.11 1544.94 Q2323.05 1549.52 2317.24 1549.52 Q2311.43 1549.52 2308.35 1544.94 Q2305.3 1540.33 2305.3 1531.6 Q2305.3 1522.85 2308.35 1518.27 Q2311.43 1513.66 2317.24 1513.66 Z" fill="#000000" fill-rule="nonzero" fill-opacity="1" /><path clip-path="url(#clip970)" d="M2337.4 1542.97 L2342.29 1542.97 L2342.29 1548.85 L2337.4 1548.85 L2337.4 1542.97 Z" fill="#000000" fill-rule="nonzero" fill-opacity="1" /><path clip-path="url(#clip970)" d="M2365.32 1518.36 L2353.51 1536.81 L2365.32 1536.81 L2365.32 1518.36 M2364.09 1514.29 L2369.97 1514.29 L2369.97 1536.81 L2374.9 1536.81 L2374.9 1540.7 L2369.97 1540.7 L2369.97 1548.85 L2365.32 1548.85 L2365.32 1540.7 L2349.72 1540.7 L2349.72 1536.19 L2364.09 1514.29 Z" fill="#000000" fill-rule="nonzero" fill-opacity="1" /><polyline clip-path="url(#clip970)" style="stroke:#000000; stroke-linecap:round; stroke-linejoin:round; stroke-width:4; stroke-opacity:1; fill:none" points="186.274,1486.45 186.274,47.2441 "/>
<polyline clip-path="url(#clip970)" style="stroke:#000000; stroke-linecap:round; stroke-linejoin:round; stroke-width:4; stroke-opacity:1; fill:none" points="186.274,1467.97 205.172,1467.97 "/>
<polyline clip-path="url(#clip970)" style="stroke:#000000; stroke-linecap:round; stroke-linejoin:round; stroke-width:4; stroke-opacity:1; fill:none" points="186.274,1123.02 205.172,1123.02 "/>
<polyline clip-path="url(#clip970)" style="stroke:#000000; stroke-linecap:round; stroke-linejoin:round; stroke-width:4; stroke-opacity:1; fill:none" points="186.274,778.058 205.172,778.058 "/>
<polyline clip-path="url(#clip970)" style="stroke:#000000; stroke-linecap:round; stroke-linejoin:round; stroke-width:4; stroke-opacity:1; fill:none" points="186.274,433.099 205.172,433.099 "/>
<polyline clip-path="url(#clip970)" style="stroke:#000000; stroke-linecap:round; stroke-linejoin:round; stroke-width:4; stroke-opacity:1; fill:none" points="186.274,88.1404 205.172,88.1404 "/>
<path clip-path="url(#clip970)" d="M62.9365 1453.77 Q59.3254 1453.77 57.4967 1457.34 Q55.6912 1460.88 55.6912 1468.01 Q55.6912 1475.12 57.4967 1478.68 Q59.3254 1482.22 62.9365 1482.22 Q66.5707 1482.22 68.3763 1478.68 Q70.205 1475.12 70.205 1468.01 Q70.205 1460.88 68.3763 1457.34 Q66.5707 1453.77 62.9365 1453.77 M62.9365 1450.07 Q68.7467 1450.07 71.8022 1454.68 Q74.8809 1459.26 74.8809 1468.01 Q74.8809 1476.74 71.8022 1481.34 Q68.7467 1485.93 62.9365 1485.93 Q57.1264 1485.93 54.0477 1481.34 Q50.9921 1476.74 50.9921 1468.01 Q50.9921 1459.26 54.0477 1454.68 Q57.1264 1450.07 62.9365 1450.07 Z" fill="#000000" fill-rule="nonzero" fill-opacity="1" /><path clip-path="url(#clip970)" d="M83.0984 1479.38 L87.9827 1479.38 L87.9827 1485.25 L83.0984 1485.25 L83.0984 1479.38 Z" fill="#000000" fill-rule="nonzero" fill-opacity="1" /><path clip-path="url(#clip970)" d="M108.168 1453.77 Q104.557 1453.77 102.728 1457.34 Q100.922 1460.88 100.922 1468.01 Q100.922 1475.12 102.728 1478.68 Q104.557 1482.22 108.168 1482.22 Q111.802 1482.22 113.608 1478.68 Q115.436 1475.12 115.436 1468.01 Q115.436 1460.88 113.608 1457.34 Q111.802 1453.77 108.168 1453.77 M108.168 1450.07 Q113.978 1450.07 117.033 1454.68 Q120.112 1459.26 120.112 1468.01 Q120.112 1476.74 117.033 1481.34 Q113.978 1485.93 108.168 1485.93 Q102.358 1485.93 99.2789 1481.34 Q96.2234 1476.74 96.2234 1468.01 Q96.2234 1459.26 99.2789 1454.68 Q102.358 1450.07 108.168 1450.07 Z" fill="#000000" fill-rule="nonzero" fill-opacity="1" /><path clip-path="url(#clip970)" d="M138.33 1453.77 Q134.719 1453.77 132.89 1457.34 Q131.084 1460.88 131.084 1468.01 Q131.084 1475.12 132.89 1478.68 Q134.719 1482.22 138.33 1482.22 Q141.964 1482.22 143.769 1478.68 Q145.598 1475.12 145.598 1468.01 Q145.598 1460.88 143.769 1457.34 Q141.964 1453.77 138.33 1453.77 M138.33 1450.07 Q144.14 1450.07 147.195 1454.68 Q150.274 1459.26 150.274 1468.01 Q150.274 1476.74 147.195 1481.34 Q144.14 1485.93 138.33 1485.93 Q132.519 1485.93 129.441 1481.34 Q126.385 1476.74 126.385 1468.01 Q126.385 1459.26 129.441 1454.68 Q132.519 1450.07 138.33 1450.07 Z" fill="#000000" fill-rule="nonzero" fill-opacity="1" /><path clip-path="url(#clip970)" d="M63.9319 1108.81 Q60.3208 1108.81 58.4921 1112.38 Q56.6865 1115.92 56.6865 1123.05 Q56.6865 1130.16 58.4921 1133.72 Q60.3208 1137.26 63.9319 1137.26 Q67.5661 1137.26 69.3717 1133.72 Q71.2004 1130.16 71.2004 1123.05 Q71.2004 1115.92 69.3717 1112.38 Q67.5661 1108.81 63.9319 1108.81 M63.9319 1105.11 Q69.742 1105.11 72.7976 1109.72 Q75.8763 1114.3 75.8763 1123.05 Q75.8763 1131.78 72.7976 1136.38 Q69.742 1140.97 63.9319 1140.97 Q58.1217 1140.97 55.043 1136.38 Q51.9875 1131.78 51.9875 1123.05 Q51.9875 1114.3 55.043 1109.72 Q58.1217 1105.11 63.9319 1105.11 Z" fill="#000000" fill-rule="nonzero" fill-opacity="1" /><path clip-path="url(#clip970)" d="M84.0938 1134.42 L88.978 1134.42 L88.978 1140.3 L84.0938 1140.3 L84.0938 1134.42 Z" fill="#000000" fill-rule="nonzero" fill-opacity="1" /><path clip-path="url(#clip970)" d="M109.163 1108.81 Q105.552 1108.81 103.723 1112.38 Q101.918 1115.92 101.918 1123.05 Q101.918 1130.16 103.723 1133.72 Q105.552 1137.26 109.163 1137.26 Q112.797 1137.26 114.603 1133.72 Q116.432 1130.16 116.432 1123.05 Q116.432 1115.92 114.603 1112.38 Q112.797 1108.81 109.163 1108.81 M109.163 1105.11 Q114.973 1105.11 118.029 1109.72 Q121.107 1114.3 121.107 1123.05 Q121.107 1131.78 118.029 1136.38 Q114.973 1140.97 109.163 1140.97 Q103.353 1140.97 100.274 1136.38 Q97.2187 1131.78 97.2187 1123.05 Q97.2187 1114.3 100.274 1109.72 Q103.353 1105.11 109.163 1105.11 Z" fill="#000000" fill-rule="nonzero" fill-opacity="1" /><path clip-path="url(#clip970)" d="M129.371 1105.74 L147.728 1105.74 L147.728 1109.67 L133.654 1109.67 L133.654 1118.14 Q134.672 1117.8 135.691 1117.63 Q136.709 1117.45 137.728 1117.45 Q143.515 1117.45 146.894 1120.62 Q150.274 1123.79 150.274 1129.21 Q150.274 1134.79 146.802 1137.89 Q143.33 1140.97 137.01 1140.97 Q134.834 1140.97 132.566 1140.6 Q130.32 1140.23 127.913 1139.49 L127.913 1134.79 Q129.996 1135.92 132.219 1136.48 Q134.441 1137.03 136.918 1137.03 Q140.922 1137.03 143.26 1134.93 Q145.598 1132.82 145.598 1129.21 Q145.598 1125.6 143.26 1123.49 Q140.922 1121.38 136.918 1121.38 Q135.043 1121.38 133.168 1121.8 Q131.316 1122.22 129.371 1123.1 L129.371 1105.74 Z" fill="#000000" fill-rule="nonzero" fill-opacity="1" /><path clip-path="url(#clip970)" d="M62.9365 763.856 Q59.3254 763.856 57.4967 767.421 Q55.6912 770.963 55.6912 778.092 Q55.6912 785.199 57.4967 788.764 Q59.3254 792.305 62.9365 792.305 Q66.5707 792.305 68.3763 788.764 Q70.205 785.199 70.205 778.092 Q70.205 770.963 68.3763 767.421 Q66.5707 763.856 62.9365 763.856 M62.9365 760.153 Q68.7467 760.153 71.8022 764.759 Q74.8809 769.342 74.8809 778.092 Q74.8809 786.819 71.8022 791.426 Q68.7467 796.009 62.9365 796.009 Q57.1264 796.009 54.0477 791.426 Q50.9921 786.819 50.9921 778.092 Q50.9921 769.342 54.0477 764.759 Q57.1264 760.153 62.9365 760.153 Z" fill="#000000" fill-rule="nonzero" fill-opacity="1" /><path clip-path="url(#clip970)" d="M83.0984 789.458 L87.9827 789.458 L87.9827 795.338 L83.0984 795.338 L83.0984 789.458 Z" fill="#000000" fill-rule="nonzero" fill-opacity="1" /><path clip-path="url(#clip970)" d="M98.978 791.402 L106.617 791.402 L106.617 765.037 L98.3067 766.704 L98.3067 762.444 L106.571 760.778 L111.246 760.778 L111.246 791.402 L118.885 791.402 L118.885 795.338 L98.978 795.338 L98.978 791.402 Z" fill="#000000" fill-rule="nonzero" fill-opacity="1" /><path clip-path="url(#clip970)" d="M138.33 763.856 Q134.719 763.856 132.89 767.421 Q131.084 770.963 131.084 778.092 Q131.084 785.199 132.89 788.764 Q134.719 792.305 138.33 792.305 Q141.964 792.305 143.769 788.764 Q145.598 785.199 145.598 778.092 Q145.598 770.963 143.769 767.421 Q141.964 763.856 138.33 763.856 M138.33 760.153 Q144.14 760.153 147.195 764.759 Q150.274 769.342 150.274 778.092 Q150.274 786.819 147.195 791.426 Q144.14 796.009 138.33 796.009 Q132.519 796.009 129.441 791.426 Q126.385 786.819 126.385 778.092 Q126.385 769.342 129.441 764.759 Q132.519 760.153 138.33 760.153 Z" fill="#000000" fill-rule="nonzero" fill-opacity="1" /><path clip-path="url(#clip970)" d="M63.9319 418.898 Q60.3208 418.898 58.4921 422.463 Q56.6865 426.004 56.6865 433.134 Q56.6865 440.24 58.4921 443.805 Q60.3208 447.347 63.9319 447.347 Q67.5661 447.347 69.3717 443.805 Q71.2004 440.24 71.2004 433.134 Q71.2004 426.004 69.3717 422.463 Q67.5661 418.898 63.9319 418.898 M63.9319 415.194 Q69.742 415.194 72.7976 419.801 Q75.8763 424.384 75.8763 433.134 Q75.8763 441.861 72.7976 446.467 Q69.742 451.05 63.9319 451.05 Q58.1217 451.05 55.043 446.467 Q51.9875 441.861 51.9875 433.134 Q51.9875 424.384 55.043 419.801 Q58.1217 415.194 63.9319 415.194 Z" fill="#000000" fill-rule="nonzero" fill-opacity="1" /><path clip-path="url(#clip970)" d="M84.0938 444.499 L88.978 444.499 L88.978 450.379 L84.0938 450.379 L84.0938 444.499 Z" fill="#000000" fill-rule="nonzero" fill-opacity="1" /><path clip-path="url(#clip970)" d="M99.9733 446.444 L107.612 446.444 L107.612 420.078 L99.3021 421.745 L99.3021 417.486 L107.566 415.819 L112.242 415.819 L112.242 446.444 L119.881 446.444 L119.881 450.379 L99.9733 450.379 L99.9733 446.444 Z" fill="#000000" fill-rule="nonzero" fill-opacity="1" /><path clip-path="url(#clip970)" d="M129.371 415.819 L147.728 415.819 L147.728 419.754 L133.654 419.754 L133.654 428.226 Q134.672 427.879 135.691 427.717 Q136.709 427.532 137.728 427.532 Q143.515 427.532 146.894 430.703 Q150.274 433.875 150.274 439.291 Q150.274 444.87 146.802 447.972 Q143.33 451.05 137.01 451.05 Q134.834 451.05 132.566 450.68 Q130.32 450.31 127.913 449.569 L127.913 444.87 Q129.996 446.004 132.219 446.56 Q134.441 447.115 136.918 447.115 Q140.922 447.115 143.26 445.009 Q145.598 442.902 145.598 439.291 Q145.598 435.68 143.26 433.574 Q140.922 431.467 136.918 431.467 Q135.043 431.467 133.168 431.884 Q131.316 432.3 129.371 433.18 L129.371 415.819 Z" fill="#000000" fill-rule="nonzero" fill-opacity="1" /><path clip-path="url(#clip970)" d="M62.9365 73.9391 Q59.3254 73.9391 57.4967 77.5039 Q55.6912 81.0456 55.6912 88.1752 Q55.6912 95.2816 57.4967 98.8464 Q59.3254 102.388 62.9365 102.388 Q66.5707 102.388 68.3763 98.8464 Q70.205 95.2816 70.205 88.1752 Q70.205 81.0456 68.3763 77.5039 Q66.5707 73.9391 62.9365 73.9391 M62.9365 70.2354 Q68.7467 70.2354 71.8022 74.8419 Q74.8809 79.4252 74.8809 88.1752 Q74.8809 96.902 71.8022 101.508 Q68.7467 106.092 62.9365 106.092 Q57.1264 106.092 54.0477 101.508 Q50.9921 96.902 50.9921 88.1752 Q50.9921 79.4252 54.0477 74.8419 Q57.1264 70.2354 62.9365 70.2354 Z" fill="#000000" fill-rule="nonzero" fill-opacity="1" /><path clip-path="url(#clip970)" d="M83.0984 99.5408 L87.9827 99.5408 L87.9827 105.42 L83.0984 105.42 L83.0984 99.5408 Z" fill="#000000" fill-rule="nonzero" fill-opacity="1" /><path clip-path="url(#clip970)" d="M102.196 101.485 L118.515 101.485 L118.515 105.42 L96.5706 105.42 L96.5706 101.485 Q99.2326 98.7307 103.816 94.1011 Q108.422 89.4483 109.603 88.1057 Q111.848 85.5826 112.728 83.8465 Q113.631 82.0872 113.631 80.3974 Q113.631 77.6428 111.686 75.9067 Q109.765 74.1706 106.663 74.1706 Q104.464 74.1706 102.01 74.9345 Q99.5798 75.6984 96.8021 77.2493 L96.8021 72.5271 Q99.6261 71.3928 102.08 70.8141 Q104.534 70.2354 106.571 70.2354 Q111.941 70.2354 115.135 72.9206 Q118.33 75.6058 118.33 80.0965 Q118.33 82.2261 117.52 84.1474 Q116.733 86.0455 114.626 88.6381 Q114.047 89.3094 110.946 92.527 Q107.844 95.7214 102.196 101.485 Z" fill="#000000" fill-rule="nonzero" fill-opacity="1" /><path clip-path="url(#clip970)" d="M138.33 73.9391 Q134.719 73.9391 132.89 77.5039 Q131.084 81.0456 131.084 88.1752 Q131.084 95.2816 132.89 98.8464 Q134.719 102.388 138.33 102.388 Q141.964 102.388 143.769 98.8464 Q145.598 95.2816 145.598 88.1752 Q145.598 81.0456 143.769 77.5039 Q141.964 73.9391 138.33 73.9391 M138.33 70.2354 Q144.14 70.2354 147.195 74.8419 Q150.274 79.4252 150.274 88.1752 Q150.274 96.902 147.195 101.508 Q144.14 106.092 138.33 106.092 Q132.519 106.092 129.441 101.508 Q126.385 96.902 126.385 88.1752 Q126.385 79.4252 129.441 74.8419 Q132.519 70.2354 138.33 70.2354 Z" fill="#000000" fill-rule="nonzero" fill-opacity="1" /><circle clip-path="url(#clip971)" cx="1394.48" cy="1025.23" r="14.4" fill="#808080" fill-rule="evenodd" fill-opacity="1" stroke="#000000" stroke-opacity="1" stroke-width="3.2"/>
<circle clip-path="url(#clip971)" cx="1318.62" cy="1445.72" r="14.4" fill="#808080" fill-rule="evenodd" fill-opacity="1" stroke="#000000" stroke-opacity="1" stroke-width="3.2"/>
<circle clip-path="url(#clip971)" cx="2291.44" cy="1143.87" r="14.4" fill="#808080" fill-rule="evenodd" fill-opacity="1" stroke="#000000" stroke-opacity="1" stroke-width="3.2"/>
<circle clip-path="url(#clip971)" cx="247.59" cy="87.9763" r="14.4" fill="#808080" fill-rule="evenodd" fill-opacity="1" stroke="#000000" stroke-opacity="1" stroke-width="3.2"/>
<path clip-path="url(#clip970)" d="M1398.77 1032.66 Q1389.74 1032.66 1386.26 1034.73 Q1382.77 1036.79 1382.77 1041.77 Q1382.77 1045.74 1385.37 1048.09 Q1388 1050.4 1392.49 1050.4 Q1398.69 1050.4 1402.42 1046.03 Q1406.19 1041.61 1406.19 1034.32 L1406.19 1032.66 L1398.77 1032.66 M1413.64 1029.58 L1413.64 1055.47 L1406.19 1055.47 L1406.19 1048.58 Q1403.63 1052.71 1399.83 1054.7 Q1396.02 1056.64 1390.51 1056.64 Q1383.54 1056.64 1379.41 1052.75 Q1375.32 1048.82 1375.32 1042.26 Q1375.32 1034.6 1380.42 1030.71 Q1385.57 1026.83 1395.74 1026.83 L1406.19 1026.83 L1406.19 1026.1 Q1406.19 1020.95 1402.78 1018.16 Q1399.42 1015.32 1393.31 1015.32 Q1389.42 1015.32 1385.73 1016.25 Q1382.04 1017.18 1378.64 1019.05 L1378.64 1012.16 Q1382.73 1010.58 1386.58 1009.81 Q1390.43 1009 1394.07 1009 Q1403.92 1009 1408.78 1014.11 Q1413.64 1019.21 1413.64 1029.58 Z" fill="#000000" fill-rule="nonzero" fill-opacity="1" /><path clip-path="url(#clip970)" d="M1331.18 1453.31 Q1331.18 1445.09 1327.77 1440.43 Q1324.41 1435.73 1318.5 1435.73 Q1312.58 1435.73 1309.18 1440.43 Q1305.82 1445.09 1305.82 1453.31 Q1305.82 1461.53 1309.18 1466.23 Q1312.58 1470.89 1318.5 1470.89 Q1324.41 1470.89 1327.77 1466.23 Q1331.18 1461.53 1331.18 1453.31 M1305.82 1437.47 Q1308.17 1433.42 1311.73 1431.48 Q1315.34 1429.49 1320.32 1429.49 Q1328.59 1429.49 1333.73 1436.05 Q1338.91 1442.62 1338.91 1453.31 Q1338.91 1464.01 1333.73 1470.57 Q1328.59 1477.13 1320.32 1477.13 Q1315.34 1477.13 1311.73 1475.19 Q1308.17 1473.2 1305.82 1469.15 L1305.82 1475.96 L1298.32 1475.96 L1298.32 1412.92 L1305.82 1412.92 L1305.82 1437.47 Z" fill="#000000" fill-rule="nonzero" fill-opacity="1" /><path clip-path="url(#clip970)" d="M2309.39 1130.49 L2309.39 1137.45 Q2306.23 1135.71 2303.03 1134.86 Q2299.87 1133.97 2296.63 1133.97 Q2289.37 1133.97 2285.36 1138.59 Q2281.35 1143.17 2281.35 1151.47 Q2281.35 1159.77 2285.36 1164.39 Q2289.37 1168.97 2296.63 1168.97 Q2299.87 1168.97 2303.03 1168.12 Q2306.23 1167.23 2309.39 1165.49 L2309.39 1172.37 Q2306.27 1173.83 2302.9 1174.56 Q2299.58 1175.29 2295.82 1175.29 Q2285.57 1175.29 2279.53 1168.85 Q2273.49 1162.41 2273.49 1151.47 Q2273.49 1140.37 2279.57 1134.01 Q2285.69 1127.65 2296.3 1127.65 Q2299.74 1127.65 2303.03 1128.38 Q2306.31 1129.07 2309.39 1130.49 Z" fill="#000000" fill-rule="nonzero" fill-opacity="1" /><path clip-path="url(#clip970)" d="M260.411 79.7327 L260.411 55.1842 L267.864 55.1842 L267.864 118.216 L260.411 118.216 L260.411 111.411 Q258.061 115.462 254.456 117.447 Q250.891 119.391 245.868 119.391 Q237.645 119.391 232.459 112.829 Q227.315 106.266 227.315 95.5717 Q227.315 84.8773 232.459 78.3149 Q237.645 71.7524 245.868 71.7524 Q250.891 71.7524 254.456 73.7373 Q258.061 75.6818 260.411 79.7327 M235.011 95.5717 Q235.011 103.795 238.374 108.494 Q241.776 113.153 247.691 113.153 Q253.605 113.153 257.008 108.494 Q260.411 103.795 260.411 95.5717 Q260.411 87.3484 257.008 82.6898 Q253.605 77.9908 247.691 77.9908 Q241.776 77.9908 238.374 82.6898 Q235.011 87.3484 235.011 95.5717 Z" fill="#000000" fill-rule="nonzero" fill-opacity="1" /><path clip-path="url(#clip970)" d="M2011.46 198.898 L2280.54 198.898 L2280.54 95.2176 L2011.46 95.2176  Z" fill="#ffffff" fill-rule="evenodd" fill-opacity="1"/>
<polyline clip-path="url(#clip970)" style="stroke:#000000; stroke-linecap:round; stroke-linejoin:round; stroke-width:4; stroke-opacity:1; fill:none" points="2011.46,198.898 2280.54,198.898 2280.54,95.2176 2011.46,95.2176 2011.46,198.898 "/>
<circle clip-path="url(#clip970)" cx="2107.75" cy="147.058" r="20.48" fill="#808080" fill-rule="evenodd" fill-opacity="1" stroke="#000000" stroke-opacity="1" stroke-width="4.55111"/>
<path clip-path="url(#clip970)" d="M2217.88 166.745 Q2216.07 171.375 2214.36 172.787 Q2212.65 174.199 2209.78 174.199 L2206.38 174.199 L2206.38 170.634 L2208.88 170.634 Q2210.63 170.634 2211.61 169.8 Q2212.58 168.967 2213.76 165.865 L2214.52 163.921 L2204.04 138.412 L2208.55 138.412 L2216.65 158.689 L2224.76 138.412 L2229.27 138.412 L2217.88 166.745 Z" fill="#000000" fill-rule="nonzero" fill-opacity="1" /><path clip-path="url(#clip970)" d="M2236.56 160.402 L2244.2 160.402 L2244.2 134.037 L2235.89 135.703 L2235.89 131.444 L2244.15 129.778 L2248.83 129.778 L2248.83 160.402 L2256.47 160.402 L2256.47 164.338 L2236.56 164.338 L2236.56 160.402 Z" fill="#000000" fill-rule="nonzero" fill-opacity="1" /></svg>
