<?xml version="1.0" encoding="utf-8"?>
<svg xmlns="http://www.w3.org/2000/svg" xmlns:xlink="http://www.w3.org/1999/xlink" width="600" height="400" viewBox="0 0 2400 1600">
<defs>
  <clipPath id="clip200">
    <rect x="0" y="0" width="2400" height="1600"/>
  </clipPath>
</defs>
<path clip-path="url(#clip200)" d="M0 1600 L2400 1600 L2400 0 L0 0  Z" fill="#ffffff" fill-rule="evenodd" fill-opacity="1"/>
<defs>
  <clipPath id="clip201">
    <rect x="480" y="0" width="1681" height="1600"/>
  </clipPath>
</defs>
<path clip-path="url(#clip200)" d="M156.598 1486.45 L2352.76 1486.45 L2352.76 47.2441 L156.598 47.2441  Z" fill="#ffffff" fill-rule="evenodd" fill-opacity="1"/>
<defs>
  <clipPath id="clip202">
    <rect x="156" y="47" width="2197" height="1440"/>
  </clipPath>
</defs>
<polyline clip-path="url(#clip202)" style="stroke:#000000; stroke-linecap:round; stroke-linejoin:round; stroke-width:2; stroke-opacity:0.1; fill:none" points="239.796,1486.45 239.796,47.2441 "/>
<polyline clip-path="url(#clip202)" style="stroke:#000000; stroke-linecap:round; stroke-linejoin:round; stroke-width:2; stroke-opacity:0.1; fill:none" points="670.367,1486.45 670.367,47.2441 "/>
<polyline clip-path="url(#clip202)" style="stroke:#000000; stroke-linecap:round; stroke-linejoin:round; stroke-width:2; stroke-opacity:0.1; fill:none" points="1100.94,1486.45 1100.94,47.2441 "/>
<polyline clip-path="url(#clip202)" style="stroke:#000000; stroke-linecap:round; stroke-linejoin:round; stroke-width:2; stroke-opacity:0.1; fill:none" points="1531.51,1486.45 1531.51,47.2441 "/>
<polyline clip-path="url(#clip202)" style="stroke:#000000; stroke-linecap:round; stroke-linejoin:round; stroke-width:2; stroke-opacity:0.1; fill:none" points="1962.08,1486.45 1962.08,47.2441 "/>
<polyline clip-path="url(#clip200)" style="stroke:#000000; stroke-linecap:round; stroke-linejoin:round; stroke-width:4; stroke-opacity:1; fill:none" points="156.598,1486.45 2352.76,1486.45 "/>
<polyline clip-path="url(#clip200)" style="stroke:#000000; stroke-linecap:round; stroke-linejoin:round; stroke-width:4; stroke-opacity:1; fill:none" points="239.796,1486.45 239.796,1467.55 "/>
<polyline clip-path="url(#clip200)" style="stroke:#000000; stroke-linecap:round; stroke-linejoin:round; stroke-width:4; stroke-opacity:1; fill:none" points="670.367,1486.45 670.367,1467.55 "/>
<polyline clip-path="url(#clip200)" style="stroke:#000000; stroke-linecap:round; stroke-linejoin:round; stroke-width:4; stroke-opacity:1; fill:none" points="1100.94,1486.45 1100.94,1467.55 "/>
<polyline clip-path="url(#clip200)" style="stroke:#000000; stroke-linecap:round; stroke-linejoin:round; stroke-width:4; stroke-opacity:1; fill:none" points="1531.51,1486.45 1531.51,1467.55 "/>
<polyline clip-path="url(#clip200)" style="stroke:#000000; stroke-linecap:round; stroke-linejoin:round; stroke-width:4; stroke-opacity:1; fill:none" points="1962.08,1486.45 1962.08,1467.55 "/>
<path clip-path="url(#clip200)" d="M186.243 1532.02 L215.919 1532.02 L215.919 1535.95 L186.243 1535.95 L186.243 1532.02 Z" fill="#000000" fill-rule="nonzero" fill-opacity="1" /><path clip-path="url(#clip200)" d="M236.012 1517.37 Q232.401 1517.37 230.572 1520.93 Q228.766 1524.47 228.766 1531.6 Q228.766 1538.71 230.572 1542.27 Q232.401 1545.82 236.012 1545.82 Q239.646 1545.82 241.451 1542.27 Q243.28 1538.71 243.28 1531.6 Q243.28 1524.47 241.451 1520.93 Q239.646 1517.37 236.012 1517.37 M236.012 1513.66 Q241.822 1513.66 244.877 1518.27 Q247.956 1522.85 247.956 1531.6 Q247.956 1540.33 244.877 1544.94 Q241.822 1549.52 236.012 1549.52 Q230.201 1549.52 227.123 1544.94 Q224.067 1540.33 224.067 1531.6 Q224.067 1522.85 227.123 1518.27 Q230.201 1513.66 236.012 1513.66 Z" fill="#000000" fill-rule="nonzero" fill-opacity="1" /><path clip-path="url(#clip200)" d="M256.174 1542.97 L261.058 1542.97 L261.058 1548.85 L256.174 1548.85 L256.174 1542.97 Z" fill="#000000" fill-rule="nonzero" fill-opacity="1" /><path clip-path="url(#clip200)" d="M281.822 1529.7 Q278.673 1529.7 276.822 1531.86 Q274.993 1534.01 274.993 1537.76 Q274.993 1541.49 276.822 1543.66 Q278.673 1545.82 281.822 1545.82 Q284.97 1545.82 286.798 1543.66 Q288.65 1541.49 288.65 1537.76 Q288.65 1534.01 286.798 1531.86 Q284.97 1529.7 281.822 1529.7 M291.104 1515.05 L291.104 1519.31 Q289.345 1518.48 287.539 1518.04 Q285.757 1517.6 283.997 1517.6 Q279.368 1517.6 276.914 1520.72 Q274.484 1523.85 274.136 1530.17 Q275.502 1528.15 277.562 1527.09 Q279.622 1526 282.099 1526 Q287.308 1526 290.317 1529.17 Q293.349 1532.32 293.349 1537.76 Q293.349 1543.08 290.201 1546.3 Q287.053 1549.52 281.822 1549.52 Q275.826 1549.52 272.655 1544.94 Q269.484 1540.33 269.484 1531.6 Q269.484 1523.41 273.373 1518.55 Q277.261 1513.66 283.812 1513.66 Q285.572 1513.66 287.354 1514.01 Q289.159 1514.36 291.104 1515.05 Z" fill="#000000" fill-rule="nonzero" fill-opacity="1" /><path clip-path="url(#clip200)" d="M616.652 1532.02 L646.328 1532.02 L646.328 1535.95 L616.652 1535.95 L616.652 1532.02 Z" fill="#000000" fill-rule="nonzero" fill-opacity="1" /><path clip-path="url(#clip200)" d="M666.42 1517.37 Q662.809 1517.37 660.98 1520.93 Q659.175 1524.47 659.175 1531.6 Q659.175 1538.71 660.98 1542.27 Q662.809 1545.82 666.42 1545.82 Q670.054 1545.82 671.86 1542.27 Q673.689 1538.71 673.689 1531.6 Q673.689 1524.47 671.86 1520.93 Q670.054 1517.37 666.42 1517.37 M666.42 1513.66 Q672.23 1513.66 675.286 1518.27 Q678.365 1522.85 678.365 1531.6 Q678.365 1540.33 675.286 1544.94 Q672.23 1549.52 666.42 1549.52 Q660.61 1549.52 657.531 1544.94 Q654.476 1540.33 654.476 1531.6 Q654.476 1522.85 657.531 1518.27 Q660.61 1513.66 666.42 1513.66 Z" fill="#000000" fill-rule="nonzero" fill-opacity="1" /><path clip-path="url(#clip200)" d="M686.582 1542.97 L691.466 1542.97 L691.466 1548.85 L686.582 1548.85 L686.582 1542.97 Z" fill="#000000" fill-rule="nonzero" fill-opacity="1" /><path clip-path="url(#clip200)" d="M714.499 1518.36 L702.693 1536.81 L714.499 1536.81 L714.499 1518.36 M713.272 1514.29 L719.151 1514.29 L719.151 1536.81 L724.082 1536.81 L724.082 1540.7 L719.151 1540.7 L719.151 1548.85 L714.499 1548.85 L714.499 1540.7 L698.897 1540.7 L698.897 1536.19 L713.272 1514.29 Z" fill="#000000" fill-rule="nonzero" fill-opacity="1" /><path clip-path="url(#clip200)" d="M1048.26 1532.02 L1077.94 1532.02 L1077.94 1535.95 L1048.26 1535.95 L1048.26 1532.02 Z" fill="#000000" fill-rule="nonzero" fill-opacity="1" /><path clip-path="url(#clip200)" d="M1098.03 1517.37 Q1094.42 1517.37 1092.59 1520.93 Q1090.79 1524.47 1090.79 1531.6 Q1090.79 1538.71 1092.59 1542.27 Q1094.42 1545.82 1098.03 1545.82 Q1101.67 1545.82 1103.47 1542.27 Q1105.3 1538.71 1105.3 1531.6 Q1105.3 1524.47 1103.47 1520.93 Q1101.67 1517.37 1098.03 1517.37 M1098.03 1513.66 Q1103.84 1513.66 1106.9 1518.27 Q1109.98 1522.85 1109.98 1531.6 Q1109.98 1540.33 1106.9 1544.94 Q1103.84 1549.52 1098.03 1549.52 Q1092.22 1549.52 1089.14 1544.94 Q1086.09 1540.33 1086.09 1531.6 Q1086.09 1522.85 1089.14 1518.27 Q1092.22 1513.66 1098.03 1513.66 Z" fill="#000000" fill-rule="nonzero" fill-opacity="1" /><path clip-path="url(#clip200)" d="M1118.19 1542.97 L1123.08 1542.97 L1123.08 1548.85 L1118.19 1548.85 L1118.19 1542.97 Z" fill="#000000" fill-rule="nonzero" fill-opacity="1" /><path clip-path="url(#clip200)" d="M1137.29 1544.91 L1153.61 1544.91 L1153.61 1548.85 L1131.67 1548.85 L1131.67 1544.91 Q1134.33 1542.16 1138.91 1537.53 Q1143.52 1532.88 1144.7 1531.53 Q1146.94 1529.01 1147.82 1527.27 Q1148.73 1525.51 1148.73 1523.82 Q1148.73 1521.07 1146.78 1519.33 Q1144.86 1517.6 1141.76 1517.6 Q1139.56 1517.6 1137.11 1518.36 Q1134.68 1519.13 1131.9 1520.68 L1131.9 1515.95 Q1134.72 1514.82 1137.18 1514.24 Q1139.63 1513.66 1141.67 1513.66 Q1147.04 1513.66 1150.23 1516.35 Q1153.43 1519.03 1153.43 1523.52 Q1153.43 1525.65 1152.62 1527.57 Q1151.83 1529.47 1149.72 1532.07 Q1149.14 1532.74 1146.04 1535.95 Q1142.94 1539.15 1137.29 1544.91 Z" fill="#000000" fill-rule="nonzero" fill-opacity="1" /><path clip-path="url(#clip200)" d="M1508.89 1517.37 Q1505.28 1517.37 1503.45 1520.93 Q1501.65 1524.47 1501.65 1531.6 Q1501.65 1538.71 1503.45 1542.27 Q1505.28 1545.82 1508.89 1545.82 Q1512.53 1545.82 1514.33 1542.27 Q1516.16 1538.71 1516.16 1531.6 Q1516.16 1524.47 1514.33 1520.93 Q1512.53 1517.37 1508.89 1517.37 M1508.89 1513.66 Q1514.7 1513.66 1517.76 1518.27 Q1520.84 1522.85 1520.84 1531.6 Q1520.84 1540.33 1517.76 1544.94 Q1514.7 1549.52 1508.89 1549.52 Q1503.08 1549.52 1500 1544.94 Q1496.95 1540.33 1496.95 1531.6 Q1496.95 1522.85 1500 1518.27 Q1503.08 1513.66 1508.89 1513.66 Z" fill="#000000" fill-rule="nonzero" fill-opacity="1" /><path clip-path="url(#clip200)" d="M1529.05 1542.97 L1533.94 1542.97 L1533.94 1548.85 L1529.05 1548.85 L1529.05 1542.97 Z" fill="#000000" fill-rule="nonzero" fill-opacity="1" /><path clip-path="url(#clip200)" d="M1554.12 1517.37 Q1550.51 1517.37 1548.68 1520.93 Q1546.88 1524.47 1546.88 1531.6 Q1546.88 1538.71 1548.68 1542.27 Q1550.51 1545.82 1554.12 1545.82 Q1557.76 1545.82 1559.56 1542.27 Q1561.39 1538.71 1561.39 1531.6 Q1561.39 1524.47 1559.56 1520.93 Q1557.76 1517.37 1554.12 1517.37 M1554.12 1513.66 Q1559.93 1513.66 1562.99 1518.27 Q1566.07 1522.85 1566.07 1531.6 Q1566.07 1540.33 1562.99 1544.94 Q1559.93 1549.52 1554.12 1549.52 Q1548.31 1549.52 1545.23 1544.94 Q1542.18 1540.33 1542.18 1531.6 Q1542.18 1522.85 1545.23 1518.27 Q1548.31 1513.66 1554.12 1513.66 Z" fill="#000000" fill-rule="nonzero" fill-opacity="1" /><path clip-path="url(#clip200)" d="M1940.26 1517.37 Q1936.65 1517.37 1934.82 1520.93 Q1933.02 1524.47 1933.02 1531.6 Q1933.02 1538.71 1934.82 1542.27 Q1936.65 1545.82 1940.26 1545.82 Q1943.9 1545.82 1945.7 1542.27 Q1947.53 1538.71 1947.53 1531.6 Q1947.53 1524.47 1945.7 1520.93 Q1943.9 1517.37 1940.26 1517.37 M1940.26 1513.66 Q1946.07 1513.66 1949.13 1518.27 Q1952.21 1522.85 1952.21 1531.6 Q1952.21 1540.33 1949.13 1544.94 Q1946.07 1549.52 1940.26 1549.52 Q1934.45 1549.52 1931.37 1544.94 Q1928.32 1540.33 1928.32 1531.6 Q1928.32 1522.85 1931.37 1518.27 Q1934.45 1513.66 1940.26 1513.66 Z" fill="#000000" fill-rule="nonzero" fill-opacity="1" /><path clip-path="url(#clip200)" d="M1960.42 1542.97 L1965.31 1542.97 L1965.31 1548.85 L1960.42 1548.85 L1960.42 1542.97 Z" fill="#000000" fill-rule="nonzero" fill-opacity="1" /><path clip-path="url(#clip200)" d="M1979.52 1544.91 L1995.84 1544.91 L1995.84 1548.85 L1973.9 1548.85 L1973.9 1544.91 Q1976.56 1542.16 1981.14 1537.53 Q1985.75 1532.88 1986.93 1531.53 Q1989.17 1529.01 1990.05 1527.27 Q1990.96 1525.51 1990.96 1523.82 Q1990.96 1521.07 1989.01 1519.33 Q1987.09 1517.6 1983.99 1517.6 Q1981.79 1517.6 1979.34 1518.36 Q1976.91 1519.13 1974.13 1520.68 L1974.13 1515.95 Q1976.95 1514.82 1979.41 1514.24 Q1981.86 1513.66 1983.9 1513.66 Q1989.27 1513.66 1992.46 1516.35 Q1995.65 1519.03 1995.65 1523.52 Q1995.65 1525.65 1994.84 1527.57 Q1994.06 1529.47 1991.95 1532.07 Q1991.37 1532.74 1988.27 1535.95 Q1985.17 1539.15 1979.52 1544.91 Z" fill="#000000" fill-rule="nonzero" fill-opacity="1" /><polyline clip-path="url(#clip202)" style="stroke:#000000; stroke-linecap:round; stroke-linejoin:round; stroke-width:2; stroke-opacity:0.1; fill:none" points="156.598,1448.3 2352.76,1448.3 "/>
<polyline clip-path="url(#clip202)" style="stroke:#000000; stroke-linecap:round; stroke-linejoin:round; stroke-width:2; stroke-opacity:0.1; fill:none" points="156.598,1240.34 2352.76,1240.34 "/>
<polyline clip-path="url(#clip202)" style="stroke:#000000; stroke-linecap:round; stroke-linejoin:round; stroke-width:2; stroke-opacity:0.1; fill:none" points="156.598,1032.37 2352.76,1032.37 "/>
<polyline clip-path="url(#clip202)" style="stroke:#000000; stroke-linecap:round; stroke-linejoin:round; stroke-width:2; stroke-opacity:0.1; fill:none" points="156.598,824.41 2352.76,824.41 "/>
<polyline clip-path="url(#clip202)" style="stroke:#000000; stroke-linecap:round; stroke-linejoin:round; stroke-width:2; stroke-opacity:0.1; fill:none" points="156.598,616.448 2352.76,616.448 "/>
<polyline clip-path="url(#clip202)" style="stroke:#000000; stroke-linecap:round; stroke-linejoin:round; stroke-width:2; stroke-opacity:0.1; fill:none" points="156.598,408.485 2352.76,408.485 "/>
<polyline clip-path="url(#clip202)" style="stroke:#000000; stroke-linecap:round; stroke-linejoin:round; stroke-width:2; stroke-opacity:0.1; fill:none" points="156.598,200.522 2352.76,200.522 "/>
<polyline clip-path="url(#clip200)" style="stroke:#000000; stroke-linecap:round; stroke-linejoin:round; stroke-width:4; stroke-opacity:1; fill:none" points="156.598,1486.45 156.598,47.2441 "/>
<polyline clip-path="url(#clip200)" style="stroke:#000000; stroke-linecap:round; stroke-linejoin:round; stroke-width:4; stroke-opacity:1; fill:none" points="156.598,1448.3 175.496,1448.3 "/>
<polyline clip-path="url(#clip200)" style="stroke:#000000; stroke-linecap:round; stroke-linejoin:round; stroke-width:4; stroke-opacity:1; fill:none" points="156.598,1240.34 175.496,1240.34 "/>
<polyline clip-path="url(#clip200)" style="stroke:#000000; stroke-linecap:round; stroke-linejoin:round; stroke-width:4; stroke-opacity:1; fill:none" points="156.598,1032.37 175.496,1032.37 "/>
<polyline clip-path="url(#clip200)" style="stroke:#000000; stroke-linecap:round; stroke-linejoin:round; stroke-width:4; stroke-opacity:1; fill:none" points="156.598,824.41 175.496,824.41 "/>
<polyline clip-path="url(#clip200)" style="stroke:#000000; stroke-linecap:round; stroke-linejoin:round; stroke-width:4; stroke-opacity:1; fill:none" points="156.598,616.448 175.496,616.448 "/>
<polyline clip-path="url(#clip200)" style="stroke:#000000; stroke-linecap:round; stroke-linejoin:round; stroke-width:4; stroke-opacity:1; fill:none" points="156.598,408.485 175.496,408.485 "/>
<polyline clip-path="url(#clip200)" style="stroke:#000000; stroke-linecap:round; stroke-linejoin:round; stroke-width:4; stroke-opacity:1; fill:none" points="156.598,200.522 175.496,200.522 "/>
<path clip-path="url(#clip200)" d="M63.4226 1434.1 Q59.8115 1434.1 57.9828 1437.66 Q56.1773 1441.2 56.1773 1448.33 Q56.1773 1455.44 57.9828 1459 Q59.8115 1462.55 63.4226 1462.55 Q67.0569 1462.55 68.8624 1459 Q70.6911 1455.44 70.6911 1448.33 Q70.6911 1441.2 68.8624 1437.66 Q67.0569 1434.1 63.4226 1434.1 M63.4226 1430.39 Q69.2328 1430.39 72.2883 1435 Q75.367 1439.58 75.367 1448.33 Q75.367 1457.06 72.2883 1461.67 Q69.2328 1466.25 63.4226 1466.25 Q57.6125 1466.25 54.5338 1461.67 Q51.4782 1457.06 51.4782 1448.33 Q51.4782 1439.58 54.5338 1435 Q57.6125 1430.39 63.4226 1430.39 Z" fill="#000000" fill-rule="nonzero" fill-opacity="1" /><path clip-path="url(#clip200)" d="M83.5845 1459.7 L88.4688 1459.7 L88.4688 1465.58 L83.5845 1465.58 L83.5845 1459.7 Z" fill="#000000" fill-rule="nonzero" fill-opacity="1" /><path clip-path="url(#clip200)" d="M108.654 1434.1 Q105.043 1434.1 103.214 1437.66 Q101.409 1441.2 101.409 1448.33 Q101.409 1455.44 103.214 1459 Q105.043 1462.55 108.654 1462.55 Q112.288 1462.55 114.094 1459 Q115.922 1455.44 115.922 1448.33 Q115.922 1441.2 114.094 1437.66 Q112.288 1434.1 108.654 1434.1 M108.654 1430.39 Q114.464 1430.39 117.52 1435 Q120.598 1439.58 120.598 1448.33 Q120.598 1457.06 117.52 1461.67 Q114.464 1466.25 108.654 1466.25 Q102.844 1466.25 99.765 1461.67 Q96.7095 1457.06 96.7095 1448.33 Q96.7095 1439.58 99.765 1435 Q102.844 1430.39 108.654 1430.39 Z" fill="#000000" fill-rule="nonzero" fill-opacity="1" /><path clip-path="url(#clip200)" d="M64.6495 1226.13 Q61.0384 1226.13 59.2097 1229.7 Q57.4041 1233.24 57.4041 1240.37 Q57.4041 1247.48 59.2097 1251.04 Q61.0384 1254.58 64.6495 1254.58 Q68.2837 1254.58 70.0892 1251.04 Q71.9179 1247.48 71.9179 1240.37 Q71.9179 1233.24 70.0892 1229.7 Q68.2837 1226.13 64.6495 1226.13 M64.6495 1222.43 Q70.4596 1222.43 73.5152 1227.04 Q76.5938 1231.62 76.5938 1240.37 Q76.5938 1249.1 73.5152 1253.7 Q70.4596 1258.29 64.6495 1258.29 Q58.8393 1258.29 55.7606 1253.7 Q52.7051 1249.1 52.7051 1240.37 Q52.7051 1231.62 55.7606 1227.04 Q58.8393 1222.43 64.6495 1222.43 Z" fill="#000000" fill-rule="nonzero" fill-opacity="1" /><path clip-path="url(#clip200)" d="M84.8114 1251.74 L89.6956 1251.74 L89.6956 1257.62 L84.8114 1257.62 L84.8114 1251.74 Z" fill="#000000" fill-rule="nonzero" fill-opacity="1" /><path clip-path="url(#clip200)" d="M100.691 1253.68 L108.33 1253.68 L108.33 1227.31 L100.02 1228.98 L100.02 1224.72 L108.283 1223.06 L112.959 1223.06 L112.959 1253.68 L120.598 1253.68 L120.598 1257.62 L100.691 1257.62 L100.691 1253.68 Z" fill="#000000" fill-rule="nonzero" fill-opacity="1" /><path clip-path="url(#clip200)" d="M65.0198 1018.17 Q61.4087 1018.17 59.58 1021.74 Q57.7745 1025.28 57.7745 1032.41 Q57.7745 1039.51 59.58 1043.08 Q61.4087 1046.62 65.0198 1046.62 Q68.6541 1046.62 70.4596 1043.08 Q72.2883 1039.51 72.2883 1032.41 Q72.2883 1025.28 70.4596 1021.74 Q68.6541 1018.17 65.0198 1018.17 M65.0198 1014.47 Q70.83 1014.47 73.8855 1019.07 Q76.9642 1023.66 76.9642 1032.41 Q76.9642 1041.13 73.8855 1045.74 Q70.83 1050.32 65.0198 1050.32 Q59.2097 1050.32 56.131 1045.74 Q53.0754 1041.13 53.0754 1032.41 Q53.0754 1023.66 56.131 1019.07 Q59.2097 1014.47 65.0198 1014.47 Z" fill="#000000" fill-rule="nonzero" fill-opacity="1" /><path clip-path="url(#clip200)" d="M85.1818 1043.77 L90.066 1043.77 L90.066 1049.65 L85.1818 1049.65 L85.1818 1043.77 Z" fill="#000000" fill-rule="nonzero" fill-opacity="1" /><path clip-path="url(#clip200)" d="M104.279 1045.72 L120.598 1045.72 L120.598 1049.65 L98.6539 1049.65 L98.6539 1045.72 Q101.316 1042.96 105.899 1038.33 Q110.506 1033.68 111.686 1032.34 Q113.932 1029.81 114.811 1028.08 Q115.714 1026.32 115.714 1024.63 Q115.714 1021.88 113.77 1020.14 Q111.848 1018.4 108.746 1018.4 Q106.547 1018.4 104.094 1019.17 Q101.663 1019.93 98.8854 1021.48 L98.8854 1016.76 Q101.709 1015.63 104.163 1015.05 Q106.617 1014.47 108.654 1014.47 Q114.024 1014.47 117.219 1017.15 Q120.413 1019.84 120.413 1024.33 Q120.413 1026.46 119.603 1028.38 Q118.816 1030.28 116.709 1032.87 Q116.131 1033.54 113.029 1036.76 Q109.927 1039.95 104.279 1045.72 Z" fill="#000000" fill-rule="nonzero" fill-opacity="1" /><path clip-path="url(#clip200)" d="M64.0708 810.209 Q60.4597 810.209 58.631 813.774 Q56.8254 817.315 56.8254 824.445 Q56.8254 831.551 58.631 835.116 Q60.4597 838.658 64.0708 838.658 Q67.705 838.658 69.5105 835.116 Q71.3392 831.551 71.3392 824.445 Q71.3392 817.315 69.5105 813.774 Q67.705 810.209 64.0708 810.209 M64.0708 806.505 Q69.8809 806.505 72.9365 811.112 Q76.0151 815.695 76.0151 824.445 Q76.0151 833.172 72.9365 837.778 Q69.8809 842.361 64.0708 842.361 Q58.2606 842.361 55.1819 837.778 Q52.1264 833.172 52.1264 824.445 Q52.1264 815.695 55.1819 811.112 Q58.2606 806.505 64.0708 806.505 Z" fill="#000000" fill-rule="nonzero" fill-opacity="1" /><path clip-path="url(#clip200)" d="M84.2327 835.811 L89.1169 835.811 L89.1169 841.69 L84.2327 841.69 L84.2327 835.811 Z" fill="#000000" fill-rule="nonzero" fill-opacity="1" /><path clip-path="url(#clip200)" d="M113.469 823.056 Q116.825 823.774 118.7 826.042 Q120.598 828.311 120.598 831.644 Q120.598 836.76 117.08 839.56 Q113.561 842.361 107.08 842.361 Q104.904 842.361 102.589 841.922 Q100.297 841.505 97.8437 840.648 L97.8437 836.135 Q99.7882 837.269 102.103 837.848 Q104.418 838.426 106.941 838.426 Q111.339 838.426 113.631 836.69 Q115.945 834.954 115.945 831.644 Q115.945 828.588 113.793 826.875 Q111.663 825.139 107.844 825.139 L103.816 825.139 L103.816 821.297 L108.029 821.297 Q111.478 821.297 113.307 819.931 Q115.135 818.542 115.135 815.95 Q115.135 813.287 113.237 811.875 Q111.362 810.44 107.844 810.44 Q105.922 810.44 103.723 810.857 Q101.524 811.274 98.8854 812.153 L98.8854 807.987 Q101.547 807.246 103.862 806.875 Q106.2 806.505 108.26 806.505 Q113.584 806.505 116.686 808.936 Q119.788 811.343 119.788 815.463 Q119.788 818.334 118.145 820.324 Q116.501 822.292 113.469 823.056 Z" fill="#000000" fill-rule="nonzero" fill-opacity="1" /><path clip-path="url(#clip200)" d="M62.9365 602.246 Q59.3254 602.246 57.4967 605.811 Q55.6912 609.353 55.6912 616.482 Q55.6912 623.589 57.4967 627.153 Q59.3254 630.695 62.9365 630.695 Q66.5707 630.695 68.3763 627.153 Q70.205 623.589 70.205 616.482 Q70.205 609.353 68.3763 605.811 Q66.5707 602.246 62.9365 602.246 M62.9365 598.543 Q68.7467 598.543 71.8022 603.149 Q74.8809 607.732 74.8809 616.482 Q74.8809 625.209 71.8022 629.816 Q68.7467 634.399 62.9365 634.399 Q57.1264 634.399 54.0477 629.816 Q50.9921 625.209 50.9921 616.482 Q50.9921 607.732 54.0477 603.149 Q57.1264 598.543 62.9365 598.543 Z" fill="#000000" fill-rule="nonzero" fill-opacity="1" /><path clip-path="url(#clip200)" d="M83.0984 627.848 L87.9827 627.848 L87.9827 633.728 L83.0984 633.728 L83.0984 627.848 Z" fill="#000000" fill-rule="nonzero" fill-opacity="1" /><path clip-path="url(#clip200)" d="M111.015 603.242 L99.2095 621.691 L111.015 621.691 L111.015 603.242 M109.788 599.168 L115.668 599.168 L115.668 621.691 L120.598 621.691 L120.598 625.579 L115.668 625.579 L115.668 633.728 L111.015 633.728 L111.015 625.579 L95.4132 625.579 L95.4132 621.066 L109.788 599.168 Z" fill="#000000" fill-rule="nonzero" fill-opacity="1" /><path clip-path="url(#clip200)" d="M64.418 394.284 Q60.8069 394.284 58.9782 397.848 Q57.1726 401.39 57.1726 408.52 Q57.1726 415.626 58.9782 419.191 Q60.8069 422.733 64.418 422.733 Q68.0522 422.733 69.8578 419.191 Q71.6865 415.626 71.6865 408.52 Q71.6865 401.39 69.8578 397.848 Q68.0522 394.284 64.418 394.284 M64.418 390.58 Q70.2281 390.58 73.2837 395.186 Q76.3624 399.77 76.3624 408.52 Q76.3624 417.246 73.2837 421.853 Q70.2281 426.436 64.418 426.436 Q58.6078 426.436 55.5291 421.853 Q52.4736 417.246 52.4736 408.52 Q52.4736 399.77 55.5291 395.186 Q58.6078 390.58 64.418 390.58 Z" fill="#000000" fill-rule="nonzero" fill-opacity="1" /><path clip-path="url(#clip200)" d="M84.5799 419.885 L89.4641 419.885 L89.4641 425.765 L84.5799 425.765 L84.5799 419.885 Z" fill="#000000" fill-rule="nonzero" fill-opacity="1" /><path clip-path="url(#clip200)" d="M99.6956 391.205 L118.052 391.205 L118.052 395.14 L103.978 395.14 L103.978 403.612 Q104.996 403.265 106.015 403.103 Q107.033 402.918 108.052 402.918 Q113.839 402.918 117.219 406.089 Q120.598 409.26 120.598 414.677 Q120.598 420.256 117.126 423.358 Q113.654 426.436 107.334 426.436 Q105.159 426.436 102.89 426.066 Q100.645 425.696 98.2372 424.955 L98.2372 420.256 Q100.321 421.39 102.543 421.946 Q104.765 422.501 107.242 422.501 Q111.246 422.501 113.584 420.395 Q115.922 418.288 115.922 414.677 Q115.922 411.066 113.584 408.959 Q111.246 406.853 107.242 406.853 Q105.367 406.853 103.492 407.27 Q101.64 407.686 99.6956 408.566 L99.6956 391.205 Z" fill="#000000" fill-rule="nonzero" fill-opacity="1" /><path clip-path="url(#clip200)" d="M63.2606 186.321 Q59.6495 186.321 57.8208 189.886 Q56.0152 193.427 56.0152 200.557 Q56.0152 207.664 57.8208 211.228 Q59.6495 214.77 63.2606 214.77 Q66.8948 214.77 68.7004 211.228 Q70.5291 207.664 70.5291 200.557 Q70.5291 193.427 68.7004 189.886 Q66.8948 186.321 63.2606 186.321 M63.2606 182.617 Q69.0707 182.617 72.1263 187.224 Q75.205 191.807 75.205 200.557 Q75.205 209.284 72.1263 213.89 Q69.0707 218.474 63.2606 218.474 Q57.4504 218.474 54.3717 213.89 Q51.3162 209.284 51.3162 200.557 Q51.3162 191.807 54.3717 187.224 Q57.4504 182.617 63.2606 182.617 Z" fill="#000000" fill-rule="nonzero" fill-opacity="1" /><path clip-path="url(#clip200)" d="M83.4225 211.923 L88.3067 211.923 L88.3067 217.802 L83.4225 217.802 L83.4225 211.923 Z" fill="#000000" fill-rule="nonzero" fill-opacity="1" /><path clip-path="url(#clip200)" d="M109.071 198.659 Q105.922 198.659 104.071 200.812 Q102.242 202.964 102.242 206.714 Q102.242 210.441 104.071 212.617 Q105.922 214.77 109.071 214.77 Q112.219 214.77 114.047 212.617 Q115.899 210.441 115.899 206.714 Q115.899 202.964 114.047 200.812 Q112.219 198.659 109.071 198.659 M118.353 184.006 L118.353 188.265 Q116.594 187.432 114.788 186.992 Q113.006 186.553 111.246 186.553 Q106.617 186.553 104.163 189.678 Q101.733 192.803 101.385 199.122 Q102.751 197.108 104.811 196.043 Q106.871 194.955 109.348 194.955 Q114.557 194.955 117.566 198.127 Q120.598 201.275 120.598 206.714 Q120.598 212.039 117.45 215.256 Q114.302 218.474 109.071 218.474 Q103.075 218.474 99.9039 213.89 Q96.7326 209.284 96.7326 200.557 Q96.7326 192.363 100.621 187.502 Q104.51 182.617 111.061 182.617 Q112.82 182.617 114.603 182.965 Q116.408 183.312 118.353 184.006 Z" fill="#000000" fill-rule="nonzero" fill-opacity="1" /><circle clip-path="url(#clip202)" cx="1548.39" cy="1370.33" r="14.4" fill="#808080" fill-rule="evenodd" fill-opacity="1" stroke="#000000" stroke-opacity="1" stroke-width="3.2"/>
<circle clip-path="url(#clip202)" cx="1496.42" cy="1445.72" r="14.4" fill="#808080" fill-rule="evenodd" fill-opacity="1" stroke="#000000" stroke-opacity="1" stroke-width="3.2"/>
<circle clip-path="url(#clip202)" cx="2290.6" cy="1339.15" r="14.4" fill="#808080" fill-rule="evenodd" fill-opacity="1" stroke="#000000" stroke-opacity="1" stroke-width="3.2"/>
<circle clip-path="url(#clip202)" cx="218.754" cy="87.9763" r="14.4" fill="#808080" fill-rule="evenodd" fill-opacity="1" stroke="#000000" stroke-opacity="1" stroke-width="3.2"/>
<path clip-path="url(#clip200)" d="M1552.69 1377.77 Q1543.65 1377.77 1540.17 1379.83 Q1536.69 1381.9 1536.69 1386.88 Q1536.69 1390.85 1539.28 1393.2 Q1541.91 1395.51 1546.41 1395.51 Q1552.61 1395.51 1556.33 1391.13 Q1560.1 1386.72 1560.1 1379.43 L1560.1 1377.77 L1552.69 1377.77 M1567.55 1374.69 L1567.55 1400.57 L1560.1 1400.57 L1560.1 1393.69 Q1557.55 1397.82 1553.74 1399.8 Q1549.93 1401.75 1544.42 1401.75 Q1537.45 1401.75 1533.32 1397.86 Q1529.23 1393.93 1529.23 1387.37 Q1529.23 1379.71 1534.34 1375.82 Q1539.48 1371.93 1549.65 1371.93 L1560.1 1371.93 L1560.1 1371.2 Q1560.1 1366.06 1556.7 1363.26 Q1553.33 1360.43 1547.22 1360.43 Q1543.33 1360.43 1539.64 1361.36 Q1535.96 1362.29 1532.55 1364.16 L1532.55 1357.27 Q1536.64 1355.69 1540.49 1354.92 Q1544.34 1354.11 1547.99 1354.11 Q1557.83 1354.11 1562.69 1359.21 Q1567.55 1364.32 1567.55 1374.69 Z" fill="#000000" fill-rule="nonzero" fill-opacity="1" /><path clip-path="url(#clip200)" d="M1508.98 1453.31 Q1508.98 1445.09 1505.57 1440.43 Q1502.21 1435.73 1496.3 1435.73 Q1490.38 1435.73 1486.98 1440.43 Q1483.62 1445.09 1483.62 1453.31 Q1483.62 1461.53 1486.98 1466.23 Q1490.38 1470.89 1496.3 1470.89 Q1502.21 1470.89 1505.57 1466.23 Q1508.98 1461.53 1508.98 1453.31 M1483.62 1437.47 Q1485.97 1433.42 1489.53 1431.48 Q1493.14 1429.49 1498.12 1429.49 Q1506.38 1429.49 1511.53 1436.05 Q1516.71 1442.62 1516.71 1453.31 Q1516.71 1464.01 1511.53 1470.57 Q1506.38 1477.13 1498.12 1477.13 Q1493.14 1477.13 1489.53 1475.19 Q1485.97 1473.2 1483.62 1469.15 L1483.62 1475.96 L1476.12 1475.96 L1476.12 1412.92 L1483.62 1412.92 L1483.62 1437.47 Z" fill="#000000" fill-rule="nonzero" fill-opacity="1" /><path clip-path="url(#clip200)" d="M2308.55 1325.77 L2308.55 1332.73 Q2305.39 1330.99 2302.19 1330.14 Q2299.03 1329.25 2295.79 1329.25 Q2288.53 1329.25 2284.52 1333.87 Q2280.51 1338.45 2280.51 1346.75 Q2280.51 1355.05 2284.52 1359.67 Q2288.53 1364.25 2295.79 1364.25 Q2299.03 1364.25 2302.19 1363.4 Q2305.39 1362.51 2308.55 1360.77 L2308.55 1367.65 Q2305.43 1369.11 2302.06 1369.84 Q2298.74 1370.57 2294.98 1370.57 Q2284.73 1370.57 2278.69 1364.13 Q2272.65 1357.69 2272.65 1346.75 Q2272.65 1335.65 2278.73 1329.29 Q2284.85 1322.93 2295.46 1322.93 Q2298.9 1322.93 2302.19 1323.66 Q2305.47 1324.35 2308.55 1325.77 Z" fill="#000000" fill-rule="nonzero" fill-opacity="1" /><path clip-path="url(#clip200)" d="M231.575 79.7327 L231.575 55.1842 L239.028 55.1842 L239.028 118.216 L231.575 118.216 L231.575 111.411 Q229.225 115.462 225.62 117.447 Q222.055 119.391 217.032 119.391 Q208.809 119.391 203.624 112.829 Q198.479 106.266 198.479 95.5717 Q198.479 84.8773 203.624 78.3149 Q208.809 71.7524 217.032 71.7524 Q222.055 71.7524 225.62 73.7373 Q229.225 75.6818 231.575 79.7327 M206.176 95.5717 Q206.176 103.795 209.538 108.494 Q212.941 113.153 218.855 113.153 Q224.769 113.153 228.172 108.494 Q231.575 103.795 231.575 95.5717 Q231.575 87.3484 228.172 82.6898 Q224.769 77.9908 218.855 77.9908 Q212.941 77.9908 209.538 82.6898 Q206.176 87.3484 206.176 95.5717 Z" fill="#000000" fill-rule="nonzero" fill-opacity="1" /><path clip-path="url(#clip200)" d="M2007.5 198.898 L2279.55 198.898 L2279.55 95.2176 L2007.5 95.2176  Z" fill="#ffffff" fill-rule="evenodd" fill-opacity="1"/>
<polyline clip-path="url(#clip200)" style="stroke:#000000; stroke-linecap:round; stroke-linejoin:round; stroke-width:4; stroke-opacity:1; fill:none" points="2007.5,198.898 2279.55,198.898 2279.55,95.2176 2007.5,95.2176 2007.5,198.898 "/>
<circle clip-path="url(#clip200)" cx="2105.11" cy="147.058" r="20.48" fill="#808080" fill-rule="evenodd" fill-opacity="1" stroke="#000000" stroke-opacity="1" stroke-width="4.55111"/>
<path clip-path="url(#clip200)" d="M2216.56 166.745 Q2214.76 171.375 2213.04 172.787 Q2211.33 174.199 2208.46 174.199 L2205.06 174.199 L2205.06 170.634 L2207.56 170.634 Q2209.32 170.634 2210.29 169.8 Q2211.26 168.967 2212.44 165.865 L2213.2 163.921 L2202.72 138.412 L2207.23 138.412 L2215.33 158.689 L2223.44 138.412 L2227.95 138.412 L2216.56 166.745 Z" fill="#000000" fill-rule="nonzero" fill-opacity="1" /><path clip-path="url(#clip200)" d="M2235.24 160.402 L2242.88 160.402 L2242.88 134.037 L2234.57 135.703 L2234.57 131.444 L2242.83 129.778 L2247.51 129.778 L2247.51 160.402 L2255.15 160.402 L2255.15 164.338 L2235.24 164.338 L2235.24 160.402 Z" fill="#000000" fill-rule="nonzero" fill-opacity="1" /></svg>
