<?xml version="1.0" encoding="utf-8"?>
<svg xmlns="http://www.w3.org/2000/svg" xmlns:xlink="http://www.w3.org/1999/xlink" width="600" height="400" viewBox="0 0 2400 1600">
<defs>
  <clipPath id="clip260">
    <rect x="0" y="0" width="2400" height="1600"/>
  </clipPath>
</defs>
<path clip-path="url(#clip260)" d="M0 1600 L2400 1600 L2400 0 L0 0  Z" fill="#ffffff" fill-rule="evenodd" fill-opacity="1"/>
<defs>
  <clipPath id="clip261">
    <rect x="480" y="0" width="1681" height="1600"/>
  </clipPath>
</defs>
<path clip-path="url(#clip260)" d="M112.177 1486.45 L2352.76 1486.45 L2352.76 47.2441 L112.177 47.2441  Z" fill="#ffffff" fill-rule="evenodd" fill-opacity="1"/>
<defs>
  <clipPath id="clip262">
    <rect x="112" y="47" width="2242" height="1440"/>
  </clipPath>
</defs>
<polyline clip-path="url(#clip262)" style="stroke:#000000; stroke-linecap:round; stroke-linejoin:round; stroke-width:2; stroke-opacity:0.1; fill:none" points="516.266,1486.45 516.266,47.2441 "/>
<polyline clip-path="url(#clip262)" style="stroke:#000000; stroke-linecap:round; stroke-linejoin:round; stroke-width:2; stroke-opacity:0.1; fill:none" points="1023.39,1486.45 1023.39,47.2441 "/>
<polyline clip-path="url(#clip262)" style="stroke:#000000; stroke-linecap:round; stroke-linejoin:round; stroke-width:2; stroke-opacity:0.1; fill:none" points="1530.52,1486.45 1530.52,47.2441 "/>
<polyline clip-path="url(#clip262)" style="stroke:#000000; stroke-linecap:round; stroke-linejoin:round; stroke-width:2; stroke-opacity:0.1; fill:none" points="2037.64,1486.45 2037.64,47.2441 "/>
<polyline clip-path="url(#clip260)" style="stroke:#000000; stroke-linecap:round; stroke-linejoin:round; stroke-width:4; stroke-opacity:1; fill:none" points="112.177,1486.45 2352.76,1486.45 "/>
<polyline clip-path="url(#clip260)" style="stroke:#000000; stroke-linecap:round; stroke-linejoin:round; stroke-width:4; stroke-opacity:1; fill:none" points="516.266,1486.45 516.266,1467.55 "/>
<polyline clip-path="url(#clip260)" style="stroke:#000000; stroke-linecap:round; stroke-linejoin:round; stroke-width:4; stroke-opacity:1; fill:none" points="1023.39,1486.45 1023.39,1467.55 "/>
<polyline clip-path="url(#clip260)" style="stroke:#000000; stroke-linecap:round; stroke-linejoin:round; stroke-width:4; stroke-opacity:1; fill:none" points="1530.52,1486.45 1530.52,1467.55 "/>
<polyline clip-path="url(#clip260)" style="stroke:#000000; stroke-linecap:round; stroke-linejoin:round; stroke-width:4; stroke-opacity:1; fill:none" points="2037.64,1486.45 2037.64,1467.55 "/>
<path clip-path="url(#clip260)" d="M462.794 1532.02 L492.469 1532.02 L492.469 1535.95 L462.794 1535.95 L462.794 1532.02 Z" fill="#000000" fill-rule="nonzero" fill-opacity="1" /><path clip-path="url(#clip260)" d="M503.372 1544.91 L511.011 1544.91 L511.011 1518.55 L502.701 1520.21 L502.701 1515.95 L510.965 1514.29 L515.641 1514.29 L515.641 1544.91 L523.279 1544.91 L523.279 1548.85 L503.372 1548.85 L503.372 1544.91 Z" fill="#000000" fill-rule="nonzero" fill-opacity="1" /><path clip-path="url(#clip260)" d="M532.724 1542.97 L537.608 1542.97 L537.608 1548.85 L532.724 1548.85 L532.724 1542.97 Z" fill="#000000" fill-rule="nonzero" fill-opacity="1" /><path clip-path="url(#clip260)" d="M557.793 1517.37 Q554.182 1517.37 552.353 1520.93 Q550.548 1524.47 550.548 1531.6 Q550.548 1538.71 552.353 1542.27 Q554.182 1545.82 557.793 1545.82 Q561.427 1545.82 563.233 1542.27 Q565.062 1538.71 565.062 1531.6 Q565.062 1524.47 563.233 1520.93 Q561.427 1517.37 557.793 1517.37 M557.793 1513.66 Q563.603 1513.66 566.659 1518.27 Q569.738 1522.85 569.738 1531.6 Q569.738 1540.33 566.659 1544.94 Q563.603 1549.52 557.793 1549.52 Q551.983 1549.52 548.904 1544.94 Q545.849 1540.33 545.849 1531.6 Q545.849 1522.85 548.904 1518.27 Q551.983 1513.66 557.793 1513.66 Z" fill="#000000" fill-rule="nonzero" fill-opacity="1" /><path clip-path="url(#clip260)" d="M970.417 1532.02 L1000.09 1532.02 L1000.09 1535.95 L970.417 1535.95 L970.417 1532.02 Z" fill="#000000" fill-rule="nonzero" fill-opacity="1" /><path clip-path="url(#clip260)" d="M1020.19 1517.37 Q1016.57 1517.37 1014.75 1520.93 Q1012.94 1524.47 1012.94 1531.6 Q1012.94 1538.71 1014.75 1542.27 Q1016.57 1545.82 1020.19 1545.82 Q1023.82 1545.82 1025.63 1542.27 Q1027.45 1538.71 1027.45 1531.6 Q1027.45 1524.47 1025.63 1520.93 Q1023.82 1517.37 1020.19 1517.37 M1020.19 1513.66 Q1026 1513.66 1029.05 1518.27 Q1032.13 1522.85 1032.13 1531.6 Q1032.13 1540.33 1029.05 1544.94 Q1026 1549.52 1020.19 1549.52 Q1014.38 1549.52 1011.3 1544.94 Q1008.24 1540.33 1008.24 1531.6 Q1008.24 1522.85 1011.3 1518.27 Q1014.38 1513.66 1020.19 1513.66 Z" fill="#000000" fill-rule="nonzero" fill-opacity="1" /><path clip-path="url(#clip260)" d="M1040.35 1542.97 L1045.23 1542.97 L1045.23 1548.85 L1040.35 1548.85 L1040.35 1542.97 Z" fill="#000000" fill-rule="nonzero" fill-opacity="1" /><path clip-path="url(#clip260)" d="M1055.46 1514.29 L1073.82 1514.29 L1073.82 1518.22 L1059.75 1518.22 L1059.75 1526.7 Q1060.76 1526.35 1061.78 1526.19 Q1062.8 1526 1063.82 1526 Q1069.61 1526 1072.99 1529.17 Q1076.37 1532.34 1076.37 1537.76 Q1076.37 1543.34 1072.89 1546.44 Q1069.42 1549.52 1063.1 1549.52 Q1060.93 1549.52 1058.66 1549.15 Q1056.41 1548.78 1054 1548.04 L1054 1543.34 Q1056.09 1544.47 1058.31 1545.03 Q1060.53 1545.58 1063.01 1545.58 Q1067.01 1545.58 1069.35 1543.48 Q1071.69 1541.37 1071.69 1537.76 Q1071.69 1534.15 1069.35 1532.04 Q1067.01 1529.94 1063.01 1529.94 Q1061.13 1529.94 1059.26 1530.35 Q1057.41 1530.77 1055.46 1531.65 L1055.46 1514.29 Z" fill="#000000" fill-rule="nonzero" fill-opacity="1" /><path clip-path="url(#clip260)" d="M1507.9 1517.37 Q1504.29 1517.37 1502.46 1520.93 Q1500.66 1524.47 1500.66 1531.6 Q1500.66 1538.71 1502.46 1542.27 Q1504.29 1545.82 1507.9 1545.82 Q1511.54 1545.82 1513.34 1542.27 Q1515.17 1538.71 1515.17 1531.6 Q1515.17 1524.47 1513.34 1520.93 Q1511.54 1517.37 1507.9 1517.37 M1507.9 1513.66 Q1513.71 1513.66 1516.77 1518.27 Q1519.85 1522.85 1519.85 1531.6 Q1519.85 1540.33 1516.77 1544.94 Q1513.71 1549.52 1507.9 1549.52 Q1502.09 1549.52 1499.01 1544.94 Q1495.96 1540.33 1495.96 1531.6 Q1495.96 1522.85 1499.01 1518.27 Q1502.09 1513.66 1507.9 1513.66 Z" fill="#000000" fill-rule="nonzero" fill-opacity="1" /><path clip-path="url(#clip260)" d="M1528.06 1542.97 L1532.95 1542.97 L1532.95 1548.85 L1528.06 1548.85 L1528.06 1542.97 Z" fill="#000000" fill-rule="nonzero" fill-opacity="1" /><path clip-path="url(#clip260)" d="M1553.13 1517.37 Q1549.52 1517.37 1547.69 1520.93 Q1545.89 1524.47 1545.89 1531.6 Q1545.89 1538.71 1547.69 1542.27 Q1549.52 1545.82 1553.13 1545.82 Q1556.77 1545.82 1558.57 1542.27 Q1560.4 1538.71 1560.4 1531.6 Q1560.4 1524.47 1558.57 1520.93 Q1556.77 1517.37 1553.13 1517.37 M1553.13 1513.66 Q1558.94 1513.66 1562 1518.27 Q1565.08 1522.85 1565.08 1531.6 Q1565.08 1540.33 1562 1544.94 Q1558.94 1549.52 1553.13 1549.52 Q1547.32 1549.52 1544.24 1544.94 Q1541.19 1540.33 1541.19 1531.6 Q1541.19 1522.85 1544.24 1518.27 Q1547.32 1513.66 1553.13 1513.66 Z" fill="#000000" fill-rule="nonzero" fill-opacity="1" /><path clip-path="url(#clip260)" d="M2015.53 1517.37 Q2011.91 1517.37 2010.09 1520.93 Q2008.28 1524.47 2008.28 1531.6 Q2008.28 1538.71 2010.09 1542.27 Q2011.91 1545.82 2015.53 1545.82 Q2019.16 1545.82 2020.97 1542.27 Q2022.79 1538.71 2022.79 1531.6 Q2022.79 1524.47 2020.97 1520.93 Q2019.16 1517.37 2015.53 1517.37 M2015.53 1513.66 Q2021.34 1513.66 2024.39 1518.27 Q2027.47 1522.85 2027.47 1531.6 Q2027.47 1540.33 2024.39 1544.94 Q2021.34 1549.52 2015.53 1549.52 Q2009.72 1549.52 2006.64 1544.94 Q2003.58 1540.33 2003.58 1531.6 Q2003.58 1522.85 2006.64 1518.27 Q2009.72 1513.66 2015.53 1513.66 Z" fill="#000000" fill-rule="nonzero" fill-opacity="1" /><path clip-path="url(#clip260)" d="M2035.69 1542.97 L2040.57 1542.97 L2040.57 1548.85 L2035.69 1548.85 L2035.69 1542.97 Z" fill="#000000" fill-rule="nonzero" fill-opacity="1" /><path clip-path="url(#clip260)" d="M2050.8 1514.29 L2069.16 1514.29 L2069.16 1518.22 L2055.09 1518.22 L2055.09 1526.7 Q2056.1 1526.35 2057.12 1526.19 Q2058.14 1526 2059.16 1526 Q2064.95 1526 2068.33 1529.17 Q2071.71 1532.34 2071.71 1537.76 Q2071.71 1543.34 2068.23 1546.44 Q2064.76 1549.52 2058.44 1549.52 Q2056.27 1549.52 2054 1549.15 Q2051.75 1548.78 2049.34 1548.04 L2049.34 1543.34 Q2051.43 1544.47 2053.65 1545.03 Q2055.87 1545.58 2058.35 1545.58 Q2062.35 1545.58 2064.69 1543.48 Q2067.03 1541.37 2067.03 1537.76 Q2067.03 1534.15 2064.69 1532.04 Q2062.35 1529.94 2058.35 1529.94 Q2056.47 1529.94 2054.6 1530.35 Q2052.75 1530.77 2050.8 1531.65 L2050.8 1514.29 Z" fill="#000000" fill-rule="nonzero" fill-opacity="1" /><polyline clip-path="url(#clip262)" style="stroke:#000000; stroke-linecap:round; stroke-linejoin:round; stroke-width:2; stroke-opacity:0.1; fill:none" points="112.177,1482.1 2352.76,1482.1 "/>
<polyline clip-path="url(#clip262)" style="stroke:#000000; stroke-linecap:round; stroke-linejoin:round; stroke-width:2; stroke-opacity:0.1; fill:none" points="112.177,1087.97 2352.76,1087.97 "/>
<polyline clip-path="url(#clip262)" style="stroke:#000000; stroke-linecap:round; stroke-linejoin:round; stroke-width:2; stroke-opacity:0.1; fill:none" points="112.177,693.839 2352.76,693.839 "/>
<polyline clip-path="url(#clip262)" style="stroke:#000000; stroke-linecap:round; stroke-linejoin:round; stroke-width:2; stroke-opacity:0.1; fill:none" points="112.177,299.707 2352.76,299.707 "/>
<polyline clip-path="url(#clip260)" style="stroke:#000000; stroke-linecap:round; stroke-linejoin:round; stroke-width:4; stroke-opacity:1; fill:none" points="112.177,1486.45 112.177,47.2441 "/>
<polyline clip-path="url(#clip260)" style="stroke:#000000; stroke-linecap:round; stroke-linejoin:round; stroke-width:4; stroke-opacity:1; fill:none" points="112.177,1482.1 131.075,1482.1 "/>
<polyline clip-path="url(#clip260)" style="stroke:#000000; stroke-linecap:round; stroke-linejoin:round; stroke-width:4; stroke-opacity:1; fill:none" points="112.177,1087.97 131.075,1087.97 "/>
<polyline clip-path="url(#clip260)" style="stroke:#000000; stroke-linecap:round; stroke-linejoin:round; stroke-width:4; stroke-opacity:1; fill:none" points="112.177,693.839 131.075,693.839 "/>
<polyline clip-path="url(#clip260)" style="stroke:#000000; stroke-linecap:round; stroke-linejoin:round; stroke-width:4; stroke-opacity:1; fill:none" points="112.177,299.707 131.075,299.707 "/>
<path clip-path="url(#clip260)" d="M64.2328 1467.9 Q60.6217 1467.9 58.793 1471.47 Q56.9875 1475.01 56.9875 1482.14 Q56.9875 1489.24 58.793 1492.81 Q60.6217 1496.35 64.2328 1496.35 Q67.867 1496.35 69.6726 1492.81 Q71.5013 1489.24 71.5013 1482.14 Q71.5013 1475.01 69.6726 1471.47 Q67.867 1467.9 64.2328 1467.9 M64.2328 1464.2 Q70.0429 1464.2 73.0985 1468.8 Q76.1772 1473.39 76.1772 1482.14 Q76.1772 1490.86 73.0985 1495.47 Q70.0429 1500.05 64.2328 1500.05 Q58.4226 1500.05 55.344 1495.47 Q52.2884 1490.86 52.2884 1482.14 Q52.2884 1473.39 55.344 1468.8 Q58.4226 1464.2 64.2328 1464.2 Z" fill="#000000" fill-rule="nonzero" fill-opacity="1" /><path clip-path="url(#clip260)" d="M59.8578 1101.32 L76.1772 1101.32 L76.1772 1105.25 L54.2328 1105.25 L54.2328 1101.32 Q56.8949 1098.56 61.4782 1093.93 Q66.0846 1089.28 67.2652 1087.94 Q69.5105 1085.41 70.3902 1083.68 Q71.2929 1081.92 71.2929 1080.23 Q71.2929 1077.47 69.3485 1075.74 Q67.4272 1074 64.3254 1074 Q62.1263 1074 59.6726 1074.77 Q57.2421 1075.53 54.4643 1077.08 L54.4643 1072.36 Q57.2884 1071.22 59.7421 1070.64 Q62.1958 1070.07 64.2328 1070.07 Q69.6031 1070.07 72.7976 1072.75 Q75.992 1075.44 75.992 1079.93 Q75.992 1082.06 75.1818 1083.98 Q74.3948 1085.88 72.2883 1088.47 Q71.7096 1089.14 68.6078 1092.36 Q65.5059 1095.55 59.8578 1101.32 Z" fill="#000000" fill-rule="nonzero" fill-opacity="1" /><path clip-path="url(#clip260)" d="M66.5939 680.633 L54.7884 699.082 L66.5939 699.082 L66.5939 680.633 M65.367 676.559 L71.2466 676.559 L71.2466 699.082 L76.1772 699.082 L76.1772 702.971 L71.2466 702.971 L71.2466 711.119 L66.5939 711.119 L66.5939 702.971 L50.9921 702.971 L50.9921 698.457 L65.367 676.559 Z" fill="#000000" fill-rule="nonzero" fill-opacity="1" /><path clip-path="url(#clip260)" d="M64.6495 297.843 Q61.5013 297.843 59.6495 299.996 Q57.8208 302.149 57.8208 305.899 Q57.8208 309.626 59.6495 311.802 Q61.5013 313.954 64.6495 313.954 Q67.7976 313.954 69.6263 311.802 Q71.4781 309.626 71.4781 305.899 Q71.4781 302.149 69.6263 299.996 Q67.7976 297.843 64.6495 297.843 M73.9318 283.191 L73.9318 287.45 Q72.1726 286.617 70.367 286.177 Q68.5846 285.737 66.8254 285.737 Q62.1958 285.737 59.7421 288.862 Q57.3115 291.987 56.9643 298.306 Q58.33 296.292 60.3902 295.228 Q62.4504 294.14 64.9272 294.14 Q70.1355 294.14 73.1448 297.311 Q76.1772 300.459 76.1772 305.899 Q76.1772 311.223 73.029 314.441 Q69.8809 317.658 64.6495 317.658 Q58.6541 317.658 55.4828 313.075 Q52.3116 308.468 52.3116 299.742 Q52.3116 291.547 56.2004 286.686 Q60.0893 281.802 66.6402 281.802 Q68.3994 281.802 70.1818 282.149 Q71.9874 282.496 73.9318 283.191 Z" fill="#000000" fill-rule="nonzero" fill-opacity="1" /><circle clip-path="url(#clip262)" cx="2289.34" cy="1328.51" r="14.4" fill="#808080" fill-rule="evenodd" fill-opacity="1" stroke="#000000" stroke-opacity="1" stroke-width="3.2"/>
<circle clip-path="url(#clip262)" cx="175.59" cy="87.9763" r="14.4" fill="#808080" fill-rule="evenodd" fill-opacity="1" stroke="#000000" stroke-opacity="1" stroke-width="3.2"/>
<circle clip-path="url(#clip262)" cx="1503.38" cy="1445.72" r="14.4" fill="#808080" fill-rule="evenodd" fill-opacity="1" stroke="#000000" stroke-opacity="1" stroke-width="3.2"/>
<circle clip-path="url(#clip262)" cx="1416.83" cy="1431.04" r="14.4" fill="#808080" fill-rule="evenodd" fill-opacity="1" stroke="#000000" stroke-opacity="1" stroke-width="3.2"/>
<path clip-path="url(#clip260)" d="M2293.64 1335.95 Q2284.6 1335.95 2281.12 1338.01 Q2277.64 1340.08 2277.64 1345.06 Q2277.64 1349.03 2280.23 1351.38 Q2282.86 1353.69 2287.36 1353.69 Q2293.56 1353.69 2297.28 1349.31 Q2301.05 1344.9 2301.05 1337.61 L2301.05 1335.95 L2293.64 1335.95 M2308.5 1332.87 L2308.5 1358.75 L2301.05 1358.75 L2301.05 1351.87 Q2298.5 1356 2294.69 1357.98 Q2290.88 1359.93 2285.37 1359.93 Q2278.41 1359.93 2274.27 1356.04 Q2270.18 1352.11 2270.18 1345.55 Q2270.18 1337.89 2275.29 1334 Q2280.43 1330.11 2290.6 1330.11 L2301.05 1330.11 L2301.05 1329.38 Q2301.05 1324.24 2297.65 1321.44 Q2294.29 1318.61 2288.17 1318.61 Q2284.28 1318.61 2280.59 1319.54 Q2276.91 1320.47 2273.5 1322.33 L2273.5 1315.45 Q2277.6 1313.87 2281.44 1313.1 Q2285.29 1312.29 2288.94 1312.29 Q2298.78 1312.29 2303.64 1317.39 Q2308.5 1322.5 2308.5 1332.87 Z" fill="#000000" fill-rule="nonzero" fill-opacity="1" /><path clip-path="url(#clip260)" d="M188.148 95.5717 Q188.148 87.3484 184.745 82.6898 Q181.383 77.9908 175.468 77.9908 Q169.554 77.9908 166.151 82.6898 Q162.789 87.3484 162.789 95.5717 Q162.789 103.795 166.151 108.494 Q169.554 113.153 175.468 113.153 Q181.383 113.153 184.745 108.494 Q188.148 103.795 188.148 95.5717 M162.789 79.7327 Q165.138 75.6818 168.703 73.7373 Q172.309 71.7524 177.291 71.7524 Q185.555 71.7524 190.7 78.3149 Q195.885 84.8773 195.885 95.5717 Q195.885 106.266 190.7 112.829 Q185.555 119.391 177.291 119.391 Q172.309 119.391 168.703 117.447 Q165.138 115.462 162.789 111.411 L162.789 118.216 L155.295 118.216 L155.295 55.1842 L162.789 55.1842 L162.789 79.7327 Z" fill="#000000" fill-rule="nonzero" fill-opacity="1" /><path clip-path="url(#clip260)" d="M1521.33 1432.33 L1521.33 1439.3 Q1518.17 1437.55 1514.97 1436.7 Q1511.81 1435.81 1508.57 1435.81 Q1501.32 1435.81 1497.31 1440.43 Q1493.3 1445.01 1493.3 1453.31 Q1493.3 1461.62 1497.31 1466.23 Q1501.32 1470.81 1508.57 1470.81 Q1511.81 1470.81 1514.97 1469.96 Q1518.17 1469.07 1521.33 1467.33 L1521.33 1474.21 Q1518.21 1475.67 1514.85 1476.4 Q1511.53 1477.13 1507.76 1477.13 Q1497.51 1477.13 1491.47 1470.69 Q1485.44 1464.25 1485.44 1453.31 Q1485.44 1442.21 1491.51 1435.85 Q1497.63 1429.49 1508.24 1429.49 Q1511.69 1429.49 1514.97 1430.22 Q1518.25 1430.91 1521.33 1432.33 Z" fill="#000000" fill-rule="nonzero" fill-opacity="1" /><path clip-path="url(#clip260)" d="M1429.65 1422.79 L1429.65 1398.25 L1437.1 1398.25 L1437.1 1461.28 L1429.65 1461.28 L1429.65 1454.47 Q1427.3 1458.52 1423.69 1460.51 Q1420.13 1462.45 1415.1 1462.45 Q1406.88 1462.45 1401.7 1455.89 Q1396.55 1449.33 1396.55 1438.63 Q1396.55 1427.94 1401.7 1421.38 Q1406.88 1414.81 1415.1 1414.81 Q1420.13 1414.81 1423.69 1416.8 Q1427.3 1418.74 1429.65 1422.79 M1404.25 1438.63 Q1404.25 1446.86 1407.61 1451.56 Q1411.01 1456.21 1416.93 1456.21 Q1422.84 1456.21 1426.24 1451.56 Q1429.65 1446.86 1429.65 1438.63 Q1429.65 1430.41 1426.24 1425.75 Q1422.84 1421.05 1416.93 1421.05 Q1411.01 1421.05 1407.61 1425.75 Q1404.25 1430.41 1404.25 1438.63 Z" fill="#000000" fill-rule="nonzero" fill-opacity="1" /><path clip-path="url(#clip260)" d="M2001.58 198.898 L2278.07 198.898 L2278.07 95.2176 L2001.58 95.2176  Z" fill="#ffffff" fill-rule="evenodd" fill-opacity="1"/>
<polyline clip-path="url(#clip260)" style="stroke:#000000; stroke-linecap:round; stroke-linejoin:round; stroke-width:4; stroke-opacity:1; fill:none" points="2001.58,198.898 2278.07,198.898 2278.07,95.2176 2001.58,95.2176 2001.58,198.898 "/>
<circle clip-path="url(#clip260)" cx="2101.16" cy="147.058" r="20.48" fill="#808080" fill-rule="evenodd" fill-opacity="1" stroke="#000000" stroke-opacity="1" stroke-width="4.55111"/>
<path clip-path="url(#clip260)" d="M2214.59 166.745 Q2212.78 171.375 2211.07 172.787 Q2209.36 174.199 2206.49 174.199 L2203.08 174.199 L2203.08 170.634 L2205.58 170.634 Q2207.34 170.634 2208.31 169.8 Q2209.29 168.967 2210.47 165.865 L2211.23 163.921 L2200.74 138.412 L2205.26 138.412 L2213.36 158.689 L2221.46 138.412 L2225.98 138.412 L2214.59 166.745 Z" fill="#000000" fill-rule="nonzero" fill-opacity="1" /><path clip-path="url(#clip260)" d="M2233.27 160.402 L2240.91 160.402 L2240.91 134.037 L2232.6 135.703 L2232.6 131.444 L2240.86 129.778 L2245.54 129.778 L2245.54 160.402 L2253.17 160.402 L2253.17 164.338 L2233.27 164.338 L2233.27 160.402 Z" fill="#000000" fill-rule="nonzero" fill-opacity="1" /></svg>
