<?xml version="1.0" encoding="utf-8"?>
<svg xmlns="http://www.w3.org/2000/svg" xmlns:xlink="http://www.w3.org/1999/xlink" width="600" height="400" viewBox="0 0 2400 1600">
<defs>
  <clipPath id="clip970">
    <rect x="0" y="0" width="2400" height="1600"/>
  </clipPath>
</defs>
<path clip-path="url(#clip970)" d="M0 1600 L2400 1600 L2400 0 L0 0  Z" fill="#ffffff" fill-rule="evenodd" fill-opacity="1"/>
<defs>
  <clipPath id="clip971">
    <rect x="480" y="0" width="1681" height="1600"/>
  </clipPath>
</defs>
<path clip-path="url(#clip970)" d="M156.112 1486.45 L2352.76 1486.45 L2352.76 47.2441 L156.112 47.2441  Z" fill="#ffffff" fill-rule="evenodd" fill-opacity="1"/>
<defs>
  <clipPath id="clip972">
    <rect x="156" y="47" width="2198" height="1440"/>
  </clipPath>
</defs>
<polyline clip-path="url(#clip972)" style="stroke:#000000; stroke-linecap:round; stroke-linejoin:round; stroke-width:2; stroke-opacity:0.1; fill:none" points="379.815,1486.45 379.815,47.2441 "/>
<polyline clip-path="url(#clip972)" style="stroke:#000000; stroke-linecap:round; stroke-linejoin:round; stroke-width:2; stroke-opacity:0.1; fill:none" points="870.736,1486.45 870.736,47.2441 "/>
<polyline clip-path="url(#clip972)" style="stroke:#000000; stroke-linecap:round; stroke-linejoin:round; stroke-width:2; stroke-opacity:0.1; fill:none" points="1361.66,1486.45 1361.66,47.2441 "/>
<polyline clip-path="url(#clip972)" style="stroke:#000000; stroke-linecap:round; stroke-linejoin:round; stroke-width:2; stroke-opacity:0.1; fill:none" points="1852.58,1486.45 1852.58,47.2441 "/>
<polyline clip-path="url(#clip972)" style="stroke:#000000; stroke-linecap:round; stroke-linejoin:round; stroke-width:2; stroke-opacity:0.1; fill:none" points="2343.5,1486.45 2343.5,47.2441 "/>
<polyline clip-path="url(#clip970)" style="stroke:#000000; stroke-linecap:round; stroke-linejoin:round; stroke-width:4; stroke-opacity:1; fill:none" points="156.112,1486.45 2352.76,1486.45 "/>
<polyline clip-path="url(#clip970)" style="stroke:#000000; stroke-linecap:round; stroke-linejoin:round; stroke-width:4; stroke-opacity:1; fill:none" points="379.815,1486.45 379.815,1467.55 "/>
<polyline clip-path="url(#clip970)" style="stroke:#000000; stroke-linecap:round; stroke-linejoin:round; stroke-width:4; stroke-opacity:1; fill:none" points="870.736,1486.45 870.736,1467.55 "/>
<polyline clip-path="url(#clip970)" style="stroke:#000000; stroke-linecap:round; stroke-linejoin:round; stroke-width:4; stroke-opacity:1; fill:none" points="1361.66,1486.45 1361.66,1467.55 "/>
<polyline clip-path="url(#clip970)" style="stroke:#000000; stroke-linecap:round; stroke-linejoin:round; stroke-width:4; stroke-opacity:1; fill:none" points="1852.58,1486.45 1852.58,1467.55 "/>
<polyline clip-path="url(#clip970)" style="stroke:#000000; stroke-linecap:round; stroke-linejoin:round; stroke-width:4; stroke-opacity:1; fill:none" points="2343.5,1486.45 2343.5,1467.55 "/>
<path clip-path="url(#clip970)" d="M326.1 1532.02 L355.775 1532.02 L355.775 1535.95 L326.1 1535.95 L326.1 1532.02 Z" fill="#000000" fill-rule="nonzero" fill-opacity="1" /><path clip-path="url(#clip970)" d="M375.868 1517.37 Q372.257 1517.37 370.428 1520.93 Q368.623 1524.47 368.623 1531.6 Q368.623 1538.71 370.428 1542.27 Q372.257 1545.82 375.868 1545.82 Q379.502 1545.82 381.308 1542.27 Q383.136 1538.71 383.136 1531.6 Q383.136 1524.47 381.308 1520.93 Q379.502 1517.37 375.868 1517.37 M375.868 1513.66 Q381.678 1513.66 384.734 1518.27 Q387.812 1522.85 387.812 1531.6 Q387.812 1540.33 384.734 1544.94 Q381.678 1549.52 375.868 1549.52 Q370.058 1549.52 366.979 1544.94 Q363.924 1540.33 363.924 1531.6 Q363.924 1522.85 366.979 1518.27 Q370.058 1513.66 375.868 1513.66 Z" fill="#000000" fill-rule="nonzero" fill-opacity="1" /><path clip-path="url(#clip970)" d="M396.03 1542.97 L400.914 1542.97 L400.914 1548.85 L396.03 1548.85 L396.03 1542.97 Z" fill="#000000" fill-rule="nonzero" fill-opacity="1" /><path clip-path="url(#clip970)" d="M423.946 1518.36 L412.141 1536.81 L423.946 1536.81 L423.946 1518.36 M422.72 1514.29 L428.599 1514.29 L428.599 1536.81 L433.53 1536.81 L433.53 1540.7 L428.599 1540.7 L428.599 1548.85 L423.946 1548.85 L423.946 1540.7 L408.345 1540.7 L408.345 1536.19 L422.72 1514.29 Z" fill="#000000" fill-rule="nonzero" fill-opacity="1" /><path clip-path="url(#clip970)" d="M818.062 1532.02 L847.738 1532.02 L847.738 1535.95 L818.062 1535.95 L818.062 1532.02 Z" fill="#000000" fill-rule="nonzero" fill-opacity="1" /><path clip-path="url(#clip970)" d="M867.831 1517.37 Q864.219 1517.37 862.391 1520.93 Q860.585 1524.47 860.585 1531.6 Q860.585 1538.71 862.391 1542.27 Q864.219 1545.82 867.831 1545.82 Q871.465 1545.82 873.27 1542.27 Q875.099 1538.71 875.099 1531.6 Q875.099 1524.47 873.27 1520.93 Q871.465 1517.37 867.831 1517.37 M867.831 1513.66 Q873.641 1513.66 876.696 1518.27 Q879.775 1522.85 879.775 1531.6 Q879.775 1540.33 876.696 1544.94 Q873.641 1549.52 867.831 1549.52 Q862.02 1549.52 858.942 1544.94 Q855.886 1540.33 855.886 1531.6 Q855.886 1522.85 858.942 1518.27 Q862.02 1513.66 867.831 1513.66 Z" fill="#000000" fill-rule="nonzero" fill-opacity="1" /><path clip-path="url(#clip970)" d="M887.992 1542.97 L892.877 1542.97 L892.877 1548.85 L887.992 1548.85 L887.992 1542.97 Z" fill="#000000" fill-rule="nonzero" fill-opacity="1" /><path clip-path="url(#clip970)" d="M907.09 1544.91 L923.409 1544.91 L923.409 1548.85 L901.465 1548.85 L901.465 1544.91 Q904.127 1542.16 908.71 1537.53 Q913.316 1532.88 914.497 1531.53 Q916.742 1529.01 917.622 1527.27 Q918.525 1525.51 918.525 1523.82 Q918.525 1521.07 916.58 1519.33 Q914.659 1517.6 911.557 1517.6 Q909.358 1517.6 906.904 1518.36 Q904.474 1519.13 901.696 1520.68 L901.696 1515.95 Q904.52 1514.82 906.974 1514.24 Q909.428 1513.66 911.465 1513.66 Q916.835 1513.66 920.029 1516.35 Q923.224 1519.03 923.224 1523.52 Q923.224 1525.65 922.414 1527.57 Q921.627 1529.47 919.52 1532.07 Q918.941 1532.74 915.84 1535.95 Q912.738 1539.15 907.09 1544.91 Z" fill="#000000" fill-rule="nonzero" fill-opacity="1" /><path clip-path="url(#clip970)" d="M1339.04 1517.37 Q1335.43 1517.37 1333.6 1520.93 Q1331.8 1524.47 1331.8 1531.6 Q1331.8 1538.71 1333.6 1542.27 Q1335.43 1545.82 1339.04 1545.82 Q1342.68 1545.82 1344.48 1542.27 Q1346.31 1538.71 1346.31 1531.6 Q1346.31 1524.47 1344.48 1520.93 Q1342.68 1517.37 1339.04 1517.37 M1339.04 1513.66 Q1344.85 1513.66 1347.91 1518.27 Q1350.99 1522.85 1350.99 1531.6 Q1350.99 1540.33 1347.91 1544.94 Q1344.85 1549.52 1339.04 1549.52 Q1333.23 1549.52 1330.15 1544.94 Q1327.1 1540.33 1327.1 1531.6 Q1327.1 1522.85 1330.15 1518.27 Q1333.23 1513.66 1339.04 1513.66 Z" fill="#000000" fill-rule="nonzero" fill-opacity="1" /><path clip-path="url(#clip970)" d="M1359.2 1542.97 L1364.09 1542.97 L1364.09 1548.85 L1359.2 1548.85 L1359.2 1542.97 Z" fill="#000000" fill-rule="nonzero" fill-opacity="1" /><path clip-path="url(#clip970)" d="M1384.27 1517.37 Q1380.66 1517.37 1378.83 1520.93 Q1377.03 1524.47 1377.03 1531.6 Q1377.03 1538.71 1378.83 1542.27 Q1380.66 1545.82 1384.27 1545.82 Q1387.91 1545.82 1389.71 1542.27 Q1391.54 1538.71 1391.54 1531.6 Q1391.54 1524.47 1389.71 1520.93 Q1387.91 1517.37 1384.27 1517.37 M1384.27 1513.66 Q1390.08 1513.66 1393.14 1518.27 Q1396.22 1522.85 1396.22 1531.6 Q1396.22 1540.33 1393.14 1544.94 Q1390.08 1549.52 1384.27 1549.52 Q1378.46 1549.52 1375.38 1544.94 Q1372.33 1540.33 1372.33 1531.6 Q1372.33 1522.85 1375.38 1518.27 Q1378.46 1513.66 1384.27 1513.66 Z" fill="#000000" fill-rule="nonzero" fill-opacity="1" /><path clip-path="url(#clip970)" d="M1830.76 1517.37 Q1827.15 1517.37 1825.32 1520.93 Q1823.52 1524.47 1823.52 1531.6 Q1823.52 1538.71 1825.32 1542.27 Q1827.15 1545.82 1830.76 1545.82 Q1834.39 1545.82 1836.2 1542.27 Q1838.03 1538.71 1838.03 1531.6 Q1838.03 1524.47 1836.2 1520.93 Q1834.39 1517.37 1830.76 1517.37 M1830.76 1513.66 Q1836.57 1513.66 1839.63 1518.27 Q1842.7 1522.85 1842.7 1531.6 Q1842.7 1540.33 1839.63 1544.94 Q1836.57 1549.52 1830.76 1549.52 Q1824.95 1549.52 1821.87 1544.94 Q1818.82 1540.33 1818.82 1531.6 Q1818.82 1522.85 1821.87 1518.27 Q1824.95 1513.66 1830.76 1513.66 Z" fill="#000000" fill-rule="nonzero" fill-opacity="1" /><path clip-path="url(#clip970)" d="M1850.92 1542.97 L1855.81 1542.97 L1855.81 1548.85 L1850.92 1548.85 L1850.92 1542.97 Z" fill="#000000" fill-rule="nonzero" fill-opacity="1" /><path clip-path="url(#clip970)" d="M1870.02 1544.91 L1886.34 1544.91 L1886.34 1548.85 L1864.39 1548.85 L1864.39 1544.91 Q1867.06 1542.16 1871.64 1537.53 Q1876.25 1532.88 1877.43 1531.53 Q1879.67 1529.01 1880.55 1527.27 Q1881.45 1525.51 1881.45 1523.82 Q1881.45 1521.07 1879.51 1519.33 Q1877.59 1517.6 1874.49 1517.6 Q1872.29 1517.6 1869.83 1518.36 Q1867.4 1519.13 1864.63 1520.68 L1864.63 1515.95 Q1867.45 1514.82 1869.9 1514.24 Q1872.36 1513.66 1874.39 1513.66 Q1879.76 1513.66 1882.96 1516.35 Q1886.15 1519.03 1886.15 1523.52 Q1886.15 1525.65 1885.34 1527.57 Q1884.56 1529.47 1882.45 1532.07 Q1881.87 1532.74 1878.77 1535.95 Q1875.67 1539.15 1870.02 1544.91 Z" fill="#000000" fill-rule="nonzero" fill-opacity="1" /><path clip-path="url(#clip970)" d="M2320.64 1517.37 Q2317.03 1517.37 2315.2 1520.93 Q2313.39 1524.47 2313.39 1531.6 Q2313.39 1538.71 2315.2 1542.27 Q2317.03 1545.82 2320.64 1545.82 Q2324.27 1545.82 2326.08 1542.27 Q2327.91 1538.71 2327.91 1531.6 Q2327.91 1524.47 2326.08 1520.93 Q2324.27 1517.37 2320.64 1517.37 M2320.64 1513.66 Q2326.45 1513.66 2329.51 1518.27 Q2332.58 1522.85 2332.58 1531.6 Q2332.58 1540.33 2329.51 1544.94 Q2326.45 1549.52 2320.64 1549.52 Q2314.83 1549.52 2311.75 1544.94 Q2308.7 1540.33 2308.7 1531.6 Q2308.7 1522.85 2311.75 1518.27 Q2314.83 1513.66 2320.64 1513.66 Z" fill="#000000" fill-rule="nonzero" fill-opacity="1" /><path clip-path="url(#clip970)" d="M2340.8 1542.97 L2345.69 1542.97 L2345.69 1548.85 L2340.8 1548.85 L2340.8 1542.97 Z" fill="#000000" fill-rule="nonzero" fill-opacity="1" /><path clip-path="url(#clip970)" d="M2368.72 1518.36 L2356.91 1536.81 L2368.72 1536.81 L2368.72 1518.36 M2367.49 1514.29 L2373.37 1514.29 L2373.37 1536.81 L2378.3 1536.81 L2378.3 1540.7 L2373.37 1540.7 L2373.37 1548.85 L2368.72 1548.85 L2368.72 1540.7 L2353.12 1540.7 L2353.12 1536.19 L2367.49 1514.29 Z" fill="#000000" fill-rule="nonzero" fill-opacity="1" /><polyline clip-path="url(#clip972)" style="stroke:#000000; stroke-linecap:round; stroke-linejoin:round; stroke-width:2; stroke-opacity:0.1; fill:none" points="156.112,1452.16 2352.76,1452.16 "/>
<polyline clip-path="url(#clip972)" style="stroke:#000000; stroke-linecap:round; stroke-linejoin:round; stroke-width:2; stroke-opacity:0.1; fill:none" points="156.112,1025.78 2352.76,1025.78 "/>
<polyline clip-path="url(#clip972)" style="stroke:#000000; stroke-linecap:round; stroke-linejoin:round; stroke-width:2; stroke-opacity:0.1; fill:none" points="156.112,599.403 2352.76,599.403 "/>
<polyline clip-path="url(#clip972)" style="stroke:#000000; stroke-linecap:round; stroke-linejoin:round; stroke-width:2; stroke-opacity:0.1; fill:none" points="156.112,173.026 2352.76,173.026 "/>
<polyline clip-path="url(#clip970)" style="stroke:#000000; stroke-linecap:round; stroke-linejoin:round; stroke-width:4; stroke-opacity:1; fill:none" points="156.112,1486.45 156.112,47.2441 "/>
<polyline clip-path="url(#clip970)" style="stroke:#000000; stroke-linecap:round; stroke-linejoin:round; stroke-width:4; stroke-opacity:1; fill:none" points="156.112,1452.16 175.01,1452.16 "/>
<polyline clip-path="url(#clip970)" style="stroke:#000000; stroke-linecap:round; stroke-linejoin:round; stroke-width:4; stroke-opacity:1; fill:none" points="156.112,1025.78 175.01,1025.78 "/>
<polyline clip-path="url(#clip970)" style="stroke:#000000; stroke-linecap:round; stroke-linejoin:round; stroke-width:4; stroke-opacity:1; fill:none" points="156.112,599.403 175.01,599.403 "/>
<polyline clip-path="url(#clip970)" style="stroke:#000000; stroke-linecap:round; stroke-linejoin:round; stroke-width:4; stroke-opacity:1; fill:none" points="156.112,173.026 175.01,173.026 "/>
<path clip-path="url(#clip970)" d="M62.9365 1437.95 Q59.3254 1437.95 57.4967 1441.52 Q55.6912 1445.06 55.6912 1452.19 Q55.6912 1459.3 57.4967 1462.86 Q59.3254 1466.4 62.9365 1466.4 Q66.5707 1466.4 68.3763 1462.86 Q70.205 1459.3 70.205 1452.19 Q70.205 1445.06 68.3763 1441.52 Q66.5707 1437.95 62.9365 1437.95 M62.9365 1434.25 Q68.7467 1434.25 71.8022 1438.86 Q74.8809 1443.44 74.8809 1452.19 Q74.8809 1460.92 71.8022 1465.52 Q68.7467 1470.11 62.9365 1470.11 Q57.1264 1470.11 54.0477 1465.52 Q50.9921 1460.92 50.9921 1452.19 Q50.9921 1443.44 54.0477 1438.86 Q57.1264 1434.25 62.9365 1434.25 Z" fill="#000000" fill-rule="nonzero" fill-opacity="1" /><path clip-path="url(#clip970)" d="M83.0984 1463.56 L87.9827 1463.56 L87.9827 1469.44 L83.0984 1469.44 L83.0984 1463.56 Z" fill="#000000" fill-rule="nonzero" fill-opacity="1" /><path clip-path="url(#clip970)" d="M108.168 1437.95 Q104.557 1437.95 102.728 1441.52 Q100.922 1445.06 100.922 1452.19 Q100.922 1459.3 102.728 1462.86 Q104.557 1466.4 108.168 1466.4 Q111.802 1466.4 113.608 1462.86 Q115.436 1459.3 115.436 1452.19 Q115.436 1445.06 113.608 1441.52 Q111.802 1437.95 108.168 1437.95 M108.168 1434.25 Q113.978 1434.25 117.033 1438.86 Q120.112 1443.44 120.112 1452.19 Q120.112 1460.92 117.033 1465.52 Q113.978 1470.11 108.168 1470.11 Q102.358 1470.11 99.2789 1465.52 Q96.2234 1460.92 96.2234 1452.19 Q96.2234 1443.44 99.2789 1438.86 Q102.358 1434.25 108.168 1434.25 Z" fill="#000000" fill-rule="nonzero" fill-opacity="1" /><path clip-path="url(#clip970)" d="M64.1634 1011.58 Q60.5523 1011.58 58.7236 1015.14 Q56.918 1018.68 56.918 1025.81 Q56.918 1032.92 58.7236 1036.48 Q60.5523 1040.03 64.1634 1040.03 Q67.7976 1040.03 69.6031 1036.48 Q71.4318 1032.92 71.4318 1025.81 Q71.4318 1018.68 69.6031 1015.14 Q67.7976 1011.58 64.1634 1011.58 M64.1634 1007.87 Q69.9735 1007.87 73.029 1012.48 Q76.1077 1017.06 76.1077 1025.81 Q76.1077 1034.54 73.029 1039.15 Q69.9735 1043.73 64.1634 1043.73 Q58.3532 1043.73 55.2745 1039.15 Q52.219 1034.54 52.219 1025.81 Q52.219 1017.06 55.2745 1012.48 Q58.3532 1007.87 64.1634 1007.87 Z" fill="#000000" fill-rule="nonzero" fill-opacity="1" /><path clip-path="url(#clip970)" d="M84.3253 1037.18 L89.2095 1037.18 L89.2095 1043.06 L84.3253 1043.06 L84.3253 1037.18 Z" fill="#000000" fill-rule="nonzero" fill-opacity="1" /><path clip-path="url(#clip970)" d="M100.205 1039.12 L107.844 1039.12 L107.844 1012.76 L99.5335 1014.42 L99.5335 1010.17 L107.797 1008.5 L112.473 1008.5 L112.473 1039.12 L120.112 1039.12 L120.112 1043.06 L100.205 1043.06 L100.205 1039.12 Z" fill="#000000" fill-rule="nonzero" fill-opacity="1" /><path clip-path="url(#clip970)" d="M64.5337 585.201 Q60.9226 585.201 59.0939 588.766 Q57.2884 592.308 57.2884 599.437 Q57.2884 606.544 59.0939 610.109 Q60.9226 613.65 64.5337 613.65 Q68.168 613.65 69.9735 610.109 Q71.8022 606.544 71.8022 599.437 Q71.8022 592.308 69.9735 588.766 Q68.168 585.201 64.5337 585.201 M64.5337 581.498 Q70.3439 581.498 73.3994 586.104 Q76.4781 590.687 76.4781 599.437 Q76.4781 608.164 73.3994 612.771 Q70.3439 617.354 64.5337 617.354 Q58.7236 617.354 55.6449 612.771 Q52.5893 608.164 52.5893 599.437 Q52.5893 590.687 55.6449 586.104 Q58.7236 581.498 64.5337 581.498 Z" fill="#000000" fill-rule="nonzero" fill-opacity="1" /><path clip-path="url(#clip970)" d="M84.6956 610.803 L89.5799 610.803 L89.5799 616.683 L84.6956 616.683 L84.6956 610.803 Z" fill="#000000" fill-rule="nonzero" fill-opacity="1" /><path clip-path="url(#clip970)" d="M103.793 612.747 L120.112 612.747 L120.112 616.683 L98.1678 616.683 L98.1678 612.747 Q100.83 609.993 105.413 605.363 Q110.02 600.71 111.2 599.368 Q113.445 596.845 114.325 595.109 Q115.228 593.349 115.228 591.66 Q115.228 588.905 113.283 587.169 Q111.362 585.433 108.26 585.433 Q106.061 585.433 103.608 586.197 Q101.177 586.961 98.3993 588.511 L98.3993 583.789 Q101.223 582.655 103.677 582.076 Q106.131 581.498 108.168 581.498 Q113.538 581.498 116.733 584.183 Q119.927 586.868 119.927 591.359 Q119.927 593.488 119.117 595.41 Q118.33 597.308 116.223 599.9 Q115.645 600.572 112.543 603.789 Q109.441 606.984 103.793 612.747 Z" fill="#000000" fill-rule="nonzero" fill-opacity="1" /><path clip-path="url(#clip970)" d="M63.5847 158.825 Q59.9736 158.825 58.1449 162.39 Q56.3393 165.931 56.3393 173.061 Q56.3393 180.167 58.1449 183.732 Q59.9736 187.274 63.5847 187.274 Q67.2189 187.274 69.0244 183.732 Q70.8531 180.167 70.8531 173.061 Q70.8531 165.931 69.0244 162.39 Q67.2189 158.825 63.5847 158.825 M63.5847 155.121 Q69.3948 155.121 72.4503 159.728 Q75.529 164.311 75.529 173.061 Q75.529 181.788 72.4503 186.394 Q69.3948 190.977 63.5847 190.977 Q57.7745 190.977 54.6958 186.394 Q51.6403 181.788 51.6403 173.061 Q51.6403 164.311 54.6958 159.728 Q57.7745 155.121 63.5847 155.121 Z" fill="#000000" fill-rule="nonzero" fill-opacity="1" /><path clip-path="url(#clip970)" d="M83.7466 184.427 L88.6308 184.427 L88.6308 190.306 L83.7466 190.306 L83.7466 184.427 Z" fill="#000000" fill-rule="nonzero" fill-opacity="1" /><path clip-path="url(#clip970)" d="M112.983 171.672 Q116.339 172.39 118.214 174.658 Q120.112 176.927 120.112 180.26 Q120.112 185.376 116.594 188.176 Q113.075 190.977 106.594 190.977 Q104.418 190.977 102.103 190.538 Q99.8113 190.121 97.3576 189.264 L97.3576 184.751 Q99.3021 185.885 101.617 186.464 Q103.932 187.042 106.455 187.042 Q110.853 187.042 113.145 185.306 Q115.459 183.57 115.459 180.26 Q115.459 177.204 113.307 175.491 Q111.177 173.755 107.358 173.755 L103.33 173.755 L103.33 169.913 L107.543 169.913 Q110.992 169.913 112.82 168.547 Q114.649 167.158 114.649 164.566 Q114.649 161.903 112.751 160.491 Q110.876 159.056 107.358 159.056 Q105.436 159.056 103.237 159.473 Q101.038 159.89 98.3993 160.769 L98.3993 156.603 Q101.061 155.862 103.376 155.491 Q105.714 155.121 107.774 155.121 Q113.098 155.121 116.2 157.552 Q119.302 159.959 119.302 164.079 Q119.302 166.95 117.658 168.94 Q116.015 170.908 112.983 171.672 Z" fill="#000000" fill-rule="nonzero" fill-opacity="1" /><circle clip-path="url(#clip972)" cx="1365.31" cy="1306.6" r="14.4" fill="#808080" fill-rule="evenodd" fill-opacity="1" stroke="#000000" stroke-opacity="1" stroke-width="3.2"/>
<circle clip-path="url(#clip972)" cx="1327.05" cy="1445.72" r="14.4" fill="#808080" fill-rule="evenodd" fill-opacity="1" stroke="#000000" stroke-opacity="1" stroke-width="3.2"/>
<circle clip-path="url(#clip972)" cx="2290.59" cy="1283.23" r="14.4" fill="#808080" fill-rule="evenodd" fill-opacity="1" stroke="#000000" stroke-opacity="1" stroke-width="3.2"/>
<circle clip-path="url(#clip972)" cx="218.281" cy="87.9763" r="14.4" fill="#808080" fill-rule="evenodd" fill-opacity="1" stroke="#000000" stroke-opacity="1" stroke-width="3.2"/>
<path clip-path="url(#clip970)" d="M1369.6 1314.03 Q1360.57 1314.03 1357.09 1316.1 Q1353.6 1318.17 1353.6 1323.15 Q1353.6 1327.12 1356.19 1329.47 Q1358.83 1331.78 1363.32 1331.78 Q1369.52 1331.78 1373.25 1327.4 Q1377.02 1322.99 1377.02 1315.69 L1377.02 1314.03 L1369.6 1314.03 M1384.47 1310.96 L1384.47 1336.84 L1377.02 1336.84 L1377.02 1329.95 Q1374.46 1334.09 1370.66 1336.07 Q1366.85 1338.02 1361.34 1338.02 Q1354.37 1338.02 1350.24 1334.13 Q1346.15 1330.2 1346.15 1323.63 Q1346.15 1315.98 1351.25 1312.09 Q1356.4 1308.2 1366.56 1308.2 L1377.02 1308.2 L1377.02 1307.47 Q1377.02 1302.33 1373.61 1299.53 Q1370.25 1296.7 1364.13 1296.7 Q1360.25 1296.7 1356.56 1297.63 Q1352.87 1298.56 1349.47 1300.42 L1349.47 1293.54 Q1353.56 1291.96 1357.41 1291.19 Q1361.26 1290.38 1364.9 1290.38 Q1374.75 1290.38 1379.61 1295.48 Q1384.47 1300.58 1384.47 1310.96 Z" fill="#000000" fill-rule="nonzero" fill-opacity="1" /><path clip-path="url(#clip970)" d="M1339.61 1453.31 Q1339.61 1445.09 1336.21 1440.43 Q1332.84 1435.73 1326.93 1435.73 Q1321.02 1435.73 1317.61 1440.43 Q1314.25 1445.09 1314.25 1453.31 Q1314.25 1461.53 1317.61 1466.23 Q1321.02 1470.89 1326.93 1470.89 Q1332.84 1470.89 1336.21 1466.23 Q1339.61 1461.53 1339.61 1453.31 M1314.25 1437.47 Q1316.6 1433.42 1320.17 1431.48 Q1323.77 1429.49 1328.75 1429.49 Q1337.02 1429.49 1342.16 1436.05 Q1347.35 1442.62 1347.35 1453.31 Q1347.35 1464.01 1342.16 1470.57 Q1337.02 1477.13 1328.75 1477.13 Q1323.77 1477.13 1320.17 1475.19 Q1316.6 1473.2 1314.25 1469.15 L1314.25 1475.96 L1306.76 1475.96 L1306.76 1412.92 L1314.25 1412.92 L1314.25 1437.47 Z" fill="#000000" fill-rule="nonzero" fill-opacity="1" /><path clip-path="url(#clip970)" d="M2308.53 1269.84 L2308.53 1276.81 Q2305.37 1275.07 2302.17 1274.22 Q2299.01 1273.32 2295.77 1273.32 Q2288.52 1273.32 2284.51 1277.94 Q2280.5 1282.52 2280.5 1290.82 Q2280.5 1299.13 2284.51 1303.75 Q2288.52 1308.32 2295.77 1308.32 Q2299.01 1308.32 2302.17 1307.47 Q2305.37 1306.58 2308.53 1304.84 L2308.53 1311.73 Q2305.41 1313.19 2302.05 1313.91 Q2298.73 1314.64 2294.96 1314.64 Q2284.71 1314.64 2278.68 1308.2 Q2272.64 1301.76 2272.64 1290.82 Q2272.64 1279.72 2278.72 1273.36 Q2284.83 1267 2295.45 1267 Q2298.89 1267 2302.17 1267.73 Q2305.45 1268.42 2308.53 1269.84 Z" fill="#000000" fill-rule="nonzero" fill-opacity="1" /><path clip-path="url(#clip970)" d="M231.102 79.7327 L231.102 55.1842 L238.556 55.1842 L238.556 118.216 L231.102 118.216 L231.102 111.411 Q228.753 115.462 225.148 117.447 Q221.583 119.391 216.56 119.391 Q208.336 119.391 203.151 112.829 Q198.007 106.266 198.007 95.5717 Q198.007 84.8773 203.151 78.3149 Q208.336 71.7524 216.56 71.7524 Q221.583 71.7524 225.148 73.7373 Q228.753 75.6818 231.102 79.7327 M205.703 95.5717 Q205.703 103.795 209.065 108.494 Q212.468 113.153 218.383 113.153 Q224.297 113.153 227.7 108.494 Q231.102 103.795 231.102 95.5717 Q231.102 87.3484 227.7 82.6898 Q224.297 77.9908 218.383 77.9908 Q212.468 77.9908 209.065 82.6898 Q205.703 87.3484 205.703 95.5717 Z" fill="#000000" fill-rule="nonzero" fill-opacity="1" /><path clip-path="url(#clip970)" d="M2007.44 198.898 L2279.53 198.898 L2279.53 95.2176 L2007.44 95.2176  Z" fill="#ffffff" fill-rule="evenodd" fill-opacity="1"/>
<polyline clip-path="url(#clip970)" style="stroke:#000000; stroke-linecap:round; stroke-linejoin:round; stroke-width:4; stroke-opacity:1; fill:none" points="2007.44,198.898 2279.53,198.898 2279.53,95.2176 2007.44,95.2176 2007.44,198.898 "/>
<circle clip-path="url(#clip970)" cx="2105.07" cy="147.058" r="20.48" fill="#808080" fill-rule="evenodd" fill-opacity="1" stroke="#000000" stroke-opacity="1" stroke-width="4.55111"/>
<path clip-path="url(#clip970)" d="M2216.54 166.745 Q2214.73 171.375 2213.02 172.787 Q2211.31 174.199 2208.44 174.199 L2205.03 174.199 L2205.03 170.634 L2207.53 170.634 Q2209.29 170.634 2210.27 169.8 Q2211.24 168.967 2212.42 165.865 L2213.18 163.921 L2202.7 138.412 L2207.21 138.412 L2215.31 158.689 L2223.41 138.412 L2227.93 138.412 L2216.54 166.745 Z" fill="#000000" fill-rule="nonzero" fill-opacity="1" /><path clip-path="url(#clip970)" d="M2235.22 160.402 L2242.86 160.402 L2242.86 134.037 L2234.55 135.703 L2234.55 131.444 L2242.81 129.778 L2247.49 129.778 L2247.49 160.402 L2255.13 160.402 L2255.13 164.338 L2235.22 164.338 L2235.22 160.402 Z" fill="#000000" fill-rule="nonzero" fill-opacity="1" /></svg>
