<?xml version="1.0" encoding="utf-8"?>
<svg xmlns="http://www.w3.org/2000/svg" xmlns:xlink="http://www.w3.org/1999/xlink" width="600" height="400" viewBox="0 0 2400 1600">
<defs>
  <clipPath id="clip630">
    <rect x="0" y="0" width="2400" height="1600"/>
  </clipPath>
</defs>
<path clip-path="url(#clip630)" d="M0 1600 L2400 1600 L2400 0 L0 0  Z" fill="#ffffff" fill-rule="evenodd" fill-opacity="1"/>
<defs>
  <clipPath id="clip631">
    <rect x="480" y="0" width="1681" height="1600"/>
  </clipPath>
</defs>
<path clip-path="url(#clip630)" d="M112.177 1486.45 L2352.76 1486.45 L2352.76 47.2441 L112.177 47.2441  Z" fill="#ffffff" fill-rule="evenodd" fill-opacity="1"/>
<defs>
  <clipPath id="clip632">
    <rect x="112" y="47" width="2242" height="1440"/>
  </clipPath>
</defs>
<polyline clip-path="url(#clip632)" style="stroke:#000000; stroke-linecap:round; stroke-linejoin:round; stroke-width:2; stroke-opacity:0.1; fill:none" points="429.34,1486.45 429.34,47.2441 "/>
<polyline clip-path="url(#clip632)" style="stroke:#000000; stroke-linecap:round; stroke-linejoin:round; stroke-width:2; stroke-opacity:0.1; fill:none" points="990.782,1486.45 990.782,47.2441 "/>
<polyline clip-path="url(#clip632)" style="stroke:#000000; stroke-linecap:round; stroke-linejoin:round; stroke-width:2; stroke-opacity:0.1; fill:none" points="1552.22,1486.45 1552.22,47.2441 "/>
<polyline clip-path="url(#clip632)" style="stroke:#000000; stroke-linecap:round; stroke-linejoin:round; stroke-width:2; stroke-opacity:0.1; fill:none" points="2113.67,1486.45 2113.67,47.2441 "/>
<polyline clip-path="url(#clip630)" style="stroke:#000000; stroke-linecap:round; stroke-linejoin:round; stroke-width:4; stroke-opacity:1; fill:none" points="112.177,1486.45 2352.76,1486.45 "/>
<polyline clip-path="url(#clip630)" style="stroke:#000000; stroke-linecap:round; stroke-linejoin:round; stroke-width:4; stroke-opacity:1; fill:none" points="429.34,1486.45 429.34,1467.55 "/>
<polyline clip-path="url(#clip630)" style="stroke:#000000; stroke-linecap:round; stroke-linejoin:round; stroke-width:4; stroke-opacity:1; fill:none" points="990.782,1486.45 990.782,1467.55 "/>
<polyline clip-path="url(#clip630)" style="stroke:#000000; stroke-linecap:round; stroke-linejoin:round; stroke-width:4; stroke-opacity:1; fill:none" points="1552.22,1486.45 1552.22,1467.55 "/>
<polyline clip-path="url(#clip630)" style="stroke:#000000; stroke-linecap:round; stroke-linejoin:round; stroke-width:4; stroke-opacity:1; fill:none" points="2113.67,1486.45 2113.67,1467.55 "/>
<path clip-path="url(#clip630)" d="M375.868 1532.02 L405.544 1532.02 L405.544 1535.95 L375.868 1535.95 L375.868 1532.02 Z" fill="#000000" fill-rule="nonzero" fill-opacity="1" /><path clip-path="url(#clip630)" d="M416.446 1544.91 L424.085 1544.91 L424.085 1518.55 L415.775 1520.21 L415.775 1515.95 L424.039 1514.29 L428.715 1514.29 L428.715 1544.91 L436.354 1544.91 L436.354 1548.85 L416.446 1548.85 L416.446 1544.91 Z" fill="#000000" fill-rule="nonzero" fill-opacity="1" /><path clip-path="url(#clip630)" d="M445.798 1542.97 L450.682 1542.97 L450.682 1548.85 L445.798 1548.85 L445.798 1542.97 Z" fill="#000000" fill-rule="nonzero" fill-opacity="1" /><path clip-path="url(#clip630)" d="M470.867 1517.37 Q467.256 1517.37 465.428 1520.93 Q463.622 1524.47 463.622 1531.6 Q463.622 1538.71 465.428 1542.27 Q467.256 1545.82 470.867 1545.82 Q474.502 1545.82 476.307 1542.27 Q478.136 1538.71 478.136 1531.6 Q478.136 1524.47 476.307 1520.93 Q474.502 1517.37 470.867 1517.37 M470.867 1513.66 Q476.677 1513.66 479.733 1518.27 Q482.812 1522.85 482.812 1531.6 Q482.812 1540.33 479.733 1544.94 Q476.677 1549.52 470.867 1549.52 Q465.057 1549.52 461.978 1544.94 Q458.923 1540.33 458.923 1531.6 Q458.923 1522.85 461.978 1518.27 Q465.057 1513.66 470.867 1513.66 Z" fill="#000000" fill-rule="nonzero" fill-opacity="1" /><path clip-path="url(#clip630)" d="M937.808 1532.02 L967.484 1532.02 L967.484 1535.95 L937.808 1535.95 L937.808 1532.02 Z" fill="#000000" fill-rule="nonzero" fill-opacity="1" /><path clip-path="url(#clip630)" d="M987.576 1517.37 Q983.965 1517.37 982.136 1520.93 Q980.331 1524.47 980.331 1531.6 Q980.331 1538.71 982.136 1542.27 Q983.965 1545.82 987.576 1545.82 Q991.21 1545.82 993.016 1542.27 Q994.844 1538.71 994.844 1531.6 Q994.844 1524.47 993.016 1520.93 Q991.21 1517.37 987.576 1517.37 M987.576 1513.66 Q993.386 1513.66 996.442 1518.27 Q999.52 1522.85 999.52 1531.6 Q999.52 1540.33 996.442 1544.94 Q993.386 1549.52 987.576 1549.52 Q981.766 1549.52 978.687 1544.94 Q975.632 1540.33 975.632 1531.6 Q975.632 1522.85 978.687 1518.27 Q981.766 1513.66 987.576 1513.66 Z" fill="#000000" fill-rule="nonzero" fill-opacity="1" /><path clip-path="url(#clip630)" d="M1007.74 1542.97 L1012.62 1542.97 L1012.62 1548.85 L1007.74 1548.85 L1007.74 1542.97 Z" fill="#000000" fill-rule="nonzero" fill-opacity="1" /><path clip-path="url(#clip630)" d="M1022.85 1514.29 L1041.21 1514.29 L1041.21 1518.22 L1027.14 1518.22 L1027.14 1526.7 Q1028.15 1526.35 1029.17 1526.19 Q1030.19 1526 1031.21 1526 Q1037 1526 1040.38 1529.17 Q1043.76 1532.34 1043.76 1537.76 Q1043.76 1543.34 1040.28 1546.44 Q1036.81 1549.52 1030.49 1549.52 Q1028.32 1549.52 1026.05 1549.15 Q1023.8 1548.78 1021.4 1548.04 L1021.4 1543.34 Q1023.48 1544.47 1025.7 1545.03 Q1027.92 1545.58 1030.4 1545.58 Q1034.4 1545.58 1036.74 1543.48 Q1039.08 1541.37 1039.08 1537.76 Q1039.08 1534.15 1036.74 1532.04 Q1034.4 1529.94 1030.4 1529.94 Q1028.52 1529.94 1026.65 1530.35 Q1024.8 1530.77 1022.85 1531.65 L1022.85 1514.29 Z" fill="#000000" fill-rule="nonzero" fill-opacity="1" /><path clip-path="url(#clip630)" d="M1529.61 1517.37 Q1526 1517.37 1524.17 1520.93 Q1522.36 1524.47 1522.36 1531.6 Q1522.36 1538.71 1524.17 1542.27 Q1526 1545.82 1529.61 1545.82 Q1533.24 1545.82 1535.05 1542.27 Q1536.88 1538.71 1536.88 1531.6 Q1536.88 1524.47 1535.05 1520.93 Q1533.24 1517.37 1529.61 1517.37 M1529.61 1513.66 Q1535.42 1513.66 1538.47 1518.27 Q1541.55 1522.85 1541.55 1531.6 Q1541.55 1540.33 1538.47 1544.94 Q1535.42 1549.52 1529.61 1549.52 Q1523.8 1549.52 1520.72 1544.94 Q1517.66 1540.33 1517.66 1531.6 Q1517.66 1522.85 1520.72 1518.27 Q1523.8 1513.66 1529.61 1513.66 Z" fill="#000000" fill-rule="nonzero" fill-opacity="1" /><path clip-path="url(#clip630)" d="M1549.77 1542.97 L1554.65 1542.97 L1554.65 1548.85 L1549.77 1548.85 L1549.77 1542.97 Z" fill="#000000" fill-rule="nonzero" fill-opacity="1" /><path clip-path="url(#clip630)" d="M1574.84 1517.37 Q1571.23 1517.37 1569.4 1520.93 Q1567.59 1524.47 1567.59 1531.6 Q1567.59 1538.71 1569.4 1542.27 Q1571.23 1545.82 1574.84 1545.82 Q1578.47 1545.82 1580.28 1542.27 Q1582.11 1538.71 1582.11 1531.6 Q1582.11 1524.47 1580.28 1520.93 Q1578.47 1517.37 1574.84 1517.37 M1574.84 1513.66 Q1580.65 1513.66 1583.71 1518.27 Q1586.78 1522.85 1586.78 1531.6 Q1586.78 1540.33 1583.71 1544.94 Q1580.65 1549.52 1574.84 1549.52 Q1569.03 1549.52 1565.95 1544.94 Q1562.9 1540.33 1562.9 1531.6 Q1562.9 1522.85 1565.95 1518.27 Q1569.03 1513.66 1574.84 1513.66 Z" fill="#000000" fill-rule="nonzero" fill-opacity="1" /><path clip-path="url(#clip630)" d="M2091.55 1517.37 Q2087.94 1517.37 2086.11 1520.93 Q2084.3 1524.47 2084.3 1531.6 Q2084.3 1538.71 2086.11 1542.27 Q2087.94 1545.82 2091.55 1545.82 Q2095.18 1545.82 2096.99 1542.27 Q2098.82 1538.71 2098.82 1531.6 Q2098.82 1524.47 2096.99 1520.93 Q2095.18 1517.37 2091.55 1517.37 M2091.55 1513.66 Q2097.36 1513.66 2100.41 1518.27 Q2103.49 1522.85 2103.49 1531.6 Q2103.49 1540.33 2100.41 1544.94 Q2097.36 1549.52 2091.55 1549.52 Q2085.74 1549.52 2082.66 1544.94 Q2079.6 1540.33 2079.6 1531.6 Q2079.6 1522.85 2082.66 1518.27 Q2085.74 1513.66 2091.55 1513.66 Z" fill="#000000" fill-rule="nonzero" fill-opacity="1" /><path clip-path="url(#clip630)" d="M2111.71 1542.97 L2116.59 1542.97 L2116.59 1548.85 L2111.71 1548.85 L2111.71 1542.97 Z" fill="#000000" fill-rule="nonzero" fill-opacity="1" /><path clip-path="url(#clip630)" d="M2126.83 1514.29 L2145.18 1514.29 L2145.18 1518.22 L2131.11 1518.22 L2131.11 1526.7 Q2132.13 1526.35 2133.15 1526.19 Q2134.16 1526 2135.18 1526 Q2140.97 1526 2144.35 1529.17 Q2147.73 1532.34 2147.73 1537.76 Q2147.73 1543.34 2144.26 1546.44 Q2140.78 1549.52 2134.46 1549.52 Q2132.29 1549.52 2130.02 1549.15 Q2127.78 1548.78 2125.37 1548.04 L2125.37 1543.34 Q2127.45 1544.47 2129.67 1545.03 Q2131.9 1545.58 2134.37 1545.58 Q2138.38 1545.58 2140.71 1543.48 Q2143.05 1541.37 2143.05 1537.76 Q2143.05 1534.15 2140.71 1532.04 Q2138.38 1529.94 2134.37 1529.94 Q2132.5 1529.94 2130.62 1530.35 Q2128.77 1530.77 2126.83 1531.65 L2126.83 1514.29 Z" fill="#000000" fill-rule="nonzero" fill-opacity="1" /><polyline clip-path="url(#clip632)" style="stroke:#000000; stroke-linecap:round; stroke-linejoin:round; stroke-width:2; stroke-opacity:0.1; fill:none" points="112.177,1483.33 2352.76,1483.33 "/>
<polyline clip-path="url(#clip632)" style="stroke:#000000; stroke-linecap:round; stroke-linejoin:round; stroke-width:2; stroke-opacity:0.1; fill:none" points="112.177,1231.23 2352.76,1231.23 "/>
<polyline clip-path="url(#clip632)" style="stroke:#000000; stroke-linecap:round; stroke-linejoin:round; stroke-width:2; stroke-opacity:0.1; fill:none" points="112.177,979.126 2352.76,979.126 "/>
<polyline clip-path="url(#clip632)" style="stroke:#000000; stroke-linecap:round; stroke-linejoin:round; stroke-width:2; stroke-opacity:0.1; fill:none" points="112.177,727.023 2352.76,727.023 "/>
<polyline clip-path="url(#clip632)" style="stroke:#000000; stroke-linecap:round; stroke-linejoin:round; stroke-width:2; stroke-opacity:0.1; fill:none" points="112.177,474.919 2352.76,474.919 "/>
<polyline clip-path="url(#clip632)" style="stroke:#000000; stroke-linecap:round; stroke-linejoin:round; stroke-width:2; stroke-opacity:0.1; fill:none" points="112.177,222.815 2352.76,222.815 "/>
<polyline clip-path="url(#clip630)" style="stroke:#000000; stroke-linecap:round; stroke-linejoin:round; stroke-width:4; stroke-opacity:1; fill:none" points="112.177,1486.45 112.177,47.2441 "/>
<polyline clip-path="url(#clip630)" style="stroke:#000000; stroke-linecap:round; stroke-linejoin:round; stroke-width:4; stroke-opacity:1; fill:none" points="112.177,1483.33 131.075,1483.33 "/>
<polyline clip-path="url(#clip630)" style="stroke:#000000; stroke-linecap:round; stroke-linejoin:round; stroke-width:4; stroke-opacity:1; fill:none" points="112.177,1231.23 131.075,1231.23 "/>
<polyline clip-path="url(#clip630)" style="stroke:#000000; stroke-linecap:round; stroke-linejoin:round; stroke-width:4; stroke-opacity:1; fill:none" points="112.177,979.126 131.075,979.126 "/>
<polyline clip-path="url(#clip630)" style="stroke:#000000; stroke-linecap:round; stroke-linejoin:round; stroke-width:4; stroke-opacity:1; fill:none" points="112.177,727.023 131.075,727.023 "/>
<polyline clip-path="url(#clip630)" style="stroke:#000000; stroke-linecap:round; stroke-linejoin:round; stroke-width:4; stroke-opacity:1; fill:none" points="112.177,474.919 131.075,474.919 "/>
<polyline clip-path="url(#clip630)" style="stroke:#000000; stroke-linecap:round; stroke-linejoin:round; stroke-width:4; stroke-opacity:1; fill:none" points="112.177,222.815 131.075,222.815 "/>
<path clip-path="url(#clip630)" d="M64.2328 1469.13 Q60.6217 1469.13 58.793 1472.7 Q56.9875 1476.24 56.9875 1483.37 Q56.9875 1490.48 58.793 1494.04 Q60.6217 1497.58 64.2328 1497.58 Q67.867 1497.58 69.6726 1494.04 Q71.5013 1490.48 71.5013 1483.37 Q71.5013 1476.24 69.6726 1472.7 Q67.867 1469.13 64.2328 1469.13 M64.2328 1465.43 Q70.0429 1465.43 73.0985 1470.04 Q76.1772 1474.62 76.1772 1483.37 Q76.1772 1492.1 73.0985 1496.7 Q70.0429 1501.29 64.2328 1501.29 Q58.4226 1501.29 55.344 1496.7 Q52.2884 1492.1 52.2884 1483.37 Q52.2884 1474.62 55.344 1470.04 Q58.4226 1465.43 64.2328 1465.43 Z" fill="#000000" fill-rule="nonzero" fill-opacity="1" /><path clip-path="url(#clip630)" d="M56.2699 1244.58 L63.9087 1244.58 L63.9087 1218.21 L55.5986 1219.88 L55.5986 1215.62 L63.8624 1213.95 L68.5383 1213.95 L68.5383 1244.58 L76.1772 1244.58 L76.1772 1248.51 L56.2699 1248.51 L56.2699 1244.58 Z" fill="#000000" fill-rule="nonzero" fill-opacity="1" /><path clip-path="url(#clip630)" d="M59.8578 992.471 L76.1772 992.471 L76.1772 996.406 L54.2328 996.406 L54.2328 992.471 Q56.8949 989.717 61.4782 985.087 Q66.0846 980.434 67.2652 979.092 Q69.5105 976.569 70.3902 974.832 Q71.2929 973.073 71.2929 971.383 Q71.2929 968.629 69.3485 966.893 Q67.4272 965.157 64.3254 965.157 Q62.1263 965.157 59.6726 965.92 Q57.2421 966.684 54.4643 968.235 L54.4643 963.513 Q57.2884 962.379 59.7421 961.8 Q62.1958 961.221 64.2328 961.221 Q69.6031 961.221 72.7976 963.907 Q75.992 966.592 75.992 971.082 Q75.992 973.212 75.1818 975.133 Q74.3948 977.032 72.2883 979.624 Q71.7096 980.295 68.6078 983.513 Q65.5059 986.707 59.8578 992.471 Z" fill="#000000" fill-rule="nonzero" fill-opacity="1" /><path clip-path="url(#clip630)" d="M69.0476 725.668 Q72.404 726.386 74.279 728.655 Q76.1772 730.923 76.1772 734.256 Q76.1772 739.372 72.6587 742.173 Q69.1402 744.974 62.6587 744.974 Q60.4828 744.974 58.168 744.534 Q55.8764 744.117 53.4227 743.261 L53.4227 738.747 Q55.3671 739.881 57.6819 740.46 Q59.9967 741.039 62.5198 741.039 Q66.918 741.039 69.2096 739.303 Q71.5244 737.567 71.5244 734.256 Q71.5244 731.201 69.3717 729.488 Q67.242 727.752 63.4226 727.752 L59.3949 727.752 L59.3949 723.909 L63.6078 723.909 Q67.0569 723.909 68.8855 722.544 Q70.7142 721.155 70.7142 718.562 Q70.7142 715.9 68.8161 714.488 Q66.9411 713.053 63.4226 713.053 Q61.5013 713.053 59.3023 713.469 Q57.1032 713.886 54.4643 714.766 L54.4643 710.599 Q57.1264 709.858 59.4412 709.488 Q61.7791 709.118 63.8393 709.118 Q69.1633 709.118 72.2652 711.548 Q75.367 713.956 75.367 718.076 Q75.367 720.946 73.7235 722.937 Q72.08 724.905 69.0476 725.668 Z" fill="#000000" fill-rule="nonzero" fill-opacity="1" /><path clip-path="url(#clip630)" d="M66.5939 461.713 L54.7884 480.162 L66.5939 480.162 L66.5939 461.713 M65.367 457.639 L71.2466 457.639 L71.2466 480.162 L76.1772 480.162 L76.1772 484.051 L71.2466 484.051 L71.2466 492.199 L66.5939 492.199 L66.5939 484.051 L50.9921 484.051 L50.9921 479.537 L65.367 457.639 Z" fill="#000000" fill-rule="nonzero" fill-opacity="1" /><path clip-path="url(#clip630)" d="M55.2745 205.535 L73.6309 205.535 L73.6309 209.47 L59.5569 209.47 L59.5569 217.942 Q60.5754 217.595 61.5939 217.433 Q62.6124 217.248 63.6309 217.248 Q69.418 217.248 72.7976 220.419 Q76.1772 223.591 76.1772 229.007 Q76.1772 234.586 72.705 237.688 Q69.2328 240.766 62.9134 240.766 Q60.7374 240.766 58.4689 240.396 Q56.2236 240.026 53.8162 239.285 L53.8162 234.586 Q55.8995 235.72 58.1217 236.276 Q60.3439 236.831 62.8208 236.831 Q66.8254 236.831 69.1633 234.725 Q71.5013 232.618 71.5013 229.007 Q71.5013 225.396 69.1633 223.29 Q66.8254 221.183 62.8208 221.183 Q60.9458 221.183 59.0708 221.6 Q57.2189 222.017 55.2745 222.896 L55.2745 205.535 Z" fill="#000000" fill-rule="nonzero" fill-opacity="1" /><circle clip-path="url(#clip632)" cx="2289.34" cy="1304.04" r="14.4" fill="#808080" fill-rule="evenodd" fill-opacity="1" stroke="#000000" stroke-opacity="1" stroke-width="3.2"/>
<circle clip-path="url(#clip632)" cx="175.59" cy="87.9763" r="14.4" fill="#808080" fill-rule="evenodd" fill-opacity="1" stroke="#000000" stroke-opacity="1" stroke-width="3.2"/>
<circle clip-path="url(#clip632)" cx="1501.75" cy="1445.72" r="14.4" fill="#808080" fill-rule="evenodd" fill-opacity="1" stroke="#000000" stroke-opacity="1" stroke-width="3.2"/>
<circle clip-path="url(#clip632)" cx="1508.71" cy="1432.2" r="14.4" fill="#808080" fill-rule="evenodd" fill-opacity="1" stroke="#000000" stroke-opacity="1" stroke-width="3.2"/>
<path clip-path="url(#clip630)" d="M2293.64 1311.48 Q2284.6 1311.48 2281.12 1313.54 Q2277.64 1315.61 2277.64 1320.59 Q2277.64 1324.56 2280.23 1326.91 Q2282.86 1329.22 2287.36 1329.22 Q2293.56 1329.22 2297.28 1324.84 Q2301.05 1320.43 2301.05 1313.14 L2301.05 1311.48 L2293.64 1311.48 M2308.5 1308.4 L2308.5 1334.28 L2301.05 1334.28 L2301.05 1327.4 Q2298.5 1331.53 2294.69 1333.51 Q2290.88 1335.46 2285.37 1335.46 Q2278.41 1335.46 2274.27 1331.57 Q2270.18 1327.64 2270.18 1321.08 Q2270.18 1313.42 2275.29 1309.53 Q2280.43 1305.64 2290.6 1305.64 L2301.05 1305.64 L2301.05 1304.91 Q2301.05 1299.77 2297.65 1296.97 Q2294.29 1294.14 2288.17 1294.14 Q2284.28 1294.14 2280.59 1295.07 Q2276.91 1296 2273.5 1297.86 L2273.5 1290.98 Q2277.6 1289.4 2281.44 1288.63 Q2285.29 1287.82 2288.94 1287.82 Q2298.78 1287.82 2303.64 1292.92 Q2308.5 1298.03 2308.5 1308.4 Z" fill="#000000" fill-rule="nonzero" fill-opacity="1" /><path clip-path="url(#clip630)" d="M188.148 95.5717 Q188.148 87.3484 184.745 82.6898 Q181.383 77.9908 175.468 77.9908 Q169.554 77.9908 166.151 82.6898 Q162.789 87.3484 162.789 95.5717 Q162.789 103.795 166.151 108.494 Q169.554 113.153 175.468 113.153 Q181.383 113.153 184.745 108.494 Q188.148 103.795 188.148 95.5717 M162.789 79.7327 Q165.138 75.6818 168.703 73.7373 Q172.309 71.7524 177.291 71.7524 Q185.555 71.7524 190.7 78.3149 Q195.885 84.8773 195.885 95.5717 Q195.885 106.266 190.7 112.829 Q185.555 119.391 177.291 119.391 Q172.309 119.391 168.703 117.447 Q165.138 115.462 162.789 111.411 L162.789 118.216 L155.295 118.216 L155.295 55.1842 L162.789 55.1842 L162.789 79.7327 Z" fill="#000000" fill-rule="nonzero" fill-opacity="1" /><path clip-path="url(#clip630)" d="M1519.7 1432.33 L1519.7 1439.3 Q1516.54 1437.55 1513.34 1436.7 Q1510.18 1435.81 1506.94 1435.81 Q1499.68 1435.81 1495.67 1440.43 Q1491.66 1445.01 1491.66 1453.31 Q1491.66 1461.62 1495.67 1466.23 Q1499.68 1470.81 1506.94 1470.81 Q1510.18 1470.81 1513.34 1469.96 Q1516.54 1469.07 1519.7 1467.33 L1519.7 1474.21 Q1516.58 1475.67 1513.21 1476.4 Q1509.89 1477.13 1506.13 1477.13 Q1495.88 1477.13 1489.84 1470.69 Q1483.8 1464.25 1483.8 1453.31 Q1483.8 1442.21 1489.88 1435.85 Q1496 1429.49 1506.61 1429.49 Q1510.05 1429.49 1513.34 1430.22 Q1516.62 1430.91 1519.7 1432.33 Z" fill="#000000" fill-rule="nonzero" fill-opacity="1" /><path clip-path="url(#clip630)" d="M1521.53 1423.95 L1521.53 1399.41 L1528.98 1399.41 L1528.98 1462.44 L1521.53 1462.44 L1521.53 1455.63 Q1519.18 1459.68 1515.58 1461.67 Q1512.01 1463.61 1506.99 1463.61 Q1498.77 1463.61 1493.58 1457.05 Q1488.44 1450.49 1488.44 1439.79 Q1488.44 1429.1 1493.58 1422.54 Q1498.77 1415.97 1506.99 1415.97 Q1512.01 1415.97 1515.58 1417.96 Q1519.18 1419.9 1521.53 1423.95 M1496.13 1439.79 Q1496.13 1448.02 1499.49 1452.72 Q1502.9 1457.37 1508.81 1457.37 Q1514.73 1457.37 1518.13 1452.72 Q1521.53 1448.02 1521.53 1439.79 Q1521.53 1431.57 1518.13 1426.91 Q1514.73 1422.21 1508.81 1422.21 Q1502.9 1422.21 1499.49 1426.91 Q1496.13 1431.57 1496.13 1439.79 Z" fill="#000000" fill-rule="nonzero" fill-opacity="1" /><path clip-path="url(#clip630)" d="M2001.58 198.898 L2278.07 198.898 L2278.07 95.2176 L2001.58 95.2176  Z" fill="#ffffff" fill-rule="evenodd" fill-opacity="1"/>
<polyline clip-path="url(#clip630)" style="stroke:#000000; stroke-linecap:round; stroke-linejoin:round; stroke-width:4; stroke-opacity:1; fill:none" points="2001.58,198.898 2278.07,198.898 2278.07,95.2176 2001.58,95.2176 2001.58,198.898 "/>
<circle clip-path="url(#clip630)" cx="2101.16" cy="147.058" r="20.48" fill="#808080" fill-rule="evenodd" fill-opacity="1" stroke="#000000" stroke-opacity="1" stroke-width="4.55111"/>
<path clip-path="url(#clip630)" d="M2214.59 166.745 Q2212.78 171.375 2211.07 172.787 Q2209.36 174.199 2206.49 174.199 L2203.08 174.199 L2203.08 170.634 L2205.58 170.634 Q2207.34 170.634 2208.31 169.8 Q2209.29 168.967 2210.47 165.865 L2211.23 163.921 L2200.74 138.412 L2205.26 138.412 L2213.36 158.689 L2221.46 138.412 L2225.98 138.412 L2214.59 166.745 Z" fill="#000000" fill-rule="nonzero" fill-opacity="1" /><path clip-path="url(#clip630)" d="M2233.27 160.402 L2240.91 160.402 L2240.91 134.037 L2232.6 135.703 L2232.6 131.444 L2240.86 129.778 L2245.54 129.778 L2245.54 160.402 L2253.17 160.402 L2253.17 164.338 L2233.27 164.338 L2233.27 160.402 Z" fill="#000000" fill-rule="nonzero" fill-opacity="1" /></svg>
