<?xml version="1.0" encoding="utf-8"?>
<svg xmlns="http://www.w3.org/2000/svg" xmlns:xlink="http://www.w3.org/1999/xlink" width="600" height="400" viewBox="0 0 2400 1600">
<defs>
  <clipPath id="clip030">
    <rect x="0" y="0" width="2400" height="1600"/>
  </clipPath>
</defs>
<path clip-path="url(#clip030)" d="M0 1600 L2400 1600 L2400 0 L0 0  Z" fill="#ffffff" fill-rule="evenodd" fill-opacity="1"/>
<defs>
  <clipPath id="clip031">
    <rect x="480" y="0" width="1681" height="1600"/>
  </clipPath>
</defs>
<path clip-path="url(#clip030)" d="M112.177 1486.45 L2352.76 1486.45 L2352.76 47.2441 L112.177 47.2441  Z" fill="#ffffff" fill-rule="evenodd" fill-opacity="1"/>
<defs>
  <clipPath id="clip032">
    <rect x="112" y="47" width="2242" height="1440"/>
  </clipPath>
</defs>
<polyline clip-path="url(#clip032)" style="stroke:#000000; stroke-linecap:round; stroke-linejoin:round; stroke-width:2; stroke-opacity:0.1; fill:none" points="257.728,1486.45 257.728,47.2441 "/>
<polyline clip-path="url(#clip032)" style="stroke:#000000; stroke-linecap:round; stroke-linejoin:round; stroke-width:2; stroke-opacity:0.1; fill:none" points="720.566,1486.45 720.566,47.2441 "/>
<polyline clip-path="url(#clip032)" style="stroke:#000000; stroke-linecap:round; stroke-linejoin:round; stroke-width:2; stroke-opacity:0.1; fill:none" points="1183.4,1486.45 1183.4,47.2441 "/>
<polyline clip-path="url(#clip032)" style="stroke:#000000; stroke-linecap:round; stroke-linejoin:round; stroke-width:2; stroke-opacity:0.1; fill:none" points="1646.24,1486.45 1646.24,47.2441 "/>
<polyline clip-path="url(#clip032)" style="stroke:#000000; stroke-linecap:round; stroke-linejoin:round; stroke-width:2; stroke-opacity:0.1; fill:none" points="2109.08,1486.45 2109.08,47.2441 "/>
<polyline clip-path="url(#clip030)" style="stroke:#000000; stroke-linecap:round; stroke-linejoin:round; stroke-width:4; stroke-opacity:1; fill:none" points="112.177,1486.45 2352.76,1486.45 "/>
<polyline clip-path="url(#clip030)" style="stroke:#000000; stroke-linecap:round; stroke-linejoin:round; stroke-width:4; stroke-opacity:1; fill:none" points="257.728,1486.45 257.728,1467.55 "/>
<polyline clip-path="url(#clip030)" style="stroke:#000000; stroke-linecap:round; stroke-linejoin:round; stroke-width:4; stroke-opacity:1; fill:none" points="720.566,1486.45 720.566,1467.55 "/>
<polyline clip-path="url(#clip030)" style="stroke:#000000; stroke-linecap:round; stroke-linejoin:round; stroke-width:4; stroke-opacity:1; fill:none" points="1183.4,1486.45 1183.4,1467.55 "/>
<polyline clip-path="url(#clip030)" style="stroke:#000000; stroke-linecap:round; stroke-linejoin:round; stroke-width:4; stroke-opacity:1; fill:none" points="1646.24,1486.45 1646.24,1467.55 "/>
<polyline clip-path="url(#clip030)" style="stroke:#000000; stroke-linecap:round; stroke-linejoin:round; stroke-width:4; stroke-opacity:1; fill:none" points="2109.08,1486.45 2109.08,1467.55 "/>
<path clip-path="url(#clip030)" d="M204.753 1532.02 L234.429 1532.02 L234.429 1535.95 L204.753 1535.95 L204.753 1532.02 Z" fill="#000000" fill-rule="nonzero" fill-opacity="1" /><path clip-path="url(#clip030)" d="M245.332 1544.91 L252.971 1544.91 L252.971 1518.55 L244.661 1520.21 L244.661 1515.95 L252.925 1514.29 L257.6 1514.29 L257.6 1544.91 L265.239 1544.91 L265.239 1548.85 L245.332 1548.85 L245.332 1544.91 Z" fill="#000000" fill-rule="nonzero" fill-opacity="1" /><path clip-path="url(#clip030)" d="M274.684 1542.97 L279.568 1542.97 L279.568 1548.85 L274.684 1548.85 L274.684 1542.97 Z" fill="#000000" fill-rule="nonzero" fill-opacity="1" /><path clip-path="url(#clip030)" d="M289.799 1514.29 L308.156 1514.29 L308.156 1518.22 L294.082 1518.22 L294.082 1526.7 Q295.1 1526.35 296.119 1526.19 Q297.137 1526 298.156 1526 Q303.943 1526 307.322 1529.17 Q310.702 1532.34 310.702 1537.76 Q310.702 1543.34 307.23 1546.44 Q303.758 1549.52 297.438 1549.52 Q295.262 1549.52 292.994 1549.15 Q290.748 1548.78 288.341 1548.04 L288.341 1543.34 Q290.424 1544.47 292.647 1545.03 Q294.869 1545.58 297.346 1545.58 Q301.35 1545.58 303.688 1543.48 Q306.026 1541.37 306.026 1537.76 Q306.026 1534.15 303.688 1532.04 Q301.35 1529.94 297.346 1529.94 Q295.471 1529.94 293.596 1530.35 Q291.744 1530.77 289.799 1531.65 L289.799 1514.29 Z" fill="#000000" fill-rule="nonzero" fill-opacity="1" /><path clip-path="url(#clip030)" d="M667.094 1532.02 L696.769 1532.02 L696.769 1535.95 L667.094 1535.95 L667.094 1532.02 Z" fill="#000000" fill-rule="nonzero" fill-opacity="1" /><path clip-path="url(#clip030)" d="M707.672 1544.91 L715.311 1544.91 L715.311 1518.55 L707.001 1520.21 L707.001 1515.95 L715.265 1514.29 L719.941 1514.29 L719.941 1544.91 L727.579 1544.91 L727.579 1548.85 L707.672 1548.85 L707.672 1544.91 Z" fill="#000000" fill-rule="nonzero" fill-opacity="1" /><path clip-path="url(#clip030)" d="M737.024 1542.97 L741.908 1542.97 L741.908 1548.85 L737.024 1548.85 L737.024 1542.97 Z" fill="#000000" fill-rule="nonzero" fill-opacity="1" /><path clip-path="url(#clip030)" d="M762.093 1517.37 Q758.482 1517.37 756.653 1520.93 Q754.848 1524.47 754.848 1531.6 Q754.848 1538.71 756.653 1542.27 Q758.482 1545.82 762.093 1545.82 Q765.727 1545.82 767.533 1542.27 Q769.362 1538.71 769.362 1531.6 Q769.362 1524.47 767.533 1520.93 Q765.727 1517.37 762.093 1517.37 M762.093 1513.66 Q767.903 1513.66 770.959 1518.27 Q774.037 1522.85 774.037 1531.6 Q774.037 1540.33 770.959 1544.94 Q767.903 1549.52 762.093 1549.52 Q756.283 1549.52 753.204 1544.94 Q750.149 1540.33 750.149 1531.6 Q750.149 1522.85 753.204 1518.27 Q756.283 1513.66 762.093 1513.66 Z" fill="#000000" fill-rule="nonzero" fill-opacity="1" /><path clip-path="url(#clip030)" d="M1130.43 1532.02 L1160.1 1532.02 L1160.1 1535.95 L1130.43 1535.95 L1130.43 1532.02 Z" fill="#000000" fill-rule="nonzero" fill-opacity="1" /><path clip-path="url(#clip030)" d="M1180.2 1517.37 Q1176.59 1517.37 1174.76 1520.93 Q1172.95 1524.47 1172.95 1531.6 Q1172.95 1538.71 1174.76 1542.27 Q1176.59 1545.82 1180.2 1545.82 Q1183.83 1545.82 1185.64 1542.27 Q1187.47 1538.71 1187.47 1531.6 Q1187.47 1524.47 1185.64 1520.93 Q1183.83 1517.37 1180.2 1517.37 M1180.2 1513.66 Q1186.01 1513.66 1189.06 1518.27 Q1192.14 1522.85 1192.14 1531.6 Q1192.14 1540.33 1189.06 1544.94 Q1186.01 1549.52 1180.2 1549.52 Q1174.39 1549.52 1171.31 1544.94 Q1168.25 1540.33 1168.25 1531.6 Q1168.25 1522.85 1171.31 1518.27 Q1174.39 1513.66 1180.2 1513.66 Z" fill="#000000" fill-rule="nonzero" fill-opacity="1" /><path clip-path="url(#clip030)" d="M1200.36 1542.97 L1205.24 1542.97 L1205.24 1548.85 L1200.36 1548.85 L1200.36 1542.97 Z" fill="#000000" fill-rule="nonzero" fill-opacity="1" /><path clip-path="url(#clip030)" d="M1215.47 1514.29 L1233.83 1514.29 L1233.83 1518.22 L1219.76 1518.22 L1219.76 1526.7 Q1220.78 1526.35 1221.79 1526.19 Q1222.81 1526 1223.83 1526 Q1229.62 1526 1233 1529.17 Q1236.38 1532.34 1236.38 1537.76 Q1236.38 1543.34 1232.91 1546.44 Q1229.43 1549.52 1223.11 1549.52 Q1220.94 1549.52 1218.67 1549.15 Q1216.42 1548.78 1214.02 1548.04 L1214.02 1543.34 Q1216.1 1544.47 1218.32 1545.03 Q1220.54 1545.58 1223.02 1545.58 Q1227.03 1545.58 1229.36 1543.48 Q1231.7 1541.37 1231.7 1537.76 Q1231.7 1534.15 1229.36 1532.04 Q1227.03 1529.94 1223.02 1529.94 Q1221.15 1529.94 1219.27 1530.35 Q1217.42 1530.77 1215.47 1531.65 L1215.47 1514.29 Z" fill="#000000" fill-rule="nonzero" fill-opacity="1" /><path clip-path="url(#clip030)" d="M1623.63 1517.37 Q1620.01 1517.37 1618.19 1520.93 Q1616.38 1524.47 1616.38 1531.6 Q1616.38 1538.71 1618.19 1542.27 Q1620.01 1545.82 1623.63 1545.82 Q1627.26 1545.82 1629.07 1542.27 Q1630.89 1538.71 1630.89 1531.6 Q1630.89 1524.47 1629.07 1520.93 Q1627.26 1517.37 1623.63 1517.37 M1623.63 1513.66 Q1629.44 1513.66 1632.49 1518.27 Q1635.57 1522.85 1635.57 1531.6 Q1635.57 1540.33 1632.49 1544.94 Q1629.44 1549.52 1623.63 1549.52 Q1617.82 1549.52 1614.74 1544.94 Q1611.68 1540.33 1611.68 1531.6 Q1611.68 1522.85 1614.74 1518.27 Q1617.82 1513.66 1623.63 1513.66 Z" fill="#000000" fill-rule="nonzero" fill-opacity="1" /><path clip-path="url(#clip030)" d="M1643.79 1542.97 L1648.67 1542.97 L1648.67 1548.85 L1643.79 1548.85 L1643.79 1542.97 Z" fill="#000000" fill-rule="nonzero" fill-opacity="1" /><path clip-path="url(#clip030)" d="M1668.86 1517.37 Q1665.25 1517.37 1663.42 1520.93 Q1661.61 1524.47 1661.61 1531.6 Q1661.61 1538.71 1663.42 1542.27 Q1665.25 1545.82 1668.86 1545.82 Q1672.49 1545.82 1674.3 1542.27 Q1676.13 1538.71 1676.13 1531.6 Q1676.13 1524.47 1674.3 1520.93 Q1672.49 1517.37 1668.86 1517.37 M1668.86 1513.66 Q1674.67 1513.66 1677.72 1518.27 Q1680.8 1522.85 1680.8 1531.6 Q1680.8 1540.33 1677.72 1544.94 Q1674.67 1549.52 1668.86 1549.52 Q1663.05 1549.52 1659.97 1544.94 Q1656.91 1540.33 1656.91 1531.6 Q1656.91 1522.85 1659.97 1518.27 Q1663.05 1513.66 1668.86 1513.66 Z" fill="#000000" fill-rule="nonzero" fill-opacity="1" /><path clip-path="url(#clip030)" d="M2086.96 1517.37 Q2083.35 1517.37 2081.52 1520.93 Q2079.72 1524.47 2079.72 1531.6 Q2079.72 1538.71 2081.52 1542.27 Q2083.35 1545.82 2086.96 1545.82 Q2090.6 1545.82 2092.4 1542.27 Q2094.23 1538.71 2094.23 1531.6 Q2094.23 1524.47 2092.4 1520.93 Q2090.6 1517.37 2086.96 1517.37 M2086.96 1513.66 Q2092.77 1513.66 2095.83 1518.27 Q2098.91 1522.85 2098.91 1531.6 Q2098.91 1540.33 2095.83 1544.94 Q2092.77 1549.52 2086.96 1549.52 Q2081.15 1549.52 2078.07 1544.94 Q2075.02 1540.33 2075.02 1531.6 Q2075.02 1522.85 2078.07 1518.27 Q2081.15 1513.66 2086.96 1513.66 Z" fill="#000000" fill-rule="nonzero" fill-opacity="1" /><path clip-path="url(#clip030)" d="M2107.12 1542.97 L2112.01 1542.97 L2112.01 1548.85 L2107.12 1548.85 L2107.12 1542.97 Z" fill="#000000" fill-rule="nonzero" fill-opacity="1" /><path clip-path="url(#clip030)" d="M2122.24 1514.29 L2140.6 1514.29 L2140.6 1518.22 L2126.52 1518.22 L2126.52 1526.7 Q2127.54 1526.35 2128.56 1526.19 Q2129.58 1526 2130.6 1526 Q2136.38 1526 2139.76 1529.17 Q2143.14 1532.34 2143.14 1537.76 Q2143.14 1543.34 2139.67 1546.44 Q2136.2 1549.52 2129.88 1549.52 Q2127.7 1549.52 2125.43 1549.15 Q2123.19 1548.78 2120.78 1548.04 L2120.78 1543.34 Q2122.86 1544.47 2125.09 1545.03 Q2127.31 1545.58 2129.78 1545.58 Q2133.79 1545.58 2136.13 1543.48 Q2138.47 1541.37 2138.47 1537.76 Q2138.47 1534.15 2136.13 1532.04 Q2133.79 1529.94 2129.78 1529.94 Q2127.91 1529.94 2126.03 1530.35 Q2124.18 1530.77 2122.24 1531.65 L2122.24 1514.29 Z" fill="#000000" fill-rule="nonzero" fill-opacity="1" /><polyline clip-path="url(#clip032)" style="stroke:#000000; stroke-linecap:round; stroke-linejoin:round; stroke-width:2; stroke-opacity:0.1; fill:none" points="112.177,1485.62 2352.76,1485.62 "/>
<polyline clip-path="url(#clip032)" style="stroke:#000000; stroke-linecap:round; stroke-linejoin:round; stroke-width:2; stroke-opacity:0.1; fill:none" points="112.177,1088.53 2352.76,1088.53 "/>
<polyline clip-path="url(#clip032)" style="stroke:#000000; stroke-linecap:round; stroke-linejoin:round; stroke-width:2; stroke-opacity:0.1; fill:none" points="112.177,691.433 2352.76,691.433 "/>
<polyline clip-path="url(#clip032)" style="stroke:#000000; stroke-linecap:round; stroke-linejoin:round; stroke-width:2; stroke-opacity:0.1; fill:none" points="112.177,294.338 2352.76,294.338 "/>
<polyline clip-path="url(#clip030)" style="stroke:#000000; stroke-linecap:round; stroke-linejoin:round; stroke-width:4; stroke-opacity:1; fill:none" points="112.177,1486.45 112.177,47.2441 "/>
<polyline clip-path="url(#clip030)" style="stroke:#000000; stroke-linecap:round; stroke-linejoin:round; stroke-width:4; stroke-opacity:1; fill:none" points="112.177,1485.62 131.075,1485.62 "/>
<polyline clip-path="url(#clip030)" style="stroke:#000000; stroke-linecap:round; stroke-linejoin:round; stroke-width:4; stroke-opacity:1; fill:none" points="112.177,1088.53 131.075,1088.53 "/>
<polyline clip-path="url(#clip030)" style="stroke:#000000; stroke-linecap:round; stroke-linejoin:round; stroke-width:4; stroke-opacity:1; fill:none" points="112.177,691.433 131.075,691.433 "/>
<polyline clip-path="url(#clip030)" style="stroke:#000000; stroke-linecap:round; stroke-linejoin:round; stroke-width:4; stroke-opacity:1; fill:none" points="112.177,294.338 131.075,294.338 "/>
<path clip-path="url(#clip030)" d="M64.2328 1471.42 Q60.6217 1471.42 58.793 1474.99 Q56.9875 1478.53 56.9875 1485.66 Q56.9875 1492.76 58.793 1496.33 Q60.6217 1499.87 64.2328 1499.87 Q67.867 1499.87 69.6726 1496.33 Q71.5013 1492.76 71.5013 1485.66 Q71.5013 1478.53 69.6726 1474.99 Q67.867 1471.42 64.2328 1471.42 M64.2328 1467.72 Q70.0429 1467.72 73.0985 1472.32 Q76.1772 1476.91 76.1772 1485.66 Q76.1772 1494.38 73.0985 1498.99 Q70.0429 1503.57 64.2328 1503.57 Q58.4226 1503.57 55.344 1498.99 Q52.2884 1494.38 52.2884 1485.66 Q52.2884 1476.91 55.344 1472.32 Q58.4226 1467.72 64.2328 1467.72 Z" fill="#000000" fill-rule="nonzero" fill-opacity="1" /><path clip-path="url(#clip030)" d="M59.8578 1101.87 L76.1772 1101.87 L76.1772 1105.81 L54.2328 1105.81 L54.2328 1101.87 Q56.8949 1099.12 61.4782 1094.49 Q66.0846 1089.84 67.2652 1088.49 Q69.5105 1085.97 70.3902 1084.23 Q71.2929 1082.47 71.2929 1080.79 Q71.2929 1078.03 69.3485 1076.29 Q67.4272 1074.56 64.3254 1074.56 Q62.1263 1074.56 59.6726 1075.32 Q57.2421 1076.09 54.4643 1077.64 L54.4643 1072.91 Q57.2884 1071.78 59.7421 1071.2 Q62.1958 1070.62 64.2328 1070.62 Q69.6031 1070.62 72.7976 1073.31 Q75.992 1075.99 75.992 1080.48 Q75.992 1082.61 75.1818 1084.54 Q74.3948 1086.43 72.2883 1089.03 Q71.7096 1089.7 68.6078 1092.91 Q65.5059 1096.11 59.8578 1101.87 Z" fill="#000000" fill-rule="nonzero" fill-opacity="1" /><path clip-path="url(#clip030)" d="M66.5939 678.227 L54.7884 696.676 L66.5939 696.676 L66.5939 678.227 M65.367 674.153 L71.2466 674.153 L71.2466 696.676 L76.1772 696.676 L76.1772 700.565 L71.2466 700.565 L71.2466 708.713 L66.5939 708.713 L66.5939 700.565 L50.9921 700.565 L50.9921 696.051 L65.367 674.153 Z" fill="#000000" fill-rule="nonzero" fill-opacity="1" /><path clip-path="url(#clip030)" d="M64.6495 292.475 Q61.5013 292.475 59.6495 294.627 Q57.8208 296.78 57.8208 300.53 Q57.8208 304.257 59.6495 306.433 Q61.5013 308.586 64.6495 308.586 Q67.7976 308.586 69.6263 306.433 Q71.4781 304.257 71.4781 300.53 Q71.4781 296.78 69.6263 294.627 Q67.7976 292.475 64.6495 292.475 M73.9318 277.822 L73.9318 282.081 Q72.1726 281.248 70.367 280.808 Q68.5846 280.368 66.8254 280.368 Q62.1958 280.368 59.7421 283.493 Q57.3115 286.618 56.9643 292.937 Q58.33 290.924 60.3902 289.859 Q62.4504 288.771 64.9272 288.771 Q70.1355 288.771 73.1448 291.942 Q76.1772 295.09 76.1772 300.53 Q76.1772 305.854 73.029 309.072 Q69.8809 312.289 64.6495 312.289 Q58.6541 312.289 55.4828 307.706 Q52.3116 303.099 52.3116 294.373 Q52.3116 286.178 56.2004 281.317 Q60.0893 276.433 66.6402 276.433 Q68.3994 276.433 70.1818 276.78 Q71.9874 277.127 73.9318 277.822 Z" fill="#000000" fill-rule="nonzero" fill-opacity="1" /><circle clip-path="url(#clip032)" cx="2289.34" cy="1373.37" r="14.4" fill="#808080" fill-rule="evenodd" fill-opacity="1" stroke="#000000" stroke-opacity="1" stroke-width="3.2"/>
<circle clip-path="url(#clip032)" cx="175.59" cy="87.9763" r="14.4" fill="#808080" fill-rule="evenodd" fill-opacity="1" stroke="#000000" stroke-opacity="1" stroke-width="3.2"/>
<circle clip-path="url(#clip032)" cx="1666.52" cy="1445.72" r="14.4" fill="#808080" fill-rule="evenodd" fill-opacity="1" stroke="#000000" stroke-opacity="1" stroke-width="3.2"/>
<circle clip-path="url(#clip032)" cx="1601.88" cy="1440.08" r="14.4" fill="#808080" fill-rule="evenodd" fill-opacity="1" stroke="#000000" stroke-opacity="1" stroke-width="3.2"/>
<path clip-path="url(#clip030)" d="M2293.64 1380.81 Q2284.6 1380.81 2281.12 1382.87 Q2277.64 1384.94 2277.64 1389.92 Q2277.64 1393.89 2280.23 1396.24 Q2282.86 1398.55 2287.36 1398.55 Q2293.56 1398.55 2297.28 1394.18 Q2301.05 1389.76 2301.05 1382.47 L2301.05 1380.81 L2293.64 1380.81 M2308.5 1377.73 L2308.5 1403.61 L2301.05 1403.61 L2301.05 1396.73 Q2298.5 1400.86 2294.69 1402.84 Q2290.88 1404.79 2285.37 1404.79 Q2278.41 1404.79 2274.27 1400.9 Q2270.18 1396.97 2270.18 1390.41 Q2270.18 1382.75 2275.29 1378.86 Q2280.43 1374.97 2290.6 1374.97 L2301.05 1374.97 L2301.05 1374.24 Q2301.05 1369.1 2297.65 1366.3 Q2294.29 1363.47 2288.17 1363.47 Q2284.28 1363.47 2280.59 1364.4 Q2276.91 1365.33 2273.5 1367.2 L2273.5 1360.31 Q2277.6 1358.73 2281.44 1357.96 Q2285.29 1357.15 2288.94 1357.15 Q2298.78 1357.15 2303.64 1362.25 Q2308.5 1367.36 2308.5 1377.73 Z" fill="#000000" fill-rule="nonzero" fill-opacity="1" /><path clip-path="url(#clip030)" d="M188.148 95.5717 Q188.148 87.3484 184.745 82.6898 Q181.383 77.9908 175.468 77.9908 Q169.554 77.9908 166.151 82.6898 Q162.789 87.3484 162.789 95.5717 Q162.789 103.795 166.151 108.494 Q169.554 113.153 175.468 113.153 Q181.383 113.153 184.745 108.494 Q188.148 103.795 188.148 95.5717 M162.789 79.7327 Q165.138 75.6818 168.703 73.7373 Q172.309 71.7524 177.291 71.7524 Q185.555 71.7524 190.7 78.3149 Q195.885 84.8773 195.885 95.5717 Q195.885 106.266 190.7 112.829 Q185.555 119.391 177.291 119.391 Q172.309 119.391 168.703 117.447 Q165.138 115.462 162.789 111.411 L162.789 118.216 L155.295 118.216 L155.295 55.1842 L162.789 55.1842 L162.789 79.7327 Z" fill="#000000" fill-rule="nonzero" fill-opacity="1" /><path clip-path="url(#clip030)" d="M1684.46 1432.33 L1684.46 1439.3 Q1681.31 1437.55 1678.1 1436.7 Q1674.95 1435.81 1671.7 1435.81 Q1664.45 1435.81 1660.44 1440.43 Q1656.43 1445.01 1656.43 1453.31 Q1656.43 1461.62 1660.44 1466.23 Q1664.45 1470.81 1671.7 1470.81 Q1674.95 1470.81 1678.1 1469.96 Q1681.31 1469.07 1684.46 1467.33 L1684.46 1474.21 Q1681.35 1475.67 1677.98 1476.4 Q1674.66 1477.13 1670.89 1477.13 Q1660.65 1477.13 1654.61 1470.69 Q1648.57 1464.25 1648.57 1453.31 Q1648.57 1442.21 1654.65 1435.85 Q1660.77 1429.49 1671.38 1429.49 Q1674.82 1429.49 1678.1 1430.22 Q1681.39 1430.91 1684.46 1432.33 Z" fill="#000000" fill-rule="nonzero" fill-opacity="1" /><path clip-path="url(#clip030)" d="M1614.7 1431.84 L1614.7 1407.29 L1622.15 1407.29 L1622.15 1470.32 L1614.7 1470.32 L1614.7 1463.52 Q1612.35 1467.57 1608.74 1469.55 Q1605.18 1471.5 1600.15 1471.5 Q1591.93 1471.5 1586.75 1464.94 Q1581.6 1458.37 1581.6 1447.68 Q1581.6 1436.99 1586.75 1430.42 Q1591.93 1423.86 1600.15 1423.86 Q1605.18 1423.86 1608.74 1425.85 Q1612.35 1427.79 1614.7 1431.84 M1589.3 1447.68 Q1589.3 1455.9 1592.66 1460.6 Q1596.06 1465.26 1601.98 1465.26 Q1607.89 1465.26 1611.29 1460.6 Q1614.7 1455.9 1614.7 1447.68 Q1614.7 1439.46 1611.29 1434.8 Q1607.89 1430.1 1601.98 1430.1 Q1596.06 1430.1 1592.66 1434.8 Q1589.3 1439.46 1589.3 1447.68 Z" fill="#000000" fill-rule="nonzero" fill-opacity="1" /><path clip-path="url(#clip030)" d="M2001.58 198.898 L2278.07 198.898 L2278.07 95.2176 L2001.58 95.2176  Z" fill="#ffffff" fill-rule="evenodd" fill-opacity="1"/>
<polyline clip-path="url(#clip030)" style="stroke:#000000; stroke-linecap:round; stroke-linejoin:round; stroke-width:4; stroke-opacity:1; fill:none" points="2001.58,198.898 2278.07,198.898 2278.07,95.2176 2001.58,95.2176 2001.58,198.898 "/>
<circle clip-path="url(#clip030)" cx="2101.16" cy="147.058" r="20.48" fill="#808080" fill-rule="evenodd" fill-opacity="1" stroke="#000000" stroke-opacity="1" stroke-width="4.55111"/>
<path clip-path="url(#clip030)" d="M2214.59 166.745 Q2212.78 171.375 2211.07 172.787 Q2209.36 174.199 2206.49 174.199 L2203.08 174.199 L2203.08 170.634 L2205.58 170.634 Q2207.34 170.634 2208.31 169.8 Q2209.29 168.967 2210.47 165.865 L2211.23 163.921 L2200.74 138.412 L2205.26 138.412 L2213.36 158.689 L2221.46 138.412 L2225.98 138.412 L2214.59 166.745 Z" fill="#000000" fill-rule="nonzero" fill-opacity="1" /><path clip-path="url(#clip030)" d="M2233.27 160.402 L2240.91 160.402 L2240.91 134.037 L2232.6 135.703 L2232.6 131.444 L2240.86 129.778 L2245.54 129.778 L2245.54 160.402 L2253.17 160.402 L2253.17 164.338 L2233.27 164.338 L2233.27 160.402 Z" fill="#000000" fill-rule="nonzero" fill-opacity="1" /></svg>
