<?xml version="1.0" encoding="utf-8"?>
<svg xmlns="http://www.w3.org/2000/svg" xmlns:xlink="http://www.w3.org/1999/xlink" width="600" height="400" viewBox="0 0 2400 1600">
<defs>
  <clipPath id="clip570">
    <rect x="0" y="0" width="2400" height="1600"/>
  </clipPath>
</defs>
<path clip-path="url(#clip570)" d="M0 1600 L2400 1600 L2400 0 L0 0  Z" fill="#ffffff" fill-rule="evenodd" fill-opacity="1"/>
<defs>
  <clipPath id="clip571">
    <rect x="480" y="0" width="1681" height="1600"/>
  </clipPath>
</defs>
<path clip-path="url(#clip570)" d="M186.274 1486.45 L2352.76 1486.45 L2352.76 47.2441 L186.274 47.2441  Z" fill="#ffffff" fill-rule="evenodd" fill-opacity="1"/>
<defs>
  <clipPath id="clip572">
    <rect x="186" y="47" width="2167" height="1440"/>
  </clipPath>
</defs>
<polyline clip-path="url(#clip572)" style="stroke:#000000; stroke-linecap:round; stroke-linejoin:round; stroke-width:2; stroke-opacity:0.1; fill:none" points="293.419,1486.45 293.419,47.2441 "/>
<polyline clip-path="url(#clip572)" style="stroke:#000000; stroke-linecap:round; stroke-linejoin:round; stroke-width:2; stroke-opacity:0.1; fill:none" points="824.196,1486.45 824.196,47.2441 "/>
<polyline clip-path="url(#clip572)" style="stroke:#000000; stroke-linecap:round; stroke-linejoin:round; stroke-width:2; stroke-opacity:0.1; fill:none" points="1354.97,1486.45 1354.97,47.2441 "/>
<polyline clip-path="url(#clip572)" style="stroke:#000000; stroke-linecap:round; stroke-linejoin:round; stroke-width:2; stroke-opacity:0.1; fill:none" points="1885.75,1486.45 1885.75,47.2441 "/>
<polyline clip-path="url(#clip570)" style="stroke:#000000; stroke-linecap:round; stroke-linejoin:round; stroke-width:4; stroke-opacity:1; fill:none" points="186.274,1486.45 2352.76,1486.45 "/>
<polyline clip-path="url(#clip570)" style="stroke:#000000; stroke-linecap:round; stroke-linejoin:round; stroke-width:4; stroke-opacity:1; fill:none" points="293.419,1486.45 293.419,1467.55 "/>
<polyline clip-path="url(#clip570)" style="stroke:#000000; stroke-linecap:round; stroke-linejoin:round; stroke-width:4; stroke-opacity:1; fill:none" points="824.196,1486.45 824.196,1467.55 "/>
<polyline clip-path="url(#clip570)" style="stroke:#000000; stroke-linecap:round; stroke-linejoin:round; stroke-width:4; stroke-opacity:1; fill:none" points="1354.97,1486.45 1354.97,1467.55 "/>
<polyline clip-path="url(#clip570)" style="stroke:#000000; stroke-linecap:round; stroke-linejoin:round; stroke-width:4; stroke-opacity:1; fill:none" points="1885.75,1486.45 1885.75,1467.55 "/>
<path clip-path="url(#clip570)" d="M239.704 1532.02 L269.38 1532.02 L269.38 1535.95 L239.704 1535.95 L239.704 1532.02 Z" fill="#000000" fill-rule="nonzero" fill-opacity="1" /><path clip-path="url(#clip570)" d="M289.472 1517.37 Q285.861 1517.37 284.033 1520.93 Q282.227 1524.47 282.227 1531.6 Q282.227 1538.71 284.033 1542.27 Q285.861 1545.82 289.472 1545.82 Q293.107 1545.82 294.912 1542.27 Q296.741 1538.71 296.741 1531.6 Q296.741 1524.47 294.912 1520.93 Q293.107 1517.37 289.472 1517.37 M289.472 1513.66 Q295.283 1513.66 298.338 1518.27 Q301.417 1522.85 301.417 1531.6 Q301.417 1540.33 298.338 1544.94 Q295.283 1549.52 289.472 1549.52 Q283.662 1549.52 280.584 1544.94 Q277.528 1540.33 277.528 1531.6 Q277.528 1522.85 280.584 1518.27 Q283.662 1513.66 289.472 1513.66 Z" fill="#000000" fill-rule="nonzero" fill-opacity="1" /><path clip-path="url(#clip570)" d="M309.634 1542.97 L314.519 1542.97 L314.519 1548.85 L309.634 1548.85 L309.634 1542.97 Z" fill="#000000" fill-rule="nonzero" fill-opacity="1" /><path clip-path="url(#clip570)" d="M337.551 1518.36 L325.745 1536.81 L337.551 1536.81 L337.551 1518.36 M336.324 1514.29 L342.204 1514.29 L342.204 1536.81 L347.134 1536.81 L347.134 1540.7 L342.204 1540.7 L342.204 1548.85 L337.551 1548.85 L337.551 1540.7 L321.949 1540.7 L321.949 1536.19 L336.324 1514.29 Z" fill="#000000" fill-rule="nonzero" fill-opacity="1" /><path clip-path="url(#clip570)" d="M771.523 1532.02 L801.198 1532.02 L801.198 1535.95 L771.523 1535.95 L771.523 1532.02 Z" fill="#000000" fill-rule="nonzero" fill-opacity="1" /><path clip-path="url(#clip570)" d="M821.291 1517.37 Q817.68 1517.37 815.851 1520.93 Q814.046 1524.47 814.046 1531.6 Q814.046 1538.71 815.851 1542.27 Q817.68 1545.82 821.291 1545.82 Q824.925 1545.82 826.731 1542.27 Q828.559 1538.71 828.559 1531.6 Q828.559 1524.47 826.731 1520.93 Q824.925 1517.37 821.291 1517.37 M821.291 1513.66 Q827.101 1513.66 830.157 1518.27 Q833.235 1522.85 833.235 1531.6 Q833.235 1540.33 830.157 1544.94 Q827.101 1549.52 821.291 1549.52 Q815.481 1549.52 812.402 1544.94 Q809.347 1540.33 809.347 1531.6 Q809.347 1522.85 812.402 1518.27 Q815.481 1513.66 821.291 1513.66 Z" fill="#000000" fill-rule="nonzero" fill-opacity="1" /><path clip-path="url(#clip570)" d="M841.453 1542.97 L846.337 1542.97 L846.337 1548.85 L841.453 1548.85 L841.453 1542.97 Z" fill="#000000" fill-rule="nonzero" fill-opacity="1" /><path clip-path="url(#clip570)" d="M860.55 1544.91 L876.869 1544.91 L876.869 1548.85 L854.925 1548.85 L854.925 1544.91 Q857.587 1542.16 862.17 1537.53 Q866.777 1532.88 867.957 1531.53 Q870.203 1529.01 871.082 1527.27 Q871.985 1525.51 871.985 1523.82 Q871.985 1521.07 870.041 1519.33 Q868.119 1517.6 865.018 1517.6 Q862.818 1517.6 860.365 1518.36 Q857.934 1519.13 855.156 1520.68 L855.156 1515.95 Q857.981 1514.82 860.434 1514.24 Q862.888 1513.66 864.925 1513.66 Q870.295 1513.66 873.49 1516.35 Q876.684 1519.03 876.684 1523.52 Q876.684 1525.65 875.874 1527.57 Q875.087 1529.47 872.98 1532.07 Q872.402 1532.74 869.3 1535.95 Q866.198 1539.15 860.55 1544.91 Z" fill="#000000" fill-rule="nonzero" fill-opacity="1" /><path clip-path="url(#clip570)" d="M1332.36 1517.37 Q1328.75 1517.37 1326.92 1520.93 Q1325.11 1524.47 1325.11 1531.6 Q1325.11 1538.71 1326.92 1542.27 Q1328.75 1545.82 1332.36 1545.82 Q1335.99 1545.82 1337.8 1542.27 Q1339.63 1538.71 1339.63 1531.6 Q1339.63 1524.47 1337.8 1520.93 Q1335.99 1517.37 1332.36 1517.37 M1332.36 1513.66 Q1338.17 1513.66 1341.22 1518.27 Q1344.3 1522.85 1344.3 1531.6 Q1344.3 1540.33 1341.22 1544.94 Q1338.17 1549.52 1332.36 1549.52 Q1326.55 1549.52 1323.47 1544.94 Q1320.41 1540.33 1320.41 1531.6 Q1320.41 1522.85 1323.47 1518.27 Q1326.55 1513.66 1332.36 1513.66 Z" fill="#000000" fill-rule="nonzero" fill-opacity="1" /><path clip-path="url(#clip570)" d="M1352.52 1542.97 L1357.4 1542.97 L1357.4 1548.85 L1352.52 1548.85 L1352.52 1542.97 Z" fill="#000000" fill-rule="nonzero" fill-opacity="1" /><path clip-path="url(#clip570)" d="M1377.59 1517.37 Q1373.98 1517.37 1372.15 1520.93 Q1370.34 1524.47 1370.34 1531.6 Q1370.34 1538.71 1372.15 1542.27 Q1373.98 1545.82 1377.59 1545.82 Q1381.22 1545.82 1383.03 1542.27 Q1384.86 1538.71 1384.86 1531.6 Q1384.86 1524.47 1383.03 1520.93 Q1381.22 1517.37 1377.59 1517.37 M1377.59 1513.66 Q1383.4 1513.66 1386.45 1518.27 Q1389.53 1522.85 1389.53 1531.6 Q1389.53 1540.33 1386.45 1544.94 Q1383.4 1549.52 1377.59 1549.52 Q1371.78 1549.52 1368.7 1544.94 Q1365.64 1540.33 1365.64 1531.6 Q1365.64 1522.85 1368.7 1518.27 Q1371.78 1513.66 1377.59 1513.66 Z" fill="#000000" fill-rule="nonzero" fill-opacity="1" /><path clip-path="url(#clip570)" d="M1863.93 1517.37 Q1860.32 1517.37 1858.49 1520.93 Q1856.69 1524.47 1856.69 1531.6 Q1856.69 1538.71 1858.49 1542.27 Q1860.32 1545.82 1863.93 1545.82 Q1867.57 1545.82 1869.37 1542.27 Q1871.2 1538.71 1871.2 1531.6 Q1871.2 1524.47 1869.37 1520.93 Q1867.57 1517.37 1863.93 1517.37 M1863.93 1513.66 Q1869.74 1513.66 1872.8 1518.27 Q1875.88 1522.85 1875.88 1531.6 Q1875.88 1540.33 1872.8 1544.94 Q1869.74 1549.52 1863.93 1549.52 Q1858.12 1549.52 1855.04 1544.94 Q1851.99 1540.33 1851.99 1531.6 Q1851.99 1522.85 1855.04 1518.27 Q1858.12 1513.66 1863.93 1513.66 Z" fill="#000000" fill-rule="nonzero" fill-opacity="1" /><path clip-path="url(#clip570)" d="M1884.09 1542.97 L1888.98 1542.97 L1888.98 1548.85 L1884.09 1548.85 L1884.09 1542.97 Z" fill="#000000" fill-rule="nonzero" fill-opacity="1" /><path clip-path="url(#clip570)" d="M1903.19 1544.91 L1919.51 1544.91 L1919.51 1548.85 L1897.57 1548.85 L1897.57 1544.91 Q1900.23 1542.16 1904.81 1537.53 Q1909.42 1532.88 1910.6 1531.53 Q1912.84 1529.01 1913.72 1527.27 Q1914.63 1525.51 1914.63 1523.82 Q1914.63 1521.07 1912.68 1519.33 Q1910.76 1517.6 1907.66 1517.6 Q1905.46 1517.6 1903.01 1518.36 Q1900.58 1519.13 1897.8 1520.68 L1897.8 1515.95 Q1900.62 1514.82 1903.08 1514.24 Q1905.53 1513.66 1907.57 1513.66 Q1912.94 1513.66 1916.13 1516.35 Q1919.33 1519.03 1919.33 1523.52 Q1919.33 1525.65 1918.52 1527.57 Q1917.73 1529.47 1915.62 1532.07 Q1915.04 1532.74 1911.94 1535.95 Q1908.84 1539.15 1903.19 1544.91 Z" fill="#000000" fill-rule="nonzero" fill-opacity="1" /><polyline clip-path="url(#clip572)" style="stroke:#000000; stroke-linecap:round; stroke-linejoin:round; stroke-width:2; stroke-opacity:0.1; fill:none" points="186.274,1455.54 2352.76,1455.54 "/>
<polyline clip-path="url(#clip572)" style="stroke:#000000; stroke-linecap:round; stroke-linejoin:round; stroke-width:2; stroke-opacity:0.1; fill:none" points="186.274,1176.92 2352.76,1176.92 "/>
<polyline clip-path="url(#clip572)" style="stroke:#000000; stroke-linecap:round; stroke-linejoin:round; stroke-width:2; stroke-opacity:0.1; fill:none" points="186.274,898.298 2352.76,898.298 "/>
<polyline clip-path="url(#clip572)" style="stroke:#000000; stroke-linecap:round; stroke-linejoin:round; stroke-width:2; stroke-opacity:0.1; fill:none" points="186.274,619.676 2352.76,619.676 "/>
<polyline clip-path="url(#clip572)" style="stroke:#000000; stroke-linecap:round; stroke-linejoin:round; stroke-width:2; stroke-opacity:0.1; fill:none" points="186.274,341.055 2352.76,341.055 "/>
<polyline clip-path="url(#clip572)" style="stroke:#000000; stroke-linecap:round; stroke-linejoin:round; stroke-width:2; stroke-opacity:0.1; fill:none" points="186.274,62.4329 2352.76,62.4329 "/>
<polyline clip-path="url(#clip570)" style="stroke:#000000; stroke-linecap:round; stroke-linejoin:round; stroke-width:4; stroke-opacity:1; fill:none" points="186.274,1486.45 186.274,47.2441 "/>
<polyline clip-path="url(#clip570)" style="stroke:#000000; stroke-linecap:round; stroke-linejoin:round; stroke-width:4; stroke-opacity:1; fill:none" points="186.274,1455.54 205.172,1455.54 "/>
<polyline clip-path="url(#clip570)" style="stroke:#000000; stroke-linecap:round; stroke-linejoin:round; stroke-width:4; stroke-opacity:1; fill:none" points="186.274,1176.92 205.172,1176.92 "/>
<polyline clip-path="url(#clip570)" style="stroke:#000000; stroke-linecap:round; stroke-linejoin:round; stroke-width:4; stroke-opacity:1; fill:none" points="186.274,898.298 205.172,898.298 "/>
<polyline clip-path="url(#clip570)" style="stroke:#000000; stroke-linecap:round; stroke-linejoin:round; stroke-width:4; stroke-opacity:1; fill:none" points="186.274,619.676 205.172,619.676 "/>
<polyline clip-path="url(#clip570)" style="stroke:#000000; stroke-linecap:round; stroke-linejoin:round; stroke-width:4; stroke-opacity:1; fill:none" points="186.274,341.055 205.172,341.055 "/>
<polyline clip-path="url(#clip570)" style="stroke:#000000; stroke-linecap:round; stroke-linejoin:round; stroke-width:4; stroke-opacity:1; fill:none" points="186.274,62.4329 205.172,62.4329 "/>
<path clip-path="url(#clip570)" d="M62.9365 1441.34 Q59.3254 1441.34 57.4967 1444.9 Q55.6912 1448.45 55.6912 1455.58 Q55.6912 1462.68 57.4967 1466.25 Q59.3254 1469.79 62.9365 1469.79 Q66.5707 1469.79 68.3763 1466.25 Q70.205 1462.68 70.205 1455.58 Q70.205 1448.45 68.3763 1444.9 Q66.5707 1441.34 62.9365 1441.34 M62.9365 1437.64 Q68.7467 1437.64 71.8022 1442.24 Q74.8809 1446.83 74.8809 1455.58 Q74.8809 1464.3 71.8022 1468.91 Q68.7467 1473.49 62.9365 1473.49 Q57.1264 1473.49 54.0477 1468.91 Q50.9921 1464.3 50.9921 1455.58 Q50.9921 1446.83 54.0477 1442.24 Q57.1264 1437.64 62.9365 1437.64 Z" fill="#000000" fill-rule="nonzero" fill-opacity="1" /><path clip-path="url(#clip570)" d="M83.0984 1466.94 L87.9827 1466.94 L87.9827 1472.82 L83.0984 1472.82 L83.0984 1466.94 Z" fill="#000000" fill-rule="nonzero" fill-opacity="1" /><path clip-path="url(#clip570)" d="M108.168 1441.34 Q104.557 1441.34 102.728 1444.9 Q100.922 1448.45 100.922 1455.58 Q100.922 1462.68 102.728 1466.25 Q104.557 1469.79 108.168 1469.79 Q111.802 1469.79 113.608 1466.25 Q115.436 1462.68 115.436 1455.58 Q115.436 1448.45 113.608 1444.9 Q111.802 1441.34 108.168 1441.34 M108.168 1437.64 Q113.978 1437.64 117.033 1442.24 Q120.112 1446.83 120.112 1455.58 Q120.112 1464.3 117.033 1468.91 Q113.978 1473.49 108.168 1473.49 Q102.358 1473.49 99.2789 1468.91 Q96.2234 1464.3 96.2234 1455.58 Q96.2234 1446.83 99.2789 1442.24 Q102.358 1437.64 108.168 1437.64 Z" fill="#000000" fill-rule="nonzero" fill-opacity="1" /><path clip-path="url(#clip570)" d="M138.33 1441.34 Q134.719 1441.34 132.89 1444.9 Q131.084 1448.45 131.084 1455.58 Q131.084 1462.68 132.89 1466.25 Q134.719 1469.79 138.33 1469.79 Q141.964 1469.79 143.769 1466.25 Q145.598 1462.68 145.598 1455.58 Q145.598 1448.45 143.769 1444.9 Q141.964 1441.34 138.33 1441.34 M138.33 1437.64 Q144.14 1437.64 147.195 1442.24 Q150.274 1446.83 150.274 1455.58 Q150.274 1464.3 147.195 1468.91 Q144.14 1473.49 138.33 1473.49 Q132.519 1473.49 129.441 1468.91 Q126.385 1464.3 126.385 1455.58 Q126.385 1446.83 129.441 1442.24 Q132.519 1437.64 138.33 1437.64 Z" fill="#000000" fill-rule="nonzero" fill-opacity="1" /><path clip-path="url(#clip570)" d="M63.9319 1162.72 Q60.3208 1162.72 58.4921 1166.28 Q56.6865 1169.82 56.6865 1176.95 Q56.6865 1184.06 58.4921 1187.63 Q60.3208 1191.17 63.9319 1191.17 Q67.5661 1191.17 69.3717 1187.63 Q71.2004 1184.06 71.2004 1176.95 Q71.2004 1169.82 69.3717 1166.28 Q67.5661 1162.72 63.9319 1162.72 M63.9319 1159.01 Q69.742 1159.01 72.7976 1163.62 Q75.8763 1168.2 75.8763 1176.95 Q75.8763 1185.68 72.7976 1190.29 Q69.742 1194.87 63.9319 1194.87 Q58.1217 1194.87 55.043 1190.29 Q51.9875 1185.68 51.9875 1176.95 Q51.9875 1168.2 55.043 1163.62 Q58.1217 1159.01 63.9319 1159.01 Z" fill="#000000" fill-rule="nonzero" fill-opacity="1" /><path clip-path="url(#clip570)" d="M84.0938 1188.32 L88.978 1188.32 L88.978 1194.2 L84.0938 1194.2 L84.0938 1188.32 Z" fill="#000000" fill-rule="nonzero" fill-opacity="1" /><path clip-path="url(#clip570)" d="M109.163 1162.72 Q105.552 1162.72 103.723 1166.28 Q101.918 1169.82 101.918 1176.95 Q101.918 1184.06 103.723 1187.63 Q105.552 1191.17 109.163 1191.17 Q112.797 1191.17 114.603 1187.63 Q116.432 1184.06 116.432 1176.95 Q116.432 1169.82 114.603 1166.28 Q112.797 1162.72 109.163 1162.72 M109.163 1159.01 Q114.973 1159.01 118.029 1163.62 Q121.107 1168.2 121.107 1176.95 Q121.107 1185.68 118.029 1190.29 Q114.973 1194.87 109.163 1194.87 Q103.353 1194.87 100.274 1190.29 Q97.2187 1185.68 97.2187 1176.95 Q97.2187 1168.2 100.274 1163.62 Q103.353 1159.01 109.163 1159.01 Z" fill="#000000" fill-rule="nonzero" fill-opacity="1" /><path clip-path="url(#clip570)" d="M129.371 1159.64 L147.728 1159.64 L147.728 1163.57 L133.654 1163.57 L133.654 1172.05 Q134.672 1171.7 135.691 1171.54 Q136.709 1171.35 137.728 1171.35 Q143.515 1171.35 146.894 1174.52 Q150.274 1177.69 150.274 1183.11 Q150.274 1188.69 146.802 1191.79 Q143.33 1194.87 137.01 1194.87 Q134.834 1194.87 132.566 1194.5 Q130.32 1194.13 127.913 1193.39 L127.913 1188.69 Q129.996 1189.82 132.219 1190.38 Q134.441 1190.94 136.918 1190.94 Q140.922 1190.94 143.26 1188.83 Q145.598 1186.72 145.598 1183.11 Q145.598 1179.5 143.26 1177.39 Q140.922 1175.29 136.918 1175.29 Q135.043 1175.29 133.168 1175.7 Q131.316 1176.12 129.371 1177 L129.371 1159.64 Z" fill="#000000" fill-rule="nonzero" fill-opacity="1" /><path clip-path="url(#clip570)" d="M62.9365 884.096 Q59.3254 884.096 57.4967 887.661 Q55.6912 891.203 55.6912 898.332 Q55.6912 905.439 57.4967 909.004 Q59.3254 912.545 62.9365 912.545 Q66.5707 912.545 68.3763 909.004 Q70.205 905.439 70.205 898.332 Q70.205 891.203 68.3763 887.661 Q66.5707 884.096 62.9365 884.096 M62.9365 880.393 Q68.7467 880.393 71.8022 884.999 Q74.8809 889.582 74.8809 898.332 Q74.8809 907.059 71.8022 911.666 Q68.7467 916.249 62.9365 916.249 Q57.1264 916.249 54.0477 911.666 Q50.9921 907.059 50.9921 898.332 Q50.9921 889.582 54.0477 884.999 Q57.1264 880.393 62.9365 880.393 Z" fill="#000000" fill-rule="nonzero" fill-opacity="1" /><path clip-path="url(#clip570)" d="M83.0984 909.698 L87.9827 909.698 L87.9827 915.578 L83.0984 915.578 L83.0984 909.698 Z" fill="#000000" fill-rule="nonzero" fill-opacity="1" /><path clip-path="url(#clip570)" d="M98.978 911.643 L106.617 911.643 L106.617 885.277 L98.3067 886.944 L98.3067 882.684 L106.571 881.018 L111.246 881.018 L111.246 911.643 L118.885 911.643 L118.885 915.578 L98.978 915.578 L98.978 911.643 Z" fill="#000000" fill-rule="nonzero" fill-opacity="1" /><path clip-path="url(#clip570)" d="M138.33 884.096 Q134.719 884.096 132.89 887.661 Q131.084 891.203 131.084 898.332 Q131.084 905.439 132.89 909.004 Q134.719 912.545 138.33 912.545 Q141.964 912.545 143.769 909.004 Q145.598 905.439 145.598 898.332 Q145.598 891.203 143.769 887.661 Q141.964 884.096 138.33 884.096 M138.33 880.393 Q144.14 880.393 147.195 884.999 Q150.274 889.582 150.274 898.332 Q150.274 907.059 147.195 911.666 Q144.14 916.249 138.33 916.249 Q132.519 916.249 129.441 911.666 Q126.385 907.059 126.385 898.332 Q126.385 889.582 129.441 884.999 Q132.519 880.393 138.33 880.393 Z" fill="#000000" fill-rule="nonzero" fill-opacity="1" /><path clip-path="url(#clip570)" d="M63.9319 605.475 Q60.3208 605.475 58.4921 609.04 Q56.6865 612.581 56.6865 619.711 Q56.6865 626.817 58.4921 630.382 Q60.3208 633.924 63.9319 633.924 Q67.5661 633.924 69.3717 630.382 Q71.2004 626.817 71.2004 619.711 Q71.2004 612.581 69.3717 609.04 Q67.5661 605.475 63.9319 605.475 M63.9319 601.771 Q69.742 601.771 72.7976 606.378 Q75.8763 610.961 75.8763 619.711 Q75.8763 628.438 72.7976 633.044 Q69.742 637.627 63.9319 637.627 Q58.1217 637.627 55.043 633.044 Q51.9875 628.438 51.9875 619.711 Q51.9875 610.961 55.043 606.378 Q58.1217 601.771 63.9319 601.771 Z" fill="#000000" fill-rule="nonzero" fill-opacity="1" /><path clip-path="url(#clip570)" d="M84.0938 631.076 L88.978 631.076 L88.978 636.956 L84.0938 636.956 L84.0938 631.076 Z" fill="#000000" fill-rule="nonzero" fill-opacity="1" /><path clip-path="url(#clip570)" d="M99.9733 633.021 L107.612 633.021 L107.612 606.655 L99.3021 608.322 L99.3021 604.063 L107.566 602.396 L112.242 602.396 L112.242 633.021 L119.881 633.021 L119.881 636.956 L99.9733 636.956 L99.9733 633.021 Z" fill="#000000" fill-rule="nonzero" fill-opacity="1" /><path clip-path="url(#clip570)" d="M129.371 602.396 L147.728 602.396 L147.728 606.331 L133.654 606.331 L133.654 614.803 Q134.672 614.456 135.691 614.294 Q136.709 614.109 137.728 614.109 Q143.515 614.109 146.894 617.28 Q150.274 620.452 150.274 625.868 Q150.274 631.447 146.802 634.549 Q143.33 637.627 137.01 637.627 Q134.834 637.627 132.566 637.257 Q130.32 636.887 127.913 636.146 L127.913 631.447 Q129.996 632.581 132.219 633.137 Q134.441 633.692 136.918 633.692 Q140.922 633.692 143.26 631.586 Q145.598 629.479 145.598 625.868 Q145.598 622.257 143.26 620.151 Q140.922 618.044 136.918 618.044 Q135.043 618.044 133.168 618.461 Q131.316 618.877 129.371 619.757 L129.371 602.396 Z" fill="#000000" fill-rule="nonzero" fill-opacity="1" /><path clip-path="url(#clip570)" d="M62.9365 326.853 Q59.3254 326.853 57.4967 330.418 Q55.6912 333.96 55.6912 341.089 Q55.6912 348.196 57.4967 351.76 Q59.3254 355.302 62.9365 355.302 Q66.5707 355.302 68.3763 351.76 Q70.205 348.196 70.205 341.089 Q70.205 333.96 68.3763 330.418 Q66.5707 326.853 62.9365 326.853 M62.9365 323.15 Q68.7467 323.15 71.8022 327.756 Q74.8809 332.339 74.8809 341.089 Q74.8809 349.816 71.8022 354.422 Q68.7467 359.006 62.9365 359.006 Q57.1264 359.006 54.0477 354.422 Q50.9921 349.816 50.9921 341.089 Q50.9921 332.339 54.0477 327.756 Q57.1264 323.15 62.9365 323.15 Z" fill="#000000" fill-rule="nonzero" fill-opacity="1" /><path clip-path="url(#clip570)" d="M83.0984 352.455 L87.9827 352.455 L87.9827 358.335 L83.0984 358.335 L83.0984 352.455 Z" fill="#000000" fill-rule="nonzero" fill-opacity="1" /><path clip-path="url(#clip570)" d="M102.196 354.399 L118.515 354.399 L118.515 358.335 L96.5706 358.335 L96.5706 354.399 Q99.2326 351.645 103.816 347.015 Q108.422 342.362 109.603 341.02 Q111.848 338.497 112.728 336.761 Q113.631 335.001 113.631 333.311 Q113.631 330.557 111.686 328.821 Q109.765 327.085 106.663 327.085 Q104.464 327.085 102.01 327.849 Q99.5798 328.612 96.8021 330.163 L96.8021 325.441 Q99.6261 324.307 102.08 323.728 Q104.534 323.15 106.571 323.15 Q111.941 323.15 115.135 325.835 Q118.33 328.52 118.33 333.011 Q118.33 335.14 117.52 337.061 Q116.733 338.96 114.626 341.552 Q114.047 342.223 110.946 345.441 Q107.844 348.635 102.196 354.399 Z" fill="#000000" fill-rule="nonzero" fill-opacity="1" /><path clip-path="url(#clip570)" d="M138.33 326.853 Q134.719 326.853 132.89 330.418 Q131.084 333.96 131.084 341.089 Q131.084 348.196 132.89 351.76 Q134.719 355.302 138.33 355.302 Q141.964 355.302 143.769 351.76 Q145.598 348.196 145.598 341.089 Q145.598 333.96 143.769 330.418 Q141.964 326.853 138.33 326.853 M138.33 323.15 Q144.14 323.15 147.195 327.756 Q150.274 332.339 150.274 341.089 Q150.274 349.816 147.195 354.422 Q144.14 359.006 138.33 359.006 Q132.519 359.006 129.441 354.422 Q126.385 349.816 126.385 341.089 Q126.385 332.339 129.441 327.756 Q132.519 323.15 138.33 323.15 Z" fill="#000000" fill-rule="nonzero" fill-opacity="1" /><path clip-path="url(#clip570)" d="M63.9319 48.2316 Q60.3208 48.2316 58.4921 51.7964 Q56.6865 55.338 56.6865 62.4676 Q56.6865 69.5741 58.4921 73.1389 Q60.3208 76.6805 63.9319 76.6805 Q67.5661 76.6805 69.3717 73.1389 Q71.2004 69.5741 71.2004 62.4676 Q71.2004 55.338 69.3717 51.7964 Q67.5661 48.2316 63.9319 48.2316 M63.9319 44.5279 Q69.742 44.5279 72.7976 49.1344 Q75.8763 53.7177 75.8763 62.4676 Q75.8763 71.1944 72.7976 75.8009 Q69.742 80.3842 63.9319 80.3842 Q58.1217 80.3842 55.043 75.8009 Q51.9875 71.1944 51.9875 62.4676 Q51.9875 53.7177 55.043 49.1344 Q58.1217 44.5279 63.9319 44.5279 Z" fill="#000000" fill-rule="nonzero" fill-opacity="1" /><path clip-path="url(#clip570)" d="M84.0938 73.8333 L88.978 73.8333 L88.978 79.7129 L84.0938 79.7129 L84.0938 73.8333 Z" fill="#000000" fill-rule="nonzero" fill-opacity="1" /><path clip-path="url(#clip570)" d="M103.191 75.7778 L119.51 75.7778 L119.51 79.7129 L97.566 79.7129 L97.566 75.7778 Q100.228 73.0231 104.811 68.3935 Q109.418 63.7408 110.598 62.3982 Q112.844 59.8751 113.723 58.139 Q114.626 56.3797 114.626 54.6899 Q114.626 51.9353 112.682 50.1992 Q110.76 48.4631 107.658 48.4631 Q105.459 48.4631 103.006 49.227 Q100.575 49.9909 97.7974 51.5418 L97.7974 46.8196 Q100.621 45.6853 103.075 45.1066 Q105.529 44.5279 107.566 44.5279 Q112.936 44.5279 116.131 47.2131 Q119.325 49.8983 119.325 54.389 Q119.325 56.5186 118.515 58.4399 Q117.728 60.338 115.621 62.9306 Q115.043 63.6019 111.941 66.8195 Q108.839 70.0139 103.191 75.7778 Z" fill="#000000" fill-rule="nonzero" fill-opacity="1" /><path clip-path="url(#clip570)" d="M129.371 45.1529 L147.728 45.1529 L147.728 49.0881 L133.654 49.0881 L133.654 57.5603 Q134.672 57.213 135.691 57.051 Q136.709 56.8658 137.728 56.8658 Q143.515 56.8658 146.894 60.0371 Q150.274 63.2084 150.274 68.625 Q150.274 74.2037 146.802 77.3055 Q143.33 80.3842 137.01 80.3842 Q134.834 80.3842 132.566 80.0138 Q130.32 79.6435 127.913 78.9027 L127.913 74.2037 Q129.996 75.3379 132.219 75.8935 Q134.441 76.449 136.918 76.449 Q140.922 76.449 143.26 74.3426 Q145.598 72.2361 145.598 68.625 Q145.598 65.0139 143.26 62.9075 Q140.922 60.801 136.918 60.801 Q135.043 60.801 133.168 61.2176 Q131.316 61.6343 129.371 62.5139 L129.371 45.1529 Z" fill="#000000" fill-rule="nonzero" fill-opacity="1" /><circle clip-path="url(#clip572)" cx="1410.04" cy="1070.12" r="14.4" fill="#808080" fill-rule="evenodd" fill-opacity="1" stroke="#000000" stroke-opacity="1" stroke-width="3.2"/>
<circle clip-path="url(#clip572)" cx="1307.19" cy="1445.72" r="14.4" fill="#808080" fill-rule="evenodd" fill-opacity="1" stroke="#000000" stroke-opacity="1" stroke-width="3.2"/>
<circle clip-path="url(#clip572)" cx="2291.44" cy="1247.65" r="14.4" fill="#808080" fill-rule="evenodd" fill-opacity="1" stroke="#000000" stroke-opacity="1" stroke-width="3.2"/>
<circle clip-path="url(#clip572)" cx="247.59" cy="87.9763" r="14.4" fill="#808080" fill-rule="evenodd" fill-opacity="1" stroke="#000000" stroke-opacity="1" stroke-width="3.2"/>
<path clip-path="url(#clip570)" d="M1414.33 1077.55 Q1405.3 1077.55 1401.81 1079.62 Q1398.33 1081.69 1398.33 1086.67 Q1398.33 1090.64 1400.92 1092.99 Q1403.56 1095.3 1408.05 1095.3 Q1414.25 1095.3 1417.98 1090.92 Q1421.74 1086.51 1421.74 1079.21 L1421.74 1077.55 L1414.33 1077.55 M1429.2 1074.47 L1429.2 1100.36 L1421.74 1100.36 L1421.74 1093.47 Q1419.19 1097.61 1415.38 1099.59 Q1411.58 1101.53 1406.07 1101.53 Q1399.1 1101.53 1394.97 1097.65 Q1390.88 1093.72 1390.88 1087.15 Q1390.88 1079.5 1395.98 1075.61 Q1401.13 1071.72 1411.29 1071.72 L1421.74 1071.72 L1421.74 1070.99 Q1421.74 1065.85 1418.34 1063.05 Q1414.98 1060.22 1408.86 1060.22 Q1404.97 1060.22 1401.29 1061.15 Q1397.6 1062.08 1394.2 1063.94 L1394.2 1057.06 Q1398.29 1055.48 1402.14 1054.71 Q1405.99 1053.9 1409.63 1053.9 Q1419.48 1053.9 1424.34 1059 Q1429.2 1064.1 1429.2 1074.47 Z" fill="#000000" fill-rule="nonzero" fill-opacity="1" /><path clip-path="url(#clip570)" d="M1319.75 1453.31 Q1319.75 1445.09 1316.34 1440.43 Q1312.98 1435.73 1307.07 1435.73 Q1301.15 1435.73 1297.75 1440.43 Q1294.39 1445.09 1294.39 1453.31 Q1294.39 1461.53 1297.75 1466.23 Q1301.15 1470.89 1307.07 1470.89 Q1312.98 1470.89 1316.34 1466.23 Q1319.75 1461.53 1319.75 1453.31 M1294.39 1437.47 Q1296.74 1433.42 1300.3 1431.48 Q1303.91 1429.49 1308.89 1429.49 Q1317.15 1429.49 1322.3 1436.05 Q1327.48 1442.62 1327.48 1453.31 Q1327.48 1464.01 1322.3 1470.57 Q1317.15 1477.13 1308.89 1477.13 Q1303.91 1477.13 1300.3 1475.19 Q1296.74 1473.2 1294.39 1469.15 L1294.39 1475.96 L1286.89 1475.96 L1286.89 1412.92 L1294.39 1412.92 L1294.39 1437.47 Z" fill="#000000" fill-rule="nonzero" fill-opacity="1" /><path clip-path="url(#clip570)" d="M2309.39 1234.26 L2309.39 1241.23 Q2306.23 1239.48 2303.03 1238.63 Q2299.87 1237.74 2296.63 1237.74 Q2289.37 1237.74 2285.36 1242.36 Q2281.35 1246.94 2281.35 1255.24 Q2281.35 1263.55 2285.36 1268.16 Q2289.37 1272.74 2296.63 1272.74 Q2299.87 1272.74 2303.03 1271.89 Q2306.23 1271 2309.39 1269.26 L2309.39 1276.14 Q2306.27 1277.6 2302.9 1278.33 Q2299.58 1279.06 2295.82 1279.06 Q2285.57 1279.06 2279.53 1272.62 Q2273.49 1266.18 2273.49 1255.24 Q2273.49 1244.14 2279.57 1237.78 Q2285.69 1231.42 2296.3 1231.42 Q2299.74 1231.42 2303.03 1232.15 Q2306.31 1232.84 2309.39 1234.26 Z" fill="#000000" fill-rule="nonzero" fill-opacity="1" /><path clip-path="url(#clip570)" d="M260.411 79.7327 L260.411 55.1842 L267.864 55.1842 L267.864 118.216 L260.411 118.216 L260.411 111.411 Q258.061 115.462 254.456 117.447 Q250.891 119.391 245.868 119.391 Q237.645 119.391 232.459 112.829 Q227.315 106.266 227.315 95.5717 Q227.315 84.8773 232.459 78.3149 Q237.645 71.7524 245.868 71.7524 Q250.891 71.7524 254.456 73.7373 Q258.061 75.6818 260.411 79.7327 M235.011 95.5717 Q235.011 103.795 238.374 108.494 Q241.776 113.153 247.691 113.153 Q253.605 113.153 257.008 108.494 Q260.411 103.795 260.411 95.5717 Q260.411 87.3484 257.008 82.6898 Q253.605 77.9908 247.691 77.9908 Q241.776 77.9908 238.374 82.6898 Q235.011 87.3484 235.011 95.5717 Z" fill="#000000" fill-rule="nonzero" fill-opacity="1" /><path clip-path="url(#clip570)" d="M2011.46 198.898 L2280.54 198.898 L2280.54 95.2176 L2011.46 95.2176  Z" fill="#ffffff" fill-rule="evenodd" fill-opacity="1"/>
<polyline clip-path="url(#clip570)" style="stroke:#000000; stroke-linecap:round; stroke-linejoin:round; stroke-width:4; stroke-opacity:1; fill:none" points="2011.46,198.898 2280.54,198.898 2280.54,95.2176 2011.46,95.2176 2011.46,198.898 "/>
<circle clip-path="url(#clip570)" cx="2107.75" cy="147.058" r="20.48" fill="#808080" fill-rule="evenodd" fill-opacity="1" stroke="#000000" stroke-opacity="1" stroke-width="4.55111"/>
<path clip-path="url(#clip570)" d="M2217.88 166.745 Q2216.07 171.375 2214.36 172.787 Q2212.65 174.199 2209.78 174.199 L2206.38 174.199 L2206.38 170.634 L2208.88 170.634 Q2210.63 170.634 2211.61 169.8 Q2212.58 168.967 2213.76 165.865 L2214.52 163.921 L2204.04 138.412 L2208.55 138.412 L2216.65 158.689 L2224.76 138.412 L2229.27 138.412 L2217.88 166.745 Z" fill="#000000" fill-rule="nonzero" fill-opacity="1" /><path clip-path="url(#clip570)" d="M2236.56 160.402 L2244.2 160.402 L2244.2 134.037 L2235.89 135.703 L2235.89 131.444 L2244.15 129.778 L2248.83 129.778 L2248.83 160.402 L2256.47 160.402 L2256.47 164.338 L2236.56 164.338 L2236.56 160.402 Z" fill="#000000" fill-rule="nonzero" fill-opacity="1" /></svg>
