<?xml version="1.0" encoding="utf-8"?>
<svg xmlns="http://www.w3.org/2000/svg" xmlns:xlink="http://www.w3.org/1999/xlink" width="600" height="400" viewBox="0 0 2400 1600">
<defs>
  <clipPath id="clip320">
    <rect x="0" y="0" width="2400" height="1600"/>
  </clipPath>
</defs>
<path clip-path="url(#clip320)" d="M0 1600 L2400 1600 L2400 0 L0 0  Z" fill="#ffffff" fill-rule="evenodd" fill-opacity="1"/>
<defs>
  <clipPath id="clip321">
    <rect x="156" y="47" width="2198" height="1440"/>
  </clipPath>
</defs>
<path clip-path="url(#clip320)" d="M156.112 1486.45 L2352.76 1486.45 L2352.76 47.2441 L156.112 47.2441  Z" fill="#ffffff" fill-rule="evenodd" fill-opacity="1"/>
<polyline clip-path="url(#clip321)" style="stroke:#000000; stroke-linecap:round; stroke-linejoin:round; stroke-width:2; stroke-opacity:0.1; fill:none" points="482.38,1486.45 482.38,47.2441 "/>
<polyline clip-path="url(#clip321)" style="stroke:#000000; stroke-linecap:round; stroke-linejoin:round; stroke-width:2; stroke-opacity:0.1; fill:none" points="965.265,1486.45 965.265,47.2441 "/>
<polyline clip-path="url(#clip321)" style="stroke:#000000; stroke-linecap:round; stroke-linejoin:round; stroke-width:2; stroke-opacity:0.1; fill:none" points="1448.15,1486.45 1448.15,47.2441 "/>
<polyline clip-path="url(#clip321)" style="stroke:#000000; stroke-linecap:round; stroke-linejoin:round; stroke-width:2; stroke-opacity:0.1; fill:none" points="1931.03,1486.45 1931.03,47.2441 "/>
<polyline clip-path="url(#clip321)" style="stroke:#000000; stroke-linecap:round; stroke-linejoin:round; stroke-width:2; stroke-opacity:0.1; fill:none" points="156.112,1451.49 2352.76,1451.49 "/>
<polyline clip-path="url(#clip321)" style="stroke:#000000; stroke-linecap:round; stroke-linejoin:round; stroke-width:2; stroke-opacity:0.1; fill:none" points="156.112,1046.78 2352.76,1046.78 "/>
<polyline clip-path="url(#clip321)" style="stroke:#000000; stroke-linecap:round; stroke-linejoin:round; stroke-width:2; stroke-opacity:0.1; fill:none" points="156.112,642.058 2352.76,642.058 "/>
<polyline clip-path="url(#clip321)" style="stroke:#000000; stroke-linecap:round; stroke-linejoin:round; stroke-width:2; stroke-opacity:0.1; fill:none" points="156.112,237.34 2352.76,237.34 "/>
<polyline clip-path="url(#clip320)" style="stroke:#000000; stroke-linecap:round; stroke-linejoin:round; stroke-width:4; stroke-opacity:1; fill:none" points="156.112,1486.45 2352.76,1486.45 "/>
<polyline clip-path="url(#clip320)" style="stroke:#000000; stroke-linecap:round; stroke-linejoin:round; stroke-width:4; stroke-opacity:1; fill:none" points="482.38,1486.45 482.38,1467.55 "/>
<polyline clip-path="url(#clip320)" style="stroke:#000000; stroke-linecap:round; stroke-linejoin:round; stroke-width:4; stroke-opacity:1; fill:none" points="965.265,1486.45 965.265,1467.55 "/>
<polyline clip-path="url(#clip320)" style="stroke:#000000; stroke-linecap:round; stroke-linejoin:round; stroke-width:4; stroke-opacity:1; fill:none" points="1448.15,1486.45 1448.15,1467.55 "/>
<polyline clip-path="url(#clip320)" style="stroke:#000000; stroke-linecap:round; stroke-linejoin:round; stroke-width:4; stroke-opacity:1; fill:none" points="1931.03,1486.45 1931.03,1467.55 "/>
<path clip-path="url(#clip320)" d="M428.665 1532.02 L458.341 1532.02 L458.341 1535.95 L428.665 1535.95 L428.665 1532.02 Z" fill="#000000" fill-rule="nonzero" fill-opacity="1" /><path clip-path="url(#clip320)" d="M478.434 1517.37 Q474.823 1517.37 472.994 1520.93 Q471.188 1524.47 471.188 1531.6 Q471.188 1538.71 472.994 1542.27 Q474.823 1545.82 478.434 1545.82 Q482.068 1545.82 483.873 1542.27 Q485.702 1538.71 485.702 1531.6 Q485.702 1524.47 483.873 1520.93 Q482.068 1517.37 478.434 1517.37 M478.434 1513.66 Q484.244 1513.66 487.299 1518.27 Q490.378 1522.85 490.378 1531.6 Q490.378 1540.33 487.299 1544.94 Q484.244 1549.52 478.434 1549.52 Q472.623 1549.52 469.545 1544.94 Q466.489 1540.33 466.489 1531.6 Q466.489 1522.85 469.545 1518.27 Q472.623 1513.66 478.434 1513.66 Z" fill="#000000" fill-rule="nonzero" fill-opacity="1" /><path clip-path="url(#clip320)" d="M498.596 1542.97 L503.48 1542.97 L503.48 1548.85 L498.596 1548.85 L498.596 1542.97 Z" fill="#000000" fill-rule="nonzero" fill-opacity="1" /><path clip-path="url(#clip320)" d="M526.512 1518.36 L514.707 1536.81 L526.512 1536.81 L526.512 1518.36 M525.285 1514.29 L531.165 1514.29 L531.165 1536.81 L536.095 1536.81 L536.095 1540.7 L531.165 1540.7 L531.165 1548.85 L526.512 1548.85 L526.512 1540.7 L510.91 1540.7 L510.91 1536.19 L525.285 1514.29 Z" fill="#000000" fill-rule="nonzero" fill-opacity="1" /><path clip-path="url(#clip320)" d="M912.591 1532.02 L942.267 1532.02 L942.267 1535.95 L912.591 1535.95 L912.591 1532.02 Z" fill="#000000" fill-rule="nonzero" fill-opacity="1" /><path clip-path="url(#clip320)" d="M962.36 1517.37 Q958.749 1517.37 956.92 1520.93 Q955.114 1524.47 955.114 1531.6 Q955.114 1538.71 956.92 1542.27 Q958.749 1545.82 962.36 1545.82 Q965.994 1545.82 967.799 1542.27 Q969.628 1538.71 969.628 1531.6 Q969.628 1524.47 967.799 1520.93 Q965.994 1517.37 962.36 1517.37 M962.36 1513.66 Q968.17 1513.66 971.225 1518.27 Q974.304 1522.85 974.304 1531.6 Q974.304 1540.33 971.225 1544.94 Q968.17 1549.52 962.36 1549.52 Q956.549 1549.52 953.471 1544.94 Q950.415 1540.33 950.415 1531.6 Q950.415 1522.85 953.471 1518.27 Q956.549 1513.66 962.36 1513.66 Z" fill="#000000" fill-rule="nonzero" fill-opacity="1" /><path clip-path="url(#clip320)" d="M982.522 1542.97 L987.406 1542.97 L987.406 1548.85 L982.522 1548.85 L982.522 1542.97 Z" fill="#000000" fill-rule="nonzero" fill-opacity="1" /><path clip-path="url(#clip320)" d="M1001.62 1544.91 L1017.94 1544.91 L1017.94 1548.85 L995.994 1548.85 L995.994 1544.91 Q998.656 1542.16 1003.24 1537.53 Q1007.85 1532.88 1009.03 1531.53 Q1011.27 1529.01 1012.15 1527.27 Q1013.05 1525.51 1013.05 1523.82 Q1013.05 1521.07 1011.11 1519.33 Q1009.19 1517.6 1006.09 1517.6 Q1003.89 1517.6 1001.43 1518.36 Q999.003 1519.13 996.225 1520.68 L996.225 1515.95 Q999.049 1514.82 1001.5 1514.24 Q1003.96 1513.66 1005.99 1513.66 Q1011.36 1513.66 1014.56 1516.35 Q1017.75 1519.03 1017.75 1523.52 Q1017.75 1525.65 1016.94 1527.57 Q1016.16 1529.47 1014.05 1532.07 Q1013.47 1532.74 1010.37 1535.95 Q1007.27 1539.15 1001.62 1544.91 Z" fill="#000000" fill-rule="nonzero" fill-opacity="1" /><path clip-path="url(#clip320)" d="M1425.53 1517.37 Q1421.92 1517.37 1420.09 1520.93 Q1418.29 1524.47 1418.29 1531.6 Q1418.29 1538.71 1420.09 1542.27 Q1421.92 1545.82 1425.53 1545.82 Q1429.17 1545.82 1430.97 1542.27 Q1432.8 1538.71 1432.8 1531.6 Q1432.8 1524.47 1430.97 1520.93 Q1429.17 1517.37 1425.53 1517.37 M1425.53 1513.66 Q1431.34 1513.66 1434.4 1518.27 Q1437.48 1522.85 1437.48 1531.6 Q1437.48 1540.33 1434.4 1544.94 Q1431.34 1549.52 1425.53 1549.52 Q1419.72 1549.52 1416.64 1544.94 Q1413.59 1540.33 1413.59 1531.6 Q1413.59 1522.85 1416.64 1518.27 Q1419.72 1513.66 1425.53 1513.66 Z" fill="#000000" fill-rule="nonzero" fill-opacity="1" /><path clip-path="url(#clip320)" d="M1445.7 1542.97 L1450.58 1542.97 L1450.58 1548.85 L1445.7 1548.85 L1445.7 1542.97 Z" fill="#000000" fill-rule="nonzero" fill-opacity="1" /><path clip-path="url(#clip320)" d="M1470.76 1517.37 Q1467.15 1517.37 1465.32 1520.93 Q1463.52 1524.47 1463.52 1531.6 Q1463.52 1538.71 1465.32 1542.27 Q1467.15 1545.82 1470.76 1545.82 Q1474.4 1545.82 1476.2 1542.27 Q1478.03 1538.71 1478.03 1531.6 Q1478.03 1524.47 1476.2 1520.93 Q1474.4 1517.37 1470.76 1517.37 M1470.76 1513.66 Q1476.57 1513.66 1479.63 1518.27 Q1482.71 1522.85 1482.71 1531.6 Q1482.71 1540.33 1479.63 1544.94 Q1476.57 1549.52 1470.76 1549.52 Q1464.95 1549.52 1461.88 1544.94 Q1458.82 1540.33 1458.82 1531.6 Q1458.82 1522.85 1461.88 1518.27 Q1464.95 1513.66 1470.76 1513.66 Z" fill="#000000" fill-rule="nonzero" fill-opacity="1" /><path clip-path="url(#clip320)" d="M1909.22 1517.37 Q1905.61 1517.37 1903.78 1520.93 Q1901.97 1524.47 1901.97 1531.6 Q1901.97 1538.71 1903.78 1542.27 Q1905.61 1545.82 1909.22 1545.82 Q1912.85 1545.82 1914.66 1542.27 Q1916.48 1538.71 1916.48 1531.6 Q1916.48 1524.47 1914.66 1520.93 Q1912.85 1517.37 1909.22 1517.37 M1909.22 1513.66 Q1915.03 1513.66 1918.08 1518.27 Q1921.16 1522.85 1921.16 1531.6 Q1921.16 1540.33 1918.08 1544.94 Q1915.03 1549.52 1909.22 1549.52 Q1903.41 1549.52 1900.33 1544.94 Q1897.27 1540.33 1897.27 1531.6 Q1897.27 1522.85 1900.33 1518.27 Q1903.41 1513.66 1909.22 1513.66 Z" fill="#000000" fill-rule="nonzero" fill-opacity="1" /><path clip-path="url(#clip320)" d="M1929.38 1542.97 L1934.26 1542.97 L1934.26 1548.85 L1929.38 1548.85 L1929.38 1542.97 Z" fill="#000000" fill-rule="nonzero" fill-opacity="1" /><path clip-path="url(#clip320)" d="M1948.48 1544.91 L1964.79 1544.91 L1964.79 1548.85 L1942.85 1548.85 L1942.85 1544.91 Q1945.51 1542.16 1950.1 1537.53 Q1954.7 1532.88 1955.88 1531.53 Q1958.13 1529.01 1959.01 1527.27 Q1959.91 1525.51 1959.91 1523.82 Q1959.91 1521.07 1957.97 1519.33 Q1956.04 1517.6 1952.94 1517.6 Q1950.74 1517.6 1948.29 1518.36 Q1945.86 1519.13 1943.08 1520.68 L1943.08 1515.95 Q1945.91 1514.82 1948.36 1514.24 Q1950.81 1513.66 1952.85 1513.66 Q1958.22 1513.66 1961.42 1516.35 Q1964.61 1519.03 1964.61 1523.52 Q1964.61 1525.65 1963.8 1527.57 Q1963.01 1529.47 1960.91 1532.07 Q1960.33 1532.74 1957.23 1535.95 Q1954.12 1539.15 1948.48 1544.91 Z" fill="#000000" fill-rule="nonzero" fill-opacity="1" /><polyline clip-path="url(#clip320)" style="stroke:#000000; stroke-linecap:round; stroke-linejoin:round; stroke-width:4; stroke-opacity:1; fill:none" points="156.112,1486.45 156.112,47.2441 "/>
<polyline clip-path="url(#clip320)" style="stroke:#000000; stroke-linecap:round; stroke-linejoin:round; stroke-width:4; stroke-opacity:1; fill:none" points="156.112,1451.49 175.01,1451.49 "/>
<polyline clip-path="url(#clip320)" style="stroke:#000000; stroke-linecap:round; stroke-linejoin:round; stroke-width:4; stroke-opacity:1; fill:none" points="156.112,1046.78 175.01,1046.78 "/>
<polyline clip-path="url(#clip320)" style="stroke:#000000; stroke-linecap:round; stroke-linejoin:round; stroke-width:4; stroke-opacity:1; fill:none" points="156.112,642.058 175.01,642.058 "/>
<polyline clip-path="url(#clip320)" style="stroke:#000000; stroke-linecap:round; stroke-linejoin:round; stroke-width:4; stroke-opacity:1; fill:none" points="156.112,237.34 175.01,237.34 "/>
<path clip-path="url(#clip320)" d="M62.9365 1437.29 Q59.3254 1437.29 57.4967 1440.86 Q55.6912 1444.4 55.6912 1451.53 Q55.6912 1458.64 57.4967 1462.2 Q59.3254 1465.74 62.9365 1465.74 Q66.5707 1465.74 68.3763 1462.2 Q70.205 1458.64 70.205 1451.53 Q70.205 1444.4 68.3763 1440.86 Q66.5707 1437.29 62.9365 1437.29 M62.9365 1433.59 Q68.7467 1433.59 71.8022 1438.2 Q74.8809 1442.78 74.8809 1451.53 Q74.8809 1460.26 71.8022 1464.86 Q68.7467 1469.45 62.9365 1469.45 Q57.1264 1469.45 54.0477 1464.86 Q50.9921 1460.26 50.9921 1451.53 Q50.9921 1442.78 54.0477 1438.2 Q57.1264 1433.59 62.9365 1433.59 Z" fill="#000000" fill-rule="nonzero" fill-opacity="1" /><path clip-path="url(#clip320)" d="M83.0984 1462.9 L87.9827 1462.9 L87.9827 1468.77 L83.0984 1468.77 L83.0984 1462.9 Z" fill="#000000" fill-rule="nonzero" fill-opacity="1" /><path clip-path="url(#clip320)" d="M108.168 1437.29 Q104.557 1437.29 102.728 1440.86 Q100.922 1444.4 100.922 1451.53 Q100.922 1458.64 102.728 1462.2 Q104.557 1465.74 108.168 1465.74 Q111.802 1465.74 113.608 1462.2 Q115.436 1458.64 115.436 1451.53 Q115.436 1444.4 113.608 1440.86 Q111.802 1437.29 108.168 1437.29 M108.168 1433.59 Q113.978 1433.59 117.033 1438.2 Q120.112 1442.78 120.112 1451.53 Q120.112 1460.26 117.033 1464.86 Q113.978 1469.45 108.168 1469.45 Q102.358 1469.45 99.2789 1464.86 Q96.2234 1460.26 96.2234 1451.53 Q96.2234 1442.78 99.2789 1438.2 Q102.358 1433.59 108.168 1433.59 Z" fill="#000000" fill-rule="nonzero" fill-opacity="1" /><path clip-path="url(#clip320)" d="M64.1634 1032.58 Q60.5523 1032.58 58.7236 1036.14 Q56.918 1039.68 56.918 1046.81 Q56.918 1053.92 58.7236 1057.48 Q60.5523 1061.02 64.1634 1061.02 Q67.7976 1061.02 69.6031 1057.48 Q71.4318 1053.92 71.4318 1046.81 Q71.4318 1039.68 69.6031 1036.14 Q67.7976 1032.58 64.1634 1032.58 M64.1634 1028.87 Q69.9735 1028.87 73.029 1033.48 Q76.1077 1038.06 76.1077 1046.81 Q76.1077 1055.54 73.029 1060.14 Q69.9735 1064.73 64.1634 1064.73 Q58.3532 1064.73 55.2745 1060.14 Q52.219 1055.54 52.219 1046.81 Q52.219 1038.06 55.2745 1033.48 Q58.3532 1028.87 64.1634 1028.87 Z" fill="#000000" fill-rule="nonzero" fill-opacity="1" /><path clip-path="url(#clip320)" d="M84.3253 1058.18 L89.2095 1058.18 L89.2095 1064.06 L84.3253 1064.06 L84.3253 1058.18 Z" fill="#000000" fill-rule="nonzero" fill-opacity="1" /><path clip-path="url(#clip320)" d="M100.205 1060.12 L107.844 1060.12 L107.844 1033.76 L99.5335 1035.42 L99.5335 1031.16 L107.797 1029.5 L112.473 1029.5 L112.473 1060.12 L120.112 1060.12 L120.112 1064.06 L100.205 1064.06 L100.205 1060.12 Z" fill="#000000" fill-rule="nonzero" fill-opacity="1" /><path clip-path="url(#clip320)" d="M64.5337 627.857 Q60.9226 627.857 59.0939 631.422 Q57.2884 634.963 57.2884 642.093 Q57.2884 649.199 59.0939 652.764 Q60.9226 656.306 64.5337 656.306 Q68.168 656.306 69.9735 652.764 Q71.8022 649.199 71.8022 642.093 Q71.8022 634.963 69.9735 631.422 Q68.168 627.857 64.5337 627.857 M64.5337 624.153 Q70.3439 624.153 73.3994 628.76 Q76.4781 633.343 76.4781 642.093 Q76.4781 650.82 73.3994 655.426 Q70.3439 660.01 64.5337 660.01 Q58.7236 660.01 55.6449 655.426 Q52.5893 650.82 52.5893 642.093 Q52.5893 633.343 55.6449 628.76 Q58.7236 624.153 64.5337 624.153 Z" fill="#000000" fill-rule="nonzero" fill-opacity="1" /><path clip-path="url(#clip320)" d="M84.6956 653.459 L89.5799 653.459 L89.5799 659.338 L84.6956 659.338 L84.6956 653.459 Z" fill="#000000" fill-rule="nonzero" fill-opacity="1" /><path clip-path="url(#clip320)" d="M103.793 655.403 L120.112 655.403 L120.112 659.338 L98.1678 659.338 L98.1678 655.403 Q100.83 652.648 105.413 648.019 Q110.02 643.366 111.2 642.024 Q113.445 639.5 114.325 637.764 Q115.228 636.005 115.228 634.315 Q115.228 631.561 113.283 629.824 Q111.362 628.088 108.26 628.088 Q106.061 628.088 103.608 628.852 Q101.177 629.616 98.3993 631.167 L98.3993 626.445 Q101.223 625.311 103.677 624.732 Q106.131 624.153 108.168 624.153 Q113.538 624.153 116.733 626.838 Q119.927 629.524 119.927 634.014 Q119.927 636.144 119.117 638.065 Q118.33 639.963 116.223 642.556 Q115.645 643.227 112.543 646.445 Q109.441 649.639 103.793 655.403 Z" fill="#000000" fill-rule="nonzero" fill-opacity="1" /><path clip-path="url(#clip320)" d="M63.5847 223.139 Q59.9736 223.139 58.1449 226.703 Q56.3393 230.245 56.3393 237.375 Q56.3393 244.481 58.1449 248.046 Q59.9736 251.588 63.5847 251.588 Q67.2189 251.588 69.0244 248.046 Q70.8531 244.481 70.8531 237.375 Q70.8531 230.245 69.0244 226.703 Q67.2189 223.139 63.5847 223.139 M63.5847 219.435 Q69.3948 219.435 72.4503 224.041 Q75.529 228.625 75.529 237.375 Q75.529 246.101 72.4503 250.708 Q69.3948 255.291 63.5847 255.291 Q57.7745 255.291 54.6958 250.708 Q51.6403 246.101 51.6403 237.375 Q51.6403 228.625 54.6958 224.041 Q57.7745 219.435 63.5847 219.435 Z" fill="#000000" fill-rule="nonzero" fill-opacity="1" /><path clip-path="url(#clip320)" d="M83.7466 248.74 L88.6308 248.74 L88.6308 254.62 L83.7466 254.62 L83.7466 248.74 Z" fill="#000000" fill-rule="nonzero" fill-opacity="1" /><path clip-path="url(#clip320)" d="M112.983 235.986 Q116.339 236.703 118.214 238.972 Q120.112 241.24 120.112 244.574 Q120.112 249.689 116.594 252.49 Q113.075 255.291 106.594 255.291 Q104.418 255.291 102.103 254.851 Q99.8113 254.435 97.3576 253.578 L97.3576 249.064 Q99.3021 250.199 101.617 250.777 Q103.932 251.356 106.455 251.356 Q110.853 251.356 113.145 249.62 Q115.459 247.884 115.459 244.574 Q115.459 241.518 113.307 239.805 Q111.177 238.069 107.358 238.069 L103.33 238.069 L103.33 234.227 L107.543 234.227 Q110.992 234.227 112.82 232.861 Q114.649 231.472 114.649 228.879 Q114.649 226.217 112.751 224.805 Q110.876 223.37 107.358 223.37 Q105.436 223.37 103.237 223.787 Q101.038 224.203 98.3993 225.083 L98.3993 220.916 Q101.061 220.176 103.376 219.805 Q105.714 219.435 107.774 219.435 Q113.098 219.435 116.2 221.865 Q119.302 224.273 119.302 228.393 Q119.302 231.264 117.658 233.254 Q116.015 235.222 112.983 235.986 Z" fill="#000000" fill-rule="nonzero" fill-opacity="1" /><circle clip-path="url(#clip321)" cx="1508.89" cy="1370.24" r="14.4" fill="#808080" fill-rule="evenodd" fill-opacity="1" stroke="#000000" stroke-opacity="1" stroke-width="3.2"/>
<circle clip-path="url(#clip321)" cx="1404.15" cy="1445.72" r="14.4" fill="#808080" fill-rule="evenodd" fill-opacity="1" stroke="#000000" stroke-opacity="1" stroke-width="3.2"/>
<circle clip-path="url(#clip321)" cx="2290.59" cy="1314.9" r="14.4" fill="#808080" fill-rule="evenodd" fill-opacity="1" stroke="#000000" stroke-opacity="1" stroke-width="3.2"/>
<circle clip-path="url(#clip321)" cx="218.281" cy="87.9763" r="14.4" fill="#808080" fill-rule="evenodd" fill-opacity="1" stroke="#000000" stroke-opacity="1" stroke-width="3.2"/>
<path clip-path="url(#clip320)" d="M1513.18 1377.68 Q1504.15 1377.68 1500.67 1379.74 Q1497.18 1381.81 1497.18 1386.79 Q1497.18 1390.76 1499.78 1393.11 Q1502.41 1395.42 1506.91 1395.42 Q1513.1 1395.42 1516.83 1391.05 Q1520.6 1386.63 1520.6 1379.34 L1520.6 1377.68 L1513.18 1377.68 M1528.05 1374.6 L1528.05 1400.48 L1520.6 1400.48 L1520.6 1393.6 Q1518.05 1397.73 1514.24 1399.72 Q1510.43 1401.66 1504.92 1401.66 Q1497.95 1401.66 1493.82 1397.77 Q1489.73 1393.84 1489.73 1387.28 Q1489.73 1379.62 1494.83 1375.73 Q1499.98 1371.85 1510.15 1371.85 L1520.6 1371.85 L1520.6 1371.12 Q1520.6 1365.97 1517.2 1363.18 Q1513.83 1360.34 1507.72 1360.34 Q1503.83 1360.34 1500.14 1361.27 Q1496.45 1362.2 1493.05 1364.07 L1493.05 1357.18 Q1497.14 1355.6 1500.99 1354.83 Q1504.84 1354.02 1508.49 1354.02 Q1518.33 1354.02 1523.19 1359.13 Q1528.05 1364.23 1528.05 1374.6 Z" fill="#000000" fill-rule="nonzero" fill-opacity="1" /><path clip-path="url(#clip320)" d="M1416.71 1453.31 Q1416.71 1445.09 1413.3 1440.43 Q1409.94 1435.73 1404.03 1435.73 Q1398.11 1435.73 1394.71 1440.43 Q1391.35 1445.09 1391.35 1453.31 Q1391.35 1461.53 1394.71 1466.23 Q1398.11 1470.89 1404.03 1470.89 Q1409.94 1470.89 1413.3 1466.23 Q1416.71 1461.53 1416.71 1453.31 M1391.35 1437.47 Q1393.7 1433.42 1397.26 1431.48 Q1400.87 1429.49 1405.85 1429.49 Q1414.11 1429.49 1419.26 1436.05 Q1424.44 1442.62 1424.44 1453.31 Q1424.44 1464.01 1419.26 1470.57 Q1414.11 1477.13 1405.85 1477.13 Q1400.87 1477.13 1397.26 1475.19 Q1393.7 1473.2 1391.35 1469.15 L1391.35 1475.96 L1383.85 1475.96 L1383.85 1412.92 L1391.35 1412.92 L1391.35 1437.47 Z" fill="#000000" fill-rule="nonzero" fill-opacity="1" /><path clip-path="url(#clip320)" d="M2308.53 1301.51 L2308.53 1308.48 Q2305.37 1306.74 2302.17 1305.89 Q2299.01 1305 2295.77 1305 Q2288.52 1305 2284.51 1309.61 Q2280.5 1314.19 2280.5 1322.5 Q2280.5 1330.8 2284.51 1335.42 Q2288.52 1340 2295.77 1340 Q2299.01 1340 2302.17 1339.15 Q2305.37 1338.25 2308.53 1336.51 L2308.53 1343.4 Q2305.41 1344.86 2302.05 1345.59 Q2298.73 1346.32 2294.96 1346.32 Q2284.71 1346.32 2278.68 1339.87 Q2272.64 1333.43 2272.64 1322.5 Q2272.64 1311.4 2278.72 1305.04 Q2284.83 1298.68 2295.45 1298.68 Q2298.89 1298.68 2302.17 1299.41 Q2305.45 1300.09 2308.53 1301.51 Z" fill="#000000" fill-rule="nonzero" fill-opacity="1" /><path clip-path="url(#clip320)" d="M231.102 79.7327 L231.102 55.1842 L238.556 55.1842 L238.556 118.216 L231.102 118.216 L231.102 111.411 Q228.753 115.462 225.148 117.447 Q221.583 119.391 216.56 119.391 Q208.336 119.391 203.151 112.829 Q198.007 106.266 198.007 95.5717 Q198.007 84.8773 203.151 78.3149 Q208.336 71.7524 216.56 71.7524 Q221.583 71.7524 225.148 73.7373 Q228.753 75.6818 231.102 79.7327 M205.703 95.5717 Q205.703 103.795 209.065 108.494 Q212.468 113.153 218.383 113.153 Q224.297 113.153 227.7 108.494 Q231.102 103.795 231.102 95.5717 Q231.102 87.3484 227.7 82.6898 Q224.297 77.9908 218.383 77.9908 Q212.468 77.9908 209.065 82.6898 Q205.703 87.3484 205.703 95.5717 Z" fill="#000000" fill-rule="nonzero" fill-opacity="1" /><path clip-path="url(#clip320)" d="M2007.44 198.898 L2279.53 198.898 L2279.53 95.2176 L2007.44 95.2176  Z" fill="#ffffff" fill-rule="evenodd" fill-opacity="1"/>
<polyline clip-path="url(#clip320)" style="stroke:#000000; stroke-linecap:round; stroke-linejoin:round; stroke-width:4; stroke-opacity:1; fill:none" points="2007.44,198.898 2279.53,198.898 2279.53,95.2176 2007.44,95.2176 2007.44,198.898 "/>
<circle clip-path="url(#clip320)" cx="2105.07" cy="147.058" r="20.48" fill="#808080" fill-rule="evenodd" fill-opacity="1" stroke="#000000" stroke-opacity="1" stroke-width="4.55111"/>
<path clip-path="url(#clip320)" d="M2216.54 166.745 Q2214.73 171.375 2213.02 172.787 Q2211.31 174.199 2208.44 174.199 L2205.03 174.199 L2205.03 170.634 L2207.53 170.634 Q2209.29 170.634 2210.27 169.8 Q2211.24 168.967 2212.42 165.865 L2213.18 163.921 L2202.7 138.412 L2207.21 138.412 L2215.31 158.689 L2223.41 138.412 L2227.93 138.412 L2216.54 166.745 Z" fill="#000000" fill-rule="nonzero" fill-opacity="1" /><path clip-path="url(#clip320)" d="M2235.22 160.402 L2242.86 160.402 L2242.86 134.037 L2234.55 135.703 L2234.55 131.444 L2242.81 129.778 L2247.49 129.778 L2247.49 160.402 L2255.13 160.402 L2255.13 164.338 L2235.22 164.338 L2235.22 160.402 Z" fill="#000000" fill-rule="nonzero" fill-opacity="1" /></svg>
