<?xml version="1.0" encoding="utf-8"?>
<svg xmlns="http://www.w3.org/2000/svg" xmlns:xlink="http://www.w3.org/1999/xlink" width="600" height="400" viewBox="0 0 2400 1600">
<defs>
  <clipPath id="clip350">
    <rect x="0" y="0" width="2400" height="1600"/>
  </clipPath>
</defs>
<path clip-path="url(#clip350)" d="M0 1600 L2400 1600 L2400 0 L0 0  Z" fill="#ffffff" fill-rule="evenodd" fill-opacity="1"/>
<defs>
  <clipPath id="clip351">
    <rect x="112" y="47" width="2242" height="1440"/>
  </clipPath>
</defs>
<path clip-path="url(#clip350)" d="M112.177 1486.45 L2352.76 1486.45 L2352.76 47.2441 L112.177 47.2441  Z" fill="#ffffff" fill-rule="evenodd" fill-opacity="1"/>
<polyline clip-path="url(#clip351)" style="stroke:#000000; stroke-linecap:round; stroke-linejoin:round; stroke-width:2; stroke-opacity:0.1; fill:none" points="200.069,1486.45 200.069,47.2441 "/>
<polyline clip-path="url(#clip351)" style="stroke:#000000; stroke-linecap:round; stroke-linejoin:round; stroke-width:2; stroke-opacity:0.1; fill:none" points="647.437,1486.45 647.437,47.2441 "/>
<polyline clip-path="url(#clip351)" style="stroke:#000000; stroke-linecap:round; stroke-linejoin:round; stroke-width:2; stroke-opacity:0.1; fill:none" points="1094.81,1486.45 1094.81,47.2441 "/>
<polyline clip-path="url(#clip351)" style="stroke:#000000; stroke-linecap:round; stroke-linejoin:round; stroke-width:2; stroke-opacity:0.1; fill:none" points="1542.17,1486.45 1542.17,47.2441 "/>
<polyline clip-path="url(#clip351)" style="stroke:#000000; stroke-linecap:round; stroke-linejoin:round; stroke-width:2; stroke-opacity:0.1; fill:none" points="1989.54,1486.45 1989.54,47.2441 "/>
<polyline clip-path="url(#clip351)" style="stroke:#000000; stroke-linecap:round; stroke-linejoin:round; stroke-width:2; stroke-opacity:0.1; fill:none" points="112.177,1482.48 2352.76,1482.48 "/>
<polyline clip-path="url(#clip351)" style="stroke:#000000; stroke-linecap:round; stroke-linejoin:round; stroke-width:2; stroke-opacity:0.1; fill:none" points="112.177,1177 2352.76,1177 "/>
<polyline clip-path="url(#clip351)" style="stroke:#000000; stroke-linecap:round; stroke-linejoin:round; stroke-width:2; stroke-opacity:0.1; fill:none" points="112.177,871.509 2352.76,871.509 "/>
<polyline clip-path="url(#clip351)" style="stroke:#000000; stroke-linecap:round; stroke-linejoin:round; stroke-width:2; stroke-opacity:0.1; fill:none" points="112.177,566.022 2352.76,566.022 "/>
<polyline clip-path="url(#clip351)" style="stroke:#000000; stroke-linecap:round; stroke-linejoin:round; stroke-width:2; stroke-opacity:0.1; fill:none" points="112.177,260.535 2352.76,260.535 "/>
<polyline clip-path="url(#clip350)" style="stroke:#000000; stroke-linecap:round; stroke-linejoin:round; stroke-width:4; stroke-opacity:1; fill:none" points="112.177,1486.45 2352.76,1486.45 "/>
<polyline clip-path="url(#clip350)" style="stroke:#000000; stroke-linecap:round; stroke-linejoin:round; stroke-width:4; stroke-opacity:1; fill:none" points="200.069,1486.45 200.069,1467.55 "/>
<polyline clip-path="url(#clip350)" style="stroke:#000000; stroke-linecap:round; stroke-linejoin:round; stroke-width:4; stroke-opacity:1; fill:none" points="647.437,1486.45 647.437,1467.55 "/>
<polyline clip-path="url(#clip350)" style="stroke:#000000; stroke-linecap:round; stroke-linejoin:round; stroke-width:4; stroke-opacity:1; fill:none" points="1094.81,1486.45 1094.81,1467.55 "/>
<polyline clip-path="url(#clip350)" style="stroke:#000000; stroke-linecap:round; stroke-linejoin:round; stroke-width:4; stroke-opacity:1; fill:none" points="1542.17,1486.45 1542.17,1467.55 "/>
<polyline clip-path="url(#clip350)" style="stroke:#000000; stroke-linecap:round; stroke-linejoin:round; stroke-width:4; stroke-opacity:1; fill:none" points="1989.54,1486.45 1989.54,1467.55 "/>
<path clip-path="url(#clip350)" d="M147.095 1532.02 L176.771 1532.02 L176.771 1535.95 L147.095 1535.95 L147.095 1532.02 Z" fill="#000000" fill-rule="nonzero" fill-opacity="1" /><path clip-path="url(#clip350)" d="M187.674 1544.91 L195.313 1544.91 L195.313 1518.55 L187.002 1520.21 L187.002 1515.95 L195.266 1514.29 L199.942 1514.29 L199.942 1544.91 L207.581 1544.91 L207.581 1548.85 L187.674 1548.85 L187.674 1544.91 Z" fill="#000000" fill-rule="nonzero" fill-opacity="1" /><path clip-path="url(#clip350)" d="M217.025 1542.97 L221.91 1542.97 L221.91 1548.85 L217.025 1548.85 L217.025 1542.97 Z" fill="#000000" fill-rule="nonzero" fill-opacity="1" /><path clip-path="url(#clip350)" d="M232.141 1514.29 L250.497 1514.29 L250.497 1518.22 L236.423 1518.22 L236.423 1526.7 Q237.442 1526.35 238.46 1526.19 Q239.479 1526 240.498 1526 Q246.285 1526 249.664 1529.17 Q253.044 1532.34 253.044 1537.76 Q253.044 1543.34 249.572 1546.44 Q246.099 1549.52 239.78 1549.52 Q237.604 1549.52 235.336 1549.15 Q233.09 1548.78 230.683 1548.04 L230.683 1543.34 Q232.766 1544.47 234.988 1545.03 Q237.21 1545.58 239.687 1545.58 Q243.692 1545.58 246.03 1543.48 Q248.368 1541.37 248.368 1537.76 Q248.368 1534.15 246.03 1532.04 Q243.692 1529.94 239.687 1529.94 Q237.812 1529.94 235.937 1530.35 Q234.086 1530.77 232.141 1531.65 L232.141 1514.29 Z" fill="#000000" fill-rule="nonzero" fill-opacity="1" /><path clip-path="url(#clip350)" d="M593.965 1532.02 L623.641 1532.02 L623.641 1535.95 L593.965 1535.95 L593.965 1532.02 Z" fill="#000000" fill-rule="nonzero" fill-opacity="1" /><path clip-path="url(#clip350)" d="M634.544 1544.91 L642.183 1544.91 L642.183 1518.55 L633.873 1520.21 L633.873 1515.95 L642.136 1514.29 L646.812 1514.29 L646.812 1544.91 L654.451 1544.91 L654.451 1548.85 L634.544 1548.85 L634.544 1544.91 Z" fill="#000000" fill-rule="nonzero" fill-opacity="1" /><path clip-path="url(#clip350)" d="M663.896 1542.97 L668.78 1542.97 L668.78 1548.85 L663.896 1548.85 L663.896 1542.97 Z" fill="#000000" fill-rule="nonzero" fill-opacity="1" /><path clip-path="url(#clip350)" d="M688.965 1517.37 Q685.354 1517.37 683.525 1520.93 Q681.72 1524.47 681.72 1531.6 Q681.72 1538.71 683.525 1542.27 Q685.354 1545.82 688.965 1545.82 Q692.599 1545.82 694.405 1542.27 Q696.233 1538.71 696.233 1531.6 Q696.233 1524.47 694.405 1520.93 Q692.599 1517.37 688.965 1517.37 M688.965 1513.66 Q694.775 1513.66 697.831 1518.27 Q700.909 1522.85 700.909 1531.6 Q700.909 1540.33 697.831 1544.94 Q694.775 1549.52 688.965 1549.52 Q683.155 1549.52 680.076 1544.94 Q677.021 1540.33 677.021 1531.6 Q677.021 1522.85 680.076 1518.27 Q683.155 1513.66 688.965 1513.66 Z" fill="#000000" fill-rule="nonzero" fill-opacity="1" /><path clip-path="url(#clip350)" d="M1041.83 1532.02 L1071.51 1532.02 L1071.51 1535.95 L1041.83 1535.95 L1041.83 1532.02 Z" fill="#000000" fill-rule="nonzero" fill-opacity="1" /><path clip-path="url(#clip350)" d="M1091.6 1517.37 Q1087.99 1517.37 1086.16 1520.93 Q1084.35 1524.47 1084.35 1531.6 Q1084.35 1538.71 1086.16 1542.27 Q1087.99 1545.82 1091.6 1545.82 Q1095.23 1545.82 1097.04 1542.27 Q1098.87 1538.71 1098.87 1531.6 Q1098.87 1524.47 1097.04 1520.93 Q1095.23 1517.37 1091.6 1517.37 M1091.6 1513.66 Q1097.41 1513.66 1100.46 1518.27 Q1103.54 1522.85 1103.54 1531.6 Q1103.54 1540.33 1100.46 1544.94 Q1097.41 1549.52 1091.6 1549.52 Q1085.79 1549.52 1082.71 1544.94 Q1079.65 1540.33 1079.65 1531.6 Q1079.65 1522.85 1082.71 1518.27 Q1085.79 1513.66 1091.6 1513.66 Z" fill="#000000" fill-rule="nonzero" fill-opacity="1" /><path clip-path="url(#clip350)" d="M1111.76 1542.97 L1116.65 1542.97 L1116.65 1548.85 L1111.76 1548.85 L1111.76 1542.97 Z" fill="#000000" fill-rule="nonzero" fill-opacity="1" /><path clip-path="url(#clip350)" d="M1126.88 1514.29 L1145.23 1514.29 L1145.23 1518.22 L1131.16 1518.22 L1131.16 1526.7 Q1132.18 1526.35 1133.2 1526.19 Q1134.21 1526 1135.23 1526 Q1141.02 1526 1144.4 1529.17 Q1147.78 1532.34 1147.78 1537.76 Q1147.78 1543.34 1144.31 1546.44 Q1140.84 1549.52 1134.52 1549.52 Q1132.34 1549.52 1130.07 1549.15 Q1127.83 1548.78 1125.42 1548.04 L1125.42 1543.34 Q1127.5 1544.47 1129.72 1545.03 Q1131.95 1545.58 1134.42 1545.58 Q1138.43 1545.58 1140.77 1543.48 Q1143.1 1541.37 1143.1 1537.76 Q1143.1 1534.15 1140.77 1532.04 Q1138.43 1529.94 1134.42 1529.94 Q1132.55 1529.94 1130.67 1530.35 Q1128.82 1530.77 1126.88 1531.65 L1126.88 1514.29 Z" fill="#000000" fill-rule="nonzero" fill-opacity="1" /><path clip-path="url(#clip350)" d="M1519.56 1517.37 Q1515.95 1517.37 1514.12 1520.93 Q1512.31 1524.47 1512.31 1531.6 Q1512.31 1538.71 1514.12 1542.27 Q1515.95 1545.82 1519.56 1545.82 Q1523.19 1545.82 1525 1542.27 Q1526.83 1538.71 1526.83 1531.6 Q1526.83 1524.47 1525 1520.93 Q1523.19 1517.37 1519.56 1517.37 M1519.56 1513.66 Q1525.37 1513.66 1528.42 1518.27 Q1531.5 1522.85 1531.5 1531.6 Q1531.5 1540.33 1528.42 1544.94 Q1525.37 1549.52 1519.56 1549.52 Q1513.75 1549.52 1510.67 1544.94 Q1507.61 1540.33 1507.61 1531.6 Q1507.61 1522.85 1510.67 1518.27 Q1513.75 1513.66 1519.56 1513.66 Z" fill="#000000" fill-rule="nonzero" fill-opacity="1" /><path clip-path="url(#clip350)" d="M1539.72 1542.97 L1544.6 1542.97 L1544.6 1548.85 L1539.72 1548.85 L1539.72 1542.97 Z" fill="#000000" fill-rule="nonzero" fill-opacity="1" /><path clip-path="url(#clip350)" d="M1564.79 1517.37 Q1561.18 1517.37 1559.35 1520.93 Q1557.54 1524.47 1557.54 1531.6 Q1557.54 1538.71 1559.35 1542.27 Q1561.18 1545.82 1564.79 1545.82 Q1568.42 1545.82 1570.23 1542.27 Q1572.06 1538.71 1572.06 1531.6 Q1572.06 1524.47 1570.23 1520.93 Q1568.42 1517.37 1564.79 1517.37 M1564.79 1513.66 Q1570.6 1513.66 1573.65 1518.27 Q1576.73 1522.85 1576.73 1531.6 Q1576.73 1540.33 1573.65 1544.94 Q1570.6 1549.52 1564.79 1549.52 Q1558.98 1549.52 1555.9 1544.94 Q1552.84 1540.33 1552.84 1531.6 Q1552.84 1522.85 1555.9 1518.27 Q1558.98 1513.66 1564.79 1513.66 Z" fill="#000000" fill-rule="nonzero" fill-opacity="1" /><path clip-path="url(#clip350)" d="M1967.42 1517.37 Q1963.81 1517.37 1961.98 1520.93 Q1960.18 1524.47 1960.18 1531.6 Q1960.18 1538.71 1961.98 1542.27 Q1963.81 1545.82 1967.42 1545.82 Q1971.06 1545.82 1972.86 1542.27 Q1974.69 1538.71 1974.69 1531.6 Q1974.69 1524.47 1972.86 1520.93 Q1971.06 1517.37 1967.42 1517.37 M1967.42 1513.66 Q1973.23 1513.66 1976.29 1518.27 Q1979.37 1522.85 1979.37 1531.6 Q1979.37 1540.33 1976.29 1544.94 Q1973.23 1549.52 1967.42 1549.52 Q1961.61 1549.52 1958.53 1544.94 Q1955.48 1540.33 1955.48 1531.6 Q1955.48 1522.85 1958.53 1518.27 Q1961.61 1513.66 1967.42 1513.66 Z" fill="#000000" fill-rule="nonzero" fill-opacity="1" /><path clip-path="url(#clip350)" d="M1987.58 1542.97 L1992.47 1542.97 L1992.47 1548.85 L1987.58 1548.85 L1987.58 1542.97 Z" fill="#000000" fill-rule="nonzero" fill-opacity="1" /><path clip-path="url(#clip350)" d="M2002.7 1514.29 L2021.06 1514.29 L2021.06 1518.22 L2006.98 1518.22 L2006.98 1526.7 Q2008 1526.35 2009.02 1526.19 Q2010.04 1526 2011.06 1526 Q2016.84 1526 2020.22 1529.17 Q2023.6 1532.34 2023.6 1537.76 Q2023.6 1543.34 2020.13 1546.44 Q2016.66 1549.52 2010.34 1549.52 Q2008.16 1549.52 2005.9 1549.15 Q2003.65 1548.78 2001.24 1548.04 L2001.24 1543.34 Q2003.33 1544.47 2005.55 1545.03 Q2007.77 1545.58 2010.25 1545.58 Q2014.25 1545.58 2016.59 1543.48 Q2018.93 1541.37 2018.93 1537.76 Q2018.93 1534.15 2016.59 1532.04 Q2014.25 1529.94 2010.25 1529.94 Q2008.37 1529.94 2006.5 1530.35 Q2004.65 1530.77 2002.7 1531.65 L2002.7 1514.29 Z" fill="#000000" fill-rule="nonzero" fill-opacity="1" /><polyline clip-path="url(#clip350)" style="stroke:#000000; stroke-linecap:round; stroke-linejoin:round; stroke-width:4; stroke-opacity:1; fill:none" points="112.177,1486.45 112.177,47.2441 "/>
<polyline clip-path="url(#clip350)" style="stroke:#000000; stroke-linecap:round; stroke-linejoin:round; stroke-width:4; stroke-opacity:1; fill:none" points="112.177,1482.48 131.075,1482.48 "/>
<polyline clip-path="url(#clip350)" style="stroke:#000000; stroke-linecap:round; stroke-linejoin:round; stroke-width:4; stroke-opacity:1; fill:none" points="112.177,1177 131.075,1177 "/>
<polyline clip-path="url(#clip350)" style="stroke:#000000; stroke-linecap:round; stroke-linejoin:round; stroke-width:4; stroke-opacity:1; fill:none" points="112.177,871.509 131.075,871.509 "/>
<polyline clip-path="url(#clip350)" style="stroke:#000000; stroke-linecap:round; stroke-linejoin:round; stroke-width:4; stroke-opacity:1; fill:none" points="112.177,566.022 131.075,566.022 "/>
<polyline clip-path="url(#clip350)" style="stroke:#000000; stroke-linecap:round; stroke-linejoin:round; stroke-width:4; stroke-opacity:1; fill:none" points="112.177,260.535 131.075,260.535 "/>
<path clip-path="url(#clip350)" d="M64.2328 1468.28 Q60.6217 1468.28 58.793 1471.85 Q56.9875 1475.39 56.9875 1482.52 Q56.9875 1489.62 58.793 1493.19 Q60.6217 1496.73 64.2328 1496.73 Q67.867 1496.73 69.6726 1493.19 Q71.5013 1489.62 71.5013 1482.52 Q71.5013 1475.39 69.6726 1471.85 Q67.867 1468.28 64.2328 1468.28 M64.2328 1464.58 Q70.0429 1464.58 73.0985 1469.18 Q76.1772 1473.77 76.1772 1482.52 Q76.1772 1491.24 73.0985 1495.85 Q70.0429 1500.43 64.2328 1500.43 Q58.4226 1500.43 55.344 1495.85 Q52.2884 1491.24 52.2884 1482.52 Q52.2884 1473.77 55.344 1469.18 Q58.4226 1464.58 64.2328 1464.58 Z" fill="#000000" fill-rule="nonzero" fill-opacity="1" /><path clip-path="url(#clip350)" d="M59.8578 1190.34 L76.1772 1190.34 L76.1772 1194.28 L54.2328 1194.28 L54.2328 1190.34 Q56.8949 1187.59 61.4782 1182.96 Q66.0846 1178.3 67.2652 1176.96 Q69.5105 1174.44 70.3902 1172.7 Q71.2929 1170.94 71.2929 1169.25 Q71.2929 1166.5 69.3485 1164.76 Q67.4272 1163.03 64.3254 1163.03 Q62.1263 1163.03 59.6726 1163.79 Q57.2421 1164.55 54.4643 1166.11 L54.4643 1161.38 Q57.2884 1160.25 59.7421 1159.67 Q62.1958 1159.09 64.2328 1159.09 Q69.6031 1159.09 72.7976 1161.78 Q75.992 1164.46 75.992 1168.95 Q75.992 1171.08 75.1818 1173 Q74.3948 1174.9 72.2883 1177.49 Q71.7096 1178.17 68.6078 1181.38 Q65.5059 1184.58 59.8578 1190.34 Z" fill="#000000" fill-rule="nonzero" fill-opacity="1" /><path clip-path="url(#clip350)" d="M66.5939 858.303 L54.7884 876.752 L66.5939 876.752 L66.5939 858.303 M65.367 854.229 L71.2466 854.229 L71.2466 876.752 L76.1772 876.752 L76.1772 880.641 L71.2466 880.641 L71.2466 888.789 L66.5939 888.789 L66.5939 880.641 L50.9921 880.641 L50.9921 876.127 L65.367 854.229 Z" fill="#000000" fill-rule="nonzero" fill-opacity="1" /><path clip-path="url(#clip350)" d="M64.6495 564.159 Q61.5013 564.159 59.6495 566.312 Q57.8208 568.464 57.8208 572.214 Q57.8208 575.941 59.6495 578.117 Q61.5013 580.27 64.6495 580.27 Q67.7976 580.27 69.6263 578.117 Q71.4781 575.941 71.4781 572.214 Q71.4781 568.464 69.6263 566.312 Q67.7976 564.159 64.6495 564.159 M73.9318 549.506 L73.9318 553.765 Q72.1726 552.932 70.367 552.492 Q68.5846 552.052 66.8254 552.052 Q62.1958 552.052 59.7421 555.177 Q57.3115 558.302 56.9643 564.622 Q58.33 562.608 60.3902 561.543 Q62.4504 560.455 64.9272 560.455 Q70.1355 560.455 73.1448 563.626 Q76.1772 566.775 76.1772 572.214 Q76.1772 577.538 73.029 580.756 Q69.8809 583.974 64.6495 583.974 Q58.6541 583.974 55.4828 579.39 Q52.3116 574.784 52.3116 566.057 Q52.3116 557.863 56.2004 553.001 Q60.0893 548.117 66.6402 548.117 Q68.3994 548.117 70.1818 548.464 Q71.9874 548.812 73.9318 549.506 Z" fill="#000000" fill-rule="nonzero" fill-opacity="1" /><path clip-path="url(#clip350)" d="M64.3254 261.403 Q60.9921 261.403 59.0708 263.186 Q57.1726 264.968 57.1726 268.093 Q57.1726 271.218 59.0708 273 Q60.9921 274.783 64.3254 274.783 Q67.6587 274.783 69.58 273 Q71.5013 271.195 71.5013 268.093 Q71.5013 264.968 69.58 263.186 Q67.6819 261.403 64.3254 261.403 M59.6495 259.413 Q56.6402 258.672 54.9504 256.612 Q53.2838 254.551 53.2838 251.589 Q53.2838 247.445 56.2236 245.038 Q59.1865 242.63 64.3254 242.63 Q69.4874 242.63 72.4272 245.038 Q75.367 247.445 75.367 251.589 Q75.367 254.551 73.6772 256.612 Q72.0105 258.672 69.0244 259.413 Q72.404 260.2 74.279 262.491 Q76.1772 264.783 76.1772 268.093 Q76.1772 273.116 73.0985 275.801 Q70.0429 278.487 64.3254 278.487 Q58.6078 278.487 55.5291 275.801 Q52.4736 273.116 52.4736 268.093 Q52.4736 264.783 54.3717 262.491 Q56.2699 260.2 59.6495 259.413 M57.9365 252.028 Q57.9365 254.714 59.6032 256.218 Q61.293 257.723 64.3254 257.723 Q67.3346 257.723 69.0244 256.218 Q70.7374 254.714 70.7374 252.028 Q70.7374 249.343 69.0244 247.839 Q67.3346 246.334 64.3254 246.334 Q61.293 246.334 59.6032 247.839 Q57.9365 249.343 57.9365 252.028 Z" fill="#000000" fill-rule="nonzero" fill-opacity="1" /><circle clip-path="url(#clip351)" cx="2289.34" cy="1342.83" r="14.4" fill="#808080" fill-rule="evenodd" fill-opacity="1" stroke="#000000" stroke-opacity="1" stroke-width="3.2"/>
<circle clip-path="url(#clip351)" cx="175.59" cy="87.9763" r="14.4" fill="#808080" fill-rule="evenodd" fill-opacity="1" stroke="#000000" stroke-opacity="1" stroke-width="3.2"/>
<circle clip-path="url(#clip351)" cx="1586.89" cy="1445.72" r="14.4" fill="#808080" fill-rule="evenodd" fill-opacity="1" stroke="#000000" stroke-opacity="1" stroke-width="3.2"/>
<circle clip-path="url(#clip351)" cx="1449.08" cy="1437.56" r="14.4" fill="#808080" fill-rule="evenodd" fill-opacity="1" stroke="#000000" stroke-opacity="1" stroke-width="3.2"/>
<path clip-path="url(#clip350)" d="M2293.64 1350.26 Q2284.6 1350.26 2281.12 1352.32 Q2277.64 1354.39 2277.64 1359.37 Q2277.64 1363.34 2280.23 1365.69 Q2282.86 1368 2287.36 1368 Q2293.56 1368 2297.28 1363.63 Q2301.05 1359.21 2301.05 1351.92 L2301.05 1350.26 L2293.64 1350.26 M2308.5 1347.18 L2308.5 1373.07 L2301.05 1373.07 L2301.05 1366.18 Q2298.5 1370.31 2294.69 1372.3 Q2290.88 1374.24 2285.37 1374.24 Q2278.41 1374.24 2274.27 1370.35 Q2270.18 1366.42 2270.18 1359.86 Q2270.18 1352.2 2275.29 1348.31 Q2280.43 1344.43 2290.6 1344.43 L2301.05 1344.43 L2301.05 1343.7 Q2301.05 1338.55 2297.65 1335.76 Q2294.29 1332.92 2288.17 1332.92 Q2284.28 1332.92 2280.59 1333.85 Q2276.91 1334.78 2273.5 1336.65 L2273.5 1329.76 Q2277.6 1328.18 2281.44 1327.41 Q2285.29 1326.6 2288.94 1326.6 Q2298.78 1326.6 2303.64 1331.71 Q2308.5 1336.81 2308.5 1347.18 Z" fill="#000000" fill-rule="nonzero" fill-opacity="1" /><path clip-path="url(#clip350)" d="M188.148 95.5717 Q188.148 87.3484 184.745 82.6898 Q181.383 77.9908 175.468 77.9908 Q169.554 77.9908 166.151 82.6898 Q162.789 87.3484 162.789 95.5717 Q162.789 103.795 166.151 108.494 Q169.554 113.153 175.468 113.153 Q181.383 113.153 184.745 108.494 Q188.148 103.795 188.148 95.5717 M162.789 79.7327 Q165.138 75.6818 168.703 73.7373 Q172.309 71.7524 177.291 71.7524 Q185.555 71.7524 190.7 78.3149 Q195.885 84.8773 195.885 95.5717 Q195.885 106.266 190.7 112.829 Q185.555 119.391 177.291 119.391 Q172.309 119.391 168.703 117.447 Q165.138 115.462 162.789 111.411 L162.789 118.216 L155.295 118.216 L155.295 55.1842 L162.789 55.1842 L162.789 79.7327 Z" fill="#000000" fill-rule="nonzero" fill-opacity="1" /><path clip-path="url(#clip350)" d="M1604.84 1432.33 L1604.84 1439.3 Q1601.68 1437.55 1598.48 1436.7 Q1595.32 1435.81 1592.08 1435.81 Q1584.83 1435.81 1580.82 1440.43 Q1576.81 1445.01 1576.81 1453.31 Q1576.81 1461.62 1580.82 1466.23 Q1584.83 1470.81 1592.08 1470.81 Q1595.32 1470.81 1598.48 1469.96 Q1601.68 1469.07 1604.84 1467.33 L1604.84 1474.21 Q1601.72 1475.67 1598.36 1476.4 Q1595.04 1477.13 1591.27 1477.13 Q1581.02 1477.13 1574.98 1470.69 Q1568.95 1464.25 1568.95 1453.31 Q1568.95 1442.21 1575.02 1435.85 Q1581.14 1429.49 1591.75 1429.49 Q1595.2 1429.49 1598.48 1430.22 Q1601.76 1430.91 1604.84 1432.33 Z" fill="#000000" fill-rule="nonzero" fill-opacity="1" /><path clip-path="url(#clip350)" d="M1461.9 1429.31 L1461.9 1404.76 L1469.35 1404.76 L1469.35 1467.8 L1461.9 1467.8 L1461.9 1460.99 Q1459.55 1465.04 1455.94 1467.03 Q1452.38 1468.97 1447.35 1468.97 Q1439.13 1468.97 1433.95 1462.41 Q1428.8 1455.85 1428.8 1445.15 Q1428.8 1434.46 1433.95 1427.9 Q1439.13 1421.33 1447.35 1421.33 Q1452.38 1421.33 1455.94 1423.32 Q1459.55 1425.26 1461.9 1429.31 M1436.5 1445.15 Q1436.5 1453.38 1439.86 1458.07 Q1443.26 1462.73 1449.18 1462.73 Q1455.09 1462.73 1458.49 1458.07 Q1461.9 1453.38 1461.9 1445.15 Q1461.9 1436.93 1458.49 1432.27 Q1455.09 1427.57 1449.18 1427.57 Q1443.26 1427.57 1439.86 1432.27 Q1436.5 1436.93 1436.5 1445.15 Z" fill="#000000" fill-rule="nonzero" fill-opacity="1" /><path clip-path="url(#clip350)" d="M2001.58 198.898 L2278.07 198.898 L2278.07 95.2176 L2001.58 95.2176  Z" fill="#ffffff" fill-rule="evenodd" fill-opacity="1"/>
<polyline clip-path="url(#clip350)" style="stroke:#000000; stroke-linecap:round; stroke-linejoin:round; stroke-width:4; stroke-opacity:1; fill:none" points="2001.58,198.898 2278.07,198.898 2278.07,95.2176 2001.58,95.2176 2001.58,198.898 "/>
<circle clip-path="url(#clip350)" cx="2101.16" cy="147.058" r="20.48" fill="#808080" fill-rule="evenodd" fill-opacity="1" stroke="#000000" stroke-opacity="1" stroke-width="4.55111"/>
<path clip-path="url(#clip350)" d="M2214.59 166.745 Q2212.78 171.375 2211.07 172.787 Q2209.36 174.199 2206.49 174.199 L2203.08 174.199 L2203.08 170.634 L2205.58 170.634 Q2207.34 170.634 2208.31 169.8 Q2209.29 168.967 2210.47 165.865 L2211.23 163.921 L2200.74 138.412 L2205.26 138.412 L2213.36 158.689 L2221.46 138.412 L2225.98 138.412 L2214.59 166.745 Z" fill="#000000" fill-rule="nonzero" fill-opacity="1" /><path clip-path="url(#clip350)" d="M2233.27 160.402 L2240.91 160.402 L2240.91 134.037 L2232.6 135.703 L2232.6 131.444 L2240.86 129.778 L2245.54 129.778 L2245.54 160.402 L2253.17 160.402 L2253.17 164.338 L2233.27 164.338 L2233.27 160.402 Z" fill="#000000" fill-rule="nonzero" fill-opacity="1" /></svg>
