<?xml version="1.0" encoding="utf-8"?>
<svg xmlns="http://www.w3.org/2000/svg" xmlns:xlink="http://www.w3.org/1999/xlink" width="600" height="400" viewBox="0 0 2400 1600">
<defs>
  <clipPath id="clip440">
    <rect x="0" y="0" width="2400" height="1600"/>
  </clipPath>
</defs>
<path clip-path="url(#clip440)" d="M0 1600 L2400 1600 L2400 0 L0 0  Z" fill="#ffffff" fill-rule="evenodd" fill-opacity="1"/>
<defs>
  <clipPath id="clip441">
    <rect x="480" y="0" width="1681" height="1600"/>
  </clipPath>
</defs>
<path clip-path="url(#clip440)" d="M112.177 1486.45 L2352.76 1486.45 L2352.76 47.2441 L112.177 47.2441  Z" fill="#ffffff" fill-rule="evenodd" fill-opacity="1"/>
<defs>
  <clipPath id="clip442">
    <rect x="112" y="47" width="2242" height="1440"/>
  </clipPath>
</defs>
<polyline clip-path="url(#clip442)" style="stroke:#000000; stroke-linecap:round; stroke-linejoin:round; stroke-width:2; stroke-opacity:0.1; fill:none" points="326.592,1486.45 326.592,47.2441 "/>
<polyline clip-path="url(#clip442)" style="stroke:#000000; stroke-linecap:round; stroke-linejoin:round; stroke-width:2; stroke-opacity:0.1; fill:none" points="764.644,1486.45 764.644,47.2441 "/>
<polyline clip-path="url(#clip442)" style="stroke:#000000; stroke-linecap:round; stroke-linejoin:round; stroke-width:2; stroke-opacity:0.1; fill:none" points="1202.7,1486.45 1202.7,47.2441 "/>
<polyline clip-path="url(#clip442)" style="stroke:#000000; stroke-linecap:round; stroke-linejoin:round; stroke-width:2; stroke-opacity:0.1; fill:none" points="1640.75,1486.45 1640.75,47.2441 "/>
<polyline clip-path="url(#clip442)" style="stroke:#000000; stroke-linecap:round; stroke-linejoin:round; stroke-width:2; stroke-opacity:0.1; fill:none" points="2078.8,1486.45 2078.8,47.2441 "/>
<polyline clip-path="url(#clip440)" style="stroke:#000000; stroke-linecap:round; stroke-linejoin:round; stroke-width:4; stroke-opacity:1; fill:none" points="112.177,1486.45 2352.76,1486.45 "/>
<polyline clip-path="url(#clip440)" style="stroke:#000000; stroke-linecap:round; stroke-linejoin:round; stroke-width:4; stroke-opacity:1; fill:none" points="326.592,1486.45 326.592,1467.55 "/>
<polyline clip-path="url(#clip440)" style="stroke:#000000; stroke-linecap:round; stroke-linejoin:round; stroke-width:4; stroke-opacity:1; fill:none" points="764.644,1486.45 764.644,1467.55 "/>
<polyline clip-path="url(#clip440)" style="stroke:#000000; stroke-linecap:round; stroke-linejoin:round; stroke-width:4; stroke-opacity:1; fill:none" points="1202.7,1486.45 1202.7,1467.55 "/>
<polyline clip-path="url(#clip440)" style="stroke:#000000; stroke-linecap:round; stroke-linejoin:round; stroke-width:4; stroke-opacity:1; fill:none" points="1640.75,1486.45 1640.75,1467.55 "/>
<polyline clip-path="url(#clip440)" style="stroke:#000000; stroke-linecap:round; stroke-linejoin:round; stroke-width:4; stroke-opacity:1; fill:none" points="2078.8,1486.45 2078.8,1467.55 "/>
<path clip-path="url(#clip440)" d="M273.618 1532.02 L303.294 1532.02 L303.294 1535.95 L273.618 1535.95 L273.618 1532.02 Z" fill="#000000" fill-rule="nonzero" fill-opacity="1" /><path clip-path="url(#clip440)" d="M314.197 1544.91 L321.836 1544.91 L321.836 1518.55 L313.525 1520.21 L313.525 1515.95 L321.789 1514.29 L326.465 1514.29 L326.465 1544.91 L334.104 1544.91 L334.104 1548.85 L314.197 1548.85 L314.197 1544.91 Z" fill="#000000" fill-rule="nonzero" fill-opacity="1" /><path clip-path="url(#clip440)" d="M343.548 1542.97 L348.433 1542.97 L348.433 1548.85 L343.548 1548.85 L343.548 1542.97 Z" fill="#000000" fill-rule="nonzero" fill-opacity="1" /><path clip-path="url(#clip440)" d="M358.664 1514.29 L377.02 1514.29 L377.02 1518.22 L362.946 1518.22 L362.946 1526.7 Q363.965 1526.35 364.983 1526.19 Q366.002 1526 367.021 1526 Q372.808 1526 376.187 1529.17 Q379.567 1532.34 379.567 1537.76 Q379.567 1543.34 376.095 1546.44 Q372.622 1549.52 366.303 1549.52 Q364.127 1549.52 361.859 1549.15 Q359.613 1548.78 357.206 1548.04 L357.206 1543.34 Q359.289 1544.47 361.511 1545.03 Q363.733 1545.58 366.21 1545.58 Q370.215 1545.58 372.553 1543.48 Q374.891 1541.37 374.891 1537.76 Q374.891 1534.15 372.553 1532.04 Q370.215 1529.94 366.21 1529.94 Q364.335 1529.94 362.46 1530.35 Q360.609 1530.77 358.664 1531.65 L358.664 1514.29 Z" fill="#000000" fill-rule="nonzero" fill-opacity="1" /><path clip-path="url(#clip440)" d="M711.172 1532.02 L740.848 1532.02 L740.848 1535.95 L711.172 1535.95 L711.172 1532.02 Z" fill="#000000" fill-rule="nonzero" fill-opacity="1" /><path clip-path="url(#clip440)" d="M751.751 1544.91 L759.39 1544.91 L759.39 1518.55 L751.079 1520.21 L751.079 1515.95 L759.343 1514.29 L764.019 1514.29 L764.019 1544.91 L771.658 1544.91 L771.658 1548.85 L751.751 1548.85 L751.751 1544.91 Z" fill="#000000" fill-rule="nonzero" fill-opacity="1" /><path clip-path="url(#clip440)" d="M781.102 1542.97 L785.987 1542.97 L785.987 1548.85 L781.102 1548.85 L781.102 1542.97 Z" fill="#000000" fill-rule="nonzero" fill-opacity="1" /><path clip-path="url(#clip440)" d="M806.172 1517.37 Q802.561 1517.37 800.732 1520.93 Q798.926 1524.47 798.926 1531.6 Q798.926 1538.71 800.732 1542.27 Q802.561 1545.82 806.172 1545.82 Q809.806 1545.82 811.611 1542.27 Q813.44 1538.71 813.44 1531.6 Q813.44 1524.47 811.611 1520.93 Q809.806 1517.37 806.172 1517.37 M806.172 1513.66 Q811.982 1513.66 815.037 1518.27 Q818.116 1522.85 818.116 1531.6 Q818.116 1540.33 815.037 1544.94 Q811.982 1549.52 806.172 1549.52 Q800.362 1549.52 797.283 1544.94 Q794.227 1540.33 794.227 1531.6 Q794.227 1522.85 797.283 1518.27 Q800.362 1513.66 806.172 1513.66 Z" fill="#000000" fill-rule="nonzero" fill-opacity="1" /><path clip-path="url(#clip440)" d="M1149.72 1532.02 L1179.4 1532.02 L1179.4 1535.95 L1149.72 1535.95 L1149.72 1532.02 Z" fill="#000000" fill-rule="nonzero" fill-opacity="1" /><path clip-path="url(#clip440)" d="M1199.49 1517.37 Q1195.88 1517.37 1194.05 1520.93 Q1192.24 1524.47 1192.24 1531.6 Q1192.24 1538.71 1194.05 1542.27 Q1195.88 1545.82 1199.49 1545.82 Q1203.12 1545.82 1204.93 1542.27 Q1206.76 1538.71 1206.76 1531.6 Q1206.76 1524.47 1204.93 1520.93 Q1203.12 1517.37 1199.49 1517.37 M1199.49 1513.66 Q1205.3 1513.66 1208.36 1518.27 Q1211.43 1522.85 1211.43 1531.6 Q1211.43 1540.33 1208.36 1544.94 Q1205.3 1549.52 1199.49 1549.52 Q1193.68 1549.52 1190.6 1544.94 Q1187.55 1540.33 1187.55 1531.6 Q1187.55 1522.85 1190.6 1518.27 Q1193.68 1513.66 1199.49 1513.66 Z" fill="#000000" fill-rule="nonzero" fill-opacity="1" /><path clip-path="url(#clip440)" d="M1219.65 1542.97 L1224.54 1542.97 L1224.54 1548.85 L1219.65 1548.85 L1219.65 1542.97 Z" fill="#000000" fill-rule="nonzero" fill-opacity="1" /><path clip-path="url(#clip440)" d="M1234.77 1514.29 L1253.12 1514.29 L1253.12 1518.22 L1239.05 1518.22 L1239.05 1526.7 Q1240.07 1526.35 1241.09 1526.19 Q1242.11 1526 1243.12 1526 Q1248.91 1526 1252.29 1529.17 Q1255.67 1532.34 1255.67 1537.76 Q1255.67 1543.34 1252.2 1546.44 Q1248.73 1549.52 1242.41 1549.52 Q1240.23 1549.52 1237.96 1549.15 Q1235.72 1548.78 1233.31 1548.04 L1233.31 1543.34 Q1235.39 1544.47 1237.61 1545.03 Q1239.84 1545.58 1242.31 1545.58 Q1246.32 1545.58 1248.66 1543.48 Q1250.99 1541.37 1250.99 1537.76 Q1250.99 1534.15 1248.66 1532.04 Q1246.32 1529.94 1242.31 1529.94 Q1240.44 1529.94 1238.56 1530.35 Q1236.71 1530.77 1234.77 1531.65 L1234.77 1514.29 Z" fill="#000000" fill-rule="nonzero" fill-opacity="1" /><path clip-path="url(#clip440)" d="M1618.13 1517.37 Q1614.52 1517.37 1612.69 1520.93 Q1610.89 1524.47 1610.89 1531.6 Q1610.89 1538.71 1612.69 1542.27 Q1614.52 1545.82 1618.13 1545.82 Q1621.77 1545.82 1623.57 1542.27 Q1625.4 1538.71 1625.4 1531.6 Q1625.4 1524.47 1623.57 1520.93 Q1621.77 1517.37 1618.13 1517.37 M1618.13 1513.66 Q1623.94 1513.66 1627 1518.27 Q1630.08 1522.85 1630.08 1531.6 Q1630.08 1540.33 1627 1544.94 Q1623.94 1549.52 1618.13 1549.52 Q1612.32 1549.52 1609.24 1544.94 Q1606.19 1540.33 1606.19 1531.6 Q1606.19 1522.85 1609.24 1518.27 Q1612.32 1513.66 1618.13 1513.66 Z" fill="#000000" fill-rule="nonzero" fill-opacity="1" /><path clip-path="url(#clip440)" d="M1638.29 1542.97 L1643.18 1542.97 L1643.18 1548.85 L1638.29 1548.85 L1638.29 1542.97 Z" fill="#000000" fill-rule="nonzero" fill-opacity="1" /><path clip-path="url(#clip440)" d="M1663.36 1517.37 Q1659.75 1517.37 1657.92 1520.93 Q1656.12 1524.47 1656.12 1531.6 Q1656.12 1538.71 1657.92 1542.27 Q1659.75 1545.82 1663.36 1545.82 Q1667 1545.82 1668.8 1542.27 Q1670.63 1538.71 1670.63 1531.6 Q1670.63 1524.47 1668.8 1520.93 Q1667 1517.37 1663.36 1517.37 M1663.36 1513.66 Q1669.17 1513.66 1672.23 1518.27 Q1675.31 1522.85 1675.31 1531.6 Q1675.31 1540.33 1672.23 1544.94 Q1669.17 1549.52 1663.36 1549.52 Q1657.55 1549.52 1654.47 1544.94 Q1651.42 1540.33 1651.42 1531.6 Q1651.42 1522.85 1654.47 1518.27 Q1657.55 1513.66 1663.36 1513.66 Z" fill="#000000" fill-rule="nonzero" fill-opacity="1" /><path clip-path="url(#clip440)" d="M2056.68 1517.37 Q2053.07 1517.37 2051.24 1520.93 Q2049.44 1524.47 2049.44 1531.6 Q2049.44 1538.71 2051.24 1542.27 Q2053.07 1545.82 2056.68 1545.82 Q2060.32 1545.82 2062.12 1542.27 Q2063.95 1538.71 2063.95 1531.6 Q2063.95 1524.47 2062.12 1520.93 Q2060.32 1517.37 2056.68 1517.37 M2056.68 1513.66 Q2062.49 1513.66 2065.55 1518.27 Q2068.63 1522.85 2068.63 1531.6 Q2068.63 1540.33 2065.55 1544.94 Q2062.49 1549.52 2056.68 1549.52 Q2050.87 1549.52 2047.79 1544.94 Q2044.74 1540.33 2044.74 1531.6 Q2044.74 1522.85 2047.79 1518.27 Q2050.87 1513.66 2056.68 1513.66 Z" fill="#000000" fill-rule="nonzero" fill-opacity="1" /><path clip-path="url(#clip440)" d="M2076.84 1542.97 L2081.73 1542.97 L2081.73 1548.85 L2076.84 1548.85 L2076.84 1542.97 Z" fill="#000000" fill-rule="nonzero" fill-opacity="1" /><path clip-path="url(#clip440)" d="M2091.96 1514.29 L2110.32 1514.29 L2110.32 1518.22 L2096.24 1518.22 L2096.24 1526.7 Q2097.26 1526.35 2098.28 1526.19 Q2099.3 1526 2100.32 1526 Q2106.1 1526 2109.48 1529.17 Q2112.86 1532.34 2112.86 1537.76 Q2112.86 1543.34 2109.39 1546.44 Q2105.92 1549.52 2099.6 1549.52 Q2097.42 1549.52 2095.15 1549.15 Q2092.91 1548.78 2090.5 1548.04 L2090.5 1543.34 Q2092.58 1544.47 2094.81 1545.03 Q2097.03 1545.58 2099.5 1545.58 Q2103.51 1545.58 2105.85 1543.48 Q2108.19 1541.37 2108.19 1537.76 Q2108.19 1534.15 2105.85 1532.04 Q2103.51 1529.94 2099.5 1529.94 Q2097.63 1529.94 2095.75 1530.35 Q2093.9 1530.77 2091.96 1531.65 L2091.96 1514.29 Z" fill="#000000" fill-rule="nonzero" fill-opacity="1" /><polyline clip-path="url(#clip442)" style="stroke:#000000; stroke-linecap:round; stroke-linejoin:round; stroke-width:2; stroke-opacity:0.1; fill:none" points="112.177,1283.58 2352.76,1283.58 "/>
<polyline clip-path="url(#clip442)" style="stroke:#000000; stroke-linecap:round; stroke-linejoin:round; stroke-width:2; stroke-opacity:0.1; fill:none" points="112.177,1066.13 2352.76,1066.13 "/>
<polyline clip-path="url(#clip442)" style="stroke:#000000; stroke-linecap:round; stroke-linejoin:round; stroke-width:2; stroke-opacity:0.1; fill:none" points="112.177,848.684 2352.76,848.684 "/>
<polyline clip-path="url(#clip442)" style="stroke:#000000; stroke-linecap:round; stroke-linejoin:round; stroke-width:2; stroke-opacity:0.1; fill:none" points="112.177,631.235 2352.76,631.235 "/>
<polyline clip-path="url(#clip442)" style="stroke:#000000; stroke-linecap:round; stroke-linejoin:round; stroke-width:2; stroke-opacity:0.1; fill:none" points="112.177,413.787 2352.76,413.787 "/>
<polyline clip-path="url(#clip442)" style="stroke:#000000; stroke-linecap:round; stroke-linejoin:round; stroke-width:2; stroke-opacity:0.1; fill:none" points="112.177,196.339 2352.76,196.339 "/>
<polyline clip-path="url(#clip440)" style="stroke:#000000; stroke-linecap:round; stroke-linejoin:round; stroke-width:4; stroke-opacity:1; fill:none" points="112.177,1486.45 112.177,47.2441 "/>
<polyline clip-path="url(#clip440)" style="stroke:#000000; stroke-linecap:round; stroke-linejoin:round; stroke-width:4; stroke-opacity:1; fill:none" points="112.177,1283.58 131.075,1283.58 "/>
<polyline clip-path="url(#clip440)" style="stroke:#000000; stroke-linecap:round; stroke-linejoin:round; stroke-width:4; stroke-opacity:1; fill:none" points="112.177,1066.13 131.075,1066.13 "/>
<polyline clip-path="url(#clip440)" style="stroke:#000000; stroke-linecap:round; stroke-linejoin:round; stroke-width:4; stroke-opacity:1; fill:none" points="112.177,848.684 131.075,848.684 "/>
<polyline clip-path="url(#clip440)" style="stroke:#000000; stroke-linecap:round; stroke-linejoin:round; stroke-width:4; stroke-opacity:1; fill:none" points="112.177,631.235 131.075,631.235 "/>
<polyline clip-path="url(#clip440)" style="stroke:#000000; stroke-linecap:round; stroke-linejoin:round; stroke-width:4; stroke-opacity:1; fill:none" points="112.177,413.787 131.075,413.787 "/>
<polyline clip-path="url(#clip440)" style="stroke:#000000; stroke-linecap:round; stroke-linejoin:round; stroke-width:4; stroke-opacity:1; fill:none" points="112.177,196.339 131.075,196.339 "/>
<path clip-path="url(#clip440)" d="M56.2699 1296.93 L63.9087 1296.93 L63.9087 1270.56 L55.5986 1272.23 L55.5986 1267.97 L63.8624 1266.3 L68.5383 1266.3 L68.5383 1296.93 L76.1772 1296.93 L76.1772 1300.86 L56.2699 1300.86 L56.2699 1296.93 Z" fill="#000000" fill-rule="nonzero" fill-opacity="1" /><path clip-path="url(#clip440)" d="M59.8578 1079.48 L76.1772 1079.48 L76.1772 1083.41 L54.2328 1083.41 L54.2328 1079.48 Q56.8949 1076.72 61.4782 1072.09 Q66.0846 1067.44 67.2652 1066.1 Q69.5105 1063.57 70.3902 1061.84 Q71.2929 1060.08 71.2929 1058.39 Q71.2929 1055.63 69.3485 1053.9 Q67.4272 1052.16 64.3254 1052.16 Q62.1263 1052.16 59.6726 1052.93 Q57.2421 1053.69 54.4643 1055.24 L54.4643 1050.52 Q57.2884 1049.38 59.7421 1048.81 Q62.1958 1048.23 64.2328 1048.23 Q69.6031 1048.23 72.7976 1050.91 Q75.992 1053.6 75.992 1058.09 Q75.992 1060.22 75.1818 1062.14 Q74.3948 1064.04 72.2883 1066.63 Q71.7096 1067.3 68.6078 1070.52 Q65.5059 1073.71 59.8578 1079.48 Z" fill="#000000" fill-rule="nonzero" fill-opacity="1" /><path clip-path="url(#clip440)" d="M69.0476 847.33 Q72.404 848.047 74.279 850.316 Q76.1772 852.584 76.1772 855.918 Q76.1772 861.033 72.6587 863.834 Q69.1402 866.635 62.6587 866.635 Q60.4828 866.635 58.168 866.195 Q55.8764 865.779 53.4227 864.922 L53.4227 860.408 Q55.3671 861.542 57.6819 862.121 Q59.9967 862.7 62.5198 862.7 Q66.918 862.7 69.2096 860.964 Q71.5244 859.228 71.5244 855.918 Q71.5244 852.862 69.3717 851.149 Q67.242 849.413 63.4226 849.413 L59.3949 849.413 L59.3949 845.57 L63.6078 845.57 Q67.0569 845.57 68.8855 844.205 Q70.7142 842.816 70.7142 840.223 Q70.7142 837.561 68.8161 836.149 Q66.9411 834.714 63.4226 834.714 Q61.5013 834.714 59.3023 835.131 Q57.1032 835.547 54.4643 836.427 L54.4643 832.26 Q57.1264 831.52 59.4412 831.149 Q61.7791 830.779 63.8393 830.779 Q69.1633 830.779 72.2652 833.209 Q75.367 835.617 75.367 839.737 Q75.367 842.607 73.7235 844.598 Q72.08 846.566 69.0476 847.33 Z" fill="#000000" fill-rule="nonzero" fill-opacity="1" /><path clip-path="url(#clip440)" d="M66.5939 618.03 L54.7884 636.478 L66.5939 636.478 L66.5939 618.03 M65.367 613.955 L71.2466 613.955 L71.2466 636.478 L76.1772 636.478 L76.1772 640.367 L71.2466 640.367 L71.2466 648.515 L66.5939 648.515 L66.5939 640.367 L50.9921 640.367 L50.9921 635.853 L65.367 613.955 Z" fill="#000000" fill-rule="nonzero" fill-opacity="1" /><path clip-path="url(#clip440)" d="M55.2745 396.507 L73.6309 396.507 L73.6309 400.442 L59.5569 400.442 L59.5569 408.915 Q60.5754 408.567 61.5939 408.405 Q62.6124 408.22 63.6309 408.22 Q69.418 408.22 72.7976 411.391 Q76.1772 414.563 76.1772 419.979 Q76.1772 425.558 72.705 428.66 Q69.2328 431.738 62.9134 431.738 Q60.7374 431.738 58.4689 431.368 Q56.2236 430.998 53.8162 430.257 L53.8162 425.558 Q55.8995 426.692 58.1217 427.248 Q60.3439 427.803 62.8208 427.803 Q66.8254 427.803 69.1633 425.697 Q71.5013 423.59 71.5013 419.979 Q71.5013 416.368 69.1633 414.262 Q66.8254 412.155 62.8208 412.155 Q60.9458 412.155 59.0708 412.572 Q57.2189 412.989 55.2745 413.868 L55.2745 396.507 Z" fill="#000000" fill-rule="nonzero" fill-opacity="1" /><path clip-path="url(#clip440)" d="M64.6495 194.475 Q61.5013 194.475 59.6495 196.628 Q57.8208 198.781 57.8208 202.531 Q57.8208 206.258 59.6495 208.434 Q61.5013 210.586 64.6495 210.586 Q67.7976 210.586 69.6263 208.434 Q71.4781 206.258 71.4781 202.531 Q71.4781 198.781 69.6263 196.628 Q67.7976 194.475 64.6495 194.475 M73.9318 179.823 L73.9318 184.082 Q72.1726 183.249 70.367 182.809 Q68.5846 182.369 66.8254 182.369 Q62.1958 182.369 59.7421 185.494 Q57.3115 188.619 56.9643 194.938 Q58.33 192.925 60.3902 191.86 Q62.4504 190.772 64.9272 190.772 Q70.1355 190.772 73.1448 193.943 Q76.1772 197.091 76.1772 202.531 Q76.1772 207.855 73.029 211.073 Q69.8809 214.29 64.6495 214.29 Q58.6541 214.29 55.4828 209.707 Q52.3116 205.1 52.3116 196.374 Q52.3116 188.179 56.2004 183.318 Q60.0893 178.434 66.6402 178.434 Q68.3994 178.434 70.1818 178.781 Q71.9874 179.128 73.9318 179.823 Z" fill="#000000" fill-rule="nonzero" fill-opacity="1" /><circle clip-path="url(#clip442)" cx="2289.34" cy="1371.96" r="14.4" fill="#808080" fill-rule="evenodd" fill-opacity="1" stroke="#000000" stroke-opacity="1" stroke-width="3.2"/>
<circle clip-path="url(#clip442)" cx="175.59" cy="87.9763" r="14.4" fill="#808080" fill-rule="evenodd" fill-opacity="1" stroke="#000000" stroke-opacity="1" stroke-width="3.2"/>
<circle clip-path="url(#clip442)" cx="1696.27" cy="1445.72" r="14.4" fill="#808080" fill-rule="evenodd" fill-opacity="1" stroke="#000000" stroke-opacity="1" stroke-width="3.2"/>
<circle clip-path="url(#clip442)" cx="1564.91" cy="1443.46" r="14.4" fill="#808080" fill-rule="evenodd" fill-opacity="1" stroke="#000000" stroke-opacity="1" stroke-width="3.2"/>
<path clip-path="url(#clip440)" d="M2293.64 1379.39 Q2284.6 1379.39 2281.12 1381.46 Q2277.64 1383.52 2277.64 1388.5 Q2277.64 1392.47 2280.23 1394.82 Q2282.86 1397.13 2287.36 1397.13 Q2293.56 1397.13 2297.28 1392.76 Q2301.05 1388.34 2301.05 1381.05 L2301.05 1379.39 L2293.64 1379.39 M2308.5 1376.31 L2308.5 1402.2 L2301.05 1402.2 L2301.05 1395.31 Q2298.5 1399.44 2294.69 1401.43 Q2290.88 1403.37 2285.37 1403.37 Q2278.41 1403.37 2274.27 1399.48 Q2270.18 1395.55 2270.18 1388.99 Q2270.18 1381.33 2275.29 1377.44 Q2280.43 1373.56 2290.6 1373.56 L2301.05 1373.56 L2301.05 1372.83 Q2301.05 1367.68 2297.65 1364.89 Q2294.29 1362.05 2288.17 1362.05 Q2284.28 1362.05 2280.59 1362.98 Q2276.91 1363.91 2273.5 1365.78 L2273.5 1358.89 Q2277.6 1357.31 2281.44 1356.54 Q2285.29 1355.73 2288.94 1355.73 Q2298.78 1355.73 2303.64 1360.84 Q2308.5 1365.94 2308.5 1376.31 Z" fill="#000000" fill-rule="nonzero" fill-opacity="1" /><path clip-path="url(#clip440)" d="M188.148 95.5717 Q188.148 87.3484 184.745 82.6898 Q181.383 77.9908 175.468 77.9908 Q169.554 77.9908 166.151 82.6898 Q162.789 87.3484 162.789 95.5717 Q162.789 103.795 166.151 108.494 Q169.554 113.153 175.468 113.153 Q181.383 113.153 184.745 108.494 Q188.148 103.795 188.148 95.5717 M162.789 79.7327 Q165.138 75.6818 168.703 73.7373 Q172.309 71.7524 177.291 71.7524 Q185.555 71.7524 190.7 78.3149 Q195.885 84.8773 195.885 95.5717 Q195.885 106.266 190.7 112.829 Q185.555 119.391 177.291 119.391 Q172.309 119.391 168.703 117.447 Q165.138 115.462 162.789 111.411 L162.789 118.216 L155.295 118.216 L155.295 55.1842 L162.789 55.1842 L162.789 79.7327 Z" fill="#000000" fill-rule="nonzero" fill-opacity="1" /><path clip-path="url(#clip440)" d="M1714.21 1432.33 L1714.21 1439.3 Q1711.05 1437.55 1707.85 1436.7 Q1704.69 1435.81 1701.45 1435.81 Q1694.2 1435.81 1690.19 1440.43 Q1686.18 1445.01 1686.18 1453.31 Q1686.18 1461.62 1690.19 1466.23 Q1694.2 1470.81 1701.45 1470.81 Q1704.69 1470.81 1707.85 1469.96 Q1711.05 1469.07 1714.21 1467.33 L1714.21 1474.21 Q1711.09 1475.67 1707.73 1476.4 Q1704.41 1477.13 1700.64 1477.13 Q1690.39 1477.13 1684.36 1470.69 Q1678.32 1464.25 1678.32 1453.31 Q1678.32 1442.21 1684.4 1435.85 Q1690.51 1429.49 1701.13 1429.49 Q1704.57 1429.49 1707.85 1430.22 Q1711.13 1430.91 1714.21 1432.33 Z" fill="#000000" fill-rule="nonzero" fill-opacity="1" /><path clip-path="url(#clip440)" d="M1577.73 1435.22 L1577.73 1410.67 L1585.19 1410.67 L1585.19 1473.7 L1577.73 1473.7 L1577.73 1466.9 Q1575.38 1470.95 1571.78 1472.93 Q1568.21 1474.88 1563.19 1474.88 Q1554.97 1474.88 1549.78 1468.31 Q1544.64 1461.75 1544.64 1451.06 Q1544.64 1440.36 1549.78 1433.8 Q1554.97 1427.24 1563.19 1427.24 Q1568.21 1427.24 1571.78 1429.22 Q1575.38 1431.17 1577.73 1435.22 M1552.33 1451.06 Q1552.33 1459.28 1555.69 1463.98 Q1559.1 1468.64 1565.01 1468.64 Q1570.93 1468.64 1574.33 1463.98 Q1577.73 1459.28 1577.73 1451.06 Q1577.73 1442.83 1574.33 1438.17 Q1570.93 1433.48 1565.01 1433.48 Q1559.1 1433.48 1555.69 1438.17 Q1552.33 1442.83 1552.33 1451.06 Z" fill="#000000" fill-rule="nonzero" fill-opacity="1" /><path clip-path="url(#clip440)" d="M2001.58 198.898 L2278.07 198.898 L2278.07 95.2176 L2001.58 95.2176  Z" fill="#ffffff" fill-rule="evenodd" fill-opacity="1"/>
<polyline clip-path="url(#clip440)" style="stroke:#000000; stroke-linecap:round; stroke-linejoin:round; stroke-width:4; stroke-opacity:1; fill:none" points="2001.58,198.898 2278.07,198.898 2278.07,95.2176 2001.58,95.2176 2001.58,198.898 "/>
<circle clip-path="url(#clip440)" cx="2101.16" cy="147.058" r="20.48" fill="#808080" fill-rule="evenodd" fill-opacity="1" stroke="#000000" stroke-opacity="1" stroke-width="4.55111"/>
<path clip-path="url(#clip440)" d="M2214.59 166.745 Q2212.78 171.375 2211.07 172.787 Q2209.36 174.199 2206.49 174.199 L2203.08 174.199 L2203.08 170.634 L2205.58 170.634 Q2207.34 170.634 2208.31 169.8 Q2209.29 168.967 2210.47 165.865 L2211.23 163.921 L2200.74 138.412 L2205.26 138.412 L2213.36 158.689 L2221.46 138.412 L2225.98 138.412 L2214.59 166.745 Z" fill="#000000" fill-rule="nonzero" fill-opacity="1" /><path clip-path="url(#clip440)" d="M2233.27 160.402 L2240.91 160.402 L2240.91 134.037 L2232.6 135.703 L2232.6 131.444 L2240.86 129.778 L2245.54 129.778 L2245.54 160.402 L2253.17 160.402 L2253.17 164.338 L2233.27 164.338 L2233.27 160.402 Z" fill="#000000" fill-rule="nonzero" fill-opacity="1" /></svg>
