<?xml version="1.0" encoding="utf-8"?>
<svg xmlns="http://www.w3.org/2000/svg" xmlns:xlink="http://www.w3.org/1999/xlink" width="600" height="400" viewBox="0 0 2400 1600">
<defs>
  <clipPath id="clip380">
    <rect x="0" y="0" width="2400" height="1600"/>
  </clipPath>
</defs>
<path clip-path="url(#clip380)" d="M0 1600 L2400 1600 L2400 0 L0 0  Z" fill="#ffffff" fill-rule="evenodd" fill-opacity="1"/>
<defs>
  <clipPath id="clip381">
    <rect x="480" y="0" width="1681" height="1600"/>
  </clipPath>
</defs>
<path clip-path="url(#clip380)" d="M156.598 1486.45 L2352.76 1486.45 L2352.76 47.2441 L156.598 47.2441  Z" fill="#ffffff" fill-rule="evenodd" fill-opacity="1"/>
<defs>
  <clipPath id="clip382">
    <rect x="156" y="47" width="2197" height="1440"/>
  </clipPath>
</defs>
<polyline clip-path="url(#clip382)" style="stroke:#000000; stroke-linecap:round; stroke-linejoin:round; stroke-width:2; stroke-opacity:0.1; fill:none" points="387.265,1486.45 387.265,47.2441 "/>
<polyline clip-path="url(#clip382)" style="stroke:#000000; stroke-linecap:round; stroke-linejoin:round; stroke-width:2; stroke-opacity:0.1; fill:none" points="887.224,1486.45 887.224,47.2441 "/>
<polyline clip-path="url(#clip382)" style="stroke:#000000; stroke-linecap:round; stroke-linejoin:round; stroke-width:2; stroke-opacity:0.1; fill:none" points="1387.18,1486.45 1387.18,47.2441 "/>
<polyline clip-path="url(#clip382)" style="stroke:#000000; stroke-linecap:round; stroke-linejoin:round; stroke-width:2; stroke-opacity:0.1; fill:none" points="1887.14,1486.45 1887.14,47.2441 "/>
<polyline clip-path="url(#clip380)" style="stroke:#000000; stroke-linecap:round; stroke-linejoin:round; stroke-width:4; stroke-opacity:1; fill:none" points="156.598,1486.45 2352.76,1486.45 "/>
<polyline clip-path="url(#clip380)" style="stroke:#000000; stroke-linecap:round; stroke-linejoin:round; stroke-width:4; stroke-opacity:1; fill:none" points="387.265,1486.45 387.265,1467.55 "/>
<polyline clip-path="url(#clip380)" style="stroke:#000000; stroke-linecap:round; stroke-linejoin:round; stroke-width:4; stroke-opacity:1; fill:none" points="887.224,1486.45 887.224,1467.55 "/>
<polyline clip-path="url(#clip380)" style="stroke:#000000; stroke-linecap:round; stroke-linejoin:round; stroke-width:4; stroke-opacity:1; fill:none" points="1387.18,1486.45 1387.18,1467.55 "/>
<polyline clip-path="url(#clip380)" style="stroke:#000000; stroke-linecap:round; stroke-linejoin:round; stroke-width:4; stroke-opacity:1; fill:none" points="1887.14,1486.45 1887.14,1467.55 "/>
<path clip-path="url(#clip380)" d="M333.55 1532.02 L363.225 1532.02 L363.225 1535.95 L333.55 1535.95 L333.55 1532.02 Z" fill="#000000" fill-rule="nonzero" fill-opacity="1" /><path clip-path="url(#clip380)" d="M383.318 1517.37 Q379.707 1517.37 377.878 1520.93 Q376.073 1524.47 376.073 1531.6 Q376.073 1538.71 377.878 1542.27 Q379.707 1545.82 383.318 1545.82 Q386.952 1545.82 388.758 1542.27 Q390.586 1538.71 390.586 1531.6 Q390.586 1524.47 388.758 1520.93 Q386.952 1517.37 383.318 1517.37 M383.318 1513.66 Q389.128 1513.66 392.184 1518.27 Q395.262 1522.85 395.262 1531.6 Q395.262 1540.33 392.184 1544.94 Q389.128 1549.52 383.318 1549.52 Q377.508 1549.52 374.429 1544.94 Q371.374 1540.33 371.374 1531.6 Q371.374 1522.85 374.429 1518.27 Q377.508 1513.66 383.318 1513.66 Z" fill="#000000" fill-rule="nonzero" fill-opacity="1" /><path clip-path="url(#clip380)" d="M403.48 1542.97 L408.364 1542.97 L408.364 1548.85 L403.48 1548.85 L403.48 1542.97 Z" fill="#000000" fill-rule="nonzero" fill-opacity="1" /><path clip-path="url(#clip380)" d="M431.396 1518.36 L419.591 1536.81 L431.396 1536.81 L431.396 1518.36 M430.17 1514.29 L436.049 1514.29 L436.049 1536.81 L440.98 1536.81 L440.98 1540.7 L436.049 1540.7 L436.049 1548.85 L431.396 1548.85 L431.396 1540.7 L415.795 1540.7 L415.795 1536.19 L430.17 1514.29 Z" fill="#000000" fill-rule="nonzero" fill-opacity="1" /><path clip-path="url(#clip380)" d="M834.55 1532.02 L864.226 1532.02 L864.226 1535.95 L834.55 1535.95 L834.55 1532.02 Z" fill="#000000" fill-rule="nonzero" fill-opacity="1" /><path clip-path="url(#clip380)" d="M884.319 1517.37 Q880.708 1517.37 878.879 1520.93 Q877.073 1524.47 877.073 1531.6 Q877.073 1538.71 878.879 1542.27 Q880.708 1545.82 884.319 1545.82 Q887.953 1545.82 889.759 1542.27 Q891.587 1538.71 891.587 1531.6 Q891.587 1524.47 889.759 1520.93 Q887.953 1517.37 884.319 1517.37 M884.319 1513.66 Q890.129 1513.66 893.184 1518.27 Q896.263 1522.85 896.263 1531.6 Q896.263 1540.33 893.184 1544.94 Q890.129 1549.52 884.319 1549.52 Q878.509 1549.52 875.43 1544.94 Q872.374 1540.33 872.374 1531.6 Q872.374 1522.85 875.43 1518.27 Q878.509 1513.66 884.319 1513.66 Z" fill="#000000" fill-rule="nonzero" fill-opacity="1" /><path clip-path="url(#clip380)" d="M904.481 1542.97 L909.365 1542.97 L909.365 1548.85 L904.481 1548.85 L904.481 1542.97 Z" fill="#000000" fill-rule="nonzero" fill-opacity="1" /><path clip-path="url(#clip380)" d="M923.578 1544.91 L939.897 1544.91 L939.897 1548.85 L917.953 1548.85 L917.953 1544.91 Q920.615 1542.16 925.198 1537.53 Q929.805 1532.88 930.985 1531.53 Q933.231 1529.01 934.11 1527.27 Q935.013 1525.51 935.013 1523.82 Q935.013 1521.07 933.068 1519.33 Q931.147 1517.6 928.045 1517.6 Q925.846 1517.6 923.393 1518.36 Q920.962 1519.13 918.184 1520.68 L918.184 1515.95 Q921.008 1514.82 923.462 1514.24 Q925.916 1513.66 927.953 1513.66 Q933.323 1513.66 936.518 1516.35 Q939.712 1519.03 939.712 1523.52 Q939.712 1525.65 938.902 1527.57 Q938.115 1529.47 936.008 1532.07 Q935.43 1532.74 932.328 1535.95 Q929.226 1539.15 923.578 1544.91 Z" fill="#000000" fill-rule="nonzero" fill-opacity="1" /><path clip-path="url(#clip380)" d="M1364.57 1517.37 Q1360.96 1517.37 1359.13 1520.93 Q1357.32 1524.47 1357.32 1531.6 Q1357.32 1538.71 1359.13 1542.27 Q1360.96 1545.82 1364.57 1545.82 Q1368.2 1545.82 1370.01 1542.27 Q1371.84 1538.71 1371.84 1531.6 Q1371.84 1524.47 1370.01 1520.93 Q1368.2 1517.37 1364.57 1517.37 M1364.57 1513.66 Q1370.38 1513.66 1373.43 1518.27 Q1376.51 1522.85 1376.51 1531.6 Q1376.51 1540.33 1373.43 1544.94 Q1370.38 1549.52 1364.57 1549.52 Q1358.76 1549.52 1355.68 1544.94 Q1352.62 1540.33 1352.62 1531.6 Q1352.62 1522.85 1355.68 1518.27 Q1358.76 1513.66 1364.57 1513.66 Z" fill="#000000" fill-rule="nonzero" fill-opacity="1" /><path clip-path="url(#clip380)" d="M1384.73 1542.97 L1389.61 1542.97 L1389.61 1548.85 L1384.73 1548.85 L1384.73 1542.97 Z" fill="#000000" fill-rule="nonzero" fill-opacity="1" /><path clip-path="url(#clip380)" d="M1409.8 1517.37 Q1406.19 1517.37 1404.36 1520.93 Q1402.55 1524.47 1402.55 1531.6 Q1402.55 1538.71 1404.36 1542.27 Q1406.19 1545.82 1409.8 1545.82 Q1413.43 1545.82 1415.24 1542.27 Q1417.07 1538.71 1417.07 1531.6 Q1417.07 1524.47 1415.24 1520.93 Q1413.43 1517.37 1409.8 1517.37 M1409.8 1513.66 Q1415.61 1513.66 1418.66 1518.27 Q1421.74 1522.85 1421.74 1531.6 Q1421.74 1540.33 1418.66 1544.94 Q1415.61 1549.52 1409.8 1549.52 Q1403.99 1549.52 1400.91 1544.94 Q1397.85 1540.33 1397.85 1531.6 Q1397.85 1522.85 1400.91 1518.27 Q1403.99 1513.66 1409.8 1513.66 Z" fill="#000000" fill-rule="nonzero" fill-opacity="1" /><path clip-path="url(#clip380)" d="M1865.33 1517.37 Q1861.71 1517.37 1859.89 1520.93 Q1858.08 1524.47 1858.08 1531.6 Q1858.08 1538.71 1859.89 1542.27 Q1861.71 1545.82 1865.33 1545.82 Q1868.96 1545.82 1870.76 1542.27 Q1872.59 1538.71 1872.59 1531.6 Q1872.59 1524.47 1870.76 1520.93 Q1868.96 1517.37 1865.33 1517.37 M1865.33 1513.66 Q1871.14 1513.66 1874.19 1518.27 Q1877.27 1522.85 1877.27 1531.6 Q1877.27 1540.33 1874.19 1544.94 Q1871.14 1549.52 1865.33 1549.52 Q1859.51 1549.52 1856.44 1544.94 Q1853.38 1540.33 1853.38 1531.6 Q1853.38 1522.85 1856.44 1518.27 Q1859.51 1513.66 1865.33 1513.66 Z" fill="#000000" fill-rule="nonzero" fill-opacity="1" /><path clip-path="url(#clip380)" d="M1885.49 1542.97 L1890.37 1542.97 L1890.37 1548.85 L1885.49 1548.85 L1885.49 1542.97 Z" fill="#000000" fill-rule="nonzero" fill-opacity="1" /><path clip-path="url(#clip380)" d="M1904.58 1544.91 L1920.9 1544.91 L1920.9 1548.85 L1898.96 1548.85 L1898.96 1544.91 Q1901.62 1542.16 1906.2 1537.53 Q1910.81 1532.88 1911.99 1531.53 Q1914.24 1529.01 1915.12 1527.27 Q1916.02 1525.51 1916.02 1523.82 Q1916.02 1521.07 1914.07 1519.33 Q1912.15 1517.6 1909.05 1517.6 Q1906.85 1517.6 1904.4 1518.36 Q1901.97 1519.13 1899.19 1520.68 L1899.19 1515.95 Q1902.01 1514.82 1904.47 1514.24 Q1906.92 1513.66 1908.96 1513.66 Q1914.33 1513.66 1917.52 1516.35 Q1920.72 1519.03 1920.72 1523.52 Q1920.72 1525.65 1919.91 1527.57 Q1919.12 1529.47 1917.01 1532.07 Q1916.44 1532.74 1913.33 1535.95 Q1910.23 1539.15 1904.58 1544.91 Z" fill="#000000" fill-rule="nonzero" fill-opacity="1" /><polyline clip-path="url(#clip382)" style="stroke:#000000; stroke-linecap:round; stroke-linejoin:round; stroke-width:2; stroke-opacity:0.1; fill:none" points="156.598,1448.29 2352.76,1448.29 "/>
<polyline clip-path="url(#clip382)" style="stroke:#000000; stroke-linecap:round; stroke-linejoin:round; stroke-width:2; stroke-opacity:0.1; fill:none" points="156.598,1138.6 2352.76,1138.6 "/>
<polyline clip-path="url(#clip382)" style="stroke:#000000; stroke-linecap:round; stroke-linejoin:round; stroke-width:2; stroke-opacity:0.1; fill:none" points="156.598,828.905 2352.76,828.905 "/>
<polyline clip-path="url(#clip382)" style="stroke:#000000; stroke-linecap:round; stroke-linejoin:round; stroke-width:2; stroke-opacity:0.1; fill:none" points="156.598,519.211 2352.76,519.211 "/>
<polyline clip-path="url(#clip382)" style="stroke:#000000; stroke-linecap:round; stroke-linejoin:round; stroke-width:2; stroke-opacity:0.1; fill:none" points="156.598,209.517 2352.76,209.517 "/>
<polyline clip-path="url(#clip380)" style="stroke:#000000; stroke-linecap:round; stroke-linejoin:round; stroke-width:4; stroke-opacity:1; fill:none" points="156.598,1486.45 156.598,47.2441 "/>
<polyline clip-path="url(#clip380)" style="stroke:#000000; stroke-linecap:round; stroke-linejoin:round; stroke-width:4; stroke-opacity:1; fill:none" points="156.598,1448.29 175.496,1448.29 "/>
<polyline clip-path="url(#clip380)" style="stroke:#000000; stroke-linecap:round; stroke-linejoin:round; stroke-width:4; stroke-opacity:1; fill:none" points="156.598,1138.6 175.496,1138.6 "/>
<polyline clip-path="url(#clip380)" style="stroke:#000000; stroke-linecap:round; stroke-linejoin:round; stroke-width:4; stroke-opacity:1; fill:none" points="156.598,828.905 175.496,828.905 "/>
<polyline clip-path="url(#clip380)" style="stroke:#000000; stroke-linecap:round; stroke-linejoin:round; stroke-width:4; stroke-opacity:1; fill:none" points="156.598,519.211 175.496,519.211 "/>
<polyline clip-path="url(#clip380)" style="stroke:#000000; stroke-linecap:round; stroke-linejoin:round; stroke-width:4; stroke-opacity:1; fill:none" points="156.598,209.517 175.496,209.517 "/>
<path clip-path="url(#clip380)" d="M63.4226 1434.09 Q59.8115 1434.09 57.9828 1437.66 Q56.1773 1441.2 56.1773 1448.33 Q56.1773 1455.43 57.9828 1459 Q59.8115 1462.54 63.4226 1462.54 Q67.0569 1462.54 68.8624 1459 Q70.6911 1455.43 70.6911 1448.33 Q70.6911 1441.2 68.8624 1437.66 Q67.0569 1434.09 63.4226 1434.09 M63.4226 1430.39 Q69.2328 1430.39 72.2883 1435 Q75.367 1439.58 75.367 1448.33 Q75.367 1457.06 72.2883 1461.66 Q69.2328 1466.24 63.4226 1466.24 Q57.6125 1466.24 54.5338 1461.66 Q51.4782 1457.06 51.4782 1448.33 Q51.4782 1439.58 54.5338 1435 Q57.6125 1430.39 63.4226 1430.39 Z" fill="#000000" fill-rule="nonzero" fill-opacity="1" /><path clip-path="url(#clip380)" d="M83.5845 1459.69 L88.4688 1459.69 L88.4688 1465.57 L83.5845 1465.57 L83.5845 1459.69 Z" fill="#000000" fill-rule="nonzero" fill-opacity="1" /><path clip-path="url(#clip380)" d="M108.654 1434.09 Q105.043 1434.09 103.214 1437.66 Q101.409 1441.2 101.409 1448.33 Q101.409 1455.43 103.214 1459 Q105.043 1462.54 108.654 1462.54 Q112.288 1462.54 114.094 1459 Q115.922 1455.43 115.922 1448.33 Q115.922 1441.2 114.094 1437.66 Q112.288 1434.09 108.654 1434.09 M108.654 1430.39 Q114.464 1430.39 117.52 1435 Q120.598 1439.58 120.598 1448.33 Q120.598 1457.06 117.52 1461.66 Q114.464 1466.24 108.654 1466.24 Q102.844 1466.24 99.765 1461.66 Q96.7095 1457.06 96.7095 1448.33 Q96.7095 1439.58 99.765 1435 Q102.844 1430.39 108.654 1430.39 Z" fill="#000000" fill-rule="nonzero" fill-opacity="1" /><path clip-path="url(#clip380)" d="M64.6495 1124.4 Q61.0384 1124.4 59.2097 1127.96 Q57.4041 1131.5 57.4041 1138.63 Q57.4041 1145.74 59.2097 1149.31 Q61.0384 1152.85 64.6495 1152.85 Q68.2837 1152.85 70.0892 1149.31 Q71.9179 1145.74 71.9179 1138.63 Q71.9179 1131.5 70.0892 1127.96 Q68.2837 1124.4 64.6495 1124.4 M64.6495 1120.69 Q70.4596 1120.69 73.5152 1125.3 Q76.5938 1129.88 76.5938 1138.63 Q76.5938 1147.36 73.5152 1151.97 Q70.4596 1156.55 64.6495 1156.55 Q58.8393 1156.55 55.7606 1151.97 Q52.7051 1147.36 52.7051 1138.63 Q52.7051 1129.88 55.7606 1125.3 Q58.8393 1120.69 64.6495 1120.69 Z" fill="#000000" fill-rule="nonzero" fill-opacity="1" /><path clip-path="url(#clip380)" d="M84.8114 1150 L89.6956 1150 L89.6956 1155.88 L84.8114 1155.88 L84.8114 1150 Z" fill="#000000" fill-rule="nonzero" fill-opacity="1" /><path clip-path="url(#clip380)" d="M100.691 1151.94 L108.33 1151.94 L108.33 1125.58 L100.02 1127.25 L100.02 1122.99 L108.283 1121.32 L112.959 1121.32 L112.959 1151.94 L120.598 1151.94 L120.598 1155.88 L100.691 1155.88 L100.691 1151.94 Z" fill="#000000" fill-rule="nonzero" fill-opacity="1" /><path clip-path="url(#clip380)" d="M65.0198 814.704 Q61.4087 814.704 59.58 818.269 Q57.7745 821.81 57.7745 828.94 Q57.7745 836.046 59.58 839.611 Q61.4087 843.153 65.0198 843.153 Q68.6541 843.153 70.4596 839.611 Q72.2883 836.046 72.2883 828.94 Q72.2883 821.81 70.4596 818.269 Q68.6541 814.704 65.0198 814.704 M65.0198 811 Q70.83 811 73.8855 815.607 Q76.9642 820.19 76.9642 828.94 Q76.9642 837.667 73.8855 842.273 Q70.83 846.856 65.0198 846.856 Q59.2097 846.856 56.131 842.273 Q53.0754 837.667 53.0754 828.94 Q53.0754 820.19 56.131 815.607 Q59.2097 811 65.0198 811 Z" fill="#000000" fill-rule="nonzero" fill-opacity="1" /><path clip-path="url(#clip380)" d="M85.1818 840.306 L90.066 840.306 L90.066 846.185 L85.1818 846.185 L85.1818 840.306 Z" fill="#000000" fill-rule="nonzero" fill-opacity="1" /><path clip-path="url(#clip380)" d="M104.279 842.25 L120.598 842.25 L120.598 846.185 L98.6539 846.185 L98.6539 842.25 Q101.316 839.495 105.899 834.866 Q110.506 830.213 111.686 828.87 Q113.932 826.347 114.811 824.611 Q115.714 822.852 115.714 821.162 Q115.714 818.407 113.77 816.671 Q111.848 814.935 108.746 814.935 Q106.547 814.935 104.094 815.699 Q101.663 816.463 98.8854 818.014 L98.8854 813.292 Q101.709 812.158 104.163 811.579 Q106.617 811 108.654 811 Q114.024 811 117.219 813.685 Q120.413 816.37 120.413 820.861 Q120.413 822.991 119.603 824.912 Q118.816 826.81 116.709 829.403 Q116.131 830.074 113.029 833.292 Q109.927 836.486 104.279 842.25 Z" fill="#000000" fill-rule="nonzero" fill-opacity="1" /><path clip-path="url(#clip380)" d="M64.0708 505.01 Q60.4597 505.01 58.631 508.574 Q56.8254 512.116 56.8254 519.246 Q56.8254 526.352 58.631 529.917 Q60.4597 533.458 64.0708 533.458 Q67.705 533.458 69.5105 529.917 Q71.3392 526.352 71.3392 519.246 Q71.3392 512.116 69.5105 508.574 Q67.705 505.01 64.0708 505.01 M64.0708 501.306 Q69.8809 501.306 72.9365 505.912 Q76.0151 510.496 76.0151 519.246 Q76.0151 527.972 72.9365 532.579 Q69.8809 537.162 64.0708 537.162 Q58.2606 537.162 55.1819 532.579 Q52.1264 527.972 52.1264 519.246 Q52.1264 510.496 55.1819 505.912 Q58.2606 501.306 64.0708 501.306 Z" fill="#000000" fill-rule="nonzero" fill-opacity="1" /><path clip-path="url(#clip380)" d="M84.2327 530.611 L89.1169 530.611 L89.1169 536.491 L84.2327 536.491 L84.2327 530.611 Z" fill="#000000" fill-rule="nonzero" fill-opacity="1" /><path clip-path="url(#clip380)" d="M113.469 517.857 Q116.825 518.574 118.7 520.843 Q120.598 523.111 120.598 526.445 Q120.598 531.56 117.08 534.361 Q113.561 537.162 107.08 537.162 Q104.904 537.162 102.589 536.722 Q100.297 536.306 97.8437 535.449 L97.8437 530.935 Q99.7882 532.07 102.103 532.648 Q104.418 533.227 106.941 533.227 Q111.339 533.227 113.631 531.491 Q115.945 529.755 115.945 526.445 Q115.945 523.389 113.793 521.676 Q111.663 519.94 107.844 519.94 L103.816 519.94 L103.816 516.097 L108.029 516.097 Q111.478 516.097 113.307 514.732 Q115.135 513.343 115.135 510.75 Q115.135 508.088 113.237 506.676 Q111.362 505.241 107.844 505.241 Q105.922 505.241 103.723 505.658 Q101.524 506.074 98.8854 506.954 L98.8854 502.787 Q101.547 502.047 103.862 501.676 Q106.2 501.306 108.26 501.306 Q113.584 501.306 116.686 503.736 Q119.788 506.144 119.788 510.264 Q119.788 513.134 118.145 515.125 Q116.501 517.093 113.469 517.857 Z" fill="#000000" fill-rule="nonzero" fill-opacity="1" /><path clip-path="url(#clip380)" d="M62.9365 195.315 Q59.3254 195.315 57.4967 198.88 Q55.6912 202.422 55.6912 209.551 Q55.6912 216.658 57.4967 220.223 Q59.3254 223.764 62.9365 223.764 Q66.5707 223.764 68.3763 220.223 Q70.205 216.658 70.205 209.551 Q70.205 202.422 68.3763 198.88 Q66.5707 195.315 62.9365 195.315 M62.9365 191.612 Q68.7467 191.612 71.8022 196.218 Q74.8809 200.801 74.8809 209.551 Q74.8809 218.278 71.8022 222.885 Q68.7467 227.468 62.9365 227.468 Q57.1264 227.468 54.0477 222.885 Q50.9921 218.278 50.9921 209.551 Q50.9921 200.801 54.0477 196.218 Q57.1264 191.612 62.9365 191.612 Z" fill="#000000" fill-rule="nonzero" fill-opacity="1" /><path clip-path="url(#clip380)" d="M83.0984 220.917 L87.9827 220.917 L87.9827 226.797 L83.0984 226.797 L83.0984 220.917 Z" fill="#000000" fill-rule="nonzero" fill-opacity="1" /><path clip-path="url(#clip380)" d="M111.015 196.311 L99.2095 214.76 L111.015 214.76 L111.015 196.311 M109.788 192.237 L115.668 192.237 L115.668 214.76 L120.598 214.76 L120.598 218.648 L115.668 218.648 L115.668 226.797 L111.015 226.797 L111.015 218.648 L95.4132 218.648 L95.4132 214.135 L109.788 192.237 Z" fill="#000000" fill-rule="nonzero" fill-opacity="1" /><circle clip-path="url(#clip382)" cx="1384.2" cy="1344.33" r="14.4" fill="#808080" fill-rule="evenodd" fill-opacity="1" stroke="#000000" stroke-opacity="1" stroke-width="3.2"/>
<circle clip-path="url(#clip382)" cx="1354.17" cy="1445.72" r="14.4" fill="#808080" fill-rule="evenodd" fill-opacity="1" stroke="#000000" stroke-opacity="1" stroke-width="3.2"/>
<circle clip-path="url(#clip382)" cx="2290.6" cy="1309.95" r="14.4" fill="#808080" fill-rule="evenodd" fill-opacity="1" stroke="#000000" stroke-opacity="1" stroke-width="3.2"/>
<circle clip-path="url(#clip382)" cx="218.754" cy="87.9763" r="14.4" fill="#808080" fill-rule="evenodd" fill-opacity="1" stroke="#000000" stroke-opacity="1" stroke-width="3.2"/>
<path clip-path="url(#clip380)" d="M1388.5 1351.77 Q1379.46 1351.77 1375.98 1353.83 Q1372.5 1355.9 1372.5 1360.88 Q1372.5 1364.85 1375.09 1367.2 Q1377.72 1369.51 1382.22 1369.51 Q1388.42 1369.51 1392.14 1365.14 Q1395.91 1360.72 1395.91 1353.43 L1395.91 1351.77 L1388.5 1351.77 M1403.36 1348.69 L1403.36 1374.57 L1395.91 1374.57 L1395.91 1367.69 Q1393.36 1371.82 1389.55 1373.8 Q1385.74 1375.75 1380.23 1375.75 Q1373.27 1375.75 1369.13 1371.86 Q1365.04 1367.93 1365.04 1361.37 Q1365.04 1353.71 1370.15 1349.82 Q1375.29 1345.93 1385.46 1345.93 L1395.91 1345.93 L1395.91 1345.21 Q1395.91 1340.06 1392.51 1337.27 Q1389.14 1334.43 1383.03 1334.43 Q1379.14 1334.43 1375.45 1335.36 Q1371.77 1336.29 1368.36 1338.16 L1368.36 1331.27 Q1372.46 1329.69 1376.3 1328.92 Q1380.15 1328.11 1383.8 1328.11 Q1393.64 1328.11 1398.5 1333.21 Q1403.36 1338.32 1403.36 1348.69 Z" fill="#000000" fill-rule="nonzero" fill-opacity="1" /><path clip-path="url(#clip380)" d="M1366.73 1453.31 Q1366.73 1445.09 1363.33 1440.43 Q1359.96 1435.73 1354.05 1435.73 Q1348.14 1435.73 1344.73 1440.43 Q1341.37 1445.09 1341.37 1453.31 Q1341.37 1461.53 1344.73 1466.23 Q1348.14 1470.89 1354.05 1470.89 Q1359.96 1470.89 1363.33 1466.23 Q1366.73 1461.53 1366.73 1453.31 M1341.37 1437.47 Q1343.72 1433.42 1347.28 1431.48 Q1350.89 1429.49 1355.87 1429.49 Q1364.14 1429.49 1369.28 1436.05 Q1374.47 1442.62 1374.47 1453.31 Q1374.47 1464.01 1369.28 1470.57 Q1364.14 1477.13 1355.87 1477.13 Q1350.89 1477.13 1347.28 1475.19 Q1343.72 1473.2 1341.37 1469.15 L1341.37 1475.96 L1333.88 1475.96 L1333.88 1412.92 L1341.37 1412.92 L1341.37 1437.47 Z" fill="#000000" fill-rule="nonzero" fill-opacity="1" /><path clip-path="url(#clip380)" d="M2308.55 1296.56 L2308.55 1303.53 Q2305.39 1301.79 2302.19 1300.94 Q2299.03 1300.04 2295.79 1300.04 Q2288.53 1300.04 2284.52 1304.66 Q2280.51 1309.24 2280.51 1317.54 Q2280.51 1325.85 2284.52 1330.47 Q2288.53 1335.04 2295.79 1335.04 Q2299.03 1335.04 2302.19 1334.19 Q2305.39 1333.3 2308.55 1331.56 L2308.55 1338.45 Q2305.43 1339.91 2302.06 1340.63 Q2298.74 1341.36 2294.98 1341.36 Q2284.73 1341.36 2278.69 1334.92 Q2272.65 1328.48 2272.65 1317.54 Q2272.65 1306.44 2278.73 1300.08 Q2284.85 1293.72 2295.46 1293.72 Q2298.9 1293.72 2302.19 1294.45 Q2305.47 1295.14 2308.55 1296.56 Z" fill="#000000" fill-rule="nonzero" fill-opacity="1" /><path clip-path="url(#clip380)" d="M231.575 79.7327 L231.575 55.1842 L239.028 55.1842 L239.028 118.216 L231.575 118.216 L231.575 111.411 Q229.225 115.462 225.62 117.447 Q222.055 119.391 217.032 119.391 Q208.809 119.391 203.624 112.829 Q198.479 106.266 198.479 95.5717 Q198.479 84.8773 203.624 78.3149 Q208.809 71.7524 217.032 71.7524 Q222.055 71.7524 225.62 73.7373 Q229.225 75.6818 231.575 79.7327 M206.176 95.5717 Q206.176 103.795 209.538 108.494 Q212.941 113.153 218.855 113.153 Q224.769 113.153 228.172 108.494 Q231.575 103.795 231.575 95.5717 Q231.575 87.3484 228.172 82.6898 Q224.769 77.9908 218.855 77.9908 Q212.941 77.9908 209.538 82.6898 Q206.176 87.3484 206.176 95.5717 Z" fill="#000000" fill-rule="nonzero" fill-opacity="1" /><path clip-path="url(#clip380)" d="M2007.5 198.898 L2279.55 198.898 L2279.55 95.2176 L2007.5 95.2176  Z" fill="#ffffff" fill-rule="evenodd" fill-opacity="1"/>
<polyline clip-path="url(#clip380)" style="stroke:#000000; stroke-linecap:round; stroke-linejoin:round; stroke-width:4; stroke-opacity:1; fill:none" points="2007.5,198.898 2279.55,198.898 2279.55,95.2176 2007.5,95.2176 2007.5,198.898 "/>
<circle clip-path="url(#clip380)" cx="2105.11" cy="147.058" r="20.48" fill="#808080" fill-rule="evenodd" fill-opacity="1" stroke="#000000" stroke-opacity="1" stroke-width="4.55111"/>
<path clip-path="url(#clip380)" d="M2216.56 166.745 Q2214.76 171.375 2213.04 172.787 Q2211.33 174.199 2208.46 174.199 L2205.06 174.199 L2205.06 170.634 L2207.56 170.634 Q2209.32 170.634 2210.29 169.8 Q2211.26 168.967 2212.44 165.865 L2213.2 163.921 L2202.72 138.412 L2207.23 138.412 L2215.33 158.689 L2223.44 138.412 L2227.95 138.412 L2216.56 166.745 Z" fill="#000000" fill-rule="nonzero" fill-opacity="1" /><path clip-path="url(#clip380)" d="M2235.24 160.402 L2242.88 160.402 L2242.88 134.037 L2234.57 135.703 L2234.57 131.444 L2242.83 129.778 L2247.51 129.778 L2247.51 160.402 L2255.15 160.402 L2255.15 164.338 L2235.24 164.338 L2235.24 160.402 Z" fill="#000000" fill-rule="nonzero" fill-opacity="1" /></svg>
