<?xml version="1.0" encoding="utf-8"?>
<svg xmlns="http://www.w3.org/2000/svg" xmlns:xlink="http://www.w3.org/1999/xlink" width="600" height="400" viewBox="0 0 2400 1600">
<defs>
  <clipPath id="clip440">
    <rect x="0" y="0" width="2400" height="1600"/>
  </clipPath>
</defs>
<path clip-path="url(#clip440)" d="M0 1600 L2400 1600 L2400 0 L0 0  Z" fill="#ffffff" fill-rule="evenodd" fill-opacity="1"/>
<defs>
  <clipPath id="clip441">
    <rect x="480" y="0" width="1681" height="1600"/>
  </clipPath>
</defs>
<path clip-path="url(#clip440)" d="M156.598 1486.45 L2352.76 1486.45 L2352.76 47.2441 L156.598 47.2441  Z" fill="#ffffff" fill-rule="evenodd" fill-opacity="1"/>
<defs>
  <clipPath id="clip442">
    <rect x="156" y="47" width="2197" height="1440"/>
  </clipPath>
</defs>
<polyline clip-path="url(#clip442)" style="stroke:#000000; stroke-linecap:round; stroke-linejoin:round; stroke-width:2; stroke-opacity:0.1; fill:none" points="382.398,1486.45 382.398,47.2441 "/>
<polyline clip-path="url(#clip442)" style="stroke:#000000; stroke-linecap:round; stroke-linejoin:round; stroke-width:2; stroke-opacity:0.1; fill:none" points="921.187,1486.45 921.187,47.2441 "/>
<polyline clip-path="url(#clip442)" style="stroke:#000000; stroke-linecap:round; stroke-linejoin:round; stroke-width:2; stroke-opacity:0.1; fill:none" points="1459.98,1486.45 1459.98,47.2441 "/>
<polyline clip-path="url(#clip442)" style="stroke:#000000; stroke-linecap:round; stroke-linejoin:round; stroke-width:2; stroke-opacity:0.1; fill:none" points="1998.76,1486.45 1998.76,47.2441 "/>
<polyline clip-path="url(#clip440)" style="stroke:#000000; stroke-linecap:round; stroke-linejoin:round; stroke-width:4; stroke-opacity:1; fill:none" points="156.598,1486.45 2352.76,1486.45 "/>
<polyline clip-path="url(#clip440)" style="stroke:#000000; stroke-linecap:round; stroke-linejoin:round; stroke-width:4; stroke-opacity:1; fill:none" points="382.398,1486.45 382.398,1467.55 "/>
<polyline clip-path="url(#clip440)" style="stroke:#000000; stroke-linecap:round; stroke-linejoin:round; stroke-width:4; stroke-opacity:1; fill:none" points="921.187,1486.45 921.187,1467.55 "/>
<polyline clip-path="url(#clip440)" style="stroke:#000000; stroke-linecap:round; stroke-linejoin:round; stroke-width:4; stroke-opacity:1; fill:none" points="1459.98,1486.45 1459.98,1467.55 "/>
<polyline clip-path="url(#clip440)" style="stroke:#000000; stroke-linecap:round; stroke-linejoin:round; stroke-width:4; stroke-opacity:1; fill:none" points="1998.76,1486.45 1998.76,1467.55 "/>
<path clip-path="url(#clip440)" d="M313.845 1532.02 L343.521 1532.02 L343.521 1535.95 L313.845 1535.95 L313.845 1532.02 Z" fill="#000000" fill-rule="nonzero" fill-opacity="1" /><path clip-path="url(#clip440)" d="M363.614 1517.37 Q360.002 1517.37 358.174 1520.93 Q356.368 1524.47 356.368 1531.6 Q356.368 1538.71 358.174 1542.27 Q360.002 1545.82 363.614 1545.82 Q367.248 1545.82 369.053 1542.27 Q370.882 1538.71 370.882 1531.6 Q370.882 1524.47 369.053 1520.93 Q367.248 1517.37 363.614 1517.37 M363.614 1513.66 Q369.424 1513.66 372.479 1518.27 Q375.558 1522.85 375.558 1531.6 Q375.558 1540.33 372.479 1544.94 Q369.424 1549.52 363.614 1549.52 Q357.803 1549.52 354.725 1544.94 Q351.669 1540.33 351.669 1531.6 Q351.669 1522.85 354.725 1518.27 Q357.803 1513.66 363.614 1513.66 Z" fill="#000000" fill-rule="nonzero" fill-opacity="1" /><path clip-path="url(#clip440)" d="M383.775 1542.97 L388.66 1542.97 L388.66 1548.85 L383.775 1548.85 L383.775 1542.97 Z" fill="#000000" fill-rule="nonzero" fill-opacity="1" /><path clip-path="url(#clip440)" d="M398.891 1514.29 L417.248 1514.29 L417.248 1518.22 L403.174 1518.22 L403.174 1526.7 Q404.192 1526.35 405.211 1526.19 Q406.229 1526 407.248 1526 Q413.035 1526 416.414 1529.17 Q419.794 1532.34 419.794 1537.76 Q419.794 1543.34 416.322 1546.44 Q412.849 1549.52 406.53 1549.52 Q404.354 1549.52 402.086 1549.15 Q399.84 1548.78 397.433 1548.04 L397.433 1543.34 Q399.516 1544.47 401.738 1545.03 Q403.961 1545.58 406.437 1545.58 Q410.442 1545.58 412.78 1543.48 Q415.118 1541.37 415.118 1537.76 Q415.118 1534.15 412.78 1532.04 Q410.442 1529.94 406.437 1529.94 Q404.562 1529.94 402.687 1530.35 Q400.836 1530.77 398.891 1531.65 L398.891 1514.29 Z" fill="#000000" fill-rule="nonzero" fill-opacity="1" /><path clip-path="url(#clip440)" d="M439.007 1517.37 Q435.396 1517.37 433.567 1520.93 Q431.761 1524.47 431.761 1531.6 Q431.761 1538.71 433.567 1542.27 Q435.396 1545.82 439.007 1545.82 Q442.641 1545.82 444.446 1542.27 Q446.275 1538.71 446.275 1531.6 Q446.275 1524.47 444.446 1520.93 Q442.641 1517.37 439.007 1517.37 M439.007 1513.66 Q444.817 1513.66 447.872 1518.27 Q450.951 1522.85 450.951 1531.6 Q450.951 1540.33 447.872 1544.94 Q444.817 1549.52 439.007 1549.52 Q433.196 1549.52 430.118 1544.94 Q427.062 1540.33 427.062 1531.6 Q427.062 1522.85 430.118 1518.27 Q433.196 1513.66 439.007 1513.66 Z" fill="#000000" fill-rule="nonzero" fill-opacity="1" /><path clip-path="url(#clip440)" d="M853.132 1532.02 L882.808 1532.02 L882.808 1535.95 L853.132 1535.95 L853.132 1532.02 Z" fill="#000000" fill-rule="nonzero" fill-opacity="1" /><path clip-path="url(#clip440)" d="M902.9 1517.37 Q899.289 1517.37 897.46 1520.93 Q895.655 1524.47 895.655 1531.6 Q895.655 1538.71 897.46 1542.27 Q899.289 1545.82 902.9 1545.82 Q906.534 1545.82 908.34 1542.27 Q910.169 1538.71 910.169 1531.6 Q910.169 1524.47 908.34 1520.93 Q906.534 1517.37 902.9 1517.37 M902.9 1513.66 Q908.71 1513.66 911.766 1518.27 Q914.845 1522.85 914.845 1531.6 Q914.845 1540.33 911.766 1544.94 Q908.71 1549.52 902.9 1549.52 Q897.09 1549.52 894.011 1544.94 Q890.956 1540.33 890.956 1531.6 Q890.956 1522.85 894.011 1518.27 Q897.09 1513.66 902.9 1513.66 Z" fill="#000000" fill-rule="nonzero" fill-opacity="1" /><path clip-path="url(#clip440)" d="M923.062 1542.97 L927.946 1542.97 L927.946 1548.85 L923.062 1548.85 L923.062 1542.97 Z" fill="#000000" fill-rule="nonzero" fill-opacity="1" /><path clip-path="url(#clip440)" d="M942.159 1544.91 L958.479 1544.91 L958.479 1548.85 L936.534 1548.85 L936.534 1544.91 Q939.196 1542.16 943.78 1537.53 Q948.386 1532.88 949.567 1531.53 Q951.812 1529.01 952.692 1527.27 Q953.594 1525.51 953.594 1523.82 Q953.594 1521.07 951.65 1519.33 Q949.729 1517.6 946.627 1517.6 Q944.428 1517.6 941.974 1518.36 Q939.543 1519.13 936.766 1520.68 L936.766 1515.95 Q939.59 1514.82 942.043 1514.24 Q944.497 1513.66 946.534 1513.66 Q951.904 1513.66 955.099 1516.35 Q958.293 1519.03 958.293 1523.52 Q958.293 1525.65 957.483 1527.57 Q956.696 1529.47 954.59 1532.07 Q954.011 1532.74 950.909 1535.95 Q947.807 1539.15 942.159 1544.91 Z" fill="#000000" fill-rule="nonzero" fill-opacity="1" /><path clip-path="url(#clip440)" d="M968.34 1514.29 L986.696 1514.29 L986.696 1518.22 L972.622 1518.22 L972.622 1526.7 Q973.64 1526.35 974.659 1526.19 Q975.678 1526 976.696 1526 Q982.483 1526 985.863 1529.17 Q989.242 1532.34 989.242 1537.76 Q989.242 1543.34 985.77 1546.44 Q982.298 1549.52 975.978 1549.52 Q973.803 1549.52 971.534 1549.15 Q969.289 1548.78 966.881 1548.04 L966.881 1543.34 Q968.965 1544.47 971.187 1545.03 Q973.409 1545.58 975.886 1545.58 Q979.89 1545.58 982.228 1543.48 Q984.566 1541.37 984.566 1537.76 Q984.566 1534.15 982.228 1532.04 Q979.89 1529.94 975.886 1529.94 Q974.011 1529.94 972.136 1530.35 Q970.284 1530.77 968.34 1531.65 L968.34 1514.29 Z" fill="#000000" fill-rule="nonzero" fill-opacity="1" /><path clip-path="url(#clip440)" d="M1422.28 1517.37 Q1418.67 1517.37 1416.84 1520.93 Q1415.03 1524.47 1415.03 1531.6 Q1415.03 1538.71 1416.84 1542.27 Q1418.67 1545.82 1422.28 1545.82 Q1425.91 1545.82 1427.72 1542.27 Q1429.55 1538.71 1429.55 1531.6 Q1429.55 1524.47 1427.72 1520.93 Q1425.91 1517.37 1422.28 1517.37 M1422.28 1513.66 Q1428.09 1513.66 1431.15 1518.27 Q1434.22 1522.85 1434.22 1531.6 Q1434.22 1540.33 1431.15 1544.94 Q1428.09 1549.52 1422.28 1549.52 Q1416.47 1549.52 1413.39 1544.94 Q1410.34 1540.33 1410.34 1531.6 Q1410.34 1522.85 1413.39 1518.27 Q1416.47 1513.66 1422.28 1513.66 Z" fill="#000000" fill-rule="nonzero" fill-opacity="1" /><path clip-path="url(#clip440)" d="M1442.44 1542.97 L1447.33 1542.97 L1447.33 1548.85 L1442.44 1548.85 L1442.44 1542.97 Z" fill="#000000" fill-rule="nonzero" fill-opacity="1" /><path clip-path="url(#clip440)" d="M1467.51 1517.37 Q1463.9 1517.37 1462.07 1520.93 Q1460.27 1524.47 1460.27 1531.6 Q1460.27 1538.71 1462.07 1542.27 Q1463.9 1545.82 1467.51 1545.82 Q1471.14 1545.82 1472.95 1542.27 Q1474.78 1538.71 1474.78 1531.6 Q1474.78 1524.47 1472.95 1520.93 Q1471.14 1517.37 1467.51 1517.37 M1467.51 1513.66 Q1473.32 1513.66 1476.38 1518.27 Q1479.46 1522.85 1479.46 1531.6 Q1479.46 1540.33 1476.38 1544.94 Q1473.32 1549.52 1467.51 1549.52 Q1461.7 1549.52 1458.62 1544.94 Q1455.57 1540.33 1455.57 1531.6 Q1455.57 1522.85 1458.62 1518.27 Q1461.7 1513.66 1467.51 1513.66 Z" fill="#000000" fill-rule="nonzero" fill-opacity="1" /><path clip-path="url(#clip440)" d="M1497.67 1517.37 Q1494.06 1517.37 1492.23 1520.93 Q1490.43 1524.47 1490.43 1531.6 Q1490.43 1538.71 1492.23 1542.27 Q1494.06 1545.82 1497.67 1545.82 Q1501.31 1545.82 1503.11 1542.27 Q1504.94 1538.71 1504.94 1531.6 Q1504.94 1524.47 1503.11 1520.93 Q1501.31 1517.37 1497.67 1517.37 M1497.67 1513.66 Q1503.48 1513.66 1506.54 1518.27 Q1509.62 1522.85 1509.62 1531.6 Q1509.62 1540.33 1506.54 1544.94 Q1503.48 1549.52 1497.67 1549.52 Q1491.86 1549.52 1488.78 1544.94 Q1485.73 1540.33 1485.73 1531.6 Q1485.73 1522.85 1488.78 1518.27 Q1491.86 1513.66 1497.67 1513.66 Z" fill="#000000" fill-rule="nonzero" fill-opacity="1" /><path clip-path="url(#clip440)" d="M1961.57 1517.37 Q1957.95 1517.37 1956.13 1520.93 Q1954.32 1524.47 1954.32 1531.6 Q1954.32 1538.71 1956.13 1542.27 Q1957.95 1545.82 1961.57 1545.82 Q1965.2 1545.82 1967.01 1542.27 Q1968.83 1538.71 1968.83 1531.6 Q1968.83 1524.47 1967.01 1520.93 Q1965.2 1517.37 1961.57 1517.37 M1961.57 1513.66 Q1967.38 1513.66 1970.43 1518.27 Q1973.51 1522.85 1973.51 1531.6 Q1973.51 1540.33 1970.43 1544.94 Q1967.38 1549.52 1961.57 1549.52 Q1955.76 1549.52 1952.68 1544.94 Q1949.62 1540.33 1949.62 1531.6 Q1949.62 1522.85 1952.68 1518.27 Q1955.76 1513.66 1961.57 1513.66 Z" fill="#000000" fill-rule="nonzero" fill-opacity="1" /><path clip-path="url(#clip440)" d="M1981.73 1542.97 L1986.61 1542.97 L1986.61 1548.85 L1981.73 1548.85 L1981.73 1542.97 Z" fill="#000000" fill-rule="nonzero" fill-opacity="1" /><path clip-path="url(#clip440)" d="M2000.83 1544.91 L2017.14 1544.91 L2017.14 1548.85 L1995.2 1548.85 L1995.2 1544.91 Q1997.86 1542.16 2002.45 1537.53 Q2007.05 1532.88 2008.23 1531.53 Q2010.48 1529.01 2011.36 1527.27 Q2012.26 1525.51 2012.26 1523.82 Q2012.26 1521.07 2010.32 1519.33 Q2008.39 1517.6 2005.29 1517.6 Q2003.09 1517.6 2000.64 1518.36 Q1998.21 1519.13 1995.43 1520.68 L1995.43 1515.95 Q1998.26 1514.82 2000.71 1514.24 Q2003.16 1513.66 2005.2 1513.66 Q2010.57 1513.66 2013.76 1516.35 Q2016.96 1519.03 2016.96 1523.52 Q2016.96 1525.65 2016.15 1527.57 Q2015.36 1529.47 2013.26 1532.07 Q2012.68 1532.74 2009.58 1535.95 Q2006.47 1539.15 2000.83 1544.91 Z" fill="#000000" fill-rule="nonzero" fill-opacity="1" /><path clip-path="url(#clip440)" d="M2027.01 1514.29 L2045.36 1514.29 L2045.36 1518.22 L2031.29 1518.22 L2031.29 1526.7 Q2032.31 1526.35 2033.32 1526.19 Q2034.34 1526 2035.36 1526 Q2041.15 1526 2044.53 1529.17 Q2047.91 1532.34 2047.91 1537.76 Q2047.91 1543.34 2044.44 1546.44 Q2040.96 1549.52 2034.64 1549.52 Q2032.47 1549.52 2030.2 1549.15 Q2027.95 1548.78 2025.55 1548.04 L2025.55 1543.34 Q2027.63 1544.47 2029.85 1545.03 Q2032.07 1545.58 2034.55 1545.58 Q2038.56 1545.58 2040.89 1543.48 Q2043.23 1541.37 2043.23 1537.76 Q2043.23 1534.15 2040.89 1532.04 Q2038.56 1529.94 2034.55 1529.94 Q2032.68 1529.94 2030.8 1530.35 Q2028.95 1530.77 2027.01 1531.65 L2027.01 1514.29 Z" fill="#000000" fill-rule="nonzero" fill-opacity="1" /><polyline clip-path="url(#clip442)" style="stroke:#000000; stroke-linecap:round; stroke-linejoin:round; stroke-width:2; stroke-opacity:0.1; fill:none" points="156.598,1451.27 2352.76,1451.27 "/>
<polyline clip-path="url(#clip442)" style="stroke:#000000; stroke-linecap:round; stroke-linejoin:round; stroke-width:2; stroke-opacity:0.1; fill:none" points="156.598,1146.8 2352.76,1146.8 "/>
<polyline clip-path="url(#clip442)" style="stroke:#000000; stroke-linecap:round; stroke-linejoin:round; stroke-width:2; stroke-opacity:0.1; fill:none" points="156.598,842.333 2352.76,842.333 "/>
<polyline clip-path="url(#clip442)" style="stroke:#000000; stroke-linecap:round; stroke-linejoin:round; stroke-width:2; stroke-opacity:0.1; fill:none" points="156.598,537.866 2352.76,537.866 "/>
<polyline clip-path="url(#clip442)" style="stroke:#000000; stroke-linecap:round; stroke-linejoin:round; stroke-width:2; stroke-opacity:0.1; fill:none" points="156.598,233.398 2352.76,233.398 "/>
<polyline clip-path="url(#clip440)" style="stroke:#000000; stroke-linecap:round; stroke-linejoin:round; stroke-width:4; stroke-opacity:1; fill:none" points="156.598,1486.45 156.598,47.2441 "/>
<polyline clip-path="url(#clip440)" style="stroke:#000000; stroke-linecap:round; stroke-linejoin:round; stroke-width:4; stroke-opacity:1; fill:none" points="156.598,1451.27 175.496,1451.27 "/>
<polyline clip-path="url(#clip440)" style="stroke:#000000; stroke-linecap:round; stroke-linejoin:round; stroke-width:4; stroke-opacity:1; fill:none" points="156.598,1146.8 175.496,1146.8 "/>
<polyline clip-path="url(#clip440)" style="stroke:#000000; stroke-linecap:round; stroke-linejoin:round; stroke-width:4; stroke-opacity:1; fill:none" points="156.598,842.333 175.496,842.333 "/>
<polyline clip-path="url(#clip440)" style="stroke:#000000; stroke-linecap:round; stroke-linejoin:round; stroke-width:4; stroke-opacity:1; fill:none" points="156.598,537.866 175.496,537.866 "/>
<polyline clip-path="url(#clip440)" style="stroke:#000000; stroke-linecap:round; stroke-linejoin:round; stroke-width:4; stroke-opacity:1; fill:none" points="156.598,233.398 175.496,233.398 "/>
<path clip-path="url(#clip440)" d="M63.4226 1437.07 Q59.8115 1437.07 57.9828 1440.63 Q56.1773 1444.17 56.1773 1451.3 Q56.1773 1458.41 57.9828 1461.97 Q59.8115 1465.52 63.4226 1465.52 Q67.0569 1465.52 68.8624 1461.97 Q70.6911 1458.41 70.6911 1451.3 Q70.6911 1444.17 68.8624 1440.63 Q67.0569 1437.07 63.4226 1437.07 M63.4226 1433.36 Q69.2328 1433.36 72.2883 1437.97 Q75.367 1442.55 75.367 1451.3 Q75.367 1460.03 72.2883 1464.64 Q69.2328 1469.22 63.4226 1469.22 Q57.6125 1469.22 54.5338 1464.64 Q51.4782 1460.03 51.4782 1451.3 Q51.4782 1442.55 54.5338 1437.97 Q57.6125 1433.36 63.4226 1433.36 Z" fill="#000000" fill-rule="nonzero" fill-opacity="1" /><path clip-path="url(#clip440)" d="M83.5845 1462.67 L88.4688 1462.67 L88.4688 1468.55 L83.5845 1468.55 L83.5845 1462.67 Z" fill="#000000" fill-rule="nonzero" fill-opacity="1" /><path clip-path="url(#clip440)" d="M108.654 1437.07 Q105.043 1437.07 103.214 1440.63 Q101.409 1444.17 101.409 1451.3 Q101.409 1458.41 103.214 1461.97 Q105.043 1465.52 108.654 1465.52 Q112.288 1465.52 114.094 1461.97 Q115.922 1458.41 115.922 1451.3 Q115.922 1444.17 114.094 1440.63 Q112.288 1437.07 108.654 1437.07 M108.654 1433.36 Q114.464 1433.36 117.52 1437.97 Q120.598 1442.55 120.598 1451.3 Q120.598 1460.03 117.52 1464.64 Q114.464 1469.22 108.654 1469.22 Q102.844 1469.22 99.765 1464.64 Q96.7095 1460.03 96.7095 1451.3 Q96.7095 1442.55 99.765 1437.97 Q102.844 1433.36 108.654 1433.36 Z" fill="#000000" fill-rule="nonzero" fill-opacity="1" /><path clip-path="url(#clip440)" d="M64.6495 1132.6 Q61.0384 1132.6 59.2097 1136.16 Q57.4041 1139.71 57.4041 1146.84 Q57.4041 1153.94 59.2097 1157.51 Q61.0384 1161.05 64.6495 1161.05 Q68.2837 1161.05 70.0892 1157.51 Q71.9179 1153.94 71.9179 1146.84 Q71.9179 1139.71 70.0892 1136.16 Q68.2837 1132.6 64.6495 1132.6 M64.6495 1128.9 Q70.4596 1128.9 73.5152 1133.5 Q76.5938 1138.09 76.5938 1146.84 Q76.5938 1155.56 73.5152 1160.17 Q70.4596 1164.75 64.6495 1164.75 Q58.8393 1164.75 55.7606 1160.17 Q52.7051 1155.56 52.7051 1146.84 Q52.7051 1138.09 55.7606 1133.5 Q58.8393 1128.9 64.6495 1128.9 Z" fill="#000000" fill-rule="nonzero" fill-opacity="1" /><path clip-path="url(#clip440)" d="M84.8114 1158.2 L89.6956 1158.2 L89.6956 1164.08 L84.8114 1164.08 L84.8114 1158.2 Z" fill="#000000" fill-rule="nonzero" fill-opacity="1" /><path clip-path="url(#clip440)" d="M100.691 1160.15 L108.33 1160.15 L108.33 1133.78 L100.02 1135.45 L100.02 1131.19 L108.283 1129.52 L112.959 1129.52 L112.959 1160.15 L120.598 1160.15 L120.598 1164.08 L100.691 1164.08 L100.691 1160.15 Z" fill="#000000" fill-rule="nonzero" fill-opacity="1" /><path clip-path="url(#clip440)" d="M65.0198 828.132 Q61.4087 828.132 59.58 831.697 Q57.7745 835.239 57.7745 842.368 Q57.7745 849.475 59.58 853.039 Q61.4087 856.581 65.0198 856.581 Q68.6541 856.581 70.4596 853.039 Q72.2883 849.475 72.2883 842.368 Q72.2883 835.239 70.4596 831.697 Q68.6541 828.132 65.0198 828.132 M65.0198 824.428 Q70.83 824.428 73.8855 829.035 Q76.9642 833.618 76.9642 842.368 Q76.9642 851.095 73.8855 855.701 Q70.83 860.285 65.0198 860.285 Q59.2097 860.285 56.131 855.701 Q53.0754 851.095 53.0754 842.368 Q53.0754 833.618 56.131 829.035 Q59.2097 824.428 65.0198 824.428 Z" fill="#000000" fill-rule="nonzero" fill-opacity="1" /><path clip-path="url(#clip440)" d="M85.1818 853.734 L90.066 853.734 L90.066 859.613 L85.1818 859.613 L85.1818 853.734 Z" fill="#000000" fill-rule="nonzero" fill-opacity="1" /><path clip-path="url(#clip440)" d="M104.279 855.678 L120.598 855.678 L120.598 859.613 L98.6539 859.613 L98.6539 855.678 Q101.316 852.924 105.899 848.294 Q110.506 843.641 111.686 842.299 Q113.932 839.776 114.811 838.039 Q115.714 836.28 115.714 834.59 Q115.714 831.836 113.77 830.1 Q111.848 828.364 108.746 828.364 Q106.547 828.364 104.094 829.127 Q101.663 829.891 98.8854 831.442 L98.8854 826.72 Q101.709 825.586 104.163 825.007 Q106.617 824.428 108.654 824.428 Q114.024 824.428 117.219 827.114 Q120.413 829.799 120.413 834.289 Q120.413 836.419 119.603 838.34 Q118.816 840.239 116.709 842.831 Q116.131 843.502 113.029 846.72 Q109.927 849.914 104.279 855.678 Z" fill="#000000" fill-rule="nonzero" fill-opacity="1" /><path clip-path="url(#clip440)" d="M64.0708 523.664 Q60.4597 523.664 58.631 527.229 Q56.8254 530.771 56.8254 537.9 Q56.8254 545.007 58.631 548.572 Q60.4597 552.113 64.0708 552.113 Q67.705 552.113 69.5105 548.572 Q71.3392 545.007 71.3392 537.9 Q71.3392 530.771 69.5105 527.229 Q67.705 523.664 64.0708 523.664 M64.0708 519.961 Q69.8809 519.961 72.9365 524.567 Q76.0151 529.15 76.0151 537.9 Q76.0151 546.627 72.9365 551.234 Q69.8809 555.817 64.0708 555.817 Q58.2606 555.817 55.1819 551.234 Q52.1264 546.627 52.1264 537.9 Q52.1264 529.15 55.1819 524.567 Q58.2606 519.961 64.0708 519.961 Z" fill="#000000" fill-rule="nonzero" fill-opacity="1" /><path clip-path="url(#clip440)" d="M84.2327 549.266 L89.1169 549.266 L89.1169 555.146 L84.2327 555.146 L84.2327 549.266 Z" fill="#000000" fill-rule="nonzero" fill-opacity="1" /><path clip-path="url(#clip440)" d="M113.469 536.511 Q116.825 537.229 118.7 539.498 Q120.598 541.766 120.598 545.099 Q120.598 550.215 117.08 553.016 Q113.561 555.817 107.08 555.817 Q104.904 555.817 102.589 555.377 Q100.297 554.96 97.8437 554.104 L97.8437 549.59 Q99.7882 550.724 102.103 551.303 Q104.418 551.882 106.941 551.882 Q111.339 551.882 113.631 550.146 Q115.945 548.41 115.945 545.099 Q115.945 542.044 113.793 540.331 Q111.663 538.595 107.844 538.595 L103.816 538.595 L103.816 534.752 L108.029 534.752 Q111.478 534.752 113.307 533.386 Q115.135 531.998 115.135 529.405 Q115.135 526.743 113.237 525.331 Q111.362 523.896 107.844 523.896 Q105.922 523.896 103.723 524.312 Q101.524 524.729 98.8854 525.609 L98.8854 521.442 Q101.547 520.701 103.862 520.331 Q106.2 519.961 108.26 519.961 Q113.584 519.961 116.686 522.391 Q119.788 524.799 119.788 528.919 Q119.788 531.789 118.145 533.78 Q116.501 535.748 113.469 536.511 Z" fill="#000000" fill-rule="nonzero" fill-opacity="1" /><path clip-path="url(#clip440)" d="M62.9365 219.197 Q59.3254 219.197 57.4967 222.761 Q55.6912 226.303 55.6912 233.433 Q55.6912 240.539 57.4967 244.104 Q59.3254 247.645 62.9365 247.645 Q66.5707 247.645 68.3763 244.104 Q70.205 240.539 70.205 233.433 Q70.205 226.303 68.3763 222.761 Q66.5707 219.197 62.9365 219.197 M62.9365 215.493 Q68.7467 215.493 71.8022 220.099 Q74.8809 224.683 74.8809 233.433 Q74.8809 242.159 71.8022 246.766 Q68.7467 251.349 62.9365 251.349 Q57.1264 251.349 54.0477 246.766 Q50.9921 242.159 50.9921 233.433 Q50.9921 224.683 54.0477 220.099 Q57.1264 215.493 62.9365 215.493 Z" fill="#000000" fill-rule="nonzero" fill-opacity="1" /><path clip-path="url(#clip440)" d="M83.0984 244.798 L87.9827 244.798 L87.9827 250.678 L83.0984 250.678 L83.0984 244.798 Z" fill="#000000" fill-rule="nonzero" fill-opacity="1" /><path clip-path="url(#clip440)" d="M111.015 220.192 L99.2095 238.641 L111.015 238.641 L111.015 220.192 M109.788 216.118 L115.668 216.118 L115.668 238.641 L120.598 238.641 L120.598 242.53 L115.668 242.53 L115.668 250.678 L111.015 250.678 L111.015 242.53 L95.4132 242.53 L95.4132 238.016 L109.788 216.118 Z" fill="#000000" fill-rule="nonzero" fill-opacity="1" /><circle clip-path="url(#clip442)" cx="1556.21" cy="902.053" r="14.4" fill="#808080" fill-rule="evenodd" fill-opacity="1" stroke="#000000" stroke-opacity="1" stroke-width="3.2"/>
<circle clip-path="url(#clip442)" cx="1416.98" cy="1445.72" r="14.4" fill="#808080" fill-rule="evenodd" fill-opacity="1" stroke="#000000" stroke-opacity="1" stroke-width="3.2"/>
<circle clip-path="url(#clip442)" cx="2290.6" cy="1306.46" r="14.4" fill="#808080" fill-rule="evenodd" fill-opacity="1" stroke="#000000" stroke-opacity="1" stroke-width="3.2"/>
<circle clip-path="url(#clip442)" cx="218.754" cy="87.9763" r="14.4" fill="#808080" fill-rule="evenodd" fill-opacity="1" stroke="#000000" stroke-opacity="1" stroke-width="3.2"/>
<path clip-path="url(#clip440)" d="M1560.51 909.486 Q1551.47 909.486 1547.99 911.552 Q1544.5 913.618 1544.5 918.601 Q1544.5 922.57 1547.1 924.92 Q1549.73 927.229 1554.23 927.229 Q1560.42 927.229 1564.15 922.854 Q1567.92 918.439 1567.92 911.147 L1567.92 909.486 L1560.51 909.486 M1575.37 906.407 L1575.37 932.293 L1567.92 932.293 L1567.92 925.406 Q1565.37 929.538 1561.56 931.523 Q1557.75 933.467 1552.24 933.467 Q1545.27 933.467 1541.14 929.578 Q1537.05 925.649 1537.05 919.087 Q1537.05 911.43 1542.16 907.542 Q1547.3 903.653 1557.47 903.653 L1567.92 903.653 L1567.92 902.924 Q1567.92 897.779 1564.52 894.984 Q1561.15 892.148 1555.04 892.148 Q1551.15 892.148 1547.46 893.08 Q1543.78 894.012 1540.37 895.875 L1540.37 888.988 Q1544.46 887.409 1548.31 886.639 Q1552.16 885.829 1555.81 885.829 Q1565.65 885.829 1570.51 890.933 Q1575.37 896.037 1575.37 906.407 Z" fill="#000000" fill-rule="nonzero" fill-opacity="1" /><path clip-path="url(#clip440)" d="M1429.53 1453.31 Q1429.53 1445.09 1426.13 1440.43 Q1422.77 1435.73 1416.85 1435.73 Q1410.94 1435.73 1407.54 1440.43 Q1404.18 1445.09 1404.18 1453.31 Q1404.18 1461.53 1407.54 1466.23 Q1410.94 1470.89 1416.85 1470.89 Q1422.77 1470.89 1426.13 1466.23 Q1429.53 1461.53 1429.53 1453.31 M1404.18 1437.47 Q1406.53 1433.42 1410.09 1431.48 Q1413.7 1429.49 1418.68 1429.49 Q1426.94 1429.49 1432.09 1436.05 Q1437.27 1442.62 1437.27 1453.31 Q1437.27 1464.01 1432.09 1470.57 Q1426.94 1477.13 1418.68 1477.13 Q1413.7 1477.13 1410.09 1475.19 Q1406.53 1473.2 1404.18 1469.15 L1404.18 1475.96 L1396.68 1475.96 L1396.68 1412.92 L1404.18 1412.92 L1404.18 1437.47 Z" fill="#000000" fill-rule="nonzero" fill-opacity="1" /><path clip-path="url(#clip440)" d="M2308.55 1293.07 L2308.55 1300.04 Q2305.39 1298.3 2302.19 1297.44 Q2299.03 1296.55 2295.79 1296.55 Q2288.53 1296.55 2284.52 1301.17 Q2280.51 1305.75 2280.51 1314.05 Q2280.51 1322.36 2284.52 1326.98 Q2288.53 1331.55 2295.79 1331.55 Q2299.03 1331.55 2302.19 1330.7 Q2305.39 1329.81 2308.55 1328.07 L2308.55 1334.96 Q2305.43 1336.41 2302.06 1337.14 Q2298.74 1337.87 2294.98 1337.87 Q2284.73 1337.87 2278.69 1331.43 Q2272.65 1324.99 2272.65 1314.05 Q2272.65 1302.95 2278.73 1296.59 Q2284.85 1290.23 2295.46 1290.23 Q2298.9 1290.23 2302.19 1290.96 Q2305.47 1291.65 2308.55 1293.07 Z" fill="#000000" fill-rule="nonzero" fill-opacity="1" /><path clip-path="url(#clip440)" d="M231.575 79.7327 L231.575 55.1842 L239.028 55.1842 L239.028 118.216 L231.575 118.216 L231.575 111.411 Q229.225 115.462 225.62 117.447 Q222.055 119.391 217.032 119.391 Q208.809 119.391 203.624 112.829 Q198.479 106.266 198.479 95.5717 Q198.479 84.8773 203.624 78.3149 Q208.809 71.7524 217.032 71.7524 Q222.055 71.7524 225.62 73.7373 Q229.225 75.6818 231.575 79.7327 M206.176 95.5717 Q206.176 103.795 209.538 108.494 Q212.941 113.153 218.855 113.153 Q224.769 113.153 228.172 108.494 Q231.575 103.795 231.575 95.5717 Q231.575 87.3484 228.172 82.6898 Q224.769 77.9908 218.855 77.9908 Q212.941 77.9908 209.538 82.6898 Q206.176 87.3484 206.176 95.5717 Z" fill="#000000" fill-rule="nonzero" fill-opacity="1" /><path clip-path="url(#clip440)" d="M2007.5 198.898 L2279.55 198.898 L2279.55 95.2176 L2007.5 95.2176  Z" fill="#ffffff" fill-rule="evenodd" fill-opacity="1"/>
<polyline clip-path="url(#clip440)" style="stroke:#000000; stroke-linecap:round; stroke-linejoin:round; stroke-width:4; stroke-opacity:1; fill:none" points="2007.5,198.898 2279.55,198.898 2279.55,95.2176 2007.5,95.2176 2007.5,198.898 "/>
<circle clip-path="url(#clip440)" cx="2105.11" cy="147.058" r="20.48" fill="#808080" fill-rule="evenodd" fill-opacity="1" stroke="#000000" stroke-opacity="1" stroke-width="4.55111"/>
<path clip-path="url(#clip440)" d="M2216.56 166.745 Q2214.76 171.375 2213.04 172.787 Q2211.33 174.199 2208.46 174.199 L2205.06 174.199 L2205.06 170.634 L2207.56 170.634 Q2209.32 170.634 2210.29 169.8 Q2211.26 168.967 2212.44 165.865 L2213.2 163.921 L2202.72 138.412 L2207.23 138.412 L2215.33 158.689 L2223.44 138.412 L2227.95 138.412 L2216.56 166.745 Z" fill="#000000" fill-rule="nonzero" fill-opacity="1" /><path clip-path="url(#clip440)" d="M2235.24 160.402 L2242.88 160.402 L2242.88 134.037 L2234.57 135.703 L2234.57 131.444 L2242.83 129.778 L2247.51 129.778 L2247.51 160.402 L2255.15 160.402 L2255.15 164.338 L2235.24 164.338 L2235.24 160.402 Z" fill="#000000" fill-rule="nonzero" fill-opacity="1" /></svg>
