<?xml version="1.0" encoding="utf-8"?>
<svg xmlns="http://www.w3.org/2000/svg" xmlns:xlink="http://www.w3.org/1999/xlink" width="600" height="400" viewBox="0 0 2400 1600">
<defs>
  <clipPath id="clip300">
    <rect x="0" y="0" width="2400" height="1600"/>
  </clipPath>
</defs>
<path clip-path="url(#clip300)" d="M0 1600 L2400 1600 L2400 0 L0 0  Z" fill="#ffffff" fill-rule="evenodd" fill-opacity="1"/>
<defs>
  <clipPath id="clip301">
    <rect x="480" y="0" width="1681" height="1600"/>
  </clipPath>
</defs>
<path clip-path="url(#clip300)" d="M112.177 1486.45 L2352.76 1486.45 L2352.76 47.2441 L112.177 47.2441  Z" fill="#ffffff" fill-rule="evenodd" fill-opacity="1"/>
<defs>
  <clipPath id="clip302">
    <rect x="112" y="47" width="2242" height="1440"/>
  </clipPath>
</defs>
<polyline clip-path="url(#clip302)" style="stroke:#000000; stroke-linecap:round; stroke-linejoin:round; stroke-width:2; stroke-opacity:0.1; fill:none" points="223.522,1486.45 223.522,47.2441 "/>
<polyline clip-path="url(#clip302)" style="stroke:#000000; stroke-linecap:round; stroke-linejoin:round; stroke-width:2; stroke-opacity:0.1; fill:none" points="850.317,1486.45 850.317,47.2441 "/>
<polyline clip-path="url(#clip302)" style="stroke:#000000; stroke-linecap:round; stroke-linejoin:round; stroke-width:2; stroke-opacity:0.1; fill:none" points="1477.11,1486.45 1477.11,47.2441 "/>
<polyline clip-path="url(#clip302)" style="stroke:#000000; stroke-linecap:round; stroke-linejoin:round; stroke-width:2; stroke-opacity:0.1; fill:none" points="2103.91,1486.45 2103.91,47.2441 "/>
<polyline clip-path="url(#clip300)" style="stroke:#000000; stroke-linecap:round; stroke-linejoin:round; stroke-width:4; stroke-opacity:1; fill:none" points="112.177,1486.45 2352.76,1486.45 "/>
<polyline clip-path="url(#clip300)" style="stroke:#000000; stroke-linecap:round; stroke-linejoin:round; stroke-width:4; stroke-opacity:1; fill:none" points="223.522,1486.45 223.522,1467.55 "/>
<polyline clip-path="url(#clip300)" style="stroke:#000000; stroke-linecap:round; stroke-linejoin:round; stroke-width:4; stroke-opacity:1; fill:none" points="850.317,1486.45 850.317,1467.55 "/>
<polyline clip-path="url(#clip300)" style="stroke:#000000; stroke-linecap:round; stroke-linejoin:round; stroke-width:4; stroke-opacity:1; fill:none" points="1477.11,1486.45 1477.11,1467.55 "/>
<polyline clip-path="url(#clip300)" style="stroke:#000000; stroke-linecap:round; stroke-linejoin:round; stroke-width:4; stroke-opacity:1; fill:none" points="2103.91,1486.45 2103.91,1467.55 "/>
<path clip-path="url(#clip300)" d="M170.05 1532.02 L199.726 1532.02 L199.726 1535.95 L170.05 1535.95 L170.05 1532.02 Z" fill="#000000" fill-rule="nonzero" fill-opacity="1" /><path clip-path="url(#clip300)" d="M210.629 1544.91 L218.268 1544.91 L218.268 1518.55 L209.957 1520.21 L209.957 1515.95 L218.221 1514.29 L222.897 1514.29 L222.897 1544.91 L230.536 1544.91 L230.536 1548.85 L210.629 1548.85 L210.629 1544.91 Z" fill="#000000" fill-rule="nonzero" fill-opacity="1" /><path clip-path="url(#clip300)" d="M239.98 1542.97 L244.865 1542.97 L244.865 1548.85 L239.98 1548.85 L239.98 1542.97 Z" fill="#000000" fill-rule="nonzero" fill-opacity="1" /><path clip-path="url(#clip300)" d="M265.05 1517.37 Q261.439 1517.37 259.61 1520.93 Q257.804 1524.47 257.804 1531.6 Q257.804 1538.71 259.61 1542.27 Q261.439 1545.82 265.05 1545.82 Q268.684 1545.82 270.489 1542.27 Q272.318 1538.71 272.318 1531.6 Q272.318 1524.47 270.489 1520.93 Q268.684 1517.37 265.05 1517.37 M265.05 1513.66 Q270.86 1513.66 273.915 1518.27 Q276.994 1522.85 276.994 1531.6 Q276.994 1540.33 273.915 1544.94 Q270.86 1549.52 265.05 1549.52 Q259.24 1549.52 256.161 1544.94 Q253.105 1540.33 253.105 1531.6 Q253.105 1522.85 256.161 1518.27 Q259.24 1513.66 265.05 1513.66 Z" fill="#000000" fill-rule="nonzero" fill-opacity="1" /><path clip-path="url(#clip300)" d="M797.343 1532.02 L827.019 1532.02 L827.019 1535.95 L797.343 1535.95 L797.343 1532.02 Z" fill="#000000" fill-rule="nonzero" fill-opacity="1" /><path clip-path="url(#clip300)" d="M847.111 1517.37 Q843.5 1517.37 841.671 1520.93 Q839.866 1524.47 839.866 1531.6 Q839.866 1538.71 841.671 1542.27 Q843.5 1545.82 847.111 1545.82 Q850.745 1545.82 852.551 1542.27 Q854.38 1538.71 854.38 1531.6 Q854.38 1524.47 852.551 1520.93 Q850.745 1517.37 847.111 1517.37 M847.111 1513.66 Q852.921 1513.66 855.977 1518.27 Q859.055 1522.85 859.055 1531.6 Q859.055 1540.33 855.977 1544.94 Q852.921 1549.52 847.111 1549.52 Q841.301 1549.52 838.222 1544.94 Q835.167 1540.33 835.167 1531.6 Q835.167 1522.85 838.222 1518.27 Q841.301 1513.66 847.111 1513.66 Z" fill="#000000" fill-rule="nonzero" fill-opacity="1" /><path clip-path="url(#clip300)" d="M867.273 1542.97 L872.157 1542.97 L872.157 1548.85 L867.273 1548.85 L867.273 1542.97 Z" fill="#000000" fill-rule="nonzero" fill-opacity="1" /><path clip-path="url(#clip300)" d="M882.389 1514.29 L900.745 1514.29 L900.745 1518.22 L886.671 1518.22 L886.671 1526.7 Q887.69 1526.35 888.708 1526.19 Q889.727 1526 890.745 1526 Q896.532 1526 899.912 1529.17 Q903.291 1532.34 903.291 1537.76 Q903.291 1543.34 899.819 1546.44 Q896.347 1549.52 890.027 1549.52 Q887.852 1549.52 885.583 1549.15 Q883.338 1548.78 880.93 1548.04 L880.93 1543.34 Q883.014 1544.47 885.236 1545.03 Q887.458 1545.58 889.935 1545.58 Q893.939 1545.58 896.277 1543.48 Q898.615 1541.37 898.615 1537.76 Q898.615 1534.15 896.277 1532.04 Q893.939 1529.94 889.935 1529.94 Q888.06 1529.94 886.185 1530.35 Q884.333 1530.77 882.389 1531.65 L882.389 1514.29 Z" fill="#000000" fill-rule="nonzero" fill-opacity="1" /><path clip-path="url(#clip300)" d="M1454.5 1517.37 Q1450.89 1517.37 1449.06 1520.93 Q1447.25 1524.47 1447.25 1531.6 Q1447.25 1538.71 1449.06 1542.27 Q1450.89 1545.82 1454.5 1545.82 Q1458.13 1545.82 1459.94 1542.27 Q1461.76 1538.71 1461.76 1531.6 Q1461.76 1524.47 1459.94 1520.93 Q1458.13 1517.37 1454.5 1517.37 M1454.5 1513.66 Q1460.31 1513.66 1463.36 1518.27 Q1466.44 1522.85 1466.44 1531.6 Q1466.44 1540.33 1463.36 1544.94 Q1460.31 1549.52 1454.5 1549.52 Q1448.69 1549.52 1445.61 1544.94 Q1442.55 1540.33 1442.55 1531.6 Q1442.55 1522.85 1445.61 1518.27 Q1448.69 1513.66 1454.5 1513.66 Z" fill="#000000" fill-rule="nonzero" fill-opacity="1" /><path clip-path="url(#clip300)" d="M1474.66 1542.97 L1479.54 1542.97 L1479.54 1548.85 L1474.66 1548.85 L1474.66 1542.97 Z" fill="#000000" fill-rule="nonzero" fill-opacity="1" /><path clip-path="url(#clip300)" d="M1499.73 1517.37 Q1496.12 1517.37 1494.29 1520.93 Q1492.48 1524.47 1492.48 1531.6 Q1492.48 1538.71 1494.29 1542.27 Q1496.12 1545.82 1499.73 1545.82 Q1503.36 1545.82 1505.17 1542.27 Q1507 1538.71 1507 1531.6 Q1507 1524.47 1505.17 1520.93 Q1503.36 1517.37 1499.73 1517.37 M1499.73 1513.66 Q1505.54 1513.66 1508.59 1518.27 Q1511.67 1522.85 1511.67 1531.6 Q1511.67 1540.33 1508.59 1544.94 Q1505.54 1549.52 1499.73 1549.52 Q1493.92 1549.52 1490.84 1544.94 Q1487.78 1540.33 1487.78 1531.6 Q1487.78 1522.85 1490.84 1518.27 Q1493.92 1513.66 1499.73 1513.66 Z" fill="#000000" fill-rule="nonzero" fill-opacity="1" /><path clip-path="url(#clip300)" d="M2081.79 1517.37 Q2078.18 1517.37 2076.35 1520.93 Q2074.54 1524.47 2074.54 1531.6 Q2074.54 1538.71 2076.35 1542.27 Q2078.18 1545.82 2081.79 1545.82 Q2085.42 1545.82 2087.23 1542.27 Q2089.06 1538.71 2089.06 1531.6 Q2089.06 1524.47 2087.23 1520.93 Q2085.42 1517.37 2081.79 1517.37 M2081.79 1513.66 Q2087.6 1513.66 2090.65 1518.27 Q2093.73 1522.85 2093.73 1531.6 Q2093.73 1540.33 2090.65 1544.94 Q2087.6 1549.52 2081.79 1549.52 Q2075.98 1549.52 2072.9 1544.94 Q2069.84 1540.33 2069.84 1531.6 Q2069.84 1522.85 2072.9 1518.27 Q2075.98 1513.66 2081.79 1513.66 Z" fill="#000000" fill-rule="nonzero" fill-opacity="1" /><path clip-path="url(#clip300)" d="M2101.95 1542.97 L2106.84 1542.97 L2106.84 1548.85 L2101.95 1548.85 L2101.95 1542.97 Z" fill="#000000" fill-rule="nonzero" fill-opacity="1" /><path clip-path="url(#clip300)" d="M2117.07 1514.29 L2135.42 1514.29 L2135.42 1518.22 L2121.35 1518.22 L2121.35 1526.7 Q2122.37 1526.35 2123.39 1526.19 Q2124.4 1526 2125.42 1526 Q2131.21 1526 2134.59 1529.17 Q2137.97 1532.34 2137.97 1537.76 Q2137.97 1543.34 2134.5 1546.44 Q2131.02 1549.52 2124.71 1549.52 Q2122.53 1549.52 2120.26 1549.15 Q2118.02 1548.78 2115.61 1548.04 L2115.61 1543.34 Q2117.69 1544.47 2119.91 1545.03 Q2122.14 1545.58 2124.61 1545.58 Q2128.62 1545.58 2130.96 1543.48 Q2133.29 1541.37 2133.29 1537.76 Q2133.29 1534.15 2130.96 1532.04 Q2128.62 1529.94 2124.61 1529.94 Q2122.74 1529.94 2120.86 1530.35 Q2119.01 1530.77 2117.07 1531.65 L2117.07 1514.29 Z" fill="#000000" fill-rule="nonzero" fill-opacity="1" /><polyline clip-path="url(#clip302)" style="stroke:#000000; stroke-linecap:round; stroke-linejoin:round; stroke-width:2; stroke-opacity:0.1; fill:none" points="112.177,1242.77 2352.76,1242.77 "/>
<polyline clip-path="url(#clip302)" style="stroke:#000000; stroke-linecap:round; stroke-linejoin:round; stroke-width:2; stroke-opacity:0.1; fill:none" points="112.177,985.455 2352.76,985.455 "/>
<polyline clip-path="url(#clip302)" style="stroke:#000000; stroke-linecap:round; stroke-linejoin:round; stroke-width:2; stroke-opacity:0.1; fill:none" points="112.177,728.143 2352.76,728.143 "/>
<polyline clip-path="url(#clip302)" style="stroke:#000000; stroke-linecap:round; stroke-linejoin:round; stroke-width:2; stroke-opacity:0.1; fill:none" points="112.177,470.831 2352.76,470.831 "/>
<polyline clip-path="url(#clip302)" style="stroke:#000000; stroke-linecap:round; stroke-linejoin:round; stroke-width:2; stroke-opacity:0.1; fill:none" points="112.177,213.518 2352.76,213.518 "/>
<polyline clip-path="url(#clip300)" style="stroke:#000000; stroke-linecap:round; stroke-linejoin:round; stroke-width:4; stroke-opacity:1; fill:none" points="112.177,1486.45 112.177,47.2441 "/>
<polyline clip-path="url(#clip300)" style="stroke:#000000; stroke-linecap:round; stroke-linejoin:round; stroke-width:4; stroke-opacity:1; fill:none" points="112.177,1242.77 131.075,1242.77 "/>
<polyline clip-path="url(#clip300)" style="stroke:#000000; stroke-linecap:round; stroke-linejoin:round; stroke-width:4; stroke-opacity:1; fill:none" points="112.177,985.455 131.075,985.455 "/>
<polyline clip-path="url(#clip300)" style="stroke:#000000; stroke-linecap:round; stroke-linejoin:round; stroke-width:4; stroke-opacity:1; fill:none" points="112.177,728.143 131.075,728.143 "/>
<polyline clip-path="url(#clip300)" style="stroke:#000000; stroke-linecap:round; stroke-linejoin:round; stroke-width:4; stroke-opacity:1; fill:none" points="112.177,470.831 131.075,470.831 "/>
<polyline clip-path="url(#clip300)" style="stroke:#000000; stroke-linecap:round; stroke-linejoin:round; stroke-width:4; stroke-opacity:1; fill:none" points="112.177,213.518 131.075,213.518 "/>
<path clip-path="url(#clip300)" d="M56.2699 1256.11 L63.9087 1256.11 L63.9087 1229.75 L55.5986 1231.41 L55.5986 1227.15 L63.8624 1225.49 L68.5383 1225.49 L68.5383 1256.11 L76.1772 1256.11 L76.1772 1260.05 L56.2699 1260.05 L56.2699 1256.11 Z" fill="#000000" fill-rule="nonzero" fill-opacity="1" /><path clip-path="url(#clip300)" d="M59.8578 998.8 L76.1772 998.8 L76.1772 1002.74 L54.2328 1002.74 L54.2328 998.8 Q56.8949 996.046 61.4782 991.416 Q66.0846 986.763 67.2652 985.421 Q69.5105 982.897 70.3902 981.161 Q71.2929 979.402 71.2929 977.712 Q71.2929 974.958 69.3485 973.222 Q67.4272 971.486 64.3254 971.486 Q62.1263 971.486 59.6726 972.249 Q57.2421 973.013 54.4643 974.564 L54.4643 969.842 Q57.2884 968.708 59.7421 968.129 Q62.1958 967.55 64.2328 967.55 Q69.6031 967.55 72.7976 970.236 Q75.992 972.921 75.992 977.411 Q75.992 979.541 75.1818 981.462 Q74.3948 983.36 72.2883 985.953 Q71.7096 986.624 68.6078 989.842 Q65.5059 993.036 59.8578 998.8 Z" fill="#000000" fill-rule="nonzero" fill-opacity="1" /><path clip-path="url(#clip300)" d="M69.0476 726.789 Q72.404 727.506 74.279 729.775 Q76.1772 732.043 76.1772 735.377 Q76.1772 740.492 72.6587 743.293 Q69.1402 746.094 62.6587 746.094 Q60.4828 746.094 58.168 745.654 Q55.8764 745.238 53.4227 744.381 L53.4227 739.867 Q55.3671 741.002 57.6819 741.58 Q59.9967 742.159 62.5198 742.159 Q66.918 742.159 69.2096 740.423 Q71.5244 738.687 71.5244 735.377 Q71.5244 732.321 69.3717 730.608 Q67.242 728.872 63.4226 728.872 L59.3949 728.872 L59.3949 725.03 L63.6078 725.03 Q67.0569 725.03 68.8855 723.664 Q70.7142 722.275 70.7142 719.682 Q70.7142 717.02 68.8161 715.608 Q66.9411 714.173 63.4226 714.173 Q61.5013 714.173 59.3023 714.59 Q57.1032 715.006 54.4643 715.886 L54.4643 711.719 Q57.1264 710.979 59.4412 710.608 Q61.7791 710.238 63.8393 710.238 Q69.1633 710.238 72.2652 712.669 Q75.367 715.076 75.367 719.196 Q75.367 722.067 73.7235 724.057 Q72.08 726.025 69.0476 726.789 Z" fill="#000000" fill-rule="nonzero" fill-opacity="1" /><path clip-path="url(#clip300)" d="M66.5939 457.625 L54.7884 476.074 L66.5939 476.074 L66.5939 457.625 M65.367 453.551 L71.2466 453.551 L71.2466 476.074 L76.1772 476.074 L76.1772 479.962 L71.2466 479.962 L71.2466 488.111 L66.5939 488.111 L66.5939 479.962 L50.9921 479.962 L50.9921 475.449 L65.367 453.551 Z" fill="#000000" fill-rule="nonzero" fill-opacity="1" /><path clip-path="url(#clip300)" d="M55.2745 196.238 L73.6309 196.238 L73.6309 200.173 L59.5569 200.173 L59.5569 208.646 Q60.5754 208.298 61.5939 208.136 Q62.6124 207.951 63.6309 207.951 Q69.418 207.951 72.7976 211.122 Q76.1772 214.294 76.1772 219.71 Q76.1772 225.289 72.705 228.391 Q69.2328 231.469 62.9134 231.469 Q60.7374 231.469 58.4689 231.099 Q56.2236 230.729 53.8162 229.988 L53.8162 225.289 Q55.8995 226.423 58.1217 226.979 Q60.3439 227.534 62.8208 227.534 Q66.8254 227.534 69.1633 225.428 Q71.5013 223.321 71.5013 219.71 Q71.5013 216.099 69.1633 213.993 Q66.8254 211.886 62.8208 211.886 Q60.9458 211.886 59.0708 212.303 Q57.2189 212.72 55.2745 213.599 L55.2745 196.238 Z" fill="#000000" fill-rule="nonzero" fill-opacity="1" /><circle clip-path="url(#clip302)" cx="2289.34" cy="1339.12" r="14.4" fill="#808080" fill-rule="evenodd" fill-opacity="1" stroke="#000000" stroke-opacity="1" stroke-width="3.2"/>
<circle clip-path="url(#clip302)" cx="175.59" cy="87.9763" r="14.4" fill="#808080" fill-rule="evenodd" fill-opacity="1" stroke="#000000" stroke-opacity="1" stroke-width="3.2"/>
<circle clip-path="url(#clip302)" cx="1560.49" cy="1445.72" r="14.4" fill="#808080" fill-rule="evenodd" fill-opacity="1" stroke="#000000" stroke-opacity="1" stroke-width="3.2"/>
<circle clip-path="url(#clip302)" cx="1302.4" cy="1408.6" r="14.4" fill="#808080" fill-rule="evenodd" fill-opacity="1" stroke="#000000" stroke-opacity="1" stroke-width="3.2"/>
<path clip-path="url(#clip300)" d="M2293.64 1346.55 Q2284.6 1346.55 2281.12 1348.62 Q2277.64 1350.68 2277.64 1355.67 Q2277.64 1359.64 2280.23 1361.99 Q2282.86 1364.29 2287.36 1364.29 Q2293.56 1364.29 2297.28 1359.92 Q2301.05 1355.5 2301.05 1348.21 L2301.05 1346.55 L2293.64 1346.55 M2308.5 1343.47 L2308.5 1369.36 L2301.05 1369.36 L2301.05 1362.47 Q2298.5 1366.6 2294.69 1368.59 Q2290.88 1370.53 2285.37 1370.53 Q2278.41 1370.53 2274.27 1366.64 Q2270.18 1362.71 2270.18 1356.15 Q2270.18 1348.5 2275.29 1344.61 Q2280.43 1340.72 2290.6 1340.72 L2301.05 1340.72 L2301.05 1339.99 Q2301.05 1334.84 2297.65 1332.05 Q2294.29 1329.21 2288.17 1329.21 Q2284.28 1329.21 2280.59 1330.15 Q2276.91 1331.08 2273.5 1332.94 L2273.5 1326.05 Q2277.6 1324.47 2281.44 1323.7 Q2285.29 1322.89 2288.94 1322.89 Q2298.78 1322.89 2303.64 1328 Q2308.5 1333.1 2308.5 1343.47 Z" fill="#000000" fill-rule="nonzero" fill-opacity="1" /><path clip-path="url(#clip300)" d="M188.148 95.5717 Q188.148 87.3484 184.745 82.6898 Q181.383 77.9908 175.468 77.9908 Q169.554 77.9908 166.151 82.6898 Q162.789 87.3484 162.789 95.5717 Q162.789 103.795 166.151 108.494 Q169.554 113.153 175.468 113.153 Q181.383 113.153 184.745 108.494 Q188.148 103.795 188.148 95.5717 M162.789 79.7327 Q165.138 75.6818 168.703 73.7373 Q172.309 71.7524 177.291 71.7524 Q185.555 71.7524 190.7 78.3149 Q195.885 84.8773 195.885 95.5717 Q195.885 106.266 190.7 112.829 Q185.555 119.391 177.291 119.391 Q172.309 119.391 168.703 117.447 Q165.138 115.462 162.789 111.411 L162.789 118.216 L155.295 118.216 L155.295 55.1842 L162.789 55.1842 L162.789 79.7327 Z" fill="#000000" fill-rule="nonzero" fill-opacity="1" /><path clip-path="url(#clip300)" d="M1578.43 1432.33 L1578.43 1439.3 Q1575.27 1437.55 1572.07 1436.7 Q1568.91 1435.81 1565.67 1435.81 Q1558.42 1435.81 1554.41 1440.43 Q1550.4 1445.01 1550.4 1453.31 Q1550.4 1461.62 1554.41 1466.23 Q1558.42 1470.81 1565.67 1470.81 Q1568.91 1470.81 1572.07 1469.96 Q1575.27 1469.07 1578.43 1467.33 L1578.43 1474.21 Q1575.31 1475.67 1571.95 1476.4 Q1568.63 1477.13 1564.86 1477.13 Q1554.61 1477.13 1548.58 1470.69 Q1542.54 1464.25 1542.54 1453.31 Q1542.54 1442.21 1548.62 1435.85 Q1554.73 1429.49 1565.35 1429.49 Q1568.79 1429.49 1572.07 1430.22 Q1575.35 1430.91 1578.43 1432.33 Z" fill="#000000" fill-rule="nonzero" fill-opacity="1" /><path clip-path="url(#clip300)" d="M1315.23 1400.36 L1315.23 1375.81 L1322.68 1375.81 L1322.68 1438.84 L1315.23 1438.84 L1315.23 1432.04 Q1312.88 1436.09 1309.27 1438.07 Q1305.71 1440.02 1300.68 1440.02 Q1292.46 1440.02 1287.27 1433.46 Q1282.13 1426.89 1282.13 1416.2 Q1282.13 1405.51 1287.27 1398.94 Q1292.46 1392.38 1300.68 1392.38 Q1305.71 1392.38 1309.27 1394.37 Q1312.88 1396.31 1315.23 1400.36 M1289.83 1416.2 Q1289.83 1424.42 1293.19 1429.12 Q1296.59 1433.78 1302.51 1433.78 Q1308.42 1433.78 1311.82 1429.12 Q1315.23 1424.42 1315.23 1416.2 Q1315.23 1407.98 1311.82 1403.32 Q1308.42 1398.62 1302.51 1398.62 Q1296.59 1398.62 1293.19 1403.32 Q1289.83 1407.98 1289.83 1416.2 Z" fill="#000000" fill-rule="nonzero" fill-opacity="1" /><path clip-path="url(#clip300)" d="M2001.58 198.898 L2278.07 198.898 L2278.07 95.2176 L2001.58 95.2176  Z" fill="#ffffff" fill-rule="evenodd" fill-opacity="1"/>
<polyline clip-path="url(#clip300)" style="stroke:#000000; stroke-linecap:round; stroke-linejoin:round; stroke-width:4; stroke-opacity:1; fill:none" points="2001.58,198.898 2278.07,198.898 2278.07,95.2176 2001.58,95.2176 2001.58,198.898 "/>
<circle clip-path="url(#clip300)" cx="2101.16" cy="147.058" r="20.48" fill="#808080" fill-rule="evenodd" fill-opacity="1" stroke="#000000" stroke-opacity="1" stroke-width="4.55111"/>
<path clip-path="url(#clip300)" d="M2214.59 166.745 Q2212.78 171.375 2211.07 172.787 Q2209.36 174.199 2206.49 174.199 L2203.08 174.199 L2203.08 170.634 L2205.58 170.634 Q2207.34 170.634 2208.31 169.8 Q2209.29 168.967 2210.47 165.865 L2211.23 163.921 L2200.74 138.412 L2205.26 138.412 L2213.36 158.689 L2221.46 138.412 L2225.98 138.412 L2214.59 166.745 Z" fill="#000000" fill-rule="nonzero" fill-opacity="1" /><path clip-path="url(#clip300)" d="M2233.27 160.402 L2240.91 160.402 L2240.91 134.037 L2232.6 135.703 L2232.6 131.444 L2240.86 129.778 L2245.54 129.778 L2245.54 160.402 L2253.17 160.402 L2253.17 164.338 L2233.27 164.338 L2233.27 160.402 Z" fill="#000000" fill-rule="nonzero" fill-opacity="1" /></svg>
