<?xml version="1.0" encoding="utf-8"?>
<svg xmlns="http://www.w3.org/2000/svg" xmlns:xlink="http://www.w3.org/1999/xlink" width="600" height="400" viewBox="0 0 2400 1600">
<defs>
  <clipPath id="clip730">
    <rect x="0" y="0" width="2400" height="1600"/>
  </clipPath>
</defs>
<path clip-path="url(#clip730)" d="M0 1600 L2400 1600 L2400 0 L0 0  Z" fill="#ffffff" fill-rule="evenodd" fill-opacity="1"/>
<defs>
  <clipPath id="clip731">
    <rect x="480" y="0" width="1681" height="1600"/>
  </clipPath>
</defs>
<path clip-path="url(#clip730)" d="M156.112 1486.45 L2352.76 1486.45 L2352.76 47.2441 L156.112 47.2441  Z" fill="#ffffff" fill-rule="evenodd" fill-opacity="1"/>
<defs>
  <clipPath id="clip732">
    <rect x="156" y="47" width="2198" height="1440"/>
  </clipPath>
</defs>
<polyline clip-path="url(#clip732)" style="stroke:#000000; stroke-linecap:round; stroke-linejoin:round; stroke-width:2; stroke-opacity:0.1; fill:none" points="297.49,1486.45 297.49,47.2441 "/>
<polyline clip-path="url(#clip732)" style="stroke:#000000; stroke-linecap:round; stroke-linejoin:round; stroke-width:2; stroke-opacity:0.1; fill:none" points="823.438,1486.45 823.438,47.2441 "/>
<polyline clip-path="url(#clip732)" style="stroke:#000000; stroke-linecap:round; stroke-linejoin:round; stroke-width:2; stroke-opacity:0.1; fill:none" points="1349.39,1486.45 1349.39,47.2441 "/>
<polyline clip-path="url(#clip732)" style="stroke:#000000; stroke-linecap:round; stroke-linejoin:round; stroke-width:2; stroke-opacity:0.1; fill:none" points="1875.33,1486.45 1875.33,47.2441 "/>
<polyline clip-path="url(#clip730)" style="stroke:#000000; stroke-linecap:round; stroke-linejoin:round; stroke-width:4; stroke-opacity:1; fill:none" points="156.112,1486.45 2352.76,1486.45 "/>
<polyline clip-path="url(#clip730)" style="stroke:#000000; stroke-linecap:round; stroke-linejoin:round; stroke-width:4; stroke-opacity:1; fill:none" points="297.49,1486.45 297.49,1467.55 "/>
<polyline clip-path="url(#clip730)" style="stroke:#000000; stroke-linecap:round; stroke-linejoin:round; stroke-width:4; stroke-opacity:1; fill:none" points="823.438,1486.45 823.438,1467.55 "/>
<polyline clip-path="url(#clip730)" style="stroke:#000000; stroke-linecap:round; stroke-linejoin:round; stroke-width:4; stroke-opacity:1; fill:none" points="1349.39,1486.45 1349.39,1467.55 "/>
<polyline clip-path="url(#clip730)" style="stroke:#000000; stroke-linecap:round; stroke-linejoin:round; stroke-width:4; stroke-opacity:1; fill:none" points="1875.33,1486.45 1875.33,1467.55 "/>
<path clip-path="url(#clip730)" d="M243.775 1532.02 L273.45 1532.02 L273.45 1535.95 L243.775 1535.95 L243.775 1532.02 Z" fill="#000000" fill-rule="nonzero" fill-opacity="1" /><path clip-path="url(#clip730)" d="M293.543 1517.37 Q289.932 1517.37 288.103 1520.93 Q286.297 1524.47 286.297 1531.6 Q286.297 1538.71 288.103 1542.27 Q289.932 1545.82 293.543 1545.82 Q297.177 1545.82 298.983 1542.27 Q300.811 1538.71 300.811 1531.6 Q300.811 1524.47 298.983 1520.93 Q297.177 1517.37 293.543 1517.37 M293.543 1513.66 Q299.353 1513.66 302.408 1518.27 Q305.487 1522.85 305.487 1531.6 Q305.487 1540.33 302.408 1544.94 Q299.353 1549.52 293.543 1549.52 Q287.733 1549.52 284.654 1544.94 Q281.598 1540.33 281.598 1531.6 Q281.598 1522.85 284.654 1518.27 Q287.733 1513.66 293.543 1513.66 Z" fill="#000000" fill-rule="nonzero" fill-opacity="1" /><path clip-path="url(#clip730)" d="M313.705 1542.97 L318.589 1542.97 L318.589 1548.85 L313.705 1548.85 L313.705 1542.97 Z" fill="#000000" fill-rule="nonzero" fill-opacity="1" /><path clip-path="url(#clip730)" d="M341.621 1518.36 L329.816 1536.81 L341.621 1536.81 L341.621 1518.36 M340.394 1514.29 L346.274 1514.29 L346.274 1536.81 L351.205 1536.81 L351.205 1540.7 L346.274 1540.7 L346.274 1548.85 L341.621 1548.85 L341.621 1540.7 L326.019 1540.7 L326.019 1536.19 L340.394 1514.29 Z" fill="#000000" fill-rule="nonzero" fill-opacity="1" /><path clip-path="url(#clip730)" d="M770.764 1532.02 L800.44 1532.02 L800.44 1535.95 L770.764 1535.95 L770.764 1532.02 Z" fill="#000000" fill-rule="nonzero" fill-opacity="1" /><path clip-path="url(#clip730)" d="M820.532 1517.37 Q816.921 1517.37 815.093 1520.93 Q813.287 1524.47 813.287 1531.6 Q813.287 1538.71 815.093 1542.27 Q816.921 1545.82 820.532 1545.82 Q824.167 1545.82 825.972 1542.27 Q827.801 1538.71 827.801 1531.6 Q827.801 1524.47 825.972 1520.93 Q824.167 1517.37 820.532 1517.37 M820.532 1513.66 Q826.343 1513.66 829.398 1518.27 Q832.477 1522.85 832.477 1531.6 Q832.477 1540.33 829.398 1544.94 Q826.343 1549.52 820.532 1549.52 Q814.722 1549.52 811.644 1544.94 Q808.588 1540.33 808.588 1531.6 Q808.588 1522.85 811.644 1518.27 Q814.722 1513.66 820.532 1513.66 Z" fill="#000000" fill-rule="nonzero" fill-opacity="1" /><path clip-path="url(#clip730)" d="M840.694 1542.97 L845.579 1542.97 L845.579 1548.85 L840.694 1548.85 L840.694 1542.97 Z" fill="#000000" fill-rule="nonzero" fill-opacity="1" /><path clip-path="url(#clip730)" d="M859.791 1544.91 L876.111 1544.91 L876.111 1548.85 L854.167 1548.85 L854.167 1544.91 Q856.829 1542.16 861.412 1537.53 Q866.018 1532.88 867.199 1531.53 Q869.444 1529.01 870.324 1527.27 Q871.227 1525.51 871.227 1523.82 Q871.227 1521.07 869.282 1519.33 Q867.361 1517.6 864.259 1517.6 Q862.06 1517.6 859.606 1518.36 Q857.176 1519.13 854.398 1520.68 L854.398 1515.95 Q857.222 1514.82 859.676 1514.24 Q862.129 1513.66 864.166 1513.66 Q869.537 1513.66 872.731 1516.35 Q875.926 1519.03 875.926 1523.52 Q875.926 1525.65 875.115 1527.57 Q874.328 1529.47 872.222 1532.07 Q871.643 1532.74 868.541 1535.95 Q865.44 1539.15 859.791 1544.91 Z" fill="#000000" fill-rule="nonzero" fill-opacity="1" /><path clip-path="url(#clip730)" d="M1326.77 1517.37 Q1323.16 1517.37 1321.33 1520.93 Q1319.52 1524.47 1319.52 1531.6 Q1319.52 1538.71 1321.33 1542.27 Q1323.16 1545.82 1326.77 1545.82 Q1330.4 1545.82 1332.21 1542.27 Q1334.04 1538.71 1334.04 1531.6 Q1334.04 1524.47 1332.21 1520.93 Q1330.4 1517.37 1326.77 1517.37 M1326.77 1513.66 Q1332.58 1513.66 1335.64 1518.27 Q1338.71 1522.85 1338.71 1531.6 Q1338.71 1540.33 1335.64 1544.94 Q1332.58 1549.52 1326.77 1549.52 Q1320.96 1549.52 1317.88 1544.94 Q1314.83 1540.33 1314.83 1531.6 Q1314.83 1522.85 1317.88 1518.27 Q1320.96 1513.66 1326.77 1513.66 Z" fill="#000000" fill-rule="nonzero" fill-opacity="1" /><path clip-path="url(#clip730)" d="M1346.93 1542.97 L1351.82 1542.97 L1351.82 1548.85 L1346.93 1548.85 L1346.93 1542.97 Z" fill="#000000" fill-rule="nonzero" fill-opacity="1" /><path clip-path="url(#clip730)" d="M1372 1517.37 Q1368.39 1517.37 1366.56 1520.93 Q1364.76 1524.47 1364.76 1531.6 Q1364.76 1538.71 1366.56 1542.27 Q1368.39 1545.82 1372 1545.82 Q1375.64 1545.82 1377.44 1542.27 Q1379.27 1538.71 1379.27 1531.6 Q1379.27 1524.47 1377.44 1520.93 Q1375.64 1517.37 1372 1517.37 M1372 1513.66 Q1377.81 1513.66 1380.87 1518.27 Q1383.95 1522.85 1383.95 1531.6 Q1383.95 1540.33 1380.87 1544.94 Q1377.81 1549.52 1372 1549.52 Q1366.19 1549.52 1363.11 1544.94 Q1360.06 1540.33 1360.06 1531.6 Q1360.06 1522.85 1363.11 1518.27 Q1366.19 1513.66 1372 1513.66 Z" fill="#000000" fill-rule="nonzero" fill-opacity="1" /><path clip-path="url(#clip730)" d="M1853.52 1517.37 Q1849.91 1517.37 1848.08 1520.93 Q1846.27 1524.47 1846.27 1531.6 Q1846.27 1538.71 1848.08 1542.27 Q1849.91 1545.82 1853.52 1545.82 Q1857.15 1545.82 1858.96 1542.27 Q1860.78 1538.71 1860.78 1531.6 Q1860.78 1524.47 1858.96 1520.93 Q1857.15 1517.37 1853.52 1517.37 M1853.52 1513.66 Q1859.33 1513.66 1862.38 1518.27 Q1865.46 1522.85 1865.46 1531.6 Q1865.46 1540.33 1862.38 1544.94 Q1859.33 1549.52 1853.52 1549.52 Q1847.71 1549.52 1844.63 1544.94 Q1841.57 1540.33 1841.57 1531.6 Q1841.57 1522.85 1844.63 1518.27 Q1847.71 1513.66 1853.52 1513.66 Z" fill="#000000" fill-rule="nonzero" fill-opacity="1" /><path clip-path="url(#clip730)" d="M1873.68 1542.97 L1878.56 1542.97 L1878.56 1548.85 L1873.68 1548.85 L1873.68 1542.97 Z" fill="#000000" fill-rule="nonzero" fill-opacity="1" /><path clip-path="url(#clip730)" d="M1892.78 1544.91 L1909.09 1544.91 L1909.09 1548.85 L1887.15 1548.85 L1887.15 1544.91 Q1889.81 1542.16 1894.4 1537.53 Q1899 1532.88 1900.18 1531.53 Q1902.43 1529.01 1903.31 1527.27 Q1904.21 1525.51 1904.21 1523.82 Q1904.21 1521.07 1902.27 1519.33 Q1900.34 1517.6 1897.24 1517.6 Q1895.04 1517.6 1892.59 1518.36 Q1890.16 1519.13 1887.38 1520.68 L1887.38 1515.95 Q1890.21 1514.82 1892.66 1514.24 Q1895.11 1513.66 1897.15 1513.66 Q1902.52 1513.66 1905.72 1516.35 Q1908.91 1519.03 1908.91 1523.52 Q1908.91 1525.65 1908.1 1527.57 Q1907.31 1529.47 1905.21 1532.07 Q1904.63 1532.74 1901.53 1535.95 Q1898.42 1539.15 1892.78 1544.91 Z" fill="#000000" fill-rule="nonzero" fill-opacity="1" /><polyline clip-path="url(#clip732)" style="stroke:#000000; stroke-linecap:round; stroke-linejoin:round; stroke-width:2; stroke-opacity:0.1; fill:none" points="156.112,1450.51 2352.76,1450.51 "/>
<polyline clip-path="url(#clip732)" style="stroke:#000000; stroke-linecap:round; stroke-linejoin:round; stroke-width:2; stroke-opacity:0.1; fill:none" points="156.112,1026.09 2352.76,1026.09 "/>
<polyline clip-path="url(#clip732)" style="stroke:#000000; stroke-linecap:round; stroke-linejoin:round; stroke-width:2; stroke-opacity:0.1; fill:none" points="156.112,601.661 2352.76,601.661 "/>
<polyline clip-path="url(#clip732)" style="stroke:#000000; stroke-linecap:round; stroke-linejoin:round; stroke-width:2; stroke-opacity:0.1; fill:none" points="156.112,177.235 2352.76,177.235 "/>
<polyline clip-path="url(#clip730)" style="stroke:#000000; stroke-linecap:round; stroke-linejoin:round; stroke-width:4; stroke-opacity:1; fill:none" points="156.112,1486.45 156.112,47.2441 "/>
<polyline clip-path="url(#clip730)" style="stroke:#000000; stroke-linecap:round; stroke-linejoin:round; stroke-width:4; stroke-opacity:1; fill:none" points="156.112,1450.51 175.01,1450.51 "/>
<polyline clip-path="url(#clip730)" style="stroke:#000000; stroke-linecap:round; stroke-linejoin:round; stroke-width:4; stroke-opacity:1; fill:none" points="156.112,1026.09 175.01,1026.09 "/>
<polyline clip-path="url(#clip730)" style="stroke:#000000; stroke-linecap:round; stroke-linejoin:round; stroke-width:4; stroke-opacity:1; fill:none" points="156.112,601.661 175.01,601.661 "/>
<polyline clip-path="url(#clip730)" style="stroke:#000000; stroke-linecap:round; stroke-linejoin:round; stroke-width:4; stroke-opacity:1; fill:none" points="156.112,177.235 175.01,177.235 "/>
<path clip-path="url(#clip730)" d="M62.9365 1436.31 Q59.3254 1436.31 57.4967 1439.87 Q55.6912 1443.42 55.6912 1450.55 Q55.6912 1457.65 57.4967 1461.22 Q59.3254 1464.76 62.9365 1464.76 Q66.5707 1464.76 68.3763 1461.22 Q70.205 1457.65 70.205 1450.55 Q70.205 1443.42 68.3763 1439.87 Q66.5707 1436.31 62.9365 1436.31 M62.9365 1432.61 Q68.7467 1432.61 71.8022 1437.21 Q74.8809 1441.8 74.8809 1450.55 Q74.8809 1459.27 71.8022 1463.88 Q68.7467 1468.46 62.9365 1468.46 Q57.1264 1468.46 54.0477 1463.88 Q50.9921 1459.27 50.9921 1450.55 Q50.9921 1441.8 54.0477 1437.21 Q57.1264 1432.61 62.9365 1432.61 Z" fill="#000000" fill-rule="nonzero" fill-opacity="1" /><path clip-path="url(#clip730)" d="M83.0984 1461.91 L87.9827 1461.91 L87.9827 1467.79 L83.0984 1467.79 L83.0984 1461.91 Z" fill="#000000" fill-rule="nonzero" fill-opacity="1" /><path clip-path="url(#clip730)" d="M108.168 1436.31 Q104.557 1436.31 102.728 1439.87 Q100.922 1443.42 100.922 1450.55 Q100.922 1457.65 102.728 1461.22 Q104.557 1464.76 108.168 1464.76 Q111.802 1464.76 113.608 1461.22 Q115.436 1457.65 115.436 1450.55 Q115.436 1443.42 113.608 1439.87 Q111.802 1436.31 108.168 1436.31 M108.168 1432.61 Q113.978 1432.61 117.033 1437.21 Q120.112 1441.8 120.112 1450.55 Q120.112 1459.27 117.033 1463.88 Q113.978 1468.46 108.168 1468.46 Q102.358 1468.46 99.2789 1463.88 Q96.2234 1459.27 96.2234 1450.55 Q96.2234 1441.8 99.2789 1437.21 Q102.358 1432.61 108.168 1432.61 Z" fill="#000000" fill-rule="nonzero" fill-opacity="1" /><path clip-path="url(#clip730)" d="M64.1634 1011.88 Q60.5523 1011.88 58.7236 1015.45 Q56.918 1018.99 56.918 1026.12 Q56.918 1033.23 58.7236 1036.79 Q60.5523 1040.33 64.1634 1040.33 Q67.7976 1040.33 69.6031 1036.79 Q71.4318 1033.23 71.4318 1026.12 Q71.4318 1018.99 69.6031 1015.45 Q67.7976 1011.88 64.1634 1011.88 M64.1634 1008.18 Q69.9735 1008.18 73.029 1012.79 Q76.1077 1017.37 76.1077 1026.12 Q76.1077 1034.85 73.029 1039.45 Q69.9735 1044.04 64.1634 1044.04 Q58.3532 1044.04 55.2745 1039.45 Q52.219 1034.85 52.219 1026.12 Q52.219 1017.37 55.2745 1012.79 Q58.3532 1008.18 64.1634 1008.18 Z" fill="#000000" fill-rule="nonzero" fill-opacity="1" /><path clip-path="url(#clip730)" d="M84.3253 1037.49 L89.2095 1037.49 L89.2095 1043.37 L84.3253 1043.37 L84.3253 1037.49 Z" fill="#000000" fill-rule="nonzero" fill-opacity="1" /><path clip-path="url(#clip730)" d="M100.205 1039.43 L107.844 1039.43 L107.844 1013.06 L99.5335 1014.73 L99.5335 1010.47 L107.797 1008.81 L112.473 1008.81 L112.473 1039.43 L120.112 1039.43 L120.112 1043.37 L100.205 1043.37 L100.205 1039.43 Z" fill="#000000" fill-rule="nonzero" fill-opacity="1" /><path clip-path="url(#clip730)" d="M64.5337 587.459 Q60.9226 587.459 59.0939 591.024 Q57.2884 594.566 57.2884 601.695 Q57.2884 608.802 59.0939 612.367 Q60.9226 615.908 64.5337 615.908 Q68.168 615.908 69.9735 612.367 Q71.8022 608.802 71.8022 601.695 Q71.8022 594.566 69.9735 591.024 Q68.168 587.459 64.5337 587.459 M64.5337 583.756 Q70.3439 583.756 73.3994 588.362 Q76.4781 592.945 76.4781 601.695 Q76.4781 610.422 73.3994 615.029 Q70.3439 619.612 64.5337 619.612 Q58.7236 619.612 55.6449 615.029 Q52.5893 610.422 52.5893 601.695 Q52.5893 592.945 55.6449 588.362 Q58.7236 583.756 64.5337 583.756 Z" fill="#000000" fill-rule="nonzero" fill-opacity="1" /><path clip-path="url(#clip730)" d="M84.6956 613.061 L89.5799 613.061 L89.5799 618.941 L84.6956 618.941 L84.6956 613.061 Z" fill="#000000" fill-rule="nonzero" fill-opacity="1" /><path clip-path="url(#clip730)" d="M103.793 615.005 L120.112 615.005 L120.112 618.941 L98.1678 618.941 L98.1678 615.005 Q100.83 612.251 105.413 607.621 Q110.02 602.968 111.2 601.626 Q113.445 599.103 114.325 597.367 Q115.228 595.607 115.228 593.918 Q115.228 591.163 113.283 589.427 Q111.362 587.691 108.26 587.691 Q106.061 587.691 103.608 588.455 Q101.177 589.219 98.3993 590.769 L98.3993 586.047 Q101.223 584.913 103.677 584.334 Q106.131 583.756 108.168 583.756 Q113.538 583.756 116.733 586.441 Q119.927 589.126 119.927 593.617 Q119.927 595.746 119.117 597.668 Q118.33 599.566 116.223 602.158 Q115.645 602.83 112.543 606.047 Q109.441 609.242 103.793 615.005 Z" fill="#000000" fill-rule="nonzero" fill-opacity="1" /><path clip-path="url(#clip730)" d="M63.5847 163.034 Q59.9736 163.034 58.1449 166.599 Q56.3393 170.141 56.3393 177.27 Q56.3393 184.377 58.1449 187.941 Q59.9736 191.483 63.5847 191.483 Q67.2189 191.483 69.0244 187.941 Q70.8531 184.377 70.8531 177.27 Q70.8531 170.141 69.0244 166.599 Q67.2189 163.034 63.5847 163.034 M63.5847 159.33 Q69.3948 159.33 72.4503 163.937 Q75.529 168.52 75.529 177.27 Q75.529 185.997 72.4503 190.603 Q69.3948 195.187 63.5847 195.187 Q57.7745 195.187 54.6958 190.603 Q51.6403 185.997 51.6403 177.27 Q51.6403 168.52 54.6958 163.937 Q57.7745 159.33 63.5847 159.33 Z" fill="#000000" fill-rule="nonzero" fill-opacity="1" /><path clip-path="url(#clip730)" d="M83.7466 188.636 L88.6308 188.636 L88.6308 194.515 L83.7466 194.515 L83.7466 188.636 Z" fill="#000000" fill-rule="nonzero" fill-opacity="1" /><path clip-path="url(#clip730)" d="M112.983 175.881 Q116.339 176.599 118.214 178.867 Q120.112 181.136 120.112 184.469 Q120.112 189.585 116.594 192.386 Q113.075 195.187 106.594 195.187 Q104.418 195.187 102.103 194.747 Q99.8113 194.33 97.3576 193.474 L97.3576 188.96 Q99.3021 190.094 101.617 190.673 Q103.932 191.252 106.455 191.252 Q110.853 191.252 113.145 189.515 Q115.459 187.779 115.459 184.469 Q115.459 181.414 113.307 179.701 Q111.177 177.965 107.358 177.965 L103.33 177.965 L103.33 174.122 L107.543 174.122 Q110.992 174.122 112.82 172.756 Q114.649 171.367 114.649 168.775 Q114.649 166.113 112.751 164.701 Q110.876 163.266 107.358 163.266 Q105.436 163.266 103.237 163.682 Q101.038 164.099 98.3993 164.979 L98.3993 160.812 Q101.061 160.071 103.376 159.701 Q105.714 159.33 107.774 159.33 Q113.098 159.33 116.2 161.761 Q119.302 164.168 119.302 168.289 Q119.302 171.159 117.658 173.15 Q116.015 175.117 112.983 175.881 Z" fill="#000000" fill-rule="nonzero" fill-opacity="1" /><circle clip-path="url(#clip732)" cx="1321.34" cy="1236.52" r="14.4" fill="#808080" fill-rule="evenodd" fill-opacity="1" stroke="#000000" stroke-opacity="1" stroke-width="3.2"/>
<circle clip-path="url(#clip732)" cx="1320.73" cy="1445.72" r="14.4" fill="#808080" fill-rule="evenodd" fill-opacity="1" stroke="#000000" stroke-opacity="1" stroke-width="3.2"/>
<circle clip-path="url(#clip732)" cx="2290.59" cy="1240.22" r="14.4" fill="#808080" fill-rule="evenodd" fill-opacity="1" stroke="#000000" stroke-opacity="1" stroke-width="3.2"/>
<circle clip-path="url(#clip732)" cx="218.281" cy="87.9763" r="14.4" fill="#808080" fill-rule="evenodd" fill-opacity="1" stroke="#000000" stroke-opacity="1" stroke-width="3.2"/>
<path clip-path="url(#clip730)" d="M1325.64 1243.96 Q1316.6 1243.96 1313.12 1246.02 Q1309.63 1248.09 1309.63 1253.07 Q1309.63 1257.04 1312.23 1259.39 Q1314.86 1261.7 1319.36 1261.7 Q1325.55 1261.7 1329.28 1257.32 Q1333.05 1252.91 1333.05 1245.62 L1333.05 1243.96 L1325.64 1243.96 M1340.5 1240.88 L1340.5 1266.76 L1333.05 1266.76 L1333.05 1259.88 Q1330.5 1264.01 1326.69 1265.99 Q1322.88 1267.94 1317.37 1267.94 Q1310.4 1267.94 1306.27 1264.05 Q1302.18 1260.12 1302.18 1253.56 Q1302.18 1245.9 1307.28 1242.01 Q1312.43 1238.12 1322.6 1238.12 L1333.05 1238.12 L1333.05 1237.39 Q1333.05 1232.25 1329.65 1229.45 Q1326.28 1226.62 1320.17 1226.62 Q1316.28 1226.62 1312.59 1227.55 Q1308.91 1228.48 1305.5 1230.34 L1305.5 1223.46 Q1309.59 1221.88 1313.44 1221.11 Q1317.29 1220.3 1320.94 1220.3 Q1330.78 1220.3 1335.64 1225.4 Q1340.5 1230.51 1340.5 1240.88 Z" fill="#000000" fill-rule="nonzero" fill-opacity="1" /><path clip-path="url(#clip730)" d="M1333.28 1453.31 Q1333.28 1445.09 1329.88 1440.43 Q1326.52 1435.73 1320.61 1435.73 Q1314.69 1435.73 1311.29 1440.43 Q1307.93 1445.09 1307.93 1453.31 Q1307.93 1461.53 1311.29 1466.23 Q1314.69 1470.89 1320.61 1470.89 Q1326.52 1470.89 1329.88 1466.23 Q1333.28 1461.53 1333.28 1453.31 M1307.93 1437.47 Q1310.28 1433.42 1313.84 1431.48 Q1317.45 1429.49 1322.43 1429.49 Q1330.69 1429.49 1335.84 1436.05 Q1341.02 1442.62 1341.02 1453.31 Q1341.02 1464.01 1335.84 1470.57 Q1330.69 1477.13 1322.43 1477.13 Q1317.45 1477.13 1313.84 1475.19 Q1310.28 1473.2 1307.93 1469.15 L1307.93 1475.96 L1300.43 1475.96 L1300.43 1412.92 L1307.93 1412.92 L1307.93 1437.47 Z" fill="#000000" fill-rule="nonzero" fill-opacity="1" /><path clip-path="url(#clip730)" d="M2308.53 1226.83 L2308.53 1233.8 Q2305.37 1232.06 2302.17 1231.21 Q2299.01 1230.32 2295.77 1230.32 Q2288.52 1230.32 2284.51 1234.93 Q2280.5 1239.51 2280.5 1247.82 Q2280.5 1256.12 2284.51 1260.74 Q2288.52 1265.32 2295.77 1265.32 Q2299.01 1265.32 2302.17 1264.47 Q2305.37 1263.57 2308.53 1261.83 L2308.53 1268.72 Q2305.41 1270.18 2302.05 1270.91 Q2298.73 1271.64 2294.96 1271.64 Q2284.71 1271.64 2278.68 1265.19 Q2272.64 1258.75 2272.64 1247.82 Q2272.64 1236.72 2278.72 1230.36 Q2284.83 1224 2295.45 1224 Q2298.89 1224 2302.17 1224.73 Q2305.45 1225.41 2308.53 1226.83 Z" fill="#000000" fill-rule="nonzero" fill-opacity="1" /><path clip-path="url(#clip730)" d="M231.102 79.7327 L231.102 55.1842 L238.556 55.1842 L238.556 118.216 L231.102 118.216 L231.102 111.411 Q228.753 115.462 225.148 117.447 Q221.583 119.391 216.56 119.391 Q208.336 119.391 203.151 112.829 Q198.007 106.266 198.007 95.5717 Q198.007 84.8773 203.151 78.3149 Q208.336 71.7524 216.56 71.7524 Q221.583 71.7524 225.148 73.7373 Q228.753 75.6818 231.102 79.7327 M205.703 95.5717 Q205.703 103.795 209.065 108.494 Q212.468 113.153 218.383 113.153 Q224.297 113.153 227.7 108.494 Q231.102 103.795 231.102 95.5717 Q231.102 87.3484 227.7 82.6898 Q224.297 77.9908 218.383 77.9908 Q212.468 77.9908 209.065 82.6898 Q205.703 87.3484 205.703 95.5717 Z" fill="#000000" fill-rule="nonzero" fill-opacity="1" /><path clip-path="url(#clip730)" d="M2007.44 198.898 L2279.53 198.898 L2279.53 95.2176 L2007.44 95.2176  Z" fill="#ffffff" fill-rule="evenodd" fill-opacity="1"/>
<polyline clip-path="url(#clip730)" style="stroke:#000000; stroke-linecap:round; stroke-linejoin:round; stroke-width:4; stroke-opacity:1; fill:none" points="2007.44,198.898 2279.53,198.898 2279.53,95.2176 2007.44,95.2176 2007.44,198.898 "/>
<circle clip-path="url(#clip730)" cx="2105.07" cy="147.058" r="20.48" fill="#808080" fill-rule="evenodd" fill-opacity="1" stroke="#000000" stroke-opacity="1" stroke-width="4.55111"/>
<path clip-path="url(#clip730)" d="M2216.54 166.745 Q2214.73 171.375 2213.02 172.787 Q2211.31 174.199 2208.44 174.199 L2205.03 174.199 L2205.03 170.634 L2207.53 170.634 Q2209.29 170.634 2210.27 169.8 Q2211.24 168.967 2212.42 165.865 L2213.18 163.921 L2202.7 138.412 L2207.21 138.412 L2215.31 158.689 L2223.41 138.412 L2227.93 138.412 L2216.54 166.745 Z" fill="#000000" fill-rule="nonzero" fill-opacity="1" /><path clip-path="url(#clip730)" d="M2235.22 160.402 L2242.86 160.402 L2242.86 134.037 L2234.55 135.703 L2234.55 131.444 L2242.81 129.778 L2247.49 129.778 L2247.49 160.402 L2255.13 160.402 L2255.13 164.338 L2235.22 164.338 L2235.22 160.402 Z" fill="#000000" fill-rule="nonzero" fill-opacity="1" /></svg>
