<?xml version="1.0" encoding="utf-8"?>
<svg xmlns="http://www.w3.org/2000/svg" xmlns:xlink="http://www.w3.org/1999/xlink" width="600" height="400" viewBox="0 0 2400 1600">
<defs>
  <clipPath id="clip000">
    <rect x="0" y="0" width="2400" height="1600"/>
  </clipPath>
</defs>
<path clip-path="url(#clip000)" d="M0 1600 L2400 1600 L2400 0 L0 0  Z" fill="#ffffff" fill-rule="evenodd" fill-opacity="1"/>
<defs>
  <clipPath id="clip001">
    <rect x="480" y="0" width="1681" height="1600"/>
  </clipPath>
</defs>
<path clip-path="url(#clip000)" d="M112.177 1486.45 L2352.76 1486.45 L2352.76 47.2441 L112.177 47.2441  Z" fill="#ffffff" fill-rule="evenodd" fill-opacity="1"/>
<defs>
  <clipPath id="clip002">
    <rect x="112" y="47" width="2242" height="1440"/>
  </clipPath>
</defs>
<polyline clip-path="url(#clip002)" style="stroke:#000000; stroke-linecap:round; stroke-linejoin:round; stroke-width:2; stroke-opacity:0.1; fill:none" points="585.566,1486.45 585.566,47.2441 "/>
<polyline clip-path="url(#clip002)" style="stroke:#000000; stroke-linecap:round; stroke-linejoin:round; stroke-width:2; stroke-opacity:0.1; fill:none" points="1089.67,1486.45 1089.67,47.2441 "/>
<polyline clip-path="url(#clip002)" style="stroke:#000000; stroke-linecap:round; stroke-linejoin:round; stroke-width:2; stroke-opacity:0.1; fill:none" points="1593.78,1486.45 1593.78,47.2441 "/>
<polyline clip-path="url(#clip002)" style="stroke:#000000; stroke-linecap:round; stroke-linejoin:round; stroke-width:2; stroke-opacity:0.1; fill:none" points="2097.89,1486.45 2097.89,47.2441 "/>
<polyline clip-path="url(#clip000)" style="stroke:#000000; stroke-linecap:round; stroke-linejoin:round; stroke-width:4; stroke-opacity:1; fill:none" points="112.177,1486.45 2352.76,1486.45 "/>
<polyline clip-path="url(#clip000)" style="stroke:#000000; stroke-linecap:round; stroke-linejoin:round; stroke-width:4; stroke-opacity:1; fill:none" points="585.566,1486.45 585.566,1467.55 "/>
<polyline clip-path="url(#clip000)" style="stroke:#000000; stroke-linecap:round; stroke-linejoin:round; stroke-width:4; stroke-opacity:1; fill:none" points="1089.67,1486.45 1089.67,1467.55 "/>
<polyline clip-path="url(#clip000)" style="stroke:#000000; stroke-linecap:round; stroke-linejoin:round; stroke-width:4; stroke-opacity:1; fill:none" points="1593.78,1486.45 1593.78,1467.55 "/>
<polyline clip-path="url(#clip000)" style="stroke:#000000; stroke-linecap:round; stroke-linejoin:round; stroke-width:4; stroke-opacity:1; fill:none" points="2097.89,1486.45 2097.89,1467.55 "/>
<path clip-path="url(#clip000)" d="M532.094 1532.02 L561.77 1532.02 L561.77 1535.95 L532.094 1535.95 L532.094 1532.02 Z" fill="#000000" fill-rule="nonzero" fill-opacity="1" /><path clip-path="url(#clip000)" d="M572.673 1544.91 L580.312 1544.91 L580.312 1518.55 L572.002 1520.21 L572.002 1515.95 L580.265 1514.29 L584.941 1514.29 L584.941 1544.91 L592.58 1544.91 L592.58 1548.85 L572.673 1548.85 L572.673 1544.91 Z" fill="#000000" fill-rule="nonzero" fill-opacity="1" /><path clip-path="url(#clip000)" d="M602.025 1542.97 L606.909 1542.97 L606.909 1548.85 L602.025 1548.85 L602.025 1542.97 Z" fill="#000000" fill-rule="nonzero" fill-opacity="1" /><path clip-path="url(#clip000)" d="M627.094 1517.37 Q623.483 1517.37 621.654 1520.93 Q619.849 1524.47 619.849 1531.6 Q619.849 1538.71 621.654 1542.27 Q623.483 1545.82 627.094 1545.82 Q630.728 1545.82 632.534 1542.27 Q634.362 1538.71 634.362 1531.6 Q634.362 1524.47 632.534 1520.93 Q630.728 1517.37 627.094 1517.37 M627.094 1513.66 Q632.904 1513.66 635.96 1518.27 Q639.038 1522.85 639.038 1531.6 Q639.038 1540.33 635.96 1544.94 Q632.904 1549.52 627.094 1549.52 Q621.284 1549.52 618.205 1544.94 Q615.15 1540.33 615.15 1531.6 Q615.15 1522.85 618.205 1518.27 Q621.284 1513.66 627.094 1513.66 Z" fill="#000000" fill-rule="nonzero" fill-opacity="1" /><path clip-path="url(#clip000)" d="M1036.7 1532.02 L1066.38 1532.02 L1066.38 1535.95 L1036.7 1535.95 L1036.7 1532.02 Z" fill="#000000" fill-rule="nonzero" fill-opacity="1" /><path clip-path="url(#clip000)" d="M1086.47 1517.37 Q1082.86 1517.37 1081.03 1520.93 Q1079.22 1524.47 1079.22 1531.6 Q1079.22 1538.71 1081.03 1542.27 Q1082.86 1545.82 1086.47 1545.82 Q1090.1 1545.82 1091.91 1542.27 Q1093.74 1538.71 1093.74 1531.6 Q1093.74 1524.47 1091.91 1520.93 Q1090.1 1517.37 1086.47 1517.37 M1086.47 1513.66 Q1092.28 1513.66 1095.33 1518.27 Q1098.41 1522.85 1098.41 1531.6 Q1098.41 1540.33 1095.33 1544.94 Q1092.28 1549.52 1086.47 1549.52 Q1080.66 1549.52 1077.58 1544.94 Q1074.52 1540.33 1074.52 1531.6 Q1074.52 1522.85 1077.58 1518.27 Q1080.66 1513.66 1086.47 1513.66 Z" fill="#000000" fill-rule="nonzero" fill-opacity="1" /><path clip-path="url(#clip000)" d="M1106.63 1542.97 L1111.51 1542.97 L1111.51 1548.85 L1106.63 1548.85 L1106.63 1542.97 Z" fill="#000000" fill-rule="nonzero" fill-opacity="1" /><path clip-path="url(#clip000)" d="M1121.75 1514.29 L1140.1 1514.29 L1140.1 1518.22 L1126.03 1518.22 L1126.03 1526.7 Q1127.05 1526.35 1128.06 1526.19 Q1129.08 1526 1130.1 1526 Q1135.89 1526 1139.27 1529.17 Q1142.65 1532.34 1142.65 1537.76 Q1142.65 1543.34 1139.18 1546.44 Q1135.7 1549.52 1129.38 1549.52 Q1127.21 1549.52 1124.94 1549.15 Q1122.69 1548.78 1120.29 1548.04 L1120.29 1543.34 Q1122.37 1544.47 1124.59 1545.03 Q1126.81 1545.58 1129.29 1545.58 Q1133.3 1545.58 1135.63 1543.48 Q1137.97 1541.37 1137.97 1537.76 Q1137.97 1534.15 1135.63 1532.04 Q1133.3 1529.94 1129.29 1529.94 Q1127.42 1529.94 1125.54 1530.35 Q1123.69 1530.77 1121.75 1531.65 L1121.75 1514.29 Z" fill="#000000" fill-rule="nonzero" fill-opacity="1" /><path clip-path="url(#clip000)" d="M1571.17 1517.37 Q1567.55 1517.37 1565.73 1520.93 Q1563.92 1524.47 1563.92 1531.6 Q1563.92 1538.71 1565.73 1542.27 Q1567.55 1545.82 1571.17 1545.82 Q1574.8 1545.82 1576.61 1542.27 Q1578.43 1538.71 1578.43 1531.6 Q1578.43 1524.47 1576.61 1520.93 Q1574.8 1517.37 1571.17 1517.37 M1571.17 1513.66 Q1576.98 1513.66 1580.03 1518.27 Q1583.11 1522.85 1583.11 1531.6 Q1583.11 1540.33 1580.03 1544.94 Q1576.98 1549.52 1571.17 1549.52 Q1565.36 1549.52 1562.28 1544.94 Q1559.22 1540.33 1559.22 1531.6 Q1559.22 1522.85 1562.28 1518.27 Q1565.36 1513.66 1571.17 1513.66 Z" fill="#000000" fill-rule="nonzero" fill-opacity="1" /><path clip-path="url(#clip000)" d="M1591.33 1542.97 L1596.21 1542.97 L1596.21 1548.85 L1591.33 1548.85 L1591.33 1542.97 Z" fill="#000000" fill-rule="nonzero" fill-opacity="1" /><path clip-path="url(#clip000)" d="M1616.4 1517.37 Q1612.79 1517.37 1610.96 1520.93 Q1609.15 1524.47 1609.15 1531.6 Q1609.15 1538.71 1610.96 1542.27 Q1612.79 1545.82 1616.4 1545.82 Q1620.03 1545.82 1621.84 1542.27 Q1623.66 1538.71 1623.66 1531.6 Q1623.66 1524.47 1621.84 1520.93 Q1620.03 1517.37 1616.4 1517.37 M1616.4 1513.66 Q1622.21 1513.66 1625.26 1518.27 Q1628.34 1522.85 1628.34 1531.6 Q1628.34 1540.33 1625.26 1544.94 Q1622.21 1549.52 1616.4 1549.52 Q1610.59 1549.52 1607.51 1544.94 Q1604.45 1540.33 1604.45 1531.6 Q1604.45 1522.85 1607.51 1518.27 Q1610.59 1513.66 1616.4 1513.66 Z" fill="#000000" fill-rule="nonzero" fill-opacity="1" /><path clip-path="url(#clip000)" d="M2075.77 1517.37 Q2072.16 1517.37 2070.33 1520.93 Q2068.52 1524.47 2068.52 1531.6 Q2068.52 1538.71 2070.33 1542.27 Q2072.16 1545.82 2075.77 1545.82 Q2079.4 1545.82 2081.21 1542.27 Q2083.04 1538.71 2083.04 1531.6 Q2083.04 1524.47 2081.21 1520.93 Q2079.4 1517.37 2075.77 1517.37 M2075.77 1513.66 Q2081.58 1513.66 2084.64 1518.27 Q2087.71 1522.85 2087.71 1531.6 Q2087.71 1540.33 2084.64 1544.94 Q2081.58 1549.52 2075.77 1549.52 Q2069.96 1549.52 2066.88 1544.94 Q2063.83 1540.33 2063.83 1531.6 Q2063.83 1522.85 2066.88 1518.27 Q2069.96 1513.66 2075.77 1513.66 Z" fill="#000000" fill-rule="nonzero" fill-opacity="1" /><path clip-path="url(#clip000)" d="M2095.93 1542.97 L2100.82 1542.97 L2100.82 1548.85 L2095.93 1548.85 L2095.93 1542.97 Z" fill="#000000" fill-rule="nonzero" fill-opacity="1" /><path clip-path="url(#clip000)" d="M2111.05 1514.29 L2129.4 1514.29 L2129.4 1518.22 L2115.33 1518.22 L2115.33 1526.7 Q2116.35 1526.35 2117.37 1526.19 Q2118.39 1526 2119.4 1526 Q2125.19 1526 2128.57 1529.17 Q2131.95 1532.34 2131.95 1537.76 Q2131.95 1543.34 2128.48 1546.44 Q2125.01 1549.52 2118.69 1549.52 Q2116.51 1549.52 2114.24 1549.15 Q2112 1548.78 2109.59 1548.04 L2109.59 1543.34 Q2111.67 1544.47 2113.89 1545.03 Q2116.12 1545.58 2118.59 1545.58 Q2122.6 1545.58 2124.94 1543.48 Q2127.27 1541.37 2127.27 1537.76 Q2127.27 1534.15 2124.94 1532.04 Q2122.6 1529.94 2118.59 1529.94 Q2116.72 1529.94 2114.84 1530.35 Q2112.99 1530.77 2111.05 1531.65 L2111.05 1514.29 Z" fill="#000000" fill-rule="nonzero" fill-opacity="1" /><polyline clip-path="url(#clip002)" style="stroke:#000000; stroke-linecap:round; stroke-linejoin:round; stroke-width:2; stroke-opacity:0.1; fill:none" points="112.177,1264.97 2352.76,1264.97 "/>
<polyline clip-path="url(#clip002)" style="stroke:#000000; stroke-linecap:round; stroke-linejoin:round; stroke-width:2; stroke-opacity:0.1; fill:none" points="112.177,1028.66 2352.76,1028.66 "/>
<polyline clip-path="url(#clip002)" style="stroke:#000000; stroke-linecap:round; stroke-linejoin:round; stroke-width:2; stroke-opacity:0.1; fill:none" points="112.177,792.35 2352.76,792.35 "/>
<polyline clip-path="url(#clip002)" style="stroke:#000000; stroke-linecap:round; stroke-linejoin:round; stroke-width:2; stroke-opacity:0.1; fill:none" points="112.177,556.039 2352.76,556.039 "/>
<polyline clip-path="url(#clip002)" style="stroke:#000000; stroke-linecap:round; stroke-linejoin:round; stroke-width:2; stroke-opacity:0.1; fill:none" points="112.177,319.729 2352.76,319.729 "/>
<polyline clip-path="url(#clip002)" style="stroke:#000000; stroke-linecap:round; stroke-linejoin:round; stroke-width:2; stroke-opacity:0.1; fill:none" points="112.177,83.4183 2352.76,83.4183 "/>
<polyline clip-path="url(#clip000)" style="stroke:#000000; stroke-linecap:round; stroke-linejoin:round; stroke-width:4; stroke-opacity:1; fill:none" points="112.177,1486.45 112.177,47.2441 "/>
<polyline clip-path="url(#clip000)" style="stroke:#000000; stroke-linecap:round; stroke-linejoin:round; stroke-width:4; stroke-opacity:1; fill:none" points="112.177,1264.97 131.075,1264.97 "/>
<polyline clip-path="url(#clip000)" style="stroke:#000000; stroke-linecap:round; stroke-linejoin:round; stroke-width:4; stroke-opacity:1; fill:none" points="112.177,1028.66 131.075,1028.66 "/>
<polyline clip-path="url(#clip000)" style="stroke:#000000; stroke-linecap:round; stroke-linejoin:round; stroke-width:4; stroke-opacity:1; fill:none" points="112.177,792.35 131.075,792.35 "/>
<polyline clip-path="url(#clip000)" style="stroke:#000000; stroke-linecap:round; stroke-linejoin:round; stroke-width:4; stroke-opacity:1; fill:none" points="112.177,556.039 131.075,556.039 "/>
<polyline clip-path="url(#clip000)" style="stroke:#000000; stroke-linecap:round; stroke-linejoin:round; stroke-width:4; stroke-opacity:1; fill:none" points="112.177,319.729 131.075,319.729 "/>
<polyline clip-path="url(#clip000)" style="stroke:#000000; stroke-linecap:round; stroke-linejoin:round; stroke-width:4; stroke-opacity:1; fill:none" points="112.177,83.4183 131.075,83.4183 "/>
<path clip-path="url(#clip000)" d="M56.2699 1278.32 L63.9087 1278.32 L63.9087 1251.95 L55.5986 1253.62 L55.5986 1249.36 L63.8624 1247.69 L68.5383 1247.69 L68.5383 1278.32 L76.1772 1278.32 L76.1772 1282.25 L56.2699 1282.25 L56.2699 1278.32 Z" fill="#000000" fill-rule="nonzero" fill-opacity="1" /><path clip-path="url(#clip000)" d="M59.8578 1042.01 L76.1772 1042.01 L76.1772 1045.94 L54.2328 1045.94 L54.2328 1042.01 Q56.8949 1039.25 61.4782 1034.62 Q66.0846 1029.97 67.2652 1028.63 Q69.5105 1026.1 70.3902 1024.37 Q71.2929 1022.61 71.2929 1020.92 Q71.2929 1018.16 69.3485 1016.43 Q67.4272 1014.69 64.3254 1014.69 Q62.1263 1014.69 59.6726 1015.45 Q57.2421 1016.22 54.4643 1017.77 L54.4643 1013.05 Q57.2884 1011.91 59.7421 1011.33 Q62.1958 1010.76 64.2328 1010.76 Q69.6031 1010.76 72.7976 1013.44 Q75.992 1016.13 75.992 1020.62 Q75.992 1022.75 75.1818 1024.67 Q74.3948 1026.57 72.2883 1029.16 Q71.7096 1029.83 68.6078 1033.05 Q65.5059 1036.24 59.8578 1042.01 Z" fill="#000000" fill-rule="nonzero" fill-opacity="1" /><path clip-path="url(#clip000)" d="M69.0476 790.996 Q72.404 791.713 74.279 793.982 Q76.1772 796.25 76.1772 799.584 Q76.1772 804.699 72.6587 807.5 Q69.1402 810.301 62.6587 810.301 Q60.4828 810.301 58.168 809.861 Q55.8764 809.445 53.4227 808.588 L53.4227 804.074 Q55.3671 805.209 57.6819 805.787 Q59.9967 806.366 62.5198 806.366 Q66.918 806.366 69.2096 804.63 Q71.5244 802.894 71.5244 799.584 Q71.5244 796.528 69.3717 794.815 Q67.242 793.079 63.4226 793.079 L59.3949 793.079 L59.3949 789.237 L63.6078 789.237 Q67.0569 789.237 68.8855 787.871 Q70.7142 786.482 70.7142 783.889 Q70.7142 781.227 68.8161 779.815 Q66.9411 778.38 63.4226 778.38 Q61.5013 778.38 59.3023 778.797 Q57.1032 779.213 54.4643 780.093 L54.4643 775.926 Q57.1264 775.186 59.4412 774.815 Q61.7791 774.445 63.8393 774.445 Q69.1633 774.445 72.2652 776.875 Q75.367 779.283 75.367 783.403 Q75.367 786.274 73.7235 788.264 Q72.08 790.232 69.0476 790.996 Z" fill="#000000" fill-rule="nonzero" fill-opacity="1" /><path clip-path="url(#clip000)" d="M66.5939 542.833 L54.7884 561.282 L66.5939 561.282 L66.5939 542.833 M65.367 538.759 L71.2466 538.759 L71.2466 561.282 L76.1772 561.282 L76.1772 565.171 L71.2466 565.171 L71.2466 573.319 L66.5939 573.319 L66.5939 565.171 L50.9921 565.171 L50.9921 560.657 L65.367 538.759 Z" fill="#000000" fill-rule="nonzero" fill-opacity="1" /><path clip-path="url(#clip000)" d="M55.2745 302.449 L73.6309 302.449 L73.6309 306.384 L59.5569 306.384 L59.5569 314.856 Q60.5754 314.509 61.5939 314.347 Q62.6124 314.162 63.6309 314.162 Q69.418 314.162 72.7976 317.333 Q76.1772 320.504 76.1772 325.921 Q76.1772 331.5 72.705 334.601 Q69.2328 337.68 62.9134 337.68 Q60.7374 337.68 58.4689 337.31 Q56.2236 336.939 53.8162 336.199 L53.8162 331.5 Q55.8995 332.634 58.1217 333.189 Q60.3439 333.745 62.8208 333.745 Q66.8254 333.745 69.1633 331.639 Q71.5013 329.532 71.5013 325.921 Q71.5013 322.31 69.1633 320.203 Q66.8254 318.097 62.8208 318.097 Q60.9458 318.097 59.0708 318.514 Q57.2189 318.93 55.2745 319.81 L55.2745 302.449 Z" fill="#000000" fill-rule="nonzero" fill-opacity="1" /><path clip-path="url(#clip000)" d="M64.6495 81.5549 Q61.5013 81.5549 59.6495 83.7077 Q57.8208 85.8605 57.8208 89.6104 Q57.8208 93.3373 59.6495 95.5132 Q61.5013 97.6659 64.6495 97.6659 Q67.7976 97.6659 69.6263 95.5132 Q71.4781 93.3373 71.4781 89.6104 Q71.4781 85.8605 69.6263 83.7077 Q67.7976 81.5549 64.6495 81.5549 M73.9318 66.9022 L73.9318 71.1615 Q72.1726 70.3281 70.367 69.8883 Q68.5846 69.4485 66.8254 69.4485 Q62.1958 69.4485 59.7421 72.5735 Q57.3115 75.6985 56.9643 82.0179 Q58.33 80.004 60.3902 78.9392 Q62.4504 77.8512 64.9272 77.8512 Q70.1355 77.8512 73.1448 81.0225 Q76.1772 84.1706 76.1772 89.6104 Q76.1772 94.9345 73.029 98.1521 Q69.8809 101.37 64.6495 101.37 Q58.6541 101.37 55.4828 96.7863 Q52.3116 92.1799 52.3116 83.4531 Q52.3116 75.2587 56.2004 70.3976 Q60.0893 65.5133 66.6402 65.5133 Q68.3994 65.5133 70.1818 65.8606 Q71.9874 66.2078 73.9318 66.9022 Z" fill="#000000" fill-rule="nonzero" fill-opacity="1" /><circle clip-path="url(#clip002)" cx="2289.34" cy="1356.04" r="14.4" fill="#808080" fill-rule="evenodd" fill-opacity="1" stroke="#000000" stroke-opacity="1" stroke-width="3.2"/>
<circle clip-path="url(#clip002)" cx="175.59" cy="87.9763" r="14.4" fill="#808080" fill-rule="evenodd" fill-opacity="1" stroke="#000000" stroke-opacity="1" stroke-width="3.2"/>
<circle clip-path="url(#clip002)" cx="1628.6" cy="1445.72" r="14.4" fill="#808080" fill-rule="evenodd" fill-opacity="1" stroke="#000000" stroke-opacity="1" stroke-width="3.2"/>
<circle clip-path="url(#clip002)" cx="1450.82" cy="1400.05" r="14.4" fill="#808080" fill-rule="evenodd" fill-opacity="1" stroke="#000000" stroke-opacity="1" stroke-width="3.2"/>
<path clip-path="url(#clip000)" d="M2293.64 1363.47 Q2284.6 1363.47 2281.12 1365.54 Q2277.64 1367.6 2277.64 1372.59 Q2277.64 1376.56 2280.23 1378.91 Q2282.86 1381.21 2287.36 1381.21 Q2293.56 1381.21 2297.28 1376.84 Q2301.05 1372.42 2301.05 1365.13 L2301.05 1363.47 L2293.64 1363.47 M2308.5 1360.39 L2308.5 1386.28 L2301.05 1386.28 L2301.05 1379.39 Q2298.5 1383.52 2294.69 1385.51 Q2290.88 1387.45 2285.37 1387.45 Q2278.41 1387.45 2274.27 1383.56 Q2270.18 1379.63 2270.18 1373.07 Q2270.18 1365.42 2275.29 1361.53 Q2280.43 1357.64 2290.6 1357.64 L2301.05 1357.64 L2301.05 1356.91 Q2301.05 1351.76 2297.65 1348.97 Q2294.29 1346.13 2288.17 1346.13 Q2284.28 1346.13 2280.59 1347.07 Q2276.91 1348 2273.5 1349.86 L2273.5 1342.97 Q2277.6 1341.39 2281.44 1340.62 Q2285.29 1339.81 2288.94 1339.81 Q2298.78 1339.81 2303.64 1344.92 Q2308.5 1350.02 2308.5 1360.39 Z" fill="#000000" fill-rule="nonzero" fill-opacity="1" /><path clip-path="url(#clip000)" d="M188.148 95.5717 Q188.148 87.3484 184.745 82.6898 Q181.383 77.9908 175.468 77.9908 Q169.554 77.9908 166.151 82.6898 Q162.789 87.3484 162.789 95.5717 Q162.789 103.795 166.151 108.494 Q169.554 113.153 175.468 113.153 Q181.383 113.153 184.745 108.494 Q188.148 103.795 188.148 95.5717 M162.789 79.7327 Q165.138 75.6818 168.703 73.7373 Q172.309 71.7524 177.291 71.7524 Q185.555 71.7524 190.7 78.3149 Q195.885 84.8773 195.885 95.5717 Q195.885 106.266 190.7 112.829 Q185.555 119.391 177.291 119.391 Q172.309 119.391 168.703 117.447 Q165.138 115.462 162.789 111.411 L162.789 118.216 L155.295 118.216 L155.295 55.1842 L162.789 55.1842 L162.789 79.7327 Z" fill="#000000" fill-rule="nonzero" fill-opacity="1" /><path clip-path="url(#clip000)" d="M1646.55 1432.33 L1646.55 1439.3 Q1643.39 1437.55 1640.19 1436.7 Q1637.03 1435.81 1633.79 1435.81 Q1626.53 1435.81 1622.52 1440.43 Q1618.51 1445.01 1618.51 1453.31 Q1618.51 1461.62 1622.52 1466.23 Q1626.53 1470.81 1633.79 1470.81 Q1637.03 1470.81 1640.19 1469.96 Q1643.39 1469.07 1646.55 1467.33 L1646.55 1474.21 Q1643.43 1475.67 1640.06 1476.4 Q1636.74 1477.13 1632.98 1477.13 Q1622.73 1477.13 1616.69 1470.69 Q1610.65 1464.25 1610.65 1453.31 Q1610.65 1442.21 1616.73 1435.85 Q1622.85 1429.49 1633.46 1429.49 Q1636.9 1429.49 1640.19 1430.22 Q1643.47 1430.91 1646.55 1432.33 Z" fill="#000000" fill-rule="nonzero" fill-opacity="1" /><path clip-path="url(#clip000)" d="M1463.65 1391.81 L1463.65 1367.26 L1471.1 1367.26 L1471.1 1430.29 L1463.65 1430.29 L1463.65 1423.49 Q1461.3 1427.54 1457.69 1429.52 Q1454.13 1431.47 1449.1 1431.47 Q1440.88 1431.47 1435.69 1424.9 Q1430.55 1418.34 1430.55 1407.65 Q1430.55 1396.95 1435.69 1390.39 Q1440.88 1383.83 1449.1 1383.83 Q1454.13 1383.83 1457.69 1385.81 Q1461.3 1387.76 1463.65 1391.81 M1438.25 1407.65 Q1438.25 1415.87 1441.61 1420.57 Q1445.01 1425.23 1450.93 1425.23 Q1456.84 1425.23 1460.24 1420.57 Q1463.65 1415.87 1463.65 1407.65 Q1463.65 1399.42 1460.24 1394.76 Q1456.84 1390.07 1450.93 1390.07 Q1445.01 1390.07 1441.61 1394.76 Q1438.25 1399.42 1438.25 1407.65 Z" fill="#000000" fill-rule="nonzero" fill-opacity="1" /><path clip-path="url(#clip000)" d="M2001.58 198.898 L2278.07 198.898 L2278.07 95.2176 L2001.58 95.2176  Z" fill="#ffffff" fill-rule="evenodd" fill-opacity="1"/>
<polyline clip-path="url(#clip000)" style="stroke:#000000; stroke-linecap:round; stroke-linejoin:round; stroke-width:4; stroke-opacity:1; fill:none" points="2001.58,198.898 2278.07,198.898 2278.07,95.2176 2001.58,95.2176 2001.58,198.898 "/>
<circle clip-path="url(#clip000)" cx="2101.16" cy="147.058" r="20.48" fill="#808080" fill-rule="evenodd" fill-opacity="1" stroke="#000000" stroke-opacity="1" stroke-width="4.55111"/>
<path clip-path="url(#clip000)" d="M2214.59 166.745 Q2212.78 171.375 2211.07 172.787 Q2209.36 174.199 2206.49 174.199 L2203.08 174.199 L2203.08 170.634 L2205.58 170.634 Q2207.34 170.634 2208.31 169.8 Q2209.29 168.967 2210.47 165.865 L2211.23 163.921 L2200.74 138.412 L2205.26 138.412 L2213.36 158.689 L2221.46 138.412 L2225.98 138.412 L2214.59 166.745 Z" fill="#000000" fill-rule="nonzero" fill-opacity="1" /><path clip-path="url(#clip000)" d="M2233.27 160.402 L2240.91 160.402 L2240.91 134.037 L2232.6 135.703 L2232.6 131.444 L2240.86 129.778 L2245.54 129.778 L2245.54 160.402 L2253.17 160.402 L2253.17 164.338 L2233.27 164.338 L2233.27 160.402 Z" fill="#000000" fill-rule="nonzero" fill-opacity="1" /></svg>
