<?xml version="1.0" encoding="utf-8"?>
<svg xmlns="http://www.w3.org/2000/svg" xmlns:xlink="http://www.w3.org/1999/xlink" width="600" height="400" viewBox="0 0 2400 1600">
<defs>
  <clipPath id="clip500">
    <rect x="0" y="0" width="2400" height="1600"/>
  </clipPath>
</defs>
<path clip-path="url(#clip500)" d="M0 1600 L2400 1600 L2400 0 L0 0  Z" fill="#ffffff" fill-rule="evenodd" fill-opacity="1"/>
<defs>
  <clipPath id="clip501">
    <rect x="480" y="0" width="1681" height="1600"/>
  </clipPath>
</defs>
<path clip-path="url(#clip500)" d="M112.177 1486.45 L2352.76 1486.45 L2352.76 47.2441 L112.177 47.2441  Z" fill="#ffffff" fill-rule="evenodd" fill-opacity="1"/>
<defs>
  <clipPath id="clip502">
    <rect x="112" y="47" width="2242" height="1440"/>
  </clipPath>
</defs>
<polyline clip-path="url(#clip502)" style="stroke:#000000; stroke-linecap:round; stroke-linejoin:round; stroke-width:2; stroke-opacity:0.1; fill:none" points="527.073,1486.45 527.073,47.2441 "/>
<polyline clip-path="url(#clip502)" style="stroke:#000000; stroke-linecap:round; stroke-linejoin:round; stroke-width:2; stroke-opacity:0.1; fill:none" points="1056.95,1486.45 1056.95,47.2441 "/>
<polyline clip-path="url(#clip502)" style="stroke:#000000; stroke-linecap:round; stroke-linejoin:round; stroke-width:2; stroke-opacity:0.1; fill:none" points="1586.84,1486.45 1586.84,47.2441 "/>
<polyline clip-path="url(#clip502)" style="stroke:#000000; stroke-linecap:round; stroke-linejoin:round; stroke-width:2; stroke-opacity:0.1; fill:none" points="2116.72,1486.45 2116.72,47.2441 "/>
<polyline clip-path="url(#clip500)" style="stroke:#000000; stroke-linecap:round; stroke-linejoin:round; stroke-width:4; stroke-opacity:1; fill:none" points="112.177,1486.45 2352.76,1486.45 "/>
<polyline clip-path="url(#clip500)" style="stroke:#000000; stroke-linecap:round; stroke-linejoin:round; stroke-width:4; stroke-opacity:1; fill:none" points="527.073,1486.45 527.073,1467.55 "/>
<polyline clip-path="url(#clip500)" style="stroke:#000000; stroke-linecap:round; stroke-linejoin:round; stroke-width:4; stroke-opacity:1; fill:none" points="1056.95,1486.45 1056.95,1467.55 "/>
<polyline clip-path="url(#clip500)" style="stroke:#000000; stroke-linecap:round; stroke-linejoin:round; stroke-width:4; stroke-opacity:1; fill:none" points="1586.84,1486.45 1586.84,1467.55 "/>
<polyline clip-path="url(#clip500)" style="stroke:#000000; stroke-linecap:round; stroke-linejoin:round; stroke-width:4; stroke-opacity:1; fill:none" points="2116.72,1486.45 2116.72,1467.55 "/>
<path clip-path="url(#clip500)" d="M473.601 1532.02 L503.277 1532.02 L503.277 1535.95 L473.601 1535.95 L473.601 1532.02 Z" fill="#000000" fill-rule="nonzero" fill-opacity="1" /><path clip-path="url(#clip500)" d="M514.18 1544.91 L521.819 1544.91 L521.819 1518.55 L513.508 1520.21 L513.508 1515.95 L521.772 1514.29 L526.448 1514.29 L526.448 1544.91 L534.087 1544.91 L534.087 1548.85 L514.18 1548.85 L514.18 1544.91 Z" fill="#000000" fill-rule="nonzero" fill-opacity="1" /><path clip-path="url(#clip500)" d="M543.531 1542.97 L548.416 1542.97 L548.416 1548.85 L543.531 1548.85 L543.531 1542.97 Z" fill="#000000" fill-rule="nonzero" fill-opacity="1" /><path clip-path="url(#clip500)" d="M568.601 1517.37 Q564.99 1517.37 563.161 1520.93 Q561.355 1524.47 561.355 1531.6 Q561.355 1538.71 563.161 1542.27 Q564.99 1545.82 568.601 1545.82 Q572.235 1545.82 574.041 1542.27 Q575.869 1538.71 575.869 1531.6 Q575.869 1524.47 574.041 1520.93 Q572.235 1517.37 568.601 1517.37 M568.601 1513.66 Q574.411 1513.66 577.466 1518.27 Q580.545 1522.85 580.545 1531.6 Q580.545 1540.33 577.466 1544.94 Q574.411 1549.52 568.601 1549.52 Q562.791 1549.52 559.712 1544.94 Q556.656 1540.33 556.656 1531.6 Q556.656 1522.85 559.712 1518.27 Q562.791 1513.66 568.601 1513.66 Z" fill="#000000" fill-rule="nonzero" fill-opacity="1" /><path clip-path="url(#clip500)" d="M1003.98 1532.02 L1033.66 1532.02 L1033.66 1535.95 L1003.98 1535.95 L1003.98 1532.02 Z" fill="#000000" fill-rule="nonzero" fill-opacity="1" /><path clip-path="url(#clip500)" d="M1053.75 1517.37 Q1050.14 1517.37 1048.31 1520.93 Q1046.5 1524.47 1046.5 1531.6 Q1046.5 1538.71 1048.31 1542.27 Q1050.14 1545.82 1053.75 1545.82 Q1057.38 1545.82 1059.19 1542.27 Q1061.02 1538.71 1061.02 1531.6 Q1061.02 1524.47 1059.19 1520.93 Q1057.38 1517.37 1053.75 1517.37 M1053.75 1513.66 Q1059.56 1513.66 1062.61 1518.27 Q1065.69 1522.85 1065.69 1531.6 Q1065.69 1540.33 1062.61 1544.94 Q1059.56 1549.52 1053.75 1549.52 Q1047.94 1549.52 1044.86 1544.94 Q1041.8 1540.33 1041.8 1531.6 Q1041.8 1522.85 1044.86 1518.27 Q1047.94 1513.66 1053.75 1513.66 Z" fill="#000000" fill-rule="nonzero" fill-opacity="1" /><path clip-path="url(#clip500)" d="M1073.91 1542.97 L1078.8 1542.97 L1078.8 1548.85 L1073.91 1548.85 L1073.91 1542.97 Z" fill="#000000" fill-rule="nonzero" fill-opacity="1" /><path clip-path="url(#clip500)" d="M1089.03 1514.29 L1107.38 1514.29 L1107.38 1518.22 L1093.31 1518.22 L1093.31 1526.7 Q1094.33 1526.35 1095.35 1526.19 Q1096.36 1526 1097.38 1526 Q1103.17 1526 1106.55 1529.17 Q1109.93 1532.34 1109.93 1537.76 Q1109.93 1543.34 1106.46 1546.44 Q1102.98 1549.52 1096.67 1549.52 Q1094.49 1549.52 1092.22 1549.15 Q1089.98 1548.78 1087.57 1548.04 L1087.57 1543.34 Q1089.65 1544.47 1091.87 1545.03 Q1094.1 1545.58 1096.57 1545.58 Q1100.58 1545.58 1102.92 1543.48 Q1105.25 1541.37 1105.25 1537.76 Q1105.25 1534.15 1102.92 1532.04 Q1100.58 1529.94 1096.57 1529.94 Q1094.7 1529.94 1092.82 1530.35 Q1090.97 1530.77 1089.03 1531.65 L1089.03 1514.29 Z" fill="#000000" fill-rule="nonzero" fill-opacity="1" /><path clip-path="url(#clip500)" d="M1564.22 1517.37 Q1560.61 1517.37 1558.78 1520.93 Q1556.98 1524.47 1556.98 1531.6 Q1556.98 1538.71 1558.78 1542.27 Q1560.61 1545.82 1564.22 1545.82 Q1567.86 1545.82 1569.66 1542.27 Q1571.49 1538.71 1571.49 1531.6 Q1571.49 1524.47 1569.66 1520.93 Q1567.86 1517.37 1564.22 1517.37 M1564.22 1513.66 Q1570.03 1513.66 1573.09 1518.27 Q1576.17 1522.85 1576.17 1531.6 Q1576.17 1540.33 1573.09 1544.94 Q1570.03 1549.52 1564.22 1549.52 Q1558.41 1549.52 1555.33 1544.94 Q1552.28 1540.33 1552.28 1531.6 Q1552.28 1522.85 1555.33 1518.27 Q1558.41 1513.66 1564.22 1513.66 Z" fill="#000000" fill-rule="nonzero" fill-opacity="1" /><path clip-path="url(#clip500)" d="M1584.38 1542.97 L1589.27 1542.97 L1589.27 1548.85 L1584.38 1548.85 L1584.38 1542.97 Z" fill="#000000" fill-rule="nonzero" fill-opacity="1" /><path clip-path="url(#clip500)" d="M1609.45 1517.37 Q1605.84 1517.37 1604.01 1520.93 Q1602.21 1524.47 1602.21 1531.6 Q1602.21 1538.71 1604.01 1542.27 Q1605.84 1545.82 1609.45 1545.82 Q1613.09 1545.82 1614.89 1542.27 Q1616.72 1538.71 1616.72 1531.6 Q1616.72 1524.47 1614.89 1520.93 Q1613.09 1517.37 1609.45 1517.37 M1609.45 1513.66 Q1615.26 1513.66 1618.32 1518.27 Q1621.4 1522.85 1621.4 1531.6 Q1621.4 1540.33 1618.32 1544.94 Q1615.26 1549.52 1609.45 1549.52 Q1603.64 1549.52 1600.56 1544.94 Q1597.51 1540.33 1597.51 1531.6 Q1597.51 1522.85 1600.56 1518.27 Q1603.64 1513.66 1609.45 1513.66 Z" fill="#000000" fill-rule="nonzero" fill-opacity="1" /><path clip-path="url(#clip500)" d="M2094.6 1517.37 Q2090.99 1517.37 2089.16 1520.93 Q2087.35 1524.47 2087.35 1531.6 Q2087.35 1538.71 2089.16 1542.27 Q2090.99 1545.82 2094.6 1545.82 Q2098.23 1545.82 2100.04 1542.27 Q2101.87 1538.71 2101.87 1531.6 Q2101.87 1524.47 2100.04 1520.93 Q2098.23 1517.37 2094.6 1517.37 M2094.6 1513.66 Q2100.41 1513.66 2103.47 1518.27 Q2106.54 1522.85 2106.54 1531.6 Q2106.54 1540.33 2103.47 1544.94 Q2100.41 1549.52 2094.6 1549.52 Q2088.79 1549.52 2085.71 1544.94 Q2082.66 1540.33 2082.66 1531.6 Q2082.66 1522.85 2085.71 1518.27 Q2088.79 1513.66 2094.6 1513.66 Z" fill="#000000" fill-rule="nonzero" fill-opacity="1" /><path clip-path="url(#clip500)" d="M2114.76 1542.97 L2119.65 1542.97 L2119.65 1548.85 L2114.76 1548.85 L2114.76 1542.97 Z" fill="#000000" fill-rule="nonzero" fill-opacity="1" /><path clip-path="url(#clip500)" d="M2129.88 1514.29 L2148.23 1514.29 L2148.23 1518.22 L2134.16 1518.22 L2134.16 1526.7 Q2135.18 1526.35 2136.2 1526.19 Q2137.22 1526 2138.23 1526 Q2144.02 1526 2147.4 1529.17 Q2150.78 1532.34 2150.78 1537.76 Q2150.78 1543.34 2147.31 1546.44 Q2143.84 1549.52 2137.52 1549.52 Q2135.34 1549.52 2133.07 1549.15 Q2130.83 1548.78 2128.42 1548.04 L2128.42 1543.34 Q2130.5 1544.47 2132.73 1545.03 Q2134.95 1545.58 2137.42 1545.58 Q2141.43 1545.58 2143.77 1543.48 Q2146.1 1541.37 2146.1 1537.76 Q2146.1 1534.15 2143.77 1532.04 Q2141.43 1529.94 2137.42 1529.94 Q2135.55 1529.94 2133.67 1530.35 Q2131.82 1530.77 2129.88 1531.65 L2129.88 1514.29 Z" fill="#000000" fill-rule="nonzero" fill-opacity="1" /><polyline clip-path="url(#clip502)" style="stroke:#000000; stroke-linecap:round; stroke-linejoin:round; stroke-width:2; stroke-opacity:0.1; fill:none" points="112.177,1484.53 2352.76,1484.53 "/>
<polyline clip-path="url(#clip502)" style="stroke:#000000; stroke-linecap:round; stroke-linejoin:round; stroke-width:2; stroke-opacity:0.1; fill:none" points="112.177,1276.45 2352.76,1276.45 "/>
<polyline clip-path="url(#clip502)" style="stroke:#000000; stroke-linecap:round; stroke-linejoin:round; stroke-width:2; stroke-opacity:0.1; fill:none" points="112.177,1068.37 2352.76,1068.37 "/>
<polyline clip-path="url(#clip502)" style="stroke:#000000; stroke-linecap:round; stroke-linejoin:round; stroke-width:2; stroke-opacity:0.1; fill:none" points="112.177,860.292 2352.76,860.292 "/>
<polyline clip-path="url(#clip502)" style="stroke:#000000; stroke-linecap:round; stroke-linejoin:round; stroke-width:2; stroke-opacity:0.1; fill:none" points="112.177,652.211 2352.76,652.211 "/>
<polyline clip-path="url(#clip502)" style="stroke:#000000; stroke-linecap:round; stroke-linejoin:round; stroke-width:2; stroke-opacity:0.1; fill:none" points="112.177,444.129 2352.76,444.129 "/>
<polyline clip-path="url(#clip502)" style="stroke:#000000; stroke-linecap:round; stroke-linejoin:round; stroke-width:2; stroke-opacity:0.1; fill:none" points="112.177,236.048 2352.76,236.048 "/>
<polyline clip-path="url(#clip500)" style="stroke:#000000; stroke-linecap:round; stroke-linejoin:round; stroke-width:4; stroke-opacity:1; fill:none" points="112.177,1486.45 112.177,47.2441 "/>
<polyline clip-path="url(#clip500)" style="stroke:#000000; stroke-linecap:round; stroke-linejoin:round; stroke-width:4; stroke-opacity:1; fill:none" points="112.177,1484.53 131.075,1484.53 "/>
<polyline clip-path="url(#clip500)" style="stroke:#000000; stroke-linecap:round; stroke-linejoin:round; stroke-width:4; stroke-opacity:1; fill:none" points="112.177,1276.45 131.075,1276.45 "/>
<polyline clip-path="url(#clip500)" style="stroke:#000000; stroke-linecap:round; stroke-linejoin:round; stroke-width:4; stroke-opacity:1; fill:none" points="112.177,1068.37 131.075,1068.37 "/>
<polyline clip-path="url(#clip500)" style="stroke:#000000; stroke-linecap:round; stroke-linejoin:round; stroke-width:4; stroke-opacity:1; fill:none" points="112.177,860.292 131.075,860.292 "/>
<polyline clip-path="url(#clip500)" style="stroke:#000000; stroke-linecap:round; stroke-linejoin:round; stroke-width:4; stroke-opacity:1; fill:none" points="112.177,652.211 131.075,652.211 "/>
<polyline clip-path="url(#clip500)" style="stroke:#000000; stroke-linecap:round; stroke-linejoin:round; stroke-width:4; stroke-opacity:1; fill:none" points="112.177,444.129 131.075,444.129 "/>
<polyline clip-path="url(#clip500)" style="stroke:#000000; stroke-linecap:round; stroke-linejoin:round; stroke-width:4; stroke-opacity:1; fill:none" points="112.177,236.048 131.075,236.048 "/>
<path clip-path="url(#clip500)" d="M64.2328 1470.33 Q60.6217 1470.33 58.793 1473.9 Q56.9875 1477.44 56.9875 1484.57 Q56.9875 1491.68 58.793 1495.24 Q60.6217 1498.78 64.2328 1498.78 Q67.867 1498.78 69.6726 1495.24 Q71.5013 1491.68 71.5013 1484.57 Q71.5013 1477.44 69.6726 1473.9 Q67.867 1470.33 64.2328 1470.33 M64.2328 1466.63 Q70.0429 1466.63 73.0985 1471.24 Q76.1772 1475.82 76.1772 1484.57 Q76.1772 1493.3 73.0985 1497.9 Q70.0429 1502.49 64.2328 1502.49 Q58.4226 1502.49 55.344 1497.9 Q52.2884 1493.3 52.2884 1484.57 Q52.2884 1475.82 55.344 1471.24 Q58.4226 1466.63 64.2328 1466.63 Z" fill="#000000" fill-rule="nonzero" fill-opacity="1" /><path clip-path="url(#clip500)" d="M56.2699 1289.8 L63.9087 1289.8 L63.9087 1263.43 L55.5986 1265.1 L55.5986 1260.84 L63.8624 1259.17 L68.5383 1259.17 L68.5383 1289.8 L76.1772 1289.8 L76.1772 1293.73 L56.2699 1293.73 L56.2699 1289.8 Z" fill="#000000" fill-rule="nonzero" fill-opacity="1" /><path clip-path="url(#clip500)" d="M59.8578 1081.72 L76.1772 1081.72 L76.1772 1085.65 L54.2328 1085.65 L54.2328 1081.72 Q56.8949 1078.96 61.4782 1074.33 Q66.0846 1069.68 67.2652 1068.34 Q69.5105 1065.81 70.3902 1064.08 Q71.2929 1062.32 71.2929 1060.63 Q71.2929 1057.87 69.3485 1056.14 Q67.4272 1054.4 64.3254 1054.4 Q62.1263 1054.4 59.6726 1055.17 Q57.2421 1055.93 54.4643 1057.48 L54.4643 1052.76 Q57.2884 1051.63 59.7421 1051.05 Q62.1958 1050.47 64.2328 1050.47 Q69.6031 1050.47 72.7976 1053.15 Q75.992 1055.84 75.992 1060.33 Q75.992 1062.46 75.1818 1064.38 Q74.3948 1066.28 72.2883 1068.87 Q71.7096 1069.54 68.6078 1072.76 Q65.5059 1075.95 59.8578 1081.72 Z" fill="#000000" fill-rule="nonzero" fill-opacity="1" /><path clip-path="url(#clip500)" d="M69.0476 858.937 Q72.404 859.655 74.279 861.923 Q76.1772 864.192 76.1772 867.525 Q76.1772 872.641 72.6587 875.442 Q69.1402 878.243 62.6587 878.243 Q60.4828 878.243 58.168 877.803 Q55.8764 877.386 53.4227 876.53 L53.4227 872.016 Q55.3671 873.15 57.6819 873.729 Q59.9967 874.308 62.5198 874.308 Q66.918 874.308 69.2096 872.572 Q71.5244 870.835 71.5244 867.525 Q71.5244 864.47 69.3717 862.757 Q67.242 861.021 63.4226 861.021 L59.3949 861.021 L59.3949 857.178 L63.6078 857.178 Q67.0569 857.178 68.8855 855.812 Q70.7142 854.424 70.7142 851.831 Q70.7142 849.169 68.8161 847.757 Q66.9411 846.322 63.4226 846.322 Q61.5013 846.322 59.3023 846.738 Q57.1032 847.155 54.4643 848.035 L54.4643 843.868 Q57.1264 843.127 59.4412 842.757 Q61.7791 842.387 63.8393 842.387 Q69.1633 842.387 72.2652 844.817 Q75.367 847.225 75.367 851.345 Q75.367 854.215 73.7235 856.206 Q72.08 858.174 69.0476 858.937 Z" fill="#000000" fill-rule="nonzero" fill-opacity="1" /><path clip-path="url(#clip500)" d="M66.5939 639.005 L54.7884 657.454 L66.5939 657.454 L66.5939 639.005 M65.367 634.931 L71.2466 634.931 L71.2466 657.454 L76.1772 657.454 L76.1772 661.342 L71.2466 661.342 L71.2466 669.491 L66.5939 669.491 L66.5939 661.342 L50.9921 661.342 L50.9921 656.829 L65.367 634.931 Z" fill="#000000" fill-rule="nonzero" fill-opacity="1" /><path clip-path="url(#clip500)" d="M55.2745 426.849 L73.6309 426.849 L73.6309 430.785 L59.5569 430.785 L59.5569 439.257 Q60.5754 438.91 61.5939 438.748 Q62.6124 438.562 63.6309 438.562 Q69.418 438.562 72.7976 441.734 Q76.1772 444.905 76.1772 450.322 Q76.1772 455.9 72.705 459.002 Q69.2328 462.081 62.9134 462.081 Q60.7374 462.081 58.4689 461.71 Q56.2236 461.34 53.8162 460.599 L53.8162 455.9 Q55.8995 457.034 58.1217 457.59 Q60.3439 458.146 62.8208 458.146 Q66.8254 458.146 69.1633 456.039 Q71.5013 453.933 71.5013 450.322 Q71.5013 446.71 69.1633 444.604 Q66.8254 442.498 62.8208 442.498 Q60.9458 442.498 59.0708 442.914 Q57.2189 443.331 55.2745 444.21 L55.2745 426.849 Z" fill="#000000" fill-rule="nonzero" fill-opacity="1" /><path clip-path="url(#clip500)" d="M64.6495 234.185 Q61.5013 234.185 59.6495 236.338 Q57.8208 238.491 57.8208 242.241 Q57.8208 245.967 59.6495 248.143 Q61.5013 250.296 64.6495 250.296 Q67.7976 250.296 69.6263 248.143 Q71.4781 245.967 71.4781 242.241 Q71.4781 238.491 69.6263 236.338 Q67.7976 234.185 64.6495 234.185 M73.9318 219.532 L73.9318 223.792 Q72.1726 222.958 70.367 222.518 Q68.5846 222.079 66.8254 222.079 Q62.1958 222.079 59.7421 225.204 Q57.3115 228.329 56.9643 234.648 Q58.33 232.634 60.3902 231.569 Q62.4504 230.481 64.9272 230.481 Q70.1355 230.481 73.1448 233.653 Q76.1772 236.801 76.1772 242.241 Q76.1772 247.565 73.029 250.782 Q69.8809 254 64.6495 254 Q58.6541 254 55.4828 249.416 Q52.3116 244.81 52.3116 236.083 Q52.3116 227.889 56.2004 223.028 Q60.0893 218.143 66.6402 218.143 Q68.3994 218.143 70.1818 218.491 Q71.9874 218.838 73.9318 219.532 Z" fill="#000000" fill-rule="nonzero" fill-opacity="1" /><circle clip-path="url(#clip502)" cx="2289.34" cy="1341.72" r="14.4" fill="#808080" fill-rule="evenodd" fill-opacity="1" stroke="#000000" stroke-opacity="1" stroke-width="3.2"/>
<circle clip-path="url(#clip502)" cx="175.59" cy="87.9763" r="14.4" fill="#808080" fill-rule="evenodd" fill-opacity="1" stroke="#000000" stroke-opacity="1" stroke-width="3.2"/>
<circle clip-path="url(#clip502)" cx="1615.93" cy="1445.72" r="14.4" fill="#808080" fill-rule="evenodd" fill-opacity="1" stroke="#000000" stroke-opacity="1" stroke-width="3.2"/>
<circle clip-path="url(#clip502)" cx="1420.35" cy="1416.18" r="14.4" fill="#808080" fill-rule="evenodd" fill-opacity="1" stroke="#000000" stroke-opacity="1" stroke-width="3.2"/>
<path clip-path="url(#clip500)" d="M2293.64 1349.15 Q2284.6 1349.15 2281.12 1351.22 Q2277.64 1353.28 2277.64 1358.27 Q2277.64 1362.23 2280.23 1364.58 Q2282.86 1366.89 2287.36 1366.89 Q2293.56 1366.89 2297.28 1362.52 Q2301.05 1358.1 2301.05 1350.81 L2301.05 1349.15 L2293.64 1349.15 M2308.5 1346.07 L2308.5 1371.96 L2301.05 1371.96 L2301.05 1365.07 Q2298.5 1369.2 2294.69 1371.19 Q2290.88 1373.13 2285.37 1373.13 Q2278.41 1373.13 2274.27 1369.24 Q2270.18 1365.31 2270.18 1358.75 Q2270.18 1351.09 2275.29 1347.21 Q2280.43 1343.32 2290.6 1343.32 L2301.05 1343.32 L2301.05 1342.59 Q2301.05 1337.44 2297.65 1334.65 Q2294.29 1331.81 2288.17 1331.81 Q2284.28 1331.81 2280.59 1332.74 Q2276.91 1333.68 2273.5 1335.54 L2273.5 1328.65 Q2277.6 1327.07 2281.44 1326.3 Q2285.29 1325.49 2288.94 1325.49 Q2298.78 1325.49 2303.64 1330.6 Q2308.5 1335.7 2308.5 1346.07 Z" fill="#000000" fill-rule="nonzero" fill-opacity="1" /><path clip-path="url(#clip500)" d="M188.148 95.5717 Q188.148 87.3484 184.745 82.6898 Q181.383 77.9908 175.468 77.9908 Q169.554 77.9908 166.151 82.6898 Q162.789 87.3484 162.789 95.5717 Q162.789 103.795 166.151 108.494 Q169.554 113.153 175.468 113.153 Q181.383 113.153 184.745 108.494 Q188.148 103.795 188.148 95.5717 M162.789 79.7327 Q165.138 75.6818 168.703 73.7373 Q172.309 71.7524 177.291 71.7524 Q185.555 71.7524 190.7 78.3149 Q195.885 84.8773 195.885 95.5717 Q195.885 106.266 190.7 112.829 Q185.555 119.391 177.291 119.391 Q172.309 119.391 168.703 117.447 Q165.138 115.462 162.789 111.411 L162.789 118.216 L155.295 118.216 L155.295 55.1842 L162.789 55.1842 L162.789 79.7327 Z" fill="#000000" fill-rule="nonzero" fill-opacity="1" /><path clip-path="url(#clip500)" d="M1633.88 1432.33 L1633.88 1439.3 Q1630.72 1437.55 1627.52 1436.7 Q1624.36 1435.81 1621.12 1435.81 Q1613.87 1435.81 1609.86 1440.43 Q1605.85 1445.01 1605.85 1453.31 Q1605.85 1461.62 1609.86 1466.23 Q1613.87 1470.81 1621.12 1470.81 Q1624.36 1470.81 1627.52 1469.96 Q1630.72 1469.07 1633.88 1467.33 L1633.88 1474.21 Q1630.76 1475.67 1627.4 1476.4 Q1624.08 1477.13 1620.31 1477.13 Q1610.06 1477.13 1604.02 1470.69 Q1597.99 1464.25 1597.99 1453.31 Q1597.99 1442.21 1604.06 1435.85 Q1610.18 1429.49 1620.79 1429.49 Q1624.24 1429.49 1627.52 1430.22 Q1630.8 1430.91 1633.88 1432.33 Z" fill="#000000" fill-rule="nonzero" fill-opacity="1" /><path clip-path="url(#clip500)" d="M1433.17 1407.94 L1433.17 1383.39 L1440.62 1383.39 L1440.62 1446.42 L1433.17 1446.42 L1433.17 1439.62 Q1430.82 1443.67 1427.22 1445.65 Q1423.65 1447.6 1418.63 1447.6 Q1410.41 1447.6 1405.22 1441.03 Q1400.08 1434.47 1400.08 1423.78 Q1400.08 1413.08 1405.22 1406.52 Q1410.41 1399.96 1418.63 1399.96 Q1423.65 1399.96 1427.22 1401.94 Q1430.82 1403.89 1433.17 1407.94 M1407.77 1423.78 Q1407.77 1432 1411.13 1436.7 Q1414.54 1441.36 1420.45 1441.36 Q1426.37 1441.36 1429.77 1436.7 Q1433.17 1432 1433.17 1423.78 Q1433.17 1415.55 1429.77 1410.9 Q1426.37 1406.2 1420.45 1406.2 Q1414.54 1406.2 1411.13 1410.9 Q1407.77 1415.55 1407.77 1423.78 Z" fill="#000000" fill-rule="nonzero" fill-opacity="1" /><path clip-path="url(#clip500)" d="M2001.58 198.898 L2278.07 198.898 L2278.07 95.2176 L2001.58 95.2176  Z" fill="#ffffff" fill-rule="evenodd" fill-opacity="1"/>
<polyline clip-path="url(#clip500)" style="stroke:#000000; stroke-linecap:round; stroke-linejoin:round; stroke-width:4; stroke-opacity:1; fill:none" points="2001.58,198.898 2278.07,198.898 2278.07,95.2176 2001.58,95.2176 2001.58,198.898 "/>
<circle clip-path="url(#clip500)" cx="2101.16" cy="147.058" r="20.48" fill="#808080" fill-rule="evenodd" fill-opacity="1" stroke="#000000" stroke-opacity="1" stroke-width="4.55111"/>
<path clip-path="url(#clip500)" d="M2214.59 166.745 Q2212.78 171.375 2211.07 172.787 Q2209.36 174.199 2206.49 174.199 L2203.08 174.199 L2203.08 170.634 L2205.58 170.634 Q2207.34 170.634 2208.31 169.8 Q2209.29 168.967 2210.47 165.865 L2211.23 163.921 L2200.74 138.412 L2205.26 138.412 L2213.36 158.689 L2221.46 138.412 L2225.98 138.412 L2214.59 166.745 Z" fill="#000000" fill-rule="nonzero" fill-opacity="1" /><path clip-path="url(#clip500)" d="M2233.27 160.402 L2240.91 160.402 L2240.91 134.037 L2232.6 135.703 L2232.6 131.444 L2240.86 129.778 L2245.54 129.778 L2245.54 160.402 L2253.17 160.402 L2253.17 164.338 L2233.27 164.338 L2233.27 160.402 Z" fill="#000000" fill-rule="nonzero" fill-opacity="1" /></svg>
