<?xml version="1.0" encoding="utf-8"?>
<svg xmlns="http://www.w3.org/2000/svg" xmlns:xlink="http://www.w3.org/1999/xlink" width="600" height="400" viewBox="0 0 2400 1600">
<defs>
  <clipPath id="clip420">
    <rect x="0" y="0" width="2400" height="1600"/>
  </clipPath>
</defs>
<path clip-path="url(#clip420)" d="M0 1600 L2400 1600 L2400 0 L0 0  Z" fill="#ffffff" fill-rule="evenodd" fill-opacity="1"/>
<defs>
  <clipPath id="clip421">
    <rect x="480" y="0" width="1681" height="1600"/>
  </clipPath>
</defs>
<path clip-path="url(#clip420)" d="M156.598 1486.45 L2352.76 1486.45 L2352.76 47.2441 L156.598 47.2441  Z" fill="#ffffff" fill-rule="evenodd" fill-opacity="1"/>
<defs>
  <clipPath id="clip422">
    <rect x="156" y="47" width="2197" height="1440"/>
  </clipPath>
</defs>
<polyline clip-path="url(#clip422)" style="stroke:#000000; stroke-linecap:round; stroke-linejoin:round; stroke-width:2; stroke-opacity:0.1; fill:none" points="427.407,1486.45 427.407,47.2441 "/>
<polyline clip-path="url(#clip422)" style="stroke:#000000; stroke-linecap:round; stroke-linejoin:round; stroke-width:2; stroke-opacity:0.1; fill:none" points="916.853,1486.45 916.853,47.2441 "/>
<polyline clip-path="url(#clip422)" style="stroke:#000000; stroke-linecap:round; stroke-linejoin:round; stroke-width:2; stroke-opacity:0.1; fill:none" points="1406.3,1486.45 1406.3,47.2441 "/>
<polyline clip-path="url(#clip422)" style="stroke:#000000; stroke-linecap:round; stroke-linejoin:round; stroke-width:2; stroke-opacity:0.1; fill:none" points="1895.75,1486.45 1895.75,47.2441 "/>
<polyline clip-path="url(#clip420)" style="stroke:#000000; stroke-linecap:round; stroke-linejoin:round; stroke-width:4; stroke-opacity:1; fill:none" points="156.598,1486.45 2352.76,1486.45 "/>
<polyline clip-path="url(#clip420)" style="stroke:#000000; stroke-linecap:round; stroke-linejoin:round; stroke-width:4; stroke-opacity:1; fill:none" points="427.407,1486.45 427.407,1467.55 "/>
<polyline clip-path="url(#clip420)" style="stroke:#000000; stroke-linecap:round; stroke-linejoin:round; stroke-width:4; stroke-opacity:1; fill:none" points="916.853,1486.45 916.853,1467.55 "/>
<polyline clip-path="url(#clip420)" style="stroke:#000000; stroke-linecap:round; stroke-linejoin:round; stroke-width:4; stroke-opacity:1; fill:none" points="1406.3,1486.45 1406.3,1467.55 "/>
<polyline clip-path="url(#clip420)" style="stroke:#000000; stroke-linecap:round; stroke-linejoin:round; stroke-width:4; stroke-opacity:1; fill:none" points="1895.75,1486.45 1895.75,1467.55 "/>
<path clip-path="url(#clip420)" d="M373.692 1532.02 L403.368 1532.02 L403.368 1535.95 L373.692 1535.95 L373.692 1532.02 Z" fill="#000000" fill-rule="nonzero" fill-opacity="1" /><path clip-path="url(#clip420)" d="M423.46 1517.37 Q419.849 1517.37 418.02 1520.93 Q416.215 1524.47 416.215 1531.6 Q416.215 1538.71 418.02 1542.27 Q419.849 1545.82 423.46 1545.82 Q427.094 1545.82 428.9 1542.27 Q430.728 1538.71 430.728 1531.6 Q430.728 1524.47 428.9 1520.93 Q427.094 1517.37 423.46 1517.37 M423.46 1513.66 Q429.27 1513.66 432.326 1518.27 Q435.404 1522.85 435.404 1531.6 Q435.404 1540.33 432.326 1544.94 Q429.27 1549.52 423.46 1549.52 Q417.65 1549.52 414.571 1544.94 Q411.516 1540.33 411.516 1531.6 Q411.516 1522.85 414.571 1518.27 Q417.65 1513.66 423.46 1513.66 Z" fill="#000000" fill-rule="nonzero" fill-opacity="1" /><path clip-path="url(#clip420)" d="M443.622 1542.97 L448.506 1542.97 L448.506 1548.85 L443.622 1548.85 L443.622 1542.97 Z" fill="#000000" fill-rule="nonzero" fill-opacity="1" /><path clip-path="url(#clip420)" d="M471.538 1518.36 L459.733 1536.81 L471.538 1536.81 L471.538 1518.36 M470.312 1514.29 L476.191 1514.29 L476.191 1536.81 L481.122 1536.81 L481.122 1540.7 L476.191 1540.7 L476.191 1548.85 L471.538 1548.85 L471.538 1540.7 L455.937 1540.7 L455.937 1536.19 L470.312 1514.29 Z" fill="#000000" fill-rule="nonzero" fill-opacity="1" /><path clip-path="url(#clip420)" d="M864.18 1532.02 L893.856 1532.02 L893.856 1535.95 L864.18 1535.95 L864.18 1532.02 Z" fill="#000000" fill-rule="nonzero" fill-opacity="1" /><path clip-path="url(#clip420)" d="M913.948 1517.37 Q910.337 1517.37 908.508 1520.93 Q906.703 1524.47 906.703 1531.6 Q906.703 1538.71 908.508 1542.27 Q910.337 1545.82 913.948 1545.82 Q917.582 1545.82 919.388 1542.27 Q921.217 1538.71 921.217 1531.6 Q921.217 1524.47 919.388 1520.93 Q917.582 1517.37 913.948 1517.37 M913.948 1513.66 Q919.758 1513.66 922.814 1518.27 Q925.893 1522.85 925.893 1531.6 Q925.893 1540.33 922.814 1544.94 Q919.758 1549.52 913.948 1549.52 Q908.138 1549.52 905.059 1544.94 Q902.004 1540.33 902.004 1531.6 Q902.004 1522.85 905.059 1518.27 Q908.138 1513.66 913.948 1513.66 Z" fill="#000000" fill-rule="nonzero" fill-opacity="1" /><path clip-path="url(#clip420)" d="M934.11 1542.97 L938.994 1542.97 L938.994 1548.85 L934.11 1548.85 L934.11 1542.97 Z" fill="#000000" fill-rule="nonzero" fill-opacity="1" /><path clip-path="url(#clip420)" d="M953.207 1544.91 L969.527 1544.91 L969.527 1548.85 L947.582 1548.85 L947.582 1544.91 Q950.244 1542.16 954.828 1537.53 Q959.434 1532.88 960.615 1531.53 Q962.86 1529.01 963.74 1527.27 Q964.642 1525.51 964.642 1523.82 Q964.642 1521.07 962.698 1519.33 Q960.777 1517.6 957.675 1517.6 Q955.476 1517.6 953.022 1518.36 Q950.592 1519.13 947.814 1520.68 L947.814 1515.95 Q950.638 1514.82 953.092 1514.24 Q955.545 1513.66 957.582 1513.66 Q962.953 1513.66 966.147 1516.35 Q969.341 1519.03 969.341 1523.52 Q969.341 1525.65 968.531 1527.57 Q967.744 1529.47 965.638 1532.07 Q965.059 1532.74 961.957 1535.95 Q958.855 1539.15 953.207 1544.91 Z" fill="#000000" fill-rule="nonzero" fill-opacity="1" /><path clip-path="url(#clip420)" d="M1383.68 1517.37 Q1380.07 1517.37 1378.24 1520.93 Q1376.44 1524.47 1376.44 1531.6 Q1376.44 1538.71 1378.24 1542.27 Q1380.07 1545.82 1383.68 1545.82 Q1387.32 1545.82 1389.12 1542.27 Q1390.95 1538.71 1390.95 1531.6 Q1390.95 1524.47 1389.12 1520.93 Q1387.32 1517.37 1383.68 1517.37 M1383.68 1513.66 Q1389.49 1513.66 1392.55 1518.27 Q1395.63 1522.85 1395.63 1531.6 Q1395.63 1540.33 1392.55 1544.94 Q1389.49 1549.52 1383.68 1549.52 Q1377.87 1549.52 1374.8 1544.94 Q1371.74 1540.33 1371.74 1531.6 Q1371.74 1522.85 1374.8 1518.27 Q1377.87 1513.66 1383.68 1513.66 Z" fill="#000000" fill-rule="nonzero" fill-opacity="1" /><path clip-path="url(#clip420)" d="M1403.85 1542.97 L1408.73 1542.97 L1408.73 1548.85 L1403.85 1548.85 L1403.85 1542.97 Z" fill="#000000" fill-rule="nonzero" fill-opacity="1" /><path clip-path="url(#clip420)" d="M1428.92 1517.37 Q1425.3 1517.37 1423.48 1520.93 Q1421.67 1524.47 1421.67 1531.6 Q1421.67 1538.71 1423.48 1542.27 Q1425.3 1545.82 1428.92 1545.82 Q1432.55 1545.82 1434.36 1542.27 Q1436.18 1538.71 1436.18 1531.6 Q1436.18 1524.47 1434.36 1520.93 Q1432.55 1517.37 1428.92 1517.37 M1428.92 1513.66 Q1434.73 1513.66 1437.78 1518.27 Q1440.86 1522.85 1440.86 1531.6 Q1440.86 1540.33 1437.78 1544.94 Q1434.73 1549.52 1428.92 1549.52 Q1423.11 1549.52 1420.03 1544.94 Q1416.97 1540.33 1416.97 1531.6 Q1416.97 1522.85 1420.03 1518.27 Q1423.11 1513.66 1428.92 1513.66 Z" fill="#000000" fill-rule="nonzero" fill-opacity="1" /><path clip-path="url(#clip420)" d="M1873.93 1517.37 Q1870.32 1517.37 1868.49 1520.93 Q1866.68 1524.47 1866.68 1531.6 Q1866.68 1538.71 1868.49 1542.27 Q1870.32 1545.82 1873.93 1545.82 Q1877.56 1545.82 1879.37 1542.27 Q1881.2 1538.71 1881.2 1531.6 Q1881.2 1524.47 1879.37 1520.93 Q1877.56 1517.37 1873.93 1517.37 M1873.93 1513.66 Q1879.74 1513.66 1882.8 1518.27 Q1885.87 1522.85 1885.87 1531.6 Q1885.87 1540.33 1882.8 1544.94 Q1879.74 1549.52 1873.93 1549.52 Q1868.12 1549.52 1865.04 1544.94 Q1861.98 1540.33 1861.98 1531.6 Q1861.98 1522.85 1865.04 1518.27 Q1868.12 1513.66 1873.93 1513.66 Z" fill="#000000" fill-rule="nonzero" fill-opacity="1" /><path clip-path="url(#clip420)" d="M1894.09 1542.97 L1898.98 1542.97 L1898.98 1548.85 L1894.09 1548.85 L1894.09 1542.97 Z" fill="#000000" fill-rule="nonzero" fill-opacity="1" /><path clip-path="url(#clip420)" d="M1913.19 1544.91 L1929.51 1544.91 L1929.51 1548.85 L1907.56 1548.85 L1907.56 1544.91 Q1910.23 1542.16 1914.81 1537.53 Q1919.42 1532.88 1920.6 1531.53 Q1922.84 1529.01 1923.72 1527.27 Q1924.62 1525.51 1924.62 1523.82 Q1924.62 1521.07 1922.68 1519.33 Q1920.76 1517.6 1917.66 1517.6 Q1915.46 1517.6 1913 1518.36 Q1910.57 1519.13 1907.79 1520.68 L1907.79 1515.95 Q1910.62 1514.82 1913.07 1514.24 Q1915.53 1513.66 1917.56 1513.66 Q1922.93 1513.66 1926.13 1516.35 Q1929.32 1519.03 1929.32 1523.52 Q1929.32 1525.65 1928.51 1527.57 Q1927.73 1529.47 1925.62 1532.07 Q1925.04 1532.74 1921.94 1535.95 Q1918.84 1539.15 1913.19 1544.91 Z" fill="#000000" fill-rule="nonzero" fill-opacity="1" /><polyline clip-path="url(#clip422)" style="stroke:#000000; stroke-linecap:round; stroke-linejoin:round; stroke-width:2; stroke-opacity:0.1; fill:none" points="156.598,1453.32 2352.76,1453.32 "/>
<polyline clip-path="url(#clip422)" style="stroke:#000000; stroke-linecap:round; stroke-linejoin:round; stroke-width:2; stroke-opacity:0.1; fill:none" points="156.598,1123.09 2352.76,1123.09 "/>
<polyline clip-path="url(#clip422)" style="stroke:#000000; stroke-linecap:round; stroke-linejoin:round; stroke-width:2; stroke-opacity:0.1; fill:none" points="156.598,792.856 2352.76,792.856 "/>
<polyline clip-path="url(#clip422)" style="stroke:#000000; stroke-linecap:round; stroke-linejoin:round; stroke-width:2; stroke-opacity:0.1; fill:none" points="156.598,462.626 2352.76,462.626 "/>
<polyline clip-path="url(#clip422)" style="stroke:#000000; stroke-linecap:round; stroke-linejoin:round; stroke-width:2; stroke-opacity:0.1; fill:none" points="156.598,132.395 2352.76,132.395 "/>
<polyline clip-path="url(#clip420)" style="stroke:#000000; stroke-linecap:round; stroke-linejoin:round; stroke-width:4; stroke-opacity:1; fill:none" points="156.598,1486.45 156.598,47.2441 "/>
<polyline clip-path="url(#clip420)" style="stroke:#000000; stroke-linecap:round; stroke-linejoin:round; stroke-width:4; stroke-opacity:1; fill:none" points="156.598,1453.32 175.496,1453.32 "/>
<polyline clip-path="url(#clip420)" style="stroke:#000000; stroke-linecap:round; stroke-linejoin:round; stroke-width:4; stroke-opacity:1; fill:none" points="156.598,1123.09 175.496,1123.09 "/>
<polyline clip-path="url(#clip420)" style="stroke:#000000; stroke-linecap:round; stroke-linejoin:round; stroke-width:4; stroke-opacity:1; fill:none" points="156.598,792.856 175.496,792.856 "/>
<polyline clip-path="url(#clip420)" style="stroke:#000000; stroke-linecap:round; stroke-linejoin:round; stroke-width:4; stroke-opacity:1; fill:none" points="156.598,462.626 175.496,462.626 "/>
<polyline clip-path="url(#clip420)" style="stroke:#000000; stroke-linecap:round; stroke-linejoin:round; stroke-width:4; stroke-opacity:1; fill:none" points="156.598,132.395 175.496,132.395 "/>
<path clip-path="url(#clip420)" d="M63.4226 1439.12 Q59.8115 1439.12 57.9828 1442.68 Q56.1773 1446.22 56.1773 1453.35 Q56.1773 1460.46 57.9828 1464.02 Q59.8115 1467.56 63.4226 1467.56 Q67.0569 1467.56 68.8624 1464.02 Q70.6911 1460.46 70.6911 1453.35 Q70.6911 1446.22 68.8624 1442.68 Q67.0569 1439.12 63.4226 1439.12 M63.4226 1435.41 Q69.2328 1435.41 72.2883 1440.02 Q75.367 1444.6 75.367 1453.35 Q75.367 1462.08 72.2883 1466.68 Q69.2328 1471.27 63.4226 1471.27 Q57.6125 1471.27 54.5338 1466.68 Q51.4782 1462.08 51.4782 1453.35 Q51.4782 1444.6 54.5338 1440.02 Q57.6125 1435.41 63.4226 1435.41 Z" fill="#000000" fill-rule="nonzero" fill-opacity="1" /><path clip-path="url(#clip420)" d="M83.5845 1464.72 L88.4688 1464.72 L88.4688 1470.6 L83.5845 1470.6 L83.5845 1464.72 Z" fill="#000000" fill-rule="nonzero" fill-opacity="1" /><path clip-path="url(#clip420)" d="M108.654 1439.12 Q105.043 1439.12 103.214 1442.68 Q101.409 1446.22 101.409 1453.35 Q101.409 1460.46 103.214 1464.02 Q105.043 1467.56 108.654 1467.56 Q112.288 1467.56 114.094 1464.02 Q115.922 1460.46 115.922 1453.35 Q115.922 1446.22 114.094 1442.68 Q112.288 1439.12 108.654 1439.12 M108.654 1435.41 Q114.464 1435.41 117.52 1440.02 Q120.598 1444.6 120.598 1453.35 Q120.598 1462.08 117.52 1466.68 Q114.464 1471.27 108.654 1471.27 Q102.844 1471.27 99.765 1466.68 Q96.7095 1462.08 96.7095 1453.35 Q96.7095 1444.6 99.765 1440.02 Q102.844 1435.41 108.654 1435.41 Z" fill="#000000" fill-rule="nonzero" fill-opacity="1" /><path clip-path="url(#clip420)" d="M64.6495 1108.89 Q61.0384 1108.89 59.2097 1112.45 Q57.4041 1115.99 57.4041 1123.12 Q57.4041 1130.23 59.2097 1133.79 Q61.0384 1137.33 64.6495 1137.33 Q68.2837 1137.33 70.0892 1133.79 Q71.9179 1130.23 71.9179 1123.12 Q71.9179 1115.99 70.0892 1112.45 Q68.2837 1108.89 64.6495 1108.89 M64.6495 1105.18 Q70.4596 1105.18 73.5152 1109.79 Q76.5938 1114.37 76.5938 1123.12 Q76.5938 1131.85 73.5152 1136.45 Q70.4596 1141.04 64.6495 1141.04 Q58.8393 1141.04 55.7606 1136.45 Q52.7051 1131.85 52.7051 1123.12 Q52.7051 1114.37 55.7606 1109.79 Q58.8393 1105.18 64.6495 1105.18 Z" fill="#000000" fill-rule="nonzero" fill-opacity="1" /><path clip-path="url(#clip420)" d="M84.8114 1134.49 L89.6956 1134.49 L89.6956 1140.37 L84.8114 1140.37 L84.8114 1134.49 Z" fill="#000000" fill-rule="nonzero" fill-opacity="1" /><path clip-path="url(#clip420)" d="M100.691 1136.43 L108.33 1136.43 L108.33 1110.07 L100.02 1111.73 L100.02 1107.47 L108.283 1105.81 L112.959 1105.81 L112.959 1136.43 L120.598 1136.43 L120.598 1140.37 L100.691 1140.37 L100.691 1136.43 Z" fill="#000000" fill-rule="nonzero" fill-opacity="1" /><path clip-path="url(#clip420)" d="M65.0198 778.655 Q61.4087 778.655 59.58 782.22 Q57.7745 785.761 57.7745 792.891 Q57.7745 799.997 59.58 803.562 Q61.4087 807.104 65.0198 807.104 Q68.6541 807.104 70.4596 803.562 Q72.2883 799.997 72.2883 792.891 Q72.2883 785.761 70.4596 782.22 Q68.6541 778.655 65.0198 778.655 M65.0198 774.951 Q70.83 774.951 73.8855 779.558 Q76.9642 784.141 76.9642 792.891 Q76.9642 801.618 73.8855 806.224 Q70.83 810.807 65.0198 810.807 Q59.2097 810.807 56.131 806.224 Q53.0754 801.618 53.0754 792.891 Q53.0754 784.141 56.131 779.558 Q59.2097 774.951 65.0198 774.951 Z" fill="#000000" fill-rule="nonzero" fill-opacity="1" /><path clip-path="url(#clip420)" d="M85.1818 804.257 L90.066 804.257 L90.066 810.136 L85.1818 810.136 L85.1818 804.257 Z" fill="#000000" fill-rule="nonzero" fill-opacity="1" /><path clip-path="url(#clip420)" d="M104.279 806.201 L120.598 806.201 L120.598 810.136 L98.6539 810.136 L98.6539 806.201 Q101.316 803.446 105.899 798.817 Q110.506 794.164 111.686 792.821 Q113.932 790.298 114.811 788.562 Q115.714 786.803 115.714 785.113 Q115.714 782.358 113.77 780.622 Q111.848 778.886 108.746 778.886 Q106.547 778.886 104.094 779.65 Q101.663 780.414 98.8854 781.965 L98.8854 777.243 Q101.709 776.109 104.163 775.53 Q106.617 774.951 108.654 774.951 Q114.024 774.951 117.219 777.636 Q120.413 780.321 120.413 784.812 Q120.413 786.942 119.603 788.863 Q118.816 790.761 116.709 793.354 Q116.131 794.025 113.029 797.243 Q109.927 800.437 104.279 806.201 Z" fill="#000000" fill-rule="nonzero" fill-opacity="1" /><path clip-path="url(#clip420)" d="M64.0708 448.424 Q60.4597 448.424 58.631 451.989 Q56.8254 455.531 56.8254 462.661 Q56.8254 469.767 58.631 473.332 Q60.4597 476.873 64.0708 476.873 Q67.705 476.873 69.5105 473.332 Q71.3392 469.767 71.3392 462.661 Q71.3392 455.531 69.5105 451.989 Q67.705 448.424 64.0708 448.424 M64.0708 444.721 Q69.8809 444.721 72.9365 449.327 Q76.0151 453.911 76.0151 462.661 Q76.0151 471.387 72.9365 475.994 Q69.8809 480.577 64.0708 480.577 Q58.2606 480.577 55.1819 475.994 Q52.1264 471.387 52.1264 462.661 Q52.1264 453.911 55.1819 449.327 Q58.2606 444.721 64.0708 444.721 Z" fill="#000000" fill-rule="nonzero" fill-opacity="1" /><path clip-path="url(#clip420)" d="M84.2327 474.026 L89.1169 474.026 L89.1169 479.906 L84.2327 479.906 L84.2327 474.026 Z" fill="#000000" fill-rule="nonzero" fill-opacity="1" /><path clip-path="url(#clip420)" d="M113.469 461.272 Q116.825 461.989 118.7 464.258 Q120.598 466.526 120.598 469.86 Q120.598 474.975 117.08 477.776 Q113.561 480.577 107.08 480.577 Q104.904 480.577 102.589 480.137 Q100.297 479.721 97.8437 478.864 L97.8437 474.35 Q99.7882 475.485 102.103 476.063 Q104.418 476.642 106.941 476.642 Q111.339 476.642 113.631 474.906 Q115.945 473.17 115.945 469.86 Q115.945 466.804 113.793 465.091 Q111.663 463.355 107.844 463.355 L103.816 463.355 L103.816 459.512 L108.029 459.512 Q111.478 459.512 113.307 458.147 Q115.135 456.758 115.135 454.165 Q115.135 451.503 113.237 450.091 Q111.362 448.656 107.844 448.656 Q105.922 448.656 103.723 449.073 Q101.524 449.489 98.8854 450.369 L98.8854 446.202 Q101.547 445.462 103.862 445.091 Q106.2 444.721 108.26 444.721 Q113.584 444.721 116.686 447.151 Q119.788 449.559 119.788 453.679 Q119.788 456.549 118.145 458.54 Q116.501 460.508 113.469 461.272 Z" fill="#000000" fill-rule="nonzero" fill-opacity="1" /><path clip-path="url(#clip420)" d="M62.9365 118.194 Q59.3254 118.194 57.4967 121.759 Q55.6912 125.301 55.6912 132.43 Q55.6912 139.537 57.4967 143.101 Q59.3254 146.643 62.9365 146.643 Q66.5707 146.643 68.3763 143.101 Q70.205 139.537 70.205 132.43 Q70.205 125.301 68.3763 121.759 Q66.5707 118.194 62.9365 118.194 M62.9365 114.49 Q68.7467 114.49 71.8022 119.097 Q74.8809 123.68 74.8809 132.43 Q74.8809 141.157 71.8022 145.763 Q68.7467 150.347 62.9365 150.347 Q57.1264 150.347 54.0477 145.763 Q50.9921 141.157 50.9921 132.43 Q50.9921 123.68 54.0477 119.097 Q57.1264 114.49 62.9365 114.49 Z" fill="#000000" fill-rule="nonzero" fill-opacity="1" /><path clip-path="url(#clip420)" d="M83.0984 143.796 L87.9827 143.796 L87.9827 149.675 L83.0984 149.675 L83.0984 143.796 Z" fill="#000000" fill-rule="nonzero" fill-opacity="1" /><path clip-path="url(#clip420)" d="M111.015 119.19 L99.2095 137.639 L111.015 137.639 L111.015 119.19 M109.788 115.115 L115.668 115.115 L115.668 137.639 L120.598 137.639 L120.598 141.527 L115.668 141.527 L115.668 149.675 L111.015 149.675 L111.015 141.527 L95.4132 141.527 L95.4132 137.014 L109.788 115.115 Z" fill="#000000" fill-rule="nonzero" fill-opacity="1" /><circle clip-path="url(#clip422)" cx="1525.84" cy="1171.42" r="14.4" fill="#808080" fill-rule="evenodd" fill-opacity="1" stroke="#000000" stroke-opacity="1" stroke-width="3.2"/>
<circle clip-path="url(#clip422)" cx="1362.31" cy="1445.72" r="14.4" fill="#808080" fill-rule="evenodd" fill-opacity="1" stroke="#000000" stroke-opacity="1" stroke-width="3.2"/>
<circle clip-path="url(#clip422)" cx="2290.6" cy="1293.03" r="14.4" fill="#808080" fill-rule="evenodd" fill-opacity="1" stroke="#000000" stroke-opacity="1" stroke-width="3.2"/>
<circle clip-path="url(#clip422)" cx="218.754" cy="87.9763" r="14.4" fill="#808080" fill-rule="evenodd" fill-opacity="1" stroke="#000000" stroke-opacity="1" stroke-width="3.2"/>
<path clip-path="url(#clip420)" d="M1530.14 1178.85 Q1521.1 1178.85 1517.62 1180.92 Q1514.13 1182.99 1514.13 1187.97 Q1514.13 1191.94 1516.73 1194.29 Q1519.36 1196.6 1523.86 1196.6 Q1530.05 1196.6 1533.78 1192.22 Q1537.55 1187.81 1537.55 1180.51 L1537.55 1178.85 L1530.14 1178.85 M1545 1175.78 L1545 1201.66 L1537.55 1201.66 L1537.55 1194.77 Q1535 1198.91 1531.19 1200.89 Q1527.38 1202.84 1521.87 1202.84 Q1514.9 1202.84 1510.77 1198.95 Q1506.68 1195.02 1506.68 1188.45 Q1506.68 1180.8 1511.78 1176.91 Q1516.93 1173.02 1527.1 1173.02 L1537.55 1173.02 L1537.55 1172.29 Q1537.55 1167.15 1534.15 1164.35 Q1530.78 1161.52 1524.67 1161.52 Q1520.78 1161.52 1517.09 1162.45 Q1513.41 1163.38 1510 1165.24 L1510 1158.36 Q1514.09 1156.78 1517.94 1156.01 Q1521.79 1155.2 1525.44 1155.2 Q1535.28 1155.2 1540.14 1160.3 Q1545 1165.4 1545 1175.78 Z" fill="#000000" fill-rule="nonzero" fill-opacity="1" /><path clip-path="url(#clip420)" d="M1374.86 1453.31 Q1374.86 1445.09 1371.46 1440.43 Q1368.1 1435.73 1362.18 1435.73 Q1356.27 1435.73 1352.87 1440.43 Q1349.5 1445.09 1349.5 1453.31 Q1349.5 1461.53 1352.87 1466.23 Q1356.27 1470.89 1362.18 1470.89 Q1368.1 1470.89 1371.46 1466.23 Q1374.86 1461.53 1374.86 1453.31 M1349.5 1437.47 Q1351.85 1433.42 1355.42 1431.48 Q1359.02 1429.49 1364.01 1429.49 Q1372.27 1429.49 1377.42 1436.05 Q1382.6 1442.62 1382.6 1453.31 Q1382.6 1464.01 1377.42 1470.57 Q1372.27 1477.13 1364.01 1477.13 Q1359.02 1477.13 1355.42 1475.19 Q1351.85 1473.2 1349.5 1469.15 L1349.5 1475.96 L1342.01 1475.96 L1342.01 1412.92 L1349.5 1412.92 L1349.5 1437.47 Z" fill="#000000" fill-rule="nonzero" fill-opacity="1" /><path clip-path="url(#clip420)" d="M2308.55 1279.64 L2308.55 1286.61 Q2305.39 1284.87 2302.19 1284.02 Q2299.03 1283.13 2295.79 1283.13 Q2288.53 1283.13 2284.52 1287.74 Q2280.51 1292.32 2280.51 1300.63 Q2280.51 1308.93 2284.52 1313.55 Q2288.53 1318.13 2295.79 1318.13 Q2299.03 1318.13 2302.19 1317.28 Q2305.39 1316.38 2308.55 1314.64 L2308.55 1321.53 Q2305.43 1322.99 2302.06 1323.72 Q2298.74 1324.45 2294.98 1324.45 Q2284.73 1324.45 2278.69 1318.01 Q2272.65 1311.56 2272.65 1300.63 Q2272.65 1289.53 2278.73 1283.17 Q2284.85 1276.81 2295.46 1276.81 Q2298.9 1276.81 2302.19 1277.54 Q2305.47 1278.23 2308.55 1279.64 Z" fill="#000000" fill-rule="nonzero" fill-opacity="1" /><path clip-path="url(#clip420)" d="M231.575 79.7327 L231.575 55.1842 L239.028 55.1842 L239.028 118.216 L231.575 118.216 L231.575 111.411 Q229.225 115.462 225.62 117.447 Q222.055 119.391 217.032 119.391 Q208.809 119.391 203.624 112.829 Q198.479 106.266 198.479 95.5717 Q198.479 84.8773 203.624 78.3149 Q208.809 71.7524 217.032 71.7524 Q222.055 71.7524 225.62 73.7373 Q229.225 75.6818 231.575 79.7327 M206.176 95.5717 Q206.176 103.795 209.538 108.494 Q212.941 113.153 218.855 113.153 Q224.769 113.153 228.172 108.494 Q231.575 103.795 231.575 95.5717 Q231.575 87.3484 228.172 82.6898 Q224.769 77.9908 218.855 77.9908 Q212.941 77.9908 209.538 82.6898 Q206.176 87.3484 206.176 95.5717 Z" fill="#000000" fill-rule="nonzero" fill-opacity="1" /><path clip-path="url(#clip420)" d="M2007.5 198.898 L2279.55 198.898 L2279.55 95.2176 L2007.5 95.2176  Z" fill="#ffffff" fill-rule="evenodd" fill-opacity="1"/>
<polyline clip-path="url(#clip420)" style="stroke:#000000; stroke-linecap:round; stroke-linejoin:round; stroke-width:4; stroke-opacity:1; fill:none" points="2007.5,198.898 2279.55,198.898 2279.55,95.2176 2007.5,95.2176 2007.5,198.898 "/>
<circle clip-path="url(#clip420)" cx="2105.11" cy="147.058" r="20.48" fill="#808080" fill-rule="evenodd" fill-opacity="1" stroke="#000000" stroke-opacity="1" stroke-width="4.55111"/>
<path clip-path="url(#clip420)" d="M2216.56 166.745 Q2214.76 171.375 2213.04 172.787 Q2211.33 174.199 2208.46 174.199 L2205.06 174.199 L2205.06 170.634 L2207.56 170.634 Q2209.32 170.634 2210.29 169.8 Q2211.26 168.967 2212.44 165.865 L2213.2 163.921 L2202.72 138.412 L2207.23 138.412 L2215.33 158.689 L2223.44 138.412 L2227.95 138.412 L2216.56 166.745 Z" fill="#000000" fill-rule="nonzero" fill-opacity="1" /><path clip-path="url(#clip420)" d="M2235.24 160.402 L2242.88 160.402 L2242.88 134.037 L2234.57 135.703 L2234.57 131.444 L2242.83 129.778 L2247.51 129.778 L2247.51 160.402 L2255.15 160.402 L2255.15 164.338 L2235.24 164.338 L2235.24 160.402 Z" fill="#000000" fill-rule="nonzero" fill-opacity="1" /></svg>
