<?xml version="1.0" encoding="utf-8"?>
<svg xmlns="http://www.w3.org/2000/svg" xmlns:xlink="http://www.w3.org/1999/xlink" width="600" height="400" viewBox="0 0 2400 1600">
<defs>
  <clipPath id="clip790">
    <rect x="0" y="0" width="2400" height="1600"/>
  </clipPath>
</defs>
<path clip-path="url(#clip790)" d="M0 1600 L2400 1600 L2400 0 L0 0  Z" fill="#ffffff" fill-rule="evenodd" fill-opacity="1"/>
<defs>
  <clipPath id="clip791">
    <rect x="480" y="0" width="1681" height="1600"/>
  </clipPath>
</defs>
<path clip-path="url(#clip790)" d="M112.177 1486.45 L2352.76 1486.45 L2352.76 47.2441 L112.177 47.2441  Z" fill="#ffffff" fill-rule="evenodd" fill-opacity="1"/>
<defs>
  <clipPath id="clip792">
    <rect x="112" y="47" width="2242" height="1440"/>
  </clipPath>
</defs>
<polyline clip-path="url(#clip792)" style="stroke:#000000; stroke-linecap:round; stroke-linejoin:round; stroke-width:2; stroke-opacity:0.1; fill:none" points="178.584,1486.45 178.584,47.2441 "/>
<polyline clip-path="url(#clip792)" style="stroke:#000000; stroke-linecap:round; stroke-linejoin:round; stroke-width:2; stroke-opacity:0.1; fill:none" points="645.778,1486.45 645.778,47.2441 "/>
<polyline clip-path="url(#clip792)" style="stroke:#000000; stroke-linecap:round; stroke-linejoin:round; stroke-width:2; stroke-opacity:0.1; fill:none" points="1112.97,1486.45 1112.97,47.2441 "/>
<polyline clip-path="url(#clip792)" style="stroke:#000000; stroke-linecap:round; stroke-linejoin:round; stroke-width:2; stroke-opacity:0.1; fill:none" points="1580.17,1486.45 1580.17,47.2441 "/>
<polyline clip-path="url(#clip792)" style="stroke:#000000; stroke-linecap:round; stroke-linejoin:round; stroke-width:2; stroke-opacity:0.1; fill:none" points="2047.36,1486.45 2047.36,47.2441 "/>
<polyline clip-path="url(#clip790)" style="stroke:#000000; stroke-linecap:round; stroke-linejoin:round; stroke-width:4; stroke-opacity:1; fill:none" points="112.177,1486.45 2352.76,1486.45 "/>
<polyline clip-path="url(#clip790)" style="stroke:#000000; stroke-linecap:round; stroke-linejoin:round; stroke-width:4; stroke-opacity:1; fill:none" points="178.584,1486.45 178.584,1467.55 "/>
<polyline clip-path="url(#clip790)" style="stroke:#000000; stroke-linecap:round; stroke-linejoin:round; stroke-width:4; stroke-opacity:1; fill:none" points="645.778,1486.45 645.778,1467.55 "/>
<polyline clip-path="url(#clip790)" style="stroke:#000000; stroke-linecap:round; stroke-linejoin:round; stroke-width:4; stroke-opacity:1; fill:none" points="1112.97,1486.45 1112.97,1467.55 "/>
<polyline clip-path="url(#clip790)" style="stroke:#000000; stroke-linecap:round; stroke-linejoin:round; stroke-width:4; stroke-opacity:1; fill:none" points="1580.17,1486.45 1580.17,1467.55 "/>
<polyline clip-path="url(#clip790)" style="stroke:#000000; stroke-linecap:round; stroke-linejoin:round; stroke-width:4; stroke-opacity:1; fill:none" points="2047.36,1486.45 2047.36,1467.55 "/>
<path clip-path="url(#clip790)" d="M125.609 1532.02 L155.285 1532.02 L155.285 1535.95 L125.609 1535.95 L125.609 1532.02 Z" fill="#000000" fill-rule="nonzero" fill-opacity="1" /><path clip-path="url(#clip790)" d="M166.188 1544.91 L173.827 1544.91 L173.827 1518.55 L165.517 1520.21 L165.517 1515.95 L173.78 1514.29 L178.456 1514.29 L178.456 1544.91 L186.095 1544.91 L186.095 1548.85 L166.188 1548.85 L166.188 1544.91 Z" fill="#000000" fill-rule="nonzero" fill-opacity="1" /><path clip-path="url(#clip790)" d="M195.54 1542.97 L200.424 1542.97 L200.424 1548.85 L195.54 1548.85 L195.54 1542.97 Z" fill="#000000" fill-rule="nonzero" fill-opacity="1" /><path clip-path="url(#clip790)" d="M210.655 1514.29 L229.012 1514.29 L229.012 1518.22 L214.938 1518.22 L214.938 1526.7 Q215.956 1526.35 216.975 1526.19 Q217.993 1526 219.012 1526 Q224.799 1526 228.178 1529.17 Q231.558 1532.34 231.558 1537.76 Q231.558 1543.34 228.086 1546.44 Q224.614 1549.52 218.294 1549.52 Q216.118 1549.52 213.85 1549.15 Q211.604 1548.78 209.197 1548.04 L209.197 1543.34 Q211.28 1544.47 213.502 1545.03 Q215.725 1545.58 218.202 1545.58 Q222.206 1545.58 224.544 1543.48 Q226.882 1541.37 226.882 1537.76 Q226.882 1534.15 224.544 1532.04 Q222.206 1529.94 218.202 1529.94 Q216.327 1529.94 214.452 1530.35 Q212.6 1530.77 210.655 1531.65 L210.655 1514.29 Z" fill="#000000" fill-rule="nonzero" fill-opacity="1" /><path clip-path="url(#clip790)" d="M592.306 1532.02 L621.982 1532.02 L621.982 1535.95 L592.306 1535.95 L592.306 1532.02 Z" fill="#000000" fill-rule="nonzero" fill-opacity="1" /><path clip-path="url(#clip790)" d="M632.884 1544.91 L640.523 1544.91 L640.523 1518.55 L632.213 1520.21 L632.213 1515.95 L640.477 1514.29 L645.153 1514.29 L645.153 1544.91 L652.792 1544.91 L652.792 1548.85 L632.884 1548.85 L632.884 1544.91 Z" fill="#000000" fill-rule="nonzero" fill-opacity="1" /><path clip-path="url(#clip790)" d="M662.236 1542.97 L667.12 1542.97 L667.12 1548.85 L662.236 1548.85 L662.236 1542.97 Z" fill="#000000" fill-rule="nonzero" fill-opacity="1" /><path clip-path="url(#clip790)" d="M687.305 1517.37 Q683.694 1517.37 681.865 1520.93 Q680.06 1524.47 680.06 1531.6 Q680.06 1538.71 681.865 1542.27 Q683.694 1545.82 687.305 1545.82 Q690.94 1545.82 692.745 1542.27 Q694.574 1538.71 694.574 1531.6 Q694.574 1524.47 692.745 1520.93 Q690.94 1517.37 687.305 1517.37 M687.305 1513.66 Q693.115 1513.66 696.171 1518.27 Q699.25 1522.85 699.25 1531.6 Q699.25 1540.33 696.171 1544.94 Q693.115 1549.52 687.305 1549.52 Q681.495 1549.52 678.416 1544.94 Q675.361 1540.33 675.361 1531.6 Q675.361 1522.85 678.416 1518.27 Q681.495 1513.66 687.305 1513.66 Z" fill="#000000" fill-rule="nonzero" fill-opacity="1" /><path clip-path="url(#clip790)" d="M1060 1532.02 L1089.67 1532.02 L1089.67 1535.95 L1060 1535.95 L1060 1532.02 Z" fill="#000000" fill-rule="nonzero" fill-opacity="1" /><path clip-path="url(#clip790)" d="M1109.77 1517.37 Q1106.15 1517.37 1104.33 1520.93 Q1102.52 1524.47 1102.52 1531.6 Q1102.52 1538.71 1104.33 1542.27 Q1106.15 1545.82 1109.77 1545.82 Q1113.4 1545.82 1115.21 1542.27 Q1117.03 1538.71 1117.03 1531.6 Q1117.03 1524.47 1115.21 1520.93 Q1113.4 1517.37 1109.77 1517.37 M1109.77 1513.66 Q1115.58 1513.66 1118.63 1518.27 Q1121.71 1522.85 1121.71 1531.6 Q1121.71 1540.33 1118.63 1544.94 Q1115.58 1549.52 1109.77 1549.52 Q1103.96 1549.52 1100.88 1544.94 Q1097.82 1540.33 1097.82 1531.6 Q1097.82 1522.85 1100.88 1518.27 Q1103.96 1513.66 1109.77 1513.66 Z" fill="#000000" fill-rule="nonzero" fill-opacity="1" /><path clip-path="url(#clip790)" d="M1129.93 1542.97 L1134.81 1542.97 L1134.81 1548.85 L1129.93 1548.85 L1129.93 1542.97 Z" fill="#000000" fill-rule="nonzero" fill-opacity="1" /><path clip-path="url(#clip790)" d="M1145.04 1514.29 L1163.4 1514.29 L1163.4 1518.22 L1149.33 1518.22 L1149.33 1526.7 Q1150.34 1526.35 1151.36 1526.19 Q1152.38 1526 1153.4 1526 Q1159.19 1526 1162.57 1529.17 Q1165.95 1532.34 1165.95 1537.76 Q1165.95 1543.34 1162.47 1546.44 Q1159 1549.52 1152.68 1549.52 Q1150.51 1549.52 1148.24 1549.15 Q1145.99 1548.78 1143.59 1548.04 L1143.59 1543.34 Q1145.67 1544.47 1147.89 1545.03 Q1150.11 1545.58 1152.59 1545.58 Q1156.59 1545.58 1158.93 1543.48 Q1161.27 1541.37 1161.27 1537.76 Q1161.27 1534.15 1158.93 1532.04 Q1156.59 1529.94 1152.59 1529.94 Q1150.71 1529.94 1148.84 1530.35 Q1146.99 1530.77 1145.04 1531.65 L1145.04 1514.29 Z" fill="#000000" fill-rule="nonzero" fill-opacity="1" /><path clip-path="url(#clip790)" d="M1557.55 1517.37 Q1553.94 1517.37 1552.11 1520.93 Q1550.3 1524.47 1550.3 1531.6 Q1550.3 1538.71 1552.11 1542.27 Q1553.94 1545.82 1557.55 1545.82 Q1561.18 1545.82 1562.99 1542.27 Q1564.82 1538.71 1564.82 1531.6 Q1564.82 1524.47 1562.99 1520.93 Q1561.18 1517.37 1557.55 1517.37 M1557.55 1513.66 Q1563.36 1513.66 1566.42 1518.27 Q1569.49 1522.85 1569.49 1531.6 Q1569.49 1540.33 1566.42 1544.94 Q1563.36 1549.52 1557.55 1549.52 Q1551.74 1549.52 1548.66 1544.94 Q1545.61 1540.33 1545.61 1531.6 Q1545.61 1522.85 1548.66 1518.27 Q1551.74 1513.66 1557.55 1513.66 Z" fill="#000000" fill-rule="nonzero" fill-opacity="1" /><path clip-path="url(#clip790)" d="M1577.71 1542.97 L1582.6 1542.97 L1582.6 1548.85 L1577.71 1548.85 L1577.71 1542.97 Z" fill="#000000" fill-rule="nonzero" fill-opacity="1" /><path clip-path="url(#clip790)" d="M1602.78 1517.37 Q1599.17 1517.37 1597.34 1520.93 Q1595.54 1524.47 1595.54 1531.6 Q1595.54 1538.71 1597.34 1542.27 Q1599.17 1545.82 1602.78 1545.82 Q1606.42 1545.82 1608.22 1542.27 Q1610.05 1538.71 1610.05 1531.6 Q1610.05 1524.47 1608.22 1520.93 Q1606.42 1517.37 1602.78 1517.37 M1602.78 1513.66 Q1608.59 1513.66 1611.65 1518.27 Q1614.73 1522.85 1614.73 1531.6 Q1614.73 1540.33 1611.65 1544.94 Q1608.59 1549.52 1602.78 1549.52 Q1596.97 1549.52 1593.89 1544.94 Q1590.84 1540.33 1590.84 1531.6 Q1590.84 1522.85 1593.89 1518.27 Q1596.97 1513.66 1602.78 1513.66 Z" fill="#000000" fill-rule="nonzero" fill-opacity="1" /><path clip-path="url(#clip790)" d="M2025.24 1517.37 Q2021.63 1517.37 2019.8 1520.93 Q2018 1524.47 2018 1531.6 Q2018 1538.71 2019.8 1542.27 Q2021.63 1545.82 2025.24 1545.82 Q2028.88 1545.82 2030.68 1542.27 Q2032.51 1538.71 2032.51 1531.6 Q2032.51 1524.47 2030.68 1520.93 Q2028.88 1517.37 2025.24 1517.37 M2025.24 1513.66 Q2031.05 1513.66 2034.11 1518.27 Q2037.19 1522.85 2037.19 1531.6 Q2037.19 1540.33 2034.11 1544.94 Q2031.05 1549.52 2025.24 1549.52 Q2019.43 1549.52 2016.35 1544.94 Q2013.3 1540.33 2013.3 1531.6 Q2013.3 1522.85 2016.35 1518.27 Q2019.43 1513.66 2025.24 1513.66 Z" fill="#000000" fill-rule="nonzero" fill-opacity="1" /><path clip-path="url(#clip790)" d="M2045.4 1542.97 L2050.29 1542.97 L2050.29 1548.85 L2045.4 1548.85 L2045.4 1542.97 Z" fill="#000000" fill-rule="nonzero" fill-opacity="1" /><path clip-path="url(#clip790)" d="M2060.52 1514.29 L2078.88 1514.29 L2078.88 1518.22 L2064.8 1518.22 L2064.8 1526.7 Q2065.82 1526.35 2066.84 1526.19 Q2067.86 1526 2068.88 1526 Q2074.66 1526 2078.04 1529.17 Q2081.42 1532.34 2081.42 1537.76 Q2081.42 1543.34 2077.95 1546.44 Q2074.48 1549.52 2068.16 1549.52 Q2065.98 1549.52 2063.71 1549.15 Q2061.47 1548.78 2059.06 1548.04 L2059.06 1543.34 Q2061.14 1544.47 2063.37 1545.03 Q2065.59 1545.58 2068.07 1545.58 Q2072.07 1545.58 2074.41 1543.48 Q2076.75 1541.37 2076.75 1537.76 Q2076.75 1534.15 2074.41 1532.04 Q2072.07 1529.94 2068.07 1529.94 Q2066.19 1529.94 2064.32 1530.35 Q2062.46 1530.77 2060.52 1531.65 L2060.52 1514.29 Z" fill="#000000" fill-rule="nonzero" fill-opacity="1" /><polyline clip-path="url(#clip792)" style="stroke:#000000; stroke-linecap:round; stroke-linejoin:round; stroke-width:2; stroke-opacity:0.1; fill:none" points="112.177,1234.14 2352.76,1234.14 "/>
<polyline clip-path="url(#clip792)" style="stroke:#000000; stroke-linecap:round; stroke-linejoin:round; stroke-width:2; stroke-opacity:0.1; fill:none" points="112.177,975.449 2352.76,975.449 "/>
<polyline clip-path="url(#clip792)" style="stroke:#000000; stroke-linecap:round; stroke-linejoin:round; stroke-width:2; stroke-opacity:0.1; fill:none" points="112.177,716.754 2352.76,716.754 "/>
<polyline clip-path="url(#clip792)" style="stroke:#000000; stroke-linecap:round; stroke-linejoin:round; stroke-width:2; stroke-opacity:0.1; fill:none" points="112.177,458.059 2352.76,458.059 "/>
<polyline clip-path="url(#clip792)" style="stroke:#000000; stroke-linecap:round; stroke-linejoin:round; stroke-width:2; stroke-opacity:0.1; fill:none" points="112.177,199.364 2352.76,199.364 "/>
<polyline clip-path="url(#clip790)" style="stroke:#000000; stroke-linecap:round; stroke-linejoin:round; stroke-width:4; stroke-opacity:1; fill:none" points="112.177,1486.45 112.177,47.2441 "/>
<polyline clip-path="url(#clip790)" style="stroke:#000000; stroke-linecap:round; stroke-linejoin:round; stroke-width:4; stroke-opacity:1; fill:none" points="112.177,1234.14 131.075,1234.14 "/>
<polyline clip-path="url(#clip790)" style="stroke:#000000; stroke-linecap:round; stroke-linejoin:round; stroke-width:4; stroke-opacity:1; fill:none" points="112.177,975.449 131.075,975.449 "/>
<polyline clip-path="url(#clip790)" style="stroke:#000000; stroke-linecap:round; stroke-linejoin:round; stroke-width:4; stroke-opacity:1; fill:none" points="112.177,716.754 131.075,716.754 "/>
<polyline clip-path="url(#clip790)" style="stroke:#000000; stroke-linecap:round; stroke-linejoin:round; stroke-width:4; stroke-opacity:1; fill:none" points="112.177,458.059 131.075,458.059 "/>
<polyline clip-path="url(#clip790)" style="stroke:#000000; stroke-linecap:round; stroke-linejoin:round; stroke-width:4; stroke-opacity:1; fill:none" points="112.177,199.364 131.075,199.364 "/>
<path clip-path="url(#clip790)" d="M56.2699 1247.49 L63.9087 1247.49 L63.9087 1221.12 L55.5986 1222.79 L55.5986 1218.53 L63.8624 1216.86 L68.5383 1216.86 L68.5383 1247.49 L76.1772 1247.49 L76.1772 1251.42 L56.2699 1251.42 L56.2699 1247.49 Z" fill="#000000" fill-rule="nonzero" fill-opacity="1" /><path clip-path="url(#clip790)" d="M59.8578 988.794 L76.1772 988.794 L76.1772 992.729 L54.2328 992.729 L54.2328 988.794 Q56.8949 986.039 61.4782 981.41 Q66.0846 976.757 67.2652 975.414 Q69.5105 972.891 70.3902 971.155 Q71.2929 969.396 71.2929 967.706 Q71.2929 964.952 69.3485 963.215 Q67.4272 961.479 64.3254 961.479 Q62.1263 961.479 59.6726 962.243 Q57.2421 963.007 54.4643 964.558 L54.4643 959.836 Q57.2884 958.702 59.7421 958.123 Q62.1958 957.544 64.2328 957.544 Q69.6031 957.544 72.7976 960.229 Q75.992 962.915 75.992 967.405 Q75.992 969.535 75.1818 971.456 Q74.3948 973.354 72.2883 975.947 Q71.7096 976.618 68.6078 979.836 Q65.5059 983.03 59.8578 988.794 Z" fill="#000000" fill-rule="nonzero" fill-opacity="1" /><path clip-path="url(#clip790)" d="M69.0476 715.4 Q72.404 716.118 74.279 718.386 Q76.1772 720.655 76.1772 723.988 Q76.1772 729.104 72.6587 731.905 Q69.1402 734.706 62.6587 734.706 Q60.4828 734.706 58.168 734.266 Q55.8764 733.849 53.4227 732.993 L53.4227 728.479 Q55.3671 729.613 57.6819 730.192 Q59.9967 730.77 62.5198 730.77 Q66.918 730.77 69.2096 729.034 Q71.5244 727.298 71.5244 723.988 Q71.5244 720.932 69.3717 719.219 Q67.242 717.483 63.4226 717.483 L59.3949 717.483 L59.3949 713.641 L63.6078 713.641 Q67.0569 713.641 68.8855 712.275 Q70.7142 710.886 70.7142 708.294 Q70.7142 705.632 68.8161 704.22 Q66.9411 702.784 63.4226 702.784 Q61.5013 702.784 59.3023 703.201 Q57.1032 703.618 54.4643 704.497 L54.4643 700.331 Q57.1264 699.59 59.4412 699.22 Q61.7791 698.849 63.8393 698.849 Q69.1633 698.849 72.2652 701.28 Q75.367 703.687 75.367 707.808 Q75.367 710.678 73.7235 712.669 Q72.08 714.636 69.0476 715.4 Z" fill="#000000" fill-rule="nonzero" fill-opacity="1" /><path clip-path="url(#clip790)" d="M66.5939 444.853 L54.7884 463.302 L66.5939 463.302 L66.5939 444.853 M65.367 440.779 L71.2466 440.779 L71.2466 463.302 L76.1772 463.302 L76.1772 467.191 L71.2466 467.191 L71.2466 475.339 L66.5939 475.339 L66.5939 467.191 L50.9921 467.191 L50.9921 462.677 L65.367 440.779 Z" fill="#000000" fill-rule="nonzero" fill-opacity="1" /><path clip-path="url(#clip790)" d="M55.2745 182.084 L73.6309 182.084 L73.6309 186.019 L59.5569 186.019 L59.5569 194.492 Q60.5754 194.144 61.5939 193.982 Q62.6124 193.797 63.6309 193.797 Q69.418 193.797 72.7976 196.968 Q76.1772 200.14 76.1772 205.556 Q76.1772 211.135 72.705 214.237 Q69.2328 217.316 62.9134 217.316 Q60.7374 217.316 58.4689 216.945 Q56.2236 216.575 53.8162 215.834 L53.8162 211.135 Q55.8995 212.269 58.1217 212.825 Q60.3439 213.38 62.8208 213.38 Q66.8254 213.38 69.1633 211.274 Q71.5013 209.167 71.5013 205.556 Q71.5013 201.945 69.1633 199.839 Q66.8254 197.732 62.8208 197.732 Q60.9458 197.732 59.0708 198.149 Q57.2189 198.566 55.2745 199.445 L55.2745 182.084 Z" fill="#000000" fill-rule="nonzero" fill-opacity="1" /><circle clip-path="url(#clip792)" cx="2289.34" cy="1341.13" r="14.4" fill="#808080" fill-rule="evenodd" fill-opacity="1" stroke="#000000" stroke-opacity="1" stroke-width="3.2"/>
<circle clip-path="url(#clip792)" cx="175.59" cy="87.9763" r="14.4" fill="#808080" fill-rule="evenodd" fill-opacity="1" stroke="#000000" stroke-opacity="1" stroke-width="3.2"/>
<circle clip-path="url(#clip792)" cx="1562.72" cy="1441.58" r="14.4" fill="#808080" fill-rule="evenodd" fill-opacity="1" stroke="#000000" stroke-opacity="1" stroke-width="3.2"/>
<circle clip-path="url(#clip792)" cx="1553.32" cy="1445.72" r="14.4" fill="#808080" fill-rule="evenodd" fill-opacity="1" stroke="#000000" stroke-opacity="1" stroke-width="3.2"/>
<path clip-path="url(#clip790)" d="M2293.64 1348.56 Q2284.6 1348.56 2281.12 1350.63 Q2277.64 1352.69 2277.64 1357.68 Q2277.64 1361.65 2280.23 1364 Q2282.86 1366.31 2287.36 1366.31 Q2293.56 1366.31 2297.28 1361.93 Q2301.05 1357.51 2301.05 1350.22 L2301.05 1348.56 L2293.64 1348.56 M2308.5 1345.48 L2308.5 1371.37 L2301.05 1371.37 L2301.05 1364.48 Q2298.5 1368.61 2294.69 1370.6 Q2290.88 1372.54 2285.37 1372.54 Q2278.41 1372.54 2274.27 1368.65 Q2270.18 1364.73 2270.18 1358.16 Q2270.18 1350.51 2275.29 1346.62 Q2280.43 1342.73 2290.6 1342.73 L2301.05 1342.73 L2301.05 1342 Q2301.05 1336.86 2297.65 1334.06 Q2294.29 1331.22 2288.17 1331.22 Q2284.28 1331.22 2280.59 1332.16 Q2276.91 1333.09 2273.5 1334.95 L2273.5 1328.06 Q2277.6 1326.48 2281.44 1325.72 Q2285.29 1324.91 2288.94 1324.91 Q2298.78 1324.91 2303.64 1330.01 Q2308.5 1335.11 2308.5 1345.48 Z" fill="#000000" fill-rule="nonzero" fill-opacity="1" /><path clip-path="url(#clip790)" d="M188.148 95.5717 Q188.148 87.3484 184.745 82.6898 Q181.383 77.9908 175.468 77.9908 Q169.554 77.9908 166.151 82.6898 Q162.789 87.3484 162.789 95.5717 Q162.789 103.795 166.151 108.494 Q169.554 113.153 175.468 113.153 Q181.383 113.153 184.745 108.494 Q188.148 103.795 188.148 95.5717 M162.789 79.7327 Q165.138 75.6818 168.703 73.7373 Q172.309 71.7524 177.291 71.7524 Q185.555 71.7524 190.7 78.3149 Q195.885 84.8773 195.885 95.5717 Q195.885 106.266 190.7 112.829 Q185.555 119.391 177.291 119.391 Q172.309 119.391 168.703 117.447 Q165.138 115.462 162.789 111.411 L162.789 118.216 L155.295 118.216 L155.295 55.1842 L162.789 55.1842 L162.789 79.7327 Z" fill="#000000" fill-rule="nonzero" fill-opacity="1" /><path clip-path="url(#clip790)" d="M1580.66 1428.19 L1580.66 1435.16 Q1577.5 1433.41 1574.3 1432.56 Q1571.14 1431.67 1567.9 1431.67 Q1560.65 1431.67 1556.64 1436.29 Q1552.63 1440.87 1552.63 1449.17 Q1552.63 1457.48 1556.64 1462.09 Q1560.65 1466.67 1567.9 1466.67 Q1571.14 1466.67 1574.3 1465.82 Q1577.5 1464.93 1580.66 1463.19 L1580.66 1470.07 Q1577.54 1471.53 1574.18 1472.26 Q1570.86 1472.99 1567.09 1472.99 Q1556.84 1472.99 1550.81 1466.55 Q1544.77 1460.11 1544.77 1449.17 Q1544.77 1438.07 1550.85 1431.71 Q1556.97 1425.35 1567.58 1425.35 Q1571.02 1425.35 1574.3 1426.08 Q1577.59 1426.77 1580.66 1428.19 Z" fill="#000000" fill-rule="nonzero" fill-opacity="1" /><path clip-path="url(#clip790)" d="M1566.14 1437.47 L1566.14 1412.92 L1573.6 1412.92 L1573.6 1475.96 L1566.14 1475.96 L1566.14 1469.15 Q1563.79 1473.2 1560.19 1475.19 Q1556.62 1477.13 1551.6 1477.13 Q1543.38 1477.13 1538.19 1470.57 Q1533.05 1464.01 1533.05 1453.31 Q1533.05 1442.62 1538.19 1436.05 Q1543.38 1429.49 1551.6 1429.49 Q1556.62 1429.49 1560.19 1431.48 Q1563.79 1433.42 1566.14 1437.47 M1540.74 1453.31 Q1540.74 1461.53 1544.11 1466.23 Q1547.51 1470.89 1553.42 1470.89 Q1559.34 1470.89 1562.74 1466.23 Q1566.14 1461.53 1566.14 1453.31 Q1566.14 1445.09 1562.74 1440.43 Q1559.34 1435.73 1553.42 1435.73 Q1547.51 1435.73 1544.11 1440.43 Q1540.74 1445.09 1540.74 1453.31 Z" fill="#000000" fill-rule="nonzero" fill-opacity="1" /><path clip-path="url(#clip790)" d="M2001.58 198.898 L2278.07 198.898 L2278.07 95.2176 L2001.58 95.2176  Z" fill="#ffffff" fill-rule="evenodd" fill-opacity="1"/>
<polyline clip-path="url(#clip790)" style="stroke:#000000; stroke-linecap:round; stroke-linejoin:round; stroke-width:4; stroke-opacity:1; fill:none" points="2001.58,198.898 2278.07,198.898 2278.07,95.2176 2001.58,95.2176 2001.58,198.898 "/>
<circle clip-path="url(#clip790)" cx="2101.16" cy="147.058" r="20.48" fill="#808080" fill-rule="evenodd" fill-opacity="1" stroke="#000000" stroke-opacity="1" stroke-width="4.55111"/>
<path clip-path="url(#clip790)" d="M2214.59 166.745 Q2212.78 171.375 2211.07 172.787 Q2209.36 174.199 2206.49 174.199 L2203.08 174.199 L2203.08 170.634 L2205.58 170.634 Q2207.34 170.634 2208.31 169.8 Q2209.29 168.967 2210.47 165.865 L2211.23 163.921 L2200.74 138.412 L2205.26 138.412 L2213.36 158.689 L2221.46 138.412 L2225.98 138.412 L2214.59 166.745 Z" fill="#000000" fill-rule="nonzero" fill-opacity="1" /><path clip-path="url(#clip790)" d="M2233.27 160.402 L2240.91 160.402 L2240.91 134.037 L2232.6 135.703 L2232.6 131.444 L2240.86 129.778 L2245.54 129.778 L2245.54 160.402 L2253.17 160.402 L2253.17 164.338 L2233.27 164.338 L2233.27 160.402 Z" fill="#000000" fill-rule="nonzero" fill-opacity="1" /></svg>
