<?xml version="1.0" encoding="utf-8"?>
<svg xmlns="http://www.w3.org/2000/svg" xmlns:xlink="http://www.w3.org/1999/xlink" width="600" height="400" viewBox="0 0 2400 1600">
<defs>
  <clipPath id="clip940">
    <rect x="0" y="0" width="2400" height="1600"/>
  </clipPath>
</defs>
<path clip-path="url(#clip940)" d="M0 1600 L2400 1600 L2400 0 L0 0  Z" fill="#ffffff" fill-rule="evenodd" fill-opacity="1"/>
<defs>
  <clipPath id="clip941">
    <rect x="480" y="0" width="1681" height="1600"/>
  </clipPath>
</defs>
<path clip-path="url(#clip940)" d="M156.112 1486.45 L2352.76 1486.45 L2352.76 47.2441 L156.112 47.2441  Z" fill="#ffffff" fill-rule="evenodd" fill-opacity="1"/>
<defs>
  <clipPath id="clip942">
    <rect x="156" y="47" width="2198" height="1440"/>
  </clipPath>
</defs>
<polyline clip-path="url(#clip942)" style="stroke:#000000; stroke-linecap:round; stroke-linejoin:round; stroke-width:2; stroke-opacity:0.1; fill:none" points="500.982,1486.45 500.982,47.2441 "/>
<polyline clip-path="url(#clip942)" style="stroke:#000000; stroke-linecap:round; stroke-linejoin:round; stroke-width:2; stroke-opacity:0.1; fill:none" points="942.599,1486.45 942.599,47.2441 "/>
<polyline clip-path="url(#clip942)" style="stroke:#000000; stroke-linecap:round; stroke-linejoin:round; stroke-width:2; stroke-opacity:0.1; fill:none" points="1384.22,1486.45 1384.22,47.2441 "/>
<polyline clip-path="url(#clip942)" style="stroke:#000000; stroke-linecap:round; stroke-linejoin:round; stroke-width:2; stroke-opacity:0.1; fill:none" points="1825.83,1486.45 1825.83,47.2441 "/>
<polyline clip-path="url(#clip942)" style="stroke:#000000; stroke-linecap:round; stroke-linejoin:round; stroke-width:2; stroke-opacity:0.1; fill:none" points="2267.45,1486.45 2267.45,47.2441 "/>
<polyline clip-path="url(#clip940)" style="stroke:#000000; stroke-linecap:round; stroke-linejoin:round; stroke-width:4; stroke-opacity:1; fill:none" points="156.112,1486.45 2352.76,1486.45 "/>
<polyline clip-path="url(#clip940)" style="stroke:#000000; stroke-linecap:round; stroke-linejoin:round; stroke-width:4; stroke-opacity:1; fill:none" points="500.982,1486.45 500.982,1467.55 "/>
<polyline clip-path="url(#clip940)" style="stroke:#000000; stroke-linecap:round; stroke-linejoin:round; stroke-width:4; stroke-opacity:1; fill:none" points="942.599,1486.45 942.599,1467.55 "/>
<polyline clip-path="url(#clip940)" style="stroke:#000000; stroke-linecap:round; stroke-linejoin:round; stroke-width:4; stroke-opacity:1; fill:none" points="1384.22,1486.45 1384.22,1467.55 "/>
<polyline clip-path="url(#clip940)" style="stroke:#000000; stroke-linecap:round; stroke-linejoin:round; stroke-width:4; stroke-opacity:1; fill:none" points="1825.83,1486.45 1825.83,1467.55 "/>
<polyline clip-path="url(#clip940)" style="stroke:#000000; stroke-linecap:round; stroke-linejoin:round; stroke-width:4; stroke-opacity:1; fill:none" points="2267.45,1486.45 2267.45,1467.55 "/>
<path clip-path="url(#clip940)" d="M447.267 1532.02 L476.943 1532.02 L476.943 1535.95 L447.267 1535.95 L447.267 1532.02 Z" fill="#000000" fill-rule="nonzero" fill-opacity="1" /><path clip-path="url(#clip940)" d="M497.035 1517.37 Q493.424 1517.37 491.596 1520.93 Q489.79 1524.47 489.79 1531.6 Q489.79 1538.71 491.596 1542.27 Q493.424 1545.82 497.035 1545.82 Q500.67 1545.82 502.475 1542.27 Q504.304 1538.71 504.304 1531.6 Q504.304 1524.47 502.475 1520.93 Q500.67 1517.37 497.035 1517.37 M497.035 1513.66 Q502.845 1513.66 505.901 1518.27 Q508.98 1522.85 508.98 1531.6 Q508.98 1540.33 505.901 1544.94 Q502.845 1549.52 497.035 1549.52 Q491.225 1549.52 488.146 1544.94 Q485.091 1540.33 485.091 1531.6 Q485.091 1522.85 488.146 1518.27 Q491.225 1513.66 497.035 1513.66 Z" fill="#000000" fill-rule="nonzero" fill-opacity="1" /><path clip-path="url(#clip940)" d="M517.197 1542.97 L522.081 1542.97 L522.081 1548.85 L517.197 1548.85 L517.197 1542.97 Z" fill="#000000" fill-rule="nonzero" fill-opacity="1" /><path clip-path="url(#clip940)" d="M545.114 1518.36 L533.308 1536.81 L545.114 1536.81 L545.114 1518.36 M543.887 1514.29 L549.766 1514.29 L549.766 1536.81 L554.697 1536.81 L554.697 1540.7 L549.766 1540.7 L549.766 1548.85 L545.114 1548.85 L545.114 1540.7 L529.512 1540.7 L529.512 1536.19 L543.887 1514.29 Z" fill="#000000" fill-rule="nonzero" fill-opacity="1" /><path clip-path="url(#clip940)" d="M889.925 1532.02 L919.601 1532.02 L919.601 1535.95 L889.925 1535.95 L889.925 1532.02 Z" fill="#000000" fill-rule="nonzero" fill-opacity="1" /><path clip-path="url(#clip940)" d="M939.694 1517.37 Q936.083 1517.37 934.254 1520.93 Q932.448 1524.47 932.448 1531.6 Q932.448 1538.71 934.254 1542.27 Q936.083 1545.82 939.694 1545.82 Q943.328 1545.82 945.134 1542.27 Q946.962 1538.71 946.962 1531.6 Q946.962 1524.47 945.134 1520.93 Q943.328 1517.37 939.694 1517.37 M939.694 1513.66 Q945.504 1513.66 948.559 1518.27 Q951.638 1522.85 951.638 1531.6 Q951.638 1540.33 948.559 1544.94 Q945.504 1549.52 939.694 1549.52 Q933.884 1549.52 930.805 1544.94 Q927.749 1540.33 927.749 1531.6 Q927.749 1522.85 930.805 1518.27 Q933.884 1513.66 939.694 1513.66 Z" fill="#000000" fill-rule="nonzero" fill-opacity="1" /><path clip-path="url(#clip940)" d="M959.856 1542.97 L964.74 1542.97 L964.74 1548.85 L959.856 1548.85 L959.856 1542.97 Z" fill="#000000" fill-rule="nonzero" fill-opacity="1" /><path clip-path="url(#clip940)" d="M978.953 1544.91 L995.272 1544.91 L995.272 1548.85 L973.328 1548.85 L973.328 1544.91 Q975.99 1542.16 980.573 1537.53 Q985.18 1532.88 986.36 1531.53 Q988.606 1529.01 989.485 1527.27 Q990.388 1525.51 990.388 1523.82 Q990.388 1521.07 988.443 1519.33 Q986.522 1517.6 983.42 1517.6 Q981.221 1517.6 978.768 1518.36 Q976.337 1519.13 973.559 1520.68 L973.559 1515.95 Q976.383 1514.82 978.837 1514.24 Q981.291 1513.66 983.328 1513.66 Q988.698 1513.66 991.893 1516.35 Q995.087 1519.03 995.087 1523.52 Q995.087 1525.65 994.277 1527.57 Q993.49 1529.47 991.383 1532.07 Q990.805 1532.74 987.703 1535.95 Q984.601 1539.15 978.953 1544.91 Z" fill="#000000" fill-rule="nonzero" fill-opacity="1" /><path clip-path="url(#clip940)" d="M1361.6 1517.37 Q1357.99 1517.37 1356.16 1520.93 Q1354.35 1524.47 1354.35 1531.6 Q1354.35 1538.71 1356.16 1542.27 Q1357.99 1545.82 1361.6 1545.82 Q1365.23 1545.82 1367.04 1542.27 Q1368.87 1538.71 1368.87 1531.6 Q1368.87 1524.47 1367.04 1520.93 Q1365.23 1517.37 1361.6 1517.37 M1361.6 1513.66 Q1367.41 1513.66 1370.47 1518.27 Q1373.54 1522.85 1373.54 1531.6 Q1373.54 1540.33 1370.47 1544.94 Q1367.41 1549.52 1361.6 1549.52 Q1355.79 1549.52 1352.71 1544.94 Q1349.66 1540.33 1349.66 1531.6 Q1349.66 1522.85 1352.71 1518.27 Q1355.79 1513.66 1361.6 1513.66 Z" fill="#000000" fill-rule="nonzero" fill-opacity="1" /><path clip-path="url(#clip940)" d="M1381.76 1542.97 L1386.65 1542.97 L1386.65 1548.85 L1381.76 1548.85 L1381.76 1542.97 Z" fill="#000000" fill-rule="nonzero" fill-opacity="1" /><path clip-path="url(#clip940)" d="M1406.83 1517.37 Q1403.22 1517.37 1401.39 1520.93 Q1399.59 1524.47 1399.59 1531.6 Q1399.59 1538.71 1401.39 1542.27 Q1403.22 1545.82 1406.83 1545.82 Q1410.47 1545.82 1412.27 1542.27 Q1414.1 1538.71 1414.1 1531.6 Q1414.1 1524.47 1412.27 1520.93 Q1410.47 1517.37 1406.83 1517.37 M1406.83 1513.66 Q1412.64 1513.66 1415.7 1518.27 Q1418.78 1522.85 1418.78 1531.6 Q1418.78 1540.33 1415.7 1544.94 Q1412.64 1549.52 1406.83 1549.52 Q1401.02 1549.52 1397.94 1544.94 Q1394.89 1540.33 1394.89 1531.6 Q1394.89 1522.85 1397.94 1518.27 Q1401.02 1513.66 1406.83 1513.66 Z" fill="#000000" fill-rule="nonzero" fill-opacity="1" /><path clip-path="url(#clip940)" d="M1804.02 1517.37 Q1800.4 1517.37 1798.58 1520.93 Q1796.77 1524.47 1796.77 1531.6 Q1796.77 1538.71 1798.58 1542.27 Q1800.4 1545.82 1804.02 1545.82 Q1807.65 1545.82 1809.46 1542.27 Q1811.28 1538.71 1811.28 1531.6 Q1811.28 1524.47 1809.46 1520.93 Q1807.65 1517.37 1804.02 1517.37 M1804.02 1513.66 Q1809.83 1513.66 1812.88 1518.27 Q1815.96 1522.85 1815.96 1531.6 Q1815.96 1540.33 1812.88 1544.94 Q1809.83 1549.52 1804.02 1549.52 Q1798.21 1549.52 1795.13 1544.94 Q1792.07 1540.33 1792.07 1531.6 Q1792.07 1522.85 1795.13 1518.27 Q1798.21 1513.66 1804.02 1513.66 Z" fill="#000000" fill-rule="nonzero" fill-opacity="1" /><path clip-path="url(#clip940)" d="M1824.18 1542.97 L1829.06 1542.97 L1829.06 1548.85 L1824.18 1548.85 L1824.18 1542.97 Z" fill="#000000" fill-rule="nonzero" fill-opacity="1" /><path clip-path="url(#clip940)" d="M1843.27 1544.91 L1859.59 1544.91 L1859.59 1548.85 L1837.65 1548.85 L1837.65 1544.91 Q1840.31 1542.16 1844.89 1537.53 Q1849.5 1532.88 1850.68 1531.53 Q1852.93 1529.01 1853.81 1527.27 Q1854.71 1525.51 1854.71 1523.82 Q1854.71 1521.07 1852.77 1519.33 Q1850.84 1517.6 1847.74 1517.6 Q1845.54 1517.6 1843.09 1518.36 Q1840.66 1519.13 1837.88 1520.68 L1837.88 1515.95 Q1840.7 1514.82 1843.16 1514.24 Q1845.61 1513.66 1847.65 1513.66 Q1853.02 1513.66 1856.21 1516.35 Q1859.41 1519.03 1859.41 1523.52 Q1859.41 1525.65 1858.6 1527.57 Q1857.81 1529.47 1855.7 1532.07 Q1855.13 1532.74 1852.02 1535.95 Q1848.92 1539.15 1843.27 1544.91 Z" fill="#000000" fill-rule="nonzero" fill-opacity="1" /><path clip-path="url(#clip940)" d="M2244.59 1517.37 Q2240.98 1517.37 2239.15 1520.93 Q2237.35 1524.47 2237.35 1531.6 Q2237.35 1538.71 2239.15 1542.27 Q2240.98 1545.82 2244.59 1545.82 Q2248.22 1545.82 2250.03 1542.27 Q2251.86 1538.71 2251.86 1531.6 Q2251.86 1524.47 2250.03 1520.93 Q2248.22 1517.37 2244.59 1517.37 M2244.59 1513.66 Q2250.4 1513.66 2253.46 1518.27 Q2256.53 1522.85 2256.53 1531.6 Q2256.53 1540.33 2253.46 1544.94 Q2250.4 1549.52 2244.59 1549.52 Q2238.78 1549.52 2235.7 1544.94 Q2232.65 1540.33 2232.65 1531.6 Q2232.65 1522.85 2235.7 1518.27 Q2238.78 1513.66 2244.59 1513.66 Z" fill="#000000" fill-rule="nonzero" fill-opacity="1" /><path clip-path="url(#clip940)" d="M2264.75 1542.97 L2269.64 1542.97 L2269.64 1548.85 L2264.75 1548.85 L2264.75 1542.97 Z" fill="#000000" fill-rule="nonzero" fill-opacity="1" /><path clip-path="url(#clip940)" d="M2292.67 1518.36 L2280.86 1536.81 L2292.67 1536.81 L2292.67 1518.36 M2291.44 1514.29 L2297.32 1514.29 L2297.32 1536.81 L2302.25 1536.81 L2302.25 1540.7 L2297.32 1540.7 L2297.32 1548.85 L2292.67 1548.85 L2292.67 1540.7 L2277.07 1540.7 L2277.07 1536.19 L2291.44 1514.29 Z" fill="#000000" fill-rule="nonzero" fill-opacity="1" /><polyline clip-path="url(#clip942)" style="stroke:#000000; stroke-linecap:round; stroke-linejoin:round; stroke-width:2; stroke-opacity:0.1; fill:none" points="156.112,1459.17 2352.76,1459.17 "/>
<polyline clip-path="url(#clip942)" style="stroke:#000000; stroke-linecap:round; stroke-linejoin:round; stroke-width:2; stroke-opacity:0.1; fill:none" points="156.112,1040.53 2352.76,1040.53 "/>
<polyline clip-path="url(#clip942)" style="stroke:#000000; stroke-linecap:round; stroke-linejoin:round; stroke-width:2; stroke-opacity:0.1; fill:none" points="156.112,621.891 2352.76,621.891 "/>
<polyline clip-path="url(#clip942)" style="stroke:#000000; stroke-linecap:round; stroke-linejoin:round; stroke-width:2; stroke-opacity:0.1; fill:none" points="156.112,203.252 2352.76,203.252 "/>
<polyline clip-path="url(#clip940)" style="stroke:#000000; stroke-linecap:round; stroke-linejoin:round; stroke-width:4; stroke-opacity:1; fill:none" points="156.112,1486.45 156.112,47.2441 "/>
<polyline clip-path="url(#clip940)" style="stroke:#000000; stroke-linecap:round; stroke-linejoin:round; stroke-width:4; stroke-opacity:1; fill:none" points="156.112,1459.17 175.01,1459.17 "/>
<polyline clip-path="url(#clip940)" style="stroke:#000000; stroke-linecap:round; stroke-linejoin:round; stroke-width:4; stroke-opacity:1; fill:none" points="156.112,1040.53 175.01,1040.53 "/>
<polyline clip-path="url(#clip940)" style="stroke:#000000; stroke-linecap:round; stroke-linejoin:round; stroke-width:4; stroke-opacity:1; fill:none" points="156.112,621.891 175.01,621.891 "/>
<polyline clip-path="url(#clip940)" style="stroke:#000000; stroke-linecap:round; stroke-linejoin:round; stroke-width:4; stroke-opacity:1; fill:none" points="156.112,203.252 175.01,203.252 "/>
<path clip-path="url(#clip940)" d="M62.9365 1444.97 Q59.3254 1444.97 57.4967 1448.53 Q55.6912 1452.07 55.6912 1459.2 Q55.6912 1466.31 57.4967 1469.87 Q59.3254 1473.42 62.9365 1473.42 Q66.5707 1473.42 68.3763 1469.87 Q70.205 1466.31 70.205 1459.2 Q70.205 1452.07 68.3763 1448.53 Q66.5707 1444.97 62.9365 1444.97 M62.9365 1441.26 Q68.7467 1441.26 71.8022 1445.87 Q74.8809 1450.45 74.8809 1459.2 Q74.8809 1467.93 71.8022 1472.54 Q68.7467 1477.12 62.9365 1477.12 Q57.1264 1477.12 54.0477 1472.54 Q50.9921 1467.93 50.9921 1459.2 Q50.9921 1450.45 54.0477 1445.87 Q57.1264 1441.26 62.9365 1441.26 Z" fill="#000000" fill-rule="nonzero" fill-opacity="1" /><path clip-path="url(#clip940)" d="M83.0984 1470.57 L87.9827 1470.57 L87.9827 1476.45 L83.0984 1476.45 L83.0984 1470.57 Z" fill="#000000" fill-rule="nonzero" fill-opacity="1" /><path clip-path="url(#clip940)" d="M108.168 1444.97 Q104.557 1444.97 102.728 1448.53 Q100.922 1452.07 100.922 1459.2 Q100.922 1466.31 102.728 1469.87 Q104.557 1473.42 108.168 1473.42 Q111.802 1473.42 113.608 1469.87 Q115.436 1466.31 115.436 1459.2 Q115.436 1452.07 113.608 1448.53 Q111.802 1444.97 108.168 1444.97 M108.168 1441.26 Q113.978 1441.26 117.033 1445.87 Q120.112 1450.45 120.112 1459.2 Q120.112 1467.93 117.033 1472.54 Q113.978 1477.12 108.168 1477.12 Q102.358 1477.12 99.2789 1472.54 Q96.2234 1467.93 96.2234 1459.2 Q96.2234 1450.45 99.2789 1445.87 Q102.358 1441.26 108.168 1441.26 Z" fill="#000000" fill-rule="nonzero" fill-opacity="1" /><path clip-path="url(#clip940)" d="M64.1634 1026.33 Q60.5523 1026.33 58.7236 1029.89 Q56.918 1033.43 56.918 1040.56 Q56.918 1047.67 58.7236 1051.24 Q60.5523 1054.78 64.1634 1054.78 Q67.7976 1054.78 69.6031 1051.24 Q71.4318 1047.67 71.4318 1040.56 Q71.4318 1033.43 69.6031 1029.89 Q67.7976 1026.33 64.1634 1026.33 M64.1634 1022.62 Q69.9735 1022.62 73.029 1027.23 Q76.1077 1031.81 76.1077 1040.56 Q76.1077 1049.29 73.029 1053.9 Q69.9735 1058.48 64.1634 1058.48 Q58.3532 1058.48 55.2745 1053.9 Q52.219 1049.29 52.219 1040.56 Q52.219 1031.81 55.2745 1027.23 Q58.3532 1022.62 64.1634 1022.62 Z" fill="#000000" fill-rule="nonzero" fill-opacity="1" /><path clip-path="url(#clip940)" d="M84.3253 1051.93 L89.2095 1051.93 L89.2095 1057.81 L84.3253 1057.81 L84.3253 1051.93 Z" fill="#000000" fill-rule="nonzero" fill-opacity="1" /><path clip-path="url(#clip940)" d="M100.205 1053.87 L107.844 1053.87 L107.844 1027.51 L99.5335 1029.18 L99.5335 1024.92 L107.797 1023.25 L112.473 1023.25 L112.473 1053.87 L120.112 1053.87 L120.112 1057.81 L100.205 1057.81 L100.205 1053.87 Z" fill="#000000" fill-rule="nonzero" fill-opacity="1" /><path clip-path="url(#clip940)" d="M64.5337 607.689 Q60.9226 607.689 59.0939 611.254 Q57.2884 614.796 57.2884 621.925 Q57.2884 629.032 59.0939 632.597 Q60.9226 636.138 64.5337 636.138 Q68.168 636.138 69.9735 632.597 Q71.8022 629.032 71.8022 621.925 Q71.8022 614.796 69.9735 611.254 Q68.168 607.689 64.5337 607.689 M64.5337 603.986 Q70.3439 603.986 73.3994 608.592 Q76.4781 613.175 76.4781 621.925 Q76.4781 630.652 73.3994 635.259 Q70.3439 639.842 64.5337 639.842 Q58.7236 639.842 55.6449 635.259 Q52.5893 630.652 52.5893 621.925 Q52.5893 613.175 55.6449 608.592 Q58.7236 603.986 64.5337 603.986 Z" fill="#000000" fill-rule="nonzero" fill-opacity="1" /><path clip-path="url(#clip940)" d="M84.6956 633.291 L89.5799 633.291 L89.5799 639.171 L84.6956 639.171 L84.6956 633.291 Z" fill="#000000" fill-rule="nonzero" fill-opacity="1" /><path clip-path="url(#clip940)" d="M103.793 635.235 L120.112 635.235 L120.112 639.171 L98.1678 639.171 L98.1678 635.235 Q100.83 632.481 105.413 627.851 Q110.02 623.198 111.2 621.856 Q113.445 619.333 114.325 617.597 Q115.228 615.837 115.228 614.148 Q115.228 611.393 113.283 609.657 Q111.362 607.921 108.26 607.921 Q106.061 607.921 103.608 608.685 Q101.177 609.449 98.3993 610.999 L98.3993 606.277 Q101.223 605.143 103.677 604.564 Q106.131 603.986 108.168 603.986 Q113.538 603.986 116.733 606.671 Q119.927 609.356 119.927 613.847 Q119.927 615.976 119.117 617.898 Q118.33 619.796 116.223 622.388 Q115.645 623.06 112.543 626.277 Q109.441 629.472 103.793 635.235 Z" fill="#000000" fill-rule="nonzero" fill-opacity="1" /><path clip-path="url(#clip940)" d="M63.5847 189.05 Q59.9736 189.05 58.1449 192.615 Q56.3393 196.157 56.3393 203.286 Q56.3393 210.393 58.1449 213.958 Q59.9736 217.499 63.5847 217.499 Q67.2189 217.499 69.0244 213.958 Q70.8531 210.393 70.8531 203.286 Q70.8531 196.157 69.0244 192.615 Q67.2189 189.05 63.5847 189.05 M63.5847 185.347 Q69.3948 185.347 72.4503 189.953 Q75.529 194.536 75.529 203.286 Q75.529 212.013 72.4503 216.62 Q69.3948 221.203 63.5847 221.203 Q57.7745 221.203 54.6958 216.62 Q51.6403 212.013 51.6403 203.286 Q51.6403 194.536 54.6958 189.953 Q57.7745 185.347 63.5847 185.347 Z" fill="#000000" fill-rule="nonzero" fill-opacity="1" /><path clip-path="url(#clip940)" d="M83.7466 214.652 L88.6308 214.652 L88.6308 220.532 L83.7466 220.532 L83.7466 214.652 Z" fill="#000000" fill-rule="nonzero" fill-opacity="1" /><path clip-path="url(#clip940)" d="M112.983 201.897 Q116.339 202.615 118.214 204.884 Q120.112 207.152 120.112 210.485 Q120.112 215.601 116.594 218.402 Q113.075 221.203 106.594 221.203 Q104.418 221.203 102.103 220.763 Q99.8113 220.346 97.3576 219.49 L97.3576 214.976 Q99.3021 216.11 101.617 216.689 Q103.932 217.268 106.455 217.268 Q110.853 217.268 113.145 215.532 Q115.459 213.796 115.459 210.485 Q115.459 207.43 113.307 205.717 Q111.177 203.981 107.358 203.981 L103.33 203.981 L103.33 200.138 L107.543 200.138 Q110.992 200.138 112.82 198.772 Q114.649 197.384 114.649 194.791 Q114.649 192.129 112.751 190.717 Q110.876 189.282 107.358 189.282 Q105.436 189.282 103.237 189.698 Q101.038 190.115 98.3993 190.995 L98.3993 186.828 Q101.061 186.087 103.376 185.717 Q105.714 185.347 107.774 185.347 Q113.098 185.347 116.2 187.777 Q119.302 190.185 119.302 194.305 Q119.302 197.175 117.658 199.166 Q116.015 201.134 112.983 201.897 Z" fill="#000000" fill-rule="nonzero" fill-opacity="1" /><circle clip-path="url(#clip942)" cx="1521.27" cy="1154.16" r="14.4" fill="#808080" fill-rule="evenodd" fill-opacity="1" stroke="#000000" stroke-opacity="1" stroke-width="3.2"/>
<circle clip-path="url(#clip942)" cx="1354.27" cy="1445.72" r="14.4" fill="#808080" fill-rule="evenodd" fill-opacity="1" stroke="#000000" stroke-opacity="1" stroke-width="3.2"/>
<circle clip-path="url(#clip942)" cx="2290.59" cy="1215.58" r="14.4" fill="#808080" fill-rule="evenodd" fill-opacity="1" stroke="#000000" stroke-opacity="1" stroke-width="3.2"/>
<circle clip-path="url(#clip942)" cx="218.281" cy="87.9763" r="14.4" fill="#808080" fill-rule="evenodd" fill-opacity="1" stroke="#000000" stroke-opacity="1" stroke-width="3.2"/>
<path clip-path="url(#clip940)" d="M1525.56 1161.6 Q1516.53 1161.6 1513.05 1163.66 Q1509.56 1165.73 1509.56 1170.71 Q1509.56 1174.68 1512.16 1177.03 Q1514.79 1179.34 1519.29 1179.34 Q1525.48 1179.34 1529.21 1174.97 Q1532.98 1170.55 1532.98 1163.26 L1532.98 1161.6 L1525.56 1161.6 M1540.43 1158.52 L1540.43 1184.4 L1532.98 1184.4 L1532.98 1177.52 Q1530.43 1181.65 1526.62 1183.64 Q1522.81 1185.58 1517.3 1185.58 Q1510.33 1185.58 1506.2 1181.69 Q1502.11 1177.76 1502.11 1171.2 Q1502.11 1163.54 1507.21 1159.65 Q1512.36 1155.76 1522.53 1155.76 L1532.98 1155.76 L1532.98 1155.04 Q1532.98 1149.89 1529.58 1147.1 Q1526.21 1144.26 1520.1 1144.26 Q1516.21 1144.26 1512.52 1145.19 Q1508.83 1146.12 1505.43 1147.99 L1505.43 1141.1 Q1509.52 1139.52 1513.37 1138.75 Q1517.22 1137.94 1520.87 1137.94 Q1530.71 1137.94 1535.57 1143.05 Q1540.43 1148.15 1540.43 1158.52 Z" fill="#000000" fill-rule="nonzero" fill-opacity="1" /><path clip-path="url(#clip940)" d="M1366.83 1453.31 Q1366.83 1445.09 1363.43 1440.43 Q1360.07 1435.73 1354.15 1435.73 Q1348.24 1435.73 1344.83 1440.43 Q1341.47 1445.09 1341.47 1453.31 Q1341.47 1461.53 1344.83 1466.23 Q1348.24 1470.89 1354.15 1470.89 Q1360.07 1470.89 1363.43 1466.23 Q1366.83 1461.53 1366.83 1453.31 M1341.47 1437.47 Q1343.82 1433.42 1347.39 1431.48 Q1350.99 1429.49 1355.97 1429.49 Q1364.24 1429.49 1369.38 1436.05 Q1374.57 1442.62 1374.57 1453.31 Q1374.57 1464.01 1369.38 1470.57 Q1364.24 1477.13 1355.97 1477.13 Q1350.99 1477.13 1347.39 1475.19 Q1343.82 1473.2 1341.47 1469.15 L1341.47 1475.96 L1333.98 1475.96 L1333.98 1412.92 L1341.47 1412.92 L1341.47 1437.47 Z" fill="#000000" fill-rule="nonzero" fill-opacity="1" /><path clip-path="url(#clip940)" d="M2308.53 1202.19 L2308.53 1209.16 Q2305.37 1207.42 2302.17 1206.57 Q2299.01 1205.68 2295.77 1205.68 Q2288.52 1205.68 2284.51 1210.29 Q2280.5 1214.87 2280.5 1223.18 Q2280.5 1231.48 2284.51 1236.1 Q2288.52 1240.68 2295.77 1240.68 Q2299.01 1240.68 2302.17 1239.82 Q2305.37 1238.93 2308.53 1237.19 L2308.53 1244.08 Q2305.41 1245.54 2302.05 1246.27 Q2298.73 1246.99 2294.96 1246.99 Q2284.71 1246.99 2278.68 1240.55 Q2272.64 1234.11 2272.64 1223.18 Q2272.64 1212.08 2278.72 1205.72 Q2284.83 1199.36 2295.45 1199.36 Q2298.89 1199.36 2302.17 1200.09 Q2305.45 1200.77 2308.53 1202.19 Z" fill="#000000" fill-rule="nonzero" fill-opacity="1" /><path clip-path="url(#clip940)" d="M231.102 79.7327 L231.102 55.1842 L238.556 55.1842 L238.556 118.216 L231.102 118.216 L231.102 111.411 Q228.753 115.462 225.148 117.447 Q221.583 119.391 216.56 119.391 Q208.336 119.391 203.151 112.829 Q198.007 106.266 198.007 95.5717 Q198.007 84.8773 203.151 78.3149 Q208.336 71.7524 216.56 71.7524 Q221.583 71.7524 225.148 73.7373 Q228.753 75.6818 231.102 79.7327 M205.703 95.5717 Q205.703 103.795 209.065 108.494 Q212.468 113.153 218.383 113.153 Q224.297 113.153 227.7 108.494 Q231.102 103.795 231.102 95.5717 Q231.102 87.3484 227.7 82.6898 Q224.297 77.9908 218.383 77.9908 Q212.468 77.9908 209.065 82.6898 Q205.703 87.3484 205.703 95.5717 Z" fill="#000000" fill-rule="nonzero" fill-opacity="1" /><path clip-path="url(#clip940)" d="M2007.44 198.898 L2279.53 198.898 L2279.53 95.2176 L2007.44 95.2176  Z" fill="#ffffff" fill-rule="evenodd" fill-opacity="1"/>
<polyline clip-path="url(#clip940)" style="stroke:#000000; stroke-linecap:round; stroke-linejoin:round; stroke-width:4; stroke-opacity:1; fill:none" points="2007.44,198.898 2279.53,198.898 2279.53,95.2176 2007.44,95.2176 2007.44,198.898 "/>
<circle clip-path="url(#clip940)" cx="2105.07" cy="147.058" r="20.48" fill="#808080" fill-rule="evenodd" fill-opacity="1" stroke="#000000" stroke-opacity="1" stroke-width="4.55111"/>
<path clip-path="url(#clip940)" d="M2216.54 166.745 Q2214.73 171.375 2213.02 172.787 Q2211.31 174.199 2208.44 174.199 L2205.03 174.199 L2205.03 170.634 L2207.53 170.634 Q2209.29 170.634 2210.27 169.8 Q2211.24 168.967 2212.42 165.865 L2213.18 163.921 L2202.7 138.412 L2207.21 138.412 L2215.31 158.689 L2223.41 138.412 L2227.93 138.412 L2216.54 166.745 Z" fill="#000000" fill-rule="nonzero" fill-opacity="1" /><path clip-path="url(#clip940)" d="M2235.22 160.402 L2242.86 160.402 L2242.86 134.037 L2234.55 135.703 L2234.55 131.444 L2242.81 129.778 L2247.49 129.778 L2247.49 160.402 L2255.13 160.402 L2255.13 164.338 L2235.22 164.338 L2235.22 160.402 Z" fill="#000000" fill-rule="nonzero" fill-opacity="1" /></svg>
