<?xml version="1.0" encoding="utf-8"?>
<svg xmlns="http://www.w3.org/2000/svg" xmlns:xlink="http://www.w3.org/1999/xlink" width="600" height="400" viewBox="0 0 2400 1600">
<defs>
  <clipPath id="clip240">
    <rect x="0" y="0" width="2400" height="1600"/>
  </clipPath>
</defs>
<path clip-path="url(#clip240)" d="M0 1600 L2400 1600 L2400 0 L0 0  Z" fill="#ffffff" fill-rule="evenodd" fill-opacity="1"/>
<defs>
  <clipPath id="clip241">
    <rect x="480" y="0" width="1681" height="1600"/>
  </clipPath>
</defs>
<path clip-path="url(#clip240)" d="M156.598 1486.45 L2352.76 1486.45 L2352.76 47.2441 L156.598 47.2441  Z" fill="#ffffff" fill-rule="evenodd" fill-opacity="1"/>
<defs>
  <clipPath id="clip242">
    <rect x="156" y="47" width="2197" height="1440"/>
  </clipPath>
</defs>
<polyline clip-path="url(#clip242)" style="stroke:#000000; stroke-linecap:round; stroke-linejoin:round; stroke-width:2; stroke-opacity:0.1; fill:none" points="429.121,1486.45 429.121,47.2441 "/>
<polyline clip-path="url(#clip242)" style="stroke:#000000; stroke-linecap:round; stroke-linejoin:round; stroke-width:2; stroke-opacity:0.1; fill:none" points="910.118,1486.45 910.118,47.2441 "/>
<polyline clip-path="url(#clip242)" style="stroke:#000000; stroke-linecap:round; stroke-linejoin:round; stroke-width:2; stroke-opacity:0.1; fill:none" points="1391.11,1486.45 1391.11,47.2441 "/>
<polyline clip-path="url(#clip242)" style="stroke:#000000; stroke-linecap:round; stroke-linejoin:round; stroke-width:2; stroke-opacity:0.1; fill:none" points="1872.11,1486.45 1872.11,47.2441 "/>
<polyline clip-path="url(#clip240)" style="stroke:#000000; stroke-linecap:round; stroke-linejoin:round; stroke-width:4; stroke-opacity:1; fill:none" points="156.598,1486.45 2352.76,1486.45 "/>
<polyline clip-path="url(#clip240)" style="stroke:#000000; stroke-linecap:round; stroke-linejoin:round; stroke-width:4; stroke-opacity:1; fill:none" points="429.121,1486.45 429.121,1467.55 "/>
<polyline clip-path="url(#clip240)" style="stroke:#000000; stroke-linecap:round; stroke-linejoin:round; stroke-width:4; stroke-opacity:1; fill:none" points="910.118,1486.45 910.118,1467.55 "/>
<polyline clip-path="url(#clip240)" style="stroke:#000000; stroke-linecap:round; stroke-linejoin:round; stroke-width:4; stroke-opacity:1; fill:none" points="1391.11,1486.45 1391.11,1467.55 "/>
<polyline clip-path="url(#clip240)" style="stroke:#000000; stroke-linecap:round; stroke-linejoin:round; stroke-width:4; stroke-opacity:1; fill:none" points="1872.11,1486.45 1872.11,1467.55 "/>
<path clip-path="url(#clip240)" d="M375.406 1532.02 L405.082 1532.02 L405.082 1535.95 L375.406 1535.95 L375.406 1532.02 Z" fill="#000000" fill-rule="nonzero" fill-opacity="1" /><path clip-path="url(#clip240)" d="M425.175 1517.37 Q421.564 1517.37 419.735 1520.93 Q417.929 1524.47 417.929 1531.6 Q417.929 1538.71 419.735 1542.27 Q421.564 1545.82 425.175 1545.82 Q428.809 1545.82 430.614 1542.27 Q432.443 1538.71 432.443 1531.6 Q432.443 1524.47 430.614 1520.93 Q428.809 1517.37 425.175 1517.37 M425.175 1513.66 Q430.985 1513.66 434.04 1518.27 Q437.119 1522.85 437.119 1531.6 Q437.119 1540.33 434.04 1544.94 Q430.985 1549.52 425.175 1549.52 Q419.364 1549.52 416.286 1544.94 Q413.23 1540.33 413.23 1531.6 Q413.23 1522.85 416.286 1518.27 Q419.364 1513.66 425.175 1513.66 Z" fill="#000000" fill-rule="nonzero" fill-opacity="1" /><path clip-path="url(#clip240)" d="M445.337 1542.97 L450.221 1542.97 L450.221 1548.85 L445.337 1548.85 L445.337 1542.97 Z" fill="#000000" fill-rule="nonzero" fill-opacity="1" /><path clip-path="url(#clip240)" d="M473.253 1518.36 L461.448 1536.81 L473.253 1536.81 L473.253 1518.36 M472.026 1514.29 L477.906 1514.29 L477.906 1536.81 L482.836 1536.81 L482.836 1540.7 L477.906 1540.7 L477.906 1548.85 L473.253 1548.85 L473.253 1540.7 L457.651 1540.7 L457.651 1536.19 L472.026 1514.29 Z" fill="#000000" fill-rule="nonzero" fill-opacity="1" /><path clip-path="url(#clip240)" d="M857.444 1532.02 L887.12 1532.02 L887.12 1535.95 L857.444 1535.95 L857.444 1532.02 Z" fill="#000000" fill-rule="nonzero" fill-opacity="1" /><path clip-path="url(#clip240)" d="M907.213 1517.37 Q903.602 1517.37 901.773 1520.93 Q899.967 1524.47 899.967 1531.6 Q899.967 1538.71 901.773 1542.27 Q903.602 1545.82 907.213 1545.82 Q910.847 1545.82 912.652 1542.27 Q914.481 1538.71 914.481 1531.6 Q914.481 1524.47 912.652 1520.93 Q910.847 1517.37 907.213 1517.37 M907.213 1513.66 Q913.023 1513.66 916.078 1518.27 Q919.157 1522.85 919.157 1531.6 Q919.157 1540.33 916.078 1544.94 Q913.023 1549.52 907.213 1549.52 Q901.403 1549.52 898.324 1544.94 Q895.268 1540.33 895.268 1531.6 Q895.268 1522.85 898.324 1518.27 Q901.403 1513.66 907.213 1513.66 Z" fill="#000000" fill-rule="nonzero" fill-opacity="1" /><path clip-path="url(#clip240)" d="M927.375 1542.97 L932.259 1542.97 L932.259 1548.85 L927.375 1548.85 L927.375 1542.97 Z" fill="#000000" fill-rule="nonzero" fill-opacity="1" /><path clip-path="url(#clip240)" d="M946.472 1544.91 L962.791 1544.91 L962.791 1548.85 L940.847 1548.85 L940.847 1544.91 Q943.509 1542.16 948.092 1537.53 Q952.699 1532.88 953.879 1531.53 Q956.124 1529.01 957.004 1527.27 Q957.907 1525.51 957.907 1523.82 Q957.907 1521.07 955.962 1519.33 Q954.041 1517.6 950.939 1517.6 Q948.74 1517.6 946.287 1518.36 Q943.856 1519.13 941.078 1520.68 L941.078 1515.95 Q943.902 1514.82 946.356 1514.24 Q948.81 1513.66 950.847 1513.66 Q956.217 1513.66 959.412 1516.35 Q962.606 1519.03 962.606 1523.52 Q962.606 1525.65 961.796 1527.57 Q961.009 1529.47 958.902 1532.07 Q958.324 1532.74 955.222 1535.95 Q952.12 1539.15 946.472 1544.91 Z" fill="#000000" fill-rule="nonzero" fill-opacity="1" /><path clip-path="url(#clip240)" d="M1368.5 1517.37 Q1364.89 1517.37 1363.06 1520.93 Q1361.25 1524.47 1361.25 1531.6 Q1361.25 1538.71 1363.06 1542.27 Q1364.89 1545.82 1368.5 1545.82 Q1372.13 1545.82 1373.94 1542.27 Q1375.77 1538.71 1375.77 1531.6 Q1375.77 1524.47 1373.94 1520.93 Q1372.13 1517.37 1368.5 1517.37 M1368.5 1513.66 Q1374.31 1513.66 1377.36 1518.27 Q1380.44 1522.85 1380.44 1531.6 Q1380.44 1540.33 1377.36 1544.94 Q1374.31 1549.52 1368.5 1549.52 Q1362.69 1549.52 1359.61 1544.94 Q1356.55 1540.33 1356.55 1531.6 Q1356.55 1522.85 1359.61 1518.27 Q1362.69 1513.66 1368.5 1513.66 Z" fill="#000000" fill-rule="nonzero" fill-opacity="1" /><path clip-path="url(#clip240)" d="M1388.66 1542.97 L1393.54 1542.97 L1393.54 1548.85 L1388.66 1548.85 L1388.66 1542.97 Z" fill="#000000" fill-rule="nonzero" fill-opacity="1" /><path clip-path="url(#clip240)" d="M1413.73 1517.37 Q1410.12 1517.37 1408.29 1520.93 Q1406.48 1524.47 1406.48 1531.6 Q1406.48 1538.71 1408.29 1542.27 Q1410.12 1545.82 1413.73 1545.82 Q1417.36 1545.82 1419.17 1542.27 Q1421 1538.71 1421 1531.6 Q1421 1524.47 1419.17 1520.93 Q1417.36 1517.37 1413.73 1517.37 M1413.73 1513.66 Q1419.54 1513.66 1422.6 1518.27 Q1425.67 1522.85 1425.67 1531.6 Q1425.67 1540.33 1422.6 1544.94 Q1419.54 1549.52 1413.73 1549.52 Q1407.92 1549.52 1404.84 1544.94 Q1401.79 1540.33 1401.79 1531.6 Q1401.79 1522.85 1404.84 1518.27 Q1407.92 1513.66 1413.73 1513.66 Z" fill="#000000" fill-rule="nonzero" fill-opacity="1" /><path clip-path="url(#clip240)" d="M1850.29 1517.37 Q1846.68 1517.37 1844.85 1520.93 Q1843.05 1524.47 1843.05 1531.6 Q1843.05 1538.71 1844.85 1542.27 Q1846.68 1545.82 1850.29 1545.82 Q1853.93 1545.82 1855.73 1542.27 Q1857.56 1538.71 1857.56 1531.6 Q1857.56 1524.47 1855.73 1520.93 Q1853.93 1517.37 1850.29 1517.37 M1850.29 1513.66 Q1856.1 1513.66 1859.16 1518.27 Q1862.24 1522.85 1862.24 1531.6 Q1862.24 1540.33 1859.16 1544.94 Q1856.1 1549.52 1850.29 1549.52 Q1844.48 1549.52 1841.4 1544.94 Q1838.35 1540.33 1838.35 1531.6 Q1838.35 1522.85 1841.4 1518.27 Q1844.48 1513.66 1850.29 1513.66 Z" fill="#000000" fill-rule="nonzero" fill-opacity="1" /><path clip-path="url(#clip240)" d="M1870.46 1542.97 L1875.34 1542.97 L1875.34 1548.85 L1870.46 1548.85 L1870.46 1542.97 Z" fill="#000000" fill-rule="nonzero" fill-opacity="1" /><path clip-path="url(#clip240)" d="M1889.55 1544.91 L1905.87 1544.91 L1905.87 1548.85 L1883.93 1548.85 L1883.93 1544.91 Q1886.59 1542.16 1891.17 1537.53 Q1895.78 1532.88 1896.96 1531.53 Q1899.21 1529.01 1900.09 1527.27 Q1900.99 1525.51 1900.99 1523.82 Q1900.99 1521.07 1899.04 1519.33 Q1897.12 1517.6 1894.02 1517.6 Q1891.82 1517.6 1889.37 1518.36 Q1886.94 1519.13 1884.16 1520.68 L1884.16 1515.95 Q1886.98 1514.82 1889.44 1514.24 Q1891.89 1513.66 1893.93 1513.66 Q1899.3 1513.66 1902.49 1516.35 Q1905.69 1519.03 1905.69 1523.52 Q1905.69 1525.65 1904.88 1527.57 Q1904.09 1529.47 1901.98 1532.07 Q1901.4 1532.74 1898.3 1535.95 Q1895.2 1539.15 1889.55 1544.91 Z" fill="#000000" fill-rule="nonzero" fill-opacity="1" /><polyline clip-path="url(#clip242)" style="stroke:#000000; stroke-linecap:round; stroke-linejoin:round; stroke-width:2; stroke-opacity:0.1; fill:none" points="156.598,1456.45 2352.76,1456.45 "/>
<polyline clip-path="url(#clip242)" style="stroke:#000000; stroke-linecap:round; stroke-linejoin:round; stroke-width:2; stroke-opacity:0.1; fill:none" points="156.598,1110.07 2352.76,1110.07 "/>
<polyline clip-path="url(#clip242)" style="stroke:#000000; stroke-linecap:round; stroke-linejoin:round; stroke-width:2; stroke-opacity:0.1; fill:none" points="156.598,763.697 2352.76,763.697 "/>
<polyline clip-path="url(#clip242)" style="stroke:#000000; stroke-linecap:round; stroke-linejoin:round; stroke-width:2; stroke-opacity:0.1; fill:none" points="156.598,417.321 2352.76,417.321 "/>
<polyline clip-path="url(#clip242)" style="stroke:#000000; stroke-linecap:round; stroke-linejoin:round; stroke-width:2; stroke-opacity:0.1; fill:none" points="156.598,70.9448 2352.76,70.9448 "/>
<polyline clip-path="url(#clip240)" style="stroke:#000000; stroke-linecap:round; stroke-linejoin:round; stroke-width:4; stroke-opacity:1; fill:none" points="156.598,1486.45 156.598,47.2441 "/>
<polyline clip-path="url(#clip240)" style="stroke:#000000; stroke-linecap:round; stroke-linejoin:round; stroke-width:4; stroke-opacity:1; fill:none" points="156.598,1456.45 175.496,1456.45 "/>
<polyline clip-path="url(#clip240)" style="stroke:#000000; stroke-linecap:round; stroke-linejoin:round; stroke-width:4; stroke-opacity:1; fill:none" points="156.598,1110.07 175.496,1110.07 "/>
<polyline clip-path="url(#clip240)" style="stroke:#000000; stroke-linecap:round; stroke-linejoin:round; stroke-width:4; stroke-opacity:1; fill:none" points="156.598,763.697 175.496,763.697 "/>
<polyline clip-path="url(#clip240)" style="stroke:#000000; stroke-linecap:round; stroke-linejoin:round; stroke-width:4; stroke-opacity:1; fill:none" points="156.598,417.321 175.496,417.321 "/>
<polyline clip-path="url(#clip240)" style="stroke:#000000; stroke-linecap:round; stroke-linejoin:round; stroke-width:4; stroke-opacity:1; fill:none" points="156.598,70.9448 175.496,70.9448 "/>
<path clip-path="url(#clip240)" d="M63.4226 1442.25 Q59.8115 1442.25 57.9828 1445.81 Q56.1773 1449.35 56.1773 1456.48 Q56.1773 1463.59 57.9828 1467.15 Q59.8115 1470.7 63.4226 1470.7 Q67.0569 1470.7 68.8624 1467.15 Q70.6911 1463.59 70.6911 1456.48 Q70.6911 1449.35 68.8624 1445.81 Q67.0569 1442.25 63.4226 1442.25 M63.4226 1438.54 Q69.2328 1438.54 72.2883 1443.15 Q75.367 1447.73 75.367 1456.48 Q75.367 1465.21 72.2883 1469.82 Q69.2328 1474.4 63.4226 1474.4 Q57.6125 1474.4 54.5338 1469.82 Q51.4782 1465.21 51.4782 1456.48 Q51.4782 1447.73 54.5338 1443.15 Q57.6125 1438.54 63.4226 1438.54 Z" fill="#000000" fill-rule="nonzero" fill-opacity="1" /><path clip-path="url(#clip240)" d="M83.5845 1467.85 L88.4688 1467.85 L88.4688 1473.73 L83.5845 1473.73 L83.5845 1467.85 Z" fill="#000000" fill-rule="nonzero" fill-opacity="1" /><path clip-path="url(#clip240)" d="M108.654 1442.25 Q105.043 1442.25 103.214 1445.81 Q101.409 1449.35 101.409 1456.48 Q101.409 1463.59 103.214 1467.15 Q105.043 1470.7 108.654 1470.7 Q112.288 1470.7 114.094 1467.15 Q115.922 1463.59 115.922 1456.48 Q115.922 1449.35 114.094 1445.81 Q112.288 1442.25 108.654 1442.25 M108.654 1438.54 Q114.464 1438.54 117.52 1443.15 Q120.598 1447.73 120.598 1456.48 Q120.598 1465.21 117.52 1469.82 Q114.464 1474.4 108.654 1474.4 Q102.844 1474.4 99.765 1469.82 Q96.7095 1465.21 96.7095 1456.48 Q96.7095 1447.73 99.765 1443.15 Q102.844 1438.54 108.654 1438.54 Z" fill="#000000" fill-rule="nonzero" fill-opacity="1" /><path clip-path="url(#clip240)" d="M64.6495 1095.87 Q61.0384 1095.87 59.2097 1099.44 Q57.4041 1102.98 57.4041 1110.11 Q57.4041 1117.21 59.2097 1120.78 Q61.0384 1124.32 64.6495 1124.32 Q68.2837 1124.32 70.0892 1120.78 Q71.9179 1117.21 71.9179 1110.11 Q71.9179 1102.98 70.0892 1099.44 Q68.2837 1095.87 64.6495 1095.87 M64.6495 1092.17 Q70.4596 1092.17 73.5152 1096.77 Q76.5938 1101.36 76.5938 1110.11 Q76.5938 1118.83 73.5152 1123.44 Q70.4596 1128.02 64.6495 1128.02 Q58.8393 1128.02 55.7606 1123.44 Q52.7051 1118.83 52.7051 1110.11 Q52.7051 1101.36 55.7606 1096.77 Q58.8393 1092.17 64.6495 1092.17 Z" fill="#000000" fill-rule="nonzero" fill-opacity="1" /><path clip-path="url(#clip240)" d="M84.8114 1121.47 L89.6956 1121.47 L89.6956 1127.35 L84.8114 1127.35 L84.8114 1121.47 Z" fill="#000000" fill-rule="nonzero" fill-opacity="1" /><path clip-path="url(#clip240)" d="M100.691 1123.42 L108.33 1123.42 L108.33 1097.05 L100.02 1098.72 L100.02 1094.46 L108.283 1092.79 L112.959 1092.79 L112.959 1123.42 L120.598 1123.42 L120.598 1127.35 L100.691 1127.35 L100.691 1123.42 Z" fill="#000000" fill-rule="nonzero" fill-opacity="1" /><path clip-path="url(#clip240)" d="M65.0198 749.495 Q61.4087 749.495 59.58 753.06 Q57.7745 756.602 57.7745 763.731 Q57.7745 770.838 59.58 774.403 Q61.4087 777.944 65.0198 777.944 Q68.6541 777.944 70.4596 774.403 Q72.2883 770.838 72.2883 763.731 Q72.2883 756.602 70.4596 753.06 Q68.6541 749.495 65.0198 749.495 M65.0198 745.792 Q70.83 745.792 73.8855 750.398 Q76.9642 754.982 76.9642 763.731 Q76.9642 772.458 73.8855 777.065 Q70.83 781.648 65.0198 781.648 Q59.2097 781.648 56.131 777.065 Q53.0754 772.458 53.0754 763.731 Q53.0754 754.982 56.131 750.398 Q59.2097 745.792 65.0198 745.792 Z" fill="#000000" fill-rule="nonzero" fill-opacity="1" /><path clip-path="url(#clip240)" d="M85.1818 775.097 L90.066 775.097 L90.066 780.977 L85.1818 780.977 L85.1818 775.097 Z" fill="#000000" fill-rule="nonzero" fill-opacity="1" /><path clip-path="url(#clip240)" d="M104.279 777.042 L120.598 777.042 L120.598 780.977 L98.6539 780.977 L98.6539 777.042 Q101.316 774.287 105.899 769.657 Q110.506 765.005 111.686 763.662 Q113.932 761.139 114.811 759.403 Q115.714 757.644 115.714 755.954 Q115.714 753.199 113.77 751.463 Q111.848 749.727 108.746 749.727 Q106.547 749.727 104.094 750.491 Q101.663 751.255 98.8854 752.806 L98.8854 748.083 Q101.709 746.949 104.163 746.37 Q106.617 745.792 108.654 745.792 Q114.024 745.792 117.219 748.477 Q120.413 751.162 120.413 755.653 Q120.413 757.782 119.603 759.704 Q118.816 761.602 116.709 764.194 Q116.131 764.866 113.029 768.083 Q109.927 771.278 104.279 777.042 Z" fill="#000000" fill-rule="nonzero" fill-opacity="1" /><path clip-path="url(#clip240)" d="M64.0708 403.119 Q60.4597 403.119 58.631 406.684 Q56.8254 410.226 56.8254 417.356 Q56.8254 424.462 58.631 428.027 Q60.4597 431.568 64.0708 431.568 Q67.705 431.568 69.5105 428.027 Q71.3392 424.462 71.3392 417.356 Q71.3392 410.226 69.5105 406.684 Q67.705 403.119 64.0708 403.119 M64.0708 399.416 Q69.8809 399.416 72.9365 404.022 Q76.0151 408.606 76.0151 417.356 Q76.0151 426.082 72.9365 430.689 Q69.8809 435.272 64.0708 435.272 Q58.2606 435.272 55.1819 430.689 Q52.1264 426.082 52.1264 417.356 Q52.1264 408.606 55.1819 404.022 Q58.2606 399.416 64.0708 399.416 Z" fill="#000000" fill-rule="nonzero" fill-opacity="1" /><path clip-path="url(#clip240)" d="M84.2327 428.721 L89.1169 428.721 L89.1169 434.601 L84.2327 434.601 L84.2327 428.721 Z" fill="#000000" fill-rule="nonzero" fill-opacity="1" /><path clip-path="url(#clip240)" d="M113.469 415.967 Q116.825 416.684 118.7 418.953 Q120.598 421.221 120.598 424.555 Q120.598 429.67 117.08 432.471 Q113.561 435.272 107.08 435.272 Q104.904 435.272 102.589 434.832 Q100.297 434.416 97.8437 433.559 L97.8437 429.045 Q99.7882 430.18 102.103 430.758 Q104.418 431.337 106.941 431.337 Q111.339 431.337 113.631 429.601 Q115.945 427.865 115.945 424.555 Q115.945 421.499 113.793 419.786 Q111.663 418.05 107.844 418.05 L103.816 418.05 L103.816 414.207 L108.029 414.207 Q111.478 414.207 113.307 412.842 Q115.135 411.453 115.135 408.86 Q115.135 406.198 113.237 404.786 Q111.362 403.351 107.844 403.351 Q105.922 403.351 103.723 403.768 Q101.524 404.184 98.8854 405.064 L98.8854 400.897 Q101.547 400.157 103.862 399.786 Q106.2 399.416 108.26 399.416 Q113.584 399.416 116.686 401.846 Q119.788 404.254 119.788 408.374 Q119.788 411.244 118.145 413.235 Q116.501 415.203 113.469 415.967 Z" fill="#000000" fill-rule="nonzero" fill-opacity="1" /><path clip-path="url(#clip240)" d="M62.9365 56.7435 Q59.3254 56.7435 57.4967 60.3083 Q55.6912 63.85 55.6912 70.9796 Q55.6912 78.086 57.4967 81.6508 Q59.3254 85.1924 62.9365 85.1924 Q66.5707 85.1924 68.3763 81.6508 Q70.205 78.086 70.205 70.9796 Q70.205 63.85 68.3763 60.3083 Q66.5707 56.7435 62.9365 56.7435 M62.9365 53.0398 Q68.7467 53.0398 71.8022 57.6463 Q74.8809 62.2296 74.8809 70.9796 Q74.8809 79.7064 71.8022 84.3128 Q68.7467 88.8961 62.9365 88.8961 Q57.1264 88.8961 54.0477 84.3128 Q50.9921 79.7064 50.9921 70.9796 Q50.9921 62.2296 54.0477 57.6463 Q57.1264 53.0398 62.9365 53.0398 Z" fill="#000000" fill-rule="nonzero" fill-opacity="1" /><path clip-path="url(#clip240)" d="M83.0984 82.3452 L87.9827 82.3452 L87.9827 88.2248 L83.0984 88.2248 L83.0984 82.3452 Z" fill="#000000" fill-rule="nonzero" fill-opacity="1" /><path clip-path="url(#clip240)" d="M111.015 57.7389 L99.2095 76.1879 L111.015 76.1879 L111.015 57.7389 M109.788 53.6648 L115.668 53.6648 L115.668 76.1879 L120.598 76.1879 L120.598 80.0767 L115.668 80.0767 L115.668 88.2248 L111.015 88.2248 L111.015 80.0767 L95.4132 80.0767 L95.4132 75.5629 L109.788 53.6648 Z" fill="#000000" fill-rule="nonzero" fill-opacity="1" /><circle clip-path="url(#clip242)" cx="1487.18" cy="1230.2" r="14.4" fill="#808080" fill-rule="evenodd" fill-opacity="1" stroke="#000000" stroke-opacity="1" stroke-width="3.2"/>
<circle clip-path="url(#clip242)" cx="1358.47" cy="1445.72" r="14.4" fill="#808080" fill-rule="evenodd" fill-opacity="1" stroke="#000000" stroke-opacity="1" stroke-width="3.2"/>
<circle clip-path="url(#clip242)" cx="2290.6" cy="1293.96" r="14.4" fill="#808080" fill-rule="evenodd" fill-opacity="1" stroke="#000000" stroke-opacity="1" stroke-width="3.2"/>
<circle clip-path="url(#clip242)" cx="218.754" cy="87.9763" r="14.4" fill="#808080" fill-rule="evenodd" fill-opacity="1" stroke="#000000" stroke-opacity="1" stroke-width="3.2"/>
<path clip-path="url(#clip240)" d="M1491.47 1237.63 Q1482.44 1237.63 1478.95 1239.7 Q1475.47 1241.76 1475.47 1246.74 Q1475.47 1250.71 1478.06 1253.06 Q1480.7 1255.37 1485.19 1255.37 Q1491.39 1255.37 1495.12 1251 Q1498.88 1246.58 1498.88 1239.29 L1498.88 1237.63 L1491.47 1237.63 M1506.34 1234.55 L1506.34 1260.44 L1498.88 1260.44 L1498.88 1253.55 Q1496.33 1257.68 1492.52 1259.67 Q1488.72 1261.61 1483.21 1261.61 Q1476.24 1261.61 1472.11 1257.72 Q1468.02 1253.79 1468.02 1247.23 Q1468.02 1239.57 1473.12 1235.68 Q1478.27 1231.8 1488.43 1231.8 L1498.88 1231.8 L1498.88 1231.07 Q1498.88 1225.92 1495.48 1223.13 Q1492.12 1220.29 1486 1220.29 Q1482.11 1220.29 1478.43 1221.22 Q1474.74 1222.15 1471.34 1224.02 L1471.34 1217.13 Q1475.43 1215.55 1479.28 1214.78 Q1483.13 1213.97 1486.77 1213.97 Q1496.62 1213.97 1501.48 1219.08 Q1506.34 1224.18 1506.34 1234.55 Z" fill="#000000" fill-rule="nonzero" fill-opacity="1" /><path clip-path="url(#clip240)" d="M1371.03 1453.31 Q1371.03 1445.09 1367.63 1440.43 Q1364.26 1435.73 1358.35 1435.73 Q1352.44 1435.73 1349.03 1440.43 Q1345.67 1445.09 1345.67 1453.31 Q1345.67 1461.53 1349.03 1466.23 Q1352.44 1470.89 1358.35 1470.89 Q1364.26 1470.89 1367.63 1466.23 Q1371.03 1461.53 1371.03 1453.31 M1345.67 1437.47 Q1348.02 1433.42 1351.58 1431.48 Q1355.19 1429.49 1360.17 1429.49 Q1368.44 1429.49 1373.58 1436.05 Q1378.77 1442.62 1378.77 1453.31 Q1378.77 1464.01 1373.58 1470.57 Q1368.44 1477.13 1360.17 1477.13 Q1355.19 1477.13 1351.58 1475.19 Q1348.02 1473.2 1345.67 1469.15 L1345.67 1475.96 L1338.18 1475.96 L1338.18 1412.92 L1345.67 1412.92 L1345.67 1437.47 Z" fill="#000000" fill-rule="nonzero" fill-opacity="1" /><path clip-path="url(#clip240)" d="M2308.55 1280.57 L2308.55 1287.54 Q2305.39 1285.79 2302.19 1284.94 Q2299.03 1284.05 2295.79 1284.05 Q2288.53 1284.05 2284.52 1288.67 Q2280.51 1293.25 2280.51 1301.55 Q2280.51 1309.86 2284.52 1314.47 Q2288.53 1319.05 2295.79 1319.05 Q2299.03 1319.05 2302.19 1318.2 Q2305.39 1317.31 2308.55 1315.57 L2308.55 1322.45 Q2305.43 1323.91 2302.06 1324.64 Q2298.74 1325.37 2294.98 1325.37 Q2284.73 1325.37 2278.69 1318.93 Q2272.65 1312.49 2272.65 1301.55 Q2272.65 1290.45 2278.73 1284.09 Q2284.85 1277.73 2295.46 1277.73 Q2298.9 1277.73 2302.19 1278.46 Q2305.47 1279.15 2308.55 1280.57 Z" fill="#000000" fill-rule="nonzero" fill-opacity="1" /><path clip-path="url(#clip240)" d="M231.575 79.7327 L231.575 55.1842 L239.028 55.1842 L239.028 118.216 L231.575 118.216 L231.575 111.411 Q229.225 115.462 225.62 117.447 Q222.055 119.391 217.032 119.391 Q208.809 119.391 203.624 112.829 Q198.479 106.266 198.479 95.5717 Q198.479 84.8773 203.624 78.3149 Q208.809 71.7524 217.032 71.7524 Q222.055 71.7524 225.62 73.7373 Q229.225 75.6818 231.575 79.7327 M206.176 95.5717 Q206.176 103.795 209.538 108.494 Q212.941 113.153 218.855 113.153 Q224.769 113.153 228.172 108.494 Q231.575 103.795 231.575 95.5717 Q231.575 87.3484 228.172 82.6898 Q224.769 77.9908 218.855 77.9908 Q212.941 77.9908 209.538 82.6898 Q206.176 87.3484 206.176 95.5717 Z" fill="#000000" fill-rule="nonzero" fill-opacity="1" /><path clip-path="url(#clip240)" d="M2007.5 198.898 L2279.55 198.898 L2279.55 95.2176 L2007.5 95.2176  Z" fill="#ffffff" fill-rule="evenodd" fill-opacity="1"/>
<polyline clip-path="url(#clip240)" style="stroke:#000000; stroke-linecap:round; stroke-linejoin:round; stroke-width:4; stroke-opacity:1; fill:none" points="2007.5,198.898 2279.55,198.898 2279.55,95.2176 2007.5,95.2176 2007.5,198.898 "/>
<circle clip-path="url(#clip240)" cx="2105.11" cy="147.058" r="20.48" fill="#808080" fill-rule="evenodd" fill-opacity="1" stroke="#000000" stroke-opacity="1" stroke-width="4.55111"/>
<path clip-path="url(#clip240)" d="M2216.56 166.745 Q2214.76 171.375 2213.04 172.787 Q2211.33 174.199 2208.46 174.199 L2205.06 174.199 L2205.06 170.634 L2207.56 170.634 Q2209.32 170.634 2210.29 169.8 Q2211.26 168.967 2212.44 165.865 L2213.2 163.921 L2202.72 138.412 L2207.23 138.412 L2215.33 158.689 L2223.44 138.412 L2227.95 138.412 L2216.56 166.745 Z" fill="#000000" fill-rule="nonzero" fill-opacity="1" /><path clip-path="url(#clip240)" d="M2235.24 160.402 L2242.88 160.402 L2242.88 134.037 L2234.57 135.703 L2234.57 131.444 L2242.83 129.778 L2247.51 129.778 L2247.51 160.402 L2255.15 160.402 L2255.15 164.338 L2235.24 164.338 L2235.24 160.402 Z" fill="#000000" fill-rule="nonzero" fill-opacity="1" /></svg>
