<?xml version="1.0" encoding="utf-8"?>
<svg xmlns="http://www.w3.org/2000/svg" xmlns:xlink="http://www.w3.org/1999/xlink" width="600" height="400" viewBox="0 0 2400 1600">
<defs>
  <clipPath id="clip480">
    <rect x="0" y="0" width="2400" height="1600"/>
  </clipPath>
</defs>
<path clip-path="url(#clip480)" d="M0 1600 L2400 1600 L2400 0 L0 0  Z" fill="#ffffff" fill-rule="evenodd" fill-opacity="1"/>
<defs>
  <clipPath id="clip481">
    <rect x="480" y="0" width="1681" height="1600"/>
  </clipPath>
</defs>
<path clip-path="url(#clip480)" d="M112.177 1486.45 L2352.76 1486.45 L2352.76 47.2441 L112.177 47.2441  Z" fill="#ffffff" fill-rule="evenodd" fill-opacity="1"/>
<defs>
  <clipPath id="clip482">
    <rect x="112" y="47" width="2242" height="1440"/>
  </clipPath>
</defs>
<polyline clip-path="url(#clip482)" style="stroke:#000000; stroke-linecap:round; stroke-linejoin:round; stroke-width:2; stroke-opacity:0.1; fill:none" points="546.25,1486.45 546.25,47.2441 "/>
<polyline clip-path="url(#clip482)" style="stroke:#000000; stroke-linecap:round; stroke-linejoin:round; stroke-width:2; stroke-opacity:0.1; fill:none" points="1058.24,1486.45 1058.24,47.2441 "/>
<polyline clip-path="url(#clip482)" style="stroke:#000000; stroke-linecap:round; stroke-linejoin:round; stroke-width:2; stroke-opacity:0.1; fill:none" points="1570.23,1486.45 1570.23,47.2441 "/>
<polyline clip-path="url(#clip482)" style="stroke:#000000; stroke-linecap:round; stroke-linejoin:round; stroke-width:2; stroke-opacity:0.1; fill:none" points="2082.23,1486.45 2082.23,47.2441 "/>
<polyline clip-path="url(#clip480)" style="stroke:#000000; stroke-linecap:round; stroke-linejoin:round; stroke-width:4; stroke-opacity:1; fill:none" points="112.177,1486.45 2352.76,1486.45 "/>
<polyline clip-path="url(#clip480)" style="stroke:#000000; stroke-linecap:round; stroke-linejoin:round; stroke-width:4; stroke-opacity:1; fill:none" points="546.25,1486.45 546.25,1467.55 "/>
<polyline clip-path="url(#clip480)" style="stroke:#000000; stroke-linecap:round; stroke-linejoin:round; stroke-width:4; stroke-opacity:1; fill:none" points="1058.24,1486.45 1058.24,1467.55 "/>
<polyline clip-path="url(#clip480)" style="stroke:#000000; stroke-linecap:round; stroke-linejoin:round; stroke-width:4; stroke-opacity:1; fill:none" points="1570.23,1486.45 1570.23,1467.55 "/>
<polyline clip-path="url(#clip480)" style="stroke:#000000; stroke-linecap:round; stroke-linejoin:round; stroke-width:4; stroke-opacity:1; fill:none" points="2082.23,1486.45 2082.23,1467.55 "/>
<path clip-path="url(#clip480)" d="M492.778 1532.02 L522.454 1532.02 L522.454 1535.95 L492.778 1535.95 L492.778 1532.02 Z" fill="#000000" fill-rule="nonzero" fill-opacity="1" /><path clip-path="url(#clip480)" d="M533.357 1544.91 L540.996 1544.91 L540.996 1518.55 L532.685 1520.21 L532.685 1515.95 L540.949 1514.29 L545.625 1514.29 L545.625 1544.91 L553.264 1544.91 L553.264 1548.85 L533.357 1548.85 L533.357 1544.91 Z" fill="#000000" fill-rule="nonzero" fill-opacity="1" /><path clip-path="url(#clip480)" d="M562.708 1542.97 L567.593 1542.97 L567.593 1548.85 L562.708 1548.85 L562.708 1542.97 Z" fill="#000000" fill-rule="nonzero" fill-opacity="1" /><path clip-path="url(#clip480)" d="M587.778 1517.37 Q584.167 1517.37 582.338 1520.93 Q580.532 1524.47 580.532 1531.6 Q580.532 1538.71 582.338 1542.27 Q584.167 1545.82 587.778 1545.82 Q591.412 1545.82 593.218 1542.27 Q595.046 1538.71 595.046 1531.6 Q595.046 1524.47 593.218 1520.93 Q591.412 1517.37 587.778 1517.37 M587.778 1513.66 Q593.588 1513.66 596.643 1518.27 Q599.722 1522.85 599.722 1531.6 Q599.722 1540.33 596.643 1544.94 Q593.588 1549.52 587.778 1549.52 Q581.968 1549.52 578.889 1544.94 Q575.833 1540.33 575.833 1531.6 Q575.833 1522.85 578.889 1518.27 Q581.968 1513.66 587.778 1513.66 Z" fill="#000000" fill-rule="nonzero" fill-opacity="1" /><path clip-path="url(#clip480)" d="M1005.27 1532.02 L1034.94 1532.02 L1034.94 1535.95 L1005.27 1535.95 L1005.27 1532.02 Z" fill="#000000" fill-rule="nonzero" fill-opacity="1" /><path clip-path="url(#clip480)" d="M1055.04 1517.37 Q1051.42 1517.37 1049.6 1520.93 Q1047.79 1524.47 1047.79 1531.6 Q1047.79 1538.71 1049.6 1542.27 Q1051.42 1545.82 1055.04 1545.82 Q1058.67 1545.82 1060.48 1542.27 Q1062.3 1538.71 1062.3 1531.6 Q1062.3 1524.47 1060.48 1520.93 Q1058.67 1517.37 1055.04 1517.37 M1055.04 1513.66 Q1060.85 1513.66 1063.9 1518.27 Q1066.98 1522.85 1066.98 1531.6 Q1066.98 1540.33 1063.9 1544.94 Q1060.85 1549.52 1055.04 1549.52 Q1049.23 1549.52 1046.15 1544.94 Q1043.09 1540.33 1043.09 1531.6 Q1043.09 1522.85 1046.15 1518.27 Q1049.23 1513.66 1055.04 1513.66 Z" fill="#000000" fill-rule="nonzero" fill-opacity="1" /><path clip-path="url(#clip480)" d="M1075.2 1542.97 L1080.08 1542.97 L1080.08 1548.85 L1075.2 1548.85 L1075.2 1542.97 Z" fill="#000000" fill-rule="nonzero" fill-opacity="1" /><path clip-path="url(#clip480)" d="M1090.31 1514.29 L1108.67 1514.29 L1108.67 1518.22 L1094.6 1518.22 L1094.6 1526.7 Q1095.61 1526.35 1096.63 1526.19 Q1097.65 1526 1098.67 1526 Q1104.46 1526 1107.84 1529.17 Q1111.22 1532.34 1111.22 1537.76 Q1111.22 1543.34 1107.74 1546.44 Q1104.27 1549.52 1097.95 1549.52 Q1095.78 1549.52 1093.51 1549.15 Q1091.26 1548.78 1088.86 1548.04 L1088.86 1543.34 Q1090.94 1544.47 1093.16 1545.03 Q1095.38 1545.58 1097.86 1545.58 Q1101.86 1545.58 1104.2 1543.48 Q1106.54 1541.37 1106.54 1537.76 Q1106.54 1534.15 1104.2 1532.04 Q1101.86 1529.94 1097.86 1529.94 Q1095.98 1529.94 1094.11 1530.35 Q1092.26 1530.77 1090.31 1531.65 L1090.31 1514.29 Z" fill="#000000" fill-rule="nonzero" fill-opacity="1" /><path clip-path="url(#clip480)" d="M1547.62 1517.37 Q1544.01 1517.37 1542.18 1520.93 Q1540.37 1524.47 1540.37 1531.6 Q1540.37 1538.71 1542.18 1542.27 Q1544.01 1545.82 1547.62 1545.82 Q1551.25 1545.82 1553.06 1542.27 Q1554.89 1538.71 1554.89 1531.6 Q1554.89 1524.47 1553.06 1520.93 Q1551.25 1517.37 1547.62 1517.37 M1547.62 1513.66 Q1553.43 1513.66 1556.48 1518.27 Q1559.56 1522.85 1559.56 1531.6 Q1559.56 1540.33 1556.48 1544.94 Q1553.43 1549.52 1547.62 1549.52 Q1541.81 1549.52 1538.73 1544.94 Q1535.67 1540.33 1535.67 1531.6 Q1535.67 1522.85 1538.73 1518.27 Q1541.81 1513.66 1547.62 1513.66 Z" fill="#000000" fill-rule="nonzero" fill-opacity="1" /><path clip-path="url(#clip480)" d="M1567.78 1542.97 L1572.66 1542.97 L1572.66 1548.85 L1567.78 1548.85 L1567.78 1542.97 Z" fill="#000000" fill-rule="nonzero" fill-opacity="1" /><path clip-path="url(#clip480)" d="M1592.85 1517.37 Q1589.24 1517.37 1587.41 1520.93 Q1585.6 1524.47 1585.6 1531.6 Q1585.6 1538.71 1587.41 1542.27 Q1589.24 1545.82 1592.85 1545.82 Q1596.48 1545.82 1598.29 1542.27 Q1600.12 1538.71 1600.12 1531.6 Q1600.12 1524.47 1598.29 1520.93 Q1596.48 1517.37 1592.85 1517.37 M1592.85 1513.66 Q1598.66 1513.66 1601.72 1518.27 Q1604.79 1522.85 1604.79 1531.6 Q1604.79 1540.33 1601.72 1544.94 Q1598.66 1549.52 1592.85 1549.52 Q1587.04 1549.52 1583.96 1544.94 Q1580.9 1540.33 1580.9 1531.6 Q1580.9 1522.85 1583.96 1518.27 Q1587.04 1513.66 1592.85 1513.66 Z" fill="#000000" fill-rule="nonzero" fill-opacity="1" /><path clip-path="url(#clip480)" d="M2060.11 1517.37 Q2056.5 1517.37 2054.67 1520.93 Q2052.86 1524.47 2052.86 1531.6 Q2052.86 1538.71 2054.67 1542.27 Q2056.5 1545.82 2060.11 1545.82 Q2063.74 1545.82 2065.55 1542.27 Q2067.38 1538.71 2067.38 1531.6 Q2067.38 1524.47 2065.55 1520.93 Q2063.74 1517.37 2060.11 1517.37 M2060.11 1513.66 Q2065.92 1513.66 2068.97 1518.27 Q2072.05 1522.85 2072.05 1531.6 Q2072.05 1540.33 2068.97 1544.94 Q2065.92 1549.52 2060.11 1549.52 Q2054.3 1549.52 2051.22 1544.94 Q2048.16 1540.33 2048.16 1531.6 Q2048.16 1522.85 2051.22 1518.27 Q2054.3 1513.66 2060.11 1513.66 Z" fill="#000000" fill-rule="nonzero" fill-opacity="1" /><path clip-path="url(#clip480)" d="M2080.27 1542.97 L2085.15 1542.97 L2085.15 1548.85 L2080.27 1548.85 L2080.27 1542.97 Z" fill="#000000" fill-rule="nonzero" fill-opacity="1" /><path clip-path="url(#clip480)" d="M2095.39 1514.29 L2113.74 1514.29 L2113.74 1518.22 L2099.67 1518.22 L2099.67 1526.7 Q2100.69 1526.35 2101.7 1526.19 Q2102.72 1526 2103.74 1526 Q2109.53 1526 2112.91 1529.17 Q2116.29 1532.34 2116.29 1537.76 Q2116.29 1543.34 2112.82 1546.44 Q2109.34 1549.52 2103.02 1549.52 Q2100.85 1549.52 2098.58 1549.15 Q2096.33 1548.78 2093.93 1548.04 L2093.93 1543.34 Q2096.01 1544.47 2098.23 1545.03 Q2100.45 1545.58 2102.93 1545.58 Q2106.94 1545.58 2109.27 1543.48 Q2111.61 1541.37 2111.61 1537.76 Q2111.61 1534.15 2109.27 1532.04 Q2106.94 1529.94 2102.93 1529.94 Q2101.06 1529.94 2099.18 1530.35 Q2097.33 1530.77 2095.39 1531.65 L2095.39 1514.29 Z" fill="#000000" fill-rule="nonzero" fill-opacity="1" /><polyline clip-path="url(#clip482)" style="stroke:#000000; stroke-linecap:round; stroke-linejoin:round; stroke-width:2; stroke-opacity:0.1; fill:none" points="112.177,1229.89 2352.76,1229.89 "/>
<polyline clip-path="url(#clip482)" style="stroke:#000000; stroke-linecap:round; stroke-linejoin:round; stroke-width:2; stroke-opacity:0.1; fill:none" points="112.177,954.389 2352.76,954.389 "/>
<polyline clip-path="url(#clip482)" style="stroke:#000000; stroke-linecap:round; stroke-linejoin:round; stroke-width:2; stroke-opacity:0.1; fill:none" points="112.177,678.889 2352.76,678.889 "/>
<polyline clip-path="url(#clip482)" style="stroke:#000000; stroke-linecap:round; stroke-linejoin:round; stroke-width:2; stroke-opacity:0.1; fill:none" points="112.177,403.388 2352.76,403.388 "/>
<polyline clip-path="url(#clip482)" style="stroke:#000000; stroke-linecap:round; stroke-linejoin:round; stroke-width:2; stroke-opacity:0.1; fill:none" points="112.177,127.888 2352.76,127.888 "/>
<polyline clip-path="url(#clip480)" style="stroke:#000000; stroke-linecap:round; stroke-linejoin:round; stroke-width:4; stroke-opacity:1; fill:none" points="112.177,1486.45 112.177,47.2441 "/>
<polyline clip-path="url(#clip480)" style="stroke:#000000; stroke-linecap:round; stroke-linejoin:round; stroke-width:4; stroke-opacity:1; fill:none" points="112.177,1229.89 131.075,1229.89 "/>
<polyline clip-path="url(#clip480)" style="stroke:#000000; stroke-linecap:round; stroke-linejoin:round; stroke-width:4; stroke-opacity:1; fill:none" points="112.177,954.389 131.075,954.389 "/>
<polyline clip-path="url(#clip480)" style="stroke:#000000; stroke-linecap:round; stroke-linejoin:round; stroke-width:4; stroke-opacity:1; fill:none" points="112.177,678.889 131.075,678.889 "/>
<polyline clip-path="url(#clip480)" style="stroke:#000000; stroke-linecap:round; stroke-linejoin:round; stroke-width:4; stroke-opacity:1; fill:none" points="112.177,403.388 131.075,403.388 "/>
<polyline clip-path="url(#clip480)" style="stroke:#000000; stroke-linecap:round; stroke-linejoin:round; stroke-width:4; stroke-opacity:1; fill:none" points="112.177,127.888 131.075,127.888 "/>
<path clip-path="url(#clip480)" d="M56.2699 1243.23 L63.9087 1243.23 L63.9087 1216.87 L55.5986 1218.54 L55.5986 1214.28 L63.8624 1212.61 L68.5383 1212.61 L68.5383 1243.23 L76.1772 1243.23 L76.1772 1247.17 L56.2699 1247.17 L56.2699 1243.23 Z" fill="#000000" fill-rule="nonzero" fill-opacity="1" /><path clip-path="url(#clip480)" d="M59.8578 967.734 L76.1772 967.734 L76.1772 971.669 L54.2328 971.669 L54.2328 967.734 Q56.8949 964.98 61.4782 960.35 Q66.0846 955.697 67.2652 954.355 Q69.5105 951.832 70.3902 950.095 Q71.2929 948.336 71.2929 946.646 Q71.2929 943.892 69.3485 942.156 Q67.4272 940.42 64.3254 940.42 Q62.1263 940.42 59.6726 941.183 Q57.2421 941.947 54.4643 943.498 L54.4643 938.776 Q57.2884 937.642 59.7421 937.063 Q62.1958 936.484 64.2328 936.484 Q69.6031 936.484 72.7976 939.17 Q75.992 941.855 75.992 946.345 Q75.992 948.475 75.1818 950.396 Q74.3948 952.294 72.2883 954.887 Q71.7096 955.558 68.6078 958.776 Q65.5059 961.97 59.8578 967.734 Z" fill="#000000" fill-rule="nonzero" fill-opacity="1" /><path clip-path="url(#clip480)" d="M69.0476 677.535 Q72.404 678.252 74.279 680.521 Q76.1772 682.789 76.1772 686.123 Q76.1772 691.238 72.6587 694.039 Q69.1402 696.84 62.6587 696.84 Q60.4828 696.84 58.168 696.4 Q55.8764 695.984 53.4227 695.127 L53.4227 690.613 Q55.3671 691.747 57.6819 692.326 Q59.9967 692.905 62.5198 692.905 Q66.918 692.905 69.2096 691.169 Q71.5244 689.433 71.5244 686.123 Q71.5244 683.067 69.3717 681.354 Q67.242 679.618 63.4226 679.618 L59.3949 679.618 L59.3949 675.775 L63.6078 675.775 Q67.0569 675.775 68.8855 674.41 Q70.7142 673.021 70.7142 670.428 Q70.7142 667.766 68.8161 666.354 Q66.9411 664.919 63.4226 664.919 Q61.5013 664.919 59.3023 665.336 Q57.1032 665.752 54.4643 666.632 L54.4643 662.465 Q57.1264 661.724 59.4412 661.354 Q61.7791 660.984 63.8393 660.984 Q69.1633 660.984 72.2652 663.414 Q75.367 665.822 75.367 669.942 Q75.367 672.812 73.7235 674.803 Q72.08 676.771 69.0476 677.535 Z" fill="#000000" fill-rule="nonzero" fill-opacity="1" /><path clip-path="url(#clip480)" d="M66.5939 390.182 L54.7884 408.631 L66.5939 408.631 L66.5939 390.182 M65.367 386.108 L71.2466 386.108 L71.2466 408.631 L76.1772 408.631 L76.1772 412.52 L71.2466 412.52 L71.2466 420.668 L66.5939 420.668 L66.5939 412.52 L50.9921 412.52 L50.9921 408.006 L65.367 386.108 Z" fill="#000000" fill-rule="nonzero" fill-opacity="1" /><path clip-path="url(#clip480)" d="M55.2745 110.608 L73.6309 110.608 L73.6309 114.543 L59.5569 114.543 L59.5569 123.015 Q60.5754 122.668 61.5939 122.506 Q62.6124 122.32 63.6309 122.32 Q69.418 122.32 72.7976 125.492 Q76.1772 128.663 76.1772 134.08 Q76.1772 139.658 72.705 142.76 Q69.2328 145.839 62.9134 145.839 Q60.7374 145.839 58.4689 145.468 Q56.2236 145.098 53.8162 144.357 L53.8162 139.658 Q55.8995 140.793 58.1217 141.348 Q60.3439 141.904 62.8208 141.904 Q66.8254 141.904 69.1633 139.797 Q71.5013 137.691 71.5013 134.08 Q71.5013 130.469 69.1633 128.362 Q66.8254 126.256 62.8208 126.256 Q60.9458 126.256 59.0708 126.672 Q57.2189 127.089 55.2745 127.969 L55.2745 110.608 Z" fill="#000000" fill-rule="nonzero" fill-opacity="1" /><circle clip-path="url(#clip482)" cx="2289.34" cy="1349.91" r="14.4" fill="#808080" fill-rule="evenodd" fill-opacity="1" stroke="#000000" stroke-opacity="1" stroke-width="3.2"/>
<circle clip-path="url(#clip482)" cx="175.59" cy="87.9763" r="14.4" fill="#808080" fill-rule="evenodd" fill-opacity="1" stroke="#000000" stroke-opacity="1" stroke-width="3.2"/>
<circle clip-path="url(#clip482)" cx="1562.11" cy="1445.72" r="14.4" fill="#808080" fill-rule="evenodd" fill-opacity="1" stroke="#000000" stroke-opacity="1" stroke-width="3.2"/>
<circle clip-path="url(#clip482)" cx="1481.03" cy="1420.86" r="14.4" fill="#808080" fill-rule="evenodd" fill-opacity="1" stroke="#000000" stroke-opacity="1" stroke-width="3.2"/>
<path clip-path="url(#clip480)" d="M2293.64 1357.34 Q2284.6 1357.34 2281.12 1359.41 Q2277.64 1361.47 2277.64 1366.45 Q2277.64 1370.42 2280.23 1372.77 Q2282.86 1375.08 2287.36 1375.08 Q2293.56 1375.08 2297.28 1370.71 Q2301.05 1366.29 2301.05 1359 L2301.05 1357.34 L2293.64 1357.34 M2308.5 1354.26 L2308.5 1380.15 L2301.05 1380.15 L2301.05 1373.26 Q2298.5 1377.39 2294.69 1379.38 Q2290.88 1381.32 2285.37 1381.32 Q2278.41 1381.32 2274.27 1377.43 Q2270.18 1373.5 2270.18 1366.94 Q2270.18 1359.28 2275.29 1355.4 Q2280.43 1351.51 2290.6 1351.51 L2301.05 1351.51 L2301.05 1350.78 Q2301.05 1345.63 2297.65 1342.84 Q2294.29 1340 2288.17 1340 Q2284.28 1340 2280.59 1340.93 Q2276.91 1341.87 2273.5 1343.73 L2273.5 1336.84 Q2277.6 1335.26 2281.44 1334.49 Q2285.29 1333.68 2288.94 1333.68 Q2298.78 1333.68 2303.64 1338.79 Q2308.5 1343.89 2308.5 1354.26 Z" fill="#000000" fill-rule="nonzero" fill-opacity="1" /><path clip-path="url(#clip480)" d="M188.148 95.5717 Q188.148 87.3484 184.745 82.6898 Q181.383 77.9908 175.468 77.9908 Q169.554 77.9908 166.151 82.6898 Q162.789 87.3484 162.789 95.5717 Q162.789 103.795 166.151 108.494 Q169.554 113.153 175.468 113.153 Q181.383 113.153 184.745 108.494 Q188.148 103.795 188.148 95.5717 M162.789 79.7327 Q165.138 75.6818 168.703 73.7373 Q172.309 71.7524 177.291 71.7524 Q185.555 71.7524 190.7 78.3149 Q195.885 84.8773 195.885 95.5717 Q195.885 106.266 190.7 112.829 Q185.555 119.391 177.291 119.391 Q172.309 119.391 168.703 117.447 Q165.138 115.462 162.789 111.411 L162.789 118.216 L155.295 118.216 L155.295 55.1842 L162.789 55.1842 L162.789 79.7327 Z" fill="#000000" fill-rule="nonzero" fill-opacity="1" /><path clip-path="url(#clip480)" d="M1580.06 1432.33 L1580.06 1439.3 Q1576.9 1437.55 1573.7 1436.7 Q1570.54 1435.81 1567.3 1435.81 Q1560.05 1435.81 1556.04 1440.43 Q1552.03 1445.01 1552.03 1453.31 Q1552.03 1461.62 1556.04 1466.23 Q1560.05 1470.81 1567.3 1470.81 Q1570.54 1470.81 1573.7 1469.96 Q1576.9 1469.07 1580.06 1467.33 L1580.06 1474.21 Q1576.94 1475.67 1573.58 1476.4 Q1570.26 1477.13 1566.49 1477.13 Q1556.24 1477.13 1550.2 1470.69 Q1544.17 1464.25 1544.17 1453.31 Q1544.17 1442.21 1550.25 1435.85 Q1556.36 1429.49 1566.98 1429.49 Q1570.42 1429.49 1573.7 1430.22 Q1576.98 1430.91 1580.06 1432.33 Z" fill="#000000" fill-rule="nonzero" fill-opacity="1" /><path clip-path="url(#clip480)" d="M1493.86 1412.62 L1493.86 1388.07 L1501.31 1388.07 L1501.31 1451.1 L1493.86 1451.1 L1493.86 1444.3 Q1491.51 1448.35 1487.9 1450.33 Q1484.34 1452.28 1479.31 1452.28 Q1471.09 1452.28 1465.9 1445.72 Q1460.76 1439.15 1460.76 1428.46 Q1460.76 1417.77 1465.9 1411.2 Q1471.09 1404.64 1479.31 1404.64 Q1484.34 1404.64 1487.9 1406.63 Q1491.51 1408.57 1493.86 1412.62 M1468.46 1428.46 Q1468.46 1436.68 1471.82 1441.38 Q1475.22 1446.04 1481.14 1446.04 Q1487.05 1446.04 1490.45 1441.38 Q1493.86 1436.68 1493.86 1428.46 Q1493.86 1420.24 1490.45 1415.58 Q1487.05 1410.88 1481.14 1410.88 Q1475.22 1410.88 1471.82 1415.58 Q1468.46 1420.24 1468.46 1428.46 Z" fill="#000000" fill-rule="nonzero" fill-opacity="1" /><path clip-path="url(#clip480)" d="M2001.58 198.898 L2278.07 198.898 L2278.07 95.2176 L2001.58 95.2176  Z" fill="#ffffff" fill-rule="evenodd" fill-opacity="1"/>
<polyline clip-path="url(#clip480)" style="stroke:#000000; stroke-linecap:round; stroke-linejoin:round; stroke-width:4; stroke-opacity:1; fill:none" points="2001.58,198.898 2278.07,198.898 2278.07,95.2176 2001.58,95.2176 2001.58,198.898 "/>
<circle clip-path="url(#clip480)" cx="2101.16" cy="147.058" r="20.48" fill="#808080" fill-rule="evenodd" fill-opacity="1" stroke="#000000" stroke-opacity="1" stroke-width="4.55111"/>
<path clip-path="url(#clip480)" d="M2214.59 166.745 Q2212.78 171.375 2211.07 172.787 Q2209.36 174.199 2206.49 174.199 L2203.08 174.199 L2203.08 170.634 L2205.58 170.634 Q2207.34 170.634 2208.31 169.8 Q2209.29 168.967 2210.47 165.865 L2211.23 163.921 L2200.74 138.412 L2205.26 138.412 L2213.36 158.689 L2221.46 138.412 L2225.98 138.412 L2214.59 166.745 Z" fill="#000000" fill-rule="nonzero" fill-opacity="1" /><path clip-path="url(#clip480)" d="M2233.27 160.402 L2240.91 160.402 L2240.91 134.037 L2232.6 135.703 L2232.6 131.444 L2240.86 129.778 L2245.54 129.778 L2245.54 160.402 L2253.17 160.402 L2253.17 164.338 L2233.27 164.338 L2233.27 160.402 Z" fill="#000000" fill-rule="nonzero" fill-opacity="1" /></svg>
