<?xml version="1.0" encoding="utf-8"?>
<svg xmlns="http://www.w3.org/2000/svg" xmlns:xlink="http://www.w3.org/1999/xlink" width="600" height="400" viewBox="0 0 2400 1600">
<defs>
  <clipPath id="clip640">
    <rect x="0" y="0" width="2400" height="1600"/>
  </clipPath>
</defs>
<path clip-path="url(#clip640)" d="M0 1600 L2400 1600 L2400 0 L0 0  Z" fill="#ffffff" fill-rule="evenodd" fill-opacity="1"/>
<defs>
  <clipPath id="clip641">
    <rect x="156" y="47" width="2197" height="1440"/>
  </clipPath>
</defs>
<path clip-path="url(#clip640)" d="M156.598 1486.45 L2352.76 1486.45 L2352.76 47.2441 L156.598 47.2441  Z" fill="#ffffff" fill-rule="evenodd" fill-opacity="1"/>
<polyline clip-path="url(#clip641)" style="stroke:#000000; stroke-linecap:round; stroke-linejoin:round; stroke-width:2; stroke-opacity:0.1; fill:none" points="188.669,1486.45 188.669,47.2441 "/>
<polyline clip-path="url(#clip641)" style="stroke:#000000; stroke-linecap:round; stroke-linejoin:round; stroke-width:2; stroke-opacity:0.1; fill:none" points="621.919,1486.45 621.919,47.2441 "/>
<polyline clip-path="url(#clip641)" style="stroke:#000000; stroke-linecap:round; stroke-linejoin:round; stroke-width:2; stroke-opacity:0.1; fill:none" points="1055.17,1486.45 1055.17,47.2441 "/>
<polyline clip-path="url(#clip641)" style="stroke:#000000; stroke-linecap:round; stroke-linejoin:round; stroke-width:2; stroke-opacity:0.1; fill:none" points="1488.42,1486.45 1488.42,47.2441 "/>
<polyline clip-path="url(#clip641)" style="stroke:#000000; stroke-linecap:round; stroke-linejoin:round; stroke-width:2; stroke-opacity:0.1; fill:none" points="1921.67,1486.45 1921.67,47.2441 "/>
<polyline clip-path="url(#clip641)" style="stroke:#000000; stroke-linecap:round; stroke-linejoin:round; stroke-width:2; stroke-opacity:0.1; fill:none" points="156.598,1448.19 2352.76,1448.19 "/>
<polyline clip-path="url(#clip641)" style="stroke:#000000; stroke-linecap:round; stroke-linejoin:round; stroke-width:2; stroke-opacity:0.1; fill:none" points="156.598,1214.71 2352.76,1214.71 "/>
<polyline clip-path="url(#clip641)" style="stroke:#000000; stroke-linecap:round; stroke-linejoin:round; stroke-width:2; stroke-opacity:0.1; fill:none" points="156.598,981.228 2352.76,981.228 "/>
<polyline clip-path="url(#clip641)" style="stroke:#000000; stroke-linecap:round; stroke-linejoin:round; stroke-width:2; stroke-opacity:0.1; fill:none" points="156.598,747.748 2352.76,747.748 "/>
<polyline clip-path="url(#clip641)" style="stroke:#000000; stroke-linecap:round; stroke-linejoin:round; stroke-width:2; stroke-opacity:0.1; fill:none" points="156.598,514.269 2352.76,514.269 "/>
<polyline clip-path="url(#clip641)" style="stroke:#000000; stroke-linecap:round; stroke-linejoin:round; stroke-width:2; stroke-opacity:0.1; fill:none" points="156.598,280.789 2352.76,280.789 "/>
<polyline clip-path="url(#clip641)" style="stroke:#000000; stroke-linecap:round; stroke-linejoin:round; stroke-width:2; stroke-opacity:0.1; fill:none" points="156.598,47.3093 2352.76,47.3093 "/>
<polyline clip-path="url(#clip640)" style="stroke:#000000; stroke-linecap:round; stroke-linejoin:round; stroke-width:4; stroke-opacity:1; fill:none" points="156.598,1486.45 2352.76,1486.45 "/>
<polyline clip-path="url(#clip640)" style="stroke:#000000; stroke-linecap:round; stroke-linejoin:round; stroke-width:4; stroke-opacity:1; fill:none" points="188.669,1486.45 188.669,1467.55 "/>
<polyline clip-path="url(#clip640)" style="stroke:#000000; stroke-linecap:round; stroke-linejoin:round; stroke-width:4; stroke-opacity:1; fill:none" points="621.919,1486.45 621.919,1467.55 "/>
<polyline clip-path="url(#clip640)" style="stroke:#000000; stroke-linecap:round; stroke-linejoin:round; stroke-width:4; stroke-opacity:1; fill:none" points="1055.17,1486.45 1055.17,1467.55 "/>
<polyline clip-path="url(#clip640)" style="stroke:#000000; stroke-linecap:round; stroke-linejoin:round; stroke-width:4; stroke-opacity:1; fill:none" points="1488.42,1486.45 1488.42,1467.55 "/>
<polyline clip-path="url(#clip640)" style="stroke:#000000; stroke-linecap:round; stroke-linejoin:round; stroke-width:4; stroke-opacity:1; fill:none" points="1921.67,1486.45 1921.67,1467.55 "/>
<path clip-path="url(#clip640)" d="M135.116 1532.02 L164.792 1532.02 L164.792 1535.95 L135.116 1535.95 L135.116 1532.02 Z" fill="#000000" fill-rule="nonzero" fill-opacity="1" /><path clip-path="url(#clip640)" d="M184.884 1517.37 Q181.273 1517.37 179.444 1520.93 Q177.639 1524.47 177.639 1531.6 Q177.639 1538.71 179.444 1542.27 Q181.273 1545.82 184.884 1545.82 Q188.518 1545.82 190.324 1542.27 Q192.152 1538.71 192.152 1531.6 Q192.152 1524.47 190.324 1520.93 Q188.518 1517.37 184.884 1517.37 M184.884 1513.66 Q190.694 1513.66 193.75 1518.27 Q196.828 1522.85 196.828 1531.6 Q196.828 1540.33 193.75 1544.94 Q190.694 1549.52 184.884 1549.52 Q179.074 1549.52 175.995 1544.94 Q172.94 1540.33 172.94 1531.6 Q172.94 1522.85 175.995 1518.27 Q179.074 1513.66 184.884 1513.66 Z" fill="#000000" fill-rule="nonzero" fill-opacity="1" /><path clip-path="url(#clip640)" d="M205.046 1542.97 L209.93 1542.97 L209.93 1548.85 L205.046 1548.85 L205.046 1542.97 Z" fill="#000000" fill-rule="nonzero" fill-opacity="1" /><path clip-path="url(#clip640)" d="M230.694 1529.7 Q227.546 1529.7 225.694 1531.86 Q223.865 1534.01 223.865 1537.76 Q223.865 1541.49 225.694 1543.66 Q227.546 1545.82 230.694 1545.82 Q233.842 1545.82 235.671 1543.66 Q237.523 1541.49 237.523 1537.76 Q237.523 1534.01 235.671 1531.86 Q233.842 1529.7 230.694 1529.7 M239.976 1515.05 L239.976 1519.31 Q238.217 1518.48 236.412 1518.04 Q234.629 1517.6 232.87 1517.6 Q228.24 1517.6 225.787 1520.72 Q223.356 1523.85 223.009 1530.17 Q224.375 1528.15 226.435 1527.09 Q228.495 1526 230.972 1526 Q236.18 1526 239.189 1529.17 Q242.222 1532.32 242.222 1537.76 Q242.222 1543.08 239.074 1546.3 Q235.925 1549.52 230.694 1549.52 Q224.699 1549.52 221.527 1544.94 Q218.356 1540.33 218.356 1531.6 Q218.356 1523.41 222.245 1518.55 Q226.134 1513.66 232.685 1513.66 Q234.444 1513.66 236.226 1514.01 Q238.032 1514.36 239.976 1515.05 Z" fill="#000000" fill-rule="nonzero" fill-opacity="1" /><path clip-path="url(#clip640)" d="M568.204 1532.02 L597.88 1532.02 L597.88 1535.95 L568.204 1535.95 L568.204 1532.02 Z" fill="#000000" fill-rule="nonzero" fill-opacity="1" /><path clip-path="url(#clip640)" d="M617.972 1517.37 Q614.361 1517.37 612.532 1520.93 Q610.727 1524.47 610.727 1531.6 Q610.727 1538.71 612.532 1542.27 Q614.361 1545.82 617.972 1545.82 Q621.606 1545.82 623.412 1542.27 Q625.241 1538.71 625.241 1531.6 Q625.241 1524.47 623.412 1520.93 Q621.606 1517.37 617.972 1517.37 M617.972 1513.66 Q623.782 1513.66 626.838 1518.27 Q629.916 1522.85 629.916 1531.6 Q629.916 1540.33 626.838 1544.94 Q623.782 1549.52 617.972 1549.52 Q612.162 1549.52 609.083 1544.94 Q606.028 1540.33 606.028 1531.6 Q606.028 1522.85 609.083 1518.27 Q612.162 1513.66 617.972 1513.66 Z" fill="#000000" fill-rule="nonzero" fill-opacity="1" /><path clip-path="url(#clip640)" d="M638.134 1542.97 L643.018 1542.97 L643.018 1548.85 L638.134 1548.85 L638.134 1542.97 Z" fill="#000000" fill-rule="nonzero" fill-opacity="1" /><path clip-path="url(#clip640)" d="M666.051 1518.36 L654.245 1536.81 L666.051 1536.81 L666.051 1518.36 M664.824 1514.29 L670.703 1514.29 L670.703 1536.81 L675.634 1536.81 L675.634 1540.7 L670.703 1540.7 L670.703 1548.85 L666.051 1548.85 L666.051 1540.7 L650.449 1540.7 L650.449 1536.19 L664.824 1514.29 Z" fill="#000000" fill-rule="nonzero" fill-opacity="1" /><path clip-path="url(#clip640)" d="M1002.5 1532.02 L1032.17 1532.02 L1032.17 1535.95 L1002.5 1535.95 L1002.5 1532.02 Z" fill="#000000" fill-rule="nonzero" fill-opacity="1" /><path clip-path="url(#clip640)" d="M1052.26 1517.37 Q1048.65 1517.37 1046.82 1520.93 Q1045.02 1524.47 1045.02 1531.6 Q1045.02 1538.71 1046.82 1542.27 Q1048.65 1545.82 1052.26 1545.82 Q1055.9 1545.82 1057.7 1542.27 Q1059.53 1538.71 1059.53 1531.6 Q1059.53 1524.47 1057.7 1520.93 Q1055.9 1517.37 1052.26 1517.37 M1052.26 1513.66 Q1058.07 1513.66 1061.13 1518.27 Q1064.21 1522.85 1064.21 1531.6 Q1064.21 1540.33 1061.13 1544.94 Q1058.07 1549.52 1052.26 1549.52 Q1046.45 1549.52 1043.38 1544.94 Q1040.32 1540.33 1040.32 1531.6 Q1040.32 1522.85 1043.38 1518.27 Q1046.45 1513.66 1052.26 1513.66 Z" fill="#000000" fill-rule="nonzero" fill-opacity="1" /><path clip-path="url(#clip640)" d="M1072.43 1542.97 L1077.31 1542.97 L1077.31 1548.85 L1072.43 1548.85 L1072.43 1542.97 Z" fill="#000000" fill-rule="nonzero" fill-opacity="1" /><path clip-path="url(#clip640)" d="M1091.52 1544.91 L1107.84 1544.91 L1107.84 1548.85 L1085.9 1548.85 L1085.9 1544.91 Q1088.56 1542.16 1093.14 1537.53 Q1097.75 1532.88 1098.93 1531.53 Q1101.18 1529.01 1102.06 1527.27 Q1102.96 1525.51 1102.96 1523.82 Q1102.96 1521.07 1101.01 1519.33 Q1099.09 1517.6 1095.99 1517.6 Q1093.79 1517.6 1091.34 1518.36 Q1088.91 1519.13 1086.13 1520.68 L1086.13 1515.95 Q1088.95 1514.82 1091.41 1514.24 Q1093.86 1513.66 1095.9 1513.66 Q1101.27 1513.66 1104.46 1516.35 Q1107.66 1519.03 1107.66 1523.52 Q1107.66 1525.65 1106.85 1527.57 Q1106.06 1529.47 1103.95 1532.07 Q1103.37 1532.74 1100.27 1535.95 Q1097.17 1539.15 1091.52 1544.91 Z" fill="#000000" fill-rule="nonzero" fill-opacity="1" /><path clip-path="url(#clip640)" d="M1465.8 1517.37 Q1462.19 1517.37 1460.36 1520.93 Q1458.56 1524.47 1458.56 1531.6 Q1458.56 1538.71 1460.36 1542.27 Q1462.19 1545.82 1465.8 1545.82 Q1469.44 1545.82 1471.24 1542.27 Q1473.07 1538.71 1473.07 1531.6 Q1473.07 1524.47 1471.24 1520.93 Q1469.44 1517.37 1465.8 1517.37 M1465.8 1513.66 Q1471.61 1513.66 1474.67 1518.27 Q1477.75 1522.85 1477.75 1531.6 Q1477.75 1540.33 1474.67 1544.94 Q1471.61 1549.52 1465.8 1549.52 Q1459.99 1549.52 1456.91 1544.94 Q1453.86 1540.33 1453.86 1531.6 Q1453.86 1522.85 1456.91 1518.27 Q1459.99 1513.66 1465.8 1513.66 Z" fill="#000000" fill-rule="nonzero" fill-opacity="1" /><path clip-path="url(#clip640)" d="M1485.97 1542.97 L1490.85 1542.97 L1490.85 1548.85 L1485.97 1548.85 L1485.97 1542.97 Z" fill="#000000" fill-rule="nonzero" fill-opacity="1" /><path clip-path="url(#clip640)" d="M1511.03 1517.37 Q1507.42 1517.37 1505.59 1520.93 Q1503.79 1524.47 1503.79 1531.6 Q1503.79 1538.71 1505.59 1542.27 Q1507.42 1545.82 1511.03 1545.82 Q1514.67 1545.82 1516.47 1542.27 Q1518.3 1538.71 1518.3 1531.6 Q1518.3 1524.47 1516.47 1520.93 Q1514.67 1517.37 1511.03 1517.37 M1511.03 1513.66 Q1516.84 1513.66 1519.9 1518.27 Q1522.98 1522.85 1522.98 1531.6 Q1522.98 1540.33 1519.9 1544.94 Q1516.84 1549.52 1511.03 1549.52 Q1505.22 1549.52 1502.15 1544.94 Q1499.09 1540.33 1499.09 1531.6 Q1499.09 1522.85 1502.15 1518.27 Q1505.22 1513.66 1511.03 1513.66 Z" fill="#000000" fill-rule="nonzero" fill-opacity="1" /><path clip-path="url(#clip640)" d="M1899.85 1517.37 Q1896.24 1517.37 1894.41 1520.93 Q1892.61 1524.47 1892.61 1531.6 Q1892.61 1538.71 1894.41 1542.27 Q1896.24 1545.82 1899.85 1545.82 Q1903.49 1545.82 1905.29 1542.27 Q1907.12 1538.71 1907.12 1531.6 Q1907.12 1524.47 1905.29 1520.93 Q1903.49 1517.37 1899.85 1517.37 M1899.85 1513.66 Q1905.66 1513.66 1908.72 1518.27 Q1911.8 1522.85 1911.8 1531.6 Q1911.8 1540.33 1908.72 1544.94 Q1905.66 1549.52 1899.85 1549.52 Q1894.04 1549.52 1890.96 1544.94 Q1887.91 1540.33 1887.91 1531.6 Q1887.91 1522.85 1890.96 1518.27 Q1894.04 1513.66 1899.85 1513.66 Z" fill="#000000" fill-rule="nonzero" fill-opacity="1" /><path clip-path="url(#clip640)" d="M1920.01 1542.97 L1924.9 1542.97 L1924.9 1548.85 L1920.01 1548.85 L1920.01 1542.97 Z" fill="#000000" fill-rule="nonzero" fill-opacity="1" /><path clip-path="url(#clip640)" d="M1939.11 1544.91 L1955.43 1544.91 L1955.43 1548.85 L1933.49 1548.85 L1933.49 1544.91 Q1936.15 1542.16 1940.73 1537.53 Q1945.34 1532.88 1946.52 1531.53 Q1948.76 1529.01 1949.64 1527.27 Q1950.55 1525.51 1950.55 1523.82 Q1950.55 1521.07 1948.6 1519.33 Q1946.68 1517.6 1943.58 1517.6 Q1941.38 1517.6 1938.93 1518.36 Q1936.5 1519.13 1933.72 1520.68 L1933.72 1515.95 Q1936.54 1514.82 1939 1514.24 Q1941.45 1513.66 1943.49 1513.66 Q1948.86 1513.66 1952.05 1516.35 Q1955.25 1519.03 1955.25 1523.52 Q1955.25 1525.65 1954.44 1527.57 Q1953.65 1529.47 1951.54 1532.07 Q1950.96 1532.74 1947.86 1535.95 Q1944.76 1539.15 1939.11 1544.91 Z" fill="#000000" fill-rule="nonzero" fill-opacity="1" /><polyline clip-path="url(#clip640)" style="stroke:#000000; stroke-linecap:round; stroke-linejoin:round; stroke-width:4; stroke-opacity:1; fill:none" points="156.598,1486.45 156.598,47.2441 "/>
<polyline clip-path="url(#clip640)" style="stroke:#000000; stroke-linecap:round; stroke-linejoin:round; stroke-width:4; stroke-opacity:1; fill:none" points="156.598,1448.19 175.496,1448.19 "/>
<polyline clip-path="url(#clip640)" style="stroke:#000000; stroke-linecap:round; stroke-linejoin:round; stroke-width:4; stroke-opacity:1; fill:none" points="156.598,1214.71 175.496,1214.71 "/>
<polyline clip-path="url(#clip640)" style="stroke:#000000; stroke-linecap:round; stroke-linejoin:round; stroke-width:4; stroke-opacity:1; fill:none" points="156.598,981.228 175.496,981.228 "/>
<polyline clip-path="url(#clip640)" style="stroke:#000000; stroke-linecap:round; stroke-linejoin:round; stroke-width:4; stroke-opacity:1; fill:none" points="156.598,747.748 175.496,747.748 "/>
<polyline clip-path="url(#clip640)" style="stroke:#000000; stroke-linecap:round; stroke-linejoin:round; stroke-width:4; stroke-opacity:1; fill:none" points="156.598,514.269 175.496,514.269 "/>
<polyline clip-path="url(#clip640)" style="stroke:#000000; stroke-linecap:round; stroke-linejoin:round; stroke-width:4; stroke-opacity:1; fill:none" points="156.598,280.789 175.496,280.789 "/>
<polyline clip-path="url(#clip640)" style="stroke:#000000; stroke-linecap:round; stroke-linejoin:round; stroke-width:4; stroke-opacity:1; fill:none" points="156.598,47.3093 175.496,47.3093 "/>
<path clip-path="url(#clip640)" d="M63.4226 1433.99 Q59.8115 1433.99 57.9828 1437.55 Q56.1773 1441.09 56.1773 1448.22 Q56.1773 1455.33 57.9828 1458.89 Q59.8115 1462.43 63.4226 1462.43 Q67.0569 1462.43 68.8624 1458.89 Q70.6911 1455.33 70.6911 1448.22 Q70.6911 1441.09 68.8624 1437.55 Q67.0569 1433.99 63.4226 1433.99 M63.4226 1430.28 Q69.2328 1430.28 72.2883 1434.89 Q75.367 1439.47 75.367 1448.22 Q75.367 1456.95 72.2883 1461.55 Q69.2328 1466.14 63.4226 1466.14 Q57.6125 1466.14 54.5338 1461.55 Q51.4782 1456.95 51.4782 1448.22 Q51.4782 1439.47 54.5338 1434.89 Q57.6125 1430.28 63.4226 1430.28 Z" fill="#000000" fill-rule="nonzero" fill-opacity="1" /><path clip-path="url(#clip640)" d="M83.5845 1459.59 L88.4688 1459.59 L88.4688 1465.47 L83.5845 1465.47 L83.5845 1459.59 Z" fill="#000000" fill-rule="nonzero" fill-opacity="1" /><path clip-path="url(#clip640)" d="M108.654 1433.99 Q105.043 1433.99 103.214 1437.55 Q101.409 1441.09 101.409 1448.22 Q101.409 1455.33 103.214 1458.89 Q105.043 1462.43 108.654 1462.43 Q112.288 1462.43 114.094 1458.89 Q115.922 1455.33 115.922 1448.22 Q115.922 1441.09 114.094 1437.55 Q112.288 1433.99 108.654 1433.99 M108.654 1430.28 Q114.464 1430.28 117.52 1434.89 Q120.598 1439.47 120.598 1448.22 Q120.598 1456.95 117.52 1461.55 Q114.464 1466.14 108.654 1466.14 Q102.844 1466.14 99.765 1461.55 Q96.7095 1456.95 96.7095 1448.22 Q96.7095 1439.47 99.765 1434.89 Q102.844 1430.28 108.654 1430.28 Z" fill="#000000" fill-rule="nonzero" fill-opacity="1" /><path clip-path="url(#clip640)" d="M64.6495 1200.51 Q61.0384 1200.51 59.2097 1204.07 Q57.4041 1207.61 57.4041 1214.74 Q57.4041 1221.85 59.2097 1225.41 Q61.0384 1228.95 64.6495 1228.95 Q68.2837 1228.95 70.0892 1225.41 Q71.9179 1221.85 71.9179 1214.74 Q71.9179 1207.61 70.0892 1204.07 Q68.2837 1200.51 64.6495 1200.51 M64.6495 1196.8 Q70.4596 1196.8 73.5152 1201.41 Q76.5938 1205.99 76.5938 1214.74 Q76.5938 1223.47 73.5152 1228.08 Q70.4596 1232.66 64.6495 1232.66 Q58.8393 1232.66 55.7606 1228.08 Q52.7051 1223.47 52.7051 1214.74 Q52.7051 1205.99 55.7606 1201.41 Q58.8393 1196.8 64.6495 1196.8 Z" fill="#000000" fill-rule="nonzero" fill-opacity="1" /><path clip-path="url(#clip640)" d="M84.8114 1226.11 L89.6956 1226.11 L89.6956 1231.99 L84.8114 1231.99 L84.8114 1226.11 Z" fill="#000000" fill-rule="nonzero" fill-opacity="1" /><path clip-path="url(#clip640)" d="M100.691 1228.05 L108.33 1228.05 L108.33 1201.69 L100.02 1203.35 L100.02 1199.09 L108.283 1197.43 L112.959 1197.43 L112.959 1228.05 L120.598 1228.05 L120.598 1231.99 L100.691 1231.99 L100.691 1228.05 Z" fill="#000000" fill-rule="nonzero" fill-opacity="1" /><path clip-path="url(#clip640)" d="M65.0198 967.026 Q61.4087 967.026 59.58 970.591 Q57.7745 974.133 57.7745 981.262 Q57.7745 988.369 59.58 991.934 Q61.4087 995.475 65.0198 995.475 Q68.6541 995.475 70.4596 991.934 Q72.2883 988.369 72.2883 981.262 Q72.2883 974.133 70.4596 970.591 Q68.6541 967.026 65.0198 967.026 M65.0198 963.323 Q70.83 963.323 73.8855 967.929 Q76.9642 972.513 76.9642 981.262 Q76.9642 989.989 73.8855 994.596 Q70.83 999.179 65.0198 999.179 Q59.2097 999.179 56.131 994.596 Q53.0754 989.989 53.0754 981.262 Q53.0754 972.513 56.131 967.929 Q59.2097 963.323 65.0198 963.323 Z" fill="#000000" fill-rule="nonzero" fill-opacity="1" /><path clip-path="url(#clip640)" d="M85.1818 992.628 L90.066 992.628 L90.066 998.508 L85.1818 998.508 L85.1818 992.628 Z" fill="#000000" fill-rule="nonzero" fill-opacity="1" /><path clip-path="url(#clip640)" d="M104.279 994.573 L120.598 994.573 L120.598 998.508 L98.6539 998.508 L98.6539 994.573 Q101.316 991.818 105.899 987.188 Q110.506 982.536 111.686 981.193 Q113.932 978.67 114.811 976.934 Q115.714 975.175 115.714 973.485 Q115.714 970.73 113.77 968.994 Q111.848 967.258 108.746 967.258 Q106.547 967.258 104.094 968.022 Q101.663 968.786 98.8854 970.337 L98.8854 965.614 Q101.709 964.48 104.163 963.901 Q106.617 963.323 108.654 963.323 Q114.024 963.323 117.219 966.008 Q120.413 968.693 120.413 973.184 Q120.413 975.313 119.603 977.235 Q118.816 979.133 116.709 981.725 Q116.131 982.397 113.029 985.614 Q109.927 988.809 104.279 994.573 Z" fill="#000000" fill-rule="nonzero" fill-opacity="1" /><path clip-path="url(#clip640)" d="M64.0708 733.547 Q60.4597 733.547 58.631 737.112 Q56.8254 740.653 56.8254 747.783 Q56.8254 754.889 58.631 758.454 Q60.4597 761.996 64.0708 761.996 Q67.705 761.996 69.5105 758.454 Q71.3392 754.889 71.3392 747.783 Q71.3392 740.653 69.5105 737.112 Q67.705 733.547 64.0708 733.547 M64.0708 729.843 Q69.8809 729.843 72.9365 734.45 Q76.0151 739.033 76.0151 747.783 Q76.0151 756.51 72.9365 761.116 Q69.8809 765.699 64.0708 765.699 Q58.2606 765.699 55.1819 761.116 Q52.1264 756.51 52.1264 747.783 Q52.1264 739.033 55.1819 734.45 Q58.2606 729.843 64.0708 729.843 Z" fill="#000000" fill-rule="nonzero" fill-opacity="1" /><path clip-path="url(#clip640)" d="M84.2327 759.149 L89.1169 759.149 L89.1169 765.028 L84.2327 765.028 L84.2327 759.149 Z" fill="#000000" fill-rule="nonzero" fill-opacity="1" /><path clip-path="url(#clip640)" d="M113.469 746.394 Q116.825 747.112 118.7 749.38 Q120.598 751.649 120.598 754.982 Q120.598 760.098 117.08 762.899 Q113.561 765.699 107.08 765.699 Q104.904 765.699 102.589 765.26 Q100.297 764.843 97.8437 763.986 L97.8437 759.473 Q99.7882 760.607 102.103 761.186 Q104.418 761.764 106.941 761.764 Q111.339 761.764 113.631 760.028 Q115.945 758.292 115.945 754.982 Q115.945 751.926 113.793 750.213 Q111.663 748.477 107.844 748.477 L103.816 748.477 L103.816 744.635 L108.029 744.635 Q111.478 744.635 113.307 743.269 Q115.135 741.88 115.135 739.288 Q115.135 736.626 113.237 735.213 Q111.362 733.778 107.844 733.778 Q105.922 733.778 103.723 734.195 Q101.524 734.612 98.8854 735.491 L98.8854 731.325 Q101.547 730.584 103.862 730.214 Q106.2 729.843 108.26 729.843 Q113.584 729.843 116.686 732.274 Q119.788 734.681 119.788 738.801 Q119.788 741.672 118.145 743.663 Q116.501 745.63 113.469 746.394 Z" fill="#000000" fill-rule="nonzero" fill-opacity="1" /><path clip-path="url(#clip640)" d="M62.9365 500.067 Q59.3254 500.067 57.4967 503.632 Q55.6912 507.174 55.6912 514.303 Q55.6912 521.41 57.4967 524.974 Q59.3254 528.516 62.9365 528.516 Q66.5707 528.516 68.3763 524.974 Q70.205 521.41 70.205 514.303 Q70.205 507.174 68.3763 503.632 Q66.5707 500.067 62.9365 500.067 M62.9365 496.364 Q68.7467 496.364 71.8022 500.97 Q74.8809 505.553 74.8809 514.303 Q74.8809 523.03 71.8022 527.637 Q68.7467 532.22 62.9365 532.22 Q57.1264 532.22 54.0477 527.637 Q50.9921 523.03 50.9921 514.303 Q50.9921 505.553 54.0477 500.97 Q57.1264 496.364 62.9365 496.364 Z" fill="#000000" fill-rule="nonzero" fill-opacity="1" /><path clip-path="url(#clip640)" d="M83.0984 525.669 L87.9827 525.669 L87.9827 531.549 L83.0984 531.549 L83.0984 525.669 Z" fill="#000000" fill-rule="nonzero" fill-opacity="1" /><path clip-path="url(#clip640)" d="M111.015 501.063 L99.2095 519.512 L111.015 519.512 L111.015 501.063 M109.788 496.989 L115.668 496.989 L115.668 519.512 L120.598 519.512 L120.598 523.4 L115.668 523.4 L115.668 531.549 L111.015 531.549 L111.015 523.4 L95.4132 523.4 L95.4132 518.887 L109.788 496.989 Z" fill="#000000" fill-rule="nonzero" fill-opacity="1" /><path clip-path="url(#clip640)" d="M64.418 266.588 Q60.8069 266.588 58.9782 270.152 Q57.1726 273.694 57.1726 280.824 Q57.1726 287.93 58.9782 291.495 Q60.8069 295.037 64.418 295.037 Q68.0522 295.037 69.8578 291.495 Q71.6865 287.93 71.6865 280.824 Q71.6865 273.694 69.8578 270.152 Q68.0522 266.588 64.418 266.588 M64.418 262.884 Q70.2281 262.884 73.2837 267.49 Q76.3624 272.074 76.3624 280.824 Q76.3624 289.55 73.2837 294.157 Q70.2281 298.74 64.418 298.74 Q58.6078 298.74 55.5291 294.157 Q52.4736 289.55 52.4736 280.824 Q52.4736 272.074 55.5291 267.49 Q58.6078 262.884 64.418 262.884 Z" fill="#000000" fill-rule="nonzero" fill-opacity="1" /><path clip-path="url(#clip640)" d="M84.5799 292.189 L89.4641 292.189 L89.4641 298.069 L84.5799 298.069 L84.5799 292.189 Z" fill="#000000" fill-rule="nonzero" fill-opacity="1" /><path clip-path="url(#clip640)" d="M99.6956 263.509 L118.052 263.509 L118.052 267.444 L103.978 267.444 L103.978 275.916 Q104.996 275.569 106.015 275.407 Q107.033 275.222 108.052 275.222 Q113.839 275.222 117.219 278.393 Q120.598 281.564 120.598 286.981 Q120.598 292.56 117.126 295.662 Q113.654 298.74 107.334 298.74 Q105.159 298.74 102.89 298.37 Q100.645 297.999 98.2372 297.259 L98.2372 292.56 Q100.321 293.694 102.543 294.249 Q104.765 294.805 107.242 294.805 Q111.246 294.805 113.584 292.699 Q115.922 290.592 115.922 286.981 Q115.922 283.37 113.584 281.263 Q111.246 279.157 107.242 279.157 Q105.367 279.157 103.492 279.574 Q101.64 279.99 99.6956 280.87 L99.6956 263.509 Z" fill="#000000" fill-rule="nonzero" fill-opacity="1" /><path clip-path="url(#clip640)" d="M63.2606 33.108 Q59.6495 33.108 57.8208 36.6728 Q56.0152 40.2144 56.0152 47.344 Q56.0152 54.4505 57.8208 58.0153 Q59.6495 61.5569 63.2606 61.5569 Q66.8948 61.5569 68.7004 58.0153 Q70.5291 54.4505 70.5291 47.344 Q70.5291 40.2144 68.7004 36.6728 Q66.8948 33.108 63.2606 33.108 M63.2606 29.4043 Q69.0707 29.4043 72.1263 34.0107 Q75.205 38.5941 75.205 47.344 Q75.205 56.0708 72.1263 60.6773 Q69.0707 65.2606 63.2606 65.2606 Q57.4504 65.2606 54.3717 60.6773 Q51.3162 56.0708 51.3162 47.344 Q51.3162 38.5941 54.3717 34.0107 Q57.4504 29.4043 63.2606 29.4043 Z" fill="#000000" fill-rule="nonzero" fill-opacity="1" /><path clip-path="url(#clip640)" d="M83.4225 58.7097 L88.3067 58.7097 L88.3067 64.5893 L83.4225 64.5893 L83.4225 58.7097 Z" fill="#000000" fill-rule="nonzero" fill-opacity="1" /><path clip-path="url(#clip640)" d="M109.071 45.4459 Q105.922 45.4459 104.071 47.5986 Q102.242 49.7514 102.242 53.5014 Q102.242 57.2282 104.071 59.4041 Q105.922 61.5569 109.071 61.5569 Q112.219 61.5569 114.047 59.4041 Q115.899 57.2282 115.899 53.5014 Q115.899 49.7514 114.047 47.5986 Q112.219 45.4459 109.071 45.4459 M118.353 30.7932 L118.353 35.0524 Q116.594 34.2191 114.788 33.7793 Q113.006 33.3395 111.246 33.3395 Q106.617 33.3395 104.163 36.4644 Q101.733 39.5894 101.385 45.9088 Q102.751 43.895 104.811 42.8301 Q106.871 41.7422 109.348 41.7422 Q114.557 41.7422 117.566 44.9135 Q120.598 48.0616 120.598 53.5014 Q120.598 58.8254 117.45 62.043 Q114.302 65.2606 109.071 65.2606 Q103.075 65.2606 99.9039 60.6773 Q96.7326 56.0708 96.7326 47.344 Q96.7326 39.1496 100.621 34.2885 Q104.51 29.4043 111.061 29.4043 Q112.82 29.4043 114.603 29.7515 Q116.408 30.0987 118.353 30.7932 Z" fill="#000000" fill-rule="nonzero" fill-opacity="1" /><circle clip-path="url(#clip641)" cx="1519.12" cy="1374.98" r="14.4" fill="#808080" fill-rule="evenodd" fill-opacity="1" stroke="#000000" stroke-opacity="1" stroke-width="3.2"/>
<circle clip-path="url(#clip641)" cx="1451.51" cy="1445.72" r="14.4" fill="#808080" fill-rule="evenodd" fill-opacity="1" stroke="#000000" stroke-opacity="1" stroke-width="3.2"/>
<circle clip-path="url(#clip641)" cx="2290.6" cy="1347.39" r="14.4" fill="#808080" fill-rule="evenodd" fill-opacity="1" stroke="#000000" stroke-opacity="1" stroke-width="3.2"/>
<circle clip-path="url(#clip641)" cx="218.754" cy="87.9763" r="14.4" fill="#808080" fill-rule="evenodd" fill-opacity="1" stroke="#000000" stroke-opacity="1" stroke-width="3.2"/>
<path clip-path="url(#clip640)" d="M1523.42 1382.41 Q1514.39 1382.41 1510.9 1384.48 Q1507.42 1386.54 1507.42 1391.52 Q1507.42 1395.49 1510.01 1397.84 Q1512.64 1400.15 1517.14 1400.15 Q1523.34 1400.15 1527.06 1395.78 Q1530.83 1391.36 1530.83 1384.07 L1530.83 1382.41 L1523.42 1382.41 M1538.29 1379.33 L1538.29 1405.22 L1530.83 1405.22 L1530.83 1398.33 Q1528.28 1402.46 1524.47 1404.45 Q1520.66 1406.39 1515.16 1406.39 Q1508.19 1406.39 1504.06 1402.5 Q1499.96 1398.57 1499.96 1392.01 Q1499.96 1384.35 1505.07 1380.47 Q1510.21 1376.58 1520.38 1376.58 L1530.83 1376.58 L1530.83 1375.85 Q1530.83 1370.7 1527.43 1367.91 Q1524.07 1365.07 1517.95 1365.07 Q1514.06 1365.07 1510.38 1366 Q1506.69 1366.94 1503.29 1368.8 L1503.29 1361.91 Q1507.38 1360.33 1511.23 1359.56 Q1515.07 1358.75 1518.72 1358.75 Q1528.56 1358.75 1533.42 1363.86 Q1538.29 1368.96 1538.29 1379.33 Z" fill="#000000" fill-rule="nonzero" fill-opacity="1" /><path clip-path="url(#clip640)" d="M1464.07 1453.31 Q1464.07 1445.09 1460.66 1440.43 Q1457.3 1435.73 1451.39 1435.73 Q1445.47 1435.73 1442.07 1440.43 Q1438.71 1445.09 1438.71 1453.31 Q1438.71 1461.53 1442.07 1466.23 Q1445.47 1470.89 1451.39 1470.89 Q1457.3 1470.89 1460.66 1466.23 Q1464.07 1461.53 1464.07 1453.31 M1438.71 1437.47 Q1441.06 1433.42 1444.62 1431.48 Q1448.23 1429.49 1453.21 1429.49 Q1461.47 1429.49 1466.62 1436.05 Q1471.8 1442.62 1471.8 1453.31 Q1471.8 1464.01 1466.62 1470.57 Q1461.47 1477.13 1453.21 1477.13 Q1448.23 1477.13 1444.62 1475.19 Q1441.06 1473.2 1438.71 1469.15 L1438.71 1475.96 L1431.21 1475.96 L1431.21 1412.92 L1438.71 1412.92 L1438.71 1437.47 Z" fill="#000000" fill-rule="nonzero" fill-opacity="1" /><path clip-path="url(#clip640)" d="M2308.55 1334 L2308.55 1340.96 Q2305.39 1339.22 2302.19 1338.37 Q2299.03 1337.48 2295.79 1337.48 Q2288.53 1337.48 2284.52 1342.1 Q2280.51 1346.68 2280.51 1354.98 Q2280.51 1363.28 2284.52 1367.9 Q2288.53 1372.48 2295.79 1372.48 Q2299.03 1372.48 2302.19 1371.63 Q2305.39 1370.74 2308.55 1369 L2308.55 1375.88 Q2305.43 1377.34 2302.06 1378.07 Q2298.74 1378.8 2294.98 1378.8 Q2284.73 1378.8 2278.69 1372.36 Q2272.65 1365.92 2272.65 1354.98 Q2272.65 1343.88 2278.73 1337.52 Q2284.85 1331.16 2295.46 1331.16 Q2298.9 1331.16 2302.19 1331.89 Q2305.47 1332.58 2308.55 1334 Z" fill="#000000" fill-rule="nonzero" fill-opacity="1" /><path clip-path="url(#clip640)" d="M231.575 79.7327 L231.575 55.1842 L239.028 55.1842 L239.028 118.216 L231.575 118.216 L231.575 111.411 Q229.225 115.462 225.62 117.447 Q222.055 119.391 217.032 119.391 Q208.809 119.391 203.624 112.829 Q198.479 106.266 198.479 95.5717 Q198.479 84.8773 203.624 78.3149 Q208.809 71.7524 217.032 71.7524 Q222.055 71.7524 225.62 73.7373 Q229.225 75.6818 231.575 79.7327 M206.176 95.5717 Q206.176 103.795 209.538 108.494 Q212.941 113.153 218.855 113.153 Q224.769 113.153 228.172 108.494 Q231.575 103.795 231.575 95.5717 Q231.575 87.3484 228.172 82.6898 Q224.769 77.9908 218.855 77.9908 Q212.941 77.9908 209.538 82.6898 Q206.176 87.3484 206.176 95.5717 Z" fill="#000000" fill-rule="nonzero" fill-opacity="1" /><path clip-path="url(#clip640)" d="M2007.5 198.898 L2279.55 198.898 L2279.55 95.2176 L2007.5 95.2176  Z" fill="#ffffff" fill-rule="evenodd" fill-opacity="1"/>
<polyline clip-path="url(#clip640)" style="stroke:#000000; stroke-linecap:round; stroke-linejoin:round; stroke-width:4; stroke-opacity:1; fill:none" points="2007.5,198.898 2279.55,198.898 2279.55,95.2176 2007.5,95.2176 2007.5,198.898 "/>
<circle clip-path="url(#clip640)" cx="2105.11" cy="147.058" r="20.48" fill="#808080" fill-rule="evenodd" fill-opacity="1" stroke="#000000" stroke-opacity="1" stroke-width="4.55111"/>
<path clip-path="url(#clip640)" d="M2216.56 166.745 Q2214.76 171.375 2213.04 172.787 Q2211.33 174.199 2208.46 174.199 L2205.06 174.199 L2205.06 170.634 L2207.56 170.634 Q2209.32 170.634 2210.29 169.8 Q2211.26 168.967 2212.44 165.865 L2213.2 163.921 L2202.72 138.412 L2207.23 138.412 L2215.33 158.689 L2223.44 138.412 L2227.95 138.412 L2216.56 166.745 Z" fill="#000000" fill-rule="nonzero" fill-opacity="1" /><path clip-path="url(#clip640)" d="M2235.24 160.402 L2242.88 160.402 L2242.88 134.037 L2234.57 135.703 L2234.57 131.444 L2242.83 129.778 L2247.51 129.778 L2247.51 160.402 L2255.15 160.402 L2255.15 164.338 L2235.24 164.338 L2235.24 160.402 Z" fill="#000000" fill-rule="nonzero" fill-opacity="1" /></svg>
