<?xml version="1.0" encoding="utf-8"?>
<svg xmlns="http://www.w3.org/2000/svg" xmlns:xlink="http://www.w3.org/1999/xlink" width="600" height="400" viewBox="0 0 2400 1600">
<defs>
  <clipPath id="clip670">
    <rect x="0" y="0" width="2400" height="1600"/>
  </clipPath>
</defs>
<path clip-path="url(#clip670)" d="M0 1600 L2400 1600 L2400 0 L0 0  Z" fill="#ffffff" fill-rule="evenodd" fill-opacity="1"/>
<defs>
  <clipPath id="clip671">
    <rect x="112" y="47" width="2242" height="1440"/>
  </clipPath>
</defs>
<path clip-path="url(#clip670)" d="M112.177 1486.45 L2352.76 1486.45 L2352.76 47.2441 L112.177 47.2441  Z" fill="#ffffff" fill-rule="evenodd" fill-opacity="1"/>
<polyline clip-path="url(#clip671)" style="stroke:#000000; stroke-linecap:round; stroke-linejoin:round; stroke-width:2; stroke-opacity:0.1; fill:none" points="501.549,1486.45 501.549,47.2441 "/>
<polyline clip-path="url(#clip671)" style="stroke:#000000; stroke-linecap:round; stroke-linejoin:round; stroke-width:2; stroke-opacity:0.1; fill:none" points="896.744,1486.45 896.744,47.2441 "/>
<polyline clip-path="url(#clip671)" style="stroke:#000000; stroke-linecap:round; stroke-linejoin:round; stroke-width:2; stroke-opacity:0.1; fill:none" points="1291.94,1486.45 1291.94,47.2441 "/>
<polyline clip-path="url(#clip671)" style="stroke:#000000; stroke-linecap:round; stroke-linejoin:round; stroke-width:2; stroke-opacity:0.1; fill:none" points="1687.13,1486.45 1687.13,47.2441 "/>
<polyline clip-path="url(#clip671)" style="stroke:#000000; stroke-linecap:round; stroke-linejoin:round; stroke-width:2; stroke-opacity:0.1; fill:none" points="2082.33,1486.45 2082.33,47.2441 "/>
<polyline clip-path="url(#clip671)" style="stroke:#000000; stroke-linecap:round; stroke-linejoin:round; stroke-width:2; stroke-opacity:0.1; fill:none" points="112.177,1483.4 2352.76,1483.4 "/>
<polyline clip-path="url(#clip671)" style="stroke:#000000; stroke-linecap:round; stroke-linejoin:round; stroke-width:2; stroke-opacity:0.1; fill:none" points="112.177,1109.64 2352.76,1109.64 "/>
<polyline clip-path="url(#clip671)" style="stroke:#000000; stroke-linecap:round; stroke-linejoin:round; stroke-width:2; stroke-opacity:0.1; fill:none" points="112.177,735.873 2352.76,735.873 "/>
<polyline clip-path="url(#clip671)" style="stroke:#000000; stroke-linecap:round; stroke-linejoin:round; stroke-width:2; stroke-opacity:0.1; fill:none" points="112.177,362.11 2352.76,362.11 "/>
<polyline clip-path="url(#clip670)" style="stroke:#000000; stroke-linecap:round; stroke-linejoin:round; stroke-width:4; stroke-opacity:1; fill:none" points="112.177,1486.45 2352.76,1486.45 "/>
<polyline clip-path="url(#clip670)" style="stroke:#000000; stroke-linecap:round; stroke-linejoin:round; stroke-width:4; stroke-opacity:1; fill:none" points="501.549,1486.45 501.549,1467.55 "/>
<polyline clip-path="url(#clip670)" style="stroke:#000000; stroke-linecap:round; stroke-linejoin:round; stroke-width:4; stroke-opacity:1; fill:none" points="896.744,1486.45 896.744,1467.55 "/>
<polyline clip-path="url(#clip670)" style="stroke:#000000; stroke-linecap:round; stroke-linejoin:round; stroke-width:4; stroke-opacity:1; fill:none" points="1291.94,1486.45 1291.94,1467.55 "/>
<polyline clip-path="url(#clip670)" style="stroke:#000000; stroke-linecap:round; stroke-linejoin:round; stroke-width:4; stroke-opacity:1; fill:none" points="1687.13,1486.45 1687.13,1467.55 "/>
<polyline clip-path="url(#clip670)" style="stroke:#000000; stroke-linecap:round; stroke-linejoin:round; stroke-width:4; stroke-opacity:1; fill:none" points="2082.33,1486.45 2082.33,1467.55 "/>
<path clip-path="url(#clip670)" d="M448.575 1532.02 L478.251 1532.02 L478.251 1535.95 L448.575 1535.95 L448.575 1532.02 Z" fill="#000000" fill-rule="nonzero" fill-opacity="1" /><path clip-path="url(#clip670)" d="M489.154 1544.91 L496.793 1544.91 L496.793 1518.55 L488.482 1520.21 L488.482 1515.95 L496.746 1514.29 L501.422 1514.29 L501.422 1544.91 L509.061 1544.91 L509.061 1548.85 L489.154 1548.85 L489.154 1544.91 Z" fill="#000000" fill-rule="nonzero" fill-opacity="1" /><path clip-path="url(#clip670)" d="M518.505 1542.97 L523.39 1542.97 L523.39 1548.85 L518.505 1548.85 L518.505 1542.97 Z" fill="#000000" fill-rule="nonzero" fill-opacity="1" /><path clip-path="url(#clip670)" d="M533.621 1514.29 L551.977 1514.29 L551.977 1518.22 L537.903 1518.22 L537.903 1526.7 Q538.922 1526.35 539.94 1526.19 Q540.959 1526 541.978 1526 Q547.765 1526 551.144 1529.17 Q554.524 1532.34 554.524 1537.76 Q554.524 1543.34 551.052 1546.44 Q547.579 1549.52 541.26 1549.52 Q539.084 1549.52 536.816 1549.15 Q534.57 1548.78 532.163 1548.04 L532.163 1543.34 Q534.246 1544.47 536.468 1545.03 Q538.691 1545.58 541.167 1545.58 Q545.172 1545.58 547.51 1543.48 Q549.848 1541.37 549.848 1537.76 Q549.848 1534.15 547.51 1532.04 Q545.172 1529.94 541.167 1529.94 Q539.292 1529.94 537.417 1530.35 Q535.566 1530.77 533.621 1531.65 L533.621 1514.29 Z" fill="#000000" fill-rule="nonzero" fill-opacity="1" /><path clip-path="url(#clip670)" d="M843.272 1532.02 L872.948 1532.02 L872.948 1535.95 L843.272 1535.95 L843.272 1532.02 Z" fill="#000000" fill-rule="nonzero" fill-opacity="1" /><path clip-path="url(#clip670)" d="M883.851 1544.91 L891.489 1544.91 L891.489 1518.55 L883.179 1520.21 L883.179 1515.95 L891.443 1514.29 L896.119 1514.29 L896.119 1544.91 L903.758 1544.91 L903.758 1548.85 L883.851 1548.85 L883.851 1544.91 Z" fill="#000000" fill-rule="nonzero" fill-opacity="1" /><path clip-path="url(#clip670)" d="M913.202 1542.97 L918.087 1542.97 L918.087 1548.85 L913.202 1548.85 L913.202 1542.97 Z" fill="#000000" fill-rule="nonzero" fill-opacity="1" /><path clip-path="url(#clip670)" d="M938.272 1517.37 Q934.661 1517.37 932.832 1520.93 Q931.026 1524.47 931.026 1531.6 Q931.026 1538.71 932.832 1542.27 Q934.661 1545.82 938.272 1545.82 Q941.906 1545.82 943.711 1542.27 Q945.54 1538.71 945.54 1531.6 Q945.54 1524.47 943.711 1520.93 Q941.906 1517.37 938.272 1517.37 M938.272 1513.66 Q944.082 1513.66 947.137 1518.27 Q950.216 1522.85 950.216 1531.6 Q950.216 1540.33 947.137 1544.94 Q944.082 1549.52 938.272 1549.52 Q932.461 1549.52 929.383 1544.94 Q926.327 1540.33 926.327 1531.6 Q926.327 1522.85 929.383 1518.27 Q932.461 1513.66 938.272 1513.66 Z" fill="#000000" fill-rule="nonzero" fill-opacity="1" /><path clip-path="url(#clip670)" d="M1238.96 1532.02 L1268.64 1532.02 L1268.64 1535.95 L1238.96 1535.95 L1238.96 1532.02 Z" fill="#000000" fill-rule="nonzero" fill-opacity="1" /><path clip-path="url(#clip670)" d="M1288.73 1517.37 Q1285.12 1517.37 1283.29 1520.93 Q1281.49 1524.47 1281.49 1531.6 Q1281.49 1538.71 1283.29 1542.27 Q1285.12 1545.82 1288.73 1545.82 Q1292.37 1545.82 1294.17 1542.27 Q1296 1538.71 1296 1531.6 Q1296 1524.47 1294.17 1520.93 Q1292.37 1517.37 1288.73 1517.37 M1288.73 1513.66 Q1294.54 1513.66 1297.6 1518.27 Q1300.68 1522.85 1300.68 1531.6 Q1300.68 1540.33 1297.6 1544.94 Q1294.54 1549.52 1288.73 1549.52 Q1282.92 1549.52 1279.84 1544.94 Q1276.79 1540.33 1276.79 1531.6 Q1276.79 1522.85 1279.84 1518.27 Q1282.92 1513.66 1288.73 1513.66 Z" fill="#000000" fill-rule="nonzero" fill-opacity="1" /><path clip-path="url(#clip670)" d="M1308.89 1542.97 L1313.78 1542.97 L1313.78 1548.85 L1308.89 1548.85 L1308.89 1542.97 Z" fill="#000000" fill-rule="nonzero" fill-opacity="1" /><path clip-path="url(#clip670)" d="M1324.01 1514.29 L1342.37 1514.29 L1342.37 1518.22 L1328.29 1518.22 L1328.29 1526.7 Q1329.31 1526.35 1330.33 1526.19 Q1331.35 1526 1332.37 1526 Q1338.15 1526 1341.53 1529.17 Q1344.91 1532.34 1344.91 1537.76 Q1344.91 1543.34 1341.44 1546.44 Q1337.97 1549.52 1331.65 1549.52 Q1329.47 1549.52 1327.2 1549.15 Q1324.96 1548.78 1322.55 1548.04 L1322.55 1543.34 Q1324.64 1544.47 1326.86 1545.03 Q1329.08 1545.58 1331.56 1545.58 Q1335.56 1545.58 1337.9 1543.48 Q1340.24 1541.37 1340.24 1537.76 Q1340.24 1534.15 1337.9 1532.04 Q1335.56 1529.94 1331.56 1529.94 Q1329.68 1529.94 1327.81 1530.35 Q1325.95 1530.77 1324.01 1531.65 L1324.01 1514.29 Z" fill="#000000" fill-rule="nonzero" fill-opacity="1" /><path clip-path="url(#clip670)" d="M1664.52 1517.37 Q1660.91 1517.37 1659.08 1520.93 Q1657.27 1524.47 1657.27 1531.6 Q1657.27 1538.71 1659.08 1542.27 Q1660.91 1545.82 1664.52 1545.82 Q1668.15 1545.82 1669.96 1542.27 Q1671.79 1538.71 1671.79 1531.6 Q1671.79 1524.47 1669.96 1520.93 Q1668.15 1517.37 1664.52 1517.37 M1664.52 1513.66 Q1670.33 1513.66 1673.38 1518.27 Q1676.46 1522.85 1676.46 1531.6 Q1676.46 1540.33 1673.38 1544.94 Q1670.33 1549.52 1664.52 1549.52 Q1658.71 1549.52 1655.63 1544.94 Q1652.57 1540.33 1652.57 1531.6 Q1652.57 1522.85 1655.63 1518.27 Q1658.71 1513.66 1664.52 1513.66 Z" fill="#000000" fill-rule="nonzero" fill-opacity="1" /><path clip-path="url(#clip670)" d="M1684.68 1542.97 L1689.56 1542.97 L1689.56 1548.85 L1684.68 1548.85 L1684.68 1542.97 Z" fill="#000000" fill-rule="nonzero" fill-opacity="1" /><path clip-path="url(#clip670)" d="M1709.75 1517.37 Q1706.14 1517.37 1704.31 1520.93 Q1702.5 1524.47 1702.5 1531.6 Q1702.5 1538.71 1704.31 1542.27 Q1706.14 1545.82 1709.75 1545.82 Q1713.38 1545.82 1715.19 1542.27 Q1717.02 1538.71 1717.02 1531.6 Q1717.02 1524.47 1715.19 1520.93 Q1713.38 1517.37 1709.75 1517.37 M1709.75 1513.66 Q1715.56 1513.66 1718.61 1518.27 Q1721.69 1522.85 1721.69 1531.6 Q1721.69 1540.33 1718.61 1544.94 Q1715.56 1549.52 1709.75 1549.52 Q1703.94 1549.52 1700.86 1544.94 Q1697.8 1540.33 1697.8 1531.6 Q1697.8 1522.85 1700.86 1518.27 Q1703.94 1513.66 1709.75 1513.66 Z" fill="#000000" fill-rule="nonzero" fill-opacity="1" /><path clip-path="url(#clip670)" d="M2060.21 1517.37 Q2056.6 1517.37 2054.77 1520.93 Q2052.96 1524.47 2052.96 1531.6 Q2052.96 1538.71 2054.77 1542.27 Q2056.6 1545.82 2060.21 1545.82 Q2063.84 1545.82 2065.65 1542.27 Q2067.48 1538.71 2067.48 1531.6 Q2067.48 1524.47 2065.65 1520.93 Q2063.84 1517.37 2060.21 1517.37 M2060.21 1513.66 Q2066.02 1513.66 2069.08 1518.27 Q2072.15 1522.85 2072.15 1531.6 Q2072.15 1540.33 2069.08 1544.94 Q2066.02 1549.52 2060.21 1549.52 Q2054.4 1549.52 2051.32 1544.94 Q2048.27 1540.33 2048.27 1531.6 Q2048.27 1522.85 2051.32 1518.27 Q2054.4 1513.66 2060.21 1513.66 Z" fill="#000000" fill-rule="nonzero" fill-opacity="1" /><path clip-path="url(#clip670)" d="M2080.37 1542.97 L2085.26 1542.97 L2085.26 1548.85 L2080.37 1548.85 L2080.37 1542.97 Z" fill="#000000" fill-rule="nonzero" fill-opacity="1" /><path clip-path="url(#clip670)" d="M2095.49 1514.29 L2113.84 1514.29 L2113.84 1518.22 L2099.77 1518.22 L2099.77 1526.7 Q2100.79 1526.35 2101.81 1526.19 Q2102.83 1526 2103.84 1526 Q2109.63 1526 2113.01 1529.17 Q2116.39 1532.34 2116.39 1537.76 Q2116.39 1543.34 2112.92 1546.44 Q2109.45 1549.52 2103.13 1549.52 Q2100.95 1549.52 2098.68 1549.15 Q2096.44 1548.78 2094.03 1548.04 L2094.03 1543.34 Q2096.11 1544.47 2098.33 1545.03 Q2100.56 1545.58 2103.03 1545.58 Q2107.04 1545.58 2109.38 1543.48 Q2111.71 1541.37 2111.71 1537.76 Q2111.71 1534.15 2109.38 1532.04 Q2107.04 1529.94 2103.03 1529.94 Q2101.16 1529.94 2099.28 1530.35 Q2097.43 1530.77 2095.49 1531.65 L2095.49 1514.29 Z" fill="#000000" fill-rule="nonzero" fill-opacity="1" /><polyline clip-path="url(#clip670)" style="stroke:#000000; stroke-linecap:round; stroke-linejoin:round; stroke-width:4; stroke-opacity:1; fill:none" points="112.177,1486.45 112.177,47.2441 "/>
<polyline clip-path="url(#clip670)" style="stroke:#000000; stroke-linecap:round; stroke-linejoin:round; stroke-width:4; stroke-opacity:1; fill:none" points="112.177,1483.4 131.075,1483.4 "/>
<polyline clip-path="url(#clip670)" style="stroke:#000000; stroke-linecap:round; stroke-linejoin:round; stroke-width:4; stroke-opacity:1; fill:none" points="112.177,1109.64 131.075,1109.64 "/>
<polyline clip-path="url(#clip670)" style="stroke:#000000; stroke-linecap:round; stroke-linejoin:round; stroke-width:4; stroke-opacity:1; fill:none" points="112.177,735.873 131.075,735.873 "/>
<polyline clip-path="url(#clip670)" style="stroke:#000000; stroke-linecap:round; stroke-linejoin:round; stroke-width:4; stroke-opacity:1; fill:none" points="112.177,362.11 131.075,362.11 "/>
<path clip-path="url(#clip670)" d="M64.2328 1469.2 Q60.6217 1469.2 58.793 1472.76 Q56.9875 1476.3 56.9875 1483.43 Q56.9875 1490.54 58.793 1494.11 Q60.6217 1497.65 64.2328 1497.65 Q67.867 1497.65 69.6726 1494.11 Q71.5013 1490.54 71.5013 1483.43 Q71.5013 1476.3 69.6726 1472.76 Q67.867 1469.2 64.2328 1469.2 M64.2328 1465.49 Q70.0429 1465.49 73.0985 1470.1 Q76.1772 1474.68 76.1772 1483.43 Q76.1772 1492.16 73.0985 1496.77 Q70.0429 1501.35 64.2328 1501.35 Q58.4226 1501.35 55.344 1496.77 Q52.2884 1492.16 52.2884 1483.43 Q52.2884 1474.68 55.344 1470.1 Q58.4226 1465.49 64.2328 1465.49 Z" fill="#000000" fill-rule="nonzero" fill-opacity="1" /><path clip-path="url(#clip670)" d="M59.8578 1122.98 L76.1772 1122.98 L76.1772 1126.92 L54.2328 1126.92 L54.2328 1122.98 Q56.8949 1120.23 61.4782 1115.6 Q66.0846 1110.94 67.2652 1109.6 Q69.5105 1107.08 70.3902 1105.34 Q71.2929 1103.58 71.2929 1101.89 Q71.2929 1099.14 69.3485 1097.4 Q67.4272 1095.67 64.3254 1095.67 Q62.1263 1095.67 59.6726 1096.43 Q57.2421 1097.19 54.4643 1098.75 L54.4643 1094.02 Q57.2884 1092.89 59.7421 1092.31 Q62.1958 1091.73 64.2328 1091.73 Q69.6031 1091.73 72.7976 1094.42 Q75.992 1097.1 75.992 1101.59 Q75.992 1103.72 75.1818 1105.64 Q74.3948 1107.54 72.2883 1110.13 Q71.7096 1110.81 68.6078 1114.02 Q65.5059 1117.22 59.8578 1122.98 Z" fill="#000000" fill-rule="nonzero" fill-opacity="1" /><path clip-path="url(#clip670)" d="M66.5939 722.667 L54.7884 741.116 L66.5939 741.116 L66.5939 722.667 M65.367 718.593 L71.2466 718.593 L71.2466 741.116 L76.1772 741.116 L76.1772 745.005 L71.2466 745.005 L71.2466 753.153 L66.5939 753.153 L66.5939 745.005 L50.9921 745.005 L50.9921 740.491 L65.367 718.593 Z" fill="#000000" fill-rule="nonzero" fill-opacity="1" /><path clip-path="url(#clip670)" d="M64.6495 360.246 Q61.5013 360.246 59.6495 362.399 Q57.8208 364.552 57.8208 368.302 Q57.8208 372.028 59.6495 374.204 Q61.5013 376.357 64.6495 376.357 Q67.7976 376.357 69.6263 374.204 Q71.4781 372.028 71.4781 368.302 Q71.4781 364.552 69.6263 362.399 Q67.7976 360.246 64.6495 360.246 M73.9318 345.593 L73.9318 349.853 Q72.1726 349.019 70.367 348.58 Q68.5846 348.14 66.8254 348.14 Q62.1958 348.14 59.7421 351.265 Q57.3115 354.39 56.9643 360.709 Q58.33 358.695 60.3902 357.63 Q62.4504 356.542 64.9272 356.542 Q70.1355 356.542 73.1448 359.714 Q76.1772 362.862 76.1772 368.302 Q76.1772 373.626 73.029 376.843 Q69.8809 380.061 64.6495 380.061 Q58.6541 380.061 55.4828 375.478 Q52.3116 370.871 52.3116 362.144 Q52.3116 353.95 56.2004 349.089 Q60.0893 344.205 66.6402 344.205 Q68.3994 344.205 70.1818 344.552 Q71.9874 344.899 73.9318 345.593 Z" fill="#000000" fill-rule="nonzero" fill-opacity="1" /><circle clip-path="url(#clip671)" cx="2289.34" cy="1388.83" r="14.4" fill="#808080" fill-rule="evenodd" fill-opacity="1" stroke="#000000" stroke-opacity="1" stroke-width="3.2"/>
<circle clip-path="url(#clip671)" cx="175.59" cy="87.9763" r="14.4" fill="#808080" fill-rule="evenodd" fill-opacity="1" stroke="#000000" stroke-opacity="1" stroke-width="3.2"/>
<circle clip-path="url(#clip671)" cx="1748.41" cy="1445.72" r="14.4" fill="#808080" fill-rule="evenodd" fill-opacity="1" stroke="#000000" stroke-opacity="1" stroke-width="3.2"/>
<circle clip-path="url(#clip671)" cx="1575.61" cy="1422.02" r="14.4" fill="#808080" fill-rule="evenodd" fill-opacity="1" stroke="#000000" stroke-opacity="1" stroke-width="3.2"/>
<path clip-path="url(#clip670)" d="M2293.64 1396.27 Q2284.6 1396.27 2281.12 1398.33 Q2277.64 1400.4 2277.64 1405.38 Q2277.64 1409.35 2280.23 1411.7 Q2282.86 1414.01 2287.36 1414.01 Q2293.56 1414.01 2297.28 1409.63 Q2301.05 1405.22 2301.05 1397.93 L2301.05 1396.27 L2293.64 1396.27 M2308.5 1393.19 L2308.5 1419.07 L2301.05 1419.07 L2301.05 1412.19 Q2298.5 1416.32 2294.69 1418.3 Q2290.88 1420.25 2285.37 1420.25 Q2278.41 1420.25 2274.27 1416.36 Q2270.18 1412.43 2270.18 1405.87 Q2270.18 1398.21 2275.29 1394.32 Q2280.43 1390.43 2290.6 1390.43 L2301.05 1390.43 L2301.05 1389.7 Q2301.05 1384.56 2297.65 1381.76 Q2294.29 1378.93 2288.17 1378.93 Q2284.28 1378.93 2280.59 1379.86 Q2276.91 1380.79 2273.5 1382.66 L2273.5 1375.77 Q2277.6 1374.19 2281.44 1373.42 Q2285.29 1372.61 2288.94 1372.61 Q2298.78 1372.61 2303.64 1377.71 Q2308.5 1382.82 2308.5 1393.19 Z" fill="#000000" fill-rule="nonzero" fill-opacity="1" /><path clip-path="url(#clip670)" d="M188.148 95.5717 Q188.148 87.3484 184.745 82.6898 Q181.383 77.9908 175.468 77.9908 Q169.554 77.9908 166.151 82.6898 Q162.789 87.3484 162.789 95.5717 Q162.789 103.795 166.151 108.494 Q169.554 113.153 175.468 113.153 Q181.383 113.153 184.745 108.494 Q188.148 103.795 188.148 95.5717 M162.789 79.7327 Q165.138 75.6818 168.703 73.7373 Q172.309 71.7524 177.291 71.7524 Q185.555 71.7524 190.7 78.3149 Q195.885 84.8773 195.885 95.5717 Q195.885 106.266 190.7 112.829 Q185.555 119.391 177.291 119.391 Q172.309 119.391 168.703 117.447 Q165.138 115.462 162.789 111.411 L162.789 118.216 L155.295 118.216 L155.295 55.1842 L162.789 55.1842 L162.789 79.7327 Z" fill="#000000" fill-rule="nonzero" fill-opacity="1" /><path clip-path="url(#clip670)" d="M1766.35 1432.33 L1766.35 1439.3 Q1763.19 1437.55 1759.99 1436.7 Q1756.83 1435.81 1753.59 1435.81 Q1746.34 1435.81 1742.33 1440.43 Q1738.32 1445.01 1738.32 1453.31 Q1738.32 1461.62 1742.33 1466.23 Q1746.34 1470.81 1753.59 1470.81 Q1756.83 1470.81 1759.99 1469.96 Q1763.19 1469.07 1766.35 1467.33 L1766.35 1474.21 Q1763.23 1475.67 1759.87 1476.4 Q1756.55 1477.13 1752.78 1477.13 Q1742.53 1477.13 1736.5 1470.69 Q1730.46 1464.25 1730.46 1453.31 Q1730.46 1442.21 1736.54 1435.85 Q1742.65 1429.49 1753.27 1429.49 Q1756.71 1429.49 1759.99 1430.22 Q1763.27 1430.91 1766.35 1432.33 Z" fill="#000000" fill-rule="nonzero" fill-opacity="1" /><path clip-path="url(#clip670)" d="M1588.43 1413.77 L1588.43 1389.22 L1595.89 1389.22 L1595.89 1452.26 L1588.43 1452.26 L1588.43 1445.45 Q1586.08 1449.5 1582.48 1451.49 Q1578.91 1453.43 1573.89 1453.43 Q1565.67 1453.43 1560.48 1446.87 Q1555.34 1440.31 1555.34 1429.61 Q1555.34 1418.92 1560.48 1412.36 Q1565.67 1405.79 1573.89 1405.79 Q1578.91 1405.79 1582.48 1407.78 Q1586.08 1409.72 1588.43 1413.77 M1563.03 1429.61 Q1563.03 1437.84 1566.39 1442.53 Q1569.8 1447.19 1575.71 1447.19 Q1581.63 1447.19 1585.03 1442.53 Q1588.43 1437.84 1588.43 1429.61 Q1588.43 1421.39 1585.03 1416.73 Q1581.63 1412.03 1575.71 1412.03 Q1569.8 1412.03 1566.39 1416.73 Q1563.03 1421.39 1563.03 1429.61 Z" fill="#000000" fill-rule="nonzero" fill-opacity="1" /><path clip-path="url(#clip670)" d="M2001.58 198.898 L2278.07 198.898 L2278.07 95.2176 L2001.58 95.2176  Z" fill="#ffffff" fill-rule="evenodd" fill-opacity="1"/>
<polyline clip-path="url(#clip670)" style="stroke:#000000; stroke-linecap:round; stroke-linejoin:round; stroke-width:4; stroke-opacity:1; fill:none" points="2001.58,198.898 2278.07,198.898 2278.07,95.2176 2001.58,95.2176 2001.58,198.898 "/>
<circle clip-path="url(#clip670)" cx="2101.16" cy="147.058" r="20.48" fill="#808080" fill-rule="evenodd" fill-opacity="1" stroke="#000000" stroke-opacity="1" stroke-width="4.55111"/>
<path clip-path="url(#clip670)" d="M2214.59 166.745 Q2212.78 171.375 2211.07 172.787 Q2209.36 174.199 2206.49 174.199 L2203.08 174.199 L2203.08 170.634 L2205.58 170.634 Q2207.34 170.634 2208.31 169.8 Q2209.29 168.967 2210.47 165.865 L2211.23 163.921 L2200.74 138.412 L2205.26 138.412 L2213.36 158.689 L2221.46 138.412 L2225.98 138.412 L2214.59 166.745 Z" fill="#000000" fill-rule="nonzero" fill-opacity="1" /><path clip-path="url(#clip670)" d="M2233.27 160.402 L2240.91 160.402 L2240.91 134.037 L2232.6 135.703 L2232.6 131.444 L2240.86 129.778 L2245.54 129.778 L2245.54 160.402 L2253.17 160.402 L2253.17 164.338 L2233.27 164.338 L2233.27 160.402 Z" fill="#000000" fill-rule="nonzero" fill-opacity="1" /></svg>
