<?xml version="1.0" encoding="utf-8"?>
<svg xmlns="http://www.w3.org/2000/svg" xmlns:xlink="http://www.w3.org/1999/xlink" width="600" height="400" viewBox="0 0 2400 1600">
<defs>
  <clipPath id="clip620">
    <rect x="0" y="0" width="2400" height="1600"/>
  </clipPath>
</defs>
<path clip-path="url(#clip620)" d="M0 1600 L2400 1600 L2400 0 L0 0  Z" fill="#ffffff" fill-rule="evenodd" fill-opacity="1"/>
<defs>
  <clipPath id="clip621">
    <rect x="480" y="0" width="1681" height="1600"/>
  </clipPath>
</defs>
<path clip-path="url(#clip620)" d="M156.112 1486.45 L2352.76 1486.45 L2352.76 47.2441 L156.112 47.2441  Z" fill="#ffffff" fill-rule="evenodd" fill-opacity="1"/>
<defs>
  <clipPath id="clip622">
    <rect x="156" y="47" width="2198" height="1440"/>
  </clipPath>
</defs>
<polyline clip-path="url(#clip622)" style="stroke:#000000; stroke-linecap:round; stroke-linejoin:round; stroke-width:2; stroke-opacity:0.1; fill:none" points="420.851,1486.45 420.851,47.2441 "/>
<polyline clip-path="url(#clip622)" style="stroke:#000000; stroke-linecap:round; stroke-linejoin:round; stroke-width:2; stroke-opacity:0.1; fill:none" points="894.627,1486.45 894.627,47.2441 "/>
<polyline clip-path="url(#clip622)" style="stroke:#000000; stroke-linecap:round; stroke-linejoin:round; stroke-width:2; stroke-opacity:0.1; fill:none" points="1368.4,1486.45 1368.4,47.2441 "/>
<polyline clip-path="url(#clip622)" style="stroke:#000000; stroke-linecap:round; stroke-linejoin:round; stroke-width:2; stroke-opacity:0.1; fill:none" points="1842.18,1486.45 1842.18,47.2441 "/>
<polyline clip-path="url(#clip622)" style="stroke:#000000; stroke-linecap:round; stroke-linejoin:round; stroke-width:2; stroke-opacity:0.1; fill:none" points="2315.96,1486.45 2315.96,47.2441 "/>
<polyline clip-path="url(#clip620)" style="stroke:#000000; stroke-linecap:round; stroke-linejoin:round; stroke-width:4; stroke-opacity:1; fill:none" points="156.112,1486.45 2352.76,1486.45 "/>
<polyline clip-path="url(#clip620)" style="stroke:#000000; stroke-linecap:round; stroke-linejoin:round; stroke-width:4; stroke-opacity:1; fill:none" points="420.851,1486.45 420.851,1467.55 "/>
<polyline clip-path="url(#clip620)" style="stroke:#000000; stroke-linecap:round; stroke-linejoin:round; stroke-width:4; stroke-opacity:1; fill:none" points="894.627,1486.45 894.627,1467.55 "/>
<polyline clip-path="url(#clip620)" style="stroke:#000000; stroke-linecap:round; stroke-linejoin:round; stroke-width:4; stroke-opacity:1; fill:none" points="1368.4,1486.45 1368.4,1467.55 "/>
<polyline clip-path="url(#clip620)" style="stroke:#000000; stroke-linecap:round; stroke-linejoin:round; stroke-width:4; stroke-opacity:1; fill:none" points="1842.18,1486.45 1842.18,1467.55 "/>
<polyline clip-path="url(#clip620)" style="stroke:#000000; stroke-linecap:round; stroke-linejoin:round; stroke-width:4; stroke-opacity:1; fill:none" points="2315.96,1486.45 2315.96,1467.55 "/>
<path clip-path="url(#clip620)" d="M367.136 1532.02 L396.812 1532.02 L396.812 1535.95 L367.136 1535.95 L367.136 1532.02 Z" fill="#000000" fill-rule="nonzero" fill-opacity="1" /><path clip-path="url(#clip620)" d="M416.905 1517.37 Q413.294 1517.37 411.465 1520.93 Q409.659 1524.47 409.659 1531.6 Q409.659 1538.71 411.465 1542.27 Q413.294 1545.82 416.905 1545.82 Q420.539 1545.82 422.344 1542.27 Q424.173 1538.71 424.173 1531.6 Q424.173 1524.47 422.344 1520.93 Q420.539 1517.37 416.905 1517.37 M416.905 1513.66 Q422.715 1513.66 425.77 1518.27 Q428.849 1522.85 428.849 1531.6 Q428.849 1540.33 425.77 1544.94 Q422.715 1549.52 416.905 1549.52 Q411.094 1549.52 408.016 1544.94 Q404.96 1540.33 404.96 1531.6 Q404.96 1522.85 408.016 1518.27 Q411.094 1513.66 416.905 1513.66 Z" fill="#000000" fill-rule="nonzero" fill-opacity="1" /><path clip-path="url(#clip620)" d="M437.067 1542.97 L441.951 1542.97 L441.951 1548.85 L437.067 1548.85 L437.067 1542.97 Z" fill="#000000" fill-rule="nonzero" fill-opacity="1" /><path clip-path="url(#clip620)" d="M464.983 1518.36 L453.178 1536.81 L464.983 1536.81 L464.983 1518.36 M463.756 1514.29 L469.636 1514.29 L469.636 1536.81 L474.566 1536.81 L474.566 1540.7 L469.636 1540.7 L469.636 1548.85 L464.983 1548.85 L464.983 1540.7 L449.381 1540.7 L449.381 1536.19 L463.756 1514.29 Z" fill="#000000" fill-rule="nonzero" fill-opacity="1" /><path clip-path="url(#clip620)" d="M841.954 1532.02 L871.63 1532.02 L871.63 1535.95 L841.954 1535.95 L841.954 1532.02 Z" fill="#000000" fill-rule="nonzero" fill-opacity="1" /><path clip-path="url(#clip620)" d="M891.722 1517.37 Q888.111 1517.37 886.283 1520.93 Q884.477 1524.47 884.477 1531.6 Q884.477 1538.71 886.283 1542.27 Q888.111 1545.82 891.722 1545.82 Q895.357 1545.82 897.162 1542.27 Q898.991 1538.71 898.991 1531.6 Q898.991 1524.47 897.162 1520.93 Q895.357 1517.37 891.722 1517.37 M891.722 1513.66 Q897.532 1513.66 900.588 1518.27 Q903.667 1522.85 903.667 1531.6 Q903.667 1540.33 900.588 1544.94 Q897.532 1549.52 891.722 1549.52 Q885.912 1549.52 882.833 1544.94 Q879.778 1540.33 879.778 1531.6 Q879.778 1522.85 882.833 1518.27 Q885.912 1513.66 891.722 1513.66 Z" fill="#000000" fill-rule="nonzero" fill-opacity="1" /><path clip-path="url(#clip620)" d="M911.884 1542.97 L916.768 1542.97 L916.768 1548.85 L911.884 1548.85 L911.884 1542.97 Z" fill="#000000" fill-rule="nonzero" fill-opacity="1" /><path clip-path="url(#clip620)" d="M930.981 1544.91 L947.301 1544.91 L947.301 1548.85 L925.356 1548.85 L925.356 1544.91 Q928.018 1542.16 932.602 1537.53 Q937.208 1532.88 938.389 1531.53 Q940.634 1529.01 941.514 1527.27 Q942.416 1525.51 942.416 1523.82 Q942.416 1521.07 940.472 1519.33 Q938.551 1517.6 935.449 1517.6 Q933.25 1517.6 930.796 1518.36 Q928.366 1519.13 925.588 1520.68 L925.588 1515.95 Q928.412 1514.82 930.866 1514.24 Q933.319 1513.66 935.356 1513.66 Q940.727 1513.66 943.921 1516.35 Q947.116 1519.03 947.116 1523.52 Q947.116 1525.65 946.305 1527.57 Q945.518 1529.47 943.412 1532.07 Q942.833 1532.74 939.731 1535.95 Q936.629 1539.15 930.981 1544.91 Z" fill="#000000" fill-rule="nonzero" fill-opacity="1" /><path clip-path="url(#clip620)" d="M1345.79 1517.37 Q1342.18 1517.37 1340.35 1520.93 Q1338.54 1524.47 1338.54 1531.6 Q1338.54 1538.71 1340.35 1542.27 Q1342.18 1545.82 1345.79 1545.82 Q1349.42 1545.82 1351.23 1542.27 Q1353.06 1538.71 1353.06 1531.6 Q1353.06 1524.47 1351.23 1520.93 Q1349.42 1517.37 1345.79 1517.37 M1345.79 1513.66 Q1351.6 1513.66 1354.65 1518.27 Q1357.73 1522.85 1357.73 1531.6 Q1357.73 1540.33 1354.65 1544.94 Q1351.6 1549.52 1345.79 1549.52 Q1339.98 1549.52 1336.9 1544.94 Q1333.84 1540.33 1333.84 1531.6 Q1333.84 1522.85 1336.9 1518.27 Q1339.98 1513.66 1345.79 1513.66 Z" fill="#000000" fill-rule="nonzero" fill-opacity="1" /><path clip-path="url(#clip620)" d="M1365.95 1542.97 L1370.83 1542.97 L1370.83 1548.85 L1365.95 1548.85 L1365.95 1542.97 Z" fill="#000000" fill-rule="nonzero" fill-opacity="1" /><path clip-path="url(#clip620)" d="M1391.02 1517.37 Q1387.41 1517.37 1385.58 1520.93 Q1383.77 1524.47 1383.77 1531.6 Q1383.77 1538.71 1385.58 1542.27 Q1387.41 1545.82 1391.02 1545.82 Q1394.65 1545.82 1396.46 1542.27 Q1398.29 1538.71 1398.29 1531.6 Q1398.29 1524.47 1396.46 1520.93 Q1394.65 1517.37 1391.02 1517.37 M1391.02 1513.66 Q1396.83 1513.66 1399.88 1518.27 Q1402.96 1522.85 1402.96 1531.6 Q1402.96 1540.33 1399.88 1544.94 Q1396.83 1549.52 1391.02 1549.52 Q1385.21 1549.52 1382.13 1544.94 Q1379.07 1540.33 1379.07 1531.6 Q1379.07 1522.85 1382.13 1518.27 Q1385.21 1513.66 1391.02 1513.66 Z" fill="#000000" fill-rule="nonzero" fill-opacity="1" /><path clip-path="url(#clip620)" d="M1820.36 1517.37 Q1816.75 1517.37 1814.92 1520.93 Q1813.12 1524.47 1813.12 1531.6 Q1813.12 1538.71 1814.92 1542.27 Q1816.75 1545.82 1820.36 1545.82 Q1824 1545.82 1825.8 1542.27 Q1827.63 1538.71 1827.63 1531.6 Q1827.63 1524.47 1825.8 1520.93 Q1824 1517.37 1820.36 1517.37 M1820.36 1513.66 Q1826.17 1513.66 1829.23 1518.27 Q1832.31 1522.85 1832.31 1531.6 Q1832.31 1540.33 1829.23 1544.94 Q1826.17 1549.52 1820.36 1549.52 Q1814.55 1549.52 1811.47 1544.94 Q1808.42 1540.33 1808.42 1531.6 Q1808.42 1522.85 1811.47 1518.27 Q1814.55 1513.66 1820.36 1513.66 Z" fill="#000000" fill-rule="nonzero" fill-opacity="1" /><path clip-path="url(#clip620)" d="M1840.52 1542.97 L1845.41 1542.97 L1845.41 1548.85 L1840.52 1548.85 L1840.52 1542.97 Z" fill="#000000" fill-rule="nonzero" fill-opacity="1" /><path clip-path="url(#clip620)" d="M1859.62 1544.91 L1875.94 1544.91 L1875.94 1548.85 L1854 1548.85 L1854 1544.91 Q1856.66 1542.16 1861.24 1537.53 Q1865.85 1532.88 1867.03 1531.53 Q1869.27 1529.01 1870.15 1527.27 Q1871.06 1525.51 1871.06 1523.82 Q1871.06 1521.07 1869.11 1519.33 Q1867.19 1517.6 1864.09 1517.6 Q1861.89 1517.6 1859.44 1518.36 Q1857.01 1519.13 1854.23 1520.68 L1854.23 1515.95 Q1857.05 1514.82 1859.51 1514.24 Q1861.96 1513.66 1864 1513.66 Q1869.37 1513.66 1872.56 1516.35 Q1875.76 1519.03 1875.76 1523.52 Q1875.76 1525.65 1874.95 1527.57 Q1874.16 1529.47 1872.05 1532.07 Q1871.47 1532.74 1868.37 1535.95 Q1865.27 1539.15 1859.62 1544.91 Z" fill="#000000" fill-rule="nonzero" fill-opacity="1" /><path clip-path="url(#clip620)" d="M2293.1 1517.37 Q2289.49 1517.37 2287.66 1520.93 Q2285.85 1524.47 2285.85 1531.6 Q2285.85 1538.71 2287.66 1542.27 Q2289.49 1545.82 2293.1 1545.82 Q2296.73 1545.82 2298.54 1542.27 Q2300.37 1538.71 2300.37 1531.6 Q2300.37 1524.47 2298.54 1520.93 Q2296.73 1517.37 2293.1 1517.37 M2293.1 1513.66 Q2298.91 1513.66 2301.96 1518.27 Q2305.04 1522.85 2305.04 1531.6 Q2305.04 1540.33 2301.96 1544.94 Q2298.91 1549.52 2293.1 1549.52 Q2287.29 1549.52 2284.21 1544.94 Q2281.15 1540.33 2281.15 1531.6 Q2281.15 1522.85 2284.21 1518.27 Q2287.29 1513.66 2293.1 1513.66 Z" fill="#000000" fill-rule="nonzero" fill-opacity="1" /><path clip-path="url(#clip620)" d="M2313.26 1542.97 L2318.14 1542.97 L2318.14 1548.85 L2313.26 1548.85 L2313.26 1542.97 Z" fill="#000000" fill-rule="nonzero" fill-opacity="1" /><path clip-path="url(#clip620)" d="M2341.18 1518.36 L2329.37 1536.81 L2341.18 1536.81 L2341.18 1518.36 M2339.95 1514.29 L2345.83 1514.29 L2345.83 1536.81 L2350.76 1536.81 L2350.76 1540.7 L2345.83 1540.7 L2345.83 1548.85 L2341.18 1548.85 L2341.18 1540.7 L2325.57 1540.7 L2325.57 1536.19 L2339.95 1514.29 Z" fill="#000000" fill-rule="nonzero" fill-opacity="1" /><polyline clip-path="url(#clip622)" style="stroke:#000000; stroke-linecap:round; stroke-linejoin:round; stroke-width:2; stroke-opacity:0.1; fill:none" points="156.112,1451.83 2352.76,1451.83 "/>
<polyline clip-path="url(#clip622)" style="stroke:#000000; stroke-linecap:round; stroke-linejoin:round; stroke-width:2; stroke-opacity:0.1; fill:none" points="156.112,1099.83 2352.76,1099.83 "/>
<polyline clip-path="url(#clip622)" style="stroke:#000000; stroke-linecap:round; stroke-linejoin:round; stroke-width:2; stroke-opacity:0.1; fill:none" points="156.112,747.829 2352.76,747.829 "/>
<polyline clip-path="url(#clip622)" style="stroke:#000000; stroke-linecap:round; stroke-linejoin:round; stroke-width:2; stroke-opacity:0.1; fill:none" points="156.112,395.83 2352.76,395.83 "/>
<polyline clip-path="url(#clip620)" style="stroke:#000000; stroke-linecap:round; stroke-linejoin:round; stroke-width:4; stroke-opacity:1; fill:none" points="156.112,1486.45 156.112,47.2441 "/>
<polyline clip-path="url(#clip620)" style="stroke:#000000; stroke-linecap:round; stroke-linejoin:round; stroke-width:4; stroke-opacity:1; fill:none" points="156.112,1451.83 175.01,1451.83 "/>
<polyline clip-path="url(#clip620)" style="stroke:#000000; stroke-linecap:round; stroke-linejoin:round; stroke-width:4; stroke-opacity:1; fill:none" points="156.112,1099.83 175.01,1099.83 "/>
<polyline clip-path="url(#clip620)" style="stroke:#000000; stroke-linecap:round; stroke-linejoin:round; stroke-width:4; stroke-opacity:1; fill:none" points="156.112,747.829 175.01,747.829 "/>
<polyline clip-path="url(#clip620)" style="stroke:#000000; stroke-linecap:round; stroke-linejoin:round; stroke-width:4; stroke-opacity:1; fill:none" points="156.112,395.83 175.01,395.83 "/>
<path clip-path="url(#clip620)" d="M62.9365 1437.63 Q59.3254 1437.63 57.4967 1441.19 Q55.6912 1444.73 55.6912 1451.86 Q55.6912 1458.97 57.4967 1462.53 Q59.3254 1466.07 62.9365 1466.07 Q66.5707 1466.07 68.3763 1462.53 Q70.205 1458.97 70.205 1451.86 Q70.205 1444.73 68.3763 1441.19 Q66.5707 1437.63 62.9365 1437.63 M62.9365 1433.92 Q68.7467 1433.92 71.8022 1438.53 Q74.8809 1443.11 74.8809 1451.86 Q74.8809 1460.59 71.8022 1465.2 Q68.7467 1469.78 62.9365 1469.78 Q57.1264 1469.78 54.0477 1465.2 Q50.9921 1460.59 50.9921 1451.86 Q50.9921 1443.11 54.0477 1438.53 Q57.1264 1433.92 62.9365 1433.92 Z" fill="#000000" fill-rule="nonzero" fill-opacity="1" /><path clip-path="url(#clip620)" d="M83.0984 1463.23 L87.9827 1463.23 L87.9827 1469.11 L83.0984 1469.11 L83.0984 1463.23 Z" fill="#000000" fill-rule="nonzero" fill-opacity="1" /><path clip-path="url(#clip620)" d="M108.168 1437.63 Q104.557 1437.63 102.728 1441.19 Q100.922 1444.73 100.922 1451.86 Q100.922 1458.97 102.728 1462.53 Q104.557 1466.07 108.168 1466.07 Q111.802 1466.07 113.608 1462.53 Q115.436 1458.97 115.436 1451.86 Q115.436 1444.73 113.608 1441.19 Q111.802 1437.63 108.168 1437.63 M108.168 1433.92 Q113.978 1433.92 117.033 1438.53 Q120.112 1443.11 120.112 1451.86 Q120.112 1460.59 117.033 1465.2 Q113.978 1469.78 108.168 1469.78 Q102.358 1469.78 99.2789 1465.2 Q96.2234 1460.59 96.2234 1451.86 Q96.2234 1443.11 99.2789 1438.53 Q102.358 1433.92 108.168 1433.92 Z" fill="#000000" fill-rule="nonzero" fill-opacity="1" /><path clip-path="url(#clip620)" d="M64.1634 1085.63 Q60.5523 1085.63 58.7236 1089.19 Q56.918 1092.73 56.918 1099.86 Q56.918 1106.97 58.7236 1110.53 Q60.5523 1114.08 64.1634 1114.08 Q67.7976 1114.08 69.6031 1110.53 Q71.4318 1106.97 71.4318 1099.86 Q71.4318 1092.73 69.6031 1089.19 Q67.7976 1085.63 64.1634 1085.63 M64.1634 1081.92 Q69.9735 1081.92 73.029 1086.53 Q76.1077 1091.11 76.1077 1099.86 Q76.1077 1108.59 73.029 1113.2 Q69.9735 1117.78 64.1634 1117.78 Q58.3532 1117.78 55.2745 1113.2 Q52.219 1108.59 52.219 1099.86 Q52.219 1091.11 55.2745 1086.53 Q58.3532 1081.92 64.1634 1081.92 Z" fill="#000000" fill-rule="nonzero" fill-opacity="1" /><path clip-path="url(#clip620)" d="M84.3253 1111.23 L89.2095 1111.23 L89.2095 1117.11 L84.3253 1117.11 L84.3253 1111.23 Z" fill="#000000" fill-rule="nonzero" fill-opacity="1" /><path clip-path="url(#clip620)" d="M100.205 1113.17 L107.844 1113.17 L107.844 1086.81 L99.5335 1088.47 L99.5335 1084.21 L107.797 1082.55 L112.473 1082.55 L112.473 1113.17 L120.112 1113.17 L120.112 1117.11 L100.205 1117.11 L100.205 1113.17 Z" fill="#000000" fill-rule="nonzero" fill-opacity="1" /><path clip-path="url(#clip620)" d="M64.5337 733.628 Q60.9226 733.628 59.0939 737.193 Q57.2884 740.734 57.2884 747.864 Q57.2884 754.97 59.0939 758.535 Q60.9226 762.077 64.5337 762.077 Q68.168 762.077 69.9735 758.535 Q71.8022 754.97 71.8022 747.864 Q71.8022 740.734 69.9735 737.193 Q68.168 733.628 64.5337 733.628 M64.5337 729.924 Q70.3439 729.924 73.3994 734.531 Q76.4781 739.114 76.4781 747.864 Q76.4781 756.591 73.3994 761.197 Q70.3439 765.781 64.5337 765.781 Q58.7236 765.781 55.6449 761.197 Q52.5893 756.591 52.5893 747.864 Q52.5893 739.114 55.6449 734.531 Q58.7236 729.924 64.5337 729.924 Z" fill="#000000" fill-rule="nonzero" fill-opacity="1" /><path clip-path="url(#clip620)" d="M84.6956 759.23 L89.5799 759.23 L89.5799 765.109 L84.6956 765.109 L84.6956 759.23 Z" fill="#000000" fill-rule="nonzero" fill-opacity="1" /><path clip-path="url(#clip620)" d="M103.793 761.174 L120.112 761.174 L120.112 765.109 L98.1678 765.109 L98.1678 761.174 Q100.83 758.42 105.413 753.79 Q110.02 749.137 111.2 747.795 Q113.445 745.271 114.325 743.535 Q115.228 741.776 115.228 740.086 Q115.228 737.332 113.283 735.596 Q111.362 733.86 108.26 733.86 Q106.061 733.86 103.608 734.623 Q101.177 735.387 98.3993 736.938 L98.3993 732.216 Q101.223 731.082 103.677 730.503 Q106.131 729.924 108.168 729.924 Q113.538 729.924 116.733 732.61 Q119.927 735.295 119.927 739.785 Q119.927 741.915 119.117 743.836 Q118.33 745.734 116.223 748.327 Q115.645 748.998 112.543 752.216 Q109.441 755.41 103.793 761.174 Z" fill="#000000" fill-rule="nonzero" fill-opacity="1" /><path clip-path="url(#clip620)" d="M63.5847 381.629 Q59.9736 381.629 58.1449 385.194 Q56.3393 388.736 56.3393 395.865 Q56.3393 402.972 58.1449 406.536 Q59.9736 410.078 63.5847 410.078 Q67.2189 410.078 69.0244 406.536 Q70.8531 402.972 70.8531 395.865 Q70.8531 388.736 69.0244 385.194 Q67.2189 381.629 63.5847 381.629 M63.5847 377.925 Q69.3948 377.925 72.4503 382.532 Q75.529 387.115 75.529 395.865 Q75.529 404.592 72.4503 409.198 Q69.3948 413.782 63.5847 413.782 Q57.7745 413.782 54.6958 409.198 Q51.6403 404.592 51.6403 395.865 Q51.6403 387.115 54.6958 382.532 Q57.7745 377.925 63.5847 377.925 Z" fill="#000000" fill-rule="nonzero" fill-opacity="1" /><path clip-path="url(#clip620)" d="M83.7466 407.231 L88.6308 407.231 L88.6308 413.11 L83.7466 413.11 L83.7466 407.231 Z" fill="#000000" fill-rule="nonzero" fill-opacity="1" /><path clip-path="url(#clip620)" d="M112.983 394.476 Q116.339 395.194 118.214 397.462 Q120.112 399.731 120.112 403.064 Q120.112 408.18 116.594 410.981 Q113.075 413.782 106.594 413.782 Q104.418 413.782 102.103 413.342 Q99.8113 412.925 97.3576 412.069 L97.3576 407.555 Q99.3021 408.689 101.617 409.268 Q103.932 409.847 106.455 409.847 Q110.853 409.847 113.145 408.11 Q115.459 406.374 115.459 403.064 Q115.459 400.009 113.307 398.296 Q111.177 396.56 107.358 396.56 L103.33 396.56 L103.33 392.717 L107.543 392.717 Q110.992 392.717 112.82 391.351 Q114.649 389.962 114.649 387.37 Q114.649 384.708 112.751 383.296 Q110.876 381.861 107.358 381.861 Q105.436 381.861 103.237 382.277 Q101.038 382.694 98.3993 383.573 L98.3993 379.407 Q101.061 378.666 103.376 378.296 Q105.714 377.925 107.774 377.925 Q113.098 377.925 116.2 380.356 Q119.302 382.763 119.302 386.884 Q119.302 389.754 117.658 391.745 Q116.015 393.712 112.983 394.476 Z" fill="#000000" fill-rule="nonzero" fill-opacity="1" /><circle clip-path="url(#clip622)" cx="1444.83" cy="1228.14" r="14.4" fill="#808080" fill-rule="evenodd" fill-opacity="1" stroke="#000000" stroke-opacity="1" stroke-width="3.2"/>
<circle clip-path="url(#clip622)" cx="1345.04" cy="1445.72" r="14.4" fill="#808080" fill-rule="evenodd" fill-opacity="1" stroke="#000000" stroke-opacity="1" stroke-width="3.2"/>
<circle clip-path="url(#clip622)" cx="2290.59" cy="1260.28" r="14.4" fill="#808080" fill-rule="evenodd" fill-opacity="1" stroke="#000000" stroke-opacity="1" stroke-width="3.2"/>
<circle clip-path="url(#clip622)" cx="218.281" cy="87.9763" r="14.4" fill="#808080" fill-rule="evenodd" fill-opacity="1" stroke="#000000" stroke-opacity="1" stroke-width="3.2"/>
<path clip-path="url(#clip620)" d="M1449.13 1235.57 Q1440.09 1235.57 1436.61 1237.64 Q1433.13 1239.7 1433.13 1244.69 Q1433.13 1248.66 1435.72 1251.01 Q1438.35 1253.31 1442.85 1253.31 Q1449.05 1253.31 1452.77 1248.94 Q1456.54 1244.52 1456.54 1237.23 L1456.54 1235.57 L1449.13 1235.57 M1463.99 1232.49 L1463.99 1258.38 L1456.54 1258.38 L1456.54 1251.49 Q1453.99 1255.62 1450.18 1257.61 Q1446.37 1259.55 1440.86 1259.55 Q1433.9 1259.55 1429.76 1255.66 Q1425.67 1251.73 1425.67 1245.17 Q1425.67 1237.52 1430.78 1233.63 Q1435.92 1229.74 1446.09 1229.74 L1456.54 1229.74 L1456.54 1229.01 Q1456.54 1223.86 1453.14 1221.07 Q1449.78 1218.23 1443.66 1218.23 Q1439.77 1218.23 1436.08 1219.17 Q1432.4 1220.1 1428.99 1221.96 L1428.99 1215.07 Q1433.09 1213.49 1436.93 1212.72 Q1440.78 1211.91 1444.43 1211.91 Q1454.27 1211.91 1459.13 1217.02 Q1463.99 1222.12 1463.99 1232.49 Z" fill="#000000" fill-rule="nonzero" fill-opacity="1" /><path clip-path="url(#clip620)" d="M1357.6 1453.31 Q1357.6 1445.09 1354.2 1440.43 Q1350.83 1435.73 1344.92 1435.73 Q1339 1435.73 1335.6 1440.43 Q1332.24 1445.09 1332.24 1453.31 Q1332.24 1461.53 1335.6 1466.23 Q1339 1470.89 1344.92 1470.89 Q1350.83 1470.89 1354.2 1466.23 Q1357.6 1461.53 1357.6 1453.31 M1332.24 1437.47 Q1334.59 1433.42 1338.15 1431.48 Q1341.76 1429.49 1346.74 1429.49 Q1355.01 1429.49 1360.15 1436.05 Q1365.34 1442.62 1365.34 1453.31 Q1365.34 1464.01 1360.15 1470.57 Q1355.01 1477.13 1346.74 1477.13 Q1341.76 1477.13 1338.15 1475.19 Q1334.59 1473.2 1332.24 1469.15 L1332.24 1475.96 L1324.75 1475.96 L1324.75 1412.92 L1332.24 1412.92 L1332.24 1437.47 Z" fill="#000000" fill-rule="nonzero" fill-opacity="1" /><path clip-path="url(#clip620)" d="M2308.53 1246.9 L2308.53 1253.86 Q2305.37 1252.12 2302.17 1251.27 Q2299.01 1250.38 2295.77 1250.38 Q2288.52 1250.38 2284.51 1255 Q2280.5 1259.58 2280.5 1267.88 Q2280.5 1276.18 2284.51 1280.8 Q2288.52 1285.38 2295.77 1285.38 Q2299.01 1285.38 2302.17 1284.53 Q2305.37 1283.64 2308.53 1281.9 L2308.53 1288.78 Q2305.41 1290.24 2302.05 1290.97 Q2298.73 1291.7 2294.96 1291.7 Q2284.71 1291.7 2278.68 1285.26 Q2272.64 1278.82 2272.64 1267.88 Q2272.64 1256.78 2278.72 1250.42 Q2284.83 1244.06 2295.45 1244.06 Q2298.89 1244.06 2302.17 1244.79 Q2305.45 1245.48 2308.53 1246.9 Z" fill="#000000" fill-rule="nonzero" fill-opacity="1" /><path clip-path="url(#clip620)" d="M231.102 79.7327 L231.102 55.1842 L238.556 55.1842 L238.556 118.216 L231.102 118.216 L231.102 111.411 Q228.753 115.462 225.148 117.447 Q221.583 119.391 216.56 119.391 Q208.336 119.391 203.151 112.829 Q198.007 106.266 198.007 95.5717 Q198.007 84.8773 203.151 78.3149 Q208.336 71.7524 216.56 71.7524 Q221.583 71.7524 225.148 73.7373 Q228.753 75.6818 231.102 79.7327 M205.703 95.5717 Q205.703 103.795 209.065 108.494 Q212.468 113.153 218.383 113.153 Q224.297 113.153 227.7 108.494 Q231.102 103.795 231.102 95.5717 Q231.102 87.3484 227.7 82.6898 Q224.297 77.9908 218.383 77.9908 Q212.468 77.9908 209.065 82.6898 Q205.703 87.3484 205.703 95.5717 Z" fill="#000000" fill-rule="nonzero" fill-opacity="1" /><path clip-path="url(#clip620)" d="M2007.44 198.898 L2279.53 198.898 L2279.53 95.2176 L2007.44 95.2176  Z" fill="#ffffff" fill-rule="evenodd" fill-opacity="1"/>
<polyline clip-path="url(#clip620)" style="stroke:#000000; stroke-linecap:round; stroke-linejoin:round; stroke-width:4; stroke-opacity:1; fill:none" points="2007.44,198.898 2279.53,198.898 2279.53,95.2176 2007.44,95.2176 2007.44,198.898 "/>
<circle clip-path="url(#clip620)" cx="2105.07" cy="147.058" r="20.48" fill="#808080" fill-rule="evenodd" fill-opacity="1" stroke="#000000" stroke-opacity="1" stroke-width="4.55111"/>
<path clip-path="url(#clip620)" d="M2216.54 166.745 Q2214.73 171.375 2213.02 172.787 Q2211.31 174.199 2208.44 174.199 L2205.03 174.199 L2205.03 170.634 L2207.53 170.634 Q2209.29 170.634 2210.27 169.8 Q2211.24 168.967 2212.42 165.865 L2213.18 163.921 L2202.7 138.412 L2207.21 138.412 L2215.31 158.689 L2223.41 138.412 L2227.93 138.412 L2216.54 166.745 Z" fill="#000000" fill-rule="nonzero" fill-opacity="1" /><path clip-path="url(#clip620)" d="M2235.22 160.402 L2242.86 160.402 L2242.86 134.037 L2234.55 135.703 L2234.55 131.444 L2242.81 129.778 L2247.49 129.778 L2247.49 160.402 L2255.13 160.402 L2255.13 164.338 L2235.22 164.338 L2235.22 160.402 Z" fill="#000000" fill-rule="nonzero" fill-opacity="1" /></svg>
