<?xml version="1.0" encoding="utf-8"?>
<svg xmlns="http://www.w3.org/2000/svg" xmlns:xlink="http://www.w3.org/1999/xlink" width="600" height="400" viewBox="0 0 2400 1600">
<defs>
  <clipPath id="clip680">
    <rect x="0" y="0" width="2400" height="1600"/>
  </clipPath>
</defs>
<path clip-path="url(#clip680)" d="M0 1600 L2400 1600 L2400 0 L0 0  Z" fill="#ffffff" fill-rule="evenodd" fill-opacity="1"/>
<defs>
  <clipPath id="clip681">
    <rect x="480" y="0" width="1681" height="1600"/>
  </clipPath>
</defs>
<path clip-path="url(#clip680)" d="M112.177 1486.45 L2352.76 1486.45 L2352.76 47.2441 L112.177 47.2441  Z" fill="#ffffff" fill-rule="evenodd" fill-opacity="1"/>
<defs>
  <clipPath id="clip682">
    <rect x="112" y="47" width="2242" height="1440"/>
  </clipPath>
</defs>
<polyline clip-path="url(#clip682)" style="stroke:#000000; stroke-linecap:round; stroke-linejoin:round; stroke-width:2; stroke-opacity:0.1; fill:none" points="506.73,1486.45 506.73,47.2441 "/>
<polyline clip-path="url(#clip682)" style="stroke:#000000; stroke-linecap:round; stroke-linejoin:round; stroke-width:2; stroke-opacity:0.1; fill:none" points="1019.34,1486.45 1019.34,47.2441 "/>
<polyline clip-path="url(#clip682)" style="stroke:#000000; stroke-linecap:round; stroke-linejoin:round; stroke-width:2; stroke-opacity:0.1; fill:none" points="1531.94,1486.45 1531.94,47.2441 "/>
<polyline clip-path="url(#clip682)" style="stroke:#000000; stroke-linecap:round; stroke-linejoin:round; stroke-width:2; stroke-opacity:0.1; fill:none" points="2044.55,1486.45 2044.55,47.2441 "/>
<polyline clip-path="url(#clip680)" style="stroke:#000000; stroke-linecap:round; stroke-linejoin:round; stroke-width:4; stroke-opacity:1; fill:none" points="112.177,1486.45 2352.76,1486.45 "/>
<polyline clip-path="url(#clip680)" style="stroke:#000000; stroke-linecap:round; stroke-linejoin:round; stroke-width:4; stroke-opacity:1; fill:none" points="506.73,1486.45 506.73,1467.55 "/>
<polyline clip-path="url(#clip680)" style="stroke:#000000; stroke-linecap:round; stroke-linejoin:round; stroke-width:4; stroke-opacity:1; fill:none" points="1019.34,1486.45 1019.34,1467.55 "/>
<polyline clip-path="url(#clip680)" style="stroke:#000000; stroke-linecap:round; stroke-linejoin:round; stroke-width:4; stroke-opacity:1; fill:none" points="1531.94,1486.45 1531.94,1467.55 "/>
<polyline clip-path="url(#clip680)" style="stroke:#000000; stroke-linecap:round; stroke-linejoin:round; stroke-width:4; stroke-opacity:1; fill:none" points="2044.55,1486.45 2044.55,1467.55 "/>
<path clip-path="url(#clip680)" d="M453.258 1532.02 L482.934 1532.02 L482.934 1535.95 L453.258 1535.95 L453.258 1532.02 Z" fill="#000000" fill-rule="nonzero" fill-opacity="1" /><path clip-path="url(#clip680)" d="M493.836 1544.91 L501.475 1544.91 L501.475 1518.55 L493.165 1520.21 L493.165 1515.95 L501.429 1514.29 L506.105 1514.29 L506.105 1544.91 L513.744 1544.91 L513.744 1548.85 L493.836 1548.85 L493.836 1544.91 Z" fill="#000000" fill-rule="nonzero" fill-opacity="1" /><path clip-path="url(#clip680)" d="M523.188 1542.97 L528.072 1542.97 L528.072 1548.85 L523.188 1548.85 L523.188 1542.97 Z" fill="#000000" fill-rule="nonzero" fill-opacity="1" /><path clip-path="url(#clip680)" d="M548.257 1517.37 Q544.646 1517.37 542.817 1520.93 Q541.012 1524.47 541.012 1531.6 Q541.012 1538.71 542.817 1542.27 Q544.646 1545.82 548.257 1545.82 Q551.892 1545.82 553.697 1542.27 Q555.526 1538.71 555.526 1531.6 Q555.526 1524.47 553.697 1520.93 Q551.892 1517.37 548.257 1517.37 M548.257 1513.66 Q554.067 1513.66 557.123 1518.27 Q560.202 1522.85 560.202 1531.6 Q560.202 1540.33 557.123 1544.94 Q554.067 1549.52 548.257 1549.52 Q542.447 1549.52 539.368 1544.94 Q536.313 1540.33 536.313 1531.6 Q536.313 1522.85 539.368 1518.27 Q542.447 1513.66 548.257 1513.66 Z" fill="#000000" fill-rule="nonzero" fill-opacity="1" /><path clip-path="url(#clip680)" d="M966.362 1532.02 L996.038 1532.02 L996.038 1535.95 L966.362 1535.95 L966.362 1532.02 Z" fill="#000000" fill-rule="nonzero" fill-opacity="1" /><path clip-path="url(#clip680)" d="M1016.13 1517.37 Q1012.52 1517.37 1010.69 1520.93 Q1008.88 1524.47 1008.88 1531.6 Q1008.88 1538.71 1010.69 1542.27 Q1012.52 1545.82 1016.13 1545.82 Q1019.76 1545.82 1021.57 1542.27 Q1023.4 1538.71 1023.4 1531.6 Q1023.4 1524.47 1021.57 1520.93 Q1019.76 1517.37 1016.13 1517.37 M1016.13 1513.66 Q1021.94 1513.66 1025 1518.27 Q1028.07 1522.85 1028.07 1531.6 Q1028.07 1540.33 1025 1544.94 Q1021.94 1549.52 1016.13 1549.52 Q1010.32 1549.52 1007.24 1544.94 Q1004.19 1540.33 1004.19 1531.6 Q1004.19 1522.85 1007.24 1518.27 Q1010.32 1513.66 1016.13 1513.66 Z" fill="#000000" fill-rule="nonzero" fill-opacity="1" /><path clip-path="url(#clip680)" d="M1036.29 1542.97 L1041.18 1542.97 L1041.18 1548.85 L1036.29 1548.85 L1036.29 1542.97 Z" fill="#000000" fill-rule="nonzero" fill-opacity="1" /><path clip-path="url(#clip680)" d="M1051.41 1514.29 L1069.76 1514.29 L1069.76 1518.22 L1055.69 1518.22 L1055.69 1526.7 Q1056.71 1526.35 1057.73 1526.19 Q1058.75 1526 1059.76 1526 Q1065.55 1526 1068.93 1529.17 Q1072.31 1532.34 1072.31 1537.76 Q1072.31 1543.34 1068.84 1546.44 Q1065.37 1549.52 1059.05 1549.52 Q1056.87 1549.52 1054.6 1549.15 Q1052.36 1548.78 1049.95 1548.04 L1049.95 1543.34 Q1052.03 1544.47 1054.25 1545.03 Q1056.48 1545.58 1058.95 1545.58 Q1062.96 1545.58 1065.3 1543.48 Q1067.63 1541.37 1067.63 1537.76 Q1067.63 1534.15 1065.3 1532.04 Q1062.96 1529.94 1058.95 1529.94 Q1057.08 1529.94 1055.2 1530.35 Q1053.35 1530.77 1051.41 1531.65 L1051.41 1514.29 Z" fill="#000000" fill-rule="nonzero" fill-opacity="1" /><path clip-path="url(#clip680)" d="M1509.33 1517.37 Q1505.72 1517.37 1503.89 1520.93 Q1502.08 1524.47 1502.08 1531.6 Q1502.08 1538.71 1503.89 1542.27 Q1505.72 1545.82 1509.33 1545.82 Q1512.96 1545.82 1514.77 1542.27 Q1516.6 1538.71 1516.6 1531.6 Q1516.6 1524.47 1514.77 1520.93 Q1512.96 1517.37 1509.33 1517.37 M1509.33 1513.66 Q1515.14 1513.66 1518.19 1518.27 Q1521.27 1522.85 1521.27 1531.6 Q1521.27 1540.33 1518.19 1544.94 Q1515.14 1549.52 1509.33 1549.52 Q1503.52 1549.52 1500.44 1544.94 Q1497.38 1540.33 1497.38 1531.6 Q1497.38 1522.85 1500.44 1518.27 Q1503.52 1513.66 1509.33 1513.66 Z" fill="#000000" fill-rule="nonzero" fill-opacity="1" /><path clip-path="url(#clip680)" d="M1529.49 1542.97 L1534.37 1542.97 L1534.37 1548.85 L1529.49 1548.85 L1529.49 1542.97 Z" fill="#000000" fill-rule="nonzero" fill-opacity="1" /><path clip-path="url(#clip680)" d="M1554.56 1517.37 Q1550.95 1517.37 1549.12 1520.93 Q1547.31 1524.47 1547.31 1531.6 Q1547.31 1538.71 1549.12 1542.27 Q1550.95 1545.82 1554.56 1545.82 Q1558.19 1545.82 1560 1542.27 Q1561.83 1538.71 1561.83 1531.6 Q1561.83 1524.47 1560 1520.93 Q1558.19 1517.37 1554.56 1517.37 M1554.56 1513.66 Q1560.37 1513.66 1563.42 1518.27 Q1566.5 1522.85 1566.5 1531.6 Q1566.5 1540.33 1563.42 1544.94 Q1560.37 1549.52 1554.56 1549.52 Q1548.75 1549.52 1545.67 1544.94 Q1542.61 1540.33 1542.61 1531.6 Q1542.61 1522.85 1545.67 1518.27 Q1548.75 1513.66 1554.56 1513.66 Z" fill="#000000" fill-rule="nonzero" fill-opacity="1" /><path clip-path="url(#clip680)" d="M2022.43 1517.37 Q2018.82 1517.37 2016.99 1520.93 Q2015.19 1524.47 2015.19 1531.6 Q2015.19 1538.71 2016.99 1542.27 Q2018.82 1545.82 2022.43 1545.82 Q2026.07 1545.82 2027.87 1542.27 Q2029.7 1538.71 2029.7 1531.6 Q2029.7 1524.47 2027.87 1520.93 Q2026.07 1517.37 2022.43 1517.37 M2022.43 1513.66 Q2028.24 1513.66 2031.3 1518.27 Q2034.38 1522.85 2034.38 1531.6 Q2034.38 1540.33 2031.3 1544.94 Q2028.24 1549.52 2022.43 1549.52 Q2016.62 1549.52 2013.54 1544.94 Q2010.49 1540.33 2010.49 1531.6 Q2010.49 1522.85 2013.54 1518.27 Q2016.62 1513.66 2022.43 1513.66 Z" fill="#000000" fill-rule="nonzero" fill-opacity="1" /><path clip-path="url(#clip680)" d="M2042.59 1542.97 L2047.48 1542.97 L2047.48 1548.85 L2042.59 1548.85 L2042.59 1542.97 Z" fill="#000000" fill-rule="nonzero" fill-opacity="1" /><path clip-path="url(#clip680)" d="M2057.71 1514.29 L2076.06 1514.29 L2076.06 1518.22 L2061.99 1518.22 L2061.99 1526.7 Q2063.01 1526.35 2064.03 1526.19 Q2065.05 1526 2066.06 1526 Q2071.85 1526 2075.23 1529.17 Q2078.61 1532.34 2078.61 1537.76 Q2078.61 1543.34 2075.14 1546.44 Q2071.67 1549.52 2065.35 1549.52 Q2063.17 1549.52 2060.9 1549.15 Q2058.66 1548.78 2056.25 1548.04 L2056.25 1543.34 Q2058.33 1544.47 2060.56 1545.03 Q2062.78 1545.58 2065.25 1545.58 Q2069.26 1545.58 2071.6 1543.48 Q2073.94 1541.37 2073.94 1537.76 Q2073.94 1534.15 2071.6 1532.04 Q2069.26 1529.94 2065.25 1529.94 Q2063.38 1529.94 2061.5 1530.35 Q2059.65 1530.77 2057.71 1531.65 L2057.71 1514.29 Z" fill="#000000" fill-rule="nonzero" fill-opacity="1" /><polyline clip-path="url(#clip682)" style="stroke:#000000; stroke-linecap:round; stroke-linejoin:round; stroke-width:2; stroke-opacity:0.1; fill:none" points="112.177,1216.59 2352.76,1216.59 "/>
<polyline clip-path="url(#clip682)" style="stroke:#000000; stroke-linecap:round; stroke-linejoin:round; stroke-width:2; stroke-opacity:0.1; fill:none" points="112.177,930.367 2352.76,930.367 "/>
<polyline clip-path="url(#clip682)" style="stroke:#000000; stroke-linecap:round; stroke-linejoin:round; stroke-width:2; stroke-opacity:0.1; fill:none" points="112.177,644.141 2352.76,644.141 "/>
<polyline clip-path="url(#clip682)" style="stroke:#000000; stroke-linecap:round; stroke-linejoin:round; stroke-width:2; stroke-opacity:0.1; fill:none" points="112.177,357.914 2352.76,357.914 "/>
<polyline clip-path="url(#clip682)" style="stroke:#000000; stroke-linecap:round; stroke-linejoin:round; stroke-width:2; stroke-opacity:0.1; fill:none" points="112.177,71.6874 2352.76,71.6874 "/>
<polyline clip-path="url(#clip680)" style="stroke:#000000; stroke-linecap:round; stroke-linejoin:round; stroke-width:4; stroke-opacity:1; fill:none" points="112.177,1486.45 112.177,47.2441 "/>
<polyline clip-path="url(#clip680)" style="stroke:#000000; stroke-linecap:round; stroke-linejoin:round; stroke-width:4; stroke-opacity:1; fill:none" points="112.177,1216.59 131.075,1216.59 "/>
<polyline clip-path="url(#clip680)" style="stroke:#000000; stroke-linecap:round; stroke-linejoin:round; stroke-width:4; stroke-opacity:1; fill:none" points="112.177,930.367 131.075,930.367 "/>
<polyline clip-path="url(#clip680)" style="stroke:#000000; stroke-linecap:round; stroke-linejoin:round; stroke-width:4; stroke-opacity:1; fill:none" points="112.177,644.141 131.075,644.141 "/>
<polyline clip-path="url(#clip680)" style="stroke:#000000; stroke-linecap:round; stroke-linejoin:round; stroke-width:4; stroke-opacity:1; fill:none" points="112.177,357.914 131.075,357.914 "/>
<polyline clip-path="url(#clip680)" style="stroke:#000000; stroke-linecap:round; stroke-linejoin:round; stroke-width:4; stroke-opacity:1; fill:none" points="112.177,71.6874 131.075,71.6874 "/>
<path clip-path="url(#clip680)" d="M56.2699 1229.94 L63.9087 1229.94 L63.9087 1203.57 L55.5986 1205.24 L55.5986 1200.98 L63.8624 1199.31 L68.5383 1199.31 L68.5383 1229.94 L76.1772 1229.94 L76.1772 1233.87 L56.2699 1233.87 L56.2699 1229.94 Z" fill="#000000" fill-rule="nonzero" fill-opacity="1" /><path clip-path="url(#clip680)" d="M59.8578 943.712 L76.1772 943.712 L76.1772 947.647 L54.2328 947.647 L54.2328 943.712 Q56.8949 940.957 61.4782 936.328 Q66.0846 931.675 67.2652 930.332 Q69.5105 927.809 70.3902 926.073 Q71.2929 924.314 71.2929 922.624 Q71.2929 919.87 69.3485 918.133 Q67.4272 916.397 64.3254 916.397 Q62.1263 916.397 59.6726 917.161 Q57.2421 917.925 54.4643 919.476 L54.4643 914.754 Q57.2884 913.62 59.7421 913.041 Q62.1958 912.462 64.2328 912.462 Q69.6031 912.462 72.7976 915.147 Q75.992 917.833 75.992 922.323 Q75.992 924.453 75.1818 926.374 Q74.3948 928.272 72.2883 930.865 Q71.7096 931.536 68.6078 934.754 Q65.5059 937.948 59.8578 943.712 Z" fill="#000000" fill-rule="nonzero" fill-opacity="1" /><path clip-path="url(#clip680)" d="M69.0476 642.786 Q72.404 643.504 74.279 645.773 Q76.1772 648.041 76.1772 651.374 Q76.1772 656.49 72.6587 659.291 Q69.1402 662.092 62.6587 662.092 Q60.4828 662.092 58.168 661.652 Q55.8764 661.235 53.4227 660.379 L53.4227 655.865 Q55.3671 656.999 57.6819 657.578 Q59.9967 658.157 62.5198 658.157 Q66.918 658.157 69.2096 656.421 Q71.5244 654.685 71.5244 651.374 Q71.5244 648.319 69.3717 646.606 Q67.242 644.87 63.4226 644.87 L59.3949 644.87 L59.3949 641.027 L63.6078 641.027 Q67.0569 641.027 68.8855 639.661 Q70.7142 638.273 70.7142 635.68 Q70.7142 633.018 68.8161 631.606 Q66.9411 630.171 63.4226 630.171 Q61.5013 630.171 59.3023 630.587 Q57.1032 631.004 54.4643 631.884 L54.4643 627.717 Q57.1264 626.976 59.4412 626.606 Q61.7791 626.236 63.8393 626.236 Q69.1633 626.236 72.2652 628.666 Q75.367 631.074 75.367 635.194 Q75.367 638.064 73.7235 640.055 Q72.08 642.023 69.0476 642.786 Z" fill="#000000" fill-rule="nonzero" fill-opacity="1" /><path clip-path="url(#clip680)" d="M66.5939 344.708 L54.7884 363.157 L66.5939 363.157 L66.5939 344.708 M65.367 340.634 L71.2466 340.634 L71.2466 363.157 L76.1772 363.157 L76.1772 367.046 L71.2466 367.046 L71.2466 375.194 L66.5939 375.194 L66.5939 367.046 L50.9921 367.046 L50.9921 362.532 L65.367 340.634 Z" fill="#000000" fill-rule="nonzero" fill-opacity="1" /><path clip-path="url(#clip680)" d="M55.2745 54.4074 L73.6309 54.4074 L73.6309 58.3426 L59.5569 58.3426 L59.5569 66.8148 Q60.5754 66.4676 61.5939 66.3055 Q62.6124 66.1203 63.6309 66.1203 Q69.418 66.1203 72.7976 69.2916 Q76.1772 72.4629 76.1772 77.8795 Q76.1772 83.4582 72.705 86.5601 Q69.2328 89.6387 62.9134 89.6387 Q60.7374 89.6387 58.4689 89.2684 Q56.2236 88.898 53.8162 88.1573 L53.8162 83.4582 Q55.8995 84.5925 58.1217 85.148 Q60.3439 85.7036 62.8208 85.7036 Q66.8254 85.7036 69.1633 83.5971 Q71.5013 81.4906 71.5013 77.8795 Q71.5013 74.2685 69.1633 72.162 Q66.8254 70.0555 62.8208 70.0555 Q60.9458 70.0555 59.0708 70.4722 Q57.2189 70.8888 55.2745 71.7685 L55.2745 54.4074 Z" fill="#000000" fill-rule="nonzero" fill-opacity="1" /><circle clip-path="url(#clip682)" cx="2289.34" cy="1334.08" r="14.4" fill="#808080" fill-rule="evenodd" fill-opacity="1" stroke="#000000" stroke-opacity="1" stroke-width="3.2"/>
<circle clip-path="url(#clip682)" cx="175.59" cy="87.9763" r="14.4" fill="#808080" fill-rule="evenodd" fill-opacity="1" stroke="#000000" stroke-opacity="1" stroke-width="3.2"/>
<circle clip-path="url(#clip682)" cx="1546.37" cy="1445.72" r="14.4" fill="#808080" fill-rule="evenodd" fill-opacity="1" stroke="#000000" stroke-opacity="1" stroke-width="3.2"/>
<circle clip-path="url(#clip682)" cx="1479.77" cy="1442.68" r="14.4" fill="#808080" fill-rule="evenodd" fill-opacity="1" stroke="#000000" stroke-opacity="1" stroke-width="3.2"/>
<path clip-path="url(#clip680)" d="M2293.64 1341.52 Q2284.6 1341.52 2281.12 1343.58 Q2277.64 1345.65 2277.64 1350.63 Q2277.64 1354.6 2280.23 1356.95 Q2282.86 1359.26 2287.36 1359.26 Q2293.56 1359.26 2297.28 1354.88 Q2301.05 1350.47 2301.05 1343.18 L2301.05 1341.52 L2293.64 1341.52 M2308.5 1338.44 L2308.5 1364.32 L2301.05 1364.32 L2301.05 1357.44 Q2298.5 1361.57 2294.69 1363.55 Q2290.88 1365.5 2285.37 1365.5 Q2278.41 1365.5 2274.27 1361.61 Q2270.18 1357.68 2270.18 1351.12 Q2270.18 1343.46 2275.29 1339.57 Q2280.43 1335.68 2290.6 1335.68 L2301.05 1335.68 L2301.05 1334.95 Q2301.05 1329.81 2297.65 1327.01 Q2294.29 1324.18 2288.17 1324.18 Q2284.28 1324.18 2280.59 1325.11 Q2276.91 1326.04 2273.5 1327.9 L2273.5 1321.02 Q2277.6 1319.44 2281.44 1318.67 Q2285.29 1317.86 2288.94 1317.86 Q2298.78 1317.86 2303.64 1322.96 Q2308.5 1328.07 2308.5 1338.44 Z" fill="#000000" fill-rule="nonzero" fill-opacity="1" /><path clip-path="url(#clip680)" d="M188.148 95.5717 Q188.148 87.3484 184.745 82.6898 Q181.383 77.9908 175.468 77.9908 Q169.554 77.9908 166.151 82.6898 Q162.789 87.3484 162.789 95.5717 Q162.789 103.795 166.151 108.494 Q169.554 113.153 175.468 113.153 Q181.383 113.153 184.745 108.494 Q188.148 103.795 188.148 95.5717 M162.789 79.7327 Q165.138 75.6818 168.703 73.7373 Q172.309 71.7524 177.291 71.7524 Q185.555 71.7524 190.7 78.3149 Q195.885 84.8773 195.885 95.5717 Q195.885 106.266 190.7 112.829 Q185.555 119.391 177.291 119.391 Q172.309 119.391 168.703 117.447 Q165.138 115.462 162.789 111.411 L162.789 118.216 L155.295 118.216 L155.295 55.1842 L162.789 55.1842 L162.789 79.7327 Z" fill="#000000" fill-rule="nonzero" fill-opacity="1" /><path clip-path="url(#clip680)" d="M1564.31 1432.33 L1564.31 1439.3 Q1561.15 1437.55 1557.95 1436.7 Q1554.79 1435.81 1551.55 1435.81 Q1544.3 1435.81 1540.29 1440.43 Q1536.28 1445.01 1536.28 1453.31 Q1536.28 1461.62 1540.29 1466.23 Q1544.3 1470.81 1551.55 1470.81 Q1554.79 1470.81 1557.95 1469.96 Q1561.15 1469.07 1564.31 1467.33 L1564.31 1474.21 Q1561.19 1475.67 1557.83 1476.4 Q1554.51 1477.13 1550.74 1477.13 Q1540.49 1477.13 1534.46 1470.69 Q1528.42 1464.25 1528.42 1453.31 Q1528.42 1442.21 1534.5 1435.85 Q1540.62 1429.49 1551.23 1429.49 Q1554.67 1429.49 1557.95 1430.22 Q1561.24 1430.91 1564.31 1432.33 Z" fill="#000000" fill-rule="nonzero" fill-opacity="1" /><path clip-path="url(#clip680)" d="M1492.59 1434.44 L1492.59 1409.89 L1500.04 1409.89 L1500.04 1472.92 L1492.59 1472.92 L1492.59 1466.12 Q1490.24 1470.17 1486.64 1472.15 Q1483.07 1474.1 1478.05 1474.1 Q1469.83 1474.1 1464.64 1467.53 Q1459.5 1460.97 1459.5 1450.28 Q1459.5 1439.58 1464.64 1433.02 Q1469.83 1426.46 1478.05 1426.46 Q1483.07 1426.46 1486.64 1428.44 Q1490.24 1430.39 1492.59 1434.44 M1467.19 1450.28 Q1467.19 1458.5 1470.55 1463.2 Q1473.96 1467.86 1479.87 1467.86 Q1485.79 1467.86 1489.19 1463.2 Q1492.59 1458.5 1492.59 1450.28 Q1492.59 1442.05 1489.19 1437.39 Q1485.79 1432.7 1479.87 1432.7 Q1473.96 1432.7 1470.55 1437.39 Q1467.19 1442.05 1467.19 1450.28 Z" fill="#000000" fill-rule="nonzero" fill-opacity="1" /><path clip-path="url(#clip680)" d="M2001.58 198.898 L2278.07 198.898 L2278.07 95.2176 L2001.58 95.2176  Z" fill="#ffffff" fill-rule="evenodd" fill-opacity="1"/>
<polyline clip-path="url(#clip680)" style="stroke:#000000; stroke-linecap:round; stroke-linejoin:round; stroke-width:4; stroke-opacity:1; fill:none" points="2001.58,198.898 2278.07,198.898 2278.07,95.2176 2001.58,95.2176 2001.58,198.898 "/>
<circle clip-path="url(#clip680)" cx="2101.16" cy="147.058" r="20.48" fill="#808080" fill-rule="evenodd" fill-opacity="1" stroke="#000000" stroke-opacity="1" stroke-width="4.55111"/>
<path clip-path="url(#clip680)" d="M2214.59 166.745 Q2212.78 171.375 2211.07 172.787 Q2209.36 174.199 2206.49 174.199 L2203.08 174.199 L2203.08 170.634 L2205.58 170.634 Q2207.34 170.634 2208.31 169.8 Q2209.29 168.967 2210.47 165.865 L2211.23 163.921 L2200.74 138.412 L2205.26 138.412 L2213.36 158.689 L2221.46 138.412 L2225.98 138.412 L2214.59 166.745 Z" fill="#000000" fill-rule="nonzero" fill-opacity="1" /><path clip-path="url(#clip680)" d="M2233.27 160.402 L2240.91 160.402 L2240.91 134.037 L2232.6 135.703 L2232.6 131.444 L2240.86 129.778 L2245.54 129.778 L2245.54 160.402 L2253.17 160.402 L2253.17 164.338 L2233.27 164.338 L2233.27 160.402 Z" fill="#000000" fill-rule="nonzero" fill-opacity="1" /></svg>
