<?xml version="1.0" encoding="utf-8"?>
<svg xmlns="http://www.w3.org/2000/svg" xmlns:xlink="http://www.w3.org/1999/xlink" width="600" height="400" viewBox="0 0 2400 1600">
<defs>
  <clipPath id="clip740">
    <rect x="0" y="0" width="2400" height="1600"/>
  </clipPath>
</defs>
<path clip-path="url(#clip740)" d="M0 1600 L2400 1600 L2400 0 L0 0  Z" fill="#ffffff" fill-rule="evenodd" fill-opacity="1"/>
<defs>
  <clipPath id="clip741">
    <rect x="480" y="0" width="1681" height="1600"/>
  </clipPath>
</defs>
<path clip-path="url(#clip740)" d="M156.112 1486.45 L2352.76 1486.45 L2352.76 47.2441 L156.112 47.2441  Z" fill="#ffffff" fill-rule="evenodd" fill-opacity="1"/>
<defs>
  <clipPath id="clip742">
    <rect x="156" y="47" width="2198" height="1440"/>
  </clipPath>
</defs>
<polyline clip-path="url(#clip742)" style="stroke:#000000; stroke-linecap:round; stroke-linejoin:round; stroke-width:2; stroke-opacity:0.1; fill:none" points="385.916,1486.45 385.916,47.2441 "/>
<polyline clip-path="url(#clip742)" style="stroke:#000000; stroke-linecap:round; stroke-linejoin:round; stroke-width:2; stroke-opacity:0.1; fill:none" points="893.319,1486.45 893.319,47.2441 "/>
<polyline clip-path="url(#clip742)" style="stroke:#000000; stroke-linecap:round; stroke-linejoin:round; stroke-width:2; stroke-opacity:0.1; fill:none" points="1400.72,1486.45 1400.72,47.2441 "/>
<polyline clip-path="url(#clip742)" style="stroke:#000000; stroke-linecap:round; stroke-linejoin:round; stroke-width:2; stroke-opacity:0.1; fill:none" points="1908.13,1486.45 1908.13,47.2441 "/>
<polyline clip-path="url(#clip740)" style="stroke:#000000; stroke-linecap:round; stroke-linejoin:round; stroke-width:4; stroke-opacity:1; fill:none" points="156.112,1486.45 2352.76,1486.45 "/>
<polyline clip-path="url(#clip740)" style="stroke:#000000; stroke-linecap:round; stroke-linejoin:round; stroke-width:4; stroke-opacity:1; fill:none" points="385.916,1486.45 385.916,1467.55 "/>
<polyline clip-path="url(#clip740)" style="stroke:#000000; stroke-linecap:round; stroke-linejoin:round; stroke-width:4; stroke-opacity:1; fill:none" points="893.319,1486.45 893.319,1467.55 "/>
<polyline clip-path="url(#clip740)" style="stroke:#000000; stroke-linecap:round; stroke-linejoin:round; stroke-width:4; stroke-opacity:1; fill:none" points="1400.72,1486.45 1400.72,1467.55 "/>
<polyline clip-path="url(#clip740)" style="stroke:#000000; stroke-linecap:round; stroke-linejoin:round; stroke-width:4; stroke-opacity:1; fill:none" points="1908.13,1486.45 1908.13,1467.55 "/>
<path clip-path="url(#clip740)" d="M332.201 1532.02 L361.877 1532.02 L361.877 1535.95 L332.201 1535.95 L332.201 1532.02 Z" fill="#000000" fill-rule="nonzero" fill-opacity="1" /><path clip-path="url(#clip740)" d="M381.969 1517.37 Q378.358 1517.37 376.529 1520.93 Q374.724 1524.47 374.724 1531.6 Q374.724 1538.71 376.529 1542.27 Q378.358 1545.82 381.969 1545.82 Q385.603 1545.82 387.409 1542.27 Q389.238 1538.71 389.238 1531.6 Q389.238 1524.47 387.409 1520.93 Q385.603 1517.37 381.969 1517.37 M381.969 1513.66 Q387.779 1513.66 390.835 1518.27 Q393.914 1522.85 393.914 1531.6 Q393.914 1540.33 390.835 1544.94 Q387.779 1549.52 381.969 1549.52 Q376.159 1549.52 373.08 1544.94 Q370.025 1540.33 370.025 1531.6 Q370.025 1522.85 373.08 1518.27 Q376.159 1513.66 381.969 1513.66 Z" fill="#000000" fill-rule="nonzero" fill-opacity="1" /><path clip-path="url(#clip740)" d="M402.131 1542.97 L407.015 1542.97 L407.015 1548.85 L402.131 1548.85 L402.131 1542.97 Z" fill="#000000" fill-rule="nonzero" fill-opacity="1" /><path clip-path="url(#clip740)" d="M430.048 1518.36 L418.242 1536.81 L430.048 1536.81 L430.048 1518.36 M428.821 1514.29 L434.7 1514.29 L434.7 1536.81 L439.631 1536.81 L439.631 1540.7 L434.7 1540.7 L434.7 1548.85 L430.048 1548.85 L430.048 1540.7 L414.446 1540.7 L414.446 1536.19 L428.821 1514.29 Z" fill="#000000" fill-rule="nonzero" fill-opacity="1" /><path clip-path="url(#clip740)" d="M840.646 1532.02 L870.322 1532.02 L870.322 1535.95 L840.646 1535.95 L840.646 1532.02 Z" fill="#000000" fill-rule="nonzero" fill-opacity="1" /><path clip-path="url(#clip740)" d="M890.414 1517.37 Q886.803 1517.37 884.975 1520.93 Q883.169 1524.47 883.169 1531.6 Q883.169 1538.71 884.975 1542.27 Q886.803 1545.82 890.414 1545.82 Q894.049 1545.82 895.854 1542.27 Q897.683 1538.71 897.683 1531.6 Q897.683 1524.47 895.854 1520.93 Q894.049 1517.37 890.414 1517.37 M890.414 1513.66 Q896.225 1513.66 899.28 1518.27 Q902.359 1522.85 902.359 1531.6 Q902.359 1540.33 899.28 1544.94 Q896.225 1549.52 890.414 1549.52 Q884.604 1549.52 881.526 1544.94 Q878.47 1540.33 878.47 1531.6 Q878.47 1522.85 881.526 1518.27 Q884.604 1513.66 890.414 1513.66 Z" fill="#000000" fill-rule="nonzero" fill-opacity="1" /><path clip-path="url(#clip740)" d="M910.576 1542.97 L915.461 1542.97 L915.461 1548.85 L910.576 1548.85 L910.576 1542.97 Z" fill="#000000" fill-rule="nonzero" fill-opacity="1" /><path clip-path="url(#clip740)" d="M929.673 1544.91 L945.993 1544.91 L945.993 1548.85 L924.048 1548.85 L924.048 1544.91 Q926.71 1542.16 931.294 1537.53 Q935.9 1532.88 937.081 1531.53 Q939.326 1529.01 940.206 1527.27 Q941.109 1525.51 941.109 1523.82 Q941.109 1521.07 939.164 1519.33 Q937.243 1517.6 934.141 1517.6 Q931.942 1517.6 929.488 1518.36 Q927.058 1519.13 924.28 1520.68 L924.28 1515.95 Q927.104 1514.82 929.558 1514.24 Q932.011 1513.66 934.048 1513.66 Q939.419 1513.66 942.613 1516.35 Q945.808 1519.03 945.808 1523.52 Q945.808 1525.65 944.997 1527.57 Q944.21 1529.47 942.104 1532.07 Q941.525 1532.74 938.423 1535.95 Q935.322 1539.15 929.673 1544.91 Z" fill="#000000" fill-rule="nonzero" fill-opacity="1" /><path clip-path="url(#clip740)" d="M1378.11 1517.37 Q1374.5 1517.37 1372.67 1520.93 Q1370.86 1524.47 1370.86 1531.6 Q1370.86 1538.71 1372.67 1542.27 Q1374.5 1545.82 1378.11 1545.82 Q1381.74 1545.82 1383.55 1542.27 Q1385.38 1538.71 1385.38 1531.6 Q1385.38 1524.47 1383.55 1520.93 Q1381.74 1517.37 1378.11 1517.37 M1378.11 1513.66 Q1383.92 1513.66 1386.97 1518.27 Q1390.05 1522.85 1390.05 1531.6 Q1390.05 1540.33 1386.97 1544.94 Q1383.92 1549.52 1378.11 1549.52 Q1372.3 1549.52 1369.22 1544.94 Q1366.16 1540.33 1366.16 1531.6 Q1366.16 1522.85 1369.22 1518.27 Q1372.3 1513.66 1378.11 1513.66 Z" fill="#000000" fill-rule="nonzero" fill-opacity="1" /><path clip-path="url(#clip740)" d="M1398.27 1542.97 L1403.15 1542.97 L1403.15 1548.85 L1398.27 1548.85 L1398.27 1542.97 Z" fill="#000000" fill-rule="nonzero" fill-opacity="1" /><path clip-path="url(#clip740)" d="M1423.34 1517.37 Q1419.73 1517.37 1417.9 1520.93 Q1416.09 1524.47 1416.09 1531.6 Q1416.09 1538.71 1417.9 1542.27 Q1419.73 1545.82 1423.34 1545.82 Q1426.97 1545.82 1428.78 1542.27 Q1430.61 1538.71 1430.61 1531.6 Q1430.61 1524.47 1428.78 1520.93 Q1426.97 1517.37 1423.34 1517.37 M1423.34 1513.66 Q1429.15 1513.66 1432.2 1518.27 Q1435.28 1522.85 1435.28 1531.6 Q1435.28 1540.33 1432.2 1544.94 Q1429.15 1549.52 1423.34 1549.52 Q1417.53 1549.52 1414.45 1544.94 Q1411.39 1540.33 1411.39 1531.6 Q1411.39 1522.85 1414.45 1518.27 Q1417.53 1513.66 1423.34 1513.66 Z" fill="#000000" fill-rule="nonzero" fill-opacity="1" /><path clip-path="url(#clip740)" d="M1886.31 1517.37 Q1882.7 1517.37 1880.87 1520.93 Q1879.06 1524.47 1879.06 1531.6 Q1879.06 1538.71 1880.87 1542.27 Q1882.7 1545.82 1886.31 1545.82 Q1889.94 1545.82 1891.75 1542.27 Q1893.58 1538.71 1893.58 1531.6 Q1893.58 1524.47 1891.75 1520.93 Q1889.94 1517.37 1886.31 1517.37 M1886.31 1513.66 Q1892.12 1513.66 1895.18 1518.27 Q1898.25 1522.85 1898.25 1531.6 Q1898.25 1540.33 1895.18 1544.94 Q1892.12 1549.52 1886.31 1549.52 Q1880.5 1549.52 1877.42 1544.94 Q1874.37 1540.33 1874.37 1531.6 Q1874.37 1522.85 1877.42 1518.27 Q1880.5 1513.66 1886.31 1513.66 Z" fill="#000000" fill-rule="nonzero" fill-opacity="1" /><path clip-path="url(#clip740)" d="M1906.47 1542.97 L1911.36 1542.97 L1911.36 1548.85 L1906.47 1548.85 L1906.47 1542.97 Z" fill="#000000" fill-rule="nonzero" fill-opacity="1" /><path clip-path="url(#clip740)" d="M1925.57 1544.91 L1941.89 1544.91 L1941.89 1548.85 L1919.94 1548.85 L1919.94 1544.91 Q1922.61 1542.16 1927.19 1537.53 Q1931.8 1532.88 1932.98 1531.53 Q1935.22 1529.01 1936.1 1527.27 Q1937 1525.51 1937 1523.82 Q1937 1521.07 1935.06 1519.33 Q1933.14 1517.6 1930.04 1517.6 Q1927.84 1517.6 1925.38 1518.36 Q1922.95 1519.13 1920.18 1520.68 L1920.18 1515.95 Q1923 1514.82 1925.45 1514.24 Q1927.91 1513.66 1929.94 1513.66 Q1935.31 1513.66 1938.51 1516.35 Q1941.7 1519.03 1941.7 1523.52 Q1941.7 1525.65 1940.89 1527.57 Q1940.11 1529.47 1938 1532.07 Q1937.42 1532.74 1934.32 1535.95 Q1931.22 1539.15 1925.57 1544.91 Z" fill="#000000" fill-rule="nonzero" fill-opacity="1" /><polyline clip-path="url(#clip742)" style="stroke:#000000; stroke-linecap:round; stroke-linejoin:round; stroke-width:2; stroke-opacity:0.1; fill:none" points="156.112,1450.5 2352.76,1450.5 "/>
<polyline clip-path="url(#clip742)" style="stroke:#000000; stroke-linecap:round; stroke-linejoin:round; stroke-width:2; stroke-opacity:0.1; fill:none" points="156.112,1092.45 2352.76,1092.45 "/>
<polyline clip-path="url(#clip742)" style="stroke:#000000; stroke-linecap:round; stroke-linejoin:round; stroke-width:2; stroke-opacity:0.1; fill:none" points="156.112,734.4 2352.76,734.4 "/>
<polyline clip-path="url(#clip742)" style="stroke:#000000; stroke-linecap:round; stroke-linejoin:round; stroke-width:2; stroke-opacity:0.1; fill:none" points="156.112,376.348 2352.76,376.348 "/>
<polyline clip-path="url(#clip740)" style="stroke:#000000; stroke-linecap:round; stroke-linejoin:round; stroke-width:4; stroke-opacity:1; fill:none" points="156.112,1486.45 156.112,47.2441 "/>
<polyline clip-path="url(#clip740)" style="stroke:#000000; stroke-linecap:round; stroke-linejoin:round; stroke-width:4; stroke-opacity:1; fill:none" points="156.112,1450.5 175.01,1450.5 "/>
<polyline clip-path="url(#clip740)" style="stroke:#000000; stroke-linecap:round; stroke-linejoin:round; stroke-width:4; stroke-opacity:1; fill:none" points="156.112,1092.45 175.01,1092.45 "/>
<polyline clip-path="url(#clip740)" style="stroke:#000000; stroke-linecap:round; stroke-linejoin:round; stroke-width:4; stroke-opacity:1; fill:none" points="156.112,734.4 175.01,734.4 "/>
<polyline clip-path="url(#clip740)" style="stroke:#000000; stroke-linecap:round; stroke-linejoin:round; stroke-width:4; stroke-opacity:1; fill:none" points="156.112,376.348 175.01,376.348 "/>
<path clip-path="url(#clip740)" d="M62.9365 1436.3 Q59.3254 1436.3 57.4967 1439.87 Q55.6912 1443.41 55.6912 1450.54 Q55.6912 1457.64 57.4967 1461.21 Q59.3254 1464.75 62.9365 1464.75 Q66.5707 1464.75 68.3763 1461.21 Q70.205 1457.64 70.205 1450.54 Q70.205 1443.41 68.3763 1439.87 Q66.5707 1436.3 62.9365 1436.3 M62.9365 1432.6 Q68.7467 1432.6 71.8022 1437.2 Q74.8809 1441.79 74.8809 1450.54 Q74.8809 1459.26 71.8022 1463.87 Q68.7467 1468.45 62.9365 1468.45 Q57.1264 1468.45 54.0477 1463.87 Q50.9921 1459.26 50.9921 1450.54 Q50.9921 1441.79 54.0477 1437.2 Q57.1264 1432.6 62.9365 1432.6 Z" fill="#000000" fill-rule="nonzero" fill-opacity="1" /><path clip-path="url(#clip740)" d="M83.0984 1461.9 L87.9827 1461.9 L87.9827 1467.78 L83.0984 1467.78 L83.0984 1461.9 Z" fill="#000000" fill-rule="nonzero" fill-opacity="1" /><path clip-path="url(#clip740)" d="M108.168 1436.3 Q104.557 1436.3 102.728 1439.87 Q100.922 1443.41 100.922 1450.54 Q100.922 1457.64 102.728 1461.21 Q104.557 1464.75 108.168 1464.75 Q111.802 1464.75 113.608 1461.21 Q115.436 1457.64 115.436 1450.54 Q115.436 1443.41 113.608 1439.87 Q111.802 1436.3 108.168 1436.3 M108.168 1432.6 Q113.978 1432.6 117.033 1437.2 Q120.112 1441.79 120.112 1450.54 Q120.112 1459.26 117.033 1463.87 Q113.978 1468.45 108.168 1468.45 Q102.358 1468.45 99.2789 1463.87 Q96.2234 1459.26 96.2234 1450.54 Q96.2234 1441.79 99.2789 1437.2 Q102.358 1432.6 108.168 1432.6 Z" fill="#000000" fill-rule="nonzero" fill-opacity="1" /><path clip-path="url(#clip740)" d="M64.1634 1078.25 Q60.5523 1078.25 58.7236 1081.81 Q56.918 1085.36 56.918 1092.49 Q56.918 1099.59 58.7236 1103.16 Q60.5523 1106.7 64.1634 1106.7 Q67.7976 1106.7 69.6031 1103.16 Q71.4318 1099.59 71.4318 1092.49 Q71.4318 1085.36 69.6031 1081.81 Q67.7976 1078.25 64.1634 1078.25 M64.1634 1074.55 Q69.9735 1074.55 73.029 1079.15 Q76.1077 1083.74 76.1077 1092.49 Q76.1077 1101.21 73.029 1105.82 Q69.9735 1110.4 64.1634 1110.4 Q58.3532 1110.4 55.2745 1105.82 Q52.219 1101.21 52.219 1092.49 Q52.219 1083.74 55.2745 1079.15 Q58.3532 1074.55 64.1634 1074.55 Z" fill="#000000" fill-rule="nonzero" fill-opacity="1" /><path clip-path="url(#clip740)" d="M84.3253 1103.85 L89.2095 1103.85 L89.2095 1109.73 L84.3253 1109.73 L84.3253 1103.85 Z" fill="#000000" fill-rule="nonzero" fill-opacity="1" /><path clip-path="url(#clip740)" d="M100.205 1105.8 L107.844 1105.8 L107.844 1079.43 L99.5335 1081.1 L99.5335 1076.84 L107.797 1075.17 L112.473 1075.17 L112.473 1105.8 L120.112 1105.8 L120.112 1109.73 L100.205 1109.73 L100.205 1105.8 Z" fill="#000000" fill-rule="nonzero" fill-opacity="1" /><path clip-path="url(#clip740)" d="M64.5337 720.198 Q60.9226 720.198 59.0939 723.763 Q57.2884 727.305 57.2884 734.434 Q57.2884 741.541 59.0939 745.106 Q60.9226 748.647 64.5337 748.647 Q68.168 748.647 69.9735 745.106 Q71.8022 741.541 71.8022 734.434 Q71.8022 727.305 69.9735 723.763 Q68.168 720.198 64.5337 720.198 M64.5337 716.495 Q70.3439 716.495 73.3994 721.101 Q76.4781 725.684 76.4781 734.434 Q76.4781 743.161 73.3994 747.768 Q70.3439 752.351 64.5337 752.351 Q58.7236 752.351 55.6449 747.768 Q52.5893 743.161 52.5893 734.434 Q52.5893 725.684 55.6449 721.101 Q58.7236 716.495 64.5337 716.495 Z" fill="#000000" fill-rule="nonzero" fill-opacity="1" /><path clip-path="url(#clip740)" d="M84.6956 745.8 L89.5799 745.8 L89.5799 751.68 L84.6956 751.68 L84.6956 745.8 Z" fill="#000000" fill-rule="nonzero" fill-opacity="1" /><path clip-path="url(#clip740)" d="M103.793 747.744 L120.112 747.744 L120.112 751.68 L98.1678 751.68 L98.1678 747.744 Q100.83 744.99 105.413 740.36 Q110.02 735.707 111.2 734.365 Q113.445 731.842 114.325 730.106 Q115.228 728.346 115.228 726.657 Q115.228 723.902 113.283 722.166 Q111.362 720.43 108.26 720.43 Q106.061 720.43 103.608 721.194 Q101.177 721.958 98.3993 723.508 L98.3993 718.786 Q101.223 717.652 103.677 717.073 Q106.131 716.495 108.168 716.495 Q113.538 716.495 116.733 719.18 Q119.927 721.865 119.927 726.356 Q119.927 728.485 119.117 730.407 Q118.33 732.305 116.223 734.897 Q115.645 735.569 112.543 738.786 Q109.441 741.981 103.793 747.744 Z" fill="#000000" fill-rule="nonzero" fill-opacity="1" /><path clip-path="url(#clip740)" d="M63.5847 362.147 Q59.9736 362.147 58.1449 365.711 Q56.3393 369.253 56.3393 376.383 Q56.3393 383.489 58.1449 387.054 Q59.9736 390.596 63.5847 390.596 Q67.2189 390.596 69.0244 387.054 Q70.8531 383.489 70.8531 376.383 Q70.8531 369.253 69.0244 365.711 Q67.2189 362.147 63.5847 362.147 M63.5847 358.443 Q69.3948 358.443 72.4503 363.049 Q75.529 367.633 75.529 376.383 Q75.529 385.109 72.4503 389.716 Q69.3948 394.299 63.5847 394.299 Q57.7745 394.299 54.6958 389.716 Q51.6403 385.109 51.6403 376.383 Q51.6403 367.633 54.6958 363.049 Q57.7745 358.443 63.5847 358.443 Z" fill="#000000" fill-rule="nonzero" fill-opacity="1" /><path clip-path="url(#clip740)" d="M83.7466 387.748 L88.6308 387.748 L88.6308 393.628 L83.7466 393.628 L83.7466 387.748 Z" fill="#000000" fill-rule="nonzero" fill-opacity="1" /><path clip-path="url(#clip740)" d="M112.983 374.994 Q116.339 375.711 118.214 377.98 Q120.112 380.248 120.112 383.582 Q120.112 388.697 116.594 391.498 Q113.075 394.299 106.594 394.299 Q104.418 394.299 102.103 393.859 Q99.8113 393.443 97.3576 392.586 L97.3576 388.072 Q99.3021 389.207 101.617 389.785 Q103.932 390.364 106.455 390.364 Q110.853 390.364 113.145 388.628 Q115.459 386.892 115.459 383.582 Q115.459 380.526 113.307 378.813 Q111.177 377.077 107.358 377.077 L103.33 377.077 L103.33 373.235 L107.543 373.235 Q110.992 373.235 112.82 371.869 Q114.649 370.48 114.649 367.887 Q114.649 365.225 112.751 363.813 Q110.876 362.378 107.358 362.378 Q105.436 362.378 103.237 362.795 Q101.038 363.211 98.3993 364.091 L98.3993 359.924 Q101.061 359.184 103.376 358.813 Q105.714 358.443 107.774 358.443 Q113.098 358.443 116.2 360.873 Q119.302 363.281 119.302 367.401 Q119.302 370.272 117.658 372.262 Q116.015 374.23 112.983 374.994 Z" fill="#000000" fill-rule="nonzero" fill-opacity="1" /><circle clip-path="url(#clip742)" cx="1342.97" cy="1223.25" r="14.4" fill="#808080" fill-rule="evenodd" fill-opacity="1" stroke="#000000" stroke-opacity="1" stroke-width="3.2"/>
<circle clip-path="url(#clip742)" cx="1376.77" cy="1445.72" r="14.4" fill="#808080" fill-rule="evenodd" fill-opacity="1" stroke="#000000" stroke-opacity="1" stroke-width="3.2"/>
<circle clip-path="url(#clip742)" cx="2290.59" cy="1310.56" r="14.4" fill="#808080" fill-rule="evenodd" fill-opacity="1" stroke="#000000" stroke-opacity="1" stroke-width="3.2"/>
<circle clip-path="url(#clip742)" cx="218.281" cy="87.9763" r="14.4" fill="#808080" fill-rule="evenodd" fill-opacity="1" stroke="#000000" stroke-opacity="1" stroke-width="3.2"/>
<path clip-path="url(#clip740)" d="M1347.27 1230.68 Q1338.23 1230.68 1334.75 1232.75 Q1331.27 1234.81 1331.27 1239.8 Q1331.27 1243.77 1333.86 1246.12 Q1336.49 1248.43 1340.99 1248.43 Q1347.19 1248.43 1350.91 1244.05 Q1354.68 1239.64 1354.68 1232.34 L1354.68 1230.68 L1347.27 1230.68 M1362.13 1227.6 L1362.13 1253.49 L1354.68 1253.49 L1354.68 1246.6 Q1352.13 1250.73 1348.32 1252.72 Q1344.51 1254.66 1339 1254.66 Q1332.03 1254.66 1327.9 1250.78 Q1323.81 1246.85 1323.81 1240.28 Q1323.81 1232.63 1328.92 1228.74 Q1334.06 1224.85 1344.23 1224.85 L1354.68 1224.85 L1354.68 1224.12 Q1354.68 1218.98 1351.28 1216.18 Q1347.91 1213.34 1341.8 1213.34 Q1337.91 1213.34 1334.22 1214.28 Q1330.54 1215.21 1327.13 1217.07 L1327.13 1210.19 Q1331.22 1208.61 1335.07 1207.84 Q1338.92 1207.03 1342.57 1207.03 Q1352.41 1207.03 1357.27 1212.13 Q1362.13 1217.23 1362.13 1227.6 Z" fill="#000000" fill-rule="nonzero" fill-opacity="1" /><path clip-path="url(#clip740)" d="M1389.33 1453.31 Q1389.33 1445.09 1385.92 1440.43 Q1382.56 1435.73 1376.65 1435.73 Q1370.73 1435.73 1367.33 1440.43 Q1363.97 1445.09 1363.97 1453.31 Q1363.97 1461.53 1367.33 1466.23 Q1370.73 1470.89 1376.65 1470.89 Q1382.56 1470.89 1385.92 1466.23 Q1389.33 1461.53 1389.33 1453.31 M1363.97 1437.47 Q1366.32 1433.42 1369.88 1431.48 Q1373.49 1429.49 1378.47 1429.49 Q1386.73 1429.49 1391.88 1436.05 Q1397.06 1442.62 1397.06 1453.31 Q1397.06 1464.01 1391.88 1470.57 Q1386.73 1477.13 1378.47 1477.13 Q1373.49 1477.13 1369.88 1475.19 Q1366.32 1473.2 1363.97 1469.15 L1363.97 1475.96 L1356.47 1475.96 L1356.47 1412.92 L1363.97 1412.92 L1363.97 1437.47 Z" fill="#000000" fill-rule="nonzero" fill-opacity="1" /><path clip-path="url(#clip740)" d="M2308.53 1297.17 L2308.53 1304.14 Q2305.37 1302.4 2302.17 1301.55 Q2299.01 1300.66 2295.77 1300.66 Q2288.52 1300.66 2284.51 1305.27 Q2280.5 1309.85 2280.5 1318.16 Q2280.5 1326.46 2284.51 1331.08 Q2288.52 1335.66 2295.77 1335.66 Q2299.01 1335.66 2302.17 1334.8 Q2305.37 1333.91 2308.53 1332.17 L2308.53 1339.06 Q2305.41 1340.52 2302.05 1341.25 Q2298.73 1341.97 2294.96 1341.97 Q2284.71 1341.97 2278.68 1335.53 Q2272.64 1329.09 2272.64 1318.16 Q2272.64 1307.06 2278.72 1300.7 Q2284.83 1294.34 2295.45 1294.34 Q2298.89 1294.34 2302.17 1295.07 Q2305.45 1295.75 2308.53 1297.17 Z" fill="#000000" fill-rule="nonzero" fill-opacity="1" /><path clip-path="url(#clip740)" d="M231.102 79.7327 L231.102 55.1842 L238.556 55.1842 L238.556 118.216 L231.102 118.216 L231.102 111.411 Q228.753 115.462 225.148 117.447 Q221.583 119.391 216.56 119.391 Q208.336 119.391 203.151 112.829 Q198.007 106.266 198.007 95.5717 Q198.007 84.8773 203.151 78.3149 Q208.336 71.7524 216.56 71.7524 Q221.583 71.7524 225.148 73.7373 Q228.753 75.6818 231.102 79.7327 M205.703 95.5717 Q205.703 103.795 209.065 108.494 Q212.468 113.153 218.383 113.153 Q224.297 113.153 227.7 108.494 Q231.102 103.795 231.102 95.5717 Q231.102 87.3484 227.7 82.6898 Q224.297 77.9908 218.383 77.9908 Q212.468 77.9908 209.065 82.6898 Q205.703 87.3484 205.703 95.5717 Z" fill="#000000" fill-rule="nonzero" fill-opacity="1" /><path clip-path="url(#clip740)" d="M2007.44 198.898 L2279.53 198.898 L2279.53 95.2176 L2007.44 95.2176  Z" fill="#ffffff" fill-rule="evenodd" fill-opacity="1"/>
<polyline clip-path="url(#clip740)" style="stroke:#000000; stroke-linecap:round; stroke-linejoin:round; stroke-width:4; stroke-opacity:1; fill:none" points="2007.44,198.898 2279.53,198.898 2279.53,95.2176 2007.44,95.2176 2007.44,198.898 "/>
<circle clip-path="url(#clip740)" cx="2105.07" cy="147.058" r="20.48" fill="#808080" fill-rule="evenodd" fill-opacity="1" stroke="#000000" stroke-opacity="1" stroke-width="4.55111"/>
<path clip-path="url(#clip740)" d="M2216.54 166.745 Q2214.73 171.375 2213.02 172.787 Q2211.31 174.199 2208.44 174.199 L2205.03 174.199 L2205.03 170.634 L2207.53 170.634 Q2209.29 170.634 2210.27 169.8 Q2211.24 168.967 2212.42 165.865 L2213.18 163.921 L2202.7 138.412 L2207.21 138.412 L2215.31 158.689 L2223.41 138.412 L2227.93 138.412 L2216.54 166.745 Z" fill="#000000" fill-rule="nonzero" fill-opacity="1" /><path clip-path="url(#clip740)" d="M2235.22 160.402 L2242.86 160.402 L2242.86 134.037 L2234.55 135.703 L2234.55 131.444 L2242.81 129.778 L2247.49 129.778 L2247.49 160.402 L2255.13 160.402 L2255.13 164.338 L2235.22 164.338 L2235.22 160.402 Z" fill="#000000" fill-rule="nonzero" fill-opacity="1" /></svg>
