<?xml version="1.0" encoding="utf-8"?>
<svg xmlns="http://www.w3.org/2000/svg" xmlns:xlink="http://www.w3.org/1999/xlink" width="600" height="400" viewBox="0 0 2400 1600">
<defs>
  <clipPath id="clip580">
    <rect x="0" y="0" width="2400" height="1600"/>
  </clipPath>
</defs>
<path clip-path="url(#clip580)" d="M0 1600 L2400 1600 L2400 0 L0 0  Z" fill="#ffffff" fill-rule="evenodd" fill-opacity="1"/>
<defs>
  <clipPath id="clip581">
    <rect x="480" y="0" width="1681" height="1600"/>
  </clipPath>
</defs>
<path clip-path="url(#clip580)" d="M156.112 1486.45 L2352.76 1486.45 L2352.76 47.2441 L156.112 47.2441  Z" fill="#ffffff" fill-rule="evenodd" fill-opacity="1"/>
<defs>
  <clipPath id="clip582">
    <rect x="156" y="47" width="2198" height="1440"/>
  </clipPath>
</defs>
<polyline clip-path="url(#clip582)" style="stroke:#000000; stroke-linecap:round; stroke-linejoin:round; stroke-width:2; stroke-opacity:0.1; fill:none" points="414.999,1486.45 414.999,47.2441 "/>
<polyline clip-path="url(#clip582)" style="stroke:#000000; stroke-linecap:round; stroke-linejoin:round; stroke-width:2; stroke-opacity:0.1; fill:none" points="893.485,1486.45 893.485,47.2441 "/>
<polyline clip-path="url(#clip582)" style="stroke:#000000; stroke-linecap:round; stroke-linejoin:round; stroke-width:2; stroke-opacity:0.1; fill:none" points="1371.97,1486.45 1371.97,47.2441 "/>
<polyline clip-path="url(#clip582)" style="stroke:#000000; stroke-linecap:round; stroke-linejoin:round; stroke-width:2; stroke-opacity:0.1; fill:none" points="1850.46,1486.45 1850.46,47.2441 "/>
<polyline clip-path="url(#clip582)" style="stroke:#000000; stroke-linecap:round; stroke-linejoin:round; stroke-width:2; stroke-opacity:0.1; fill:none" points="2328.94,1486.45 2328.94,47.2441 "/>
<polyline clip-path="url(#clip580)" style="stroke:#000000; stroke-linecap:round; stroke-linejoin:round; stroke-width:4; stroke-opacity:1; fill:none" points="156.112,1486.45 2352.76,1486.45 "/>
<polyline clip-path="url(#clip580)" style="stroke:#000000; stroke-linecap:round; stroke-linejoin:round; stroke-width:4; stroke-opacity:1; fill:none" points="414.999,1486.45 414.999,1467.55 "/>
<polyline clip-path="url(#clip580)" style="stroke:#000000; stroke-linecap:round; stroke-linejoin:round; stroke-width:4; stroke-opacity:1; fill:none" points="893.485,1486.45 893.485,1467.55 "/>
<polyline clip-path="url(#clip580)" style="stroke:#000000; stroke-linecap:round; stroke-linejoin:round; stroke-width:4; stroke-opacity:1; fill:none" points="1371.97,1486.45 1371.97,1467.55 "/>
<polyline clip-path="url(#clip580)" style="stroke:#000000; stroke-linecap:round; stroke-linejoin:round; stroke-width:4; stroke-opacity:1; fill:none" points="1850.46,1486.45 1850.46,1467.55 "/>
<polyline clip-path="url(#clip580)" style="stroke:#000000; stroke-linecap:round; stroke-linejoin:round; stroke-width:4; stroke-opacity:1; fill:none" points="2328.94,1486.45 2328.94,1467.55 "/>
<path clip-path="url(#clip580)" d="M361.284 1532.02 L390.959 1532.02 L390.959 1535.95 L361.284 1535.95 L361.284 1532.02 Z" fill="#000000" fill-rule="nonzero" fill-opacity="1" /><path clip-path="url(#clip580)" d="M411.052 1517.37 Q407.441 1517.37 405.612 1520.93 Q403.807 1524.47 403.807 1531.6 Q403.807 1538.71 405.612 1542.27 Q407.441 1545.82 411.052 1545.82 Q414.686 1545.82 416.492 1542.27 Q418.32 1538.71 418.32 1531.6 Q418.32 1524.47 416.492 1520.93 Q414.686 1517.37 411.052 1517.37 M411.052 1513.66 Q416.862 1513.66 419.918 1518.27 Q422.996 1522.85 422.996 1531.6 Q422.996 1540.33 419.918 1544.94 Q416.862 1549.52 411.052 1549.52 Q405.242 1549.52 402.163 1544.94 Q399.108 1540.33 399.108 1531.6 Q399.108 1522.85 402.163 1518.27 Q405.242 1513.66 411.052 1513.66 Z" fill="#000000" fill-rule="nonzero" fill-opacity="1" /><path clip-path="url(#clip580)" d="M431.214 1542.97 L436.098 1542.97 L436.098 1548.85 L431.214 1548.85 L431.214 1542.97 Z" fill="#000000" fill-rule="nonzero" fill-opacity="1" /><path clip-path="url(#clip580)" d="M459.13 1518.36 L447.325 1536.81 L459.13 1536.81 L459.13 1518.36 M457.904 1514.29 L463.783 1514.29 L463.783 1536.81 L468.714 1536.81 L468.714 1540.7 L463.783 1540.7 L463.783 1548.85 L459.13 1548.85 L459.13 1540.7 L443.529 1540.7 L443.529 1536.19 L457.904 1514.29 Z" fill="#000000" fill-rule="nonzero" fill-opacity="1" /><path clip-path="url(#clip580)" d="M840.812 1532.02 L870.488 1532.02 L870.488 1535.95 L840.812 1535.95 L840.812 1532.02 Z" fill="#000000" fill-rule="nonzero" fill-opacity="1" /><path clip-path="url(#clip580)" d="M890.58 1517.37 Q886.969 1517.37 885.14 1520.93 Q883.335 1524.47 883.335 1531.6 Q883.335 1538.71 885.14 1542.27 Q886.969 1545.82 890.58 1545.82 Q894.214 1545.82 896.02 1542.27 Q897.849 1538.71 897.849 1531.6 Q897.849 1524.47 896.02 1520.93 Q894.214 1517.37 890.58 1517.37 M890.58 1513.66 Q896.39 1513.66 899.446 1518.27 Q902.525 1522.85 902.525 1531.6 Q902.525 1540.33 899.446 1544.94 Q896.39 1549.52 890.58 1549.52 Q884.77 1549.52 881.691 1544.94 Q878.636 1540.33 878.636 1531.6 Q878.636 1522.85 881.691 1518.27 Q884.77 1513.66 890.58 1513.66 Z" fill="#000000" fill-rule="nonzero" fill-opacity="1" /><path clip-path="url(#clip580)" d="M910.742 1542.97 L915.626 1542.97 L915.626 1548.85 L910.742 1548.85 L910.742 1542.97 Z" fill="#000000" fill-rule="nonzero" fill-opacity="1" /><path clip-path="url(#clip580)" d="M929.839 1544.91 L946.159 1544.91 L946.159 1548.85 L924.214 1548.85 L924.214 1544.91 Q926.876 1542.16 931.46 1537.53 Q936.066 1532.88 937.247 1531.53 Q939.492 1529.01 940.372 1527.27 Q941.274 1525.51 941.274 1523.82 Q941.274 1521.07 939.33 1519.33 Q937.409 1517.6 934.307 1517.6 Q932.108 1517.6 929.654 1518.36 Q927.223 1519.13 924.446 1520.68 L924.446 1515.95 Q927.27 1514.82 929.723 1514.24 Q932.177 1513.66 934.214 1513.66 Q939.585 1513.66 942.779 1516.35 Q945.973 1519.03 945.973 1523.52 Q945.973 1525.65 945.163 1527.57 Q944.376 1529.47 942.27 1532.07 Q941.691 1532.74 938.589 1535.95 Q935.487 1539.15 929.839 1544.91 Z" fill="#000000" fill-rule="nonzero" fill-opacity="1" /><path clip-path="url(#clip580)" d="M1349.36 1517.37 Q1345.75 1517.37 1343.92 1520.93 Q1342.11 1524.47 1342.11 1531.6 Q1342.11 1538.71 1343.92 1542.27 Q1345.75 1545.82 1349.36 1545.82 Q1352.99 1545.82 1354.8 1542.27 Q1356.62 1538.71 1356.62 1531.6 Q1356.62 1524.47 1354.8 1520.93 Q1352.99 1517.37 1349.36 1517.37 M1349.36 1513.66 Q1355.17 1513.66 1358.22 1518.27 Q1361.3 1522.85 1361.3 1531.6 Q1361.3 1540.33 1358.22 1544.94 Q1355.17 1549.52 1349.36 1549.52 Q1343.55 1549.52 1340.47 1544.94 Q1337.41 1540.33 1337.41 1531.6 Q1337.41 1522.85 1340.47 1518.27 Q1343.55 1513.66 1349.36 1513.66 Z" fill="#000000" fill-rule="nonzero" fill-opacity="1" /><path clip-path="url(#clip580)" d="M1369.52 1542.97 L1374.4 1542.97 L1374.4 1548.85 L1369.52 1548.85 L1369.52 1542.97 Z" fill="#000000" fill-rule="nonzero" fill-opacity="1" /><path clip-path="url(#clip580)" d="M1394.59 1517.37 Q1390.98 1517.37 1389.15 1520.93 Q1387.34 1524.47 1387.34 1531.6 Q1387.34 1538.71 1389.15 1542.27 Q1390.98 1545.82 1394.59 1545.82 Q1398.22 1545.82 1400.03 1542.27 Q1401.86 1538.71 1401.86 1531.6 Q1401.86 1524.47 1400.03 1520.93 Q1398.22 1517.37 1394.59 1517.37 M1394.59 1513.66 Q1400.4 1513.66 1403.45 1518.27 Q1406.53 1522.85 1406.53 1531.6 Q1406.53 1540.33 1403.45 1544.94 Q1400.4 1549.52 1394.59 1549.52 Q1388.78 1549.52 1385.7 1544.94 Q1382.64 1540.33 1382.64 1531.6 Q1382.64 1522.85 1385.7 1518.27 Q1388.78 1513.66 1394.59 1513.66 Z" fill="#000000" fill-rule="nonzero" fill-opacity="1" /><path clip-path="url(#clip580)" d="M1828.64 1517.37 Q1825.03 1517.37 1823.2 1520.93 Q1821.4 1524.47 1821.4 1531.6 Q1821.4 1538.71 1823.2 1542.27 Q1825.03 1545.82 1828.64 1545.82 Q1832.28 1545.82 1834.08 1542.27 Q1835.91 1538.71 1835.91 1531.6 Q1835.91 1524.47 1834.08 1520.93 Q1832.28 1517.37 1828.64 1517.37 M1828.64 1513.66 Q1834.45 1513.66 1837.51 1518.27 Q1840.59 1522.85 1840.59 1531.6 Q1840.59 1540.33 1837.51 1544.94 Q1834.45 1549.52 1828.64 1549.52 Q1822.83 1549.52 1819.75 1544.94 Q1816.7 1540.33 1816.7 1531.6 Q1816.7 1522.85 1819.75 1518.27 Q1822.83 1513.66 1828.64 1513.66 Z" fill="#000000" fill-rule="nonzero" fill-opacity="1" /><path clip-path="url(#clip580)" d="M1848.8 1542.97 L1853.69 1542.97 L1853.69 1548.85 L1848.8 1548.85 L1848.8 1542.97 Z" fill="#000000" fill-rule="nonzero" fill-opacity="1" /><path clip-path="url(#clip580)" d="M1867.9 1544.91 L1884.22 1544.91 L1884.22 1548.85 L1862.28 1548.85 L1862.28 1544.91 Q1864.94 1542.16 1869.52 1537.53 Q1874.13 1532.88 1875.31 1531.53 Q1877.55 1529.01 1878.43 1527.27 Q1879.34 1525.51 1879.34 1523.82 Q1879.34 1521.07 1877.39 1519.33 Q1875.47 1517.6 1872.37 1517.6 Q1870.17 1517.6 1867.72 1518.36 Q1865.28 1519.13 1862.51 1520.68 L1862.51 1515.95 Q1865.33 1514.82 1867.78 1514.24 Q1870.24 1513.66 1872.28 1513.66 Q1877.65 1513.66 1880.84 1516.35 Q1884.03 1519.03 1884.03 1523.52 Q1884.03 1525.65 1883.22 1527.57 Q1882.44 1529.47 1880.33 1532.07 Q1879.75 1532.74 1876.65 1535.95 Q1873.55 1539.15 1867.9 1544.91 Z" fill="#000000" fill-rule="nonzero" fill-opacity="1" /><path clip-path="url(#clip580)" d="M2306.09 1517.37 Q2302.48 1517.37 2300.65 1520.93 Q2298.84 1524.47 2298.84 1531.6 Q2298.84 1538.71 2300.65 1542.27 Q2302.48 1545.82 2306.09 1545.82 Q2309.72 1545.82 2311.53 1542.27 Q2313.35 1538.71 2313.35 1531.6 Q2313.35 1524.47 2311.53 1520.93 Q2309.72 1517.37 2306.09 1517.37 M2306.09 1513.66 Q2311.9 1513.66 2314.95 1518.27 Q2318.03 1522.85 2318.03 1531.6 Q2318.03 1540.33 2314.95 1544.94 Q2311.9 1549.52 2306.09 1549.52 Q2300.28 1549.52 2297.2 1544.94 Q2294.14 1540.33 2294.14 1531.6 Q2294.14 1522.85 2297.2 1518.27 Q2300.28 1513.66 2306.09 1513.66 Z" fill="#000000" fill-rule="nonzero" fill-opacity="1" /><path clip-path="url(#clip580)" d="M2326.25 1542.97 L2331.13 1542.97 L2331.13 1548.85 L2326.25 1548.85 L2326.25 1542.97 Z" fill="#000000" fill-rule="nonzero" fill-opacity="1" /><path clip-path="url(#clip580)" d="M2354.16 1518.36 L2342.36 1536.81 L2354.16 1536.81 L2354.16 1518.36 M2352.94 1514.29 L2358.82 1514.29 L2358.82 1536.81 L2363.75 1536.81 L2363.75 1540.7 L2358.82 1540.7 L2358.82 1548.85 L2354.16 1548.85 L2354.16 1540.7 L2338.56 1540.7 L2338.56 1536.19 L2352.94 1514.29 Z" fill="#000000" fill-rule="nonzero" fill-opacity="1" /><polyline clip-path="url(#clip582)" style="stroke:#000000; stroke-linecap:round; stroke-linejoin:round; stroke-width:2; stroke-opacity:0.1; fill:none" points="156.112,1449.53 2352.76,1449.53 "/>
<polyline clip-path="url(#clip582)" style="stroke:#000000; stroke-linecap:round; stroke-linejoin:round; stroke-width:2; stroke-opacity:0.1; fill:none" points="156.112,1048.52 2352.76,1048.52 "/>
<polyline clip-path="url(#clip582)" style="stroke:#000000; stroke-linecap:round; stroke-linejoin:round; stroke-width:2; stroke-opacity:0.1; fill:none" points="156.112,647.507 2352.76,647.507 "/>
<polyline clip-path="url(#clip582)" style="stroke:#000000; stroke-linecap:round; stroke-linejoin:round; stroke-width:2; stroke-opacity:0.1; fill:none" points="156.112,246.498 2352.76,246.498 "/>
<polyline clip-path="url(#clip580)" style="stroke:#000000; stroke-linecap:round; stroke-linejoin:round; stroke-width:4; stroke-opacity:1; fill:none" points="156.112,1486.45 156.112,47.2441 "/>
<polyline clip-path="url(#clip580)" style="stroke:#000000; stroke-linecap:round; stroke-linejoin:round; stroke-width:4; stroke-opacity:1; fill:none" points="156.112,1449.53 175.01,1449.53 "/>
<polyline clip-path="url(#clip580)" style="stroke:#000000; stroke-linecap:round; stroke-linejoin:round; stroke-width:4; stroke-opacity:1; fill:none" points="156.112,1048.52 175.01,1048.52 "/>
<polyline clip-path="url(#clip580)" style="stroke:#000000; stroke-linecap:round; stroke-linejoin:round; stroke-width:4; stroke-opacity:1; fill:none" points="156.112,647.507 175.01,647.507 "/>
<polyline clip-path="url(#clip580)" style="stroke:#000000; stroke-linecap:round; stroke-linejoin:round; stroke-width:4; stroke-opacity:1; fill:none" points="156.112,246.498 175.01,246.498 "/>
<path clip-path="url(#clip580)" d="M62.9365 1435.32 Q59.3254 1435.32 57.4967 1438.89 Q55.6912 1442.43 55.6912 1449.56 Q55.6912 1456.67 57.4967 1460.23 Q59.3254 1463.77 62.9365 1463.77 Q66.5707 1463.77 68.3763 1460.23 Q70.205 1456.67 70.205 1449.56 Q70.205 1442.43 68.3763 1438.89 Q66.5707 1435.32 62.9365 1435.32 M62.9365 1431.62 Q68.7467 1431.62 71.8022 1436.23 Q74.8809 1440.81 74.8809 1449.56 Q74.8809 1458.29 71.8022 1462.89 Q68.7467 1467.48 62.9365 1467.48 Q57.1264 1467.48 54.0477 1462.89 Q50.9921 1458.29 50.9921 1449.56 Q50.9921 1440.81 54.0477 1436.23 Q57.1264 1431.62 62.9365 1431.62 Z" fill="#000000" fill-rule="nonzero" fill-opacity="1" /><path clip-path="url(#clip580)" d="M83.0984 1460.93 L87.9827 1460.93 L87.9827 1466.81 L83.0984 1466.81 L83.0984 1460.93 Z" fill="#000000" fill-rule="nonzero" fill-opacity="1" /><path clip-path="url(#clip580)" d="M108.168 1435.32 Q104.557 1435.32 102.728 1438.89 Q100.922 1442.43 100.922 1449.56 Q100.922 1456.67 102.728 1460.23 Q104.557 1463.77 108.168 1463.77 Q111.802 1463.77 113.608 1460.23 Q115.436 1456.67 115.436 1449.56 Q115.436 1442.43 113.608 1438.89 Q111.802 1435.32 108.168 1435.32 M108.168 1431.62 Q113.978 1431.62 117.033 1436.23 Q120.112 1440.81 120.112 1449.56 Q120.112 1458.29 117.033 1462.89 Q113.978 1467.48 108.168 1467.48 Q102.358 1467.48 99.2789 1462.89 Q96.2234 1458.29 96.2234 1449.56 Q96.2234 1440.81 99.2789 1436.23 Q102.358 1431.62 108.168 1431.62 Z" fill="#000000" fill-rule="nonzero" fill-opacity="1" /><path clip-path="url(#clip580)" d="M64.1634 1034.31 Q60.5523 1034.31 58.7236 1037.88 Q56.918 1041.42 56.918 1048.55 Q56.918 1055.66 58.7236 1059.22 Q60.5523 1062.76 64.1634 1062.76 Q67.7976 1062.76 69.6031 1059.22 Q71.4318 1055.66 71.4318 1048.55 Q71.4318 1041.42 69.6031 1037.88 Q67.7976 1034.31 64.1634 1034.31 M64.1634 1030.61 Q69.9735 1030.61 73.029 1035.22 Q76.1077 1039.8 76.1077 1048.55 Q76.1077 1057.28 73.029 1061.88 Q69.9735 1066.47 64.1634 1066.47 Q58.3532 1066.47 55.2745 1061.88 Q52.219 1057.28 52.219 1048.55 Q52.219 1039.8 55.2745 1035.22 Q58.3532 1030.61 64.1634 1030.61 Z" fill="#000000" fill-rule="nonzero" fill-opacity="1" /><path clip-path="url(#clip580)" d="M84.3253 1059.92 L89.2095 1059.92 L89.2095 1065.8 L84.3253 1065.8 L84.3253 1059.92 Z" fill="#000000" fill-rule="nonzero" fill-opacity="1" /><path clip-path="url(#clip580)" d="M100.205 1061.86 L107.844 1061.86 L107.844 1035.5 L99.5335 1037.16 L99.5335 1032.9 L107.797 1031.24 L112.473 1031.24 L112.473 1061.86 L120.112 1061.86 L120.112 1065.8 L100.205 1065.8 L100.205 1061.86 Z" fill="#000000" fill-rule="nonzero" fill-opacity="1" /><path clip-path="url(#clip580)" d="M64.5337 633.306 Q60.9226 633.306 59.0939 636.87 Q57.2884 640.412 57.2884 647.542 Q57.2884 654.648 59.0939 658.213 Q60.9226 661.754 64.5337 661.754 Q68.168 661.754 69.9735 658.213 Q71.8022 654.648 71.8022 647.542 Q71.8022 640.412 69.9735 636.87 Q68.168 633.306 64.5337 633.306 M64.5337 629.602 Q70.3439 629.602 73.3994 634.208 Q76.4781 638.792 76.4781 647.542 Q76.4781 656.268 73.3994 660.875 Q70.3439 665.458 64.5337 665.458 Q58.7236 665.458 55.6449 660.875 Q52.5893 656.268 52.5893 647.542 Q52.5893 638.792 55.6449 634.208 Q58.7236 629.602 64.5337 629.602 Z" fill="#000000" fill-rule="nonzero" fill-opacity="1" /><path clip-path="url(#clip580)" d="M84.6956 658.907 L89.5799 658.907 L89.5799 664.787 L84.6956 664.787 L84.6956 658.907 Z" fill="#000000" fill-rule="nonzero" fill-opacity="1" /><path clip-path="url(#clip580)" d="M103.793 660.852 L120.112 660.852 L120.112 664.787 L98.1678 664.787 L98.1678 660.852 Q100.83 658.097 105.413 653.467 Q110.02 648.815 111.2 647.472 Q113.445 644.949 114.325 643.213 Q115.228 641.454 115.228 639.764 Q115.228 637.009 113.283 635.273 Q111.362 633.537 108.26 633.537 Q106.061 633.537 103.608 634.301 Q101.177 635.065 98.3993 636.616 L98.3993 631.893 Q101.223 630.759 103.677 630.181 Q106.131 629.602 108.168 629.602 Q113.538 629.602 116.733 632.287 Q119.927 634.972 119.927 639.463 Q119.927 641.593 119.117 643.514 Q118.33 645.412 116.223 648.005 Q115.645 648.676 112.543 651.893 Q109.441 655.088 103.793 660.852 Z" fill="#000000" fill-rule="nonzero" fill-opacity="1" /><path clip-path="url(#clip580)" d="M63.5847 232.296 Q59.9736 232.296 58.1449 235.861 Q56.3393 239.403 56.3393 246.532 Q56.3393 253.639 58.1449 257.204 Q59.9736 260.745 63.5847 260.745 Q67.2189 260.745 69.0244 257.204 Q70.8531 253.639 70.8531 246.532 Q70.8531 239.403 69.0244 235.861 Q67.2189 232.296 63.5847 232.296 M63.5847 228.593 Q69.3948 228.593 72.4503 233.199 Q75.529 237.782 75.529 246.532 Q75.529 255.259 72.4503 259.866 Q69.3948 264.449 63.5847 264.449 Q57.7745 264.449 54.6958 259.866 Q51.6403 255.259 51.6403 246.532 Q51.6403 237.782 54.6958 233.199 Q57.7745 228.593 63.5847 228.593 Z" fill="#000000" fill-rule="nonzero" fill-opacity="1" /><path clip-path="url(#clip580)" d="M83.7466 257.898 L88.6308 257.898 L88.6308 263.778 L83.7466 263.778 L83.7466 257.898 Z" fill="#000000" fill-rule="nonzero" fill-opacity="1" /><path clip-path="url(#clip580)" d="M112.983 245.143 Q116.339 245.861 118.214 248.13 Q120.112 250.398 120.112 253.731 Q120.112 258.847 116.594 261.648 Q113.075 264.449 106.594 264.449 Q104.418 264.449 102.103 264.009 Q99.8113 263.592 97.3576 262.736 L97.3576 258.222 Q99.3021 259.356 101.617 259.935 Q103.932 260.514 106.455 260.514 Q110.853 260.514 113.145 258.778 Q115.459 257.042 115.459 253.731 Q115.459 250.676 113.307 248.963 Q111.177 247.227 107.358 247.227 L103.33 247.227 L103.33 243.384 L107.543 243.384 Q110.992 243.384 112.82 242.018 Q114.649 240.63 114.649 238.037 Q114.649 235.375 112.751 233.963 Q110.876 232.528 107.358 232.528 Q105.436 232.528 103.237 232.944 Q101.038 233.361 98.3993 234.241 L98.3993 230.074 Q101.061 229.333 103.376 228.963 Q105.714 228.593 107.774 228.593 Q113.098 228.593 116.2 231.023 Q119.302 233.431 119.302 237.551 Q119.302 240.421 117.658 242.412 Q116.015 244.38 112.983 245.143 Z" fill="#000000" fill-rule="nonzero" fill-opacity="1" /><circle clip-path="url(#clip582)" cx="1369" cy="1334.4" r="14.4" fill="#808080" fill-rule="evenodd" fill-opacity="1" stroke="#000000" stroke-opacity="1" stroke-width="3.2"/>
<circle clip-path="url(#clip582)" cx="1334.81" cy="1445.72" r="14.4" fill="#808080" fill-rule="evenodd" fill-opacity="1" stroke="#000000" stroke-opacity="1" stroke-width="3.2"/>
<circle clip-path="url(#clip582)" cx="2290.59" cy="1216.66" r="14.4" fill="#808080" fill-rule="evenodd" fill-opacity="1" stroke="#000000" stroke-opacity="1" stroke-width="3.2"/>
<circle clip-path="url(#clip582)" cx="218.281" cy="87.9763" r="14.4" fill="#808080" fill-rule="evenodd" fill-opacity="1" stroke="#000000" stroke-opacity="1" stroke-width="3.2"/>
<path clip-path="url(#clip580)" d="M1373.29 1341.83 Q1364.26 1341.83 1360.77 1343.9 Q1357.29 1345.97 1357.29 1350.95 Q1357.29 1354.92 1359.88 1357.27 Q1362.52 1359.58 1367.01 1359.58 Q1373.21 1359.58 1376.94 1355.2 Q1380.7 1350.79 1380.7 1343.49 L1380.7 1341.83 L1373.29 1341.83 M1388.16 1338.76 L1388.16 1364.64 L1380.7 1364.64 L1380.7 1357.75 Q1378.15 1361.89 1374.34 1363.87 Q1370.54 1365.82 1365.03 1365.82 Q1358.06 1365.82 1353.93 1361.93 Q1349.84 1358 1349.84 1351.43 Q1349.84 1343.78 1354.94 1339.89 Q1360.09 1336 1370.25 1336 L1380.7 1336 L1380.7 1335.27 Q1380.7 1330.13 1377.3 1327.33 Q1373.94 1324.5 1367.82 1324.5 Q1363.93 1324.5 1360.25 1325.43 Q1356.56 1326.36 1353.16 1328.22 L1353.16 1321.34 Q1357.25 1319.76 1361.1 1318.99 Q1364.95 1318.18 1368.59 1318.18 Q1378.44 1318.18 1383.3 1323.28 Q1388.16 1328.39 1388.16 1338.76 Z" fill="#000000" fill-rule="nonzero" fill-opacity="1" /><path clip-path="url(#clip580)" d="M1347.37 1453.31 Q1347.37 1445.09 1343.97 1440.43 Q1340.6 1435.73 1334.69 1435.73 Q1328.77 1435.73 1325.37 1440.43 Q1322.01 1445.09 1322.01 1453.31 Q1322.01 1461.53 1325.37 1466.23 Q1328.77 1470.89 1334.69 1470.89 Q1340.6 1470.89 1343.97 1466.23 Q1347.37 1461.53 1347.37 1453.31 M1322.01 1437.47 Q1324.36 1433.42 1327.92 1431.48 Q1331.53 1429.49 1336.51 1429.49 Q1344.78 1429.49 1349.92 1436.05 Q1355.11 1442.62 1355.11 1453.31 Q1355.11 1464.01 1349.92 1470.57 Q1344.78 1477.13 1336.51 1477.13 Q1331.53 1477.13 1327.92 1475.19 Q1324.36 1473.2 1322.01 1469.15 L1322.01 1475.96 L1314.52 1475.96 L1314.52 1412.92 L1322.01 1412.92 L1322.01 1437.47 Z" fill="#000000" fill-rule="nonzero" fill-opacity="1" /><path clip-path="url(#clip580)" d="M2308.53 1203.27 L2308.53 1210.24 Q2305.37 1208.5 2302.17 1207.65 Q2299.01 1206.76 2295.77 1206.76 Q2288.52 1206.76 2284.51 1211.38 Q2280.5 1215.95 2280.5 1224.26 Q2280.5 1232.56 2284.51 1237.18 Q2288.52 1241.76 2295.77 1241.76 Q2299.01 1241.76 2302.17 1240.91 Q2305.37 1240.02 2308.53 1238.27 L2308.53 1245.16 Q2305.41 1246.62 2302.05 1247.35 Q2298.73 1248.08 2294.96 1248.08 Q2284.71 1248.08 2278.68 1241.64 Q2272.64 1235.19 2272.64 1224.26 Q2272.64 1213.16 2278.72 1206.8 Q2284.83 1200.44 2295.45 1200.44 Q2298.89 1200.44 2302.17 1201.17 Q2305.45 1201.86 2308.53 1203.27 Z" fill="#000000" fill-rule="nonzero" fill-opacity="1" /><path clip-path="url(#clip580)" d="M231.102 79.7327 L231.102 55.1842 L238.556 55.1842 L238.556 118.216 L231.102 118.216 L231.102 111.411 Q228.753 115.462 225.148 117.447 Q221.583 119.391 216.56 119.391 Q208.336 119.391 203.151 112.829 Q198.007 106.266 198.007 95.5717 Q198.007 84.8773 203.151 78.3149 Q208.336 71.7524 216.56 71.7524 Q221.583 71.7524 225.148 73.7373 Q228.753 75.6818 231.102 79.7327 M205.703 95.5717 Q205.703 103.795 209.065 108.494 Q212.468 113.153 218.383 113.153 Q224.297 113.153 227.7 108.494 Q231.102 103.795 231.102 95.5717 Q231.102 87.3484 227.7 82.6898 Q224.297 77.9908 218.383 77.9908 Q212.468 77.9908 209.065 82.6898 Q205.703 87.3484 205.703 95.5717 Z" fill="#000000" fill-rule="nonzero" fill-opacity="1" /><path clip-path="url(#clip580)" d="M2007.44 198.898 L2279.53 198.898 L2279.53 95.2176 L2007.44 95.2176  Z" fill="#ffffff" fill-rule="evenodd" fill-opacity="1"/>
<polyline clip-path="url(#clip580)" style="stroke:#000000; stroke-linecap:round; stroke-linejoin:round; stroke-width:4; stroke-opacity:1; fill:none" points="2007.44,198.898 2279.53,198.898 2279.53,95.2176 2007.44,95.2176 2007.44,198.898 "/>
<circle clip-path="url(#clip580)" cx="2105.07" cy="147.058" r="20.48" fill="#808080" fill-rule="evenodd" fill-opacity="1" stroke="#000000" stroke-opacity="1" stroke-width="4.55111"/>
<path clip-path="url(#clip580)" d="M2216.54 166.745 Q2214.73 171.375 2213.02 172.787 Q2211.31 174.199 2208.44 174.199 L2205.03 174.199 L2205.03 170.634 L2207.53 170.634 Q2209.29 170.634 2210.27 169.8 Q2211.24 168.967 2212.42 165.865 L2213.18 163.921 L2202.7 138.412 L2207.21 138.412 L2215.31 158.689 L2223.41 138.412 L2227.93 138.412 L2216.54 166.745 Z" fill="#000000" fill-rule="nonzero" fill-opacity="1" /><path clip-path="url(#clip580)" d="M2235.22 160.402 L2242.86 160.402 L2242.86 134.037 L2234.55 135.703 L2234.55 131.444 L2242.81 129.778 L2247.49 129.778 L2247.49 160.402 L2255.13 160.402 L2255.13 164.338 L2235.22 164.338 L2235.22 160.402 Z" fill="#000000" fill-rule="nonzero" fill-opacity="1" /></svg>
