<?xml version="1.0" encoding="utf-8"?>
<svg xmlns="http://www.w3.org/2000/svg" xmlns:xlink="http://www.w3.org/1999/xlink" width="600" height="400" viewBox="0 0 2400 1600">
<defs>
  <clipPath id="clip800">
    <rect x="0" y="0" width="2400" height="1600"/>
  </clipPath>
</defs>
<path clip-path="url(#clip800)" d="M0 1600 L2400 1600 L2400 0 L0 0  Z" fill="#ffffff" fill-rule="evenodd" fill-opacity="1"/>
<defs>
  <clipPath id="clip801">
    <rect x="480" y="0" width="1681" height="1600"/>
  </clipPath>
</defs>
<path clip-path="url(#clip800)" d="M112.177 1486.45 L2352.76 1486.45 L2352.76 47.2441 L112.177 47.2441  Z" fill="#ffffff" fill-rule="evenodd" fill-opacity="1"/>
<defs>
  <clipPath id="clip802">
    <rect x="112" y="47" width="2242" height="1440"/>
  </clipPath>
</defs>
<polyline clip-path="url(#clip802)" style="stroke:#000000; stroke-linecap:round; stroke-linejoin:round; stroke-width:2; stroke-opacity:0.1; fill:none" points="424.584,1486.45 424.584,47.2441 "/>
<polyline clip-path="url(#clip802)" style="stroke:#000000; stroke-linecap:round; stroke-linejoin:round; stroke-width:2; stroke-opacity:0.1; fill:none" points="831.077,1486.45 831.077,47.2441 "/>
<polyline clip-path="url(#clip802)" style="stroke:#000000; stroke-linecap:round; stroke-linejoin:round; stroke-width:2; stroke-opacity:0.1; fill:none" points="1237.57,1486.45 1237.57,47.2441 "/>
<polyline clip-path="url(#clip802)" style="stroke:#000000; stroke-linecap:round; stroke-linejoin:round; stroke-width:2; stroke-opacity:0.1; fill:none" points="1644.06,1486.45 1644.06,47.2441 "/>
<polyline clip-path="url(#clip802)" style="stroke:#000000; stroke-linecap:round; stroke-linejoin:round; stroke-width:2; stroke-opacity:0.1; fill:none" points="2050.55,1486.45 2050.55,47.2441 "/>
<polyline clip-path="url(#clip800)" style="stroke:#000000; stroke-linecap:round; stroke-linejoin:round; stroke-width:4; stroke-opacity:1; fill:none" points="112.177,1486.45 2352.76,1486.45 "/>
<polyline clip-path="url(#clip800)" style="stroke:#000000; stroke-linecap:round; stroke-linejoin:round; stroke-width:4; stroke-opacity:1; fill:none" points="424.584,1486.45 424.584,1467.55 "/>
<polyline clip-path="url(#clip800)" style="stroke:#000000; stroke-linecap:round; stroke-linejoin:round; stroke-width:4; stroke-opacity:1; fill:none" points="831.077,1486.45 831.077,1467.55 "/>
<polyline clip-path="url(#clip800)" style="stroke:#000000; stroke-linecap:round; stroke-linejoin:round; stroke-width:4; stroke-opacity:1; fill:none" points="1237.57,1486.45 1237.57,1467.55 "/>
<polyline clip-path="url(#clip800)" style="stroke:#000000; stroke-linecap:round; stroke-linejoin:round; stroke-width:4; stroke-opacity:1; fill:none" points="1644.06,1486.45 1644.06,1467.55 "/>
<polyline clip-path="url(#clip800)" style="stroke:#000000; stroke-linecap:round; stroke-linejoin:round; stroke-width:4; stroke-opacity:1; fill:none" points="2050.55,1486.45 2050.55,1467.55 "/>
<path clip-path="url(#clip800)" d="M371.61 1532.02 L401.286 1532.02 L401.286 1535.95 L371.61 1535.95 L371.61 1532.02 Z" fill="#000000" fill-rule="nonzero" fill-opacity="1" /><path clip-path="url(#clip800)" d="M412.188 1544.91 L419.827 1544.91 L419.827 1518.55 L411.517 1520.21 L411.517 1515.95 L419.781 1514.29 L424.457 1514.29 L424.457 1544.91 L432.096 1544.91 L432.096 1548.85 L412.188 1548.85 L412.188 1544.91 Z" fill="#000000" fill-rule="nonzero" fill-opacity="1" /><path clip-path="url(#clip800)" d="M441.54 1542.97 L446.424 1542.97 L446.424 1548.85 L441.54 1548.85 L441.54 1542.97 Z" fill="#000000" fill-rule="nonzero" fill-opacity="1" /><path clip-path="url(#clip800)" d="M456.656 1514.29 L475.012 1514.29 L475.012 1518.22 L460.938 1518.22 L460.938 1526.7 Q461.957 1526.35 462.975 1526.19 Q463.994 1526 465.012 1526 Q470.799 1526 474.179 1529.17 Q477.558 1532.34 477.558 1537.76 Q477.558 1543.34 474.086 1546.44 Q470.614 1549.52 464.295 1549.52 Q462.119 1549.52 459.85 1549.15 Q457.605 1548.78 455.197 1548.04 L455.197 1543.34 Q457.281 1544.47 459.503 1545.03 Q461.725 1545.58 464.202 1545.58 Q468.207 1545.58 470.545 1543.48 Q472.883 1541.37 472.883 1537.76 Q472.883 1534.15 470.545 1532.04 Q468.207 1529.94 464.202 1529.94 Q462.327 1529.94 460.452 1530.35 Q458.6 1530.77 456.656 1531.65 L456.656 1514.29 Z" fill="#000000" fill-rule="nonzero" fill-opacity="1" /><path clip-path="url(#clip800)" d="M777.605 1532.02 L807.281 1532.02 L807.281 1535.95 L777.605 1535.95 L777.605 1532.02 Z" fill="#000000" fill-rule="nonzero" fill-opacity="1" /><path clip-path="url(#clip800)" d="M818.183 1544.91 L825.822 1544.91 L825.822 1518.55 L817.512 1520.21 L817.512 1515.95 L825.776 1514.29 L830.452 1514.29 L830.452 1544.91 L838.091 1544.91 L838.091 1548.85 L818.183 1548.85 L818.183 1544.91 Z" fill="#000000" fill-rule="nonzero" fill-opacity="1" /><path clip-path="url(#clip800)" d="M847.535 1542.97 L852.419 1542.97 L852.419 1548.85 L847.535 1548.85 L847.535 1542.97 Z" fill="#000000" fill-rule="nonzero" fill-opacity="1" /><path clip-path="url(#clip800)" d="M872.604 1517.37 Q868.993 1517.37 867.165 1520.93 Q865.359 1524.47 865.359 1531.6 Q865.359 1538.71 867.165 1542.27 Q868.993 1545.82 872.604 1545.82 Q876.239 1545.82 878.044 1542.27 Q879.873 1538.71 879.873 1531.6 Q879.873 1524.47 878.044 1520.93 Q876.239 1517.37 872.604 1517.37 M872.604 1513.66 Q878.415 1513.66 881.47 1518.27 Q884.549 1522.85 884.549 1531.6 Q884.549 1540.33 881.47 1544.94 Q878.415 1549.52 872.604 1549.52 Q866.794 1549.52 863.716 1544.94 Q860.66 1540.33 860.66 1531.6 Q860.66 1522.85 863.716 1518.27 Q866.794 1513.66 872.604 1513.66 Z" fill="#000000" fill-rule="nonzero" fill-opacity="1" /><path clip-path="url(#clip800)" d="M1184.6 1532.02 L1214.27 1532.02 L1214.27 1535.95 L1184.6 1535.95 L1184.6 1532.02 Z" fill="#000000" fill-rule="nonzero" fill-opacity="1" /><path clip-path="url(#clip800)" d="M1234.36 1517.37 Q1230.75 1517.37 1228.92 1520.93 Q1227.12 1524.47 1227.12 1531.6 Q1227.12 1538.71 1228.92 1542.27 Q1230.75 1545.82 1234.36 1545.82 Q1238 1545.82 1239.8 1542.27 Q1241.63 1538.71 1241.63 1531.6 Q1241.63 1524.47 1239.8 1520.93 Q1238 1517.37 1234.36 1517.37 M1234.36 1513.66 Q1240.17 1513.66 1243.23 1518.27 Q1246.31 1522.85 1246.31 1531.6 Q1246.31 1540.33 1243.23 1544.94 Q1240.17 1549.52 1234.36 1549.52 Q1228.55 1549.52 1225.47 1544.94 Q1222.42 1540.33 1222.42 1531.6 Q1222.42 1522.85 1225.47 1518.27 Q1228.55 1513.66 1234.36 1513.66 Z" fill="#000000" fill-rule="nonzero" fill-opacity="1" /><path clip-path="url(#clip800)" d="M1254.53 1542.97 L1259.41 1542.97 L1259.41 1548.85 L1254.53 1548.85 L1254.53 1542.97 Z" fill="#000000" fill-rule="nonzero" fill-opacity="1" /><path clip-path="url(#clip800)" d="M1269.64 1514.29 L1288 1514.29 L1288 1518.22 L1273.92 1518.22 L1273.92 1526.7 Q1274.94 1526.35 1275.96 1526.19 Q1276.98 1526 1278 1526 Q1283.78 1526 1287.16 1529.17 Q1290.54 1532.34 1290.54 1537.76 Q1290.54 1543.34 1287.07 1546.44 Q1283.6 1549.52 1277.28 1549.52 Q1275.1 1549.52 1272.84 1549.15 Q1270.59 1548.78 1268.18 1548.04 L1268.18 1543.34 Q1270.27 1544.47 1272.49 1545.03 Q1274.71 1545.58 1277.19 1545.58 Q1281.19 1545.58 1283.53 1543.48 Q1285.87 1541.37 1285.87 1537.76 Q1285.87 1534.15 1283.53 1532.04 Q1281.19 1529.94 1277.19 1529.94 Q1275.31 1529.94 1273.44 1530.35 Q1271.59 1530.77 1269.64 1531.65 L1269.64 1514.29 Z" fill="#000000" fill-rule="nonzero" fill-opacity="1" /><path clip-path="url(#clip800)" d="M1621.45 1517.37 Q1617.84 1517.37 1616.01 1520.93 Q1614.2 1524.47 1614.2 1531.6 Q1614.2 1538.71 1616.01 1542.27 Q1617.84 1545.82 1621.45 1545.82 Q1625.08 1545.82 1626.89 1542.27 Q1628.71 1538.71 1628.71 1531.6 Q1628.71 1524.47 1626.89 1520.93 Q1625.08 1517.37 1621.45 1517.37 M1621.45 1513.66 Q1627.26 1513.66 1630.31 1518.27 Q1633.39 1522.85 1633.39 1531.6 Q1633.39 1540.33 1630.31 1544.94 Q1627.26 1549.52 1621.45 1549.52 Q1615.64 1549.52 1612.56 1544.94 Q1609.5 1540.33 1609.5 1531.6 Q1609.5 1522.85 1612.56 1518.27 Q1615.64 1513.66 1621.45 1513.66 Z" fill="#000000" fill-rule="nonzero" fill-opacity="1" /><path clip-path="url(#clip800)" d="M1641.61 1542.97 L1646.49 1542.97 L1646.49 1548.85 L1641.61 1548.85 L1641.61 1542.97 Z" fill="#000000" fill-rule="nonzero" fill-opacity="1" /><path clip-path="url(#clip800)" d="M1666.68 1517.37 Q1663.07 1517.37 1661.24 1520.93 Q1659.43 1524.47 1659.43 1531.6 Q1659.43 1538.71 1661.24 1542.27 Q1663.07 1545.82 1666.68 1545.82 Q1670.31 1545.82 1672.12 1542.27 Q1673.95 1538.71 1673.95 1531.6 Q1673.95 1524.47 1672.12 1520.93 Q1670.31 1517.37 1666.68 1517.37 M1666.68 1513.66 Q1672.49 1513.66 1675.54 1518.27 Q1678.62 1522.85 1678.62 1531.6 Q1678.62 1540.33 1675.54 1544.94 Q1672.49 1549.52 1666.68 1549.52 Q1660.87 1549.52 1657.79 1544.94 Q1654.73 1540.33 1654.73 1531.6 Q1654.73 1522.85 1657.79 1518.27 Q1660.87 1513.66 1666.68 1513.66 Z" fill="#000000" fill-rule="nonzero" fill-opacity="1" /><path clip-path="url(#clip800)" d="M2028.44 1517.37 Q2024.83 1517.37 2023 1520.93 Q2021.19 1524.47 2021.19 1531.6 Q2021.19 1538.71 2023 1542.27 Q2024.83 1545.82 2028.44 1545.82 Q2032.07 1545.82 2033.88 1542.27 Q2035.71 1538.71 2035.71 1531.6 Q2035.71 1524.47 2033.88 1520.93 Q2032.07 1517.37 2028.44 1517.37 M2028.44 1513.66 Q2034.25 1513.66 2037.3 1518.27 Q2040.38 1522.85 2040.38 1531.6 Q2040.38 1540.33 2037.3 1544.94 Q2034.25 1549.52 2028.44 1549.52 Q2022.63 1549.52 2019.55 1544.94 Q2016.49 1540.33 2016.49 1531.6 Q2016.49 1522.85 2019.55 1518.27 Q2022.63 1513.66 2028.44 1513.66 Z" fill="#000000" fill-rule="nonzero" fill-opacity="1" /><path clip-path="url(#clip800)" d="M2048.6 1542.97 L2053.48 1542.97 L2053.48 1548.85 L2048.6 1548.85 L2048.6 1542.97 Z" fill="#000000" fill-rule="nonzero" fill-opacity="1" /><path clip-path="url(#clip800)" d="M2063.71 1514.29 L2082.07 1514.29 L2082.07 1518.22 L2068 1518.22 L2068 1526.7 Q2069.02 1526.35 2070.03 1526.19 Q2071.05 1526 2072.07 1526 Q2077.86 1526 2081.24 1529.17 Q2084.62 1532.34 2084.62 1537.76 Q2084.62 1543.34 2081.14 1546.44 Q2077.67 1549.52 2071.35 1549.52 Q2069.18 1549.52 2066.91 1549.15 Q2064.66 1548.78 2062.26 1548.04 L2062.26 1543.34 Q2064.34 1544.47 2066.56 1545.03 Q2068.78 1545.58 2071.26 1545.58 Q2075.27 1545.58 2077.6 1543.48 Q2079.94 1541.37 2079.94 1537.76 Q2079.94 1534.15 2077.6 1532.04 Q2075.27 1529.94 2071.26 1529.94 Q2069.39 1529.94 2067.51 1530.35 Q2065.66 1530.77 2063.71 1531.65 L2063.71 1514.29 Z" fill="#000000" fill-rule="nonzero" fill-opacity="1" /><polyline clip-path="url(#clip802)" style="stroke:#000000; stroke-linecap:round; stroke-linejoin:round; stroke-width:2; stroke-opacity:0.1; fill:none" points="112.177,1472.97 2352.76,1472.97 "/>
<polyline clip-path="url(#clip802)" style="stroke:#000000; stroke-linecap:round; stroke-linejoin:round; stroke-width:2; stroke-opacity:0.1; fill:none" points="112.177,1187.28 2352.76,1187.28 "/>
<polyline clip-path="url(#clip802)" style="stroke:#000000; stroke-linecap:round; stroke-linejoin:round; stroke-width:2; stroke-opacity:0.1; fill:none" points="112.177,901.587 2352.76,901.587 "/>
<polyline clip-path="url(#clip802)" style="stroke:#000000; stroke-linecap:round; stroke-linejoin:round; stroke-width:2; stroke-opacity:0.1; fill:none" points="112.177,615.893 2352.76,615.893 "/>
<polyline clip-path="url(#clip802)" style="stroke:#000000; stroke-linecap:round; stroke-linejoin:round; stroke-width:2; stroke-opacity:0.1; fill:none" points="112.177,330.2 2352.76,330.2 "/>
<polyline clip-path="url(#clip800)" style="stroke:#000000; stroke-linecap:round; stroke-linejoin:round; stroke-width:4; stroke-opacity:1; fill:none" points="112.177,1486.45 112.177,47.2441 "/>
<polyline clip-path="url(#clip800)" style="stroke:#000000; stroke-linecap:round; stroke-linejoin:round; stroke-width:4; stroke-opacity:1; fill:none" points="112.177,1472.97 131.075,1472.97 "/>
<polyline clip-path="url(#clip800)" style="stroke:#000000; stroke-linecap:round; stroke-linejoin:round; stroke-width:4; stroke-opacity:1; fill:none" points="112.177,1187.28 131.075,1187.28 "/>
<polyline clip-path="url(#clip800)" style="stroke:#000000; stroke-linecap:round; stroke-linejoin:round; stroke-width:4; stroke-opacity:1; fill:none" points="112.177,901.587 131.075,901.587 "/>
<polyline clip-path="url(#clip800)" style="stroke:#000000; stroke-linecap:round; stroke-linejoin:round; stroke-width:4; stroke-opacity:1; fill:none" points="112.177,615.893 131.075,615.893 "/>
<polyline clip-path="url(#clip800)" style="stroke:#000000; stroke-linecap:round; stroke-linejoin:round; stroke-width:4; stroke-opacity:1; fill:none" points="112.177,330.2 131.075,330.2 "/>
<path clip-path="url(#clip800)" d="M64.2328 1458.77 Q60.6217 1458.77 58.793 1462.34 Q56.9875 1465.88 56.9875 1473.01 Q56.9875 1480.12 58.793 1483.68 Q60.6217 1487.22 64.2328 1487.22 Q67.867 1487.22 69.6726 1483.68 Q71.5013 1480.12 71.5013 1473.01 Q71.5013 1465.88 69.6726 1462.34 Q67.867 1458.77 64.2328 1458.77 M64.2328 1455.07 Q70.0429 1455.07 73.0985 1459.68 Q76.1772 1464.26 76.1772 1473.01 Q76.1772 1481.74 73.0985 1486.34 Q70.0429 1490.93 64.2328 1490.93 Q58.4226 1490.93 55.344 1486.34 Q52.2884 1481.74 52.2884 1473.01 Q52.2884 1464.26 55.344 1459.68 Q58.4226 1455.07 64.2328 1455.07 Z" fill="#000000" fill-rule="nonzero" fill-opacity="1" /><path clip-path="url(#clip800)" d="M59.8578 1200.63 L76.1772 1200.63 L76.1772 1204.56 L54.2328 1204.56 L54.2328 1200.63 Q56.8949 1197.87 61.4782 1193.24 Q66.0846 1188.59 67.2652 1187.25 Q69.5105 1184.72 70.3902 1182.99 Q71.2929 1181.23 71.2929 1179.54 Q71.2929 1176.78 69.3485 1175.05 Q67.4272 1173.31 64.3254 1173.31 Q62.1263 1173.31 59.6726 1174.07 Q57.2421 1174.84 54.4643 1176.39 L54.4643 1171.67 Q57.2884 1170.53 59.7421 1169.95 Q62.1958 1169.38 64.2328 1169.38 Q69.6031 1169.38 72.7976 1172.06 Q75.992 1174.75 75.992 1179.24 Q75.992 1181.37 75.1818 1183.29 Q74.3948 1185.19 72.2883 1187.78 Q71.7096 1188.45 68.6078 1191.67 Q65.5059 1194.86 59.8578 1200.63 Z" fill="#000000" fill-rule="nonzero" fill-opacity="1" /><path clip-path="url(#clip800)" d="M66.5939 888.381 L54.7884 906.83 L66.5939 906.83 L66.5939 888.381 M65.367 884.307 L71.2466 884.307 L71.2466 906.83 L76.1772 906.83 L76.1772 910.719 L71.2466 910.719 L71.2466 918.867 L66.5939 918.867 L66.5939 910.719 L50.9921 910.719 L50.9921 906.205 L65.367 884.307 Z" fill="#000000" fill-rule="nonzero" fill-opacity="1" /><path clip-path="url(#clip800)" d="M64.6495 614.03 Q61.5013 614.03 59.6495 616.183 Q57.8208 618.336 57.8208 622.086 Q57.8208 625.812 59.6495 627.988 Q61.5013 630.141 64.6495 630.141 Q67.7976 630.141 69.6263 627.988 Q71.4781 625.812 71.4781 622.086 Q71.4781 618.336 69.6263 616.183 Q67.7976 614.03 64.6495 614.03 M73.9318 599.377 L73.9318 603.637 Q72.1726 602.803 70.367 602.363 Q68.5846 601.924 66.8254 601.924 Q62.1958 601.924 59.7421 605.049 Q57.3115 608.174 56.9643 614.493 Q58.33 612.479 60.3902 611.414 Q62.4504 610.326 64.9272 610.326 Q70.1355 610.326 73.1448 613.498 Q76.1772 616.646 76.1772 622.086 Q76.1772 627.41 73.029 630.627 Q69.8809 633.845 64.6495 633.845 Q58.6541 633.845 55.4828 629.261 Q52.3116 624.655 52.3116 615.928 Q52.3116 607.734 56.2004 602.873 Q60.0893 597.988 66.6402 597.988 Q68.3994 597.988 70.1818 598.336 Q71.9874 598.683 73.9318 599.377 Z" fill="#000000" fill-rule="nonzero" fill-opacity="1" /><path clip-path="url(#clip800)" d="M64.3254 331.068 Q60.9921 331.068 59.0708 332.85 Q57.1726 334.633 57.1726 337.758 Q57.1726 340.883 59.0708 342.665 Q60.9921 344.448 64.3254 344.448 Q67.6587 344.448 69.58 342.665 Q71.5013 340.86 71.5013 337.758 Q71.5013 334.633 69.58 332.85 Q67.6819 331.068 64.3254 331.068 M59.6495 329.077 Q56.6402 328.337 54.9504 326.276 Q53.2838 324.216 53.2838 321.253 Q53.2838 317.11 56.2236 314.702 Q59.1865 312.295 64.3254 312.295 Q69.4874 312.295 72.4272 314.702 Q75.367 317.11 75.367 321.253 Q75.367 324.216 73.6772 326.276 Q72.0105 328.337 69.0244 329.077 Q72.404 329.864 74.279 332.156 Q76.1772 334.448 76.1772 337.758 Q76.1772 342.781 73.0985 345.466 Q70.0429 348.151 64.3254 348.151 Q58.6078 348.151 55.5291 345.466 Q52.4736 342.781 52.4736 337.758 Q52.4736 334.448 54.3717 332.156 Q56.2699 329.864 59.6495 329.077 M57.9365 321.693 Q57.9365 324.378 59.6032 325.883 Q61.293 327.387 64.3254 327.387 Q67.3346 327.387 69.0244 325.883 Q70.7374 324.378 70.7374 321.693 Q70.7374 319.008 69.0244 317.503 Q67.3346 315.999 64.3254 315.999 Q61.293 315.999 59.6032 317.503 Q57.9365 319.008 57.9365 321.693 Z" fill="#000000" fill-rule="nonzero" fill-opacity="1" /><circle clip-path="url(#clip802)" cx="2289.34" cy="1329.06" r="14.4" fill="#808080" fill-rule="evenodd" fill-opacity="1" stroke="#000000" stroke-opacity="1" stroke-width="3.2"/>
<circle clip-path="url(#clip802)" cx="175.59" cy="87.9763" r="14.4" fill="#808080" fill-rule="evenodd" fill-opacity="1" stroke="#000000" stroke-opacity="1" stroke-width="3.2"/>
<circle clip-path="url(#clip802)" cx="1658.75" cy="1445.72" r="14.4" fill="#808080" fill-rule="evenodd" fill-opacity="1" stroke="#000000" stroke-opacity="1" stroke-width="3.2"/>
<circle clip-path="url(#clip802)" cx="1567.21" cy="1429.33" r="14.4" fill="#808080" fill-rule="evenodd" fill-opacity="1" stroke="#000000" stroke-opacity="1" stroke-width="3.2"/>
<path clip-path="url(#clip800)" d="M2293.64 1336.49 Q2284.6 1336.49 2281.12 1338.56 Q2277.64 1340.62 2277.64 1345.61 Q2277.64 1349.58 2280.23 1351.93 Q2282.86 1354.23 2287.36 1354.23 Q2293.56 1354.23 2297.28 1349.86 Q2301.05 1345.44 2301.05 1338.15 L2301.05 1336.49 L2293.64 1336.49 M2308.5 1333.41 L2308.5 1359.3 L2301.05 1359.3 L2301.05 1352.41 Q2298.5 1356.54 2294.69 1358.53 Q2290.88 1360.47 2285.37 1360.47 Q2278.41 1360.47 2274.27 1356.58 Q2270.18 1352.65 2270.18 1346.09 Q2270.18 1338.44 2275.29 1334.55 Q2280.43 1330.66 2290.6 1330.66 L2301.05 1330.66 L2301.05 1329.93 Q2301.05 1324.78 2297.65 1321.99 Q2294.29 1319.15 2288.17 1319.15 Q2284.28 1319.15 2280.59 1320.09 Q2276.91 1321.02 2273.5 1322.88 L2273.5 1315.99 Q2277.6 1314.41 2281.44 1313.64 Q2285.29 1312.83 2288.94 1312.83 Q2298.78 1312.83 2303.64 1317.94 Q2308.5 1323.04 2308.5 1333.41 Z" fill="#000000" fill-rule="nonzero" fill-opacity="1" /><path clip-path="url(#clip800)" d="M188.148 95.5717 Q188.148 87.3484 184.745 82.6898 Q181.383 77.9908 175.468 77.9908 Q169.554 77.9908 166.151 82.6898 Q162.789 87.3484 162.789 95.5717 Q162.789 103.795 166.151 108.494 Q169.554 113.153 175.468 113.153 Q181.383 113.153 184.745 108.494 Q188.148 103.795 188.148 95.5717 M162.789 79.7327 Q165.138 75.6818 168.703 73.7373 Q172.309 71.7524 177.291 71.7524 Q185.555 71.7524 190.7 78.3149 Q195.885 84.8773 195.885 95.5717 Q195.885 106.266 190.7 112.829 Q185.555 119.391 177.291 119.391 Q172.309 119.391 168.703 117.447 Q165.138 115.462 162.789 111.411 L162.789 118.216 L155.295 118.216 L155.295 55.1842 L162.789 55.1842 L162.789 79.7327 Z" fill="#000000" fill-rule="nonzero" fill-opacity="1" /><path clip-path="url(#clip800)" d="M1676.7 1432.33 L1676.7 1439.3 Q1673.54 1437.55 1670.34 1436.7 Q1667.18 1435.81 1663.94 1435.81 Q1656.69 1435.81 1652.68 1440.43 Q1648.67 1445.01 1648.67 1453.31 Q1648.67 1461.62 1652.68 1466.23 Q1656.69 1470.81 1663.94 1470.81 Q1667.18 1470.81 1670.34 1469.96 Q1673.54 1469.07 1676.7 1467.33 L1676.7 1474.21 Q1673.58 1475.67 1670.22 1476.4 Q1666.89 1477.13 1663.13 1477.13 Q1652.88 1477.13 1646.84 1470.69 Q1640.81 1464.25 1640.81 1453.31 Q1640.81 1442.21 1646.88 1435.85 Q1653 1429.49 1663.61 1429.49 Q1667.06 1429.49 1670.34 1430.22 Q1673.62 1430.91 1676.7 1432.33 Z" fill="#000000" fill-rule="nonzero" fill-opacity="1" /><path clip-path="url(#clip800)" d="M1580.03 1421.09 L1580.03 1396.54 L1587.49 1396.54 L1587.49 1459.57 L1580.03 1459.57 L1580.03 1452.77 Q1577.68 1456.82 1574.08 1458.8 Q1570.51 1460.75 1565.49 1460.75 Q1557.27 1460.75 1552.08 1454.19 Q1546.94 1447.62 1546.94 1436.93 Q1546.94 1426.23 1552.08 1419.67 Q1557.27 1413.11 1565.49 1413.11 Q1570.51 1413.11 1574.08 1415.09 Q1577.68 1417.04 1580.03 1421.09 M1554.63 1436.93 Q1554.63 1445.15 1557.99 1449.85 Q1561.4 1454.51 1567.31 1454.51 Q1573.23 1454.51 1576.63 1449.85 Q1580.03 1445.15 1580.03 1436.93 Q1580.03 1428.71 1576.63 1424.05 Q1573.23 1419.35 1567.31 1419.35 Q1561.4 1419.35 1557.99 1424.05 Q1554.63 1428.71 1554.63 1436.93 Z" fill="#000000" fill-rule="nonzero" fill-opacity="1" /><path clip-path="url(#clip800)" d="M2001.58 198.898 L2278.07 198.898 L2278.07 95.2176 L2001.58 95.2176  Z" fill="#ffffff" fill-rule="evenodd" fill-opacity="1"/>
<polyline clip-path="url(#clip800)" style="stroke:#000000; stroke-linecap:round; stroke-linejoin:round; stroke-width:4; stroke-opacity:1; fill:none" points="2001.58,198.898 2278.07,198.898 2278.07,95.2176 2001.58,95.2176 2001.58,198.898 "/>
<circle clip-path="url(#clip800)" cx="2101.16" cy="147.058" r="20.48" fill="#808080" fill-rule="evenodd" fill-opacity="1" stroke="#000000" stroke-opacity="1" stroke-width="4.55111"/>
<path clip-path="url(#clip800)" d="M2214.59 166.745 Q2212.78 171.375 2211.07 172.787 Q2209.36 174.199 2206.49 174.199 L2203.08 174.199 L2203.08 170.634 L2205.58 170.634 Q2207.34 170.634 2208.31 169.8 Q2209.29 168.967 2210.47 165.865 L2211.23 163.921 L2200.74 138.412 L2205.26 138.412 L2213.36 158.689 L2221.46 138.412 L2225.98 138.412 L2214.59 166.745 Z" fill="#000000" fill-rule="nonzero" fill-opacity="1" /><path clip-path="url(#clip800)" d="M2233.27 160.402 L2240.91 160.402 L2240.91 134.037 L2232.6 135.703 L2232.6 131.444 L2240.86 129.778 L2245.54 129.778 L2245.54 160.402 L2253.17 160.402 L2253.17 164.338 L2233.27 164.338 L2233.27 160.402 Z" fill="#000000" fill-rule="nonzero" fill-opacity="1" /></svg>
