<?xml version="1.0" encoding="utf-8"?>
<svg xmlns="http://www.w3.org/2000/svg" xmlns:xlink="http://www.w3.org/1999/xlink" width="600" height="400" viewBox="0 0 2400 1600">
<defs>
  <clipPath id="clip640">
    <rect x="0" y="0" width="2400" height="1600"/>
  </clipPath>
</defs>
<path clip-path="url(#clip640)" d="M0 1600 L2400 1600 L2400 0 L0 0  Z" fill="#ffffff" fill-rule="evenodd" fill-opacity="1"/>
<defs>
  <clipPath id="clip641">
    <rect x="480" y="0" width="1681" height="1600"/>
  </clipPath>
</defs>
<path clip-path="url(#clip640)" d="M155.765 1486.45 L2352.76 1486.45 L2352.76 47.2441 L155.765 47.2441  Z" fill="#ffffff" fill-rule="evenodd" fill-opacity="1"/>
<defs>
  <clipPath id="clip642">
    <rect x="155" y="47" width="2198" height="1440"/>
  </clipPath>
</defs>
<polyline clip-path="url(#clip642)" style="stroke:#000000; stroke-linecap:round; stroke-linejoin:round; stroke-width:2; stroke-opacity:0.1; fill:none" points="297.709,1486.45 297.709,47.2441 "/>
<polyline clip-path="url(#clip642)" style="stroke:#000000; stroke-linecap:round; stroke-linejoin:round; stroke-width:2; stroke-opacity:0.1; fill:none" points="711.155,1486.45 711.155,47.2441 "/>
<polyline clip-path="url(#clip642)" style="stroke:#000000; stroke-linecap:round; stroke-linejoin:round; stroke-width:2; stroke-opacity:0.1; fill:none" points="1124.6,1486.45 1124.6,47.2441 "/>
<polyline clip-path="url(#clip642)" style="stroke:#000000; stroke-linecap:round; stroke-linejoin:round; stroke-width:2; stroke-opacity:0.1; fill:none" points="1538.05,1486.45 1538.05,47.2441 "/>
<polyline clip-path="url(#clip642)" style="stroke:#000000; stroke-linecap:round; stroke-linejoin:round; stroke-width:2; stroke-opacity:0.1; fill:none" points="1951.49,1486.45 1951.49,47.2441 "/>
<polyline clip-path="url(#clip640)" style="stroke:#000000; stroke-linecap:round; stroke-linejoin:round; stroke-width:4; stroke-opacity:1; fill:none" points="155.765,1486.45 2352.76,1486.45 "/>
<polyline clip-path="url(#clip640)" style="stroke:#000000; stroke-linecap:round; stroke-linejoin:round; stroke-width:4; stroke-opacity:1; fill:none" points="297.709,1486.45 297.709,1467.55 "/>
<polyline clip-path="url(#clip640)" style="stroke:#000000; stroke-linecap:round; stroke-linejoin:round; stroke-width:4; stroke-opacity:1; fill:none" points="711.155,1486.45 711.155,1467.55 "/>
<polyline clip-path="url(#clip640)" style="stroke:#000000; stroke-linecap:round; stroke-linejoin:round; stroke-width:4; stroke-opacity:1; fill:none" points="1124.6,1486.45 1124.6,1467.55 "/>
<polyline clip-path="url(#clip640)" style="stroke:#000000; stroke-linecap:round; stroke-linejoin:round; stroke-width:4; stroke-opacity:1; fill:none" points="1538.05,1486.45 1538.05,1467.55 "/>
<polyline clip-path="url(#clip640)" style="stroke:#000000; stroke-linecap:round; stroke-linejoin:round; stroke-width:4; stroke-opacity:1; fill:none" points="1951.49,1486.45 1951.49,1467.55 "/>
<path clip-path="url(#clip640)" d="M244.33 1532.02 L274.005 1532.02 L274.005 1535.95 L244.33 1535.95 L244.33 1532.02 Z" fill="#000000" fill-rule="nonzero" fill-opacity="1" /><path clip-path="url(#clip640)" d="M294.098 1517.37 Q290.487 1517.37 288.658 1520.93 Q286.852 1524.47 286.852 1531.6 Q286.852 1538.71 288.658 1542.27 Q290.487 1545.82 294.098 1545.82 Q297.732 1545.82 299.538 1542.27 Q301.366 1538.71 301.366 1531.6 Q301.366 1524.47 299.538 1520.93 Q297.732 1517.37 294.098 1517.37 M294.098 1513.66 Q299.908 1513.66 302.963 1518.27 Q306.042 1522.85 306.042 1531.6 Q306.042 1540.33 302.963 1544.94 Q299.908 1549.52 294.098 1549.52 Q288.288 1549.52 285.209 1544.94 Q282.153 1540.33 282.153 1531.6 Q282.153 1522.85 285.209 1518.27 Q288.288 1513.66 294.098 1513.66 Z" fill="#000000" fill-rule="nonzero" fill-opacity="1" /><path clip-path="url(#clip640)" d="M314.26 1542.97 L319.144 1542.97 L319.144 1548.85 L314.26 1548.85 L314.26 1542.97 Z" fill="#000000" fill-rule="nonzero" fill-opacity="1" /><path clip-path="url(#clip640)" d="M329.468 1548.13 L329.468 1543.87 Q331.227 1544.7 333.033 1545.14 Q334.838 1545.58 336.574 1545.58 Q341.204 1545.58 343.635 1542.48 Q346.088 1539.36 346.435 1533.01 Q345.093 1535.01 343.033 1536.07 Q340.973 1537.13 338.473 1537.13 Q333.287 1537.13 330.255 1534.01 Q327.246 1530.86 327.246 1525.42 Q327.246 1520.1 330.394 1516.88 Q333.542 1513.66 338.773 1513.66 Q344.769 1513.66 347.917 1518.27 Q351.088 1522.85 351.088 1531.6 Q351.088 1539.77 347.199 1544.66 Q343.334 1549.52 336.783 1549.52 Q335.023 1549.52 333.218 1549.17 Q331.412 1548.82 329.468 1548.13 M338.773 1533.48 Q341.922 1533.48 343.75 1531.32 Q345.602 1529.17 345.602 1525.42 Q345.602 1521.7 343.75 1519.54 Q341.922 1517.37 338.773 1517.37 Q335.625 1517.37 333.773 1519.54 Q331.945 1521.7 331.945 1525.42 Q331.945 1529.17 333.773 1531.32 Q335.625 1533.48 338.773 1533.48 Z" fill="#000000" fill-rule="nonzero" fill-opacity="1" /><path clip-path="url(#clip640)" d="M657.602 1532.02 L687.278 1532.02 L687.278 1535.95 L657.602 1535.95 L657.602 1532.02 Z" fill="#000000" fill-rule="nonzero" fill-opacity="1" /><path clip-path="url(#clip640)" d="M707.37 1517.37 Q703.759 1517.37 701.931 1520.93 Q700.125 1524.47 700.125 1531.6 Q700.125 1538.71 701.931 1542.27 Q703.759 1545.82 707.37 1545.82 Q711.005 1545.82 712.81 1542.27 Q714.639 1538.71 714.639 1531.6 Q714.639 1524.47 712.81 1520.93 Q711.005 1517.37 707.37 1517.37 M707.37 1513.66 Q713.18 1513.66 716.236 1518.27 Q719.315 1522.85 719.315 1531.6 Q719.315 1540.33 716.236 1544.94 Q713.18 1549.52 707.37 1549.52 Q701.56 1549.52 698.481 1544.94 Q695.426 1540.33 695.426 1531.6 Q695.426 1522.85 698.481 1518.27 Q701.56 1513.66 707.37 1513.66 Z" fill="#000000" fill-rule="nonzero" fill-opacity="1" /><path clip-path="url(#clip640)" d="M727.532 1542.97 L732.416 1542.97 L732.416 1548.85 L727.532 1548.85 L727.532 1542.97 Z" fill="#000000" fill-rule="nonzero" fill-opacity="1" /><path clip-path="url(#clip640)" d="M753.18 1529.7 Q750.032 1529.7 748.18 1531.86 Q746.352 1534.01 746.352 1537.76 Q746.352 1541.49 748.18 1543.66 Q750.032 1545.82 753.18 1545.82 Q756.328 1545.82 758.157 1543.66 Q760.009 1541.49 760.009 1537.76 Q760.009 1534.01 758.157 1531.86 Q756.328 1529.7 753.18 1529.7 M762.463 1515.05 L762.463 1519.31 Q760.703 1518.48 758.898 1518.04 Q757.115 1517.6 755.356 1517.6 Q750.727 1517.6 748.273 1520.72 Q745.842 1523.85 745.495 1530.17 Q746.861 1528.15 748.921 1527.09 Q750.981 1526 753.458 1526 Q758.666 1526 761.676 1529.17 Q764.708 1532.32 764.708 1537.76 Q764.708 1543.08 761.56 1546.3 Q758.412 1549.52 753.18 1549.52 Q747.185 1549.52 744.014 1544.94 Q740.842 1540.33 740.842 1531.6 Q740.842 1523.41 744.731 1518.55 Q748.62 1513.66 755.171 1513.66 Q756.93 1513.66 758.713 1514.01 Q760.518 1514.36 762.463 1515.05 Z" fill="#000000" fill-rule="nonzero" fill-opacity="1" /><path clip-path="url(#clip640)" d="M1071.45 1532.02 L1101.13 1532.02 L1101.13 1535.95 L1071.45 1535.95 L1071.45 1532.02 Z" fill="#000000" fill-rule="nonzero" fill-opacity="1" /><path clip-path="url(#clip640)" d="M1121.22 1517.37 Q1117.61 1517.37 1115.78 1520.93 Q1113.98 1524.47 1113.98 1531.6 Q1113.98 1538.71 1115.78 1542.27 Q1117.61 1545.82 1121.22 1545.82 Q1124.86 1545.82 1126.66 1542.27 Q1128.49 1538.71 1128.49 1531.6 Q1128.49 1524.47 1126.66 1520.93 Q1124.86 1517.37 1121.22 1517.37 M1121.22 1513.66 Q1127.03 1513.66 1130.09 1518.27 Q1133.17 1522.85 1133.17 1531.6 Q1133.17 1540.33 1130.09 1544.94 Q1127.03 1549.52 1121.22 1549.52 Q1115.41 1549.52 1112.33 1544.94 Q1109.28 1540.33 1109.28 1531.6 Q1109.28 1522.85 1112.33 1518.27 Q1115.41 1513.66 1121.22 1513.66 Z" fill="#000000" fill-rule="nonzero" fill-opacity="1" /><path clip-path="url(#clip640)" d="M1141.38 1542.97 L1146.27 1542.97 L1146.27 1548.85 L1141.38 1548.85 L1141.38 1542.97 Z" fill="#000000" fill-rule="nonzero" fill-opacity="1" /><path clip-path="url(#clip640)" d="M1170.62 1530.21 Q1173.98 1530.93 1175.85 1533.2 Q1177.75 1535.47 1177.75 1538.8 Q1177.75 1543.92 1174.23 1546.72 Q1170.71 1549.52 1164.23 1549.52 Q1162.05 1549.52 1159.74 1549.08 Q1157.45 1548.66 1154.99 1547.81 L1154.99 1543.29 Q1156.94 1544.43 1159.25 1545.01 Q1161.57 1545.58 1164.09 1545.58 Q1168.49 1545.58 1170.78 1543.85 Q1173.1 1542.11 1173.1 1538.8 Q1173.1 1535.75 1170.94 1534.03 Q1168.81 1532.3 1164.99 1532.3 L1160.97 1532.3 L1160.97 1528.45 L1165.18 1528.45 Q1168.63 1528.45 1170.46 1527.09 Q1172.29 1525.7 1172.29 1523.11 Q1172.29 1520.45 1170.39 1519.03 Q1168.51 1517.6 1164.99 1517.6 Q1163.07 1517.6 1160.87 1518.01 Q1158.68 1518.43 1156.04 1519.31 L1156.04 1515.14 Q1158.7 1514.4 1161.01 1514.03 Q1163.35 1513.66 1165.41 1513.66 Q1170.74 1513.66 1173.84 1516.09 Q1176.94 1518.5 1176.94 1522.62 Q1176.94 1525.49 1175.3 1527.48 Q1173.65 1529.45 1170.62 1530.21 Z" fill="#000000" fill-rule="nonzero" fill-opacity="1" /><path clip-path="url(#clip640)" d="M1515.43 1517.37 Q1511.82 1517.37 1509.99 1520.93 Q1508.19 1524.47 1508.19 1531.6 Q1508.19 1538.71 1509.99 1542.27 Q1511.82 1545.82 1515.43 1545.82 Q1519.07 1545.82 1520.87 1542.27 Q1522.7 1538.71 1522.7 1531.6 Q1522.7 1524.47 1520.87 1520.93 Q1519.07 1517.37 1515.43 1517.37 M1515.43 1513.66 Q1521.24 1513.66 1524.3 1518.27 Q1527.38 1522.85 1527.38 1531.6 Q1527.38 1540.33 1524.3 1544.94 Q1521.24 1549.52 1515.43 1549.52 Q1509.62 1549.52 1506.54 1544.94 Q1503.49 1540.33 1503.49 1531.6 Q1503.49 1522.85 1506.54 1518.27 Q1509.62 1513.66 1515.43 1513.66 Z" fill="#000000" fill-rule="nonzero" fill-opacity="1" /><path clip-path="url(#clip640)" d="M1535.59 1542.97 L1540.48 1542.97 L1540.48 1548.85 L1535.59 1548.85 L1535.59 1542.97 Z" fill="#000000" fill-rule="nonzero" fill-opacity="1" /><path clip-path="url(#clip640)" d="M1560.66 1517.37 Q1557.05 1517.37 1555.22 1520.93 Q1553.42 1524.47 1553.42 1531.6 Q1553.42 1538.71 1555.22 1542.27 Q1557.05 1545.82 1560.66 1545.82 Q1564.3 1545.82 1566.1 1542.27 Q1567.93 1538.71 1567.93 1531.6 Q1567.93 1524.47 1566.1 1520.93 Q1564.3 1517.37 1560.66 1517.37 M1560.66 1513.66 Q1566.47 1513.66 1569.53 1518.27 Q1572.61 1522.85 1572.61 1531.6 Q1572.61 1540.33 1569.53 1544.94 Q1566.47 1549.52 1560.66 1549.52 Q1554.85 1549.52 1551.77 1544.94 Q1548.72 1540.33 1548.72 1531.6 Q1548.72 1522.85 1551.77 1518.27 Q1554.85 1513.66 1560.66 1513.66 Z" fill="#000000" fill-rule="nonzero" fill-opacity="1" /><path clip-path="url(#clip640)" d="M1929.2 1517.37 Q1925.59 1517.37 1923.76 1520.93 Q1921.96 1524.47 1921.96 1531.6 Q1921.96 1538.71 1923.76 1542.27 Q1925.59 1545.82 1929.2 1545.82 Q1932.84 1545.82 1934.64 1542.27 Q1936.47 1538.71 1936.47 1531.6 Q1936.47 1524.47 1934.64 1520.93 Q1932.84 1517.37 1929.2 1517.37 M1929.2 1513.66 Q1935.01 1513.66 1938.07 1518.27 Q1941.15 1522.85 1941.15 1531.6 Q1941.15 1540.33 1938.07 1544.94 Q1935.01 1549.52 1929.2 1549.52 Q1923.39 1549.52 1920.31 1544.94 Q1917.26 1540.33 1917.26 1531.6 Q1917.26 1522.85 1920.31 1518.27 Q1923.39 1513.66 1929.2 1513.66 Z" fill="#000000" fill-rule="nonzero" fill-opacity="1" /><path clip-path="url(#clip640)" d="M1949.36 1542.97 L1954.25 1542.97 L1954.25 1548.85 L1949.36 1548.85 L1949.36 1542.97 Z" fill="#000000" fill-rule="nonzero" fill-opacity="1" /><path clip-path="url(#clip640)" d="M1978.6 1530.21 Q1981.96 1530.93 1983.83 1533.2 Q1985.73 1535.47 1985.73 1538.8 Q1985.73 1543.92 1982.21 1546.72 Q1978.69 1549.52 1972.21 1549.52 Q1970.04 1549.52 1967.72 1549.08 Q1965.43 1548.66 1962.97 1547.81 L1962.97 1543.29 Q1964.92 1544.43 1967.23 1545.01 Q1969.55 1545.58 1972.07 1545.58 Q1976.47 1545.58 1978.76 1543.85 Q1981.08 1542.11 1981.08 1538.8 Q1981.08 1535.75 1978.92 1534.03 Q1976.79 1532.3 1972.97 1532.3 L1968.95 1532.3 L1968.95 1528.45 L1973.16 1528.45 Q1976.61 1528.45 1978.44 1527.09 Q1980.27 1525.7 1980.27 1523.11 Q1980.27 1520.45 1978.37 1519.03 Q1976.49 1517.6 1972.97 1517.6 Q1971.05 1517.6 1968.85 1518.01 Q1966.66 1518.43 1964.02 1519.31 L1964.02 1515.14 Q1966.68 1514.4 1968.99 1514.03 Q1971.33 1513.66 1973.39 1513.66 Q1978.72 1513.66 1981.82 1516.09 Q1984.92 1518.5 1984.92 1522.62 Q1984.92 1525.49 1983.28 1527.48 Q1981.63 1529.45 1978.6 1530.21 Z" fill="#000000" fill-rule="nonzero" fill-opacity="1" /><polyline clip-path="url(#clip642)" style="stroke:#000000; stroke-linecap:round; stroke-linejoin:round; stroke-width:2; stroke-opacity:0.1; fill:none" points="155.765,1311.1 2352.76,1311.1 "/>
<polyline clip-path="url(#clip642)" style="stroke:#000000; stroke-linecap:round; stroke-linejoin:round; stroke-width:2; stroke-opacity:0.1; fill:none" points="155.765,1072.58 2352.76,1072.58 "/>
<polyline clip-path="url(#clip642)" style="stroke:#000000; stroke-linecap:round; stroke-linejoin:round; stroke-width:2; stroke-opacity:0.1; fill:none" points="155.765,834.057 2352.76,834.057 "/>
<polyline clip-path="url(#clip642)" style="stroke:#000000; stroke-linecap:round; stroke-linejoin:round; stroke-width:2; stroke-opacity:0.1; fill:none" points="155.765,595.534 2352.76,595.534 "/>
<polyline clip-path="url(#clip642)" style="stroke:#000000; stroke-linecap:round; stroke-linejoin:round; stroke-width:2; stroke-opacity:0.1; fill:none" points="155.765,357.011 2352.76,357.011 "/>
<polyline clip-path="url(#clip642)" style="stroke:#000000; stroke-linecap:round; stroke-linejoin:round; stroke-width:2; stroke-opacity:0.1; fill:none" points="155.765,118.489 2352.76,118.489 "/>
<polyline clip-path="url(#clip640)" style="stroke:#000000; stroke-linecap:round; stroke-linejoin:round; stroke-width:4; stroke-opacity:1; fill:none" points="155.765,1486.45 155.765,47.2441 "/>
<polyline clip-path="url(#clip640)" style="stroke:#000000; stroke-linecap:round; stroke-linejoin:round; stroke-width:4; stroke-opacity:1; fill:none" points="155.765,1311.1 174.663,1311.1 "/>
<polyline clip-path="url(#clip640)" style="stroke:#000000; stroke-linecap:round; stroke-linejoin:round; stroke-width:4; stroke-opacity:1; fill:none" points="155.765,1072.58 174.663,1072.58 "/>
<polyline clip-path="url(#clip640)" style="stroke:#000000; stroke-linecap:round; stroke-linejoin:round; stroke-width:4; stroke-opacity:1; fill:none" points="155.765,834.057 174.663,834.057 "/>
<polyline clip-path="url(#clip640)" style="stroke:#000000; stroke-linecap:round; stroke-linejoin:round; stroke-width:4; stroke-opacity:1; fill:none" points="155.765,595.534 174.663,595.534 "/>
<polyline clip-path="url(#clip640)" style="stroke:#000000; stroke-linecap:round; stroke-linejoin:round; stroke-width:4; stroke-opacity:1; fill:none" points="155.765,357.011 174.663,357.011 "/>
<polyline clip-path="url(#clip640)" style="stroke:#000000; stroke-linecap:round; stroke-linejoin:round; stroke-width:4; stroke-opacity:1; fill:none" points="155.765,118.489 174.663,118.489 "/>
<path clip-path="url(#clip640)" d="M63.5847 1296.9 Q59.9736 1296.9 58.1449 1300.47 Q56.3393 1304.01 56.3393 1311.14 Q56.3393 1318.24 58.1449 1321.81 Q59.9736 1325.35 63.5847 1325.35 Q67.2189 1325.35 69.0244 1321.81 Q70.8531 1318.24 70.8531 1311.14 Q70.8531 1304.01 69.0244 1300.47 Q67.2189 1296.9 63.5847 1296.9 M63.5847 1293.2 Q69.3948 1293.2 72.4503 1297.8 Q75.529 1302.39 75.529 1311.14 Q75.529 1319.86 72.4503 1324.47 Q69.3948 1329.05 63.5847 1329.05 Q57.7745 1329.05 54.6958 1324.47 Q51.6403 1319.86 51.6403 1311.14 Q51.6403 1302.39 54.6958 1297.8 Q57.7745 1293.2 63.5847 1293.2 Z" fill="#000000" fill-rule="nonzero" fill-opacity="1" /><path clip-path="url(#clip640)" d="M83.7466 1322.5 L88.6308 1322.5 L88.6308 1328.38 L83.7466 1328.38 L83.7466 1322.5 Z" fill="#000000" fill-rule="nonzero" fill-opacity="1" /><path clip-path="url(#clip640)" d="M98.8622 1293.82 L117.219 1293.82 L117.219 1297.76 L103.145 1297.76 L103.145 1306.23 Q104.163 1305.88 105.182 1305.72 Q106.2 1305.54 107.219 1305.54 Q113.006 1305.54 116.385 1308.71 Q119.765 1311.88 119.765 1317.29 Q119.765 1322.87 116.293 1325.98 Q112.82 1329.05 106.501 1329.05 Q104.325 1329.05 102.057 1328.68 Q99.8113 1328.31 97.4039 1327.57 L97.4039 1322.87 Q99.4872 1324.01 101.709 1324.56 Q103.932 1325.12 106.408 1325.12 Q110.413 1325.12 112.751 1323.01 Q115.089 1320.91 115.089 1317.29 Q115.089 1313.68 112.751 1311.58 Q110.413 1309.47 106.408 1309.47 Q104.534 1309.47 102.659 1309.89 Q100.807 1310.3 98.8622 1311.18 L98.8622 1293.82 Z" fill="#000000" fill-rule="nonzero" fill-opacity="1" /><path clip-path="url(#clip640)" d="M53.3995 1085.92 L61.0384 1085.92 L61.0384 1059.56 L52.7282 1061.23 L52.7282 1056.97 L60.9921 1055.3 L65.668 1055.3 L65.668 1085.92 L73.3068 1085.92 L73.3068 1089.86 L53.3995 1089.86 L53.3995 1085.92 Z" fill="#000000" fill-rule="nonzero" fill-opacity="1" /><path clip-path="url(#clip640)" d="M82.7512 1083.98 L87.6354 1083.98 L87.6354 1089.86 L82.7512 1089.86 L82.7512 1083.98 Z" fill="#000000" fill-rule="nonzero" fill-opacity="1" /><path clip-path="url(#clip640)" d="M107.821 1058.38 Q104.209 1058.38 102.381 1061.94 Q100.575 1065.49 100.575 1072.61 Q100.575 1079.72 102.381 1083.29 Q104.209 1086.83 107.821 1086.83 Q111.455 1086.83 113.26 1083.29 Q115.089 1079.72 115.089 1072.61 Q115.089 1065.49 113.26 1061.94 Q111.455 1058.38 107.821 1058.38 M107.821 1054.67 Q113.631 1054.67 116.686 1059.28 Q119.765 1063.86 119.765 1072.61 Q119.765 1081.34 116.686 1085.95 Q113.631 1090.53 107.821 1090.53 Q102.01 1090.53 98.9317 1085.95 Q95.8761 1081.34 95.8761 1072.61 Q95.8761 1063.86 98.9317 1059.28 Q102.01 1054.67 107.821 1054.67 Z" fill="#000000" fill-rule="nonzero" fill-opacity="1" /><path clip-path="url(#clip640)" d="M54.3949 847.402 L62.0337 847.402 L62.0337 821.036 L53.7236 822.703 L53.7236 818.444 L61.9874 816.777 L66.6633 816.777 L66.6633 847.402 L74.3022 847.402 L74.3022 851.337 L54.3949 851.337 L54.3949 847.402 Z" fill="#000000" fill-rule="nonzero" fill-opacity="1" /><path clip-path="url(#clip640)" d="M83.7466 845.458 L88.6308 845.458 L88.6308 851.337 L83.7466 851.337 L83.7466 845.458 Z" fill="#000000" fill-rule="nonzero" fill-opacity="1" /><path clip-path="url(#clip640)" d="M98.8622 816.777 L117.219 816.777 L117.219 820.712 L103.145 820.712 L103.145 829.184 Q104.163 828.837 105.182 828.675 Q106.2 828.49 107.219 828.49 Q113.006 828.49 116.385 831.661 Q119.765 834.833 119.765 840.249 Q119.765 845.828 116.293 848.93 Q112.82 852.008 106.501 852.008 Q104.325 852.008 102.057 851.638 Q99.8113 851.268 97.4039 850.527 L97.4039 845.828 Q99.4872 846.962 101.709 847.518 Q103.932 848.073 106.408 848.073 Q110.413 848.073 112.751 845.967 Q115.089 843.86 115.089 840.249 Q115.089 836.638 112.751 834.532 Q110.413 832.425 106.408 832.425 Q104.534 832.425 102.659 832.842 Q100.807 833.258 98.8622 834.138 L98.8622 816.777 Z" fill="#000000" fill-rule="nonzero" fill-opacity="1" /><path clip-path="url(#clip640)" d="M56.6171 608.879 L72.9365 608.879 L72.9365 612.814 L50.9921 612.814 L50.9921 608.879 Q53.6541 606.124 58.2375 601.495 Q62.8439 596.842 64.0245 595.5 Q66.2698 592.976 67.1494 591.24 Q68.0522 589.481 68.0522 587.791 Q68.0522 585.037 66.1078 583.301 Q64.1865 581.564 61.0847 581.564 Q58.8856 581.564 56.4319 582.328 Q54.0014 583.092 51.2236 584.643 L51.2236 579.921 Q54.0477 578.787 56.5014 578.208 Q58.955 577.629 60.9921 577.629 Q66.3624 577.629 69.5568 580.314 Q72.7513 583 72.7513 587.49 Q72.7513 589.62 71.9411 591.541 Q71.1541 593.439 69.0476 596.032 Q68.4689 596.703 65.367 599.921 Q62.2652 603.115 56.6171 608.879 Z" fill="#000000" fill-rule="nonzero" fill-opacity="1" /><path clip-path="url(#clip640)" d="M82.7512 606.935 L87.6354 606.935 L87.6354 612.814 L82.7512 612.814 L82.7512 606.935 Z" fill="#000000" fill-rule="nonzero" fill-opacity="1" /><path clip-path="url(#clip640)" d="M107.821 581.333 Q104.209 581.333 102.381 584.898 Q100.575 588.439 100.575 595.569 Q100.575 602.675 102.381 606.24 Q104.209 609.782 107.821 609.782 Q111.455 609.782 113.26 606.24 Q115.089 602.675 115.089 595.569 Q115.089 588.439 113.26 584.898 Q111.455 581.333 107.821 581.333 M107.821 577.629 Q113.631 577.629 116.686 582.236 Q119.765 586.819 119.765 595.569 Q119.765 604.296 116.686 608.902 Q113.631 613.486 107.821 613.486 Q102.01 613.486 98.9317 608.902 Q95.8761 604.296 95.8761 595.569 Q95.8761 586.819 98.9317 582.236 Q102.01 577.629 107.821 577.629 Z" fill="#000000" fill-rule="nonzero" fill-opacity="1" /><path clip-path="url(#clip640)" d="M57.6125 370.356 L73.9318 370.356 L73.9318 374.291 L51.9875 374.291 L51.9875 370.356 Q54.6495 367.602 59.2328 362.972 Q63.8393 358.319 65.0198 356.977 Q67.2652 354.454 68.1448 352.717 Q69.0476 350.958 69.0476 349.268 Q69.0476 346.514 67.1032 344.778 Q65.1819 343.042 62.08 343.042 Q59.881 343.042 57.4273 343.805 Q54.9967 344.569 52.219 346.12 L52.219 341.398 Q55.043 340.264 57.4967 339.685 Q59.9504 339.106 61.9874 339.106 Q67.3578 339.106 70.5522 341.792 Q73.7466 344.477 73.7466 348.967 Q73.7466 351.097 72.9365 353.018 Q72.1494 354.916 70.0429 357.509 Q69.4642 358.18 66.3624 361.398 Q63.2606 364.592 57.6125 370.356 Z" fill="#000000" fill-rule="nonzero" fill-opacity="1" /><path clip-path="url(#clip640)" d="M83.7466 368.412 L88.6308 368.412 L88.6308 374.291 L83.7466 374.291 L83.7466 368.412 Z" fill="#000000" fill-rule="nonzero" fill-opacity="1" /><path clip-path="url(#clip640)" d="M98.8622 339.731 L117.219 339.731 L117.219 343.667 L103.145 343.667 L103.145 352.139 Q104.163 351.792 105.182 351.629 Q106.2 351.444 107.219 351.444 Q113.006 351.444 116.385 354.616 Q119.765 357.787 119.765 363.203 Q119.765 368.782 116.293 371.884 Q112.82 374.963 106.501 374.963 Q104.325 374.963 102.057 374.592 Q99.8113 374.222 97.4039 373.481 L97.4039 368.782 Q99.4872 369.916 101.709 370.472 Q103.932 371.028 106.408 371.028 Q110.413 371.028 112.751 368.921 Q115.089 366.815 115.089 363.203 Q115.089 359.592 112.751 357.486 Q110.413 355.379 106.408 355.379 Q104.534 355.379 102.659 355.796 Q100.807 356.213 98.8622 357.092 L98.8622 339.731 Z" fill="#000000" fill-rule="nonzero" fill-opacity="1" /><path clip-path="url(#clip640)" d="M66.7559 117.134 Q70.1124 117.852 71.9874 120.12 Q73.8855 122.389 73.8855 125.722 Q73.8855 130.838 70.367 133.639 Q66.8485 136.44 60.3671 136.44 Q58.1912 136.44 55.8764 136 Q53.5847 135.583 51.131 134.727 L51.131 130.213 Q53.0754 131.347 55.3903 131.926 Q57.7051 132.505 60.2282 132.505 Q64.6263 132.505 66.918 130.769 Q69.2328 129.032 69.2328 125.722 Q69.2328 122.667 67.08 120.954 Q64.9504 119.218 61.131 119.218 L57.1032 119.218 L57.1032 115.375 L61.3161 115.375 Q64.7652 115.375 66.5939 114.009 Q68.4226 112.621 68.4226 110.028 Q68.4226 107.366 66.5245 105.954 Q64.6495 104.519 61.131 104.519 Q59.2097 104.519 57.0106 104.935 Q54.8115 105.352 52.1727 106.232 L52.1727 102.065 Q54.8347 101.324 57.1495 100.954 Q59.4875 100.584 61.5476 100.584 Q66.8717 100.584 69.9735 103.014 Q73.0753 105.421 73.0753 109.542 Q73.0753 112.412 71.4318 114.403 Q69.7883 116.37 66.7559 117.134 Z" fill="#000000" fill-rule="nonzero" fill-opacity="1" /><path clip-path="url(#clip640)" d="M82.7512 129.889 L87.6354 129.889 L87.6354 135.769 L82.7512 135.769 L82.7512 129.889 Z" fill="#000000" fill-rule="nonzero" fill-opacity="1" /><path clip-path="url(#clip640)" d="M107.821 104.287 Q104.209 104.287 102.381 107.852 Q100.575 111.394 100.575 118.523 Q100.575 125.63 102.381 129.194 Q104.209 132.736 107.821 132.736 Q111.455 132.736 113.26 129.194 Q115.089 125.63 115.089 118.523 Q115.089 111.394 113.26 107.852 Q111.455 104.287 107.821 104.287 M107.821 100.584 Q113.631 100.584 116.686 105.19 Q119.765 109.773 119.765 118.523 Q119.765 127.25 116.686 131.857 Q113.631 136.44 107.821 136.44 Q102.01 136.44 98.9317 131.857 Q95.8761 127.25 95.8761 118.523 Q95.8761 109.773 98.9317 105.19 Q102.01 100.584 107.821 100.584 Z" fill="#000000" fill-rule="nonzero" fill-opacity="1" /><circle clip-path="url(#clip642)" cx="2290.58" cy="1329.68" r="14.4" fill="#808080" fill-rule="evenodd" fill-opacity="1" stroke="#000000" stroke-opacity="1" stroke-width="3.2"/>
<circle clip-path="url(#clip642)" cx="217.944" cy="87.9763" r="14.4" fill="#808080" fill-rule="evenodd" fill-opacity="1" stroke="#000000" stroke-opacity="1" stroke-width="3.2"/>
<circle clip-path="url(#clip642)" cx="1636.15" cy="1445.72" r="14.4" fill="#808080" fill-rule="evenodd" fill-opacity="1" stroke="#000000" stroke-opacity="1" stroke-width="3.2"/>
<circle clip-path="url(#clip642)" cx="1406.1" cy="1441.83" r="14.4" fill="#808080" fill-rule="evenodd" fill-opacity="1" stroke="#000000" stroke-opacity="1" stroke-width="3.2"/>
<path clip-path="url(#clip640)" d="M2294.87 1337.12 Q2285.84 1337.12 2282.35 1339.18 Q2278.87 1341.25 2278.87 1346.23 Q2278.87 1350.2 2281.46 1352.55 Q2284.1 1354.86 2288.59 1354.86 Q2294.79 1354.86 2298.52 1350.48 Q2302.28 1346.07 2302.28 1338.78 L2302.28 1337.12 L2294.87 1337.12 M2309.74 1334.04 L2309.74 1359.92 L2302.28 1359.92 L2302.28 1353.04 Q2299.73 1357.17 2295.92 1359.15 Q2292.12 1361.1 2286.61 1361.1 Q2279.64 1361.1 2275.51 1357.21 Q2271.42 1353.28 2271.42 1346.72 Q2271.42 1339.06 2276.52 1335.17 Q2281.66 1331.28 2291.83 1331.28 L2302.28 1331.28 L2302.28 1330.55 Q2302.28 1325.41 2298.88 1322.61 Q2295.52 1319.78 2289.4 1319.78 Q2285.51 1319.78 2281.83 1320.71 Q2278.14 1321.64 2274.74 1323.51 L2274.74 1316.62 Q2278.83 1315.04 2282.68 1314.27 Q2286.53 1313.46 2290.17 1313.46 Q2300.02 1313.46 2304.88 1318.56 Q2309.74 1323.67 2309.74 1334.04 Z" fill="#000000" fill-rule="nonzero" fill-opacity="1" /><path clip-path="url(#clip640)" d="M230.502 95.5717 Q230.502 87.3484 227.099 82.6898 Q223.737 77.9908 217.822 77.9908 Q211.908 77.9908 208.505 82.6898 Q205.143 87.3484 205.143 95.5717 Q205.143 103.795 208.505 108.494 Q211.908 113.153 217.822 113.153 Q223.737 113.153 227.099 108.494 Q230.502 103.795 230.502 95.5717 M205.143 79.7327 Q207.493 75.6818 211.057 73.7373 Q214.663 71.7524 219.645 71.7524 Q227.909 71.7524 233.054 78.3149 Q238.239 84.8773 238.239 95.5717 Q238.239 106.266 233.054 112.829 Q227.909 119.391 219.645 119.391 Q214.663 119.391 211.057 117.447 Q207.493 115.462 205.143 111.411 L205.143 118.216 L197.649 118.216 L197.649 55.1842 L205.143 55.1842 L205.143 79.7327 Z" fill="#000000" fill-rule="nonzero" fill-opacity="1" /><path clip-path="url(#clip640)" d="M1654.1 1432.33 L1654.1 1439.3 Q1650.94 1437.55 1647.74 1436.7 Q1644.58 1435.81 1641.34 1435.81 Q1634.09 1435.81 1630.08 1440.43 Q1626.07 1445.01 1626.07 1453.31 Q1626.07 1461.62 1630.08 1466.23 Q1634.09 1470.81 1641.34 1470.81 Q1644.58 1470.81 1647.74 1469.96 Q1650.94 1469.07 1654.1 1467.33 L1654.1 1474.21 Q1650.98 1475.67 1647.62 1476.4 Q1644.3 1477.13 1640.53 1477.13 Q1630.28 1477.13 1624.24 1470.69 Q1618.21 1464.25 1618.21 1453.31 Q1618.21 1442.21 1624.28 1435.85 Q1630.4 1429.49 1641.01 1429.49 Q1644.46 1429.49 1647.74 1430.22 Q1651.02 1430.91 1654.1 1432.33 Z" fill="#000000" fill-rule="nonzero" fill-opacity="1" /><path clip-path="url(#clip640)" d="M1418.92 1433.59 L1418.92 1409.04 L1426.38 1409.04 L1426.38 1472.07 L1418.92 1472.07 L1418.92 1465.27 Q1416.57 1469.32 1412.97 1471.3 Q1409.4 1473.25 1404.38 1473.25 Q1396.16 1473.25 1390.97 1466.68 Q1385.83 1460.12 1385.83 1449.43 Q1385.83 1438.73 1390.97 1432.17 Q1396.16 1425.61 1404.38 1425.61 Q1409.4 1425.61 1412.97 1427.59 Q1416.57 1429.54 1418.92 1433.59 M1393.52 1449.43 Q1393.52 1457.65 1396.89 1462.35 Q1400.29 1467.01 1406.2 1467.01 Q1412.12 1467.01 1415.52 1462.35 Q1418.92 1457.65 1418.92 1449.43 Q1418.92 1441.2 1415.52 1436.54 Q1412.12 1431.85 1406.2 1431.85 Q1400.29 1431.85 1396.89 1436.54 Q1393.52 1441.2 1393.52 1449.43 Z" fill="#000000" fill-rule="nonzero" fill-opacity="1" /><path clip-path="url(#clip640)" d="M2007.39 198.898 L2279.52 198.898 L2279.52 95.2176 L2007.39 95.2176  Z" fill="#ffffff" fill-rule="evenodd" fill-opacity="1"/>
<polyline clip-path="url(#clip640)" style="stroke:#000000; stroke-linecap:round; stroke-linejoin:round; stroke-width:4; stroke-opacity:1; fill:none" points="2007.39,198.898 2279.52,198.898 2279.52,95.2176 2007.39,95.2176 2007.39,198.898 "/>
<circle clip-path="url(#clip640)" cx="2105.04" cy="147.058" r="20.48" fill="#808080" fill-rule="evenodd" fill-opacity="1" stroke="#000000" stroke-opacity="1" stroke-width="4.55111"/>
<path clip-path="url(#clip640)" d="M2216.52 166.745 Q2214.72 171.375 2213.01 172.787 Q2211.29 174.199 2208.42 174.199 L2205.02 174.199 L2205.02 170.634 L2207.52 170.634 Q2209.28 170.634 2210.25 169.8 Q2211.22 168.967 2212.4 165.865 L2213.17 163.921 L2202.68 138.412 L2207.2 138.412 L2215.3 158.689 L2223.4 138.412 L2227.91 138.412 L2216.52 166.745 Z" fill="#000000" fill-rule="nonzero" fill-opacity="1" /><path clip-path="url(#clip640)" d="M2235.2 160.402 L2242.84 160.402 L2242.84 134.037 L2234.53 135.703 L2234.53 131.444 L2242.8 129.778 L2247.47 129.778 L2247.47 160.402 L2255.11 160.402 L2255.11 164.338 L2235.2 164.338 L2235.2 160.402 Z" fill="#000000" fill-rule="nonzero" fill-opacity="1" /></svg>
