<?xml version="1.0" encoding="utf-8"?>
<svg xmlns="http://www.w3.org/2000/svg" xmlns:xlink="http://www.w3.org/1999/xlink" width="600" height="400" viewBox="0 0 2400 1600">
<defs>
  <clipPath id="clip890">
    <rect x="0" y="0" width="2400" height="1600"/>
  </clipPath>
</defs>
<path clip-path="url(#clip890)" d="M0 1600 L2400 1600 L2400 0 L0 0  Z" fill="#ffffff" fill-rule="evenodd" fill-opacity="1"/>
<defs>
  <clipPath id="clip891">
    <rect x="480" y="0" width="1681" height="1600"/>
  </clipPath>
</defs>
<path clip-path="url(#clip890)" d="M112.177 1486.45 L2352.76 1486.45 L2352.76 47.2441 L112.177 47.2441  Z" fill="#ffffff" fill-rule="evenodd" fill-opacity="1"/>
<defs>
  <clipPath id="clip892">
    <rect x="112" y="47" width="2242" height="1440"/>
  </clipPath>
</defs>
<polyline clip-path="url(#clip892)" style="stroke:#000000; stroke-linecap:round; stroke-linejoin:round; stroke-width:2; stroke-opacity:0.1; fill:none" points="416.326,1486.45 416.326,47.2441 "/>
<polyline clip-path="url(#clip892)" style="stroke:#000000; stroke-linecap:round; stroke-linejoin:round; stroke-width:2; stroke-opacity:0.1; fill:none" points="969.312,1486.45 969.312,47.2441 "/>
<polyline clip-path="url(#clip892)" style="stroke:#000000; stroke-linecap:round; stroke-linejoin:round; stroke-width:2; stroke-opacity:0.1; fill:none" points="1522.3,1486.45 1522.3,47.2441 "/>
<polyline clip-path="url(#clip892)" style="stroke:#000000; stroke-linecap:round; stroke-linejoin:round; stroke-width:2; stroke-opacity:0.1; fill:none" points="2075.28,1486.45 2075.28,47.2441 "/>
<polyline clip-path="url(#clip892)" style="stroke:#000000; stroke-linecap:round; stroke-linejoin:round; stroke-width:2; stroke-opacity:0.1; fill:none" points="112.177,1277.81 2352.76,1277.81 "/>
<polyline clip-path="url(#clip892)" style="stroke:#000000; stroke-linecap:round; stroke-linejoin:round; stroke-width:2; stroke-opacity:0.1; fill:none" points="112.177,1047.21 2352.76,1047.21 "/>
<polyline clip-path="url(#clip892)" style="stroke:#000000; stroke-linecap:round; stroke-linejoin:round; stroke-width:2; stroke-opacity:0.1; fill:none" points="112.177,816.616 2352.76,816.616 "/>
<polyline clip-path="url(#clip892)" style="stroke:#000000; stroke-linecap:round; stroke-linejoin:round; stroke-width:2; stroke-opacity:0.1; fill:none" points="112.177,586.017 2352.76,586.017 "/>
<polyline clip-path="url(#clip892)" style="stroke:#000000; stroke-linecap:round; stroke-linejoin:round; stroke-width:2; stroke-opacity:0.1; fill:none" points="112.177,355.418 2352.76,355.418 "/>
<polyline clip-path="url(#clip892)" style="stroke:#000000; stroke-linecap:round; stroke-linejoin:round; stroke-width:2; stroke-opacity:0.1; fill:none" points="112.177,124.82 2352.76,124.82 "/>
<polyline clip-path="url(#clip890)" style="stroke:#000000; stroke-linecap:round; stroke-linejoin:round; stroke-width:4; stroke-opacity:1; fill:none" points="112.177,1486.45 2352.76,1486.45 "/>
<polyline clip-path="url(#clip890)" style="stroke:#000000; stroke-linecap:round; stroke-linejoin:round; stroke-width:4; stroke-opacity:1; fill:none" points="416.326,1486.45 416.326,1467.55 "/>
<polyline clip-path="url(#clip890)" style="stroke:#000000; stroke-linecap:round; stroke-linejoin:round; stroke-width:4; stroke-opacity:1; fill:none" points="969.312,1486.45 969.312,1467.55 "/>
<polyline clip-path="url(#clip890)" style="stroke:#000000; stroke-linecap:round; stroke-linejoin:round; stroke-width:4; stroke-opacity:1; fill:none" points="1522.3,1486.45 1522.3,1467.55 "/>
<polyline clip-path="url(#clip890)" style="stroke:#000000; stroke-linecap:round; stroke-linejoin:round; stroke-width:4; stroke-opacity:1; fill:none" points="2075.28,1486.45 2075.28,1467.55 "/>
<path clip-path="url(#clip890)" d="M362.854 1532.02 L392.53 1532.02 L392.53 1535.95 L362.854 1535.95 L362.854 1532.02 Z" fill="#000000" fill-rule="nonzero" fill-opacity="1" /><path clip-path="url(#clip890)" d="M403.432 1544.91 L411.071 1544.91 L411.071 1518.55 L402.761 1520.21 L402.761 1515.95 L411.025 1514.29 L415.701 1514.29 L415.701 1544.91 L423.34 1544.91 L423.34 1548.85 L403.432 1548.85 L403.432 1544.91 Z" fill="#000000" fill-rule="nonzero" fill-opacity="1" /><path clip-path="url(#clip890)" d="M432.784 1542.97 L437.668 1542.97 L437.668 1548.85 L432.784 1548.85 L432.784 1542.97 Z" fill="#000000" fill-rule="nonzero" fill-opacity="1" /><path clip-path="url(#clip890)" d="M457.853 1517.37 Q454.242 1517.37 452.414 1520.93 Q450.608 1524.47 450.608 1531.6 Q450.608 1538.71 452.414 1542.27 Q454.242 1545.82 457.853 1545.82 Q461.488 1545.82 463.293 1542.27 Q465.122 1538.71 465.122 1531.6 Q465.122 1524.47 463.293 1520.93 Q461.488 1517.37 457.853 1517.37 M457.853 1513.66 Q463.664 1513.66 466.719 1518.27 Q469.798 1522.85 469.798 1531.6 Q469.798 1540.33 466.719 1544.94 Q463.664 1549.52 457.853 1549.52 Q452.043 1549.52 448.965 1544.94 Q445.909 1540.33 445.909 1531.6 Q445.909 1522.85 448.965 1518.27 Q452.043 1513.66 457.853 1513.66 Z" fill="#000000" fill-rule="nonzero" fill-opacity="1" /><path clip-path="url(#clip890)" d="M916.338 1532.02 L946.014 1532.02 L946.014 1535.95 L916.338 1535.95 L916.338 1532.02 Z" fill="#000000" fill-rule="nonzero" fill-opacity="1" /><path clip-path="url(#clip890)" d="M966.106 1517.37 Q962.495 1517.37 960.666 1520.93 Q958.861 1524.47 958.861 1531.6 Q958.861 1538.71 960.666 1542.27 Q962.495 1545.82 966.106 1545.82 Q969.74 1545.82 971.546 1542.27 Q973.375 1538.71 973.375 1531.6 Q973.375 1524.47 971.546 1520.93 Q969.74 1517.37 966.106 1517.37 M966.106 1513.66 Q971.916 1513.66 974.972 1518.27 Q978.05 1522.85 978.05 1531.6 Q978.05 1540.33 974.972 1544.94 Q971.916 1549.52 966.106 1549.52 Q960.296 1549.52 957.217 1544.94 Q954.162 1540.33 954.162 1531.6 Q954.162 1522.85 957.217 1518.27 Q960.296 1513.66 966.106 1513.66 Z" fill="#000000" fill-rule="nonzero" fill-opacity="1" /><path clip-path="url(#clip890)" d="M986.268 1542.97 L991.152 1542.97 L991.152 1548.85 L986.268 1548.85 L986.268 1542.97 Z" fill="#000000" fill-rule="nonzero" fill-opacity="1" /><path clip-path="url(#clip890)" d="M1001.38 1514.29 L1019.74 1514.29 L1019.74 1518.22 L1005.67 1518.22 L1005.67 1526.7 Q1006.68 1526.35 1007.7 1526.19 Q1008.72 1526 1009.74 1526 Q1015.53 1526 1018.91 1529.17 Q1022.29 1532.34 1022.29 1537.76 Q1022.29 1543.34 1018.81 1546.44 Q1015.34 1549.52 1009.02 1549.52 Q1006.85 1549.52 1004.58 1549.15 Q1002.33 1548.78 999.925 1548.04 L999.925 1543.34 Q1002.01 1544.47 1004.23 1545.03 Q1006.45 1545.58 1008.93 1545.58 Q1012.93 1545.58 1015.27 1543.48 Q1017.61 1541.37 1017.61 1537.76 Q1017.61 1534.15 1015.27 1532.04 Q1012.93 1529.94 1008.93 1529.94 Q1007.05 1529.94 1005.18 1530.35 Q1003.33 1530.77 1001.38 1531.65 L1001.38 1514.29 Z" fill="#000000" fill-rule="nonzero" fill-opacity="1" /><path clip-path="url(#clip890)" d="M1499.68 1517.37 Q1496.07 1517.37 1494.24 1520.93 Q1492.44 1524.47 1492.44 1531.6 Q1492.44 1538.71 1494.24 1542.27 Q1496.07 1545.82 1499.68 1545.82 Q1503.32 1545.82 1505.12 1542.27 Q1506.95 1538.71 1506.95 1531.6 Q1506.95 1524.47 1505.12 1520.93 Q1503.32 1517.37 1499.68 1517.37 M1499.68 1513.66 Q1505.49 1513.66 1508.55 1518.27 Q1511.63 1522.85 1511.63 1531.6 Q1511.63 1540.33 1508.55 1544.94 Q1505.49 1549.52 1499.68 1549.52 Q1493.87 1549.52 1490.79 1544.94 Q1487.74 1540.33 1487.74 1531.6 Q1487.74 1522.85 1490.79 1518.27 Q1493.87 1513.66 1499.68 1513.66 Z" fill="#000000" fill-rule="nonzero" fill-opacity="1" /><path clip-path="url(#clip890)" d="M1519.84 1542.97 L1524.73 1542.97 L1524.73 1548.85 L1519.84 1548.85 L1519.84 1542.97 Z" fill="#000000" fill-rule="nonzero" fill-opacity="1" /><path clip-path="url(#clip890)" d="M1544.91 1517.37 Q1541.3 1517.37 1539.47 1520.93 Q1537.67 1524.47 1537.67 1531.6 Q1537.67 1538.71 1539.47 1542.27 Q1541.3 1545.82 1544.91 1545.82 Q1548.55 1545.82 1550.35 1542.27 Q1552.18 1538.71 1552.18 1531.6 Q1552.18 1524.47 1550.35 1520.93 Q1548.55 1517.37 1544.91 1517.37 M1544.91 1513.66 Q1550.72 1513.66 1553.78 1518.27 Q1556.86 1522.85 1556.86 1531.6 Q1556.86 1540.33 1553.78 1544.94 Q1550.72 1549.52 1544.91 1549.52 Q1539.1 1549.52 1536.03 1544.94 Q1532.97 1540.33 1532.97 1531.6 Q1532.97 1522.85 1536.03 1518.27 Q1539.1 1513.66 1544.91 1513.66 Z" fill="#000000" fill-rule="nonzero" fill-opacity="1" /><path clip-path="url(#clip890)" d="M2053.17 1517.37 Q2049.56 1517.37 2047.73 1520.93 Q2045.92 1524.47 2045.92 1531.6 Q2045.92 1538.71 2047.73 1542.27 Q2049.56 1545.82 2053.17 1545.82 Q2056.8 1545.82 2058.61 1542.27 Q2060.44 1538.71 2060.44 1531.6 Q2060.44 1524.47 2058.61 1520.93 Q2056.8 1517.37 2053.17 1517.37 M2053.17 1513.66 Q2058.98 1513.66 2062.03 1518.27 Q2065.11 1522.85 2065.11 1531.6 Q2065.11 1540.33 2062.03 1544.94 Q2058.98 1549.52 2053.17 1549.52 Q2047.36 1549.52 2044.28 1544.94 Q2041.22 1540.33 2041.22 1531.6 Q2041.22 1522.85 2044.28 1518.27 Q2047.36 1513.66 2053.17 1513.66 Z" fill="#000000" fill-rule="nonzero" fill-opacity="1" /><path clip-path="url(#clip890)" d="M2073.33 1542.97 L2078.21 1542.97 L2078.21 1548.85 L2073.33 1548.85 L2073.33 1542.97 Z" fill="#000000" fill-rule="nonzero" fill-opacity="1" /><path clip-path="url(#clip890)" d="M2088.44 1514.29 L2106.8 1514.29 L2106.8 1518.22 L2092.73 1518.22 L2092.73 1526.7 Q2093.75 1526.35 2094.76 1526.19 Q2095.78 1526 2096.8 1526 Q2102.59 1526 2105.97 1529.17 Q2109.35 1532.34 2109.35 1537.76 Q2109.35 1543.34 2105.87 1546.44 Q2102.4 1549.52 2096.08 1549.52 Q2093.91 1549.52 2091.64 1549.15 Q2089.39 1548.78 2086.99 1548.04 L2086.99 1543.34 Q2089.07 1544.47 2091.29 1545.03 Q2093.51 1545.58 2095.99 1545.58 Q2100 1545.58 2102.33 1543.48 Q2104.67 1541.37 2104.67 1537.76 Q2104.67 1534.15 2102.33 1532.04 Q2100 1529.94 2095.99 1529.94 Q2094.12 1529.94 2092.24 1530.35 Q2090.39 1530.77 2088.44 1531.65 L2088.44 1514.29 Z" fill="#000000" fill-rule="nonzero" fill-opacity="1" /><polyline clip-path="url(#clip890)" style="stroke:#000000; stroke-linecap:round; stroke-linejoin:round; stroke-width:4; stroke-opacity:1; fill:none" points="112.177,1486.45 112.177,47.2441 "/>
<polyline clip-path="url(#clip890)" style="stroke:#000000; stroke-linecap:round; stroke-linejoin:round; stroke-width:4; stroke-opacity:1; fill:none" points="112.177,1277.81 131.075,1277.81 "/>
<polyline clip-path="url(#clip890)" style="stroke:#000000; stroke-linecap:round; stroke-linejoin:round; stroke-width:4; stroke-opacity:1; fill:none" points="112.177,1047.21 131.075,1047.21 "/>
<polyline clip-path="url(#clip890)" style="stroke:#000000; stroke-linecap:round; stroke-linejoin:round; stroke-width:4; stroke-opacity:1; fill:none" points="112.177,816.616 131.075,816.616 "/>
<polyline clip-path="url(#clip890)" style="stroke:#000000; stroke-linecap:round; stroke-linejoin:round; stroke-width:4; stroke-opacity:1; fill:none" points="112.177,586.017 131.075,586.017 "/>
<polyline clip-path="url(#clip890)" style="stroke:#000000; stroke-linecap:round; stroke-linejoin:round; stroke-width:4; stroke-opacity:1; fill:none" points="112.177,355.418 131.075,355.418 "/>
<polyline clip-path="url(#clip890)" style="stroke:#000000; stroke-linecap:round; stroke-linejoin:round; stroke-width:4; stroke-opacity:1; fill:none" points="112.177,124.82 131.075,124.82 "/>
<path clip-path="url(#clip890)" d="M56.2699 1291.16 L63.9087 1291.16 L63.9087 1264.79 L55.5986 1266.46 L55.5986 1262.2 L63.8624 1260.53 L68.5383 1260.53 L68.5383 1291.16 L76.1772 1291.16 L76.1772 1295.09 L56.2699 1295.09 L56.2699 1291.16 Z" fill="#000000" fill-rule="nonzero" fill-opacity="1" /><path clip-path="url(#clip890)" d="M59.8578 1060.56 L76.1772 1060.56 L76.1772 1064.49 L54.2328 1064.49 L54.2328 1060.56 Q56.8949 1057.8 61.4782 1053.18 Q66.0846 1048.52 67.2652 1047.18 Q69.5105 1044.66 70.3902 1042.92 Q71.2929 1041.16 71.2929 1039.47 Q71.2929 1036.72 69.3485 1034.98 Q67.4272 1033.24 64.3254 1033.24 Q62.1263 1033.24 59.6726 1034.01 Q57.2421 1034.77 54.4643 1036.32 L54.4643 1031.6 Q57.2884 1030.47 59.7421 1029.89 Q62.1958 1029.31 64.2328 1029.31 Q69.6031 1029.31 72.7976 1031.99 Q75.992 1034.68 75.992 1039.17 Q75.992 1041.3 75.1818 1043.22 Q74.3948 1045.12 72.2883 1047.71 Q71.7096 1048.38 68.6078 1051.6 Q65.5059 1054.8 59.8578 1060.56 Z" fill="#000000" fill-rule="nonzero" fill-opacity="1" /><path clip-path="url(#clip890)" d="M69.0476 815.262 Q72.404 815.979 74.279 818.248 Q76.1772 820.516 76.1772 823.849 Q76.1772 828.965 72.6587 831.766 Q69.1402 834.567 62.6587 834.567 Q60.4828 834.567 58.168 834.127 Q55.8764 833.711 53.4227 832.854 L53.4227 828.34 Q55.3671 829.474 57.6819 830.053 Q59.9967 830.632 62.5198 830.632 Q66.918 830.632 69.2096 828.896 Q71.5244 827.16 71.5244 823.849 Q71.5244 820.794 69.3717 819.081 Q67.242 817.345 63.4226 817.345 L59.3949 817.345 L59.3949 813.502 L63.6078 813.502 Q67.0569 813.502 68.8855 812.137 Q70.7142 810.748 70.7142 808.155 Q70.7142 805.493 68.8161 804.081 Q66.9411 802.646 63.4226 802.646 Q61.5013 802.646 59.3023 803.063 Q57.1032 803.479 54.4643 804.359 L54.4643 800.192 Q57.1264 799.451 59.4412 799.081 Q61.7791 798.711 63.8393 798.711 Q69.1633 798.711 72.2652 801.141 Q75.367 803.549 75.367 807.669 Q75.367 810.539 73.7235 812.53 Q72.08 814.498 69.0476 815.262 Z" fill="#000000" fill-rule="nonzero" fill-opacity="1" /><path clip-path="url(#clip890)" d="M66.5939 572.811 L54.7884 591.26 L66.5939 591.26 L66.5939 572.811 M65.367 568.737 L71.2466 568.737 L71.2466 591.26 L76.1772 591.26 L76.1772 595.149 L71.2466 595.149 L71.2466 603.297 L66.5939 603.297 L66.5939 595.149 L50.9921 595.149 L50.9921 590.635 L65.367 568.737 Z" fill="#000000" fill-rule="nonzero" fill-opacity="1" /><path clip-path="url(#clip890)" d="M55.2745 338.138 L73.6309 338.138 L73.6309 342.073 L59.5569 342.073 L59.5569 350.546 Q60.5754 350.198 61.5939 350.036 Q62.6124 349.851 63.6309 349.851 Q69.418 349.851 72.7976 353.022 Q76.1772 356.194 76.1772 361.61 Q76.1772 367.189 72.705 370.291 Q69.2328 373.37 62.9134 373.37 Q60.7374 373.37 58.4689 372.999 Q56.2236 372.629 53.8162 371.888 L53.8162 367.189 Q55.8995 368.323 58.1217 368.879 Q60.3439 369.434 62.8208 369.434 Q66.8254 369.434 69.1633 367.328 Q71.5013 365.221 71.5013 361.61 Q71.5013 357.999 69.1633 355.893 Q66.8254 353.786 62.8208 353.786 Q60.9458 353.786 59.0708 354.203 Q57.2189 354.62 55.2745 355.499 L55.2745 338.138 Z" fill="#000000" fill-rule="nonzero" fill-opacity="1" /><path clip-path="url(#clip890)" d="M64.6495 122.956 Q61.5013 122.956 59.6495 125.109 Q57.8208 127.262 57.8208 131.012 Q57.8208 134.739 59.6495 136.914 Q61.5013 139.067 64.6495 139.067 Q67.7976 139.067 69.6263 136.914 Q71.4781 134.739 71.4781 131.012 Q71.4781 127.262 69.6263 125.109 Q67.7976 122.956 64.6495 122.956 M73.9318 108.303 L73.9318 112.563 Q72.1726 111.729 70.367 111.29 Q68.5846 110.85 66.8254 110.85 Q62.1958 110.85 59.7421 113.975 Q57.3115 117.1 56.9643 123.419 Q58.33 121.405 60.3902 120.34 Q62.4504 119.252 64.9272 119.252 Q70.1355 119.252 73.1448 122.424 Q76.1772 125.572 76.1772 131.012 Q76.1772 136.336 73.029 139.553 Q69.8809 142.771 64.6495 142.771 Q58.6541 142.771 55.4828 138.188 Q52.3116 133.581 52.3116 124.854 Q52.3116 116.66 56.2004 111.799 Q60.0893 106.915 66.6402 106.915 Q68.3994 106.915 70.1818 107.262 Q71.9874 107.609 73.9318 108.303 Z" fill="#000000" fill-rule="nonzero" fill-opacity="1" /><circle clip-path="url(#clip892)" cx="2289.34" cy="1356.91" r="14.4" fill="#808080" fill-rule="evenodd" fill-opacity="1" stroke="#000000" stroke-opacity="1" stroke-width="3.2"/>
<circle clip-path="url(#clip892)" cx="175.59" cy="87.9763" r="14.4" fill="#808080" fill-rule="evenodd" fill-opacity="1" stroke="#000000" stroke-opacity="1" stroke-width="3.2"/>
<circle clip-path="url(#clip892)" cx="1550.54" cy="1445.72" r="14.4" fill="#808080" fill-rule="evenodd" fill-opacity="1" stroke="#000000" stroke-opacity="1" stroke-width="3.2"/>
<circle clip-path="url(#clip892)" cx="1437.17" cy="1423.34" r="14.4" fill="#808080" fill-rule="evenodd" fill-opacity="1" stroke="#000000" stroke-opacity="1" stroke-width="3.2"/>
<path clip-path="url(#clip890)" d="M2293.64 1364.35 Q2284.6 1364.35 2281.12 1366.41 Q2277.64 1368.48 2277.64 1373.46 Q2277.64 1377.43 2280.23 1379.78 Q2282.86 1382.09 2287.36 1382.09 Q2293.56 1382.09 2297.28 1377.71 Q2301.05 1373.3 2301.05 1366.01 L2301.05 1364.35 L2293.64 1364.35 M2308.5 1361.27 L2308.5 1387.15 L2301.05 1387.15 L2301.05 1380.27 Q2298.5 1384.4 2294.69 1386.38 Q2290.88 1388.33 2285.37 1388.33 Q2278.41 1388.33 2274.27 1384.44 Q2270.18 1380.51 2270.18 1373.95 Q2270.18 1366.29 2275.29 1362.4 Q2280.43 1358.51 2290.6 1358.51 L2301.05 1358.51 L2301.05 1357.78 Q2301.05 1352.64 2297.65 1349.84 Q2294.29 1347.01 2288.17 1347.01 Q2284.28 1347.01 2280.59 1347.94 Q2276.91 1348.87 2273.5 1350.73 L2273.5 1343.85 Q2277.6 1342.27 2281.44 1341.5 Q2285.29 1340.69 2288.94 1340.69 Q2298.78 1340.69 2303.64 1345.79 Q2308.5 1350.9 2308.5 1361.27 Z" fill="#000000" fill-rule="nonzero" fill-opacity="1" /><path clip-path="url(#clip890)" d="M188.148 95.5717 Q188.148 87.3484 184.745 82.6898 Q181.383 77.9908 175.468 77.9908 Q169.554 77.9908 166.151 82.6898 Q162.789 87.3484 162.789 95.5717 Q162.789 103.795 166.151 108.494 Q169.554 113.153 175.468 113.153 Q181.383 113.153 184.745 108.494 Q188.148 103.795 188.148 95.5717 M162.789 79.7327 Q165.138 75.6818 168.703 73.7373 Q172.309 71.7524 177.291 71.7524 Q185.555 71.7524 190.7 78.3149 Q195.885 84.8773 195.885 95.5717 Q195.885 106.266 190.7 112.829 Q185.555 119.391 177.291 119.391 Q172.309 119.391 168.703 117.447 Q165.138 115.462 162.789 111.411 L162.789 118.216 L155.295 118.216 L155.295 55.1842 L162.789 55.1842 L162.789 79.7327 Z" fill="#000000" fill-rule="nonzero" fill-opacity="1" /><path clip-path="url(#clip890)" d="M1568.49 1432.33 L1568.49 1439.3 Q1565.33 1437.55 1562.13 1436.7 Q1558.97 1435.81 1555.73 1435.81 Q1548.48 1435.81 1544.47 1440.43 Q1540.46 1445.01 1540.46 1453.31 Q1540.46 1461.62 1544.47 1466.23 Q1548.48 1470.81 1555.73 1470.81 Q1558.97 1470.81 1562.13 1469.96 Q1565.33 1469.07 1568.49 1467.33 L1568.49 1474.21 Q1565.37 1475.67 1562.01 1476.4 Q1558.68 1477.13 1554.92 1477.13 Q1544.67 1477.13 1538.63 1470.69 Q1532.6 1464.25 1532.6 1453.31 Q1532.6 1442.21 1538.67 1435.85 Q1544.79 1429.49 1555.4 1429.49 Q1558.85 1429.49 1562.13 1430.22 Q1565.41 1430.91 1568.49 1432.33 Z" fill="#000000" fill-rule="nonzero" fill-opacity="1" /><path clip-path="url(#clip890)" d="M1449.99 1415.1 L1449.99 1390.55 L1457.44 1390.55 L1457.44 1453.58 L1449.99 1453.58 L1449.99 1446.77 Q1447.64 1450.82 1444.03 1452.81 Q1440.47 1454.75 1435.44 1454.75 Q1427.22 1454.75 1422.04 1448.19 Q1416.89 1441.63 1416.89 1430.93 Q1416.89 1420.24 1422.04 1413.68 Q1427.22 1407.12 1435.44 1407.12 Q1440.47 1407.12 1444.03 1409.1 Q1447.64 1411.04 1449.99 1415.1 M1424.59 1430.93 Q1424.59 1439.16 1427.95 1443.86 Q1431.35 1448.52 1437.27 1448.52 Q1443.18 1448.52 1446.58 1443.86 Q1449.99 1439.16 1449.99 1430.93 Q1449.99 1422.71 1446.58 1418.05 Q1443.18 1413.35 1437.27 1413.35 Q1431.35 1413.35 1427.95 1418.05 Q1424.59 1422.71 1424.59 1430.93 Z" fill="#000000" fill-rule="nonzero" fill-opacity="1" /><path clip-path="url(#clip890)" d="M2001.58 198.898 L2278.07 198.898 L2278.07 95.2176 L2001.58 95.2176  Z" fill="#ffffff" fill-rule="evenodd" fill-opacity="1"/>
<polyline clip-path="url(#clip890)" style="stroke:#000000; stroke-linecap:round; stroke-linejoin:round; stroke-width:4; stroke-opacity:1; fill:none" points="2001.58,198.898 2278.07,198.898 2278.07,95.2176 2001.58,95.2176 2001.58,198.898 "/>
<circle clip-path="url(#clip890)" cx="2101.16" cy="147.058" r="20.48" fill="#808080" fill-rule="evenodd" fill-opacity="1" stroke="#000000" stroke-opacity="1" stroke-width="4.55111"/>
<path clip-path="url(#clip890)" d="M2214.59 166.745 Q2212.78 171.375 2211.07 172.787 Q2209.36 174.199 2206.49 174.199 L2203.08 174.199 L2203.08 170.634 L2205.58 170.634 Q2207.34 170.634 2208.31 169.8 Q2209.29 168.967 2210.47 165.865 L2211.23 163.921 L2200.74 138.412 L2205.26 138.412 L2213.36 158.689 L2221.46 138.412 L2225.98 138.412 L2214.59 166.745 Z" fill="#000000" fill-rule="nonzero" fill-opacity="1" /><path clip-path="url(#clip890)" d="M2233.27 160.402 L2240.91 160.402 L2240.91 134.037 L2232.6 135.703 L2232.6 131.444 L2240.86 129.778 L2245.54 129.778 L2245.54 160.402 L2253.17 160.402 L2253.17 164.338 L2233.27 164.338 L2233.27 160.402 Z" fill="#000000" fill-rule="nonzero" fill-opacity="1" /></svg>
