<?xml version="1.0" encoding="utf-8"?>
<svg xmlns="http://www.w3.org/2000/svg" xmlns:xlink="http://www.w3.org/1999/xlink" width="600" height="400" viewBox="0 0 2400 1600">
<defs>
  <clipPath id="clip830">
    <rect x="0" y="0" width="2400" height="1600"/>
  </clipPath>
</defs>
<path clip-path="url(#clip830)" d="M0 1600 L2400 1600 L2400 0 L0 0  Z" fill="#ffffff" fill-rule="evenodd" fill-opacity="1"/>
<defs>
  <clipPath id="clip831">
    <rect x="480" y="0" width="1681" height="1600"/>
  </clipPath>
</defs>
<path clip-path="url(#clip830)" d="M186.274 1486.45 L2352.76 1486.45 L2352.76 47.2441 L186.274 47.2441  Z" fill="#ffffff" fill-rule="evenodd" fill-opacity="1"/>
<defs>
  <clipPath id="clip832">
    <rect x="186" y="47" width="2167" height="1440"/>
  </clipPath>
</defs>
<polyline clip-path="url(#clip832)" style="stroke:#000000; stroke-linecap:round; stroke-linejoin:round; stroke-width:2; stroke-opacity:0.1; fill:none" points="318.17,1486.45 318.17,47.2441 "/>
<polyline clip-path="url(#clip832)" style="stroke:#000000; stroke-linecap:round; stroke-linejoin:round; stroke-width:2; stroke-opacity:0.1; fill:none" points="835.77,1486.45 835.77,47.2441 "/>
<polyline clip-path="url(#clip832)" style="stroke:#000000; stroke-linecap:round; stroke-linejoin:round; stroke-width:2; stroke-opacity:0.1; fill:none" points="1353.37,1486.45 1353.37,47.2441 "/>
<polyline clip-path="url(#clip832)" style="stroke:#000000; stroke-linecap:round; stroke-linejoin:round; stroke-width:2; stroke-opacity:0.1; fill:none" points="1870.97,1486.45 1870.97,47.2441 "/>
<polyline clip-path="url(#clip832)" style="stroke:#000000; stroke-linecap:round; stroke-linejoin:round; stroke-width:2; stroke-opacity:0.1; fill:none" points="186.274,1454.75 2352.76,1454.75 "/>
<polyline clip-path="url(#clip832)" style="stroke:#000000; stroke-linecap:round; stroke-linejoin:round; stroke-width:2; stroke-opacity:0.1; fill:none" points="186.274,1138.53 2352.76,1138.53 "/>
<polyline clip-path="url(#clip832)" style="stroke:#000000; stroke-linecap:round; stroke-linejoin:round; stroke-width:2; stroke-opacity:0.1; fill:none" points="186.274,822.306 2352.76,822.306 "/>
<polyline clip-path="url(#clip832)" style="stroke:#000000; stroke-linecap:round; stroke-linejoin:round; stroke-width:2; stroke-opacity:0.1; fill:none" points="186.274,506.084 2352.76,506.084 "/>
<polyline clip-path="url(#clip832)" style="stroke:#000000; stroke-linecap:round; stroke-linejoin:round; stroke-width:2; stroke-opacity:0.1; fill:none" points="186.274,189.862 2352.76,189.862 "/>
<polyline clip-path="url(#clip830)" style="stroke:#000000; stroke-linecap:round; stroke-linejoin:round; stroke-width:4; stroke-opacity:1; fill:none" points="186.274,1486.45 2352.76,1486.45 "/>
<polyline clip-path="url(#clip830)" style="stroke:#000000; stroke-linecap:round; stroke-linejoin:round; stroke-width:4; stroke-opacity:1; fill:none" points="318.17,1486.45 318.17,1467.55 "/>
<polyline clip-path="url(#clip830)" style="stroke:#000000; stroke-linecap:round; stroke-linejoin:round; stroke-width:4; stroke-opacity:1; fill:none" points="835.77,1486.45 835.77,1467.55 "/>
<polyline clip-path="url(#clip830)" style="stroke:#000000; stroke-linecap:round; stroke-linejoin:round; stroke-width:4; stroke-opacity:1; fill:none" points="1353.37,1486.45 1353.37,1467.55 "/>
<polyline clip-path="url(#clip830)" style="stroke:#000000; stroke-linecap:round; stroke-linejoin:round; stroke-width:4; stroke-opacity:1; fill:none" points="1870.97,1486.45 1870.97,1467.55 "/>
<path clip-path="url(#clip830)" d="M264.455 1532.02 L294.131 1532.02 L294.131 1535.95 L264.455 1535.95 L264.455 1532.02 Z" fill="#000000" fill-rule="nonzero" fill-opacity="1" /><path clip-path="url(#clip830)" d="M314.223 1517.37 Q310.612 1517.37 308.784 1520.93 Q306.978 1524.47 306.978 1531.6 Q306.978 1538.71 308.784 1542.27 Q310.612 1545.82 314.223 1545.82 Q317.858 1545.82 319.663 1542.27 Q321.492 1538.71 321.492 1531.6 Q321.492 1524.47 319.663 1520.93 Q317.858 1517.37 314.223 1517.37 M314.223 1513.66 Q320.034 1513.66 323.089 1518.27 Q326.168 1522.85 326.168 1531.6 Q326.168 1540.33 323.089 1544.94 Q320.034 1549.52 314.223 1549.52 Q308.413 1549.52 305.335 1544.94 Q302.279 1540.33 302.279 1531.6 Q302.279 1522.85 305.335 1518.27 Q308.413 1513.66 314.223 1513.66 Z" fill="#000000" fill-rule="nonzero" fill-opacity="1" /><path clip-path="url(#clip830)" d="M334.385 1542.97 L339.27 1542.97 L339.27 1548.85 L334.385 1548.85 L334.385 1542.97 Z" fill="#000000" fill-rule="nonzero" fill-opacity="1" /><path clip-path="url(#clip830)" d="M362.302 1518.36 L350.496 1536.81 L362.302 1536.81 L362.302 1518.36 M361.075 1514.29 L366.955 1514.29 L366.955 1536.81 L371.885 1536.81 L371.885 1540.7 L366.955 1540.7 L366.955 1548.85 L362.302 1548.85 L362.302 1540.7 L346.7 1540.7 L346.7 1536.19 L361.075 1514.29 Z" fill="#000000" fill-rule="nonzero" fill-opacity="1" /><path clip-path="url(#clip830)" d="M783.096 1532.02 L812.772 1532.02 L812.772 1535.95 L783.096 1535.95 L783.096 1532.02 Z" fill="#000000" fill-rule="nonzero" fill-opacity="1" /><path clip-path="url(#clip830)" d="M832.865 1517.37 Q829.254 1517.37 827.425 1520.93 Q825.619 1524.47 825.619 1531.6 Q825.619 1538.71 827.425 1542.27 Q829.254 1545.82 832.865 1545.82 Q836.499 1545.82 838.304 1542.27 Q840.133 1538.71 840.133 1531.6 Q840.133 1524.47 838.304 1520.93 Q836.499 1517.37 832.865 1517.37 M832.865 1513.66 Q838.675 1513.66 841.73 1518.27 Q844.809 1522.85 844.809 1531.6 Q844.809 1540.33 841.73 1544.94 Q838.675 1549.52 832.865 1549.52 Q827.054 1549.52 823.976 1544.94 Q820.92 1540.33 820.92 1531.6 Q820.92 1522.85 823.976 1518.27 Q827.054 1513.66 832.865 1513.66 Z" fill="#000000" fill-rule="nonzero" fill-opacity="1" /><path clip-path="url(#clip830)" d="M853.027 1542.97 L857.911 1542.97 L857.911 1548.85 L853.027 1548.85 L853.027 1542.97 Z" fill="#000000" fill-rule="nonzero" fill-opacity="1" /><path clip-path="url(#clip830)" d="M872.124 1544.91 L888.443 1544.91 L888.443 1548.85 L866.499 1548.85 L866.499 1544.91 Q869.161 1542.16 873.744 1537.53 Q878.351 1532.88 879.531 1531.53 Q881.776 1529.01 882.656 1527.27 Q883.559 1525.51 883.559 1523.82 Q883.559 1521.07 881.614 1519.33 Q879.693 1517.6 876.591 1517.6 Q874.392 1517.6 871.939 1518.36 Q869.508 1519.13 866.73 1520.68 L866.73 1515.95 Q869.554 1514.82 872.008 1514.24 Q874.462 1513.66 876.499 1513.66 Q881.869 1513.66 885.063 1516.35 Q888.258 1519.03 888.258 1523.52 Q888.258 1525.65 887.448 1527.57 Q886.661 1529.47 884.554 1532.07 Q883.975 1532.74 880.874 1535.95 Q877.772 1539.15 872.124 1544.91 Z" fill="#000000" fill-rule="nonzero" fill-opacity="1" /><path clip-path="url(#clip830)" d="M1330.75 1517.37 Q1327.14 1517.37 1325.31 1520.93 Q1323.51 1524.47 1323.51 1531.6 Q1323.51 1538.71 1325.31 1542.27 Q1327.14 1545.82 1330.75 1545.82 Q1334.39 1545.82 1336.19 1542.27 Q1338.02 1538.71 1338.02 1531.6 Q1338.02 1524.47 1336.19 1520.93 Q1334.39 1517.37 1330.75 1517.37 M1330.75 1513.66 Q1336.56 1513.66 1339.62 1518.27 Q1342.7 1522.85 1342.7 1531.6 Q1342.7 1540.33 1339.62 1544.94 Q1336.56 1549.52 1330.75 1549.52 Q1324.94 1549.52 1321.86 1544.94 Q1318.81 1540.33 1318.81 1531.6 Q1318.81 1522.85 1321.86 1518.27 Q1324.94 1513.66 1330.75 1513.66 Z" fill="#000000" fill-rule="nonzero" fill-opacity="1" /><path clip-path="url(#clip830)" d="M1350.92 1542.97 L1355.8 1542.97 L1355.8 1548.85 L1350.92 1548.85 L1350.92 1542.97 Z" fill="#000000" fill-rule="nonzero" fill-opacity="1" /><path clip-path="url(#clip830)" d="M1375.98 1517.37 Q1372.37 1517.37 1370.55 1520.93 Q1368.74 1524.47 1368.74 1531.6 Q1368.74 1538.71 1370.55 1542.27 Q1372.37 1545.82 1375.98 1545.82 Q1379.62 1545.82 1381.42 1542.27 Q1383.25 1538.71 1383.25 1531.6 Q1383.25 1524.47 1381.42 1520.93 Q1379.62 1517.37 1375.98 1517.37 M1375.98 1513.66 Q1381.8 1513.66 1384.85 1518.27 Q1387.93 1522.85 1387.93 1531.6 Q1387.93 1540.33 1384.85 1544.94 Q1381.8 1549.52 1375.98 1549.52 Q1370.17 1549.52 1367.1 1544.94 Q1364.04 1540.33 1364.04 1531.6 Q1364.04 1522.85 1367.1 1518.27 Q1370.17 1513.66 1375.98 1513.66 Z" fill="#000000" fill-rule="nonzero" fill-opacity="1" /><path clip-path="url(#clip830)" d="M1849.15 1517.37 Q1845.54 1517.37 1843.71 1520.93 Q1841.91 1524.47 1841.91 1531.6 Q1841.91 1538.71 1843.71 1542.27 Q1845.54 1545.82 1849.15 1545.82 Q1852.79 1545.82 1854.59 1542.27 Q1856.42 1538.71 1856.42 1531.6 Q1856.42 1524.47 1854.59 1520.93 Q1852.79 1517.37 1849.15 1517.37 M1849.15 1513.66 Q1854.96 1513.66 1858.02 1518.27 Q1861.1 1522.85 1861.1 1531.6 Q1861.1 1540.33 1858.02 1544.94 Q1854.96 1549.52 1849.15 1549.52 Q1843.34 1549.52 1840.26 1544.94 Q1837.21 1540.33 1837.21 1531.6 Q1837.21 1522.85 1840.26 1518.27 Q1843.34 1513.66 1849.15 1513.66 Z" fill="#000000" fill-rule="nonzero" fill-opacity="1" /><path clip-path="url(#clip830)" d="M1869.31 1542.97 L1874.2 1542.97 L1874.2 1548.85 L1869.31 1548.85 L1869.31 1542.97 Z" fill="#000000" fill-rule="nonzero" fill-opacity="1" /><path clip-path="url(#clip830)" d="M1888.41 1544.91 L1904.73 1544.91 L1904.73 1548.85 L1882.79 1548.85 L1882.79 1544.91 Q1885.45 1542.16 1890.03 1537.53 Q1894.64 1532.88 1895.82 1531.53 Q1898.06 1529.01 1898.94 1527.27 Q1899.85 1525.51 1899.85 1523.82 Q1899.85 1521.07 1897.9 1519.33 Q1895.98 1517.6 1892.88 1517.6 Q1890.68 1517.6 1888.23 1518.36 Q1885.8 1519.13 1883.02 1520.68 L1883.02 1515.95 Q1885.84 1514.82 1888.3 1514.24 Q1890.75 1513.66 1892.79 1513.66 Q1898.16 1513.66 1901.35 1516.35 Q1904.55 1519.03 1904.55 1523.52 Q1904.55 1525.65 1903.73 1527.57 Q1902.95 1529.47 1900.84 1532.07 Q1900.26 1532.74 1897.16 1535.95 Q1894.06 1539.15 1888.41 1544.91 Z" fill="#000000" fill-rule="nonzero" fill-opacity="1" /><polyline clip-path="url(#clip830)" style="stroke:#000000; stroke-linecap:round; stroke-linejoin:round; stroke-width:4; stroke-opacity:1; fill:none" points="186.274,1486.45 186.274,47.2441 "/>
<polyline clip-path="url(#clip830)" style="stroke:#000000; stroke-linecap:round; stroke-linejoin:round; stroke-width:4; stroke-opacity:1; fill:none" points="186.274,1454.75 205.172,1454.75 "/>
<polyline clip-path="url(#clip830)" style="stroke:#000000; stroke-linecap:round; stroke-linejoin:round; stroke-width:4; stroke-opacity:1; fill:none" points="186.274,1138.53 205.172,1138.53 "/>
<polyline clip-path="url(#clip830)" style="stroke:#000000; stroke-linecap:round; stroke-linejoin:round; stroke-width:4; stroke-opacity:1; fill:none" points="186.274,822.306 205.172,822.306 "/>
<polyline clip-path="url(#clip830)" style="stroke:#000000; stroke-linecap:round; stroke-linejoin:round; stroke-width:4; stroke-opacity:1; fill:none" points="186.274,506.084 205.172,506.084 "/>
<polyline clip-path="url(#clip830)" style="stroke:#000000; stroke-linecap:round; stroke-linejoin:round; stroke-width:4; stroke-opacity:1; fill:none" points="186.274,189.862 205.172,189.862 "/>
<path clip-path="url(#clip830)" d="M62.9365 1440.55 Q59.3254 1440.55 57.4967 1444.11 Q55.6912 1447.66 55.6912 1454.78 Q55.6912 1461.89 57.4967 1465.46 Q59.3254 1469 62.9365 1469 Q66.5707 1469 68.3763 1465.46 Q70.205 1461.89 70.205 1454.78 Q70.205 1447.66 68.3763 1444.11 Q66.5707 1440.55 62.9365 1440.55 M62.9365 1436.85 Q68.7467 1436.85 71.8022 1441.45 Q74.8809 1446.03 74.8809 1454.78 Q74.8809 1463.51 71.8022 1468.12 Q68.7467 1472.7 62.9365 1472.7 Q57.1264 1472.7 54.0477 1468.12 Q50.9921 1463.51 50.9921 1454.78 Q50.9921 1446.03 54.0477 1441.45 Q57.1264 1436.85 62.9365 1436.85 Z" fill="#000000" fill-rule="nonzero" fill-opacity="1" /><path clip-path="url(#clip830)" d="M83.0984 1466.15 L87.9827 1466.15 L87.9827 1472.03 L83.0984 1472.03 L83.0984 1466.15 Z" fill="#000000" fill-rule="nonzero" fill-opacity="1" /><path clip-path="url(#clip830)" d="M108.168 1440.55 Q104.557 1440.55 102.728 1444.11 Q100.922 1447.66 100.922 1454.78 Q100.922 1461.89 102.728 1465.46 Q104.557 1469 108.168 1469 Q111.802 1469 113.608 1465.46 Q115.436 1461.89 115.436 1454.78 Q115.436 1447.66 113.608 1444.11 Q111.802 1440.55 108.168 1440.55 M108.168 1436.85 Q113.978 1436.85 117.033 1441.45 Q120.112 1446.03 120.112 1454.78 Q120.112 1463.51 117.033 1468.12 Q113.978 1472.7 108.168 1472.7 Q102.358 1472.7 99.2789 1468.12 Q96.2234 1463.51 96.2234 1454.78 Q96.2234 1446.03 99.2789 1441.45 Q102.358 1436.85 108.168 1436.85 Z" fill="#000000" fill-rule="nonzero" fill-opacity="1" /><path clip-path="url(#clip830)" d="M138.33 1440.55 Q134.719 1440.55 132.89 1444.11 Q131.084 1447.66 131.084 1454.78 Q131.084 1461.89 132.89 1465.46 Q134.719 1469 138.33 1469 Q141.964 1469 143.769 1465.46 Q145.598 1461.89 145.598 1454.78 Q145.598 1447.66 143.769 1444.11 Q141.964 1440.55 138.33 1440.55 M138.33 1436.85 Q144.14 1436.85 147.195 1441.45 Q150.274 1446.03 150.274 1454.78 Q150.274 1463.51 147.195 1468.12 Q144.14 1472.7 138.33 1472.7 Q132.519 1472.7 129.441 1468.12 Q126.385 1463.51 126.385 1454.78 Q126.385 1446.03 129.441 1441.45 Q132.519 1436.85 138.33 1436.85 Z" fill="#000000" fill-rule="nonzero" fill-opacity="1" /><path clip-path="url(#clip830)" d="M63.9319 1124.33 Q60.3208 1124.33 58.4921 1127.89 Q56.6865 1131.43 56.6865 1138.56 Q56.6865 1145.67 58.4921 1149.23 Q60.3208 1152.78 63.9319 1152.78 Q67.5661 1152.78 69.3717 1149.23 Q71.2004 1145.67 71.2004 1138.56 Q71.2004 1131.43 69.3717 1127.89 Q67.5661 1124.33 63.9319 1124.33 M63.9319 1120.62 Q69.742 1120.62 72.7976 1125.23 Q75.8763 1129.81 75.8763 1138.56 Q75.8763 1147.29 72.7976 1151.9 Q69.742 1156.48 63.9319 1156.48 Q58.1217 1156.48 55.043 1151.9 Q51.9875 1147.29 51.9875 1138.56 Q51.9875 1129.81 55.043 1125.23 Q58.1217 1120.62 63.9319 1120.62 Z" fill="#000000" fill-rule="nonzero" fill-opacity="1" /><path clip-path="url(#clip830)" d="M84.0938 1149.93 L88.978 1149.93 L88.978 1155.81 L84.0938 1155.81 L84.0938 1149.93 Z" fill="#000000" fill-rule="nonzero" fill-opacity="1" /><path clip-path="url(#clip830)" d="M109.163 1124.33 Q105.552 1124.33 103.723 1127.89 Q101.918 1131.43 101.918 1138.56 Q101.918 1145.67 103.723 1149.23 Q105.552 1152.78 109.163 1152.78 Q112.797 1152.78 114.603 1149.23 Q116.432 1145.67 116.432 1138.56 Q116.432 1131.43 114.603 1127.89 Q112.797 1124.33 109.163 1124.33 M109.163 1120.62 Q114.973 1120.62 118.029 1125.23 Q121.107 1129.81 121.107 1138.56 Q121.107 1147.29 118.029 1151.9 Q114.973 1156.48 109.163 1156.48 Q103.353 1156.48 100.274 1151.9 Q97.2187 1147.29 97.2187 1138.56 Q97.2187 1129.81 100.274 1125.23 Q103.353 1120.62 109.163 1120.62 Z" fill="#000000" fill-rule="nonzero" fill-opacity="1" /><path clip-path="url(#clip830)" d="M129.371 1121.25 L147.728 1121.25 L147.728 1125.18 L133.654 1125.18 L133.654 1133.66 Q134.672 1133.31 135.691 1133.15 Q136.709 1132.96 137.728 1132.96 Q143.515 1132.96 146.894 1136.13 Q150.274 1139.3 150.274 1144.72 Q150.274 1150.3 146.802 1153.4 Q143.33 1156.48 137.01 1156.48 Q134.834 1156.48 132.566 1156.11 Q130.32 1155.74 127.913 1155 L127.913 1150.3 Q129.996 1151.43 132.219 1151.99 Q134.441 1152.54 136.918 1152.54 Q140.922 1152.54 143.26 1150.44 Q145.598 1148.33 145.598 1144.72 Q145.598 1141.11 143.26 1139 Q140.922 1136.9 136.918 1136.9 Q135.043 1136.9 133.168 1137.31 Q131.316 1137.73 129.371 1138.61 L129.371 1121.25 Z" fill="#000000" fill-rule="nonzero" fill-opacity="1" /><path clip-path="url(#clip830)" d="M62.9365 808.105 Q59.3254 808.105 57.4967 811.67 Q55.6912 815.211 55.6912 822.341 Q55.6912 829.447 57.4967 833.012 Q59.3254 836.554 62.9365 836.554 Q66.5707 836.554 68.3763 833.012 Q70.205 829.447 70.205 822.341 Q70.205 815.211 68.3763 811.67 Q66.5707 808.105 62.9365 808.105 M62.9365 804.401 Q68.7467 804.401 71.8022 809.008 Q74.8809 813.591 74.8809 822.341 Q74.8809 831.068 71.8022 835.674 Q68.7467 840.258 62.9365 840.258 Q57.1264 840.258 54.0477 835.674 Q50.9921 831.068 50.9921 822.341 Q50.9921 813.591 54.0477 809.008 Q57.1264 804.401 62.9365 804.401 Z" fill="#000000" fill-rule="nonzero" fill-opacity="1" /><path clip-path="url(#clip830)" d="M83.0984 833.707 L87.9827 833.707 L87.9827 839.586 L83.0984 839.586 L83.0984 833.707 Z" fill="#000000" fill-rule="nonzero" fill-opacity="1" /><path clip-path="url(#clip830)" d="M98.978 835.651 L106.617 835.651 L106.617 809.285 L98.3067 810.952 L98.3067 806.693 L106.571 805.026 L111.246 805.026 L111.246 835.651 L118.885 835.651 L118.885 839.586 L98.978 839.586 L98.978 835.651 Z" fill="#000000" fill-rule="nonzero" fill-opacity="1" /><path clip-path="url(#clip830)" d="M138.33 808.105 Q134.719 808.105 132.89 811.67 Q131.084 815.211 131.084 822.341 Q131.084 829.447 132.89 833.012 Q134.719 836.554 138.33 836.554 Q141.964 836.554 143.769 833.012 Q145.598 829.447 145.598 822.341 Q145.598 815.211 143.769 811.67 Q141.964 808.105 138.33 808.105 M138.33 804.401 Q144.14 804.401 147.195 809.008 Q150.274 813.591 150.274 822.341 Q150.274 831.068 147.195 835.674 Q144.14 840.258 138.33 840.258 Q132.519 840.258 129.441 835.674 Q126.385 831.068 126.385 822.341 Q126.385 813.591 129.441 809.008 Q132.519 804.401 138.33 804.401 Z" fill="#000000" fill-rule="nonzero" fill-opacity="1" /><path clip-path="url(#clip830)" d="M63.9319 491.883 Q60.3208 491.883 58.4921 495.448 Q56.6865 498.989 56.6865 506.119 Q56.6865 513.225 58.4921 516.79 Q60.3208 520.332 63.9319 520.332 Q67.5661 520.332 69.3717 516.79 Q71.2004 513.225 71.2004 506.119 Q71.2004 498.989 69.3717 495.448 Q67.5661 491.883 63.9319 491.883 M63.9319 488.179 Q69.742 488.179 72.7976 492.786 Q75.8763 497.369 75.8763 506.119 Q75.8763 514.846 72.7976 519.452 Q69.742 524.036 63.9319 524.036 Q58.1217 524.036 55.043 519.452 Q51.9875 514.846 51.9875 506.119 Q51.9875 497.369 55.043 492.786 Q58.1217 488.179 63.9319 488.179 Z" fill="#000000" fill-rule="nonzero" fill-opacity="1" /><path clip-path="url(#clip830)" d="M84.0938 517.485 L88.978 517.485 L88.978 523.364 L84.0938 523.364 L84.0938 517.485 Z" fill="#000000" fill-rule="nonzero" fill-opacity="1" /><path clip-path="url(#clip830)" d="M99.9733 519.429 L107.612 519.429 L107.612 493.064 L99.3021 494.73 L99.3021 490.471 L107.566 488.804 L112.242 488.804 L112.242 519.429 L119.881 519.429 L119.881 523.364 L99.9733 523.364 L99.9733 519.429 Z" fill="#000000" fill-rule="nonzero" fill-opacity="1" /><path clip-path="url(#clip830)" d="M129.371 488.804 L147.728 488.804 L147.728 492.739 L133.654 492.739 L133.654 501.212 Q134.672 500.864 135.691 500.702 Q136.709 500.517 137.728 500.517 Q143.515 500.517 146.894 503.688 Q150.274 506.86 150.274 512.276 Q150.274 517.855 146.802 520.957 Q143.33 524.036 137.01 524.036 Q134.834 524.036 132.566 523.665 Q130.32 523.295 127.913 522.554 L127.913 517.855 Q129.996 518.989 132.219 519.545 Q134.441 520.1 136.918 520.1 Q140.922 520.1 143.26 517.994 Q145.598 515.887 145.598 512.276 Q145.598 508.665 143.26 506.559 Q140.922 504.452 136.918 504.452 Q135.043 504.452 133.168 504.869 Q131.316 505.286 129.371 506.165 L129.371 488.804 Z" fill="#000000" fill-rule="nonzero" fill-opacity="1" /><path clip-path="url(#clip830)" d="M62.9365 175.661 Q59.3254 175.661 57.4967 179.226 Q55.6912 182.767 55.6912 189.897 Q55.6912 197.004 57.4967 200.568 Q59.3254 204.11 62.9365 204.11 Q66.5707 204.11 68.3763 200.568 Q70.205 197.004 70.205 189.897 Q70.205 182.767 68.3763 179.226 Q66.5707 175.661 62.9365 175.661 M62.9365 171.957 Q68.7467 171.957 71.8022 176.564 Q74.8809 181.147 74.8809 189.897 Q74.8809 198.624 71.8022 203.23 Q68.7467 207.814 62.9365 207.814 Q57.1264 207.814 54.0477 203.23 Q50.9921 198.624 50.9921 189.897 Q50.9921 181.147 54.0477 176.564 Q57.1264 171.957 62.9365 171.957 Z" fill="#000000" fill-rule="nonzero" fill-opacity="1" /><path clip-path="url(#clip830)" d="M83.0984 201.263 L87.9827 201.263 L87.9827 207.142 L83.0984 207.142 L83.0984 201.263 Z" fill="#000000" fill-rule="nonzero" fill-opacity="1" /><path clip-path="url(#clip830)" d="M102.196 203.207 L118.515 203.207 L118.515 207.142 L96.5706 207.142 L96.5706 203.207 Q99.2326 200.453 103.816 195.823 Q108.422 191.17 109.603 189.828 Q111.848 187.304 112.728 185.568 Q113.631 183.809 113.631 182.119 Q113.631 179.365 111.686 177.629 Q109.765 175.893 106.663 175.893 Q104.464 175.893 102.01 176.656 Q99.5798 177.42 96.8021 178.971 L96.8021 174.249 Q99.6261 173.115 102.08 172.536 Q104.534 171.957 106.571 171.957 Q111.941 171.957 115.135 174.643 Q118.33 177.328 118.33 181.818 Q118.33 183.948 117.52 185.869 Q116.733 187.767 114.626 190.36 Q114.047 191.031 110.946 194.249 Q107.844 197.443 102.196 203.207 Z" fill="#000000" fill-rule="nonzero" fill-opacity="1" /><path clip-path="url(#clip830)" d="M138.33 175.661 Q134.719 175.661 132.89 179.226 Q131.084 182.767 131.084 189.897 Q131.084 197.004 132.89 200.568 Q134.719 204.11 138.33 204.11 Q141.964 204.11 143.769 200.568 Q145.598 197.004 145.598 189.897 Q145.598 182.767 143.769 179.226 Q141.964 175.661 138.33 175.661 M138.33 171.957 Q144.14 171.957 147.195 176.564 Q150.274 181.147 150.274 189.897 Q150.274 198.624 147.195 203.23 Q144.14 207.814 138.33 207.814 Q132.519 207.814 129.441 203.23 Q126.385 198.624 126.385 189.897 Q126.385 181.147 129.441 176.564 Q132.519 171.957 138.33 171.957 Z" fill="#000000" fill-rule="nonzero" fill-opacity="1" /><circle clip-path="url(#clip832)" cx="1365.19" cy="1212.99" r="14.4" fill="#808080" fill-rule="evenodd" fill-opacity="1" stroke="#000000" stroke-opacity="1" stroke-width="3.2"/>
<circle clip-path="url(#clip832)" cx="1319.29" cy="1445.72" r="14.4" fill="#808080" fill-rule="evenodd" fill-opacity="1" stroke="#000000" stroke-opacity="1" stroke-width="3.2"/>
<circle clip-path="url(#clip832)" cx="2291.44" cy="1164.96" r="14.4" fill="#808080" fill-rule="evenodd" fill-opacity="1" stroke="#000000" stroke-opacity="1" stroke-width="3.2"/>
<circle clip-path="url(#clip832)" cx="247.59" cy="87.9763" r="14.4" fill="#808080" fill-rule="evenodd" fill-opacity="1" stroke="#000000" stroke-opacity="1" stroke-width="3.2"/>
<path clip-path="url(#clip830)" d="M1369.49 1220.43 Q1360.45 1220.43 1356.97 1222.49 Q1353.49 1224.56 1353.49 1229.54 Q1353.49 1233.51 1356.08 1235.86 Q1358.71 1238.17 1363.21 1238.17 Q1369.41 1238.17 1373.13 1233.79 Q1376.9 1229.38 1376.9 1222.09 L1376.9 1220.43 L1369.49 1220.43 M1384.35 1217.35 L1384.35 1243.23 L1376.9 1243.23 L1376.9 1236.35 Q1374.35 1240.48 1370.54 1242.46 Q1366.73 1244.41 1361.22 1244.41 Q1354.25 1244.41 1350.12 1240.52 Q1346.03 1236.59 1346.03 1230.03 Q1346.03 1222.37 1351.14 1218.48 Q1356.28 1214.59 1366.45 1214.59 L1376.9 1214.59 L1376.9 1213.86 Q1376.9 1208.72 1373.5 1205.92 Q1370.13 1203.09 1364.02 1203.09 Q1360.13 1203.09 1356.44 1204.02 Q1352.76 1204.95 1349.35 1206.81 L1349.35 1199.93 Q1353.44 1198.35 1357.29 1197.58 Q1361.14 1196.77 1364.79 1196.77 Q1374.63 1196.77 1379.49 1201.87 Q1384.35 1206.98 1384.35 1217.35 Z" fill="#000000" fill-rule="nonzero" fill-opacity="1" /><path clip-path="url(#clip830)" d="M1331.85 1453.31 Q1331.85 1445.09 1328.45 1440.43 Q1325.09 1435.73 1319.17 1435.73 Q1313.26 1435.73 1309.85 1440.43 Q1306.49 1445.09 1306.49 1453.31 Q1306.49 1461.53 1309.85 1466.23 Q1313.26 1470.89 1319.17 1470.89 Q1325.09 1470.89 1328.45 1466.23 Q1331.85 1461.53 1331.85 1453.31 M1306.49 1437.47 Q1308.84 1433.42 1312.41 1431.48 Q1316.01 1429.49 1320.99 1429.49 Q1329.26 1429.49 1334.4 1436.05 Q1339.59 1442.62 1339.59 1453.31 Q1339.59 1464.01 1334.4 1470.57 Q1329.26 1477.13 1320.99 1477.13 Q1316.01 1477.13 1312.41 1475.19 Q1308.84 1473.2 1306.49 1469.15 L1306.49 1475.96 L1299 1475.96 L1299 1412.92 L1306.49 1412.92 L1306.49 1437.47 Z" fill="#000000" fill-rule="nonzero" fill-opacity="1" /><path clip-path="url(#clip830)" d="M2309.39 1151.57 L2309.39 1158.54 Q2306.23 1156.8 2303.03 1155.95 Q2299.87 1155.06 2296.63 1155.06 Q2289.37 1155.06 2285.36 1159.68 Q2281.35 1164.25 2281.35 1172.56 Q2281.35 1180.86 2285.36 1185.48 Q2289.37 1190.06 2296.63 1190.06 Q2299.87 1190.06 2303.03 1189.21 Q2306.23 1188.32 2309.39 1186.57 L2309.39 1193.46 Q2306.27 1194.92 2302.9 1195.65 Q2299.58 1196.38 2295.82 1196.38 Q2285.57 1196.38 2279.53 1189.94 Q2273.49 1183.49 2273.49 1172.56 Q2273.49 1161.46 2279.57 1155.1 Q2285.69 1148.74 2296.3 1148.74 Q2299.74 1148.74 2303.03 1149.47 Q2306.31 1150.16 2309.39 1151.57 Z" fill="#000000" fill-rule="nonzero" fill-opacity="1" /><path clip-path="url(#clip830)" d="M260.411 79.7327 L260.411 55.1842 L267.864 55.1842 L267.864 118.216 L260.411 118.216 L260.411 111.411 Q258.061 115.462 254.456 117.447 Q250.891 119.391 245.868 119.391 Q237.645 119.391 232.459 112.829 Q227.315 106.266 227.315 95.5717 Q227.315 84.8773 232.459 78.3149 Q237.645 71.7524 245.868 71.7524 Q250.891 71.7524 254.456 73.7373 Q258.061 75.6818 260.411 79.7327 M235.011 95.5717 Q235.011 103.795 238.374 108.494 Q241.776 113.153 247.691 113.153 Q253.605 113.153 257.008 108.494 Q260.411 103.795 260.411 95.5717 Q260.411 87.3484 257.008 82.6898 Q253.605 77.9908 247.691 77.9908 Q241.776 77.9908 238.374 82.6898 Q235.011 87.3484 235.011 95.5717 Z" fill="#000000" fill-rule="nonzero" fill-opacity="1" /><path clip-path="url(#clip830)" d="M2011.46 198.898 L2280.54 198.898 L2280.54 95.2176 L2011.46 95.2176  Z" fill="#ffffff" fill-rule="evenodd" fill-opacity="1"/>
<polyline clip-path="url(#clip830)" style="stroke:#000000; stroke-linecap:round; stroke-linejoin:round; stroke-width:4; stroke-opacity:1; fill:none" points="2011.46,198.898 2280.54,198.898 2280.54,95.2176 2011.46,95.2176 2011.46,198.898 "/>
<circle clip-path="url(#clip830)" cx="2107.75" cy="147.058" r="20.48" fill="#808080" fill-rule="evenodd" fill-opacity="1" stroke="#000000" stroke-opacity="1" stroke-width="4.55111"/>
<path clip-path="url(#clip830)" d="M2217.88 166.745 Q2216.07 171.375 2214.36 172.787 Q2212.65 174.199 2209.78 174.199 L2206.38 174.199 L2206.38 170.634 L2208.88 170.634 Q2210.63 170.634 2211.61 169.8 Q2212.58 168.967 2213.76 165.865 L2214.52 163.921 L2204.04 138.412 L2208.55 138.412 L2216.65 158.689 L2224.76 138.412 L2229.27 138.412 L2217.88 166.745 Z" fill="#000000" fill-rule="nonzero" fill-opacity="1" /><path clip-path="url(#clip830)" d="M2236.56 160.402 L2244.2 160.402 L2244.2 134.037 L2235.89 135.703 L2235.89 131.444 L2244.15 129.778 L2248.83 129.778 L2248.83 160.402 L2256.47 160.402 L2256.47 164.338 L2236.56 164.338 L2236.56 160.402 Z" fill="#000000" fill-rule="nonzero" fill-opacity="1" /></svg>
