<?xml version="1.0" encoding="utf-8"?>
<svg xmlns="http://www.w3.org/2000/svg" xmlns:xlink="http://www.w3.org/1999/xlink" width="600" height="400" viewBox="0 0 2400 1600">
<defs>
  <clipPath id="clip020">
    <rect x="0" y="0" width="2400" height="1600"/>
  </clipPath>
</defs>
<path clip-path="url(#clip020)" d="M0 1600 L2400 1600 L2400 0 L0 0  Z" fill="#ffffff" fill-rule="evenodd" fill-opacity="1"/>
<defs>
  <clipPath id="clip021">
    <rect x="112" y="47" width="2242" height="1440"/>
  </clipPath>
</defs>
<path clip-path="url(#clip020)" d="M112.177 1486.45 L2352.76 1486.45 L2352.76 47.2441 L112.177 47.2441  Z" fill="#ffffff" fill-rule="evenodd" fill-opacity="1"/>
<polyline clip-path="url(#clip021)" style="stroke:#000000; stroke-linecap:round; stroke-linejoin:round; stroke-width:2; stroke-opacity:0.1; fill:none" points="559.263,1486.45 559.263,47.2441 "/>
<polyline clip-path="url(#clip021)" style="stroke:#000000; stroke-linecap:round; stroke-linejoin:round; stroke-width:2; stroke-opacity:0.1; fill:none" points="1075.47,1486.45 1075.47,47.2441 "/>
<polyline clip-path="url(#clip021)" style="stroke:#000000; stroke-linecap:round; stroke-linejoin:round; stroke-width:2; stroke-opacity:0.1; fill:none" points="1591.67,1486.45 1591.67,47.2441 "/>
<polyline clip-path="url(#clip021)" style="stroke:#000000; stroke-linecap:round; stroke-linejoin:round; stroke-width:2; stroke-opacity:0.1; fill:none" points="2107.88,1486.45 2107.88,47.2441 "/>
<polyline clip-path="url(#clip021)" style="stroke:#000000; stroke-linecap:round; stroke-linejoin:round; stroke-width:2; stroke-opacity:0.1; fill:none" points="112.177,1480.36 2352.76,1480.36 "/>
<polyline clip-path="url(#clip021)" style="stroke:#000000; stroke-linecap:round; stroke-linejoin:round; stroke-width:2; stroke-opacity:0.1; fill:none" points="112.177,1235.51 2352.76,1235.51 "/>
<polyline clip-path="url(#clip021)" style="stroke:#000000; stroke-linecap:round; stroke-linejoin:round; stroke-width:2; stroke-opacity:0.1; fill:none" points="112.177,990.655 2352.76,990.655 "/>
<polyline clip-path="url(#clip021)" style="stroke:#000000; stroke-linecap:round; stroke-linejoin:round; stroke-width:2; stroke-opacity:0.1; fill:none" points="112.177,745.802 2352.76,745.802 "/>
<polyline clip-path="url(#clip021)" style="stroke:#000000; stroke-linecap:round; stroke-linejoin:round; stroke-width:2; stroke-opacity:0.1; fill:none" points="112.177,500.949 2352.76,500.949 "/>
<polyline clip-path="url(#clip021)" style="stroke:#000000; stroke-linecap:round; stroke-linejoin:round; stroke-width:2; stroke-opacity:0.1; fill:none" points="112.177,256.096 2352.76,256.096 "/>
<polyline clip-path="url(#clip020)" style="stroke:#000000; stroke-linecap:round; stroke-linejoin:round; stroke-width:4; stroke-opacity:1; fill:none" points="112.177,1486.45 2352.76,1486.45 "/>
<polyline clip-path="url(#clip020)" style="stroke:#000000; stroke-linecap:round; stroke-linejoin:round; stroke-width:4; stroke-opacity:1; fill:none" points="559.263,1486.45 559.263,1467.55 "/>
<polyline clip-path="url(#clip020)" style="stroke:#000000; stroke-linecap:round; stroke-linejoin:round; stroke-width:4; stroke-opacity:1; fill:none" points="1075.47,1486.45 1075.47,1467.55 "/>
<polyline clip-path="url(#clip020)" style="stroke:#000000; stroke-linecap:round; stroke-linejoin:round; stroke-width:4; stroke-opacity:1; fill:none" points="1591.67,1486.45 1591.67,1467.55 "/>
<polyline clip-path="url(#clip020)" style="stroke:#000000; stroke-linecap:round; stroke-linejoin:round; stroke-width:4; stroke-opacity:1; fill:none" points="2107.88,1486.45 2107.88,1467.55 "/>
<path clip-path="url(#clip020)" d="M505.792 1532.02 L535.467 1532.02 L535.467 1535.95 L505.792 1535.95 L505.792 1532.02 Z" fill="#000000" fill-rule="nonzero" fill-opacity="1" /><path clip-path="url(#clip020)" d="M546.37 1544.91 L554.009 1544.91 L554.009 1518.55 L545.699 1520.21 L545.699 1515.95 L553.963 1514.29 L558.639 1514.29 L558.639 1544.91 L566.277 1544.91 L566.277 1548.85 L546.37 1548.85 L546.37 1544.91 Z" fill="#000000" fill-rule="nonzero" fill-opacity="1" /><path clip-path="url(#clip020)" d="M575.722 1542.97 L580.606 1542.97 L580.606 1548.85 L575.722 1548.85 L575.722 1542.97 Z" fill="#000000" fill-rule="nonzero" fill-opacity="1" /><path clip-path="url(#clip020)" d="M600.791 1517.37 Q597.18 1517.37 595.351 1520.93 Q593.546 1524.47 593.546 1531.6 Q593.546 1538.71 595.351 1542.27 Q597.18 1545.82 600.791 1545.82 Q604.425 1545.82 606.231 1542.27 Q608.06 1538.71 608.06 1531.6 Q608.06 1524.47 606.231 1520.93 Q604.425 1517.37 600.791 1517.37 M600.791 1513.66 Q606.601 1513.66 609.657 1518.27 Q612.735 1522.85 612.735 1531.6 Q612.735 1540.33 609.657 1544.94 Q606.601 1549.52 600.791 1549.52 Q594.981 1549.52 591.902 1544.94 Q588.847 1540.33 588.847 1531.6 Q588.847 1522.85 591.902 1518.27 Q594.981 1513.66 600.791 1513.66 Z" fill="#000000" fill-rule="nonzero" fill-opacity="1" /><path clip-path="url(#clip020)" d="M1022.49 1532.02 L1052.17 1532.02 L1052.17 1535.95 L1022.49 1535.95 L1022.49 1532.02 Z" fill="#000000" fill-rule="nonzero" fill-opacity="1" /><path clip-path="url(#clip020)" d="M1072.26 1517.37 Q1068.65 1517.37 1066.82 1520.93 Q1065.02 1524.47 1065.02 1531.6 Q1065.02 1538.71 1066.82 1542.27 Q1068.65 1545.82 1072.26 1545.82 Q1075.9 1545.82 1077.7 1542.27 Q1079.53 1538.71 1079.53 1531.6 Q1079.53 1524.47 1077.7 1520.93 Q1075.9 1517.37 1072.26 1517.37 M1072.26 1513.66 Q1078.07 1513.66 1081.13 1518.27 Q1084.21 1522.85 1084.21 1531.6 Q1084.21 1540.33 1081.13 1544.94 Q1078.07 1549.52 1072.26 1549.52 Q1066.45 1549.52 1063.37 1544.94 Q1060.32 1540.33 1060.32 1531.6 Q1060.32 1522.85 1063.37 1518.27 Q1066.45 1513.66 1072.26 1513.66 Z" fill="#000000" fill-rule="nonzero" fill-opacity="1" /><path clip-path="url(#clip020)" d="M1092.42 1542.97 L1097.31 1542.97 L1097.31 1548.85 L1092.42 1548.85 L1092.42 1542.97 Z" fill="#000000" fill-rule="nonzero" fill-opacity="1" /><path clip-path="url(#clip020)" d="M1107.54 1514.29 L1125.9 1514.29 L1125.9 1518.22 L1111.82 1518.22 L1111.82 1526.7 Q1112.84 1526.35 1113.86 1526.19 Q1114.88 1526 1115.9 1526 Q1121.68 1526 1125.06 1529.17 Q1128.44 1532.34 1128.44 1537.76 Q1128.44 1543.34 1124.97 1546.44 Q1121.5 1549.52 1115.18 1549.52 Q1113 1549.52 1110.73 1549.15 Q1108.49 1548.78 1106.08 1548.04 L1106.08 1543.34 Q1108.16 1544.47 1110.39 1545.03 Q1112.61 1545.58 1115.09 1545.58 Q1119.09 1545.58 1121.43 1543.48 Q1123.77 1541.37 1123.77 1537.76 Q1123.77 1534.15 1121.43 1532.04 Q1119.09 1529.94 1115.09 1529.94 Q1113.21 1529.94 1111.34 1530.35 Q1109.48 1530.77 1107.54 1531.65 L1107.54 1514.29 Z" fill="#000000" fill-rule="nonzero" fill-opacity="1" /><path clip-path="url(#clip020)" d="M1569.06 1517.37 Q1565.45 1517.37 1563.62 1520.93 Q1561.81 1524.47 1561.81 1531.6 Q1561.81 1538.71 1563.62 1542.27 Q1565.45 1545.82 1569.06 1545.82 Q1572.69 1545.82 1574.5 1542.27 Q1576.33 1538.71 1576.33 1531.6 Q1576.33 1524.47 1574.5 1520.93 Q1572.69 1517.37 1569.06 1517.37 M1569.06 1513.66 Q1574.87 1513.66 1577.92 1518.27 Q1581 1522.85 1581 1531.6 Q1581 1540.33 1577.92 1544.94 Q1574.87 1549.52 1569.06 1549.52 Q1563.25 1549.52 1560.17 1544.94 Q1557.11 1540.33 1557.11 1531.6 Q1557.11 1522.85 1560.17 1518.27 Q1563.25 1513.66 1569.06 1513.66 Z" fill="#000000" fill-rule="nonzero" fill-opacity="1" /><path clip-path="url(#clip020)" d="M1589.22 1542.97 L1594.1 1542.97 L1594.1 1548.85 L1589.22 1548.85 L1589.22 1542.97 Z" fill="#000000" fill-rule="nonzero" fill-opacity="1" /><path clip-path="url(#clip020)" d="M1614.29 1517.37 Q1610.68 1517.37 1608.85 1520.93 Q1607.04 1524.47 1607.04 1531.6 Q1607.04 1538.71 1608.85 1542.27 Q1610.68 1545.82 1614.29 1545.82 Q1617.92 1545.82 1619.73 1542.27 Q1621.56 1538.71 1621.56 1531.6 Q1621.56 1524.47 1619.73 1520.93 Q1617.92 1517.37 1614.29 1517.37 M1614.29 1513.66 Q1620.1 1513.66 1623.15 1518.27 Q1626.23 1522.85 1626.23 1531.6 Q1626.23 1540.33 1623.15 1544.94 Q1620.1 1549.52 1614.29 1549.52 Q1608.48 1549.52 1605.4 1544.94 Q1602.34 1540.33 1602.34 1531.6 Q1602.34 1522.85 1605.4 1518.27 Q1608.48 1513.66 1614.29 1513.66 Z" fill="#000000" fill-rule="nonzero" fill-opacity="1" /><path clip-path="url(#clip020)" d="M2085.76 1517.37 Q2082.15 1517.37 2080.32 1520.93 Q2078.51 1524.47 2078.51 1531.6 Q2078.51 1538.71 2080.32 1542.27 Q2082.15 1545.82 2085.76 1545.82 Q2089.39 1545.82 2091.2 1542.27 Q2093.03 1538.71 2093.03 1531.6 Q2093.03 1524.47 2091.2 1520.93 Q2089.39 1517.37 2085.76 1517.37 M2085.76 1513.66 Q2091.57 1513.66 2094.62 1518.27 Q2097.7 1522.85 2097.7 1531.6 Q2097.7 1540.33 2094.62 1544.94 Q2091.57 1549.52 2085.76 1549.52 Q2079.95 1549.52 2076.87 1544.94 Q2073.81 1540.33 2073.81 1531.6 Q2073.81 1522.85 2076.87 1518.27 Q2079.95 1513.66 2085.76 1513.66 Z" fill="#000000" fill-rule="nonzero" fill-opacity="1" /><path clip-path="url(#clip020)" d="M2105.92 1542.97 L2110.81 1542.97 L2110.81 1548.85 L2105.92 1548.85 L2105.92 1542.97 Z" fill="#000000" fill-rule="nonzero" fill-opacity="1" /><path clip-path="url(#clip020)" d="M2121.04 1514.29 L2139.39 1514.29 L2139.39 1518.22 L2125.32 1518.22 L2125.32 1526.7 Q2126.34 1526.35 2127.36 1526.19 Q2128.37 1526 2129.39 1526 Q2135.18 1526 2138.56 1529.17 Q2141.94 1532.34 2141.94 1537.76 Q2141.94 1543.34 2138.47 1546.44 Q2135 1549.52 2128.68 1549.52 Q2126.5 1549.52 2124.23 1549.15 Q2121.99 1548.78 2119.58 1548.04 L2119.58 1543.34 Q2121.66 1544.47 2123.88 1545.03 Q2126.11 1545.58 2128.58 1545.58 Q2132.59 1545.58 2134.93 1543.48 Q2137.26 1541.37 2137.26 1537.76 Q2137.26 1534.15 2134.93 1532.04 Q2132.59 1529.94 2128.58 1529.94 Q2126.71 1529.94 2124.83 1530.35 Q2122.98 1530.77 2121.04 1531.65 L2121.04 1514.29 Z" fill="#000000" fill-rule="nonzero" fill-opacity="1" /><polyline clip-path="url(#clip020)" style="stroke:#000000; stroke-linecap:round; stroke-linejoin:round; stroke-width:4; stroke-opacity:1; fill:none" points="112.177,1486.45 112.177,47.2441 "/>
<polyline clip-path="url(#clip020)" style="stroke:#000000; stroke-linecap:round; stroke-linejoin:round; stroke-width:4; stroke-opacity:1; fill:none" points="112.177,1480.36 131.075,1480.36 "/>
<polyline clip-path="url(#clip020)" style="stroke:#000000; stroke-linecap:round; stroke-linejoin:round; stroke-width:4; stroke-opacity:1; fill:none" points="112.177,1235.51 131.075,1235.51 "/>
<polyline clip-path="url(#clip020)" style="stroke:#000000; stroke-linecap:round; stroke-linejoin:round; stroke-width:4; stroke-opacity:1; fill:none" points="112.177,990.655 131.075,990.655 "/>
<polyline clip-path="url(#clip020)" style="stroke:#000000; stroke-linecap:round; stroke-linejoin:round; stroke-width:4; stroke-opacity:1; fill:none" points="112.177,745.802 131.075,745.802 "/>
<polyline clip-path="url(#clip020)" style="stroke:#000000; stroke-linecap:round; stroke-linejoin:round; stroke-width:4; stroke-opacity:1; fill:none" points="112.177,500.949 131.075,500.949 "/>
<polyline clip-path="url(#clip020)" style="stroke:#000000; stroke-linecap:round; stroke-linejoin:round; stroke-width:4; stroke-opacity:1; fill:none" points="112.177,256.096 131.075,256.096 "/>
<path clip-path="url(#clip020)" d="M64.2328 1466.16 Q60.6217 1466.16 58.793 1469.72 Q56.9875 1473.27 56.9875 1480.4 Q56.9875 1487.5 58.793 1491.07 Q60.6217 1494.61 64.2328 1494.61 Q67.867 1494.61 69.6726 1491.07 Q71.5013 1487.5 71.5013 1480.4 Q71.5013 1473.27 69.6726 1469.72 Q67.867 1466.16 64.2328 1466.16 M64.2328 1462.46 Q70.0429 1462.46 73.0985 1467.06 Q76.1772 1471.65 76.1772 1480.4 Q76.1772 1489.12 73.0985 1493.73 Q70.0429 1498.31 64.2328 1498.31 Q58.4226 1498.31 55.344 1493.73 Q52.2884 1489.12 52.2884 1480.4 Q52.2884 1471.65 55.344 1467.06 Q58.4226 1462.46 64.2328 1462.46 Z" fill="#000000" fill-rule="nonzero" fill-opacity="1" /><path clip-path="url(#clip020)" d="M56.2699 1248.85 L63.9087 1248.85 L63.9087 1222.49 L55.5986 1224.15 L55.5986 1219.89 L63.8624 1218.23 L68.5383 1218.23 L68.5383 1248.85 L76.1772 1248.85 L76.1772 1252.79 L56.2699 1252.79 L56.2699 1248.85 Z" fill="#000000" fill-rule="nonzero" fill-opacity="1" /><path clip-path="url(#clip020)" d="M59.8578 1004 L76.1772 1004 L76.1772 1007.94 L54.2328 1007.94 L54.2328 1004 Q56.8949 1001.25 61.4782 996.616 Q66.0846 991.963 67.2652 990.62 Q69.5105 988.097 70.3902 986.361 Q71.2929 984.602 71.2929 982.912 Q71.2929 980.158 69.3485 978.421 Q67.4272 976.685 64.3254 976.685 Q62.1263 976.685 59.6726 977.449 Q57.2421 978.213 54.4643 979.764 L54.4643 975.042 Q57.2884 973.908 59.7421 973.329 Q62.1958 972.75 64.2328 972.75 Q69.6031 972.75 72.7976 975.435 Q75.992 978.121 75.992 982.611 Q75.992 984.741 75.1818 986.662 Q74.3948 988.56 72.2883 991.153 Q71.7096 991.824 68.6078 995.042 Q65.5059 998.236 59.8578 1004 Z" fill="#000000" fill-rule="nonzero" fill-opacity="1" /><path clip-path="url(#clip020)" d="M69.0476 744.448 Q72.404 745.165 74.279 747.434 Q76.1772 749.702 76.1772 753.036 Q76.1772 758.151 72.6587 760.952 Q69.1402 763.753 62.6587 763.753 Q60.4828 763.753 58.168 763.313 Q55.8764 762.897 53.4227 762.04 L53.4227 757.526 Q55.3671 758.661 57.6819 759.239 Q59.9967 759.818 62.5198 759.818 Q66.918 759.818 69.2096 758.082 Q71.5244 756.346 71.5244 753.036 Q71.5244 749.98 69.3717 748.267 Q67.242 746.531 63.4226 746.531 L59.3949 746.531 L59.3949 742.689 L63.6078 742.689 Q67.0569 742.689 68.8855 741.323 Q70.7142 739.934 70.7142 737.341 Q70.7142 734.679 68.8161 733.267 Q66.9411 731.832 63.4226 731.832 Q61.5013 731.832 59.3023 732.249 Q57.1032 732.665 54.4643 733.545 L54.4643 729.378 Q57.1264 728.638 59.4412 728.267 Q61.7791 727.897 63.8393 727.897 Q69.1633 727.897 72.2652 730.328 Q75.367 732.735 75.367 736.855 Q75.367 739.726 73.7235 741.716 Q72.08 743.684 69.0476 744.448 Z" fill="#000000" fill-rule="nonzero" fill-opacity="1" /><path clip-path="url(#clip020)" d="M66.5939 487.743 L54.7884 506.192 L66.5939 506.192 L66.5939 487.743 M65.367 483.669 L71.2466 483.669 L71.2466 506.192 L76.1772 506.192 L76.1772 510.081 L71.2466 510.081 L71.2466 518.229 L66.5939 518.229 L66.5939 510.081 L50.9921 510.081 L50.9921 505.567 L65.367 483.669 Z" fill="#000000" fill-rule="nonzero" fill-opacity="1" /><path clip-path="url(#clip020)" d="M55.2745 238.816 L73.6309 238.816 L73.6309 242.751 L59.5569 242.751 L59.5569 251.223 Q60.5754 250.876 61.5939 250.714 Q62.6124 250.529 63.6309 250.529 Q69.418 250.529 72.7976 253.7 Q76.1772 256.871 76.1772 262.288 Q76.1772 267.866 72.705 270.968 Q69.2328 274.047 62.9134 274.047 Q60.7374 274.047 58.4689 273.677 Q56.2236 273.306 53.8162 272.565 L53.8162 267.866 Q55.8995 269.001 58.1217 269.556 Q60.3439 270.112 62.8208 270.112 Q66.8254 270.112 69.1633 268.005 Q71.5013 265.899 71.5013 262.288 Q71.5013 258.677 69.1633 256.57 Q66.8254 254.464 62.8208 254.464 Q60.9458 254.464 59.0708 254.88 Q57.2189 255.297 55.2745 256.177 L55.2745 238.816 Z" fill="#000000" fill-rule="nonzero" fill-opacity="1" /><circle clip-path="url(#clip021)" cx="2289.34" cy="1326.51" r="14.4" fill="#808080" fill-rule="evenodd" fill-opacity="1" stroke="#000000" stroke-opacity="1" stroke-width="3.2"/>
<circle clip-path="url(#clip021)" cx="175.59" cy="87.9763" r="14.4" fill="#808080" fill-rule="evenodd" fill-opacity="1" stroke="#000000" stroke-opacity="1" stroke-width="3.2"/>
<circle clip-path="url(#clip021)" cx="1639.38" cy="1445.72" r="14.4" fill="#808080" fill-rule="evenodd" fill-opacity="1" stroke="#000000" stroke-opacity="1" stroke-width="3.2"/>
<circle clip-path="url(#clip021)" cx="1506.52" cy="1423.81" r="14.4" fill="#808080" fill-rule="evenodd" fill-opacity="1" stroke="#000000" stroke-opacity="1" stroke-width="3.2"/>
<path clip-path="url(#clip020)" d="M2293.64 1333.94 Q2284.6 1333.94 2281.12 1336.01 Q2277.64 1338.08 2277.64 1343.06 Q2277.64 1347.03 2280.23 1349.38 Q2282.86 1351.69 2287.36 1351.69 Q2293.56 1351.69 2297.28 1347.31 Q2301.05 1342.9 2301.05 1335.6 L2301.05 1333.94 L2293.64 1333.94 M2308.5 1330.86 L2308.5 1356.75 L2301.05 1356.75 L2301.05 1349.86 Q2298.5 1354 2294.69 1355.98 Q2290.88 1357.92 2285.37 1357.92 Q2278.41 1357.92 2274.27 1354.04 Q2270.18 1350.11 2270.18 1343.54 Q2270.18 1335.89 2275.29 1332 Q2280.43 1328.11 2290.6 1328.11 L2301.05 1328.11 L2301.05 1327.38 Q2301.05 1322.24 2297.65 1319.44 Q2294.29 1316.61 2288.17 1316.61 Q2284.28 1316.61 2280.59 1317.54 Q2276.91 1318.47 2273.5 1320.33 L2273.5 1313.45 Q2277.6 1311.87 2281.44 1311.1 Q2285.29 1310.29 2288.94 1310.29 Q2298.78 1310.29 2303.64 1315.39 Q2308.5 1320.49 2308.5 1330.86 Z" fill="#000000" fill-rule="nonzero" fill-opacity="1" /><path clip-path="url(#clip020)" d="M188.148 95.5717 Q188.148 87.3484 184.745 82.6898 Q181.383 77.9908 175.468 77.9908 Q169.554 77.9908 166.151 82.6898 Q162.789 87.3484 162.789 95.5717 Q162.789 103.795 166.151 108.494 Q169.554 113.153 175.468 113.153 Q181.383 113.153 184.745 108.494 Q188.148 103.795 188.148 95.5717 M162.789 79.7327 Q165.138 75.6818 168.703 73.7373 Q172.309 71.7524 177.291 71.7524 Q185.555 71.7524 190.7 78.3149 Q195.885 84.8773 195.885 95.5717 Q195.885 106.266 190.7 112.829 Q185.555 119.391 177.291 119.391 Q172.309 119.391 168.703 117.447 Q165.138 115.462 162.789 111.411 L162.789 118.216 L155.295 118.216 L155.295 55.1842 L162.789 55.1842 L162.789 79.7327 Z" fill="#000000" fill-rule="nonzero" fill-opacity="1" /><path clip-path="url(#clip020)" d="M1657.33 1432.33 L1657.33 1439.3 Q1654.17 1437.55 1650.97 1436.7 Q1647.81 1435.81 1644.57 1435.81 Q1637.32 1435.81 1633.31 1440.43 Q1629.3 1445.01 1629.3 1453.31 Q1629.3 1461.62 1633.31 1466.23 Q1637.32 1470.81 1644.57 1470.81 Q1647.81 1470.81 1650.97 1469.96 Q1654.17 1469.07 1657.33 1467.33 L1657.33 1474.21 Q1654.21 1475.67 1650.85 1476.4 Q1647.52 1477.13 1643.76 1477.13 Q1633.51 1477.13 1627.47 1470.69 Q1621.44 1464.25 1621.44 1453.31 Q1621.44 1442.21 1627.51 1435.85 Q1633.63 1429.49 1644.24 1429.49 Q1647.69 1429.49 1650.97 1430.22 Q1654.25 1430.91 1657.33 1432.33 Z" fill="#000000" fill-rule="nonzero" fill-opacity="1" /><path clip-path="url(#clip020)" d="M1519.35 1415.57 L1519.35 1391.02 L1526.8 1391.02 L1526.8 1454.05 L1519.35 1454.05 L1519.35 1447.25 Q1517 1451.3 1513.39 1453.28 Q1509.83 1455.23 1504.8 1455.23 Q1496.58 1455.23 1491.39 1448.67 Q1486.25 1442.1 1486.25 1431.41 Q1486.25 1420.71 1491.39 1414.15 Q1496.58 1407.59 1504.8 1407.59 Q1509.83 1407.59 1513.39 1409.57 Q1517 1411.52 1519.35 1415.57 M1493.95 1431.41 Q1493.95 1439.63 1497.31 1444.33 Q1500.71 1448.99 1506.63 1448.99 Q1512.54 1448.99 1515.94 1444.33 Q1519.35 1439.63 1519.35 1431.41 Q1519.35 1423.19 1515.94 1418.53 Q1512.54 1413.83 1506.63 1413.83 Q1500.71 1413.83 1497.31 1418.53 Q1493.95 1423.19 1493.95 1431.41 Z" fill="#000000" fill-rule="nonzero" fill-opacity="1" /><path clip-path="url(#clip020)" d="M2001.58 198.898 L2278.07 198.898 L2278.07 95.2176 L2001.58 95.2176  Z" fill="#ffffff" fill-rule="evenodd" fill-opacity="1"/>
<polyline clip-path="url(#clip020)" style="stroke:#000000; stroke-linecap:round; stroke-linejoin:round; stroke-width:4; stroke-opacity:1; fill:none" points="2001.58,198.898 2278.07,198.898 2278.07,95.2176 2001.58,95.2176 2001.58,198.898 "/>
<circle clip-path="url(#clip020)" cx="2101.16" cy="147.058" r="20.48" fill="#808080" fill-rule="evenodd" fill-opacity="1" stroke="#000000" stroke-opacity="1" stroke-width="4.55111"/>
<path clip-path="url(#clip020)" d="M2214.59 166.745 Q2212.78 171.375 2211.07 172.787 Q2209.36 174.199 2206.49 174.199 L2203.08 174.199 L2203.08 170.634 L2205.58 170.634 Q2207.34 170.634 2208.31 169.8 Q2209.29 168.967 2210.47 165.865 L2211.23 163.921 L2200.74 138.412 L2205.26 138.412 L2213.36 158.689 L2221.46 138.412 L2225.98 138.412 L2214.59 166.745 Z" fill="#000000" fill-rule="nonzero" fill-opacity="1" /><path clip-path="url(#clip020)" d="M2233.27 160.402 L2240.91 160.402 L2240.91 134.037 L2232.6 135.703 L2232.6 131.444 L2240.86 129.778 L2245.54 129.778 L2245.54 160.402 L2253.17 160.402 L2253.17 164.338 L2233.27 164.338 L2233.27 160.402 Z" fill="#000000" fill-rule="nonzero" fill-opacity="1" /></svg>
