<?xml version="1.0" encoding="utf-8"?>
<svg xmlns="http://www.w3.org/2000/svg" xmlns:xlink="http://www.w3.org/1999/xlink" width="600" height="400" viewBox="0 0 2400 1600">
<defs>
  <clipPath id="clip990">
    <rect x="0" y="0" width="2400" height="1600"/>
  </clipPath>
</defs>
<path clip-path="url(#clip990)" d="M0 1600 L2400 1600 L2400 0 L0 0  Z" fill="#ffffff" fill-rule="evenodd" fill-opacity="1"/>
<defs>
  <clipPath id="clip991">
    <rect x="186" y="47" width="2167" height="1440"/>
  </clipPath>
</defs>
<path clip-path="url(#clip990)" d="M186.274 1486.45 L2352.76 1486.45 L2352.76 47.2441 L186.274 47.2441  Z" fill="#ffffff" fill-rule="evenodd" fill-opacity="1"/>
<polyline clip-path="url(#clip991)" style="stroke:#000000; stroke-linecap:round; stroke-linejoin:round; stroke-width:2; stroke-opacity:0.1; fill:none" points="401.252,1486.45 401.252,47.2441 "/>
<polyline clip-path="url(#clip991)" style="stroke:#000000; stroke-linecap:round; stroke-linejoin:round; stroke-width:2; stroke-opacity:0.1; fill:none" points="901.827,1486.45 901.827,47.2441 "/>
<polyline clip-path="url(#clip991)" style="stroke:#000000; stroke-linecap:round; stroke-linejoin:round; stroke-width:2; stroke-opacity:0.1; fill:none" points="1402.4,1486.45 1402.4,47.2441 "/>
<polyline clip-path="url(#clip991)" style="stroke:#000000; stroke-linecap:round; stroke-linejoin:round; stroke-width:2; stroke-opacity:0.1; fill:none" points="1902.98,1486.45 1902.98,47.2441 "/>
<polyline clip-path="url(#clip991)" style="stroke:#000000; stroke-linecap:round; stroke-linejoin:round; stroke-width:2; stroke-opacity:0.1; fill:none" points="186.274,1451.11 2352.76,1451.11 "/>
<polyline clip-path="url(#clip991)" style="stroke:#000000; stroke-linecap:round; stroke-linejoin:round; stroke-width:2; stroke-opacity:0.1; fill:none" points="186.274,1175.12 2352.76,1175.12 "/>
<polyline clip-path="url(#clip991)" style="stroke:#000000; stroke-linecap:round; stroke-linejoin:round; stroke-width:2; stroke-opacity:0.1; fill:none" points="186.274,899.126 2352.76,899.126 "/>
<polyline clip-path="url(#clip991)" style="stroke:#000000; stroke-linecap:round; stroke-linejoin:round; stroke-width:2; stroke-opacity:0.1; fill:none" points="186.274,623.137 2352.76,623.137 "/>
<polyline clip-path="url(#clip991)" style="stroke:#000000; stroke-linecap:round; stroke-linejoin:round; stroke-width:2; stroke-opacity:0.1; fill:none" points="186.274,347.147 2352.76,347.147 "/>
<polyline clip-path="url(#clip991)" style="stroke:#000000; stroke-linecap:round; stroke-linejoin:round; stroke-width:2; stroke-opacity:0.1; fill:none" points="186.274,71.1576 2352.76,71.1576 "/>
<polyline clip-path="url(#clip990)" style="stroke:#000000; stroke-linecap:round; stroke-linejoin:round; stroke-width:4; stroke-opacity:1; fill:none" points="186.274,1486.45 2352.76,1486.45 "/>
<polyline clip-path="url(#clip990)" style="stroke:#000000; stroke-linecap:round; stroke-linejoin:round; stroke-width:4; stroke-opacity:1; fill:none" points="401.252,1486.45 401.252,1467.55 "/>
<polyline clip-path="url(#clip990)" style="stroke:#000000; stroke-linecap:round; stroke-linejoin:round; stroke-width:4; stroke-opacity:1; fill:none" points="901.827,1486.45 901.827,1467.55 "/>
<polyline clip-path="url(#clip990)" style="stroke:#000000; stroke-linecap:round; stroke-linejoin:round; stroke-width:4; stroke-opacity:1; fill:none" points="1402.4,1486.45 1402.4,1467.55 "/>
<polyline clip-path="url(#clip990)" style="stroke:#000000; stroke-linecap:round; stroke-linejoin:round; stroke-width:4; stroke-opacity:1; fill:none" points="1902.98,1486.45 1902.98,1467.55 "/>
<path clip-path="url(#clip990)" d="M347.537 1532.02 L377.212 1532.02 L377.212 1535.95 L347.537 1535.95 L347.537 1532.02 Z" fill="#000000" fill-rule="nonzero" fill-opacity="1" /><path clip-path="url(#clip990)" d="M397.305 1517.37 Q393.694 1517.37 391.865 1520.93 Q390.059 1524.47 390.059 1531.6 Q390.059 1538.71 391.865 1542.27 Q393.694 1545.82 397.305 1545.82 Q400.939 1545.82 402.745 1542.27 Q404.573 1538.71 404.573 1531.6 Q404.573 1524.47 402.745 1520.93 Q400.939 1517.37 397.305 1517.37 M397.305 1513.66 Q403.115 1513.66 406.17 1518.27 Q409.249 1522.85 409.249 1531.6 Q409.249 1540.33 406.17 1544.94 Q403.115 1549.52 397.305 1549.52 Q391.495 1549.52 388.416 1544.94 Q385.36 1540.33 385.36 1531.6 Q385.36 1522.85 388.416 1518.27 Q391.495 1513.66 397.305 1513.66 Z" fill="#000000" fill-rule="nonzero" fill-opacity="1" /><path clip-path="url(#clip990)" d="M417.467 1542.97 L422.351 1542.97 L422.351 1548.85 L417.467 1548.85 L417.467 1542.97 Z" fill="#000000" fill-rule="nonzero" fill-opacity="1" /><path clip-path="url(#clip990)" d="M445.383 1518.36 L433.578 1536.81 L445.383 1536.81 L445.383 1518.36 M444.156 1514.29 L450.036 1514.29 L450.036 1536.81 L454.967 1536.81 L454.967 1540.7 L450.036 1540.7 L450.036 1548.85 L445.383 1548.85 L445.383 1540.7 L429.781 1540.7 L429.781 1536.19 L444.156 1514.29 Z" fill="#000000" fill-rule="nonzero" fill-opacity="1" /><path clip-path="url(#clip990)" d="M849.153 1532.02 L878.829 1532.02 L878.829 1535.95 L849.153 1535.95 L849.153 1532.02 Z" fill="#000000" fill-rule="nonzero" fill-opacity="1" /><path clip-path="url(#clip990)" d="M898.922 1517.37 Q895.311 1517.37 893.482 1520.93 Q891.676 1524.47 891.676 1531.6 Q891.676 1538.71 893.482 1542.27 Q895.311 1545.82 898.922 1545.82 Q902.556 1545.82 904.361 1542.27 Q906.19 1538.71 906.19 1531.6 Q906.19 1524.47 904.361 1520.93 Q902.556 1517.37 898.922 1517.37 M898.922 1513.66 Q904.732 1513.66 907.787 1518.27 Q910.866 1522.85 910.866 1531.6 Q910.866 1540.33 907.787 1544.94 Q904.732 1549.52 898.922 1549.52 Q893.111 1549.52 890.033 1544.94 Q886.977 1540.33 886.977 1531.6 Q886.977 1522.85 890.033 1518.27 Q893.111 1513.66 898.922 1513.66 Z" fill="#000000" fill-rule="nonzero" fill-opacity="1" /><path clip-path="url(#clip990)" d="M919.084 1542.97 L923.968 1542.97 L923.968 1548.85 L919.084 1548.85 L919.084 1542.97 Z" fill="#000000" fill-rule="nonzero" fill-opacity="1" /><path clip-path="url(#clip990)" d="M938.181 1544.91 L954.5 1544.91 L954.5 1548.85 L932.556 1548.85 L932.556 1544.91 Q935.218 1542.16 939.801 1537.53 Q944.408 1532.88 945.588 1531.53 Q947.833 1529.01 948.713 1527.27 Q949.616 1525.51 949.616 1523.82 Q949.616 1521.07 947.671 1519.33 Q945.75 1517.6 942.648 1517.6 Q940.449 1517.6 937.996 1518.36 Q935.565 1519.13 932.787 1520.68 L932.787 1515.95 Q935.611 1514.82 938.065 1514.24 Q940.519 1513.66 942.556 1513.66 Q947.926 1513.66 951.12 1516.35 Q954.315 1519.03 954.315 1523.52 Q954.315 1525.65 953.505 1527.57 Q952.718 1529.47 950.611 1532.07 Q950.032 1532.74 946.931 1535.95 Q943.829 1539.15 938.181 1544.91 Z" fill="#000000" fill-rule="nonzero" fill-opacity="1" /><path clip-path="url(#clip990)" d="M1379.79 1517.37 Q1376.18 1517.37 1374.35 1520.93 Q1372.54 1524.47 1372.54 1531.6 Q1372.54 1538.71 1374.35 1542.27 Q1376.18 1545.82 1379.79 1545.82 Q1383.42 1545.82 1385.23 1542.27 Q1387.05 1538.71 1387.05 1531.6 Q1387.05 1524.47 1385.23 1520.93 Q1383.42 1517.37 1379.79 1517.37 M1379.79 1513.66 Q1385.6 1513.66 1388.65 1518.27 Q1391.73 1522.85 1391.73 1531.6 Q1391.73 1540.33 1388.65 1544.94 Q1385.6 1549.52 1379.79 1549.52 Q1373.98 1549.52 1370.9 1544.94 Q1367.84 1540.33 1367.84 1531.6 Q1367.84 1522.85 1370.9 1518.27 Q1373.98 1513.66 1379.79 1513.66 Z" fill="#000000" fill-rule="nonzero" fill-opacity="1" /><path clip-path="url(#clip990)" d="M1399.95 1542.97 L1404.83 1542.97 L1404.83 1548.85 L1399.95 1548.85 L1399.95 1542.97 Z" fill="#000000" fill-rule="nonzero" fill-opacity="1" /><path clip-path="url(#clip990)" d="M1425.02 1517.37 Q1421.41 1517.37 1419.58 1520.93 Q1417.77 1524.47 1417.77 1531.6 Q1417.77 1538.71 1419.58 1542.27 Q1421.41 1545.82 1425.02 1545.82 Q1428.65 1545.82 1430.46 1542.27 Q1432.29 1538.71 1432.29 1531.6 Q1432.29 1524.47 1430.46 1520.93 Q1428.65 1517.37 1425.02 1517.37 M1425.02 1513.66 Q1430.83 1513.66 1433.88 1518.27 Q1436.96 1522.85 1436.96 1531.6 Q1436.96 1540.33 1433.88 1544.94 Q1430.83 1549.52 1425.02 1549.52 Q1419.21 1549.52 1416.13 1544.94 Q1413.07 1540.33 1413.07 1531.6 Q1413.07 1522.85 1416.13 1518.27 Q1419.21 1513.66 1425.02 1513.66 Z" fill="#000000" fill-rule="nonzero" fill-opacity="1" /><path clip-path="url(#clip990)" d="M1881.16 1517.37 Q1877.55 1517.37 1875.72 1520.93 Q1873.91 1524.47 1873.91 1531.6 Q1873.91 1538.71 1875.72 1542.27 Q1877.55 1545.82 1881.16 1545.82 Q1884.79 1545.82 1886.6 1542.27 Q1888.43 1538.71 1888.43 1531.6 Q1888.43 1524.47 1886.6 1520.93 Q1884.79 1517.37 1881.16 1517.37 M1881.16 1513.66 Q1886.97 1513.66 1890.03 1518.27 Q1893.1 1522.85 1893.1 1531.6 Q1893.1 1540.33 1890.03 1544.94 Q1886.97 1549.52 1881.16 1549.52 Q1875.35 1549.52 1872.27 1544.94 Q1869.22 1540.33 1869.22 1531.6 Q1869.22 1522.85 1872.27 1518.27 Q1875.35 1513.66 1881.16 1513.66 Z" fill="#000000" fill-rule="nonzero" fill-opacity="1" /><path clip-path="url(#clip990)" d="M1901.32 1542.97 L1906.21 1542.97 L1906.21 1548.85 L1901.32 1548.85 L1901.32 1542.97 Z" fill="#000000" fill-rule="nonzero" fill-opacity="1" /><path clip-path="url(#clip990)" d="M1920.42 1544.91 L1936.74 1544.91 L1936.74 1548.85 L1914.79 1548.85 L1914.79 1544.91 Q1917.46 1542.16 1922.04 1537.53 Q1926.65 1532.88 1927.83 1531.53 Q1930.07 1529.01 1930.95 1527.27 Q1931.85 1525.51 1931.85 1523.82 Q1931.85 1521.07 1929.91 1519.33 Q1927.99 1517.6 1924.89 1517.6 Q1922.69 1517.6 1920.23 1518.36 Q1917.8 1519.13 1915.03 1520.68 L1915.03 1515.95 Q1917.85 1514.82 1920.3 1514.24 Q1922.76 1513.66 1924.79 1513.66 Q1930.16 1513.66 1933.36 1516.35 Q1936.55 1519.03 1936.55 1523.52 Q1936.55 1525.65 1935.74 1527.57 Q1934.96 1529.47 1932.85 1532.07 Q1932.27 1532.74 1929.17 1535.95 Q1926.07 1539.15 1920.42 1544.91 Z" fill="#000000" fill-rule="nonzero" fill-opacity="1" /><polyline clip-path="url(#clip990)" style="stroke:#000000; stroke-linecap:round; stroke-linejoin:round; stroke-width:4; stroke-opacity:1; fill:none" points="186.274,1486.45 186.274,47.2441 "/>
<polyline clip-path="url(#clip990)" style="stroke:#000000; stroke-linecap:round; stroke-linejoin:round; stroke-width:4; stroke-opacity:1; fill:none" points="186.274,1451.11 205.172,1451.11 "/>
<polyline clip-path="url(#clip990)" style="stroke:#000000; stroke-linecap:round; stroke-linejoin:round; stroke-width:4; stroke-opacity:1; fill:none" points="186.274,1175.12 205.172,1175.12 "/>
<polyline clip-path="url(#clip990)" style="stroke:#000000; stroke-linecap:round; stroke-linejoin:round; stroke-width:4; stroke-opacity:1; fill:none" points="186.274,899.126 205.172,899.126 "/>
<polyline clip-path="url(#clip990)" style="stroke:#000000; stroke-linecap:round; stroke-linejoin:round; stroke-width:4; stroke-opacity:1; fill:none" points="186.274,623.137 205.172,623.137 "/>
<polyline clip-path="url(#clip990)" style="stroke:#000000; stroke-linecap:round; stroke-linejoin:round; stroke-width:4; stroke-opacity:1; fill:none" points="186.274,347.147 205.172,347.147 "/>
<polyline clip-path="url(#clip990)" style="stroke:#000000; stroke-linecap:round; stroke-linejoin:round; stroke-width:4; stroke-opacity:1; fill:none" points="186.274,71.1576 205.172,71.1576 "/>
<path clip-path="url(#clip990)" d="M62.9365 1436.9 Q59.3254 1436.9 57.4967 1440.47 Q55.6912 1444.01 55.6912 1451.14 Q55.6912 1458.25 57.4967 1461.81 Q59.3254 1465.35 62.9365 1465.35 Q66.5707 1465.35 68.3763 1461.81 Q70.205 1458.25 70.205 1451.14 Q70.205 1444.01 68.3763 1440.47 Q66.5707 1436.9 62.9365 1436.9 M62.9365 1433.2 Q68.7467 1433.2 71.8022 1437.81 Q74.8809 1442.39 74.8809 1451.14 Q74.8809 1459.87 71.8022 1464.47 Q68.7467 1469.06 62.9365 1469.06 Q57.1264 1469.06 54.0477 1464.47 Q50.9921 1459.87 50.9921 1451.14 Q50.9921 1442.39 54.0477 1437.81 Q57.1264 1433.2 62.9365 1433.2 Z" fill="#000000" fill-rule="nonzero" fill-opacity="1" /><path clip-path="url(#clip990)" d="M83.0984 1462.51 L87.9827 1462.51 L87.9827 1468.39 L83.0984 1468.39 L83.0984 1462.51 Z" fill="#000000" fill-rule="nonzero" fill-opacity="1" /><path clip-path="url(#clip990)" d="M108.168 1436.9 Q104.557 1436.9 102.728 1440.47 Q100.922 1444.01 100.922 1451.14 Q100.922 1458.25 102.728 1461.81 Q104.557 1465.35 108.168 1465.35 Q111.802 1465.35 113.608 1461.81 Q115.436 1458.25 115.436 1451.14 Q115.436 1444.01 113.608 1440.47 Q111.802 1436.9 108.168 1436.9 M108.168 1433.2 Q113.978 1433.2 117.033 1437.81 Q120.112 1442.39 120.112 1451.14 Q120.112 1459.87 117.033 1464.47 Q113.978 1469.06 108.168 1469.06 Q102.358 1469.06 99.2789 1464.47 Q96.2234 1459.87 96.2234 1451.14 Q96.2234 1442.39 99.2789 1437.81 Q102.358 1433.2 108.168 1433.2 Z" fill="#000000" fill-rule="nonzero" fill-opacity="1" /><path clip-path="url(#clip990)" d="M138.33 1436.9 Q134.719 1436.9 132.89 1440.47 Q131.084 1444.01 131.084 1451.14 Q131.084 1458.25 132.89 1461.81 Q134.719 1465.35 138.33 1465.35 Q141.964 1465.35 143.769 1461.81 Q145.598 1458.25 145.598 1451.14 Q145.598 1444.01 143.769 1440.47 Q141.964 1436.9 138.33 1436.9 M138.33 1433.2 Q144.14 1433.2 147.195 1437.81 Q150.274 1442.39 150.274 1451.14 Q150.274 1459.87 147.195 1464.47 Q144.14 1469.06 138.33 1469.06 Q132.519 1469.06 129.441 1464.47 Q126.385 1459.87 126.385 1451.14 Q126.385 1442.39 129.441 1437.81 Q132.519 1433.2 138.33 1433.2 Z" fill="#000000" fill-rule="nonzero" fill-opacity="1" /><path clip-path="url(#clip990)" d="M63.9319 1160.91 Q60.3208 1160.91 58.4921 1164.48 Q56.6865 1168.02 56.6865 1175.15 Q56.6865 1182.26 58.4921 1185.82 Q60.3208 1189.36 63.9319 1189.36 Q67.5661 1189.36 69.3717 1185.82 Q71.2004 1182.26 71.2004 1175.15 Q71.2004 1168.02 69.3717 1164.48 Q67.5661 1160.91 63.9319 1160.91 M63.9319 1157.21 Q69.742 1157.21 72.7976 1161.82 Q75.8763 1166.4 75.8763 1175.15 Q75.8763 1183.88 72.7976 1188.48 Q69.742 1193.07 63.9319 1193.07 Q58.1217 1193.07 55.043 1188.48 Q51.9875 1183.88 51.9875 1175.15 Q51.9875 1166.4 55.043 1161.82 Q58.1217 1157.21 63.9319 1157.21 Z" fill="#000000" fill-rule="nonzero" fill-opacity="1" /><path clip-path="url(#clip990)" d="M84.0938 1186.52 L88.978 1186.52 L88.978 1192.4 L84.0938 1192.4 L84.0938 1186.52 Z" fill="#000000" fill-rule="nonzero" fill-opacity="1" /><path clip-path="url(#clip990)" d="M109.163 1160.91 Q105.552 1160.91 103.723 1164.48 Q101.918 1168.02 101.918 1175.15 Q101.918 1182.26 103.723 1185.82 Q105.552 1189.36 109.163 1189.36 Q112.797 1189.36 114.603 1185.82 Q116.432 1182.26 116.432 1175.15 Q116.432 1168.02 114.603 1164.48 Q112.797 1160.91 109.163 1160.91 M109.163 1157.21 Q114.973 1157.21 118.029 1161.82 Q121.107 1166.4 121.107 1175.15 Q121.107 1183.88 118.029 1188.48 Q114.973 1193.07 109.163 1193.07 Q103.353 1193.07 100.274 1188.48 Q97.2187 1183.88 97.2187 1175.15 Q97.2187 1166.4 100.274 1161.82 Q103.353 1157.21 109.163 1157.21 Z" fill="#000000" fill-rule="nonzero" fill-opacity="1" /><path clip-path="url(#clip990)" d="M129.371 1157.84 L147.728 1157.84 L147.728 1161.77 L133.654 1161.77 L133.654 1170.24 Q134.672 1169.9 135.691 1169.73 Q136.709 1169.55 137.728 1169.55 Q143.515 1169.55 146.894 1172.72 Q150.274 1175.89 150.274 1181.31 Q150.274 1186.89 146.802 1189.99 Q143.33 1193.07 137.01 1193.07 Q134.834 1193.07 132.566 1192.7 Q130.32 1192.33 127.913 1191.59 L127.913 1186.89 Q129.996 1188.02 132.219 1188.58 Q134.441 1189.13 136.918 1189.13 Q140.922 1189.13 143.26 1187.03 Q145.598 1184.92 145.598 1181.31 Q145.598 1177.7 143.26 1175.59 Q140.922 1173.48 136.918 1173.48 Q135.043 1173.48 133.168 1173.9 Q131.316 1174.32 129.371 1175.2 L129.371 1157.84 Z" fill="#000000" fill-rule="nonzero" fill-opacity="1" /><path clip-path="url(#clip990)" d="M62.9365 884.925 Q59.3254 884.925 57.4967 888.49 Q55.6912 892.031 55.6912 899.161 Q55.6912 906.267 57.4967 909.832 Q59.3254 913.374 62.9365 913.374 Q66.5707 913.374 68.3763 909.832 Q70.205 906.267 70.205 899.161 Q70.205 892.031 68.3763 888.49 Q66.5707 884.925 62.9365 884.925 M62.9365 881.221 Q68.7467 881.221 71.8022 885.828 Q74.8809 890.411 74.8809 899.161 Q74.8809 907.888 71.8022 912.494 Q68.7467 917.077 62.9365 917.077 Q57.1264 917.077 54.0477 912.494 Q50.9921 907.888 50.9921 899.161 Q50.9921 890.411 54.0477 885.828 Q57.1264 881.221 62.9365 881.221 Z" fill="#000000" fill-rule="nonzero" fill-opacity="1" /><path clip-path="url(#clip990)" d="M83.0984 910.527 L87.9827 910.527 L87.9827 916.406 L83.0984 916.406 L83.0984 910.527 Z" fill="#000000" fill-rule="nonzero" fill-opacity="1" /><path clip-path="url(#clip990)" d="M98.978 912.471 L106.617 912.471 L106.617 886.105 L98.3067 887.772 L98.3067 883.513 L106.571 881.846 L111.246 881.846 L111.246 912.471 L118.885 912.471 L118.885 916.406 L98.978 916.406 L98.978 912.471 Z" fill="#000000" fill-rule="nonzero" fill-opacity="1" /><path clip-path="url(#clip990)" d="M138.33 884.925 Q134.719 884.925 132.89 888.49 Q131.084 892.031 131.084 899.161 Q131.084 906.267 132.89 909.832 Q134.719 913.374 138.33 913.374 Q141.964 913.374 143.769 909.832 Q145.598 906.267 145.598 899.161 Q145.598 892.031 143.769 888.49 Q141.964 884.925 138.33 884.925 M138.33 881.221 Q144.14 881.221 147.195 885.828 Q150.274 890.411 150.274 899.161 Q150.274 907.888 147.195 912.494 Q144.14 917.077 138.33 917.077 Q132.519 917.077 129.441 912.494 Q126.385 907.888 126.385 899.161 Q126.385 890.411 129.441 885.828 Q132.519 881.221 138.33 881.221 Z" fill="#000000" fill-rule="nonzero" fill-opacity="1" /><path clip-path="url(#clip990)" d="M63.9319 608.935 Q60.3208 608.935 58.4921 612.5 Q56.6865 616.042 56.6865 623.171 Q56.6865 630.278 58.4921 633.843 Q60.3208 637.384 63.9319 637.384 Q67.5661 637.384 69.3717 633.843 Q71.2004 630.278 71.2004 623.171 Q71.2004 616.042 69.3717 612.5 Q67.5661 608.935 63.9319 608.935 M63.9319 605.232 Q69.742 605.232 72.7976 609.838 Q75.8763 614.421 75.8763 623.171 Q75.8763 631.898 72.7976 636.505 Q69.742 641.088 63.9319 641.088 Q58.1217 641.088 55.043 636.505 Q51.9875 631.898 51.9875 623.171 Q51.9875 614.421 55.043 609.838 Q58.1217 605.232 63.9319 605.232 Z" fill="#000000" fill-rule="nonzero" fill-opacity="1" /><path clip-path="url(#clip990)" d="M84.0938 634.537 L88.978 634.537 L88.978 640.417 L84.0938 640.417 L84.0938 634.537 Z" fill="#000000" fill-rule="nonzero" fill-opacity="1" /><path clip-path="url(#clip990)" d="M99.9733 636.481 L107.612 636.481 L107.612 610.116 L99.3021 611.783 L99.3021 607.523 L107.566 605.857 L112.242 605.857 L112.242 636.481 L119.881 636.481 L119.881 640.417 L99.9733 640.417 L99.9733 636.481 Z" fill="#000000" fill-rule="nonzero" fill-opacity="1" /><path clip-path="url(#clip990)" d="M129.371 605.857 L147.728 605.857 L147.728 609.792 L133.654 609.792 L133.654 618.264 Q134.672 617.917 135.691 617.755 Q136.709 617.57 137.728 617.57 Q143.515 617.57 146.894 620.741 Q150.274 623.912 150.274 629.329 Q150.274 634.907 146.802 638.009 Q143.33 641.088 137.01 641.088 Q134.834 641.088 132.566 640.718 Q130.32 640.347 127.913 639.606 L127.913 634.907 Q129.996 636.042 132.219 636.597 Q134.441 637.153 136.918 637.153 Q140.922 637.153 143.26 635.046 Q145.598 632.94 145.598 629.329 Q145.598 625.718 143.26 623.611 Q140.922 621.505 136.918 621.505 Q135.043 621.505 133.168 621.921 Q131.316 622.338 129.371 623.218 L129.371 605.857 Z" fill="#000000" fill-rule="nonzero" fill-opacity="1" /><path clip-path="url(#clip990)" d="M62.9365 332.946 Q59.3254 332.946 57.4967 336.511 Q55.6912 340.052 55.6912 347.182 Q55.6912 354.288 57.4967 357.853 Q59.3254 361.395 62.9365 361.395 Q66.5707 361.395 68.3763 357.853 Q70.205 354.288 70.205 347.182 Q70.205 340.052 68.3763 336.511 Q66.5707 332.946 62.9365 332.946 M62.9365 329.242 Q68.7467 329.242 71.8022 333.849 Q74.8809 338.432 74.8809 347.182 Q74.8809 355.909 71.8022 360.515 Q68.7467 365.098 62.9365 365.098 Q57.1264 365.098 54.0477 360.515 Q50.9921 355.909 50.9921 347.182 Q50.9921 338.432 54.0477 333.849 Q57.1264 329.242 62.9365 329.242 Z" fill="#000000" fill-rule="nonzero" fill-opacity="1" /><path clip-path="url(#clip990)" d="M83.0984 358.548 L87.9827 358.548 L87.9827 364.427 L83.0984 364.427 L83.0984 358.548 Z" fill="#000000" fill-rule="nonzero" fill-opacity="1" /><path clip-path="url(#clip990)" d="M102.196 360.492 L118.515 360.492 L118.515 364.427 L96.5706 364.427 L96.5706 360.492 Q99.2326 357.737 103.816 353.108 Q108.422 348.455 109.603 347.112 Q111.848 344.589 112.728 342.853 Q113.631 341.094 113.631 339.404 Q113.631 336.649 111.686 334.913 Q109.765 333.177 106.663 333.177 Q104.464 333.177 102.01 333.941 Q99.5798 334.705 96.8021 336.256 L96.8021 331.534 Q99.6261 330.4 102.08 329.821 Q104.534 329.242 106.571 329.242 Q111.941 329.242 115.135 331.927 Q118.33 334.612 118.33 339.103 Q118.33 341.233 117.52 343.154 Q116.733 345.052 114.626 347.645 Q114.047 348.316 110.946 351.534 Q107.844 354.728 102.196 360.492 Z" fill="#000000" fill-rule="nonzero" fill-opacity="1" /><path clip-path="url(#clip990)" d="M138.33 332.946 Q134.719 332.946 132.89 336.511 Q131.084 340.052 131.084 347.182 Q131.084 354.288 132.89 357.853 Q134.719 361.395 138.33 361.395 Q141.964 361.395 143.769 357.853 Q145.598 354.288 145.598 347.182 Q145.598 340.052 143.769 336.511 Q141.964 332.946 138.33 332.946 M138.33 329.242 Q144.14 329.242 147.195 333.849 Q150.274 338.432 150.274 347.182 Q150.274 355.909 147.195 360.515 Q144.14 365.098 138.33 365.098 Q132.519 365.098 129.441 360.515 Q126.385 355.909 126.385 347.182 Q126.385 338.432 129.441 333.849 Q132.519 329.242 138.33 329.242 Z" fill="#000000" fill-rule="nonzero" fill-opacity="1" /><path clip-path="url(#clip990)" d="M63.9319 56.9563 Q60.3208 56.9563 58.4921 60.5211 Q56.6865 64.0628 56.6865 71.1923 Q56.6865 78.2988 58.4921 81.8636 Q60.3208 85.4052 63.9319 85.4052 Q67.5661 85.4052 69.3717 81.8636 Q71.2004 78.2988 71.2004 71.1923 Q71.2004 64.0628 69.3717 60.5211 Q67.5661 56.9563 63.9319 56.9563 M63.9319 53.2526 Q69.742 53.2526 72.7976 57.8591 Q75.8763 62.4424 75.8763 71.1923 Q75.8763 79.9192 72.7976 84.5256 Q69.742 89.1089 63.9319 89.1089 Q58.1217 89.1089 55.043 84.5256 Q51.9875 79.9192 51.9875 71.1923 Q51.9875 62.4424 55.043 57.8591 Q58.1217 53.2526 63.9319 53.2526 Z" fill="#000000" fill-rule="nonzero" fill-opacity="1" /><path clip-path="url(#clip990)" d="M84.0938 82.558 L88.978 82.558 L88.978 88.4376 L84.0938 88.4376 L84.0938 82.558 Z" fill="#000000" fill-rule="nonzero" fill-opacity="1" /><path clip-path="url(#clip990)" d="M103.191 84.5025 L119.51 84.5025 L119.51 88.4376 L97.566 88.4376 L97.566 84.5025 Q100.228 81.7478 104.811 77.1182 Q109.418 72.4655 110.598 71.1229 Q112.844 68.5998 113.723 66.8637 Q114.626 65.1044 114.626 63.4146 Q114.626 60.66 112.682 58.9239 Q110.76 57.1878 107.658 57.1878 Q105.459 57.1878 103.006 57.9517 Q100.575 58.7156 97.7974 60.2665 L97.7974 55.5443 Q100.621 54.41 103.075 53.8313 Q105.529 53.2526 107.566 53.2526 Q112.936 53.2526 116.131 55.9378 Q119.325 58.623 119.325 63.1137 Q119.325 65.2433 118.515 67.1646 Q117.728 69.0627 115.621 71.6553 Q115.043 72.3266 111.941 75.5442 Q108.839 78.7386 103.191 84.5025 Z" fill="#000000" fill-rule="nonzero" fill-opacity="1" /><path clip-path="url(#clip990)" d="M129.371 53.8776 L147.728 53.8776 L147.728 57.8128 L133.654 57.8128 L133.654 66.285 Q134.672 65.9377 135.691 65.7757 Q136.709 65.5905 137.728 65.5905 Q143.515 65.5905 146.894 68.7618 Q150.274 71.9331 150.274 77.3497 Q150.274 82.9284 146.802 86.0302 Q143.33 89.1089 137.01 89.1089 Q134.834 89.1089 132.566 88.7386 Q130.32 88.3682 127.913 87.6274 L127.913 82.9284 Q129.996 84.0627 132.219 84.6182 Q134.441 85.1738 136.918 85.1738 Q140.922 85.1738 143.26 83.0673 Q145.598 80.9608 145.598 77.3497 Q145.598 73.7386 143.26 71.6322 Q140.922 69.5257 136.918 69.5257 Q135.043 69.5257 133.168 69.9424 Q131.316 70.359 129.371 71.2386 L129.371 53.8776 Z" fill="#000000" fill-rule="nonzero" fill-opacity="1" /><circle clip-path="url(#clip991)" cx="1343.41" cy="1317.37" r="14.4" fill="#808080" fill-rule="evenodd" fill-opacity="1" stroke="#000000" stroke-opacity="1" stroke-width="3.2"/>
<circle clip-path="url(#clip991)" cx="1364.05" cy="1445.72" r="14.4" fill="#808080" fill-rule="evenodd" fill-opacity="1" stroke="#000000" stroke-opacity="1" stroke-width="3.2"/>
<circle clip-path="url(#clip991)" cx="2291.44" cy="1245.67" r="14.4" fill="#808080" fill-rule="evenodd" fill-opacity="1" stroke="#000000" stroke-opacity="1" stroke-width="3.2"/>
<circle clip-path="url(#clip991)" cx="247.59" cy="87.9763" r="14.4" fill="#808080" fill-rule="evenodd" fill-opacity="1" stroke="#000000" stroke-opacity="1" stroke-width="3.2"/>
<path clip-path="url(#clip990)" d="M1347.71 1324.81 Q1338.67 1324.81 1335.19 1326.87 Q1331.7 1328.94 1331.7 1333.92 Q1331.7 1337.89 1334.3 1340.24 Q1336.93 1342.55 1341.43 1342.55 Q1347.62 1342.55 1351.35 1338.17 Q1355.12 1333.76 1355.12 1326.47 L1355.12 1324.81 L1347.71 1324.81 M1362.57 1321.73 L1362.57 1347.61 L1355.12 1347.61 L1355.12 1340.73 Q1352.57 1344.86 1348.76 1346.84 Q1344.95 1348.79 1339.44 1348.79 Q1332.47 1348.79 1328.34 1344.9 Q1324.25 1340.97 1324.25 1334.41 Q1324.25 1326.75 1329.36 1322.86 Q1334.5 1318.97 1344.67 1318.97 L1355.12 1318.97 L1355.12 1318.24 Q1355.12 1313.1 1351.72 1310.3 Q1348.35 1307.47 1342.24 1307.47 Q1338.35 1307.47 1334.66 1308.4 Q1330.98 1309.33 1327.57 1311.19 L1327.57 1304.31 Q1331.66 1302.73 1335.51 1301.96 Q1339.36 1301.15 1343.01 1301.15 Q1352.85 1301.15 1357.71 1306.25 Q1362.57 1311.36 1362.57 1321.73 Z" fill="#000000" fill-rule="nonzero" fill-opacity="1" /><path clip-path="url(#clip990)" d="M1376.61 1453.31 Q1376.61 1445.09 1373.2 1440.43 Q1369.84 1435.73 1363.93 1435.73 Q1358.01 1435.73 1354.61 1440.43 Q1351.25 1445.09 1351.25 1453.31 Q1351.25 1461.53 1354.61 1466.23 Q1358.01 1470.89 1363.93 1470.89 Q1369.84 1470.89 1373.2 1466.23 Q1376.61 1461.53 1376.61 1453.31 M1351.25 1437.47 Q1353.6 1433.42 1357.16 1431.48 Q1360.77 1429.49 1365.75 1429.49 Q1374.01 1429.49 1379.16 1436.05 Q1384.34 1442.62 1384.34 1453.31 Q1384.34 1464.01 1379.16 1470.57 Q1374.01 1477.13 1365.75 1477.13 Q1360.77 1477.13 1357.16 1475.19 Q1353.6 1473.2 1351.25 1469.15 L1351.25 1475.96 L1343.75 1475.96 L1343.75 1412.92 L1351.25 1412.92 L1351.25 1437.47 Z" fill="#000000" fill-rule="nonzero" fill-opacity="1" /><path clip-path="url(#clip990)" d="M2309.39 1232.28 L2309.39 1239.24 Q2306.23 1237.5 2303.03 1236.65 Q2299.87 1235.76 2296.63 1235.76 Q2289.37 1235.76 2285.36 1240.38 Q2281.35 1244.96 2281.35 1253.26 Q2281.35 1261.57 2285.36 1266.18 Q2289.37 1270.76 2296.63 1270.76 Q2299.87 1270.76 2303.03 1269.91 Q2306.23 1269.02 2309.39 1267.28 L2309.39 1274.16 Q2306.27 1275.62 2302.9 1276.35 Q2299.58 1277.08 2295.82 1277.08 Q2285.57 1277.08 2279.53 1270.64 Q2273.49 1264.2 2273.49 1253.26 Q2273.49 1242.16 2279.57 1235.8 Q2285.69 1229.44 2296.3 1229.44 Q2299.74 1229.44 2303.03 1230.17 Q2306.31 1230.86 2309.39 1232.28 Z" fill="#000000" fill-rule="nonzero" fill-opacity="1" /><path clip-path="url(#clip990)" d="M260.411 79.7327 L260.411 55.1842 L267.864 55.1842 L267.864 118.216 L260.411 118.216 L260.411 111.411 Q258.061 115.462 254.456 117.447 Q250.891 119.391 245.868 119.391 Q237.645 119.391 232.459 112.829 Q227.315 106.266 227.315 95.5717 Q227.315 84.8773 232.459 78.3149 Q237.645 71.7524 245.868 71.7524 Q250.891 71.7524 254.456 73.7373 Q258.061 75.6818 260.411 79.7327 M235.011 95.5717 Q235.011 103.795 238.374 108.494 Q241.776 113.153 247.691 113.153 Q253.605 113.153 257.008 108.494 Q260.411 103.795 260.411 95.5717 Q260.411 87.3484 257.008 82.6898 Q253.605 77.9908 247.691 77.9908 Q241.776 77.9908 238.374 82.6898 Q235.011 87.3484 235.011 95.5717 Z" fill="#000000" fill-rule="nonzero" fill-opacity="1" /><path clip-path="url(#clip990)" d="M2011.46 198.898 L2280.54 198.898 L2280.54 95.2176 L2011.46 95.2176  Z" fill="#ffffff" fill-rule="evenodd" fill-opacity="1"/>
<polyline clip-path="url(#clip990)" style="stroke:#000000; stroke-linecap:round; stroke-linejoin:round; stroke-width:4; stroke-opacity:1; fill:none" points="2011.46,198.898 2280.54,198.898 2280.54,95.2176 2011.46,95.2176 2011.46,198.898 "/>
<circle clip-path="url(#clip990)" cx="2107.75" cy="147.058" r="20.48" fill="#808080" fill-rule="evenodd" fill-opacity="1" stroke="#000000" stroke-opacity="1" stroke-width="4.55111"/>
<path clip-path="url(#clip990)" d="M2217.88 166.745 Q2216.07 171.375 2214.36 172.787 Q2212.65 174.199 2209.78 174.199 L2206.38 174.199 L2206.38 170.634 L2208.88 170.634 Q2210.63 170.634 2211.61 169.8 Q2212.58 168.967 2213.76 165.865 L2214.52 163.921 L2204.04 138.412 L2208.55 138.412 L2216.65 158.689 L2224.76 138.412 L2229.27 138.412 L2217.88 166.745 Z" fill="#000000" fill-rule="nonzero" fill-opacity="1" /><path clip-path="url(#clip990)" d="M2236.56 160.402 L2244.2 160.402 L2244.2 134.037 L2235.89 135.703 L2235.89 131.444 L2244.15 129.778 L2248.83 129.778 L2248.83 160.402 L2256.47 160.402 L2256.47 164.338 L2236.56 164.338 L2236.56 160.402 Z" fill="#000000" fill-rule="nonzero" fill-opacity="1" /></svg>
