<?xml version="1.0" encoding="utf-8"?>
<svg xmlns="http://www.w3.org/2000/svg" xmlns:xlink="http://www.w3.org/1999/xlink" width="600" height="400" viewBox="0 0 2400 1600">
<defs>
  <clipPath id="clip850">
    <rect x="0" y="0" width="2400" height="1600"/>
  </clipPath>
</defs>
<path clip-path="url(#clip850)" d="M0 1600 L2400 1600 L2400 0 L0 0  Z" fill="#ffffff" fill-rule="evenodd" fill-opacity="1"/>
<defs>
  <clipPath id="clip851">
    <rect x="112" y="47" width="2242" height="1440"/>
  </clipPath>
</defs>
<path clip-path="url(#clip850)" d="M112.177 1486.45 L2352.76 1486.45 L2352.76 47.2441 L112.177 47.2441  Z" fill="#ffffff" fill-rule="evenodd" fill-opacity="1"/>
<polyline clip-path="url(#clip851)" style="stroke:#000000; stroke-linecap:round; stroke-linejoin:round; stroke-width:2; stroke-opacity:0.1; fill:none" points="378.037,1486.45 378.037,47.2441 "/>
<polyline clip-path="url(#clip851)" style="stroke:#000000; stroke-linecap:round; stroke-linejoin:round; stroke-width:2; stroke-opacity:0.1; fill:none" points="795.623,1486.45 795.623,47.2441 "/>
<polyline clip-path="url(#clip851)" style="stroke:#000000; stroke-linecap:round; stroke-linejoin:round; stroke-width:2; stroke-opacity:0.1; fill:none" points="1213.21,1486.45 1213.21,47.2441 "/>
<polyline clip-path="url(#clip851)" style="stroke:#000000; stroke-linecap:round; stroke-linejoin:round; stroke-width:2; stroke-opacity:0.1; fill:none" points="1630.79,1486.45 1630.79,47.2441 "/>
<polyline clip-path="url(#clip851)" style="stroke:#000000; stroke-linecap:round; stroke-linejoin:round; stroke-width:2; stroke-opacity:0.1; fill:none" points="2048.38,1486.45 2048.38,47.2441 "/>
<polyline clip-path="url(#clip851)" style="stroke:#000000; stroke-linecap:round; stroke-linejoin:round; stroke-width:2; stroke-opacity:0.1; fill:none" points="112.177,1483.08 2352.76,1483.08 "/>
<polyline clip-path="url(#clip851)" style="stroke:#000000; stroke-linecap:round; stroke-linejoin:round; stroke-width:2; stroke-opacity:0.1; fill:none" points="112.177,1141.17 2352.76,1141.17 "/>
<polyline clip-path="url(#clip851)" style="stroke:#000000; stroke-linecap:round; stroke-linejoin:round; stroke-width:2; stroke-opacity:0.1; fill:none" points="112.177,799.256 2352.76,799.256 "/>
<polyline clip-path="url(#clip851)" style="stroke:#000000; stroke-linecap:round; stroke-linejoin:round; stroke-width:2; stroke-opacity:0.1; fill:none" points="112.177,457.342 2352.76,457.342 "/>
<polyline clip-path="url(#clip851)" style="stroke:#000000; stroke-linecap:round; stroke-linejoin:round; stroke-width:2; stroke-opacity:0.1; fill:none" points="112.177,115.428 2352.76,115.428 "/>
<polyline clip-path="url(#clip850)" style="stroke:#000000; stroke-linecap:round; stroke-linejoin:round; stroke-width:4; stroke-opacity:1; fill:none" points="112.177,1486.45 2352.76,1486.45 "/>
<polyline clip-path="url(#clip850)" style="stroke:#000000; stroke-linecap:round; stroke-linejoin:round; stroke-width:4; stroke-opacity:1; fill:none" points="378.037,1486.45 378.037,1467.55 "/>
<polyline clip-path="url(#clip850)" style="stroke:#000000; stroke-linecap:round; stroke-linejoin:round; stroke-width:4; stroke-opacity:1; fill:none" points="795.623,1486.45 795.623,1467.55 "/>
<polyline clip-path="url(#clip850)" style="stroke:#000000; stroke-linecap:round; stroke-linejoin:round; stroke-width:4; stroke-opacity:1; fill:none" points="1213.21,1486.45 1213.21,1467.55 "/>
<polyline clip-path="url(#clip850)" style="stroke:#000000; stroke-linecap:round; stroke-linejoin:round; stroke-width:4; stroke-opacity:1; fill:none" points="1630.79,1486.45 1630.79,1467.55 "/>
<polyline clip-path="url(#clip850)" style="stroke:#000000; stroke-linecap:round; stroke-linejoin:round; stroke-width:4; stroke-opacity:1; fill:none" points="2048.38,1486.45 2048.38,1467.55 "/>
<path clip-path="url(#clip850)" d="M325.062 1532.02 L354.738 1532.02 L354.738 1535.95 L325.062 1535.95 L325.062 1532.02 Z" fill="#000000" fill-rule="nonzero" fill-opacity="1" /><path clip-path="url(#clip850)" d="M365.641 1544.91 L373.28 1544.91 L373.28 1518.55 L364.97 1520.21 L364.97 1515.95 L373.233 1514.29 L377.909 1514.29 L377.909 1544.91 L385.548 1544.91 L385.548 1548.85 L365.641 1548.85 L365.641 1544.91 Z" fill="#000000" fill-rule="nonzero" fill-opacity="1" /><path clip-path="url(#clip850)" d="M394.993 1542.97 L399.877 1542.97 L399.877 1548.85 L394.993 1548.85 L394.993 1542.97 Z" fill="#000000" fill-rule="nonzero" fill-opacity="1" /><path clip-path="url(#clip850)" d="M410.108 1514.29 L428.465 1514.29 L428.465 1518.22 L414.391 1518.22 L414.391 1526.7 Q415.409 1526.35 416.428 1526.19 Q417.446 1526 418.465 1526 Q424.252 1526 427.631 1529.17 Q431.011 1532.34 431.011 1537.76 Q431.011 1543.34 427.539 1546.44 Q424.067 1549.52 417.747 1549.52 Q415.571 1549.52 413.303 1549.15 Q411.057 1548.78 408.65 1548.04 L408.65 1543.34 Q410.733 1544.47 412.955 1545.03 Q415.178 1545.58 417.655 1545.58 Q421.659 1545.58 423.997 1543.48 Q426.335 1541.37 426.335 1537.76 Q426.335 1534.15 423.997 1532.04 Q421.659 1529.94 417.655 1529.94 Q415.78 1529.94 413.905 1530.35 Q412.053 1530.77 410.108 1531.65 L410.108 1514.29 Z" fill="#000000" fill-rule="nonzero" fill-opacity="1" /><path clip-path="url(#clip850)" d="M742.151 1532.02 L771.827 1532.02 L771.827 1535.95 L742.151 1535.95 L742.151 1532.02 Z" fill="#000000" fill-rule="nonzero" fill-opacity="1" /><path clip-path="url(#clip850)" d="M782.729 1544.91 L790.368 1544.91 L790.368 1518.55 L782.058 1520.21 L782.058 1515.95 L790.322 1514.29 L794.998 1514.29 L794.998 1544.91 L802.637 1544.91 L802.637 1548.85 L782.729 1548.85 L782.729 1544.91 Z" fill="#000000" fill-rule="nonzero" fill-opacity="1" /><path clip-path="url(#clip850)" d="M812.081 1542.97 L816.965 1542.97 L816.965 1548.85 L812.081 1548.85 L812.081 1542.97 Z" fill="#000000" fill-rule="nonzero" fill-opacity="1" /><path clip-path="url(#clip850)" d="M837.15 1517.37 Q833.539 1517.37 831.711 1520.93 Q829.905 1524.47 829.905 1531.6 Q829.905 1538.71 831.711 1542.27 Q833.539 1545.82 837.15 1545.82 Q840.785 1545.82 842.59 1542.27 Q844.419 1538.71 844.419 1531.6 Q844.419 1524.47 842.59 1520.93 Q840.785 1517.37 837.15 1517.37 M837.15 1513.66 Q842.96 1513.66 846.016 1518.27 Q849.095 1522.85 849.095 1531.6 Q849.095 1540.33 846.016 1544.94 Q842.96 1549.52 837.15 1549.52 Q831.34 1549.52 828.261 1544.94 Q825.206 1540.33 825.206 1531.6 Q825.206 1522.85 828.261 1518.27 Q831.34 1513.66 837.15 1513.66 Z" fill="#000000" fill-rule="nonzero" fill-opacity="1" /><path clip-path="url(#clip850)" d="M1160.23 1532.02 L1189.91 1532.02 L1189.91 1535.95 L1160.23 1535.95 L1160.23 1532.02 Z" fill="#000000" fill-rule="nonzero" fill-opacity="1" /><path clip-path="url(#clip850)" d="M1210 1517.37 Q1206.39 1517.37 1204.56 1520.93 Q1202.76 1524.47 1202.76 1531.6 Q1202.76 1538.71 1204.56 1542.27 Q1206.39 1545.82 1210 1545.82 Q1213.64 1545.82 1215.44 1542.27 Q1217.27 1538.71 1217.27 1531.6 Q1217.27 1524.47 1215.44 1520.93 Q1213.64 1517.37 1210 1517.37 M1210 1513.66 Q1215.81 1513.66 1218.87 1518.27 Q1221.95 1522.85 1221.95 1531.6 Q1221.95 1540.33 1218.87 1544.94 Q1215.81 1549.52 1210 1549.52 Q1204.19 1549.52 1201.11 1544.94 Q1198.06 1540.33 1198.06 1531.6 Q1198.06 1522.85 1201.11 1518.27 Q1204.19 1513.66 1210 1513.66 Z" fill="#000000" fill-rule="nonzero" fill-opacity="1" /><path clip-path="url(#clip850)" d="M1230.16 1542.97 L1235.05 1542.97 L1235.05 1548.85 L1230.16 1548.85 L1230.16 1542.97 Z" fill="#000000" fill-rule="nonzero" fill-opacity="1" /><path clip-path="url(#clip850)" d="M1245.28 1514.29 L1263.64 1514.29 L1263.64 1518.22 L1249.56 1518.22 L1249.56 1526.7 Q1250.58 1526.35 1251.6 1526.19 Q1252.62 1526 1253.64 1526 Q1259.42 1526 1262.8 1529.17 Q1266.18 1532.34 1266.18 1537.76 Q1266.18 1543.34 1262.71 1546.44 Q1259.24 1549.52 1252.92 1549.52 Q1250.74 1549.52 1248.47 1549.15 Q1246.23 1548.78 1243.82 1548.04 L1243.82 1543.34 Q1245.91 1544.47 1248.13 1545.03 Q1250.35 1545.58 1252.83 1545.58 Q1256.83 1545.58 1259.17 1543.48 Q1261.51 1541.37 1261.51 1537.76 Q1261.51 1534.15 1259.17 1532.04 Q1256.83 1529.94 1252.83 1529.94 Q1250.95 1529.94 1249.08 1530.35 Q1247.22 1530.77 1245.28 1531.65 L1245.28 1514.29 Z" fill="#000000" fill-rule="nonzero" fill-opacity="1" /><path clip-path="url(#clip850)" d="M1608.18 1517.37 Q1604.57 1517.37 1602.74 1520.93 Q1600.93 1524.47 1600.93 1531.6 Q1600.93 1538.71 1602.74 1542.27 Q1604.57 1545.82 1608.18 1545.82 Q1611.81 1545.82 1613.62 1542.27 Q1615.45 1538.71 1615.45 1531.6 Q1615.45 1524.47 1613.62 1520.93 Q1611.81 1517.37 1608.18 1517.37 M1608.18 1513.66 Q1613.99 1513.66 1617.04 1518.27 Q1620.12 1522.85 1620.12 1531.6 Q1620.12 1540.33 1617.04 1544.94 Q1613.99 1549.52 1608.18 1549.52 Q1602.37 1549.52 1599.29 1544.94 Q1596.23 1540.33 1596.23 1531.6 Q1596.23 1522.85 1599.29 1518.27 Q1602.37 1513.66 1608.18 1513.66 Z" fill="#000000" fill-rule="nonzero" fill-opacity="1" /><path clip-path="url(#clip850)" d="M1628.34 1542.97 L1633.23 1542.97 L1633.23 1548.85 L1628.34 1548.85 L1628.34 1542.97 Z" fill="#000000" fill-rule="nonzero" fill-opacity="1" /><path clip-path="url(#clip850)" d="M1653.41 1517.37 Q1649.8 1517.37 1647.97 1520.93 Q1646.17 1524.47 1646.17 1531.6 Q1646.17 1538.71 1647.97 1542.27 Q1649.8 1545.82 1653.41 1545.82 Q1657.04 1545.82 1658.85 1542.27 Q1660.68 1538.71 1660.68 1531.6 Q1660.68 1524.47 1658.85 1520.93 Q1657.04 1517.37 1653.41 1517.37 M1653.41 1513.66 Q1659.22 1513.66 1662.28 1518.27 Q1665.35 1522.85 1665.35 1531.6 Q1665.35 1540.33 1662.28 1544.94 Q1659.22 1549.52 1653.41 1549.52 Q1647.6 1549.52 1644.52 1544.94 Q1641.47 1540.33 1641.47 1531.6 Q1641.47 1522.85 1644.52 1518.27 Q1647.6 1513.66 1653.41 1513.66 Z" fill="#000000" fill-rule="nonzero" fill-opacity="1" /><path clip-path="url(#clip850)" d="M2026.26 1517.37 Q2022.65 1517.37 2020.82 1520.93 Q2019.02 1524.47 2019.02 1531.6 Q2019.02 1538.71 2020.82 1542.27 Q2022.65 1545.82 2026.26 1545.82 Q2029.9 1545.82 2031.7 1542.27 Q2033.53 1538.71 2033.53 1531.6 Q2033.53 1524.47 2031.7 1520.93 Q2029.9 1517.37 2026.26 1517.37 M2026.26 1513.66 Q2032.07 1513.66 2035.13 1518.27 Q2038.21 1522.85 2038.21 1531.6 Q2038.21 1540.33 2035.13 1544.94 Q2032.07 1549.52 2026.26 1549.52 Q2020.45 1549.52 2017.37 1544.94 Q2014.32 1540.33 2014.32 1531.6 Q2014.32 1522.85 2017.37 1518.27 Q2020.45 1513.66 2026.26 1513.66 Z" fill="#000000" fill-rule="nonzero" fill-opacity="1" /><path clip-path="url(#clip850)" d="M2046.42 1542.97 L2051.31 1542.97 L2051.31 1548.85 L2046.42 1548.85 L2046.42 1542.97 Z" fill="#000000" fill-rule="nonzero" fill-opacity="1" /><path clip-path="url(#clip850)" d="M2061.54 1514.29 L2079.9 1514.29 L2079.9 1518.22 L2065.82 1518.22 L2065.82 1526.7 Q2066.84 1526.35 2067.86 1526.19 Q2068.88 1526 2069.9 1526 Q2075.68 1526 2079.06 1529.17 Q2082.44 1532.34 2082.44 1537.76 Q2082.44 1543.34 2078.97 1546.44 Q2075.5 1549.52 2069.18 1549.52 Q2067 1549.52 2064.74 1549.15 Q2062.49 1548.78 2060.08 1548.04 L2060.08 1543.34 Q2062.17 1544.47 2064.39 1545.03 Q2066.61 1545.58 2069.09 1545.58 Q2073.09 1545.58 2075.43 1543.48 Q2077.77 1541.37 2077.77 1537.76 Q2077.77 1534.15 2075.43 1532.04 Q2073.09 1529.94 2069.09 1529.94 Q2067.21 1529.94 2065.34 1530.35 Q2063.49 1530.77 2061.54 1531.65 L2061.54 1514.29 Z" fill="#000000" fill-rule="nonzero" fill-opacity="1" /><polyline clip-path="url(#clip850)" style="stroke:#000000; stroke-linecap:round; stroke-linejoin:round; stroke-width:4; stroke-opacity:1; fill:none" points="112.177,1486.45 112.177,47.2441 "/>
<polyline clip-path="url(#clip850)" style="stroke:#000000; stroke-linecap:round; stroke-linejoin:round; stroke-width:4; stroke-opacity:1; fill:none" points="112.177,1483.08 131.075,1483.08 "/>
<polyline clip-path="url(#clip850)" style="stroke:#000000; stroke-linecap:round; stroke-linejoin:round; stroke-width:4; stroke-opacity:1; fill:none" points="112.177,1141.17 131.075,1141.17 "/>
<polyline clip-path="url(#clip850)" style="stroke:#000000; stroke-linecap:round; stroke-linejoin:round; stroke-width:4; stroke-opacity:1; fill:none" points="112.177,799.256 131.075,799.256 "/>
<polyline clip-path="url(#clip850)" style="stroke:#000000; stroke-linecap:round; stroke-linejoin:round; stroke-width:4; stroke-opacity:1; fill:none" points="112.177,457.342 131.075,457.342 "/>
<polyline clip-path="url(#clip850)" style="stroke:#000000; stroke-linecap:round; stroke-linejoin:round; stroke-width:4; stroke-opacity:1; fill:none" points="112.177,115.428 131.075,115.428 "/>
<path clip-path="url(#clip850)" d="M64.2328 1468.88 Q60.6217 1468.88 58.793 1472.45 Q56.9875 1475.99 56.9875 1483.12 Q56.9875 1490.22 58.793 1493.79 Q60.6217 1497.33 64.2328 1497.33 Q67.867 1497.33 69.6726 1493.79 Q71.5013 1490.22 71.5013 1483.12 Q71.5013 1475.99 69.6726 1472.45 Q67.867 1468.88 64.2328 1468.88 M64.2328 1465.18 Q70.0429 1465.18 73.0985 1469.79 Q76.1772 1474.37 76.1772 1483.12 Q76.1772 1491.85 73.0985 1496.45 Q70.0429 1501.03 64.2328 1501.03 Q58.4226 1501.03 55.344 1496.45 Q52.2884 1491.85 52.2884 1483.12 Q52.2884 1474.37 55.344 1469.79 Q58.4226 1465.18 64.2328 1465.18 Z" fill="#000000" fill-rule="nonzero" fill-opacity="1" /><path clip-path="url(#clip850)" d="M59.8578 1154.51 L76.1772 1154.51 L76.1772 1158.45 L54.2328 1158.45 L54.2328 1154.51 Q56.8949 1151.76 61.4782 1147.13 Q66.0846 1142.48 67.2652 1141.14 Q69.5105 1138.61 70.3902 1136.88 Q71.2929 1135.12 71.2929 1133.43 Q71.2929 1130.67 69.3485 1128.94 Q67.4272 1127.2 64.3254 1127.2 Q62.1263 1127.2 59.6726 1127.96 Q57.2421 1128.73 54.4643 1130.28 L54.4643 1125.56 Q57.2884 1124.42 59.7421 1123.84 Q62.1958 1123.26 64.2328 1123.26 Q69.6031 1123.26 72.7976 1125.95 Q75.992 1128.64 75.992 1133.13 Q75.992 1135.26 75.1818 1137.18 Q74.3948 1139.07 72.2883 1141.67 Q71.7096 1142.34 68.6078 1145.56 Q65.5059 1148.75 59.8578 1154.51 Z" fill="#000000" fill-rule="nonzero" fill-opacity="1" /><path clip-path="url(#clip850)" d="M66.5939 786.05 L54.7884 804.499 L66.5939 804.499 L66.5939 786.05 M65.367 781.976 L71.2466 781.976 L71.2466 804.499 L76.1772 804.499 L76.1772 808.388 L71.2466 808.388 L71.2466 816.536 L66.5939 816.536 L66.5939 808.388 L50.9921 808.388 L50.9921 803.874 L65.367 781.976 Z" fill="#000000" fill-rule="nonzero" fill-opacity="1" /><path clip-path="url(#clip850)" d="M64.6495 455.478 Q61.5013 455.478 59.6495 457.631 Q57.8208 459.784 57.8208 463.534 Q57.8208 467.261 59.6495 469.437 Q61.5013 471.589 64.6495 471.589 Q67.7976 471.589 69.6263 469.437 Q71.4781 467.261 71.4781 463.534 Q71.4781 459.784 69.6263 457.631 Q67.7976 455.478 64.6495 455.478 M73.9318 440.826 L73.9318 445.085 Q72.1726 444.252 70.367 443.812 Q68.5846 443.372 66.8254 443.372 Q62.1958 443.372 59.7421 446.497 Q57.3115 449.622 56.9643 455.941 Q58.33 453.928 60.3902 452.863 Q62.4504 451.775 64.9272 451.775 Q70.1355 451.775 73.1448 454.946 Q76.1772 458.094 76.1772 463.534 Q76.1772 468.858 73.029 472.076 Q69.8809 475.293 64.6495 475.293 Q58.6541 475.293 55.4828 470.71 Q52.3116 466.103 52.3116 457.377 Q52.3116 449.182 56.2004 444.321 Q60.0893 439.437 66.6402 439.437 Q68.3994 439.437 70.1818 439.784 Q71.9874 440.131 73.9318 440.826 Z" fill="#000000" fill-rule="nonzero" fill-opacity="1" /><path clip-path="url(#clip850)" d="M64.3254 116.296 Q60.9921 116.296 59.0708 118.078 Q57.1726 119.861 57.1726 122.986 Q57.1726 126.111 59.0708 127.893 Q60.9921 129.676 64.3254 129.676 Q67.6587 129.676 69.58 127.893 Q71.5013 126.088 71.5013 122.986 Q71.5013 119.861 69.58 118.078 Q67.6819 116.296 64.3254 116.296 M59.6495 114.305 Q56.6402 113.565 54.9504 111.504 Q53.2838 109.444 53.2838 106.481 Q53.2838 102.338 56.2236 99.9303 Q59.1865 97.5229 64.3254 97.5229 Q69.4874 97.5229 72.4272 99.9303 Q75.367 102.338 75.367 106.481 Q75.367 109.444 73.6772 111.504 Q72.0105 113.565 69.0244 114.305 Q72.404 115.092 74.279 117.384 Q76.1772 119.676 76.1772 122.986 Q76.1772 128.009 73.0985 130.694 Q70.0429 133.379 64.3254 133.379 Q58.6078 133.379 55.5291 130.694 Q52.4736 128.009 52.4736 122.986 Q52.4736 119.676 54.3717 117.384 Q56.2699 115.092 59.6495 114.305 M57.9365 106.921 Q57.9365 109.606 59.6032 111.111 Q61.293 112.615 64.3254 112.615 Q67.3346 112.615 69.0244 111.111 Q70.7374 109.606 70.7374 106.921 Q70.7374 104.236 69.0244 102.731 Q67.3346 101.227 64.3254 101.227 Q61.293 101.227 59.6032 102.731 Q57.9365 104.236 57.9365 106.921 Z" fill="#000000" fill-rule="nonzero" fill-opacity="1" /><circle clip-path="url(#clip851)" cx="2289.34" cy="1364.64" r="14.4" fill="#808080" fill-rule="evenodd" fill-opacity="1" stroke="#000000" stroke-opacity="1" stroke-width="3.2"/>
<circle clip-path="url(#clip851)" cx="175.59" cy="87.9763" r="14.4" fill="#808080" fill-rule="evenodd" fill-opacity="1" stroke="#000000" stroke-opacity="1" stroke-width="3.2"/>
<circle clip-path="url(#clip851)" cx="1663.31" cy="1445.72" r="14.4" fill="#808080" fill-rule="evenodd" fill-opacity="1" stroke="#000000" stroke-opacity="1" stroke-width="3.2"/>
<circle clip-path="url(#clip851)" cx="1592.18" cy="1439.03" r="14.4" fill="#808080" fill-rule="evenodd" fill-opacity="1" stroke="#000000" stroke-opacity="1" stroke-width="3.2"/>
<path clip-path="url(#clip850)" d="M2293.64 1372.08 Q2284.6 1372.08 2281.12 1374.14 Q2277.64 1376.21 2277.64 1381.19 Q2277.64 1385.16 2280.23 1387.51 Q2282.86 1389.82 2287.36 1389.82 Q2293.56 1389.82 2297.28 1385.45 Q2301.05 1381.03 2301.05 1373.74 L2301.05 1372.08 L2293.64 1372.08 M2308.5 1369 L2308.5 1394.88 L2301.05 1394.88 L2301.05 1388 Q2298.5 1392.13 2294.69 1394.12 Q2290.88 1396.06 2285.37 1396.06 Q2278.41 1396.06 2274.27 1392.17 Q2270.18 1388.24 2270.18 1381.68 Q2270.18 1374.02 2275.29 1370.13 Q2280.43 1366.24 2290.6 1366.24 L2301.05 1366.24 L2301.05 1365.52 Q2301.05 1360.37 2297.65 1357.58 Q2294.29 1354.74 2288.17 1354.74 Q2284.28 1354.74 2280.59 1355.67 Q2276.91 1356.6 2273.5 1358.47 L2273.5 1351.58 Q2277.6 1350 2281.44 1349.23 Q2285.29 1348.42 2288.94 1348.42 Q2298.78 1348.42 2303.64 1353.53 Q2308.5 1358.63 2308.5 1369 Z" fill="#000000" fill-rule="nonzero" fill-opacity="1" /><path clip-path="url(#clip850)" d="M188.148 95.5717 Q188.148 87.3484 184.745 82.6898 Q181.383 77.9908 175.468 77.9908 Q169.554 77.9908 166.151 82.6898 Q162.789 87.3484 162.789 95.5717 Q162.789 103.795 166.151 108.494 Q169.554 113.153 175.468 113.153 Q181.383 113.153 184.745 108.494 Q188.148 103.795 188.148 95.5717 M162.789 79.7327 Q165.138 75.6818 168.703 73.7373 Q172.309 71.7524 177.291 71.7524 Q185.555 71.7524 190.7 78.3149 Q195.885 84.8773 195.885 95.5717 Q195.885 106.266 190.7 112.829 Q185.555 119.391 177.291 119.391 Q172.309 119.391 168.703 117.447 Q165.138 115.462 162.789 111.411 L162.789 118.216 L155.295 118.216 L155.295 55.1842 L162.789 55.1842 L162.789 79.7327 Z" fill="#000000" fill-rule="nonzero" fill-opacity="1" /><path clip-path="url(#clip850)" d="M1681.25 1432.33 L1681.25 1439.3 Q1678.09 1437.55 1674.89 1436.7 Q1671.73 1435.81 1668.49 1435.81 Q1661.24 1435.81 1657.23 1440.43 Q1653.22 1445.01 1653.22 1453.31 Q1653.22 1461.62 1657.23 1466.23 Q1661.24 1470.81 1668.49 1470.81 Q1671.73 1470.81 1674.89 1469.96 Q1678.09 1469.07 1681.25 1467.33 L1681.25 1474.21 Q1678.13 1475.67 1674.77 1476.4 Q1671.45 1477.13 1667.68 1477.13 Q1657.43 1477.13 1651.4 1470.69 Q1645.36 1464.25 1645.36 1453.31 Q1645.36 1442.21 1651.44 1435.85 Q1657.55 1429.49 1668.17 1429.49 Q1671.61 1429.49 1674.89 1430.22 Q1678.17 1430.91 1681.25 1432.33 Z" fill="#000000" fill-rule="nonzero" fill-opacity="1" /><path clip-path="url(#clip850)" d="M1605 1430.79 L1605 1406.24 L1612.46 1406.24 L1612.46 1469.27 L1605 1469.27 L1605 1462.47 Q1602.65 1466.52 1599.05 1468.5 Q1595.48 1470.45 1590.46 1470.45 Q1582.24 1470.45 1577.05 1463.88 Q1571.91 1457.32 1571.91 1446.63 Q1571.91 1435.93 1577.05 1429.37 Q1582.24 1422.81 1590.46 1422.81 Q1595.48 1422.81 1599.05 1424.79 Q1602.65 1426.74 1605 1430.79 M1579.6 1446.63 Q1579.6 1454.85 1582.97 1459.55 Q1586.37 1464.21 1592.28 1464.21 Q1598.2 1464.21 1601.6 1459.55 Q1605 1454.85 1605 1446.63 Q1605 1438.4 1601.6 1433.75 Q1598.2 1429.05 1592.28 1429.05 Q1586.37 1429.05 1582.97 1433.75 Q1579.6 1438.4 1579.6 1446.63 Z" fill="#000000" fill-rule="nonzero" fill-opacity="1" /><path clip-path="url(#clip850)" d="M2001.58 198.898 L2278.07 198.898 L2278.07 95.2176 L2001.58 95.2176  Z" fill="#ffffff" fill-rule="evenodd" fill-opacity="1"/>
<polyline clip-path="url(#clip850)" style="stroke:#000000; stroke-linecap:round; stroke-linejoin:round; stroke-width:4; stroke-opacity:1; fill:none" points="2001.58,198.898 2278.07,198.898 2278.07,95.2176 2001.58,95.2176 2001.58,198.898 "/>
<circle clip-path="url(#clip850)" cx="2101.16" cy="147.058" r="20.48" fill="#808080" fill-rule="evenodd" fill-opacity="1" stroke="#000000" stroke-opacity="1" stroke-width="4.55111"/>
<path clip-path="url(#clip850)" d="M2214.59 166.745 Q2212.78 171.375 2211.07 172.787 Q2209.36 174.199 2206.49 174.199 L2203.08 174.199 L2203.08 170.634 L2205.58 170.634 Q2207.34 170.634 2208.31 169.8 Q2209.29 168.967 2210.47 165.865 L2211.23 163.921 L2200.74 138.412 L2205.26 138.412 L2213.36 158.689 L2221.46 138.412 L2225.98 138.412 L2214.59 166.745 Z" fill="#000000" fill-rule="nonzero" fill-opacity="1" /><path clip-path="url(#clip850)" d="M2233.27 160.402 L2240.91 160.402 L2240.91 134.037 L2232.6 135.703 L2232.6 131.444 L2240.86 129.778 L2245.54 129.778 L2245.54 160.402 L2253.17 160.402 L2253.17 164.338 L2233.27 164.338 L2233.27 160.402 Z" fill="#000000" fill-rule="nonzero" fill-opacity="1" /></svg>
