<?xml version="1.0" encoding="utf-8"?>
<svg xmlns="http://www.w3.org/2000/svg" xmlns:xlink="http://www.w3.org/1999/xlink" width="600" height="400" viewBox="0 0 2400 1600">
<defs>
  <clipPath id="clip820">
    <rect x="0" y="0" width="2400" height="1600"/>
  </clipPath>
</defs>
<path clip-path="url(#clip820)" d="M0 1600 L2400 1600 L2400 0 L0 0  Z" fill="#ffffff" fill-rule="evenodd" fill-opacity="1"/>
<defs>
  <clipPath id="clip821">
    <rect x="156" y="47" width="2197" height="1440"/>
  </clipPath>
</defs>
<path clip-path="url(#clip820)" d="M156.598 1486.45 L2352.76 1486.45 L2352.76 47.2441 L156.598 47.2441  Z" fill="#ffffff" fill-rule="evenodd" fill-opacity="1"/>
<polyline clip-path="url(#clip821)" style="stroke:#000000; stroke-linecap:round; stroke-linejoin:round; stroke-width:2; stroke-opacity:0.1; fill:none" points="427.697,1486.45 427.697,47.2441 "/>
<polyline clip-path="url(#clip821)" style="stroke:#000000; stroke-linecap:round; stroke-linejoin:round; stroke-width:2; stroke-opacity:0.1; fill:none" points="913.471,1486.45 913.471,47.2441 "/>
<polyline clip-path="url(#clip821)" style="stroke:#000000; stroke-linecap:round; stroke-linejoin:round; stroke-width:2; stroke-opacity:0.1; fill:none" points="1399.25,1486.45 1399.25,47.2441 "/>
<polyline clip-path="url(#clip821)" style="stroke:#000000; stroke-linecap:round; stroke-linejoin:round; stroke-width:2; stroke-opacity:0.1; fill:none" points="1885.02,1486.45 1885.02,47.2441 "/>
<polyline clip-path="url(#clip821)" style="stroke:#000000; stroke-linecap:round; stroke-linejoin:round; stroke-width:2; stroke-opacity:0.1; fill:none" points="156.598,1450.49 2352.76,1450.49 "/>
<polyline clip-path="url(#clip821)" style="stroke:#000000; stroke-linecap:round; stroke-linejoin:round; stroke-width:2; stroke-opacity:0.1; fill:none" points="156.598,1156.31 2352.76,1156.31 "/>
<polyline clip-path="url(#clip821)" style="stroke:#000000; stroke-linecap:round; stroke-linejoin:round; stroke-width:2; stroke-opacity:0.1; fill:none" points="156.598,862.124 2352.76,862.124 "/>
<polyline clip-path="url(#clip821)" style="stroke:#000000; stroke-linecap:round; stroke-linejoin:round; stroke-width:2; stroke-opacity:0.1; fill:none" points="156.598,567.941 2352.76,567.941 "/>
<polyline clip-path="url(#clip821)" style="stroke:#000000; stroke-linecap:round; stroke-linejoin:round; stroke-width:2; stroke-opacity:0.1; fill:none" points="156.598,273.758 2352.76,273.758 "/>
<polyline clip-path="url(#clip820)" style="stroke:#000000; stroke-linecap:round; stroke-linejoin:round; stroke-width:4; stroke-opacity:1; fill:none" points="156.598,1486.45 2352.76,1486.45 "/>
<polyline clip-path="url(#clip820)" style="stroke:#000000; stroke-linecap:round; stroke-linejoin:round; stroke-width:4; stroke-opacity:1; fill:none" points="427.697,1486.45 427.697,1467.55 "/>
<polyline clip-path="url(#clip820)" style="stroke:#000000; stroke-linecap:round; stroke-linejoin:round; stroke-width:4; stroke-opacity:1; fill:none" points="913.471,1486.45 913.471,1467.55 "/>
<polyline clip-path="url(#clip820)" style="stroke:#000000; stroke-linecap:round; stroke-linejoin:round; stroke-width:4; stroke-opacity:1; fill:none" points="1399.25,1486.45 1399.25,1467.55 "/>
<polyline clip-path="url(#clip820)" style="stroke:#000000; stroke-linecap:round; stroke-linejoin:round; stroke-width:4; stroke-opacity:1; fill:none" points="1885.02,1486.45 1885.02,1467.55 "/>
<path clip-path="url(#clip820)" d="M373.982 1532.02 L403.658 1532.02 L403.658 1535.95 L373.982 1535.95 L373.982 1532.02 Z" fill="#000000" fill-rule="nonzero" fill-opacity="1" /><path clip-path="url(#clip820)" d="M423.75 1517.37 Q420.139 1517.37 418.31 1520.93 Q416.505 1524.47 416.505 1531.6 Q416.505 1538.71 418.31 1542.27 Q420.139 1545.82 423.75 1545.82 Q427.384 1545.82 429.19 1542.27 Q431.019 1538.71 431.019 1531.6 Q431.019 1524.47 429.19 1520.93 Q427.384 1517.37 423.75 1517.37 M423.75 1513.66 Q429.56 1513.66 432.616 1518.27 Q435.695 1522.85 435.695 1531.6 Q435.695 1540.33 432.616 1544.94 Q429.56 1549.52 423.75 1549.52 Q417.94 1549.52 414.861 1544.94 Q411.806 1540.33 411.806 1531.6 Q411.806 1522.85 414.861 1518.27 Q417.94 1513.66 423.75 1513.66 Z" fill="#000000" fill-rule="nonzero" fill-opacity="1" /><path clip-path="url(#clip820)" d="M443.912 1542.97 L448.796 1542.97 L448.796 1548.85 L443.912 1548.85 L443.912 1542.97 Z" fill="#000000" fill-rule="nonzero" fill-opacity="1" /><path clip-path="url(#clip820)" d="M471.829 1518.36 L460.023 1536.81 L471.829 1536.81 L471.829 1518.36 M470.602 1514.29 L476.481 1514.29 L476.481 1536.81 L481.412 1536.81 L481.412 1540.7 L476.481 1540.7 L476.481 1548.85 L471.829 1548.85 L471.829 1540.7 L456.227 1540.7 L456.227 1536.19 L470.602 1514.29 Z" fill="#000000" fill-rule="nonzero" fill-opacity="1" /><path clip-path="url(#clip820)" d="M860.798 1532.02 L890.474 1532.02 L890.474 1535.95 L860.798 1535.95 L860.798 1532.02 Z" fill="#000000" fill-rule="nonzero" fill-opacity="1" /><path clip-path="url(#clip820)" d="M910.566 1517.37 Q906.955 1517.37 905.126 1520.93 Q903.321 1524.47 903.321 1531.6 Q903.321 1538.71 905.126 1542.27 Q906.955 1545.82 910.566 1545.82 Q914.2 1545.82 916.006 1542.27 Q917.835 1538.71 917.835 1531.6 Q917.835 1524.47 916.006 1520.93 Q914.2 1517.37 910.566 1517.37 M910.566 1513.66 Q916.376 1513.66 919.432 1518.27 Q922.511 1522.85 922.511 1531.6 Q922.511 1540.33 919.432 1544.94 Q916.376 1549.52 910.566 1549.52 Q904.756 1549.52 901.677 1544.94 Q898.622 1540.33 898.622 1531.6 Q898.622 1522.85 901.677 1518.27 Q904.756 1513.66 910.566 1513.66 Z" fill="#000000" fill-rule="nonzero" fill-opacity="1" /><path clip-path="url(#clip820)" d="M930.728 1542.97 L935.612 1542.97 L935.612 1548.85 L930.728 1548.85 L930.728 1542.97 Z" fill="#000000" fill-rule="nonzero" fill-opacity="1" /><path clip-path="url(#clip820)" d="M949.825 1544.91 L966.145 1544.91 L966.145 1548.85 L944.2 1548.85 L944.2 1544.91 Q946.862 1542.16 951.446 1537.53 Q956.052 1532.88 957.233 1531.53 Q959.478 1529.01 960.358 1527.27 Q961.26 1525.51 961.26 1523.82 Q961.26 1521.07 959.316 1519.33 Q957.395 1517.6 954.293 1517.6 Q952.094 1517.6 949.64 1518.36 Q947.209 1519.13 944.432 1520.68 L944.432 1515.95 Q947.256 1514.82 949.709 1514.24 Q952.163 1513.66 954.2 1513.66 Q959.571 1513.66 962.765 1516.35 Q965.959 1519.03 965.959 1523.52 Q965.959 1525.65 965.149 1527.57 Q964.362 1529.47 962.256 1532.07 Q961.677 1532.74 958.575 1535.95 Q955.473 1539.15 949.825 1544.91 Z" fill="#000000" fill-rule="nonzero" fill-opacity="1" /><path clip-path="url(#clip820)" d="M1376.63 1517.37 Q1373.02 1517.37 1371.19 1520.93 Q1369.38 1524.47 1369.38 1531.6 Q1369.38 1538.71 1371.19 1542.27 Q1373.02 1545.82 1376.63 1545.82 Q1380.26 1545.82 1382.07 1542.27 Q1383.9 1538.71 1383.9 1531.6 Q1383.9 1524.47 1382.07 1520.93 Q1380.26 1517.37 1376.63 1517.37 M1376.63 1513.66 Q1382.44 1513.66 1385.5 1518.27 Q1388.57 1522.85 1388.57 1531.6 Q1388.57 1540.33 1385.5 1544.94 Q1382.44 1549.52 1376.63 1549.52 Q1370.82 1549.52 1367.74 1544.94 Q1364.69 1540.33 1364.69 1531.6 Q1364.69 1522.85 1367.74 1518.27 Q1370.82 1513.66 1376.63 1513.66 Z" fill="#000000" fill-rule="nonzero" fill-opacity="1" /><path clip-path="url(#clip820)" d="M1396.79 1542.97 L1401.68 1542.97 L1401.68 1548.85 L1396.79 1548.85 L1396.79 1542.97 Z" fill="#000000" fill-rule="nonzero" fill-opacity="1" /><path clip-path="url(#clip820)" d="M1421.86 1517.37 Q1418.25 1517.37 1416.42 1520.93 Q1414.62 1524.47 1414.62 1531.6 Q1414.62 1538.71 1416.42 1542.27 Q1418.25 1545.82 1421.86 1545.82 Q1425.5 1545.82 1427.3 1542.27 Q1429.13 1538.71 1429.13 1531.6 Q1429.13 1524.47 1427.3 1520.93 Q1425.5 1517.37 1421.86 1517.37 M1421.86 1513.66 Q1427.67 1513.66 1430.73 1518.27 Q1433.81 1522.85 1433.81 1531.6 Q1433.81 1540.33 1430.73 1544.94 Q1427.67 1549.52 1421.86 1549.52 Q1416.05 1549.52 1412.97 1544.94 Q1409.92 1540.33 1409.92 1531.6 Q1409.92 1522.85 1412.97 1518.27 Q1416.05 1513.66 1421.86 1513.66 Z" fill="#000000" fill-rule="nonzero" fill-opacity="1" /><path clip-path="url(#clip820)" d="M1863.2 1517.37 Q1859.59 1517.37 1857.76 1520.93 Q1855.96 1524.47 1855.96 1531.6 Q1855.96 1538.71 1857.76 1542.27 Q1859.59 1545.82 1863.2 1545.82 Q1866.84 1545.82 1868.64 1542.27 Q1870.47 1538.71 1870.47 1531.6 Q1870.47 1524.47 1868.64 1520.93 Q1866.84 1517.37 1863.2 1517.37 M1863.2 1513.66 Q1869.01 1513.66 1872.07 1518.27 Q1875.15 1522.85 1875.15 1531.6 Q1875.15 1540.33 1872.07 1544.94 Q1869.01 1549.52 1863.2 1549.52 Q1857.39 1549.52 1854.31 1544.94 Q1851.26 1540.33 1851.26 1531.6 Q1851.26 1522.85 1854.31 1518.27 Q1857.39 1513.66 1863.2 1513.66 Z" fill="#000000" fill-rule="nonzero" fill-opacity="1" /><path clip-path="url(#clip820)" d="M1883.36 1542.97 L1888.25 1542.97 L1888.25 1548.85 L1883.36 1548.85 L1883.36 1542.97 Z" fill="#000000" fill-rule="nonzero" fill-opacity="1" /><path clip-path="url(#clip820)" d="M1902.46 1544.91 L1918.78 1544.91 L1918.78 1548.85 L1896.84 1548.85 L1896.84 1544.91 Q1899.5 1542.16 1904.08 1537.53 Q1908.69 1532.88 1909.87 1531.53 Q1912.11 1529.01 1912.99 1527.27 Q1913.9 1525.51 1913.9 1523.82 Q1913.9 1521.07 1911.95 1519.33 Q1910.03 1517.6 1906.93 1517.6 Q1904.73 1517.6 1902.28 1518.36 Q1899.85 1519.13 1897.07 1520.68 L1897.07 1515.95 Q1899.89 1514.82 1902.35 1514.24 Q1904.8 1513.66 1906.84 1513.66 Q1912.21 1513.66 1915.4 1516.35 Q1918.6 1519.03 1918.6 1523.52 Q1918.6 1525.65 1917.79 1527.57 Q1917 1529.47 1914.89 1532.07 Q1914.31 1532.74 1911.21 1535.95 Q1908.11 1539.15 1902.46 1544.91 Z" fill="#000000" fill-rule="nonzero" fill-opacity="1" /><polyline clip-path="url(#clip820)" style="stroke:#000000; stroke-linecap:round; stroke-linejoin:round; stroke-width:4; stroke-opacity:1; fill:none" points="156.598,1486.45 156.598,47.2441 "/>
<polyline clip-path="url(#clip820)" style="stroke:#000000; stroke-linecap:round; stroke-linejoin:round; stroke-width:4; stroke-opacity:1; fill:none" points="156.598,1450.49 175.496,1450.49 "/>
<polyline clip-path="url(#clip820)" style="stroke:#000000; stroke-linecap:round; stroke-linejoin:round; stroke-width:4; stroke-opacity:1; fill:none" points="156.598,1156.31 175.496,1156.31 "/>
<polyline clip-path="url(#clip820)" style="stroke:#000000; stroke-linecap:round; stroke-linejoin:round; stroke-width:4; stroke-opacity:1; fill:none" points="156.598,862.124 175.496,862.124 "/>
<polyline clip-path="url(#clip820)" style="stroke:#000000; stroke-linecap:round; stroke-linejoin:round; stroke-width:4; stroke-opacity:1; fill:none" points="156.598,567.941 175.496,567.941 "/>
<polyline clip-path="url(#clip820)" style="stroke:#000000; stroke-linecap:round; stroke-linejoin:round; stroke-width:4; stroke-opacity:1; fill:none" points="156.598,273.758 175.496,273.758 "/>
<path clip-path="url(#clip820)" d="M63.4226 1436.29 Q59.8115 1436.29 57.9828 1439.85 Q56.1773 1443.4 56.1773 1450.53 Q56.1773 1457.63 57.9828 1461.2 Q59.8115 1464.74 63.4226 1464.74 Q67.0569 1464.74 68.8624 1461.2 Q70.6911 1457.63 70.6911 1450.53 Q70.6911 1443.4 68.8624 1439.85 Q67.0569 1436.29 63.4226 1436.29 M63.4226 1432.59 Q69.2328 1432.59 72.2883 1437.19 Q75.367 1441.78 75.367 1450.53 Q75.367 1459.25 72.2883 1463.86 Q69.2328 1468.44 63.4226 1468.44 Q57.6125 1468.44 54.5338 1463.86 Q51.4782 1459.25 51.4782 1450.53 Q51.4782 1441.78 54.5338 1437.19 Q57.6125 1432.59 63.4226 1432.59 Z" fill="#000000" fill-rule="nonzero" fill-opacity="1" /><path clip-path="url(#clip820)" d="M83.5845 1461.89 L88.4688 1461.89 L88.4688 1467.77 L83.5845 1467.77 L83.5845 1461.89 Z" fill="#000000" fill-rule="nonzero" fill-opacity="1" /><path clip-path="url(#clip820)" d="M108.654 1436.29 Q105.043 1436.29 103.214 1439.85 Q101.409 1443.4 101.409 1450.53 Q101.409 1457.63 103.214 1461.2 Q105.043 1464.74 108.654 1464.74 Q112.288 1464.74 114.094 1461.2 Q115.922 1457.63 115.922 1450.53 Q115.922 1443.4 114.094 1439.85 Q112.288 1436.29 108.654 1436.29 M108.654 1432.59 Q114.464 1432.59 117.52 1437.19 Q120.598 1441.78 120.598 1450.53 Q120.598 1459.25 117.52 1463.86 Q114.464 1468.44 108.654 1468.44 Q102.844 1468.44 99.765 1463.86 Q96.7095 1459.25 96.7095 1450.53 Q96.7095 1441.78 99.765 1437.19 Q102.844 1432.59 108.654 1432.59 Z" fill="#000000" fill-rule="nonzero" fill-opacity="1" /><path clip-path="url(#clip820)" d="M64.6495 1142.11 Q61.0384 1142.11 59.2097 1145.67 Q57.4041 1149.21 57.4041 1156.34 Q57.4041 1163.45 59.2097 1167.01 Q61.0384 1170.56 64.6495 1170.56 Q68.2837 1170.56 70.0892 1167.01 Q71.9179 1163.45 71.9179 1156.34 Q71.9179 1149.21 70.0892 1145.67 Q68.2837 1142.11 64.6495 1142.11 M64.6495 1138.4 Q70.4596 1138.4 73.5152 1143.01 Q76.5938 1147.59 76.5938 1156.34 Q76.5938 1165.07 73.5152 1169.68 Q70.4596 1174.26 64.6495 1174.26 Q58.8393 1174.26 55.7606 1169.68 Q52.7051 1165.07 52.7051 1156.34 Q52.7051 1147.59 55.7606 1143.01 Q58.8393 1138.4 64.6495 1138.4 Z" fill="#000000" fill-rule="nonzero" fill-opacity="1" /><path clip-path="url(#clip820)" d="M84.8114 1167.71 L89.6956 1167.71 L89.6956 1173.59 L84.8114 1173.59 L84.8114 1167.71 Z" fill="#000000" fill-rule="nonzero" fill-opacity="1" /><path clip-path="url(#clip820)" d="M100.691 1169.65 L108.33 1169.65 L108.33 1143.29 L100.02 1144.95 L100.02 1140.69 L108.283 1139.03 L112.959 1139.03 L112.959 1169.65 L120.598 1169.65 L120.598 1173.59 L100.691 1173.59 L100.691 1169.65 Z" fill="#000000" fill-rule="nonzero" fill-opacity="1" /><path clip-path="url(#clip820)" d="M65.0198 847.923 Q61.4087 847.923 59.58 851.488 Q57.7745 855.029 57.7745 862.159 Q57.7745 869.265 59.58 872.83 Q61.4087 876.372 65.0198 876.372 Q68.6541 876.372 70.4596 872.83 Q72.2883 869.265 72.2883 862.159 Q72.2883 855.029 70.4596 851.488 Q68.6541 847.923 65.0198 847.923 M65.0198 844.219 Q70.83 844.219 73.8855 848.826 Q76.9642 853.409 76.9642 862.159 Q76.9642 870.886 73.8855 875.492 Q70.83 880.076 65.0198 880.076 Q59.2097 880.076 56.131 875.492 Q53.0754 870.886 53.0754 862.159 Q53.0754 853.409 56.131 848.826 Q59.2097 844.219 65.0198 844.219 Z" fill="#000000" fill-rule="nonzero" fill-opacity="1" /><path clip-path="url(#clip820)" d="M85.1818 873.525 L90.066 873.525 L90.066 879.404 L85.1818 879.404 L85.1818 873.525 Z" fill="#000000" fill-rule="nonzero" fill-opacity="1" /><path clip-path="url(#clip820)" d="M104.279 875.469 L120.598 875.469 L120.598 879.404 L98.6539 879.404 L98.6539 875.469 Q101.316 872.715 105.899 868.085 Q110.506 863.432 111.686 862.09 Q113.932 859.566 114.811 857.83 Q115.714 856.071 115.714 854.381 Q115.714 851.627 113.77 849.891 Q111.848 848.154 108.746 848.154 Q106.547 848.154 104.094 848.918 Q101.663 849.682 98.8854 851.233 L98.8854 846.511 Q101.709 845.377 104.163 844.798 Q106.617 844.219 108.654 844.219 Q114.024 844.219 117.219 846.904 Q120.413 849.59 120.413 854.08 Q120.413 856.21 119.603 858.131 Q118.816 860.029 116.709 862.622 Q116.131 863.293 113.029 866.511 Q109.927 869.705 104.279 875.469 Z" fill="#000000" fill-rule="nonzero" fill-opacity="1" /><path clip-path="url(#clip820)" d="M64.0708 553.74 Q60.4597 553.74 58.631 557.305 Q56.8254 560.846 56.8254 567.976 Q56.8254 575.082 58.631 578.647 Q60.4597 582.189 64.0708 582.189 Q67.705 582.189 69.5105 578.647 Q71.3392 575.082 71.3392 567.976 Q71.3392 560.846 69.5105 557.305 Q67.705 553.74 64.0708 553.74 M64.0708 550.036 Q69.8809 550.036 72.9365 554.643 Q76.0151 559.226 76.0151 567.976 Q76.0151 576.703 72.9365 581.309 Q69.8809 585.892 64.0708 585.892 Q58.2606 585.892 55.1819 581.309 Q52.1264 576.703 52.1264 567.976 Q52.1264 559.226 55.1819 554.643 Q58.2606 550.036 64.0708 550.036 Z" fill="#000000" fill-rule="nonzero" fill-opacity="1" /><path clip-path="url(#clip820)" d="M84.2327 579.341 L89.1169 579.341 L89.1169 585.221 L84.2327 585.221 L84.2327 579.341 Z" fill="#000000" fill-rule="nonzero" fill-opacity="1" /><path clip-path="url(#clip820)" d="M113.469 566.587 Q116.825 567.305 118.7 569.573 Q120.598 571.842 120.598 575.175 Q120.598 580.291 117.08 583.091 Q113.561 585.892 107.08 585.892 Q104.904 585.892 102.589 585.453 Q100.297 585.036 97.8437 584.179 L97.8437 579.666 Q99.7882 580.8 102.103 581.379 Q104.418 581.957 106.941 581.957 Q111.339 581.957 113.631 580.221 Q115.945 578.485 115.945 575.175 Q115.945 572.119 113.793 570.406 Q111.663 568.67 107.844 568.67 L103.816 568.67 L103.816 564.828 L108.029 564.828 Q111.478 564.828 113.307 563.462 Q115.135 562.073 115.135 559.48 Q115.135 556.818 113.237 555.406 Q111.362 553.971 107.844 553.971 Q105.922 553.971 103.723 554.388 Q101.524 554.805 98.8854 555.684 L98.8854 551.518 Q101.547 550.777 103.862 550.406 Q106.2 550.036 108.26 550.036 Q113.584 550.036 116.686 552.467 Q119.788 554.874 119.788 558.994 Q119.788 561.865 118.145 563.855 Q116.501 565.823 113.469 566.587 Z" fill="#000000" fill-rule="nonzero" fill-opacity="1" /><path clip-path="url(#clip820)" d="M62.9365 259.557 Q59.3254 259.557 57.4967 263.121 Q55.6912 266.663 55.6912 273.793 Q55.6912 280.899 57.4967 284.464 Q59.3254 288.005 62.9365 288.005 Q66.5707 288.005 68.3763 284.464 Q70.205 280.899 70.205 273.793 Q70.205 266.663 68.3763 263.121 Q66.5707 259.557 62.9365 259.557 M62.9365 255.853 Q68.7467 255.853 71.8022 260.459 Q74.8809 265.043 74.8809 273.793 Q74.8809 282.519 71.8022 287.126 Q68.7467 291.709 62.9365 291.709 Q57.1264 291.709 54.0477 287.126 Q50.9921 282.519 50.9921 273.793 Q50.9921 265.043 54.0477 260.459 Q57.1264 255.853 62.9365 255.853 Z" fill="#000000" fill-rule="nonzero" fill-opacity="1" /><path clip-path="url(#clip820)" d="M83.0984 285.158 L87.9827 285.158 L87.9827 291.038 L83.0984 291.038 L83.0984 285.158 Z" fill="#000000" fill-rule="nonzero" fill-opacity="1" /><path clip-path="url(#clip820)" d="M111.015 260.552 L99.2095 279.001 L111.015 279.001 L111.015 260.552 M109.788 256.478 L115.668 256.478 L115.668 279.001 L120.598 279.001 L120.598 282.89 L115.668 282.89 L115.668 291.038 L111.015 291.038 L111.015 282.89 L95.4132 282.89 L95.4132 278.376 L109.788 256.478 Z" fill="#000000" fill-rule="nonzero" fill-opacity="1" /><circle clip-path="url(#clip821)" cx="1418.74" cy="1363.8" r="14.4" fill="#808080" fill-rule="evenodd" fill-opacity="1" stroke="#000000" stroke-opacity="1" stroke-width="3.2"/>
<circle clip-path="url(#clip821)" cx="1371.18" cy="1445.72" r="14.4" fill="#808080" fill-rule="evenodd" fill-opacity="1" stroke="#000000" stroke-opacity="1" stroke-width="3.2"/>
<circle clip-path="url(#clip821)" cx="2290.6" cy="1311.8" r="14.4" fill="#808080" fill-rule="evenodd" fill-opacity="1" stroke="#000000" stroke-opacity="1" stroke-width="3.2"/>
<circle clip-path="url(#clip821)" cx="218.754" cy="87.9763" r="14.4" fill="#808080" fill-rule="evenodd" fill-opacity="1" stroke="#000000" stroke-opacity="1" stroke-width="3.2"/>
<path clip-path="url(#clip820)" d="M1423.03 1371.24 Q1414 1371.24 1410.51 1373.3 Q1407.03 1375.37 1407.03 1380.35 Q1407.03 1384.32 1409.62 1386.67 Q1412.26 1388.98 1416.75 1388.98 Q1422.95 1388.98 1426.68 1384.61 Q1430.44 1380.19 1430.44 1372.9 L1430.44 1371.24 L1423.03 1371.24 M1437.9 1368.16 L1437.9 1394.04 L1430.44 1394.04 L1430.44 1387.16 Q1427.89 1391.29 1424.08 1393.28 Q1420.28 1395.22 1414.77 1395.22 Q1407.8 1395.22 1403.67 1391.33 Q1399.58 1387.4 1399.58 1380.84 Q1399.58 1373.18 1404.68 1369.29 Q1409.82 1365.4 1419.99 1365.4 L1430.44 1365.4 L1430.44 1364.68 Q1430.44 1359.53 1427.04 1356.74 Q1423.68 1353.9 1417.56 1353.9 Q1413.67 1353.9 1409.99 1354.83 Q1406.3 1355.76 1402.9 1357.63 L1402.9 1350.74 Q1406.99 1349.16 1410.84 1348.39 Q1414.69 1347.58 1418.33 1347.58 Q1428.18 1347.58 1433.04 1352.69 Q1437.9 1357.79 1437.9 1368.16 Z" fill="#000000" fill-rule="nonzero" fill-opacity="1" /><path clip-path="url(#clip820)" d="M1383.74 1453.31 Q1383.74 1445.09 1380.34 1440.43 Q1376.97 1435.73 1371.06 1435.73 Q1365.15 1435.73 1361.74 1440.43 Q1358.38 1445.09 1358.38 1453.31 Q1358.38 1461.53 1361.74 1466.23 Q1365.15 1470.89 1371.06 1470.89 Q1376.97 1470.89 1380.34 1466.23 Q1383.74 1461.53 1383.74 1453.31 M1358.38 1437.47 Q1360.73 1433.42 1364.29 1431.48 Q1367.9 1429.49 1372.88 1429.49 Q1381.15 1429.49 1386.29 1436.05 Q1391.48 1442.62 1391.48 1453.31 Q1391.48 1464.01 1386.29 1470.57 Q1381.15 1477.13 1372.88 1477.13 Q1367.9 1477.13 1364.29 1475.19 Q1360.73 1473.2 1358.38 1469.15 L1358.38 1475.96 L1350.89 1475.96 L1350.89 1412.92 L1358.38 1412.92 L1358.38 1437.47 Z" fill="#000000" fill-rule="nonzero" fill-opacity="1" /><path clip-path="url(#clip820)" d="M2308.55 1298.41 L2308.55 1305.38 Q2305.39 1303.63 2302.19 1302.78 Q2299.03 1301.89 2295.79 1301.89 Q2288.53 1301.89 2284.52 1306.51 Q2280.51 1311.09 2280.51 1319.39 Q2280.51 1327.7 2284.52 1332.32 Q2288.53 1336.89 2295.79 1336.89 Q2299.03 1336.89 2302.19 1336.04 Q2305.39 1335.15 2308.55 1333.41 L2308.55 1340.3 Q2305.43 1341.75 2302.06 1342.48 Q2298.74 1343.21 2294.98 1343.21 Q2284.73 1343.21 2278.69 1336.77 Q2272.65 1330.33 2272.65 1319.39 Q2272.65 1308.29 2278.73 1301.93 Q2284.85 1295.57 2295.46 1295.57 Q2298.9 1295.57 2302.19 1296.3 Q2305.47 1296.99 2308.55 1298.41 Z" fill="#000000" fill-rule="nonzero" fill-opacity="1" /><path clip-path="url(#clip820)" d="M231.575 79.7327 L231.575 55.1842 L239.028 55.1842 L239.028 118.216 L231.575 118.216 L231.575 111.411 Q229.225 115.462 225.62 117.447 Q222.055 119.391 217.032 119.391 Q208.809 119.391 203.624 112.829 Q198.479 106.266 198.479 95.5717 Q198.479 84.8773 203.624 78.3149 Q208.809 71.7524 217.032 71.7524 Q222.055 71.7524 225.62 73.7373 Q229.225 75.6818 231.575 79.7327 M206.176 95.5717 Q206.176 103.795 209.538 108.494 Q212.941 113.153 218.855 113.153 Q224.769 113.153 228.172 108.494 Q231.575 103.795 231.575 95.5717 Q231.575 87.3484 228.172 82.6898 Q224.769 77.9908 218.855 77.9908 Q212.941 77.9908 209.538 82.6898 Q206.176 87.3484 206.176 95.5717 Z" fill="#000000" fill-rule="nonzero" fill-opacity="1" /><path clip-path="url(#clip820)" d="M2007.5 198.898 L2279.55 198.898 L2279.55 95.2176 L2007.5 95.2176  Z" fill="#ffffff" fill-rule="evenodd" fill-opacity="1"/>
<polyline clip-path="url(#clip820)" style="stroke:#000000; stroke-linecap:round; stroke-linejoin:round; stroke-width:4; stroke-opacity:1; fill:none" points="2007.5,198.898 2279.55,198.898 2279.55,95.2176 2007.5,95.2176 2007.5,198.898 "/>
<circle clip-path="url(#clip820)" cx="2105.11" cy="147.058" r="20.48" fill="#808080" fill-rule="evenodd" fill-opacity="1" stroke="#000000" stroke-opacity="1" stroke-width="4.55111"/>
<path clip-path="url(#clip820)" d="M2216.56 166.745 Q2214.76 171.375 2213.04 172.787 Q2211.33 174.199 2208.46 174.199 L2205.06 174.199 L2205.06 170.634 L2207.56 170.634 Q2209.32 170.634 2210.29 169.8 Q2211.26 168.967 2212.44 165.865 L2213.2 163.921 L2202.72 138.412 L2207.23 138.412 L2215.33 158.689 L2223.44 138.412 L2227.95 138.412 L2216.56 166.745 Z" fill="#000000" fill-rule="nonzero" fill-opacity="1" /><path clip-path="url(#clip820)" d="M2235.24 160.402 L2242.88 160.402 L2242.88 134.037 L2234.57 135.703 L2234.57 131.444 L2242.83 129.778 L2247.51 129.778 L2247.51 160.402 L2255.15 160.402 L2255.15 164.338 L2235.24 164.338 L2235.24 160.402 Z" fill="#000000" fill-rule="nonzero" fill-opacity="1" /></svg>
