<?xml version="1.0" encoding="utf-8"?>
<svg xmlns="http://www.w3.org/2000/svg" xmlns:xlink="http://www.w3.org/1999/xlink" width="600" height="400" viewBox="0 0 2400 1600">
<defs>
  <clipPath id="clip660">
    <rect x="0" y="0" width="2400" height="1600"/>
  </clipPath>
</defs>
<path clip-path="url(#clip660)" d="M0 1600 L2400 1600 L2400 0 L0 0  Z" fill="#ffffff" fill-rule="evenodd" fill-opacity="1"/>
<defs>
  <clipPath id="clip661">
    <rect x="112" y="47" width="2242" height="1440"/>
  </clipPath>
</defs>
<path clip-path="url(#clip660)" d="M112.177 1486.45 L2352.76 1486.45 L2352.76 47.2441 L112.177 47.2441  Z" fill="#ffffff" fill-rule="evenodd" fill-opacity="1"/>
<polyline clip-path="url(#clip661)" style="stroke:#000000; stroke-linecap:round; stroke-linejoin:round; stroke-width:2; stroke-opacity:0.1; fill:none" points="229.791,1486.45 229.791,47.2441 "/>
<polyline clip-path="url(#clip661)" style="stroke:#000000; stroke-linecap:round; stroke-linejoin:round; stroke-width:2; stroke-opacity:0.1; fill:none" points="682.49,1486.45 682.49,47.2441 "/>
<polyline clip-path="url(#clip661)" style="stroke:#000000; stroke-linecap:round; stroke-linejoin:round; stroke-width:2; stroke-opacity:0.1; fill:none" points="1135.19,1486.45 1135.19,47.2441 "/>
<polyline clip-path="url(#clip661)" style="stroke:#000000; stroke-linecap:round; stroke-linejoin:round; stroke-width:2; stroke-opacity:0.1; fill:none" points="1587.89,1486.45 1587.89,47.2441 "/>
<polyline clip-path="url(#clip661)" style="stroke:#000000; stroke-linecap:round; stroke-linejoin:round; stroke-width:2; stroke-opacity:0.1; fill:none" points="2040.59,1486.45 2040.59,47.2441 "/>
<polyline clip-path="url(#clip661)" style="stroke:#000000; stroke-linecap:round; stroke-linejoin:round; stroke-width:2; stroke-opacity:0.1; fill:none" points="112.177,1485.47 2352.76,1485.47 "/>
<polyline clip-path="url(#clip661)" style="stroke:#000000; stroke-linecap:round; stroke-linejoin:round; stroke-width:2; stroke-opacity:0.1; fill:none" points="112.177,1153.95 2352.76,1153.95 "/>
<polyline clip-path="url(#clip661)" style="stroke:#000000; stroke-linecap:round; stroke-linejoin:round; stroke-width:2; stroke-opacity:0.1; fill:none" points="112.177,822.419 2352.76,822.419 "/>
<polyline clip-path="url(#clip661)" style="stroke:#000000; stroke-linecap:round; stroke-linejoin:round; stroke-width:2; stroke-opacity:0.1; fill:none" points="112.177,490.892 2352.76,490.892 "/>
<polyline clip-path="url(#clip661)" style="stroke:#000000; stroke-linecap:round; stroke-linejoin:round; stroke-width:2; stroke-opacity:0.1; fill:none" points="112.177,159.366 2352.76,159.366 "/>
<polyline clip-path="url(#clip660)" style="stroke:#000000; stroke-linecap:round; stroke-linejoin:round; stroke-width:4; stroke-opacity:1; fill:none" points="112.177,1486.45 2352.76,1486.45 "/>
<polyline clip-path="url(#clip660)" style="stroke:#000000; stroke-linecap:round; stroke-linejoin:round; stroke-width:4; stroke-opacity:1; fill:none" points="229.791,1486.45 229.791,1467.55 "/>
<polyline clip-path="url(#clip660)" style="stroke:#000000; stroke-linecap:round; stroke-linejoin:round; stroke-width:4; stroke-opacity:1; fill:none" points="682.49,1486.45 682.49,1467.55 "/>
<polyline clip-path="url(#clip660)" style="stroke:#000000; stroke-linecap:round; stroke-linejoin:round; stroke-width:4; stroke-opacity:1; fill:none" points="1135.19,1486.45 1135.19,1467.55 "/>
<polyline clip-path="url(#clip660)" style="stroke:#000000; stroke-linecap:round; stroke-linejoin:round; stroke-width:4; stroke-opacity:1; fill:none" points="1587.89,1486.45 1587.89,1467.55 "/>
<polyline clip-path="url(#clip660)" style="stroke:#000000; stroke-linecap:round; stroke-linejoin:round; stroke-width:4; stroke-opacity:1; fill:none" points="2040.59,1486.45 2040.59,1467.55 "/>
<path clip-path="url(#clip660)" d="M176.816 1532.02 L206.492 1532.02 L206.492 1535.95 L176.816 1535.95 L176.816 1532.02 Z" fill="#000000" fill-rule="nonzero" fill-opacity="1" /><path clip-path="url(#clip660)" d="M217.395 1544.91 L225.034 1544.91 L225.034 1518.55 L216.724 1520.21 L216.724 1515.95 L224.987 1514.29 L229.663 1514.29 L229.663 1544.91 L237.302 1544.91 L237.302 1548.85 L217.395 1548.85 L217.395 1544.91 Z" fill="#000000" fill-rule="nonzero" fill-opacity="1" /><path clip-path="url(#clip660)" d="M246.747 1542.97 L251.631 1542.97 L251.631 1548.85 L246.747 1548.85 L246.747 1542.97 Z" fill="#000000" fill-rule="nonzero" fill-opacity="1" /><path clip-path="url(#clip660)" d="M261.862 1514.29 L280.219 1514.29 L280.219 1518.22 L266.145 1518.22 L266.145 1526.7 Q267.163 1526.35 268.182 1526.19 Q269.2 1526 270.219 1526 Q276.006 1526 279.385 1529.17 Q282.765 1532.34 282.765 1537.76 Q282.765 1543.34 279.293 1546.44 Q275.82 1549.52 269.501 1549.52 Q267.325 1549.52 265.057 1549.15 Q262.811 1548.78 260.404 1548.04 L260.404 1543.34 Q262.487 1544.47 264.709 1545.03 Q266.932 1545.58 269.408 1545.58 Q273.413 1545.58 275.751 1543.48 Q278.089 1541.37 278.089 1537.76 Q278.089 1534.15 275.751 1532.04 Q273.413 1529.94 269.408 1529.94 Q267.534 1529.94 265.659 1530.35 Q263.807 1530.77 261.862 1531.65 L261.862 1514.29 Z" fill="#000000" fill-rule="nonzero" fill-opacity="1" /><path clip-path="url(#clip660)" d="M629.018 1532.02 L658.694 1532.02 L658.694 1535.95 L629.018 1535.95 L629.018 1532.02 Z" fill="#000000" fill-rule="nonzero" fill-opacity="1" /><path clip-path="url(#clip660)" d="M669.597 1544.91 L677.235 1544.91 L677.235 1518.55 L668.925 1520.21 L668.925 1515.95 L677.189 1514.29 L681.865 1514.29 L681.865 1544.91 L689.504 1544.91 L689.504 1548.85 L669.597 1548.85 L669.597 1544.91 Z" fill="#000000" fill-rule="nonzero" fill-opacity="1" /><path clip-path="url(#clip660)" d="M698.948 1542.97 L703.833 1542.97 L703.833 1548.85 L698.948 1548.85 L698.948 1542.97 Z" fill="#000000" fill-rule="nonzero" fill-opacity="1" /><path clip-path="url(#clip660)" d="M724.018 1517.37 Q720.407 1517.37 718.578 1520.93 Q716.772 1524.47 716.772 1531.6 Q716.772 1538.71 718.578 1542.27 Q720.407 1545.82 724.018 1545.82 Q727.652 1545.82 729.457 1542.27 Q731.286 1538.71 731.286 1531.6 Q731.286 1524.47 729.457 1520.93 Q727.652 1517.37 724.018 1517.37 M724.018 1513.66 Q729.828 1513.66 732.883 1518.27 Q735.962 1522.85 735.962 1531.6 Q735.962 1540.33 732.883 1544.94 Q729.828 1549.52 724.018 1549.52 Q718.207 1549.52 715.129 1544.94 Q712.073 1540.33 712.073 1531.6 Q712.073 1522.85 715.129 1518.27 Q718.207 1513.66 724.018 1513.66 Z" fill="#000000" fill-rule="nonzero" fill-opacity="1" /><path clip-path="url(#clip660)" d="M1082.22 1532.02 L1111.89 1532.02 L1111.89 1535.95 L1082.22 1535.95 L1082.22 1532.02 Z" fill="#000000" fill-rule="nonzero" fill-opacity="1" /><path clip-path="url(#clip660)" d="M1131.98 1517.37 Q1128.37 1517.37 1126.54 1520.93 Q1124.74 1524.47 1124.74 1531.6 Q1124.74 1538.71 1126.54 1542.27 Q1128.37 1545.82 1131.98 1545.82 Q1135.62 1545.82 1137.42 1542.27 Q1139.25 1538.71 1139.25 1531.6 Q1139.25 1524.47 1137.42 1520.93 Q1135.62 1517.37 1131.98 1517.37 M1131.98 1513.66 Q1137.79 1513.66 1140.85 1518.27 Q1143.93 1522.85 1143.93 1531.6 Q1143.93 1540.33 1140.85 1544.94 Q1137.79 1549.52 1131.98 1549.52 Q1126.17 1549.52 1123.09 1544.94 Q1120.04 1540.33 1120.04 1531.6 Q1120.04 1522.85 1123.09 1518.27 Q1126.17 1513.66 1131.98 1513.66 Z" fill="#000000" fill-rule="nonzero" fill-opacity="1" /><path clip-path="url(#clip660)" d="M1152.15 1542.97 L1157.03 1542.97 L1157.03 1548.85 L1152.15 1548.85 L1152.15 1542.97 Z" fill="#000000" fill-rule="nonzero" fill-opacity="1" /><path clip-path="url(#clip660)" d="M1167.26 1514.29 L1185.62 1514.29 L1185.62 1518.22 L1171.54 1518.22 L1171.54 1526.7 Q1172.56 1526.35 1173.58 1526.19 Q1174.6 1526 1175.62 1526 Q1181.4 1526 1184.78 1529.17 Q1188.16 1532.34 1188.16 1537.76 Q1188.16 1543.34 1184.69 1546.44 Q1181.22 1549.52 1174.9 1549.52 Q1172.72 1549.52 1170.46 1549.15 Q1168.21 1548.78 1165.8 1548.04 L1165.8 1543.34 Q1167.89 1544.47 1170.11 1545.03 Q1172.33 1545.58 1174.81 1545.58 Q1178.81 1545.58 1181.15 1543.48 Q1183.49 1541.37 1183.49 1537.76 Q1183.49 1534.15 1181.15 1532.04 Q1178.81 1529.94 1174.81 1529.94 Q1172.93 1529.94 1171.06 1530.35 Q1169.21 1530.77 1167.26 1531.65 L1167.26 1514.29 Z" fill="#000000" fill-rule="nonzero" fill-opacity="1" /><path clip-path="url(#clip660)" d="M1565.27 1517.37 Q1561.66 1517.37 1559.83 1520.93 Q1558.03 1524.47 1558.03 1531.6 Q1558.03 1538.71 1559.83 1542.27 Q1561.66 1545.82 1565.27 1545.82 Q1568.91 1545.82 1570.71 1542.27 Q1572.54 1538.71 1572.54 1531.6 Q1572.54 1524.47 1570.71 1520.93 Q1568.91 1517.37 1565.27 1517.37 M1565.27 1513.66 Q1571.08 1513.66 1574.14 1518.27 Q1577.22 1522.85 1577.22 1531.6 Q1577.22 1540.33 1574.14 1544.94 Q1571.08 1549.52 1565.27 1549.52 Q1559.46 1549.52 1556.38 1544.94 Q1553.33 1540.33 1553.33 1531.6 Q1553.33 1522.85 1556.38 1518.27 Q1559.46 1513.66 1565.27 1513.66 Z" fill="#000000" fill-rule="nonzero" fill-opacity="1" /><path clip-path="url(#clip660)" d="M1585.44 1542.97 L1590.32 1542.97 L1590.32 1548.85 L1585.44 1548.85 L1585.44 1542.97 Z" fill="#000000" fill-rule="nonzero" fill-opacity="1" /><path clip-path="url(#clip660)" d="M1610.5 1517.37 Q1606.89 1517.37 1605.06 1520.93 Q1603.26 1524.47 1603.26 1531.6 Q1603.26 1538.71 1605.06 1542.27 Q1606.89 1545.82 1610.5 1545.82 Q1614.14 1545.82 1615.94 1542.27 Q1617.77 1538.71 1617.77 1531.6 Q1617.77 1524.47 1615.94 1520.93 Q1614.14 1517.37 1610.5 1517.37 M1610.5 1513.66 Q1616.31 1513.66 1619.37 1518.27 Q1622.45 1522.85 1622.45 1531.6 Q1622.45 1540.33 1619.37 1544.94 Q1616.31 1549.52 1610.5 1549.52 Q1604.69 1549.52 1601.62 1544.94 Q1598.56 1540.33 1598.56 1531.6 Q1598.56 1522.85 1601.62 1518.27 Q1604.69 1513.66 1610.5 1513.66 Z" fill="#000000" fill-rule="nonzero" fill-opacity="1" /><path clip-path="url(#clip660)" d="M2018.47 1517.37 Q2014.86 1517.37 2013.03 1520.93 Q2011.23 1524.47 2011.23 1531.6 Q2011.23 1538.71 2013.03 1542.27 Q2014.86 1545.82 2018.47 1545.82 Q2022.1 1545.82 2023.91 1542.27 Q2025.74 1538.71 2025.74 1531.6 Q2025.74 1524.47 2023.91 1520.93 Q2022.1 1517.37 2018.47 1517.37 M2018.47 1513.66 Q2024.28 1513.66 2027.34 1518.27 Q2030.41 1522.85 2030.41 1531.6 Q2030.41 1540.33 2027.34 1544.94 Q2024.28 1549.52 2018.47 1549.52 Q2012.66 1549.52 2009.58 1544.94 Q2006.53 1540.33 2006.53 1531.6 Q2006.53 1522.85 2009.58 1518.27 Q2012.66 1513.66 2018.47 1513.66 Z" fill="#000000" fill-rule="nonzero" fill-opacity="1" /><path clip-path="url(#clip660)" d="M2038.63 1542.97 L2043.52 1542.97 L2043.52 1548.85 L2038.63 1548.85 L2038.63 1542.97 Z" fill="#000000" fill-rule="nonzero" fill-opacity="1" /><path clip-path="url(#clip660)" d="M2053.75 1514.29 L2072.1 1514.29 L2072.1 1518.22 L2058.03 1518.22 L2058.03 1526.7 Q2059.05 1526.35 2060.07 1526.19 Q2061.09 1526 2062.1 1526 Q2067.89 1526 2071.27 1529.17 Q2074.65 1532.34 2074.65 1537.76 Q2074.65 1543.34 2071.18 1546.44 Q2067.71 1549.52 2061.39 1549.52 Q2059.21 1549.52 2056.94 1549.15 Q2054.7 1548.78 2052.29 1548.04 L2052.29 1543.34 Q2054.37 1544.47 2056.6 1545.03 Q2058.82 1545.58 2061.29 1545.58 Q2065.3 1545.58 2067.64 1543.48 Q2069.97 1541.37 2069.97 1537.76 Q2069.97 1534.15 2067.64 1532.04 Q2065.3 1529.94 2061.29 1529.94 Q2059.42 1529.94 2057.54 1530.35 Q2055.69 1530.77 2053.75 1531.65 L2053.75 1514.29 Z" fill="#000000" fill-rule="nonzero" fill-opacity="1" /><polyline clip-path="url(#clip660)" style="stroke:#000000; stroke-linecap:round; stroke-linejoin:round; stroke-width:4; stroke-opacity:1; fill:none" points="112.177,1486.45 112.177,47.2441 "/>
<polyline clip-path="url(#clip660)" style="stroke:#000000; stroke-linecap:round; stroke-linejoin:round; stroke-width:4; stroke-opacity:1; fill:none" points="112.177,1485.47 131.075,1485.47 "/>
<polyline clip-path="url(#clip660)" style="stroke:#000000; stroke-linecap:round; stroke-linejoin:round; stroke-width:4; stroke-opacity:1; fill:none" points="112.177,1153.95 131.075,1153.95 "/>
<polyline clip-path="url(#clip660)" style="stroke:#000000; stroke-linecap:round; stroke-linejoin:round; stroke-width:4; stroke-opacity:1; fill:none" points="112.177,822.419 131.075,822.419 "/>
<polyline clip-path="url(#clip660)" style="stroke:#000000; stroke-linecap:round; stroke-linejoin:round; stroke-width:4; stroke-opacity:1; fill:none" points="112.177,490.892 131.075,490.892 "/>
<polyline clip-path="url(#clip660)" style="stroke:#000000; stroke-linecap:round; stroke-linejoin:round; stroke-width:4; stroke-opacity:1; fill:none" points="112.177,159.366 131.075,159.366 "/>
<path clip-path="url(#clip660)" d="M64.2328 1471.27 Q60.6217 1471.27 58.793 1474.84 Q56.9875 1478.38 56.9875 1485.51 Q56.9875 1492.61 58.793 1496.18 Q60.6217 1499.72 64.2328 1499.72 Q67.867 1499.72 69.6726 1496.18 Q71.5013 1492.61 71.5013 1485.51 Q71.5013 1478.38 69.6726 1474.84 Q67.867 1471.27 64.2328 1471.27 M64.2328 1467.57 Q70.0429 1467.57 73.0985 1472.17 Q76.1772 1476.76 76.1772 1485.51 Q76.1772 1494.23 73.0985 1498.84 Q70.0429 1503.42 64.2328 1503.42 Q58.4226 1503.42 55.344 1498.84 Q52.2884 1494.23 52.2884 1485.51 Q52.2884 1476.76 55.344 1472.17 Q58.4226 1467.57 64.2328 1467.57 Z" fill="#000000" fill-rule="nonzero" fill-opacity="1" /><path clip-path="url(#clip660)" d="M59.8578 1167.29 L76.1772 1167.29 L76.1772 1171.23 L54.2328 1171.23 L54.2328 1167.29 Q56.8949 1164.54 61.4782 1159.91 Q66.0846 1155.25 67.2652 1153.91 Q69.5105 1151.39 70.3902 1149.65 Q71.2929 1147.89 71.2929 1146.2 Q71.2929 1143.45 69.3485 1141.71 Q67.4272 1139.98 64.3254 1139.98 Q62.1263 1139.98 59.6726 1140.74 Q57.2421 1141.5 54.4643 1143.05 L54.4643 1138.33 Q57.2884 1137.2 59.7421 1136.62 Q62.1958 1136.04 64.2328 1136.04 Q69.6031 1136.04 72.7976 1138.73 Q75.992 1141.41 75.992 1145.9 Q75.992 1148.03 75.1818 1149.95 Q74.3948 1151.85 72.2883 1154.44 Q71.7096 1155.11 68.6078 1158.33 Q65.5059 1161.53 59.8578 1167.29 Z" fill="#000000" fill-rule="nonzero" fill-opacity="1" /><path clip-path="url(#clip660)" d="M66.5939 809.213 L54.7884 827.662 L66.5939 827.662 L66.5939 809.213 M65.367 805.139 L71.2466 805.139 L71.2466 827.662 L76.1772 827.662 L76.1772 831.551 L71.2466 831.551 L71.2466 839.699 L66.5939 839.699 L66.5939 831.551 L50.9921 831.551 L50.9921 827.037 L65.367 805.139 Z" fill="#000000" fill-rule="nonzero" fill-opacity="1" /><path clip-path="url(#clip660)" d="M64.6495 489.029 Q61.5013 489.029 59.6495 491.182 Q57.8208 493.334 57.8208 497.084 Q57.8208 500.811 59.6495 502.987 Q61.5013 505.14 64.6495 505.14 Q67.7976 505.14 69.6263 502.987 Q71.4781 500.811 71.4781 497.084 Q71.4781 493.334 69.6263 491.182 Q67.7976 489.029 64.6495 489.029 M73.9318 474.376 L73.9318 478.635 Q72.1726 477.802 70.367 477.362 Q68.5846 476.922 66.8254 476.922 Q62.1958 476.922 59.7421 480.047 Q57.3115 483.172 56.9643 489.492 Q58.33 487.478 60.3902 486.413 Q62.4504 485.325 64.9272 485.325 Q70.1355 485.325 73.1448 488.496 Q76.1772 491.645 76.1772 497.084 Q76.1772 502.408 73.029 505.626 Q69.8809 508.843 64.6495 508.843 Q58.6541 508.843 55.4828 504.26 Q52.3116 499.654 52.3116 490.927 Q52.3116 482.733 56.2004 477.871 Q60.0893 472.987 66.6402 472.987 Q68.3994 472.987 70.1818 473.334 Q71.9874 473.682 73.9318 474.376 Z" fill="#000000" fill-rule="nonzero" fill-opacity="1" /><path clip-path="url(#clip660)" d="M64.3254 160.234 Q60.9921 160.234 59.0708 162.016 Q57.1726 163.798 57.1726 166.923 Q57.1726 170.048 59.0708 171.831 Q60.9921 173.613 64.3254 173.613 Q67.6587 173.613 69.58 171.831 Q71.5013 170.025 71.5013 166.923 Q71.5013 163.798 69.58 162.016 Q67.6819 160.234 64.3254 160.234 M59.6495 158.243 Q56.6402 157.502 54.9504 155.442 Q53.2838 153.382 53.2838 150.419 Q53.2838 146.275 56.2236 143.868 Q59.1865 141.461 64.3254 141.461 Q69.4874 141.461 72.4272 143.868 Q75.367 146.275 75.367 150.419 Q75.367 153.382 73.6772 155.442 Q72.0105 157.502 69.0244 158.243 Q72.404 159.03 74.279 161.322 Q76.1772 163.613 76.1772 166.923 Q76.1772 171.947 73.0985 174.632 Q70.0429 177.317 64.3254 177.317 Q58.6078 177.317 55.5291 174.632 Q52.4736 171.947 52.4736 166.923 Q52.4736 163.613 54.3717 161.322 Q56.2699 159.03 59.6495 158.243 M57.9365 150.859 Q57.9365 153.544 59.6032 155.048 Q61.293 156.553 64.3254 156.553 Q67.3346 156.553 69.0244 155.048 Q70.7374 153.544 70.7374 150.859 Q70.7374 148.174 69.0244 146.669 Q67.3346 145.164 64.3254 145.164 Q61.293 145.164 59.6032 146.669 Q57.9365 148.174 57.9365 150.859 Z" fill="#000000" fill-rule="nonzero" fill-opacity="1" /><circle clip-path="url(#clip661)" cx="2289.34" cy="1374.5" r="14.4" fill="#808080" fill-rule="evenodd" fill-opacity="1" stroke="#000000" stroke-opacity="1" stroke-width="3.2"/>
<circle clip-path="url(#clip661)" cx="175.59" cy="87.9763" r="14.4" fill="#808080" fill-rule="evenodd" fill-opacity="1" stroke="#000000" stroke-opacity="1" stroke-width="3.2"/>
<circle clip-path="url(#clip661)" cx="1527.03" cy="1445.72" r="14.4" fill="#808080" fill-rule="evenodd" fill-opacity="1" stroke="#000000" stroke-opacity="1" stroke-width="3.2"/>
<circle clip-path="url(#clip661)" cx="1524.26" cy="1437.21" r="14.4" fill="#808080" fill-rule="evenodd" fill-opacity="1" stroke="#000000" stroke-opacity="1" stroke-width="3.2"/>
<path clip-path="url(#clip660)" d="M2293.64 1381.94 Q2284.6 1381.94 2281.12 1384 Q2277.64 1386.07 2277.64 1391.05 Q2277.64 1395.02 2280.23 1397.37 Q2282.86 1399.68 2287.36 1399.68 Q2293.56 1399.68 2297.28 1395.31 Q2301.05 1390.89 2301.05 1383.6 L2301.05 1381.94 L2293.64 1381.94 M2308.5 1378.86 L2308.5 1404.74 L2301.05 1404.74 L2301.05 1397.86 Q2298.5 1401.99 2294.69 1403.97 Q2290.88 1405.92 2285.37 1405.92 Q2278.41 1405.92 2274.27 1402.03 Q2270.18 1398.1 2270.18 1391.54 Q2270.18 1383.88 2275.29 1379.99 Q2280.43 1376.1 2290.6 1376.1 L2301.05 1376.1 L2301.05 1375.38 Q2301.05 1370.23 2297.65 1367.44 Q2294.29 1364.6 2288.17 1364.6 Q2284.28 1364.6 2280.59 1365.53 Q2276.91 1366.46 2273.5 1368.33 L2273.5 1361.44 Q2277.6 1359.86 2281.44 1359.09 Q2285.29 1358.28 2288.94 1358.28 Q2298.78 1358.28 2303.64 1363.38 Q2308.5 1368.49 2308.5 1378.86 Z" fill="#000000" fill-rule="nonzero" fill-opacity="1" /><path clip-path="url(#clip660)" d="M188.148 95.5717 Q188.148 87.3484 184.745 82.6898 Q181.383 77.9908 175.468 77.9908 Q169.554 77.9908 166.151 82.6898 Q162.789 87.3484 162.789 95.5717 Q162.789 103.795 166.151 108.494 Q169.554 113.153 175.468 113.153 Q181.383 113.153 184.745 108.494 Q188.148 103.795 188.148 95.5717 M162.789 79.7327 Q165.138 75.6818 168.703 73.7373 Q172.309 71.7524 177.291 71.7524 Q185.555 71.7524 190.7 78.3149 Q195.885 84.8773 195.885 95.5717 Q195.885 106.266 190.7 112.829 Q185.555 119.391 177.291 119.391 Q172.309 119.391 168.703 117.447 Q165.138 115.462 162.789 111.411 L162.789 118.216 L155.295 118.216 L155.295 55.1842 L162.789 55.1842 L162.789 79.7327 Z" fill="#000000" fill-rule="nonzero" fill-opacity="1" /><path clip-path="url(#clip660)" d="M1544.98 1432.33 L1544.98 1439.3 Q1541.82 1437.55 1538.62 1436.7 Q1535.46 1435.81 1532.22 1435.81 Q1524.97 1435.81 1520.96 1440.43 Q1516.95 1445.01 1516.95 1453.31 Q1516.95 1461.62 1520.96 1466.23 Q1524.97 1470.81 1532.22 1470.81 Q1535.46 1470.81 1538.62 1469.96 Q1541.82 1469.07 1544.98 1467.33 L1544.98 1474.21 Q1541.86 1475.67 1538.5 1476.4 Q1535.18 1477.13 1531.41 1477.13 Q1521.16 1477.13 1515.13 1470.69 Q1509.09 1464.25 1509.09 1453.31 Q1509.09 1442.21 1515.17 1435.85 Q1521.28 1429.49 1531.9 1429.49 Q1535.34 1429.49 1538.62 1430.22 Q1541.9 1430.91 1544.98 1432.33 Z" fill="#000000" fill-rule="nonzero" fill-opacity="1" /><path clip-path="url(#clip660)" d="M1537.08 1428.96 L1537.08 1404.42 L1544.54 1404.42 L1544.54 1467.45 L1537.08 1467.45 L1537.08 1460.64 Q1534.73 1464.69 1531.13 1466.68 Q1527.56 1468.62 1522.54 1468.62 Q1514.32 1468.62 1509.13 1462.06 Q1503.99 1455.5 1503.99 1444.8 Q1503.99 1434.11 1509.13 1427.55 Q1514.32 1420.98 1522.54 1420.98 Q1527.56 1420.98 1531.13 1422.97 Q1534.73 1424.91 1537.08 1428.96 M1511.68 1444.8 Q1511.68 1453.03 1515.05 1457.73 Q1518.45 1462.38 1524.36 1462.38 Q1530.28 1462.38 1533.68 1457.73 Q1537.08 1453.03 1537.08 1444.8 Q1537.08 1436.58 1533.68 1431.92 Q1530.28 1427.22 1524.36 1427.22 Q1518.45 1427.22 1515.05 1431.92 Q1511.68 1436.58 1511.68 1444.8 Z" fill="#000000" fill-rule="nonzero" fill-opacity="1" /><path clip-path="url(#clip660)" d="M2001.58 198.898 L2278.07 198.898 L2278.07 95.2176 L2001.58 95.2176  Z" fill="#ffffff" fill-rule="evenodd" fill-opacity="1"/>
<polyline clip-path="url(#clip660)" style="stroke:#000000; stroke-linecap:round; stroke-linejoin:round; stroke-width:4; stroke-opacity:1; fill:none" points="2001.58,198.898 2278.07,198.898 2278.07,95.2176 2001.58,95.2176 2001.58,198.898 "/>
<circle clip-path="url(#clip660)" cx="2101.16" cy="147.058" r="20.48" fill="#808080" fill-rule="evenodd" fill-opacity="1" stroke="#000000" stroke-opacity="1" stroke-width="4.55111"/>
<path clip-path="url(#clip660)" d="M2214.59 166.745 Q2212.78 171.375 2211.07 172.787 Q2209.36 174.199 2206.49 174.199 L2203.08 174.199 L2203.08 170.634 L2205.58 170.634 Q2207.34 170.634 2208.31 169.8 Q2209.29 168.967 2210.47 165.865 L2211.23 163.921 L2200.74 138.412 L2205.26 138.412 L2213.36 158.689 L2221.46 138.412 L2225.98 138.412 L2214.59 166.745 Z" fill="#000000" fill-rule="nonzero" fill-opacity="1" /><path clip-path="url(#clip660)" d="M2233.27 160.402 L2240.91 160.402 L2240.91 134.037 L2232.6 135.703 L2232.6 131.444 L2240.86 129.778 L2245.54 129.778 L2245.54 160.402 L2253.17 160.402 L2253.17 164.338 L2233.27 164.338 L2233.27 160.402 Z" fill="#000000" fill-rule="nonzero" fill-opacity="1" /></svg>
