<?xml version="1.0" encoding="utf-8"?>
<svg xmlns="http://www.w3.org/2000/svg" xmlns:xlink="http://www.w3.org/1999/xlink" width="600" height="400" viewBox="0 0 2400 1600">
<defs>
  <clipPath id="clip630">
    <rect x="0" y="0" width="2400" height="1600"/>
  </clipPath>
</defs>
<path clip-path="url(#clip630)" d="M0 1600 L2400 1600 L2400 0 L0 0  Z" fill="#ffffff" fill-rule="evenodd" fill-opacity="1"/>
<defs>
  <clipPath id="clip631">
    <rect x="156" y="47" width="2197" height="1440"/>
  </clipPath>
</defs>
<path clip-path="url(#clip630)" d="M156.598 1486.45 L2352.76 1486.45 L2352.76 47.2441 L156.598 47.2441  Z" fill="#ffffff" fill-rule="evenodd" fill-opacity="1"/>
<polyline clip-path="url(#clip631)" style="stroke:#000000; stroke-linecap:round; stroke-linejoin:round; stroke-width:2; stroke-opacity:0.1; fill:none" points="464.153,1486.45 464.153,47.2441 "/>
<polyline clip-path="url(#clip631)" style="stroke:#000000; stroke-linecap:round; stroke-linejoin:round; stroke-width:2; stroke-opacity:0.1; fill:none" points="948.577,1486.45 948.577,47.2441 "/>
<polyline clip-path="url(#clip631)" style="stroke:#000000; stroke-linecap:round; stroke-linejoin:round; stroke-width:2; stroke-opacity:0.1; fill:none" points="1433,1486.45 1433,47.2441 "/>
<polyline clip-path="url(#clip631)" style="stroke:#000000; stroke-linecap:round; stroke-linejoin:round; stroke-width:2; stroke-opacity:0.1; fill:none" points="1917.43,1486.45 1917.43,47.2441 "/>
<polyline clip-path="url(#clip631)" style="stroke:#000000; stroke-linecap:round; stroke-linejoin:round; stroke-width:2; stroke-opacity:0.1; fill:none" points="156.598,1453.55 2352.76,1453.55 "/>
<polyline clip-path="url(#clip631)" style="stroke:#000000; stroke-linecap:round; stroke-linejoin:round; stroke-width:2; stroke-opacity:0.1; fill:none" points="156.598,1130.79 2352.76,1130.79 "/>
<polyline clip-path="url(#clip631)" style="stroke:#000000; stroke-linecap:round; stroke-linejoin:round; stroke-width:2; stroke-opacity:0.1; fill:none" points="156.598,808.033 2352.76,808.033 "/>
<polyline clip-path="url(#clip631)" style="stroke:#000000; stroke-linecap:round; stroke-linejoin:round; stroke-width:2; stroke-opacity:0.1; fill:none" points="156.598,485.273 2352.76,485.273 "/>
<polyline clip-path="url(#clip631)" style="stroke:#000000; stroke-linecap:round; stroke-linejoin:round; stroke-width:2; stroke-opacity:0.1; fill:none" points="156.598,162.513 2352.76,162.513 "/>
<polyline clip-path="url(#clip630)" style="stroke:#000000; stroke-linecap:round; stroke-linejoin:round; stroke-width:4; stroke-opacity:1; fill:none" points="156.598,1486.45 2352.76,1486.45 "/>
<polyline clip-path="url(#clip630)" style="stroke:#000000; stroke-linecap:round; stroke-linejoin:round; stroke-width:4; stroke-opacity:1; fill:none" points="464.153,1486.45 464.153,1467.55 "/>
<polyline clip-path="url(#clip630)" style="stroke:#000000; stroke-linecap:round; stroke-linejoin:round; stroke-width:4; stroke-opacity:1; fill:none" points="948.577,1486.45 948.577,1467.55 "/>
<polyline clip-path="url(#clip630)" style="stroke:#000000; stroke-linecap:round; stroke-linejoin:round; stroke-width:4; stroke-opacity:1; fill:none" points="1433,1486.45 1433,1467.55 "/>
<polyline clip-path="url(#clip630)" style="stroke:#000000; stroke-linecap:round; stroke-linejoin:round; stroke-width:4; stroke-opacity:1; fill:none" points="1917.43,1486.45 1917.43,1467.55 "/>
<path clip-path="url(#clip630)" d="M410.438 1532.02 L440.114 1532.02 L440.114 1535.95 L410.438 1535.95 L410.438 1532.02 Z" fill="#000000" fill-rule="nonzero" fill-opacity="1" /><path clip-path="url(#clip630)" d="M460.207 1517.37 Q456.596 1517.37 454.767 1520.93 Q452.961 1524.47 452.961 1531.6 Q452.961 1538.71 454.767 1542.27 Q456.596 1545.82 460.207 1545.82 Q463.841 1545.82 465.646 1542.27 Q467.475 1538.71 467.475 1531.6 Q467.475 1524.47 465.646 1520.93 Q463.841 1517.37 460.207 1517.37 M460.207 1513.66 Q466.017 1513.66 469.072 1518.27 Q472.151 1522.85 472.151 1531.6 Q472.151 1540.33 469.072 1544.94 Q466.017 1549.52 460.207 1549.52 Q454.396 1549.52 451.318 1544.94 Q448.262 1540.33 448.262 1531.6 Q448.262 1522.85 451.318 1518.27 Q454.396 1513.66 460.207 1513.66 Z" fill="#000000" fill-rule="nonzero" fill-opacity="1" /><path clip-path="url(#clip630)" d="M480.369 1542.97 L485.253 1542.97 L485.253 1548.85 L480.369 1548.85 L480.369 1542.97 Z" fill="#000000" fill-rule="nonzero" fill-opacity="1" /><path clip-path="url(#clip630)" d="M508.285 1518.36 L496.48 1536.81 L508.285 1536.81 L508.285 1518.36 M507.058 1514.29 L512.938 1514.29 L512.938 1536.81 L517.868 1536.81 L517.868 1540.7 L512.938 1540.7 L512.938 1548.85 L508.285 1548.85 L508.285 1540.7 L492.683 1540.7 L492.683 1536.19 L507.058 1514.29 Z" fill="#000000" fill-rule="nonzero" fill-opacity="1" /><path clip-path="url(#clip630)" d="M895.904 1532.02 L925.58 1532.02 L925.58 1535.95 L895.904 1535.95 L895.904 1532.02 Z" fill="#000000" fill-rule="nonzero" fill-opacity="1" /><path clip-path="url(#clip630)" d="M945.672 1517.37 Q942.061 1517.37 940.233 1520.93 Q938.427 1524.47 938.427 1531.6 Q938.427 1538.71 940.233 1542.27 Q942.061 1545.82 945.672 1545.82 Q949.307 1545.82 951.112 1542.27 Q952.941 1538.71 952.941 1531.6 Q952.941 1524.47 951.112 1520.93 Q949.307 1517.37 945.672 1517.37 M945.672 1513.66 Q951.483 1513.66 954.538 1518.27 Q957.617 1522.85 957.617 1531.6 Q957.617 1540.33 954.538 1544.94 Q951.483 1549.52 945.672 1549.52 Q939.862 1549.52 936.784 1544.94 Q933.728 1540.33 933.728 1531.6 Q933.728 1522.85 936.784 1518.27 Q939.862 1513.66 945.672 1513.66 Z" fill="#000000" fill-rule="nonzero" fill-opacity="1" /><path clip-path="url(#clip630)" d="M965.834 1542.97 L970.719 1542.97 L970.719 1548.85 L965.834 1548.85 L965.834 1542.97 Z" fill="#000000" fill-rule="nonzero" fill-opacity="1" /><path clip-path="url(#clip630)" d="M984.931 1544.91 L1001.25 1544.91 L1001.25 1548.85 L979.306 1548.85 L979.306 1544.91 Q981.968 1542.16 986.552 1537.53 Q991.158 1532.88 992.339 1531.53 Q994.584 1529.01 995.464 1527.27 Q996.367 1525.51 996.367 1523.82 Q996.367 1521.07 994.422 1519.33 Q992.501 1517.6 989.399 1517.6 Q987.2 1517.6 984.746 1518.36 Q982.316 1519.13 979.538 1520.68 L979.538 1515.95 Q982.362 1514.82 984.816 1514.24 Q987.269 1513.66 989.306 1513.66 Q994.677 1513.66 997.871 1516.35 Q1001.07 1519.03 1001.07 1523.52 Q1001.07 1525.65 1000.26 1527.57 Q999.468 1529.47 997.362 1532.07 Q996.783 1532.74 993.681 1535.95 Q990.58 1539.15 984.931 1544.91 Z" fill="#000000" fill-rule="nonzero" fill-opacity="1" /><path clip-path="url(#clip630)" d="M1410.39 1517.37 Q1406.77 1517.37 1404.95 1520.93 Q1403.14 1524.47 1403.14 1531.6 Q1403.14 1538.71 1404.95 1542.27 Q1406.77 1545.82 1410.39 1545.82 Q1414.02 1545.82 1415.83 1542.27 Q1417.65 1538.71 1417.65 1531.6 Q1417.65 1524.47 1415.83 1520.93 Q1414.02 1517.37 1410.39 1517.37 M1410.39 1513.66 Q1416.2 1513.66 1419.25 1518.27 Q1422.33 1522.85 1422.33 1531.6 Q1422.33 1540.33 1419.25 1544.94 Q1416.2 1549.52 1410.39 1549.52 Q1404.58 1549.52 1401.5 1544.94 Q1398.44 1540.33 1398.44 1531.6 Q1398.44 1522.85 1401.5 1518.27 Q1404.58 1513.66 1410.39 1513.66 Z" fill="#000000" fill-rule="nonzero" fill-opacity="1" /><path clip-path="url(#clip630)" d="M1430.55 1542.97 L1435.43 1542.97 L1435.43 1548.85 L1430.55 1548.85 L1430.55 1542.97 Z" fill="#000000" fill-rule="nonzero" fill-opacity="1" /><path clip-path="url(#clip630)" d="M1455.62 1517.37 Q1452.01 1517.37 1450.18 1520.93 Q1448.37 1524.47 1448.37 1531.6 Q1448.37 1538.71 1450.18 1542.27 Q1452.01 1545.82 1455.62 1545.82 Q1459.25 1545.82 1461.06 1542.27 Q1462.89 1538.71 1462.89 1531.6 Q1462.89 1524.47 1461.06 1520.93 Q1459.25 1517.37 1455.62 1517.37 M1455.62 1513.66 Q1461.43 1513.66 1464.48 1518.27 Q1467.56 1522.85 1467.56 1531.6 Q1467.56 1540.33 1464.48 1544.94 Q1461.43 1549.52 1455.62 1549.52 Q1449.81 1549.52 1446.73 1544.94 Q1443.67 1540.33 1443.67 1531.6 Q1443.67 1522.85 1446.73 1518.27 Q1449.81 1513.66 1455.62 1513.66 Z" fill="#000000" fill-rule="nonzero" fill-opacity="1" /><path clip-path="url(#clip630)" d="M1895.61 1517.37 Q1892 1517.37 1890.17 1520.93 Q1888.36 1524.47 1888.36 1531.6 Q1888.36 1538.71 1890.17 1542.27 Q1892 1545.82 1895.61 1545.82 Q1899.24 1545.82 1901.05 1542.27 Q1902.88 1538.71 1902.88 1531.6 Q1902.88 1524.47 1901.05 1520.93 Q1899.24 1517.37 1895.61 1517.37 M1895.61 1513.66 Q1901.42 1513.66 1904.47 1518.27 Q1907.55 1522.85 1907.55 1531.6 Q1907.55 1540.33 1904.47 1544.94 Q1901.42 1549.52 1895.61 1549.52 Q1889.8 1549.52 1886.72 1544.94 Q1883.66 1540.33 1883.66 1531.6 Q1883.66 1522.85 1886.72 1518.27 Q1889.8 1513.66 1895.61 1513.66 Z" fill="#000000" fill-rule="nonzero" fill-opacity="1" /><path clip-path="url(#clip630)" d="M1915.77 1542.97 L1920.65 1542.97 L1920.65 1548.85 L1915.77 1548.85 L1915.77 1542.97 Z" fill="#000000" fill-rule="nonzero" fill-opacity="1" /><path clip-path="url(#clip630)" d="M1934.87 1544.91 L1951.19 1544.91 L1951.19 1548.85 L1929.24 1548.85 L1929.24 1544.91 Q1931.9 1542.16 1936.49 1537.53 Q1941.09 1532.88 1942.27 1531.53 Q1944.52 1529.01 1945.4 1527.27 Q1946.3 1525.51 1946.3 1523.82 Q1946.3 1521.07 1944.36 1519.33 Q1942.44 1517.6 1939.34 1517.6 Q1937.14 1517.6 1934.68 1518.36 Q1932.25 1519.13 1929.47 1520.68 L1929.47 1515.95 Q1932.3 1514.82 1934.75 1514.24 Q1937.21 1513.66 1939.24 1513.66 Q1944.61 1513.66 1947.81 1516.35 Q1951 1519.03 1951 1523.52 Q1951 1525.65 1950.19 1527.57 Q1949.4 1529.47 1947.3 1532.07 Q1946.72 1532.74 1943.62 1535.95 Q1940.52 1539.15 1934.87 1544.91 Z" fill="#000000" fill-rule="nonzero" fill-opacity="1" /><polyline clip-path="url(#clip630)" style="stroke:#000000; stroke-linecap:round; stroke-linejoin:round; stroke-width:4; stroke-opacity:1; fill:none" points="156.598,1486.45 156.598,47.2441 "/>
<polyline clip-path="url(#clip630)" style="stroke:#000000; stroke-linecap:round; stroke-linejoin:round; stroke-width:4; stroke-opacity:1; fill:none" points="156.598,1453.55 175.496,1453.55 "/>
<polyline clip-path="url(#clip630)" style="stroke:#000000; stroke-linecap:round; stroke-linejoin:round; stroke-width:4; stroke-opacity:1; fill:none" points="156.598,1130.79 175.496,1130.79 "/>
<polyline clip-path="url(#clip630)" style="stroke:#000000; stroke-linecap:round; stroke-linejoin:round; stroke-width:4; stroke-opacity:1; fill:none" points="156.598,808.033 175.496,808.033 "/>
<polyline clip-path="url(#clip630)" style="stroke:#000000; stroke-linecap:round; stroke-linejoin:round; stroke-width:4; stroke-opacity:1; fill:none" points="156.598,485.273 175.496,485.273 "/>
<polyline clip-path="url(#clip630)" style="stroke:#000000; stroke-linecap:round; stroke-linejoin:round; stroke-width:4; stroke-opacity:1; fill:none" points="156.598,162.513 175.496,162.513 "/>
<path clip-path="url(#clip630)" d="M63.4226 1439.35 Q59.8115 1439.35 57.9828 1442.92 Q56.1773 1446.46 56.1773 1453.59 Q56.1773 1460.69 57.9828 1464.26 Q59.8115 1467.8 63.4226 1467.8 Q67.0569 1467.8 68.8624 1464.26 Q70.6911 1460.69 70.6911 1453.59 Q70.6911 1446.46 68.8624 1442.92 Q67.0569 1439.35 63.4226 1439.35 M63.4226 1435.65 Q69.2328 1435.65 72.2883 1440.25 Q75.367 1444.84 75.367 1453.59 Q75.367 1462.31 72.2883 1466.92 Q69.2328 1471.5 63.4226 1471.5 Q57.6125 1471.5 54.5338 1466.92 Q51.4782 1462.31 51.4782 1453.59 Q51.4782 1444.84 54.5338 1440.25 Q57.6125 1435.65 63.4226 1435.65 Z" fill="#000000" fill-rule="nonzero" fill-opacity="1" /><path clip-path="url(#clip630)" d="M83.5845 1464.95 L88.4688 1464.95 L88.4688 1470.83 L83.5845 1470.83 L83.5845 1464.95 Z" fill="#000000" fill-rule="nonzero" fill-opacity="1" /><path clip-path="url(#clip630)" d="M108.654 1439.35 Q105.043 1439.35 103.214 1442.92 Q101.409 1446.46 101.409 1453.59 Q101.409 1460.69 103.214 1464.26 Q105.043 1467.8 108.654 1467.8 Q112.288 1467.8 114.094 1464.26 Q115.922 1460.69 115.922 1453.59 Q115.922 1446.46 114.094 1442.92 Q112.288 1439.35 108.654 1439.35 M108.654 1435.65 Q114.464 1435.65 117.52 1440.25 Q120.598 1444.84 120.598 1453.59 Q120.598 1462.31 117.52 1466.92 Q114.464 1471.5 108.654 1471.5 Q102.844 1471.5 99.765 1466.92 Q96.7095 1462.31 96.7095 1453.59 Q96.7095 1444.84 99.765 1440.25 Q102.844 1435.65 108.654 1435.65 Z" fill="#000000" fill-rule="nonzero" fill-opacity="1" /><path clip-path="url(#clip630)" d="M64.6495 1116.59 Q61.0384 1116.59 59.2097 1120.16 Q57.4041 1123.7 57.4041 1130.83 Q57.4041 1137.93 59.2097 1141.5 Q61.0384 1145.04 64.6495 1145.04 Q68.2837 1145.04 70.0892 1141.5 Q71.9179 1137.93 71.9179 1130.83 Q71.9179 1123.7 70.0892 1120.16 Q68.2837 1116.59 64.6495 1116.59 M64.6495 1112.89 Q70.4596 1112.89 73.5152 1117.49 Q76.5938 1122.08 76.5938 1130.83 Q76.5938 1139.55 73.5152 1144.16 Q70.4596 1148.74 64.6495 1148.74 Q58.8393 1148.74 55.7606 1144.16 Q52.7051 1139.55 52.7051 1130.83 Q52.7051 1122.08 55.7606 1117.49 Q58.8393 1112.89 64.6495 1112.89 Z" fill="#000000" fill-rule="nonzero" fill-opacity="1" /><path clip-path="url(#clip630)" d="M84.8114 1142.19 L89.6956 1142.19 L89.6956 1148.07 L84.8114 1148.07 L84.8114 1142.19 Z" fill="#000000" fill-rule="nonzero" fill-opacity="1" /><path clip-path="url(#clip630)" d="M100.691 1144.14 L108.33 1144.14 L108.33 1117.77 L100.02 1119.44 L100.02 1115.18 L108.283 1113.51 L112.959 1113.51 L112.959 1144.14 L120.598 1144.14 L120.598 1148.07 L100.691 1148.07 L100.691 1144.14 Z" fill="#000000" fill-rule="nonzero" fill-opacity="1" /><path clip-path="url(#clip630)" d="M65.0198 793.831 Q61.4087 793.831 59.58 797.396 Q57.7745 800.938 57.7745 808.067 Q57.7745 815.174 59.58 818.739 Q61.4087 822.28 65.0198 822.28 Q68.6541 822.28 70.4596 818.739 Q72.2883 815.174 72.2883 808.067 Q72.2883 800.938 70.4596 797.396 Q68.6541 793.831 65.0198 793.831 M65.0198 790.128 Q70.83 790.128 73.8855 794.734 Q76.9642 799.317 76.9642 808.067 Q76.9642 816.794 73.8855 821.401 Q70.83 825.984 65.0198 825.984 Q59.2097 825.984 56.131 821.401 Q53.0754 816.794 53.0754 808.067 Q53.0754 799.317 56.131 794.734 Q59.2097 790.128 65.0198 790.128 Z" fill="#000000" fill-rule="nonzero" fill-opacity="1" /><path clip-path="url(#clip630)" d="M85.1818 819.433 L90.066 819.433 L90.066 825.313 L85.1818 825.313 L85.1818 819.433 Z" fill="#000000" fill-rule="nonzero" fill-opacity="1" /><path clip-path="url(#clip630)" d="M104.279 821.377 L120.598 821.377 L120.598 825.313 L98.6539 825.313 L98.6539 821.377 Q101.316 818.623 105.899 813.993 Q110.506 809.341 111.686 807.998 Q113.932 805.475 114.811 803.739 Q115.714 801.979 115.714 800.29 Q115.714 797.535 113.77 795.799 Q111.848 794.063 108.746 794.063 Q106.547 794.063 104.094 794.827 Q101.663 795.591 98.8854 797.141 L98.8854 792.419 Q101.709 791.285 104.163 790.706 Q106.617 790.128 108.654 790.128 Q114.024 790.128 117.219 792.813 Q120.413 795.498 120.413 799.989 Q120.413 802.118 119.603 804.04 Q118.816 805.938 116.709 808.53 Q116.131 809.202 113.029 812.419 Q109.927 815.614 104.279 821.377 Z" fill="#000000" fill-rule="nonzero" fill-opacity="1" /><path clip-path="url(#clip630)" d="M64.0708 471.072 Q60.4597 471.072 58.631 474.636 Q56.8254 478.178 56.8254 485.308 Q56.8254 492.414 58.631 495.979 Q60.4597 499.521 64.0708 499.521 Q67.705 499.521 69.5105 495.979 Q71.3392 492.414 71.3392 485.308 Q71.3392 478.178 69.5105 474.636 Q67.705 471.072 64.0708 471.072 M64.0708 467.368 Q69.8809 467.368 72.9365 471.974 Q76.0151 476.558 76.0151 485.308 Q76.0151 494.034 72.9365 498.641 Q69.8809 503.224 64.0708 503.224 Q58.2606 503.224 55.1819 498.641 Q52.1264 494.034 52.1264 485.308 Q52.1264 476.558 55.1819 471.974 Q58.2606 467.368 64.0708 467.368 Z" fill="#000000" fill-rule="nonzero" fill-opacity="1" /><path clip-path="url(#clip630)" d="M84.2327 496.673 L89.1169 496.673 L89.1169 502.553 L84.2327 502.553 L84.2327 496.673 Z" fill="#000000" fill-rule="nonzero" fill-opacity="1" /><path clip-path="url(#clip630)" d="M113.469 483.919 Q116.825 484.636 118.7 486.905 Q120.598 489.173 120.598 492.507 Q120.598 497.622 117.08 500.423 Q113.561 503.224 107.08 503.224 Q104.904 503.224 102.589 502.784 Q100.297 502.368 97.8437 501.511 L97.8437 496.997 Q99.7882 498.132 102.103 498.71 Q104.418 499.289 106.941 499.289 Q111.339 499.289 113.631 497.553 Q115.945 495.817 115.945 492.507 Q115.945 489.451 113.793 487.738 Q111.663 486.002 107.844 486.002 L103.816 486.002 L103.816 482.16 L108.029 482.16 Q111.478 482.16 113.307 480.794 Q115.135 479.405 115.135 476.812 Q115.135 474.15 113.237 472.738 Q111.362 471.303 107.844 471.303 Q105.922 471.303 103.723 471.72 Q101.524 472.136 98.8854 473.016 L98.8854 468.849 Q101.547 468.109 103.862 467.738 Q106.2 467.368 108.26 467.368 Q113.584 467.368 116.686 469.798 Q119.788 472.206 119.788 476.326 Q119.788 479.197 118.145 481.187 Q116.501 483.155 113.469 483.919 Z" fill="#000000" fill-rule="nonzero" fill-opacity="1" /><path clip-path="url(#clip630)" d="M62.9365 148.312 Q59.3254 148.312 57.4967 151.877 Q55.6912 155.418 55.6912 162.548 Q55.6912 169.654 57.4967 173.219 Q59.3254 176.761 62.9365 176.761 Q66.5707 176.761 68.3763 173.219 Q70.205 169.654 70.205 162.548 Q70.205 155.418 68.3763 151.877 Q66.5707 148.312 62.9365 148.312 M62.9365 144.608 Q68.7467 144.608 71.8022 149.215 Q74.8809 153.798 74.8809 162.548 Q74.8809 171.275 71.8022 175.881 Q68.7467 180.465 62.9365 180.465 Q57.1264 180.465 54.0477 175.881 Q50.9921 171.275 50.9921 162.548 Q50.9921 153.798 54.0477 149.215 Q57.1264 144.608 62.9365 144.608 Z" fill="#000000" fill-rule="nonzero" fill-opacity="1" /><path clip-path="url(#clip630)" d="M83.0984 173.914 L87.9827 173.914 L87.9827 179.793 L83.0984 179.793 L83.0984 173.914 Z" fill="#000000" fill-rule="nonzero" fill-opacity="1" /><path clip-path="url(#clip630)" d="M111.015 149.307 L99.2095 167.756 L111.015 167.756 L111.015 149.307 M109.788 145.233 L115.668 145.233 L115.668 167.756 L120.598 167.756 L120.598 171.645 L115.668 171.645 L115.668 179.793 L111.015 179.793 L111.015 171.645 L95.4132 171.645 L95.4132 167.131 L109.788 145.233 Z" fill="#000000" fill-rule="nonzero" fill-opacity="1" /><circle clip-path="url(#clip631)" cx="1473.18" cy="1333.41" r="14.4" fill="#808080" fill-rule="evenodd" fill-opacity="1" stroke="#000000" stroke-opacity="1" stroke-width="3.2"/>
<circle clip-path="url(#clip631)" cx="1387.92" cy="1445.72" r="14.4" fill="#808080" fill-rule="evenodd" fill-opacity="1" stroke="#000000" stroke-opacity="1" stroke-width="3.2"/>
<circle clip-path="url(#clip631)" cx="2290.6" cy="1335.18" r="14.4" fill="#808080" fill-rule="evenodd" fill-opacity="1" stroke="#000000" stroke-opacity="1" stroke-width="3.2"/>
<circle clip-path="url(#clip631)" cx="218.754" cy="87.9763" r="14.4" fill="#808080" fill-rule="evenodd" fill-opacity="1" stroke="#000000" stroke-opacity="1" stroke-width="3.2"/>
<path clip-path="url(#clip630)" d="M1477.47 1340.84 Q1468.44 1340.84 1464.95 1342.9 Q1461.47 1344.97 1461.47 1349.95 Q1461.47 1353.92 1464.06 1356.27 Q1466.7 1358.58 1471.19 1358.58 Q1477.39 1358.58 1481.12 1354.21 Q1484.88 1349.79 1484.88 1342.5 L1484.88 1340.84 L1477.47 1340.84 M1492.34 1337.76 L1492.34 1363.65 L1484.88 1363.65 L1484.88 1356.76 Q1482.33 1360.89 1478.52 1362.88 Q1474.72 1364.82 1469.21 1364.82 Q1462.24 1364.82 1458.11 1360.93 Q1454.02 1357 1454.02 1350.44 Q1454.02 1342.78 1459.12 1338.89 Q1464.27 1335.01 1474.43 1335.01 L1484.88 1335.01 L1484.88 1334.28 Q1484.88 1329.13 1481.48 1326.34 Q1478.12 1323.5 1472 1323.5 Q1468.11 1323.5 1464.43 1324.43 Q1460.74 1325.36 1457.34 1327.23 L1457.34 1320.34 Q1461.43 1318.76 1465.28 1317.99 Q1469.13 1317.18 1472.77 1317.18 Q1482.62 1317.18 1487.48 1322.29 Q1492.34 1327.39 1492.34 1337.76 Z" fill="#000000" fill-rule="nonzero" fill-opacity="1" /><path clip-path="url(#clip630)" d="M1400.48 1453.31 Q1400.48 1445.09 1397.07 1440.43 Q1393.71 1435.73 1387.8 1435.73 Q1381.88 1435.73 1378.48 1440.43 Q1375.12 1445.09 1375.12 1453.31 Q1375.12 1461.53 1378.48 1466.23 Q1381.88 1470.89 1387.8 1470.89 Q1393.71 1470.89 1397.07 1466.23 Q1400.48 1461.53 1400.48 1453.31 M1375.12 1437.47 Q1377.47 1433.42 1381.03 1431.48 Q1384.64 1429.49 1389.62 1429.49 Q1397.89 1429.49 1403.03 1436.05 Q1408.21 1442.62 1408.21 1453.31 Q1408.21 1464.01 1403.03 1470.57 Q1397.89 1477.13 1389.62 1477.13 Q1384.64 1477.13 1381.03 1475.19 Q1377.47 1473.2 1375.12 1469.15 L1375.12 1475.96 L1367.62 1475.96 L1367.62 1412.92 L1375.12 1412.92 L1375.12 1437.47 Z" fill="#000000" fill-rule="nonzero" fill-opacity="1" /><path clip-path="url(#clip630)" d="M2308.55 1321.79 L2308.55 1328.76 Q2305.39 1327.02 2302.19 1326.17 Q2299.03 1325.28 2295.79 1325.28 Q2288.53 1325.28 2284.52 1329.89 Q2280.51 1334.47 2280.51 1342.78 Q2280.51 1351.08 2284.52 1355.7 Q2288.53 1360.28 2295.79 1360.28 Q2299.03 1360.28 2302.19 1359.42 Q2305.39 1358.53 2308.55 1356.79 L2308.55 1363.68 Q2305.43 1365.14 2302.06 1365.87 Q2298.74 1366.59 2294.98 1366.59 Q2284.73 1366.59 2278.69 1360.15 Q2272.65 1353.71 2272.65 1342.78 Q2272.65 1331.68 2278.73 1325.32 Q2284.85 1318.96 2295.46 1318.96 Q2298.9 1318.96 2302.19 1319.69 Q2305.47 1320.37 2308.55 1321.79 Z" fill="#000000" fill-rule="nonzero" fill-opacity="1" /><path clip-path="url(#clip630)" d="M231.575 79.7327 L231.575 55.1842 L239.028 55.1842 L239.028 118.216 L231.575 118.216 L231.575 111.411 Q229.225 115.462 225.62 117.447 Q222.055 119.391 217.032 119.391 Q208.809 119.391 203.624 112.829 Q198.479 106.266 198.479 95.5717 Q198.479 84.8773 203.624 78.3149 Q208.809 71.7524 217.032 71.7524 Q222.055 71.7524 225.62 73.7373 Q229.225 75.6818 231.575 79.7327 M206.176 95.5717 Q206.176 103.795 209.538 108.494 Q212.941 113.153 218.855 113.153 Q224.769 113.153 228.172 108.494 Q231.575 103.795 231.575 95.5717 Q231.575 87.3484 228.172 82.6898 Q224.769 77.9908 218.855 77.9908 Q212.941 77.9908 209.538 82.6898 Q206.176 87.3484 206.176 95.5717 Z" fill="#000000" fill-rule="nonzero" fill-opacity="1" /><path clip-path="url(#clip630)" d="M2007.5 198.898 L2279.55 198.898 L2279.55 95.2176 L2007.5 95.2176  Z" fill="#ffffff" fill-rule="evenodd" fill-opacity="1"/>
<polyline clip-path="url(#clip630)" style="stroke:#000000; stroke-linecap:round; stroke-linejoin:round; stroke-width:4; stroke-opacity:1; fill:none" points="2007.5,198.898 2279.55,198.898 2279.55,95.2176 2007.5,95.2176 2007.5,198.898 "/>
<circle clip-path="url(#clip630)" cx="2105.11" cy="147.058" r="20.48" fill="#808080" fill-rule="evenodd" fill-opacity="1" stroke="#000000" stroke-opacity="1" stroke-width="4.55111"/>
<path clip-path="url(#clip630)" d="M2216.56 166.745 Q2214.76 171.375 2213.04 172.787 Q2211.33 174.199 2208.46 174.199 L2205.06 174.199 L2205.06 170.634 L2207.56 170.634 Q2209.32 170.634 2210.29 169.8 Q2211.26 168.967 2212.44 165.865 L2213.2 163.921 L2202.72 138.412 L2207.23 138.412 L2215.33 158.689 L2223.44 138.412 L2227.95 138.412 L2216.56 166.745 Z" fill="#000000" fill-rule="nonzero" fill-opacity="1" /><path clip-path="url(#clip630)" d="M2235.24 160.402 L2242.88 160.402 L2242.88 134.037 L2234.57 135.703 L2234.57 131.444 L2242.83 129.778 L2247.51 129.778 L2247.51 160.402 L2255.15 160.402 L2255.15 164.338 L2235.24 164.338 L2235.24 160.402 Z" fill="#000000" fill-rule="nonzero" fill-opacity="1" /></svg>
