<?xml version="1.0" encoding="utf-8"?>
<svg xmlns="http://www.w3.org/2000/svg" xmlns:xlink="http://www.w3.org/1999/xlink" width="600" height="400" viewBox="0 0 2400 1600">
<defs>
  <clipPath id="clip950">
    <rect x="0" y="0" width="2400" height="1600"/>
  </clipPath>
</defs>
<path clip-path="url(#clip950)" d="M0 1600 L2400 1600 L2400 0 L0 0  Z" fill="#ffffff" fill-rule="evenodd" fill-opacity="1"/>
<defs>
  <clipPath id="clip951">
    <rect x="480" y="0" width="1681" height="1600"/>
  </clipPath>
</defs>
<path clip-path="url(#clip950)" d="M112.177 1486.45 L2352.76 1486.45 L2352.76 47.2441 L112.177 47.2441  Z" fill="#ffffff" fill-rule="evenodd" fill-opacity="1"/>
<defs>
  <clipPath id="clip952">
    <rect x="112" y="47" width="2242" height="1440"/>
  </clipPath>
</defs>
<polyline clip-path="url(#clip952)" style="stroke:#000000; stroke-linecap:round; stroke-linejoin:round; stroke-width:2; stroke-opacity:0.1; fill:none" points="280.605,1486.45 280.605,47.2441 "/>
<polyline clip-path="url(#clip952)" style="stroke:#000000; stroke-linecap:round; stroke-linejoin:round; stroke-width:2; stroke-opacity:0.1; fill:none" points="881.301,1486.45 881.301,47.2441 "/>
<polyline clip-path="url(#clip952)" style="stroke:#000000; stroke-linecap:round; stroke-linejoin:round; stroke-width:2; stroke-opacity:0.1; fill:none" points="1482,1486.45 1482,47.2441 "/>
<polyline clip-path="url(#clip952)" style="stroke:#000000; stroke-linecap:round; stroke-linejoin:round; stroke-width:2; stroke-opacity:0.1; fill:none" points="2082.69,1486.45 2082.69,47.2441 "/>
<polyline clip-path="url(#clip950)" style="stroke:#000000; stroke-linecap:round; stroke-linejoin:round; stroke-width:4; stroke-opacity:1; fill:none" points="112.177,1486.45 2352.76,1486.45 "/>
<polyline clip-path="url(#clip950)" style="stroke:#000000; stroke-linecap:round; stroke-linejoin:round; stroke-width:4; stroke-opacity:1; fill:none" points="280.605,1486.45 280.605,1467.55 "/>
<polyline clip-path="url(#clip950)" style="stroke:#000000; stroke-linecap:round; stroke-linejoin:round; stroke-width:4; stroke-opacity:1; fill:none" points="881.301,1486.45 881.301,1467.55 "/>
<polyline clip-path="url(#clip950)" style="stroke:#000000; stroke-linecap:round; stroke-linejoin:round; stroke-width:4; stroke-opacity:1; fill:none" points="1482,1486.45 1482,1467.55 "/>
<polyline clip-path="url(#clip950)" style="stroke:#000000; stroke-linecap:round; stroke-linejoin:round; stroke-width:4; stroke-opacity:1; fill:none" points="2082.69,1486.45 2082.69,1467.55 "/>
<path clip-path="url(#clip950)" d="M227.133 1532.02 L256.808 1532.02 L256.808 1535.95 L227.133 1535.95 L227.133 1532.02 Z" fill="#000000" fill-rule="nonzero" fill-opacity="1" /><path clip-path="url(#clip950)" d="M267.711 1544.91 L275.35 1544.91 L275.35 1518.55 L267.04 1520.21 L267.04 1515.95 L275.304 1514.29 L279.98 1514.29 L279.98 1544.91 L287.618 1544.91 L287.618 1548.85 L267.711 1548.85 L267.711 1544.91 Z" fill="#000000" fill-rule="nonzero" fill-opacity="1" /><path clip-path="url(#clip950)" d="M297.063 1542.97 L301.947 1542.97 L301.947 1548.85 L297.063 1548.85 L297.063 1542.97 Z" fill="#000000" fill-rule="nonzero" fill-opacity="1" /><path clip-path="url(#clip950)" d="M322.132 1517.37 Q318.521 1517.37 316.692 1520.93 Q314.887 1524.47 314.887 1531.6 Q314.887 1538.71 316.692 1542.27 Q318.521 1545.82 322.132 1545.82 Q325.766 1545.82 327.572 1542.27 Q329.401 1538.71 329.401 1531.6 Q329.401 1524.47 327.572 1520.93 Q325.766 1517.37 322.132 1517.37 M322.132 1513.66 Q327.942 1513.66 330.998 1518.27 Q334.077 1522.85 334.077 1531.6 Q334.077 1540.33 330.998 1544.94 Q327.942 1549.52 322.132 1549.52 Q316.322 1549.52 313.243 1544.94 Q310.188 1540.33 310.188 1531.6 Q310.188 1522.85 313.243 1518.27 Q316.322 1513.66 322.132 1513.66 Z" fill="#000000" fill-rule="nonzero" fill-opacity="1" /><path clip-path="url(#clip950)" d="M828.327 1532.02 L858.002 1532.02 L858.002 1535.95 L828.327 1535.95 L828.327 1532.02 Z" fill="#000000" fill-rule="nonzero" fill-opacity="1" /><path clip-path="url(#clip950)" d="M878.095 1517.37 Q874.484 1517.37 872.655 1520.93 Q870.85 1524.47 870.85 1531.6 Q870.85 1538.71 872.655 1542.27 Q874.484 1545.82 878.095 1545.82 Q881.729 1545.82 883.535 1542.27 Q885.363 1538.71 885.363 1531.6 Q885.363 1524.47 883.535 1520.93 Q881.729 1517.37 878.095 1517.37 M878.095 1513.66 Q883.905 1513.66 886.961 1518.27 Q890.039 1522.85 890.039 1531.6 Q890.039 1540.33 886.961 1544.94 Q883.905 1549.52 878.095 1549.52 Q872.285 1549.52 869.206 1544.94 Q866.15 1540.33 866.15 1531.6 Q866.15 1522.85 869.206 1518.27 Q872.285 1513.66 878.095 1513.66 Z" fill="#000000" fill-rule="nonzero" fill-opacity="1" /><path clip-path="url(#clip950)" d="M898.257 1542.97 L903.141 1542.97 L903.141 1548.85 L898.257 1548.85 L898.257 1542.97 Z" fill="#000000" fill-rule="nonzero" fill-opacity="1" /><path clip-path="url(#clip950)" d="M913.372 1514.29 L931.729 1514.29 L931.729 1518.22 L917.655 1518.22 L917.655 1526.7 Q918.673 1526.35 919.692 1526.19 Q920.71 1526 921.729 1526 Q927.516 1526 930.896 1529.17 Q934.275 1532.34 934.275 1537.76 Q934.275 1543.34 930.803 1546.44 Q927.331 1549.52 921.011 1549.52 Q918.835 1549.52 916.567 1549.15 Q914.322 1548.78 911.914 1548.04 L911.914 1543.34 Q913.997 1544.47 916.22 1545.03 Q918.442 1545.58 920.919 1545.58 Q924.923 1545.58 927.261 1543.48 Q929.599 1541.37 929.599 1537.76 Q929.599 1534.15 927.261 1532.04 Q924.923 1529.94 920.919 1529.94 Q919.044 1529.94 917.169 1530.35 Q915.317 1530.77 913.372 1531.65 L913.372 1514.29 Z" fill="#000000" fill-rule="nonzero" fill-opacity="1" /><path clip-path="url(#clip950)" d="M1459.38 1517.37 Q1455.77 1517.37 1453.94 1520.93 Q1452.14 1524.47 1452.14 1531.6 Q1452.14 1538.71 1453.94 1542.27 Q1455.77 1545.82 1459.38 1545.82 Q1463.02 1545.82 1464.82 1542.27 Q1466.65 1538.71 1466.65 1531.6 Q1466.65 1524.47 1464.82 1520.93 Q1463.02 1517.37 1459.38 1517.37 M1459.38 1513.66 Q1465.19 1513.66 1468.25 1518.27 Q1471.33 1522.85 1471.33 1531.6 Q1471.33 1540.33 1468.25 1544.94 Q1465.19 1549.52 1459.38 1549.52 Q1453.57 1549.52 1450.49 1544.94 Q1447.44 1540.33 1447.44 1531.6 Q1447.44 1522.85 1450.49 1518.27 Q1453.57 1513.66 1459.38 1513.66 Z" fill="#000000" fill-rule="nonzero" fill-opacity="1" /><path clip-path="url(#clip950)" d="M1479.54 1542.97 L1484.43 1542.97 L1484.43 1548.85 L1479.54 1548.85 L1479.54 1542.97 Z" fill="#000000" fill-rule="nonzero" fill-opacity="1" /><path clip-path="url(#clip950)" d="M1504.61 1517.37 Q1501 1517.37 1499.17 1520.93 Q1497.37 1524.47 1497.37 1531.6 Q1497.37 1538.71 1499.17 1542.27 Q1501 1545.82 1504.61 1545.82 Q1508.25 1545.82 1510.05 1542.27 Q1511.88 1538.71 1511.88 1531.6 Q1511.88 1524.47 1510.05 1520.93 Q1508.25 1517.37 1504.61 1517.37 M1504.61 1513.66 Q1510.42 1513.66 1513.48 1518.27 Q1516.56 1522.85 1516.56 1531.6 Q1516.56 1540.33 1513.48 1544.94 Q1510.42 1549.52 1504.61 1549.52 Q1498.8 1549.52 1495.72 1544.94 Q1492.67 1540.33 1492.67 1531.6 Q1492.67 1522.85 1495.72 1518.27 Q1498.8 1513.66 1504.61 1513.66 Z" fill="#000000" fill-rule="nonzero" fill-opacity="1" /><path clip-path="url(#clip950)" d="M2060.58 1517.37 Q2056.96 1517.37 2055.14 1520.93 Q2053.33 1524.47 2053.33 1531.6 Q2053.33 1538.71 2055.14 1542.27 Q2056.96 1545.82 2060.58 1545.82 Q2064.21 1545.82 2066.02 1542.27 Q2067.84 1538.71 2067.84 1531.6 Q2067.84 1524.47 2066.02 1520.93 Q2064.21 1517.37 2060.58 1517.37 M2060.58 1513.66 Q2066.39 1513.66 2069.44 1518.27 Q2072.52 1522.85 2072.52 1531.6 Q2072.52 1540.33 2069.44 1544.94 Q2066.39 1549.52 2060.58 1549.52 Q2054.77 1549.52 2051.69 1544.94 Q2048.63 1540.33 2048.63 1531.6 Q2048.63 1522.85 2051.69 1518.27 Q2054.77 1513.66 2060.58 1513.66 Z" fill="#000000" fill-rule="nonzero" fill-opacity="1" /><path clip-path="url(#clip950)" d="M2080.74 1542.97 L2085.62 1542.97 L2085.62 1548.85 L2080.74 1548.85 L2080.74 1542.97 Z" fill="#000000" fill-rule="nonzero" fill-opacity="1" /><path clip-path="url(#clip950)" d="M2095.85 1514.29 L2114.21 1514.29 L2114.21 1518.22 L2100.14 1518.22 L2100.14 1526.7 Q2101.15 1526.35 2102.17 1526.19 Q2103.19 1526 2104.21 1526 Q2110 1526 2113.38 1529.17 Q2116.76 1532.34 2116.76 1537.76 Q2116.76 1543.34 2113.28 1546.44 Q2109.81 1549.52 2103.49 1549.52 Q2101.32 1549.52 2099.05 1549.15 Q2096.8 1548.78 2094.39 1548.04 L2094.39 1543.34 Q2096.48 1544.47 2098.7 1545.03 Q2100.92 1545.58 2103.4 1545.58 Q2107.4 1545.58 2109.74 1543.48 Q2112.08 1541.37 2112.08 1537.76 Q2112.08 1534.15 2109.74 1532.04 Q2107.4 1529.94 2103.4 1529.94 Q2101.52 1529.94 2099.65 1530.35 Q2097.8 1530.77 2095.85 1531.65 L2095.85 1514.29 Z" fill="#000000" fill-rule="nonzero" fill-opacity="1" /><polyline clip-path="url(#clip952)" style="stroke:#000000; stroke-linecap:round; stroke-linejoin:round; stroke-width:2; stroke-opacity:0.1; fill:none" points="112.177,1203.53 2352.76,1203.53 "/>
<polyline clip-path="url(#clip952)" style="stroke:#000000; stroke-linecap:round; stroke-linejoin:round; stroke-width:2; stroke-opacity:0.1; fill:none" points="112.177,884.521 2352.76,884.521 "/>
<polyline clip-path="url(#clip952)" style="stroke:#000000; stroke-linecap:round; stroke-linejoin:round; stroke-width:2; stroke-opacity:0.1; fill:none" points="112.177,565.512 2352.76,565.512 "/>
<polyline clip-path="url(#clip952)" style="stroke:#000000; stroke-linecap:round; stroke-linejoin:round; stroke-width:2; stroke-opacity:0.1; fill:none" points="112.177,246.503 2352.76,246.503 "/>
<polyline clip-path="url(#clip950)" style="stroke:#000000; stroke-linecap:round; stroke-linejoin:round; stroke-width:4; stroke-opacity:1; fill:none" points="112.177,1486.45 112.177,47.2441 "/>
<polyline clip-path="url(#clip950)" style="stroke:#000000; stroke-linecap:round; stroke-linejoin:round; stroke-width:4; stroke-opacity:1; fill:none" points="112.177,1203.53 131.075,1203.53 "/>
<polyline clip-path="url(#clip950)" style="stroke:#000000; stroke-linecap:round; stroke-linejoin:round; stroke-width:4; stroke-opacity:1; fill:none" points="112.177,884.521 131.075,884.521 "/>
<polyline clip-path="url(#clip950)" style="stroke:#000000; stroke-linecap:round; stroke-linejoin:round; stroke-width:4; stroke-opacity:1; fill:none" points="112.177,565.512 131.075,565.512 "/>
<polyline clip-path="url(#clip950)" style="stroke:#000000; stroke-linecap:round; stroke-linejoin:round; stroke-width:4; stroke-opacity:1; fill:none" points="112.177,246.503 131.075,246.503 "/>
<path clip-path="url(#clip950)" d="M56.2699 1216.87 L63.9087 1216.87 L63.9087 1190.51 L55.5986 1192.18 L55.5986 1187.92 L63.8624 1186.25 L68.5383 1186.25 L68.5383 1216.87 L76.1772 1216.87 L76.1772 1220.81 L56.2699 1220.81 L56.2699 1216.87 Z" fill="#000000" fill-rule="nonzero" fill-opacity="1" /><path clip-path="url(#clip950)" d="M59.8578 897.865 L76.1772 897.865 L76.1772 901.801 L54.2328 901.801 L54.2328 897.865 Q56.8949 895.111 61.4782 890.481 Q66.0846 885.828 67.2652 884.486 Q69.5105 881.963 70.3902 880.227 Q71.2929 878.467 71.2929 876.778 Q71.2929 874.023 69.3485 872.287 Q67.4272 870.551 64.3254 870.551 Q62.1263 870.551 59.6726 871.315 Q57.2421 872.078 54.4643 873.629 L54.4643 868.907 Q57.2884 867.773 59.7421 867.194 Q62.1958 866.616 64.2328 866.616 Q69.6031 866.616 72.7976 869.301 Q75.992 871.986 75.992 876.477 Q75.992 878.606 75.1818 880.528 Q74.3948 882.426 72.2883 885.018 Q71.7096 885.69 68.6078 888.907 Q65.5059 892.102 59.8578 897.865 Z" fill="#000000" fill-rule="nonzero" fill-opacity="1" /><path clip-path="url(#clip950)" d="M69.0476 564.158 Q72.404 564.875 74.279 567.144 Q76.1772 569.412 76.1772 572.745 Q76.1772 577.861 72.6587 580.662 Q69.1402 583.463 62.6587 583.463 Q60.4828 583.463 58.168 583.023 Q55.8764 582.607 53.4227 581.75 L53.4227 577.236 Q55.3671 578.37 57.6819 578.949 Q59.9967 579.528 62.5198 579.528 Q66.918 579.528 69.2096 577.792 Q71.5244 576.056 71.5244 572.745 Q71.5244 569.69 69.3717 567.977 Q67.242 566.241 63.4226 566.241 L59.3949 566.241 L59.3949 562.398 L63.6078 562.398 Q67.0569 562.398 68.8855 561.033 Q70.7142 559.644 70.7142 557.051 Q70.7142 554.389 68.8161 552.977 Q66.9411 551.542 63.4226 551.542 Q61.5013 551.542 59.3023 551.959 Q57.1032 552.375 54.4643 553.255 L54.4643 549.088 Q57.1264 548.347 59.4412 547.977 Q61.7791 547.607 63.8393 547.607 Q69.1633 547.607 72.2652 550.037 Q75.367 552.445 75.367 556.565 Q75.367 559.435 73.7235 561.426 Q72.08 563.394 69.0476 564.158 Z" fill="#000000" fill-rule="nonzero" fill-opacity="1" /><path clip-path="url(#clip950)" d="M66.5939 233.297 L54.7884 251.746 L66.5939 251.746 L66.5939 233.297 M65.367 229.223 L71.2466 229.223 L71.2466 251.746 L76.1772 251.746 L76.1772 255.635 L71.2466 255.635 L71.2466 263.783 L66.5939 263.783 L66.5939 255.635 L50.9921 255.635 L50.9921 251.121 L65.367 229.223 Z" fill="#000000" fill-rule="nonzero" fill-opacity="1" /><circle clip-path="url(#clip952)" cx="2289.34" cy="1317.16" r="14.4" fill="#808080" fill-rule="evenodd" fill-opacity="1" stroke="#000000" stroke-opacity="1" stroke-width="3.2"/>
<circle clip-path="url(#clip952)" cx="175.59" cy="87.9763" r="14.4" fill="#808080" fill-rule="evenodd" fill-opacity="1" stroke="#000000" stroke-opacity="1" stroke-width="3.2"/>
<circle clip-path="url(#clip952)" cx="1549.82" cy="1445.72" r="14.4" fill="#808080" fill-rule="evenodd" fill-opacity="1" stroke="#000000" stroke-opacity="1" stroke-width="3.2"/>
<circle clip-path="url(#clip952)" cx="1361.6" cy="1436.71" r="14.4" fill="#808080" fill-rule="evenodd" fill-opacity="1" stroke="#000000" stroke-opacity="1" stroke-width="3.2"/>
<path clip-path="url(#clip950)" d="M2293.64 1324.59 Q2284.6 1324.59 2281.12 1326.66 Q2277.64 1328.72 2277.64 1333.71 Q2277.64 1337.68 2280.23 1340.03 Q2282.86 1342.33 2287.36 1342.33 Q2293.56 1342.33 2297.28 1337.96 Q2301.05 1333.54 2301.05 1326.25 L2301.05 1324.59 L2293.64 1324.59 M2308.5 1321.51 L2308.5 1347.4 L2301.05 1347.4 L2301.05 1340.51 Q2298.5 1344.64 2294.69 1346.63 Q2290.88 1348.57 2285.37 1348.57 Q2278.41 1348.57 2274.27 1344.68 Q2270.18 1340.75 2270.18 1334.19 Q2270.18 1326.54 2275.29 1322.65 Q2280.43 1318.76 2290.6 1318.76 L2301.05 1318.76 L2301.05 1318.03 Q2301.05 1312.88 2297.65 1310.09 Q2294.29 1307.25 2288.17 1307.25 Q2284.28 1307.25 2280.59 1308.19 Q2276.91 1309.12 2273.5 1310.98 L2273.5 1304.09 Q2277.6 1302.51 2281.44 1301.74 Q2285.29 1300.93 2288.94 1300.93 Q2298.78 1300.93 2303.64 1306.04 Q2308.5 1311.14 2308.5 1321.51 Z" fill="#000000" fill-rule="nonzero" fill-opacity="1" /><path clip-path="url(#clip950)" d="M188.148 95.5717 Q188.148 87.3484 184.745 82.6898 Q181.383 77.9908 175.468 77.9908 Q169.554 77.9908 166.151 82.6898 Q162.789 87.3484 162.789 95.5717 Q162.789 103.795 166.151 108.494 Q169.554 113.153 175.468 113.153 Q181.383 113.153 184.745 108.494 Q188.148 103.795 188.148 95.5717 M162.789 79.7327 Q165.138 75.6818 168.703 73.7373 Q172.309 71.7524 177.291 71.7524 Q185.555 71.7524 190.7 78.3149 Q195.885 84.8773 195.885 95.5717 Q195.885 106.266 190.7 112.829 Q185.555 119.391 177.291 119.391 Q172.309 119.391 168.703 117.447 Q165.138 115.462 162.789 111.411 L162.789 118.216 L155.295 118.216 L155.295 55.1842 L162.789 55.1842 L162.789 79.7327 Z" fill="#000000" fill-rule="nonzero" fill-opacity="1" /><path clip-path="url(#clip950)" d="M1567.77 1432.33 L1567.77 1439.3 Q1564.61 1437.55 1561.41 1436.7 Q1558.25 1435.81 1555.01 1435.81 Q1547.75 1435.81 1543.74 1440.43 Q1539.73 1445.01 1539.73 1453.31 Q1539.73 1461.62 1543.74 1466.23 Q1547.75 1470.81 1555.01 1470.81 Q1558.25 1470.81 1561.41 1469.96 Q1564.61 1469.07 1567.77 1467.33 L1567.77 1474.21 Q1564.65 1475.67 1561.28 1476.4 Q1557.96 1477.13 1554.2 1477.13 Q1543.95 1477.13 1537.91 1470.69 Q1531.87 1464.25 1531.87 1453.31 Q1531.87 1442.21 1537.95 1435.85 Q1544.07 1429.49 1554.68 1429.49 Q1558.12 1429.49 1561.41 1430.22 Q1564.69 1430.91 1567.77 1432.33 Z" fill="#000000" fill-rule="nonzero" fill-opacity="1" /><path clip-path="url(#clip950)" d="M1374.42 1428.47 L1374.42 1403.92 L1381.87 1403.92 L1381.87 1466.95 L1374.42 1466.95 L1374.42 1460.15 Q1372.07 1464.2 1368.46 1466.18 Q1364.9 1468.13 1359.88 1468.13 Q1351.65 1468.13 1346.47 1461.57 Q1341.32 1455 1341.32 1444.31 Q1341.32 1433.61 1346.47 1427.05 Q1351.65 1420.49 1359.88 1420.49 Q1364.9 1420.49 1368.46 1422.47 Q1372.07 1424.42 1374.42 1428.47 M1349.02 1444.31 Q1349.02 1452.53 1352.38 1457.23 Q1355.79 1461.89 1361.7 1461.89 Q1367.61 1461.89 1371.02 1457.23 Q1374.42 1452.53 1374.42 1444.31 Q1374.42 1436.09 1371.02 1431.43 Q1367.61 1426.73 1361.7 1426.73 Q1355.79 1426.73 1352.38 1431.43 Q1349.02 1436.09 1349.02 1444.31 Z" fill="#000000" fill-rule="nonzero" fill-opacity="1" /><path clip-path="url(#clip950)" d="M2001.58 198.898 L2278.07 198.898 L2278.07 95.2176 L2001.58 95.2176  Z" fill="#ffffff" fill-rule="evenodd" fill-opacity="1"/>
<polyline clip-path="url(#clip950)" style="stroke:#000000; stroke-linecap:round; stroke-linejoin:round; stroke-width:4; stroke-opacity:1; fill:none" points="2001.58,198.898 2278.07,198.898 2278.07,95.2176 2001.58,95.2176 2001.58,198.898 "/>
<circle clip-path="url(#clip950)" cx="2101.16" cy="147.058" r="20.48" fill="#808080" fill-rule="evenodd" fill-opacity="1" stroke="#000000" stroke-opacity="1" stroke-width="4.55111"/>
<path clip-path="url(#clip950)" d="M2214.59 166.745 Q2212.78 171.375 2211.07 172.787 Q2209.36 174.199 2206.49 174.199 L2203.08 174.199 L2203.08 170.634 L2205.58 170.634 Q2207.34 170.634 2208.31 169.8 Q2209.29 168.967 2210.47 165.865 L2211.23 163.921 L2200.74 138.412 L2205.26 138.412 L2213.36 158.689 L2221.46 138.412 L2225.98 138.412 L2214.59 166.745 Z" fill="#000000" fill-rule="nonzero" fill-opacity="1" /><path clip-path="url(#clip950)" d="M2233.27 160.402 L2240.91 160.402 L2240.91 134.037 L2232.6 135.703 L2232.6 131.444 L2240.86 129.778 L2245.54 129.778 L2245.54 160.402 L2253.17 160.402 L2253.17 164.338 L2233.27 164.338 L2233.27 160.402 Z" fill="#000000" fill-rule="nonzero" fill-opacity="1" /></svg>
