<?xml version="1.0" encoding="utf-8"?>
<svg xmlns="http://www.w3.org/2000/svg" xmlns:xlink="http://www.w3.org/1999/xlink" width="600" height="400" viewBox="0 0 2400 1600">
<defs>
  <clipPath id="clip890">
    <rect x="0" y="0" width="2400" height="1600"/>
  </clipPath>
</defs>
<path clip-path="url(#clip890)" d="M0 1600 L2400 1600 L2400 0 L0 0  Z" fill="#ffffff" fill-rule="evenodd" fill-opacity="1"/>
<defs>
  <clipPath id="clip891">
    <rect x="480" y="0" width="1681" height="1600"/>
  </clipPath>
</defs>
<path clip-path="url(#clip890)" d="M156.112 1486.45 L2352.76 1486.45 L2352.76 47.2441 L156.112 47.2441  Z" fill="#ffffff" fill-rule="evenodd" fill-opacity="1"/>
<defs>
  <clipPath id="clip892">
    <rect x="156" y="47" width="2198" height="1440"/>
  </clipPath>
</defs>
<polyline clip-path="url(#clip892)" style="stroke:#000000; stroke-linecap:round; stroke-linejoin:round; stroke-width:2; stroke-opacity:0.1; fill:none" points="429.316,1486.45 429.316,47.2441 "/>
<polyline clip-path="url(#clip892)" style="stroke:#000000; stroke-linecap:round; stroke-linejoin:round; stroke-width:2; stroke-opacity:0.1; fill:none" points="913.977,1486.45 913.977,47.2441 "/>
<polyline clip-path="url(#clip892)" style="stroke:#000000; stroke-linecap:round; stroke-linejoin:round; stroke-width:2; stroke-opacity:0.1; fill:none" points="1398.64,1486.45 1398.64,47.2441 "/>
<polyline clip-path="url(#clip892)" style="stroke:#000000; stroke-linecap:round; stroke-linejoin:round; stroke-width:2; stroke-opacity:0.1; fill:none" points="1883.3,1486.45 1883.3,47.2441 "/>
<polyline clip-path="url(#clip890)" style="stroke:#000000; stroke-linecap:round; stroke-linejoin:round; stroke-width:4; stroke-opacity:1; fill:none" points="156.112,1486.45 2352.76,1486.45 "/>
<polyline clip-path="url(#clip890)" style="stroke:#000000; stroke-linecap:round; stroke-linejoin:round; stroke-width:4; stroke-opacity:1; fill:none" points="429.316,1486.45 429.316,1467.55 "/>
<polyline clip-path="url(#clip890)" style="stroke:#000000; stroke-linecap:round; stroke-linejoin:round; stroke-width:4; stroke-opacity:1; fill:none" points="913.977,1486.45 913.977,1467.55 "/>
<polyline clip-path="url(#clip890)" style="stroke:#000000; stroke-linecap:round; stroke-linejoin:round; stroke-width:4; stroke-opacity:1; fill:none" points="1398.64,1486.45 1398.64,1467.55 "/>
<polyline clip-path="url(#clip890)" style="stroke:#000000; stroke-linecap:round; stroke-linejoin:round; stroke-width:4; stroke-opacity:1; fill:none" points="1883.3,1486.45 1883.3,1467.55 "/>
<path clip-path="url(#clip890)" d="M375.601 1532.02 L405.276 1532.02 L405.276 1535.95 L375.601 1535.95 L375.601 1532.02 Z" fill="#000000" fill-rule="nonzero" fill-opacity="1" /><path clip-path="url(#clip890)" d="M425.369 1517.37 Q421.758 1517.37 419.929 1520.93 Q418.124 1524.47 418.124 1531.6 Q418.124 1538.71 419.929 1542.27 Q421.758 1545.82 425.369 1545.82 Q429.003 1545.82 430.809 1542.27 Q432.637 1538.71 432.637 1531.6 Q432.637 1524.47 430.809 1520.93 Q429.003 1517.37 425.369 1517.37 M425.369 1513.66 Q431.179 1513.66 434.235 1518.27 Q437.313 1522.85 437.313 1531.6 Q437.313 1540.33 434.235 1544.94 Q431.179 1549.52 425.369 1549.52 Q419.559 1549.52 416.48 1544.94 Q413.424 1540.33 413.424 1531.6 Q413.424 1522.85 416.48 1518.27 Q419.559 1513.66 425.369 1513.66 Z" fill="#000000" fill-rule="nonzero" fill-opacity="1" /><path clip-path="url(#clip890)" d="M445.531 1542.97 L450.415 1542.97 L450.415 1548.85 L445.531 1548.85 L445.531 1542.97 Z" fill="#000000" fill-rule="nonzero" fill-opacity="1" /><path clip-path="url(#clip890)" d="M473.447 1518.36 L461.642 1536.81 L473.447 1536.81 L473.447 1518.36 M472.22 1514.29 L478.1 1514.29 L478.1 1536.81 L483.031 1536.81 L483.031 1540.7 L478.1 1540.7 L478.1 1548.85 L473.447 1548.85 L473.447 1540.7 L457.846 1540.7 L457.846 1536.19 L472.22 1514.29 Z" fill="#000000" fill-rule="nonzero" fill-opacity="1" /><path clip-path="url(#clip890)" d="M861.304 1532.02 L890.979 1532.02 L890.979 1535.95 L861.304 1535.95 L861.304 1532.02 Z" fill="#000000" fill-rule="nonzero" fill-opacity="1" /><path clip-path="url(#clip890)" d="M911.072 1517.37 Q907.461 1517.37 905.632 1520.93 Q903.827 1524.47 903.827 1531.6 Q903.827 1538.71 905.632 1542.27 Q907.461 1545.82 911.072 1545.82 Q914.706 1545.82 916.512 1542.27 Q918.34 1538.71 918.34 1531.6 Q918.34 1524.47 916.512 1520.93 Q914.706 1517.37 911.072 1517.37 M911.072 1513.66 Q916.882 1513.66 919.938 1518.27 Q923.016 1522.85 923.016 1531.6 Q923.016 1540.33 919.938 1544.94 Q916.882 1549.52 911.072 1549.52 Q905.262 1549.52 902.183 1544.94 Q899.128 1540.33 899.128 1531.6 Q899.128 1522.85 902.183 1518.27 Q905.262 1513.66 911.072 1513.66 Z" fill="#000000" fill-rule="nonzero" fill-opacity="1" /><path clip-path="url(#clip890)" d="M931.234 1542.97 L936.118 1542.97 L936.118 1548.85 L931.234 1548.85 L931.234 1542.97 Z" fill="#000000" fill-rule="nonzero" fill-opacity="1" /><path clip-path="url(#clip890)" d="M950.331 1544.91 L966.65 1544.91 L966.65 1548.85 L944.706 1548.85 L944.706 1544.91 Q947.368 1542.16 951.951 1537.53 Q956.558 1532.88 957.738 1531.53 Q959.984 1529.01 960.863 1527.27 Q961.766 1525.51 961.766 1523.82 Q961.766 1521.07 959.822 1519.33 Q957.9 1517.6 954.799 1517.6 Q952.599 1517.6 950.146 1518.36 Q947.715 1519.13 944.937 1520.68 L944.937 1515.95 Q947.762 1514.82 950.215 1514.24 Q952.669 1513.66 954.706 1513.66 Q960.076 1513.66 963.271 1516.35 Q966.465 1519.03 966.465 1523.52 Q966.465 1525.65 965.655 1527.57 Q964.868 1529.47 962.761 1532.07 Q962.183 1532.74 959.081 1535.95 Q955.979 1539.15 950.331 1544.91 Z" fill="#000000" fill-rule="nonzero" fill-opacity="1" /><path clip-path="url(#clip890)" d="M1376.02 1517.37 Q1372.41 1517.37 1370.58 1520.93 Q1368.78 1524.47 1368.78 1531.6 Q1368.78 1538.71 1370.58 1542.27 Q1372.41 1545.82 1376.02 1545.82 Q1379.66 1545.82 1381.46 1542.27 Q1383.29 1538.71 1383.29 1531.6 Q1383.29 1524.47 1381.46 1520.93 Q1379.66 1517.37 1376.02 1517.37 M1376.02 1513.66 Q1381.83 1513.66 1384.89 1518.27 Q1387.97 1522.85 1387.97 1531.6 Q1387.97 1540.33 1384.89 1544.94 Q1381.83 1549.52 1376.02 1549.52 Q1370.21 1549.52 1367.13 1544.94 Q1364.08 1540.33 1364.08 1531.6 Q1364.08 1522.85 1367.13 1518.27 Q1370.21 1513.66 1376.02 1513.66 Z" fill="#000000" fill-rule="nonzero" fill-opacity="1" /><path clip-path="url(#clip890)" d="M1396.18 1542.97 L1401.07 1542.97 L1401.07 1548.85 L1396.18 1548.85 L1396.18 1542.97 Z" fill="#000000" fill-rule="nonzero" fill-opacity="1" /><path clip-path="url(#clip890)" d="M1421.25 1517.37 Q1417.64 1517.37 1415.81 1520.93 Q1414.01 1524.47 1414.01 1531.6 Q1414.01 1538.71 1415.81 1542.27 Q1417.64 1545.82 1421.25 1545.82 Q1424.89 1545.82 1426.69 1542.27 Q1428.52 1538.71 1428.52 1531.6 Q1428.52 1524.47 1426.69 1520.93 Q1424.89 1517.37 1421.25 1517.37 M1421.25 1513.66 Q1427.06 1513.66 1430.12 1518.27 Q1433.2 1522.85 1433.2 1531.6 Q1433.2 1540.33 1430.12 1544.94 Q1427.06 1549.52 1421.25 1549.52 Q1415.44 1549.52 1412.37 1544.94 Q1409.31 1540.33 1409.31 1531.6 Q1409.31 1522.85 1412.37 1518.27 Q1415.44 1513.66 1421.25 1513.66 Z" fill="#000000" fill-rule="nonzero" fill-opacity="1" /><path clip-path="url(#clip890)" d="M1861.48 1517.37 Q1857.87 1517.37 1856.04 1520.93 Q1854.24 1524.47 1854.24 1531.6 Q1854.24 1538.71 1856.04 1542.27 Q1857.87 1545.82 1861.48 1545.82 Q1865.12 1545.82 1866.92 1542.27 Q1868.75 1538.71 1868.75 1531.6 Q1868.75 1524.47 1866.92 1520.93 Q1865.12 1517.37 1861.48 1517.37 M1861.48 1513.66 Q1867.29 1513.66 1870.35 1518.27 Q1873.43 1522.85 1873.43 1531.6 Q1873.43 1540.33 1870.35 1544.94 Q1867.29 1549.52 1861.48 1549.52 Q1855.67 1549.52 1852.59 1544.94 Q1849.54 1540.33 1849.54 1531.6 Q1849.54 1522.85 1852.59 1518.27 Q1855.67 1513.66 1861.48 1513.66 Z" fill="#000000" fill-rule="nonzero" fill-opacity="1" /><path clip-path="url(#clip890)" d="M1881.64 1542.97 L1886.53 1542.97 L1886.53 1548.85 L1881.64 1548.85 L1881.64 1542.97 Z" fill="#000000" fill-rule="nonzero" fill-opacity="1" /><path clip-path="url(#clip890)" d="M1900.74 1544.91 L1917.06 1544.91 L1917.06 1548.85 L1895.12 1548.85 L1895.12 1544.91 Q1897.78 1542.16 1902.36 1537.53 Q1906.97 1532.88 1908.15 1531.53 Q1910.39 1529.01 1911.27 1527.27 Q1912.18 1525.51 1912.18 1523.82 Q1912.18 1521.07 1910.23 1519.33 Q1908.31 1517.6 1905.21 1517.6 Q1903.01 1517.6 1900.56 1518.36 Q1898.13 1519.13 1895.35 1520.68 L1895.35 1515.95 Q1898.17 1514.82 1900.63 1514.24 Q1903.08 1513.66 1905.12 1513.66 Q1910.49 1513.66 1913.68 1516.35 Q1916.88 1519.03 1916.88 1523.52 Q1916.88 1525.65 1916.07 1527.57 Q1915.28 1529.47 1913.17 1532.07 Q1912.59 1532.74 1909.49 1535.95 Q1906.39 1539.15 1900.74 1544.91 Z" fill="#000000" fill-rule="nonzero" fill-opacity="1" /><polyline clip-path="url(#clip892)" style="stroke:#000000; stroke-linecap:round; stroke-linejoin:round; stroke-width:2; stroke-opacity:0.1; fill:none" points="156.112,1455.74 2352.76,1455.74 "/>
<polyline clip-path="url(#clip892)" style="stroke:#000000; stroke-linecap:round; stroke-linejoin:round; stroke-width:2; stroke-opacity:0.1; fill:none" points="156.112,1067.03 2352.76,1067.03 "/>
<polyline clip-path="url(#clip892)" style="stroke:#000000; stroke-linecap:round; stroke-linejoin:round; stroke-width:2; stroke-opacity:0.1; fill:none" points="156.112,678.312 2352.76,678.312 "/>
<polyline clip-path="url(#clip892)" style="stroke:#000000; stroke-linecap:round; stroke-linejoin:round; stroke-width:2; stroke-opacity:0.1; fill:none" points="156.112,289.6 2352.76,289.6 "/>
<polyline clip-path="url(#clip890)" style="stroke:#000000; stroke-linecap:round; stroke-linejoin:round; stroke-width:4; stroke-opacity:1; fill:none" points="156.112,1486.45 156.112,47.2441 "/>
<polyline clip-path="url(#clip890)" style="stroke:#000000; stroke-linecap:round; stroke-linejoin:round; stroke-width:4; stroke-opacity:1; fill:none" points="156.112,1455.74 175.01,1455.74 "/>
<polyline clip-path="url(#clip890)" style="stroke:#000000; stroke-linecap:round; stroke-linejoin:round; stroke-width:4; stroke-opacity:1; fill:none" points="156.112,1067.03 175.01,1067.03 "/>
<polyline clip-path="url(#clip890)" style="stroke:#000000; stroke-linecap:round; stroke-linejoin:round; stroke-width:4; stroke-opacity:1; fill:none" points="156.112,678.312 175.01,678.312 "/>
<polyline clip-path="url(#clip890)" style="stroke:#000000; stroke-linecap:round; stroke-linejoin:round; stroke-width:4; stroke-opacity:1; fill:none" points="156.112,289.6 175.01,289.6 "/>
<path clip-path="url(#clip890)" d="M62.9365 1441.54 Q59.3254 1441.54 57.4967 1445.1 Q55.6912 1448.64 55.6912 1455.77 Q55.6912 1462.88 57.4967 1466.44 Q59.3254 1469.99 62.9365 1469.99 Q66.5707 1469.99 68.3763 1466.44 Q70.205 1462.88 70.205 1455.77 Q70.205 1448.64 68.3763 1445.1 Q66.5707 1441.54 62.9365 1441.54 M62.9365 1437.83 Q68.7467 1437.83 71.8022 1442.44 Q74.8809 1447.02 74.8809 1455.77 Q74.8809 1464.5 71.8022 1469.11 Q68.7467 1473.69 62.9365 1473.69 Q57.1264 1473.69 54.0477 1469.11 Q50.9921 1464.5 50.9921 1455.77 Q50.9921 1447.02 54.0477 1442.44 Q57.1264 1437.83 62.9365 1437.83 Z" fill="#000000" fill-rule="nonzero" fill-opacity="1" /><path clip-path="url(#clip890)" d="M83.0984 1467.14 L87.9827 1467.14 L87.9827 1473.02 L83.0984 1473.02 L83.0984 1467.14 Z" fill="#000000" fill-rule="nonzero" fill-opacity="1" /><path clip-path="url(#clip890)" d="M108.168 1441.54 Q104.557 1441.54 102.728 1445.1 Q100.922 1448.64 100.922 1455.77 Q100.922 1462.88 102.728 1466.44 Q104.557 1469.99 108.168 1469.99 Q111.802 1469.99 113.608 1466.44 Q115.436 1462.88 115.436 1455.77 Q115.436 1448.64 113.608 1445.1 Q111.802 1441.54 108.168 1441.54 M108.168 1437.83 Q113.978 1437.83 117.033 1442.44 Q120.112 1447.02 120.112 1455.77 Q120.112 1464.5 117.033 1469.11 Q113.978 1473.69 108.168 1473.69 Q102.358 1473.69 99.2789 1469.11 Q96.2234 1464.5 96.2234 1455.77 Q96.2234 1447.02 99.2789 1442.44 Q102.358 1437.83 108.168 1437.83 Z" fill="#000000" fill-rule="nonzero" fill-opacity="1" /><path clip-path="url(#clip890)" d="M64.1634 1052.82 Q60.5523 1052.82 58.7236 1056.39 Q56.918 1059.93 56.918 1067.06 Q56.918 1074.17 58.7236 1077.73 Q60.5523 1081.27 64.1634 1081.27 Q67.7976 1081.27 69.6031 1077.73 Q71.4318 1074.17 71.4318 1067.06 Q71.4318 1059.93 69.6031 1056.39 Q67.7976 1052.82 64.1634 1052.82 M64.1634 1049.12 Q69.9735 1049.12 73.029 1053.73 Q76.1077 1058.31 76.1077 1067.06 Q76.1077 1075.79 73.029 1080.39 Q69.9735 1084.98 64.1634 1084.98 Q58.3532 1084.98 55.2745 1080.39 Q52.219 1075.79 52.219 1067.06 Q52.219 1058.31 55.2745 1053.73 Q58.3532 1049.12 64.1634 1049.12 Z" fill="#000000" fill-rule="nonzero" fill-opacity="1" /><path clip-path="url(#clip890)" d="M84.3253 1078.43 L89.2095 1078.43 L89.2095 1084.31 L84.3253 1084.31 L84.3253 1078.43 Z" fill="#000000" fill-rule="nonzero" fill-opacity="1" /><path clip-path="url(#clip890)" d="M100.205 1080.37 L107.844 1080.37 L107.844 1054 L99.5335 1055.67 L99.5335 1051.41 L107.797 1049.75 L112.473 1049.75 L112.473 1080.37 L120.112 1080.37 L120.112 1084.31 L100.205 1084.31 L100.205 1080.37 Z" fill="#000000" fill-rule="nonzero" fill-opacity="1" /><path clip-path="url(#clip890)" d="M64.5337 664.111 Q60.9226 664.111 59.0939 667.676 Q57.2884 671.218 57.2884 678.347 Q57.2884 685.454 59.0939 689.018 Q60.9226 692.56 64.5337 692.56 Q68.168 692.56 69.9735 689.018 Q71.8022 685.454 71.8022 678.347 Q71.8022 671.218 69.9735 667.676 Q68.168 664.111 64.5337 664.111 M64.5337 660.407 Q70.3439 660.407 73.3994 665.014 Q76.4781 669.597 76.4781 678.347 Q76.4781 687.074 73.3994 691.68 Q70.3439 696.264 64.5337 696.264 Q58.7236 696.264 55.6449 691.68 Q52.5893 687.074 52.5893 678.347 Q52.5893 669.597 55.6449 665.014 Q58.7236 660.407 64.5337 660.407 Z" fill="#000000" fill-rule="nonzero" fill-opacity="1" /><path clip-path="url(#clip890)" d="M84.6956 689.713 L89.5799 689.713 L89.5799 695.592 L84.6956 695.592 L84.6956 689.713 Z" fill="#000000" fill-rule="nonzero" fill-opacity="1" /><path clip-path="url(#clip890)" d="M103.793 691.657 L120.112 691.657 L120.112 695.592 L98.1678 695.592 L98.1678 691.657 Q100.83 688.903 105.413 684.273 Q110.02 679.62 111.2 678.278 Q113.445 675.755 114.325 674.018 Q115.228 672.259 115.228 670.569 Q115.228 667.815 113.283 666.079 Q111.362 664.343 108.26 664.343 Q106.061 664.343 103.608 665.106 Q101.177 665.87 98.3993 667.421 L98.3993 662.699 Q101.223 661.565 103.677 660.986 Q106.131 660.407 108.168 660.407 Q113.538 660.407 116.733 663.093 Q119.927 665.778 119.927 670.268 Q119.927 672.398 119.117 674.319 Q118.33 676.217 116.223 678.81 Q115.645 679.481 112.543 682.699 Q109.441 685.893 103.793 691.657 Z" fill="#000000" fill-rule="nonzero" fill-opacity="1" /><path clip-path="url(#clip890)" d="M63.5847 275.398 Q59.9736 275.398 58.1449 278.963 Q56.3393 282.505 56.3393 289.634 Q56.3393 296.741 58.1449 300.306 Q59.9736 303.847 63.5847 303.847 Q67.2189 303.847 69.0244 300.306 Q70.8531 296.741 70.8531 289.634 Q70.8531 282.505 69.0244 278.963 Q67.2189 275.398 63.5847 275.398 M63.5847 271.695 Q69.3948 271.695 72.4503 276.301 Q75.529 280.884 75.529 289.634 Q75.529 298.361 72.4503 302.968 Q69.3948 307.551 63.5847 307.551 Q57.7745 307.551 54.6958 302.968 Q51.6403 298.361 51.6403 289.634 Q51.6403 280.884 54.6958 276.301 Q57.7745 271.695 63.5847 271.695 Z" fill="#000000" fill-rule="nonzero" fill-opacity="1" /><path clip-path="url(#clip890)" d="M83.7466 301 L88.6308 301 L88.6308 306.88 L83.7466 306.88 L83.7466 301 Z" fill="#000000" fill-rule="nonzero" fill-opacity="1" /><path clip-path="url(#clip890)" d="M112.983 288.245 Q116.339 288.963 118.214 291.232 Q120.112 293.5 120.112 296.833 Q120.112 301.949 116.594 304.75 Q113.075 307.551 106.594 307.551 Q104.418 307.551 102.103 307.111 Q99.8113 306.694 97.3576 305.838 L97.3576 301.324 Q99.3021 302.458 101.617 303.037 Q103.932 303.616 106.455 303.616 Q110.853 303.616 113.145 301.88 Q115.459 300.144 115.459 296.833 Q115.459 293.778 113.307 292.065 Q111.177 290.329 107.358 290.329 L103.33 290.329 L103.33 286.486 L107.543 286.486 Q110.992 286.486 112.82 285.12 Q114.649 283.732 114.649 281.139 Q114.649 278.477 112.751 277.065 Q110.876 275.63 107.358 275.63 Q105.436 275.63 103.237 276.046 Q101.038 276.463 98.3993 277.343 L98.3993 273.176 Q101.061 272.435 103.376 272.065 Q105.714 271.695 107.774 271.695 Q113.098 271.695 116.2 274.125 Q119.302 276.533 119.302 280.653 Q119.302 283.523 117.658 285.514 Q116.015 287.482 112.983 288.245 Z" fill="#000000" fill-rule="nonzero" fill-opacity="1" /><circle clip-path="url(#clip892)" cx="1469.8" cy="1256.26" r="14.4" fill="#808080" fill-rule="evenodd" fill-opacity="1" stroke="#000000" stroke-opacity="1" stroke-width="3.2"/>
<circle clip-path="url(#clip892)" cx="1362.13" cy="1445.72" r="14.4" fill="#808080" fill-rule="evenodd" fill-opacity="1" stroke="#000000" stroke-opacity="1" stroke-width="3.2"/>
<circle clip-path="url(#clip892)" cx="2290.59" cy="1277" r="14.4" fill="#808080" fill-rule="evenodd" fill-opacity="1" stroke="#000000" stroke-opacity="1" stroke-width="3.2"/>
<circle clip-path="url(#clip892)" cx="218.281" cy="87.9763" r="14.4" fill="#808080" fill-rule="evenodd" fill-opacity="1" stroke="#000000" stroke-opacity="1" stroke-width="3.2"/>
<path clip-path="url(#clip890)" d="M1474.09 1263.7 Q1465.06 1263.7 1461.58 1265.76 Q1458.09 1267.83 1458.09 1272.81 Q1458.09 1276.78 1460.69 1279.13 Q1463.32 1281.44 1467.81 1281.44 Q1474.01 1281.44 1477.74 1277.06 Q1481.51 1272.65 1481.51 1265.36 L1481.51 1263.7 L1474.09 1263.7 M1488.96 1260.62 L1488.96 1286.5 L1481.51 1286.5 L1481.51 1279.62 Q1478.95 1283.75 1475.15 1285.73 Q1471.34 1287.68 1465.83 1287.68 Q1458.86 1287.68 1454.73 1283.79 Q1450.64 1279.86 1450.64 1273.3 Q1450.64 1265.64 1455.74 1261.75 Q1460.89 1257.86 1471.06 1257.86 L1481.51 1257.86 L1481.51 1257.13 Q1481.51 1251.99 1478.1 1249.19 Q1474.74 1246.36 1468.62 1246.36 Q1464.74 1246.36 1461.05 1247.29 Q1457.36 1248.22 1453.96 1250.08 L1453.96 1243.2 Q1458.05 1241.62 1461.9 1240.85 Q1465.75 1240.04 1469.39 1240.04 Q1479.24 1240.04 1484.1 1245.14 Q1488.96 1250.25 1488.96 1260.62 Z" fill="#000000" fill-rule="nonzero" fill-opacity="1" /><path clip-path="url(#clip890)" d="M1374.69 1453.31 Q1374.69 1445.09 1371.29 1440.43 Q1367.93 1435.73 1362.01 1435.73 Q1356.1 1435.73 1352.7 1440.43 Q1349.33 1445.09 1349.33 1453.31 Q1349.33 1461.53 1352.7 1466.23 Q1356.1 1470.89 1362.01 1470.89 Q1367.93 1470.89 1371.29 1466.23 Q1374.69 1461.53 1374.69 1453.31 M1349.33 1437.47 Q1351.68 1433.42 1355.25 1431.48 Q1358.85 1429.49 1363.84 1429.49 Q1372.1 1429.49 1377.24 1436.05 Q1382.43 1442.62 1382.43 1453.31 Q1382.43 1464.01 1377.24 1470.57 Q1372.1 1477.13 1363.84 1477.13 Q1358.85 1477.13 1355.25 1475.19 Q1351.68 1473.2 1349.33 1469.15 L1349.33 1475.96 L1341.84 1475.96 L1341.84 1412.92 L1349.33 1412.92 L1349.33 1437.47 Z" fill="#000000" fill-rule="nonzero" fill-opacity="1" /><path clip-path="url(#clip890)" d="M2308.53 1263.61 L2308.53 1270.58 Q2305.37 1268.84 2302.17 1267.99 Q2299.01 1267.09 2295.77 1267.09 Q2288.52 1267.09 2284.51 1271.71 Q2280.5 1276.29 2280.5 1284.59 Q2280.5 1292.9 2284.51 1297.52 Q2288.52 1302.09 2295.77 1302.09 Q2299.01 1302.09 2302.17 1301.24 Q2305.37 1300.35 2308.53 1298.61 L2308.53 1305.5 Q2305.41 1306.96 2302.05 1307.68 Q2298.73 1308.41 2294.96 1308.41 Q2284.71 1308.41 2278.68 1301.97 Q2272.64 1295.53 2272.64 1284.59 Q2272.64 1273.5 2278.72 1267.14 Q2284.83 1260.78 2295.45 1260.78 Q2298.89 1260.78 2302.17 1261.5 Q2305.45 1262.19 2308.53 1263.61 Z" fill="#000000" fill-rule="nonzero" fill-opacity="1" /><path clip-path="url(#clip890)" d="M231.102 79.7327 L231.102 55.1842 L238.556 55.1842 L238.556 118.216 L231.102 118.216 L231.102 111.411 Q228.753 115.462 225.148 117.447 Q221.583 119.391 216.56 119.391 Q208.336 119.391 203.151 112.829 Q198.007 106.266 198.007 95.5717 Q198.007 84.8773 203.151 78.3149 Q208.336 71.7524 216.56 71.7524 Q221.583 71.7524 225.148 73.7373 Q228.753 75.6818 231.102 79.7327 M205.703 95.5717 Q205.703 103.795 209.065 108.494 Q212.468 113.153 218.383 113.153 Q224.297 113.153 227.7 108.494 Q231.102 103.795 231.102 95.5717 Q231.102 87.3484 227.7 82.6898 Q224.297 77.9908 218.383 77.9908 Q212.468 77.9908 209.065 82.6898 Q205.703 87.3484 205.703 95.5717 Z" fill="#000000" fill-rule="nonzero" fill-opacity="1" /><path clip-path="url(#clip890)" d="M2007.44 198.898 L2279.53 198.898 L2279.53 95.2176 L2007.44 95.2176  Z" fill="#ffffff" fill-rule="evenodd" fill-opacity="1"/>
<polyline clip-path="url(#clip890)" style="stroke:#000000; stroke-linecap:round; stroke-linejoin:round; stroke-width:4; stroke-opacity:1; fill:none" points="2007.44,198.898 2279.53,198.898 2279.53,95.2176 2007.44,95.2176 2007.44,198.898 "/>
<circle clip-path="url(#clip890)" cx="2105.07" cy="147.058" r="20.48" fill="#808080" fill-rule="evenodd" fill-opacity="1" stroke="#000000" stroke-opacity="1" stroke-width="4.55111"/>
<path clip-path="url(#clip890)" d="M2216.54 166.745 Q2214.73 171.375 2213.02 172.787 Q2211.31 174.199 2208.44 174.199 L2205.03 174.199 L2205.03 170.634 L2207.53 170.634 Q2209.29 170.634 2210.27 169.8 Q2211.24 168.967 2212.42 165.865 L2213.18 163.921 L2202.7 138.412 L2207.21 138.412 L2215.31 158.689 L2223.41 138.412 L2227.93 138.412 L2216.54 166.745 Z" fill="#000000" fill-rule="nonzero" fill-opacity="1" /><path clip-path="url(#clip890)" d="M2235.22 160.402 L2242.86 160.402 L2242.86 134.037 L2234.55 135.703 L2234.55 131.444 L2242.81 129.778 L2247.49 129.778 L2247.49 160.402 L2255.13 160.402 L2255.13 164.338 L2235.22 164.338 L2235.22 160.402 Z" fill="#000000" fill-rule="nonzero" fill-opacity="1" /></svg>
