<?xml version="1.0" encoding="utf-8"?>
<svg xmlns="http://www.w3.org/2000/svg" xmlns:xlink="http://www.w3.org/1999/xlink" width="600" height="400" viewBox="0 0 2400 1600">
<defs>
  <clipPath id="clip380">
    <rect x="0" y="0" width="2400" height="1600"/>
  </clipPath>
</defs>
<path clip-path="url(#clip380)" d="M0 1600 L2400 1600 L2400 0 L0 0  Z" fill="#ffffff" fill-rule="evenodd" fill-opacity="1"/>
<defs>
  <clipPath id="clip381">
    <rect x="480" y="0" width="1681" height="1600"/>
  </clipPath>
</defs>
<path clip-path="url(#clip380)" d="M112.177 1486.45 L2352.76 1486.45 L2352.76 47.2441 L112.177 47.2441  Z" fill="#ffffff" fill-rule="evenodd" fill-opacity="1"/>
<defs>
  <clipPath id="clip382">
    <rect x="112" y="47" width="2242" height="1440"/>
  </clipPath>
</defs>
<polyline clip-path="url(#clip382)" style="stroke:#000000; stroke-linecap:round; stroke-linejoin:round; stroke-width:2; stroke-opacity:0.1; fill:none" points="606.019,1486.45 606.019,47.2441 "/>
<polyline clip-path="url(#clip382)" style="stroke:#000000; stroke-linecap:round; stroke-linejoin:round; stroke-width:2; stroke-opacity:0.1; fill:none" points="1108.32,1486.45 1108.32,47.2441 "/>
<polyline clip-path="url(#clip382)" style="stroke:#000000; stroke-linecap:round; stroke-linejoin:round; stroke-width:2; stroke-opacity:0.1; fill:none" points="1610.62,1486.45 1610.62,47.2441 "/>
<polyline clip-path="url(#clip382)" style="stroke:#000000; stroke-linecap:round; stroke-linejoin:round; stroke-width:2; stroke-opacity:0.1; fill:none" points="2112.93,1486.45 2112.93,47.2441 "/>
<polyline clip-path="url(#clip382)" style="stroke:#000000; stroke-linecap:round; stroke-linejoin:round; stroke-width:2; stroke-opacity:0.1; fill:none" points="112.177,1254.21 2352.76,1254.21 "/>
<polyline clip-path="url(#clip382)" style="stroke:#000000; stroke-linecap:round; stroke-linejoin:round; stroke-width:2; stroke-opacity:0.1; fill:none" points="112.177,1017.01 2352.76,1017.01 "/>
<polyline clip-path="url(#clip382)" style="stroke:#000000; stroke-linecap:round; stroke-linejoin:round; stroke-width:2; stroke-opacity:0.1; fill:none" points="112.177,779.81 2352.76,779.81 "/>
<polyline clip-path="url(#clip382)" style="stroke:#000000; stroke-linecap:round; stroke-linejoin:round; stroke-width:2; stroke-opacity:0.1; fill:none" points="112.177,542.609 2352.76,542.609 "/>
<polyline clip-path="url(#clip382)" style="stroke:#000000; stroke-linecap:round; stroke-linejoin:round; stroke-width:2; stroke-opacity:0.1; fill:none" points="112.177,305.409 2352.76,305.409 "/>
<polyline clip-path="url(#clip382)" style="stroke:#000000; stroke-linecap:round; stroke-linejoin:round; stroke-width:2; stroke-opacity:0.1; fill:none" points="112.177,68.2081 2352.76,68.2081 "/>
<polyline clip-path="url(#clip380)" style="stroke:#000000; stroke-linecap:round; stroke-linejoin:round; stroke-width:4; stroke-opacity:1; fill:none" points="112.177,1486.45 2352.76,1486.45 "/>
<polyline clip-path="url(#clip380)" style="stroke:#000000; stroke-linecap:round; stroke-linejoin:round; stroke-width:4; stroke-opacity:1; fill:none" points="606.019,1486.45 606.019,1467.55 "/>
<polyline clip-path="url(#clip380)" style="stroke:#000000; stroke-linecap:round; stroke-linejoin:round; stroke-width:4; stroke-opacity:1; fill:none" points="1108.32,1486.45 1108.32,1467.55 "/>
<polyline clip-path="url(#clip380)" style="stroke:#000000; stroke-linecap:round; stroke-linejoin:round; stroke-width:4; stroke-opacity:1; fill:none" points="1610.62,1486.45 1610.62,1467.55 "/>
<polyline clip-path="url(#clip380)" style="stroke:#000000; stroke-linecap:round; stroke-linejoin:round; stroke-width:4; stroke-opacity:1; fill:none" points="2112.93,1486.45 2112.93,1467.55 "/>
<path clip-path="url(#clip380)" d="M552.547 1532.02 L582.222 1532.02 L582.222 1535.95 L552.547 1535.95 L552.547 1532.02 Z" fill="#000000" fill-rule="nonzero" fill-opacity="1" /><path clip-path="url(#clip380)" d="M593.125 1544.91 L600.764 1544.91 L600.764 1518.55 L592.454 1520.21 L592.454 1515.95 L600.718 1514.29 L605.394 1514.29 L605.394 1544.91 L613.032 1544.91 L613.032 1548.85 L593.125 1548.85 L593.125 1544.91 Z" fill="#000000" fill-rule="nonzero" fill-opacity="1" /><path clip-path="url(#clip380)" d="M622.477 1542.97 L627.361 1542.97 L627.361 1548.85 L622.477 1548.85 L622.477 1542.97 Z" fill="#000000" fill-rule="nonzero" fill-opacity="1" /><path clip-path="url(#clip380)" d="M647.546 1517.37 Q643.935 1517.37 642.106 1520.93 Q640.301 1524.47 640.301 1531.6 Q640.301 1538.71 642.106 1542.27 Q643.935 1545.82 647.546 1545.82 Q651.18 1545.82 652.986 1542.27 Q654.815 1538.71 654.815 1531.6 Q654.815 1524.47 652.986 1520.93 Q651.18 1517.37 647.546 1517.37 M647.546 1513.66 Q653.356 1513.66 656.412 1518.27 Q659.491 1522.85 659.491 1531.6 Q659.491 1540.33 656.412 1544.94 Q653.356 1549.52 647.546 1549.52 Q641.736 1549.52 638.657 1544.94 Q635.602 1540.33 635.602 1531.6 Q635.602 1522.85 638.657 1518.27 Q641.736 1513.66 647.546 1513.66 Z" fill="#000000" fill-rule="nonzero" fill-opacity="1" /><path clip-path="url(#clip380)" d="M1055.35 1532.02 L1085.02 1532.02 L1085.02 1535.95 L1055.35 1535.95 L1055.35 1532.02 Z" fill="#000000" fill-rule="nonzero" fill-opacity="1" /><path clip-path="url(#clip380)" d="M1105.11 1517.37 Q1101.5 1517.37 1099.68 1520.93 Q1097.87 1524.47 1097.87 1531.6 Q1097.87 1538.71 1099.68 1542.27 Q1101.5 1545.82 1105.11 1545.82 Q1108.75 1545.82 1110.55 1542.27 Q1112.38 1538.71 1112.38 1531.6 Q1112.38 1524.47 1110.55 1520.93 Q1108.75 1517.37 1105.11 1517.37 M1105.11 1513.66 Q1110.93 1513.66 1113.98 1518.27 Q1117.06 1522.85 1117.06 1531.6 Q1117.06 1540.33 1113.98 1544.94 Q1110.93 1549.52 1105.11 1549.52 Q1099.3 1549.52 1096.23 1544.94 Q1093.17 1540.33 1093.17 1531.6 Q1093.17 1522.85 1096.23 1518.27 Q1099.3 1513.66 1105.11 1513.66 Z" fill="#000000" fill-rule="nonzero" fill-opacity="1" /><path clip-path="url(#clip380)" d="M1125.28 1542.97 L1130.16 1542.97 L1130.16 1548.85 L1125.28 1548.85 L1125.28 1542.97 Z" fill="#000000" fill-rule="nonzero" fill-opacity="1" /><path clip-path="url(#clip380)" d="M1140.39 1514.29 L1158.75 1514.29 L1158.75 1518.22 L1144.67 1518.22 L1144.67 1526.7 Q1145.69 1526.35 1146.71 1526.19 Q1147.73 1526 1148.75 1526 Q1154.54 1526 1157.92 1529.17 Q1161.3 1532.34 1161.3 1537.76 Q1161.3 1543.34 1157.82 1546.44 Q1154.35 1549.52 1148.03 1549.52 Q1145.86 1549.52 1143.59 1549.15 Q1141.34 1548.78 1138.93 1548.04 L1138.93 1543.34 Q1141.02 1544.47 1143.24 1545.03 Q1145.46 1545.58 1147.94 1545.58 Q1151.94 1545.58 1154.28 1543.48 Q1156.62 1541.37 1156.62 1537.76 Q1156.62 1534.15 1154.28 1532.04 Q1151.94 1529.94 1147.94 1529.94 Q1146.06 1529.94 1144.19 1530.35 Q1142.34 1530.77 1140.39 1531.65 L1140.39 1514.29 Z" fill="#000000" fill-rule="nonzero" fill-opacity="1" /><path clip-path="url(#clip380)" d="M1588.01 1517.37 Q1584.4 1517.37 1582.57 1520.93 Q1580.76 1524.47 1580.76 1531.6 Q1580.76 1538.71 1582.57 1542.27 Q1584.4 1545.82 1588.01 1545.82 Q1591.64 1545.82 1593.45 1542.27 Q1595.28 1538.71 1595.28 1531.6 Q1595.28 1524.47 1593.45 1520.93 Q1591.64 1517.37 1588.01 1517.37 M1588.01 1513.66 Q1593.82 1513.66 1596.87 1518.27 Q1599.95 1522.85 1599.95 1531.6 Q1599.95 1540.33 1596.87 1544.94 Q1593.82 1549.52 1588.01 1549.52 Q1582.2 1549.52 1579.12 1544.94 Q1576.06 1540.33 1576.06 1531.6 Q1576.06 1522.85 1579.12 1518.27 Q1582.2 1513.66 1588.01 1513.66 Z" fill="#000000" fill-rule="nonzero" fill-opacity="1" /><path clip-path="url(#clip380)" d="M1608.17 1542.97 L1613.05 1542.97 L1613.05 1548.85 L1608.17 1548.85 L1608.17 1542.97 Z" fill="#000000" fill-rule="nonzero" fill-opacity="1" /><path clip-path="url(#clip380)" d="M1633.24 1517.37 Q1629.63 1517.37 1627.8 1520.93 Q1625.99 1524.47 1625.99 1531.6 Q1625.99 1538.71 1627.8 1542.27 Q1629.63 1545.82 1633.24 1545.82 Q1636.87 1545.82 1638.68 1542.27 Q1640.51 1538.71 1640.51 1531.6 Q1640.51 1524.47 1638.68 1520.93 Q1636.87 1517.37 1633.24 1517.37 M1633.24 1513.66 Q1639.05 1513.66 1642.1 1518.27 Q1645.18 1522.85 1645.18 1531.6 Q1645.18 1540.33 1642.1 1544.94 Q1639.05 1549.52 1633.24 1549.52 Q1627.43 1549.52 1624.35 1544.94 Q1621.29 1540.33 1621.29 1531.6 Q1621.29 1522.85 1624.35 1518.27 Q1627.43 1513.66 1633.24 1513.66 Z" fill="#000000" fill-rule="nonzero" fill-opacity="1" /><path clip-path="url(#clip380)" d="M2090.81 1517.37 Q2087.2 1517.37 2085.37 1520.93 Q2083.56 1524.47 2083.56 1531.6 Q2083.56 1538.71 2085.37 1542.27 Q2087.2 1545.82 2090.81 1545.82 Q2094.44 1545.82 2096.25 1542.27 Q2098.08 1538.71 2098.08 1531.6 Q2098.08 1524.47 2096.25 1520.93 Q2094.44 1517.37 2090.81 1517.37 M2090.81 1513.66 Q2096.62 1513.66 2099.67 1518.27 Q2102.75 1522.85 2102.75 1531.6 Q2102.75 1540.33 2099.67 1544.94 Q2096.62 1549.52 2090.81 1549.52 Q2085 1549.52 2081.92 1544.94 Q2078.86 1540.33 2078.86 1531.6 Q2078.86 1522.85 2081.92 1518.27 Q2085 1513.66 2090.81 1513.66 Z" fill="#000000" fill-rule="nonzero" fill-opacity="1" /><path clip-path="url(#clip380)" d="M2110.97 1542.97 L2115.85 1542.97 L2115.85 1548.85 L2110.97 1548.85 L2110.97 1542.97 Z" fill="#000000" fill-rule="nonzero" fill-opacity="1" /><path clip-path="url(#clip380)" d="M2126.09 1514.29 L2144.44 1514.29 L2144.44 1518.22 L2130.37 1518.22 L2130.37 1526.7 Q2131.39 1526.35 2132.4 1526.19 Q2133.42 1526 2134.44 1526 Q2140.23 1526 2143.61 1529.17 Q2146.99 1532.34 2146.99 1537.76 Q2146.99 1543.34 2143.52 1546.44 Q2140.04 1549.52 2133.72 1549.52 Q2131.55 1549.52 2129.28 1549.15 Q2127.03 1548.78 2124.63 1548.04 L2124.63 1543.34 Q2126.71 1544.47 2128.93 1545.03 Q2131.15 1545.58 2133.63 1545.58 Q2137.64 1545.58 2139.97 1543.48 Q2142.31 1541.37 2142.31 1537.76 Q2142.31 1534.15 2139.97 1532.04 Q2137.64 1529.94 2133.63 1529.94 Q2131.76 1529.94 2129.88 1530.35 Q2128.03 1530.77 2126.09 1531.65 L2126.09 1514.29 Z" fill="#000000" fill-rule="nonzero" fill-opacity="1" /><polyline clip-path="url(#clip380)" style="stroke:#000000; stroke-linecap:round; stroke-linejoin:round; stroke-width:4; stroke-opacity:1; fill:none" points="112.177,1486.45 112.177,47.2441 "/>
<polyline clip-path="url(#clip380)" style="stroke:#000000; stroke-linecap:round; stroke-linejoin:round; stroke-width:4; stroke-opacity:1; fill:none" points="112.177,1254.21 131.075,1254.21 "/>
<polyline clip-path="url(#clip380)" style="stroke:#000000; stroke-linecap:round; stroke-linejoin:round; stroke-width:4; stroke-opacity:1; fill:none" points="112.177,1017.01 131.075,1017.01 "/>
<polyline clip-path="url(#clip380)" style="stroke:#000000; stroke-linecap:round; stroke-linejoin:round; stroke-width:4; stroke-opacity:1; fill:none" points="112.177,779.81 131.075,779.81 "/>
<polyline clip-path="url(#clip380)" style="stroke:#000000; stroke-linecap:round; stroke-linejoin:round; stroke-width:4; stroke-opacity:1; fill:none" points="112.177,542.609 131.075,542.609 "/>
<polyline clip-path="url(#clip380)" style="stroke:#000000; stroke-linecap:round; stroke-linejoin:round; stroke-width:4; stroke-opacity:1; fill:none" points="112.177,305.409 131.075,305.409 "/>
<polyline clip-path="url(#clip380)" style="stroke:#000000; stroke-linecap:round; stroke-linejoin:round; stroke-width:4; stroke-opacity:1; fill:none" points="112.177,68.2081 131.075,68.2081 "/>
<path clip-path="url(#clip380)" d="M56.2699 1267.56 L63.9087 1267.56 L63.9087 1241.19 L55.5986 1242.86 L55.5986 1238.6 L63.8624 1236.93 L68.5383 1236.93 L68.5383 1267.56 L76.1772 1267.56 L76.1772 1271.49 L56.2699 1271.49 L56.2699 1267.56 Z" fill="#000000" fill-rule="nonzero" fill-opacity="1" /><path clip-path="url(#clip380)" d="M59.8578 1030.35 L76.1772 1030.35 L76.1772 1034.29 L54.2328 1034.29 L54.2328 1030.35 Q56.8949 1027.6 61.4782 1022.97 Q66.0846 1018.32 67.2652 1016.98 Q69.5105 1014.45 70.3902 1012.72 Q71.2929 1010.96 71.2929 1009.27 Q71.2929 1006.51 69.3485 1004.78 Q67.4272 1003.04 64.3254 1003.04 Q62.1263 1003.04 59.6726 1003.8 Q57.2421 1004.57 54.4643 1006.12 L54.4643 1001.4 Q57.2884 1000.26 59.7421 999.684 Q62.1958 999.105 64.2328 999.105 Q69.6031 999.105 72.7976 1001.79 Q75.992 1004.48 75.992 1008.97 Q75.992 1011.1 75.1818 1013.02 Q74.3948 1014.92 72.2883 1017.51 Q71.7096 1018.18 68.6078 1021.4 Q65.5059 1024.59 59.8578 1030.35 Z" fill="#000000" fill-rule="nonzero" fill-opacity="1" /><path clip-path="url(#clip380)" d="M69.0476 778.455 Q72.404 779.173 74.279 781.442 Q76.1772 783.71 76.1772 787.043 Q76.1772 792.159 72.6587 794.96 Q69.1402 797.761 62.6587 797.761 Q60.4828 797.761 58.168 797.321 Q55.8764 796.904 53.4227 796.048 L53.4227 791.534 Q55.3671 792.668 57.6819 793.247 Q59.9967 793.826 62.5198 793.826 Q66.918 793.826 69.2096 792.09 Q71.5244 790.353 71.5244 787.043 Q71.5244 783.988 69.3717 782.275 Q67.242 780.539 63.4226 780.539 L59.3949 780.539 L59.3949 776.696 L63.6078 776.696 Q67.0569 776.696 68.8855 775.33 Q70.7142 773.942 70.7142 771.349 Q70.7142 768.687 68.8161 767.275 Q66.9411 765.84 63.4226 765.84 Q61.5013 765.84 59.3023 766.256 Q57.1032 766.673 54.4643 767.553 L54.4643 763.386 Q57.1264 762.645 59.4412 762.275 Q61.7791 761.905 63.8393 761.905 Q69.1633 761.905 72.2652 764.335 Q75.367 766.743 75.367 770.863 Q75.367 773.733 73.7235 775.724 Q72.08 777.692 69.0476 778.455 Z" fill="#000000" fill-rule="nonzero" fill-opacity="1" /><path clip-path="url(#clip380)" d="M66.5939 529.403 L54.7884 547.852 L66.5939 547.852 L66.5939 529.403 M65.367 525.329 L71.2466 525.329 L71.2466 547.852 L76.1772 547.852 L76.1772 551.741 L71.2466 551.741 L71.2466 559.889 L66.5939 559.889 L66.5939 551.741 L50.9921 551.741 L50.9921 547.227 L65.367 525.329 Z" fill="#000000" fill-rule="nonzero" fill-opacity="1" /><path clip-path="url(#clip380)" d="M55.2745 288.129 L73.6309 288.129 L73.6309 292.064 L59.5569 292.064 L59.5569 300.536 Q60.5754 300.189 61.5939 300.027 Q62.6124 299.842 63.6309 299.842 Q69.418 299.842 72.7976 303.013 Q76.1772 306.184 76.1772 311.601 Q76.1772 317.179 72.705 320.281 Q69.2328 323.36 62.9134 323.36 Q60.7374 323.36 58.4689 322.99 Q56.2236 322.619 53.8162 321.878 L53.8162 317.179 Q55.8995 318.314 58.1217 318.869 Q60.3439 319.425 62.8208 319.425 Q66.8254 319.425 69.1633 317.318 Q71.5013 315.212 71.5013 311.601 Q71.5013 307.99 69.1633 305.883 Q66.8254 303.777 62.8208 303.777 Q60.9458 303.777 59.0708 304.193 Q57.2189 304.61 55.2745 305.49 L55.2745 288.129 Z" fill="#000000" fill-rule="nonzero" fill-opacity="1" /><path clip-path="url(#clip380)" d="M64.6495 66.3447 Q61.5013 66.3447 59.6495 68.4975 Q57.8208 70.6503 57.8208 74.4002 Q57.8208 78.1271 59.6495 80.303 Q61.5013 82.4558 64.6495 82.4558 Q67.7976 82.4558 69.6263 80.303 Q71.4781 78.1271 71.4781 74.4002 Q71.4781 70.6503 69.6263 68.4975 Q67.7976 66.3447 64.6495 66.3447 M73.9318 51.692 L73.9318 55.9513 Q72.1726 55.1179 70.367 54.6781 Q68.5846 54.2383 66.8254 54.2383 Q62.1958 54.2383 59.7421 57.3633 Q57.3115 60.4883 56.9643 66.8077 Q58.33 64.7938 60.3902 63.729 Q62.4504 62.641 64.9272 62.641 Q70.1355 62.641 73.1448 65.8123 Q76.1772 68.9605 76.1772 74.4002 Q76.1772 79.7243 73.029 82.9419 Q69.8809 86.1594 64.6495 86.1594 Q58.6541 86.1594 55.4828 81.5761 Q52.3116 76.9697 52.3116 68.2429 Q52.3116 60.0485 56.2004 55.1874 Q60.0893 50.3031 66.6402 50.3031 Q68.3994 50.3031 70.1818 50.6504 Q71.9874 50.9976 73.9318 51.692 Z" fill="#000000" fill-rule="nonzero" fill-opacity="1" /><circle clip-path="url(#clip382)" cx="2289.34" cy="1343.11" r="14.4" fill="#808080" fill-rule="evenodd" fill-opacity="1" stroke="#000000" stroke-opacity="1" stroke-width="3.2"/>
<circle clip-path="url(#clip382)" cx="175.59" cy="87.9763" r="14.4" fill="#808080" fill-rule="evenodd" fill-opacity="1" stroke="#000000" stroke-opacity="1" stroke-width="3.2"/>
<circle clip-path="url(#clip382)" cx="1603.94" cy="1445.72" r="14.4" fill="#808080" fill-rule="evenodd" fill-opacity="1" stroke="#000000" stroke-opacity="1" stroke-width="3.2"/>
<circle clip-path="url(#clip382)" cx="1544.8" cy="1417.82" r="14.4" fill="#808080" fill-rule="evenodd" fill-opacity="1" stroke="#000000" stroke-opacity="1" stroke-width="3.2"/>
<path clip-path="url(#clip380)" d="M2293.64 1350.55 Q2284.6 1350.55 2281.12 1352.61 Q2277.64 1354.68 2277.64 1359.66 Q2277.64 1363.63 2280.23 1365.98 Q2282.86 1368.29 2287.36 1368.29 Q2293.56 1368.29 2297.28 1363.92 Q2301.05 1359.5 2301.05 1352.21 L2301.05 1350.55 L2293.64 1350.55 M2308.5 1347.47 L2308.5 1373.35 L2301.05 1373.35 L2301.05 1366.47 Q2298.5 1370.6 2294.69 1372.58 Q2290.88 1374.53 2285.37 1374.53 Q2278.41 1374.53 2274.27 1370.64 Q2270.18 1366.71 2270.18 1360.15 Q2270.18 1352.49 2275.29 1348.6 Q2280.43 1344.71 2290.6 1344.71 L2301.05 1344.71 L2301.05 1343.99 Q2301.05 1338.84 2297.65 1336.05 Q2294.29 1333.21 2288.17 1333.21 Q2284.28 1333.21 2280.59 1334.14 Q2276.91 1335.07 2273.5 1336.94 L2273.5 1330.05 Q2277.6 1328.47 2281.44 1327.7 Q2285.29 1326.89 2288.94 1326.89 Q2298.78 1326.89 2303.64 1331.99 Q2308.5 1337.1 2308.5 1347.47 Z" fill="#000000" fill-rule="nonzero" fill-opacity="1" /><path clip-path="url(#clip380)" d="M188.148 95.5717 Q188.148 87.3484 184.745 82.6898 Q181.383 77.9908 175.468 77.9908 Q169.554 77.9908 166.151 82.6898 Q162.789 87.3484 162.789 95.5717 Q162.789 103.795 166.151 108.494 Q169.554 113.153 175.468 113.153 Q181.383 113.153 184.745 108.494 Q188.148 103.795 188.148 95.5717 M162.789 79.7327 Q165.138 75.6818 168.703 73.7373 Q172.309 71.7524 177.291 71.7524 Q185.555 71.7524 190.7 78.3149 Q195.885 84.8773 195.885 95.5717 Q195.885 106.266 190.7 112.829 Q185.555 119.391 177.291 119.391 Q172.309 119.391 168.703 117.447 Q165.138 115.462 162.789 111.411 L162.789 118.216 L155.295 118.216 L155.295 55.1842 L162.789 55.1842 L162.789 79.7327 Z" fill="#000000" fill-rule="nonzero" fill-opacity="1" /><path clip-path="url(#clip380)" d="M1621.89 1432.33 L1621.89 1439.3 Q1618.73 1437.55 1615.53 1436.7 Q1612.37 1435.81 1609.13 1435.81 Q1601.88 1435.81 1597.87 1440.43 Q1593.86 1445.01 1593.86 1453.31 Q1593.86 1461.62 1597.87 1466.23 Q1601.88 1470.81 1609.13 1470.81 Q1612.37 1470.81 1615.53 1469.96 Q1618.73 1469.07 1621.89 1467.33 L1621.89 1474.21 Q1618.77 1475.67 1615.41 1476.4 Q1612.09 1477.13 1608.32 1477.13 Q1598.07 1477.13 1592.03 1470.69 Q1586 1464.25 1586 1453.31 Q1586 1442.21 1592.07 1435.85 Q1598.19 1429.49 1608.8 1429.49 Q1612.25 1429.49 1615.53 1430.22 Q1618.81 1430.91 1621.89 1432.33 Z" fill="#000000" fill-rule="nonzero" fill-opacity="1" /><path clip-path="url(#clip380)" d="M1557.62 1409.58 L1557.62 1385.03 L1565.08 1385.03 L1565.08 1448.06 L1557.62 1448.06 L1557.62 1441.26 Q1555.28 1445.31 1551.67 1447.29 Q1548.11 1449.24 1543.08 1449.24 Q1534.86 1449.24 1529.67 1442.68 Q1524.53 1436.11 1524.53 1425.42 Q1524.53 1414.73 1529.67 1408.16 Q1534.86 1401.6 1543.08 1401.6 Q1548.11 1401.6 1551.67 1403.59 Q1555.28 1405.53 1557.62 1409.58 M1532.23 1425.42 Q1532.23 1433.64 1535.59 1438.34 Q1538.99 1443 1544.9 1443 Q1550.82 1443 1554.22 1438.34 Q1557.62 1433.64 1557.62 1425.42 Q1557.62 1417.2 1554.22 1412.54 Q1550.82 1407.84 1544.9 1407.84 Q1538.99 1407.84 1535.59 1412.54 Q1532.23 1417.2 1532.23 1425.42 Z" fill="#000000" fill-rule="nonzero" fill-opacity="1" /><path clip-path="url(#clip380)" d="M2001.58 198.898 L2278.07 198.898 L2278.07 95.2176 L2001.58 95.2176  Z" fill="#ffffff" fill-rule="evenodd" fill-opacity="1"/>
<polyline clip-path="url(#clip380)" style="stroke:#000000; stroke-linecap:round; stroke-linejoin:round; stroke-width:4; stroke-opacity:1; fill:none" points="2001.58,198.898 2278.07,198.898 2278.07,95.2176 2001.58,95.2176 2001.58,198.898 "/>
<circle clip-path="url(#clip380)" cx="2101.16" cy="147.058" r="20.48" fill="#808080" fill-rule="evenodd" fill-opacity="1" stroke="#000000" stroke-opacity="1" stroke-width="4.55111"/>
<path clip-path="url(#clip380)" d="M2214.59 166.745 Q2212.78 171.375 2211.07 172.787 Q2209.36 174.199 2206.49 174.199 L2203.08 174.199 L2203.08 170.634 L2205.58 170.634 Q2207.34 170.634 2208.31 169.8 Q2209.29 168.967 2210.47 165.865 L2211.23 163.921 L2200.74 138.412 L2205.26 138.412 L2213.36 158.689 L2221.46 138.412 L2225.98 138.412 L2214.59 166.745 Z" fill="#000000" fill-rule="nonzero" fill-opacity="1" /><path clip-path="url(#clip380)" d="M2233.27 160.402 L2240.91 160.402 L2240.91 134.037 L2232.6 135.703 L2232.6 131.444 L2240.86 129.778 L2245.54 129.778 L2245.54 160.402 L2253.17 160.402 L2253.17 164.338 L2233.27 164.338 L2233.27 160.402 Z" fill="#000000" fill-rule="nonzero" fill-opacity="1" /></svg>
