<?xml version="1.0" encoding="utf-8"?>
<svg xmlns="http://www.w3.org/2000/svg" xmlns:xlink="http://www.w3.org/1999/xlink" width="600" height="400" viewBox="0 0 2400 1600">
<defs>
  <clipPath id="clip320">
    <rect x="0" y="0" width="2400" height="1600"/>
  </clipPath>
</defs>
<path clip-path="url(#clip320)" d="M0 1600 L2400 1600 L2400 0 L0 0  Z" fill="#ffffff" fill-rule="evenodd" fill-opacity="1"/>
<defs>
  <clipPath id="clip321">
    <rect x="480" y="0" width="1681" height="1600"/>
  </clipPath>
</defs>
<path clip-path="url(#clip320)" d="M156.598 1486.45 L2352.76 1486.45 L2352.76 47.2441 L156.598 47.2441  Z" fill="#ffffff" fill-rule="evenodd" fill-opacity="1"/>
<defs>
  <clipPath id="clip322">
    <rect x="156" y="47" width="2197" height="1440"/>
  </clipPath>
</defs>
<polyline clip-path="url(#clip322)" style="stroke:#000000; stroke-linecap:round; stroke-linejoin:round; stroke-width:2; stroke-opacity:0.1; fill:none" points="504.355,1486.45 504.355,47.2441 "/>
<polyline clip-path="url(#clip322)" style="stroke:#000000; stroke-linecap:round; stroke-linejoin:round; stroke-width:2; stroke-opacity:0.1; fill:none" points="966.752,1486.45 966.752,47.2441 "/>
<polyline clip-path="url(#clip322)" style="stroke:#000000; stroke-linecap:round; stroke-linejoin:round; stroke-width:2; stroke-opacity:0.1; fill:none" points="1429.15,1486.45 1429.15,47.2441 "/>
<polyline clip-path="url(#clip322)" style="stroke:#000000; stroke-linecap:round; stroke-linejoin:round; stroke-width:2; stroke-opacity:0.1; fill:none" points="1891.55,1486.45 1891.55,47.2441 "/>
<polyline clip-path="url(#clip322)" style="stroke:#000000; stroke-linecap:round; stroke-linejoin:round; stroke-width:2; stroke-opacity:0.1; fill:none" points="156.598,1449.2 2352.76,1449.2 "/>
<polyline clip-path="url(#clip322)" style="stroke:#000000; stroke-linecap:round; stroke-linejoin:round; stroke-width:2; stroke-opacity:0.1; fill:none" points="156.598,1224.22 2352.76,1224.22 "/>
<polyline clip-path="url(#clip322)" style="stroke:#000000; stroke-linecap:round; stroke-linejoin:round; stroke-width:2; stroke-opacity:0.1; fill:none" points="156.598,999.244 2352.76,999.244 "/>
<polyline clip-path="url(#clip322)" style="stroke:#000000; stroke-linecap:round; stroke-linejoin:round; stroke-width:2; stroke-opacity:0.1; fill:none" points="156.598,774.265 2352.76,774.265 "/>
<polyline clip-path="url(#clip322)" style="stroke:#000000; stroke-linecap:round; stroke-linejoin:round; stroke-width:2; stroke-opacity:0.1; fill:none" points="156.598,549.286 2352.76,549.286 "/>
<polyline clip-path="url(#clip322)" style="stroke:#000000; stroke-linecap:round; stroke-linejoin:round; stroke-width:2; stroke-opacity:0.1; fill:none" points="156.598,324.306 2352.76,324.306 "/>
<polyline clip-path="url(#clip322)" style="stroke:#000000; stroke-linecap:round; stroke-linejoin:round; stroke-width:2; stroke-opacity:0.1; fill:none" points="156.598,99.3268 2352.76,99.3268 "/>
<polyline clip-path="url(#clip320)" style="stroke:#000000; stroke-linecap:round; stroke-linejoin:round; stroke-width:4; stroke-opacity:1; fill:none" points="156.598,1486.45 2352.76,1486.45 "/>
<polyline clip-path="url(#clip320)" style="stroke:#000000; stroke-linecap:round; stroke-linejoin:round; stroke-width:4; stroke-opacity:1; fill:none" points="504.355,1486.45 504.355,1467.55 "/>
<polyline clip-path="url(#clip320)" style="stroke:#000000; stroke-linecap:round; stroke-linejoin:round; stroke-width:4; stroke-opacity:1; fill:none" points="966.752,1486.45 966.752,1467.55 "/>
<polyline clip-path="url(#clip320)" style="stroke:#000000; stroke-linecap:round; stroke-linejoin:round; stroke-width:4; stroke-opacity:1; fill:none" points="1429.15,1486.45 1429.15,1467.55 "/>
<polyline clip-path="url(#clip320)" style="stroke:#000000; stroke-linecap:round; stroke-linejoin:round; stroke-width:4; stroke-opacity:1; fill:none" points="1891.55,1486.45 1891.55,1467.55 "/>
<path clip-path="url(#clip320)" d="M450.64 1532.02 L480.316 1532.02 L480.316 1535.95 L450.64 1535.95 L450.64 1532.02 Z" fill="#000000" fill-rule="nonzero" fill-opacity="1" /><path clip-path="url(#clip320)" d="M500.408 1517.37 Q496.797 1517.37 494.968 1520.93 Q493.163 1524.47 493.163 1531.6 Q493.163 1538.71 494.968 1542.27 Q496.797 1545.82 500.408 1545.82 Q504.042 1545.82 505.848 1542.27 Q507.677 1538.71 507.677 1531.6 Q507.677 1524.47 505.848 1520.93 Q504.042 1517.37 500.408 1517.37 M500.408 1513.66 Q506.218 1513.66 509.274 1518.27 Q512.352 1522.85 512.352 1531.6 Q512.352 1540.33 509.274 1544.94 Q506.218 1549.52 500.408 1549.52 Q494.598 1549.52 491.519 1544.94 Q488.464 1540.33 488.464 1531.6 Q488.464 1522.85 491.519 1518.27 Q494.598 1513.66 500.408 1513.66 Z" fill="#000000" fill-rule="nonzero" fill-opacity="1" /><path clip-path="url(#clip320)" d="M520.57 1542.97 L525.454 1542.97 L525.454 1548.85 L520.57 1548.85 L520.57 1542.97 Z" fill="#000000" fill-rule="nonzero" fill-opacity="1" /><path clip-path="url(#clip320)" d="M548.487 1518.36 L536.681 1536.81 L548.487 1536.81 L548.487 1518.36 M547.26 1514.29 L553.139 1514.29 L553.139 1536.81 L558.07 1536.81 L558.07 1540.7 L553.139 1540.7 L553.139 1548.85 L548.487 1548.85 L548.487 1540.7 L532.885 1540.7 L532.885 1536.19 L547.26 1514.29 Z" fill="#000000" fill-rule="nonzero" fill-opacity="1" /><path clip-path="url(#clip320)" d="M914.078 1532.02 L943.754 1532.02 L943.754 1535.95 L914.078 1535.95 L914.078 1532.02 Z" fill="#000000" fill-rule="nonzero" fill-opacity="1" /><path clip-path="url(#clip320)" d="M963.847 1517.37 Q960.235 1517.37 958.407 1520.93 Q956.601 1524.47 956.601 1531.6 Q956.601 1538.71 958.407 1542.27 Q960.235 1545.82 963.847 1545.82 Q967.481 1545.82 969.286 1542.27 Q971.115 1538.71 971.115 1531.6 Q971.115 1524.47 969.286 1520.93 Q967.481 1517.37 963.847 1517.37 M963.847 1513.66 Q969.657 1513.66 972.712 1518.27 Q975.791 1522.85 975.791 1531.6 Q975.791 1540.33 972.712 1544.94 Q969.657 1549.52 963.847 1549.52 Q958.036 1549.52 954.958 1544.94 Q951.902 1540.33 951.902 1531.6 Q951.902 1522.85 954.958 1518.27 Q958.036 1513.66 963.847 1513.66 Z" fill="#000000" fill-rule="nonzero" fill-opacity="1" /><path clip-path="url(#clip320)" d="M984.009 1542.97 L988.893 1542.97 L988.893 1548.85 L984.009 1548.85 L984.009 1542.97 Z" fill="#000000" fill-rule="nonzero" fill-opacity="1" /><path clip-path="url(#clip320)" d="M1003.11 1544.91 L1019.42 1544.91 L1019.42 1548.85 L997.481 1548.85 L997.481 1544.91 Q1000.14 1542.16 1004.73 1537.53 Q1009.33 1532.88 1010.51 1531.53 Q1012.76 1529.01 1013.64 1527.27 Q1014.54 1525.51 1014.54 1523.82 Q1014.54 1521.07 1012.6 1519.33 Q1010.68 1517.6 1007.57 1517.6 Q1005.37 1517.6 1002.92 1518.36 Q1000.49 1519.13 997.712 1520.68 L997.712 1515.95 Q1000.54 1514.82 1002.99 1514.24 Q1005.44 1513.66 1007.48 1513.66 Q1012.85 1513.66 1016.05 1516.35 Q1019.24 1519.03 1019.24 1523.52 Q1019.24 1525.65 1018.43 1527.57 Q1017.64 1529.47 1015.54 1532.07 Q1014.96 1532.74 1011.86 1535.95 Q1008.75 1539.15 1003.11 1544.91 Z" fill="#000000" fill-rule="nonzero" fill-opacity="1" /><path clip-path="url(#clip320)" d="M1406.53 1517.37 Q1402.92 1517.37 1401.09 1520.93 Q1399.29 1524.47 1399.29 1531.6 Q1399.29 1538.71 1401.09 1542.27 Q1402.92 1545.82 1406.53 1545.82 Q1410.17 1545.82 1411.97 1542.27 Q1413.8 1538.71 1413.8 1531.6 Q1413.8 1524.47 1411.97 1520.93 Q1410.17 1517.37 1406.53 1517.37 M1406.53 1513.66 Q1412.34 1513.66 1415.4 1518.27 Q1418.48 1522.85 1418.48 1531.6 Q1418.48 1540.33 1415.4 1544.94 Q1412.34 1549.52 1406.53 1549.52 Q1400.72 1549.52 1397.64 1544.94 Q1394.59 1540.33 1394.59 1531.6 Q1394.59 1522.85 1397.64 1518.27 Q1400.72 1513.66 1406.53 1513.66 Z" fill="#000000" fill-rule="nonzero" fill-opacity="1" /><path clip-path="url(#clip320)" d="M1426.69 1542.97 L1431.58 1542.97 L1431.58 1548.85 L1426.69 1548.85 L1426.69 1542.97 Z" fill="#000000" fill-rule="nonzero" fill-opacity="1" /><path clip-path="url(#clip320)" d="M1451.76 1517.37 Q1448.15 1517.37 1446.32 1520.93 Q1444.52 1524.47 1444.52 1531.6 Q1444.52 1538.71 1446.32 1542.27 Q1448.15 1545.82 1451.76 1545.82 Q1455.4 1545.82 1457.2 1542.27 Q1459.03 1538.71 1459.03 1531.6 Q1459.03 1524.47 1457.2 1520.93 Q1455.4 1517.37 1451.76 1517.37 M1451.76 1513.66 Q1457.57 1513.66 1460.63 1518.27 Q1463.71 1522.85 1463.71 1531.6 Q1463.71 1540.33 1460.63 1544.94 Q1457.57 1549.52 1451.76 1549.52 Q1445.95 1549.52 1442.88 1544.94 Q1439.82 1540.33 1439.82 1531.6 Q1439.82 1522.85 1442.88 1518.27 Q1445.95 1513.66 1451.76 1513.66 Z" fill="#000000" fill-rule="nonzero" fill-opacity="1" /><path clip-path="url(#clip320)" d="M1869.73 1517.37 Q1866.12 1517.37 1864.29 1520.93 Q1862.48 1524.47 1862.48 1531.6 Q1862.48 1538.71 1864.29 1542.27 Q1866.12 1545.82 1869.73 1545.82 Q1873.36 1545.82 1875.17 1542.27 Q1877 1538.71 1877 1531.6 Q1877 1524.47 1875.17 1520.93 Q1873.36 1517.37 1869.73 1517.37 M1869.73 1513.66 Q1875.54 1513.66 1878.59 1518.27 Q1881.67 1522.85 1881.67 1531.6 Q1881.67 1540.33 1878.59 1544.94 Q1875.54 1549.52 1869.73 1549.52 Q1863.92 1549.52 1860.84 1544.94 Q1857.78 1540.33 1857.78 1531.6 Q1857.78 1522.85 1860.84 1518.27 Q1863.92 1513.66 1869.73 1513.66 Z" fill="#000000" fill-rule="nonzero" fill-opacity="1" /><path clip-path="url(#clip320)" d="M1889.89 1542.97 L1894.77 1542.97 L1894.77 1548.85 L1889.89 1548.85 L1889.89 1542.97 Z" fill="#000000" fill-rule="nonzero" fill-opacity="1" /><path clip-path="url(#clip320)" d="M1908.99 1544.91 L1925.31 1544.91 L1925.31 1548.85 L1903.36 1548.85 L1903.36 1544.91 Q1906.02 1542.16 1910.61 1537.53 Q1915.21 1532.88 1916.39 1531.53 Q1918.64 1529.01 1919.52 1527.27 Q1920.42 1525.51 1920.42 1523.82 Q1920.42 1521.07 1918.48 1519.33 Q1916.56 1517.6 1913.45 1517.6 Q1911.26 1517.6 1908.8 1518.36 Q1906.37 1519.13 1903.59 1520.68 L1903.59 1515.95 Q1906.42 1514.82 1908.87 1514.24 Q1911.33 1513.66 1913.36 1513.66 Q1918.73 1513.66 1921.93 1516.35 Q1925.12 1519.03 1925.12 1523.52 Q1925.12 1525.65 1924.31 1527.57 Q1923.52 1529.47 1921.42 1532.07 Q1920.84 1532.74 1917.74 1535.95 Q1914.64 1539.15 1908.99 1544.91 Z" fill="#000000" fill-rule="nonzero" fill-opacity="1" /><polyline clip-path="url(#clip320)" style="stroke:#000000; stroke-linecap:round; stroke-linejoin:round; stroke-width:4; stroke-opacity:1; fill:none" points="156.598,1486.45 156.598,47.2441 "/>
<polyline clip-path="url(#clip320)" style="stroke:#000000; stroke-linecap:round; stroke-linejoin:round; stroke-width:4; stroke-opacity:1; fill:none" points="156.598,1449.2 175.496,1449.2 "/>
<polyline clip-path="url(#clip320)" style="stroke:#000000; stroke-linecap:round; stroke-linejoin:round; stroke-width:4; stroke-opacity:1; fill:none" points="156.598,1224.22 175.496,1224.22 "/>
<polyline clip-path="url(#clip320)" style="stroke:#000000; stroke-linecap:round; stroke-linejoin:round; stroke-width:4; stroke-opacity:1; fill:none" points="156.598,999.244 175.496,999.244 "/>
<polyline clip-path="url(#clip320)" style="stroke:#000000; stroke-linecap:round; stroke-linejoin:round; stroke-width:4; stroke-opacity:1; fill:none" points="156.598,774.265 175.496,774.265 "/>
<polyline clip-path="url(#clip320)" style="stroke:#000000; stroke-linecap:round; stroke-linejoin:round; stroke-width:4; stroke-opacity:1; fill:none" points="156.598,549.286 175.496,549.286 "/>
<polyline clip-path="url(#clip320)" style="stroke:#000000; stroke-linecap:round; stroke-linejoin:round; stroke-width:4; stroke-opacity:1; fill:none" points="156.598,324.306 175.496,324.306 "/>
<polyline clip-path="url(#clip320)" style="stroke:#000000; stroke-linecap:round; stroke-linejoin:round; stroke-width:4; stroke-opacity:1; fill:none" points="156.598,99.3268 175.496,99.3268 "/>
<path clip-path="url(#clip320)" d="M63.4226 1435 Q59.8115 1435 57.9828 1438.57 Q56.1773 1442.11 56.1773 1449.24 Q56.1773 1456.34 57.9828 1459.91 Q59.8115 1463.45 63.4226 1463.45 Q67.0569 1463.45 68.8624 1459.91 Q70.6911 1456.34 70.6911 1449.24 Q70.6911 1442.11 68.8624 1438.57 Q67.0569 1435 63.4226 1435 M63.4226 1431.3 Q69.2328 1431.3 72.2883 1435.9 Q75.367 1440.49 75.367 1449.24 Q75.367 1457.96 72.2883 1462.57 Q69.2328 1467.15 63.4226 1467.15 Q57.6125 1467.15 54.5338 1462.57 Q51.4782 1457.96 51.4782 1449.24 Q51.4782 1440.49 54.5338 1435.9 Q57.6125 1431.3 63.4226 1431.3 Z" fill="#000000" fill-rule="nonzero" fill-opacity="1" /><path clip-path="url(#clip320)" d="M83.5845 1460.6 L88.4688 1460.6 L88.4688 1466.48 L83.5845 1466.48 L83.5845 1460.6 Z" fill="#000000" fill-rule="nonzero" fill-opacity="1" /><path clip-path="url(#clip320)" d="M108.654 1435 Q105.043 1435 103.214 1438.57 Q101.409 1442.11 101.409 1449.24 Q101.409 1456.34 103.214 1459.91 Q105.043 1463.45 108.654 1463.45 Q112.288 1463.45 114.094 1459.91 Q115.922 1456.34 115.922 1449.24 Q115.922 1442.11 114.094 1438.57 Q112.288 1435 108.654 1435 M108.654 1431.3 Q114.464 1431.3 117.52 1435.9 Q120.598 1440.49 120.598 1449.24 Q120.598 1457.96 117.52 1462.57 Q114.464 1467.15 108.654 1467.15 Q102.844 1467.15 99.765 1462.57 Q96.7095 1457.96 96.7095 1449.24 Q96.7095 1440.49 99.765 1435.9 Q102.844 1431.3 108.654 1431.3 Z" fill="#000000" fill-rule="nonzero" fill-opacity="1" /><path clip-path="url(#clip320)" d="M64.6495 1210.02 Q61.0384 1210.02 59.2097 1213.59 Q57.4041 1217.13 57.4041 1224.26 Q57.4041 1231.37 59.2097 1234.93 Q61.0384 1238.47 64.6495 1238.47 Q68.2837 1238.47 70.0892 1234.93 Q71.9179 1231.37 71.9179 1224.26 Q71.9179 1217.13 70.0892 1213.59 Q68.2837 1210.02 64.6495 1210.02 M64.6495 1206.32 Q70.4596 1206.32 73.5152 1210.93 Q76.5938 1215.51 76.5938 1224.26 Q76.5938 1232.99 73.5152 1237.59 Q70.4596 1242.18 64.6495 1242.18 Q58.8393 1242.18 55.7606 1237.59 Q52.7051 1232.99 52.7051 1224.26 Q52.7051 1215.51 55.7606 1210.93 Q58.8393 1206.32 64.6495 1206.32 Z" fill="#000000" fill-rule="nonzero" fill-opacity="1" /><path clip-path="url(#clip320)" d="M84.8114 1235.62 L89.6956 1235.62 L89.6956 1241.5 L84.8114 1241.5 L84.8114 1235.62 Z" fill="#000000" fill-rule="nonzero" fill-opacity="1" /><path clip-path="url(#clip320)" d="M100.691 1237.57 L108.33 1237.57 L108.33 1211.2 L100.02 1212.87 L100.02 1208.61 L108.283 1206.94 L112.959 1206.94 L112.959 1237.57 L120.598 1237.57 L120.598 1241.5 L100.691 1241.5 L100.691 1237.57 Z" fill="#000000" fill-rule="nonzero" fill-opacity="1" /><path clip-path="url(#clip320)" d="M65.0198 985.043 Q61.4087 985.043 59.58 988.608 Q57.7745 992.15 57.7745 999.279 Q57.7745 1006.39 59.58 1009.95 Q61.4087 1013.49 65.0198 1013.49 Q68.6541 1013.49 70.4596 1009.95 Q72.2883 1006.39 72.2883 999.279 Q72.2883 992.15 70.4596 988.608 Q68.6541 985.043 65.0198 985.043 M65.0198 981.339 Q70.83 981.339 73.8855 985.946 Q76.9642 990.529 76.9642 999.279 Q76.9642 1008.01 73.8855 1012.61 Q70.83 1017.2 65.0198 1017.2 Q59.2097 1017.2 56.131 1012.61 Q53.0754 1008.01 53.0754 999.279 Q53.0754 990.529 56.131 985.946 Q59.2097 981.339 65.0198 981.339 Z" fill="#000000" fill-rule="nonzero" fill-opacity="1" /><path clip-path="url(#clip320)" d="M85.1818 1010.64 L90.066 1010.64 L90.066 1016.52 L85.1818 1016.52 L85.1818 1010.64 Z" fill="#000000" fill-rule="nonzero" fill-opacity="1" /><path clip-path="url(#clip320)" d="M104.279 1012.59 L120.598 1012.59 L120.598 1016.52 L98.6539 1016.52 L98.6539 1012.59 Q101.316 1009.83 105.899 1005.21 Q110.506 1000.55 111.686 999.21 Q113.932 996.687 114.811 994.951 Q115.714 993.191 115.714 991.501 Q115.714 988.747 113.77 987.011 Q111.848 985.275 108.746 985.275 Q106.547 985.275 104.094 986.039 Q101.663 986.802 98.8854 988.353 L98.8854 983.631 Q101.709 982.497 104.163 981.918 Q106.617 981.339 108.654 981.339 Q114.024 981.339 117.219 984.025 Q120.413 986.71 120.413 991.201 Q120.413 993.33 119.603 995.251 Q118.816 997.15 116.709 999.742 Q116.131 1000.41 113.029 1003.63 Q109.927 1006.83 104.279 1012.59 Z" fill="#000000" fill-rule="nonzero" fill-opacity="1" /><path clip-path="url(#clip320)" d="M64.0708 760.064 Q60.4597 760.064 58.631 763.629 Q56.8254 767.17 56.8254 774.3 Q56.8254 781.406 58.631 784.971 Q60.4597 788.513 64.0708 788.513 Q67.705 788.513 69.5105 784.971 Q71.3392 781.406 71.3392 774.3 Q71.3392 767.17 69.5105 763.629 Q67.705 760.064 64.0708 760.064 M64.0708 756.36 Q69.8809 756.36 72.9365 760.967 Q76.0151 765.55 76.0151 774.3 Q76.0151 783.027 72.9365 787.633 Q69.8809 792.216 64.0708 792.216 Q58.2606 792.216 55.1819 787.633 Q52.1264 783.027 52.1264 774.3 Q52.1264 765.55 55.1819 760.967 Q58.2606 756.36 64.0708 756.36 Z" fill="#000000" fill-rule="nonzero" fill-opacity="1" /><path clip-path="url(#clip320)" d="M84.2327 785.665 L89.1169 785.665 L89.1169 791.545 L84.2327 791.545 L84.2327 785.665 Z" fill="#000000" fill-rule="nonzero" fill-opacity="1" /><path clip-path="url(#clip320)" d="M113.469 772.911 Q116.825 773.628 118.7 775.897 Q120.598 778.165 120.598 781.499 Q120.598 786.615 117.08 789.415 Q113.561 792.216 107.08 792.216 Q104.904 792.216 102.589 791.777 Q100.297 791.36 97.8437 790.503 L97.8437 785.99 Q99.7882 787.124 102.103 787.702 Q104.418 788.281 106.941 788.281 Q111.339 788.281 113.631 786.545 Q115.945 784.809 115.945 781.499 Q115.945 778.443 113.793 776.73 Q111.663 774.994 107.844 774.994 L103.816 774.994 L103.816 771.152 L108.029 771.152 Q111.478 771.152 113.307 769.786 Q115.135 768.397 115.135 765.804 Q115.135 763.142 113.237 761.73 Q111.362 760.295 107.844 760.295 Q105.922 760.295 103.723 760.712 Q101.524 761.129 98.8854 762.008 L98.8854 757.842 Q101.547 757.101 103.862 756.73 Q106.2 756.36 108.26 756.36 Q113.584 756.36 116.686 758.791 Q119.788 761.198 119.788 765.318 Q119.788 768.189 118.145 770.179 Q116.501 772.147 113.469 772.911 Z" fill="#000000" fill-rule="nonzero" fill-opacity="1" /><path clip-path="url(#clip320)" d="M62.9365 535.084 Q59.3254 535.084 57.4967 538.649 Q55.6912 542.191 55.6912 549.32 Q55.6912 556.427 57.4967 559.992 Q59.3254 563.533 62.9365 563.533 Q66.5707 563.533 68.3763 559.992 Q70.205 556.427 70.205 549.32 Q70.205 542.191 68.3763 538.649 Q66.5707 535.084 62.9365 535.084 M62.9365 531.381 Q68.7467 531.381 71.8022 535.987 Q74.8809 540.57 74.8809 549.32 Q74.8809 558.047 71.8022 562.654 Q68.7467 567.237 62.9365 567.237 Q57.1264 567.237 54.0477 562.654 Q50.9921 558.047 50.9921 549.32 Q50.9921 540.57 54.0477 535.987 Q57.1264 531.381 62.9365 531.381 Z" fill="#000000" fill-rule="nonzero" fill-opacity="1" /><path clip-path="url(#clip320)" d="M83.0984 560.686 L87.9827 560.686 L87.9827 566.566 L83.0984 566.566 L83.0984 560.686 Z" fill="#000000" fill-rule="nonzero" fill-opacity="1" /><path clip-path="url(#clip320)" d="M111.015 536.08 L99.2095 554.529 L111.015 554.529 L111.015 536.08 M109.788 532.006 L115.668 532.006 L115.668 554.529 L120.598 554.529 L120.598 558.418 L115.668 558.418 L115.668 566.566 L111.015 566.566 L111.015 558.418 L95.4132 558.418 L95.4132 553.904 L109.788 532.006 Z" fill="#000000" fill-rule="nonzero" fill-opacity="1" /><path clip-path="url(#clip320)" d="M64.418 310.105 Q60.8069 310.105 58.9782 313.67 Q57.1726 317.211 57.1726 324.341 Q57.1726 331.447 58.9782 335.012 Q60.8069 338.554 64.418 338.554 Q68.0522 338.554 69.8578 335.012 Q71.6865 331.447 71.6865 324.341 Q71.6865 317.211 69.8578 313.67 Q68.0522 310.105 64.418 310.105 M64.418 306.401 Q70.2281 306.401 73.2837 311.008 Q76.3624 315.591 76.3624 324.341 Q76.3624 333.068 73.2837 337.674 Q70.2281 342.258 64.418 342.258 Q58.6078 342.258 55.5291 337.674 Q52.4736 333.068 52.4736 324.341 Q52.4736 315.591 55.5291 311.008 Q58.6078 306.401 64.418 306.401 Z" fill="#000000" fill-rule="nonzero" fill-opacity="1" /><path clip-path="url(#clip320)" d="M84.5799 335.707 L89.4641 335.707 L89.4641 341.586 L84.5799 341.586 L84.5799 335.707 Z" fill="#000000" fill-rule="nonzero" fill-opacity="1" /><path clip-path="url(#clip320)" d="M99.6956 307.026 L118.052 307.026 L118.052 310.961 L103.978 310.961 L103.978 319.434 Q104.996 319.086 106.015 318.924 Q107.033 318.739 108.052 318.739 Q113.839 318.739 117.219 321.91 Q120.598 325.082 120.598 330.498 Q120.598 336.077 117.126 339.179 Q113.654 342.258 107.334 342.258 Q105.159 342.258 102.89 341.887 Q100.645 341.517 98.2372 340.776 L98.2372 336.077 Q100.321 337.211 102.543 337.767 Q104.765 338.322 107.242 338.322 Q111.246 338.322 113.584 336.216 Q115.922 334.109 115.922 330.498 Q115.922 326.887 113.584 324.781 Q111.246 322.674 107.242 322.674 Q105.367 322.674 103.492 323.091 Q101.64 323.508 99.6956 324.387 L99.6956 307.026 Z" fill="#000000" fill-rule="nonzero" fill-opacity="1" /><path clip-path="url(#clip320)" d="M63.2606 85.1255 Q59.6495 85.1255 57.8208 88.6903 Q56.0152 92.2319 56.0152 99.3615 Q56.0152 106.468 57.8208 110.033 Q59.6495 113.574 63.2606 113.574 Q66.8948 113.574 68.7004 110.033 Q70.5291 106.468 70.5291 99.3615 Q70.5291 92.2319 68.7004 88.6903 Q66.8948 85.1255 63.2606 85.1255 M63.2606 81.4218 Q69.0707 81.4218 72.1263 86.0283 Q75.205 90.6116 75.205 99.3615 Q75.205 108.088 72.1263 112.695 Q69.0707 117.278 63.2606 117.278 Q57.4504 117.278 54.3717 112.695 Q51.3162 108.088 51.3162 99.3615 Q51.3162 90.6116 54.3717 86.0283 Q57.4504 81.4218 63.2606 81.4218 Z" fill="#000000" fill-rule="nonzero" fill-opacity="1" /><path clip-path="url(#clip320)" d="M83.4225 110.727 L88.3067 110.727 L88.3067 116.607 L83.4225 116.607 L83.4225 110.727 Z" fill="#000000" fill-rule="nonzero" fill-opacity="1" /><path clip-path="url(#clip320)" d="M109.071 97.4634 Q105.922 97.4634 104.071 99.6162 Q102.242 101.769 102.242 105.519 Q102.242 109.246 104.071 111.422 Q105.922 113.574 109.071 113.574 Q112.219 113.574 114.047 111.422 Q115.899 109.246 115.899 105.519 Q115.899 101.769 114.047 99.6162 Q112.219 97.4634 109.071 97.4634 M118.353 82.8107 L118.353 87.0699 Q116.594 86.2366 114.788 85.7968 Q113.006 85.357 111.246 85.357 Q106.617 85.357 104.163 88.482 Q101.733 91.6069 101.385 97.9263 Q102.751 95.9125 104.811 94.8477 Q106.871 93.7597 109.348 93.7597 Q114.557 93.7597 117.566 96.931 Q120.598 100.079 120.598 105.519 Q120.598 110.843 117.45 114.061 Q114.302 117.278 109.071 117.278 Q103.075 117.278 99.9039 112.695 Q96.7326 108.088 96.7326 99.3615 Q96.7326 91.1671 100.621 86.306 Q104.51 81.4218 111.061 81.4218 Q112.82 81.4218 114.603 81.769 Q116.408 82.1162 118.353 82.8107 Z" fill="#000000" fill-rule="nonzero" fill-opacity="1" /><circle clip-path="url(#clip322)" cx="1424.87" cy="1391.02" r="14.4" fill="#808080" fill-rule="evenodd" fill-opacity="1" stroke="#000000" stroke-opacity="1" stroke-width="3.2"/>
<circle clip-path="url(#clip322)" cx="1401.5" cy="1445.72" r="14.4" fill="#808080" fill-rule="evenodd" fill-opacity="1" stroke="#000000" stroke-opacity="1" stroke-width="3.2"/>
<circle clip-path="url(#clip322)" cx="2290.6" cy="1350.04" r="14.4" fill="#808080" fill-rule="evenodd" fill-opacity="1" stroke="#000000" stroke-opacity="1" stroke-width="3.2"/>
<circle clip-path="url(#clip322)" cx="218.754" cy="87.9763" r="14.4" fill="#808080" fill-rule="evenodd" fill-opacity="1" stroke="#000000" stroke-opacity="1" stroke-width="3.2"/>
<path clip-path="url(#clip320)" d="M1429.17 1398.46 Q1420.13 1398.46 1416.65 1400.52 Q1413.17 1402.59 1413.17 1407.57 Q1413.17 1411.54 1415.76 1413.89 Q1418.39 1416.2 1422.89 1416.2 Q1429.09 1416.2 1432.81 1411.82 Q1436.58 1407.41 1436.58 1400.12 L1436.58 1398.46 L1429.17 1398.46 M1444.03 1395.38 L1444.03 1421.26 L1436.58 1421.26 L1436.58 1414.38 Q1434.03 1418.51 1430.22 1420.49 Q1426.41 1422.44 1420.9 1422.44 Q1413.94 1422.44 1409.8 1418.55 Q1405.71 1414.62 1405.71 1408.06 Q1405.71 1400.4 1410.82 1396.51 Q1415.96 1392.62 1426.13 1392.62 L1436.58 1392.62 L1436.58 1391.89 Q1436.58 1386.75 1433.18 1383.95 Q1429.82 1381.12 1423.7 1381.12 Q1419.81 1381.12 1416.12 1382.05 Q1412.44 1382.98 1409.03 1384.85 L1409.03 1377.96 Q1413.13 1376.38 1416.97 1375.61 Q1420.82 1374.8 1424.47 1374.8 Q1434.31 1374.8 1439.17 1379.9 Q1444.03 1385.01 1444.03 1395.38 Z" fill="#000000" fill-rule="nonzero" fill-opacity="1" /><path clip-path="url(#clip320)" d="M1414.06 1453.31 Q1414.06 1445.09 1410.65 1440.43 Q1407.29 1435.73 1401.38 1435.73 Q1395.46 1435.73 1392.06 1440.43 Q1388.7 1445.09 1388.7 1453.31 Q1388.7 1461.53 1392.06 1466.23 Q1395.46 1470.89 1401.38 1470.89 Q1407.29 1470.89 1410.65 1466.23 Q1414.06 1461.53 1414.06 1453.31 M1388.7 1437.47 Q1391.05 1433.42 1394.61 1431.48 Q1398.22 1429.49 1403.2 1429.49 Q1411.46 1429.49 1416.61 1436.05 Q1421.79 1442.62 1421.79 1453.31 Q1421.79 1464.01 1416.61 1470.57 Q1411.46 1477.13 1403.2 1477.13 Q1398.22 1477.13 1394.61 1475.19 Q1391.05 1473.2 1388.7 1469.15 L1388.7 1475.96 L1381.2 1475.96 L1381.2 1412.92 L1388.7 1412.92 L1388.7 1437.47 Z" fill="#000000" fill-rule="nonzero" fill-opacity="1" /><path clip-path="url(#clip320)" d="M2308.55 1336.65 L2308.55 1343.62 Q2305.39 1341.88 2302.19 1341.02 Q2299.03 1340.13 2295.79 1340.13 Q2288.53 1340.13 2284.52 1344.75 Q2280.51 1349.33 2280.51 1357.63 Q2280.51 1365.94 2284.52 1370.56 Q2288.53 1375.13 2295.79 1375.13 Q2299.03 1375.13 2302.19 1374.28 Q2305.39 1373.39 2308.55 1371.65 L2308.55 1378.54 Q2305.43 1379.99 2302.06 1380.72 Q2298.74 1381.45 2294.98 1381.45 Q2284.73 1381.45 2278.69 1375.01 Q2272.65 1368.57 2272.65 1357.63 Q2272.65 1346.53 2278.73 1340.17 Q2284.85 1333.81 2295.46 1333.81 Q2298.9 1333.81 2302.19 1334.54 Q2305.47 1335.23 2308.55 1336.65 Z" fill="#000000" fill-rule="nonzero" fill-opacity="1" /><path clip-path="url(#clip320)" d="M231.575 79.7327 L231.575 55.1842 L239.028 55.1842 L239.028 118.216 L231.575 118.216 L231.575 111.411 Q229.225 115.462 225.62 117.447 Q222.055 119.391 217.032 119.391 Q208.809 119.391 203.624 112.829 Q198.479 106.266 198.479 95.5717 Q198.479 84.8773 203.624 78.3149 Q208.809 71.7524 217.032 71.7524 Q222.055 71.7524 225.62 73.7373 Q229.225 75.6818 231.575 79.7327 M206.176 95.5717 Q206.176 103.795 209.538 108.494 Q212.941 113.153 218.855 113.153 Q224.769 113.153 228.172 108.494 Q231.575 103.795 231.575 95.5717 Q231.575 87.3484 228.172 82.6898 Q224.769 77.9908 218.855 77.9908 Q212.941 77.9908 209.538 82.6898 Q206.176 87.3484 206.176 95.5717 Z" fill="#000000" fill-rule="nonzero" fill-opacity="1" /><path clip-path="url(#clip320)" d="M2007.5 198.898 L2279.55 198.898 L2279.55 95.2176 L2007.5 95.2176  Z" fill="#ffffff" fill-rule="evenodd" fill-opacity="1"/>
<polyline clip-path="url(#clip320)" style="stroke:#000000; stroke-linecap:round; stroke-linejoin:round; stroke-width:4; stroke-opacity:1; fill:none" points="2007.5,198.898 2279.55,198.898 2279.55,95.2176 2007.5,95.2176 2007.5,198.898 "/>
<circle clip-path="url(#clip320)" cx="2105.11" cy="147.058" r="20.48" fill="#808080" fill-rule="evenodd" fill-opacity="1" stroke="#000000" stroke-opacity="1" stroke-width="4.55111"/>
<path clip-path="url(#clip320)" d="M2216.56 166.745 Q2214.76 171.375 2213.04 172.787 Q2211.33 174.199 2208.46 174.199 L2205.06 174.199 L2205.06 170.634 L2207.56 170.634 Q2209.32 170.634 2210.29 169.8 Q2211.26 168.967 2212.44 165.865 L2213.2 163.921 L2202.72 138.412 L2207.23 138.412 L2215.33 158.689 L2223.44 138.412 L2227.95 138.412 L2216.56 166.745 Z" fill="#000000" fill-rule="nonzero" fill-opacity="1" /><path clip-path="url(#clip320)" d="M2235.24 160.402 L2242.88 160.402 L2242.88 134.037 L2234.57 135.703 L2234.57 131.444 L2242.83 129.778 L2247.51 129.778 L2247.51 160.402 L2255.15 160.402 L2255.15 164.338 L2235.24 164.338 L2235.24 160.402 Z" fill="#000000" fill-rule="nonzero" fill-opacity="1" /></svg>
