<?xml version="1.0" encoding="utf-8"?>
<svg xmlns="http://www.w3.org/2000/svg" xmlns:xlink="http://www.w3.org/1999/xlink" width="600" height="400" viewBox="0 0 2400 1600">
<defs>
  <clipPath id="clip730">
    <rect x="0" y="0" width="2400" height="1600"/>
  </clipPath>
</defs>
<path clip-path="url(#clip730)" d="M0 1600 L2400 1600 L2400 0 L0 0  Z" fill="#ffffff" fill-rule="evenodd" fill-opacity="1"/>
<defs>
  <clipPath id="clip731">
    <rect x="480" y="0" width="1681" height="1600"/>
  </clipPath>
</defs>
<path clip-path="url(#clip730)" d="M112.177 1486.45 L2352.76 1486.45 L2352.76 47.2441 L112.177 47.2441  Z" fill="#ffffff" fill-rule="evenodd" fill-opacity="1"/>
<defs>
  <clipPath id="clip732">
    <rect x="112" y="47" width="2242" height="1440"/>
  </clipPath>
</defs>
<polyline clip-path="url(#clip732)" style="stroke:#000000; stroke-linecap:round; stroke-linejoin:round; stroke-width:2; stroke-opacity:0.1; fill:none" points="550.272,1486.45 550.272,47.2441 "/>
<polyline clip-path="url(#clip732)" style="stroke:#000000; stroke-linecap:round; stroke-linejoin:round; stroke-width:2; stroke-opacity:0.1; fill:none" points="1049.32,1486.45 1049.32,47.2441 "/>
<polyline clip-path="url(#clip732)" style="stroke:#000000; stroke-linecap:round; stroke-linejoin:round; stroke-width:2; stroke-opacity:0.1; fill:none" points="1548.37,1486.45 1548.37,47.2441 "/>
<polyline clip-path="url(#clip732)" style="stroke:#000000; stroke-linecap:round; stroke-linejoin:round; stroke-width:2; stroke-opacity:0.1; fill:none" points="2047.42,1486.45 2047.42,47.2441 "/>
<polyline clip-path="url(#clip732)" style="stroke:#000000; stroke-linecap:round; stroke-linejoin:round; stroke-width:2; stroke-opacity:0.1; fill:none" points="112.177,1232.28 2352.76,1232.28 "/>
<polyline clip-path="url(#clip732)" style="stroke:#000000; stroke-linecap:round; stroke-linejoin:round; stroke-width:2; stroke-opacity:0.1; fill:none" points="112.177,942.44 2352.76,942.44 "/>
<polyline clip-path="url(#clip732)" style="stroke:#000000; stroke-linecap:round; stroke-linejoin:round; stroke-width:2; stroke-opacity:0.1; fill:none" points="112.177,652.601 2352.76,652.601 "/>
<polyline clip-path="url(#clip732)" style="stroke:#000000; stroke-linecap:round; stroke-linejoin:round; stroke-width:2; stroke-opacity:0.1; fill:none" points="112.177,362.763 2352.76,362.763 "/>
<polyline clip-path="url(#clip732)" style="stroke:#000000; stroke-linecap:round; stroke-linejoin:round; stroke-width:2; stroke-opacity:0.1; fill:none" points="112.177,72.9243 2352.76,72.9243 "/>
<polyline clip-path="url(#clip730)" style="stroke:#000000; stroke-linecap:round; stroke-linejoin:round; stroke-width:4; stroke-opacity:1; fill:none" points="112.177,1486.45 2352.76,1486.45 "/>
<polyline clip-path="url(#clip730)" style="stroke:#000000; stroke-linecap:round; stroke-linejoin:round; stroke-width:4; stroke-opacity:1; fill:none" points="550.272,1486.45 550.272,1467.55 "/>
<polyline clip-path="url(#clip730)" style="stroke:#000000; stroke-linecap:round; stroke-linejoin:round; stroke-width:4; stroke-opacity:1; fill:none" points="1049.32,1486.45 1049.32,1467.55 "/>
<polyline clip-path="url(#clip730)" style="stroke:#000000; stroke-linecap:round; stroke-linejoin:round; stroke-width:4; stroke-opacity:1; fill:none" points="1548.37,1486.45 1548.37,1467.55 "/>
<polyline clip-path="url(#clip730)" style="stroke:#000000; stroke-linecap:round; stroke-linejoin:round; stroke-width:4; stroke-opacity:1; fill:none" points="2047.42,1486.45 2047.42,1467.55 "/>
<path clip-path="url(#clip730)" d="M496.8 1532.02 L526.475 1532.02 L526.475 1535.95 L496.8 1535.95 L496.8 1532.02 Z" fill="#000000" fill-rule="nonzero" fill-opacity="1" /><path clip-path="url(#clip730)" d="M537.378 1544.91 L545.017 1544.91 L545.017 1518.55 L536.707 1520.21 L536.707 1515.95 L544.971 1514.29 L549.647 1514.29 L549.647 1544.91 L557.285 1544.91 L557.285 1548.85 L537.378 1548.85 L537.378 1544.91 Z" fill="#000000" fill-rule="nonzero" fill-opacity="1" /><path clip-path="url(#clip730)" d="M566.73 1542.97 L571.614 1542.97 L571.614 1548.85 L566.73 1548.85 L566.73 1542.97 Z" fill="#000000" fill-rule="nonzero" fill-opacity="1" /><path clip-path="url(#clip730)" d="M591.799 1517.37 Q588.188 1517.37 586.359 1520.93 Q584.554 1524.47 584.554 1531.6 Q584.554 1538.71 586.359 1542.27 Q588.188 1545.82 591.799 1545.82 Q595.433 1545.82 597.239 1542.27 Q599.068 1538.71 599.068 1531.6 Q599.068 1524.47 597.239 1520.93 Q595.433 1517.37 591.799 1517.37 M591.799 1513.66 Q597.609 1513.66 600.665 1518.27 Q603.743 1522.85 603.743 1531.6 Q603.743 1540.33 600.665 1544.94 Q597.609 1549.52 591.799 1549.52 Q585.989 1549.52 582.91 1544.94 Q579.855 1540.33 579.855 1531.6 Q579.855 1522.85 582.91 1518.27 Q585.989 1513.66 591.799 1513.66 Z" fill="#000000" fill-rule="nonzero" fill-opacity="1" /><path clip-path="url(#clip730)" d="M996.346 1532.02 L1026.02 1532.02 L1026.02 1535.95 L996.346 1535.95 L996.346 1532.02 Z" fill="#000000" fill-rule="nonzero" fill-opacity="1" /><path clip-path="url(#clip730)" d="M1046.11 1517.37 Q1042.5 1517.37 1040.67 1520.93 Q1038.87 1524.47 1038.87 1531.6 Q1038.87 1538.71 1040.67 1542.27 Q1042.5 1545.82 1046.11 1545.82 Q1049.75 1545.82 1051.55 1542.27 Q1053.38 1538.71 1053.38 1531.6 Q1053.38 1524.47 1051.55 1520.93 Q1049.75 1517.37 1046.11 1517.37 M1046.11 1513.66 Q1051.92 1513.66 1054.98 1518.27 Q1058.06 1522.85 1058.06 1531.6 Q1058.06 1540.33 1054.98 1544.94 Q1051.92 1549.52 1046.11 1549.52 Q1040.3 1549.52 1037.23 1544.94 Q1034.17 1540.33 1034.17 1531.6 Q1034.17 1522.85 1037.23 1518.27 Q1040.3 1513.66 1046.11 1513.66 Z" fill="#000000" fill-rule="nonzero" fill-opacity="1" /><path clip-path="url(#clip730)" d="M1066.28 1542.97 L1071.16 1542.97 L1071.16 1548.85 L1066.28 1548.85 L1066.28 1542.97 Z" fill="#000000" fill-rule="nonzero" fill-opacity="1" /><path clip-path="url(#clip730)" d="M1081.39 1514.29 L1099.75 1514.29 L1099.75 1518.22 L1085.67 1518.22 L1085.67 1526.7 Q1086.69 1526.35 1087.71 1526.19 Q1088.73 1526 1089.75 1526 Q1095.54 1526 1098.92 1529.17 Q1102.29 1532.34 1102.29 1537.76 Q1102.29 1543.34 1098.82 1546.44 Q1095.35 1549.52 1089.03 1549.52 Q1086.86 1549.52 1084.59 1549.15 Q1082.34 1548.78 1079.93 1548.04 L1079.93 1543.34 Q1082.02 1544.47 1084.24 1545.03 Q1086.46 1545.58 1088.94 1545.58 Q1092.94 1545.58 1095.28 1543.48 Q1097.62 1541.37 1097.62 1537.76 Q1097.62 1534.15 1095.28 1532.04 Q1092.94 1529.94 1088.94 1529.94 Q1087.06 1529.94 1085.19 1530.35 Q1083.34 1530.77 1081.39 1531.65 L1081.39 1514.29 Z" fill="#000000" fill-rule="nonzero" fill-opacity="1" /><path clip-path="url(#clip730)" d="M1525.75 1517.37 Q1522.14 1517.37 1520.31 1520.93 Q1518.51 1524.47 1518.51 1531.6 Q1518.51 1538.71 1520.31 1542.27 Q1522.14 1545.82 1525.75 1545.82 Q1529.39 1545.82 1531.19 1542.27 Q1533.02 1538.71 1533.02 1531.6 Q1533.02 1524.47 1531.19 1520.93 Q1529.39 1517.37 1525.75 1517.37 M1525.75 1513.66 Q1531.56 1513.66 1534.62 1518.27 Q1537.7 1522.85 1537.7 1531.6 Q1537.7 1540.33 1534.62 1544.94 Q1531.56 1549.52 1525.75 1549.52 Q1519.94 1549.52 1516.86 1544.94 Q1513.81 1540.33 1513.81 1531.6 Q1513.81 1522.85 1516.86 1518.27 Q1519.94 1513.66 1525.75 1513.66 Z" fill="#000000" fill-rule="nonzero" fill-opacity="1" /><path clip-path="url(#clip730)" d="M1545.92 1542.97 L1550.8 1542.97 L1550.8 1548.85 L1545.92 1548.85 L1545.92 1542.97 Z" fill="#000000" fill-rule="nonzero" fill-opacity="1" /><path clip-path="url(#clip730)" d="M1570.99 1517.37 Q1567.37 1517.37 1565.55 1520.93 Q1563.74 1524.47 1563.74 1531.6 Q1563.74 1538.71 1565.55 1542.27 Q1567.37 1545.82 1570.99 1545.82 Q1574.62 1545.82 1576.42 1542.27 Q1578.25 1538.71 1578.25 1531.6 Q1578.25 1524.47 1576.42 1520.93 Q1574.62 1517.37 1570.99 1517.37 M1570.99 1513.66 Q1576.8 1513.66 1579.85 1518.27 Q1582.93 1522.85 1582.93 1531.6 Q1582.93 1540.33 1579.85 1544.94 Q1576.8 1549.52 1570.99 1549.52 Q1565.17 1549.52 1562.1 1544.94 Q1559.04 1540.33 1559.04 1531.6 Q1559.04 1522.85 1562.1 1518.27 Q1565.17 1513.66 1570.99 1513.66 Z" fill="#000000" fill-rule="nonzero" fill-opacity="1" /><path clip-path="url(#clip730)" d="M2025.3 1517.37 Q2021.69 1517.37 2019.86 1520.93 Q2018.06 1524.47 2018.06 1531.6 Q2018.06 1538.71 2019.86 1542.27 Q2021.69 1545.82 2025.3 1545.82 Q2028.93 1545.82 2030.74 1542.27 Q2032.57 1538.71 2032.57 1531.6 Q2032.57 1524.47 2030.74 1520.93 Q2028.93 1517.37 2025.3 1517.37 M2025.3 1513.66 Q2031.11 1513.66 2034.17 1518.27 Q2037.24 1522.85 2037.24 1531.6 Q2037.24 1540.33 2034.17 1544.94 Q2031.11 1549.52 2025.3 1549.52 Q2019.49 1549.52 2016.41 1544.94 Q2013.36 1540.33 2013.36 1531.6 Q2013.36 1522.85 2016.41 1518.27 Q2019.49 1513.66 2025.3 1513.66 Z" fill="#000000" fill-rule="nonzero" fill-opacity="1" /><path clip-path="url(#clip730)" d="M2045.46 1542.97 L2050.35 1542.97 L2050.35 1548.85 L2045.46 1548.85 L2045.46 1542.97 Z" fill="#000000" fill-rule="nonzero" fill-opacity="1" /><path clip-path="url(#clip730)" d="M2060.58 1514.29 L2078.93 1514.29 L2078.93 1518.22 L2064.86 1518.22 L2064.86 1526.7 Q2065.88 1526.35 2066.9 1526.19 Q2067.92 1526 2068.93 1526 Q2074.72 1526 2078.1 1529.17 Q2081.48 1532.34 2081.48 1537.76 Q2081.48 1543.34 2078.01 1546.44 Q2074.54 1549.52 2068.22 1549.52 Q2066.04 1549.52 2063.77 1549.15 Q2061.53 1548.78 2059.12 1548.04 L2059.12 1543.34 Q2061.2 1544.47 2063.43 1545.03 Q2065.65 1545.58 2068.12 1545.58 Q2072.13 1545.58 2074.47 1543.48 Q2076.8 1541.37 2076.8 1537.76 Q2076.8 1534.15 2074.47 1532.04 Q2072.13 1529.94 2068.12 1529.94 Q2066.25 1529.94 2064.37 1530.35 Q2062.52 1530.77 2060.58 1531.65 L2060.58 1514.29 Z" fill="#000000" fill-rule="nonzero" fill-opacity="1" /><polyline clip-path="url(#clip730)" style="stroke:#000000; stroke-linecap:round; stroke-linejoin:round; stroke-width:4; stroke-opacity:1; fill:none" points="112.177,1486.45 112.177,47.2441 "/>
<polyline clip-path="url(#clip730)" style="stroke:#000000; stroke-linecap:round; stroke-linejoin:round; stroke-width:4; stroke-opacity:1; fill:none" points="112.177,1232.28 131.075,1232.28 "/>
<polyline clip-path="url(#clip730)" style="stroke:#000000; stroke-linecap:round; stroke-linejoin:round; stroke-width:4; stroke-opacity:1; fill:none" points="112.177,942.44 131.075,942.44 "/>
<polyline clip-path="url(#clip730)" style="stroke:#000000; stroke-linecap:round; stroke-linejoin:round; stroke-width:4; stroke-opacity:1; fill:none" points="112.177,652.601 131.075,652.601 "/>
<polyline clip-path="url(#clip730)" style="stroke:#000000; stroke-linecap:round; stroke-linejoin:round; stroke-width:4; stroke-opacity:1; fill:none" points="112.177,362.763 131.075,362.763 "/>
<polyline clip-path="url(#clip730)" style="stroke:#000000; stroke-linecap:round; stroke-linejoin:round; stroke-width:4; stroke-opacity:1; fill:none" points="112.177,72.9243 131.075,72.9243 "/>
<path clip-path="url(#clip730)" d="M56.2699 1245.62 L63.9087 1245.62 L63.9087 1219.26 L55.5986 1220.92 L55.5986 1216.67 L63.8624 1215 L68.5383 1215 L68.5383 1245.62 L76.1772 1245.62 L76.1772 1249.56 L56.2699 1249.56 L56.2699 1245.62 Z" fill="#000000" fill-rule="nonzero" fill-opacity="1" /><path clip-path="url(#clip730)" d="M59.8578 955.785 L76.1772 955.785 L76.1772 959.72 L54.2328 959.72 L54.2328 955.785 Q56.8949 953.03 61.4782 948.4 Q66.0846 943.748 67.2652 942.405 Q69.5105 939.882 70.3902 938.146 Q71.2929 936.387 71.2929 934.697 Q71.2929 931.942 69.3485 930.206 Q67.4272 928.47 64.3254 928.47 Q62.1263 928.47 59.6726 929.234 Q57.2421 929.998 54.4643 931.549 L54.4643 926.826 Q57.2884 925.692 59.7421 925.114 Q62.1958 924.535 64.2328 924.535 Q69.6031 924.535 72.7976 927.22 Q75.992 929.905 75.992 934.396 Q75.992 936.526 75.1818 938.447 Q74.3948 940.345 72.2883 942.938 Q71.7096 943.609 68.6078 946.826 Q65.5059 950.021 59.8578 955.785 Z" fill="#000000" fill-rule="nonzero" fill-opacity="1" /><path clip-path="url(#clip730)" d="M69.0476 651.247 Q72.404 651.965 74.279 654.233 Q76.1772 656.502 76.1772 659.835 Q76.1772 664.951 72.6587 667.752 Q69.1402 670.553 62.6587 670.553 Q60.4828 670.553 58.168 670.113 Q55.8764 669.696 53.4227 668.84 L53.4227 664.326 Q55.3671 665.46 57.6819 666.039 Q59.9967 666.617 62.5198 666.617 Q66.918 666.617 69.2096 664.881 Q71.5244 663.145 71.5244 659.835 Q71.5244 656.78 69.3717 655.067 Q67.242 653.33 63.4226 653.33 L59.3949 653.33 L59.3949 649.488 L63.6078 649.488 Q67.0569 649.488 68.8855 648.122 Q70.7142 646.733 70.7142 644.141 Q70.7142 641.479 68.8161 640.067 Q66.9411 638.631 63.4226 638.631 Q61.5013 638.631 59.3023 639.048 Q57.1032 639.465 54.4643 640.344 L54.4643 636.178 Q57.1264 635.437 59.4412 635.067 Q61.7791 634.696 63.8393 634.696 Q69.1633 634.696 72.2652 637.127 Q75.367 639.534 75.367 643.655 Q75.367 646.525 73.7235 648.516 Q72.08 650.483 69.0476 651.247 Z" fill="#000000" fill-rule="nonzero" fill-opacity="1" /><path clip-path="url(#clip730)" d="M66.5939 349.557 L54.7884 368.006 L66.5939 368.006 L66.5939 349.557 M65.367 345.483 L71.2466 345.483 L71.2466 368.006 L76.1772 368.006 L76.1772 371.895 L71.2466 371.895 L71.2466 380.043 L66.5939 380.043 L66.5939 371.895 L50.9921 371.895 L50.9921 367.381 L65.367 345.483 Z" fill="#000000" fill-rule="nonzero" fill-opacity="1" /><path clip-path="url(#clip730)" d="M55.2745 55.6443 L73.6309 55.6443 L73.6309 59.5794 L59.5569 59.5794 L59.5569 68.0516 Q60.5754 67.7044 61.5939 67.5423 Q62.6124 67.3572 63.6309 67.3572 Q69.418 67.3572 72.7976 70.5284 Q76.1772 73.6997 76.1772 79.1164 Q76.1772 84.695 72.705 87.7969 Q69.2328 90.8756 62.9134 90.8756 Q60.7374 90.8756 58.4689 90.5052 Q56.2236 90.1348 53.8162 89.3941 L53.8162 84.695 Q55.8995 85.8293 58.1217 86.3848 Q60.3439 86.9404 62.8208 86.9404 Q66.8254 86.9404 69.1633 84.8339 Q71.5013 82.7275 71.5013 79.1164 Q71.5013 75.5053 69.1633 73.3988 Q66.8254 71.2923 62.8208 71.2923 Q60.9458 71.2923 59.0708 71.709 Q57.2189 72.1257 55.2745 73.0053 L55.2745 55.6443 Z" fill="#000000" fill-rule="nonzero" fill-opacity="1" /><circle clip-path="url(#clip732)" cx="2289.34" cy="1342.49" r="14.4" fill="#808080" fill-rule="evenodd" fill-opacity="1" stroke="#000000" stroke-opacity="1" stroke-width="3.2"/>
<circle clip-path="url(#clip732)" cx="175.59" cy="87.9763" r="14.4" fill="#808080" fill-rule="evenodd" fill-opacity="1" stroke="#000000" stroke-opacity="1" stroke-width="3.2"/>
<circle clip-path="url(#clip732)" cx="1570.48" cy="1445.72" r="14.4" fill="#808080" fill-rule="evenodd" fill-opacity="1" stroke="#000000" stroke-opacity="1" stroke-width="3.2"/>
<circle clip-path="url(#clip732)" cx="1400.18" cy="1405.1" r="14.4" fill="#808080" fill-rule="evenodd" fill-opacity="1" stroke="#000000" stroke-opacity="1" stroke-width="3.2"/>
<path clip-path="url(#clip730)" d="M2293.64 1349.93 Q2284.6 1349.93 2281.12 1351.99 Q2277.64 1354.06 2277.64 1359.04 Q2277.64 1363.01 2280.23 1365.36 Q2282.86 1367.67 2287.36 1367.67 Q2293.56 1367.67 2297.28 1363.3 Q2301.05 1358.88 2301.05 1351.59 L2301.05 1349.93 L2293.64 1349.93 M2308.5 1346.85 L2308.5 1372.73 L2301.05 1372.73 L2301.05 1365.85 Q2298.5 1369.98 2294.69 1371.96 Q2290.88 1373.91 2285.37 1373.91 Q2278.41 1373.91 2274.27 1370.02 Q2270.18 1366.09 2270.18 1359.53 Q2270.18 1351.87 2275.29 1347.98 Q2280.43 1344.09 2290.6 1344.09 L2301.05 1344.09 L2301.05 1343.36 Q2301.05 1338.22 2297.65 1335.42 Q2294.29 1332.59 2288.17 1332.59 Q2284.28 1332.59 2280.59 1333.52 Q2276.91 1334.45 2273.5 1336.32 L2273.5 1329.43 Q2277.6 1327.85 2281.44 1327.08 Q2285.29 1326.27 2288.94 1326.27 Q2298.78 1326.27 2303.64 1331.37 Q2308.5 1336.48 2308.5 1346.85 Z" fill="#000000" fill-rule="nonzero" fill-opacity="1" /><path clip-path="url(#clip730)" d="M188.148 95.5717 Q188.148 87.3484 184.745 82.6898 Q181.383 77.9908 175.468 77.9908 Q169.554 77.9908 166.151 82.6898 Q162.789 87.3484 162.789 95.5717 Q162.789 103.795 166.151 108.494 Q169.554 113.153 175.468 113.153 Q181.383 113.153 184.745 108.494 Q188.148 103.795 188.148 95.5717 M162.789 79.7327 Q165.138 75.6818 168.703 73.7373 Q172.309 71.7524 177.291 71.7524 Q185.555 71.7524 190.7 78.3149 Q195.885 84.8773 195.885 95.5717 Q195.885 106.266 190.7 112.829 Q185.555 119.391 177.291 119.391 Q172.309 119.391 168.703 117.447 Q165.138 115.462 162.789 111.411 L162.789 118.216 L155.295 118.216 L155.295 55.1842 L162.789 55.1842 L162.789 79.7327 Z" fill="#000000" fill-rule="nonzero" fill-opacity="1" /><path clip-path="url(#clip730)" d="M1588.42 1432.33 L1588.42 1439.3 Q1585.26 1437.55 1582.06 1436.7 Q1578.9 1435.81 1575.66 1435.81 Q1568.41 1435.81 1564.4 1440.43 Q1560.39 1445.01 1560.39 1453.31 Q1560.39 1461.62 1564.4 1466.23 Q1568.41 1470.81 1575.66 1470.81 Q1578.9 1470.81 1582.06 1469.96 Q1585.26 1469.07 1588.42 1467.33 L1588.42 1474.21 Q1585.31 1475.67 1581.94 1476.4 Q1578.62 1477.13 1574.85 1477.13 Q1564.61 1477.13 1558.57 1470.69 Q1552.53 1464.25 1552.53 1453.31 Q1552.53 1442.21 1558.61 1435.85 Q1564.73 1429.49 1575.34 1429.49 Q1578.78 1429.49 1582.06 1430.22 Q1585.35 1430.91 1588.42 1432.33 Z" fill="#000000" fill-rule="nonzero" fill-opacity="1" /><path clip-path="url(#clip730)" d="M1413 1396.86 L1413 1372.31 L1420.46 1372.31 L1420.46 1435.34 L1413 1435.34 L1413 1428.54 Q1410.65 1432.59 1407.05 1434.57 Q1403.48 1436.52 1398.46 1436.52 Q1390.24 1436.52 1385.05 1429.96 Q1379.91 1423.39 1379.91 1412.7 Q1379.91 1402.01 1385.05 1395.44 Q1390.24 1388.88 1398.46 1388.88 Q1403.48 1388.88 1407.05 1390.87 Q1410.65 1392.81 1413 1396.86 M1387.6 1412.7 Q1387.6 1420.92 1390.97 1425.62 Q1394.37 1430.28 1400.28 1430.28 Q1406.2 1430.28 1409.6 1425.62 Q1413 1420.92 1413 1412.7 Q1413 1404.48 1409.6 1399.82 Q1406.2 1395.12 1400.28 1395.12 Q1394.37 1395.12 1390.97 1399.82 Q1387.6 1404.48 1387.6 1412.7 Z" fill="#000000" fill-rule="nonzero" fill-opacity="1" /><path clip-path="url(#clip730)" d="M2001.58 198.898 L2278.07 198.898 L2278.07 95.2176 L2001.58 95.2176  Z" fill="#ffffff" fill-rule="evenodd" fill-opacity="1"/>
<polyline clip-path="url(#clip730)" style="stroke:#000000; stroke-linecap:round; stroke-linejoin:round; stroke-width:4; stroke-opacity:1; fill:none" points="2001.58,198.898 2278.07,198.898 2278.07,95.2176 2001.58,95.2176 2001.58,198.898 "/>
<circle clip-path="url(#clip730)" cx="2101.16" cy="147.058" r="20.48" fill="#808080" fill-rule="evenodd" fill-opacity="1" stroke="#000000" stroke-opacity="1" stroke-width="4.55111"/>
<path clip-path="url(#clip730)" d="M2214.59 166.745 Q2212.78 171.375 2211.07 172.787 Q2209.36 174.199 2206.49 174.199 L2203.08 174.199 L2203.08 170.634 L2205.58 170.634 Q2207.34 170.634 2208.31 169.8 Q2209.29 168.967 2210.47 165.865 L2211.23 163.921 L2200.74 138.412 L2205.26 138.412 L2213.36 158.689 L2221.46 138.412 L2225.98 138.412 L2214.59 166.745 Z" fill="#000000" fill-rule="nonzero" fill-opacity="1" /><path clip-path="url(#clip730)" d="M2233.27 160.402 L2240.91 160.402 L2240.91 134.037 L2232.6 135.703 L2232.6 131.444 L2240.86 129.778 L2245.54 129.778 L2245.54 160.402 L2253.17 160.402 L2253.17 164.338 L2233.27 164.338 L2233.27 160.402 Z" fill="#000000" fill-rule="nonzero" fill-opacity="1" /></svg>
