<?xml version="1.0" encoding="utf-8"?>
<svg xmlns="http://www.w3.org/2000/svg" xmlns:xlink="http://www.w3.org/1999/xlink" width="600" height="400" viewBox="0 0 2400 1600">
<defs>
  <clipPath id="clip670">
    <rect x="0" y="0" width="2400" height="1600"/>
  </clipPath>
</defs>
<path clip-path="url(#clip670)" d="M0 1600 L2400 1600 L2400 0 L0 0  Z" fill="#ffffff" fill-rule="evenodd" fill-opacity="1"/>
<defs>
  <clipPath id="clip671">
    <rect x="480" y="0" width="1681" height="1600"/>
  </clipPath>
</defs>
<path clip-path="url(#clip670)" d="M156.598 1486.45 L2352.76 1486.45 L2352.76 47.2441 L156.598 47.2441  Z" fill="#ffffff" fill-rule="evenodd" fill-opacity="1"/>
<defs>
  <clipPath id="clip672">
    <rect x="156" y="47" width="2197" height="1440"/>
  </clipPath>
</defs>
<polyline clip-path="url(#clip672)" style="stroke:#000000; stroke-linecap:round; stroke-linejoin:round; stroke-width:2; stroke-opacity:0.1; fill:none" points="240.156,1486.45 240.156,47.2441 "/>
<polyline clip-path="url(#clip672)" style="stroke:#000000; stroke-linecap:round; stroke-linejoin:round; stroke-width:2; stroke-opacity:0.1; fill:none" points="662.888,1486.45 662.888,47.2441 "/>
<polyline clip-path="url(#clip672)" style="stroke:#000000; stroke-linecap:round; stroke-linejoin:round; stroke-width:2; stroke-opacity:0.1; fill:none" points="1085.62,1486.45 1085.62,47.2441 "/>
<polyline clip-path="url(#clip672)" style="stroke:#000000; stroke-linecap:round; stroke-linejoin:round; stroke-width:2; stroke-opacity:0.1; fill:none" points="1508.35,1486.45 1508.35,47.2441 "/>
<polyline clip-path="url(#clip672)" style="stroke:#000000; stroke-linecap:round; stroke-linejoin:round; stroke-width:2; stroke-opacity:0.1; fill:none" points="1931.08,1486.45 1931.08,47.2441 "/>
<polyline clip-path="url(#clip672)" style="stroke:#000000; stroke-linecap:round; stroke-linejoin:round; stroke-width:2; stroke-opacity:0.1; fill:none" points="156.598,1452.11 2352.76,1452.11 "/>
<polyline clip-path="url(#clip672)" style="stroke:#000000; stroke-linecap:round; stroke-linejoin:round; stroke-width:2; stroke-opacity:0.1; fill:none" points="156.598,1222.13 2352.76,1222.13 "/>
<polyline clip-path="url(#clip672)" style="stroke:#000000; stroke-linecap:round; stroke-linejoin:round; stroke-width:2; stroke-opacity:0.1; fill:none" points="156.598,992.145 2352.76,992.145 "/>
<polyline clip-path="url(#clip672)" style="stroke:#000000; stroke-linecap:round; stroke-linejoin:round; stroke-width:2; stroke-opacity:0.1; fill:none" points="156.598,762.162 2352.76,762.162 "/>
<polyline clip-path="url(#clip672)" style="stroke:#000000; stroke-linecap:round; stroke-linejoin:round; stroke-width:2; stroke-opacity:0.1; fill:none" points="156.598,532.18 2352.76,532.18 "/>
<polyline clip-path="url(#clip672)" style="stroke:#000000; stroke-linecap:round; stroke-linejoin:round; stroke-width:2; stroke-opacity:0.1; fill:none" points="156.598,302.197 2352.76,302.197 "/>
<polyline clip-path="url(#clip672)" style="stroke:#000000; stroke-linecap:round; stroke-linejoin:round; stroke-width:2; stroke-opacity:0.1; fill:none" points="156.598,72.2146 2352.76,72.2146 "/>
<polyline clip-path="url(#clip670)" style="stroke:#000000; stroke-linecap:round; stroke-linejoin:round; stroke-width:4; stroke-opacity:1; fill:none" points="156.598,1486.45 2352.76,1486.45 "/>
<polyline clip-path="url(#clip670)" style="stroke:#000000; stroke-linecap:round; stroke-linejoin:round; stroke-width:4; stroke-opacity:1; fill:none" points="240.156,1486.45 240.156,1467.55 "/>
<polyline clip-path="url(#clip670)" style="stroke:#000000; stroke-linecap:round; stroke-linejoin:round; stroke-width:4; stroke-opacity:1; fill:none" points="662.888,1486.45 662.888,1467.55 "/>
<polyline clip-path="url(#clip670)" style="stroke:#000000; stroke-linecap:round; stroke-linejoin:round; stroke-width:4; stroke-opacity:1; fill:none" points="1085.62,1486.45 1085.62,1467.55 "/>
<polyline clip-path="url(#clip670)" style="stroke:#000000; stroke-linecap:round; stroke-linejoin:round; stroke-width:4; stroke-opacity:1; fill:none" points="1508.35,1486.45 1508.35,1467.55 "/>
<polyline clip-path="url(#clip670)" style="stroke:#000000; stroke-linecap:round; stroke-linejoin:round; stroke-width:4; stroke-opacity:1; fill:none" points="1931.08,1486.45 1931.08,1467.55 "/>
<path clip-path="url(#clip670)" d="M186.603 1532.02 L216.279 1532.02 L216.279 1535.95 L186.603 1535.95 L186.603 1532.02 Z" fill="#000000" fill-rule="nonzero" fill-opacity="1" /><path clip-path="url(#clip670)" d="M236.371 1517.37 Q232.76 1517.37 230.932 1520.93 Q229.126 1524.47 229.126 1531.6 Q229.126 1538.71 230.932 1542.27 Q232.76 1545.82 236.371 1545.82 Q240.006 1545.82 241.811 1542.27 Q243.64 1538.71 243.64 1531.6 Q243.64 1524.47 241.811 1520.93 Q240.006 1517.37 236.371 1517.37 M236.371 1513.66 Q242.182 1513.66 245.237 1518.27 Q248.316 1522.85 248.316 1531.6 Q248.316 1540.33 245.237 1544.94 Q242.182 1549.52 236.371 1549.52 Q230.561 1549.52 227.483 1544.94 Q224.427 1540.33 224.427 1531.6 Q224.427 1522.85 227.483 1518.27 Q230.561 1513.66 236.371 1513.66 Z" fill="#000000" fill-rule="nonzero" fill-opacity="1" /><path clip-path="url(#clip670)" d="M256.533 1542.97 L261.418 1542.97 L261.418 1548.85 L256.533 1548.85 L256.533 1542.97 Z" fill="#000000" fill-rule="nonzero" fill-opacity="1" /><path clip-path="url(#clip670)" d="M282.181 1529.7 Q279.033 1529.7 277.181 1531.86 Q275.353 1534.01 275.353 1537.76 Q275.353 1541.49 277.181 1543.66 Q279.033 1545.82 282.181 1545.82 Q285.329 1545.82 287.158 1543.66 Q289.01 1541.49 289.01 1537.76 Q289.01 1534.01 287.158 1531.86 Q285.329 1529.7 282.181 1529.7 M291.464 1515.05 L291.464 1519.31 Q289.704 1518.48 287.899 1518.04 Q286.116 1517.6 284.357 1517.6 Q279.728 1517.6 277.274 1520.72 Q274.843 1523.85 274.496 1530.17 Q275.862 1528.15 277.922 1527.09 Q279.982 1526 282.459 1526 Q287.667 1526 290.677 1529.17 Q293.709 1532.32 293.709 1537.76 Q293.709 1543.08 290.561 1546.3 Q287.413 1549.52 282.181 1549.52 Q276.186 1549.52 273.015 1544.94 Q269.843 1540.33 269.843 1531.6 Q269.843 1523.41 273.732 1518.55 Q277.621 1513.66 284.172 1513.66 Q285.931 1513.66 287.714 1514.01 Q289.519 1514.36 291.464 1515.05 Z" fill="#000000" fill-rule="nonzero" fill-opacity="1" /><path clip-path="url(#clip670)" d="M609.173 1532.02 L638.849 1532.02 L638.849 1535.95 L609.173 1535.95 L609.173 1532.02 Z" fill="#000000" fill-rule="nonzero" fill-opacity="1" /><path clip-path="url(#clip670)" d="M658.941 1517.37 Q655.33 1517.37 653.502 1520.93 Q651.696 1524.47 651.696 1531.6 Q651.696 1538.71 653.502 1542.27 Q655.33 1545.82 658.941 1545.82 Q662.576 1545.82 664.381 1542.27 Q666.21 1538.71 666.21 1531.6 Q666.21 1524.47 664.381 1520.93 Q662.576 1517.37 658.941 1517.37 M658.941 1513.66 Q664.752 1513.66 667.807 1518.27 Q670.886 1522.85 670.886 1531.6 Q670.886 1540.33 667.807 1544.94 Q664.752 1549.52 658.941 1549.52 Q653.131 1549.52 650.053 1544.94 Q646.997 1540.33 646.997 1531.6 Q646.997 1522.85 650.053 1518.27 Q653.131 1513.66 658.941 1513.66 Z" fill="#000000" fill-rule="nonzero" fill-opacity="1" /><path clip-path="url(#clip670)" d="M679.103 1542.97 L683.988 1542.97 L683.988 1548.85 L679.103 1548.85 L679.103 1542.97 Z" fill="#000000" fill-rule="nonzero" fill-opacity="1" /><path clip-path="url(#clip670)" d="M707.02 1518.36 L695.214 1536.81 L707.02 1536.81 L707.02 1518.36 M705.793 1514.29 L711.673 1514.29 L711.673 1536.81 L716.603 1536.81 L716.603 1540.7 L711.673 1540.7 L711.673 1548.85 L707.02 1548.85 L707.02 1540.7 L691.418 1540.7 L691.418 1536.19 L705.793 1514.29 Z" fill="#000000" fill-rule="nonzero" fill-opacity="1" /><path clip-path="url(#clip670)" d="M1032.95 1532.02 L1062.62 1532.02 L1062.62 1535.95 L1032.95 1535.95 L1032.95 1532.02 Z" fill="#000000" fill-rule="nonzero" fill-opacity="1" /><path clip-path="url(#clip670)" d="M1082.72 1517.37 Q1079.1 1517.37 1077.28 1520.93 Q1075.47 1524.47 1075.47 1531.6 Q1075.47 1538.71 1077.28 1542.27 Q1079.1 1545.82 1082.72 1545.82 Q1086.35 1545.82 1088.15 1542.27 Q1089.98 1538.71 1089.98 1531.6 Q1089.98 1524.47 1088.15 1520.93 Q1086.35 1517.37 1082.72 1517.37 M1082.72 1513.66 Q1088.53 1513.66 1091.58 1518.27 Q1094.66 1522.85 1094.66 1531.6 Q1094.66 1540.33 1091.58 1544.94 Q1088.53 1549.52 1082.72 1549.52 Q1076.9 1549.52 1073.83 1544.94 Q1070.77 1540.33 1070.77 1531.6 Q1070.77 1522.85 1073.83 1518.27 Q1076.9 1513.66 1082.72 1513.66 Z" fill="#000000" fill-rule="nonzero" fill-opacity="1" /><path clip-path="url(#clip670)" d="M1102.88 1542.97 L1107.76 1542.97 L1107.76 1548.85 L1102.88 1548.85 L1102.88 1542.97 Z" fill="#000000" fill-rule="nonzero" fill-opacity="1" /><path clip-path="url(#clip670)" d="M1121.97 1544.91 L1138.29 1544.91 L1138.29 1548.85 L1116.35 1548.85 L1116.35 1544.91 Q1119.01 1542.16 1123.59 1537.53 Q1128.2 1532.88 1129.38 1531.53 Q1131.63 1529.01 1132.51 1527.27 Q1133.41 1525.51 1133.41 1523.82 Q1133.41 1521.07 1131.46 1519.33 Q1129.54 1517.6 1126.44 1517.6 Q1124.24 1517.6 1121.79 1518.36 Q1119.36 1519.13 1116.58 1520.68 L1116.58 1515.95 Q1119.4 1514.82 1121.86 1514.24 Q1124.31 1513.66 1126.35 1513.66 Q1131.72 1513.66 1134.91 1516.35 Q1138.11 1519.03 1138.11 1523.52 Q1138.11 1525.65 1137.3 1527.57 Q1136.51 1529.47 1134.4 1532.07 Q1133.83 1532.74 1130.72 1535.95 Q1127.62 1539.15 1121.97 1544.91 Z" fill="#000000" fill-rule="nonzero" fill-opacity="1" /><path clip-path="url(#clip670)" d="M1485.74 1517.37 Q1482.13 1517.37 1480.3 1520.93 Q1478.49 1524.47 1478.49 1531.6 Q1478.49 1538.71 1480.3 1542.27 Q1482.13 1545.82 1485.74 1545.82 Q1489.37 1545.82 1491.18 1542.27 Q1493.01 1538.71 1493.01 1531.6 Q1493.01 1524.47 1491.18 1520.93 Q1489.37 1517.37 1485.74 1517.37 M1485.74 1513.66 Q1491.55 1513.66 1494.6 1518.27 Q1497.68 1522.85 1497.68 1531.6 Q1497.68 1540.33 1494.6 1544.94 Q1491.55 1549.52 1485.74 1549.52 Q1479.93 1549.52 1476.85 1544.94 Q1473.79 1540.33 1473.79 1531.6 Q1473.79 1522.85 1476.85 1518.27 Q1479.93 1513.66 1485.74 1513.66 Z" fill="#000000" fill-rule="nonzero" fill-opacity="1" /><path clip-path="url(#clip670)" d="M1505.9 1542.97 L1510.78 1542.97 L1510.78 1548.85 L1505.9 1548.85 L1505.9 1542.97 Z" fill="#000000" fill-rule="nonzero" fill-opacity="1" /><path clip-path="url(#clip670)" d="M1530.97 1517.37 Q1527.36 1517.37 1525.53 1520.93 Q1523.72 1524.47 1523.72 1531.6 Q1523.72 1538.71 1525.53 1542.27 Q1527.36 1545.82 1530.97 1545.82 Q1534.6 1545.82 1536.41 1542.27 Q1538.24 1538.71 1538.24 1531.6 Q1538.24 1524.47 1536.41 1520.93 Q1534.6 1517.37 1530.97 1517.37 M1530.97 1513.66 Q1536.78 1513.66 1539.83 1518.27 Q1542.91 1522.85 1542.91 1531.6 Q1542.91 1540.33 1539.83 1544.94 Q1536.78 1549.52 1530.97 1549.52 Q1525.16 1549.52 1522.08 1544.94 Q1519.02 1540.33 1519.02 1531.6 Q1519.02 1522.85 1522.08 1518.27 Q1525.16 1513.66 1530.97 1513.66 Z" fill="#000000" fill-rule="nonzero" fill-opacity="1" /><path clip-path="url(#clip670)" d="M1909.27 1517.37 Q1905.66 1517.37 1903.83 1520.93 Q1902.02 1524.47 1902.02 1531.6 Q1902.02 1538.71 1903.83 1542.27 Q1905.66 1545.82 1909.27 1545.82 Q1912.9 1545.82 1914.71 1542.27 Q1916.54 1538.71 1916.54 1531.6 Q1916.54 1524.47 1914.71 1520.93 Q1912.9 1517.37 1909.27 1517.37 M1909.27 1513.66 Q1915.08 1513.66 1918.13 1518.27 Q1921.21 1522.85 1921.21 1531.6 Q1921.21 1540.33 1918.13 1544.94 Q1915.08 1549.52 1909.27 1549.52 Q1903.46 1549.52 1900.38 1544.94 Q1897.32 1540.33 1897.32 1531.6 Q1897.32 1522.85 1900.38 1518.27 Q1903.46 1513.66 1909.27 1513.66 Z" fill="#000000" fill-rule="nonzero" fill-opacity="1" /><path clip-path="url(#clip670)" d="M1929.43 1542.97 L1934.31 1542.97 L1934.31 1548.85 L1929.43 1548.85 L1929.43 1542.97 Z" fill="#000000" fill-rule="nonzero" fill-opacity="1" /><path clip-path="url(#clip670)" d="M1948.53 1544.91 L1964.85 1544.91 L1964.85 1548.85 L1942.9 1548.85 L1942.9 1544.91 Q1945.56 1542.16 1950.15 1537.53 Q1954.75 1532.88 1955.93 1531.53 Q1958.18 1529.01 1959.06 1527.27 Q1959.96 1525.51 1959.96 1523.82 Q1959.96 1521.07 1958.02 1519.33 Q1956.1 1517.6 1952.99 1517.6 Q1950.79 1517.6 1948.34 1518.36 Q1945.91 1519.13 1943.13 1520.68 L1943.13 1515.95 Q1945.96 1514.82 1948.41 1514.24 Q1950.86 1513.66 1952.9 1513.66 Q1958.27 1513.66 1961.47 1516.35 Q1964.66 1519.03 1964.66 1523.52 Q1964.66 1525.65 1963.85 1527.57 Q1963.06 1529.47 1960.96 1532.07 Q1960.38 1532.74 1957.28 1535.95 Q1954.17 1539.15 1948.53 1544.91 Z" fill="#000000" fill-rule="nonzero" fill-opacity="1" /><polyline clip-path="url(#clip670)" style="stroke:#000000; stroke-linecap:round; stroke-linejoin:round; stroke-width:4; stroke-opacity:1; fill:none" points="156.598,1486.45 156.598,47.2441 "/>
<polyline clip-path="url(#clip670)" style="stroke:#000000; stroke-linecap:round; stroke-linejoin:round; stroke-width:4; stroke-opacity:1; fill:none" points="156.598,1452.11 175.496,1452.11 "/>
<polyline clip-path="url(#clip670)" style="stroke:#000000; stroke-linecap:round; stroke-linejoin:round; stroke-width:4; stroke-opacity:1; fill:none" points="156.598,1222.13 175.496,1222.13 "/>
<polyline clip-path="url(#clip670)" style="stroke:#000000; stroke-linecap:round; stroke-linejoin:round; stroke-width:4; stroke-opacity:1; fill:none" points="156.598,992.145 175.496,992.145 "/>
<polyline clip-path="url(#clip670)" style="stroke:#000000; stroke-linecap:round; stroke-linejoin:round; stroke-width:4; stroke-opacity:1; fill:none" points="156.598,762.162 175.496,762.162 "/>
<polyline clip-path="url(#clip670)" style="stroke:#000000; stroke-linecap:round; stroke-linejoin:round; stroke-width:4; stroke-opacity:1; fill:none" points="156.598,532.18 175.496,532.18 "/>
<polyline clip-path="url(#clip670)" style="stroke:#000000; stroke-linecap:round; stroke-linejoin:round; stroke-width:4; stroke-opacity:1; fill:none" points="156.598,302.197 175.496,302.197 "/>
<polyline clip-path="url(#clip670)" style="stroke:#000000; stroke-linecap:round; stroke-linejoin:round; stroke-width:4; stroke-opacity:1; fill:none" points="156.598,72.2146 175.496,72.2146 "/>
<path clip-path="url(#clip670)" d="M63.4226 1437.91 Q59.8115 1437.91 57.9828 1441.47 Q56.1773 1445.02 56.1773 1452.14 Q56.1773 1459.25 57.9828 1462.82 Q59.8115 1466.36 63.4226 1466.36 Q67.0569 1466.36 68.8624 1462.82 Q70.6911 1459.25 70.6911 1452.14 Q70.6911 1445.02 68.8624 1441.47 Q67.0569 1437.91 63.4226 1437.91 M63.4226 1434.21 Q69.2328 1434.21 72.2883 1438.81 Q75.367 1443.39 75.367 1452.14 Q75.367 1460.87 72.2883 1465.48 Q69.2328 1470.06 63.4226 1470.06 Q57.6125 1470.06 54.5338 1465.48 Q51.4782 1460.87 51.4782 1452.14 Q51.4782 1443.39 54.5338 1438.81 Q57.6125 1434.21 63.4226 1434.21 Z" fill="#000000" fill-rule="nonzero" fill-opacity="1" /><path clip-path="url(#clip670)" d="M83.5845 1463.51 L88.4688 1463.51 L88.4688 1469.39 L83.5845 1469.39 L83.5845 1463.51 Z" fill="#000000" fill-rule="nonzero" fill-opacity="1" /><path clip-path="url(#clip670)" d="M108.654 1437.91 Q105.043 1437.91 103.214 1441.47 Q101.409 1445.02 101.409 1452.14 Q101.409 1459.25 103.214 1462.82 Q105.043 1466.36 108.654 1466.36 Q112.288 1466.36 114.094 1462.82 Q115.922 1459.25 115.922 1452.14 Q115.922 1445.02 114.094 1441.47 Q112.288 1437.91 108.654 1437.91 M108.654 1434.21 Q114.464 1434.21 117.52 1438.81 Q120.598 1443.39 120.598 1452.14 Q120.598 1460.87 117.52 1465.48 Q114.464 1470.06 108.654 1470.06 Q102.844 1470.06 99.765 1465.48 Q96.7095 1460.87 96.7095 1452.14 Q96.7095 1443.39 99.765 1438.81 Q102.844 1434.21 108.654 1434.21 Z" fill="#000000" fill-rule="nonzero" fill-opacity="1" /><path clip-path="url(#clip670)" d="M64.6495 1207.93 Q61.0384 1207.93 59.2097 1211.49 Q57.4041 1215.03 57.4041 1222.16 Q57.4041 1229.27 59.2097 1232.83 Q61.0384 1236.38 64.6495 1236.38 Q68.2837 1236.38 70.0892 1232.83 Q71.9179 1229.27 71.9179 1222.16 Q71.9179 1215.03 70.0892 1211.49 Q68.2837 1207.93 64.6495 1207.93 M64.6495 1204.22 Q70.4596 1204.22 73.5152 1208.83 Q76.5938 1213.41 76.5938 1222.16 Q76.5938 1230.89 73.5152 1235.5 Q70.4596 1240.08 64.6495 1240.08 Q58.8393 1240.08 55.7606 1235.5 Q52.7051 1230.89 52.7051 1222.16 Q52.7051 1213.41 55.7606 1208.83 Q58.8393 1204.22 64.6495 1204.22 Z" fill="#000000" fill-rule="nonzero" fill-opacity="1" /><path clip-path="url(#clip670)" d="M84.8114 1233.53 L89.6956 1233.53 L89.6956 1239.41 L84.8114 1239.41 L84.8114 1233.53 Z" fill="#000000" fill-rule="nonzero" fill-opacity="1" /><path clip-path="url(#clip670)" d="M100.691 1235.47 L108.33 1235.47 L108.33 1209.11 L100.02 1210.77 L100.02 1206.51 L108.283 1204.85 L112.959 1204.85 L112.959 1235.47 L120.598 1235.47 L120.598 1239.41 L100.691 1239.41 L100.691 1235.47 Z" fill="#000000" fill-rule="nonzero" fill-opacity="1" /><path clip-path="url(#clip670)" d="M65.0198 977.944 Q61.4087 977.944 59.58 981.508 Q57.7745 985.05 57.7745 992.18 Q57.7745 999.286 59.58 1002.85 Q61.4087 1006.39 65.0198 1006.39 Q68.6541 1006.39 70.4596 1002.85 Q72.2883 999.286 72.2883 992.18 Q72.2883 985.05 70.4596 981.508 Q68.6541 977.944 65.0198 977.944 M65.0198 974.24 Q70.83 974.24 73.8855 978.846 Q76.9642 983.43 76.9642 992.18 Q76.9642 1000.91 73.8855 1005.51 Q70.83 1010.1 65.0198 1010.1 Q59.2097 1010.1 56.131 1005.51 Q53.0754 1000.91 53.0754 992.18 Q53.0754 983.43 56.131 978.846 Q59.2097 974.24 65.0198 974.24 Z" fill="#000000" fill-rule="nonzero" fill-opacity="1" /><path clip-path="url(#clip670)" d="M85.1818 1003.55 L90.066 1003.55 L90.066 1009.42 L85.1818 1009.42 L85.1818 1003.55 Z" fill="#000000" fill-rule="nonzero" fill-opacity="1" /><path clip-path="url(#clip670)" d="M104.279 1005.49 L120.598 1005.49 L120.598 1009.42 L98.6539 1009.42 L98.6539 1005.49 Q101.316 1002.74 105.899 998.106 Q110.506 993.453 111.686 992.11 Q113.932 989.587 114.811 987.851 Q115.714 986.092 115.714 984.402 Q115.714 981.647 113.77 979.911 Q111.848 978.175 108.746 978.175 Q106.547 978.175 104.094 978.939 Q101.663 979.703 98.8854 981.254 L98.8854 976.532 Q101.709 975.397 104.163 974.819 Q106.617 974.24 108.654 974.24 Q114.024 974.24 117.219 976.925 Q120.413 979.61 120.413 984.101 Q120.413 986.231 119.603 988.152 Q118.816 990.05 116.709 992.643 Q116.131 993.314 113.029 996.531 Q109.927 999.726 104.279 1005.49 Z" fill="#000000" fill-rule="nonzero" fill-opacity="1" /><path clip-path="url(#clip670)" d="M64.0708 747.961 Q60.4597 747.961 58.631 751.526 Q56.8254 755.067 56.8254 762.197 Q56.8254 769.304 58.631 772.868 Q60.4597 776.41 64.0708 776.41 Q67.705 776.41 69.5105 772.868 Q71.3392 769.304 71.3392 762.197 Q71.3392 755.067 69.5105 751.526 Q67.705 747.961 64.0708 747.961 M64.0708 744.257 Q69.8809 744.257 72.9365 748.864 Q76.0151 753.447 76.0151 762.197 Q76.0151 770.924 72.9365 775.53 Q69.8809 780.114 64.0708 780.114 Q58.2606 780.114 55.1819 775.53 Q52.1264 770.924 52.1264 762.197 Q52.1264 753.447 55.1819 748.864 Q58.2606 744.257 64.0708 744.257 Z" fill="#000000" fill-rule="nonzero" fill-opacity="1" /><path clip-path="url(#clip670)" d="M84.2327 773.563 L89.1169 773.563 L89.1169 779.442 L84.2327 779.442 L84.2327 773.563 Z" fill="#000000" fill-rule="nonzero" fill-opacity="1" /><path clip-path="url(#clip670)" d="M113.469 760.808 Q116.825 761.526 118.7 763.794 Q120.598 766.063 120.598 769.396 Q120.598 774.512 117.08 777.313 Q113.561 780.114 107.08 780.114 Q104.904 780.114 102.589 779.674 Q100.297 779.257 97.8437 778.401 L97.8437 773.887 Q99.7882 775.021 102.103 775.6 Q104.418 776.178 106.941 776.178 Q111.339 776.178 113.631 774.442 Q115.945 772.706 115.945 769.396 Q115.945 766.341 113.793 764.628 Q111.663 762.892 107.844 762.892 L103.816 762.892 L103.816 759.049 L108.029 759.049 Q111.478 759.049 113.307 757.683 Q115.135 756.294 115.135 753.702 Q115.135 751.04 113.237 749.628 Q111.362 748.193 107.844 748.193 Q105.922 748.193 103.723 748.609 Q101.524 749.026 98.8854 749.905 L98.8854 745.739 Q101.547 744.998 103.862 744.628 Q106.2 744.257 108.26 744.257 Q113.584 744.257 116.686 746.688 Q119.788 749.095 119.788 753.216 Q119.788 756.086 118.145 758.077 Q116.501 760.044 113.469 760.808 Z" fill="#000000" fill-rule="nonzero" fill-opacity="1" /><path clip-path="url(#clip670)" d="M62.9365 517.978 Q59.3254 517.978 57.4967 521.543 Q55.6912 525.085 55.6912 532.214 Q55.6912 539.321 57.4967 542.886 Q59.3254 546.427 62.9365 546.427 Q66.5707 546.427 68.3763 542.886 Q70.205 539.321 70.205 532.214 Q70.205 525.085 68.3763 521.543 Q66.5707 517.978 62.9365 517.978 M62.9365 514.275 Q68.7467 514.275 71.8022 518.881 Q74.8809 523.465 74.8809 532.214 Q74.8809 540.941 71.8022 545.548 Q68.7467 550.131 62.9365 550.131 Q57.1264 550.131 54.0477 545.548 Q50.9921 540.941 50.9921 532.214 Q50.9921 523.465 54.0477 518.881 Q57.1264 514.275 62.9365 514.275 Z" fill="#000000" fill-rule="nonzero" fill-opacity="1" /><path clip-path="url(#clip670)" d="M83.0984 543.58 L87.9827 543.58 L87.9827 549.46 L83.0984 549.46 L83.0984 543.58 Z" fill="#000000" fill-rule="nonzero" fill-opacity="1" /><path clip-path="url(#clip670)" d="M111.015 518.974 L99.2095 537.423 L111.015 537.423 L111.015 518.974 M109.788 514.9 L115.668 514.9 L115.668 537.423 L120.598 537.423 L120.598 541.312 L115.668 541.312 L115.668 549.46 L111.015 549.46 L111.015 541.312 L95.4132 541.312 L95.4132 536.798 L109.788 514.9 Z" fill="#000000" fill-rule="nonzero" fill-opacity="1" /><path clip-path="url(#clip670)" d="M64.418 287.996 Q60.8069 287.996 58.9782 291.561 Q57.1726 295.102 57.1726 302.232 Q57.1726 309.338 58.9782 312.903 Q60.8069 316.445 64.418 316.445 Q68.0522 316.445 69.8578 312.903 Q71.6865 309.338 71.6865 302.232 Q71.6865 295.102 69.8578 291.561 Q68.0522 287.996 64.418 287.996 M64.418 284.292 Q70.2281 284.292 73.2837 288.899 Q76.3624 293.482 76.3624 302.232 Q76.3624 310.959 73.2837 315.565 Q70.2281 320.148 64.418 320.148 Q58.6078 320.148 55.5291 315.565 Q52.4736 310.959 52.4736 302.232 Q52.4736 293.482 55.5291 288.899 Q58.6078 284.292 64.418 284.292 Z" fill="#000000" fill-rule="nonzero" fill-opacity="1" /><path clip-path="url(#clip670)" d="M84.5799 313.598 L89.4641 313.598 L89.4641 319.477 L84.5799 319.477 L84.5799 313.598 Z" fill="#000000" fill-rule="nonzero" fill-opacity="1" /><path clip-path="url(#clip670)" d="M99.6956 284.917 L118.052 284.917 L118.052 288.852 L103.978 288.852 L103.978 297.324 Q104.996 296.977 106.015 296.815 Q107.033 296.63 108.052 296.63 Q113.839 296.63 117.219 299.801 Q120.598 302.973 120.598 308.389 Q120.598 313.968 117.126 317.07 Q113.654 320.148 107.334 320.148 Q105.159 320.148 102.89 319.778 Q100.645 319.408 98.2372 318.667 L98.2372 313.968 Q100.321 315.102 102.543 315.658 Q104.765 316.213 107.242 316.213 Q111.246 316.213 113.584 314.107 Q115.922 312 115.922 308.389 Q115.922 304.778 113.584 302.672 Q111.246 300.565 107.242 300.565 Q105.367 300.565 103.492 300.982 Q101.64 301.399 99.6956 302.278 L99.6956 284.917 Z" fill="#000000" fill-rule="nonzero" fill-opacity="1" /><path clip-path="url(#clip670)" d="M63.2606 58.0132 Q59.6495 58.0132 57.8208 61.578 Q56.0152 65.1197 56.0152 72.2493 Q56.0152 79.3557 57.8208 82.9205 Q59.6495 86.4622 63.2606 86.4622 Q66.8948 86.4622 68.7004 82.9205 Q70.5291 79.3557 70.5291 72.2493 Q70.5291 65.1197 68.7004 61.578 Q66.8948 58.0132 63.2606 58.0132 M63.2606 54.3096 Q69.0707 54.3096 72.1263 58.916 Q75.205 63.4993 75.205 72.2493 Q75.205 80.9761 72.1263 85.5825 Q69.0707 90.1658 63.2606 90.1658 Q57.4504 90.1658 54.3717 85.5825 Q51.3162 80.9761 51.3162 72.2493 Q51.3162 63.4993 54.3717 58.916 Q57.4504 54.3096 63.2606 54.3096 Z" fill="#000000" fill-rule="nonzero" fill-opacity="1" /><path clip-path="url(#clip670)" d="M83.4225 83.615 L88.3067 83.615 L88.3067 89.4946 L83.4225 89.4946 L83.4225 83.615 Z" fill="#000000" fill-rule="nonzero" fill-opacity="1" /><path clip-path="url(#clip670)" d="M109.071 70.3511 Q105.922 70.3511 104.071 72.5039 Q102.242 74.6567 102.242 78.4067 Q102.242 82.1335 104.071 84.3094 Q105.922 86.4622 109.071 86.4622 Q112.219 86.4622 114.047 84.3094 Q115.899 82.1335 115.899 78.4067 Q115.899 74.6567 114.047 72.5039 Q112.219 70.3511 109.071 70.3511 M118.353 55.6984 L118.353 59.9577 Q116.594 59.1243 114.788 58.6845 Q113.006 58.2447 111.246 58.2447 Q106.617 58.2447 104.163 61.3697 Q101.733 64.4947 101.385 70.8141 Q102.751 68.8002 104.811 67.7354 Q106.871 66.6475 109.348 66.6475 Q114.557 66.6475 117.566 69.8187 Q120.598 72.9669 120.598 78.4067 Q120.598 83.7307 117.45 86.9483 Q114.302 90.1658 109.071 90.1658 Q103.075 90.1658 99.9039 85.5825 Q96.7326 80.9761 96.7326 72.2493 Q96.7326 64.0549 100.621 59.1938 Q104.51 54.3096 111.061 54.3096 Q112.82 54.3096 114.603 54.6568 Q116.408 55.004 118.353 55.6984 Z" fill="#000000" fill-rule="nonzero" fill-opacity="1" /><circle clip-path="url(#clip672)" cx="1571.98" cy="1293.85" r="14.4" fill="#808080" fill-rule="evenodd" fill-opacity="1" stroke="#000000" stroke-opacity="1" stroke-width="3.2"/>
<circle clip-path="url(#clip672)" cx="1476.51" cy="1445.72" r="14.4" fill="#808080" fill-rule="evenodd" fill-opacity="1" stroke="#000000" stroke-opacity="1" stroke-width="3.2"/>
<circle clip-path="url(#clip672)" cx="2290.6" cy="1314.33" r="14.4" fill="#808080" fill-rule="evenodd" fill-opacity="1" stroke="#000000" stroke-opacity="1" stroke-width="3.2"/>
<circle clip-path="url(#clip672)" cx="218.754" cy="87.9763" r="14.4" fill="#808080" fill-rule="evenodd" fill-opacity="1" stroke="#000000" stroke-opacity="1" stroke-width="3.2"/>
<path clip-path="url(#clip670)" d="M1576.27 1301.28 Q1567.24 1301.28 1563.76 1303.35 Q1560.27 1305.41 1560.27 1310.39 Q1560.27 1314.36 1562.87 1316.71 Q1565.5 1319.02 1570 1319.02 Q1576.19 1319.02 1579.92 1314.65 Q1583.69 1310.23 1583.69 1302.94 L1583.69 1301.28 L1576.27 1301.28 M1591.14 1298.2 L1591.14 1324.09 L1583.69 1324.09 L1583.69 1317.2 Q1581.14 1321.33 1577.33 1323.32 Q1573.52 1325.26 1568.01 1325.26 Q1561.04 1325.26 1556.91 1321.37 Q1552.82 1317.44 1552.82 1310.88 Q1552.82 1303.22 1557.92 1299.34 Q1563.07 1295.45 1573.24 1295.45 L1583.69 1295.45 L1583.69 1294.72 Q1583.69 1289.57 1580.28 1286.78 Q1576.92 1283.94 1570.81 1283.94 Q1566.92 1283.94 1563.23 1284.87 Q1559.54 1285.81 1556.14 1287.67 L1556.14 1280.78 Q1560.23 1279.2 1564.08 1278.43 Q1567.93 1277.62 1571.58 1277.62 Q1581.42 1277.62 1586.28 1282.73 Q1591.14 1287.83 1591.14 1298.2 Z" fill="#000000" fill-rule="nonzero" fill-opacity="1" /><path clip-path="url(#clip670)" d="M1489.07 1453.31 Q1489.07 1445.09 1485.67 1440.43 Q1482.31 1435.73 1476.39 1435.73 Q1470.48 1435.73 1467.07 1440.43 Q1463.71 1445.09 1463.71 1453.31 Q1463.71 1461.53 1467.07 1466.23 Q1470.48 1470.89 1476.39 1470.89 Q1482.31 1470.89 1485.67 1466.23 Q1489.07 1461.53 1489.07 1453.31 M1463.71 1437.47 Q1466.06 1433.42 1469.63 1431.48 Q1473.23 1429.49 1478.21 1429.49 Q1486.48 1429.49 1491.62 1436.05 Q1496.81 1442.62 1496.81 1453.31 Q1496.81 1464.01 1491.62 1470.57 Q1486.48 1477.13 1478.21 1477.13 Q1473.23 1477.13 1469.63 1475.19 Q1466.06 1473.2 1463.71 1469.15 L1463.71 1475.96 L1456.22 1475.96 L1456.22 1412.92 L1463.71 1412.92 L1463.71 1437.47 Z" fill="#000000" fill-rule="nonzero" fill-opacity="1" /><path clip-path="url(#clip670)" d="M2308.55 1300.94 L2308.55 1307.91 Q2305.39 1306.17 2302.19 1305.32 Q2299.03 1304.43 2295.79 1304.43 Q2288.53 1304.43 2284.52 1309.05 Q2280.51 1313.62 2280.51 1321.93 Q2280.51 1330.23 2284.52 1334.85 Q2288.53 1339.43 2295.79 1339.43 Q2299.03 1339.43 2302.19 1338.58 Q2305.39 1337.69 2308.55 1335.94 L2308.55 1342.83 Q2305.43 1344.29 2302.06 1345.02 Q2298.74 1345.75 2294.98 1345.75 Q2284.73 1345.75 2278.69 1339.31 Q2272.65 1332.87 2272.65 1321.93 Q2272.65 1310.83 2278.73 1304.47 Q2284.85 1298.11 2295.46 1298.11 Q2298.9 1298.11 2302.19 1298.84 Q2305.47 1299.53 2308.55 1300.94 Z" fill="#000000" fill-rule="nonzero" fill-opacity="1" /><path clip-path="url(#clip670)" d="M231.575 79.7327 L231.575 55.1842 L239.028 55.1842 L239.028 118.216 L231.575 118.216 L231.575 111.411 Q229.225 115.462 225.62 117.447 Q222.055 119.391 217.032 119.391 Q208.809 119.391 203.624 112.829 Q198.479 106.266 198.479 95.5717 Q198.479 84.8773 203.624 78.3149 Q208.809 71.7524 217.032 71.7524 Q222.055 71.7524 225.62 73.7373 Q229.225 75.6818 231.575 79.7327 M206.176 95.5717 Q206.176 103.795 209.538 108.494 Q212.941 113.153 218.855 113.153 Q224.769 113.153 228.172 108.494 Q231.575 103.795 231.575 95.5717 Q231.575 87.3484 228.172 82.6898 Q224.769 77.9908 218.855 77.9908 Q212.941 77.9908 209.538 82.6898 Q206.176 87.3484 206.176 95.5717 Z" fill="#000000" fill-rule="nonzero" fill-opacity="1" /><path clip-path="url(#clip670)" d="M2007.5 198.898 L2279.55 198.898 L2279.55 95.2176 L2007.5 95.2176  Z" fill="#ffffff" fill-rule="evenodd" fill-opacity="1"/>
<polyline clip-path="url(#clip670)" style="stroke:#000000; stroke-linecap:round; stroke-linejoin:round; stroke-width:4; stroke-opacity:1; fill:none" points="2007.5,198.898 2279.55,198.898 2279.55,95.2176 2007.5,95.2176 2007.5,198.898 "/>
<circle clip-path="url(#clip670)" cx="2105.11" cy="147.058" r="20.48" fill="#808080" fill-rule="evenodd" fill-opacity="1" stroke="#000000" stroke-opacity="1" stroke-width="4.55111"/>
<path clip-path="url(#clip670)" d="M2216.56 166.745 Q2214.76 171.375 2213.04 172.787 Q2211.33 174.199 2208.46 174.199 L2205.06 174.199 L2205.06 170.634 L2207.56 170.634 Q2209.32 170.634 2210.29 169.8 Q2211.26 168.967 2212.44 165.865 L2213.2 163.921 L2202.72 138.412 L2207.23 138.412 L2215.33 158.689 L2223.44 138.412 L2227.95 138.412 L2216.56 166.745 Z" fill="#000000" fill-rule="nonzero" fill-opacity="1" /><path clip-path="url(#clip670)" d="M2235.24 160.402 L2242.88 160.402 L2242.88 134.037 L2234.57 135.703 L2234.57 131.444 L2242.83 129.778 L2247.51 129.778 L2247.51 160.402 L2255.15 160.402 L2255.15 164.338 L2235.24 164.338 L2235.24 160.402 Z" fill="#000000" fill-rule="nonzero" fill-opacity="1" /></svg>
