<?xml version="1.0" encoding="utf-8"?>
<svg xmlns="http://www.w3.org/2000/svg" xmlns:xlink="http://www.w3.org/1999/xlink" width="600" height="400" viewBox="0 0 2400 1600">
<defs>
  <clipPath id="clip810">
    <rect x="0" y="0" width="2400" height="1600"/>
  </clipPath>
</defs>
<path clip-path="url(#clip810)" d="M0 1600 L2400 1600 L2400 0 L0 0  Z" fill="#ffffff" fill-rule="evenodd" fill-opacity="1"/>
<defs>
  <clipPath id="clip811">
    <rect x="112" y="47" width="2242" height="1440"/>
  </clipPath>
</defs>
<path clip-path="url(#clip810)" d="M112.177 1486.45 L2352.76 1486.45 L2352.76 47.2441 L112.177 47.2441  Z" fill="#ffffff" fill-rule="evenodd" fill-opacity="1"/>
<polyline clip-path="url(#clip811)" style="stroke:#000000; stroke-linecap:round; stroke-linejoin:round; stroke-width:2; stroke-opacity:0.1; fill:none" points="543.209,1486.45 543.209,47.2441 "/>
<polyline clip-path="url(#clip811)" style="stroke:#000000; stroke-linecap:round; stroke-linejoin:round; stroke-width:2; stroke-opacity:0.1; fill:none" points="1052.65,1486.45 1052.65,47.2441 "/>
<polyline clip-path="url(#clip811)" style="stroke:#000000; stroke-linecap:round; stroke-linejoin:round; stroke-width:2; stroke-opacity:0.1; fill:none" points="1562.09,1486.45 1562.09,47.2441 "/>
<polyline clip-path="url(#clip811)" style="stroke:#000000; stroke-linecap:round; stroke-linejoin:round; stroke-width:2; stroke-opacity:0.1; fill:none" points="2071.53,1486.45 2071.53,47.2441 "/>
<polyline clip-path="url(#clip811)" style="stroke:#000000; stroke-linecap:round; stroke-linejoin:round; stroke-width:2; stroke-opacity:0.1; fill:none" points="112.177,1246.31 2352.76,1246.31 "/>
<polyline clip-path="url(#clip811)" style="stroke:#000000; stroke-linecap:round; stroke-linejoin:round; stroke-width:2; stroke-opacity:0.1; fill:none" points="112.177,1002.87 2352.76,1002.87 "/>
<polyline clip-path="url(#clip811)" style="stroke:#000000; stroke-linecap:round; stroke-linejoin:round; stroke-width:2; stroke-opacity:0.1; fill:none" points="112.177,759.421 2352.76,759.421 "/>
<polyline clip-path="url(#clip811)" style="stroke:#000000; stroke-linecap:round; stroke-linejoin:round; stroke-width:2; stroke-opacity:0.1; fill:none" points="112.177,515.977 2352.76,515.977 "/>
<polyline clip-path="url(#clip811)" style="stroke:#000000; stroke-linecap:round; stroke-linejoin:round; stroke-width:2; stroke-opacity:0.1; fill:none" points="112.177,272.533 2352.76,272.533 "/>
<polyline clip-path="url(#clip810)" style="stroke:#000000; stroke-linecap:round; stroke-linejoin:round; stroke-width:4; stroke-opacity:1; fill:none" points="112.177,1486.45 2352.76,1486.45 "/>
<polyline clip-path="url(#clip810)" style="stroke:#000000; stroke-linecap:round; stroke-linejoin:round; stroke-width:4; stroke-opacity:1; fill:none" points="543.209,1486.45 543.209,1467.55 "/>
<polyline clip-path="url(#clip810)" style="stroke:#000000; stroke-linecap:round; stroke-linejoin:round; stroke-width:4; stroke-opacity:1; fill:none" points="1052.65,1486.45 1052.65,1467.55 "/>
<polyline clip-path="url(#clip810)" style="stroke:#000000; stroke-linecap:round; stroke-linejoin:round; stroke-width:4; stroke-opacity:1; fill:none" points="1562.09,1486.45 1562.09,1467.55 "/>
<polyline clip-path="url(#clip810)" style="stroke:#000000; stroke-linecap:round; stroke-linejoin:round; stroke-width:4; stroke-opacity:1; fill:none" points="2071.53,1486.45 2071.53,1467.55 "/>
<path clip-path="url(#clip810)" d="M489.737 1532.02 L519.413 1532.02 L519.413 1535.95 L489.737 1535.95 L489.737 1532.02 Z" fill="#000000" fill-rule="nonzero" fill-opacity="1" /><path clip-path="url(#clip810)" d="M530.316 1544.91 L537.955 1544.91 L537.955 1518.55 L529.644 1520.21 L529.644 1515.95 L537.908 1514.29 L542.584 1514.29 L542.584 1544.91 L550.223 1544.91 L550.223 1548.85 L530.316 1548.85 L530.316 1544.91 Z" fill="#000000" fill-rule="nonzero" fill-opacity="1" /><path clip-path="url(#clip810)" d="M559.667 1542.97 L564.552 1542.97 L564.552 1548.85 L559.667 1548.85 L559.667 1542.97 Z" fill="#000000" fill-rule="nonzero" fill-opacity="1" /><path clip-path="url(#clip810)" d="M584.737 1517.37 Q581.126 1517.37 579.297 1520.93 Q577.491 1524.47 577.491 1531.6 Q577.491 1538.71 579.297 1542.27 Q581.126 1545.82 584.737 1545.82 Q588.371 1545.82 590.176 1542.27 Q592.005 1538.71 592.005 1531.6 Q592.005 1524.47 590.176 1520.93 Q588.371 1517.37 584.737 1517.37 M584.737 1513.66 Q590.547 1513.66 593.602 1518.27 Q596.681 1522.85 596.681 1531.6 Q596.681 1540.33 593.602 1544.94 Q590.547 1549.52 584.737 1549.52 Q578.927 1549.52 575.848 1544.94 Q572.792 1540.33 572.792 1531.6 Q572.792 1522.85 575.848 1518.27 Q578.927 1513.66 584.737 1513.66 Z" fill="#000000" fill-rule="nonzero" fill-opacity="1" /><path clip-path="url(#clip810)" d="M999.676 1532.02 L1029.35 1532.02 L1029.35 1535.95 L999.676 1535.95 L999.676 1532.02 Z" fill="#000000" fill-rule="nonzero" fill-opacity="1" /><path clip-path="url(#clip810)" d="M1049.44 1517.37 Q1045.83 1517.37 1044 1520.93 Q1042.2 1524.47 1042.2 1531.6 Q1042.2 1538.71 1044 1542.27 Q1045.83 1545.82 1049.44 1545.82 Q1053.08 1545.82 1054.88 1542.27 Q1056.71 1538.71 1056.71 1531.6 Q1056.71 1524.47 1054.88 1520.93 Q1053.08 1517.37 1049.44 1517.37 M1049.44 1513.66 Q1055.25 1513.66 1058.31 1518.27 Q1061.39 1522.85 1061.39 1531.6 Q1061.39 1540.33 1058.31 1544.94 Q1055.25 1549.52 1049.44 1549.52 Q1043.63 1549.52 1040.56 1544.94 Q1037.5 1540.33 1037.5 1531.6 Q1037.5 1522.85 1040.56 1518.27 Q1043.63 1513.66 1049.44 1513.66 Z" fill="#000000" fill-rule="nonzero" fill-opacity="1" /><path clip-path="url(#clip810)" d="M1069.61 1542.97 L1074.49 1542.97 L1074.49 1548.85 L1069.61 1548.85 L1069.61 1542.97 Z" fill="#000000" fill-rule="nonzero" fill-opacity="1" /><path clip-path="url(#clip810)" d="M1084.72 1514.29 L1103.08 1514.29 L1103.08 1518.22 L1089 1518.22 L1089 1526.7 Q1090.02 1526.35 1091.04 1526.19 Q1092.06 1526 1093.08 1526 Q1098.87 1526 1102.25 1529.17 Q1105.62 1532.34 1105.62 1537.76 Q1105.62 1543.34 1102.15 1546.44 Q1098.68 1549.52 1092.36 1549.52 Q1090.18 1549.52 1087.92 1549.15 Q1085.67 1548.78 1083.26 1548.04 L1083.26 1543.34 Q1085.35 1544.47 1087.57 1545.03 Q1089.79 1545.58 1092.27 1545.58 Q1096.27 1545.58 1098.61 1543.48 Q1100.95 1541.37 1100.95 1537.76 Q1100.95 1534.15 1098.61 1532.04 Q1096.27 1529.94 1092.27 1529.94 Q1090.39 1529.94 1088.52 1530.35 Q1086.67 1530.77 1084.72 1531.65 L1084.72 1514.29 Z" fill="#000000" fill-rule="nonzero" fill-opacity="1" /><path clip-path="url(#clip810)" d="M1539.48 1517.37 Q1535.87 1517.37 1534.04 1520.93 Q1532.23 1524.47 1532.23 1531.6 Q1532.23 1538.71 1534.04 1542.27 Q1535.87 1545.82 1539.48 1545.82 Q1543.11 1545.82 1544.92 1542.27 Q1546.74 1538.71 1546.74 1531.6 Q1546.74 1524.47 1544.92 1520.93 Q1543.11 1517.37 1539.48 1517.37 M1539.48 1513.66 Q1545.29 1513.66 1548.34 1518.27 Q1551.42 1522.85 1551.42 1531.6 Q1551.42 1540.33 1548.34 1544.94 Q1545.29 1549.52 1539.48 1549.52 Q1533.67 1549.52 1530.59 1544.94 Q1527.53 1540.33 1527.53 1531.6 Q1527.53 1522.85 1530.59 1518.27 Q1533.67 1513.66 1539.48 1513.66 Z" fill="#000000" fill-rule="nonzero" fill-opacity="1" /><path clip-path="url(#clip810)" d="M1559.64 1542.97 L1564.52 1542.97 L1564.52 1548.85 L1559.64 1548.85 L1559.64 1542.97 Z" fill="#000000" fill-rule="nonzero" fill-opacity="1" /><path clip-path="url(#clip810)" d="M1584.71 1517.37 Q1581.1 1517.37 1579.27 1520.93 Q1577.46 1524.47 1577.46 1531.6 Q1577.46 1538.71 1579.27 1542.27 Q1581.1 1545.82 1584.71 1545.82 Q1588.34 1545.82 1590.15 1542.27 Q1591.98 1538.71 1591.98 1531.6 Q1591.98 1524.47 1590.15 1520.93 Q1588.34 1517.37 1584.71 1517.37 M1584.71 1513.66 Q1590.52 1513.66 1593.57 1518.27 Q1596.65 1522.85 1596.65 1531.6 Q1596.65 1540.33 1593.57 1544.94 Q1590.52 1549.52 1584.71 1549.52 Q1578.9 1549.52 1575.82 1544.94 Q1572.76 1540.33 1572.76 1531.6 Q1572.76 1522.85 1575.82 1518.27 Q1578.9 1513.66 1584.71 1513.66 Z" fill="#000000" fill-rule="nonzero" fill-opacity="1" /><path clip-path="url(#clip810)" d="M2049.42 1517.37 Q2045.8 1517.37 2043.98 1520.93 Q2042.17 1524.47 2042.17 1531.6 Q2042.17 1538.71 2043.98 1542.27 Q2045.8 1545.82 2049.42 1545.82 Q2053.05 1545.82 2054.85 1542.27 Q2056.68 1538.71 2056.68 1531.6 Q2056.68 1524.47 2054.85 1520.93 Q2053.05 1517.37 2049.42 1517.37 M2049.42 1513.66 Q2055.23 1513.66 2058.28 1518.27 Q2061.36 1522.85 2061.36 1531.6 Q2061.36 1540.33 2058.28 1544.94 Q2055.23 1549.52 2049.42 1549.52 Q2043.61 1549.52 2040.53 1544.94 Q2037.47 1540.33 2037.47 1531.6 Q2037.47 1522.85 2040.53 1518.27 Q2043.61 1513.66 2049.42 1513.66 Z" fill="#000000" fill-rule="nonzero" fill-opacity="1" /><path clip-path="url(#clip810)" d="M2069.58 1542.97 L2074.46 1542.97 L2074.46 1548.85 L2069.58 1548.85 L2069.58 1542.97 Z" fill="#000000" fill-rule="nonzero" fill-opacity="1" /><path clip-path="url(#clip810)" d="M2084.69 1514.29 L2103.05 1514.29 L2103.05 1518.22 L2088.98 1518.22 L2088.98 1526.7 Q2089.99 1526.35 2091.01 1526.19 Q2092.03 1526 2093.05 1526 Q2098.84 1526 2102.22 1529.17 Q2105.6 1532.34 2105.6 1537.76 Q2105.6 1543.34 2102.12 1546.44 Q2098.65 1549.52 2092.33 1549.52 Q2090.16 1549.52 2087.89 1549.15 Q2085.64 1548.78 2083.23 1548.04 L2083.23 1543.34 Q2085.32 1544.47 2087.54 1545.03 Q2089.76 1545.58 2092.24 1545.58 Q2096.24 1545.58 2098.58 1543.48 Q2100.92 1541.37 2100.92 1537.76 Q2100.92 1534.15 2098.58 1532.04 Q2096.24 1529.94 2092.24 1529.94 Q2090.36 1529.94 2088.49 1530.35 Q2086.64 1530.77 2084.69 1531.65 L2084.69 1514.29 Z" fill="#000000" fill-rule="nonzero" fill-opacity="1" /><polyline clip-path="url(#clip810)" style="stroke:#000000; stroke-linecap:round; stroke-linejoin:round; stroke-width:4; stroke-opacity:1; fill:none" points="112.177,1486.45 112.177,47.2441 "/>
<polyline clip-path="url(#clip810)" style="stroke:#000000; stroke-linecap:round; stroke-linejoin:round; stroke-width:4; stroke-opacity:1; fill:none" points="112.177,1246.31 131.075,1246.31 "/>
<polyline clip-path="url(#clip810)" style="stroke:#000000; stroke-linecap:round; stroke-linejoin:round; stroke-width:4; stroke-opacity:1; fill:none" points="112.177,1002.87 131.075,1002.87 "/>
<polyline clip-path="url(#clip810)" style="stroke:#000000; stroke-linecap:round; stroke-linejoin:round; stroke-width:4; stroke-opacity:1; fill:none" points="112.177,759.421 131.075,759.421 "/>
<polyline clip-path="url(#clip810)" style="stroke:#000000; stroke-linecap:round; stroke-linejoin:round; stroke-width:4; stroke-opacity:1; fill:none" points="112.177,515.977 131.075,515.977 "/>
<polyline clip-path="url(#clip810)" style="stroke:#000000; stroke-linecap:round; stroke-linejoin:round; stroke-width:4; stroke-opacity:1; fill:none" points="112.177,272.533 131.075,272.533 "/>
<path clip-path="url(#clip810)" d="M56.2699 1259.65 L63.9087 1259.65 L63.9087 1233.29 L55.5986 1234.96 L55.5986 1230.7 L63.8624 1229.03 L68.5383 1229.03 L68.5383 1259.65 L76.1772 1259.65 L76.1772 1263.59 L56.2699 1263.59 L56.2699 1259.65 Z" fill="#000000" fill-rule="nonzero" fill-opacity="1" /><path clip-path="url(#clip810)" d="M59.8578 1016.21 L76.1772 1016.21 L76.1772 1020.15 L54.2328 1020.15 L54.2328 1016.21 Q56.8949 1013.46 61.4782 1008.83 Q66.0846 1004.17 67.2652 1002.83 Q69.5105 1000.31 70.3902 998.571 Q71.2929 996.812 71.2929 995.122 Q71.2929 992.368 69.3485 990.631 Q67.4272 988.895 64.3254 988.895 Q62.1263 988.895 59.6726 989.659 Q57.2421 990.423 54.4643 991.974 L54.4643 987.252 Q57.2884 986.118 59.7421 985.539 Q62.1958 984.96 64.2328 984.96 Q69.6031 984.96 72.7976 987.645 Q75.992 990.331 75.992 994.821 Q75.992 996.951 75.1818 998.872 Q74.3948 1000.77 72.2883 1003.36 Q71.7096 1004.03 68.6078 1007.25 Q65.5059 1010.45 59.8578 1016.21 Z" fill="#000000" fill-rule="nonzero" fill-opacity="1" /><path clip-path="url(#clip810)" d="M69.0476 758.067 Q72.404 758.784 74.279 761.053 Q76.1772 763.321 76.1772 766.655 Q76.1772 771.77 72.6587 774.571 Q69.1402 777.372 62.6587 777.372 Q60.4828 777.372 58.168 776.932 Q55.8764 776.516 53.4227 775.659 L53.4227 771.145 Q55.3671 772.28 57.6819 772.858 Q59.9967 773.437 62.5198 773.437 Q66.918 773.437 69.2096 771.701 Q71.5244 769.965 71.5244 766.655 Q71.5244 763.599 69.3717 761.886 Q67.242 760.15 63.4226 760.15 L59.3949 760.15 L59.3949 756.308 L63.6078 756.308 Q67.0569 756.308 68.8855 754.942 Q70.7142 753.553 70.7142 750.96 Q70.7142 748.298 68.8161 746.886 Q66.9411 745.451 63.4226 745.451 Q61.5013 745.451 59.3023 745.868 Q57.1032 746.284 54.4643 747.164 L54.4643 742.997 Q57.1264 742.257 59.4412 741.886 Q61.7791 741.516 63.8393 741.516 Q69.1633 741.516 72.2652 743.947 Q75.367 746.354 75.367 750.474 Q75.367 753.345 73.7235 755.335 Q72.08 757.303 69.0476 758.067 Z" fill="#000000" fill-rule="nonzero" fill-opacity="1" /><path clip-path="url(#clip810)" d="M66.5939 502.771 L54.7884 521.22 L66.5939 521.22 L66.5939 502.771 M65.367 498.697 L71.2466 498.697 L71.2466 521.22 L76.1772 521.22 L76.1772 525.109 L71.2466 525.109 L71.2466 533.257 L66.5939 533.257 L66.5939 525.109 L50.9921 525.109 L50.9921 520.595 L65.367 498.697 Z" fill="#000000" fill-rule="nonzero" fill-opacity="1" /><path clip-path="url(#clip810)" d="M55.2745 255.253 L73.6309 255.253 L73.6309 259.188 L59.5569 259.188 L59.5569 267.66 Q60.5754 267.313 61.5939 267.151 Q62.6124 266.965 63.6309 266.965 Q69.418 266.965 72.7976 270.137 Q76.1772 273.308 76.1772 278.725 Q76.1772 284.303 72.705 287.405 Q69.2328 290.484 62.9134 290.484 Q60.7374 290.484 58.4689 290.114 Q56.2236 289.743 53.8162 289.002 L53.8162 284.303 Q55.8995 285.438 58.1217 285.993 Q60.3439 286.549 62.8208 286.549 Q66.8254 286.549 69.1633 284.442 Q71.5013 282.336 71.5013 278.725 Q71.5013 275.114 69.1633 273.007 Q66.8254 270.901 62.8208 270.901 Q60.9458 270.901 59.0708 271.317 Q57.2189 271.734 55.2745 272.614 L55.2745 255.253 Z" fill="#000000" fill-rule="nonzero" fill-opacity="1" /><circle clip-path="url(#clip811)" cx="2289.34" cy="1318.29" r="14.4" fill="#808080" fill-rule="evenodd" fill-opacity="1" stroke="#000000" stroke-opacity="1" stroke-width="3.2"/>
<circle clip-path="url(#clip811)" cx="175.59" cy="87.9763" r="14.4" fill="#808080" fill-rule="evenodd" fill-opacity="1" stroke="#000000" stroke-opacity="1" stroke-width="3.2"/>
<circle clip-path="url(#clip811)" cx="1625.63" cy="1445.72" r="14.4" fill="#808080" fill-rule="evenodd" fill-opacity="1" stroke="#000000" stroke-opacity="1" stroke-width="3.2"/>
<circle clip-path="url(#clip811)" cx="1441.49" cy="1415.07" r="14.4" fill="#808080" fill-rule="evenodd" fill-opacity="1" stroke="#000000" stroke-opacity="1" stroke-width="3.2"/>
<path clip-path="url(#clip810)" d="M2293.64 1325.73 Q2284.6 1325.73 2281.12 1327.79 Q2277.64 1329.86 2277.64 1334.84 Q2277.64 1338.81 2280.23 1341.16 Q2282.86 1343.47 2287.36 1343.47 Q2293.56 1343.47 2297.28 1339.1 Q2301.05 1334.68 2301.05 1327.39 L2301.05 1325.73 L2293.64 1325.73 M2308.5 1322.65 L2308.5 1348.53 L2301.05 1348.53 L2301.05 1341.65 Q2298.5 1345.78 2294.69 1347.77 Q2290.88 1349.71 2285.37 1349.71 Q2278.41 1349.71 2274.27 1345.82 Q2270.18 1341.89 2270.18 1335.33 Q2270.18 1327.67 2275.29 1323.78 Q2280.43 1319.89 2290.6 1319.89 L2301.05 1319.89 L2301.05 1319.17 Q2301.05 1314.02 2297.65 1311.23 Q2294.29 1308.39 2288.17 1308.39 Q2284.28 1308.39 2280.59 1309.32 Q2276.91 1310.25 2273.5 1312.12 L2273.5 1305.23 Q2277.6 1303.65 2281.44 1302.88 Q2285.29 1302.07 2288.94 1302.07 Q2298.78 1302.07 2303.64 1307.18 Q2308.5 1312.28 2308.5 1322.65 Z" fill="#000000" fill-rule="nonzero" fill-opacity="1" /><path clip-path="url(#clip810)" d="M188.148 95.5717 Q188.148 87.3484 184.745 82.6898 Q181.383 77.9908 175.468 77.9908 Q169.554 77.9908 166.151 82.6898 Q162.789 87.3484 162.789 95.5717 Q162.789 103.795 166.151 108.494 Q169.554 113.153 175.468 113.153 Q181.383 113.153 184.745 108.494 Q188.148 103.795 188.148 95.5717 M162.789 79.7327 Q165.138 75.6818 168.703 73.7373 Q172.309 71.7524 177.291 71.7524 Q185.555 71.7524 190.7 78.3149 Q195.885 84.8773 195.885 95.5717 Q195.885 106.266 190.7 112.829 Q185.555 119.391 177.291 119.391 Q172.309 119.391 168.703 117.447 Q165.138 115.462 162.789 111.411 L162.789 118.216 L155.295 118.216 L155.295 55.1842 L162.789 55.1842 L162.789 79.7327 Z" fill="#000000" fill-rule="nonzero" fill-opacity="1" /><path clip-path="url(#clip810)" d="M1643.58 1432.33 L1643.58 1439.3 Q1640.42 1437.55 1637.22 1436.7 Q1634.06 1435.81 1630.82 1435.81 Q1623.57 1435.81 1619.56 1440.43 Q1615.55 1445.01 1615.55 1453.31 Q1615.55 1461.62 1619.56 1466.23 Q1623.57 1470.81 1630.82 1470.81 Q1634.06 1470.81 1637.22 1469.96 Q1640.42 1469.07 1643.58 1467.33 L1643.58 1474.21 Q1640.46 1475.67 1637.1 1476.4 Q1633.77 1477.13 1630.01 1477.13 Q1619.76 1477.13 1613.72 1470.69 Q1607.69 1464.25 1607.69 1453.31 Q1607.69 1442.21 1613.76 1435.85 Q1619.88 1429.49 1630.49 1429.49 Q1633.94 1429.49 1637.22 1430.22 Q1640.5 1430.91 1643.58 1432.33 Z" fill="#000000" fill-rule="nonzero" fill-opacity="1" /><path clip-path="url(#clip810)" d="M1454.31 1406.83 L1454.31 1382.28 L1461.77 1382.28 L1461.77 1445.31 L1454.31 1445.31 L1454.31 1438.5 Q1451.96 1442.55 1448.36 1444.54 Q1444.79 1446.48 1439.77 1446.48 Q1431.55 1446.48 1426.36 1439.92 Q1421.22 1433.36 1421.22 1422.66 Q1421.22 1411.97 1426.36 1405.41 Q1431.55 1398.85 1439.77 1398.85 Q1444.79 1398.85 1448.36 1400.83 Q1451.96 1402.77 1454.31 1406.83 M1428.91 1422.66 Q1428.91 1430.89 1432.28 1435.59 Q1435.68 1440.25 1441.59 1440.25 Q1447.51 1440.25 1450.91 1435.59 Q1454.31 1430.89 1454.31 1422.66 Q1454.31 1414.44 1450.91 1409.78 Q1447.51 1405.08 1441.59 1405.08 Q1435.68 1405.08 1432.28 1409.78 Q1428.91 1414.44 1428.91 1422.66 Z" fill="#000000" fill-rule="nonzero" fill-opacity="1" /><path clip-path="url(#clip810)" d="M2001.58 198.898 L2278.07 198.898 L2278.07 95.2176 L2001.58 95.2176  Z" fill="#ffffff" fill-rule="evenodd" fill-opacity="1"/>
<polyline clip-path="url(#clip810)" style="stroke:#000000; stroke-linecap:round; stroke-linejoin:round; stroke-width:4; stroke-opacity:1; fill:none" points="2001.58,198.898 2278.07,198.898 2278.07,95.2176 2001.58,95.2176 2001.58,198.898 "/>
<circle clip-path="url(#clip810)" cx="2101.16" cy="147.058" r="20.48" fill="#808080" fill-rule="evenodd" fill-opacity="1" stroke="#000000" stroke-opacity="1" stroke-width="4.55111"/>
<path clip-path="url(#clip810)" d="M2214.59 166.745 Q2212.78 171.375 2211.07 172.787 Q2209.36 174.199 2206.49 174.199 L2203.08 174.199 L2203.08 170.634 L2205.58 170.634 Q2207.34 170.634 2208.31 169.8 Q2209.29 168.967 2210.47 165.865 L2211.23 163.921 L2200.74 138.412 L2205.26 138.412 L2213.36 158.689 L2221.46 138.412 L2225.98 138.412 L2214.59 166.745 Z" fill="#000000" fill-rule="nonzero" fill-opacity="1" /><path clip-path="url(#clip810)" d="M2233.27 160.402 L2240.91 160.402 L2240.91 134.037 L2232.6 135.703 L2232.6 131.444 L2240.86 129.778 L2245.54 129.778 L2245.54 160.402 L2253.17 160.402 L2253.17 164.338 L2233.27 164.338 L2233.27 160.402 Z" fill="#000000" fill-rule="nonzero" fill-opacity="1" /></svg>
