<?xml version="1.0" encoding="utf-8"?>
<svg xmlns="http://www.w3.org/2000/svg" xmlns:xlink="http://www.w3.org/1999/xlink" width="600" height="400" viewBox="0 0 2400 1600">
<defs>
  <clipPath id="clip780">
    <rect x="0" y="0" width="2400" height="1600"/>
  </clipPath>
</defs>
<path clip-path="url(#clip780)" d="M0 1600 L2400 1600 L2400 0 L0 0  Z" fill="#ffffff" fill-rule="evenodd" fill-opacity="1"/>
<defs>
  <clipPath id="clip781">
    <rect x="156" y="47" width="2197" height="1440"/>
  </clipPath>
</defs>
<path clip-path="url(#clip780)" d="M156.598 1486.45 L2352.76 1486.45 L2352.76 47.2441 L156.598 47.2441  Z" fill="#ffffff" fill-rule="evenodd" fill-opacity="1"/>
<polyline clip-path="url(#clip781)" style="stroke:#000000; stroke-linecap:round; stroke-linejoin:round; stroke-width:2; stroke-opacity:0.1; fill:none" points="402.545,1486.45 402.545,47.2441 "/>
<polyline clip-path="url(#clip781)" style="stroke:#000000; stroke-linecap:round; stroke-linejoin:round; stroke-width:2; stroke-opacity:0.1; fill:none" points="944.17,1486.45 944.17,47.2441 "/>
<polyline clip-path="url(#clip781)" style="stroke:#000000; stroke-linecap:round; stroke-linejoin:round; stroke-width:2; stroke-opacity:0.1; fill:none" points="1485.8,1486.45 1485.8,47.2441 "/>
<polyline clip-path="url(#clip781)" style="stroke:#000000; stroke-linecap:round; stroke-linejoin:round; stroke-width:2; stroke-opacity:0.1; fill:none" points="2027.42,1486.45 2027.42,47.2441 "/>
<polyline clip-path="url(#clip781)" style="stroke:#000000; stroke-linecap:round; stroke-linejoin:round; stroke-width:2; stroke-opacity:0.1; fill:none" points="156.598,1447.72 2352.76,1447.72 "/>
<polyline clip-path="url(#clip781)" style="stroke:#000000; stroke-linecap:round; stroke-linejoin:round; stroke-width:2; stroke-opacity:0.1; fill:none" points="156.598,1052.58 2352.76,1052.58 "/>
<polyline clip-path="url(#clip781)" style="stroke:#000000; stroke-linecap:round; stroke-linejoin:round; stroke-width:2; stroke-opacity:0.1; fill:none" points="156.598,657.443 2352.76,657.443 "/>
<polyline clip-path="url(#clip781)" style="stroke:#000000; stroke-linecap:round; stroke-linejoin:round; stroke-width:2; stroke-opacity:0.1; fill:none" points="156.598,262.306 2352.76,262.306 "/>
<polyline clip-path="url(#clip780)" style="stroke:#000000; stroke-linecap:round; stroke-linejoin:round; stroke-width:4; stroke-opacity:1; fill:none" points="156.598,1486.45 2352.76,1486.45 "/>
<polyline clip-path="url(#clip780)" style="stroke:#000000; stroke-linecap:round; stroke-linejoin:round; stroke-width:4; stroke-opacity:1; fill:none" points="402.545,1486.45 402.545,1467.55 "/>
<polyline clip-path="url(#clip780)" style="stroke:#000000; stroke-linecap:round; stroke-linejoin:round; stroke-width:4; stroke-opacity:1; fill:none" points="944.17,1486.45 944.17,1467.55 "/>
<polyline clip-path="url(#clip780)" style="stroke:#000000; stroke-linecap:round; stroke-linejoin:round; stroke-width:4; stroke-opacity:1; fill:none" points="1485.8,1486.45 1485.8,1467.55 "/>
<polyline clip-path="url(#clip780)" style="stroke:#000000; stroke-linecap:round; stroke-linejoin:round; stroke-width:4; stroke-opacity:1; fill:none" points="2027.42,1486.45 2027.42,1467.55 "/>
<path clip-path="url(#clip780)" d="M333.992 1532.02 L363.668 1532.02 L363.668 1535.95 L333.992 1535.95 L333.992 1532.02 Z" fill="#000000" fill-rule="nonzero" fill-opacity="1" /><path clip-path="url(#clip780)" d="M383.761 1517.37 Q380.15 1517.37 378.321 1520.93 Q376.515 1524.47 376.515 1531.6 Q376.515 1538.71 378.321 1542.27 Q380.15 1545.82 383.761 1545.82 Q387.395 1545.82 389.2 1542.27 Q391.029 1538.71 391.029 1531.6 Q391.029 1524.47 389.2 1520.93 Q387.395 1517.37 383.761 1517.37 M383.761 1513.66 Q389.571 1513.66 392.626 1518.27 Q395.705 1522.85 395.705 1531.6 Q395.705 1540.33 392.626 1544.94 Q389.571 1549.52 383.761 1549.52 Q377.951 1549.52 374.872 1544.94 Q371.816 1540.33 371.816 1531.6 Q371.816 1522.85 374.872 1518.27 Q377.951 1513.66 383.761 1513.66 Z" fill="#000000" fill-rule="nonzero" fill-opacity="1" /><path clip-path="url(#clip780)" d="M403.923 1542.97 L408.807 1542.97 L408.807 1548.85 L403.923 1548.85 L403.923 1542.97 Z" fill="#000000" fill-rule="nonzero" fill-opacity="1" /><path clip-path="url(#clip780)" d="M419.038 1514.29 L437.395 1514.29 L437.395 1518.22 L423.321 1518.22 L423.321 1526.7 Q424.339 1526.35 425.358 1526.19 Q426.376 1526 427.395 1526 Q433.182 1526 436.561 1529.17 Q439.941 1532.34 439.941 1537.76 Q439.941 1543.34 436.469 1546.44 Q432.997 1549.52 426.677 1549.52 Q424.501 1549.52 422.233 1549.15 Q419.987 1548.78 417.58 1548.04 L417.58 1543.34 Q419.663 1544.47 421.885 1545.03 Q424.108 1545.58 426.585 1545.58 Q430.589 1545.58 432.927 1543.48 Q435.265 1541.37 435.265 1537.76 Q435.265 1534.15 432.927 1532.04 Q430.589 1529.94 426.585 1529.94 Q424.71 1529.94 422.835 1530.35 Q420.983 1530.77 419.038 1531.65 L419.038 1514.29 Z" fill="#000000" fill-rule="nonzero" fill-opacity="1" /><path clip-path="url(#clip780)" d="M459.154 1517.37 Q455.543 1517.37 453.714 1520.93 Q451.908 1524.47 451.908 1531.6 Q451.908 1538.71 453.714 1542.27 Q455.543 1545.82 459.154 1545.82 Q462.788 1545.82 464.594 1542.27 Q466.422 1538.71 466.422 1531.6 Q466.422 1524.47 464.594 1520.93 Q462.788 1517.37 459.154 1517.37 M459.154 1513.66 Q464.964 1513.66 468.019 1518.27 Q471.098 1522.85 471.098 1531.6 Q471.098 1540.33 468.019 1544.94 Q464.964 1549.52 459.154 1549.52 Q453.344 1549.52 450.265 1544.94 Q447.209 1540.33 447.209 1531.6 Q447.209 1522.85 450.265 1518.27 Q453.344 1513.66 459.154 1513.66 Z" fill="#000000" fill-rule="nonzero" fill-opacity="1" /><path clip-path="url(#clip780)" d="M876.115 1532.02 L905.791 1532.02 L905.791 1535.95 L876.115 1535.95 L876.115 1532.02 Z" fill="#000000" fill-rule="nonzero" fill-opacity="1" /><path clip-path="url(#clip780)" d="M925.883 1517.37 Q922.272 1517.37 920.444 1520.93 Q918.638 1524.47 918.638 1531.6 Q918.638 1538.71 920.444 1542.27 Q922.272 1545.82 925.883 1545.82 Q929.518 1545.82 931.323 1542.27 Q933.152 1538.71 933.152 1531.6 Q933.152 1524.47 931.323 1520.93 Q929.518 1517.37 925.883 1517.37 M925.883 1513.66 Q931.694 1513.66 934.749 1518.27 Q937.828 1522.85 937.828 1531.6 Q937.828 1540.33 934.749 1544.94 Q931.694 1549.52 925.883 1549.52 Q920.073 1549.52 916.995 1544.94 Q913.939 1540.33 913.939 1531.6 Q913.939 1522.85 916.995 1518.27 Q920.073 1513.66 925.883 1513.66 Z" fill="#000000" fill-rule="nonzero" fill-opacity="1" /><path clip-path="url(#clip780)" d="M946.045 1542.97 L950.93 1542.97 L950.93 1548.85 L946.045 1548.85 L946.045 1542.97 Z" fill="#000000" fill-rule="nonzero" fill-opacity="1" /><path clip-path="url(#clip780)" d="M965.142 1544.91 L981.462 1544.91 L981.462 1548.85 L959.517 1548.85 L959.517 1544.91 Q962.18 1542.16 966.763 1537.53 Q971.369 1532.88 972.55 1531.53 Q974.795 1529.01 975.675 1527.27 Q976.578 1525.51 976.578 1523.82 Q976.578 1521.07 974.633 1519.33 Q972.712 1517.6 969.61 1517.6 Q967.411 1517.6 964.957 1518.36 Q962.527 1519.13 959.749 1520.68 L959.749 1515.95 Q962.573 1514.82 965.027 1514.24 Q967.48 1513.66 969.517 1513.66 Q974.888 1513.66 978.082 1516.35 Q981.277 1519.03 981.277 1523.52 Q981.277 1525.65 980.466 1527.57 Q979.679 1529.47 977.573 1532.07 Q976.994 1532.74 973.892 1535.95 Q970.791 1539.15 965.142 1544.91 Z" fill="#000000" fill-rule="nonzero" fill-opacity="1" /><path clip-path="url(#clip780)" d="M991.323 1514.29 L1009.68 1514.29 L1009.68 1518.22 L995.605 1518.22 L995.605 1526.7 Q996.624 1526.35 997.642 1526.19 Q998.661 1526 999.679 1526 Q1005.47 1526 1008.85 1529.17 Q1012.23 1532.34 1012.23 1537.76 Q1012.23 1543.34 1008.75 1546.44 Q1005.28 1549.52 998.962 1549.52 Q996.786 1549.52 994.517 1549.15 Q992.272 1548.78 989.865 1548.04 L989.865 1543.34 Q991.948 1544.47 994.17 1545.03 Q996.392 1545.58 998.869 1545.58 Q1002.87 1545.58 1005.21 1543.48 Q1007.55 1541.37 1007.55 1537.76 Q1007.55 1534.15 1005.21 1532.04 Q1002.87 1529.94 998.869 1529.94 Q996.994 1529.94 995.119 1530.35 Q993.267 1530.77 991.323 1531.65 L991.323 1514.29 Z" fill="#000000" fill-rule="nonzero" fill-opacity="1" /><path clip-path="url(#clip780)" d="M1448.1 1517.37 Q1444.49 1517.37 1442.66 1520.93 Q1440.85 1524.47 1440.85 1531.6 Q1440.85 1538.71 1442.66 1542.27 Q1444.49 1545.82 1448.1 1545.82 Q1451.73 1545.82 1453.54 1542.27 Q1455.37 1538.71 1455.37 1531.6 Q1455.37 1524.47 1453.54 1520.93 Q1451.73 1517.37 1448.1 1517.37 M1448.1 1513.66 Q1453.91 1513.66 1456.96 1518.27 Q1460.04 1522.85 1460.04 1531.6 Q1460.04 1540.33 1456.96 1544.94 Q1453.91 1549.52 1448.1 1549.52 Q1442.29 1549.52 1439.21 1544.94 Q1436.15 1540.33 1436.15 1531.6 Q1436.15 1522.85 1439.21 1518.27 Q1442.29 1513.66 1448.1 1513.66 Z" fill="#000000" fill-rule="nonzero" fill-opacity="1" /><path clip-path="url(#clip780)" d="M1468.26 1542.97 L1473.15 1542.97 L1473.15 1548.85 L1468.26 1548.85 L1468.26 1542.97 Z" fill="#000000" fill-rule="nonzero" fill-opacity="1" /><path clip-path="url(#clip780)" d="M1493.33 1517.37 Q1489.72 1517.37 1487.89 1520.93 Q1486.08 1524.47 1486.08 1531.6 Q1486.08 1538.71 1487.89 1542.27 Q1489.72 1545.82 1493.33 1545.82 Q1496.96 1545.82 1498.77 1542.27 Q1500.6 1538.71 1500.6 1531.6 Q1500.6 1524.47 1498.77 1520.93 Q1496.96 1517.37 1493.33 1517.37 M1493.33 1513.66 Q1499.14 1513.66 1502.2 1518.27 Q1505.27 1522.85 1505.27 1531.6 Q1505.27 1540.33 1502.2 1544.94 Q1499.14 1549.52 1493.33 1549.52 Q1487.52 1549.52 1484.44 1544.94 Q1481.39 1540.33 1481.39 1531.6 Q1481.39 1522.85 1484.44 1518.27 Q1487.52 1513.66 1493.33 1513.66 Z" fill="#000000" fill-rule="nonzero" fill-opacity="1" /><path clip-path="url(#clip780)" d="M1523.49 1517.37 Q1519.88 1517.37 1518.05 1520.93 Q1516.25 1524.47 1516.25 1531.6 Q1516.25 1538.71 1518.05 1542.27 Q1519.88 1545.82 1523.49 1545.82 Q1527.13 1545.82 1528.93 1542.27 Q1530.76 1538.71 1530.76 1531.6 Q1530.76 1524.47 1528.93 1520.93 Q1527.13 1517.37 1523.49 1517.37 M1523.49 1513.66 Q1529.3 1513.66 1532.36 1518.27 Q1535.44 1522.85 1535.44 1531.6 Q1535.44 1540.33 1532.36 1544.94 Q1529.3 1549.52 1523.49 1549.52 Q1517.68 1549.52 1514.6 1544.94 Q1511.55 1540.33 1511.55 1531.6 Q1511.55 1522.85 1514.6 1518.27 Q1517.68 1513.66 1523.49 1513.66 Z" fill="#000000" fill-rule="nonzero" fill-opacity="1" /><path clip-path="url(#clip780)" d="M1990.22 1517.37 Q1986.61 1517.37 1984.78 1520.93 Q1982.98 1524.47 1982.98 1531.6 Q1982.98 1538.71 1984.78 1542.27 Q1986.61 1545.82 1990.22 1545.82 Q1993.86 1545.82 1995.66 1542.27 Q1997.49 1538.71 1997.49 1531.6 Q1997.49 1524.47 1995.66 1520.93 Q1993.86 1517.37 1990.22 1517.37 M1990.22 1513.66 Q1996.03 1513.66 1999.09 1518.27 Q2002.17 1522.85 2002.17 1531.6 Q2002.17 1540.33 1999.09 1544.94 Q1996.03 1549.52 1990.22 1549.52 Q1984.41 1549.52 1981.33 1544.94 Q1978.28 1540.33 1978.28 1531.6 Q1978.28 1522.85 1981.33 1518.27 Q1984.41 1513.66 1990.22 1513.66 Z" fill="#000000" fill-rule="nonzero" fill-opacity="1" /><path clip-path="url(#clip780)" d="M2010.38 1542.97 L2015.27 1542.97 L2015.27 1548.85 L2010.38 1548.85 L2010.38 1542.97 Z" fill="#000000" fill-rule="nonzero" fill-opacity="1" /><path clip-path="url(#clip780)" d="M2029.48 1544.91 L2045.8 1544.91 L2045.8 1548.85 L2023.86 1548.85 L2023.86 1544.91 Q2026.52 1542.16 2031.1 1537.53 Q2035.71 1532.88 2036.89 1531.53 Q2039.13 1529.01 2040.01 1527.27 Q2040.92 1525.51 2040.92 1523.82 Q2040.92 1521.07 2038.97 1519.33 Q2037.05 1517.6 2033.95 1517.6 Q2031.75 1517.6 2029.3 1518.36 Q2026.86 1519.13 2024.09 1520.68 L2024.09 1515.95 Q2026.91 1514.82 2029.36 1514.24 Q2031.82 1513.66 2033.86 1513.66 Q2039.23 1513.66 2042.42 1516.35 Q2045.61 1519.03 2045.61 1523.52 Q2045.61 1525.65 2044.8 1527.57 Q2044.02 1529.47 2041.91 1532.07 Q2041.33 1532.74 2038.23 1535.95 Q2035.13 1539.15 2029.48 1544.91 Z" fill="#000000" fill-rule="nonzero" fill-opacity="1" /><path clip-path="url(#clip780)" d="M2055.66 1514.29 L2074.02 1514.29 L2074.02 1518.22 L2059.94 1518.22 L2059.94 1526.7 Q2060.96 1526.35 2061.98 1526.19 Q2063 1526 2064.02 1526 Q2069.8 1526 2073.18 1529.17 Q2076.56 1532.34 2076.56 1537.76 Q2076.56 1543.34 2073.09 1546.44 Q2069.62 1549.52 2063.3 1549.52 Q2061.12 1549.52 2058.86 1549.15 Q2056.61 1548.78 2054.2 1548.04 L2054.2 1543.34 Q2056.29 1544.47 2058.51 1545.03 Q2060.73 1545.58 2063.21 1545.58 Q2067.21 1545.58 2069.55 1543.48 Q2071.89 1541.37 2071.89 1537.76 Q2071.89 1534.15 2069.55 1532.04 Q2067.21 1529.94 2063.21 1529.94 Q2061.33 1529.94 2059.46 1530.35 Q2057.61 1530.77 2055.66 1531.65 L2055.66 1514.29 Z" fill="#000000" fill-rule="nonzero" fill-opacity="1" /><polyline clip-path="url(#clip780)" style="stroke:#000000; stroke-linecap:round; stroke-linejoin:round; stroke-width:4; stroke-opacity:1; fill:none" points="156.598,1486.45 156.598,47.2441 "/>
<polyline clip-path="url(#clip780)" style="stroke:#000000; stroke-linecap:round; stroke-linejoin:round; stroke-width:4; stroke-opacity:1; fill:none" points="156.598,1447.72 175.496,1447.72 "/>
<polyline clip-path="url(#clip780)" style="stroke:#000000; stroke-linecap:round; stroke-linejoin:round; stroke-width:4; stroke-opacity:1; fill:none" points="156.598,1052.58 175.496,1052.58 "/>
<polyline clip-path="url(#clip780)" style="stroke:#000000; stroke-linecap:round; stroke-linejoin:round; stroke-width:4; stroke-opacity:1; fill:none" points="156.598,657.443 175.496,657.443 "/>
<polyline clip-path="url(#clip780)" style="stroke:#000000; stroke-linecap:round; stroke-linejoin:round; stroke-width:4; stroke-opacity:1; fill:none" points="156.598,262.306 175.496,262.306 "/>
<path clip-path="url(#clip780)" d="M63.4226 1433.52 Q59.8115 1433.52 57.9828 1437.08 Q56.1773 1440.62 56.1773 1447.75 Q56.1773 1454.86 57.9828 1458.42 Q59.8115 1461.97 63.4226 1461.97 Q67.0569 1461.97 68.8624 1458.42 Q70.6911 1454.86 70.6911 1447.75 Q70.6911 1440.62 68.8624 1437.08 Q67.0569 1433.52 63.4226 1433.52 M63.4226 1429.81 Q69.2328 1429.81 72.2883 1434.42 Q75.367 1439 75.367 1447.75 Q75.367 1456.48 72.2883 1461.09 Q69.2328 1465.67 63.4226 1465.67 Q57.6125 1465.67 54.5338 1461.09 Q51.4782 1456.48 51.4782 1447.75 Q51.4782 1439 54.5338 1434.42 Q57.6125 1429.81 63.4226 1429.81 Z" fill="#000000" fill-rule="nonzero" fill-opacity="1" /><path clip-path="url(#clip780)" d="M83.5845 1459.12 L88.4688 1459.12 L88.4688 1465 L83.5845 1465 L83.5845 1459.12 Z" fill="#000000" fill-rule="nonzero" fill-opacity="1" /><path clip-path="url(#clip780)" d="M108.654 1433.52 Q105.043 1433.52 103.214 1437.08 Q101.409 1440.62 101.409 1447.75 Q101.409 1454.86 103.214 1458.42 Q105.043 1461.97 108.654 1461.97 Q112.288 1461.97 114.094 1458.42 Q115.922 1454.86 115.922 1447.75 Q115.922 1440.62 114.094 1437.08 Q112.288 1433.52 108.654 1433.52 M108.654 1429.81 Q114.464 1429.81 117.52 1434.42 Q120.598 1439 120.598 1447.75 Q120.598 1456.48 117.52 1461.09 Q114.464 1465.67 108.654 1465.67 Q102.844 1465.67 99.765 1461.09 Q96.7095 1456.48 96.7095 1447.75 Q96.7095 1439 99.765 1434.42 Q102.844 1429.81 108.654 1429.81 Z" fill="#000000" fill-rule="nonzero" fill-opacity="1" /><path clip-path="url(#clip780)" d="M65.0198 1038.38 Q61.4087 1038.38 59.58 1041.94 Q57.7745 1045.49 57.7745 1052.62 Q57.7745 1059.72 59.58 1063.29 Q61.4087 1066.83 65.0198 1066.83 Q68.6541 1066.83 70.4596 1063.29 Q72.2883 1059.72 72.2883 1052.62 Q72.2883 1045.49 70.4596 1041.94 Q68.6541 1038.38 65.0198 1038.38 M65.0198 1034.68 Q70.83 1034.68 73.8855 1039.28 Q76.9642 1043.87 76.9642 1052.62 Q76.9642 1061.34 73.8855 1065.95 Q70.83 1070.53 65.0198 1070.53 Q59.2097 1070.53 56.131 1065.95 Q53.0754 1061.34 53.0754 1052.62 Q53.0754 1043.87 56.131 1039.28 Q59.2097 1034.68 65.0198 1034.68 Z" fill="#000000" fill-rule="nonzero" fill-opacity="1" /><path clip-path="url(#clip780)" d="M85.1818 1063.98 L90.066 1063.98 L90.066 1069.86 L85.1818 1069.86 L85.1818 1063.98 Z" fill="#000000" fill-rule="nonzero" fill-opacity="1" /><path clip-path="url(#clip780)" d="M104.279 1065.93 L120.598 1065.93 L120.598 1069.86 L98.6539 1069.86 L98.6539 1065.93 Q101.316 1063.17 105.899 1058.54 Q110.506 1053.89 111.686 1052.55 Q113.932 1050.02 114.811 1048.29 Q115.714 1046.53 115.714 1044.84 Q115.714 1042.08 113.77 1040.35 Q111.848 1038.61 108.746 1038.61 Q106.547 1038.61 104.094 1039.37 Q101.663 1040.14 98.8854 1041.69 L98.8854 1036.97 Q101.709 1035.83 104.163 1035.25 Q106.617 1034.68 108.654 1034.68 Q114.024 1034.68 117.219 1037.36 Q120.413 1040.05 120.413 1044.54 Q120.413 1046.67 119.603 1048.59 Q118.816 1050.49 116.709 1053.08 Q116.131 1053.75 113.029 1056.97 Q109.927 1060.16 104.279 1065.93 Z" fill="#000000" fill-rule="nonzero" fill-opacity="1" /><path clip-path="url(#clip780)" d="M62.9365 643.242 Q59.3254 643.242 57.4967 646.807 Q55.6912 650.349 55.6912 657.478 Q55.6912 664.585 57.4967 668.149 Q59.3254 671.691 62.9365 671.691 Q66.5707 671.691 68.3763 668.149 Q70.205 664.585 70.205 657.478 Q70.205 650.349 68.3763 646.807 Q66.5707 643.242 62.9365 643.242 M62.9365 639.538 Q68.7467 639.538 71.8022 644.145 Q74.8809 648.728 74.8809 657.478 Q74.8809 666.205 71.8022 670.811 Q68.7467 675.395 62.9365 675.395 Q57.1264 675.395 54.0477 670.811 Q50.9921 666.205 50.9921 657.478 Q50.9921 648.728 54.0477 644.145 Q57.1264 639.538 62.9365 639.538 Z" fill="#000000" fill-rule="nonzero" fill-opacity="1" /><path clip-path="url(#clip780)" d="M83.0984 668.844 L87.9827 668.844 L87.9827 674.723 L83.0984 674.723 L83.0984 668.844 Z" fill="#000000" fill-rule="nonzero" fill-opacity="1" /><path clip-path="url(#clip780)" d="M111.015 644.237 L99.2095 662.686 L111.015 662.686 L111.015 644.237 M109.788 640.163 L115.668 640.163 L115.668 662.686 L120.598 662.686 L120.598 666.575 L115.668 666.575 L115.668 674.723 L111.015 674.723 L111.015 666.575 L95.4132 666.575 L95.4132 662.061 L109.788 640.163 Z" fill="#000000" fill-rule="nonzero" fill-opacity="1" /><path clip-path="url(#clip780)" d="M63.2606 248.105 Q59.6495 248.105 57.8208 251.669 Q56.0152 255.211 56.0152 262.341 Q56.0152 269.447 57.8208 273.012 Q59.6495 276.554 63.2606 276.554 Q66.8948 276.554 68.7004 273.012 Q70.5291 269.447 70.5291 262.341 Q70.5291 255.211 68.7004 251.669 Q66.8948 248.105 63.2606 248.105 M63.2606 244.401 Q69.0707 244.401 72.1263 249.007 Q75.205 253.591 75.205 262.341 Q75.205 271.067 72.1263 275.674 Q69.0707 280.257 63.2606 280.257 Q57.4504 280.257 54.3717 275.674 Q51.3162 271.067 51.3162 262.341 Q51.3162 253.591 54.3717 249.007 Q57.4504 244.401 63.2606 244.401 Z" fill="#000000" fill-rule="nonzero" fill-opacity="1" /><path clip-path="url(#clip780)" d="M83.4225 273.706 L88.3067 273.706 L88.3067 279.586 L83.4225 279.586 L83.4225 273.706 Z" fill="#000000" fill-rule="nonzero" fill-opacity="1" /><path clip-path="url(#clip780)" d="M109.071 260.443 Q105.922 260.443 104.071 262.595 Q102.242 264.748 102.242 268.498 Q102.242 272.225 104.071 274.401 Q105.922 276.554 109.071 276.554 Q112.219 276.554 114.047 274.401 Q115.899 272.225 115.899 268.498 Q115.899 264.748 114.047 262.595 Q112.219 260.443 109.071 260.443 M118.353 245.79 L118.353 250.049 Q116.594 249.216 114.788 248.776 Q113.006 248.336 111.246 248.336 Q106.617 248.336 104.163 251.461 Q101.733 254.586 101.385 260.905 Q102.751 258.892 104.811 257.827 Q106.871 256.739 109.348 256.739 Q114.557 256.739 117.566 259.91 Q120.598 263.058 120.598 268.498 Q120.598 273.822 117.45 277.04 Q114.302 280.257 109.071 280.257 Q103.075 280.257 99.9039 275.674 Q96.7326 271.067 96.7326 262.341 Q96.7326 254.146 100.621 249.285 Q104.51 244.401 111.061 244.401 Q112.82 244.401 114.603 244.748 Q116.408 245.095 118.353 245.79 Z" fill="#000000" fill-rule="nonzero" fill-opacity="1" /><circle clip-path="url(#clip781)" cx="1539.86" cy="1347.45" r="14.4" fill="#808080" fill-rule="evenodd" fill-opacity="1" stroke="#000000" stroke-opacity="1" stroke-width="3.2"/>
<circle clip-path="url(#clip781)" cx="1461.7" cy="1445.72" r="14.4" fill="#808080" fill-rule="evenodd" fill-opacity="1" stroke="#000000" stroke-opacity="1" stroke-width="3.2"/>
<circle clip-path="url(#clip781)" cx="2290.6" cy="1370.73" r="14.4" fill="#808080" fill-rule="evenodd" fill-opacity="1" stroke="#000000" stroke-opacity="1" stroke-width="3.2"/>
<circle clip-path="url(#clip781)" cx="218.754" cy="87.9763" r="14.4" fill="#808080" fill-rule="evenodd" fill-opacity="1" stroke="#000000" stroke-opacity="1" stroke-width="3.2"/>
<path clip-path="url(#clip780)" d="M1544.15 1354.89 Q1535.12 1354.89 1531.63 1356.95 Q1528.15 1359.02 1528.15 1364 Q1528.15 1367.97 1530.74 1370.32 Q1533.38 1372.63 1537.87 1372.63 Q1544.07 1372.63 1547.8 1368.25 Q1551.56 1363.84 1551.56 1356.55 L1551.56 1354.89 L1544.15 1354.89 M1559.02 1351.81 L1559.02 1377.69 L1551.56 1377.69 L1551.56 1370.81 Q1549.01 1374.94 1545.2 1376.92 Q1541.4 1378.87 1535.89 1378.87 Q1528.92 1378.87 1524.79 1374.98 Q1520.7 1371.05 1520.7 1364.49 Q1520.7 1356.83 1525.8 1352.94 Q1530.95 1349.05 1541.11 1349.05 L1551.56 1349.05 L1551.56 1348.32 Q1551.56 1343.18 1548.16 1340.38 Q1544.8 1337.55 1538.68 1337.55 Q1534.79 1337.55 1531.11 1338.48 Q1527.42 1339.41 1524.02 1341.27 L1524.02 1334.39 Q1528.11 1332.81 1531.96 1332.04 Q1535.81 1331.23 1539.45 1331.23 Q1549.3 1331.23 1554.16 1336.33 Q1559.02 1341.44 1559.02 1351.81 Z" fill="#000000" fill-rule="nonzero" fill-opacity="1" /><path clip-path="url(#clip780)" d="M1474.26 1453.31 Q1474.26 1445.09 1470.86 1440.43 Q1467.5 1435.73 1461.58 1435.73 Q1455.67 1435.73 1452.27 1440.43 Q1448.9 1445.09 1448.9 1453.31 Q1448.9 1461.53 1452.27 1466.23 Q1455.67 1470.89 1461.58 1470.89 Q1467.5 1470.89 1470.86 1466.23 Q1474.26 1461.53 1474.26 1453.31 M1448.9 1437.47 Q1451.25 1433.42 1454.82 1431.48 Q1458.42 1429.49 1463.41 1429.49 Q1471.67 1429.49 1476.81 1436.05 Q1482 1442.62 1482 1453.31 Q1482 1464.01 1476.81 1470.57 Q1471.67 1477.13 1463.41 1477.13 Q1458.42 1477.13 1454.82 1475.19 Q1451.25 1473.2 1448.9 1469.15 L1448.9 1475.96 L1441.41 1475.96 L1441.41 1412.92 L1448.9 1412.92 L1448.9 1437.47 Z" fill="#000000" fill-rule="nonzero" fill-opacity="1" /><path clip-path="url(#clip780)" d="M2308.55 1357.34 L2308.55 1364.31 Q2305.39 1362.56 2302.19 1361.71 Q2299.03 1360.82 2295.79 1360.82 Q2288.53 1360.82 2284.52 1365.44 Q2280.51 1370.02 2280.51 1378.32 Q2280.51 1386.63 2284.52 1391.24 Q2288.53 1395.82 2295.79 1395.82 Q2299.03 1395.82 2302.19 1394.97 Q2305.39 1394.08 2308.55 1392.34 L2308.55 1399.23 Q2305.43 1400.68 2302.06 1401.41 Q2298.74 1402.14 2294.98 1402.14 Q2284.73 1402.14 2278.69 1395.7 Q2272.65 1389.26 2272.65 1378.32 Q2272.65 1367.22 2278.73 1360.86 Q2284.85 1354.5 2295.46 1354.5 Q2298.9 1354.5 2302.19 1355.23 Q2305.47 1355.92 2308.55 1357.34 Z" fill="#000000" fill-rule="nonzero" fill-opacity="1" /><path clip-path="url(#clip780)" d="M231.575 79.7327 L231.575 55.1842 L239.028 55.1842 L239.028 118.216 L231.575 118.216 L231.575 111.411 Q229.225 115.462 225.62 117.447 Q222.055 119.391 217.032 119.391 Q208.809 119.391 203.624 112.829 Q198.479 106.266 198.479 95.5717 Q198.479 84.8773 203.624 78.3149 Q208.809 71.7524 217.032 71.7524 Q222.055 71.7524 225.62 73.7373 Q229.225 75.6818 231.575 79.7327 M206.176 95.5717 Q206.176 103.795 209.538 108.494 Q212.941 113.153 218.855 113.153 Q224.769 113.153 228.172 108.494 Q231.575 103.795 231.575 95.5717 Q231.575 87.3484 228.172 82.6898 Q224.769 77.9908 218.855 77.9908 Q212.941 77.9908 209.538 82.6898 Q206.176 87.3484 206.176 95.5717 Z" fill="#000000" fill-rule="nonzero" fill-opacity="1" /><path clip-path="url(#clip780)" d="M2007.5 198.898 L2279.55 198.898 L2279.55 95.2176 L2007.5 95.2176  Z" fill="#ffffff" fill-rule="evenodd" fill-opacity="1"/>
<polyline clip-path="url(#clip780)" style="stroke:#000000; stroke-linecap:round; stroke-linejoin:round; stroke-width:4; stroke-opacity:1; fill:none" points="2007.5,198.898 2279.55,198.898 2279.55,95.2176 2007.5,95.2176 2007.5,198.898 "/>
<circle clip-path="url(#clip780)" cx="2105.11" cy="147.058" r="20.48" fill="#808080" fill-rule="evenodd" fill-opacity="1" stroke="#000000" stroke-opacity="1" stroke-width="4.55111"/>
<path clip-path="url(#clip780)" d="M2216.56 166.745 Q2214.76 171.375 2213.04 172.787 Q2211.33 174.199 2208.46 174.199 L2205.06 174.199 L2205.06 170.634 L2207.56 170.634 Q2209.32 170.634 2210.29 169.8 Q2211.26 168.967 2212.44 165.865 L2213.2 163.921 L2202.72 138.412 L2207.23 138.412 L2215.33 158.689 L2223.44 138.412 L2227.95 138.412 L2216.56 166.745 Z" fill="#000000" fill-rule="nonzero" fill-opacity="1" /><path clip-path="url(#clip780)" d="M2235.24 160.402 L2242.88 160.402 L2242.88 134.037 L2234.57 135.703 L2234.57 131.444 L2242.83 129.778 L2247.51 129.778 L2247.51 160.402 L2255.15 160.402 L2255.15 164.338 L2235.24 164.338 L2235.24 160.402 Z" fill="#000000" fill-rule="nonzero" fill-opacity="1" /></svg>
