<?xml version="1.0" encoding="utf-8"?>
<svg xmlns="http://www.w3.org/2000/svg" xmlns:xlink="http://www.w3.org/1999/xlink" width="600" height="400" viewBox="0 0 2400 1600">
<defs>
  <clipPath id="clip770">
    <rect x="0" y="0" width="2400" height="1600"/>
  </clipPath>
</defs>
<path clip-path="url(#clip770)" d="M0 1600 L2400 1600 L2400 0 L0 0  Z" fill="#ffffff" fill-rule="evenodd" fill-opacity="1"/>
<defs>
  <clipPath id="clip771">
    <rect x="480" y="0" width="1681" height="1600"/>
  </clipPath>
</defs>
<path clip-path="url(#clip770)" d="M184.191 1486.45 L2352.76 1486.45 L2352.76 47.2441 L184.191 47.2441  Z" fill="#ffffff" fill-rule="evenodd" fill-opacity="1"/>
<defs>
  <clipPath id="clip772">
    <rect x="184" y="47" width="2170" height="1440"/>
  </clipPath>
</defs>
<polyline clip-path="url(#clip772)" style="stroke:#000000; stroke-linecap:round; stroke-linejoin:round; stroke-width:2; stroke-opacity:0.1; fill:none" points="368.529,1486.45 368.529,47.2441 "/>
<polyline clip-path="url(#clip772)" style="stroke:#000000; stroke-linecap:round; stroke-linejoin:round; stroke-width:2; stroke-opacity:0.1; fill:none" points="826.713,1486.45 826.713,47.2441 "/>
<polyline clip-path="url(#clip772)" style="stroke:#000000; stroke-linecap:round; stroke-linejoin:round; stroke-width:2; stroke-opacity:0.1; fill:none" points="1284.9,1486.45 1284.9,47.2441 "/>
<polyline clip-path="url(#clip772)" style="stroke:#000000; stroke-linecap:round; stroke-linejoin:round; stroke-width:2; stroke-opacity:0.1; fill:none" points="1743.08,1486.45 1743.08,47.2441 "/>
<polyline clip-path="url(#clip772)" style="stroke:#000000; stroke-linecap:round; stroke-linejoin:round; stroke-width:2; stroke-opacity:0.1; fill:none" points="2201.27,1486.45 2201.27,47.2441 "/>
<polyline clip-path="url(#clip770)" style="stroke:#000000; stroke-linecap:round; stroke-linejoin:round; stroke-width:4; stroke-opacity:1; fill:none" points="184.191,1486.45 2352.76,1486.45 "/>
<polyline clip-path="url(#clip770)" style="stroke:#000000; stroke-linecap:round; stroke-linejoin:round; stroke-width:4; stroke-opacity:1; fill:none" points="368.529,1486.45 368.529,1467.55 "/>
<polyline clip-path="url(#clip770)" style="stroke:#000000; stroke-linecap:round; stroke-linejoin:round; stroke-width:4; stroke-opacity:1; fill:none" points="826.713,1486.45 826.713,1467.55 "/>
<polyline clip-path="url(#clip770)" style="stroke:#000000; stroke-linecap:round; stroke-linejoin:round; stroke-width:4; stroke-opacity:1; fill:none" points="1284.9,1486.45 1284.9,1467.55 "/>
<polyline clip-path="url(#clip770)" style="stroke:#000000; stroke-linecap:round; stroke-linejoin:round; stroke-width:4; stroke-opacity:1; fill:none" points="1743.08,1486.45 1743.08,1467.55 "/>
<polyline clip-path="url(#clip770)" style="stroke:#000000; stroke-linecap:round; stroke-linejoin:round; stroke-width:4; stroke-opacity:1; fill:none" points="2201.27,1486.45 2201.27,1467.55 "/>
<path clip-path="url(#clip770)" d="M315.554 1532.02 L345.23 1532.02 L345.23 1535.95 L315.554 1535.95 L315.554 1532.02 Z" fill="#000000" fill-rule="nonzero" fill-opacity="1" /><path clip-path="url(#clip770)" d="M356.133 1544.91 L363.772 1544.91 L363.772 1518.55 L355.462 1520.21 L355.462 1515.95 L363.726 1514.29 L368.401 1514.29 L368.401 1544.91 L376.04 1544.91 L376.04 1548.85 L356.133 1548.85 L356.133 1544.91 Z" fill="#000000" fill-rule="nonzero" fill-opacity="1" /><path clip-path="url(#clip770)" d="M385.485 1542.97 L390.369 1542.97 L390.369 1548.85 L385.485 1548.85 L385.485 1542.97 Z" fill="#000000" fill-rule="nonzero" fill-opacity="1" /><path clip-path="url(#clip770)" d="M400.6 1514.29 L418.957 1514.29 L418.957 1518.22 L404.883 1518.22 L404.883 1526.7 Q405.901 1526.35 406.92 1526.19 Q407.938 1526 408.957 1526 Q414.744 1526 418.123 1529.17 Q421.503 1532.34 421.503 1537.76 Q421.503 1543.34 418.031 1546.44 Q414.559 1549.52 408.239 1549.52 Q406.063 1549.52 403.795 1549.15 Q401.549 1548.78 399.142 1548.04 L399.142 1543.34 Q401.225 1544.47 403.448 1545.03 Q405.67 1545.58 408.147 1545.58 Q412.151 1545.58 414.489 1543.48 Q416.827 1541.37 416.827 1537.76 Q416.827 1534.15 414.489 1532.04 Q412.151 1529.94 408.147 1529.94 Q406.272 1529.94 404.397 1530.35 Q402.545 1530.77 400.6 1531.65 L400.6 1514.29 Z" fill="#000000" fill-rule="nonzero" fill-opacity="1" /><path clip-path="url(#clip770)" d="M773.241 1532.02 L802.917 1532.02 L802.917 1535.95 L773.241 1535.95 L773.241 1532.02 Z" fill="#000000" fill-rule="nonzero" fill-opacity="1" /><path clip-path="url(#clip770)" d="M813.82 1544.91 L821.458 1544.91 L821.458 1518.55 L813.148 1520.21 L813.148 1515.95 L821.412 1514.29 L826.088 1514.29 L826.088 1544.91 L833.727 1544.91 L833.727 1548.85 L813.82 1548.85 L813.82 1544.91 Z" fill="#000000" fill-rule="nonzero" fill-opacity="1" /><path clip-path="url(#clip770)" d="M843.171 1542.97 L848.056 1542.97 L848.056 1548.85 L843.171 1548.85 L843.171 1542.97 Z" fill="#000000" fill-rule="nonzero" fill-opacity="1" /><path clip-path="url(#clip770)" d="M868.241 1517.37 Q864.63 1517.37 862.801 1520.93 Q860.995 1524.47 860.995 1531.6 Q860.995 1538.71 862.801 1542.27 Q864.63 1545.82 868.241 1545.82 Q871.875 1545.82 873.68 1542.27 Q875.509 1538.71 875.509 1531.6 Q875.509 1524.47 873.68 1520.93 Q871.875 1517.37 868.241 1517.37 M868.241 1513.66 Q874.051 1513.66 877.106 1518.27 Q880.185 1522.85 880.185 1531.6 Q880.185 1540.33 877.106 1544.94 Q874.051 1549.52 868.241 1549.52 Q862.43 1549.52 859.352 1544.94 Q856.296 1540.33 856.296 1531.6 Q856.296 1522.85 859.352 1518.27 Q862.43 1513.66 868.241 1513.66 Z" fill="#000000" fill-rule="nonzero" fill-opacity="1" /><path clip-path="url(#clip770)" d="M1231.92 1532.02 L1261.6 1532.02 L1261.6 1535.95 L1231.92 1535.95 L1231.92 1532.02 Z" fill="#000000" fill-rule="nonzero" fill-opacity="1" /><path clip-path="url(#clip770)" d="M1281.69 1517.37 Q1278.08 1517.37 1276.25 1520.93 Q1274.45 1524.47 1274.45 1531.6 Q1274.45 1538.71 1276.25 1542.27 Q1278.08 1545.82 1281.69 1545.82 Q1285.33 1545.82 1287.13 1542.27 Q1288.96 1538.71 1288.96 1531.6 Q1288.96 1524.47 1287.13 1520.93 Q1285.33 1517.37 1281.69 1517.37 M1281.69 1513.66 Q1287.5 1513.66 1290.56 1518.27 Q1293.64 1522.85 1293.64 1531.6 Q1293.64 1540.33 1290.56 1544.94 Q1287.5 1549.52 1281.69 1549.52 Q1275.88 1549.52 1272.8 1544.94 Q1269.75 1540.33 1269.75 1531.6 Q1269.75 1522.85 1272.8 1518.27 Q1275.88 1513.66 1281.69 1513.66 Z" fill="#000000" fill-rule="nonzero" fill-opacity="1" /><path clip-path="url(#clip770)" d="M1301.85 1542.97 L1306.74 1542.97 L1306.74 1548.85 L1301.85 1548.85 L1301.85 1542.97 Z" fill="#000000" fill-rule="nonzero" fill-opacity="1" /><path clip-path="url(#clip770)" d="M1316.97 1514.29 L1335.33 1514.29 L1335.33 1518.22 L1321.25 1518.22 L1321.25 1526.7 Q1322.27 1526.35 1323.29 1526.19 Q1324.31 1526 1325.33 1526 Q1331.11 1526 1334.49 1529.17 Q1337.87 1532.34 1337.87 1537.76 Q1337.87 1543.34 1334.4 1546.44 Q1330.93 1549.52 1324.61 1549.52 Q1322.43 1549.52 1320.16 1549.15 Q1317.92 1548.78 1315.51 1548.04 L1315.51 1543.34 Q1317.59 1544.47 1319.82 1545.03 Q1322.04 1545.58 1324.52 1545.58 Q1328.52 1545.58 1330.86 1543.48 Q1333.2 1541.37 1333.2 1537.76 Q1333.2 1534.15 1330.86 1532.04 Q1328.52 1529.94 1324.52 1529.94 Q1322.64 1529.94 1320.77 1530.35 Q1318.91 1530.77 1316.97 1531.65 L1316.97 1514.29 Z" fill="#000000" fill-rule="nonzero" fill-opacity="1" /><path clip-path="url(#clip770)" d="M1720.47 1517.37 Q1716.86 1517.37 1715.03 1520.93 Q1713.22 1524.47 1713.22 1531.6 Q1713.22 1538.71 1715.03 1542.27 Q1716.86 1545.82 1720.47 1545.82 Q1724.1 1545.82 1725.91 1542.27 Q1727.73 1538.71 1727.73 1531.6 Q1727.73 1524.47 1725.91 1520.93 Q1724.1 1517.37 1720.47 1517.37 M1720.47 1513.66 Q1726.28 1513.66 1729.33 1518.27 Q1732.41 1522.85 1732.41 1531.6 Q1732.41 1540.33 1729.33 1544.94 Q1726.28 1549.52 1720.47 1549.52 Q1714.66 1549.52 1711.58 1544.94 Q1708.52 1540.33 1708.52 1531.6 Q1708.52 1522.85 1711.58 1518.27 Q1714.66 1513.66 1720.47 1513.66 Z" fill="#000000" fill-rule="nonzero" fill-opacity="1" /><path clip-path="url(#clip770)" d="M1740.63 1542.97 L1745.51 1542.97 L1745.51 1548.85 L1740.63 1548.85 L1740.63 1542.97 Z" fill="#000000" fill-rule="nonzero" fill-opacity="1" /><path clip-path="url(#clip770)" d="M1765.7 1517.37 Q1762.09 1517.37 1760.26 1520.93 Q1758.45 1524.47 1758.45 1531.6 Q1758.45 1538.71 1760.26 1542.27 Q1762.09 1545.82 1765.7 1545.82 Q1769.33 1545.82 1771.14 1542.27 Q1772.97 1538.71 1772.97 1531.6 Q1772.97 1524.47 1771.14 1520.93 Q1769.33 1517.37 1765.7 1517.37 M1765.7 1513.66 Q1771.51 1513.66 1774.56 1518.27 Q1777.64 1522.85 1777.64 1531.6 Q1777.64 1540.33 1774.56 1544.94 Q1771.51 1549.52 1765.7 1549.52 Q1759.89 1549.52 1756.81 1544.94 Q1753.75 1540.33 1753.75 1531.6 Q1753.75 1522.85 1756.81 1518.27 Q1759.89 1513.66 1765.7 1513.66 Z" fill="#000000" fill-rule="nonzero" fill-opacity="1" /><path clip-path="url(#clip770)" d="M2179.15 1517.37 Q2175.54 1517.37 2173.71 1520.93 Q2171.9 1524.47 2171.9 1531.6 Q2171.9 1538.71 2173.71 1542.27 Q2175.54 1545.82 2179.15 1545.82 Q2182.78 1545.82 2184.59 1542.27 Q2186.42 1538.71 2186.42 1531.6 Q2186.42 1524.47 2184.59 1520.93 Q2182.78 1517.37 2179.15 1517.37 M2179.15 1513.66 Q2184.96 1513.66 2188.01 1518.27 Q2191.09 1522.85 2191.09 1531.6 Q2191.09 1540.33 2188.01 1544.94 Q2184.96 1549.52 2179.15 1549.52 Q2173.34 1549.52 2170.26 1544.94 Q2167.2 1540.33 2167.2 1531.6 Q2167.2 1522.85 2170.26 1518.27 Q2173.34 1513.66 2179.15 1513.66 Z" fill="#000000" fill-rule="nonzero" fill-opacity="1" /><path clip-path="url(#clip770)" d="M2199.31 1542.97 L2204.19 1542.97 L2204.19 1548.85 L2199.31 1548.85 L2199.31 1542.97 Z" fill="#000000" fill-rule="nonzero" fill-opacity="1" /><path clip-path="url(#clip770)" d="M2214.43 1514.29 L2232.78 1514.29 L2232.78 1518.22 L2218.71 1518.22 L2218.71 1526.7 Q2219.73 1526.35 2220.75 1526.19 Q2221.76 1526 2222.78 1526 Q2228.57 1526 2231.95 1529.17 Q2235.33 1532.34 2235.33 1537.76 Q2235.33 1543.34 2231.86 1546.44 Q2228.38 1549.52 2222.06 1549.52 Q2219.89 1549.52 2217.62 1549.15 Q2215.37 1548.78 2212.97 1548.04 L2212.97 1543.34 Q2215.05 1544.47 2217.27 1545.03 Q2219.5 1545.58 2221.97 1545.58 Q2225.98 1545.58 2228.31 1543.48 Q2230.65 1541.37 2230.65 1537.76 Q2230.65 1534.15 2228.31 1532.04 Q2225.98 1529.94 2221.97 1529.94 Q2220.1 1529.94 2218.22 1530.35 Q2216.37 1530.77 2214.43 1531.65 L2214.43 1514.29 Z" fill="#000000" fill-rule="nonzero" fill-opacity="1" /><polyline clip-path="url(#clip772)" style="stroke:#000000; stroke-linecap:round; stroke-linejoin:round; stroke-width:2; stroke-opacity:0.1; fill:none" points="184.191,1472.09 2352.76,1472.09 "/>
<polyline clip-path="url(#clip772)" style="stroke:#000000; stroke-linecap:round; stroke-linejoin:round; stroke-width:2; stroke-opacity:0.1; fill:none" points="184.191,1147.61 2352.76,1147.61 "/>
<polyline clip-path="url(#clip772)" style="stroke:#000000; stroke-linecap:round; stroke-linejoin:round; stroke-width:2; stroke-opacity:0.1; fill:none" points="184.191,823.135 2352.76,823.135 "/>
<polyline clip-path="url(#clip772)" style="stroke:#000000; stroke-linecap:round; stroke-linejoin:round; stroke-width:2; stroke-opacity:0.1; fill:none" points="184.191,498.658 2352.76,498.658 "/>
<polyline clip-path="url(#clip772)" style="stroke:#000000; stroke-linecap:round; stroke-linejoin:round; stroke-width:2; stroke-opacity:0.1; fill:none" points="184.191,174.18 2352.76,174.18 "/>
<polyline clip-path="url(#clip770)" style="stroke:#000000; stroke-linecap:round; stroke-linejoin:round; stroke-width:4; stroke-opacity:1; fill:none" points="184.191,1486.45 184.191,47.2441 "/>
<polyline clip-path="url(#clip770)" style="stroke:#000000; stroke-linecap:round; stroke-linejoin:round; stroke-width:4; stroke-opacity:1; fill:none" points="184.191,1472.09 203.088,1472.09 "/>
<polyline clip-path="url(#clip770)" style="stroke:#000000; stroke-linecap:round; stroke-linejoin:round; stroke-width:4; stroke-opacity:1; fill:none" points="184.191,1147.61 203.088,1147.61 "/>
<polyline clip-path="url(#clip770)" style="stroke:#000000; stroke-linecap:round; stroke-linejoin:round; stroke-width:4; stroke-opacity:1; fill:none" points="184.191,823.135 203.088,823.135 "/>
<polyline clip-path="url(#clip770)" style="stroke:#000000; stroke-linecap:round; stroke-linejoin:round; stroke-width:4; stroke-opacity:1; fill:none" points="184.191,498.658 203.088,498.658 "/>
<polyline clip-path="url(#clip770)" style="stroke:#000000; stroke-linecap:round; stroke-linejoin:round; stroke-width:4; stroke-opacity:1; fill:none" points="184.191,174.18 203.088,174.18 "/>
<path clip-path="url(#clip770)" d="M91.0151 1457.89 Q87.404 1457.89 85.5753 1461.45 Q83.7697 1465 83.7697 1472.13 Q83.7697 1479.23 85.5753 1482.8 Q87.404 1486.34 91.0151 1486.34 Q94.6493 1486.34 96.4548 1482.8 Q98.2835 1479.23 98.2835 1472.13 Q98.2835 1465 96.4548 1461.45 Q94.6493 1457.89 91.0151 1457.89 M91.0151 1454.19 Q96.8252 1454.19 99.8808 1458.79 Q102.959 1463.38 102.959 1472.13 Q102.959 1480.85 99.8808 1485.46 Q96.8252 1490.04 91.0151 1490.04 Q85.2049 1490.04 82.1262 1485.46 Q79.0707 1480.85 79.0707 1472.13 Q79.0707 1463.38 82.1262 1458.79 Q85.2049 1454.19 91.0151 1454.19 Z" fill="#000000" fill-rule="nonzero" fill-opacity="1" /><path clip-path="url(#clip770)" d="M111.177 1483.49 L116.061 1483.49 L116.061 1489.37 L111.177 1489.37 L111.177 1483.49 Z" fill="#000000" fill-rule="nonzero" fill-opacity="1" /><path clip-path="url(#clip770)" d="M136.246 1457.89 Q132.635 1457.89 130.807 1461.45 Q129.001 1465 129.001 1472.13 Q129.001 1479.23 130.807 1482.8 Q132.635 1486.34 136.246 1486.34 Q139.881 1486.34 141.686 1482.8 Q143.515 1479.23 143.515 1472.13 Q143.515 1465 141.686 1461.45 Q139.881 1457.89 136.246 1457.89 M136.246 1454.19 Q142.056 1454.19 145.112 1458.79 Q148.191 1463.38 148.191 1472.13 Q148.191 1480.85 145.112 1485.46 Q142.056 1490.04 136.246 1490.04 Q130.436 1490.04 127.357 1485.46 Q124.302 1480.85 124.302 1472.13 Q124.302 1463.38 127.357 1458.79 Q130.436 1454.19 136.246 1454.19 Z" fill="#000000" fill-rule="nonzero" fill-opacity="1" /><path clip-path="url(#clip770)" d="M86.0382 1160.96 L102.358 1160.96 L102.358 1164.89 L80.4133 1164.89 L80.4133 1160.96 Q83.0753 1158.2 87.6586 1153.57 Q92.2651 1148.92 93.4456 1147.58 Q95.691 1145.05 96.5706 1143.32 Q97.4734 1141.56 97.4734 1139.87 Q97.4734 1137.12 95.5289 1135.38 Q93.6076 1133.64 90.5058 1133.64 Q88.3067 1133.64 85.8531 1134.41 Q83.4225 1135.17 80.6447 1136.72 L80.6447 1132 Q83.4688 1130.87 85.9225 1130.29 Q88.3762 1129.71 90.4132 1129.71 Q95.7836 1129.71 98.978 1132.39 Q102.172 1135.08 102.172 1139.57 Q102.172 1141.7 101.362 1143.62 Q100.575 1145.52 98.4687 1148.11 Q97.89 1148.78 94.7882 1152 Q91.6864 1155.19 86.0382 1160.96 Z" fill="#000000" fill-rule="nonzero" fill-opacity="1" /><path clip-path="url(#clip770)" d="M112.172 1159.01 L117.057 1159.01 L117.057 1164.89 L112.172 1164.89 L112.172 1159.01 Z" fill="#000000" fill-rule="nonzero" fill-opacity="1" /><path clip-path="url(#clip770)" d="M127.288 1130.33 L145.644 1130.33 L145.644 1134.27 L131.57 1134.27 L131.57 1142.74 Q132.589 1142.39 133.607 1142.23 Q134.626 1142.05 135.644 1142.05 Q141.431 1142.05 144.811 1145.22 Q148.191 1148.39 148.191 1153.8 Q148.191 1159.38 144.718 1162.49 Q141.246 1165.56 134.927 1165.56 Q132.751 1165.56 130.482 1165.19 Q128.237 1164.82 125.83 1164.08 L125.83 1159.38 Q127.913 1160.52 130.135 1161.07 Q132.357 1161.63 134.834 1161.63 Q138.839 1161.63 141.177 1159.52 Q143.515 1157.42 143.515 1153.8 Q143.515 1150.19 141.177 1148.09 Q138.839 1145.98 134.834 1145.98 Q132.959 1145.98 131.084 1146.4 Q129.232 1146.81 127.288 1147.69 L127.288 1130.33 Z" fill="#000000" fill-rule="nonzero" fill-opacity="1" /><path clip-path="url(#clip770)" d="M81.0614 805.855 L99.4178 805.855 L99.4178 809.79 L85.3438 809.79 L85.3438 818.262 Q86.3623 817.915 87.3808 817.753 Q88.3993 817.568 89.4178 817.568 Q95.2049 817.568 98.5845 820.739 Q101.964 823.911 101.964 829.327 Q101.964 834.906 98.4919 838.008 Q95.0197 841.086 88.7003 841.086 Q86.5243 841.086 84.2558 840.716 Q82.0105 840.346 79.6031 839.605 L79.6031 834.906 Q81.6864 836.04 83.9086 836.596 Q86.1308 837.151 88.6077 837.151 Q92.6123 837.151 94.9502 835.045 Q97.2882 832.938 97.2882 829.327 Q97.2882 825.716 94.9502 823.61 Q92.6123 821.503 88.6077 821.503 Q86.7327 821.503 84.8577 821.92 Q83.0058 822.337 81.0614 823.216 L81.0614 805.855 Z" fill="#000000" fill-rule="nonzero" fill-opacity="1" /><path clip-path="url(#clip770)" d="M111.177 834.536 L116.061 834.536 L116.061 840.415 L111.177 840.415 L111.177 834.536 Z" fill="#000000" fill-rule="nonzero" fill-opacity="1" /><path clip-path="url(#clip770)" d="M136.246 808.934 Q132.635 808.934 130.807 812.499 Q129.001 816.04 129.001 823.17 Q129.001 830.276 130.807 833.841 Q132.635 837.383 136.246 837.383 Q139.881 837.383 141.686 833.841 Q143.515 830.276 143.515 823.17 Q143.515 816.04 141.686 812.499 Q139.881 808.934 136.246 808.934 M136.246 805.23 Q142.056 805.23 145.112 809.837 Q148.191 814.42 148.191 823.17 Q148.191 831.897 145.112 836.503 Q142.056 841.086 136.246 841.086 Q130.436 841.086 127.357 836.503 Q124.302 831.897 124.302 823.17 Q124.302 814.42 127.357 809.837 Q130.436 805.23 136.246 805.23 Z" fill="#000000" fill-rule="nonzero" fill-opacity="1" /><path clip-path="url(#clip770)" d="M80.8299 481.378 L103.052 481.378 L103.052 483.368 L90.5058 515.938 L85.6216 515.938 L97.4271 485.313 L80.8299 485.313 L80.8299 481.378 Z" fill="#000000" fill-rule="nonzero" fill-opacity="1" /><path clip-path="url(#clip770)" d="M112.172 510.058 L117.057 510.058 L117.057 515.938 L112.172 515.938 L112.172 510.058 Z" fill="#000000" fill-rule="nonzero" fill-opacity="1" /><path clip-path="url(#clip770)" d="M127.288 481.378 L145.644 481.378 L145.644 485.313 L131.57 485.313 L131.57 493.785 Q132.589 493.438 133.607 493.276 Q134.626 493.09 135.644 493.09 Q141.431 493.09 144.811 496.262 Q148.191 499.433 148.191 504.85 Q148.191 510.428 144.718 513.53 Q141.246 516.609 134.927 516.609 Q132.751 516.609 130.482 516.239 Q128.237 515.868 125.83 515.127 L125.83 510.428 Q127.913 511.563 130.135 512.118 Q132.357 512.674 134.834 512.674 Q138.839 512.674 141.177 510.567 Q143.515 508.461 143.515 504.85 Q143.515 501.239 141.177 499.132 Q138.839 497.026 134.834 497.026 Q132.959 497.026 131.084 497.442 Q129.232 497.859 127.288 498.739 L127.288 481.378 Z" fill="#000000" fill-rule="nonzero" fill-opacity="1" /><path clip-path="url(#clip770)" d="M51.6634 187.525 L59.3023 187.525 L59.3023 161.159 L50.9921 162.826 L50.9921 158.567 L59.256 156.9 L63.9319 156.9 L63.9319 187.525 L71.5707 187.525 L71.5707 191.46 L51.6634 191.46 L51.6634 187.525 Z" fill="#000000" fill-rule="nonzero" fill-opacity="1" /><path clip-path="url(#clip770)" d="M91.0151 159.979 Q87.404 159.979 85.5753 163.543 Q83.7697 167.085 83.7697 174.215 Q83.7697 181.321 85.5753 184.886 Q87.404 188.428 91.0151 188.428 Q94.6493 188.428 96.4548 184.886 Q98.2835 181.321 98.2835 174.215 Q98.2835 167.085 96.4548 163.543 Q94.6493 159.979 91.0151 159.979 M91.0151 156.275 Q96.8252 156.275 99.8808 160.881 Q102.959 165.465 102.959 174.215 Q102.959 182.942 99.8808 187.548 Q96.8252 192.131 91.0151 192.131 Q85.2049 192.131 82.1262 187.548 Q79.0707 182.942 79.0707 174.215 Q79.0707 165.465 82.1262 160.881 Q85.2049 156.275 91.0151 156.275 Z" fill="#000000" fill-rule="nonzero" fill-opacity="1" /><path clip-path="url(#clip770)" d="M111.177 185.58 L116.061 185.58 L116.061 191.46 L111.177 191.46 L111.177 185.58 Z" fill="#000000" fill-rule="nonzero" fill-opacity="1" /><path clip-path="url(#clip770)" d="M136.246 159.979 Q132.635 159.979 130.807 163.543 Q129.001 167.085 129.001 174.215 Q129.001 181.321 130.807 184.886 Q132.635 188.428 136.246 188.428 Q139.881 188.428 141.686 184.886 Q143.515 181.321 143.515 174.215 Q143.515 167.085 141.686 163.543 Q139.881 159.979 136.246 159.979 M136.246 156.275 Q142.056 156.275 145.112 160.881 Q148.191 165.465 148.191 174.215 Q148.191 182.942 145.112 187.548 Q142.056 192.131 136.246 192.131 Q130.436 192.131 127.357 187.548 Q124.302 182.942 124.302 174.215 Q124.302 165.465 127.357 160.881 Q130.436 156.275 136.246 156.275 Z" fill="#000000" fill-rule="nonzero" fill-opacity="1" /><circle clip-path="url(#clip772)" cx="2291.38" cy="1400.34" r="14.4" fill="#808080" fill-rule="evenodd" fill-opacity="1" stroke="#000000" stroke-opacity="1" stroke-width="3.2"/>
<circle clip-path="url(#clip772)" cx="245.565" cy="87.9763" r="14.4" fill="#808080" fill-rule="evenodd" fill-opacity="1" stroke="#000000" stroke-opacity="1" stroke-width="3.2"/>
<circle clip-path="url(#clip772)" cx="1676.58" cy="1445.72" r="14.4" fill="#808080" fill-rule="evenodd" fill-opacity="1" stroke="#000000" stroke-opacity="1" stroke-width="3.2"/>
<circle clip-path="url(#clip772)" cx="1675.33" cy="1439.48" r="14.4" fill="#808080" fill-rule="evenodd" fill-opacity="1" stroke="#000000" stroke-opacity="1" stroke-width="3.2"/>
<path clip-path="url(#clip770)" d="M2295.68 1407.77 Q2286.64 1407.77 2283.16 1409.84 Q2279.67 1411.9 2279.67 1416.88 Q2279.67 1420.85 2282.27 1423.2 Q2284.9 1425.51 2289.4 1425.51 Q2295.59 1425.51 2299.32 1421.14 Q2303.09 1416.72 2303.09 1409.43 L2303.09 1407.77 L2295.68 1407.77 M2310.54 1404.69 L2310.54 1430.58 L2303.09 1430.58 L2303.09 1423.69 Q2300.54 1427.82 2296.73 1429.81 Q2292.92 1431.75 2287.41 1431.75 Q2280.44 1431.75 2276.31 1427.86 Q2272.22 1423.93 2272.22 1417.37 Q2272.22 1409.71 2277.32 1405.83 Q2282.47 1401.94 2292.64 1401.94 L2303.09 1401.94 L2303.09 1401.21 Q2303.09 1396.06 2299.69 1393.27 Q2296.32 1390.43 2290.21 1390.43 Q2286.32 1390.43 2282.63 1391.36 Q2278.95 1392.3 2275.54 1394.16 L2275.54 1387.27 Q2279.63 1385.69 2283.48 1384.92 Q2287.33 1384.11 2290.98 1384.11 Q2300.82 1384.11 2305.68 1389.22 Q2310.54 1394.32 2310.54 1404.69 Z" fill="#000000" fill-rule="nonzero" fill-opacity="1" /><path clip-path="url(#clip770)" d="M258.123 95.5717 Q258.123 87.3484 254.72 82.6898 Q251.358 77.9908 245.444 77.9908 Q239.529 77.9908 236.127 82.6898 Q232.764 87.3484 232.764 95.5717 Q232.764 103.795 236.127 108.494 Q239.529 113.153 245.444 113.153 Q251.358 113.153 254.72 108.494 Q258.123 103.795 258.123 95.5717 M232.764 79.7327 Q235.114 75.6818 238.679 73.7373 Q242.284 71.7524 247.267 71.7524 Q255.53 71.7524 260.675 78.3149 Q265.86 84.8773 265.86 95.5717 Q265.86 106.266 260.675 112.829 Q255.53 119.391 247.267 119.391 Q242.284 119.391 238.679 117.447 Q235.114 115.462 232.764 111.411 L232.764 118.216 L225.27 118.216 L225.27 55.1842 L232.764 55.1842 L232.764 79.7327 Z" fill="#000000" fill-rule="nonzero" fill-opacity="1" /><path clip-path="url(#clip770)" d="M1694.52 1432.33 L1694.52 1439.3 Q1691.36 1437.55 1688.16 1436.7 Q1685 1435.81 1681.76 1435.81 Q1674.51 1435.81 1670.5 1440.43 Q1666.49 1445.01 1666.49 1453.31 Q1666.49 1461.62 1670.5 1466.23 Q1674.51 1470.81 1681.76 1470.81 Q1685 1470.81 1688.16 1469.96 Q1691.36 1469.07 1694.52 1467.33 L1694.52 1474.21 Q1691.4 1475.67 1688.04 1476.4 Q1684.72 1477.13 1680.95 1477.13 Q1670.7 1477.13 1664.67 1470.69 Q1658.63 1464.25 1658.63 1453.31 Q1658.63 1442.21 1664.71 1435.85 Q1670.82 1429.49 1681.44 1429.49 Q1684.88 1429.49 1688.16 1430.22 Q1691.44 1430.91 1694.52 1432.33 Z" fill="#000000" fill-rule="nonzero" fill-opacity="1" /><path clip-path="url(#clip770)" d="M1688.15 1431.24 L1688.15 1406.69 L1695.6 1406.69 L1695.6 1469.72 L1688.15 1469.72 L1688.15 1462.91 Q1685.8 1466.97 1682.19 1468.95 Q1678.63 1470.89 1673.61 1470.89 Q1665.38 1470.89 1660.2 1464.33 Q1655.05 1457.77 1655.05 1447.08 Q1655.05 1436.38 1660.2 1429.82 Q1665.38 1423.26 1673.61 1423.26 Q1678.63 1423.26 1682.19 1425.24 Q1685.8 1427.19 1688.15 1431.24 M1662.75 1447.08 Q1662.75 1455.3 1666.11 1460 Q1669.51 1464.66 1675.43 1464.66 Q1681.34 1464.66 1684.75 1460 Q1688.15 1455.3 1688.15 1447.08 Q1688.15 1438.85 1684.75 1434.19 Q1681.34 1429.49 1675.43 1429.49 Q1669.51 1429.49 1666.11 1434.19 Q1662.75 1438.85 1662.75 1447.08 Z" fill="#000000" fill-rule="nonzero" fill-opacity="1" /><path clip-path="url(#clip770)" d="M2011.18 198.898 L2280.47 198.898 L2280.47 95.2176 L2011.18 95.2176  Z" fill="#ffffff" fill-rule="evenodd" fill-opacity="1"/>
<polyline clip-path="url(#clip770)" style="stroke:#000000; stroke-linecap:round; stroke-linejoin:round; stroke-width:4; stroke-opacity:1; fill:none" points="2011.18,198.898 2280.47,198.898 2280.47,95.2176 2011.18,95.2176 2011.18,198.898 "/>
<circle clip-path="url(#clip770)" cx="2107.56" cy="147.058" r="20.48" fill="#808080" fill-rule="evenodd" fill-opacity="1" stroke="#000000" stroke-opacity="1" stroke-width="4.55111"/>
<path clip-path="url(#clip770)" d="M2217.79 166.745 Q2215.98 171.375 2214.27 172.787 Q2212.56 174.199 2209.69 174.199 L2206.28 174.199 L2206.28 170.634 L2208.78 170.634 Q2210.54 170.634 2211.51 169.8 Q2212.49 168.967 2213.67 165.865 L2214.43 163.921 L2203.94 138.412 L2208.46 138.412 L2216.56 158.689 L2224.66 138.412 L2229.18 138.412 L2217.79 166.745 Z" fill="#000000" fill-rule="nonzero" fill-opacity="1" /><path clip-path="url(#clip770)" d="M2236.47 160.402 L2244.11 160.402 L2244.11 134.037 L2235.8 135.703 L2235.8 131.444 L2244.06 129.778 L2248.74 129.778 L2248.74 160.402 L2256.38 160.402 L2256.38 164.338 L2236.47 164.338 L2236.47 160.402 Z" fill="#000000" fill-rule="nonzero" fill-opacity="1" /></svg>
