<?xml version="1.0" encoding="utf-8"?>
<svg xmlns="http://www.w3.org/2000/svg" xmlns:xlink="http://www.w3.org/1999/xlink" width="600" height="400" viewBox="0 0 2400 1600">
<defs>
  <clipPath id="clip710">
    <rect x="0" y="0" width="2400" height="1600"/>
  </clipPath>
</defs>
<path clip-path="url(#clip710)" d="M0 1600 L2400 1600 L2400 0 L0 0  Z" fill="#ffffff" fill-rule="evenodd" fill-opacity="1"/>
<defs>
  <clipPath id="clip711">
    <rect x="480" y="0" width="1681" height="1600"/>
  </clipPath>
</defs>
<path clip-path="url(#clip710)" d="M156.598 1486.45 L2352.76 1486.45 L2352.76 47.2441 L156.598 47.2441  Z" fill="#ffffff" fill-rule="evenodd" fill-opacity="1"/>
<defs>
  <clipPath id="clip712">
    <rect x="156" y="47" width="2197" height="1440"/>
  </clipPath>
</defs>
<polyline clip-path="url(#clip712)" style="stroke:#000000; stroke-linecap:round; stroke-linejoin:round; stroke-width:2; stroke-opacity:0.1; fill:none" points="511.879,1486.45 511.879,47.2441 "/>
<polyline clip-path="url(#clip712)" style="stroke:#000000; stroke-linecap:round; stroke-linejoin:round; stroke-width:2; stroke-opacity:0.1; fill:none" points="994.486,1486.45 994.486,47.2441 "/>
<polyline clip-path="url(#clip712)" style="stroke:#000000; stroke-linecap:round; stroke-linejoin:round; stroke-width:2; stroke-opacity:0.1; fill:none" points="1477.09,1486.45 1477.09,47.2441 "/>
<polyline clip-path="url(#clip712)" style="stroke:#000000; stroke-linecap:round; stroke-linejoin:round; stroke-width:2; stroke-opacity:0.1; fill:none" points="1959.7,1486.45 1959.7,47.2441 "/>
<polyline clip-path="url(#clip710)" style="stroke:#000000; stroke-linecap:round; stroke-linejoin:round; stroke-width:4; stroke-opacity:1; fill:none" points="156.598,1486.45 2352.76,1486.45 "/>
<polyline clip-path="url(#clip710)" style="stroke:#000000; stroke-linecap:round; stroke-linejoin:round; stroke-width:4; stroke-opacity:1; fill:none" points="511.879,1486.45 511.879,1467.55 "/>
<polyline clip-path="url(#clip710)" style="stroke:#000000; stroke-linecap:round; stroke-linejoin:round; stroke-width:4; stroke-opacity:1; fill:none" points="994.486,1486.45 994.486,1467.55 "/>
<polyline clip-path="url(#clip710)" style="stroke:#000000; stroke-linecap:round; stroke-linejoin:round; stroke-width:4; stroke-opacity:1; fill:none" points="1477.09,1486.45 1477.09,1467.55 "/>
<polyline clip-path="url(#clip710)" style="stroke:#000000; stroke-linecap:round; stroke-linejoin:round; stroke-width:4; stroke-opacity:1; fill:none" points="1959.7,1486.45 1959.7,1467.55 "/>
<path clip-path="url(#clip710)" d="M458.164 1532.02 L487.84 1532.02 L487.84 1535.95 L458.164 1535.95 L458.164 1532.02 Z" fill="#000000" fill-rule="nonzero" fill-opacity="1" /><path clip-path="url(#clip710)" d="M507.933 1517.37 Q504.321 1517.37 502.493 1520.93 Q500.687 1524.47 500.687 1531.6 Q500.687 1538.71 502.493 1542.27 Q504.321 1545.82 507.933 1545.82 Q511.567 1545.82 513.372 1542.27 Q515.201 1538.71 515.201 1531.6 Q515.201 1524.47 513.372 1520.93 Q511.567 1517.37 507.933 1517.37 M507.933 1513.66 Q513.743 1513.66 516.798 1518.27 Q519.877 1522.85 519.877 1531.6 Q519.877 1540.33 516.798 1544.94 Q513.743 1549.52 507.933 1549.52 Q502.122 1549.52 499.044 1544.94 Q495.988 1540.33 495.988 1531.6 Q495.988 1522.85 499.044 1518.27 Q502.122 1513.66 507.933 1513.66 Z" fill="#000000" fill-rule="nonzero" fill-opacity="1" /><path clip-path="url(#clip710)" d="M528.094 1542.97 L532.979 1542.97 L532.979 1548.85 L528.094 1548.85 L528.094 1542.97 Z" fill="#000000" fill-rule="nonzero" fill-opacity="1" /><path clip-path="url(#clip710)" d="M556.011 1518.36 L544.206 1536.81 L556.011 1536.81 L556.011 1518.36 M554.784 1514.29 L560.664 1514.29 L560.664 1536.81 L565.594 1536.81 L565.594 1540.7 L560.664 1540.7 L560.664 1548.85 L556.011 1548.85 L556.011 1540.7 L540.409 1540.7 L540.409 1536.19 L554.784 1514.29 Z" fill="#000000" fill-rule="nonzero" fill-opacity="1" /><path clip-path="url(#clip710)" d="M941.812 1532.02 L971.488 1532.02 L971.488 1535.95 L941.812 1535.95 L941.812 1532.02 Z" fill="#000000" fill-rule="nonzero" fill-opacity="1" /><path clip-path="url(#clip710)" d="M991.581 1517.37 Q987.97 1517.37 986.141 1520.93 Q984.335 1524.47 984.335 1531.6 Q984.335 1538.71 986.141 1542.27 Q987.97 1545.82 991.581 1545.82 Q995.215 1545.82 997.02 1542.27 Q998.849 1538.71 998.849 1531.6 Q998.849 1524.47 997.02 1520.93 Q995.215 1517.37 991.581 1517.37 M991.581 1513.66 Q997.391 1513.66 1000.45 1518.27 Q1003.53 1522.85 1003.53 1531.6 Q1003.53 1540.33 1000.45 1544.94 Q997.391 1549.52 991.581 1549.52 Q985.77 1549.52 982.692 1544.94 Q979.636 1540.33 979.636 1531.6 Q979.636 1522.85 982.692 1518.27 Q985.77 1513.66 991.581 1513.66 Z" fill="#000000" fill-rule="nonzero" fill-opacity="1" /><path clip-path="url(#clip710)" d="M1011.74 1542.97 L1016.63 1542.97 L1016.63 1548.85 L1011.74 1548.85 L1011.74 1542.97 Z" fill="#000000" fill-rule="nonzero" fill-opacity="1" /><path clip-path="url(#clip710)" d="M1030.84 1544.91 L1047.16 1544.91 L1047.16 1548.85 L1025.21 1548.85 L1025.21 1544.91 Q1027.88 1542.16 1032.46 1537.53 Q1037.07 1532.88 1038.25 1531.53 Q1040.49 1529.01 1041.37 1527.27 Q1042.27 1525.51 1042.27 1523.82 Q1042.27 1521.07 1040.33 1519.33 Q1038.41 1517.6 1035.31 1517.6 Q1033.11 1517.6 1030.65 1518.36 Q1028.22 1519.13 1025.45 1520.68 L1025.45 1515.95 Q1028.27 1514.82 1030.72 1514.24 Q1033.18 1513.66 1035.21 1513.66 Q1040.58 1513.66 1043.78 1516.35 Q1046.97 1519.03 1046.97 1523.52 Q1046.97 1525.65 1046.16 1527.57 Q1045.38 1529.47 1043.27 1532.07 Q1042.69 1532.74 1039.59 1535.95 Q1036.49 1539.15 1030.84 1544.91 Z" fill="#000000" fill-rule="nonzero" fill-opacity="1" /><path clip-path="url(#clip710)" d="M1454.48 1517.37 Q1450.87 1517.37 1449.04 1520.93 Q1447.23 1524.47 1447.23 1531.6 Q1447.23 1538.71 1449.04 1542.27 Q1450.87 1545.82 1454.48 1545.82 Q1458.11 1545.82 1459.92 1542.27 Q1461.74 1538.71 1461.74 1531.6 Q1461.74 1524.47 1459.92 1520.93 Q1458.11 1517.37 1454.48 1517.37 M1454.48 1513.66 Q1460.29 1513.66 1463.34 1518.27 Q1466.42 1522.85 1466.42 1531.6 Q1466.42 1540.33 1463.34 1544.94 Q1460.29 1549.52 1454.48 1549.52 Q1448.67 1549.52 1445.59 1544.94 Q1442.53 1540.33 1442.53 1531.6 Q1442.53 1522.85 1445.59 1518.27 Q1448.67 1513.66 1454.48 1513.66 Z" fill="#000000" fill-rule="nonzero" fill-opacity="1" /><path clip-path="url(#clip710)" d="M1474.64 1542.97 L1479.52 1542.97 L1479.52 1548.85 L1474.64 1548.85 L1474.64 1542.97 Z" fill="#000000" fill-rule="nonzero" fill-opacity="1" /><path clip-path="url(#clip710)" d="M1499.71 1517.37 Q1496.1 1517.37 1494.27 1520.93 Q1492.46 1524.47 1492.46 1531.6 Q1492.46 1538.71 1494.27 1542.27 Q1496.1 1545.82 1499.71 1545.82 Q1503.34 1545.82 1505.15 1542.27 Q1506.98 1538.71 1506.98 1531.6 Q1506.98 1524.47 1505.15 1520.93 Q1503.34 1517.37 1499.71 1517.37 M1499.71 1513.66 Q1505.52 1513.66 1508.57 1518.27 Q1511.65 1522.85 1511.65 1531.6 Q1511.65 1540.33 1508.57 1544.94 Q1505.52 1549.52 1499.71 1549.52 Q1493.9 1549.52 1490.82 1544.94 Q1487.76 1540.33 1487.76 1531.6 Q1487.76 1522.85 1490.82 1518.27 Q1493.9 1513.66 1499.71 1513.66 Z" fill="#000000" fill-rule="nonzero" fill-opacity="1" /><path clip-path="url(#clip710)" d="M1937.88 1517.37 Q1934.27 1517.37 1932.44 1520.93 Q1930.64 1524.47 1930.64 1531.6 Q1930.64 1538.71 1932.44 1542.27 Q1934.27 1545.82 1937.88 1545.82 Q1941.52 1545.82 1943.32 1542.27 Q1945.15 1538.71 1945.15 1531.6 Q1945.15 1524.47 1943.32 1520.93 Q1941.52 1517.37 1937.88 1517.37 M1937.88 1513.66 Q1943.69 1513.66 1946.75 1518.27 Q1949.83 1522.85 1949.83 1531.6 Q1949.83 1540.33 1946.75 1544.94 Q1943.69 1549.52 1937.88 1549.52 Q1932.07 1549.52 1928.99 1544.94 Q1925.94 1540.33 1925.94 1531.6 Q1925.94 1522.85 1928.99 1518.27 Q1932.07 1513.66 1937.88 1513.66 Z" fill="#000000" fill-rule="nonzero" fill-opacity="1" /><path clip-path="url(#clip710)" d="M1958.04 1542.97 L1962.93 1542.97 L1962.93 1548.85 L1958.04 1548.85 L1958.04 1542.97 Z" fill="#000000" fill-rule="nonzero" fill-opacity="1" /><path clip-path="url(#clip710)" d="M1977.14 1544.91 L1993.46 1544.91 L1993.46 1548.85 L1971.52 1548.85 L1971.52 1544.91 Q1974.18 1542.16 1978.76 1537.53 Q1983.37 1532.88 1984.55 1531.53 Q1986.79 1529.01 1987.67 1527.27 Q1988.58 1525.51 1988.58 1523.82 Q1988.58 1521.07 1986.63 1519.33 Q1984.71 1517.6 1981.61 1517.6 Q1979.41 1517.6 1976.96 1518.36 Q1974.52 1519.13 1971.75 1520.68 L1971.75 1515.95 Q1974.57 1514.82 1977.02 1514.24 Q1979.48 1513.66 1981.52 1513.66 Q1986.89 1513.66 1990.08 1516.35 Q1993.27 1519.03 1993.27 1523.52 Q1993.27 1525.65 1992.46 1527.57 Q1991.68 1529.47 1989.57 1532.07 Q1988.99 1532.74 1985.89 1535.95 Q1982.79 1539.15 1977.14 1544.91 Z" fill="#000000" fill-rule="nonzero" fill-opacity="1" /><polyline clip-path="url(#clip712)" style="stroke:#000000; stroke-linecap:round; stroke-linejoin:round; stroke-width:2; stroke-opacity:0.1; fill:none" points="156.598,1449.96 2352.76,1449.96 "/>
<polyline clip-path="url(#clip712)" style="stroke:#000000; stroke-linecap:round; stroke-linejoin:round; stroke-width:2; stroke-opacity:0.1; fill:none" points="156.598,1195.95 2352.76,1195.95 "/>
<polyline clip-path="url(#clip712)" style="stroke:#000000; stroke-linecap:round; stroke-linejoin:round; stroke-width:2; stroke-opacity:0.1; fill:none" points="156.598,941.941 2352.76,941.941 "/>
<polyline clip-path="url(#clip712)" style="stroke:#000000; stroke-linecap:round; stroke-linejoin:round; stroke-width:2; stroke-opacity:0.1; fill:none" points="156.598,687.932 2352.76,687.932 "/>
<polyline clip-path="url(#clip712)" style="stroke:#000000; stroke-linecap:round; stroke-linejoin:round; stroke-width:2; stroke-opacity:0.1; fill:none" points="156.598,433.923 2352.76,433.923 "/>
<polyline clip-path="url(#clip712)" style="stroke:#000000; stroke-linecap:round; stroke-linejoin:round; stroke-width:2; stroke-opacity:0.1; fill:none" points="156.598,179.914 2352.76,179.914 "/>
<polyline clip-path="url(#clip710)" style="stroke:#000000; stroke-linecap:round; stroke-linejoin:round; stroke-width:4; stroke-opacity:1; fill:none" points="156.598,1486.45 156.598,47.2441 "/>
<polyline clip-path="url(#clip710)" style="stroke:#000000; stroke-linecap:round; stroke-linejoin:round; stroke-width:4; stroke-opacity:1; fill:none" points="156.598,1449.96 175.496,1449.96 "/>
<polyline clip-path="url(#clip710)" style="stroke:#000000; stroke-linecap:round; stroke-linejoin:round; stroke-width:4; stroke-opacity:1; fill:none" points="156.598,1195.95 175.496,1195.95 "/>
<polyline clip-path="url(#clip710)" style="stroke:#000000; stroke-linecap:round; stroke-linejoin:round; stroke-width:4; stroke-opacity:1; fill:none" points="156.598,941.941 175.496,941.941 "/>
<polyline clip-path="url(#clip710)" style="stroke:#000000; stroke-linecap:round; stroke-linejoin:round; stroke-width:4; stroke-opacity:1; fill:none" points="156.598,687.932 175.496,687.932 "/>
<polyline clip-path="url(#clip710)" style="stroke:#000000; stroke-linecap:round; stroke-linejoin:round; stroke-width:4; stroke-opacity:1; fill:none" points="156.598,433.923 175.496,433.923 "/>
<polyline clip-path="url(#clip710)" style="stroke:#000000; stroke-linecap:round; stroke-linejoin:round; stroke-width:4; stroke-opacity:1; fill:none" points="156.598,179.914 175.496,179.914 "/>
<path clip-path="url(#clip710)" d="M63.4226 1435.76 Q59.8115 1435.76 57.9828 1439.32 Q56.1773 1442.86 56.1773 1449.99 Q56.1773 1457.1 57.9828 1460.66 Q59.8115 1464.21 63.4226 1464.21 Q67.0569 1464.21 68.8624 1460.66 Q70.6911 1457.1 70.6911 1449.99 Q70.6911 1442.86 68.8624 1439.32 Q67.0569 1435.76 63.4226 1435.76 M63.4226 1432.05 Q69.2328 1432.05 72.2883 1436.66 Q75.367 1441.24 75.367 1449.99 Q75.367 1458.72 72.2883 1463.33 Q69.2328 1467.91 63.4226 1467.91 Q57.6125 1467.91 54.5338 1463.33 Q51.4782 1458.72 51.4782 1449.99 Q51.4782 1441.24 54.5338 1436.66 Q57.6125 1432.05 63.4226 1432.05 Z" fill="#000000" fill-rule="nonzero" fill-opacity="1" /><path clip-path="url(#clip710)" d="M83.5845 1461.36 L88.4688 1461.36 L88.4688 1467.24 L83.5845 1467.24 L83.5845 1461.36 Z" fill="#000000" fill-rule="nonzero" fill-opacity="1" /><path clip-path="url(#clip710)" d="M108.654 1435.76 Q105.043 1435.76 103.214 1439.32 Q101.409 1442.86 101.409 1449.99 Q101.409 1457.1 103.214 1460.66 Q105.043 1464.21 108.654 1464.21 Q112.288 1464.21 114.094 1460.66 Q115.922 1457.1 115.922 1449.99 Q115.922 1442.86 114.094 1439.32 Q112.288 1435.76 108.654 1435.76 M108.654 1432.05 Q114.464 1432.05 117.52 1436.66 Q120.598 1441.24 120.598 1449.99 Q120.598 1458.72 117.52 1463.33 Q114.464 1467.91 108.654 1467.91 Q102.844 1467.91 99.765 1463.33 Q96.7095 1458.72 96.7095 1449.99 Q96.7095 1441.24 99.765 1436.66 Q102.844 1432.05 108.654 1432.05 Z" fill="#000000" fill-rule="nonzero" fill-opacity="1" /><path clip-path="url(#clip710)" d="M64.6495 1181.75 Q61.0384 1181.75 59.2097 1185.31 Q57.4041 1188.85 57.4041 1195.98 Q57.4041 1203.09 59.2097 1206.66 Q61.0384 1210.2 64.6495 1210.2 Q68.2837 1210.2 70.0892 1206.66 Q71.9179 1203.09 71.9179 1195.98 Q71.9179 1188.85 70.0892 1185.31 Q68.2837 1181.75 64.6495 1181.75 M64.6495 1178.04 Q70.4596 1178.04 73.5152 1182.65 Q76.5938 1187.23 76.5938 1195.98 Q76.5938 1204.71 73.5152 1209.32 Q70.4596 1213.9 64.6495 1213.9 Q58.8393 1213.9 55.7606 1209.32 Q52.7051 1204.71 52.7051 1195.98 Q52.7051 1187.23 55.7606 1182.65 Q58.8393 1178.04 64.6495 1178.04 Z" fill="#000000" fill-rule="nonzero" fill-opacity="1" /><path clip-path="url(#clip710)" d="M84.8114 1207.35 L89.6956 1207.35 L89.6956 1213.23 L84.8114 1213.23 L84.8114 1207.35 Z" fill="#000000" fill-rule="nonzero" fill-opacity="1" /><path clip-path="url(#clip710)" d="M100.691 1209.29 L108.33 1209.29 L108.33 1182.93 L100.02 1184.6 L100.02 1180.34 L108.283 1178.67 L112.959 1178.67 L112.959 1209.29 L120.598 1209.29 L120.598 1213.23 L100.691 1213.23 L100.691 1209.29 Z" fill="#000000" fill-rule="nonzero" fill-opacity="1" /><path clip-path="url(#clip710)" d="M65.0198 927.739 Q61.4087 927.739 59.58 931.304 Q57.7745 934.846 57.7745 941.975 Q57.7745 949.082 59.58 952.647 Q61.4087 956.188 65.0198 956.188 Q68.6541 956.188 70.4596 952.647 Q72.2883 949.082 72.2883 941.975 Q72.2883 934.846 70.4596 931.304 Q68.6541 927.739 65.0198 927.739 M65.0198 924.036 Q70.83 924.036 73.8855 928.642 Q76.9642 933.226 76.9642 941.975 Q76.9642 950.702 73.8855 955.309 Q70.83 959.892 65.0198 959.892 Q59.2097 959.892 56.131 955.309 Q53.0754 950.702 53.0754 941.975 Q53.0754 933.226 56.131 928.642 Q59.2097 924.036 65.0198 924.036 Z" fill="#000000" fill-rule="nonzero" fill-opacity="1" /><path clip-path="url(#clip710)" d="M85.1818 953.341 L90.066 953.341 L90.066 959.221 L85.1818 959.221 L85.1818 953.341 Z" fill="#000000" fill-rule="nonzero" fill-opacity="1" /><path clip-path="url(#clip710)" d="M104.279 955.286 L120.598 955.286 L120.598 959.221 L98.6539 959.221 L98.6539 955.286 Q101.316 952.531 105.899 947.901 Q110.506 943.249 111.686 941.906 Q113.932 939.383 114.811 937.647 Q115.714 935.888 115.714 934.198 Q115.714 931.443 113.77 929.707 Q111.848 927.971 108.746 927.971 Q106.547 927.971 104.094 928.735 Q101.663 929.499 98.8854 931.05 L98.8854 926.327 Q101.709 925.193 104.163 924.614 Q106.617 924.036 108.654 924.036 Q114.024 924.036 117.219 926.721 Q120.413 929.406 120.413 933.897 Q120.413 936.026 119.603 937.948 Q118.816 939.846 116.709 942.438 Q116.131 943.11 113.029 946.327 Q109.927 949.522 104.279 955.286 Z" fill="#000000" fill-rule="nonzero" fill-opacity="1" /><path clip-path="url(#clip710)" d="M64.0708 673.731 Q60.4597 673.731 58.631 677.295 Q56.8254 680.837 56.8254 687.967 Q56.8254 695.073 58.631 698.638 Q60.4597 702.179 64.0708 702.179 Q67.705 702.179 69.5105 698.638 Q71.3392 695.073 71.3392 687.967 Q71.3392 680.837 69.5105 677.295 Q67.705 673.731 64.0708 673.731 M64.0708 670.027 Q69.8809 670.027 72.9365 674.633 Q76.0151 679.217 76.0151 687.967 Q76.0151 696.693 72.9365 701.3 Q69.8809 705.883 64.0708 705.883 Q58.2606 705.883 55.1819 701.3 Q52.1264 696.693 52.1264 687.967 Q52.1264 679.217 55.1819 674.633 Q58.2606 670.027 64.0708 670.027 Z" fill="#000000" fill-rule="nonzero" fill-opacity="1" /><path clip-path="url(#clip710)" d="M84.2327 699.332 L89.1169 699.332 L89.1169 705.212 L84.2327 705.212 L84.2327 699.332 Z" fill="#000000" fill-rule="nonzero" fill-opacity="1" /><path clip-path="url(#clip710)" d="M113.469 686.578 Q116.825 687.295 118.7 689.564 Q120.598 691.832 120.598 695.166 Q120.598 700.281 117.08 703.082 Q113.561 705.883 107.08 705.883 Q104.904 705.883 102.589 705.443 Q100.297 705.027 97.8437 704.17 L97.8437 699.656 Q99.7882 700.791 102.103 701.369 Q104.418 701.948 106.941 701.948 Q111.339 701.948 113.631 700.212 Q115.945 698.476 115.945 695.166 Q115.945 692.11 113.793 690.397 Q111.663 688.661 107.844 688.661 L103.816 688.661 L103.816 684.818 L108.029 684.818 Q111.478 684.818 113.307 683.453 Q115.135 682.064 115.135 679.471 Q115.135 676.809 113.237 675.397 Q111.362 673.962 107.844 673.962 Q105.922 673.962 103.723 674.379 Q101.524 674.795 98.8854 675.675 L98.8854 671.508 Q101.547 670.768 103.862 670.397 Q106.2 670.027 108.26 670.027 Q113.584 670.027 116.686 672.457 Q119.788 674.865 119.788 678.985 Q119.788 681.855 118.145 683.846 Q116.501 685.814 113.469 686.578 Z" fill="#000000" fill-rule="nonzero" fill-opacity="1" /><path clip-path="url(#clip710)" d="M62.9365 419.722 Q59.3254 419.722 57.4967 423.286 Q55.6912 426.828 55.6912 433.958 Q55.6912 441.064 57.4967 444.629 Q59.3254 448.171 62.9365 448.171 Q66.5707 448.171 68.3763 444.629 Q70.205 441.064 70.205 433.958 Q70.205 426.828 68.3763 423.286 Q66.5707 419.722 62.9365 419.722 M62.9365 416.018 Q68.7467 416.018 71.8022 420.624 Q74.8809 425.208 74.8809 433.958 Q74.8809 442.684 71.8022 447.291 Q68.7467 451.874 62.9365 451.874 Q57.1264 451.874 54.0477 447.291 Q50.9921 442.684 50.9921 433.958 Q50.9921 425.208 54.0477 420.624 Q57.1264 416.018 62.9365 416.018 Z" fill="#000000" fill-rule="nonzero" fill-opacity="1" /><path clip-path="url(#clip710)" d="M83.0984 445.323 L87.9827 445.323 L87.9827 451.203 L83.0984 451.203 L83.0984 445.323 Z" fill="#000000" fill-rule="nonzero" fill-opacity="1" /><path clip-path="url(#clip710)" d="M111.015 420.717 L99.2095 439.166 L111.015 439.166 L111.015 420.717 M109.788 416.643 L115.668 416.643 L115.668 439.166 L120.598 439.166 L120.598 443.055 L115.668 443.055 L115.668 451.203 L111.015 451.203 L111.015 443.055 L95.4132 443.055 L95.4132 438.541 L109.788 416.643 Z" fill="#000000" fill-rule="nonzero" fill-opacity="1" /><path clip-path="url(#clip710)" d="M64.418 165.713 Q60.8069 165.713 58.9782 169.277 Q57.1726 172.819 57.1726 179.949 Q57.1726 187.055 58.9782 190.62 Q60.8069 194.162 64.418 194.162 Q68.0522 194.162 69.8578 190.62 Q71.6865 187.055 71.6865 179.949 Q71.6865 172.819 69.8578 169.277 Q68.0522 165.713 64.418 165.713 M64.418 162.009 Q70.2281 162.009 73.2837 166.615 Q76.3624 171.199 76.3624 179.949 Q76.3624 188.676 73.2837 193.282 Q70.2281 197.865 64.418 197.865 Q58.6078 197.865 55.5291 193.282 Q52.4736 188.676 52.4736 179.949 Q52.4736 171.199 55.5291 166.615 Q58.6078 162.009 64.418 162.009 Z" fill="#000000" fill-rule="nonzero" fill-opacity="1" /><path clip-path="url(#clip710)" d="M84.5799 191.314 L89.4641 191.314 L89.4641 197.194 L84.5799 197.194 L84.5799 191.314 Z" fill="#000000" fill-rule="nonzero" fill-opacity="1" /><path clip-path="url(#clip710)" d="M99.6956 162.634 L118.052 162.634 L118.052 166.569 L103.978 166.569 L103.978 175.041 Q104.996 174.694 106.015 174.532 Q107.033 174.347 108.052 174.347 Q113.839 174.347 117.219 177.518 Q120.598 180.689 120.598 186.106 Q120.598 191.685 117.126 194.787 Q113.654 197.865 107.334 197.865 Q105.159 197.865 102.89 197.495 Q100.645 197.125 98.2372 196.384 L98.2372 191.685 Q100.321 192.819 102.543 193.375 Q104.765 193.93 107.242 193.93 Q111.246 193.93 113.584 191.824 Q115.922 189.717 115.922 186.106 Q115.922 182.495 113.584 180.389 Q111.246 178.282 107.242 178.282 Q105.367 178.282 103.492 178.699 Q101.64 179.115 99.6956 179.995 L99.6956 162.634 Z" fill="#000000" fill-rule="nonzero" fill-opacity="1" /><circle clip-path="url(#clip712)" cx="1542.93" cy="1321.81" r="14.4" fill="#808080" fill-rule="evenodd" fill-opacity="1" stroke="#000000" stroke-opacity="1" stroke-width="3.2"/>
<circle clip-path="url(#clip712)" cx="1452.92" cy="1445.72" r="14.4" fill="#808080" fill-rule="evenodd" fill-opacity="1" stroke="#000000" stroke-opacity="1" stroke-width="3.2"/>
<circle clip-path="url(#clip712)" cx="2290.6" cy="1359.77" r="14.4" fill="#808080" fill-rule="evenodd" fill-opacity="1" stroke="#000000" stroke-opacity="1" stroke-width="3.2"/>
<circle clip-path="url(#clip712)" cx="218.754" cy="87.9763" r="14.4" fill="#808080" fill-rule="evenodd" fill-opacity="1" stroke="#000000" stroke-opacity="1" stroke-width="3.2"/>
<path clip-path="url(#clip710)" d="M1547.23 1329.24 Q1538.19 1329.24 1534.71 1331.31 Q1531.22 1333.37 1531.22 1338.36 Q1531.22 1342.33 1533.82 1344.68 Q1536.45 1346.99 1540.95 1346.99 Q1547.14 1346.99 1550.87 1342.61 Q1554.64 1338.2 1554.64 1330.9 L1554.64 1329.24 L1547.23 1329.24 M1562.09 1326.16 L1562.09 1352.05 L1554.64 1352.05 L1554.64 1345.16 Q1552.09 1349.29 1548.28 1351.28 Q1544.47 1353.22 1538.96 1353.22 Q1531.99 1353.22 1527.86 1349.34 Q1523.77 1345.41 1523.77 1338.84 Q1523.77 1331.19 1528.87 1327.3 Q1534.02 1323.41 1544.19 1323.41 L1554.64 1323.41 L1554.64 1322.68 Q1554.64 1317.54 1551.24 1314.74 Q1547.87 1311.9 1541.76 1311.9 Q1537.87 1311.9 1534.18 1312.84 Q1530.5 1313.77 1527.09 1315.63 L1527.09 1308.75 Q1531.18 1307.17 1535.03 1306.4 Q1538.88 1305.59 1542.53 1305.59 Q1552.37 1305.59 1557.23 1310.69 Q1562.09 1315.79 1562.09 1326.16 Z" fill="#000000" fill-rule="nonzero" fill-opacity="1" /><path clip-path="url(#clip710)" d="M1465.47 1453.31 Q1465.47 1445.09 1462.07 1440.43 Q1458.71 1435.73 1452.79 1435.73 Q1446.88 1435.73 1443.48 1440.43 Q1440.11 1445.09 1440.11 1453.31 Q1440.11 1461.53 1443.48 1466.23 Q1446.88 1470.89 1452.79 1470.89 Q1458.71 1470.89 1462.07 1466.23 Q1465.47 1461.53 1465.47 1453.31 M1440.11 1437.47 Q1442.46 1433.42 1446.03 1431.48 Q1449.63 1429.49 1454.62 1429.49 Q1462.88 1429.49 1468.03 1436.05 Q1473.21 1442.62 1473.21 1453.31 Q1473.21 1464.01 1468.03 1470.57 Q1462.88 1477.13 1454.62 1477.13 Q1449.63 1477.13 1446.03 1475.19 Q1442.46 1473.2 1440.11 1469.15 L1440.11 1475.96 L1432.62 1475.96 L1432.62 1412.92 L1440.11 1412.92 L1440.11 1437.47 Z" fill="#000000" fill-rule="nonzero" fill-opacity="1" /><path clip-path="url(#clip710)" d="M2308.55 1346.38 L2308.55 1353.35 Q2305.39 1351.61 2302.19 1350.76 Q2299.03 1349.87 2295.79 1349.87 Q2288.53 1349.87 2284.52 1354.49 Q2280.51 1359.06 2280.51 1367.37 Q2280.51 1375.67 2284.52 1380.29 Q2288.53 1384.87 2295.79 1384.87 Q2299.03 1384.87 2302.19 1384.02 Q2305.39 1383.13 2308.55 1381.38 L2308.55 1388.27 Q2305.43 1389.73 2302.06 1390.46 Q2298.74 1391.19 2294.98 1391.19 Q2284.73 1391.19 2278.69 1384.75 Q2272.65 1378.31 2272.65 1367.37 Q2272.65 1356.27 2278.73 1349.91 Q2284.85 1343.55 2295.46 1343.55 Q2298.9 1343.55 2302.19 1344.28 Q2305.47 1344.97 2308.55 1346.38 Z" fill="#000000" fill-rule="nonzero" fill-opacity="1" /><path clip-path="url(#clip710)" d="M231.575 79.7327 L231.575 55.1842 L239.028 55.1842 L239.028 118.216 L231.575 118.216 L231.575 111.411 Q229.225 115.462 225.62 117.447 Q222.055 119.391 217.032 119.391 Q208.809 119.391 203.624 112.829 Q198.479 106.266 198.479 95.5717 Q198.479 84.8773 203.624 78.3149 Q208.809 71.7524 217.032 71.7524 Q222.055 71.7524 225.62 73.7373 Q229.225 75.6818 231.575 79.7327 M206.176 95.5717 Q206.176 103.795 209.538 108.494 Q212.941 113.153 218.855 113.153 Q224.769 113.153 228.172 108.494 Q231.575 103.795 231.575 95.5717 Q231.575 87.3484 228.172 82.6898 Q224.769 77.9908 218.855 77.9908 Q212.941 77.9908 209.538 82.6898 Q206.176 87.3484 206.176 95.5717 Z" fill="#000000" fill-rule="nonzero" fill-opacity="1" /><path clip-path="url(#clip710)" d="M2007.5 198.898 L2279.55 198.898 L2279.55 95.2176 L2007.5 95.2176  Z" fill="#ffffff" fill-rule="evenodd" fill-opacity="1"/>
<polyline clip-path="url(#clip710)" style="stroke:#000000; stroke-linecap:round; stroke-linejoin:round; stroke-width:4; stroke-opacity:1; fill:none" points="2007.5,198.898 2279.55,198.898 2279.55,95.2176 2007.5,95.2176 2007.5,198.898 "/>
<circle clip-path="url(#clip710)" cx="2105.11" cy="147.058" r="20.48" fill="#808080" fill-rule="evenodd" fill-opacity="1" stroke="#000000" stroke-opacity="1" stroke-width="4.55111"/>
<path clip-path="url(#clip710)" d="M2216.56 166.745 Q2214.76 171.375 2213.04 172.787 Q2211.33 174.199 2208.46 174.199 L2205.06 174.199 L2205.06 170.634 L2207.56 170.634 Q2209.32 170.634 2210.29 169.8 Q2211.26 168.967 2212.44 165.865 L2213.2 163.921 L2202.72 138.412 L2207.23 138.412 L2215.33 158.689 L2223.44 138.412 L2227.95 138.412 L2216.56 166.745 Z" fill="#000000" fill-rule="nonzero" fill-opacity="1" /><path clip-path="url(#clip710)" d="M2235.24 160.402 L2242.88 160.402 L2242.88 134.037 L2234.57 135.703 L2234.57 131.444 L2242.83 129.778 L2247.51 129.778 L2247.51 160.402 L2255.15 160.402 L2255.15 164.338 L2235.24 164.338 L2235.24 160.402 Z" fill="#000000" fill-rule="nonzero" fill-opacity="1" /></svg>
