<?xml version="1.0" encoding="utf-8"?>
<svg xmlns="http://www.w3.org/2000/svg" xmlns:xlink="http://www.w3.org/1999/xlink" width="600" height="400" viewBox="0 0 2400 1600">
<defs>
  <clipPath id="clip000">
    <rect x="0" y="0" width="2400" height="1600"/>
  </clipPath>
</defs>
<path clip-path="url(#clip000)" d="M0 1600 L2400 1600 L2400 0 L0 0  Z" fill="#ffffff" fill-rule="evenodd" fill-opacity="1"/>
<defs>
  <clipPath id="clip001">
    <rect x="480" y="0" width="1681" height="1600"/>
  </clipPath>
</defs>
<path clip-path="url(#clip000)" d="M112.177 1486.45 L2352.76 1486.45 L2352.76 47.2441 L112.177 47.2441  Z" fill="#ffffff" fill-rule="evenodd" fill-opacity="1"/>
<defs>
  <clipPath id="clip002">
    <rect x="112" y="47" width="2242" height="1440"/>
  </clipPath>
</defs>
<polyline clip-path="url(#clip002)" style="stroke:#000000; stroke-linecap:round; stroke-linejoin:round; stroke-width:2; stroke-opacity:0.1; fill:none" points="112.215,1486.45 112.215,47.2441 "/>
<polyline clip-path="url(#clip002)" style="stroke:#000000; stroke-linecap:round; stroke-linejoin:round; stroke-width:2; stroke-opacity:0.1; fill:none" points="586.724,1486.45 586.724,47.2441 "/>
<polyline clip-path="url(#clip002)" style="stroke:#000000; stroke-linecap:round; stroke-linejoin:round; stroke-width:2; stroke-opacity:0.1; fill:none" points="1061.23,1486.45 1061.23,47.2441 "/>
<polyline clip-path="url(#clip002)" style="stroke:#000000; stroke-linecap:round; stroke-linejoin:round; stroke-width:2; stroke-opacity:0.1; fill:none" points="1535.74,1486.45 1535.74,47.2441 "/>
<polyline clip-path="url(#clip002)" style="stroke:#000000; stroke-linecap:round; stroke-linejoin:round; stroke-width:2; stroke-opacity:0.1; fill:none" points="2010.25,1486.45 2010.25,47.2441 "/>
<polyline clip-path="url(#clip000)" style="stroke:#000000; stroke-linecap:round; stroke-linejoin:round; stroke-width:4; stroke-opacity:1; fill:none" points="112.177,1486.45 2352.76,1486.45 "/>
<polyline clip-path="url(#clip000)" style="stroke:#000000; stroke-linecap:round; stroke-linejoin:round; stroke-width:4; stroke-opacity:1; fill:none" points="112.215,1486.45 112.215,1467.55 "/>
<polyline clip-path="url(#clip000)" style="stroke:#000000; stroke-linecap:round; stroke-linejoin:round; stroke-width:4; stroke-opacity:1; fill:none" points="586.724,1486.45 586.724,1467.55 "/>
<polyline clip-path="url(#clip000)" style="stroke:#000000; stroke-linecap:round; stroke-linejoin:round; stroke-width:4; stroke-opacity:1; fill:none" points="1061.23,1486.45 1061.23,1467.55 "/>
<polyline clip-path="url(#clip000)" style="stroke:#000000; stroke-linecap:round; stroke-linejoin:round; stroke-width:4; stroke-opacity:1; fill:none" points="1535.74,1486.45 1535.74,1467.55 "/>
<polyline clip-path="url(#clip000)" style="stroke:#000000; stroke-linecap:round; stroke-linejoin:round; stroke-width:4; stroke-opacity:1; fill:none" points="2010.25,1486.45 2010.25,1467.55 "/>
<path clip-path="url(#clip000)" d="M59.2403 1532.02 L88.9161 1532.02 L88.9161 1535.95 L59.2403 1535.95 L59.2403 1532.02 Z" fill="#000000" fill-rule="nonzero" fill-opacity="1" /><path clip-path="url(#clip000)" d="M99.8188 1544.91 L107.458 1544.91 L107.458 1518.55 L99.1475 1520.21 L99.1475 1515.95 L107.411 1514.29 L112.087 1514.29 L112.087 1544.91 L119.726 1544.91 L119.726 1548.85 L99.8188 1548.85 L99.8188 1544.91 Z" fill="#000000" fill-rule="nonzero" fill-opacity="1" /><path clip-path="url(#clip000)" d="M129.171 1542.97 L134.055 1542.97 L134.055 1548.85 L129.171 1548.85 L129.171 1542.97 Z" fill="#000000" fill-rule="nonzero" fill-opacity="1" /><path clip-path="url(#clip000)" d="M144.286 1514.29 L162.643 1514.29 L162.643 1518.22 L148.569 1518.22 L148.569 1526.7 Q149.587 1526.35 150.606 1526.19 Q151.624 1526 152.643 1526 Q158.43 1526 161.809 1529.17 Q165.189 1532.34 165.189 1537.76 Q165.189 1543.34 161.717 1546.44 Q158.244 1549.52 151.925 1549.52 Q149.749 1549.52 147.481 1549.15 Q145.235 1548.78 142.828 1548.04 L142.828 1543.34 Q144.911 1544.47 147.133 1545.03 Q149.356 1545.58 151.832 1545.58 Q155.837 1545.58 158.175 1543.48 Q160.513 1541.37 160.513 1537.76 Q160.513 1534.15 158.175 1532.04 Q155.837 1529.94 151.832 1529.94 Q149.957 1529.94 148.082 1530.35 Q146.231 1530.77 144.286 1531.65 L144.286 1514.29 Z" fill="#000000" fill-rule="nonzero" fill-opacity="1" /><path clip-path="url(#clip000)" d="M533.252 1532.02 L562.928 1532.02 L562.928 1535.95 L533.252 1535.95 L533.252 1532.02 Z" fill="#000000" fill-rule="nonzero" fill-opacity="1" /><path clip-path="url(#clip000)" d="M573.831 1544.91 L581.47 1544.91 L581.47 1518.55 L573.16 1520.21 L573.16 1515.95 L581.423 1514.29 L586.099 1514.29 L586.099 1544.91 L593.738 1544.91 L593.738 1548.85 L573.831 1548.85 L573.831 1544.91 Z" fill="#000000" fill-rule="nonzero" fill-opacity="1" /><path clip-path="url(#clip000)" d="M603.183 1542.97 L608.067 1542.97 L608.067 1548.85 L603.183 1548.85 L603.183 1542.97 Z" fill="#000000" fill-rule="nonzero" fill-opacity="1" /><path clip-path="url(#clip000)" d="M628.252 1517.37 Q624.641 1517.37 622.812 1520.93 Q621.006 1524.47 621.006 1531.6 Q621.006 1538.71 622.812 1542.27 Q624.641 1545.82 628.252 1545.82 Q631.886 1545.82 633.692 1542.27 Q635.52 1538.71 635.52 1531.6 Q635.52 1524.47 633.692 1520.93 Q631.886 1517.37 628.252 1517.37 M628.252 1513.66 Q634.062 1513.66 637.118 1518.27 Q640.196 1522.85 640.196 1531.6 Q640.196 1540.33 637.118 1544.94 Q634.062 1549.52 628.252 1549.52 Q622.442 1549.52 619.363 1544.94 Q616.307 1540.33 616.307 1531.6 Q616.307 1522.85 619.363 1518.27 Q622.442 1513.66 628.252 1513.66 Z" fill="#000000" fill-rule="nonzero" fill-opacity="1" /><path clip-path="url(#clip000)" d="M1008.26 1532.02 L1037.94 1532.02 L1037.94 1535.95 L1008.26 1535.95 L1008.26 1532.02 Z" fill="#000000" fill-rule="nonzero" fill-opacity="1" /><path clip-path="url(#clip000)" d="M1058.03 1517.37 Q1054.42 1517.37 1052.59 1520.93 Q1050.78 1524.47 1050.78 1531.6 Q1050.78 1538.71 1052.59 1542.27 Q1054.42 1545.82 1058.03 1545.82 Q1061.66 1545.82 1063.47 1542.27 Q1065.3 1538.71 1065.3 1531.6 Q1065.3 1524.47 1063.47 1520.93 Q1061.66 1517.37 1058.03 1517.37 M1058.03 1513.66 Q1063.84 1513.66 1066.89 1518.27 Q1069.97 1522.85 1069.97 1531.6 Q1069.97 1540.33 1066.89 1544.94 Q1063.84 1549.52 1058.03 1549.52 Q1052.22 1549.52 1049.14 1544.94 Q1046.08 1540.33 1046.08 1531.6 Q1046.08 1522.85 1049.14 1518.27 Q1052.22 1513.66 1058.03 1513.66 Z" fill="#000000" fill-rule="nonzero" fill-opacity="1" /><path clip-path="url(#clip000)" d="M1078.19 1542.97 L1083.07 1542.97 L1083.07 1548.85 L1078.19 1548.85 L1078.19 1542.97 Z" fill="#000000" fill-rule="nonzero" fill-opacity="1" /><path clip-path="url(#clip000)" d="M1093.31 1514.29 L1111.66 1514.29 L1111.66 1518.22 L1097.59 1518.22 L1097.59 1526.7 Q1098.61 1526.35 1099.62 1526.19 Q1100.64 1526 1101.66 1526 Q1107.45 1526 1110.83 1529.17 Q1114.21 1532.34 1114.21 1537.76 Q1114.21 1543.34 1110.74 1546.44 Q1107.26 1549.52 1100.94 1549.52 Q1098.77 1549.52 1096.5 1549.15 Q1094.25 1548.78 1091.85 1548.04 L1091.85 1543.34 Q1093.93 1544.47 1096.15 1545.03 Q1098.37 1545.58 1100.85 1545.58 Q1104.86 1545.58 1107.19 1543.48 Q1109.53 1541.37 1109.53 1537.76 Q1109.53 1534.15 1107.19 1532.04 Q1104.86 1529.94 1100.85 1529.94 Q1098.98 1529.94 1097.1 1530.35 Q1095.25 1530.77 1093.31 1531.65 L1093.31 1514.29 Z" fill="#000000" fill-rule="nonzero" fill-opacity="1" /><path clip-path="url(#clip000)" d="M1513.13 1517.37 Q1509.52 1517.37 1507.69 1520.93 Q1505.88 1524.47 1505.88 1531.6 Q1505.88 1538.71 1507.69 1542.27 Q1509.52 1545.82 1513.13 1545.82 Q1516.76 1545.82 1518.57 1542.27 Q1520.4 1538.71 1520.4 1531.6 Q1520.4 1524.47 1518.57 1520.93 Q1516.76 1517.37 1513.13 1517.37 M1513.13 1513.66 Q1518.94 1513.66 1521.99 1518.27 Q1525.07 1522.85 1525.07 1531.6 Q1525.07 1540.33 1521.99 1544.94 Q1518.94 1549.52 1513.13 1549.52 Q1507.32 1549.52 1504.24 1544.94 Q1501.18 1540.33 1501.18 1531.6 Q1501.18 1522.85 1504.24 1518.27 Q1507.32 1513.66 1513.13 1513.66 Z" fill="#000000" fill-rule="nonzero" fill-opacity="1" /><path clip-path="url(#clip000)" d="M1533.29 1542.97 L1538.17 1542.97 L1538.17 1548.85 L1533.29 1548.85 L1533.29 1542.97 Z" fill="#000000" fill-rule="nonzero" fill-opacity="1" /><path clip-path="url(#clip000)" d="M1558.36 1517.37 Q1554.75 1517.37 1552.92 1520.93 Q1551.11 1524.47 1551.11 1531.6 Q1551.11 1538.71 1552.92 1542.27 Q1554.75 1545.82 1558.36 1545.82 Q1561.99 1545.82 1563.8 1542.27 Q1565.63 1538.71 1565.63 1531.6 Q1565.63 1524.47 1563.8 1520.93 Q1561.99 1517.37 1558.36 1517.37 M1558.36 1513.66 Q1564.17 1513.66 1567.22 1518.27 Q1570.3 1522.85 1570.3 1531.6 Q1570.3 1540.33 1567.22 1544.94 Q1564.17 1549.52 1558.36 1549.52 Q1552.55 1549.52 1549.47 1544.94 Q1546.41 1540.33 1546.41 1531.6 Q1546.41 1522.85 1549.47 1518.27 Q1552.55 1513.66 1558.36 1513.66 Z" fill="#000000" fill-rule="nonzero" fill-opacity="1" /><path clip-path="url(#clip000)" d="M1988.14 1517.37 Q1984.52 1517.37 1982.7 1520.93 Q1980.89 1524.47 1980.89 1531.6 Q1980.89 1538.71 1982.7 1542.27 Q1984.52 1545.82 1988.14 1545.82 Q1991.77 1545.82 1993.58 1542.27 Q1995.4 1538.71 1995.4 1531.6 Q1995.4 1524.47 1993.58 1520.93 Q1991.77 1517.37 1988.14 1517.37 M1988.14 1513.66 Q1993.95 1513.66 1997 1518.27 Q2000.08 1522.85 2000.08 1531.6 Q2000.08 1540.33 1997 1544.94 Q1993.95 1549.52 1988.14 1549.52 Q1982.33 1549.52 1979.25 1544.94 Q1976.19 1540.33 1976.19 1531.6 Q1976.19 1522.85 1979.25 1518.27 Q1982.33 1513.66 1988.14 1513.66 Z" fill="#000000" fill-rule="nonzero" fill-opacity="1" /><path clip-path="url(#clip000)" d="M2008.3 1542.97 L2013.18 1542.97 L2013.18 1548.85 L2008.3 1548.85 L2008.3 1542.97 Z" fill="#000000" fill-rule="nonzero" fill-opacity="1" /><path clip-path="url(#clip000)" d="M2023.41 1514.29 L2041.77 1514.29 L2041.77 1518.22 L2027.7 1518.22 L2027.7 1526.7 Q2028.71 1526.35 2029.73 1526.19 Q2030.75 1526 2031.77 1526 Q2037.56 1526 2040.94 1529.17 Q2044.32 1532.34 2044.32 1537.76 Q2044.32 1543.34 2040.84 1546.44 Q2037.37 1549.52 2031.05 1549.52 Q2028.88 1549.52 2026.61 1549.15 Q2024.36 1548.78 2021.95 1548.04 L2021.95 1543.34 Q2024.04 1544.47 2026.26 1545.03 Q2028.48 1545.58 2030.96 1545.58 Q2034.96 1545.58 2037.3 1543.48 Q2039.64 1541.37 2039.64 1537.76 Q2039.64 1534.15 2037.3 1532.04 Q2034.96 1529.94 2030.96 1529.94 Q2029.08 1529.94 2027.21 1530.35 Q2025.36 1530.77 2023.41 1531.65 L2023.41 1514.29 Z" fill="#000000" fill-rule="nonzero" fill-opacity="1" /><polyline clip-path="url(#clip002)" style="stroke:#000000; stroke-linecap:round; stroke-linejoin:round; stroke-width:2; stroke-opacity:0.1; fill:none" points="112.177,1285.06 2352.76,1285.06 "/>
<polyline clip-path="url(#clip002)" style="stroke:#000000; stroke-linecap:round; stroke-linejoin:round; stroke-width:2; stroke-opacity:0.1; fill:none" points="112.177,1071.95 2352.76,1071.95 "/>
<polyline clip-path="url(#clip002)" style="stroke:#000000; stroke-linecap:round; stroke-linejoin:round; stroke-width:2; stroke-opacity:0.1; fill:none" points="112.177,858.853 2352.76,858.853 "/>
<polyline clip-path="url(#clip002)" style="stroke:#000000; stroke-linecap:round; stroke-linejoin:round; stroke-width:2; stroke-opacity:0.1; fill:none" points="112.177,645.751 2352.76,645.751 "/>
<polyline clip-path="url(#clip002)" style="stroke:#000000; stroke-linecap:round; stroke-linejoin:round; stroke-width:2; stroke-opacity:0.1; fill:none" points="112.177,432.649 2352.76,432.649 "/>
<polyline clip-path="url(#clip002)" style="stroke:#000000; stroke-linecap:round; stroke-linejoin:round; stroke-width:2; stroke-opacity:0.1; fill:none" points="112.177,219.548 2352.76,219.548 "/>
<polyline clip-path="url(#clip000)" style="stroke:#000000; stroke-linecap:round; stroke-linejoin:round; stroke-width:4; stroke-opacity:1; fill:none" points="112.177,1486.45 112.177,47.2441 "/>
<polyline clip-path="url(#clip000)" style="stroke:#000000; stroke-linecap:round; stroke-linejoin:round; stroke-width:4; stroke-opacity:1; fill:none" points="112.177,1285.06 131.075,1285.06 "/>
<polyline clip-path="url(#clip000)" style="stroke:#000000; stroke-linecap:round; stroke-linejoin:round; stroke-width:4; stroke-opacity:1; fill:none" points="112.177,1071.95 131.075,1071.95 "/>
<polyline clip-path="url(#clip000)" style="stroke:#000000; stroke-linecap:round; stroke-linejoin:round; stroke-width:4; stroke-opacity:1; fill:none" points="112.177,858.853 131.075,858.853 "/>
<polyline clip-path="url(#clip000)" style="stroke:#000000; stroke-linecap:round; stroke-linejoin:round; stroke-width:4; stroke-opacity:1; fill:none" points="112.177,645.751 131.075,645.751 "/>
<polyline clip-path="url(#clip000)" style="stroke:#000000; stroke-linecap:round; stroke-linejoin:round; stroke-width:4; stroke-opacity:1; fill:none" points="112.177,432.649 131.075,432.649 "/>
<polyline clip-path="url(#clip000)" style="stroke:#000000; stroke-linecap:round; stroke-linejoin:round; stroke-width:4; stroke-opacity:1; fill:none" points="112.177,219.548 131.075,219.548 "/>
<path clip-path="url(#clip000)" d="M56.2699 1298.4 L63.9087 1298.4 L63.9087 1272.04 L55.5986 1273.7 L55.5986 1269.44 L63.8624 1267.78 L68.5383 1267.78 L68.5383 1298.4 L76.1772 1298.4 L76.1772 1302.34 L56.2699 1302.34 L56.2699 1298.4 Z" fill="#000000" fill-rule="nonzero" fill-opacity="1" /><path clip-path="url(#clip000)" d="M59.8578 1085.3 L76.1772 1085.3 L76.1772 1089.23 L54.2328 1089.23 L54.2328 1085.3 Q56.8949 1082.54 61.4782 1077.92 Q66.0846 1073.26 67.2652 1071.92 Q69.5105 1069.4 70.3902 1067.66 Q71.2929 1065.9 71.2929 1064.21 Q71.2929 1061.46 69.3485 1059.72 Q67.4272 1057.98 64.3254 1057.98 Q62.1263 1057.98 59.6726 1058.75 Q57.2421 1059.51 54.4643 1061.06 L54.4643 1056.34 Q57.2884 1055.21 59.7421 1054.63 Q62.1958 1054.05 64.2328 1054.05 Q69.6031 1054.05 72.7976 1056.73 Q75.992 1059.42 75.992 1063.91 Q75.992 1066.04 75.1818 1067.96 Q74.3948 1069.86 72.2883 1072.45 Q71.7096 1073.12 68.6078 1076.34 Q65.5059 1079.54 59.8578 1085.3 Z" fill="#000000" fill-rule="nonzero" fill-opacity="1" /><path clip-path="url(#clip000)" d="M69.0476 857.499 Q72.404 858.216 74.279 860.485 Q76.1772 862.753 76.1772 866.087 Q76.1772 871.202 72.6587 874.003 Q69.1402 876.804 62.6587 876.804 Q60.4828 876.804 58.168 876.364 Q55.8764 875.948 53.4227 875.091 L53.4227 870.577 Q55.3671 871.711 57.6819 872.29 Q59.9967 872.869 62.5198 872.869 Q66.918 872.869 69.2096 871.133 Q71.5244 869.397 71.5244 866.087 Q71.5244 863.031 69.3717 861.318 Q67.242 859.582 63.4226 859.582 L59.3949 859.582 L59.3949 855.739 L63.6078 855.739 Q67.0569 855.739 68.8855 854.374 Q70.7142 852.985 70.7142 850.392 Q70.7142 847.73 68.8161 846.318 Q66.9411 844.883 63.4226 844.883 Q61.5013 844.883 59.3023 845.3 Q57.1032 845.716 54.4643 846.596 L54.4643 842.429 Q57.1264 841.689 59.4412 841.318 Q61.7791 840.948 63.8393 840.948 Q69.1633 840.948 72.2652 843.378 Q75.367 845.786 75.367 849.906 Q75.367 852.776 73.7235 854.767 Q72.08 856.735 69.0476 857.499 Z" fill="#000000" fill-rule="nonzero" fill-opacity="1" /><path clip-path="url(#clip000)" d="M66.5939 632.545 L54.7884 650.994 L66.5939 650.994 L66.5939 632.545 M65.367 628.471 L71.2466 628.471 L71.2466 650.994 L76.1772 650.994 L76.1772 654.883 L71.2466 654.883 L71.2466 663.031 L66.5939 663.031 L66.5939 654.883 L50.9921 654.883 L50.9921 650.369 L65.367 628.471 Z" fill="#000000" fill-rule="nonzero" fill-opacity="1" /><path clip-path="url(#clip000)" d="M55.2745 415.369 L73.6309 415.369 L73.6309 419.304 L59.5569 419.304 L59.5569 427.777 Q60.5754 427.429 61.5939 427.267 Q62.6124 427.082 63.6309 427.082 Q69.418 427.082 72.7976 430.253 Q76.1772 433.425 76.1772 438.841 Q76.1772 444.42 72.705 447.522 Q69.2328 450.601 62.9134 450.601 Q60.7374 450.601 58.4689 450.23 Q56.2236 449.86 53.8162 449.119 L53.8162 444.42 Q55.8995 445.554 58.1217 446.11 Q60.3439 446.665 62.8208 446.665 Q66.8254 446.665 69.1633 444.559 Q71.5013 442.452 71.5013 438.841 Q71.5013 435.23 69.1633 433.124 Q66.8254 431.017 62.8208 431.017 Q60.9458 431.017 59.0708 431.434 Q57.2189 431.851 55.2745 432.73 L55.2745 415.369 Z" fill="#000000" fill-rule="nonzero" fill-opacity="1" /><path clip-path="url(#clip000)" d="M64.6495 217.684 Q61.5013 217.684 59.6495 219.837 Q57.8208 221.99 57.8208 225.74 Q57.8208 229.466 59.6495 231.642 Q61.5013 233.795 64.6495 233.795 Q67.7976 233.795 69.6263 231.642 Q71.4781 229.466 71.4781 225.74 Q71.4781 221.99 69.6263 219.837 Q67.7976 217.684 64.6495 217.684 M73.9318 203.031 L73.9318 207.291 Q72.1726 206.457 70.367 206.018 Q68.5846 205.578 66.8254 205.578 Q62.1958 205.578 59.7421 208.703 Q57.3115 211.828 56.9643 218.147 Q58.33 216.133 60.3902 215.068 Q62.4504 213.98 64.9272 213.98 Q70.1355 213.98 73.1448 217.152 Q76.1772 220.3 76.1772 225.74 Q76.1772 231.064 73.029 234.281 Q69.8809 237.499 64.6495 237.499 Q58.6541 237.499 55.4828 232.916 Q52.3116 228.309 52.3116 219.582 Q52.3116 211.388 56.2004 206.527 Q60.0893 201.643 66.6402 201.643 Q68.3994 201.643 70.1818 201.99 Q71.9874 202.337 73.9318 203.031 Z" fill="#000000" fill-rule="nonzero" fill-opacity="1" /><circle clip-path="url(#clip002)" cx="2289.34" cy="1327.92" r="14.4" fill="#808080" fill-rule="evenodd" fill-opacity="1" stroke="#000000" stroke-opacity="1" stroke-width="3.2"/>
<circle clip-path="url(#clip002)" cx="175.59" cy="87.9763" r="14.4" fill="#808080" fill-rule="evenodd" fill-opacity="1" stroke="#000000" stroke-opacity="1" stroke-width="3.2"/>
<circle clip-path="url(#clip002)" cx="1538.31" cy="1445.72" r="14.4" fill="#808080" fill-rule="evenodd" fill-opacity="1" stroke="#000000" stroke-opacity="1" stroke-width="3.2"/>
<circle clip-path="url(#clip002)" cx="1377.15" cy="1428.04" r="14.4" fill="#808080" fill-rule="evenodd" fill-opacity="1" stroke="#000000" stroke-opacity="1" stroke-width="3.2"/>
<path clip-path="url(#clip000)" d="M2293.64 1335.35 Q2284.6 1335.35 2281.12 1337.42 Q2277.64 1339.48 2277.64 1344.47 Q2277.64 1348.43 2280.23 1350.78 Q2282.86 1353.09 2287.36 1353.09 Q2293.56 1353.09 2297.28 1348.72 Q2301.05 1344.3 2301.05 1337.01 L2301.05 1335.35 L2293.64 1335.35 M2308.5 1332.27 L2308.5 1358.16 L2301.05 1358.16 L2301.05 1351.27 Q2298.5 1355.4 2294.69 1357.39 Q2290.88 1359.33 2285.37 1359.33 Q2278.41 1359.33 2274.27 1355.44 Q2270.18 1351.51 2270.18 1344.95 Q2270.18 1337.29 2275.29 1333.41 Q2280.43 1329.52 2290.6 1329.52 L2301.05 1329.52 L2301.05 1328.79 Q2301.05 1323.64 2297.65 1320.85 Q2294.29 1318.01 2288.17 1318.01 Q2284.28 1318.01 2280.59 1318.94 Q2276.91 1319.88 2273.5 1321.74 L2273.5 1314.85 Q2277.6 1313.27 2281.44 1312.5 Q2285.29 1311.69 2288.94 1311.69 Q2298.78 1311.69 2303.64 1316.8 Q2308.5 1321.9 2308.5 1332.27 Z" fill="#000000" fill-rule="nonzero" fill-opacity="1" /><path clip-path="url(#clip000)" d="M188.148 95.5717 Q188.148 87.3484 184.745 82.6898 Q181.383 77.9908 175.468 77.9908 Q169.554 77.9908 166.151 82.6898 Q162.789 87.3484 162.789 95.5717 Q162.789 103.795 166.151 108.494 Q169.554 113.153 175.468 113.153 Q181.383 113.153 184.745 108.494 Q188.148 103.795 188.148 95.5717 M162.789 79.7327 Q165.138 75.6818 168.703 73.7373 Q172.309 71.7524 177.291 71.7524 Q185.555 71.7524 190.7 78.3149 Q195.885 84.8773 195.885 95.5717 Q195.885 106.266 190.7 112.829 Q185.555 119.391 177.291 119.391 Q172.309 119.391 168.703 117.447 Q165.138 115.462 162.789 111.411 L162.789 118.216 L155.295 118.216 L155.295 55.1842 L162.789 55.1842 L162.789 79.7327 Z" fill="#000000" fill-rule="nonzero" fill-opacity="1" /><path clip-path="url(#clip000)" d="M1556.26 1432.33 L1556.26 1439.3 Q1553.1 1437.55 1549.9 1436.7 Q1546.74 1435.81 1543.5 1435.81 Q1536.24 1435.81 1532.23 1440.43 Q1528.22 1445.01 1528.22 1453.31 Q1528.22 1461.62 1532.23 1466.23 Q1536.24 1470.81 1543.5 1470.81 Q1546.74 1470.81 1549.9 1469.96 Q1553.1 1469.07 1556.26 1467.33 L1556.26 1474.21 Q1553.14 1475.67 1549.77 1476.4 Q1546.45 1477.13 1542.69 1477.13 Q1532.44 1477.13 1526.4 1470.69 Q1520.37 1464.25 1520.37 1453.31 Q1520.37 1442.21 1526.44 1435.85 Q1532.56 1429.49 1543.17 1429.49 Q1546.62 1429.49 1549.9 1430.22 Q1553.18 1430.91 1556.26 1432.33 Z" fill="#000000" fill-rule="nonzero" fill-opacity="1" /><path clip-path="url(#clip000)" d="M1389.97 1419.8 L1389.97 1395.25 L1397.42 1395.25 L1397.42 1458.28 L1389.97 1458.28 L1389.97 1451.48 Q1387.62 1455.53 1384.01 1457.51 Q1380.45 1459.46 1375.43 1459.46 Q1367.2 1459.46 1362.02 1452.9 Q1356.87 1446.33 1356.87 1435.64 Q1356.87 1424.95 1362.02 1418.38 Q1367.2 1411.82 1375.43 1411.82 Q1380.45 1411.82 1384.01 1413.81 Q1387.62 1415.75 1389.97 1419.8 M1364.57 1435.64 Q1364.57 1443.86 1367.93 1448.56 Q1371.33 1453.22 1377.25 1453.22 Q1383.16 1453.22 1386.57 1448.56 Q1389.97 1443.86 1389.97 1435.64 Q1389.97 1427.42 1386.57 1422.76 Q1383.16 1418.06 1377.25 1418.06 Q1371.33 1418.06 1367.93 1422.76 Q1364.57 1427.42 1364.57 1435.64 Z" fill="#000000" fill-rule="nonzero" fill-opacity="1" /><path clip-path="url(#clip000)" d="M2001.58 198.898 L2278.07 198.898 L2278.07 95.2176 L2001.58 95.2176  Z" fill="#ffffff" fill-rule="evenodd" fill-opacity="1"/>
<polyline clip-path="url(#clip000)" style="stroke:#000000; stroke-linecap:round; stroke-linejoin:round; stroke-width:4; stroke-opacity:1; fill:none" points="2001.58,198.898 2278.07,198.898 2278.07,95.2176 2001.58,95.2176 2001.58,198.898 "/>
<circle clip-path="url(#clip000)" cx="2101.16" cy="147.058" r="20.48" fill="#808080" fill-rule="evenodd" fill-opacity="1" stroke="#000000" stroke-opacity="1" stroke-width="4.55111"/>
<path clip-path="url(#clip000)" d="M2214.59 166.745 Q2212.78 171.375 2211.07 172.787 Q2209.36 174.199 2206.49 174.199 L2203.08 174.199 L2203.08 170.634 L2205.58 170.634 Q2207.34 170.634 2208.31 169.8 Q2209.29 168.967 2210.47 165.865 L2211.23 163.921 L2200.74 138.412 L2205.26 138.412 L2213.36 158.689 L2221.46 138.412 L2225.98 138.412 L2214.59 166.745 Z" fill="#000000" fill-rule="nonzero" fill-opacity="1" /><path clip-path="url(#clip000)" d="M2233.27 160.402 L2240.91 160.402 L2240.91 134.037 L2232.6 135.703 L2232.6 131.444 L2240.86 129.778 L2245.54 129.778 L2245.54 160.402 L2253.17 160.402 L2253.17 164.338 L2233.27 164.338 L2233.27 160.402 Z" fill="#000000" fill-rule="nonzero" fill-opacity="1" /></svg>
