<?xml version="1.0" encoding="utf-8"?>
<svg xmlns="http://www.w3.org/2000/svg" xmlns:xlink="http://www.w3.org/1999/xlink" width="600" height="400" viewBox="0 0 2400 1600">
<defs>
  <clipPath id="clip940">
    <rect x="0" y="0" width="2400" height="1600"/>
  </clipPath>
</defs>
<path clip-path="url(#clip940)" d="M0 1600 L2400 1600 L2400 0 L0 0  Z" fill="#ffffff" fill-rule="evenodd" fill-opacity="1"/>
<defs>
  <clipPath id="clip941">
    <rect x="480" y="0" width="1681" height="1600"/>
  </clipPath>
</defs>
<path clip-path="url(#clip940)" d="M186.274 1486.45 L2352.76 1486.45 L2352.76 47.2441 L186.274 47.2441  Z" fill="#ffffff" fill-rule="evenodd" fill-opacity="1"/>
<defs>
  <clipPath id="clip942">
    <rect x="186" y="47" width="2167" height="1440"/>
  </clipPath>
</defs>
<polyline clip-path="url(#clip942)" style="stroke:#000000; stroke-linecap:round; stroke-linejoin:round; stroke-width:2; stroke-opacity:0.1; fill:none" points="407.821,1486.45 407.821,47.2441 "/>
<polyline clip-path="url(#clip942)" style="stroke:#000000; stroke-linecap:round; stroke-linejoin:round; stroke-width:2; stroke-opacity:0.1; fill:none" points="804.696,1486.45 804.696,47.2441 "/>
<polyline clip-path="url(#clip942)" style="stroke:#000000; stroke-linecap:round; stroke-linejoin:round; stroke-width:2; stroke-opacity:0.1; fill:none" points="1201.57,1486.45 1201.57,47.2441 "/>
<polyline clip-path="url(#clip942)" style="stroke:#000000; stroke-linecap:round; stroke-linejoin:round; stroke-width:2; stroke-opacity:0.1; fill:none" points="1598.44,1486.45 1598.44,47.2441 "/>
<polyline clip-path="url(#clip942)" style="stroke:#000000; stroke-linecap:round; stroke-linejoin:round; stroke-width:2; stroke-opacity:0.1; fill:none" points="1995.32,1486.45 1995.32,47.2441 "/>
<polyline clip-path="url(#clip940)" style="stroke:#000000; stroke-linecap:round; stroke-linejoin:round; stroke-width:4; stroke-opacity:1; fill:none" points="186.274,1486.45 2352.76,1486.45 "/>
<polyline clip-path="url(#clip940)" style="stroke:#000000; stroke-linecap:round; stroke-linejoin:round; stroke-width:4; stroke-opacity:1; fill:none" points="407.821,1486.45 407.821,1467.55 "/>
<polyline clip-path="url(#clip940)" style="stroke:#000000; stroke-linecap:round; stroke-linejoin:round; stroke-width:4; stroke-opacity:1; fill:none" points="804.696,1486.45 804.696,1467.55 "/>
<polyline clip-path="url(#clip940)" style="stroke:#000000; stroke-linecap:round; stroke-linejoin:round; stroke-width:4; stroke-opacity:1; fill:none" points="1201.57,1486.45 1201.57,1467.55 "/>
<polyline clip-path="url(#clip940)" style="stroke:#000000; stroke-linecap:round; stroke-linejoin:round; stroke-width:4; stroke-opacity:1; fill:none" points="1598.44,1486.45 1598.44,1467.55 "/>
<polyline clip-path="url(#clip940)" style="stroke:#000000; stroke-linecap:round; stroke-linejoin:round; stroke-width:4; stroke-opacity:1; fill:none" points="1995.32,1486.45 1995.32,1467.55 "/>
<path clip-path="url(#clip940)" d="M354.268 1532.02 L383.944 1532.02 L383.944 1535.95 L354.268 1535.95 L354.268 1532.02 Z" fill="#000000" fill-rule="nonzero" fill-opacity="1" /><path clip-path="url(#clip940)" d="M404.037 1517.37 Q400.425 1517.37 398.597 1520.93 Q396.791 1524.47 396.791 1531.6 Q396.791 1538.71 398.597 1542.27 Q400.425 1545.82 404.037 1545.82 Q407.671 1545.82 409.476 1542.27 Q411.305 1538.71 411.305 1531.6 Q411.305 1524.47 409.476 1520.93 Q407.671 1517.37 404.037 1517.37 M404.037 1513.66 Q409.847 1513.66 412.902 1518.27 Q415.981 1522.85 415.981 1531.6 Q415.981 1540.33 412.902 1544.94 Q409.847 1549.52 404.037 1549.52 Q398.226 1549.52 395.148 1544.94 Q392.092 1540.33 392.092 1531.6 Q392.092 1522.85 395.148 1518.27 Q398.226 1513.66 404.037 1513.66 Z" fill="#000000" fill-rule="nonzero" fill-opacity="1" /><path clip-path="url(#clip940)" d="M424.198 1542.97 L429.083 1542.97 L429.083 1548.85 L424.198 1548.85 L424.198 1542.97 Z" fill="#000000" fill-rule="nonzero" fill-opacity="1" /><path clip-path="url(#clip940)" d="M449.846 1529.7 Q446.698 1529.7 444.846 1531.86 Q443.018 1534.01 443.018 1537.76 Q443.018 1541.49 444.846 1543.66 Q446.698 1545.82 449.846 1545.82 Q452.995 1545.82 454.823 1543.66 Q456.675 1541.49 456.675 1537.76 Q456.675 1534.01 454.823 1531.86 Q452.995 1529.7 449.846 1529.7 M459.129 1515.05 L459.129 1519.31 Q457.37 1518.48 455.564 1518.04 Q453.782 1517.6 452.022 1517.6 Q447.393 1517.6 444.939 1520.72 Q442.509 1523.85 442.161 1530.17 Q443.527 1528.15 445.587 1527.09 Q447.647 1526 450.124 1526 Q455.333 1526 458.342 1529.17 Q461.374 1532.32 461.374 1537.76 Q461.374 1543.08 458.226 1546.3 Q455.078 1549.52 449.846 1549.52 Q443.851 1549.52 440.68 1544.94 Q437.509 1540.33 437.509 1531.6 Q437.509 1523.41 441.397 1518.55 Q445.286 1513.66 451.837 1513.66 Q453.596 1513.66 455.379 1514.01 Q457.184 1514.36 459.129 1515.05 Z" fill="#000000" fill-rule="nonzero" fill-opacity="1" /><path clip-path="url(#clip940)" d="M750.981 1532.02 L780.656 1532.02 L780.656 1535.95 L750.981 1535.95 L750.981 1532.02 Z" fill="#000000" fill-rule="nonzero" fill-opacity="1" /><path clip-path="url(#clip940)" d="M800.749 1517.37 Q797.138 1517.37 795.309 1520.93 Q793.503 1524.47 793.503 1531.6 Q793.503 1538.71 795.309 1542.27 Q797.138 1545.82 800.749 1545.82 Q804.383 1545.82 806.189 1542.27 Q808.017 1538.71 808.017 1531.6 Q808.017 1524.47 806.189 1520.93 Q804.383 1517.37 800.749 1517.37 M800.749 1513.66 Q806.559 1513.66 809.614 1518.27 Q812.693 1522.85 812.693 1531.6 Q812.693 1540.33 809.614 1544.94 Q806.559 1549.52 800.749 1549.52 Q794.939 1549.52 791.86 1544.94 Q788.804 1540.33 788.804 1531.6 Q788.804 1522.85 791.86 1518.27 Q794.939 1513.66 800.749 1513.66 Z" fill="#000000" fill-rule="nonzero" fill-opacity="1" /><path clip-path="url(#clip940)" d="M820.911 1542.97 L825.795 1542.97 L825.795 1548.85 L820.911 1548.85 L820.911 1542.97 Z" fill="#000000" fill-rule="nonzero" fill-opacity="1" /><path clip-path="url(#clip940)" d="M848.827 1518.36 L837.022 1536.81 L848.827 1536.81 L848.827 1518.36 M847.6 1514.29 L853.48 1514.29 L853.48 1536.81 L858.41 1536.81 L858.41 1540.7 L853.48 1540.7 L853.48 1548.85 L848.827 1548.85 L848.827 1540.7 L833.225 1540.7 L833.225 1536.19 L847.6 1514.29 Z" fill="#000000" fill-rule="nonzero" fill-opacity="1" /><path clip-path="url(#clip940)" d="M1148.9 1532.02 L1178.57 1532.02 L1178.57 1535.95 L1148.9 1535.95 L1148.9 1532.02 Z" fill="#000000" fill-rule="nonzero" fill-opacity="1" /><path clip-path="url(#clip940)" d="M1198.66 1517.37 Q1195.05 1517.37 1193.22 1520.93 Q1191.42 1524.47 1191.42 1531.6 Q1191.42 1538.71 1193.22 1542.27 Q1195.05 1545.82 1198.66 1545.82 Q1202.3 1545.82 1204.1 1542.27 Q1205.93 1538.71 1205.93 1531.6 Q1205.93 1524.47 1204.1 1520.93 Q1202.3 1517.37 1198.66 1517.37 M1198.66 1513.66 Q1204.47 1513.66 1207.53 1518.27 Q1210.61 1522.85 1210.61 1531.6 Q1210.61 1540.33 1207.53 1544.94 Q1204.47 1549.52 1198.66 1549.52 Q1192.85 1549.52 1189.78 1544.94 Q1186.72 1540.33 1186.72 1531.6 Q1186.72 1522.85 1189.78 1518.27 Q1192.85 1513.66 1198.66 1513.66 Z" fill="#000000" fill-rule="nonzero" fill-opacity="1" /><path clip-path="url(#clip940)" d="M1218.83 1542.97 L1223.71 1542.97 L1223.71 1548.85 L1218.83 1548.85 L1218.83 1542.97 Z" fill="#000000" fill-rule="nonzero" fill-opacity="1" /><path clip-path="url(#clip940)" d="M1237.92 1544.91 L1254.24 1544.91 L1254.24 1548.85 L1232.3 1548.85 L1232.3 1544.91 Q1234.96 1542.16 1239.54 1537.53 Q1244.15 1532.88 1245.33 1531.53 Q1247.58 1529.01 1248.46 1527.27 Q1249.36 1525.51 1249.36 1523.82 Q1249.36 1521.07 1247.41 1519.33 Q1245.49 1517.6 1242.39 1517.6 Q1240.19 1517.6 1237.74 1518.36 Q1235.31 1519.13 1232.53 1520.68 L1232.53 1515.95 Q1235.35 1514.82 1237.81 1514.24 Q1240.26 1513.66 1242.3 1513.66 Q1247.67 1513.66 1250.86 1516.35 Q1254.06 1519.03 1254.06 1523.52 Q1254.06 1525.65 1253.25 1527.57 Q1252.46 1529.47 1250.35 1532.07 Q1249.78 1532.74 1246.67 1535.95 Q1243.57 1539.15 1237.92 1544.91 Z" fill="#000000" fill-rule="nonzero" fill-opacity="1" /><path clip-path="url(#clip940)" d="M1575.83 1517.37 Q1572.22 1517.37 1570.39 1520.93 Q1568.58 1524.47 1568.58 1531.6 Q1568.58 1538.71 1570.39 1542.27 Q1572.22 1545.82 1575.83 1545.82 Q1579.46 1545.82 1581.27 1542.27 Q1583.1 1538.71 1583.1 1531.6 Q1583.1 1524.47 1581.27 1520.93 Q1579.46 1517.37 1575.83 1517.37 M1575.83 1513.66 Q1581.64 1513.66 1584.69 1518.27 Q1587.77 1522.85 1587.77 1531.6 Q1587.77 1540.33 1584.69 1544.94 Q1581.64 1549.52 1575.83 1549.52 Q1570.02 1549.52 1566.94 1544.94 Q1563.88 1540.33 1563.88 1531.6 Q1563.88 1522.85 1566.94 1518.27 Q1570.02 1513.66 1575.83 1513.66 Z" fill="#000000" fill-rule="nonzero" fill-opacity="1" /><path clip-path="url(#clip940)" d="M1595.99 1542.97 L1600.87 1542.97 L1600.87 1548.85 L1595.99 1548.85 L1595.99 1542.97 Z" fill="#000000" fill-rule="nonzero" fill-opacity="1" /><path clip-path="url(#clip940)" d="M1621.06 1517.37 Q1617.45 1517.37 1615.62 1520.93 Q1613.81 1524.47 1613.81 1531.6 Q1613.81 1538.71 1615.62 1542.27 Q1617.45 1545.82 1621.06 1545.82 Q1624.69 1545.82 1626.5 1542.27 Q1628.33 1538.71 1628.33 1531.6 Q1628.33 1524.47 1626.5 1520.93 Q1624.69 1517.37 1621.06 1517.37 M1621.06 1513.66 Q1626.87 1513.66 1629.93 1518.27 Q1633 1522.85 1633 1531.6 Q1633 1540.33 1629.93 1544.94 Q1626.87 1549.52 1621.06 1549.52 Q1615.25 1549.52 1612.17 1544.94 Q1609.12 1540.33 1609.12 1531.6 Q1609.12 1522.85 1612.17 1518.27 Q1615.25 1513.66 1621.06 1513.66 Z" fill="#000000" fill-rule="nonzero" fill-opacity="1" /><path clip-path="url(#clip940)" d="M1973.5 1517.37 Q1969.89 1517.37 1968.06 1520.93 Q1966.26 1524.47 1966.26 1531.6 Q1966.26 1538.71 1968.06 1542.27 Q1969.89 1545.82 1973.5 1545.82 Q1977.14 1545.82 1978.94 1542.27 Q1980.77 1538.71 1980.77 1531.6 Q1980.77 1524.47 1978.94 1520.93 Q1977.14 1517.37 1973.5 1517.37 M1973.5 1513.66 Q1979.31 1513.66 1982.37 1518.27 Q1985.45 1522.85 1985.45 1531.6 Q1985.45 1540.33 1982.37 1544.94 Q1979.31 1549.52 1973.5 1549.52 Q1967.69 1549.52 1964.61 1544.94 Q1961.56 1540.33 1961.56 1531.6 Q1961.56 1522.85 1964.61 1518.27 Q1967.69 1513.66 1973.5 1513.66 Z" fill="#000000" fill-rule="nonzero" fill-opacity="1" /><path clip-path="url(#clip940)" d="M1993.66 1542.97 L1998.55 1542.97 L1998.55 1548.85 L1993.66 1548.85 L1993.66 1542.97 Z" fill="#000000" fill-rule="nonzero" fill-opacity="1" /><path clip-path="url(#clip940)" d="M2012.76 1544.91 L2029.08 1544.91 L2029.08 1548.85 L2007.14 1548.85 L2007.14 1544.91 Q2009.8 1542.16 2014.38 1537.53 Q2018.99 1532.88 2020.17 1531.53 Q2022.41 1529.01 2023.29 1527.27 Q2024.2 1525.51 2024.2 1523.82 Q2024.2 1521.07 2022.25 1519.33 Q2020.33 1517.6 2017.23 1517.6 Q2015.03 1517.6 2012.58 1518.36 Q2010.14 1519.13 2007.37 1520.68 L2007.37 1515.95 Q2010.19 1514.82 2012.64 1514.24 Q2015.1 1513.66 2017.14 1513.66 Q2022.51 1513.66 2025.7 1516.35 Q2028.89 1519.03 2028.89 1523.52 Q2028.89 1525.65 2028.08 1527.57 Q2027.3 1529.47 2025.19 1532.07 Q2024.61 1532.74 2021.51 1535.95 Q2018.41 1539.15 2012.76 1544.91 Z" fill="#000000" fill-rule="nonzero" fill-opacity="1" /><polyline clip-path="url(#clip942)" style="stroke:#000000; stroke-linecap:round; stroke-linejoin:round; stroke-width:2; stroke-opacity:0.1; fill:none" points="186.274,1447.96 2352.76,1447.96 "/>
<polyline clip-path="url(#clip942)" style="stroke:#000000; stroke-linecap:round; stroke-linejoin:round; stroke-width:2; stroke-opacity:0.1; fill:none" points="186.274,1100.7 2352.76,1100.7 "/>
<polyline clip-path="url(#clip942)" style="stroke:#000000; stroke-linecap:round; stroke-linejoin:round; stroke-width:2; stroke-opacity:0.1; fill:none" points="186.274,753.453 2352.76,753.453 "/>
<polyline clip-path="url(#clip942)" style="stroke:#000000; stroke-linecap:round; stroke-linejoin:round; stroke-width:2; stroke-opacity:0.1; fill:none" points="186.274,406.202 2352.76,406.202 "/>
<polyline clip-path="url(#clip942)" style="stroke:#000000; stroke-linecap:round; stroke-linejoin:round; stroke-width:2; stroke-opacity:0.1; fill:none" points="186.274,58.9508 2352.76,58.9508 "/>
<polyline clip-path="url(#clip940)" style="stroke:#000000; stroke-linecap:round; stroke-linejoin:round; stroke-width:4; stroke-opacity:1; fill:none" points="186.274,1486.45 186.274,47.2441 "/>
<polyline clip-path="url(#clip940)" style="stroke:#000000; stroke-linecap:round; stroke-linejoin:round; stroke-width:4; stroke-opacity:1; fill:none" points="186.274,1447.96 205.172,1447.96 "/>
<polyline clip-path="url(#clip940)" style="stroke:#000000; stroke-linecap:round; stroke-linejoin:round; stroke-width:4; stroke-opacity:1; fill:none" points="186.274,1100.7 205.172,1100.7 "/>
<polyline clip-path="url(#clip940)" style="stroke:#000000; stroke-linecap:round; stroke-linejoin:round; stroke-width:4; stroke-opacity:1; fill:none" points="186.274,753.453 205.172,753.453 "/>
<polyline clip-path="url(#clip940)" style="stroke:#000000; stroke-linecap:round; stroke-linejoin:round; stroke-width:4; stroke-opacity:1; fill:none" points="186.274,406.202 205.172,406.202 "/>
<polyline clip-path="url(#clip940)" style="stroke:#000000; stroke-linecap:round; stroke-linejoin:round; stroke-width:4; stroke-opacity:1; fill:none" points="186.274,58.9508 205.172,58.9508 "/>
<path clip-path="url(#clip940)" d="M62.9365 1433.75 Q59.3254 1433.75 57.4967 1437.32 Q55.6912 1440.86 55.6912 1447.99 Q55.6912 1455.1 57.4967 1458.66 Q59.3254 1462.2 62.9365 1462.2 Q66.5707 1462.2 68.3763 1458.66 Q70.205 1455.1 70.205 1447.99 Q70.205 1440.86 68.3763 1437.32 Q66.5707 1433.75 62.9365 1433.75 M62.9365 1430.05 Q68.7467 1430.05 71.8022 1434.66 Q74.8809 1439.24 74.8809 1447.99 Q74.8809 1456.72 71.8022 1461.32 Q68.7467 1465.91 62.9365 1465.91 Q57.1264 1465.91 54.0477 1461.32 Q50.9921 1456.72 50.9921 1447.99 Q50.9921 1439.24 54.0477 1434.66 Q57.1264 1430.05 62.9365 1430.05 Z" fill="#000000" fill-rule="nonzero" fill-opacity="1" /><path clip-path="url(#clip940)" d="M83.0984 1459.36 L87.9827 1459.36 L87.9827 1465.24 L83.0984 1465.24 L83.0984 1459.36 Z" fill="#000000" fill-rule="nonzero" fill-opacity="1" /><path clip-path="url(#clip940)" d="M108.168 1433.75 Q104.557 1433.75 102.728 1437.32 Q100.922 1440.86 100.922 1447.99 Q100.922 1455.1 102.728 1458.66 Q104.557 1462.2 108.168 1462.2 Q111.802 1462.2 113.608 1458.66 Q115.436 1455.1 115.436 1447.99 Q115.436 1440.86 113.608 1437.32 Q111.802 1433.75 108.168 1433.75 M108.168 1430.05 Q113.978 1430.05 117.033 1434.66 Q120.112 1439.24 120.112 1447.99 Q120.112 1456.72 117.033 1461.32 Q113.978 1465.91 108.168 1465.91 Q102.358 1465.91 99.2789 1461.32 Q96.2234 1456.72 96.2234 1447.99 Q96.2234 1439.24 99.2789 1434.66 Q102.358 1430.05 108.168 1430.05 Z" fill="#000000" fill-rule="nonzero" fill-opacity="1" /><path clip-path="url(#clip940)" d="M138.33 1433.75 Q134.719 1433.75 132.89 1437.32 Q131.084 1440.86 131.084 1447.99 Q131.084 1455.1 132.89 1458.66 Q134.719 1462.2 138.33 1462.2 Q141.964 1462.2 143.769 1458.66 Q145.598 1455.1 145.598 1447.99 Q145.598 1440.86 143.769 1437.32 Q141.964 1433.75 138.33 1433.75 M138.33 1430.05 Q144.14 1430.05 147.195 1434.66 Q150.274 1439.24 150.274 1447.99 Q150.274 1456.72 147.195 1461.32 Q144.14 1465.91 138.33 1465.91 Q132.519 1465.91 129.441 1461.32 Q126.385 1456.72 126.385 1447.99 Q126.385 1439.24 129.441 1434.66 Q132.519 1430.05 138.33 1430.05 Z" fill="#000000" fill-rule="nonzero" fill-opacity="1" /><path clip-path="url(#clip940)" d="M63.9319 1086.5 Q60.3208 1086.5 58.4921 1090.07 Q56.6865 1093.61 56.6865 1100.74 Q56.6865 1107.85 58.4921 1111.41 Q60.3208 1114.95 63.9319 1114.95 Q67.5661 1114.95 69.3717 1111.41 Q71.2004 1107.85 71.2004 1100.74 Q71.2004 1093.61 69.3717 1090.07 Q67.5661 1086.5 63.9319 1086.5 M63.9319 1082.8 Q69.742 1082.8 72.7976 1087.41 Q75.8763 1091.99 75.8763 1100.74 Q75.8763 1109.47 72.7976 1114.07 Q69.742 1118.66 63.9319 1118.66 Q58.1217 1118.66 55.043 1114.07 Q51.9875 1109.47 51.9875 1100.74 Q51.9875 1091.99 55.043 1087.41 Q58.1217 1082.8 63.9319 1082.8 Z" fill="#000000" fill-rule="nonzero" fill-opacity="1" /><path clip-path="url(#clip940)" d="M84.0938 1112.1 L88.978 1112.1 L88.978 1117.98 L84.0938 1117.98 L84.0938 1112.1 Z" fill="#000000" fill-rule="nonzero" fill-opacity="1" /><path clip-path="url(#clip940)" d="M103.191 1114.05 L119.51 1114.05 L119.51 1117.98 L97.566 1117.98 L97.566 1114.05 Q100.228 1111.29 104.811 1106.66 Q109.418 1102.01 110.598 1100.67 Q112.844 1098.15 113.723 1096.41 Q114.626 1094.65 114.626 1092.96 Q114.626 1090.21 112.682 1088.47 Q110.76 1086.73 107.658 1086.73 Q105.459 1086.73 103.006 1087.5 Q100.575 1088.26 97.7974 1089.81 L97.7974 1085.09 Q100.621 1083.96 103.075 1083.38 Q105.529 1082.8 107.566 1082.8 Q112.936 1082.8 116.131 1085.48 Q119.325 1088.17 119.325 1092.66 Q119.325 1094.79 118.515 1096.71 Q117.728 1098.61 115.621 1101.2 Q115.043 1101.87 111.941 1105.09 Q108.839 1108.29 103.191 1114.05 Z" fill="#000000" fill-rule="nonzero" fill-opacity="1" /><path clip-path="url(#clip940)" d="M129.371 1083.42 L147.728 1083.42 L147.728 1087.36 L133.654 1087.36 L133.654 1095.83 Q134.672 1095.48 135.691 1095.32 Q136.709 1095.14 137.728 1095.14 Q143.515 1095.14 146.894 1098.31 Q150.274 1101.48 150.274 1106.9 Q150.274 1112.47 146.802 1115.58 Q143.33 1118.66 137.01 1118.66 Q134.834 1118.66 132.566 1118.29 Q130.32 1117.91 127.913 1117.17 L127.913 1112.47 Q129.996 1113.61 132.219 1114.16 Q134.441 1114.72 136.918 1114.72 Q140.922 1114.72 143.26 1112.61 Q145.598 1110.51 145.598 1106.9 Q145.598 1103.29 143.26 1101.18 Q140.922 1099.07 136.918 1099.07 Q135.043 1099.07 133.168 1099.49 Q131.316 1099.91 129.371 1100.79 L129.371 1083.42 Z" fill="#000000" fill-rule="nonzero" fill-opacity="1" /><path clip-path="url(#clip940)" d="M62.9365 739.252 Q59.3254 739.252 57.4967 742.817 Q55.6912 746.358 55.6912 753.488 Q55.6912 760.594 57.4967 764.159 Q59.3254 767.701 62.9365 767.701 Q66.5707 767.701 68.3763 764.159 Q70.205 760.594 70.205 753.488 Q70.205 746.358 68.3763 742.817 Q66.5707 739.252 62.9365 739.252 M62.9365 735.548 Q68.7467 735.548 71.8022 740.154 Q74.8809 744.738 74.8809 753.488 Q74.8809 762.215 71.8022 766.821 Q68.7467 771.404 62.9365 771.404 Q57.1264 771.404 54.0477 766.821 Q50.9921 762.215 50.9921 753.488 Q50.9921 744.738 54.0477 740.154 Q57.1264 735.548 62.9365 735.548 Z" fill="#000000" fill-rule="nonzero" fill-opacity="1" /><path clip-path="url(#clip940)" d="M83.0984 764.853 L87.9827 764.853 L87.9827 770.733 L83.0984 770.733 L83.0984 764.853 Z" fill="#000000" fill-rule="nonzero" fill-opacity="1" /><path clip-path="url(#clip940)" d="M98.2141 736.173 L116.57 736.173 L116.57 740.108 L102.496 740.108 L102.496 748.58 Q103.515 748.233 104.534 748.071 Q105.552 747.886 106.571 747.886 Q112.358 747.886 115.737 751.057 Q119.117 754.228 119.117 759.645 Q119.117 765.224 115.645 768.326 Q112.172 771.404 105.853 771.404 Q103.677 771.404 101.409 771.034 Q99.1632 770.664 96.7558 769.923 L96.7558 765.224 Q98.8391 766.358 101.061 766.914 Q103.284 767.469 105.76 767.469 Q109.765 767.469 112.103 765.363 Q114.441 763.256 114.441 759.645 Q114.441 756.034 112.103 753.928 Q109.765 751.821 105.76 751.821 Q103.885 751.821 102.01 752.238 Q100.159 752.654 98.2141 753.534 L98.2141 736.173 Z" fill="#000000" fill-rule="nonzero" fill-opacity="1" /><path clip-path="url(#clip940)" d="M138.33 739.252 Q134.719 739.252 132.89 742.817 Q131.084 746.358 131.084 753.488 Q131.084 760.594 132.89 764.159 Q134.719 767.701 138.33 767.701 Q141.964 767.701 143.769 764.159 Q145.598 760.594 145.598 753.488 Q145.598 746.358 143.769 742.817 Q141.964 739.252 138.33 739.252 M138.33 735.548 Q144.14 735.548 147.195 740.154 Q150.274 744.738 150.274 753.488 Q150.274 762.215 147.195 766.821 Q144.14 771.404 138.33 771.404 Q132.519 771.404 129.441 766.821 Q126.385 762.215 126.385 753.488 Q126.385 744.738 129.441 740.154 Q132.519 735.548 138.33 735.548 Z" fill="#000000" fill-rule="nonzero" fill-opacity="1" /><path clip-path="url(#clip940)" d="M63.9319 392.001 Q60.3208 392.001 58.4921 395.565 Q56.6865 399.107 56.6865 406.237 Q56.6865 413.343 58.4921 416.908 Q60.3208 420.45 63.9319 420.45 Q67.5661 420.45 69.3717 416.908 Q71.2004 413.343 71.2004 406.237 Q71.2004 399.107 69.3717 395.565 Q67.5661 392.001 63.9319 392.001 M63.9319 388.297 Q69.742 388.297 72.7976 392.903 Q75.8763 397.487 75.8763 406.237 Q75.8763 414.963 72.7976 419.57 Q69.742 424.153 63.9319 424.153 Q58.1217 424.153 55.043 419.57 Q51.9875 414.963 51.9875 406.237 Q51.9875 397.487 55.043 392.903 Q58.1217 388.297 63.9319 388.297 Z" fill="#000000" fill-rule="nonzero" fill-opacity="1" /><path clip-path="url(#clip940)" d="M84.0938 417.602 L88.978 417.602 L88.978 423.482 L84.0938 423.482 L84.0938 417.602 Z" fill="#000000" fill-rule="nonzero" fill-opacity="1" /><path clip-path="url(#clip940)" d="M97.9826 388.922 L120.205 388.922 L120.205 390.913 L107.658 423.482 L102.774 423.482 L114.58 392.857 L97.9826 392.857 L97.9826 388.922 Z" fill="#000000" fill-rule="nonzero" fill-opacity="1" /><path clip-path="url(#clip940)" d="M129.371 388.922 L147.728 388.922 L147.728 392.857 L133.654 392.857 L133.654 401.329 Q134.672 400.982 135.691 400.82 Q136.709 400.635 137.728 400.635 Q143.515 400.635 146.894 403.806 Q150.274 406.977 150.274 412.394 Q150.274 417.973 146.802 421.075 Q143.33 424.153 137.01 424.153 Q134.834 424.153 132.566 423.783 Q130.32 423.412 127.913 422.672 L127.913 417.973 Q129.996 419.107 132.219 419.662 Q134.441 420.218 136.918 420.218 Q140.922 420.218 143.26 418.112 Q145.598 416.005 145.598 412.394 Q145.598 408.783 143.26 406.676 Q140.922 404.57 136.918 404.57 Q135.043 404.57 133.168 404.987 Q131.316 405.403 129.371 406.283 L129.371 388.922 Z" fill="#000000" fill-rule="nonzero" fill-opacity="1" /><path clip-path="url(#clip940)" d="M53.7467 72.2956 L61.3856 72.2956 L61.3856 45.93 L53.0754 47.5967 L53.0754 43.3374 L61.3393 41.6708 L66.0152 41.6708 L66.0152 72.2956 L73.654 72.2956 L73.654 76.2308 L53.7467 76.2308 L53.7467 72.2956 Z" fill="#000000" fill-rule="nonzero" fill-opacity="1" /><path clip-path="url(#clip940)" d="M83.0984 70.3512 L87.9827 70.3512 L87.9827 76.2308 L83.0984 76.2308 L83.0984 70.3512 Z" fill="#000000" fill-rule="nonzero" fill-opacity="1" /><path clip-path="url(#clip940)" d="M108.168 44.7495 Q104.557 44.7495 102.728 48.3143 Q100.922 51.8559 100.922 58.9855 Q100.922 66.0919 102.728 69.6567 Q104.557 73.1984 108.168 73.1984 Q111.802 73.1984 113.608 69.6567 Q115.436 66.0919 115.436 58.9855 Q115.436 51.8559 113.608 48.3143 Q111.802 44.7495 108.168 44.7495 M108.168 41.0458 Q113.978 41.0458 117.033 45.6522 Q120.112 50.2355 120.112 58.9855 Q120.112 67.7123 117.033 72.3188 Q113.978 76.9021 108.168 76.9021 Q102.358 76.9021 99.2789 72.3188 Q96.2234 67.7123 96.2234 58.9855 Q96.2234 50.2355 99.2789 45.6522 Q102.358 41.0458 108.168 41.0458 Z" fill="#000000" fill-rule="nonzero" fill-opacity="1" /><path clip-path="url(#clip940)" d="M138.33 44.7495 Q134.719 44.7495 132.89 48.3143 Q131.084 51.8559 131.084 58.9855 Q131.084 66.0919 132.89 69.6567 Q134.719 73.1984 138.33 73.1984 Q141.964 73.1984 143.769 69.6567 Q145.598 66.0919 145.598 58.9855 Q145.598 51.8559 143.769 48.3143 Q141.964 44.7495 138.33 44.7495 M138.33 41.0458 Q144.14 41.0458 147.195 45.6522 Q150.274 50.2355 150.274 58.9855 Q150.274 67.7123 147.195 72.3188 Q144.14 76.9021 138.33 76.9021 Q132.519 76.9021 129.441 72.3188 Q126.385 67.7123 126.385 58.9855 Q126.385 50.2355 129.441 45.6522 Q132.519 41.0458 138.33 41.0458 Z" fill="#000000" fill-rule="nonzero" fill-opacity="1" /><circle clip-path="url(#clip942)" cx="1586.28" cy="1407.48" r="14.4" fill="#808080" fill-rule="evenodd" fill-opacity="1" stroke="#000000" stroke-opacity="1" stroke-width="3.2"/>
<circle clip-path="url(#clip942)" cx="1564.12" cy="1445.72" r="14.4" fill="#808080" fill-rule="evenodd" fill-opacity="1" stroke="#000000" stroke-opacity="1" stroke-width="3.2"/>
<circle clip-path="url(#clip942)" cx="2291.44" cy="1389.52" r="14.4" fill="#808080" fill-rule="evenodd" fill-opacity="1" stroke="#000000" stroke-opacity="1" stroke-width="3.2"/>
<circle clip-path="url(#clip942)" cx="247.59" cy="87.9763" r="14.4" fill="#808080" fill-rule="evenodd" fill-opacity="1" stroke="#000000" stroke-opacity="1" stroke-width="3.2"/>
<path clip-path="url(#clip940)" d="M1590.57 1414.91 Q1581.54 1414.91 1578.05 1416.98 Q1574.57 1419.04 1574.57 1424.03 Q1574.57 1428 1577.16 1430.34 Q1579.8 1432.65 1584.29 1432.65 Q1590.49 1432.65 1594.22 1428.28 Q1597.98 1423.86 1597.98 1416.57 L1597.98 1414.91 L1590.57 1414.91 M1605.44 1411.83 L1605.44 1437.72 L1597.98 1437.72 L1597.98 1430.83 Q1595.43 1434.96 1591.62 1436.95 Q1587.82 1438.89 1582.31 1438.89 Q1575.34 1438.89 1571.21 1435 Q1567.12 1431.07 1567.12 1424.51 Q1567.12 1416.86 1572.22 1412.97 Q1577.37 1409.08 1587.53 1409.08 L1597.98 1409.08 L1597.98 1408.35 Q1597.98 1403.2 1594.58 1400.41 Q1591.22 1397.57 1585.1 1397.57 Q1581.21 1397.57 1577.53 1398.5 Q1573.84 1399.44 1570.44 1401.3 L1570.44 1394.41 Q1574.53 1392.83 1578.38 1392.06 Q1582.23 1391.25 1585.87 1391.25 Q1595.72 1391.25 1600.58 1396.36 Q1605.44 1401.46 1605.44 1411.83 Z" fill="#000000" fill-rule="nonzero" fill-opacity="1" /><path clip-path="url(#clip940)" d="M1576.68 1453.31 Q1576.68 1445.09 1573.28 1440.43 Q1569.92 1435.73 1564 1435.73 Q1558.09 1435.73 1554.69 1440.43 Q1551.32 1445.09 1551.32 1453.31 Q1551.32 1461.53 1554.69 1466.23 Q1558.09 1470.89 1564 1470.89 Q1569.92 1470.89 1573.28 1466.23 Q1576.68 1461.53 1576.68 1453.31 M1551.32 1437.47 Q1553.67 1433.42 1557.24 1431.48 Q1560.84 1429.49 1565.83 1429.49 Q1574.09 1429.49 1579.23 1436.05 Q1584.42 1442.62 1584.42 1453.31 Q1584.42 1464.01 1579.23 1470.57 Q1574.09 1477.13 1565.83 1477.13 Q1560.84 1477.13 1557.24 1475.19 Q1553.67 1473.2 1551.32 1469.15 L1551.32 1475.96 L1543.83 1475.96 L1543.83 1412.92 L1551.32 1412.92 L1551.32 1437.47 Z" fill="#000000" fill-rule="nonzero" fill-opacity="1" /><path clip-path="url(#clip940)" d="M2309.39 1376.14 L2309.39 1383.1 Q2306.23 1381.36 2303.03 1380.51 Q2299.87 1379.62 2296.63 1379.62 Q2289.37 1379.62 2285.36 1384.24 Q2281.35 1388.81 2281.35 1397.12 Q2281.35 1405.42 2285.36 1410.04 Q2289.37 1414.62 2296.63 1414.62 Q2299.87 1414.62 2303.03 1413.77 Q2306.23 1412.88 2309.39 1411.14 L2309.39 1418.02 Q2306.27 1419.48 2302.9 1420.21 Q2299.58 1420.94 2295.82 1420.94 Q2285.57 1420.94 2279.53 1414.5 Q2273.49 1408.06 2273.49 1397.12 Q2273.49 1386.02 2279.57 1379.66 Q2285.69 1373.3 2296.3 1373.3 Q2299.74 1373.3 2303.03 1374.03 Q2306.31 1374.72 2309.39 1376.14 Z" fill="#000000" fill-rule="nonzero" fill-opacity="1" /><path clip-path="url(#clip940)" d="M260.411 79.7327 L260.411 55.1842 L267.864 55.1842 L267.864 118.216 L260.411 118.216 L260.411 111.411 Q258.061 115.462 254.456 117.447 Q250.891 119.391 245.868 119.391 Q237.645 119.391 232.459 112.829 Q227.315 106.266 227.315 95.5717 Q227.315 84.8773 232.459 78.3149 Q237.645 71.7524 245.868 71.7524 Q250.891 71.7524 254.456 73.7373 Q258.061 75.6818 260.411 79.7327 M235.011 95.5717 Q235.011 103.795 238.374 108.494 Q241.776 113.153 247.691 113.153 Q253.605 113.153 257.008 108.494 Q260.411 103.795 260.411 95.5717 Q260.411 87.3484 257.008 82.6898 Q253.605 77.9908 247.691 77.9908 Q241.776 77.9908 238.374 82.6898 Q235.011 87.3484 235.011 95.5717 Z" fill="#000000" fill-rule="nonzero" fill-opacity="1" /><path clip-path="url(#clip940)" d="M2011.46 198.898 L2280.54 198.898 L2280.54 95.2176 L2011.46 95.2176  Z" fill="#ffffff" fill-rule="evenodd" fill-opacity="1"/>
<polyline clip-path="url(#clip940)" style="stroke:#000000; stroke-linecap:round; stroke-linejoin:round; stroke-width:4; stroke-opacity:1; fill:none" points="2011.46,198.898 2280.54,198.898 2280.54,95.2176 2011.46,95.2176 2011.46,198.898 "/>
<circle clip-path="url(#clip940)" cx="2107.75" cy="147.058" r="20.48" fill="#808080" fill-rule="evenodd" fill-opacity="1" stroke="#000000" stroke-opacity="1" stroke-width="4.55111"/>
<path clip-path="url(#clip940)" d="M2217.88 166.745 Q2216.07 171.375 2214.36 172.787 Q2212.65 174.199 2209.78 174.199 L2206.38 174.199 L2206.38 170.634 L2208.88 170.634 Q2210.63 170.634 2211.61 169.8 Q2212.58 168.967 2213.76 165.865 L2214.52 163.921 L2204.04 138.412 L2208.55 138.412 L2216.65 158.689 L2224.76 138.412 L2229.27 138.412 L2217.88 166.745 Z" fill="#000000" fill-rule="nonzero" fill-opacity="1" /><path clip-path="url(#clip940)" d="M2236.56 160.402 L2244.2 160.402 L2244.2 134.037 L2235.89 135.703 L2235.89 131.444 L2244.15 129.778 L2248.83 129.778 L2248.83 160.402 L2256.47 160.402 L2256.47 164.338 L2236.56 164.338 L2236.56 160.402 Z" fill="#000000" fill-rule="nonzero" fill-opacity="1" /></svg>
