<?xml version="1.0" encoding="utf-8"?>
<svg xmlns="http://www.w3.org/2000/svg" xmlns:xlink="http://www.w3.org/1999/xlink" width="600" height="400" viewBox="0 0 2400 1600">
<defs>
  <clipPath id="clip230">
    <rect x="0" y="0" width="2400" height="1600"/>
  </clipPath>
</defs>
<path clip-path="url(#clip230)" d="M0 1600 L2400 1600 L2400 0 L0 0  Z" fill="#ffffff" fill-rule="evenodd" fill-opacity="1"/>
<defs>
  <clipPath id="clip231">
    <rect x="480" y="0" width="1681" height="1600"/>
  </clipPath>
</defs>
<path clip-path="url(#clip230)" d="M112.177 1486.45 L2352.76 1486.45 L2352.76 47.2441 L112.177 47.2441  Z" fill="#ffffff" fill-rule="evenodd" fill-opacity="1"/>
<defs>
  <clipPath id="clip232">
    <rect x="112" y="47" width="2242" height="1440"/>
  </clipPath>
</defs>
<polyline clip-path="url(#clip232)" style="stroke:#000000; stroke-linecap:round; stroke-linejoin:round; stroke-width:2; stroke-opacity:0.1; fill:none" points="420.494,1486.45 420.494,47.2441 "/>
<polyline clip-path="url(#clip232)" style="stroke:#000000; stroke-linecap:round; stroke-linejoin:round; stroke-width:2; stroke-opacity:0.1; fill:none" points="999.274,1486.45 999.274,47.2441 "/>
<polyline clip-path="url(#clip232)" style="stroke:#000000; stroke-linecap:round; stroke-linejoin:round; stroke-width:2; stroke-opacity:0.1; fill:none" points="1578.05,1486.45 1578.05,47.2441 "/>
<polyline clip-path="url(#clip232)" style="stroke:#000000; stroke-linecap:round; stroke-linejoin:round; stroke-width:2; stroke-opacity:0.1; fill:none" points="2156.83,1486.45 2156.83,47.2441 "/>
<polyline clip-path="url(#clip230)" style="stroke:#000000; stroke-linecap:round; stroke-linejoin:round; stroke-width:4; stroke-opacity:1; fill:none" points="112.177,1486.45 2352.76,1486.45 "/>
<polyline clip-path="url(#clip230)" style="stroke:#000000; stroke-linecap:round; stroke-linejoin:round; stroke-width:4; stroke-opacity:1; fill:none" points="420.494,1486.45 420.494,1467.55 "/>
<polyline clip-path="url(#clip230)" style="stroke:#000000; stroke-linecap:round; stroke-linejoin:round; stroke-width:4; stroke-opacity:1; fill:none" points="999.274,1486.45 999.274,1467.55 "/>
<polyline clip-path="url(#clip230)" style="stroke:#000000; stroke-linecap:round; stroke-linejoin:round; stroke-width:4; stroke-opacity:1; fill:none" points="1578.05,1486.45 1578.05,1467.55 "/>
<polyline clip-path="url(#clip230)" style="stroke:#000000; stroke-linecap:round; stroke-linejoin:round; stroke-width:4; stroke-opacity:1; fill:none" points="2156.83,1486.45 2156.83,1467.55 "/>
<path clip-path="url(#clip230)" d="M367.022 1532.02 L396.698 1532.02 L396.698 1535.95 L367.022 1535.95 L367.022 1532.02 Z" fill="#000000" fill-rule="nonzero" fill-opacity="1" /><path clip-path="url(#clip230)" d="M407.601 1544.91 L415.24 1544.91 L415.24 1518.55 L406.929 1520.21 L406.929 1515.95 L415.193 1514.29 L419.869 1514.29 L419.869 1544.91 L427.508 1544.91 L427.508 1548.85 L407.601 1548.85 L407.601 1544.91 Z" fill="#000000" fill-rule="nonzero" fill-opacity="1" /><path clip-path="url(#clip230)" d="M436.952 1542.97 L441.837 1542.97 L441.837 1548.85 L436.952 1548.85 L436.952 1542.97 Z" fill="#000000" fill-rule="nonzero" fill-opacity="1" /><path clip-path="url(#clip230)" d="M462.022 1517.37 Q458.411 1517.37 456.582 1520.93 Q454.776 1524.47 454.776 1531.6 Q454.776 1538.71 456.582 1542.27 Q458.411 1545.82 462.022 1545.82 Q465.656 1545.82 467.461 1542.27 Q469.29 1538.71 469.29 1531.6 Q469.29 1524.47 467.461 1520.93 Q465.656 1517.37 462.022 1517.37 M462.022 1513.66 Q467.832 1513.66 470.887 1518.27 Q473.966 1522.85 473.966 1531.6 Q473.966 1540.33 470.887 1544.94 Q467.832 1549.52 462.022 1549.52 Q456.212 1549.52 453.133 1544.94 Q450.077 1540.33 450.077 1531.6 Q450.077 1522.85 453.133 1518.27 Q456.212 1513.66 462.022 1513.66 Z" fill="#000000" fill-rule="nonzero" fill-opacity="1" /><path clip-path="url(#clip230)" d="M946.3 1532.02 L975.976 1532.02 L975.976 1535.95 L946.3 1535.95 L946.3 1532.02 Z" fill="#000000" fill-rule="nonzero" fill-opacity="1" /><path clip-path="url(#clip230)" d="M996.068 1517.37 Q992.457 1517.37 990.628 1520.93 Q988.823 1524.47 988.823 1531.6 Q988.823 1538.71 990.628 1542.27 Q992.457 1545.82 996.068 1545.82 Q999.702 1545.82 1001.51 1542.27 Q1003.34 1538.71 1003.34 1531.6 Q1003.34 1524.47 1001.51 1520.93 Q999.702 1517.37 996.068 1517.37 M996.068 1513.66 Q1001.88 1513.66 1004.93 1518.27 Q1008.01 1522.85 1008.01 1531.6 Q1008.01 1540.33 1004.93 1544.94 Q1001.88 1549.52 996.068 1549.52 Q990.258 1549.52 987.179 1544.94 Q984.124 1540.33 984.124 1531.6 Q984.124 1522.85 987.179 1518.27 Q990.258 1513.66 996.068 1513.66 Z" fill="#000000" fill-rule="nonzero" fill-opacity="1" /><path clip-path="url(#clip230)" d="M1016.23 1542.97 L1021.11 1542.97 L1021.11 1548.85 L1016.23 1548.85 L1016.23 1542.97 Z" fill="#000000" fill-rule="nonzero" fill-opacity="1" /><path clip-path="url(#clip230)" d="M1031.35 1514.29 L1049.7 1514.29 L1049.7 1518.22 L1035.63 1518.22 L1035.63 1526.7 Q1036.65 1526.35 1037.67 1526.19 Q1038.68 1526 1039.7 1526 Q1045.49 1526 1048.87 1529.17 Q1052.25 1532.34 1052.25 1537.76 Q1052.25 1543.34 1048.78 1546.44 Q1045.3 1549.52 1038.98 1549.52 Q1036.81 1549.52 1034.54 1549.15 Q1032.29 1548.78 1029.89 1548.04 L1029.89 1543.34 Q1031.97 1544.47 1034.19 1545.03 Q1036.42 1545.58 1038.89 1545.58 Q1042.9 1545.58 1045.23 1543.48 Q1047.57 1541.37 1047.57 1537.76 Q1047.57 1534.15 1045.23 1532.04 Q1042.9 1529.94 1038.89 1529.94 Q1037.02 1529.94 1035.14 1530.35 Q1033.29 1530.77 1031.35 1531.65 L1031.35 1514.29 Z" fill="#000000" fill-rule="nonzero" fill-opacity="1" /><path clip-path="url(#clip230)" d="M1555.44 1517.37 Q1551.83 1517.37 1550 1520.93 Q1548.19 1524.47 1548.19 1531.6 Q1548.19 1538.71 1550 1542.27 Q1551.83 1545.82 1555.44 1545.82 Q1559.07 1545.82 1560.88 1542.27 Q1562.71 1538.71 1562.71 1531.6 Q1562.71 1524.47 1560.88 1520.93 Q1559.07 1517.37 1555.44 1517.37 M1555.44 1513.66 Q1561.25 1513.66 1564.3 1518.27 Q1567.38 1522.85 1567.38 1531.6 Q1567.38 1540.33 1564.3 1544.94 Q1561.25 1549.52 1555.44 1549.52 Q1549.63 1549.52 1546.55 1544.94 Q1543.49 1540.33 1543.49 1531.6 Q1543.49 1522.85 1546.55 1518.27 Q1549.63 1513.66 1555.44 1513.66 Z" fill="#000000" fill-rule="nonzero" fill-opacity="1" /><path clip-path="url(#clip230)" d="M1575.6 1542.97 L1580.48 1542.97 L1580.48 1548.85 L1575.6 1548.85 L1575.6 1542.97 Z" fill="#000000" fill-rule="nonzero" fill-opacity="1" /><path clip-path="url(#clip230)" d="M1600.67 1517.37 Q1597.06 1517.37 1595.23 1520.93 Q1593.42 1524.47 1593.42 1531.6 Q1593.42 1538.71 1595.23 1542.27 Q1597.06 1545.82 1600.67 1545.82 Q1604.3 1545.82 1606.11 1542.27 Q1607.94 1538.71 1607.94 1531.6 Q1607.94 1524.47 1606.11 1520.93 Q1604.3 1517.37 1600.67 1517.37 M1600.67 1513.66 Q1606.48 1513.66 1609.54 1518.27 Q1612.61 1522.85 1612.61 1531.6 Q1612.61 1540.33 1609.54 1544.94 Q1606.48 1549.52 1600.67 1549.52 Q1594.86 1549.52 1591.78 1544.94 Q1588.73 1540.33 1588.73 1531.6 Q1588.73 1522.85 1591.78 1518.27 Q1594.86 1513.66 1600.67 1513.66 Z" fill="#000000" fill-rule="nonzero" fill-opacity="1" /><path clip-path="url(#clip230)" d="M2134.72 1517.37 Q2131.1 1517.37 2129.28 1520.93 Q2127.47 1524.47 2127.47 1531.6 Q2127.47 1538.71 2129.28 1542.27 Q2131.1 1545.82 2134.72 1545.82 Q2138.35 1545.82 2140.16 1542.27 Q2141.98 1538.71 2141.98 1531.6 Q2141.98 1524.47 2140.16 1520.93 Q2138.35 1517.37 2134.72 1517.37 M2134.72 1513.66 Q2140.53 1513.66 2143.58 1518.27 Q2146.66 1522.85 2146.66 1531.6 Q2146.66 1540.33 2143.58 1544.94 Q2140.53 1549.52 2134.72 1549.52 Q2128.91 1549.52 2125.83 1544.94 Q2122.77 1540.33 2122.77 1531.6 Q2122.77 1522.85 2125.83 1518.27 Q2128.91 1513.66 2134.72 1513.66 Z" fill="#000000" fill-rule="nonzero" fill-opacity="1" /><path clip-path="url(#clip230)" d="M2154.88 1542.97 L2159.76 1542.97 L2159.76 1548.85 L2154.88 1548.85 L2154.88 1542.97 Z" fill="#000000" fill-rule="nonzero" fill-opacity="1" /><path clip-path="url(#clip230)" d="M2169.99 1514.29 L2188.35 1514.29 L2188.35 1518.22 L2174.28 1518.22 L2174.28 1526.7 Q2175.29 1526.35 2176.31 1526.19 Q2177.33 1526 2178.35 1526 Q2184.14 1526 2187.52 1529.17 Q2190.9 1532.34 2190.9 1537.76 Q2190.9 1543.34 2187.42 1546.44 Q2183.95 1549.52 2177.63 1549.52 Q2175.46 1549.52 2173.19 1549.15 Q2170.94 1548.78 2168.54 1548.04 L2168.54 1543.34 Q2170.62 1544.47 2172.84 1545.03 Q2175.06 1545.58 2177.54 1545.58 Q2181.54 1545.58 2183.88 1543.48 Q2186.22 1541.37 2186.22 1537.76 Q2186.22 1534.15 2183.88 1532.04 Q2181.54 1529.94 2177.54 1529.94 Q2175.66 1529.94 2173.79 1530.35 Q2171.94 1530.77 2169.99 1531.65 L2169.99 1514.29 Z" fill="#000000" fill-rule="nonzero" fill-opacity="1" /><polyline clip-path="url(#clip232)" style="stroke:#000000; stroke-linecap:round; stroke-linejoin:round; stroke-width:2; stroke-opacity:0.1; fill:none" points="112.177,1198.51 2352.76,1198.51 "/>
<polyline clip-path="url(#clip232)" style="stroke:#000000; stroke-linecap:round; stroke-linejoin:round; stroke-width:2; stroke-opacity:0.1; fill:none" points="112.177,873.122 2352.76,873.122 "/>
<polyline clip-path="url(#clip232)" style="stroke:#000000; stroke-linecap:round; stroke-linejoin:round; stroke-width:2; stroke-opacity:0.1; fill:none" points="112.177,547.733 2352.76,547.733 "/>
<polyline clip-path="url(#clip232)" style="stroke:#000000; stroke-linecap:round; stroke-linejoin:round; stroke-width:2; stroke-opacity:0.1; fill:none" points="112.177,222.343 2352.76,222.343 "/>
<polyline clip-path="url(#clip230)" style="stroke:#000000; stroke-linecap:round; stroke-linejoin:round; stroke-width:4; stroke-opacity:1; fill:none" points="112.177,1486.45 112.177,47.2441 "/>
<polyline clip-path="url(#clip230)" style="stroke:#000000; stroke-linecap:round; stroke-linejoin:round; stroke-width:4; stroke-opacity:1; fill:none" points="112.177,1198.51 131.075,1198.51 "/>
<polyline clip-path="url(#clip230)" style="stroke:#000000; stroke-linecap:round; stroke-linejoin:round; stroke-width:4; stroke-opacity:1; fill:none" points="112.177,873.122 131.075,873.122 "/>
<polyline clip-path="url(#clip230)" style="stroke:#000000; stroke-linecap:round; stroke-linejoin:round; stroke-width:4; stroke-opacity:1; fill:none" points="112.177,547.733 131.075,547.733 "/>
<polyline clip-path="url(#clip230)" style="stroke:#000000; stroke-linecap:round; stroke-linejoin:round; stroke-width:4; stroke-opacity:1; fill:none" points="112.177,222.343 131.075,222.343 "/>
<path clip-path="url(#clip230)" d="M56.2699 1211.86 L63.9087 1211.86 L63.9087 1185.49 L55.5986 1187.16 L55.5986 1182.9 L63.8624 1181.23 L68.5383 1181.23 L68.5383 1211.86 L76.1772 1211.86 L76.1772 1215.79 L56.2699 1215.79 L56.2699 1211.86 Z" fill="#000000" fill-rule="nonzero" fill-opacity="1" /><path clip-path="url(#clip230)" d="M59.8578 886.467 L76.1772 886.467 L76.1772 890.402 L54.2328 890.402 L54.2328 886.467 Q56.8949 883.713 61.4782 879.083 Q66.0846 874.43 67.2652 873.088 Q69.5105 870.565 70.3902 868.829 Q71.2929 867.069 71.2929 865.379 Q71.2929 862.625 69.3485 860.889 Q67.4272 859.153 64.3254 859.153 Q62.1263 859.153 59.6726 859.917 Q57.2421 860.68 54.4643 862.231 L54.4643 857.509 Q57.2884 856.375 59.7421 855.796 Q62.1958 855.218 64.2328 855.218 Q69.6031 855.218 72.7976 857.903 Q75.992 860.588 75.992 865.079 Q75.992 867.208 75.1818 869.129 Q74.3948 871.028 72.2883 873.62 Q71.7096 874.291 68.6078 877.509 Q65.5059 880.703 59.8578 886.467 Z" fill="#000000" fill-rule="nonzero" fill-opacity="1" /><path clip-path="url(#clip230)" d="M69.0476 546.379 Q72.404 547.096 74.279 549.365 Q76.1772 551.633 76.1772 554.967 Q76.1772 560.082 72.6587 562.883 Q69.1402 565.684 62.6587 565.684 Q60.4828 565.684 58.168 565.244 Q55.8764 564.828 53.4227 563.971 L53.4227 559.457 Q55.3671 560.592 57.6819 561.17 Q59.9967 561.749 62.5198 561.749 Q66.918 561.749 69.2096 560.013 Q71.5244 558.277 71.5244 554.967 Q71.5244 551.911 69.3717 550.198 Q67.242 548.462 63.4226 548.462 L59.3949 548.462 L59.3949 544.619 L63.6078 544.619 Q67.0569 544.619 68.8855 543.254 Q70.7142 541.865 70.7142 539.272 Q70.7142 536.61 68.8161 535.198 Q66.9411 533.763 63.4226 533.763 Q61.5013 533.763 59.3023 534.18 Q57.1032 534.596 54.4643 535.476 L54.4643 531.309 Q57.1264 530.569 59.4412 530.198 Q61.7791 529.828 63.8393 529.828 Q69.1633 529.828 72.2652 532.258 Q75.367 534.666 75.367 538.786 Q75.367 541.656 73.7235 543.647 Q72.08 545.615 69.0476 546.379 Z" fill="#000000" fill-rule="nonzero" fill-opacity="1" /><path clip-path="url(#clip230)" d="M66.5939 209.137 L54.7884 227.586 L66.5939 227.586 L66.5939 209.137 M65.367 205.063 L71.2466 205.063 L71.2466 227.586 L76.1772 227.586 L76.1772 231.475 L71.2466 231.475 L71.2466 239.623 L66.5939 239.623 L66.5939 231.475 L50.9921 231.475 L50.9921 226.961 L65.367 205.063 Z" fill="#000000" fill-rule="nonzero" fill-opacity="1" /><circle clip-path="url(#clip232)" cx="2289.34" cy="1376.46" r="14.4" fill="#808080" fill-rule="evenodd" fill-opacity="1" stroke="#000000" stroke-opacity="1" stroke-width="3.2"/>
<circle clip-path="url(#clip232)" cx="175.59" cy="87.9763" r="14.4" fill="#808080" fill-rule="evenodd" fill-opacity="1" stroke="#000000" stroke-opacity="1" stroke-width="3.2"/>
<circle clip-path="url(#clip232)" cx="1500.54" cy="1445.72" r="14.4" fill="#808080" fill-rule="evenodd" fill-opacity="1" stroke="#000000" stroke-opacity="1" stroke-width="3.2"/>
<circle clip-path="url(#clip232)" cx="1546.99" cy="1430.5" r="14.4" fill="#808080" fill-rule="evenodd" fill-opacity="1" stroke="#000000" stroke-opacity="1" stroke-width="3.2"/>
<path clip-path="url(#clip230)" d="M2293.64 1383.9 Q2284.6 1383.9 2281.12 1385.96 Q2277.64 1388.03 2277.64 1393.01 Q2277.64 1396.98 2280.23 1399.33 Q2282.86 1401.64 2287.36 1401.64 Q2293.56 1401.64 2297.28 1397.26 Q2301.05 1392.85 2301.05 1385.56 L2301.05 1383.9 L2293.64 1383.9 M2308.5 1380.82 L2308.5 1406.7 L2301.05 1406.7 L2301.05 1399.82 Q2298.5 1403.95 2294.69 1405.93 Q2290.88 1407.88 2285.37 1407.88 Q2278.41 1407.88 2274.27 1403.99 Q2270.18 1400.06 2270.18 1393.5 Q2270.18 1385.84 2275.29 1381.95 Q2280.43 1378.06 2290.6 1378.06 L2301.05 1378.06 L2301.05 1377.33 Q2301.05 1372.19 2297.65 1369.39 Q2294.29 1366.56 2288.17 1366.56 Q2284.28 1366.56 2280.59 1367.49 Q2276.91 1368.42 2273.5 1370.28 L2273.5 1363.4 Q2277.6 1361.82 2281.44 1361.05 Q2285.29 1360.24 2288.94 1360.24 Q2298.78 1360.24 2303.64 1365.34 Q2308.5 1370.45 2308.5 1380.82 Z" fill="#000000" fill-rule="nonzero" fill-opacity="1" /><path clip-path="url(#clip230)" d="M188.148 95.5717 Q188.148 87.3484 184.745 82.6898 Q181.383 77.9908 175.468 77.9908 Q169.554 77.9908 166.151 82.6898 Q162.789 87.3484 162.789 95.5717 Q162.789 103.795 166.151 108.494 Q169.554 113.153 175.468 113.153 Q181.383 113.153 184.745 108.494 Q188.148 103.795 188.148 95.5717 M162.789 79.7327 Q165.138 75.6818 168.703 73.7373 Q172.309 71.7524 177.291 71.7524 Q185.555 71.7524 190.7 78.3149 Q195.885 84.8773 195.885 95.5717 Q195.885 106.266 190.7 112.829 Q185.555 119.391 177.291 119.391 Q172.309 119.391 168.703 117.447 Q165.138 115.462 162.789 111.411 L162.789 118.216 L155.295 118.216 L155.295 55.1842 L162.789 55.1842 L162.789 79.7327 Z" fill="#000000" fill-rule="nonzero" fill-opacity="1" /><path clip-path="url(#clip230)" d="M1518.48 1432.33 L1518.48 1439.3 Q1515.32 1437.55 1512.12 1436.7 Q1508.96 1435.81 1505.72 1435.81 Q1498.47 1435.81 1494.46 1440.43 Q1490.45 1445.01 1490.45 1453.31 Q1490.45 1461.62 1494.46 1466.23 Q1498.47 1470.81 1505.72 1470.81 Q1508.96 1470.81 1512.12 1469.96 Q1515.32 1469.07 1518.48 1467.33 L1518.48 1474.21 Q1515.36 1475.67 1512 1476.4 Q1508.68 1477.13 1504.91 1477.13 Q1494.66 1477.13 1488.63 1470.69 Q1482.59 1464.25 1482.59 1453.31 Q1482.59 1442.21 1488.67 1435.85 Q1494.79 1429.49 1505.4 1429.49 Q1508.84 1429.49 1512.12 1430.22 Q1515.41 1430.91 1518.48 1432.33 Z" fill="#000000" fill-rule="nonzero" fill-opacity="1" /><path clip-path="url(#clip230)" d="M1559.81 1422.25 L1559.81 1397.71 L1567.26 1397.71 L1567.26 1460.74 L1559.81 1460.74 L1559.81 1453.93 Q1557.46 1457.98 1553.85 1459.97 Q1550.29 1461.91 1545.27 1461.91 Q1537.04 1461.91 1531.86 1455.35 Q1526.71 1448.79 1526.71 1438.09 Q1526.71 1427.4 1531.86 1420.84 Q1537.04 1414.27 1545.27 1414.27 Q1550.29 1414.27 1553.85 1416.26 Q1557.46 1418.2 1559.81 1422.25 M1534.41 1438.09 Q1534.41 1446.32 1537.77 1451.02 Q1541.18 1455.67 1547.09 1455.67 Q1553 1455.67 1556.41 1451.02 Q1559.81 1446.32 1559.81 1438.09 Q1559.81 1429.87 1556.41 1425.21 Q1553 1420.51 1547.09 1420.51 Q1541.18 1420.51 1537.77 1425.21 Q1534.41 1429.87 1534.41 1438.09 Z" fill="#000000" fill-rule="nonzero" fill-opacity="1" /><path clip-path="url(#clip230)" d="M2001.58 198.898 L2278.07 198.898 L2278.07 95.2176 L2001.58 95.2176  Z" fill="#ffffff" fill-rule="evenodd" fill-opacity="1"/>
<polyline clip-path="url(#clip230)" style="stroke:#000000; stroke-linecap:round; stroke-linejoin:round; stroke-width:4; stroke-opacity:1; fill:none" points="2001.58,198.898 2278.07,198.898 2278.07,95.2176 2001.58,95.2176 2001.58,198.898 "/>
<circle clip-path="url(#clip230)" cx="2101.16" cy="147.058" r="20.48" fill="#808080" fill-rule="evenodd" fill-opacity="1" stroke="#000000" stroke-opacity="1" stroke-width="4.55111"/>
<path clip-path="url(#clip230)" d="M2214.59 166.745 Q2212.78 171.375 2211.07 172.787 Q2209.36 174.199 2206.49 174.199 L2203.08 174.199 L2203.08 170.634 L2205.58 170.634 Q2207.34 170.634 2208.31 169.8 Q2209.29 168.967 2210.47 165.865 L2211.23 163.921 L2200.74 138.412 L2205.26 138.412 L2213.36 158.689 L2221.46 138.412 L2225.98 138.412 L2214.59 166.745 Z" fill="#000000" fill-rule="nonzero" fill-opacity="1" /><path clip-path="url(#clip230)" d="M2233.27 160.402 L2240.91 160.402 L2240.91 134.037 L2232.6 135.703 L2232.6 131.444 L2240.86 129.778 L2245.54 129.778 L2245.54 160.402 L2253.17 160.402 L2253.17 164.338 L2233.27 164.338 L2233.27 160.402 Z" fill="#000000" fill-rule="nonzero" fill-opacity="1" /></svg>
