<?xml version="1.0" encoding="utf-8"?>
<svg xmlns="http://www.w3.org/2000/svg" xmlns:xlink="http://www.w3.org/1999/xlink" width="600" height="400" viewBox="0 0 2400 1600">
<defs>
  <clipPath id="clip170">
    <rect x="0" y="0" width="2400" height="1600"/>
  </clipPath>
</defs>
<path clip-path="url(#clip170)" d="M0 1600 L2400 1600 L2400 0 L0 0  Z" fill="#ffffff" fill-rule="evenodd" fill-opacity="1"/>
<defs>
  <clipPath id="clip171">
    <rect x="480" y="0" width="1681" height="1600"/>
  </clipPath>
</defs>
<path clip-path="url(#clip170)" d="M156.112 1486.45 L2352.76 1486.45 L2352.76 47.2441 L156.112 47.2441  Z" fill="#ffffff" fill-rule="evenodd" fill-opacity="1"/>
<defs>
  <clipPath id="clip172">
    <rect x="156" y="47" width="2198" height="1440"/>
  </clipPath>
</defs>
<polyline clip-path="url(#clip172)" style="stroke:#000000; stroke-linecap:round; stroke-linejoin:round; stroke-width:2; stroke-opacity:0.1; fill:none" points="328.923,1486.45 328.923,47.2441 "/>
<polyline clip-path="url(#clip172)" style="stroke:#000000; stroke-linecap:round; stroke-linejoin:round; stroke-width:2; stroke-opacity:0.1; fill:none" points="836.248,1486.45 836.248,47.2441 "/>
<polyline clip-path="url(#clip172)" style="stroke:#000000; stroke-linecap:round; stroke-linejoin:round; stroke-width:2; stroke-opacity:0.1; fill:none" points="1343.57,1486.45 1343.57,47.2441 "/>
<polyline clip-path="url(#clip172)" style="stroke:#000000; stroke-linecap:round; stroke-linejoin:round; stroke-width:2; stroke-opacity:0.1; fill:none" points="1850.9,1486.45 1850.9,47.2441 "/>
<polyline clip-path="url(#clip170)" style="stroke:#000000; stroke-linecap:round; stroke-linejoin:round; stroke-width:4; stroke-opacity:1; fill:none" points="156.112,1486.45 2352.76,1486.45 "/>
<polyline clip-path="url(#clip170)" style="stroke:#000000; stroke-linecap:round; stroke-linejoin:round; stroke-width:4; stroke-opacity:1; fill:none" points="328.923,1486.45 328.923,1467.55 "/>
<polyline clip-path="url(#clip170)" style="stroke:#000000; stroke-linecap:round; stroke-linejoin:round; stroke-width:4; stroke-opacity:1; fill:none" points="836.248,1486.45 836.248,1467.55 "/>
<polyline clip-path="url(#clip170)" style="stroke:#000000; stroke-linecap:round; stroke-linejoin:round; stroke-width:4; stroke-opacity:1; fill:none" points="1343.57,1486.45 1343.57,1467.55 "/>
<polyline clip-path="url(#clip170)" style="stroke:#000000; stroke-linecap:round; stroke-linejoin:round; stroke-width:4; stroke-opacity:1; fill:none" points="1850.9,1486.45 1850.9,1467.55 "/>
<path clip-path="url(#clip170)" d="M275.208 1532.02 L304.884 1532.02 L304.884 1535.95 L275.208 1535.95 L275.208 1532.02 Z" fill="#000000" fill-rule="nonzero" fill-opacity="1" /><path clip-path="url(#clip170)" d="M324.976 1517.37 Q321.365 1517.37 319.536 1520.93 Q317.731 1524.47 317.731 1531.6 Q317.731 1538.71 319.536 1542.27 Q321.365 1545.82 324.976 1545.82 Q328.61 1545.82 330.416 1542.27 Q332.245 1538.71 332.245 1531.6 Q332.245 1524.47 330.416 1520.93 Q328.61 1517.37 324.976 1517.37 M324.976 1513.66 Q330.786 1513.66 333.842 1518.27 Q336.921 1522.85 336.921 1531.6 Q336.921 1540.33 333.842 1544.94 Q330.786 1549.52 324.976 1549.52 Q319.166 1549.52 316.087 1544.94 Q313.032 1540.33 313.032 1531.6 Q313.032 1522.85 316.087 1518.27 Q319.166 1513.66 324.976 1513.66 Z" fill="#000000" fill-rule="nonzero" fill-opacity="1" /><path clip-path="url(#clip170)" d="M345.138 1542.97 L350.022 1542.97 L350.022 1548.85 L345.138 1548.85 L345.138 1542.97 Z" fill="#000000" fill-rule="nonzero" fill-opacity="1" /><path clip-path="url(#clip170)" d="M373.055 1518.36 L361.249 1536.81 L373.055 1536.81 L373.055 1518.36 M371.828 1514.29 L377.707 1514.29 L377.707 1536.81 L382.638 1536.81 L382.638 1540.7 L377.707 1540.7 L377.707 1548.85 L373.055 1548.85 L373.055 1540.7 L357.453 1540.7 L357.453 1536.19 L371.828 1514.29 Z" fill="#000000" fill-rule="nonzero" fill-opacity="1" /><path clip-path="url(#clip170)" d="M783.575 1532.02 L813.251 1532.02 L813.251 1535.95 L783.575 1535.95 L783.575 1532.02 Z" fill="#000000" fill-rule="nonzero" fill-opacity="1" /><path clip-path="url(#clip170)" d="M833.343 1517.37 Q829.732 1517.37 827.904 1520.93 Q826.098 1524.47 826.098 1531.6 Q826.098 1538.71 827.904 1542.27 Q829.732 1545.82 833.343 1545.82 Q836.978 1545.82 838.783 1542.27 Q840.612 1538.71 840.612 1531.6 Q840.612 1524.47 838.783 1520.93 Q836.978 1517.37 833.343 1517.37 M833.343 1513.66 Q839.153 1513.66 842.209 1518.27 Q845.288 1522.85 845.288 1531.6 Q845.288 1540.33 842.209 1544.94 Q839.153 1549.52 833.343 1549.52 Q827.533 1549.52 824.454 1544.94 Q821.399 1540.33 821.399 1531.6 Q821.399 1522.85 824.454 1518.27 Q827.533 1513.66 833.343 1513.66 Z" fill="#000000" fill-rule="nonzero" fill-opacity="1" /><path clip-path="url(#clip170)" d="M853.505 1542.97 L858.389 1542.97 L858.389 1548.85 L853.505 1548.85 L853.505 1542.97 Z" fill="#000000" fill-rule="nonzero" fill-opacity="1" /><path clip-path="url(#clip170)" d="M872.602 1544.91 L888.922 1544.91 L888.922 1548.85 L866.977 1548.85 L866.977 1544.91 Q869.639 1542.16 874.223 1537.53 Q878.829 1532.88 880.01 1531.53 Q882.255 1529.01 883.135 1527.27 Q884.038 1525.51 884.038 1523.82 Q884.038 1521.07 882.093 1519.33 Q880.172 1517.6 877.07 1517.6 Q874.871 1517.6 872.417 1518.36 Q869.987 1519.13 867.209 1520.68 L867.209 1515.95 Q870.033 1514.82 872.487 1514.24 Q874.94 1513.66 876.977 1513.66 Q882.348 1513.66 885.542 1516.35 Q888.737 1519.03 888.737 1523.52 Q888.737 1525.65 887.926 1527.57 Q887.139 1529.47 885.033 1532.07 Q884.454 1532.74 881.352 1535.95 Q878.25 1539.15 872.602 1544.91 Z" fill="#000000" fill-rule="nonzero" fill-opacity="1" /><path clip-path="url(#clip170)" d="M1320.96 1517.37 Q1317.35 1517.37 1315.52 1520.93 Q1313.71 1524.47 1313.71 1531.6 Q1313.71 1538.71 1315.52 1542.27 Q1317.35 1545.82 1320.96 1545.82 Q1324.59 1545.82 1326.4 1542.27 Q1328.23 1538.71 1328.23 1531.6 Q1328.23 1524.47 1326.4 1520.93 Q1324.59 1517.37 1320.96 1517.37 M1320.96 1513.66 Q1326.77 1513.66 1329.82 1518.27 Q1332.9 1522.85 1332.9 1531.6 Q1332.9 1540.33 1329.82 1544.94 Q1326.77 1549.52 1320.96 1549.52 Q1315.15 1549.52 1312.07 1544.94 Q1309.01 1540.33 1309.01 1531.6 Q1309.01 1522.85 1312.07 1518.27 Q1315.15 1513.66 1320.96 1513.66 Z" fill="#000000" fill-rule="nonzero" fill-opacity="1" /><path clip-path="url(#clip170)" d="M1341.12 1542.97 L1346 1542.97 L1346 1548.85 L1341.12 1548.85 L1341.12 1542.97 Z" fill="#000000" fill-rule="nonzero" fill-opacity="1" /><path clip-path="url(#clip170)" d="M1366.19 1517.37 Q1362.58 1517.37 1360.75 1520.93 Q1358.94 1524.47 1358.94 1531.6 Q1358.94 1538.71 1360.75 1542.27 Q1362.58 1545.82 1366.19 1545.82 Q1369.82 1545.82 1371.63 1542.27 Q1373.46 1538.71 1373.46 1531.6 Q1373.46 1524.47 1371.63 1520.93 Q1369.82 1517.37 1366.19 1517.37 M1366.19 1513.66 Q1372 1513.66 1375.06 1518.27 Q1378.13 1522.85 1378.13 1531.6 Q1378.13 1540.33 1375.06 1544.94 Q1372 1549.52 1366.19 1549.52 Q1360.38 1549.52 1357.3 1544.94 Q1354.25 1540.33 1354.25 1531.6 Q1354.25 1522.85 1357.3 1518.27 Q1360.38 1513.66 1366.19 1513.66 Z" fill="#000000" fill-rule="nonzero" fill-opacity="1" /><path clip-path="url(#clip170)" d="M1829.08 1517.37 Q1825.47 1517.37 1823.64 1520.93 Q1821.84 1524.47 1821.84 1531.6 Q1821.84 1538.71 1823.64 1542.27 Q1825.47 1545.82 1829.08 1545.82 Q1832.72 1545.82 1834.52 1542.27 Q1836.35 1538.71 1836.35 1531.6 Q1836.35 1524.47 1834.52 1520.93 Q1832.72 1517.37 1829.08 1517.37 M1829.08 1513.66 Q1834.89 1513.66 1837.95 1518.27 Q1841.03 1522.85 1841.03 1531.6 Q1841.03 1540.33 1837.95 1544.94 Q1834.89 1549.52 1829.08 1549.52 Q1823.27 1549.52 1820.19 1544.94 Q1817.14 1540.33 1817.14 1531.6 Q1817.14 1522.85 1820.19 1518.27 Q1823.27 1513.66 1829.08 1513.66 Z" fill="#000000" fill-rule="nonzero" fill-opacity="1" /><path clip-path="url(#clip170)" d="M1849.24 1542.97 L1854.13 1542.97 L1854.13 1548.85 L1849.24 1548.85 L1849.24 1542.97 Z" fill="#000000" fill-rule="nonzero" fill-opacity="1" /><path clip-path="url(#clip170)" d="M1868.34 1544.91 L1884.66 1544.91 L1884.66 1548.85 L1862.72 1548.85 L1862.72 1544.91 Q1865.38 1542.16 1869.96 1537.53 Q1874.57 1532.88 1875.75 1531.53 Q1877.99 1529.01 1878.87 1527.27 Q1879.78 1525.51 1879.78 1523.82 Q1879.78 1521.07 1877.83 1519.33 Q1875.91 1517.6 1872.81 1517.6 Q1870.61 1517.6 1868.16 1518.36 Q1865.73 1519.13 1862.95 1520.68 L1862.95 1515.95 Q1865.77 1514.82 1868.23 1514.24 Q1870.68 1513.66 1872.72 1513.66 Q1878.09 1513.66 1881.28 1516.35 Q1884.48 1519.03 1884.48 1523.52 Q1884.48 1525.65 1883.67 1527.57 Q1882.88 1529.47 1880.77 1532.07 Q1880.19 1532.74 1877.09 1535.95 Q1873.99 1539.15 1868.34 1544.91 Z" fill="#000000" fill-rule="nonzero" fill-opacity="1" /><polyline clip-path="url(#clip172)" style="stroke:#000000; stroke-linecap:round; stroke-linejoin:round; stroke-width:2; stroke-opacity:0.1; fill:none" points="156.112,1452.89 2352.76,1452.89 "/>
<polyline clip-path="url(#clip172)" style="stroke:#000000; stroke-linecap:round; stroke-linejoin:round; stroke-width:2; stroke-opacity:0.1; fill:none" points="156.112,1026.23 2352.76,1026.23 "/>
<polyline clip-path="url(#clip172)" style="stroke:#000000; stroke-linecap:round; stroke-linejoin:round; stroke-width:2; stroke-opacity:0.1; fill:none" points="156.112,599.565 2352.76,599.565 "/>
<polyline clip-path="url(#clip172)" style="stroke:#000000; stroke-linecap:round; stroke-linejoin:round; stroke-width:2; stroke-opacity:0.1; fill:none" points="156.112,172.901 2352.76,172.901 "/>
<polyline clip-path="url(#clip170)" style="stroke:#000000; stroke-linecap:round; stroke-linejoin:round; stroke-width:4; stroke-opacity:1; fill:none" points="156.112,1486.45 156.112,47.2441 "/>
<polyline clip-path="url(#clip170)" style="stroke:#000000; stroke-linecap:round; stroke-linejoin:round; stroke-width:4; stroke-opacity:1; fill:none" points="156.112,1452.89 175.01,1452.89 "/>
<polyline clip-path="url(#clip170)" style="stroke:#000000; stroke-linecap:round; stroke-linejoin:round; stroke-width:4; stroke-opacity:1; fill:none" points="156.112,1026.23 175.01,1026.23 "/>
<polyline clip-path="url(#clip170)" style="stroke:#000000; stroke-linecap:round; stroke-linejoin:round; stroke-width:4; stroke-opacity:1; fill:none" points="156.112,599.565 175.01,599.565 "/>
<polyline clip-path="url(#clip170)" style="stroke:#000000; stroke-linecap:round; stroke-linejoin:round; stroke-width:4; stroke-opacity:1; fill:none" points="156.112,172.901 175.01,172.901 "/>
<path clip-path="url(#clip170)" d="M62.9365 1438.69 Q59.3254 1438.69 57.4967 1442.26 Q55.6912 1445.8 55.6912 1452.93 Q55.6912 1460.03 57.4967 1463.6 Q59.3254 1467.14 62.9365 1467.14 Q66.5707 1467.14 68.3763 1463.6 Q70.205 1460.03 70.205 1452.93 Q70.205 1445.8 68.3763 1442.26 Q66.5707 1438.69 62.9365 1438.69 M62.9365 1434.99 Q68.7467 1434.99 71.8022 1439.59 Q74.8809 1444.18 74.8809 1452.93 Q74.8809 1461.65 71.8022 1466.26 Q68.7467 1470.84 62.9365 1470.84 Q57.1264 1470.84 54.0477 1466.26 Q50.9921 1461.65 50.9921 1452.93 Q50.9921 1444.18 54.0477 1439.59 Q57.1264 1434.99 62.9365 1434.99 Z" fill="#000000" fill-rule="nonzero" fill-opacity="1" /><path clip-path="url(#clip170)" d="M83.0984 1464.29 L87.9827 1464.29 L87.9827 1470.17 L83.0984 1470.17 L83.0984 1464.29 Z" fill="#000000" fill-rule="nonzero" fill-opacity="1" /><path clip-path="url(#clip170)" d="M108.168 1438.69 Q104.557 1438.69 102.728 1442.26 Q100.922 1445.8 100.922 1452.93 Q100.922 1460.03 102.728 1463.6 Q104.557 1467.14 108.168 1467.14 Q111.802 1467.14 113.608 1463.6 Q115.436 1460.03 115.436 1452.93 Q115.436 1445.8 113.608 1442.26 Q111.802 1438.69 108.168 1438.69 M108.168 1434.99 Q113.978 1434.99 117.033 1439.59 Q120.112 1444.18 120.112 1452.93 Q120.112 1461.65 117.033 1466.26 Q113.978 1470.84 108.168 1470.84 Q102.358 1470.84 99.2789 1466.26 Q96.2234 1461.65 96.2234 1452.93 Q96.2234 1444.18 99.2789 1439.59 Q102.358 1434.99 108.168 1434.99 Z" fill="#000000" fill-rule="nonzero" fill-opacity="1" /><path clip-path="url(#clip170)" d="M64.1634 1012.03 Q60.5523 1012.03 58.7236 1015.59 Q56.918 1019.13 56.918 1026.26 Q56.918 1033.37 58.7236 1036.93 Q60.5523 1040.48 64.1634 1040.48 Q67.7976 1040.48 69.6031 1036.93 Q71.4318 1033.37 71.4318 1026.26 Q71.4318 1019.13 69.6031 1015.59 Q67.7976 1012.03 64.1634 1012.03 M64.1634 1008.32 Q69.9735 1008.32 73.029 1012.93 Q76.1077 1017.51 76.1077 1026.26 Q76.1077 1034.99 73.029 1039.6 Q69.9735 1044.18 64.1634 1044.18 Q58.3532 1044.18 55.2745 1039.6 Q52.219 1034.99 52.219 1026.26 Q52.219 1017.51 55.2745 1012.93 Q58.3532 1008.32 64.1634 1008.32 Z" fill="#000000" fill-rule="nonzero" fill-opacity="1" /><path clip-path="url(#clip170)" d="M84.3253 1037.63 L89.2095 1037.63 L89.2095 1043.51 L84.3253 1043.51 L84.3253 1037.63 Z" fill="#000000" fill-rule="nonzero" fill-opacity="1" /><path clip-path="url(#clip170)" d="M100.205 1039.57 L107.844 1039.57 L107.844 1013.21 L99.5335 1014.87 L99.5335 1010.62 L107.797 1008.95 L112.473 1008.95 L112.473 1039.57 L120.112 1039.57 L120.112 1043.51 L100.205 1043.51 L100.205 1039.57 Z" fill="#000000" fill-rule="nonzero" fill-opacity="1" /><path clip-path="url(#clip170)" d="M64.5337 585.364 Q60.9226 585.364 59.0939 588.928 Q57.2884 592.47 57.2884 599.6 Q57.2884 606.706 59.0939 610.271 Q60.9226 613.812 64.5337 613.812 Q68.168 613.812 69.9735 610.271 Q71.8022 606.706 71.8022 599.6 Q71.8022 592.47 69.9735 588.928 Q68.168 585.364 64.5337 585.364 M64.5337 581.66 Q70.3439 581.66 73.3994 586.266 Q76.4781 590.85 76.4781 599.6 Q76.4781 608.326 73.3994 612.933 Q70.3439 617.516 64.5337 617.516 Q58.7236 617.516 55.6449 612.933 Q52.5893 608.326 52.5893 599.6 Q52.5893 590.85 55.6449 586.266 Q58.7236 581.66 64.5337 581.66 Z" fill="#000000" fill-rule="nonzero" fill-opacity="1" /><path clip-path="url(#clip170)" d="M84.6956 610.965 L89.5799 610.965 L89.5799 616.845 L84.6956 616.845 L84.6956 610.965 Z" fill="#000000" fill-rule="nonzero" fill-opacity="1" /><path clip-path="url(#clip170)" d="M103.793 612.91 L120.112 612.91 L120.112 616.845 L98.1678 616.845 L98.1678 612.91 Q100.83 610.155 105.413 605.526 Q110.02 600.873 111.2 599.53 Q113.445 597.007 114.325 595.271 Q115.228 593.512 115.228 591.822 Q115.228 589.067 113.283 587.331 Q111.362 585.595 108.26 585.595 Q106.061 585.595 103.608 586.359 Q101.177 587.123 98.3993 588.674 L98.3993 583.952 Q101.223 582.817 103.677 582.239 Q106.131 581.66 108.168 581.66 Q113.538 581.66 116.733 584.345 Q119.927 587.03 119.927 591.521 Q119.927 593.651 119.117 595.572 Q118.33 597.47 116.223 600.063 Q115.645 600.734 112.543 603.951 Q109.441 607.146 103.793 612.91 Z" fill="#000000" fill-rule="nonzero" fill-opacity="1" /><path clip-path="url(#clip170)" d="M63.5847 158.7 Q59.9736 158.7 58.1449 162.264 Q56.3393 165.806 56.3393 172.936 Q56.3393 180.042 58.1449 183.607 Q59.9736 187.149 63.5847 187.149 Q67.2189 187.149 69.0244 183.607 Q70.8531 180.042 70.8531 172.936 Q70.8531 165.806 69.0244 162.264 Q67.2189 158.7 63.5847 158.7 M63.5847 154.996 Q69.3948 154.996 72.4503 159.602 Q75.529 164.186 75.529 172.936 Q75.529 181.662 72.4503 186.269 Q69.3948 190.852 63.5847 190.852 Q57.7745 190.852 54.6958 186.269 Q51.6403 181.662 51.6403 172.936 Q51.6403 164.186 54.6958 159.602 Q57.7745 154.996 63.5847 154.996 Z" fill="#000000" fill-rule="nonzero" fill-opacity="1" /><path clip-path="url(#clip170)" d="M83.7466 184.301 L88.6308 184.301 L88.6308 190.181 L83.7466 190.181 L83.7466 184.301 Z" fill="#000000" fill-rule="nonzero" fill-opacity="1" /><path clip-path="url(#clip170)" d="M112.983 171.547 Q116.339 172.264 118.214 174.533 Q120.112 176.801 120.112 180.135 Q120.112 185.25 116.594 188.051 Q113.075 190.852 106.594 190.852 Q104.418 190.852 102.103 190.412 Q99.8113 189.996 97.3576 189.139 L97.3576 184.625 Q99.3021 185.76 101.617 186.338 Q103.932 186.917 106.455 186.917 Q110.853 186.917 113.145 185.181 Q115.459 183.445 115.459 180.135 Q115.459 177.079 113.307 175.366 Q111.177 173.63 107.358 173.63 L103.33 173.63 L103.33 169.788 L107.543 169.788 Q110.992 169.788 112.82 168.422 Q114.649 167.033 114.649 164.44 Q114.649 161.778 112.751 160.366 Q110.876 158.931 107.358 158.931 Q105.436 158.931 103.237 159.348 Q101.038 159.764 98.3993 160.644 L98.3993 156.477 Q101.061 155.737 103.376 155.366 Q105.714 154.996 107.774 154.996 Q113.098 154.996 116.2 157.426 Q119.302 159.834 119.302 163.954 Q119.302 166.825 117.658 168.815 Q116.015 170.783 112.983 171.547 Z" fill="#000000" fill-rule="nonzero" fill-opacity="1" /><circle clip-path="url(#clip172)" cx="1404.94" cy="1209.33" r="14.4" fill="#808080" fill-rule="evenodd" fill-opacity="1" stroke="#000000" stroke-opacity="1" stroke-width="3.2"/>
<circle clip-path="url(#clip172)" cx="1311.18" cy="1445.72" r="14.4" fill="#808080" fill-rule="evenodd" fill-opacity="1" stroke="#000000" stroke-opacity="1" stroke-width="3.2"/>
<circle clip-path="url(#clip172)" cx="2290.59" cy="1249.07" r="14.4" fill="#808080" fill-rule="evenodd" fill-opacity="1" stroke="#000000" stroke-opacity="1" stroke-width="3.2"/>
<circle clip-path="url(#clip172)" cx="218.281" cy="87.9763" r="14.4" fill="#808080" fill-rule="evenodd" fill-opacity="1" stroke="#000000" stroke-opacity="1" stroke-width="3.2"/>
<path clip-path="url(#clip170)" d="M1409.24 1216.76 Q1400.2 1216.76 1396.72 1218.82 Q1393.24 1220.89 1393.24 1225.87 Q1393.24 1229.84 1395.83 1232.19 Q1398.46 1234.5 1402.96 1234.5 Q1409.16 1234.5 1412.88 1230.13 Q1416.65 1225.71 1416.65 1218.42 L1416.65 1216.76 L1409.24 1216.76 M1424.1 1213.68 L1424.1 1239.57 L1416.65 1239.57 L1416.65 1232.68 Q1414.1 1236.81 1410.29 1238.8 Q1406.48 1240.74 1400.97 1240.74 Q1394.01 1240.74 1389.87 1236.85 Q1385.78 1232.92 1385.78 1226.36 Q1385.78 1218.7 1390.89 1214.81 Q1396.03 1210.93 1406.2 1210.93 L1416.65 1210.93 L1416.65 1210.2 Q1416.65 1205.05 1413.25 1202.26 Q1409.89 1199.42 1403.77 1199.42 Q1399.88 1199.42 1396.19 1200.35 Q1392.51 1201.28 1389.1 1203.15 L1389.1 1196.26 Q1393.2 1194.68 1397.04 1193.91 Q1400.89 1193.1 1404.54 1193.1 Q1414.38 1193.1 1419.24 1198.21 Q1424.1 1203.31 1424.1 1213.68 Z" fill="#000000" fill-rule="nonzero" fill-opacity="1" /><path clip-path="url(#clip170)" d="M1323.74 1453.31 Q1323.74 1445.09 1320.34 1440.43 Q1316.97 1435.73 1311.06 1435.73 Q1305.15 1435.73 1301.74 1440.43 Q1298.38 1445.09 1298.38 1453.31 Q1298.38 1461.53 1301.74 1466.23 Q1305.15 1470.89 1311.06 1470.89 Q1316.97 1470.89 1320.34 1466.23 Q1323.74 1461.53 1323.74 1453.31 M1298.38 1437.47 Q1300.73 1433.42 1304.3 1431.48 Q1307.9 1429.49 1312.88 1429.49 Q1321.15 1429.49 1326.29 1436.05 Q1331.48 1442.62 1331.48 1453.31 Q1331.48 1464.01 1326.29 1470.57 Q1321.15 1477.13 1312.88 1477.13 Q1307.9 1477.13 1304.3 1475.19 Q1300.73 1473.2 1298.38 1469.15 L1298.38 1475.96 L1290.89 1475.96 L1290.89 1412.92 L1298.38 1412.92 L1298.38 1437.47 Z" fill="#000000" fill-rule="nonzero" fill-opacity="1" /><path clip-path="url(#clip170)" d="M2308.53 1235.68 L2308.53 1242.65 Q2305.37 1240.91 2302.17 1240.06 Q2299.01 1239.17 2295.77 1239.17 Q2288.52 1239.17 2284.51 1243.78 Q2280.5 1248.36 2280.5 1256.66 Q2280.5 1264.97 2284.51 1269.59 Q2288.52 1274.16 2295.77 1274.16 Q2299.01 1274.16 2302.17 1273.31 Q2305.37 1272.42 2308.53 1270.68 L2308.53 1277.57 Q2305.41 1279.03 2302.05 1279.76 Q2298.73 1280.48 2294.96 1280.48 Q2284.71 1280.48 2278.68 1274.04 Q2272.64 1267.6 2272.64 1256.66 Q2272.64 1245.57 2278.72 1239.21 Q2284.83 1232.85 2295.45 1232.85 Q2298.89 1232.85 2302.17 1233.57 Q2305.45 1234.26 2308.53 1235.68 Z" fill="#000000" fill-rule="nonzero" fill-opacity="1" /><path clip-path="url(#clip170)" d="M231.102 79.7327 L231.102 55.1842 L238.556 55.1842 L238.556 118.216 L231.102 118.216 L231.102 111.411 Q228.753 115.462 225.148 117.447 Q221.583 119.391 216.56 119.391 Q208.336 119.391 203.151 112.829 Q198.007 106.266 198.007 95.5717 Q198.007 84.8773 203.151 78.3149 Q208.336 71.7524 216.56 71.7524 Q221.583 71.7524 225.148 73.7373 Q228.753 75.6818 231.102 79.7327 M205.703 95.5717 Q205.703 103.795 209.065 108.494 Q212.468 113.153 218.383 113.153 Q224.297 113.153 227.7 108.494 Q231.102 103.795 231.102 95.5717 Q231.102 87.3484 227.7 82.6898 Q224.297 77.9908 218.383 77.9908 Q212.468 77.9908 209.065 82.6898 Q205.703 87.3484 205.703 95.5717 Z" fill="#000000" fill-rule="nonzero" fill-opacity="1" /><path clip-path="url(#clip170)" d="M2007.44 198.898 L2279.53 198.898 L2279.53 95.2176 L2007.44 95.2176  Z" fill="#ffffff" fill-rule="evenodd" fill-opacity="1"/>
<polyline clip-path="url(#clip170)" style="stroke:#000000; stroke-linecap:round; stroke-linejoin:round; stroke-width:4; stroke-opacity:1; fill:none" points="2007.44,198.898 2279.53,198.898 2279.53,95.2176 2007.44,95.2176 2007.44,198.898 "/>
<circle clip-path="url(#clip170)" cx="2105.07" cy="147.058" r="20.48" fill="#808080" fill-rule="evenodd" fill-opacity="1" stroke="#000000" stroke-opacity="1" stroke-width="4.55111"/>
<path clip-path="url(#clip170)" d="M2216.54 166.745 Q2214.73 171.375 2213.02 172.787 Q2211.31 174.199 2208.44 174.199 L2205.03 174.199 L2205.03 170.634 L2207.53 170.634 Q2209.29 170.634 2210.27 169.8 Q2211.24 168.967 2212.42 165.865 L2213.18 163.921 L2202.7 138.412 L2207.21 138.412 L2215.31 158.689 L2223.41 138.412 L2227.93 138.412 L2216.54 166.745 Z" fill="#000000" fill-rule="nonzero" fill-opacity="1" /><path clip-path="url(#clip170)" d="M2235.22 160.402 L2242.86 160.402 L2242.86 134.037 L2234.55 135.703 L2234.55 131.444 L2242.81 129.778 L2247.49 129.778 L2247.49 160.402 L2255.13 160.402 L2255.13 164.338 L2235.22 164.338 L2235.22 160.402 Z" fill="#000000" fill-rule="nonzero" fill-opacity="1" /></svg>
