<?xml version="1.0" encoding="utf-8"?>
<svg xmlns="http://www.w3.org/2000/svg" xmlns:xlink="http://www.w3.org/1999/xlink" width="600" height="400" viewBox="0 0 2400 1600">
<defs>
  <clipPath id="clip570">
    <rect x="0" y="0" width="2400" height="1600"/>
  </clipPath>
</defs>
<path clip-path="url(#clip570)" d="M0 1600 L2400 1600 L2400 0 L0 0  Z" fill="#ffffff" fill-rule="evenodd" fill-opacity="1"/>
<defs>
  <clipPath id="clip571">
    <rect x="480" y="0" width="1681" height="1600"/>
  </clipPath>
</defs>
<path clip-path="url(#clip570)" d="M112.177 1486.45 L2352.76 1486.45 L2352.76 47.2441 L112.177 47.2441  Z" fill="#ffffff" fill-rule="evenodd" fill-opacity="1"/>
<defs>
  <clipPath id="clip572">
    <rect x="112" y="47" width="2242" height="1440"/>
  </clipPath>
</defs>
<polyline clip-path="url(#clip572)" style="stroke:#000000; stroke-linecap:round; stroke-linejoin:round; stroke-width:2; stroke-opacity:0.1; fill:none" points="467.201,1486.45 467.201,47.2441 "/>
<polyline clip-path="url(#clip572)" style="stroke:#000000; stroke-linecap:round; stroke-linejoin:round; stroke-width:2; stroke-opacity:0.1; fill:none" points="1017.9,1486.45 1017.9,47.2441 "/>
<polyline clip-path="url(#clip572)" style="stroke:#000000; stroke-linecap:round; stroke-linejoin:round; stroke-width:2; stroke-opacity:0.1; fill:none" points="1568.59,1486.45 1568.59,47.2441 "/>
<polyline clip-path="url(#clip572)" style="stroke:#000000; stroke-linecap:round; stroke-linejoin:round; stroke-width:2; stroke-opacity:0.1; fill:none" points="2119.29,1486.45 2119.29,47.2441 "/>
<polyline clip-path="url(#clip570)" style="stroke:#000000; stroke-linecap:round; stroke-linejoin:round; stroke-width:4; stroke-opacity:1; fill:none" points="112.177,1486.45 2352.76,1486.45 "/>
<polyline clip-path="url(#clip570)" style="stroke:#000000; stroke-linecap:round; stroke-linejoin:round; stroke-width:4; stroke-opacity:1; fill:none" points="467.201,1486.45 467.201,1467.55 "/>
<polyline clip-path="url(#clip570)" style="stroke:#000000; stroke-linecap:round; stroke-linejoin:round; stroke-width:4; stroke-opacity:1; fill:none" points="1017.9,1486.45 1017.9,1467.55 "/>
<polyline clip-path="url(#clip570)" style="stroke:#000000; stroke-linecap:round; stroke-linejoin:round; stroke-width:4; stroke-opacity:1; fill:none" points="1568.59,1486.45 1568.59,1467.55 "/>
<polyline clip-path="url(#clip570)" style="stroke:#000000; stroke-linecap:round; stroke-linejoin:round; stroke-width:4; stroke-opacity:1; fill:none" points="2119.29,1486.45 2119.29,1467.55 "/>
<path clip-path="url(#clip570)" d="M413.729 1532.02 L443.405 1532.02 L443.405 1535.95 L413.729 1535.95 L413.729 1532.02 Z" fill="#000000" fill-rule="nonzero" fill-opacity="1" /><path clip-path="url(#clip570)" d="M454.308 1544.91 L461.947 1544.91 L461.947 1518.55 L453.637 1520.21 L453.637 1515.95 L461.9 1514.29 L466.576 1514.29 L466.576 1544.91 L474.215 1544.91 L474.215 1548.85 L454.308 1548.85 L454.308 1544.91 Z" fill="#000000" fill-rule="nonzero" fill-opacity="1" /><path clip-path="url(#clip570)" d="M483.66 1542.97 L488.544 1542.97 L488.544 1548.85 L483.66 1548.85 L483.66 1542.97 Z" fill="#000000" fill-rule="nonzero" fill-opacity="1" /><path clip-path="url(#clip570)" d="M508.729 1517.37 Q505.118 1517.37 503.289 1520.93 Q501.484 1524.47 501.484 1531.6 Q501.484 1538.71 503.289 1542.27 Q505.118 1545.82 508.729 1545.82 Q512.363 1545.82 514.169 1542.27 Q515.997 1538.71 515.997 1531.6 Q515.997 1524.47 514.169 1520.93 Q512.363 1517.37 508.729 1517.37 M508.729 1513.66 Q514.539 1513.66 517.595 1518.27 Q520.673 1522.85 520.673 1531.6 Q520.673 1540.33 517.595 1544.94 Q514.539 1549.52 508.729 1549.52 Q502.919 1549.52 499.84 1544.94 Q496.785 1540.33 496.785 1531.6 Q496.785 1522.85 499.84 1518.27 Q502.919 1513.66 508.729 1513.66 Z" fill="#000000" fill-rule="nonzero" fill-opacity="1" /><path clip-path="url(#clip570)" d="M964.922 1532.02 L994.598 1532.02 L994.598 1535.95 L964.922 1535.95 L964.922 1532.02 Z" fill="#000000" fill-rule="nonzero" fill-opacity="1" /><path clip-path="url(#clip570)" d="M1014.69 1517.37 Q1011.08 1517.37 1009.25 1520.93 Q1007.45 1524.47 1007.45 1531.6 Q1007.45 1538.71 1009.25 1542.27 Q1011.08 1545.82 1014.69 1545.82 Q1018.32 1545.82 1020.13 1542.27 Q1021.96 1538.71 1021.96 1531.6 Q1021.96 1524.47 1020.13 1520.93 Q1018.32 1517.37 1014.69 1517.37 M1014.69 1513.66 Q1020.5 1513.66 1023.56 1518.27 Q1026.63 1522.85 1026.63 1531.6 Q1026.63 1540.33 1023.56 1544.94 Q1020.5 1549.52 1014.69 1549.52 Q1008.88 1549.52 1005.8 1544.94 Q1002.75 1540.33 1002.75 1531.6 Q1002.75 1522.85 1005.8 1518.27 Q1008.88 1513.66 1014.69 1513.66 Z" fill="#000000" fill-rule="nonzero" fill-opacity="1" /><path clip-path="url(#clip570)" d="M1034.85 1542.97 L1039.74 1542.97 L1039.74 1548.85 L1034.85 1548.85 L1034.85 1542.97 Z" fill="#000000" fill-rule="nonzero" fill-opacity="1" /><path clip-path="url(#clip570)" d="M1049.97 1514.29 L1068.32 1514.29 L1068.32 1518.22 L1054.25 1518.22 L1054.25 1526.7 Q1055.27 1526.35 1056.29 1526.19 Q1057.31 1526 1058.32 1526 Q1064.11 1526 1067.49 1529.17 Q1070.87 1532.34 1070.87 1537.76 Q1070.87 1543.34 1067.4 1546.44 Q1063.93 1549.52 1057.61 1549.52 Q1055.43 1549.52 1053.16 1549.15 Q1050.92 1548.78 1048.51 1548.04 L1048.51 1543.34 Q1050.59 1544.47 1052.82 1545.03 Q1055.04 1545.58 1057.51 1545.58 Q1061.52 1545.58 1063.86 1543.48 Q1066.19 1541.37 1066.19 1537.76 Q1066.19 1534.15 1063.86 1532.04 Q1061.52 1529.94 1057.51 1529.94 Q1055.64 1529.94 1053.76 1530.35 Q1051.91 1530.77 1049.97 1531.65 L1049.97 1514.29 Z" fill="#000000" fill-rule="nonzero" fill-opacity="1" /><path clip-path="url(#clip570)" d="M1545.98 1517.37 Q1542.36 1517.37 1540.54 1520.93 Q1538.73 1524.47 1538.73 1531.6 Q1538.73 1538.71 1540.54 1542.27 Q1542.36 1545.82 1545.98 1545.82 Q1549.61 1545.82 1551.42 1542.27 Q1553.24 1538.71 1553.24 1531.6 Q1553.24 1524.47 1551.42 1520.93 Q1549.61 1517.37 1545.98 1517.37 M1545.98 1513.66 Q1551.79 1513.66 1554.84 1518.27 Q1557.92 1522.85 1557.92 1531.6 Q1557.92 1540.33 1554.84 1544.94 Q1551.79 1549.52 1545.98 1549.52 Q1540.17 1549.52 1537.09 1544.94 Q1534.03 1540.33 1534.03 1531.6 Q1534.03 1522.85 1537.09 1518.27 Q1540.17 1513.66 1545.98 1513.66 Z" fill="#000000" fill-rule="nonzero" fill-opacity="1" /><path clip-path="url(#clip570)" d="M1566.14 1542.97 L1571.02 1542.97 L1571.02 1548.85 L1566.14 1548.85 L1566.14 1542.97 Z" fill="#000000" fill-rule="nonzero" fill-opacity="1" /><path clip-path="url(#clip570)" d="M1591.21 1517.37 Q1587.6 1517.37 1585.77 1520.93 Q1583.96 1524.47 1583.96 1531.6 Q1583.96 1538.71 1585.77 1542.27 Q1587.6 1545.82 1591.21 1545.82 Q1594.84 1545.82 1596.65 1542.27 Q1598.48 1538.71 1598.48 1531.6 Q1598.48 1524.47 1596.65 1520.93 Q1594.84 1517.37 1591.21 1517.37 M1591.21 1513.66 Q1597.02 1513.66 1600.07 1518.27 Q1603.15 1522.85 1603.15 1531.6 Q1603.15 1540.33 1600.07 1544.94 Q1597.02 1549.52 1591.21 1549.52 Q1585.4 1549.52 1582.32 1544.94 Q1579.26 1540.33 1579.26 1531.6 Q1579.26 1522.85 1582.32 1518.27 Q1585.4 1513.66 1591.21 1513.66 Z" fill="#000000" fill-rule="nonzero" fill-opacity="1" /><path clip-path="url(#clip570)" d="M2097.17 1517.37 Q2093.56 1517.37 2091.73 1520.93 Q2089.92 1524.47 2089.92 1531.6 Q2089.92 1538.71 2091.73 1542.27 Q2093.56 1545.82 2097.17 1545.82 Q2100.8 1545.82 2102.61 1542.27 Q2104.44 1538.71 2104.44 1531.6 Q2104.44 1524.47 2102.61 1520.93 Q2100.8 1517.37 2097.17 1517.37 M2097.17 1513.66 Q2102.98 1513.66 2106.03 1518.27 Q2109.11 1522.85 2109.11 1531.6 Q2109.11 1540.33 2106.03 1544.94 Q2102.98 1549.52 2097.17 1549.52 Q2091.36 1549.52 2088.28 1544.94 Q2085.22 1540.33 2085.22 1531.6 Q2085.22 1522.85 2088.28 1518.27 Q2091.36 1513.66 2097.17 1513.66 Z" fill="#000000" fill-rule="nonzero" fill-opacity="1" /><path clip-path="url(#clip570)" d="M2117.33 1542.97 L2122.21 1542.97 L2122.21 1548.85 L2117.33 1548.85 L2117.33 1542.97 Z" fill="#000000" fill-rule="nonzero" fill-opacity="1" /><path clip-path="url(#clip570)" d="M2132.45 1514.29 L2150.8 1514.29 L2150.8 1518.22 L2136.73 1518.22 L2136.73 1526.7 Q2137.75 1526.35 2138.77 1526.19 Q2139.78 1526 2140.8 1526 Q2146.59 1526 2149.97 1529.17 Q2153.35 1532.34 2153.35 1537.76 Q2153.35 1543.34 2149.88 1546.44 Q2146.4 1549.52 2140.08 1549.52 Q2137.91 1549.52 2135.64 1549.15 Q2133.4 1548.78 2130.99 1548.04 L2130.99 1543.34 Q2133.07 1544.47 2135.29 1545.03 Q2137.52 1545.58 2139.99 1545.58 Q2144 1545.58 2146.33 1543.48 Q2148.67 1541.37 2148.67 1537.76 Q2148.67 1534.15 2146.33 1532.04 Q2144 1529.94 2139.99 1529.94 Q2138.12 1529.94 2136.24 1530.35 Q2134.39 1530.77 2132.45 1531.65 L2132.45 1514.29 Z" fill="#000000" fill-rule="nonzero" fill-opacity="1" /><polyline clip-path="url(#clip572)" style="stroke:#000000; stroke-linecap:round; stroke-linejoin:round; stroke-width:2; stroke-opacity:0.1; fill:none" points="112.177,1304.4 2352.76,1304.4 "/>
<polyline clip-path="url(#clip572)" style="stroke:#000000; stroke-linecap:round; stroke-linejoin:round; stroke-width:2; stroke-opacity:0.1; fill:none" points="112.177,1118.49 2352.76,1118.49 "/>
<polyline clip-path="url(#clip572)" style="stroke:#000000; stroke-linecap:round; stroke-linejoin:round; stroke-width:2; stroke-opacity:0.1; fill:none" points="112.177,932.577 2352.76,932.577 "/>
<polyline clip-path="url(#clip572)" style="stroke:#000000; stroke-linecap:round; stroke-linejoin:round; stroke-width:2; stroke-opacity:0.1; fill:none" points="112.177,746.664 2352.76,746.664 "/>
<polyline clip-path="url(#clip572)" style="stroke:#000000; stroke-linecap:round; stroke-linejoin:round; stroke-width:2; stroke-opacity:0.1; fill:none" points="112.177,560.751 2352.76,560.751 "/>
<polyline clip-path="url(#clip572)" style="stroke:#000000; stroke-linecap:round; stroke-linejoin:round; stroke-width:2; stroke-opacity:0.1; fill:none" points="112.177,374.838 2352.76,374.838 "/>
<polyline clip-path="url(#clip572)" style="stroke:#000000; stroke-linecap:round; stroke-linejoin:round; stroke-width:2; stroke-opacity:0.1; fill:none" points="112.177,188.925 2352.76,188.925 "/>
<polyline clip-path="url(#clip570)" style="stroke:#000000; stroke-linecap:round; stroke-linejoin:round; stroke-width:4; stroke-opacity:1; fill:none" points="112.177,1486.45 112.177,47.2441 "/>
<polyline clip-path="url(#clip570)" style="stroke:#000000; stroke-linecap:round; stroke-linejoin:round; stroke-width:4; stroke-opacity:1; fill:none" points="112.177,1304.4 131.075,1304.4 "/>
<polyline clip-path="url(#clip570)" style="stroke:#000000; stroke-linecap:round; stroke-linejoin:round; stroke-width:4; stroke-opacity:1; fill:none" points="112.177,1118.49 131.075,1118.49 "/>
<polyline clip-path="url(#clip570)" style="stroke:#000000; stroke-linecap:round; stroke-linejoin:round; stroke-width:4; stroke-opacity:1; fill:none" points="112.177,932.577 131.075,932.577 "/>
<polyline clip-path="url(#clip570)" style="stroke:#000000; stroke-linecap:round; stroke-linejoin:round; stroke-width:4; stroke-opacity:1; fill:none" points="112.177,746.664 131.075,746.664 "/>
<polyline clip-path="url(#clip570)" style="stroke:#000000; stroke-linecap:round; stroke-linejoin:round; stroke-width:4; stroke-opacity:1; fill:none" points="112.177,560.751 131.075,560.751 "/>
<polyline clip-path="url(#clip570)" style="stroke:#000000; stroke-linecap:round; stroke-linejoin:round; stroke-width:4; stroke-opacity:1; fill:none" points="112.177,374.838 131.075,374.838 "/>
<polyline clip-path="url(#clip570)" style="stroke:#000000; stroke-linecap:round; stroke-linejoin:round; stroke-width:4; stroke-opacity:1; fill:none" points="112.177,188.925 131.075,188.925 "/>
<path clip-path="url(#clip570)" d="M56.2699 1317.75 L63.9087 1317.75 L63.9087 1291.38 L55.5986 1293.05 L55.5986 1288.79 L63.8624 1287.12 L68.5383 1287.12 L68.5383 1317.75 L76.1772 1317.75 L76.1772 1321.68 L56.2699 1321.68 L56.2699 1317.75 Z" fill="#000000" fill-rule="nonzero" fill-opacity="1" /><path clip-path="url(#clip570)" d="M59.8578 1131.84 L76.1772 1131.84 L76.1772 1135.77 L54.2328 1135.77 L54.2328 1131.84 Q56.8949 1129.08 61.4782 1124.45 Q66.0846 1119.8 67.2652 1118.46 Q69.5105 1115.93 70.3902 1114.2 Q71.2929 1112.44 71.2929 1110.75 Q71.2929 1107.99 69.3485 1106.26 Q67.4272 1104.52 64.3254 1104.52 Q62.1263 1104.52 59.6726 1105.28 Q57.2421 1106.05 54.4643 1107.6 L54.4643 1102.88 Q57.2884 1101.74 59.7421 1101.16 Q62.1958 1100.59 64.2328 1100.59 Q69.6031 1100.59 72.7976 1103.27 Q75.992 1105.96 75.992 1110.45 Q75.992 1112.58 75.1818 1114.5 Q74.3948 1116.4 72.2883 1118.99 Q71.7096 1119.66 68.6078 1122.88 Q65.5059 1126.07 59.8578 1131.84 Z" fill="#000000" fill-rule="nonzero" fill-opacity="1" /><path clip-path="url(#clip570)" d="M69.0476 931.223 Q72.404 931.941 74.279 934.209 Q76.1772 936.478 76.1772 939.811 Q76.1772 944.927 72.6587 947.728 Q69.1402 950.529 62.6587 950.529 Q60.4828 950.529 58.168 950.089 Q55.8764 949.672 53.4227 948.816 L53.4227 944.302 Q55.3671 945.436 57.6819 946.015 Q59.9967 946.594 62.5198 946.594 Q66.918 946.594 69.2096 944.857 Q71.5244 943.121 71.5244 939.811 Q71.5244 936.756 69.3717 935.043 Q67.242 933.307 63.4226 933.307 L59.3949 933.307 L59.3949 929.464 L63.6078 929.464 Q67.0569 929.464 68.8855 928.098 Q70.7142 926.709 70.7142 924.117 Q70.7142 921.455 68.8161 920.043 Q66.9411 918.608 63.4226 918.608 Q61.5013 918.608 59.3023 919.024 Q57.1032 919.441 54.4643 920.321 L54.4643 916.154 Q57.1264 915.413 59.4412 915.043 Q61.7791 914.672 63.8393 914.672 Q69.1633 914.672 72.2652 917.103 Q75.367 919.51 75.367 923.631 Q75.367 926.501 73.7235 928.492 Q72.08 930.459 69.0476 931.223 Z" fill="#000000" fill-rule="nonzero" fill-opacity="1" /><path clip-path="url(#clip570)" d="M66.5939 733.458 L54.7884 751.907 L66.5939 751.907 L66.5939 733.458 M65.367 729.384 L71.2466 729.384 L71.2466 751.907 L76.1772 751.907 L76.1772 755.796 L71.2466 755.796 L71.2466 763.944 L66.5939 763.944 L66.5939 755.796 L50.9921 755.796 L50.9921 751.282 L65.367 729.384 Z" fill="#000000" fill-rule="nonzero" fill-opacity="1" /><path clip-path="url(#clip570)" d="M55.2745 543.471 L73.6309 543.471 L73.6309 547.407 L59.5569 547.407 L59.5569 555.879 Q60.5754 555.532 61.5939 555.369 Q62.6124 555.184 63.6309 555.184 Q69.418 555.184 72.7976 558.356 Q76.1772 561.527 76.1772 566.943 Q76.1772 572.522 72.705 575.624 Q69.2328 578.703 62.9134 578.703 Q60.7374 578.703 58.4689 578.332 Q56.2236 577.962 53.8162 577.221 L53.8162 572.522 Q55.8995 573.656 58.1217 574.212 Q60.3439 574.768 62.8208 574.768 Q66.8254 574.768 69.1633 572.661 Q71.5013 570.555 71.5013 566.943 Q71.5013 563.332 69.1633 561.226 Q66.8254 559.119 62.8208 559.119 Q60.9458 559.119 59.0708 559.536 Q57.2189 559.953 55.2745 560.832 L55.2745 543.471 Z" fill="#000000" fill-rule="nonzero" fill-opacity="1" /><path clip-path="url(#clip570)" d="M64.6495 372.975 Q61.5013 372.975 59.6495 375.128 Q57.8208 377.28 57.8208 381.03 Q57.8208 384.757 59.6495 386.933 Q61.5013 389.086 64.6495 389.086 Q67.7976 389.086 69.6263 386.933 Q71.4781 384.757 71.4781 381.03 Q71.4781 377.28 69.6263 375.128 Q67.7976 372.975 64.6495 372.975 M73.9318 358.322 L73.9318 362.582 Q72.1726 361.748 70.367 361.308 Q68.5846 360.869 66.8254 360.869 Q62.1958 360.869 59.7421 363.994 Q57.3115 367.119 56.9643 373.438 Q58.33 371.424 60.3902 370.359 Q62.4504 369.271 64.9272 369.271 Q70.1355 369.271 73.1448 372.443 Q76.1772 375.591 76.1772 381.03 Q76.1772 386.355 73.029 389.572 Q69.8809 392.79 64.6495 392.79 Q58.6541 392.79 55.4828 388.206 Q52.3116 383.6 52.3116 374.873 Q52.3116 366.679 56.2004 361.818 Q60.0893 356.933 66.6402 356.933 Q68.3994 356.933 70.1818 357.281 Q71.9874 357.628 73.9318 358.322 Z" fill="#000000" fill-rule="nonzero" fill-opacity="1" /><path clip-path="url(#clip570)" d="M53.9551 171.645 L76.1772 171.645 L76.1772 173.636 L63.6309 206.205 L58.7467 206.205 L70.5522 175.581 L53.9551 175.581 L53.9551 171.645 Z" fill="#000000" fill-rule="nonzero" fill-opacity="1" /><circle clip-path="url(#clip572)" cx="2289.34" cy="1362.69" r="14.4" fill="#808080" fill-rule="evenodd" fill-opacity="1" stroke="#000000" stroke-opacity="1" stroke-width="3.2"/>
<circle clip-path="url(#clip572)" cx="175.59" cy="87.9763" r="14.4" fill="#808080" fill-rule="evenodd" fill-opacity="1" stroke="#000000" stroke-opacity="1" stroke-width="3.2"/>
<circle clip-path="url(#clip572)" cx="1635.24" cy="1445.72" r="14.4" fill="#808080" fill-rule="evenodd" fill-opacity="1" stroke="#000000" stroke-opacity="1" stroke-width="3.2"/>
<circle clip-path="url(#clip572)" cx="1393.5" cy="1415.16" r="14.4" fill="#808080" fill-rule="evenodd" fill-opacity="1" stroke="#000000" stroke-opacity="1" stroke-width="3.2"/>
<path clip-path="url(#clip570)" d="M2293.64 1370.12 Q2284.6 1370.12 2281.12 1372.19 Q2277.64 1374.26 2277.64 1379.24 Q2277.64 1383.21 2280.23 1385.56 Q2282.86 1387.87 2287.36 1387.87 Q2293.56 1387.87 2297.28 1383.49 Q2301.05 1379.08 2301.05 1371.78 L2301.05 1370.12 L2293.64 1370.12 M2308.5 1367.04 L2308.5 1392.93 L2301.05 1392.93 L2301.05 1386.04 Q2298.5 1390.18 2294.69 1392.16 Q2290.88 1394.1 2285.37 1394.1 Q2278.41 1394.1 2274.27 1390.22 Q2270.18 1386.29 2270.18 1379.72 Q2270.18 1372.07 2275.29 1368.18 Q2280.43 1364.29 2290.6 1364.29 L2301.05 1364.29 L2301.05 1363.56 Q2301.05 1358.42 2297.65 1355.62 Q2294.29 1352.79 2288.17 1352.79 Q2284.28 1352.79 2280.59 1353.72 Q2276.91 1354.65 2273.5 1356.51 L2273.5 1349.63 Q2277.6 1348.05 2281.44 1347.28 Q2285.29 1346.47 2288.94 1346.47 Q2298.78 1346.47 2303.64 1351.57 Q2308.5 1356.67 2308.5 1367.04 Z" fill="#000000" fill-rule="nonzero" fill-opacity="1" /><path clip-path="url(#clip570)" d="M188.148 95.5717 Q188.148 87.3484 184.745 82.6898 Q181.383 77.9908 175.468 77.9908 Q169.554 77.9908 166.151 82.6898 Q162.789 87.3484 162.789 95.5717 Q162.789 103.795 166.151 108.494 Q169.554 113.153 175.468 113.153 Q181.383 113.153 184.745 108.494 Q188.148 103.795 188.148 95.5717 M162.789 79.7327 Q165.138 75.6818 168.703 73.7373 Q172.309 71.7524 177.291 71.7524 Q185.555 71.7524 190.7 78.3149 Q195.885 84.8773 195.885 95.5717 Q195.885 106.266 190.7 112.829 Q185.555 119.391 177.291 119.391 Q172.309 119.391 168.703 117.447 Q165.138 115.462 162.789 111.411 L162.789 118.216 L155.295 118.216 L155.295 55.1842 L162.789 55.1842 L162.789 79.7327 Z" fill="#000000" fill-rule="nonzero" fill-opacity="1" /><path clip-path="url(#clip570)" d="M1653.19 1432.33 L1653.19 1439.3 Q1650.03 1437.55 1646.83 1436.7 Q1643.67 1435.81 1640.43 1435.81 Q1633.18 1435.81 1629.17 1440.43 Q1625.16 1445.01 1625.16 1453.31 Q1625.16 1461.62 1629.17 1466.23 Q1633.18 1470.81 1640.43 1470.81 Q1643.67 1470.81 1646.83 1469.96 Q1650.03 1469.07 1653.19 1467.33 L1653.19 1474.21 Q1650.07 1475.67 1646.71 1476.4 Q1643.39 1477.13 1639.62 1477.13 Q1629.37 1477.13 1623.33 1470.69 Q1617.3 1464.25 1617.3 1453.31 Q1617.3 1442.21 1623.37 1435.85 Q1629.49 1429.49 1640.1 1429.49 Q1643.55 1429.49 1646.83 1430.22 Q1650.11 1430.91 1653.19 1432.33 Z" fill="#000000" fill-rule="nonzero" fill-opacity="1" /><path clip-path="url(#clip570)" d="M1406.32 1406.92 L1406.32 1382.37 L1413.77 1382.37 L1413.77 1445.4 L1406.32 1445.4 L1406.32 1438.6 Q1403.97 1442.65 1400.37 1444.63 Q1396.8 1446.58 1391.78 1446.58 Q1383.55 1446.58 1378.37 1440.01 Q1373.22 1433.45 1373.22 1422.76 Q1373.22 1412.06 1378.37 1405.5 Q1383.55 1398.94 1391.78 1398.94 Q1396.8 1398.94 1400.37 1400.92 Q1403.97 1402.87 1406.32 1406.92 M1380.92 1422.76 Q1380.92 1430.98 1384.28 1435.68 Q1387.69 1440.34 1393.6 1440.34 Q1399.51 1440.34 1402.92 1435.68 Q1406.32 1430.98 1406.32 1422.76 Q1406.32 1414.53 1402.92 1409.87 Q1399.51 1405.18 1393.6 1405.18 Q1387.69 1405.18 1384.28 1409.87 Q1380.92 1414.53 1380.92 1422.76 Z" fill="#000000" fill-rule="nonzero" fill-opacity="1" /><path clip-path="url(#clip570)" d="M2001.58 198.898 L2278.07 198.898 L2278.07 95.2176 L2001.58 95.2176  Z" fill="#ffffff" fill-rule="evenodd" fill-opacity="1"/>
<polyline clip-path="url(#clip570)" style="stroke:#000000; stroke-linecap:round; stroke-linejoin:round; stroke-width:4; stroke-opacity:1; fill:none" points="2001.58,198.898 2278.07,198.898 2278.07,95.2176 2001.58,95.2176 2001.58,198.898 "/>
<circle clip-path="url(#clip570)" cx="2101.16" cy="147.058" r="20.48" fill="#808080" fill-rule="evenodd" fill-opacity="1" stroke="#000000" stroke-opacity="1" stroke-width="4.55111"/>
<path clip-path="url(#clip570)" d="M2214.59 166.745 Q2212.78 171.375 2211.07 172.787 Q2209.36 174.199 2206.49 174.199 L2203.08 174.199 L2203.08 170.634 L2205.58 170.634 Q2207.34 170.634 2208.31 169.8 Q2209.29 168.967 2210.47 165.865 L2211.23 163.921 L2200.74 138.412 L2205.26 138.412 L2213.36 158.689 L2221.46 138.412 L2225.98 138.412 L2214.59 166.745 Z" fill="#000000" fill-rule="nonzero" fill-opacity="1" /><path clip-path="url(#clip570)" d="M2233.27 160.402 L2240.91 160.402 L2240.91 134.037 L2232.6 135.703 L2232.6 131.444 L2240.86 129.778 L2245.54 129.778 L2245.54 160.402 L2253.17 160.402 L2253.17 164.338 L2233.27 164.338 L2233.27 160.402 Z" fill="#000000" fill-rule="nonzero" fill-opacity="1" /></svg>
