<?xml version="1.0" encoding="utf-8"?>
<svg xmlns="http://www.w3.org/2000/svg" xmlns:xlink="http://www.w3.org/1999/xlink" width="600" height="400" viewBox="0 0 2400 1600">
<defs>
  <clipPath id="clip510">
    <rect x="0" y="0" width="2400" height="1600"/>
  </clipPath>
</defs>
<path clip-path="url(#clip510)" d="M0 1600 L2400 1600 L2400 0 L0 0  Z" fill="#ffffff" fill-rule="evenodd" fill-opacity="1"/>
<defs>
  <clipPath id="clip511">
    <rect x="480" y="0" width="1681" height="1600"/>
  </clipPath>
</defs>
<path clip-path="url(#clip510)" d="M156.598 1486.45 L2352.76 1486.45 L2352.76 47.2441 L156.598 47.2441  Z" fill="#ffffff" fill-rule="evenodd" fill-opacity="1"/>
<defs>
  <clipPath id="clip512">
    <rect x="156" y="47" width="2197" height="1440"/>
  </clipPath>
</defs>
<polyline clip-path="url(#clip512)" style="stroke:#000000; stroke-linecap:round; stroke-linejoin:round; stroke-width:2; stroke-opacity:0.1; fill:none" points="477.195,1486.45 477.195,47.2441 "/>
<polyline clip-path="url(#clip512)" style="stroke:#000000; stroke-linecap:round; stroke-linejoin:round; stroke-width:2; stroke-opacity:0.1; fill:none" points="965.511,1486.45 965.511,47.2441 "/>
<polyline clip-path="url(#clip512)" style="stroke:#000000; stroke-linecap:round; stroke-linejoin:round; stroke-width:2; stroke-opacity:0.1; fill:none" points="1453.83,1486.45 1453.83,47.2441 "/>
<polyline clip-path="url(#clip512)" style="stroke:#000000; stroke-linecap:round; stroke-linejoin:round; stroke-width:2; stroke-opacity:0.1; fill:none" points="1942.14,1486.45 1942.14,47.2441 "/>
<polyline clip-path="url(#clip510)" style="stroke:#000000; stroke-linecap:round; stroke-linejoin:round; stroke-width:4; stroke-opacity:1; fill:none" points="156.598,1486.45 2352.76,1486.45 "/>
<polyline clip-path="url(#clip510)" style="stroke:#000000; stroke-linecap:round; stroke-linejoin:round; stroke-width:4; stroke-opacity:1; fill:none" points="477.195,1486.45 477.195,1467.55 "/>
<polyline clip-path="url(#clip510)" style="stroke:#000000; stroke-linecap:round; stroke-linejoin:round; stroke-width:4; stroke-opacity:1; fill:none" points="965.511,1486.45 965.511,1467.55 "/>
<polyline clip-path="url(#clip510)" style="stroke:#000000; stroke-linecap:round; stroke-linejoin:round; stroke-width:4; stroke-opacity:1; fill:none" points="1453.83,1486.45 1453.83,1467.55 "/>
<polyline clip-path="url(#clip510)" style="stroke:#000000; stroke-linecap:round; stroke-linejoin:round; stroke-width:4; stroke-opacity:1; fill:none" points="1942.14,1486.45 1942.14,1467.55 "/>
<path clip-path="url(#clip510)" d="M408.642 1532.02 L438.318 1532.02 L438.318 1535.95 L408.642 1535.95 L408.642 1532.02 Z" fill="#000000" fill-rule="nonzero" fill-opacity="1" /><path clip-path="url(#clip510)" d="M458.41 1517.37 Q454.799 1517.37 452.971 1520.93 Q451.165 1524.47 451.165 1531.6 Q451.165 1538.71 452.971 1542.27 Q454.799 1545.82 458.41 1545.82 Q462.045 1545.82 463.85 1542.27 Q465.679 1538.71 465.679 1531.6 Q465.679 1524.47 463.85 1520.93 Q462.045 1517.37 458.41 1517.37 M458.41 1513.66 Q464.221 1513.66 467.276 1518.27 Q470.355 1522.85 470.355 1531.6 Q470.355 1540.33 467.276 1544.94 Q464.221 1549.52 458.41 1549.52 Q452.6 1549.52 449.522 1544.94 Q446.466 1540.33 446.466 1531.6 Q446.466 1522.85 449.522 1518.27 Q452.6 1513.66 458.41 1513.66 Z" fill="#000000" fill-rule="nonzero" fill-opacity="1" /><path clip-path="url(#clip510)" d="M478.572 1542.97 L483.457 1542.97 L483.457 1548.85 L478.572 1548.85 L478.572 1542.97 Z" fill="#000000" fill-rule="nonzero" fill-opacity="1" /><path clip-path="url(#clip510)" d="M493.688 1514.29 L512.044 1514.29 L512.044 1518.22 L497.97 1518.22 L497.97 1526.7 Q498.989 1526.35 500.007 1526.19 Q501.026 1526 502.044 1526 Q507.831 1526 511.211 1529.17 Q514.591 1532.34 514.591 1537.76 Q514.591 1543.34 511.118 1546.44 Q507.646 1549.52 501.327 1549.52 Q499.151 1549.52 496.882 1549.15 Q494.637 1548.78 492.23 1548.04 L492.23 1543.34 Q494.313 1544.47 496.535 1545.03 Q498.757 1545.58 501.234 1545.58 Q505.239 1545.58 507.577 1543.48 Q509.915 1541.37 509.915 1537.76 Q509.915 1534.15 507.577 1532.04 Q505.239 1529.94 501.234 1529.94 Q499.359 1529.94 497.484 1530.35 Q495.632 1530.77 493.688 1531.65 L493.688 1514.29 Z" fill="#000000" fill-rule="nonzero" fill-opacity="1" /><path clip-path="url(#clip510)" d="M533.804 1517.37 Q530.192 1517.37 528.364 1520.93 Q526.558 1524.47 526.558 1531.6 Q526.558 1538.71 528.364 1542.27 Q530.192 1545.82 533.804 1545.82 Q537.438 1545.82 539.243 1542.27 Q541.072 1538.71 541.072 1531.6 Q541.072 1524.47 539.243 1520.93 Q537.438 1517.37 533.804 1517.37 M533.804 1513.66 Q539.614 1513.66 542.669 1518.27 Q545.748 1522.85 545.748 1531.6 Q545.748 1540.33 542.669 1544.94 Q539.614 1549.52 533.804 1549.52 Q527.993 1549.52 524.915 1544.94 Q521.859 1540.33 521.859 1531.6 Q521.859 1522.85 524.915 1518.27 Q527.993 1513.66 533.804 1513.66 Z" fill="#000000" fill-rule="nonzero" fill-opacity="1" /><path clip-path="url(#clip510)" d="M897.456 1532.02 L927.132 1532.02 L927.132 1535.95 L897.456 1535.95 L897.456 1532.02 Z" fill="#000000" fill-rule="nonzero" fill-opacity="1" /><path clip-path="url(#clip510)" d="M947.224 1517.37 Q943.613 1517.37 941.784 1520.93 Q939.979 1524.47 939.979 1531.6 Q939.979 1538.71 941.784 1542.27 Q943.613 1545.82 947.224 1545.82 Q950.858 1545.82 952.664 1542.27 Q954.493 1538.71 954.493 1531.6 Q954.493 1524.47 952.664 1520.93 Q950.858 1517.37 947.224 1517.37 M947.224 1513.66 Q953.034 1513.66 956.09 1518.27 Q959.168 1522.85 959.168 1531.6 Q959.168 1540.33 956.09 1544.94 Q953.034 1549.52 947.224 1549.52 Q941.414 1549.52 938.335 1544.94 Q935.28 1540.33 935.28 1531.6 Q935.28 1522.85 938.335 1518.27 Q941.414 1513.66 947.224 1513.66 Z" fill="#000000" fill-rule="nonzero" fill-opacity="1" /><path clip-path="url(#clip510)" d="M967.386 1542.97 L972.27 1542.97 L972.27 1548.85 L967.386 1548.85 L967.386 1542.97 Z" fill="#000000" fill-rule="nonzero" fill-opacity="1" /><path clip-path="url(#clip510)" d="M986.483 1544.91 L1002.8 1544.91 L1002.8 1548.85 L980.858 1548.85 L980.858 1544.91 Q983.52 1542.16 988.103 1537.53 Q992.71 1532.88 993.89 1531.53 Q996.136 1529.01 997.015 1527.27 Q997.918 1525.51 997.918 1523.82 Q997.918 1521.07 995.974 1519.33 Q994.052 1517.6 990.951 1517.6 Q988.752 1517.6 986.298 1518.36 Q983.867 1519.13 981.09 1520.68 L981.09 1515.95 Q983.914 1514.82 986.367 1514.24 Q988.821 1513.66 990.858 1513.66 Q996.228 1513.66 999.423 1516.35 Q1002.62 1519.03 1002.62 1523.52 Q1002.62 1525.65 1001.81 1527.57 Q1001.02 1529.47 998.914 1532.07 Q998.335 1532.74 995.233 1535.95 Q992.131 1539.15 986.483 1544.91 Z" fill="#000000" fill-rule="nonzero" fill-opacity="1" /><path clip-path="url(#clip510)" d="M1012.66 1514.29 L1031.02 1514.29 L1031.02 1518.22 L1016.95 1518.22 L1016.95 1526.7 Q1017.96 1526.35 1018.98 1526.19 Q1020 1526 1021.02 1526 Q1026.81 1526 1030.19 1529.17 Q1033.57 1532.34 1033.57 1537.76 Q1033.57 1543.34 1030.09 1546.44 Q1026.62 1549.52 1020.3 1549.52 Q1018.13 1549.52 1015.86 1549.15 Q1013.61 1548.78 1011.21 1548.04 L1011.21 1543.34 Q1013.29 1544.47 1015.51 1545.03 Q1017.73 1545.58 1020.21 1545.58 Q1024.21 1545.58 1026.55 1543.48 Q1028.89 1541.37 1028.89 1537.76 Q1028.89 1534.15 1026.55 1532.04 Q1024.21 1529.94 1020.21 1529.94 Q1018.33 1529.94 1016.46 1530.35 Q1014.61 1530.77 1012.66 1531.65 L1012.66 1514.29 Z" fill="#000000" fill-rule="nonzero" fill-opacity="1" /><path clip-path="url(#clip510)" d="M1416.13 1517.37 Q1412.52 1517.37 1410.69 1520.93 Q1408.89 1524.47 1408.89 1531.6 Q1408.89 1538.71 1410.69 1542.27 Q1412.52 1545.82 1416.13 1545.82 Q1419.76 1545.82 1421.57 1542.27 Q1423.4 1538.71 1423.4 1531.6 Q1423.4 1524.47 1421.57 1520.93 Q1419.76 1517.37 1416.13 1517.37 M1416.13 1513.66 Q1421.94 1513.66 1425 1518.27 Q1428.07 1522.85 1428.07 1531.6 Q1428.07 1540.33 1425 1544.94 Q1421.94 1549.52 1416.13 1549.52 Q1410.32 1549.52 1407.24 1544.94 Q1404.19 1540.33 1404.19 1531.6 Q1404.19 1522.85 1407.24 1518.27 Q1410.32 1513.66 1416.13 1513.66 Z" fill="#000000" fill-rule="nonzero" fill-opacity="1" /><path clip-path="url(#clip510)" d="M1436.29 1542.97 L1441.18 1542.97 L1441.18 1548.85 L1436.29 1548.85 L1436.29 1542.97 Z" fill="#000000" fill-rule="nonzero" fill-opacity="1" /><path clip-path="url(#clip510)" d="M1461.36 1517.37 Q1457.75 1517.37 1455.92 1520.93 Q1454.12 1524.47 1454.12 1531.6 Q1454.12 1538.71 1455.92 1542.27 Q1457.75 1545.82 1461.36 1545.82 Q1465 1545.82 1466.8 1542.27 Q1468.63 1538.71 1468.63 1531.6 Q1468.63 1524.47 1466.8 1520.93 Q1465 1517.37 1461.36 1517.37 M1461.36 1513.66 Q1467.17 1513.66 1470.23 1518.27 Q1473.31 1522.85 1473.31 1531.6 Q1473.31 1540.33 1470.23 1544.94 Q1467.17 1549.52 1461.36 1549.52 Q1455.55 1549.52 1452.47 1544.94 Q1449.42 1540.33 1449.42 1531.6 Q1449.42 1522.85 1452.47 1518.27 Q1455.55 1513.66 1461.36 1513.66 Z" fill="#000000" fill-rule="nonzero" fill-opacity="1" /><path clip-path="url(#clip510)" d="M1491.52 1517.37 Q1487.91 1517.37 1486.08 1520.93 Q1484.28 1524.47 1484.28 1531.6 Q1484.28 1538.71 1486.08 1542.27 Q1487.91 1545.82 1491.52 1545.82 Q1495.16 1545.82 1496.96 1542.27 Q1498.79 1538.71 1498.79 1531.6 Q1498.79 1524.47 1496.96 1520.93 Q1495.16 1517.37 1491.52 1517.37 M1491.52 1513.66 Q1497.33 1513.66 1500.39 1518.27 Q1503.47 1522.85 1503.47 1531.6 Q1503.47 1540.33 1500.39 1544.94 Q1497.33 1549.52 1491.52 1549.52 Q1485.71 1549.52 1482.63 1544.94 Q1479.58 1540.33 1479.58 1531.6 Q1479.58 1522.85 1482.63 1518.27 Q1485.71 1513.66 1491.52 1513.66 Z" fill="#000000" fill-rule="nonzero" fill-opacity="1" /><path clip-path="url(#clip510)" d="M1904.94 1517.37 Q1901.33 1517.37 1899.5 1520.93 Q1897.7 1524.47 1897.7 1531.6 Q1897.7 1538.71 1899.5 1542.27 Q1901.33 1545.82 1904.94 1545.82 Q1908.58 1545.82 1910.38 1542.27 Q1912.21 1538.71 1912.21 1531.6 Q1912.21 1524.47 1910.38 1520.93 Q1908.58 1517.37 1904.94 1517.37 M1904.94 1513.66 Q1910.75 1513.66 1913.81 1518.27 Q1916.89 1522.85 1916.89 1531.6 Q1916.89 1540.33 1913.81 1544.94 Q1910.75 1549.52 1904.94 1549.52 Q1899.13 1549.52 1896.06 1544.94 Q1893 1540.33 1893 1531.6 Q1893 1522.85 1896.06 1518.27 Q1899.13 1513.66 1904.94 1513.66 Z" fill="#000000" fill-rule="nonzero" fill-opacity="1" /><path clip-path="url(#clip510)" d="M1925.11 1542.97 L1929.99 1542.97 L1929.99 1548.85 L1925.11 1548.85 L1925.11 1542.97 Z" fill="#000000" fill-rule="nonzero" fill-opacity="1" /><path clip-path="url(#clip510)" d="M1944.2 1544.91 L1960.52 1544.91 L1960.52 1548.85 L1938.58 1548.85 L1938.58 1544.91 Q1941.24 1542.16 1945.82 1537.53 Q1950.43 1532.88 1951.61 1531.53 Q1953.86 1529.01 1954.74 1527.27 Q1955.64 1525.51 1955.64 1523.82 Q1955.64 1521.07 1953.69 1519.33 Q1951.77 1517.6 1948.67 1517.6 Q1946.47 1517.6 1944.02 1518.36 Q1941.59 1519.13 1938.81 1520.68 L1938.81 1515.95 Q1941.63 1514.82 1944.09 1514.24 Q1946.54 1513.66 1948.58 1513.66 Q1953.95 1513.66 1957.14 1516.35 Q1960.34 1519.03 1960.34 1523.52 Q1960.34 1525.65 1959.53 1527.57 Q1958.74 1529.47 1956.63 1532.07 Q1956.05 1532.74 1952.95 1535.95 Q1949.85 1539.15 1944.2 1544.91 Z" fill="#000000" fill-rule="nonzero" fill-opacity="1" /><path clip-path="url(#clip510)" d="M1970.38 1514.29 L1988.74 1514.29 L1988.74 1518.22 L1974.67 1518.22 L1974.67 1526.7 Q1975.68 1526.35 1976.7 1526.19 Q1977.72 1526 1978.74 1526 Q1984.53 1526 1987.91 1529.17 Q1991.29 1532.34 1991.29 1537.76 Q1991.29 1543.34 1987.81 1546.44 Q1984.34 1549.52 1978.02 1549.52 Q1975.85 1549.52 1973.58 1549.15 Q1971.33 1548.78 1968.93 1548.04 L1968.93 1543.34 Q1971.01 1544.47 1973.23 1545.03 Q1975.45 1545.58 1977.93 1545.58 Q1981.93 1545.58 1984.27 1543.48 Q1986.61 1541.37 1986.61 1537.76 Q1986.61 1534.15 1984.27 1532.04 Q1981.93 1529.94 1977.93 1529.94 Q1976.05 1529.94 1974.18 1530.35 Q1972.33 1530.77 1970.38 1531.65 L1970.38 1514.29 Z" fill="#000000" fill-rule="nonzero" fill-opacity="1" /><polyline clip-path="url(#clip512)" style="stroke:#000000; stroke-linecap:round; stroke-linejoin:round; stroke-width:2; stroke-opacity:0.1; fill:none" points="156.598,1459.7 2352.76,1459.7 "/>
<polyline clip-path="url(#clip512)" style="stroke:#000000; stroke-linecap:round; stroke-linejoin:round; stroke-width:2; stroke-opacity:0.1; fill:none" points="156.598,1056.69 2352.76,1056.69 "/>
<polyline clip-path="url(#clip512)" style="stroke:#000000; stroke-linecap:round; stroke-linejoin:round; stroke-width:2; stroke-opacity:0.1; fill:none" points="156.598,653.679 2352.76,653.679 "/>
<polyline clip-path="url(#clip512)" style="stroke:#000000; stroke-linecap:round; stroke-linejoin:round; stroke-width:2; stroke-opacity:0.1; fill:none" points="156.598,250.669 2352.76,250.669 "/>
<polyline clip-path="url(#clip510)" style="stroke:#000000; stroke-linecap:round; stroke-linejoin:round; stroke-width:4; stroke-opacity:1; fill:none" points="156.598,1486.45 156.598,47.2441 "/>
<polyline clip-path="url(#clip510)" style="stroke:#000000; stroke-linecap:round; stroke-linejoin:round; stroke-width:4; stroke-opacity:1; fill:none" points="156.598,1459.7 175.496,1459.7 "/>
<polyline clip-path="url(#clip510)" style="stroke:#000000; stroke-linecap:round; stroke-linejoin:round; stroke-width:4; stroke-opacity:1; fill:none" points="156.598,1056.69 175.496,1056.69 "/>
<polyline clip-path="url(#clip510)" style="stroke:#000000; stroke-linecap:round; stroke-linejoin:round; stroke-width:4; stroke-opacity:1; fill:none" points="156.598,653.679 175.496,653.679 "/>
<polyline clip-path="url(#clip510)" style="stroke:#000000; stroke-linecap:round; stroke-linejoin:round; stroke-width:4; stroke-opacity:1; fill:none" points="156.598,250.669 175.496,250.669 "/>
<path clip-path="url(#clip510)" d="M63.4226 1445.5 Q59.8115 1445.5 57.9828 1449.06 Q56.1773 1452.61 56.1773 1459.74 Q56.1773 1466.84 57.9828 1470.41 Q59.8115 1473.95 63.4226 1473.95 Q67.0569 1473.95 68.8624 1470.41 Q70.6911 1466.84 70.6911 1459.74 Q70.6911 1452.61 68.8624 1449.06 Q67.0569 1445.5 63.4226 1445.5 M63.4226 1441.8 Q69.2328 1441.8 72.2883 1446.4 Q75.367 1450.99 75.367 1459.74 Q75.367 1468.46 72.2883 1473.07 Q69.2328 1477.65 63.4226 1477.65 Q57.6125 1477.65 54.5338 1473.07 Q51.4782 1468.46 51.4782 1459.74 Q51.4782 1450.99 54.5338 1446.4 Q57.6125 1441.8 63.4226 1441.8 Z" fill="#000000" fill-rule="nonzero" fill-opacity="1" /><path clip-path="url(#clip510)" d="M83.5845 1471.1 L88.4688 1471.1 L88.4688 1476.98 L83.5845 1476.98 L83.5845 1471.1 Z" fill="#000000" fill-rule="nonzero" fill-opacity="1" /><path clip-path="url(#clip510)" d="M108.654 1445.5 Q105.043 1445.5 103.214 1449.06 Q101.409 1452.61 101.409 1459.74 Q101.409 1466.84 103.214 1470.41 Q105.043 1473.95 108.654 1473.95 Q112.288 1473.95 114.094 1470.41 Q115.922 1466.84 115.922 1459.74 Q115.922 1452.61 114.094 1449.06 Q112.288 1445.5 108.654 1445.5 M108.654 1441.8 Q114.464 1441.8 117.52 1446.4 Q120.598 1450.99 120.598 1459.74 Q120.598 1468.46 117.52 1473.07 Q114.464 1477.65 108.654 1477.65 Q102.844 1477.65 99.765 1473.07 Q96.7095 1468.46 96.7095 1459.74 Q96.7095 1450.99 99.765 1446.4 Q102.844 1441.8 108.654 1441.8 Z" fill="#000000" fill-rule="nonzero" fill-opacity="1" /><path clip-path="url(#clip510)" d="M65.0198 1042.49 Q61.4087 1042.49 59.58 1046.05 Q57.7745 1049.6 57.7745 1056.72 Q57.7745 1063.83 59.58 1067.4 Q61.4087 1070.94 65.0198 1070.94 Q68.6541 1070.94 70.4596 1067.4 Q72.2883 1063.83 72.2883 1056.72 Q72.2883 1049.6 70.4596 1046.05 Q68.6541 1042.49 65.0198 1042.49 M65.0198 1038.79 Q70.83 1038.79 73.8855 1043.39 Q76.9642 1047.97 76.9642 1056.72 Q76.9642 1065.45 73.8855 1070.06 Q70.83 1074.64 65.0198 1074.64 Q59.2097 1074.64 56.131 1070.06 Q53.0754 1065.45 53.0754 1056.72 Q53.0754 1047.97 56.131 1043.39 Q59.2097 1038.79 65.0198 1038.79 Z" fill="#000000" fill-rule="nonzero" fill-opacity="1" /><path clip-path="url(#clip510)" d="M85.1818 1068.09 L90.066 1068.09 L90.066 1073.97 L85.1818 1073.97 L85.1818 1068.09 Z" fill="#000000" fill-rule="nonzero" fill-opacity="1" /><path clip-path="url(#clip510)" d="M104.279 1070.04 L120.598 1070.04 L120.598 1073.97 L98.6539 1073.97 L98.6539 1070.04 Q101.316 1067.28 105.899 1062.65 Q110.506 1058 111.686 1056.66 Q113.932 1054.13 114.811 1052.4 Q115.714 1050.64 115.714 1048.95 Q115.714 1046.19 113.77 1044.46 Q111.848 1042.72 108.746 1042.72 Q106.547 1042.72 104.094 1043.48 Q101.663 1044.25 98.8854 1045.8 L98.8854 1041.08 Q101.709 1039.94 104.163 1039.36 Q106.617 1038.79 108.654 1038.79 Q114.024 1038.79 117.219 1041.47 Q120.413 1044.16 120.413 1048.65 Q120.413 1050.78 119.603 1052.7 Q118.816 1054.6 116.709 1057.19 Q116.131 1057.86 113.029 1061.08 Q109.927 1064.27 104.279 1070.04 Z" fill="#000000" fill-rule="nonzero" fill-opacity="1" /><path clip-path="url(#clip510)" d="M62.9365 639.478 Q59.3254 639.478 57.4967 643.043 Q55.6912 646.585 55.6912 653.714 Q55.6912 660.821 57.4967 664.385 Q59.3254 667.927 62.9365 667.927 Q66.5707 667.927 68.3763 664.385 Q70.205 660.821 70.205 653.714 Q70.205 646.585 68.3763 643.043 Q66.5707 639.478 62.9365 639.478 M62.9365 635.774 Q68.7467 635.774 71.8022 640.381 Q74.8809 644.964 74.8809 653.714 Q74.8809 662.441 71.8022 667.047 Q68.7467 671.631 62.9365 671.631 Q57.1264 671.631 54.0477 667.047 Q50.9921 662.441 50.9921 653.714 Q50.9921 644.964 54.0477 640.381 Q57.1264 635.774 62.9365 635.774 Z" fill="#000000" fill-rule="nonzero" fill-opacity="1" /><path clip-path="url(#clip510)" d="M83.0984 665.08 L87.9827 665.08 L87.9827 670.959 L83.0984 670.959 L83.0984 665.08 Z" fill="#000000" fill-rule="nonzero" fill-opacity="1" /><path clip-path="url(#clip510)" d="M111.015 640.473 L99.2095 658.922 L111.015 658.922 L111.015 640.473 M109.788 636.399 L115.668 636.399 L115.668 658.922 L120.598 658.922 L120.598 662.811 L115.668 662.811 L115.668 670.959 L111.015 670.959 L111.015 662.811 L95.4132 662.811 L95.4132 658.297 L109.788 636.399 Z" fill="#000000" fill-rule="nonzero" fill-opacity="1" /><path clip-path="url(#clip510)" d="M63.2606 236.467 Q59.6495 236.467 57.8208 240.032 Q56.0152 243.574 56.0152 250.703 Q56.0152 257.81 57.8208 261.375 Q59.6495 264.916 63.2606 264.916 Q66.8948 264.916 68.7004 261.375 Q70.5291 257.81 70.5291 250.703 Q70.5291 243.574 68.7004 240.032 Q66.8948 236.467 63.2606 236.467 M63.2606 232.764 Q69.0707 232.764 72.1263 237.37 Q75.205 241.953 75.205 250.703 Q75.205 259.43 72.1263 264.037 Q69.0707 268.62 63.2606 268.62 Q57.4504 268.62 54.3717 264.037 Q51.3162 259.43 51.3162 250.703 Q51.3162 241.953 54.3717 237.37 Q57.4504 232.764 63.2606 232.764 Z" fill="#000000" fill-rule="nonzero" fill-opacity="1" /><path clip-path="url(#clip510)" d="M83.4225 262.069 L88.3067 262.069 L88.3067 267.949 L83.4225 267.949 L83.4225 262.069 Z" fill="#000000" fill-rule="nonzero" fill-opacity="1" /><path clip-path="url(#clip510)" d="M109.071 248.805 Q105.922 248.805 104.071 250.958 Q102.242 253.111 102.242 256.861 Q102.242 260.588 104.071 262.763 Q105.922 264.916 109.071 264.916 Q112.219 264.916 114.047 262.763 Q115.899 260.588 115.899 256.861 Q115.899 253.111 114.047 250.958 Q112.219 248.805 109.071 248.805 M118.353 234.152 L118.353 238.412 Q116.594 237.578 114.788 237.139 Q113.006 236.699 111.246 236.699 Q106.617 236.699 104.163 239.824 Q101.733 242.949 101.385 249.268 Q102.751 247.254 104.811 246.189 Q106.871 245.102 109.348 245.102 Q114.557 245.102 117.566 248.273 Q120.598 251.421 120.598 256.861 Q120.598 262.185 117.45 265.402 Q114.302 268.62 109.071 268.62 Q103.075 268.62 99.9039 264.037 Q96.7326 259.43 96.7326 250.703 Q96.7326 242.509 100.621 237.648 Q104.51 232.764 111.061 232.764 Q112.82 232.764 114.603 233.111 Q116.408 233.458 118.353 234.152 Z" fill="#000000" fill-rule="nonzero" fill-opacity="1" /><circle clip-path="url(#clip512)" cx="1531.87" cy="1302.09" r="14.4" fill="#808080" fill-rule="evenodd" fill-opacity="1" stroke="#000000" stroke-opacity="1" stroke-width="3.2"/>
<circle clip-path="url(#clip512)" cx="1438.16" cy="1445.72" r="14.4" fill="#808080" fill-rule="evenodd" fill-opacity="1" stroke="#000000" stroke-opacity="1" stroke-width="3.2"/>
<circle clip-path="url(#clip512)" cx="2290.6" cy="1318.85" r="14.4" fill="#808080" fill-rule="evenodd" fill-opacity="1" stroke="#000000" stroke-opacity="1" stroke-width="3.2"/>
<circle clip-path="url(#clip512)" cx="218.754" cy="87.9763" r="14.4" fill="#808080" fill-rule="evenodd" fill-opacity="1" stroke="#000000" stroke-opacity="1" stroke-width="3.2"/>
<path clip-path="url(#clip510)" d="M1536.16 1309.52 Q1527.13 1309.52 1523.64 1311.59 Q1520.16 1313.66 1520.16 1318.64 Q1520.16 1322.61 1522.75 1324.96 Q1525.39 1327.27 1529.88 1327.27 Q1536.08 1327.27 1539.81 1322.89 Q1543.58 1318.48 1543.58 1311.19 L1543.58 1309.52 L1536.16 1309.52 M1551.03 1306.45 L1551.03 1332.33 L1543.58 1332.33 L1543.58 1325.44 Q1541.02 1329.58 1537.22 1331.56 Q1533.41 1333.51 1527.9 1333.51 Q1520.93 1333.51 1516.8 1329.62 Q1512.71 1325.69 1512.71 1319.13 Q1512.71 1311.47 1517.81 1307.58 Q1522.96 1303.69 1533.12 1303.69 L1543.58 1303.69 L1543.58 1302.96 Q1543.58 1297.82 1540.17 1295.02 Q1536.81 1292.19 1530.69 1292.19 Q1526.8 1292.19 1523.12 1293.12 Q1519.43 1294.05 1516.03 1295.91 L1516.03 1289.03 Q1520.12 1287.45 1523.97 1286.68 Q1527.82 1285.87 1531.46 1285.87 Q1541.31 1285.87 1546.17 1290.97 Q1551.03 1296.08 1551.03 1306.45 Z" fill="#000000" fill-rule="nonzero" fill-opacity="1" /><path clip-path="url(#clip510)" d="M1450.72 1453.31 Q1450.72 1445.09 1447.32 1440.43 Q1443.96 1435.73 1438.04 1435.73 Q1432.13 1435.73 1428.73 1440.43 Q1425.36 1445.09 1425.36 1453.31 Q1425.36 1461.53 1428.73 1466.23 Q1432.13 1470.89 1438.04 1470.89 Q1443.96 1470.89 1447.32 1466.23 Q1450.72 1461.53 1450.72 1453.31 M1425.36 1437.47 Q1427.71 1433.42 1431.28 1431.48 Q1434.88 1429.49 1439.87 1429.49 Q1448.13 1429.49 1453.27 1436.05 Q1458.46 1442.62 1458.46 1453.31 Q1458.46 1464.01 1453.27 1470.57 Q1448.13 1477.13 1439.87 1477.13 Q1434.88 1477.13 1431.28 1475.19 Q1427.71 1473.2 1425.36 1469.15 L1425.36 1475.96 L1417.87 1475.96 L1417.87 1412.92 L1425.36 1412.92 L1425.36 1437.47 Z" fill="#000000" fill-rule="nonzero" fill-opacity="1" /><path clip-path="url(#clip510)" d="M2308.55 1305.46 L2308.55 1312.43 Q2305.39 1310.68 2302.19 1309.83 Q2299.03 1308.94 2295.79 1308.94 Q2288.53 1308.94 2284.52 1313.56 Q2280.51 1318.14 2280.51 1326.44 Q2280.51 1334.75 2284.52 1339.36 Q2288.53 1343.94 2295.79 1343.94 Q2299.03 1343.94 2302.19 1343.09 Q2305.39 1342.2 2308.55 1340.46 L2308.55 1347.34 Q2305.43 1348.8 2302.06 1349.53 Q2298.74 1350.26 2294.98 1350.26 Q2284.73 1350.26 2278.69 1343.82 Q2272.65 1337.38 2272.65 1326.44 Q2272.65 1315.34 2278.73 1308.98 Q2284.85 1302.62 2295.46 1302.62 Q2298.9 1302.62 2302.19 1303.35 Q2305.47 1304.04 2308.55 1305.46 Z" fill="#000000" fill-rule="nonzero" fill-opacity="1" /><path clip-path="url(#clip510)" d="M231.575 79.7327 L231.575 55.1842 L239.028 55.1842 L239.028 118.216 L231.575 118.216 L231.575 111.411 Q229.225 115.462 225.62 117.447 Q222.055 119.391 217.032 119.391 Q208.809 119.391 203.624 112.829 Q198.479 106.266 198.479 95.5717 Q198.479 84.8773 203.624 78.3149 Q208.809 71.7524 217.032 71.7524 Q222.055 71.7524 225.62 73.7373 Q229.225 75.6818 231.575 79.7327 M206.176 95.5717 Q206.176 103.795 209.538 108.494 Q212.941 113.153 218.855 113.153 Q224.769 113.153 228.172 108.494 Q231.575 103.795 231.575 95.5717 Q231.575 87.3484 228.172 82.6898 Q224.769 77.9908 218.855 77.9908 Q212.941 77.9908 209.538 82.6898 Q206.176 87.3484 206.176 95.5717 Z" fill="#000000" fill-rule="nonzero" fill-opacity="1" /><path clip-path="url(#clip510)" d="M2007.5 198.898 L2279.55 198.898 L2279.55 95.2176 L2007.5 95.2176  Z" fill="#ffffff" fill-rule="evenodd" fill-opacity="1"/>
<polyline clip-path="url(#clip510)" style="stroke:#000000; stroke-linecap:round; stroke-linejoin:round; stroke-width:4; stroke-opacity:1; fill:none" points="2007.5,198.898 2279.55,198.898 2279.55,95.2176 2007.5,95.2176 2007.5,198.898 "/>
<circle clip-path="url(#clip510)" cx="2105.11" cy="147.058" r="20.48" fill="#808080" fill-rule="evenodd" fill-opacity="1" stroke="#000000" stroke-opacity="1" stroke-width="4.55111"/>
<path clip-path="url(#clip510)" d="M2216.56 166.745 Q2214.76 171.375 2213.04 172.787 Q2211.33 174.199 2208.46 174.199 L2205.06 174.199 L2205.06 170.634 L2207.56 170.634 Q2209.32 170.634 2210.29 169.8 Q2211.26 168.967 2212.44 165.865 L2213.2 163.921 L2202.72 138.412 L2207.23 138.412 L2215.33 158.689 L2223.44 138.412 L2227.95 138.412 L2216.56 166.745 Z" fill="#000000" fill-rule="nonzero" fill-opacity="1" /><path clip-path="url(#clip510)" d="M2235.24 160.402 L2242.88 160.402 L2242.88 134.037 L2234.57 135.703 L2234.57 131.444 L2242.83 129.778 L2247.51 129.778 L2247.51 160.402 L2255.15 160.402 L2255.15 164.338 L2235.24 164.338 L2235.24 160.402 Z" fill="#000000" fill-rule="nonzero" fill-opacity="1" /></svg>
