<?xml version="1.0" encoding="utf-8"?>
<svg xmlns="http://www.w3.org/2000/svg" xmlns:xlink="http://www.w3.org/1999/xlink" width="600" height="400" viewBox="0 0 2400 1600">
<defs>
  <clipPath id="clip730">
    <rect x="0" y="0" width="2400" height="1600"/>
  </clipPath>
</defs>
<path clip-path="url(#clip730)" d="M0 1600 L2400 1600 L2400 0 L0 0  Z" fill="#ffffff" fill-rule="evenodd" fill-opacity="1"/>
<defs>
  <clipPath id="clip731">
    <rect x="112" y="47" width="2242" height="1440"/>
  </clipPath>
</defs>
<path clip-path="url(#clip730)" d="M112.177 1486.45 L2352.76 1486.45 L2352.76 47.2441 L112.177 47.2441  Z" fill="#ffffff" fill-rule="evenodd" fill-opacity="1"/>
<polyline clip-path="url(#clip731)" style="stroke:#000000; stroke-linecap:round; stroke-linejoin:round; stroke-width:2; stroke-opacity:0.1; fill:none" points="148.151,1486.45 148.151,47.2441 "/>
<polyline clip-path="url(#clip731)" style="stroke:#000000; stroke-linecap:round; stroke-linejoin:round; stroke-width:2; stroke-opacity:0.1; fill:none" points="658.24,1486.45 658.24,47.2441 "/>
<polyline clip-path="url(#clip731)" style="stroke:#000000; stroke-linecap:round; stroke-linejoin:round; stroke-width:2; stroke-opacity:0.1; fill:none" points="1168.33,1486.45 1168.33,47.2441 "/>
<polyline clip-path="url(#clip731)" style="stroke:#000000; stroke-linecap:round; stroke-linejoin:round; stroke-width:2; stroke-opacity:0.1; fill:none" points="1678.42,1486.45 1678.42,47.2441 "/>
<polyline clip-path="url(#clip731)" style="stroke:#000000; stroke-linecap:round; stroke-linejoin:round; stroke-width:2; stroke-opacity:0.1; fill:none" points="2188.51,1486.45 2188.51,47.2441 "/>
<polyline clip-path="url(#clip731)" style="stroke:#000000; stroke-linecap:round; stroke-linejoin:round; stroke-width:2; stroke-opacity:0.1; fill:none" points="112.177,1477.43 2352.76,1477.43 "/>
<polyline clip-path="url(#clip731)" style="stroke:#000000; stroke-linecap:round; stroke-linejoin:round; stroke-width:2; stroke-opacity:0.1; fill:none" points="112.177,1173.22 2352.76,1173.22 "/>
<polyline clip-path="url(#clip731)" style="stroke:#000000; stroke-linecap:round; stroke-linejoin:round; stroke-width:2; stroke-opacity:0.1; fill:none" points="112.177,869.002 2352.76,869.002 "/>
<polyline clip-path="url(#clip731)" style="stroke:#000000; stroke-linecap:round; stroke-linejoin:round; stroke-width:2; stroke-opacity:0.1; fill:none" points="112.177,564.789 2352.76,564.789 "/>
<polyline clip-path="url(#clip731)" style="stroke:#000000; stroke-linecap:round; stroke-linejoin:round; stroke-width:2; stroke-opacity:0.1; fill:none" points="112.177,260.577 2352.76,260.577 "/>
<polyline clip-path="url(#clip730)" style="stroke:#000000; stroke-linecap:round; stroke-linejoin:round; stroke-width:4; stroke-opacity:1; fill:none" points="112.177,1486.45 2352.76,1486.45 "/>
<polyline clip-path="url(#clip730)" style="stroke:#000000; stroke-linecap:round; stroke-linejoin:round; stroke-width:4; stroke-opacity:1; fill:none" points="148.151,1486.45 148.151,1467.55 "/>
<polyline clip-path="url(#clip730)" style="stroke:#000000; stroke-linecap:round; stroke-linejoin:round; stroke-width:4; stroke-opacity:1; fill:none" points="658.24,1486.45 658.24,1467.55 "/>
<polyline clip-path="url(#clip730)" style="stroke:#000000; stroke-linecap:round; stroke-linejoin:round; stroke-width:4; stroke-opacity:1; fill:none" points="1168.33,1486.45 1168.33,1467.55 "/>
<polyline clip-path="url(#clip730)" style="stroke:#000000; stroke-linecap:round; stroke-linejoin:round; stroke-width:4; stroke-opacity:1; fill:none" points="1678.42,1486.45 1678.42,1467.55 "/>
<polyline clip-path="url(#clip730)" style="stroke:#000000; stroke-linecap:round; stroke-linejoin:round; stroke-width:4; stroke-opacity:1; fill:none" points="2188.51,1486.45 2188.51,1467.55 "/>
<path clip-path="url(#clip730)" d="M95.177 1532.02 L124.853 1532.02 L124.853 1535.95 L95.177 1535.95 L95.177 1532.02 Z" fill="#000000" fill-rule="nonzero" fill-opacity="1" /><path clip-path="url(#clip730)" d="M135.755 1544.91 L143.394 1544.91 L143.394 1518.55 L135.084 1520.21 L135.084 1515.95 L143.348 1514.29 L148.024 1514.29 L148.024 1544.91 L155.663 1544.91 L155.663 1548.85 L135.755 1548.85 L135.755 1544.91 Z" fill="#000000" fill-rule="nonzero" fill-opacity="1" /><path clip-path="url(#clip730)" d="M165.107 1542.97 L169.991 1542.97 L169.991 1548.85 L165.107 1548.85 L165.107 1542.97 Z" fill="#000000" fill-rule="nonzero" fill-opacity="1" /><path clip-path="url(#clip730)" d="M180.223 1514.29 L198.579 1514.29 L198.579 1518.22 L184.505 1518.22 L184.505 1526.7 Q185.524 1526.35 186.542 1526.19 Q187.561 1526 188.579 1526 Q194.366 1526 197.746 1529.17 Q201.126 1532.34 201.126 1537.76 Q201.126 1543.34 197.653 1546.44 Q194.181 1549.52 187.862 1549.52 Q185.686 1549.52 183.417 1549.15 Q181.172 1548.78 178.765 1548.04 L178.765 1543.34 Q180.848 1544.47 183.07 1545.03 Q185.292 1545.58 187.769 1545.58 Q191.774 1545.58 194.112 1543.48 Q196.45 1541.37 196.45 1537.76 Q196.45 1534.15 194.112 1532.04 Q191.774 1529.94 187.769 1529.94 Q185.894 1529.94 184.019 1530.35 Q182.167 1530.77 180.223 1531.65 L180.223 1514.29 Z" fill="#000000" fill-rule="nonzero" fill-opacity="1" /><path clip-path="url(#clip730)" d="M604.768 1532.02 L634.444 1532.02 L634.444 1535.95 L604.768 1535.95 L604.768 1532.02 Z" fill="#000000" fill-rule="nonzero" fill-opacity="1" /><path clip-path="url(#clip730)" d="M645.347 1544.91 L652.986 1544.91 L652.986 1518.55 L644.676 1520.21 L644.676 1515.95 L652.939 1514.29 L657.615 1514.29 L657.615 1544.91 L665.254 1544.91 L665.254 1548.85 L645.347 1548.85 L645.347 1544.91 Z" fill="#000000" fill-rule="nonzero" fill-opacity="1" /><path clip-path="url(#clip730)" d="M674.699 1542.97 L679.583 1542.97 L679.583 1548.85 L674.699 1548.85 L674.699 1542.97 Z" fill="#000000" fill-rule="nonzero" fill-opacity="1" /><path clip-path="url(#clip730)" d="M699.768 1517.37 Q696.157 1517.37 694.328 1520.93 Q692.523 1524.47 692.523 1531.6 Q692.523 1538.71 694.328 1542.27 Q696.157 1545.82 699.768 1545.82 Q703.402 1545.82 705.208 1542.27 Q707.036 1538.71 707.036 1531.6 Q707.036 1524.47 705.208 1520.93 Q703.402 1517.37 699.768 1517.37 M699.768 1513.66 Q705.578 1513.66 708.634 1518.27 Q711.712 1522.85 711.712 1531.6 Q711.712 1540.33 708.634 1544.94 Q705.578 1549.52 699.768 1549.52 Q693.958 1549.52 690.879 1544.94 Q687.824 1540.33 687.824 1531.6 Q687.824 1522.85 690.879 1518.27 Q693.958 1513.66 699.768 1513.66 Z" fill="#000000" fill-rule="nonzero" fill-opacity="1" /><path clip-path="url(#clip730)" d="M1115.36 1532.02 L1145.03 1532.02 L1145.03 1535.95 L1115.36 1535.95 L1115.36 1532.02 Z" fill="#000000" fill-rule="nonzero" fill-opacity="1" /><path clip-path="url(#clip730)" d="M1165.12 1517.37 Q1161.51 1517.37 1159.68 1520.93 Q1157.88 1524.47 1157.88 1531.6 Q1157.88 1538.71 1159.68 1542.27 Q1161.51 1545.82 1165.12 1545.82 Q1168.76 1545.82 1170.56 1542.27 Q1172.39 1538.71 1172.39 1531.6 Q1172.39 1524.47 1170.56 1520.93 Q1168.76 1517.37 1165.12 1517.37 M1165.12 1513.66 Q1170.93 1513.66 1173.99 1518.27 Q1177.07 1522.85 1177.07 1531.6 Q1177.07 1540.33 1173.99 1544.94 Q1170.93 1549.52 1165.12 1549.52 Q1159.31 1549.52 1156.23 1544.94 Q1153.18 1540.33 1153.18 1531.6 Q1153.18 1522.85 1156.23 1518.27 Q1159.31 1513.66 1165.12 1513.66 Z" fill="#000000" fill-rule="nonzero" fill-opacity="1" /><path clip-path="url(#clip730)" d="M1185.29 1542.97 L1190.17 1542.97 L1190.17 1548.85 L1185.29 1548.85 L1185.29 1542.97 Z" fill="#000000" fill-rule="nonzero" fill-opacity="1" /><path clip-path="url(#clip730)" d="M1200.4 1514.29 L1218.76 1514.29 L1218.76 1518.22 L1204.68 1518.22 L1204.68 1526.7 Q1205.7 1526.35 1206.72 1526.19 Q1207.74 1526 1208.76 1526 Q1214.54 1526 1217.92 1529.17 Q1221.3 1532.34 1221.3 1537.76 Q1221.3 1543.34 1217.83 1546.44 Q1214.36 1549.52 1208.04 1549.52 Q1205.86 1549.52 1203.6 1549.15 Q1201.35 1548.78 1198.94 1548.04 L1198.94 1543.34 Q1201.03 1544.47 1203.25 1545.03 Q1205.47 1545.58 1207.95 1545.58 Q1211.95 1545.58 1214.29 1543.48 Q1216.63 1541.37 1216.63 1537.76 Q1216.63 1534.15 1214.29 1532.04 Q1211.95 1529.94 1207.95 1529.94 Q1206.07 1529.94 1204.2 1530.35 Q1202.35 1530.77 1200.4 1531.65 L1200.4 1514.29 Z" fill="#000000" fill-rule="nonzero" fill-opacity="1" /><path clip-path="url(#clip730)" d="M1655.8 1517.37 Q1652.19 1517.37 1650.36 1520.93 Q1648.56 1524.47 1648.56 1531.6 Q1648.56 1538.71 1650.36 1542.27 Q1652.19 1545.82 1655.8 1545.82 Q1659.44 1545.82 1661.24 1542.27 Q1663.07 1538.71 1663.07 1531.6 Q1663.07 1524.47 1661.24 1520.93 Q1659.44 1517.37 1655.8 1517.37 M1655.8 1513.66 Q1661.61 1513.66 1664.67 1518.27 Q1667.75 1522.85 1667.75 1531.6 Q1667.75 1540.33 1664.67 1544.94 Q1661.61 1549.52 1655.8 1549.52 Q1649.99 1549.52 1646.91 1544.94 Q1643.86 1540.33 1643.86 1531.6 Q1643.86 1522.85 1646.91 1518.27 Q1649.99 1513.66 1655.8 1513.66 Z" fill="#000000" fill-rule="nonzero" fill-opacity="1" /><path clip-path="url(#clip730)" d="M1675.96 1542.97 L1680.85 1542.97 L1680.85 1548.85 L1675.96 1548.85 L1675.96 1542.97 Z" fill="#000000" fill-rule="nonzero" fill-opacity="1" /><path clip-path="url(#clip730)" d="M1701.03 1517.37 Q1697.42 1517.37 1695.59 1520.93 Q1693.79 1524.47 1693.79 1531.6 Q1693.79 1538.71 1695.59 1542.27 Q1697.42 1545.82 1701.03 1545.82 Q1704.67 1545.82 1706.47 1542.27 Q1708.3 1538.71 1708.3 1531.6 Q1708.3 1524.47 1706.47 1520.93 Q1704.67 1517.37 1701.03 1517.37 M1701.03 1513.66 Q1706.84 1513.66 1709.9 1518.27 Q1712.98 1522.85 1712.98 1531.6 Q1712.98 1540.33 1709.9 1544.94 Q1706.84 1549.52 1701.03 1549.52 Q1695.22 1549.52 1692.15 1544.94 Q1689.09 1540.33 1689.09 1531.6 Q1689.09 1522.85 1692.15 1518.27 Q1695.22 1513.66 1701.03 1513.66 Z" fill="#000000" fill-rule="nonzero" fill-opacity="1" /><path clip-path="url(#clip730)" d="M2166.39 1517.37 Q2162.78 1517.37 2160.95 1520.93 Q2159.14 1524.47 2159.14 1531.6 Q2159.14 1538.71 2160.95 1542.27 Q2162.78 1545.82 2166.39 1545.82 Q2170.02 1545.82 2171.83 1542.27 Q2173.66 1538.71 2173.66 1531.6 Q2173.66 1524.47 2171.83 1520.93 Q2170.02 1517.37 2166.39 1517.37 M2166.39 1513.66 Q2172.2 1513.66 2175.26 1518.27 Q2178.33 1522.85 2178.33 1531.6 Q2178.33 1540.33 2175.26 1544.94 Q2172.2 1549.52 2166.39 1549.52 Q2160.58 1549.52 2157.5 1544.94 Q2154.45 1540.33 2154.45 1531.6 Q2154.45 1522.85 2157.5 1518.27 Q2160.58 1513.66 2166.39 1513.66 Z" fill="#000000" fill-rule="nonzero" fill-opacity="1" /><path clip-path="url(#clip730)" d="M2186.55 1542.97 L2191.44 1542.97 L2191.44 1548.85 L2186.55 1548.85 L2186.55 1542.97 Z" fill="#000000" fill-rule="nonzero" fill-opacity="1" /><path clip-path="url(#clip730)" d="M2201.67 1514.29 L2220.02 1514.29 L2220.02 1518.22 L2205.95 1518.22 L2205.95 1526.7 Q2206.97 1526.35 2207.99 1526.19 Q2209.01 1526 2210.02 1526 Q2215.81 1526 2219.19 1529.17 Q2222.57 1532.34 2222.57 1537.76 Q2222.57 1543.34 2219.1 1546.44 Q2215.63 1549.52 2209.31 1549.52 Q2207.13 1549.52 2204.86 1549.15 Q2202.62 1548.78 2200.21 1548.04 L2200.21 1543.34 Q2202.29 1544.47 2204.51 1545.03 Q2206.74 1545.58 2209.21 1545.58 Q2213.22 1545.58 2215.56 1543.48 Q2217.89 1541.37 2217.89 1537.76 Q2217.89 1534.15 2215.56 1532.04 Q2213.22 1529.94 2209.21 1529.94 Q2207.34 1529.94 2205.46 1530.35 Q2203.61 1530.77 2201.67 1531.65 L2201.67 1514.29 Z" fill="#000000" fill-rule="nonzero" fill-opacity="1" /><polyline clip-path="url(#clip730)" style="stroke:#000000; stroke-linecap:round; stroke-linejoin:round; stroke-width:4; stroke-opacity:1; fill:none" points="112.177,1486.45 112.177,47.2441 "/>
<polyline clip-path="url(#clip730)" style="stroke:#000000; stroke-linecap:round; stroke-linejoin:round; stroke-width:4; stroke-opacity:1; fill:none" points="112.177,1477.43 131.075,1477.43 "/>
<polyline clip-path="url(#clip730)" style="stroke:#000000; stroke-linecap:round; stroke-linejoin:round; stroke-width:4; stroke-opacity:1; fill:none" points="112.177,1173.22 131.075,1173.22 "/>
<polyline clip-path="url(#clip730)" style="stroke:#000000; stroke-linecap:round; stroke-linejoin:round; stroke-width:4; stroke-opacity:1; fill:none" points="112.177,869.002 131.075,869.002 "/>
<polyline clip-path="url(#clip730)" style="stroke:#000000; stroke-linecap:round; stroke-linejoin:round; stroke-width:4; stroke-opacity:1; fill:none" points="112.177,564.789 131.075,564.789 "/>
<polyline clip-path="url(#clip730)" style="stroke:#000000; stroke-linecap:round; stroke-linejoin:round; stroke-width:4; stroke-opacity:1; fill:none" points="112.177,260.577 131.075,260.577 "/>
<path clip-path="url(#clip730)" d="M64.2328 1463.23 Q60.6217 1463.23 58.793 1466.79 Q56.9875 1470.33 56.9875 1477.46 Q56.9875 1484.57 58.793 1488.13 Q60.6217 1491.68 64.2328 1491.68 Q67.867 1491.68 69.6726 1488.13 Q71.5013 1484.57 71.5013 1477.46 Q71.5013 1470.33 69.6726 1466.79 Q67.867 1463.23 64.2328 1463.23 M64.2328 1459.52 Q70.0429 1459.52 73.0985 1464.13 Q76.1772 1468.71 76.1772 1477.46 Q76.1772 1486.19 73.0985 1490.8 Q70.0429 1495.38 64.2328 1495.38 Q58.4226 1495.38 55.344 1490.8 Q52.2884 1486.19 52.2884 1477.46 Q52.2884 1468.71 55.344 1464.13 Q58.4226 1459.52 64.2328 1459.52 Z" fill="#000000" fill-rule="nonzero" fill-opacity="1" /><path clip-path="url(#clip730)" d="M59.8578 1186.56 L76.1772 1186.56 L76.1772 1190.5 L54.2328 1190.5 L54.2328 1186.56 Q56.8949 1183.81 61.4782 1179.18 Q66.0846 1174.52 67.2652 1173.18 Q69.5105 1170.66 70.3902 1168.92 Q71.2929 1167.16 71.2929 1165.47 Q71.2929 1162.72 69.3485 1160.98 Q67.4272 1159.25 64.3254 1159.25 Q62.1263 1159.25 59.6726 1160.01 Q57.2421 1160.77 54.4643 1162.32 L54.4643 1157.6 Q57.2884 1156.47 59.7421 1155.89 Q62.1958 1155.31 64.2328 1155.31 Q69.6031 1155.31 72.7976 1158 Q75.992 1160.68 75.992 1165.17 Q75.992 1167.3 75.1818 1169.22 Q74.3948 1171.12 72.2883 1173.71 Q71.7096 1174.38 68.6078 1177.6 Q65.5059 1180.8 59.8578 1186.56 Z" fill="#000000" fill-rule="nonzero" fill-opacity="1" /><path clip-path="url(#clip730)" d="M66.5939 855.796 L54.7884 874.245 L66.5939 874.245 L66.5939 855.796 M65.367 851.722 L71.2466 851.722 L71.2466 874.245 L76.1772 874.245 L76.1772 878.134 L71.2466 878.134 L71.2466 886.282 L66.5939 886.282 L66.5939 878.134 L50.9921 878.134 L50.9921 873.62 L65.367 851.722 Z" fill="#000000" fill-rule="nonzero" fill-opacity="1" /><path clip-path="url(#clip730)" d="M64.6495 562.926 Q61.5013 562.926 59.6495 565.079 Q57.8208 567.232 57.8208 570.982 Q57.8208 574.708 59.6495 576.884 Q61.5013 579.037 64.6495 579.037 Q67.7976 579.037 69.6263 576.884 Q71.4781 574.708 71.4781 570.982 Q71.4781 567.232 69.6263 565.079 Q67.7976 562.926 64.6495 562.926 M73.9318 548.273 L73.9318 552.533 Q72.1726 551.699 70.367 551.259 Q68.5846 550.82 66.8254 550.82 Q62.1958 550.82 59.7421 553.945 Q57.3115 557.07 56.9643 563.389 Q58.33 561.375 60.3902 560.31 Q62.4504 559.222 64.9272 559.222 Q70.1355 559.222 73.1448 562.394 Q76.1772 565.542 76.1772 570.982 Q76.1772 576.306 73.029 579.523 Q69.8809 582.741 64.6495 582.741 Q58.6541 582.741 55.4828 578.157 Q52.3116 573.551 52.3116 564.824 Q52.3116 556.63 56.2004 551.769 Q60.0893 546.884 66.6402 546.884 Q68.3994 546.884 70.1818 547.232 Q71.9874 547.579 73.9318 548.273 Z" fill="#000000" fill-rule="nonzero" fill-opacity="1" /><path clip-path="url(#clip730)" d="M64.3254 261.445 Q60.9921 261.445 59.0708 263.227 Q57.1726 265.009 57.1726 268.134 Q57.1726 271.259 59.0708 273.042 Q60.9921 274.824 64.3254 274.824 Q67.6587 274.824 69.58 273.042 Q71.5013 271.236 71.5013 268.134 Q71.5013 265.009 69.58 263.227 Q67.6819 261.445 64.3254 261.445 M59.6495 259.454 Q56.6402 258.713 54.9504 256.653 Q53.2838 254.593 53.2838 251.63 Q53.2838 247.486 56.2236 245.079 Q59.1865 242.672 64.3254 242.672 Q69.4874 242.672 72.4272 245.079 Q75.367 247.486 75.367 251.63 Q75.367 254.593 73.6772 256.653 Q72.0105 258.713 69.0244 259.454 Q72.404 260.241 74.279 262.533 Q76.1772 264.824 76.1772 268.134 Q76.1772 273.158 73.0985 275.843 Q70.0429 278.528 64.3254 278.528 Q58.6078 278.528 55.5291 275.843 Q52.4736 273.158 52.4736 268.134 Q52.4736 264.824 54.3717 262.533 Q56.2699 260.241 59.6495 259.454 M57.9365 252.07 Q57.9365 254.755 59.6032 256.259 Q61.293 257.764 64.3254 257.764 Q67.3346 257.764 69.0244 256.259 Q70.7374 254.755 70.7374 252.07 Q70.7374 249.384 69.0244 247.88 Q67.3346 246.375 64.3254 246.375 Q61.293 246.375 59.6032 247.88 Q57.9365 249.384 57.9365 252.07 Z" fill="#000000" fill-rule="nonzero" fill-opacity="1" /><circle clip-path="url(#clip731)" cx="2289.34" cy="1409.42" r="14.4" fill="#808080" fill-rule="evenodd" fill-opacity="1" stroke="#000000" stroke-opacity="1" stroke-width="3.2"/>
<circle clip-path="url(#clip731)" cx="175.59" cy="87.9763" r="14.4" fill="#808080" fill-rule="evenodd" fill-opacity="1" stroke="#000000" stroke-opacity="1" stroke-width="3.2"/>
<circle clip-path="url(#clip731)" cx="1727.14" cy="1445.72" r="14.4" fill="#808080" fill-rule="evenodd" fill-opacity="1" stroke="#000000" stroke-opacity="1" stroke-width="3.2"/>
<circle clip-path="url(#clip731)" cx="1577.04" cy="1431.9" r="14.4" fill="#808080" fill-rule="evenodd" fill-opacity="1" stroke="#000000" stroke-opacity="1" stroke-width="3.2"/>
<path clip-path="url(#clip730)" d="M2293.64 1416.86 Q2284.6 1416.86 2281.12 1418.92 Q2277.64 1420.99 2277.64 1425.97 Q2277.64 1429.94 2280.23 1432.29 Q2282.86 1434.6 2287.36 1434.6 Q2293.56 1434.6 2297.28 1430.23 Q2301.05 1425.81 2301.05 1418.52 L2301.05 1416.86 L2293.64 1416.86 M2308.5 1413.78 L2308.5 1439.66 L2301.05 1439.66 L2301.05 1432.78 Q2298.5 1436.91 2294.69 1438.89 Q2290.88 1440.84 2285.37 1440.84 Q2278.41 1440.84 2274.27 1436.95 Q2270.18 1433.02 2270.18 1426.46 Q2270.18 1418.8 2275.29 1414.91 Q2280.43 1411.02 2290.6 1411.02 L2301.05 1411.02 L2301.05 1410.3 Q2301.05 1405.15 2297.65 1402.36 Q2294.29 1399.52 2288.17 1399.52 Q2284.28 1399.52 2280.59 1400.45 Q2276.91 1401.38 2273.5 1403.25 L2273.5 1396.36 Q2277.6 1394.78 2281.44 1394.01 Q2285.29 1393.2 2288.94 1393.2 Q2298.78 1393.2 2303.64 1398.3 Q2308.5 1403.41 2308.5 1413.78 Z" fill="#000000" fill-rule="nonzero" fill-opacity="1" /><path clip-path="url(#clip730)" d="M188.148 95.5717 Q188.148 87.3484 184.745 82.6898 Q181.383 77.9908 175.468 77.9908 Q169.554 77.9908 166.151 82.6898 Q162.789 87.3484 162.789 95.5717 Q162.789 103.795 166.151 108.494 Q169.554 113.153 175.468 113.153 Q181.383 113.153 184.745 108.494 Q188.148 103.795 188.148 95.5717 M162.789 79.7327 Q165.138 75.6818 168.703 73.7373 Q172.309 71.7524 177.291 71.7524 Q185.555 71.7524 190.7 78.3149 Q195.885 84.8773 195.885 95.5717 Q195.885 106.266 190.7 112.829 Q185.555 119.391 177.291 119.391 Q172.309 119.391 168.703 117.447 Q165.138 115.462 162.789 111.411 L162.789 118.216 L155.295 118.216 L155.295 55.1842 L162.789 55.1842 L162.789 79.7327 Z" fill="#000000" fill-rule="nonzero" fill-opacity="1" /><path clip-path="url(#clip730)" d="M1745.09 1432.33 L1745.09 1439.3 Q1741.93 1437.55 1738.73 1436.7 Q1735.57 1435.81 1732.33 1435.81 Q1725.08 1435.81 1721.07 1440.43 Q1717.06 1445.01 1717.06 1453.31 Q1717.06 1461.62 1721.07 1466.23 Q1725.08 1470.81 1732.33 1470.81 Q1735.57 1470.81 1738.73 1469.96 Q1741.93 1469.07 1745.09 1467.33 L1745.09 1474.21 Q1741.97 1475.67 1738.61 1476.4 Q1735.28 1477.13 1731.52 1477.13 Q1721.27 1477.13 1715.23 1470.69 Q1709.2 1464.25 1709.2 1453.31 Q1709.2 1442.21 1715.27 1435.85 Q1721.39 1429.49 1732 1429.49 Q1735.45 1429.49 1738.73 1430.22 Q1742.01 1430.91 1745.09 1432.33 Z" fill="#000000" fill-rule="nonzero" fill-opacity="1" /><path clip-path="url(#clip730)" d="M1589.86 1423.66 L1589.86 1399.11 L1597.31 1399.11 L1597.31 1462.14 L1589.86 1462.14 L1589.86 1455.33 Q1587.51 1459.39 1583.9 1461.37 Q1580.34 1463.31 1575.31 1463.31 Q1567.09 1463.31 1561.91 1456.75 Q1556.76 1450.19 1556.76 1439.5 Q1556.76 1428.8 1561.91 1422.24 Q1567.09 1415.68 1575.31 1415.68 Q1580.34 1415.68 1583.9 1417.66 Q1587.51 1419.61 1589.86 1423.66 M1564.46 1439.5 Q1564.46 1447.72 1567.82 1452.42 Q1571.22 1457.08 1577.14 1457.08 Q1583.05 1457.08 1586.45 1452.42 Q1589.86 1447.72 1589.86 1439.5 Q1589.86 1431.27 1586.45 1426.61 Q1583.05 1421.91 1577.14 1421.91 Q1571.22 1421.91 1567.82 1426.61 Q1564.46 1431.27 1564.46 1439.5 Z" fill="#000000" fill-rule="nonzero" fill-opacity="1" /><path clip-path="url(#clip730)" d="M2001.58 198.898 L2278.07 198.898 L2278.07 95.2176 L2001.58 95.2176  Z" fill="#ffffff" fill-rule="evenodd" fill-opacity="1"/>
<polyline clip-path="url(#clip730)" style="stroke:#000000; stroke-linecap:round; stroke-linejoin:round; stroke-width:4; stroke-opacity:1; fill:none" points="2001.58,198.898 2278.07,198.898 2278.07,95.2176 2001.58,95.2176 2001.58,198.898 "/>
<circle clip-path="url(#clip730)" cx="2101.16" cy="147.058" r="20.48" fill="#808080" fill-rule="evenodd" fill-opacity="1" stroke="#000000" stroke-opacity="1" stroke-width="4.55111"/>
<path clip-path="url(#clip730)" d="M2214.59 166.745 Q2212.78 171.375 2211.07 172.787 Q2209.36 174.199 2206.49 174.199 L2203.08 174.199 L2203.08 170.634 L2205.58 170.634 Q2207.34 170.634 2208.31 169.8 Q2209.29 168.967 2210.47 165.865 L2211.23 163.921 L2200.74 138.412 L2205.26 138.412 L2213.36 158.689 L2221.46 138.412 L2225.98 138.412 L2214.59 166.745 Z" fill="#000000" fill-rule="nonzero" fill-opacity="1" /><path clip-path="url(#clip730)" d="M2233.27 160.402 L2240.91 160.402 L2240.91 134.037 L2232.6 135.703 L2232.6 131.444 L2240.86 129.778 L2245.54 129.778 L2245.54 160.402 L2253.17 160.402 L2253.17 164.338 L2233.27 164.338 L2233.27 160.402 Z" fill="#000000" fill-rule="nonzero" fill-opacity="1" /></svg>
