<?xml version="1.0" encoding="utf-8"?>
<svg xmlns="http://www.w3.org/2000/svg" xmlns:xlink="http://www.w3.org/1999/xlink" width="600" height="400" viewBox="0 0 2400 1600">
<defs>
  <clipPath id="clip700">
    <rect x="0" y="0" width="2400" height="1600"/>
  </clipPath>
</defs>
<path clip-path="url(#clip700)" d="M0 1600 L2400 1600 L2400 0 L0 0  Z" fill="#ffffff" fill-rule="evenodd" fill-opacity="1"/>
<defs>
  <clipPath id="clip701">
    <rect x="156" y="47" width="2197" height="1440"/>
  </clipPath>
</defs>
<path clip-path="url(#clip700)" d="M156.598 1486.45 L2352.76 1486.45 L2352.76 47.2441 L156.598 47.2441  Z" fill="#ffffff" fill-rule="evenodd" fill-opacity="1"/>
<polyline clip-path="url(#clip701)" style="stroke:#000000; stroke-linecap:round; stroke-linejoin:round; stroke-width:2; stroke-opacity:0.1; fill:none" points="382.536,1486.45 382.536,47.2441 "/>
<polyline clip-path="url(#clip701)" style="stroke:#000000; stroke-linecap:round; stroke-linejoin:round; stroke-width:2; stroke-opacity:0.1; fill:none" points="922.653,1486.45 922.653,47.2441 "/>
<polyline clip-path="url(#clip701)" style="stroke:#000000; stroke-linecap:round; stroke-linejoin:round; stroke-width:2; stroke-opacity:0.1; fill:none" points="1462.77,1486.45 1462.77,47.2441 "/>
<polyline clip-path="url(#clip701)" style="stroke:#000000; stroke-linecap:round; stroke-linejoin:round; stroke-width:2; stroke-opacity:0.1; fill:none" points="2002.89,1486.45 2002.89,47.2441 "/>
<polyline clip-path="url(#clip701)" style="stroke:#000000; stroke-linecap:round; stroke-linejoin:round; stroke-width:2; stroke-opacity:0.1; fill:none" points="156.598,1448.29 2352.76,1448.29 "/>
<polyline clip-path="url(#clip701)" style="stroke:#000000; stroke-linecap:round; stroke-linejoin:round; stroke-width:2; stroke-opacity:0.1; fill:none" points="156.598,1216.08 2352.76,1216.08 "/>
<polyline clip-path="url(#clip701)" style="stroke:#000000; stroke-linecap:round; stroke-linejoin:round; stroke-width:2; stroke-opacity:0.1; fill:none" points="156.598,983.866 2352.76,983.866 "/>
<polyline clip-path="url(#clip701)" style="stroke:#000000; stroke-linecap:round; stroke-linejoin:round; stroke-width:2; stroke-opacity:0.1; fill:none" points="156.598,751.654 2352.76,751.654 "/>
<polyline clip-path="url(#clip701)" style="stroke:#000000; stroke-linecap:round; stroke-linejoin:round; stroke-width:2; stroke-opacity:0.1; fill:none" points="156.598,519.443 2352.76,519.443 "/>
<polyline clip-path="url(#clip701)" style="stroke:#000000; stroke-linecap:round; stroke-linejoin:round; stroke-width:2; stroke-opacity:0.1; fill:none" points="156.598,287.231 2352.76,287.231 "/>
<polyline clip-path="url(#clip701)" style="stroke:#000000; stroke-linecap:round; stroke-linejoin:round; stroke-width:2; stroke-opacity:0.1; fill:none" points="156.598,55.0193 2352.76,55.0193 "/>
<polyline clip-path="url(#clip700)" style="stroke:#000000; stroke-linecap:round; stroke-linejoin:round; stroke-width:4; stroke-opacity:1; fill:none" points="156.598,1486.45 2352.76,1486.45 "/>
<polyline clip-path="url(#clip700)" style="stroke:#000000; stroke-linecap:round; stroke-linejoin:round; stroke-width:4; stroke-opacity:1; fill:none" points="382.536,1486.45 382.536,1467.55 "/>
<polyline clip-path="url(#clip700)" style="stroke:#000000; stroke-linecap:round; stroke-linejoin:round; stroke-width:4; stroke-opacity:1; fill:none" points="922.653,1486.45 922.653,1467.55 "/>
<polyline clip-path="url(#clip700)" style="stroke:#000000; stroke-linecap:round; stroke-linejoin:round; stroke-width:4; stroke-opacity:1; fill:none" points="1462.77,1486.45 1462.77,1467.55 "/>
<polyline clip-path="url(#clip700)" style="stroke:#000000; stroke-linecap:round; stroke-linejoin:round; stroke-width:4; stroke-opacity:1; fill:none" points="2002.89,1486.45 2002.89,1467.55 "/>
<path clip-path="url(#clip700)" d="M313.983 1532.02 L343.659 1532.02 L343.659 1535.95 L313.983 1535.95 L313.983 1532.02 Z" fill="#000000" fill-rule="nonzero" fill-opacity="1" /><path clip-path="url(#clip700)" d="M363.752 1517.37 Q360.14 1517.37 358.312 1520.93 Q356.506 1524.47 356.506 1531.6 Q356.506 1538.71 358.312 1542.27 Q360.14 1545.82 363.752 1545.82 Q367.386 1545.82 369.191 1542.27 Q371.02 1538.71 371.02 1531.6 Q371.02 1524.47 369.191 1520.93 Q367.386 1517.37 363.752 1517.37 M363.752 1513.66 Q369.562 1513.66 372.617 1518.27 Q375.696 1522.85 375.696 1531.6 Q375.696 1540.33 372.617 1544.94 Q369.562 1549.52 363.752 1549.52 Q357.941 1549.52 354.863 1544.94 Q351.807 1540.33 351.807 1531.6 Q351.807 1522.85 354.863 1518.27 Q357.941 1513.66 363.752 1513.66 Z" fill="#000000" fill-rule="nonzero" fill-opacity="1" /><path clip-path="url(#clip700)" d="M383.913 1542.97 L388.798 1542.97 L388.798 1548.85 L383.913 1548.85 L383.913 1542.97 Z" fill="#000000" fill-rule="nonzero" fill-opacity="1" /><path clip-path="url(#clip700)" d="M399.029 1514.29 L417.386 1514.29 L417.386 1518.22 L403.312 1518.22 L403.312 1526.7 Q404.33 1526.35 405.349 1526.19 Q406.367 1526 407.386 1526 Q413.173 1526 416.552 1529.17 Q419.932 1532.34 419.932 1537.76 Q419.932 1543.34 416.46 1546.44 Q412.987 1549.52 406.668 1549.52 Q404.492 1549.52 402.224 1549.15 Q399.978 1548.78 397.571 1548.04 L397.571 1543.34 Q399.654 1544.47 401.876 1545.03 Q404.099 1545.58 406.575 1545.58 Q410.58 1545.58 412.918 1543.48 Q415.256 1541.37 415.256 1537.76 Q415.256 1534.15 412.918 1532.04 Q410.58 1529.94 406.575 1529.94 Q404.7 1529.94 402.825 1530.35 Q400.974 1530.77 399.029 1531.65 L399.029 1514.29 Z" fill="#000000" fill-rule="nonzero" fill-opacity="1" /><path clip-path="url(#clip700)" d="M439.145 1517.37 Q435.534 1517.37 433.705 1520.93 Q431.899 1524.47 431.899 1531.6 Q431.899 1538.71 433.705 1542.27 Q435.534 1545.82 439.145 1545.82 Q442.779 1545.82 444.584 1542.27 Q446.413 1538.71 446.413 1531.6 Q446.413 1524.47 444.584 1520.93 Q442.779 1517.37 439.145 1517.37 M439.145 1513.66 Q444.955 1513.66 448.01 1518.27 Q451.089 1522.85 451.089 1531.6 Q451.089 1540.33 448.01 1544.94 Q444.955 1549.52 439.145 1549.52 Q433.335 1549.52 430.256 1544.94 Q427.2 1540.33 427.2 1531.6 Q427.2 1522.85 430.256 1518.27 Q433.335 1513.66 439.145 1513.66 Z" fill="#000000" fill-rule="nonzero" fill-opacity="1" /><path clip-path="url(#clip700)" d="M854.598 1532.02 L884.274 1532.02 L884.274 1535.95 L854.598 1535.95 L854.598 1532.02 Z" fill="#000000" fill-rule="nonzero" fill-opacity="1" /><path clip-path="url(#clip700)" d="M904.366 1517.37 Q900.755 1517.37 898.927 1520.93 Q897.121 1524.47 897.121 1531.6 Q897.121 1538.71 898.927 1542.27 Q900.755 1545.82 904.366 1545.82 Q908.001 1545.82 909.806 1542.27 Q911.635 1538.71 911.635 1531.6 Q911.635 1524.47 909.806 1520.93 Q908.001 1517.37 904.366 1517.37 M904.366 1513.66 Q910.176 1513.66 913.232 1518.27 Q916.311 1522.85 916.311 1531.6 Q916.311 1540.33 913.232 1544.94 Q910.176 1549.52 904.366 1549.52 Q898.556 1549.52 895.477 1544.94 Q892.422 1540.33 892.422 1531.6 Q892.422 1522.85 895.477 1518.27 Q898.556 1513.66 904.366 1513.66 Z" fill="#000000" fill-rule="nonzero" fill-opacity="1" /><path clip-path="url(#clip700)" d="M924.528 1542.97 L929.412 1542.97 L929.412 1548.85 L924.528 1548.85 L924.528 1542.97 Z" fill="#000000" fill-rule="nonzero" fill-opacity="1" /><path clip-path="url(#clip700)" d="M943.625 1544.91 L959.945 1544.91 L959.945 1548.85 L938 1548.85 L938 1544.91 Q940.662 1542.16 945.246 1537.53 Q949.852 1532.88 951.033 1531.53 Q953.278 1529.01 954.158 1527.27 Q955.06 1525.51 955.06 1523.82 Q955.06 1521.07 953.116 1519.33 Q951.195 1517.6 948.093 1517.6 Q945.894 1517.6 943.44 1518.36 Q941.01 1519.13 938.232 1520.68 L938.232 1515.95 Q941.056 1514.82 943.51 1514.24 Q945.963 1513.66 948 1513.66 Q953.371 1513.66 956.565 1516.35 Q959.76 1519.03 959.76 1523.52 Q959.76 1525.65 958.949 1527.57 Q958.162 1529.47 956.056 1532.07 Q955.477 1532.74 952.375 1535.95 Q949.273 1539.15 943.625 1544.91 Z" fill="#000000" fill-rule="nonzero" fill-opacity="1" /><path clip-path="url(#clip700)" d="M969.806 1514.29 L988.162 1514.29 L988.162 1518.22 L974.088 1518.22 L974.088 1526.7 Q975.107 1526.35 976.125 1526.19 Q977.144 1526 978.162 1526 Q983.949 1526 987.329 1529.17 Q990.708 1532.34 990.708 1537.76 Q990.708 1543.34 987.236 1546.44 Q983.764 1549.52 977.445 1549.52 Q975.269 1549.52 973 1549.15 Q970.755 1548.78 968.347 1548.04 L968.347 1543.34 Q970.431 1544.47 972.653 1545.03 Q974.875 1545.58 977.352 1545.58 Q981.357 1545.58 983.695 1543.48 Q986.033 1541.37 986.033 1537.76 Q986.033 1534.15 983.695 1532.04 Q981.357 1529.94 977.352 1529.94 Q975.477 1529.94 973.602 1530.35 Q971.75 1530.77 969.806 1531.65 L969.806 1514.29 Z" fill="#000000" fill-rule="nonzero" fill-opacity="1" /><path clip-path="url(#clip700)" d="M1425.07 1517.37 Q1421.46 1517.37 1419.63 1520.93 Q1417.83 1524.47 1417.83 1531.6 Q1417.83 1538.71 1419.63 1542.27 Q1421.46 1545.82 1425.07 1545.82 Q1428.71 1545.82 1430.51 1542.27 Q1432.34 1538.71 1432.34 1531.6 Q1432.34 1524.47 1430.51 1520.93 Q1428.71 1517.37 1425.07 1517.37 M1425.07 1513.66 Q1430.88 1513.66 1433.94 1518.27 Q1437.02 1522.85 1437.02 1531.6 Q1437.02 1540.33 1433.94 1544.94 Q1430.88 1549.52 1425.07 1549.52 Q1419.26 1549.52 1416.18 1544.94 Q1413.13 1540.33 1413.13 1531.6 Q1413.13 1522.85 1416.18 1518.27 Q1419.26 1513.66 1425.07 1513.66 Z" fill="#000000" fill-rule="nonzero" fill-opacity="1" /><path clip-path="url(#clip700)" d="M1445.24 1542.97 L1450.12 1542.97 L1450.12 1548.85 L1445.24 1548.85 L1445.24 1542.97 Z" fill="#000000" fill-rule="nonzero" fill-opacity="1" /><path clip-path="url(#clip700)" d="M1470.3 1517.37 Q1466.69 1517.37 1464.87 1520.93 Q1463.06 1524.47 1463.06 1531.6 Q1463.06 1538.71 1464.87 1542.27 Q1466.69 1545.82 1470.3 1545.82 Q1473.94 1545.82 1475.74 1542.27 Q1477.57 1538.71 1477.57 1531.6 Q1477.57 1524.47 1475.74 1520.93 Q1473.94 1517.37 1470.3 1517.37 M1470.3 1513.66 Q1476.12 1513.66 1479.17 1518.27 Q1482.25 1522.85 1482.25 1531.6 Q1482.25 1540.33 1479.17 1544.94 Q1476.12 1549.52 1470.3 1549.52 Q1464.49 1549.52 1461.42 1544.94 Q1458.36 1540.33 1458.36 1531.6 Q1458.36 1522.85 1461.42 1518.27 Q1464.49 1513.66 1470.3 1513.66 Z" fill="#000000" fill-rule="nonzero" fill-opacity="1" /><path clip-path="url(#clip700)" d="M1500.47 1517.37 Q1496.86 1517.37 1495.03 1520.93 Q1493.22 1524.47 1493.22 1531.6 Q1493.22 1538.71 1495.03 1542.27 Q1496.86 1545.82 1500.47 1545.82 Q1504.1 1545.82 1505.91 1542.27 Q1507.74 1538.71 1507.74 1531.6 Q1507.74 1524.47 1505.91 1520.93 Q1504.1 1517.37 1500.47 1517.37 M1500.47 1513.66 Q1506.28 1513.66 1509.33 1518.27 Q1512.41 1522.85 1512.41 1531.6 Q1512.41 1540.33 1509.33 1544.94 Q1506.28 1549.52 1500.47 1549.52 Q1494.66 1549.52 1491.58 1544.94 Q1488.52 1540.33 1488.52 1531.6 Q1488.52 1522.85 1491.58 1518.27 Q1494.66 1513.66 1500.47 1513.66 Z" fill="#000000" fill-rule="nonzero" fill-opacity="1" /><path clip-path="url(#clip700)" d="M1965.69 1517.37 Q1962.08 1517.37 1960.25 1520.93 Q1958.44 1524.47 1958.44 1531.6 Q1958.44 1538.71 1960.25 1542.27 Q1962.08 1545.82 1965.69 1545.82 Q1969.32 1545.82 1971.13 1542.27 Q1972.96 1538.71 1972.96 1531.6 Q1972.96 1524.47 1971.13 1520.93 Q1969.32 1517.37 1965.69 1517.37 M1965.69 1513.66 Q1971.5 1513.66 1974.55 1518.27 Q1977.63 1522.85 1977.63 1531.6 Q1977.63 1540.33 1974.55 1544.94 Q1971.5 1549.52 1965.69 1549.52 Q1959.88 1549.52 1956.8 1544.94 Q1953.74 1540.33 1953.74 1531.6 Q1953.74 1522.85 1956.8 1518.27 Q1959.88 1513.66 1965.69 1513.66 Z" fill="#000000" fill-rule="nonzero" fill-opacity="1" /><path clip-path="url(#clip700)" d="M1985.85 1542.97 L1990.73 1542.97 L1990.73 1548.85 L1985.85 1548.85 L1985.85 1542.97 Z" fill="#000000" fill-rule="nonzero" fill-opacity="1" /><path clip-path="url(#clip700)" d="M2004.95 1544.91 L2021.27 1544.91 L2021.27 1548.85 L1999.32 1548.85 L1999.32 1544.91 Q2001.98 1542.16 2006.57 1537.53 Q2011.17 1532.88 2012.35 1531.53 Q2014.6 1529.01 2015.48 1527.27 Q2016.38 1525.51 2016.38 1523.82 Q2016.38 1521.07 2014.44 1519.33 Q2012.52 1517.6 2009.42 1517.6 Q2007.22 1517.6 2004.76 1518.36 Q2002.33 1519.13 1999.55 1520.68 L1999.55 1515.95 Q2002.38 1514.82 2004.83 1514.24 Q2007.29 1513.66 2009.32 1513.66 Q2014.69 1513.66 2017.89 1516.35 Q2021.08 1519.03 2021.08 1523.52 Q2021.08 1525.65 2020.27 1527.57 Q2019.48 1529.47 2017.38 1532.07 Q2016.8 1532.74 2013.7 1535.95 Q2010.6 1539.15 2004.95 1544.91 Z" fill="#000000" fill-rule="nonzero" fill-opacity="1" /><path clip-path="url(#clip700)" d="M2031.13 1514.29 L2049.48 1514.29 L2049.48 1518.22 L2035.41 1518.22 L2035.41 1526.7 Q2036.43 1526.35 2037.45 1526.19 Q2038.47 1526 2039.48 1526 Q2045.27 1526 2048.65 1529.17 Q2052.03 1532.34 2052.03 1537.76 Q2052.03 1543.34 2048.56 1546.44 Q2045.09 1549.52 2038.77 1549.52 Q2036.59 1549.52 2034.32 1549.15 Q2032.08 1548.78 2029.67 1548.04 L2029.67 1543.34 Q2031.75 1544.47 2033.98 1545.03 Q2036.2 1545.58 2038.67 1545.58 Q2042.68 1545.58 2045.02 1543.48 Q2047.35 1541.37 2047.35 1537.76 Q2047.35 1534.15 2045.02 1532.04 Q2042.68 1529.94 2038.67 1529.94 Q2036.8 1529.94 2034.92 1530.35 Q2033.07 1530.77 2031.13 1531.65 L2031.13 1514.29 Z" fill="#000000" fill-rule="nonzero" fill-opacity="1" /><polyline clip-path="url(#clip700)" style="stroke:#000000; stroke-linecap:round; stroke-linejoin:round; stroke-width:4; stroke-opacity:1; fill:none" points="156.598,1486.45 156.598,47.2441 "/>
<polyline clip-path="url(#clip700)" style="stroke:#000000; stroke-linecap:round; stroke-linejoin:round; stroke-width:4; stroke-opacity:1; fill:none" points="156.598,1448.29 175.496,1448.29 "/>
<polyline clip-path="url(#clip700)" style="stroke:#000000; stroke-linecap:round; stroke-linejoin:round; stroke-width:4; stroke-opacity:1; fill:none" points="156.598,1216.08 175.496,1216.08 "/>
<polyline clip-path="url(#clip700)" style="stroke:#000000; stroke-linecap:round; stroke-linejoin:round; stroke-width:4; stroke-opacity:1; fill:none" points="156.598,983.866 175.496,983.866 "/>
<polyline clip-path="url(#clip700)" style="stroke:#000000; stroke-linecap:round; stroke-linejoin:round; stroke-width:4; stroke-opacity:1; fill:none" points="156.598,751.654 175.496,751.654 "/>
<polyline clip-path="url(#clip700)" style="stroke:#000000; stroke-linecap:round; stroke-linejoin:round; stroke-width:4; stroke-opacity:1; fill:none" points="156.598,519.443 175.496,519.443 "/>
<polyline clip-path="url(#clip700)" style="stroke:#000000; stroke-linecap:round; stroke-linejoin:round; stroke-width:4; stroke-opacity:1; fill:none" points="156.598,287.231 175.496,287.231 "/>
<polyline clip-path="url(#clip700)" style="stroke:#000000; stroke-linecap:round; stroke-linejoin:round; stroke-width:4; stroke-opacity:1; fill:none" points="156.598,55.0193 175.496,55.0193 "/>
<path clip-path="url(#clip700)" d="M63.4226 1434.09 Q59.8115 1434.09 57.9828 1437.65 Q56.1773 1441.19 56.1773 1448.32 Q56.1773 1455.43 57.9828 1459 Q59.8115 1462.54 63.4226 1462.54 Q67.0569 1462.54 68.8624 1459 Q70.6911 1455.43 70.6911 1448.32 Q70.6911 1441.19 68.8624 1437.65 Q67.0569 1434.09 63.4226 1434.09 M63.4226 1430.38 Q69.2328 1430.38 72.2883 1434.99 Q75.367 1439.57 75.367 1448.32 Q75.367 1457.05 72.2883 1461.66 Q69.2328 1466.24 63.4226 1466.24 Q57.6125 1466.24 54.5338 1461.66 Q51.4782 1457.05 51.4782 1448.32 Q51.4782 1439.57 54.5338 1434.99 Q57.6125 1430.38 63.4226 1430.38 Z" fill="#000000" fill-rule="nonzero" fill-opacity="1" /><path clip-path="url(#clip700)" d="M83.5845 1459.69 L88.4688 1459.69 L88.4688 1465.57 L83.5845 1465.57 L83.5845 1459.69 Z" fill="#000000" fill-rule="nonzero" fill-opacity="1" /><path clip-path="url(#clip700)" d="M108.654 1434.09 Q105.043 1434.09 103.214 1437.65 Q101.409 1441.19 101.409 1448.32 Q101.409 1455.43 103.214 1459 Q105.043 1462.54 108.654 1462.54 Q112.288 1462.54 114.094 1459 Q115.922 1455.43 115.922 1448.32 Q115.922 1441.19 114.094 1437.65 Q112.288 1434.09 108.654 1434.09 M108.654 1430.38 Q114.464 1430.38 117.52 1434.99 Q120.598 1439.57 120.598 1448.32 Q120.598 1457.05 117.52 1461.66 Q114.464 1466.24 108.654 1466.24 Q102.844 1466.24 99.765 1461.66 Q96.7095 1457.05 96.7095 1448.32 Q96.7095 1439.57 99.765 1434.99 Q102.844 1430.38 108.654 1430.38 Z" fill="#000000" fill-rule="nonzero" fill-opacity="1" /><path clip-path="url(#clip700)" d="M64.6495 1201.88 Q61.0384 1201.88 59.2097 1205.44 Q57.4041 1208.98 57.4041 1216.11 Q57.4041 1223.22 59.2097 1226.78 Q61.0384 1230.33 64.6495 1230.33 Q68.2837 1230.33 70.0892 1226.78 Q71.9179 1223.22 71.9179 1216.11 Q71.9179 1208.98 70.0892 1205.44 Q68.2837 1201.88 64.6495 1201.88 M64.6495 1198.17 Q70.4596 1198.17 73.5152 1202.78 Q76.5938 1207.36 76.5938 1216.11 Q76.5938 1224.84 73.5152 1229.45 Q70.4596 1234.03 64.6495 1234.03 Q58.8393 1234.03 55.7606 1229.45 Q52.7051 1224.84 52.7051 1216.11 Q52.7051 1207.36 55.7606 1202.78 Q58.8393 1198.17 64.6495 1198.17 Z" fill="#000000" fill-rule="nonzero" fill-opacity="1" /><path clip-path="url(#clip700)" d="M84.8114 1227.48 L89.6956 1227.48 L89.6956 1233.36 L84.8114 1233.36 L84.8114 1227.48 Z" fill="#000000" fill-rule="nonzero" fill-opacity="1" /><path clip-path="url(#clip700)" d="M100.691 1229.42 L108.33 1229.42 L108.33 1203.06 L100.02 1204.72 L100.02 1200.46 L108.283 1198.8 L112.959 1198.8 L112.959 1229.42 L120.598 1229.42 L120.598 1233.36 L100.691 1233.36 L100.691 1229.42 Z" fill="#000000" fill-rule="nonzero" fill-opacity="1" /><path clip-path="url(#clip700)" d="M65.0198 969.665 Q61.4087 969.665 59.58 973.229 Q57.7745 976.771 57.7745 983.901 Q57.7745 991.007 59.58 994.572 Q61.4087 998.113 65.0198 998.113 Q68.6541 998.113 70.4596 994.572 Q72.2883 991.007 72.2883 983.901 Q72.2883 976.771 70.4596 973.229 Q68.6541 969.665 65.0198 969.665 M65.0198 965.961 Q70.83 965.961 73.8855 970.567 Q76.9642 975.151 76.9642 983.901 Q76.9642 992.627 73.8855 997.234 Q70.83 1001.82 65.0198 1001.82 Q59.2097 1001.82 56.131 997.234 Q53.0754 992.627 53.0754 983.901 Q53.0754 975.151 56.131 970.567 Q59.2097 965.961 65.0198 965.961 Z" fill="#000000" fill-rule="nonzero" fill-opacity="1" /><path clip-path="url(#clip700)" d="M85.1818 995.266 L90.066 995.266 L90.066 1001.15 L85.1818 1001.15 L85.1818 995.266 Z" fill="#000000" fill-rule="nonzero" fill-opacity="1" /><path clip-path="url(#clip700)" d="M104.279 997.211 L120.598 997.211 L120.598 1001.15 L98.6539 1001.15 L98.6539 997.211 Q101.316 994.456 105.899 989.826 Q110.506 985.174 111.686 983.831 Q113.932 981.308 114.811 979.572 Q115.714 977.813 115.714 976.123 Q115.714 973.368 113.77 971.632 Q111.848 969.896 108.746 969.896 Q106.547 969.896 104.094 970.66 Q101.663 971.424 98.8854 972.975 L98.8854 968.253 Q101.709 967.118 104.163 966.54 Q106.617 965.961 108.654 965.961 Q114.024 965.961 117.219 968.646 Q120.413 971.331 120.413 975.822 Q120.413 977.952 119.603 979.873 Q118.816 981.771 116.709 984.364 Q116.131 985.035 113.029 988.252 Q109.927 991.447 104.279 997.211 Z" fill="#000000" fill-rule="nonzero" fill-opacity="1" /><path clip-path="url(#clip700)" d="M64.0708 737.453 Q60.4597 737.453 58.631 741.018 Q56.8254 744.559 56.8254 751.689 Q56.8254 758.795 58.631 762.36 Q60.4597 765.902 64.0708 765.902 Q67.705 765.902 69.5105 762.36 Q71.3392 758.795 71.3392 751.689 Q71.3392 744.559 69.5105 741.018 Q67.705 737.453 64.0708 737.453 M64.0708 733.749 Q69.8809 733.749 72.9365 738.356 Q76.0151 742.939 76.0151 751.689 Q76.0151 760.416 72.9365 765.022 Q69.8809 769.606 64.0708 769.606 Q58.2606 769.606 55.1819 765.022 Q52.1264 760.416 52.1264 751.689 Q52.1264 742.939 55.1819 738.356 Q58.2606 733.749 64.0708 733.749 Z" fill="#000000" fill-rule="nonzero" fill-opacity="1" /><path clip-path="url(#clip700)" d="M84.2327 763.055 L89.1169 763.055 L89.1169 768.934 L84.2327 768.934 L84.2327 763.055 Z" fill="#000000" fill-rule="nonzero" fill-opacity="1" /><path clip-path="url(#clip700)" d="M113.469 750.3 Q116.825 751.018 118.7 753.286 Q120.598 755.555 120.598 758.888 Q120.598 764.004 117.08 766.805 Q113.561 769.606 107.08 769.606 Q104.904 769.606 102.589 769.166 Q100.297 768.749 97.8437 767.893 L97.8437 763.379 Q99.7882 764.513 102.103 765.092 Q104.418 765.67 106.941 765.67 Q111.339 765.67 113.631 763.934 Q115.945 762.198 115.945 758.888 Q115.945 755.832 113.793 754.119 Q111.663 752.383 107.844 752.383 L103.816 752.383 L103.816 748.541 L108.029 748.541 Q111.478 748.541 113.307 747.175 Q115.135 745.786 115.135 743.194 Q115.135 740.532 113.237 739.12 Q111.362 737.684 107.844 737.684 Q105.922 737.684 103.723 738.101 Q101.524 738.518 98.8854 739.397 L98.8854 735.231 Q101.547 734.49 103.862 734.12 Q106.2 733.749 108.26 733.749 Q113.584 733.749 116.686 736.18 Q119.788 738.587 119.788 742.708 Q119.788 745.578 118.145 747.569 Q116.501 749.536 113.469 750.3 Z" fill="#000000" fill-rule="nonzero" fill-opacity="1" /><path clip-path="url(#clip700)" d="M62.9365 505.241 Q59.3254 505.241 57.4967 508.806 Q55.6912 512.348 55.6912 519.477 Q55.6912 526.584 57.4967 530.149 Q59.3254 533.69 62.9365 533.69 Q66.5707 533.69 68.3763 530.149 Q70.205 526.584 70.205 519.477 Q70.205 512.348 68.3763 508.806 Q66.5707 505.241 62.9365 505.241 M62.9365 501.538 Q68.7467 501.538 71.8022 506.144 Q74.8809 510.727 74.8809 519.477 Q74.8809 528.204 71.8022 532.811 Q68.7467 537.394 62.9365 537.394 Q57.1264 537.394 54.0477 532.811 Q50.9921 528.204 50.9921 519.477 Q50.9921 510.727 54.0477 506.144 Q57.1264 501.538 62.9365 501.538 Z" fill="#000000" fill-rule="nonzero" fill-opacity="1" /><path clip-path="url(#clip700)" d="M83.0984 530.843 L87.9827 530.843 L87.9827 536.723 L83.0984 536.723 L83.0984 530.843 Z" fill="#000000" fill-rule="nonzero" fill-opacity="1" /><path clip-path="url(#clip700)" d="M111.015 506.237 L99.2095 524.686 L111.015 524.686 L111.015 506.237 M109.788 502.163 L115.668 502.163 L115.668 524.686 L120.598 524.686 L120.598 528.574 L115.668 528.574 L115.668 536.723 L111.015 536.723 L111.015 528.574 L95.4132 528.574 L95.4132 524.061 L109.788 502.163 Z" fill="#000000" fill-rule="nonzero" fill-opacity="1" /><path clip-path="url(#clip700)" d="M64.418 273.03 Q60.8069 273.03 58.9782 276.594 Q57.1726 280.136 57.1726 287.266 Q57.1726 294.372 58.9782 297.937 Q60.8069 301.479 64.418 301.479 Q68.0522 301.479 69.8578 297.937 Q71.6865 294.372 71.6865 287.266 Q71.6865 280.136 69.8578 276.594 Q68.0522 273.03 64.418 273.03 M64.418 269.326 Q70.2281 269.326 73.2837 273.932 Q76.3624 278.516 76.3624 287.266 Q76.3624 295.992 73.2837 300.599 Q70.2281 305.182 64.418 305.182 Q58.6078 305.182 55.5291 300.599 Q52.4736 295.992 52.4736 287.266 Q52.4736 278.516 55.5291 273.932 Q58.6078 269.326 64.418 269.326 Z" fill="#000000" fill-rule="nonzero" fill-opacity="1" /><path clip-path="url(#clip700)" d="M84.5799 298.631 L89.4641 298.631 L89.4641 304.511 L84.5799 304.511 L84.5799 298.631 Z" fill="#000000" fill-rule="nonzero" fill-opacity="1" /><path clip-path="url(#clip700)" d="M99.6956 269.951 L118.052 269.951 L118.052 273.886 L103.978 273.886 L103.978 282.358 Q104.996 282.011 106.015 281.849 Q107.033 281.664 108.052 281.664 Q113.839 281.664 117.219 284.835 Q120.598 288.006 120.598 293.423 Q120.598 299.002 117.126 302.104 Q113.654 305.182 107.334 305.182 Q105.159 305.182 102.89 304.812 Q100.645 304.442 98.2372 303.701 L98.2372 299.002 Q100.321 300.136 102.543 300.692 Q104.765 301.247 107.242 301.247 Q111.246 301.247 113.584 299.141 Q115.922 297.034 115.922 293.423 Q115.922 289.812 113.584 287.705 Q111.246 285.599 107.242 285.599 Q105.367 285.599 103.492 286.016 Q101.64 286.432 99.6956 287.312 L99.6956 269.951 Z" fill="#000000" fill-rule="nonzero" fill-opacity="1" /><path clip-path="url(#clip700)" d="M63.2606 40.818 Q59.6495 40.818 57.8208 44.3828 Q56.0152 47.9245 56.0152 55.0541 Q56.0152 62.1605 57.8208 65.7253 Q59.6495 69.2669 63.2606 69.2669 Q66.8948 69.2669 68.7004 65.7253 Q70.5291 62.1605 70.5291 55.0541 Q70.5291 47.9245 68.7004 44.3828 Q66.8948 40.818 63.2606 40.818 M63.2606 37.1143 Q69.0707 37.1143 72.1263 41.7208 Q75.205 46.3041 75.205 55.0541 Q75.205 63.7809 72.1263 68.3873 Q69.0707 72.9706 63.2606 72.9706 Q57.4504 72.9706 54.3717 68.3873 Q51.3162 63.7809 51.3162 55.0541 Q51.3162 46.3041 54.3717 41.7208 Q57.4504 37.1143 63.2606 37.1143 Z" fill="#000000" fill-rule="nonzero" fill-opacity="1" /><path clip-path="url(#clip700)" d="M83.4225 66.4197 L88.3067 66.4197 L88.3067 72.2993 L83.4225 72.2993 L83.4225 66.4197 Z" fill="#000000" fill-rule="nonzero" fill-opacity="1" /><path clip-path="url(#clip700)" d="M109.071 53.1559 Q105.922 53.1559 104.071 55.3087 Q102.242 57.4614 102.242 61.2114 Q102.242 64.9383 104.071 67.1142 Q105.922 69.2669 109.071 69.2669 Q112.219 69.2669 114.047 67.1142 Q115.899 64.9383 115.899 61.2114 Q115.899 57.4614 114.047 55.3087 Q112.219 53.1559 109.071 53.1559 M118.353 38.5032 L118.353 42.7625 Q116.594 41.9291 114.788 41.4893 Q113.006 41.0495 111.246 41.0495 Q106.617 41.0495 104.163 44.1745 Q101.733 47.2995 101.385 53.6189 Q102.751 51.605 104.811 50.5402 Q106.871 49.4522 109.348 49.4522 Q114.557 49.4522 117.566 52.6235 Q120.598 55.7716 120.598 61.2114 Q120.598 66.5355 117.45 69.753 Q114.302 72.9706 109.071 72.9706 Q103.075 72.9706 99.9039 68.3873 Q96.7326 63.7809 96.7326 55.0541 Q96.7326 46.8597 100.621 41.9986 Q104.51 37.1143 111.061 37.1143 Q112.82 37.1143 114.603 37.4616 Q116.408 37.8088 118.353 38.5032 Z" fill="#000000" fill-rule="nonzero" fill-opacity="1" /><circle clip-path="url(#clip701)" cx="1498.75" cy="1323.83" r="14.4" fill="#808080" fill-rule="evenodd" fill-opacity="1" stroke="#000000" stroke-opacity="1" stroke-width="3.2"/>
<circle clip-path="url(#clip701)" cx="1428.83" cy="1445.72" r="14.4" fill="#808080" fill-rule="evenodd" fill-opacity="1" stroke="#000000" stroke-opacity="1" stroke-width="3.2"/>
<circle clip-path="url(#clip701)" cx="2290.6" cy="1334.92" r="14.4" fill="#808080" fill-rule="evenodd" fill-opacity="1" stroke="#000000" stroke-opacity="1" stroke-width="3.2"/>
<circle clip-path="url(#clip701)" cx="218.754" cy="87.9763" r="14.4" fill="#808080" fill-rule="evenodd" fill-opacity="1" stroke="#000000" stroke-opacity="1" stroke-width="3.2"/>
<path clip-path="url(#clip700)" d="M1503.04 1331.27 Q1494.01 1331.27 1490.53 1333.33 Q1487.04 1335.4 1487.04 1340.38 Q1487.04 1344.35 1489.64 1346.7 Q1492.27 1349.01 1496.77 1349.01 Q1502.96 1349.01 1506.69 1344.64 Q1510.46 1340.22 1510.46 1332.93 L1510.46 1331.27 L1503.04 1331.27 M1517.91 1328.19 L1517.91 1354.07 L1510.46 1354.07 L1510.46 1347.19 Q1507.91 1351.32 1504.1 1353.3 Q1500.29 1355.25 1494.78 1355.25 Q1487.81 1355.25 1483.68 1351.36 Q1479.59 1347.43 1479.59 1340.87 Q1479.59 1333.21 1484.69 1329.32 Q1489.84 1325.43 1500.01 1325.43 L1510.46 1325.43 L1510.46 1324.7 Q1510.46 1319.56 1507.06 1316.76 Q1503.69 1313.93 1497.58 1313.93 Q1493.69 1313.93 1490 1314.86 Q1486.31 1315.79 1482.91 1317.66 L1482.91 1310.77 Q1487 1309.19 1490.85 1308.42 Q1494.7 1307.61 1498.35 1307.61 Q1508.19 1307.61 1513.05 1312.71 Q1517.91 1317.82 1517.91 1328.19 Z" fill="#000000" fill-rule="nonzero" fill-opacity="1" /><path clip-path="url(#clip700)" d="M1441.39 1453.31 Q1441.39 1445.09 1437.99 1440.43 Q1434.63 1435.73 1428.71 1435.73 Q1422.8 1435.73 1419.4 1440.43 Q1416.03 1445.09 1416.03 1453.31 Q1416.03 1461.53 1419.4 1466.23 Q1422.8 1470.89 1428.71 1470.89 Q1434.63 1470.89 1437.99 1466.23 Q1441.39 1461.53 1441.39 1453.31 M1416.03 1437.47 Q1418.38 1433.42 1421.95 1431.48 Q1425.55 1429.49 1430.54 1429.49 Q1438.8 1429.49 1443.94 1436.05 Q1449.13 1442.62 1449.13 1453.31 Q1449.13 1464.01 1443.94 1470.57 Q1438.8 1477.13 1430.54 1477.13 Q1425.55 1477.13 1421.95 1475.19 Q1418.38 1473.2 1416.03 1469.15 L1416.03 1475.96 L1408.54 1475.96 L1408.54 1412.92 L1416.03 1412.92 L1416.03 1437.47 Z" fill="#000000" fill-rule="nonzero" fill-opacity="1" /><path clip-path="url(#clip700)" d="M2308.55 1321.54 L2308.55 1328.5 Q2305.39 1326.76 2302.19 1325.91 Q2299.03 1325.02 2295.79 1325.02 Q2288.53 1325.02 2284.52 1329.64 Q2280.51 1334.22 2280.51 1342.52 Q2280.51 1350.82 2284.52 1355.44 Q2288.53 1360.02 2295.79 1360.02 Q2299.03 1360.02 2302.19 1359.17 Q2305.39 1358.28 2308.55 1356.54 L2308.55 1363.42 Q2305.43 1364.88 2302.06 1365.61 Q2298.74 1366.34 2294.98 1366.34 Q2284.73 1366.34 2278.69 1359.9 Q2272.65 1353.46 2272.65 1342.52 Q2272.65 1331.42 2278.73 1325.06 Q2284.85 1318.7 2295.46 1318.7 Q2298.9 1318.7 2302.19 1319.43 Q2305.47 1320.12 2308.55 1321.54 Z" fill="#000000" fill-rule="nonzero" fill-opacity="1" /><path clip-path="url(#clip700)" d="M231.575 79.7327 L231.575 55.1842 L239.028 55.1842 L239.028 118.216 L231.575 118.216 L231.575 111.411 Q229.225 115.462 225.62 117.447 Q222.055 119.391 217.032 119.391 Q208.809 119.391 203.624 112.829 Q198.479 106.266 198.479 95.5717 Q198.479 84.8773 203.624 78.3149 Q208.809 71.7524 217.032 71.7524 Q222.055 71.7524 225.62 73.7373 Q229.225 75.6818 231.575 79.7327 M206.176 95.5717 Q206.176 103.795 209.538 108.494 Q212.941 113.153 218.855 113.153 Q224.769 113.153 228.172 108.494 Q231.575 103.795 231.575 95.5717 Q231.575 87.3484 228.172 82.6898 Q224.769 77.9908 218.855 77.9908 Q212.941 77.9908 209.538 82.6898 Q206.176 87.3484 206.176 95.5717 Z" fill="#000000" fill-rule="nonzero" fill-opacity="1" /><path clip-path="url(#clip700)" d="M2007.5 198.898 L2279.55 198.898 L2279.55 95.2176 L2007.5 95.2176  Z" fill="#ffffff" fill-rule="evenodd" fill-opacity="1"/>
<polyline clip-path="url(#clip700)" style="stroke:#000000; stroke-linecap:round; stroke-linejoin:round; stroke-width:4; stroke-opacity:1; fill:none" points="2007.5,198.898 2279.55,198.898 2279.55,95.2176 2007.5,95.2176 2007.5,198.898 "/>
<circle clip-path="url(#clip700)" cx="2105.11" cy="147.058" r="20.48" fill="#808080" fill-rule="evenodd" fill-opacity="1" stroke="#000000" stroke-opacity="1" stroke-width="4.55111"/>
<path clip-path="url(#clip700)" d="M2216.56 166.745 Q2214.76 171.375 2213.04 172.787 Q2211.33 174.199 2208.46 174.199 L2205.06 174.199 L2205.06 170.634 L2207.56 170.634 Q2209.32 170.634 2210.29 169.8 Q2211.26 168.967 2212.44 165.865 L2213.2 163.921 L2202.72 138.412 L2207.23 138.412 L2215.33 158.689 L2223.44 138.412 L2227.95 138.412 L2216.56 166.745 Z" fill="#000000" fill-rule="nonzero" fill-opacity="1" /><path clip-path="url(#clip700)" d="M2235.24 160.402 L2242.88 160.402 L2242.88 134.037 L2234.57 135.703 L2234.57 131.444 L2242.83 129.778 L2247.51 129.778 L2247.51 160.402 L2255.15 160.402 L2255.15 164.338 L2235.24 164.338 L2235.24 160.402 Z" fill="#000000" fill-rule="nonzero" fill-opacity="1" /></svg>
