<?xml version="1.0" encoding="utf-8"?>
<svg xmlns="http://www.w3.org/2000/svg" xmlns:xlink="http://www.w3.org/1999/xlink" width="600" height="400" viewBox="0 0 2400 1600">
<defs>
  <clipPath id="clip640">
    <rect x="0" y="0" width="2400" height="1600"/>
  </clipPath>
</defs>
<path clip-path="url(#clip640)" d="M0 1600 L2400 1600 L2400 0 L0 0  Z" fill="#ffffff" fill-rule="evenodd" fill-opacity="1"/>
<defs>
  <clipPath id="clip641">
    <rect x="480" y="0" width="1681" height="1600"/>
  </clipPath>
</defs>
<path clip-path="url(#clip640)" d="M112.177 1486.45 L2352.76 1486.45 L2352.76 47.2441 L112.177 47.2441  Z" fill="#ffffff" fill-rule="evenodd" fill-opacity="1"/>
<defs>
  <clipPath id="clip642">
    <rect x="112" y="47" width="2242" height="1440"/>
  </clipPath>
</defs>
<polyline clip-path="url(#clip642)" style="stroke:#000000; stroke-linecap:round; stroke-linejoin:round; stroke-width:2; stroke-opacity:0.1; fill:none" points="170.27,1486.45 170.27,47.2441 "/>
<polyline clip-path="url(#clip642)" style="stroke:#000000; stroke-linecap:round; stroke-linejoin:round; stroke-width:2; stroke-opacity:0.1; fill:none" points="652.352,1486.45 652.352,47.2441 "/>
<polyline clip-path="url(#clip642)" style="stroke:#000000; stroke-linecap:round; stroke-linejoin:round; stroke-width:2; stroke-opacity:0.1; fill:none" points="1134.43,1486.45 1134.43,47.2441 "/>
<polyline clip-path="url(#clip642)" style="stroke:#000000; stroke-linecap:round; stroke-linejoin:round; stroke-width:2; stroke-opacity:0.1; fill:none" points="1616.51,1486.45 1616.51,47.2441 "/>
<polyline clip-path="url(#clip642)" style="stroke:#000000; stroke-linecap:round; stroke-linejoin:round; stroke-width:2; stroke-opacity:0.1; fill:none" points="2098.6,1486.45 2098.6,47.2441 "/>
<polyline clip-path="url(#clip640)" style="stroke:#000000; stroke-linecap:round; stroke-linejoin:round; stroke-width:4; stroke-opacity:1; fill:none" points="112.177,1486.45 2352.76,1486.45 "/>
<polyline clip-path="url(#clip640)" style="stroke:#000000; stroke-linecap:round; stroke-linejoin:round; stroke-width:4; stroke-opacity:1; fill:none" points="170.27,1486.45 170.27,1467.55 "/>
<polyline clip-path="url(#clip640)" style="stroke:#000000; stroke-linecap:round; stroke-linejoin:round; stroke-width:4; stroke-opacity:1; fill:none" points="652.352,1486.45 652.352,1467.55 "/>
<polyline clip-path="url(#clip640)" style="stroke:#000000; stroke-linecap:round; stroke-linejoin:round; stroke-width:4; stroke-opacity:1; fill:none" points="1134.43,1486.45 1134.43,1467.55 "/>
<polyline clip-path="url(#clip640)" style="stroke:#000000; stroke-linecap:round; stroke-linejoin:round; stroke-width:4; stroke-opacity:1; fill:none" points="1616.51,1486.45 1616.51,1467.55 "/>
<polyline clip-path="url(#clip640)" style="stroke:#000000; stroke-linecap:round; stroke-linejoin:round; stroke-width:4; stroke-opacity:1; fill:none" points="2098.6,1486.45 2098.6,1467.55 "/>
<path clip-path="url(#clip640)" d="M117.296 1532.02 L146.972 1532.02 L146.972 1535.95 L117.296 1535.95 L117.296 1532.02 Z" fill="#000000" fill-rule="nonzero" fill-opacity="1" /><path clip-path="url(#clip640)" d="M157.874 1544.91 L165.513 1544.91 L165.513 1518.55 L157.203 1520.21 L157.203 1515.95 L165.467 1514.29 L170.143 1514.29 L170.143 1544.91 L177.782 1544.91 L177.782 1548.85 L157.874 1548.85 L157.874 1544.91 Z" fill="#000000" fill-rule="nonzero" fill-opacity="1" /><path clip-path="url(#clip640)" d="M187.226 1542.97 L192.11 1542.97 L192.11 1548.85 L187.226 1548.85 L187.226 1542.97 Z" fill="#000000" fill-rule="nonzero" fill-opacity="1" /><path clip-path="url(#clip640)" d="M202.342 1514.29 L220.698 1514.29 L220.698 1518.22 L206.624 1518.22 L206.624 1526.7 Q207.643 1526.35 208.661 1526.19 Q209.68 1526 210.698 1526 Q216.485 1526 219.865 1529.17 Q223.244 1532.34 223.244 1537.76 Q223.244 1543.34 219.772 1546.44 Q216.3 1549.52 209.981 1549.52 Q207.805 1549.52 205.536 1549.15 Q203.291 1548.78 200.883 1548.04 L200.883 1543.34 Q202.967 1544.47 205.189 1545.03 Q207.411 1545.58 209.888 1545.58 Q213.893 1545.58 216.231 1543.48 Q218.569 1541.37 218.569 1537.76 Q218.569 1534.15 216.231 1532.04 Q213.893 1529.94 209.888 1529.94 Q208.013 1529.94 206.138 1530.35 Q204.286 1530.77 202.342 1531.65 L202.342 1514.29 Z" fill="#000000" fill-rule="nonzero" fill-opacity="1" /><path clip-path="url(#clip640)" d="M598.88 1532.02 L628.555 1532.02 L628.555 1535.95 L598.88 1535.95 L598.88 1532.02 Z" fill="#000000" fill-rule="nonzero" fill-opacity="1" /><path clip-path="url(#clip640)" d="M639.458 1544.91 L647.097 1544.91 L647.097 1518.55 L638.787 1520.21 L638.787 1515.95 L647.051 1514.29 L651.727 1514.29 L651.727 1544.91 L659.365 1544.91 L659.365 1548.85 L639.458 1548.85 L639.458 1544.91 Z" fill="#000000" fill-rule="nonzero" fill-opacity="1" /><path clip-path="url(#clip640)" d="M668.81 1542.97 L673.694 1542.97 L673.694 1548.85 L668.81 1548.85 L668.81 1542.97 Z" fill="#000000" fill-rule="nonzero" fill-opacity="1" /><path clip-path="url(#clip640)" d="M693.879 1517.37 Q690.268 1517.37 688.439 1520.93 Q686.634 1524.47 686.634 1531.6 Q686.634 1538.71 688.439 1542.27 Q690.268 1545.82 693.879 1545.82 Q697.513 1545.82 699.319 1542.27 Q701.148 1538.71 701.148 1531.6 Q701.148 1524.47 699.319 1520.93 Q697.513 1517.37 693.879 1517.37 M693.879 1513.66 Q699.689 1513.66 702.745 1518.27 Q705.823 1522.85 705.823 1531.6 Q705.823 1540.33 702.745 1544.94 Q699.689 1549.52 693.879 1549.52 Q688.069 1549.52 684.99 1544.94 Q681.935 1540.33 681.935 1531.6 Q681.935 1522.85 684.99 1518.27 Q688.069 1513.66 693.879 1513.66 Z" fill="#000000" fill-rule="nonzero" fill-opacity="1" /><path clip-path="url(#clip640)" d="M1081.46 1532.02 L1111.13 1532.02 L1111.13 1535.95 L1081.46 1535.95 L1081.46 1532.02 Z" fill="#000000" fill-rule="nonzero" fill-opacity="1" /><path clip-path="url(#clip640)" d="M1131.23 1517.37 Q1127.62 1517.37 1125.79 1520.93 Q1123.98 1524.47 1123.98 1531.6 Q1123.98 1538.71 1125.79 1542.27 Q1127.62 1545.82 1131.23 1545.82 Q1134.86 1545.82 1136.67 1542.27 Q1138.5 1538.71 1138.5 1531.6 Q1138.5 1524.47 1136.67 1520.93 Q1134.86 1517.37 1131.23 1517.37 M1131.23 1513.66 Q1137.04 1513.66 1140.09 1518.27 Q1143.17 1522.85 1143.17 1531.6 Q1143.17 1540.33 1140.09 1544.94 Q1137.04 1549.52 1131.23 1549.52 Q1125.42 1549.52 1122.34 1544.94 Q1119.28 1540.33 1119.28 1531.6 Q1119.28 1522.85 1122.34 1518.27 Q1125.42 1513.66 1131.23 1513.66 Z" fill="#000000" fill-rule="nonzero" fill-opacity="1" /><path clip-path="url(#clip640)" d="M1151.39 1542.97 L1156.27 1542.97 L1156.27 1548.85 L1151.39 1548.85 L1151.39 1542.97 Z" fill="#000000" fill-rule="nonzero" fill-opacity="1" /><path clip-path="url(#clip640)" d="M1166.5 1514.29 L1184.86 1514.29 L1184.86 1518.22 L1170.79 1518.22 L1170.79 1526.7 Q1171.81 1526.35 1172.82 1526.19 Q1173.84 1526 1174.86 1526 Q1180.65 1526 1184.03 1529.17 Q1187.41 1532.34 1187.41 1537.76 Q1187.41 1543.34 1183.94 1546.44 Q1180.46 1549.52 1174.14 1549.52 Q1171.97 1549.52 1169.7 1549.15 Q1167.45 1548.78 1165.05 1548.04 L1165.05 1543.34 Q1167.13 1544.47 1169.35 1545.03 Q1171.57 1545.58 1174.05 1545.58 Q1178.06 1545.58 1180.39 1543.48 Q1182.73 1541.37 1182.73 1537.76 Q1182.73 1534.15 1180.39 1532.04 Q1178.06 1529.94 1174.05 1529.94 Q1172.18 1529.94 1170.3 1530.35 Q1168.45 1530.77 1166.5 1531.65 L1166.5 1514.29 Z" fill="#000000" fill-rule="nonzero" fill-opacity="1" /><path clip-path="url(#clip640)" d="M1593.9 1517.37 Q1590.29 1517.37 1588.46 1520.93 Q1586.65 1524.47 1586.65 1531.6 Q1586.65 1538.71 1588.46 1542.27 Q1590.29 1545.82 1593.9 1545.82 Q1597.53 1545.82 1599.34 1542.27 Q1601.17 1538.71 1601.17 1531.6 Q1601.17 1524.47 1599.34 1520.93 Q1597.53 1517.37 1593.9 1517.37 M1593.9 1513.66 Q1599.71 1513.66 1602.76 1518.27 Q1605.84 1522.85 1605.84 1531.6 Q1605.84 1540.33 1602.76 1544.94 Q1599.71 1549.52 1593.9 1549.52 Q1588.09 1549.52 1585.01 1544.94 Q1581.95 1540.33 1581.95 1531.6 Q1581.95 1522.85 1585.01 1518.27 Q1588.09 1513.66 1593.9 1513.66 Z" fill="#000000" fill-rule="nonzero" fill-opacity="1" /><path clip-path="url(#clip640)" d="M1614.06 1542.97 L1618.94 1542.97 L1618.94 1548.85 L1614.06 1548.85 L1614.06 1542.97 Z" fill="#000000" fill-rule="nonzero" fill-opacity="1" /><path clip-path="url(#clip640)" d="M1639.13 1517.37 Q1635.52 1517.37 1633.69 1520.93 Q1631.88 1524.47 1631.88 1531.6 Q1631.88 1538.71 1633.69 1542.27 Q1635.52 1545.82 1639.13 1545.82 Q1642.76 1545.82 1644.57 1542.27 Q1646.4 1538.71 1646.4 1531.6 Q1646.4 1524.47 1644.57 1520.93 Q1642.76 1517.37 1639.13 1517.37 M1639.13 1513.66 Q1644.94 1513.66 1648 1518.27 Q1651.07 1522.85 1651.07 1531.6 Q1651.07 1540.33 1648 1544.94 Q1644.94 1549.52 1639.13 1549.52 Q1633.32 1549.52 1630.24 1544.94 Q1627.19 1540.33 1627.19 1531.6 Q1627.19 1522.85 1630.24 1518.27 Q1633.32 1513.66 1639.13 1513.66 Z" fill="#000000" fill-rule="nonzero" fill-opacity="1" /><path clip-path="url(#clip640)" d="M2076.48 1517.37 Q2072.87 1517.37 2071.04 1520.93 Q2069.23 1524.47 2069.23 1531.6 Q2069.23 1538.71 2071.04 1542.27 Q2072.87 1545.82 2076.48 1545.82 Q2080.11 1545.82 2081.92 1542.27 Q2083.75 1538.71 2083.75 1531.6 Q2083.75 1524.47 2081.92 1520.93 Q2080.11 1517.37 2076.48 1517.37 M2076.48 1513.66 Q2082.29 1513.66 2085.34 1518.27 Q2088.42 1522.85 2088.42 1531.6 Q2088.42 1540.33 2085.34 1544.94 Q2082.29 1549.52 2076.48 1549.52 Q2070.67 1549.52 2067.59 1544.94 Q2064.53 1540.33 2064.53 1531.6 Q2064.53 1522.85 2067.59 1518.27 Q2070.67 1513.66 2076.48 1513.66 Z" fill="#000000" fill-rule="nonzero" fill-opacity="1" /><path clip-path="url(#clip640)" d="M2096.64 1542.97 L2101.52 1542.97 L2101.52 1548.85 L2096.64 1548.85 L2096.64 1542.97 Z" fill="#000000" fill-rule="nonzero" fill-opacity="1" /><path clip-path="url(#clip640)" d="M2111.76 1514.29 L2130.11 1514.29 L2130.11 1518.22 L2116.04 1518.22 L2116.04 1526.7 Q2117.06 1526.35 2118.07 1526.19 Q2119.09 1526 2120.11 1526 Q2125.9 1526 2129.28 1529.17 Q2132.66 1532.34 2132.66 1537.76 Q2132.66 1543.34 2129.19 1546.44 Q2125.71 1549.52 2119.39 1549.52 Q2117.22 1549.52 2114.95 1549.15 Q2112.7 1548.78 2110.3 1548.04 L2110.3 1543.34 Q2112.38 1544.47 2114.6 1545.03 Q2116.82 1545.58 2119.3 1545.58 Q2123.31 1545.58 2125.64 1543.48 Q2127.98 1541.37 2127.98 1537.76 Q2127.98 1534.15 2125.64 1532.04 Q2123.31 1529.94 2119.3 1529.94 Q2117.43 1529.94 2115.55 1530.35 Q2113.7 1530.77 2111.76 1531.65 L2111.76 1514.29 Z" fill="#000000" fill-rule="nonzero" fill-opacity="1" /><polyline clip-path="url(#clip642)" style="stroke:#000000; stroke-linecap:round; stroke-linejoin:round; stroke-width:2; stroke-opacity:0.1; fill:none" points="112.177,1477.82 2352.76,1477.82 "/>
<polyline clip-path="url(#clip642)" style="stroke:#000000; stroke-linecap:round; stroke-linejoin:round; stroke-width:2; stroke-opacity:0.1; fill:none" points="112.177,1150.57 2352.76,1150.57 "/>
<polyline clip-path="url(#clip642)" style="stroke:#000000; stroke-linecap:round; stroke-linejoin:round; stroke-width:2; stroke-opacity:0.1; fill:none" points="112.177,823.32 2352.76,823.32 "/>
<polyline clip-path="url(#clip642)" style="stroke:#000000; stroke-linecap:round; stroke-linejoin:round; stroke-width:2; stroke-opacity:0.1; fill:none" points="112.177,496.071 2352.76,496.071 "/>
<polyline clip-path="url(#clip642)" style="stroke:#000000; stroke-linecap:round; stroke-linejoin:round; stroke-width:2; stroke-opacity:0.1; fill:none" points="112.177,168.822 2352.76,168.822 "/>
<polyline clip-path="url(#clip640)" style="stroke:#000000; stroke-linecap:round; stroke-linejoin:round; stroke-width:4; stroke-opacity:1; fill:none" points="112.177,1486.45 112.177,47.2441 "/>
<polyline clip-path="url(#clip640)" style="stroke:#000000; stroke-linecap:round; stroke-linejoin:round; stroke-width:4; stroke-opacity:1; fill:none" points="112.177,1477.82 131.075,1477.82 "/>
<polyline clip-path="url(#clip640)" style="stroke:#000000; stroke-linecap:round; stroke-linejoin:round; stroke-width:4; stroke-opacity:1; fill:none" points="112.177,1150.57 131.075,1150.57 "/>
<polyline clip-path="url(#clip640)" style="stroke:#000000; stroke-linecap:round; stroke-linejoin:round; stroke-width:4; stroke-opacity:1; fill:none" points="112.177,823.32 131.075,823.32 "/>
<polyline clip-path="url(#clip640)" style="stroke:#000000; stroke-linecap:round; stroke-linejoin:round; stroke-width:4; stroke-opacity:1; fill:none" points="112.177,496.071 131.075,496.071 "/>
<polyline clip-path="url(#clip640)" style="stroke:#000000; stroke-linecap:round; stroke-linejoin:round; stroke-width:4; stroke-opacity:1; fill:none" points="112.177,168.822 131.075,168.822 "/>
<path clip-path="url(#clip640)" d="M64.2328 1463.62 Q60.6217 1463.62 58.793 1467.18 Q56.9875 1470.72 56.9875 1477.85 Q56.9875 1484.96 58.793 1488.52 Q60.6217 1492.07 64.2328 1492.07 Q67.867 1492.07 69.6726 1488.52 Q71.5013 1484.96 71.5013 1477.85 Q71.5013 1470.72 69.6726 1467.18 Q67.867 1463.62 64.2328 1463.62 M64.2328 1459.91 Q70.0429 1459.91 73.0985 1464.52 Q76.1772 1469.1 76.1772 1477.85 Q76.1772 1486.58 73.0985 1491.19 Q70.0429 1495.77 64.2328 1495.77 Q58.4226 1495.77 55.344 1491.19 Q52.2884 1486.58 52.2884 1477.85 Q52.2884 1469.1 55.344 1464.52 Q58.4226 1459.91 64.2328 1459.91 Z" fill="#000000" fill-rule="nonzero" fill-opacity="1" /><path clip-path="url(#clip640)" d="M59.8578 1163.91 L76.1772 1163.91 L76.1772 1167.85 L54.2328 1167.85 L54.2328 1163.91 Q56.8949 1161.16 61.4782 1156.53 Q66.0846 1151.88 67.2652 1150.53 Q69.5105 1148.01 70.3902 1146.27 Q71.2929 1144.52 71.2929 1142.83 Q71.2929 1140.07 69.3485 1138.33 Q67.4272 1136.6 64.3254 1136.6 Q62.1263 1136.6 59.6726 1137.36 Q57.2421 1138.13 54.4643 1139.68 L54.4643 1134.96 Q57.2884 1133.82 59.7421 1133.24 Q62.1958 1132.66 64.2328 1132.66 Q69.6031 1132.66 72.7976 1135.35 Q75.992 1138.03 75.992 1142.52 Q75.992 1144.65 75.1818 1146.58 Q74.3948 1148.47 72.2883 1151.07 Q71.7096 1151.74 68.6078 1154.96 Q65.5059 1158.15 59.8578 1163.91 Z" fill="#000000" fill-rule="nonzero" fill-opacity="1" /><path clip-path="url(#clip640)" d="M66.5939 810.114 L54.7884 828.563 L66.5939 828.563 L66.5939 810.114 M65.367 806.04 L71.2466 806.04 L71.2466 828.563 L76.1772 828.563 L76.1772 832.452 L71.2466 832.452 L71.2466 840.6 L66.5939 840.6 L66.5939 832.452 L50.9921 832.452 L50.9921 827.938 L65.367 806.04 Z" fill="#000000" fill-rule="nonzero" fill-opacity="1" /><path clip-path="url(#clip640)" d="M64.6495 494.207 Q61.5013 494.207 59.6495 496.36 Q57.8208 498.513 57.8208 502.263 Q57.8208 505.99 59.6495 508.166 Q61.5013 510.319 64.6495 510.319 Q67.7976 510.319 69.6263 508.166 Q71.4781 505.99 71.4781 502.263 Q71.4781 498.513 69.6263 496.36 Q67.7976 494.207 64.6495 494.207 M73.9318 479.555 L73.9318 483.814 Q72.1726 482.981 70.367 482.541 Q68.5846 482.101 66.8254 482.101 Q62.1958 482.101 59.7421 485.226 Q57.3115 488.351 56.9643 494.67 Q58.33 492.657 60.3902 491.592 Q62.4504 490.504 64.9272 490.504 Q70.1355 490.504 73.1448 493.675 Q76.1772 496.823 76.1772 502.263 Q76.1772 507.587 73.029 510.805 Q69.8809 514.022 64.6495 514.022 Q58.6541 514.022 55.4828 509.439 Q52.3116 504.832 52.3116 496.106 Q52.3116 487.911 56.2004 483.05 Q60.0893 478.166 66.6402 478.166 Q68.3994 478.166 70.1818 478.513 Q71.9874 478.86 73.9318 479.555 Z" fill="#000000" fill-rule="nonzero" fill-opacity="1" /><path clip-path="url(#clip640)" d="M64.3254 169.69 Q60.9921 169.69 59.0708 171.473 Q57.1726 173.255 57.1726 176.38 Q57.1726 179.505 59.0708 181.287 Q60.9921 183.07 64.3254 183.07 Q67.6587 183.07 69.58 181.287 Q71.5013 179.482 71.5013 176.38 Q71.5013 173.255 69.58 171.473 Q67.6819 169.69 64.3254 169.69 M59.6495 167.699 Q56.6402 166.959 54.9504 164.898 Q53.2838 162.838 53.2838 159.875 Q53.2838 155.732 56.2236 153.324 Q59.1865 150.917 64.3254 150.917 Q69.4874 150.917 72.4272 153.324 Q75.367 155.732 75.367 159.875 Q75.367 162.838 73.6772 164.898 Q72.0105 166.959 69.0244 167.699 Q72.404 168.486 74.279 170.778 Q76.1772 173.07 76.1772 176.38 Q76.1772 181.403 73.0985 184.088 Q70.0429 186.773 64.3254 186.773 Q58.6078 186.773 55.5291 184.088 Q52.4736 181.403 52.4736 176.38 Q52.4736 173.07 54.3717 170.778 Q56.2699 168.486 59.6495 167.699 M57.9365 160.315 Q57.9365 163 59.6032 164.505 Q61.293 166.01 64.3254 166.01 Q67.3346 166.01 69.0244 164.505 Q70.7374 163 70.7374 160.315 Q70.7374 157.63 69.0244 156.125 Q67.3346 154.621 64.3254 154.621 Q61.293 154.621 59.6032 156.125 Q57.9365 157.63 57.9365 160.315 Z" fill="#000000" fill-rule="nonzero" fill-opacity="1" /><circle clip-path="url(#clip642)" cx="2289.34" cy="1331.88" r="14.4" fill="#808080" fill-rule="evenodd" fill-opacity="1" stroke="#000000" stroke-opacity="1" stroke-width="3.2"/>
<circle clip-path="url(#clip642)" cx="175.59" cy="87.9763" r="14.4" fill="#808080" fill-rule="evenodd" fill-opacity="1" stroke="#000000" stroke-opacity="1" stroke-width="3.2"/>
<circle clip-path="url(#clip642)" cx="1657.57" cy="1445.72" r="14.4" fill="#808080" fill-rule="evenodd" fill-opacity="1" stroke="#000000" stroke-opacity="1" stroke-width="3.2"/>
<circle clip-path="url(#clip642)" cx="1498.32" cy="1426.73" r="14.4" fill="#808080" fill-rule="evenodd" fill-opacity="1" stroke="#000000" stroke-opacity="1" stroke-width="3.2"/>
<path clip-path="url(#clip640)" d="M2293.64 1339.32 Q2284.6 1339.32 2281.12 1341.38 Q2277.64 1343.45 2277.64 1348.43 Q2277.64 1352.4 2280.23 1354.75 Q2282.86 1357.06 2287.36 1357.06 Q2293.56 1357.06 2297.28 1352.68 Q2301.05 1348.27 2301.05 1340.98 L2301.05 1339.32 L2293.64 1339.32 M2308.5 1336.24 L2308.5 1362.12 L2301.05 1362.12 L2301.05 1355.24 Q2298.5 1359.37 2294.69 1361.35 Q2290.88 1363.3 2285.37 1363.3 Q2278.41 1363.3 2274.27 1359.41 Q2270.18 1355.48 2270.18 1348.92 Q2270.18 1341.26 2275.29 1337.37 Q2280.43 1333.48 2290.6 1333.48 L2301.05 1333.48 L2301.05 1332.75 Q2301.05 1327.61 2297.65 1324.81 Q2294.29 1321.98 2288.17 1321.98 Q2284.28 1321.98 2280.59 1322.91 Q2276.91 1323.84 2273.5 1325.7 L2273.5 1318.82 Q2277.6 1317.24 2281.44 1316.47 Q2285.29 1315.66 2288.94 1315.66 Q2298.78 1315.66 2303.64 1320.76 Q2308.5 1325.87 2308.5 1336.24 Z" fill="#000000" fill-rule="nonzero" fill-opacity="1" /><path clip-path="url(#clip640)" d="M188.148 95.5717 Q188.148 87.3484 184.745 82.6898 Q181.383 77.9908 175.468 77.9908 Q169.554 77.9908 166.151 82.6898 Q162.789 87.3484 162.789 95.5717 Q162.789 103.795 166.151 108.494 Q169.554 113.153 175.468 113.153 Q181.383 113.153 184.745 108.494 Q188.148 103.795 188.148 95.5717 M162.789 79.7327 Q165.138 75.6818 168.703 73.7373 Q172.309 71.7524 177.291 71.7524 Q185.555 71.7524 190.7 78.3149 Q195.885 84.8773 195.885 95.5717 Q195.885 106.266 190.7 112.829 Q185.555 119.391 177.291 119.391 Q172.309 119.391 168.703 117.447 Q165.138 115.462 162.789 111.411 L162.789 118.216 L155.295 118.216 L155.295 55.1842 L162.789 55.1842 L162.789 79.7327 Z" fill="#000000" fill-rule="nonzero" fill-opacity="1" /><path clip-path="url(#clip640)" d="M1675.52 1432.33 L1675.52 1439.3 Q1672.36 1437.55 1669.16 1436.7 Q1666 1435.81 1662.76 1435.81 Q1655.51 1435.81 1651.5 1440.43 Q1647.49 1445.01 1647.49 1453.31 Q1647.49 1461.62 1651.5 1466.23 Q1655.51 1470.81 1662.76 1470.81 Q1666 1470.81 1669.16 1469.96 Q1672.36 1469.07 1675.52 1467.33 L1675.52 1474.21 Q1672.4 1475.67 1669.04 1476.4 Q1665.72 1477.13 1661.95 1477.13 Q1651.7 1477.13 1645.66 1470.69 Q1639.63 1464.25 1639.63 1453.31 Q1639.63 1442.21 1645.71 1435.85 Q1651.82 1429.49 1662.44 1429.49 Q1665.88 1429.49 1669.16 1430.22 Q1672.44 1430.91 1675.52 1432.33 Z" fill="#000000" fill-rule="nonzero" fill-opacity="1" /><path clip-path="url(#clip640)" d="M1511.14 1418.49 L1511.14 1393.94 L1518.6 1393.94 L1518.6 1456.97 L1511.14 1456.97 L1511.14 1450.17 Q1508.79 1454.22 1505.19 1456.2 Q1501.62 1458.15 1496.6 1458.15 Q1488.38 1458.15 1483.19 1451.59 Q1478.05 1445.02 1478.05 1434.33 Q1478.05 1423.63 1483.19 1417.07 Q1488.38 1410.51 1496.6 1410.51 Q1501.62 1410.51 1505.19 1412.49 Q1508.79 1414.44 1511.14 1418.49 M1485.74 1434.33 Q1485.74 1442.55 1489.11 1447.25 Q1492.51 1451.91 1498.42 1451.91 Q1504.34 1451.91 1507.74 1447.25 Q1511.14 1442.55 1511.14 1434.33 Q1511.14 1426.11 1507.74 1421.45 Q1504.34 1416.75 1498.42 1416.75 Q1492.51 1416.75 1489.11 1421.45 Q1485.74 1426.11 1485.74 1434.33 Z" fill="#000000" fill-rule="nonzero" fill-opacity="1" /><path clip-path="url(#clip640)" d="M2001.58 198.898 L2278.07 198.898 L2278.07 95.2176 L2001.58 95.2176  Z" fill="#ffffff" fill-rule="evenodd" fill-opacity="1"/>
<polyline clip-path="url(#clip640)" style="stroke:#000000; stroke-linecap:round; stroke-linejoin:round; stroke-width:4; stroke-opacity:1; fill:none" points="2001.58,198.898 2278.07,198.898 2278.07,95.2176 2001.58,95.2176 2001.58,198.898 "/>
<circle clip-path="url(#clip640)" cx="2101.16" cy="147.058" r="20.48" fill="#808080" fill-rule="evenodd" fill-opacity="1" stroke="#000000" stroke-opacity="1" stroke-width="4.55111"/>
<path clip-path="url(#clip640)" d="M2214.59 166.745 Q2212.78 171.375 2211.07 172.787 Q2209.36 174.199 2206.49 174.199 L2203.08 174.199 L2203.08 170.634 L2205.58 170.634 Q2207.34 170.634 2208.31 169.8 Q2209.29 168.967 2210.47 165.865 L2211.23 163.921 L2200.74 138.412 L2205.26 138.412 L2213.36 158.689 L2221.46 138.412 L2225.98 138.412 L2214.59 166.745 Z" fill="#000000" fill-rule="nonzero" fill-opacity="1" /><path clip-path="url(#clip640)" d="M2233.27 160.402 L2240.91 160.402 L2240.91 134.037 L2232.6 135.703 L2232.6 131.444 L2240.86 129.778 L2245.54 129.778 L2245.54 160.402 L2253.17 160.402 L2253.17 164.338 L2233.27 164.338 L2233.27 160.402 Z" fill="#000000" fill-rule="nonzero" fill-opacity="1" /></svg>
