<?xml version="1.0" encoding="utf-8"?>
<svg xmlns="http://www.w3.org/2000/svg" xmlns:xlink="http://www.w3.org/1999/xlink" width="600" height="400" viewBox="0 0 2400 1600">
<defs>
  <clipPath id="clip580">
    <rect x="0" y="0" width="2400" height="1600"/>
  </clipPath>
</defs>
<path clip-path="url(#clip580)" d="M0 1600 L2400 1600 L2400 0 L0 0  Z" fill="#ffffff" fill-rule="evenodd" fill-opacity="1"/>
<defs>
  <clipPath id="clip581">
    <rect x="480" y="0" width="1681" height="1600"/>
  </clipPath>
</defs>
<path clip-path="url(#clip580)" d="M156.598 1486.45 L2352.76 1486.45 L2352.76 47.2441 L156.598 47.2441  Z" fill="#ffffff" fill-rule="evenodd" fill-opacity="1"/>
<defs>
  <clipPath id="clip582">
    <rect x="156" y="47" width="2197" height="1440"/>
  </clipPath>
</defs>
<polyline clip-path="url(#clip582)" style="stroke:#000000; stroke-linecap:round; stroke-linejoin:round; stroke-width:2; stroke-opacity:0.1; fill:none" points="548.105,1486.45 548.105,47.2441 "/>
<polyline clip-path="url(#clip582)" style="stroke:#000000; stroke-linecap:round; stroke-linejoin:round; stroke-width:2; stroke-opacity:0.1; fill:none" points="1005.43,1486.45 1005.43,47.2441 "/>
<polyline clip-path="url(#clip582)" style="stroke:#000000; stroke-linecap:round; stroke-linejoin:round; stroke-width:2; stroke-opacity:0.1; fill:none" points="1462.75,1486.45 1462.75,47.2441 "/>
<polyline clip-path="url(#clip582)" style="stroke:#000000; stroke-linecap:round; stroke-linejoin:round; stroke-width:2; stroke-opacity:0.1; fill:none" points="1920.07,1486.45 1920.07,47.2441 "/>
<polyline clip-path="url(#clip580)" style="stroke:#000000; stroke-linecap:round; stroke-linejoin:round; stroke-width:4; stroke-opacity:1; fill:none" points="156.598,1486.45 2352.76,1486.45 "/>
<polyline clip-path="url(#clip580)" style="stroke:#000000; stroke-linecap:round; stroke-linejoin:round; stroke-width:4; stroke-opacity:1; fill:none" points="548.105,1486.45 548.105,1467.55 "/>
<polyline clip-path="url(#clip580)" style="stroke:#000000; stroke-linecap:round; stroke-linejoin:round; stroke-width:4; stroke-opacity:1; fill:none" points="1005.43,1486.45 1005.43,1467.55 "/>
<polyline clip-path="url(#clip580)" style="stroke:#000000; stroke-linecap:round; stroke-linejoin:round; stroke-width:4; stroke-opacity:1; fill:none" points="1462.75,1486.45 1462.75,1467.55 "/>
<polyline clip-path="url(#clip580)" style="stroke:#000000; stroke-linecap:round; stroke-linejoin:round; stroke-width:4; stroke-opacity:1; fill:none" points="1920.07,1486.45 1920.07,1467.55 "/>
<path clip-path="url(#clip580)" d="M494.39 1532.02 L524.066 1532.02 L524.066 1535.95 L494.39 1535.95 L494.39 1532.02 Z" fill="#000000" fill-rule="nonzero" fill-opacity="1" /><path clip-path="url(#clip580)" d="M544.158 1517.37 Q540.547 1517.37 538.718 1520.93 Q536.913 1524.47 536.913 1531.6 Q536.913 1538.71 538.718 1542.27 Q540.547 1545.82 544.158 1545.82 Q547.793 1545.82 549.598 1542.27 Q551.427 1538.71 551.427 1531.6 Q551.427 1524.47 549.598 1520.93 Q547.793 1517.37 544.158 1517.37 M544.158 1513.66 Q549.968 1513.66 553.024 1518.27 Q556.103 1522.85 556.103 1531.6 Q556.103 1540.33 553.024 1544.94 Q549.968 1549.52 544.158 1549.52 Q538.348 1549.52 535.269 1544.94 Q532.214 1540.33 532.214 1531.6 Q532.214 1522.85 535.269 1518.27 Q538.348 1513.66 544.158 1513.66 Z" fill="#000000" fill-rule="nonzero" fill-opacity="1" /><path clip-path="url(#clip580)" d="M564.32 1542.97 L569.204 1542.97 L569.204 1548.85 L564.32 1548.85 L564.32 1542.97 Z" fill="#000000" fill-rule="nonzero" fill-opacity="1" /><path clip-path="url(#clip580)" d="M592.237 1518.36 L580.431 1536.81 L592.237 1536.81 L592.237 1518.36 M591.01 1514.29 L596.889 1514.29 L596.889 1536.81 L601.82 1536.81 L601.82 1540.7 L596.889 1540.7 L596.889 1548.85 L592.237 1548.85 L592.237 1540.7 L576.635 1540.7 L576.635 1536.19 L591.01 1514.29 Z" fill="#000000" fill-rule="nonzero" fill-opacity="1" /><path clip-path="url(#clip580)" d="M952.752 1532.02 L982.428 1532.02 L982.428 1535.95 L952.752 1535.95 L952.752 1532.02 Z" fill="#000000" fill-rule="nonzero" fill-opacity="1" /><path clip-path="url(#clip580)" d="M1002.52 1517.37 Q998.909 1517.37 997.081 1520.93 Q995.275 1524.47 995.275 1531.6 Q995.275 1538.71 997.081 1542.27 Q998.909 1545.82 1002.52 1545.82 Q1006.15 1545.82 1007.96 1542.27 Q1009.79 1538.71 1009.79 1531.6 Q1009.79 1524.47 1007.96 1520.93 Q1006.15 1517.37 1002.52 1517.37 M1002.52 1513.66 Q1008.33 1513.66 1011.39 1518.27 Q1014.46 1522.85 1014.46 1531.6 Q1014.46 1540.33 1011.39 1544.94 Q1008.33 1549.52 1002.52 1549.52 Q996.71 1549.52 993.632 1544.94 Q990.576 1540.33 990.576 1531.6 Q990.576 1522.85 993.632 1518.27 Q996.71 1513.66 1002.52 1513.66 Z" fill="#000000" fill-rule="nonzero" fill-opacity="1" /><path clip-path="url(#clip580)" d="M1022.68 1542.97 L1027.57 1542.97 L1027.57 1548.85 L1022.68 1548.85 L1022.68 1542.97 Z" fill="#000000" fill-rule="nonzero" fill-opacity="1" /><path clip-path="url(#clip580)" d="M1041.78 1544.91 L1058.1 1544.91 L1058.1 1548.85 L1036.15 1548.85 L1036.15 1544.91 Q1038.82 1542.16 1043.4 1537.53 Q1048.01 1532.88 1049.19 1531.53 Q1051.43 1529.01 1052.31 1527.27 Q1053.21 1525.51 1053.21 1523.82 Q1053.21 1521.07 1051.27 1519.33 Q1049.35 1517.6 1046.25 1517.6 Q1044.05 1517.6 1041.59 1518.36 Q1039.16 1519.13 1036.39 1520.68 L1036.39 1515.95 Q1039.21 1514.82 1041.66 1514.24 Q1044.12 1513.66 1046.15 1513.66 Q1051.52 1513.66 1054.72 1516.35 Q1057.91 1519.03 1057.91 1523.52 Q1057.91 1525.65 1057.1 1527.57 Q1056.32 1529.47 1054.21 1532.07 Q1053.63 1532.74 1050.53 1535.95 Q1047.43 1539.15 1041.78 1544.91 Z" fill="#000000" fill-rule="nonzero" fill-opacity="1" /><path clip-path="url(#clip580)" d="M1440.13 1517.37 Q1436.52 1517.37 1434.69 1520.93 Q1432.88 1524.47 1432.88 1531.6 Q1432.88 1538.71 1434.69 1542.27 Q1436.52 1545.82 1440.13 1545.82 Q1443.76 1545.82 1445.57 1542.27 Q1447.4 1538.71 1447.4 1531.6 Q1447.4 1524.47 1445.57 1520.93 Q1443.76 1517.37 1440.13 1517.37 M1440.13 1513.66 Q1445.94 1513.66 1449 1518.27 Q1452.07 1522.85 1452.07 1531.6 Q1452.07 1540.33 1449 1544.94 Q1445.94 1549.52 1440.13 1549.52 Q1434.32 1549.52 1431.24 1544.94 Q1428.19 1540.33 1428.19 1531.6 Q1428.19 1522.85 1431.24 1518.27 Q1434.32 1513.66 1440.13 1513.66 Z" fill="#000000" fill-rule="nonzero" fill-opacity="1" /><path clip-path="url(#clip580)" d="M1460.29 1542.97 L1465.18 1542.97 L1465.18 1548.85 L1460.29 1548.85 L1460.29 1542.97 Z" fill="#000000" fill-rule="nonzero" fill-opacity="1" /><path clip-path="url(#clip580)" d="M1485.36 1517.37 Q1481.75 1517.37 1479.92 1520.93 Q1478.12 1524.47 1478.12 1531.6 Q1478.12 1538.71 1479.92 1542.27 Q1481.75 1545.82 1485.36 1545.82 Q1489 1545.82 1490.8 1542.27 Q1492.63 1538.71 1492.63 1531.6 Q1492.63 1524.47 1490.8 1520.93 Q1489 1517.37 1485.36 1517.37 M1485.36 1513.66 Q1491.17 1513.66 1494.23 1518.27 Q1497.31 1522.85 1497.31 1531.6 Q1497.31 1540.33 1494.23 1544.94 Q1491.17 1549.52 1485.36 1549.52 Q1479.55 1549.52 1476.47 1544.94 Q1473.42 1540.33 1473.42 1531.6 Q1473.42 1522.85 1476.47 1518.27 Q1479.55 1513.66 1485.36 1513.66 Z" fill="#000000" fill-rule="nonzero" fill-opacity="1" /><path clip-path="url(#clip580)" d="M1898.25 1517.37 Q1894.64 1517.37 1892.81 1520.93 Q1891 1524.47 1891 1531.6 Q1891 1538.71 1892.81 1542.27 Q1894.64 1545.82 1898.25 1545.82 Q1901.88 1545.82 1903.69 1542.27 Q1905.52 1538.71 1905.52 1531.6 Q1905.52 1524.47 1903.69 1520.93 Q1901.88 1517.37 1898.25 1517.37 M1898.25 1513.66 Q1904.06 1513.66 1907.11 1518.27 Q1910.19 1522.85 1910.19 1531.6 Q1910.19 1540.33 1907.11 1544.94 Q1904.06 1549.52 1898.25 1549.52 Q1892.44 1549.52 1889.36 1544.94 Q1886.3 1540.33 1886.3 1531.6 Q1886.3 1522.85 1889.36 1518.27 Q1892.44 1513.66 1898.25 1513.66 Z" fill="#000000" fill-rule="nonzero" fill-opacity="1" /><path clip-path="url(#clip580)" d="M1918.41 1542.97 L1923.3 1542.97 L1923.3 1548.85 L1918.41 1548.85 L1918.41 1542.97 Z" fill="#000000" fill-rule="nonzero" fill-opacity="1" /><path clip-path="url(#clip580)" d="M1937.51 1544.91 L1953.83 1544.91 L1953.83 1548.85 L1931.88 1548.85 L1931.88 1544.91 Q1934.55 1542.16 1939.13 1537.53 Q1943.74 1532.88 1944.92 1531.53 Q1947.16 1529.01 1948.04 1527.27 Q1948.94 1525.51 1948.94 1523.82 Q1948.94 1521.07 1947 1519.33 Q1945.08 1517.6 1941.98 1517.6 Q1939.78 1517.6 1937.32 1518.36 Q1934.89 1519.13 1932.11 1520.68 L1932.11 1515.95 Q1934.94 1514.82 1937.39 1514.24 Q1939.85 1513.66 1941.88 1513.66 Q1947.25 1513.66 1950.45 1516.35 Q1953.64 1519.03 1953.64 1523.52 Q1953.64 1525.65 1952.83 1527.57 Q1952.05 1529.47 1949.94 1532.07 Q1949.36 1532.74 1946.26 1535.95 Q1943.16 1539.15 1937.51 1544.91 Z" fill="#000000" fill-rule="nonzero" fill-opacity="1" /><polyline clip-path="url(#clip582)" style="stroke:#000000; stroke-linecap:round; stroke-linejoin:round; stroke-width:2; stroke-opacity:0.1; fill:none" points="156.598,1452.9 2352.76,1452.9 "/>
<polyline clip-path="url(#clip582)" style="stroke:#000000; stroke-linecap:round; stroke-linejoin:round; stroke-width:2; stroke-opacity:0.1; fill:none" points="156.598,1152.71 2352.76,1152.71 "/>
<polyline clip-path="url(#clip582)" style="stroke:#000000; stroke-linecap:round; stroke-linejoin:round; stroke-width:2; stroke-opacity:0.1; fill:none" points="156.598,852.524 2352.76,852.524 "/>
<polyline clip-path="url(#clip582)" style="stroke:#000000; stroke-linecap:round; stroke-linejoin:round; stroke-width:2; stroke-opacity:0.1; fill:none" points="156.598,552.338 2352.76,552.338 "/>
<polyline clip-path="url(#clip582)" style="stroke:#000000; stroke-linecap:round; stroke-linejoin:round; stroke-width:2; stroke-opacity:0.1; fill:none" points="156.598,252.152 2352.76,252.152 "/>
<polyline clip-path="url(#clip580)" style="stroke:#000000; stroke-linecap:round; stroke-linejoin:round; stroke-width:4; stroke-opacity:1; fill:none" points="156.598,1486.45 156.598,47.2441 "/>
<polyline clip-path="url(#clip580)" style="stroke:#000000; stroke-linecap:round; stroke-linejoin:round; stroke-width:4; stroke-opacity:1; fill:none" points="156.598,1452.9 175.496,1452.9 "/>
<polyline clip-path="url(#clip580)" style="stroke:#000000; stroke-linecap:round; stroke-linejoin:round; stroke-width:4; stroke-opacity:1; fill:none" points="156.598,1152.71 175.496,1152.71 "/>
<polyline clip-path="url(#clip580)" style="stroke:#000000; stroke-linecap:round; stroke-linejoin:round; stroke-width:4; stroke-opacity:1; fill:none" points="156.598,852.524 175.496,852.524 "/>
<polyline clip-path="url(#clip580)" style="stroke:#000000; stroke-linecap:round; stroke-linejoin:round; stroke-width:4; stroke-opacity:1; fill:none" points="156.598,552.338 175.496,552.338 "/>
<polyline clip-path="url(#clip580)" style="stroke:#000000; stroke-linecap:round; stroke-linejoin:round; stroke-width:4; stroke-opacity:1; fill:none" points="156.598,252.152 175.496,252.152 "/>
<path clip-path="url(#clip580)" d="M63.4226 1438.69 Q59.8115 1438.69 57.9828 1442.26 Q56.1773 1445.8 56.1773 1452.93 Q56.1773 1460.04 57.9828 1463.6 Q59.8115 1467.14 63.4226 1467.14 Q67.0569 1467.14 68.8624 1463.6 Q70.6911 1460.04 70.6911 1452.93 Q70.6911 1445.8 68.8624 1442.26 Q67.0569 1438.69 63.4226 1438.69 M63.4226 1434.99 Q69.2328 1434.99 72.2883 1439.6 Q75.367 1444.18 75.367 1452.93 Q75.367 1461.66 72.2883 1466.26 Q69.2328 1470.85 63.4226 1470.85 Q57.6125 1470.85 54.5338 1466.26 Q51.4782 1461.66 51.4782 1452.93 Q51.4782 1444.18 54.5338 1439.6 Q57.6125 1434.99 63.4226 1434.99 Z" fill="#000000" fill-rule="nonzero" fill-opacity="1" /><path clip-path="url(#clip580)" d="M83.5845 1464.3 L88.4688 1464.3 L88.4688 1470.18 L83.5845 1470.18 L83.5845 1464.3 Z" fill="#000000" fill-rule="nonzero" fill-opacity="1" /><path clip-path="url(#clip580)" d="M108.654 1438.69 Q105.043 1438.69 103.214 1442.26 Q101.409 1445.8 101.409 1452.93 Q101.409 1460.04 103.214 1463.6 Q105.043 1467.14 108.654 1467.14 Q112.288 1467.14 114.094 1463.6 Q115.922 1460.04 115.922 1452.93 Q115.922 1445.8 114.094 1442.26 Q112.288 1438.69 108.654 1438.69 M108.654 1434.99 Q114.464 1434.99 117.52 1439.6 Q120.598 1444.18 120.598 1452.93 Q120.598 1461.66 117.52 1466.26 Q114.464 1470.85 108.654 1470.85 Q102.844 1470.85 99.765 1466.26 Q96.7095 1461.66 96.7095 1452.93 Q96.7095 1444.18 99.765 1439.6 Q102.844 1434.99 108.654 1434.99 Z" fill="#000000" fill-rule="nonzero" fill-opacity="1" /><path clip-path="url(#clip580)" d="M64.6495 1138.51 Q61.0384 1138.51 59.2097 1142.07 Q57.4041 1145.61 57.4041 1152.74 Q57.4041 1159.85 59.2097 1163.42 Q61.0384 1166.96 64.6495 1166.96 Q68.2837 1166.96 70.0892 1163.42 Q71.9179 1159.85 71.9179 1152.74 Q71.9179 1145.61 70.0892 1142.07 Q68.2837 1138.51 64.6495 1138.51 M64.6495 1134.8 Q70.4596 1134.8 73.5152 1139.41 Q76.5938 1143.99 76.5938 1152.74 Q76.5938 1161.47 73.5152 1166.08 Q70.4596 1170.66 64.6495 1170.66 Q58.8393 1170.66 55.7606 1166.08 Q52.7051 1161.47 52.7051 1152.74 Q52.7051 1143.99 55.7606 1139.41 Q58.8393 1134.8 64.6495 1134.8 Z" fill="#000000" fill-rule="nonzero" fill-opacity="1" /><path clip-path="url(#clip580)" d="M84.8114 1164.11 L89.6956 1164.11 L89.6956 1169.99 L84.8114 1169.99 L84.8114 1164.11 Z" fill="#000000" fill-rule="nonzero" fill-opacity="1" /><path clip-path="url(#clip580)" d="M100.691 1166.05 L108.33 1166.05 L108.33 1139.69 L100.02 1141.36 L100.02 1137.1 L108.283 1135.43 L112.959 1135.43 L112.959 1166.05 L120.598 1166.05 L120.598 1169.99 L100.691 1169.99 L100.691 1166.05 Z" fill="#000000" fill-rule="nonzero" fill-opacity="1" /><path clip-path="url(#clip580)" d="M65.0198 838.322 Q61.4087 838.322 59.58 841.887 Q57.7745 845.429 57.7745 852.558 Q57.7745 859.665 59.58 863.23 Q61.4087 866.771 65.0198 866.771 Q68.6541 866.771 70.4596 863.23 Q72.2883 859.665 72.2883 852.558 Q72.2883 845.429 70.4596 841.887 Q68.6541 838.322 65.0198 838.322 M65.0198 834.619 Q70.83 834.619 73.8855 839.225 Q76.9642 843.808 76.9642 852.558 Q76.9642 861.285 73.8855 865.892 Q70.83 870.475 65.0198 870.475 Q59.2097 870.475 56.131 865.892 Q53.0754 861.285 53.0754 852.558 Q53.0754 843.808 56.131 839.225 Q59.2097 834.619 65.0198 834.619 Z" fill="#000000" fill-rule="nonzero" fill-opacity="1" /><path clip-path="url(#clip580)" d="M85.1818 863.924 L90.066 863.924 L90.066 869.804 L85.1818 869.804 L85.1818 863.924 Z" fill="#000000" fill-rule="nonzero" fill-opacity="1" /><path clip-path="url(#clip580)" d="M104.279 865.868 L120.598 865.868 L120.598 869.804 L98.6539 869.804 L98.6539 865.868 Q101.316 863.114 105.899 858.484 Q110.506 853.831 111.686 852.489 Q113.932 849.966 114.811 848.23 Q115.714 846.47 115.714 844.781 Q115.714 842.026 113.77 840.29 Q111.848 838.554 108.746 838.554 Q106.547 838.554 104.094 839.318 Q101.663 840.082 98.8854 841.632 L98.8854 836.91 Q101.709 835.776 104.163 835.197 Q106.617 834.619 108.654 834.619 Q114.024 834.619 117.219 837.304 Q120.413 839.989 120.413 844.48 Q120.413 846.609 119.603 848.531 Q118.816 850.429 116.709 853.021 Q116.131 853.693 113.029 856.91 Q109.927 860.105 104.279 865.868 Z" fill="#000000" fill-rule="nonzero" fill-opacity="1" /><path clip-path="url(#clip580)" d="M64.0708 538.136 Q60.4597 538.136 58.631 541.701 Q56.8254 545.243 56.8254 552.372 Q56.8254 559.479 58.631 563.044 Q60.4597 566.585 64.0708 566.585 Q67.705 566.585 69.5105 563.044 Q71.3392 559.479 71.3392 552.372 Q71.3392 545.243 69.5105 541.701 Q67.705 538.136 64.0708 538.136 M64.0708 534.433 Q69.8809 534.433 72.9365 539.039 Q76.0151 543.622 76.0151 552.372 Q76.0151 561.099 72.9365 565.706 Q69.8809 570.289 64.0708 570.289 Q58.2606 570.289 55.1819 565.706 Q52.1264 561.099 52.1264 552.372 Q52.1264 543.622 55.1819 539.039 Q58.2606 534.433 64.0708 534.433 Z" fill="#000000" fill-rule="nonzero" fill-opacity="1" /><path clip-path="url(#clip580)" d="M84.2327 563.738 L89.1169 563.738 L89.1169 569.618 L84.2327 569.618 L84.2327 563.738 Z" fill="#000000" fill-rule="nonzero" fill-opacity="1" /><path clip-path="url(#clip580)" d="M113.469 550.983 Q116.825 551.701 118.7 553.97 Q120.598 556.238 120.598 559.571 Q120.598 564.687 117.08 567.488 Q113.561 570.289 107.08 570.289 Q104.904 570.289 102.589 569.849 Q100.297 569.432 97.8437 568.576 L97.8437 564.062 Q99.7882 565.196 102.103 565.775 Q104.418 566.354 106.941 566.354 Q111.339 566.354 113.631 564.618 Q115.945 562.882 115.945 559.571 Q115.945 556.516 113.793 554.803 Q111.663 553.067 107.844 553.067 L103.816 553.067 L103.816 549.224 L108.029 549.224 Q111.478 549.224 113.307 547.859 Q115.135 546.47 115.135 543.877 Q115.135 541.215 113.237 539.803 Q111.362 538.368 107.844 538.368 Q105.922 538.368 103.723 538.784 Q101.524 539.201 98.8854 540.081 L98.8854 535.914 Q101.547 535.173 103.862 534.803 Q106.2 534.433 108.26 534.433 Q113.584 534.433 116.686 536.863 Q119.788 539.271 119.788 543.391 Q119.788 546.261 118.145 548.252 Q116.501 550.22 113.469 550.983 Z" fill="#000000" fill-rule="nonzero" fill-opacity="1" /><path clip-path="url(#clip580)" d="M62.9365 237.95 Q59.3254 237.95 57.4967 241.515 Q55.6912 245.057 55.6912 252.186 Q55.6912 259.293 57.4967 262.858 Q59.3254 266.399 62.9365 266.399 Q66.5707 266.399 68.3763 262.858 Q70.205 259.293 70.205 252.186 Q70.205 245.057 68.3763 241.515 Q66.5707 237.95 62.9365 237.95 M62.9365 234.247 Q68.7467 234.247 71.8022 238.853 Q74.8809 243.436 74.8809 252.186 Q74.8809 260.913 71.8022 265.52 Q68.7467 270.103 62.9365 270.103 Q57.1264 270.103 54.0477 265.52 Q50.9921 260.913 50.9921 252.186 Q50.9921 243.436 54.0477 238.853 Q57.1264 234.247 62.9365 234.247 Z" fill="#000000" fill-rule="nonzero" fill-opacity="1" /><path clip-path="url(#clip580)" d="M83.0984 263.552 L87.9827 263.552 L87.9827 269.432 L83.0984 269.432 L83.0984 263.552 Z" fill="#000000" fill-rule="nonzero" fill-opacity="1" /><path clip-path="url(#clip580)" d="M111.015 238.946 L99.2095 257.395 L111.015 257.395 L111.015 238.946 M109.788 234.872 L115.668 234.872 L115.668 257.395 L120.598 257.395 L120.598 261.284 L115.668 261.284 L115.668 269.432 L111.015 269.432 L111.015 261.284 L95.4132 261.284 L95.4132 256.77 L109.788 234.872 Z" fill="#000000" fill-rule="nonzero" fill-opacity="1" /><circle clip-path="url(#clip582)" cx="1537.32" cy="1320.87" r="14.4" fill="#808080" fill-rule="evenodd" fill-opacity="1" stroke="#000000" stroke-opacity="1" stroke-width="3.2"/>
<circle clip-path="url(#clip582)" cx="1433.04" cy="1445.72" r="14.4" fill="#808080" fill-rule="evenodd" fill-opacity="1" stroke="#000000" stroke-opacity="1" stroke-width="3.2"/>
<circle clip-path="url(#clip582)" cx="2290.6" cy="1359.19" r="14.4" fill="#808080" fill-rule="evenodd" fill-opacity="1" stroke="#000000" stroke-opacity="1" stroke-width="3.2"/>
<circle clip-path="url(#clip582)" cx="218.754" cy="87.9763" r="14.4" fill="#808080" fill-rule="evenodd" fill-opacity="1" stroke="#000000" stroke-opacity="1" stroke-width="3.2"/>
<path clip-path="url(#clip580)" d="M1541.61 1328.3 Q1532.58 1328.3 1529.1 1330.36 Q1525.61 1332.43 1525.61 1337.41 Q1525.61 1341.38 1528.21 1343.73 Q1530.84 1346.04 1535.34 1346.04 Q1541.53 1346.04 1545.26 1341.67 Q1549.03 1337.25 1549.03 1329.96 L1549.03 1328.3 L1541.61 1328.3 M1556.48 1325.22 L1556.48 1351.11 L1549.03 1351.11 L1549.03 1344.22 Q1546.48 1348.35 1542.67 1350.34 Q1538.86 1352.28 1533.35 1352.28 Q1526.38 1352.28 1522.25 1348.39 Q1518.16 1344.46 1518.16 1337.9 Q1518.16 1330.24 1523.26 1326.35 Q1528.41 1322.47 1538.58 1322.47 L1549.03 1322.47 L1549.03 1321.74 Q1549.03 1316.59 1545.62 1313.8 Q1542.26 1310.96 1536.15 1310.96 Q1532.26 1310.96 1528.57 1311.89 Q1524.88 1312.82 1521.48 1314.69 L1521.48 1307.8 Q1525.57 1306.22 1529.42 1305.45 Q1533.27 1304.64 1536.92 1304.64 Q1546.76 1304.64 1551.62 1309.75 Q1556.48 1314.85 1556.48 1325.22 Z" fill="#000000" fill-rule="nonzero" fill-opacity="1" /><path clip-path="url(#clip580)" d="M1445.6 1453.31 Q1445.6 1445.09 1442.2 1440.43 Q1438.84 1435.73 1432.92 1435.73 Q1427.01 1435.73 1423.61 1440.43 Q1420.24 1445.09 1420.24 1453.31 Q1420.24 1461.53 1423.61 1466.23 Q1427.01 1470.89 1432.92 1470.89 Q1438.84 1470.89 1442.2 1466.23 Q1445.6 1461.53 1445.6 1453.31 M1420.24 1437.47 Q1422.59 1433.42 1426.16 1431.48 Q1429.76 1429.49 1434.75 1429.49 Q1443.01 1429.49 1448.15 1436.05 Q1453.34 1442.62 1453.34 1453.31 Q1453.34 1464.01 1448.15 1470.57 Q1443.01 1477.13 1434.75 1477.13 Q1429.76 1477.13 1426.16 1475.19 Q1422.59 1473.2 1420.24 1469.15 L1420.24 1475.96 L1412.75 1475.96 L1412.75 1412.92 L1420.24 1412.92 L1420.24 1437.47 Z" fill="#000000" fill-rule="nonzero" fill-opacity="1" /><path clip-path="url(#clip580)" d="M2308.55 1345.8 L2308.55 1352.77 Q2305.39 1351.03 2302.19 1350.17 Q2299.03 1349.28 2295.79 1349.28 Q2288.53 1349.28 2284.52 1353.9 Q2280.51 1358.48 2280.51 1366.78 Q2280.51 1375.09 2284.52 1379.71 Q2288.53 1384.28 2295.79 1384.28 Q2299.03 1384.28 2302.19 1383.43 Q2305.39 1382.54 2308.55 1380.8 L2308.55 1387.69 Q2305.43 1389.14 2302.06 1389.87 Q2298.74 1390.6 2294.98 1390.6 Q2284.73 1390.6 2278.69 1384.16 Q2272.65 1377.72 2272.65 1366.78 Q2272.65 1355.68 2278.73 1349.32 Q2284.85 1342.96 2295.46 1342.96 Q2298.9 1342.96 2302.19 1343.69 Q2305.47 1344.38 2308.55 1345.8 Z" fill="#000000" fill-rule="nonzero" fill-opacity="1" /><path clip-path="url(#clip580)" d="M231.575 79.7327 L231.575 55.1842 L239.028 55.1842 L239.028 118.216 L231.575 118.216 L231.575 111.411 Q229.225 115.462 225.62 117.447 Q222.055 119.391 217.032 119.391 Q208.809 119.391 203.624 112.829 Q198.479 106.266 198.479 95.5717 Q198.479 84.8773 203.624 78.3149 Q208.809 71.7524 217.032 71.7524 Q222.055 71.7524 225.62 73.7373 Q229.225 75.6818 231.575 79.7327 M206.176 95.5717 Q206.176 103.795 209.538 108.494 Q212.941 113.153 218.855 113.153 Q224.769 113.153 228.172 108.494 Q231.575 103.795 231.575 95.5717 Q231.575 87.3484 228.172 82.6898 Q224.769 77.9908 218.855 77.9908 Q212.941 77.9908 209.538 82.6898 Q206.176 87.3484 206.176 95.5717 Z" fill="#000000" fill-rule="nonzero" fill-opacity="1" /><path clip-path="url(#clip580)" d="M2007.5 198.898 L2279.55 198.898 L2279.55 95.2176 L2007.5 95.2176  Z" fill="#ffffff" fill-rule="evenodd" fill-opacity="1"/>
<polyline clip-path="url(#clip580)" style="stroke:#000000; stroke-linecap:round; stroke-linejoin:round; stroke-width:4; stroke-opacity:1; fill:none" points="2007.5,198.898 2279.55,198.898 2279.55,95.2176 2007.5,95.2176 2007.5,198.898 "/>
<circle clip-path="url(#clip580)" cx="2105.11" cy="147.058" r="20.48" fill="#808080" fill-rule="evenodd" fill-opacity="1" stroke="#000000" stroke-opacity="1" stroke-width="4.55111"/>
<path clip-path="url(#clip580)" d="M2216.56 166.745 Q2214.76 171.375 2213.04 172.787 Q2211.33 174.199 2208.46 174.199 L2205.06 174.199 L2205.06 170.634 L2207.56 170.634 Q2209.32 170.634 2210.29 169.8 Q2211.26 168.967 2212.44 165.865 L2213.2 163.921 L2202.72 138.412 L2207.23 138.412 L2215.33 158.689 L2223.44 138.412 L2227.95 138.412 L2216.56 166.745 Z" fill="#000000" fill-rule="nonzero" fill-opacity="1" /><path clip-path="url(#clip580)" d="M2235.24 160.402 L2242.88 160.402 L2242.88 134.037 L2234.57 135.703 L2234.57 131.444 L2242.83 129.778 L2247.51 129.778 L2247.51 160.402 L2255.15 160.402 L2255.15 164.338 L2235.24 164.338 L2235.24 160.402 Z" fill="#000000" fill-rule="nonzero" fill-opacity="1" /></svg>
