<?xml version="1.0" encoding="utf-8"?>
<svg xmlns="http://www.w3.org/2000/svg" xmlns:xlink="http://www.w3.org/1999/xlink" width="600" height="400" viewBox="0 0 2400 1600">
<defs>
  <clipPath id="clip710">
    <rect x="0" y="0" width="2400" height="1600"/>
  </clipPath>
</defs>
<path clip-path="url(#clip710)" d="M0 1600 L2400 1600 L2400 0 L0 0  Z" fill="#ffffff" fill-rule="evenodd" fill-opacity="1"/>
<defs>
  <clipPath id="clip711">
    <rect x="480" y="0" width="1681" height="1600"/>
  </clipPath>
</defs>
<path clip-path="url(#clip710)" d="M112.177 1486.45 L2352.76 1486.45 L2352.76 47.2441 L112.177 47.2441  Z" fill="#ffffff" fill-rule="evenodd" fill-opacity="1"/>
<defs>
  <clipPath id="clip712">
    <rect x="112" y="47" width="2242" height="1440"/>
  </clipPath>
</defs>
<polyline clip-path="url(#clip712)" style="stroke:#000000; stroke-linecap:round; stroke-linejoin:round; stroke-width:2; stroke-opacity:0.1; fill:none" points="397.889,1486.45 397.889,47.2441 "/>
<polyline clip-path="url(#clip712)" style="stroke:#000000; stroke-linecap:round; stroke-linejoin:round; stroke-width:2; stroke-opacity:0.1; fill:none" points="972.131,1486.45 972.131,47.2441 "/>
<polyline clip-path="url(#clip712)" style="stroke:#000000; stroke-linecap:round; stroke-linejoin:round; stroke-width:2; stroke-opacity:0.1; fill:none" points="1546.37,1486.45 1546.37,47.2441 "/>
<polyline clip-path="url(#clip712)" style="stroke:#000000; stroke-linecap:round; stroke-linejoin:round; stroke-width:2; stroke-opacity:0.1; fill:none" points="2120.62,1486.45 2120.62,47.2441 "/>
<polyline clip-path="url(#clip712)" style="stroke:#000000; stroke-linecap:round; stroke-linejoin:round; stroke-width:2; stroke-opacity:0.1; fill:none" points="112.177,1217.65 2352.76,1217.65 "/>
<polyline clip-path="url(#clip712)" style="stroke:#000000; stroke-linecap:round; stroke-linejoin:round; stroke-width:2; stroke-opacity:0.1; fill:none" points="112.177,943.253 2352.76,943.253 "/>
<polyline clip-path="url(#clip712)" style="stroke:#000000; stroke-linecap:round; stroke-linejoin:round; stroke-width:2; stroke-opacity:0.1; fill:none" points="112.177,668.854 2352.76,668.854 "/>
<polyline clip-path="url(#clip712)" style="stroke:#000000; stroke-linecap:round; stroke-linejoin:round; stroke-width:2; stroke-opacity:0.1; fill:none" points="112.177,394.454 2352.76,394.454 "/>
<polyline clip-path="url(#clip712)" style="stroke:#000000; stroke-linecap:round; stroke-linejoin:round; stroke-width:2; stroke-opacity:0.1; fill:none" points="112.177,120.055 2352.76,120.055 "/>
<polyline clip-path="url(#clip710)" style="stroke:#000000; stroke-linecap:round; stroke-linejoin:round; stroke-width:4; stroke-opacity:1; fill:none" points="112.177,1486.45 2352.76,1486.45 "/>
<polyline clip-path="url(#clip710)" style="stroke:#000000; stroke-linecap:round; stroke-linejoin:round; stroke-width:4; stroke-opacity:1; fill:none" points="397.889,1486.45 397.889,1467.55 "/>
<polyline clip-path="url(#clip710)" style="stroke:#000000; stroke-linecap:round; stroke-linejoin:round; stroke-width:4; stroke-opacity:1; fill:none" points="972.131,1486.45 972.131,1467.55 "/>
<polyline clip-path="url(#clip710)" style="stroke:#000000; stroke-linecap:round; stroke-linejoin:round; stroke-width:4; stroke-opacity:1; fill:none" points="1546.37,1486.45 1546.37,1467.55 "/>
<polyline clip-path="url(#clip710)" style="stroke:#000000; stroke-linecap:round; stroke-linejoin:round; stroke-width:4; stroke-opacity:1; fill:none" points="2120.62,1486.45 2120.62,1467.55 "/>
<path clip-path="url(#clip710)" d="M344.417 1532.02 L374.093 1532.02 L374.093 1535.95 L344.417 1535.95 L344.417 1532.02 Z" fill="#000000" fill-rule="nonzero" fill-opacity="1" /><path clip-path="url(#clip710)" d="M384.996 1544.91 L392.634 1544.91 L392.634 1518.55 L384.324 1520.21 L384.324 1515.95 L392.588 1514.29 L397.264 1514.29 L397.264 1544.91 L404.903 1544.91 L404.903 1548.85 L384.996 1548.85 L384.996 1544.91 Z" fill="#000000" fill-rule="nonzero" fill-opacity="1" /><path clip-path="url(#clip710)" d="M414.347 1542.97 L419.231 1542.97 L419.231 1548.85 L414.347 1548.85 L414.347 1542.97 Z" fill="#000000" fill-rule="nonzero" fill-opacity="1" /><path clip-path="url(#clip710)" d="M439.417 1517.37 Q435.805 1517.37 433.977 1520.93 Q432.171 1524.47 432.171 1531.6 Q432.171 1538.71 433.977 1542.27 Q435.805 1545.82 439.417 1545.82 Q443.051 1545.82 444.856 1542.27 Q446.685 1538.71 446.685 1531.6 Q446.685 1524.47 444.856 1520.93 Q443.051 1517.37 439.417 1517.37 M439.417 1513.66 Q445.227 1513.66 448.282 1518.27 Q451.361 1522.85 451.361 1531.6 Q451.361 1540.33 448.282 1544.94 Q445.227 1549.52 439.417 1549.52 Q433.606 1549.52 430.528 1544.94 Q427.472 1540.33 427.472 1531.6 Q427.472 1522.85 430.528 1518.27 Q433.606 1513.66 439.417 1513.66 Z" fill="#000000" fill-rule="nonzero" fill-opacity="1" /><path clip-path="url(#clip710)" d="M919.157 1532.02 L948.833 1532.02 L948.833 1535.95 L919.157 1535.95 L919.157 1532.02 Z" fill="#000000" fill-rule="nonzero" fill-opacity="1" /><path clip-path="url(#clip710)" d="M968.925 1517.37 Q965.314 1517.37 963.486 1520.93 Q961.68 1524.47 961.68 1531.6 Q961.68 1538.71 963.486 1542.27 Q965.314 1545.82 968.925 1545.82 Q972.56 1545.82 974.365 1542.27 Q976.194 1538.71 976.194 1531.6 Q976.194 1524.47 974.365 1520.93 Q972.56 1517.37 968.925 1517.37 M968.925 1513.66 Q974.736 1513.66 977.791 1518.27 Q980.87 1522.85 980.87 1531.6 Q980.87 1540.33 977.791 1544.94 Q974.736 1549.52 968.925 1549.52 Q963.115 1549.52 960.037 1544.94 Q956.981 1540.33 956.981 1531.6 Q956.981 1522.85 960.037 1518.27 Q963.115 1513.66 968.925 1513.66 Z" fill="#000000" fill-rule="nonzero" fill-opacity="1" /><path clip-path="url(#clip710)" d="M989.087 1542.97 L993.972 1542.97 L993.972 1548.85 L989.087 1548.85 L989.087 1542.97 Z" fill="#000000" fill-rule="nonzero" fill-opacity="1" /><path clip-path="url(#clip710)" d="M1004.2 1514.29 L1022.56 1514.29 L1022.56 1518.22 L1008.49 1518.22 L1008.49 1526.7 Q1009.5 1526.35 1010.52 1526.19 Q1011.54 1526 1012.56 1526 Q1018.35 1526 1021.73 1529.17 Q1025.11 1532.34 1025.11 1537.76 Q1025.11 1543.34 1021.63 1546.44 Q1018.16 1549.52 1011.84 1549.52 Q1009.67 1549.52 1007.4 1549.15 Q1005.15 1548.78 1002.74 1548.04 L1002.74 1543.34 Q1004.83 1544.47 1007.05 1545.03 Q1009.27 1545.58 1011.75 1545.58 Q1015.75 1545.58 1018.09 1543.48 Q1020.43 1541.37 1020.43 1537.76 Q1020.43 1534.15 1018.09 1532.04 Q1015.75 1529.94 1011.75 1529.94 Q1009.87 1529.94 1008 1530.35 Q1006.15 1530.77 1004.2 1531.65 L1004.2 1514.29 Z" fill="#000000" fill-rule="nonzero" fill-opacity="1" /><path clip-path="url(#clip710)" d="M1523.76 1517.37 Q1520.15 1517.37 1518.32 1520.93 Q1516.51 1524.47 1516.51 1531.6 Q1516.51 1538.71 1518.32 1542.27 Q1520.15 1545.82 1523.76 1545.82 Q1527.39 1545.82 1529.2 1542.27 Q1531.03 1538.71 1531.03 1531.6 Q1531.03 1524.47 1529.2 1520.93 Q1527.39 1517.37 1523.76 1517.37 M1523.76 1513.66 Q1529.57 1513.66 1532.62 1518.27 Q1535.7 1522.85 1535.7 1531.6 Q1535.7 1540.33 1532.62 1544.94 Q1529.57 1549.52 1523.76 1549.52 Q1517.95 1549.52 1514.87 1544.94 Q1511.81 1540.33 1511.81 1531.6 Q1511.81 1522.85 1514.87 1518.27 Q1517.95 1513.66 1523.76 1513.66 Z" fill="#000000" fill-rule="nonzero" fill-opacity="1" /><path clip-path="url(#clip710)" d="M1543.92 1542.97 L1548.8 1542.97 L1548.8 1548.85 L1543.92 1548.85 L1543.92 1542.97 Z" fill="#000000" fill-rule="nonzero" fill-opacity="1" /><path clip-path="url(#clip710)" d="M1568.99 1517.37 Q1565.38 1517.37 1563.55 1520.93 Q1561.74 1524.47 1561.74 1531.6 Q1561.74 1538.71 1563.55 1542.27 Q1565.38 1545.82 1568.99 1545.82 Q1572.62 1545.82 1574.43 1542.27 Q1576.26 1538.71 1576.26 1531.6 Q1576.26 1524.47 1574.43 1520.93 Q1572.62 1517.37 1568.99 1517.37 M1568.99 1513.66 Q1574.8 1513.66 1577.86 1518.27 Q1580.93 1522.85 1580.93 1531.6 Q1580.93 1540.33 1577.86 1544.94 Q1574.8 1549.52 1568.99 1549.52 Q1563.18 1549.52 1560.1 1544.94 Q1557.05 1540.33 1557.05 1531.6 Q1557.05 1522.85 1560.1 1518.27 Q1563.18 1513.66 1568.99 1513.66 Z" fill="#000000" fill-rule="nonzero" fill-opacity="1" /><path clip-path="url(#clip710)" d="M2098.5 1517.37 Q2094.89 1517.37 2093.06 1520.93 Q2091.25 1524.47 2091.25 1531.6 Q2091.25 1538.71 2093.06 1542.27 Q2094.89 1545.82 2098.5 1545.82 Q2102.13 1545.82 2103.94 1542.27 Q2105.77 1538.71 2105.77 1531.6 Q2105.77 1524.47 2103.94 1520.93 Q2102.13 1517.37 2098.5 1517.37 M2098.5 1513.66 Q2104.31 1513.66 2107.36 1518.27 Q2110.44 1522.85 2110.44 1531.6 Q2110.44 1540.33 2107.36 1544.94 Q2104.31 1549.52 2098.5 1549.52 Q2092.69 1549.52 2089.61 1544.94 Q2086.55 1540.33 2086.55 1531.6 Q2086.55 1522.85 2089.61 1518.27 Q2092.69 1513.66 2098.5 1513.66 Z" fill="#000000" fill-rule="nonzero" fill-opacity="1" /><path clip-path="url(#clip710)" d="M2118.66 1542.97 L2123.54 1542.97 L2123.54 1548.85 L2118.66 1548.85 L2118.66 1542.97 Z" fill="#000000" fill-rule="nonzero" fill-opacity="1" /><path clip-path="url(#clip710)" d="M2133.78 1514.29 L2152.13 1514.29 L2152.13 1518.22 L2138.06 1518.22 L2138.06 1526.7 Q2139.08 1526.35 2140.1 1526.19 Q2141.11 1526 2142.13 1526 Q2147.92 1526 2151.3 1529.17 Q2154.68 1532.34 2154.68 1537.76 Q2154.68 1543.34 2151.21 1546.44 Q2147.73 1549.52 2141.42 1549.52 Q2139.24 1549.52 2136.97 1549.15 Q2134.73 1548.78 2132.32 1548.04 L2132.32 1543.34 Q2134.4 1544.47 2136.62 1545.03 Q2138.85 1545.58 2141.32 1545.58 Q2145.33 1545.58 2147.66 1543.48 Q2150 1541.37 2150 1537.76 Q2150 1534.15 2147.66 1532.04 Q2145.33 1529.94 2141.32 1529.94 Q2139.45 1529.94 2137.57 1530.35 Q2135.72 1530.77 2133.78 1531.65 L2133.78 1514.29 Z" fill="#000000" fill-rule="nonzero" fill-opacity="1" /><polyline clip-path="url(#clip710)" style="stroke:#000000; stroke-linecap:round; stroke-linejoin:round; stroke-width:4; stroke-opacity:1; fill:none" points="112.177,1486.45 112.177,47.2441 "/>
<polyline clip-path="url(#clip710)" style="stroke:#000000; stroke-linecap:round; stroke-linejoin:round; stroke-width:4; stroke-opacity:1; fill:none" points="112.177,1217.65 131.075,1217.65 "/>
<polyline clip-path="url(#clip710)" style="stroke:#000000; stroke-linecap:round; stroke-linejoin:round; stroke-width:4; stroke-opacity:1; fill:none" points="112.177,943.253 131.075,943.253 "/>
<polyline clip-path="url(#clip710)" style="stroke:#000000; stroke-linecap:round; stroke-linejoin:round; stroke-width:4; stroke-opacity:1; fill:none" points="112.177,668.854 131.075,668.854 "/>
<polyline clip-path="url(#clip710)" style="stroke:#000000; stroke-linecap:round; stroke-linejoin:round; stroke-width:4; stroke-opacity:1; fill:none" points="112.177,394.454 131.075,394.454 "/>
<polyline clip-path="url(#clip710)" style="stroke:#000000; stroke-linecap:round; stroke-linejoin:round; stroke-width:4; stroke-opacity:1; fill:none" points="112.177,120.055 131.075,120.055 "/>
<path clip-path="url(#clip710)" d="M56.2699 1231 L63.9087 1231 L63.9087 1204.63 L55.5986 1206.3 L55.5986 1202.04 L63.8624 1200.37 L68.5383 1200.37 L68.5383 1231 L76.1772 1231 L76.1772 1234.93 L56.2699 1234.93 L56.2699 1231 Z" fill="#000000" fill-rule="nonzero" fill-opacity="1" /><path clip-path="url(#clip710)" d="M59.8578 956.598 L76.1772 956.598 L76.1772 960.533 L54.2328 960.533 L54.2328 956.598 Q56.8949 953.844 61.4782 949.214 Q66.0846 944.561 67.2652 943.219 Q69.5105 940.696 70.3902 938.959 Q71.2929 937.2 71.2929 935.51 Q71.2929 932.756 69.3485 931.02 Q67.4272 929.284 64.3254 929.284 Q62.1263 929.284 59.6726 930.048 Q57.2421 930.811 54.4643 932.362 L54.4643 927.64 Q57.2884 926.506 59.7421 925.927 Q62.1958 925.348 64.2328 925.348 Q69.6031 925.348 72.7976 928.034 Q75.992 930.719 75.992 935.21 Q75.992 937.339 75.1818 939.26 Q74.3948 941.159 72.2883 943.751 Q71.7096 944.422 68.6078 947.64 Q65.5059 950.834 59.8578 956.598 Z" fill="#000000" fill-rule="nonzero" fill-opacity="1" /><path clip-path="url(#clip710)" d="M69.0476 667.5 Q72.404 668.217 74.279 670.486 Q76.1772 672.754 76.1772 676.088 Q76.1772 681.203 72.6587 684.004 Q69.1402 686.805 62.6587 686.805 Q60.4828 686.805 58.168 686.365 Q55.8764 685.949 53.4227 685.092 L53.4227 680.578 Q55.3671 681.713 57.6819 682.291 Q59.9967 682.87 62.5198 682.87 Q66.918 682.87 69.2096 681.134 Q71.5244 679.398 71.5244 676.088 Q71.5244 673.032 69.3717 671.319 Q67.242 669.583 63.4226 669.583 L59.3949 669.583 L59.3949 665.74 L63.6078 665.74 Q67.0569 665.74 68.8855 664.375 Q70.7142 662.986 70.7142 660.393 Q70.7142 657.731 68.8161 656.319 Q66.9411 654.884 63.4226 654.884 Q61.5013 654.884 59.3023 655.301 Q57.1032 655.717 54.4643 656.597 L54.4643 652.43 Q57.1264 651.69 59.4412 651.319 Q61.7791 650.949 63.8393 650.949 Q69.1633 650.949 72.2652 653.379 Q75.367 655.787 75.367 659.907 Q75.367 662.778 73.7235 664.768 Q72.08 666.736 69.0476 667.5 Z" fill="#000000" fill-rule="nonzero" fill-opacity="1" /><path clip-path="url(#clip710)" d="M66.5939 381.248 L54.7884 399.697 L66.5939 399.697 L66.5939 381.248 M65.367 377.174 L71.2466 377.174 L71.2466 399.697 L76.1772 399.697 L76.1772 403.586 L71.2466 403.586 L71.2466 411.734 L66.5939 411.734 L66.5939 403.586 L50.9921 403.586 L50.9921 399.072 L65.367 377.174 Z" fill="#000000" fill-rule="nonzero" fill-opacity="1" /><path clip-path="url(#clip710)" d="M55.2745 102.775 L73.6309 102.775 L73.6309 106.71 L59.5569 106.71 L59.5569 115.182 Q60.5754 114.835 61.5939 114.673 Q62.6124 114.488 63.6309 114.488 Q69.418 114.488 72.7976 117.659 Q76.1772 120.83 76.1772 126.247 Q76.1772 131.825 72.705 134.927 Q69.2328 138.006 62.9134 138.006 Q60.7374 138.006 58.4689 137.636 Q56.2236 137.265 53.8162 136.525 L53.8162 131.825 Q55.8995 132.96 58.1217 133.515 Q60.3439 134.071 62.8208 134.071 Q66.8254 134.071 69.1633 131.964 Q71.5013 129.858 71.5013 126.247 Q71.5013 122.636 69.1633 120.529 Q66.8254 118.423 62.8208 118.423 Q60.9458 118.423 59.0708 118.839 Q57.2189 119.256 55.2745 120.136 L55.2745 102.775 Z" fill="#000000" fill-rule="nonzero" fill-opacity="1" /><circle clip-path="url(#clip712)" cx="2289.34" cy="1320.36" r="14.4" fill="#808080" fill-rule="evenodd" fill-opacity="1" stroke="#000000" stroke-opacity="1" stroke-width="3.2"/>
<circle clip-path="url(#clip712)" cx="175.59" cy="87.9763" r="14.4" fill="#808080" fill-rule="evenodd" fill-opacity="1" stroke="#000000" stroke-opacity="1" stroke-width="3.2"/>
<circle clip-path="url(#clip712)" cx="1478.27" cy="1442.33" r="14.4" fill="#808080" fill-rule="evenodd" fill-opacity="1" stroke="#000000" stroke-opacity="1" stroke-width="3.2"/>
<circle clip-path="url(#clip712)" cx="1546.22" cy="1445.72" r="14.4" fill="#808080" fill-rule="evenodd" fill-opacity="1" stroke="#000000" stroke-opacity="1" stroke-width="3.2"/>
<path clip-path="url(#clip710)" d="M2293.64 1327.79 Q2284.6 1327.79 2281.12 1329.86 Q2277.64 1331.93 2277.64 1336.91 Q2277.64 1340.88 2280.23 1343.23 Q2282.86 1345.54 2287.36 1345.54 Q2293.56 1345.54 2297.28 1341.16 Q2301.05 1336.75 2301.05 1329.45 L2301.05 1327.79 L2293.64 1327.79 M2308.5 1324.71 L2308.5 1350.6 L2301.05 1350.6 L2301.05 1343.71 Q2298.5 1347.85 2294.69 1349.83 Q2290.88 1351.77 2285.37 1351.77 Q2278.41 1351.77 2274.27 1347.89 Q2270.18 1343.96 2270.18 1337.39 Q2270.18 1329.74 2275.29 1325.85 Q2280.43 1321.96 2290.6 1321.96 L2301.05 1321.96 L2301.05 1321.23 Q2301.05 1316.09 2297.65 1313.29 Q2294.29 1310.46 2288.17 1310.46 Q2284.28 1310.46 2280.59 1311.39 Q2276.91 1312.32 2273.5 1314.18 L2273.5 1307.3 Q2277.6 1305.72 2281.44 1304.95 Q2285.29 1304.14 2288.94 1304.14 Q2298.78 1304.14 2303.64 1309.24 Q2308.5 1314.34 2308.5 1324.71 Z" fill="#000000" fill-rule="nonzero" fill-opacity="1" /><path clip-path="url(#clip710)" d="M188.148 95.5717 Q188.148 87.3484 184.745 82.6898 Q181.383 77.9908 175.468 77.9908 Q169.554 77.9908 166.151 82.6898 Q162.789 87.3484 162.789 95.5717 Q162.789 103.795 166.151 108.494 Q169.554 113.153 175.468 113.153 Q181.383 113.153 184.745 108.494 Q188.148 103.795 188.148 95.5717 M162.789 79.7327 Q165.138 75.6818 168.703 73.7373 Q172.309 71.7524 177.291 71.7524 Q185.555 71.7524 190.7 78.3149 Q195.885 84.8773 195.885 95.5717 Q195.885 106.266 190.7 112.829 Q185.555 119.391 177.291 119.391 Q172.309 119.391 168.703 117.447 Q165.138 115.462 162.789 111.411 L162.789 118.216 L155.295 118.216 L155.295 55.1842 L162.789 55.1842 L162.789 79.7327 Z" fill="#000000" fill-rule="nonzero" fill-opacity="1" /><path clip-path="url(#clip710)" d="M1496.22 1428.94 L1496.22 1435.91 Q1493.06 1434.17 1489.86 1433.32 Q1486.7 1432.43 1483.46 1432.43 Q1476.2 1432.43 1472.19 1437.04 Q1468.18 1441.62 1468.18 1449.93 Q1468.18 1458.23 1472.19 1462.85 Q1476.2 1467.43 1483.46 1467.43 Q1486.7 1467.43 1489.86 1466.58 Q1493.06 1465.68 1496.22 1463.94 L1496.22 1470.83 Q1493.1 1472.29 1489.73 1473.02 Q1486.41 1473.75 1482.65 1473.75 Q1472.4 1473.75 1466.36 1467.3 Q1460.32 1460.86 1460.32 1449.93 Q1460.32 1438.83 1466.4 1432.47 Q1472.52 1426.11 1483.13 1426.11 Q1486.57 1426.11 1489.86 1426.84 Q1493.14 1427.52 1496.22 1428.94 Z" fill="#000000" fill-rule="nonzero" fill-opacity="1" /><path clip-path="url(#clip710)" d="M1559.04 1437.47 L1559.04 1412.92 L1566.49 1412.92 L1566.49 1475.96 L1559.04 1475.96 L1559.04 1469.15 Q1556.69 1473.2 1553.08 1475.19 Q1549.52 1477.13 1544.5 1477.13 Q1536.27 1477.13 1531.09 1470.57 Q1525.94 1464.01 1525.94 1453.31 Q1525.94 1442.62 1531.09 1436.05 Q1536.27 1429.49 1544.5 1429.49 Q1549.52 1429.49 1553.08 1431.48 Q1556.69 1433.42 1559.04 1437.47 M1533.64 1453.31 Q1533.64 1461.53 1537 1466.23 Q1540.41 1470.89 1546.32 1470.89 Q1552.23 1470.89 1555.64 1466.23 Q1559.04 1461.53 1559.04 1453.31 Q1559.04 1445.09 1555.64 1440.43 Q1552.23 1435.73 1546.32 1435.73 Q1540.41 1435.73 1537 1440.43 Q1533.64 1445.09 1533.64 1453.31 Z" fill="#000000" fill-rule="nonzero" fill-opacity="1" /><path clip-path="url(#clip710)" d="M2001.58 198.898 L2278.07 198.898 L2278.07 95.2176 L2001.58 95.2176  Z" fill="#ffffff" fill-rule="evenodd" fill-opacity="1"/>
<polyline clip-path="url(#clip710)" style="stroke:#000000; stroke-linecap:round; stroke-linejoin:round; stroke-width:4; stroke-opacity:1; fill:none" points="2001.58,198.898 2278.07,198.898 2278.07,95.2176 2001.58,95.2176 2001.58,198.898 "/>
<circle clip-path="url(#clip710)" cx="2101.16" cy="147.058" r="20.48" fill="#808080" fill-rule="evenodd" fill-opacity="1" stroke="#000000" stroke-opacity="1" stroke-width="4.55111"/>
<path clip-path="url(#clip710)" d="M2214.59 166.745 Q2212.78 171.375 2211.07 172.787 Q2209.36 174.199 2206.49 174.199 L2203.08 174.199 L2203.08 170.634 L2205.58 170.634 Q2207.34 170.634 2208.31 169.8 Q2209.29 168.967 2210.47 165.865 L2211.23 163.921 L2200.74 138.412 L2205.26 138.412 L2213.36 158.689 L2221.46 138.412 L2225.98 138.412 L2214.59 166.745 Z" fill="#000000" fill-rule="nonzero" fill-opacity="1" /><path clip-path="url(#clip710)" d="M2233.27 160.402 L2240.91 160.402 L2240.91 134.037 L2232.6 135.703 L2232.6 131.444 L2240.86 129.778 L2245.54 129.778 L2245.54 160.402 L2253.17 160.402 L2253.17 164.338 L2233.27 164.338 L2233.27 160.402 Z" fill="#000000" fill-rule="nonzero" fill-opacity="1" /></svg>
