<?xml version="1.0" encoding="utf-8"?>
<svg xmlns="http://www.w3.org/2000/svg" xmlns:xlink="http://www.w3.org/1999/xlink" width="600" height="400" viewBox="0 0 2400 1600">
<defs>
  <clipPath id="clip650">
    <rect x="0" y="0" width="2400" height="1600"/>
  </clipPath>
</defs>
<path clip-path="url(#clip650)" d="M0 1600 L2400 1600 L2400 0 L0 0  Z" fill="#ffffff" fill-rule="evenodd" fill-opacity="1"/>
<defs>
  <clipPath id="clip651">
    <rect x="480" y="0" width="1681" height="1600"/>
  </clipPath>
</defs>
<path clip-path="url(#clip650)" d="M186.274 1486.45 L2352.76 1486.45 L2352.76 47.2441 L186.274 47.2441  Z" fill="#ffffff" fill-rule="evenodd" fill-opacity="1"/>
<defs>
  <clipPath id="clip652">
    <rect x="186" y="47" width="2167" height="1440"/>
  </clipPath>
</defs>
<polyline clip-path="url(#clip652)" style="stroke:#000000; stroke-linecap:round; stroke-linejoin:round; stroke-width:2; stroke-opacity:0.1; fill:none" points="232.183,1486.45 232.183,47.2441 "/>
<polyline clip-path="url(#clip652)" style="stroke:#000000; stroke-linecap:round; stroke-linejoin:round; stroke-width:2; stroke-opacity:0.1; fill:none" points="786.009,1486.45 786.009,47.2441 "/>
<polyline clip-path="url(#clip652)" style="stroke:#000000; stroke-linecap:round; stroke-linejoin:round; stroke-width:2; stroke-opacity:0.1; fill:none" points="1339.84,1486.45 1339.84,47.2441 "/>
<polyline clip-path="url(#clip652)" style="stroke:#000000; stroke-linecap:round; stroke-linejoin:round; stroke-width:2; stroke-opacity:0.1; fill:none" points="1893.66,1486.45 1893.66,47.2441 "/>
<polyline clip-path="url(#clip652)" style="stroke:#000000; stroke-linecap:round; stroke-linejoin:round; stroke-width:2; stroke-opacity:0.1; fill:none" points="186.274,1449.49 2352.76,1449.49 "/>
<polyline clip-path="url(#clip652)" style="stroke:#000000; stroke-linecap:round; stroke-linejoin:round; stroke-width:2; stroke-opacity:0.1; fill:none" points="186.274,1194.25 2352.76,1194.25 "/>
<polyline clip-path="url(#clip652)" style="stroke:#000000; stroke-linecap:round; stroke-linejoin:round; stroke-width:2; stroke-opacity:0.1; fill:none" points="186.274,939.005 2352.76,939.005 "/>
<polyline clip-path="url(#clip652)" style="stroke:#000000; stroke-linecap:round; stroke-linejoin:round; stroke-width:2; stroke-opacity:0.1; fill:none" points="186.274,683.763 2352.76,683.763 "/>
<polyline clip-path="url(#clip652)" style="stroke:#000000; stroke-linecap:round; stroke-linejoin:round; stroke-width:2; stroke-opacity:0.1; fill:none" points="186.274,428.521 2352.76,428.521 "/>
<polyline clip-path="url(#clip652)" style="stroke:#000000; stroke-linecap:round; stroke-linejoin:round; stroke-width:2; stroke-opacity:0.1; fill:none" points="186.274,173.279 2352.76,173.279 "/>
<polyline clip-path="url(#clip650)" style="stroke:#000000; stroke-linecap:round; stroke-linejoin:round; stroke-width:4; stroke-opacity:1; fill:none" points="186.274,1486.45 2352.76,1486.45 "/>
<polyline clip-path="url(#clip650)" style="stroke:#000000; stroke-linecap:round; stroke-linejoin:round; stroke-width:4; stroke-opacity:1; fill:none" points="232.183,1486.45 232.183,1467.55 "/>
<polyline clip-path="url(#clip650)" style="stroke:#000000; stroke-linecap:round; stroke-linejoin:round; stroke-width:4; stroke-opacity:1; fill:none" points="786.009,1486.45 786.009,1467.55 "/>
<polyline clip-path="url(#clip650)" style="stroke:#000000; stroke-linecap:round; stroke-linejoin:round; stroke-width:4; stroke-opacity:1; fill:none" points="1339.84,1486.45 1339.84,1467.55 "/>
<polyline clip-path="url(#clip650)" style="stroke:#000000; stroke-linecap:round; stroke-linejoin:round; stroke-width:4; stroke-opacity:1; fill:none" points="1893.66,1486.45 1893.66,1467.55 "/>
<path clip-path="url(#clip650)" d="M178.468 1532.02 L208.143 1532.02 L208.143 1535.95 L178.468 1535.95 L178.468 1532.02 Z" fill="#000000" fill-rule="nonzero" fill-opacity="1" /><path clip-path="url(#clip650)" d="M228.236 1517.37 Q224.625 1517.37 222.796 1520.93 Q220.991 1524.47 220.991 1531.6 Q220.991 1538.71 222.796 1542.27 Q224.625 1545.82 228.236 1545.82 Q231.87 1545.82 233.676 1542.27 Q235.504 1538.71 235.504 1531.6 Q235.504 1524.47 233.676 1520.93 Q231.87 1517.37 228.236 1517.37 M228.236 1513.66 Q234.046 1513.66 237.102 1518.27 Q240.18 1522.85 240.18 1531.6 Q240.18 1540.33 237.102 1544.94 Q234.046 1549.52 228.236 1549.52 Q222.426 1549.52 219.347 1544.94 Q216.292 1540.33 216.292 1531.6 Q216.292 1522.85 219.347 1518.27 Q222.426 1513.66 228.236 1513.66 Z" fill="#000000" fill-rule="nonzero" fill-opacity="1" /><path clip-path="url(#clip650)" d="M248.398 1542.97 L253.282 1542.97 L253.282 1548.85 L248.398 1548.85 L248.398 1542.97 Z" fill="#000000" fill-rule="nonzero" fill-opacity="1" /><path clip-path="url(#clip650)" d="M276.314 1518.36 L264.509 1536.81 L276.314 1536.81 L276.314 1518.36 M275.088 1514.29 L280.967 1514.29 L280.967 1536.81 L285.898 1536.81 L285.898 1540.7 L280.967 1540.7 L280.967 1548.85 L276.314 1548.85 L276.314 1540.7 L260.713 1540.7 L260.713 1536.19 L275.088 1514.29 Z" fill="#000000" fill-rule="nonzero" fill-opacity="1" /><path clip-path="url(#clip650)" d="M733.336 1532.02 L763.012 1532.02 L763.012 1535.95 L733.336 1535.95 L733.336 1532.02 Z" fill="#000000" fill-rule="nonzero" fill-opacity="1" /><path clip-path="url(#clip650)" d="M783.104 1517.37 Q779.493 1517.37 777.664 1520.93 Q775.859 1524.47 775.859 1531.6 Q775.859 1538.71 777.664 1542.27 Q779.493 1545.82 783.104 1545.82 Q786.738 1545.82 788.544 1542.27 Q790.373 1538.71 790.373 1531.6 Q790.373 1524.47 788.544 1520.93 Q786.738 1517.37 783.104 1517.37 M783.104 1513.66 Q788.914 1513.66 791.97 1518.27 Q795.049 1522.85 795.049 1531.6 Q795.049 1540.33 791.97 1544.94 Q788.914 1549.52 783.104 1549.52 Q777.294 1549.52 774.215 1544.94 Q771.16 1540.33 771.16 1531.6 Q771.16 1522.85 774.215 1518.27 Q777.294 1513.66 783.104 1513.66 Z" fill="#000000" fill-rule="nonzero" fill-opacity="1" /><path clip-path="url(#clip650)" d="M803.266 1542.97 L808.15 1542.97 L808.15 1548.85 L803.266 1548.85 L803.266 1542.97 Z" fill="#000000" fill-rule="nonzero" fill-opacity="1" /><path clip-path="url(#clip650)" d="M822.363 1544.91 L838.683 1544.91 L838.683 1548.85 L816.738 1548.85 L816.738 1544.91 Q819.4 1542.16 823.984 1537.53 Q828.59 1532.88 829.771 1531.53 Q832.016 1529.01 832.896 1527.27 Q833.798 1525.51 833.798 1523.82 Q833.798 1521.07 831.854 1519.33 Q829.933 1517.6 826.831 1517.6 Q824.632 1517.6 822.178 1518.36 Q819.747 1519.13 816.97 1520.68 L816.97 1515.95 Q819.794 1514.82 822.247 1514.24 Q824.701 1513.66 826.738 1513.66 Q832.109 1513.66 835.303 1516.35 Q838.497 1519.03 838.497 1523.52 Q838.497 1525.65 837.687 1527.57 Q836.9 1529.47 834.794 1532.07 Q834.215 1532.74 831.113 1535.95 Q828.011 1539.15 822.363 1544.91 Z" fill="#000000" fill-rule="nonzero" fill-opacity="1" /><path clip-path="url(#clip650)" d="M1317.22 1517.37 Q1313.61 1517.37 1311.78 1520.93 Q1309.97 1524.47 1309.97 1531.6 Q1309.97 1538.71 1311.78 1542.27 Q1313.61 1545.82 1317.22 1545.82 Q1320.85 1545.82 1322.66 1542.27 Q1324.49 1538.71 1324.49 1531.6 Q1324.49 1524.47 1322.66 1520.93 Q1320.85 1517.37 1317.22 1517.37 M1317.22 1513.66 Q1323.03 1513.66 1326.09 1518.27 Q1329.16 1522.85 1329.16 1531.6 Q1329.16 1540.33 1326.09 1544.94 Q1323.03 1549.52 1317.22 1549.52 Q1311.41 1549.52 1308.33 1544.94 Q1305.28 1540.33 1305.28 1531.6 Q1305.28 1522.85 1308.33 1518.27 Q1311.41 1513.66 1317.22 1513.66 Z" fill="#000000" fill-rule="nonzero" fill-opacity="1" /><path clip-path="url(#clip650)" d="M1337.38 1542.97 L1342.27 1542.97 L1342.27 1548.85 L1337.38 1548.85 L1337.38 1542.97 Z" fill="#000000" fill-rule="nonzero" fill-opacity="1" /><path clip-path="url(#clip650)" d="M1362.45 1517.37 Q1358.84 1517.37 1357.01 1520.93 Q1355.21 1524.47 1355.21 1531.6 Q1355.21 1538.71 1357.01 1542.27 Q1358.84 1545.82 1362.45 1545.82 Q1366.09 1545.82 1367.89 1542.27 Q1369.72 1538.71 1369.72 1531.6 Q1369.72 1524.47 1367.89 1520.93 Q1366.09 1517.37 1362.45 1517.37 M1362.45 1513.66 Q1368.26 1513.66 1371.32 1518.27 Q1374.4 1522.85 1374.4 1531.6 Q1374.4 1540.33 1371.32 1544.94 Q1368.26 1549.52 1362.45 1549.52 Q1356.64 1549.52 1353.56 1544.94 Q1350.51 1540.33 1350.51 1531.6 Q1350.51 1522.85 1353.56 1518.27 Q1356.64 1513.66 1362.45 1513.66 Z" fill="#000000" fill-rule="nonzero" fill-opacity="1" /><path clip-path="url(#clip650)" d="M1871.85 1517.37 Q1868.23 1517.37 1866.41 1520.93 Q1864.6 1524.47 1864.6 1531.6 Q1864.6 1538.71 1866.41 1542.27 Q1868.23 1545.82 1871.85 1545.82 Q1875.48 1545.82 1877.29 1542.27 Q1879.11 1538.71 1879.11 1531.6 Q1879.11 1524.47 1877.29 1520.93 Q1875.48 1517.37 1871.85 1517.37 M1871.85 1513.66 Q1877.66 1513.66 1880.71 1518.27 Q1883.79 1522.85 1883.79 1531.6 Q1883.79 1540.33 1880.71 1544.94 Q1877.66 1549.52 1871.85 1549.52 Q1866.04 1549.52 1862.96 1544.94 Q1859.9 1540.33 1859.9 1531.6 Q1859.9 1522.85 1862.96 1518.27 Q1866.04 1513.66 1871.85 1513.66 Z" fill="#000000" fill-rule="nonzero" fill-opacity="1" /><path clip-path="url(#clip650)" d="M1892.01 1542.97 L1896.89 1542.97 L1896.89 1548.85 L1892.01 1548.85 L1892.01 1542.97 Z" fill="#000000" fill-rule="nonzero" fill-opacity="1" /><path clip-path="url(#clip650)" d="M1911.1 1544.91 L1927.42 1544.91 L1927.42 1548.85 L1905.48 1548.85 L1905.48 1544.91 Q1908.14 1542.16 1912.72 1537.53 Q1917.33 1532.88 1918.51 1531.53 Q1920.76 1529.01 1921.64 1527.27 Q1922.54 1525.51 1922.54 1523.82 Q1922.54 1521.07 1920.59 1519.33 Q1918.67 1517.6 1915.57 1517.6 Q1913.37 1517.6 1910.92 1518.36 Q1908.49 1519.13 1905.71 1520.68 L1905.71 1515.95 Q1908.53 1514.82 1910.99 1514.24 Q1913.44 1513.66 1915.48 1513.66 Q1920.85 1513.66 1924.04 1516.35 Q1927.24 1519.03 1927.24 1523.52 Q1927.24 1525.65 1926.43 1527.57 Q1925.64 1529.47 1923.53 1532.07 Q1922.96 1532.74 1919.85 1535.95 Q1916.75 1539.15 1911.1 1544.91 Z" fill="#000000" fill-rule="nonzero" fill-opacity="1" /><polyline clip-path="url(#clip650)" style="stroke:#000000; stroke-linecap:round; stroke-linejoin:round; stroke-width:4; stroke-opacity:1; fill:none" points="186.274,1486.45 186.274,47.2441 "/>
<polyline clip-path="url(#clip650)" style="stroke:#000000; stroke-linecap:round; stroke-linejoin:round; stroke-width:4; stroke-opacity:1; fill:none" points="186.274,1449.49 205.172,1449.49 "/>
<polyline clip-path="url(#clip650)" style="stroke:#000000; stroke-linecap:round; stroke-linejoin:round; stroke-width:4; stroke-opacity:1; fill:none" points="186.274,1194.25 205.172,1194.25 "/>
<polyline clip-path="url(#clip650)" style="stroke:#000000; stroke-linecap:round; stroke-linejoin:round; stroke-width:4; stroke-opacity:1; fill:none" points="186.274,939.005 205.172,939.005 "/>
<polyline clip-path="url(#clip650)" style="stroke:#000000; stroke-linecap:round; stroke-linejoin:round; stroke-width:4; stroke-opacity:1; fill:none" points="186.274,683.763 205.172,683.763 "/>
<polyline clip-path="url(#clip650)" style="stroke:#000000; stroke-linecap:round; stroke-linejoin:round; stroke-width:4; stroke-opacity:1; fill:none" points="186.274,428.521 205.172,428.521 "/>
<polyline clip-path="url(#clip650)" style="stroke:#000000; stroke-linecap:round; stroke-linejoin:round; stroke-width:4; stroke-opacity:1; fill:none" points="186.274,173.279 205.172,173.279 "/>
<path clip-path="url(#clip650)" d="M62.9365 1435.29 Q59.3254 1435.29 57.4967 1438.85 Q55.6912 1442.39 55.6912 1449.52 Q55.6912 1456.63 57.4967 1460.19 Q59.3254 1463.74 62.9365 1463.74 Q66.5707 1463.74 68.3763 1460.19 Q70.205 1456.63 70.205 1449.52 Q70.205 1442.39 68.3763 1438.85 Q66.5707 1435.29 62.9365 1435.29 M62.9365 1431.58 Q68.7467 1431.58 71.8022 1436.19 Q74.8809 1440.77 74.8809 1449.52 Q74.8809 1458.25 71.8022 1462.86 Q68.7467 1467.44 62.9365 1467.44 Q57.1264 1467.44 54.0477 1462.86 Q50.9921 1458.25 50.9921 1449.52 Q50.9921 1440.77 54.0477 1436.19 Q57.1264 1431.58 62.9365 1431.58 Z" fill="#000000" fill-rule="nonzero" fill-opacity="1" /><path clip-path="url(#clip650)" d="M83.0984 1460.89 L87.9827 1460.89 L87.9827 1466.77 L83.0984 1466.77 L83.0984 1460.89 Z" fill="#000000" fill-rule="nonzero" fill-opacity="1" /><path clip-path="url(#clip650)" d="M108.168 1435.29 Q104.557 1435.29 102.728 1438.85 Q100.922 1442.39 100.922 1449.52 Q100.922 1456.63 102.728 1460.19 Q104.557 1463.74 108.168 1463.74 Q111.802 1463.74 113.608 1460.19 Q115.436 1456.63 115.436 1449.52 Q115.436 1442.39 113.608 1438.85 Q111.802 1435.29 108.168 1435.29 M108.168 1431.58 Q113.978 1431.58 117.033 1436.19 Q120.112 1440.77 120.112 1449.52 Q120.112 1458.25 117.033 1462.86 Q113.978 1467.44 108.168 1467.44 Q102.358 1467.44 99.2789 1462.86 Q96.2234 1458.25 96.2234 1449.52 Q96.2234 1440.77 99.2789 1436.19 Q102.358 1431.58 108.168 1431.58 Z" fill="#000000" fill-rule="nonzero" fill-opacity="1" /><path clip-path="url(#clip650)" d="M138.33 1435.29 Q134.719 1435.29 132.89 1438.85 Q131.084 1442.39 131.084 1449.52 Q131.084 1456.63 132.89 1460.19 Q134.719 1463.74 138.33 1463.74 Q141.964 1463.74 143.769 1460.19 Q145.598 1456.63 145.598 1449.52 Q145.598 1442.39 143.769 1438.85 Q141.964 1435.29 138.33 1435.29 M138.33 1431.58 Q144.14 1431.58 147.195 1436.19 Q150.274 1440.77 150.274 1449.52 Q150.274 1458.25 147.195 1462.86 Q144.14 1467.44 138.33 1467.44 Q132.519 1467.44 129.441 1462.86 Q126.385 1458.25 126.385 1449.52 Q126.385 1440.77 129.441 1436.19 Q132.519 1431.58 138.33 1431.58 Z" fill="#000000" fill-rule="nonzero" fill-opacity="1" /><path clip-path="url(#clip650)" d="M63.9319 1180.05 Q60.3208 1180.05 58.4921 1183.61 Q56.6865 1187.15 56.6865 1194.28 Q56.6865 1201.39 58.4921 1204.95 Q60.3208 1208.49 63.9319 1208.49 Q67.5661 1208.49 69.3717 1204.95 Q71.2004 1201.39 71.2004 1194.28 Q71.2004 1187.15 69.3717 1183.61 Q67.5661 1180.05 63.9319 1180.05 M63.9319 1176.34 Q69.742 1176.34 72.7976 1180.95 Q75.8763 1185.53 75.8763 1194.28 Q75.8763 1203.01 72.7976 1207.61 Q69.742 1212.2 63.9319 1212.2 Q58.1217 1212.2 55.043 1207.61 Q51.9875 1203.01 51.9875 1194.28 Q51.9875 1185.53 55.043 1180.95 Q58.1217 1176.34 63.9319 1176.34 Z" fill="#000000" fill-rule="nonzero" fill-opacity="1" /><path clip-path="url(#clip650)" d="M84.0938 1205.65 L88.978 1205.65 L88.978 1211.53 L84.0938 1211.53 L84.0938 1205.65 Z" fill="#000000" fill-rule="nonzero" fill-opacity="1" /><path clip-path="url(#clip650)" d="M109.163 1180.05 Q105.552 1180.05 103.723 1183.61 Q101.918 1187.15 101.918 1194.28 Q101.918 1201.39 103.723 1204.95 Q105.552 1208.49 109.163 1208.49 Q112.797 1208.49 114.603 1204.95 Q116.432 1201.39 116.432 1194.28 Q116.432 1187.15 114.603 1183.61 Q112.797 1180.05 109.163 1180.05 M109.163 1176.34 Q114.973 1176.34 118.029 1180.95 Q121.107 1185.53 121.107 1194.28 Q121.107 1203.01 118.029 1207.61 Q114.973 1212.2 109.163 1212.2 Q103.353 1212.2 100.274 1207.61 Q97.2187 1203.01 97.2187 1194.28 Q97.2187 1185.53 100.274 1180.95 Q103.353 1176.34 109.163 1176.34 Z" fill="#000000" fill-rule="nonzero" fill-opacity="1" /><path clip-path="url(#clip650)" d="M129.371 1176.97 L147.728 1176.97 L147.728 1180.9 L133.654 1180.9 L133.654 1189.37 Q134.672 1189.03 135.691 1188.87 Q136.709 1188.68 137.728 1188.68 Q143.515 1188.68 146.894 1191.85 Q150.274 1195.02 150.274 1200.44 Q150.274 1206.02 146.802 1209.12 Q143.33 1212.2 137.01 1212.2 Q134.834 1212.2 132.566 1211.83 Q130.32 1211.46 127.913 1210.72 L127.913 1206.02 Q129.996 1207.15 132.219 1207.71 Q134.441 1208.26 136.918 1208.26 Q140.922 1208.26 143.26 1206.16 Q145.598 1204.05 145.598 1200.44 Q145.598 1196.83 143.26 1194.72 Q140.922 1192.62 136.918 1192.62 Q135.043 1192.62 133.168 1193.03 Q131.316 1193.45 129.371 1194.33 L129.371 1176.97 Z" fill="#000000" fill-rule="nonzero" fill-opacity="1" /><path clip-path="url(#clip650)" d="M62.9365 924.804 Q59.3254 924.804 57.4967 928.369 Q55.6912 931.91 55.6912 939.04 Q55.6912 946.146 57.4967 949.711 Q59.3254 953.253 62.9365 953.253 Q66.5707 953.253 68.3763 949.711 Q70.205 946.146 70.205 939.04 Q70.205 931.91 68.3763 928.369 Q66.5707 924.804 62.9365 924.804 M62.9365 921.1 Q68.7467 921.1 71.8022 925.707 Q74.8809 930.29 74.8809 939.04 Q74.8809 947.767 71.8022 952.373 Q68.7467 956.956 62.9365 956.956 Q57.1264 956.956 54.0477 952.373 Q50.9921 947.767 50.9921 939.04 Q50.9921 930.29 54.0477 925.707 Q57.1264 921.1 62.9365 921.1 Z" fill="#000000" fill-rule="nonzero" fill-opacity="1" /><path clip-path="url(#clip650)" d="M83.0984 950.405 L87.9827 950.405 L87.9827 956.285 L83.0984 956.285 L83.0984 950.405 Z" fill="#000000" fill-rule="nonzero" fill-opacity="1" /><path clip-path="url(#clip650)" d="M98.978 952.35 L106.617 952.35 L106.617 925.984 L98.3067 927.651 L98.3067 923.392 L106.571 921.725 L111.246 921.725 L111.246 952.35 L118.885 952.35 L118.885 956.285 L98.978 956.285 L98.978 952.35 Z" fill="#000000" fill-rule="nonzero" fill-opacity="1" /><path clip-path="url(#clip650)" d="M138.33 924.804 Q134.719 924.804 132.89 928.369 Q131.084 931.91 131.084 939.04 Q131.084 946.146 132.89 949.711 Q134.719 953.253 138.33 953.253 Q141.964 953.253 143.769 949.711 Q145.598 946.146 145.598 939.04 Q145.598 931.91 143.769 928.369 Q141.964 924.804 138.33 924.804 M138.33 921.1 Q144.14 921.1 147.195 925.707 Q150.274 930.29 150.274 939.04 Q150.274 947.767 147.195 952.373 Q144.14 956.956 138.33 956.956 Q132.519 956.956 129.441 952.373 Q126.385 947.767 126.385 939.04 Q126.385 930.29 129.441 925.707 Q132.519 921.1 138.33 921.1 Z" fill="#000000" fill-rule="nonzero" fill-opacity="1" /><path clip-path="url(#clip650)" d="M63.9319 669.562 Q60.3208 669.562 58.4921 673.127 Q56.6865 676.668 56.6865 683.798 Q56.6865 690.904 58.4921 694.469 Q60.3208 698.011 63.9319 698.011 Q67.5661 698.011 69.3717 694.469 Q71.2004 690.904 71.2004 683.798 Q71.2004 676.668 69.3717 673.127 Q67.5661 669.562 63.9319 669.562 M63.9319 665.858 Q69.742 665.858 72.7976 670.465 Q75.8763 675.048 75.8763 683.798 Q75.8763 692.525 72.7976 697.131 Q69.742 701.714 63.9319 701.714 Q58.1217 701.714 55.043 697.131 Q51.9875 692.525 51.9875 683.798 Q51.9875 675.048 55.043 670.465 Q58.1217 665.858 63.9319 665.858 Z" fill="#000000" fill-rule="nonzero" fill-opacity="1" /><path clip-path="url(#clip650)" d="M84.0938 695.164 L88.978 695.164 L88.978 701.043 L84.0938 701.043 L84.0938 695.164 Z" fill="#000000" fill-rule="nonzero" fill-opacity="1" /><path clip-path="url(#clip650)" d="M99.9733 697.108 L107.612 697.108 L107.612 670.742 L99.3021 672.409 L99.3021 668.15 L107.566 666.483 L112.242 666.483 L112.242 697.108 L119.881 697.108 L119.881 701.043 L99.9733 701.043 L99.9733 697.108 Z" fill="#000000" fill-rule="nonzero" fill-opacity="1" /><path clip-path="url(#clip650)" d="M129.371 666.483 L147.728 666.483 L147.728 670.418 L133.654 670.418 L133.654 678.89 Q134.672 678.543 135.691 678.381 Q136.709 678.196 137.728 678.196 Q143.515 678.196 146.894 681.367 Q150.274 684.539 150.274 689.955 Q150.274 695.534 146.802 698.636 Q143.33 701.714 137.01 701.714 Q134.834 701.714 132.566 701.344 Q130.32 700.974 127.913 700.233 L127.913 695.534 Q129.996 696.668 132.219 697.224 Q134.441 697.779 136.918 697.779 Q140.922 697.779 143.26 695.673 Q145.598 693.566 145.598 689.955 Q145.598 686.344 143.26 684.238 Q140.922 682.131 136.918 682.131 Q135.043 682.131 133.168 682.548 Q131.316 682.965 129.371 683.844 L129.371 666.483 Z" fill="#000000" fill-rule="nonzero" fill-opacity="1" /><path clip-path="url(#clip650)" d="M62.9365 414.32 Q59.3254 414.32 57.4967 417.885 Q55.6912 421.426 55.6912 428.556 Q55.6912 435.662 57.4967 439.227 Q59.3254 442.769 62.9365 442.769 Q66.5707 442.769 68.3763 439.227 Q70.205 435.662 70.205 428.556 Q70.205 421.426 68.3763 417.885 Q66.5707 414.32 62.9365 414.32 M62.9365 410.616 Q68.7467 410.616 71.8022 415.223 Q74.8809 419.806 74.8809 428.556 Q74.8809 437.283 71.8022 441.889 Q68.7467 446.473 62.9365 446.473 Q57.1264 446.473 54.0477 441.889 Q50.9921 437.283 50.9921 428.556 Q50.9921 419.806 54.0477 415.223 Q57.1264 410.616 62.9365 410.616 Z" fill="#000000" fill-rule="nonzero" fill-opacity="1" /><path clip-path="url(#clip650)" d="M83.0984 439.922 L87.9827 439.922 L87.9827 445.801 L83.0984 445.801 L83.0984 439.922 Z" fill="#000000" fill-rule="nonzero" fill-opacity="1" /><path clip-path="url(#clip650)" d="M102.196 441.866 L118.515 441.866 L118.515 445.801 L96.5706 445.801 L96.5706 441.866 Q99.2326 439.111 103.816 434.482 Q108.422 429.829 109.603 428.487 Q111.848 425.963 112.728 424.227 Q113.631 422.468 113.631 420.778 Q113.631 418.024 111.686 416.288 Q109.765 414.551 106.663 414.551 Q104.464 414.551 102.01 415.315 Q99.5798 416.079 96.8021 417.63 L96.8021 412.908 Q99.6261 411.774 102.08 411.195 Q104.534 410.616 106.571 410.616 Q111.941 410.616 115.135 413.301 Q118.33 415.987 118.33 420.477 Q118.33 422.607 117.52 424.528 Q116.733 426.426 114.626 429.019 Q114.047 429.69 110.946 432.908 Q107.844 436.102 102.196 441.866 Z" fill="#000000" fill-rule="nonzero" fill-opacity="1" /><path clip-path="url(#clip650)" d="M138.33 414.32 Q134.719 414.32 132.89 417.885 Q131.084 421.426 131.084 428.556 Q131.084 435.662 132.89 439.227 Q134.719 442.769 138.33 442.769 Q141.964 442.769 143.769 439.227 Q145.598 435.662 145.598 428.556 Q145.598 421.426 143.769 417.885 Q141.964 414.32 138.33 414.32 M138.33 410.616 Q144.14 410.616 147.195 415.223 Q150.274 419.806 150.274 428.556 Q150.274 437.283 147.195 441.889 Q144.14 446.473 138.33 446.473 Q132.519 446.473 129.441 441.889 Q126.385 437.283 126.385 428.556 Q126.385 419.806 129.441 415.223 Q132.519 410.616 138.33 410.616 Z" fill="#000000" fill-rule="nonzero" fill-opacity="1" /><path clip-path="url(#clip650)" d="M63.9319 159.078 Q60.3208 159.078 58.4921 162.643 Q56.6865 166.184 56.6865 173.314 Q56.6865 180.42 58.4921 183.985 Q60.3208 187.527 63.9319 187.527 Q67.5661 187.527 69.3717 183.985 Q71.2004 180.42 71.2004 173.314 Q71.2004 166.184 69.3717 162.643 Q67.5661 159.078 63.9319 159.078 M63.9319 155.374 Q69.742 155.374 72.7976 159.981 Q75.8763 164.564 75.8763 173.314 Q75.8763 182.041 72.7976 186.647 Q69.742 191.231 63.9319 191.231 Q58.1217 191.231 55.043 186.647 Q51.9875 182.041 51.9875 173.314 Q51.9875 164.564 55.043 159.981 Q58.1217 155.374 63.9319 155.374 Z" fill="#000000" fill-rule="nonzero" fill-opacity="1" /><path clip-path="url(#clip650)" d="M84.0938 184.68 L88.978 184.68 L88.978 190.559 L84.0938 190.559 L84.0938 184.68 Z" fill="#000000" fill-rule="nonzero" fill-opacity="1" /><path clip-path="url(#clip650)" d="M103.191 186.624 L119.51 186.624 L119.51 190.559 L97.566 190.559 L97.566 186.624 Q100.228 183.87 104.811 179.24 Q109.418 174.587 110.598 173.245 Q112.844 170.721 113.723 168.985 Q114.626 167.226 114.626 165.536 Q114.626 162.782 112.682 161.046 Q110.76 159.309 107.658 159.309 Q105.459 159.309 103.006 160.073 Q100.575 160.837 97.7974 162.388 L97.7974 157.666 Q100.621 156.532 103.075 155.953 Q105.529 155.374 107.566 155.374 Q112.936 155.374 116.131 158.06 Q119.325 160.745 119.325 165.235 Q119.325 167.365 118.515 169.286 Q117.728 171.184 115.621 173.777 Q115.043 174.448 111.941 177.666 Q108.839 180.86 103.191 186.624 Z" fill="#000000" fill-rule="nonzero" fill-opacity="1" /><path clip-path="url(#clip650)" d="M129.371 155.999 L147.728 155.999 L147.728 159.934 L133.654 159.934 L133.654 168.407 Q134.672 168.059 135.691 167.897 Q136.709 167.712 137.728 167.712 Q143.515 167.712 146.894 170.884 Q150.274 174.055 150.274 179.471 Q150.274 185.05 146.802 188.152 Q143.33 191.231 137.01 191.231 Q134.834 191.231 132.566 190.86 Q130.32 190.49 127.913 189.749 L127.913 185.05 Q129.996 186.184 132.219 186.74 Q134.441 187.295 136.918 187.295 Q140.922 187.295 143.26 185.189 Q145.598 183.083 145.598 179.471 Q145.598 175.86 143.26 173.754 Q140.922 171.647 136.918 171.647 Q135.043 171.647 133.168 172.064 Q131.316 172.481 129.371 173.36 L129.371 155.999 Z" fill="#000000" fill-rule="nonzero" fill-opacity="1" /><circle clip-path="url(#clip652)" cx="1315.63" cy="1328.1" r="14.4" fill="#808080" fill-rule="evenodd" fill-opacity="1" stroke="#000000" stroke-opacity="1" stroke-width="3.2"/>
<circle clip-path="url(#clip652)" cx="1301.19" cy="1445.72" r="14.4" fill="#808080" fill-rule="evenodd" fill-opacity="1" stroke="#000000" stroke-opacity="1" stroke-width="3.2"/>
<circle clip-path="url(#clip652)" cx="2291.44" cy="1280.55" r="14.4" fill="#808080" fill-rule="evenodd" fill-opacity="1" stroke="#000000" stroke-opacity="1" stroke-width="3.2"/>
<circle clip-path="url(#clip652)" cx="247.59" cy="87.9763" r="14.4" fill="#808080" fill-rule="evenodd" fill-opacity="1" stroke="#000000" stroke-opacity="1" stroke-width="3.2"/>
<path clip-path="url(#clip650)" d="M1319.92 1335.53 Q1310.89 1335.53 1307.4 1337.6 Q1303.92 1339.66 1303.92 1344.64 Q1303.92 1348.61 1306.51 1350.96 Q1309.14 1353.27 1313.64 1353.27 Q1319.84 1353.27 1323.57 1348.9 Q1327.33 1344.48 1327.33 1337.19 L1327.33 1335.53 L1319.92 1335.53 M1334.79 1332.45 L1334.79 1358.34 L1327.33 1358.34 L1327.33 1351.45 Q1324.78 1355.58 1320.97 1357.57 Q1317.16 1359.51 1311.66 1359.51 Q1304.69 1359.51 1300.56 1355.62 Q1296.46 1351.69 1296.46 1345.13 Q1296.46 1337.47 1301.57 1333.58 Q1306.71 1329.7 1316.88 1329.7 L1327.33 1329.7 L1327.33 1328.97 Q1327.33 1323.82 1323.93 1321.03 Q1320.57 1318.19 1314.45 1318.19 Q1310.56 1318.19 1306.88 1319.12 Q1303.19 1320.05 1299.79 1321.92 L1299.79 1315.03 Q1303.88 1313.45 1307.73 1312.68 Q1311.57 1311.87 1315.22 1311.87 Q1325.06 1311.87 1329.93 1316.98 Q1334.79 1322.08 1334.79 1332.45 Z" fill="#000000" fill-rule="nonzero" fill-opacity="1" /><path clip-path="url(#clip650)" d="M1313.75 1453.31 Q1313.75 1445.09 1310.35 1440.43 Q1306.99 1435.73 1301.07 1435.73 Q1295.16 1435.73 1291.75 1440.43 Q1288.39 1445.09 1288.39 1453.31 Q1288.39 1461.53 1291.75 1466.23 Q1295.16 1470.89 1301.07 1470.89 Q1306.99 1470.89 1310.35 1466.23 Q1313.75 1461.53 1313.75 1453.31 M1288.39 1437.47 Q1290.74 1433.42 1294.31 1431.48 Q1297.91 1429.49 1302.89 1429.49 Q1311.16 1429.49 1316.3 1436.05 Q1321.49 1442.62 1321.49 1453.31 Q1321.49 1464.01 1316.3 1470.57 Q1311.16 1477.13 1302.89 1477.13 Q1297.91 1477.13 1294.31 1475.19 Q1290.74 1473.2 1288.39 1469.15 L1288.39 1475.96 L1280.9 1475.96 L1280.9 1412.92 L1288.39 1412.92 L1288.39 1437.47 Z" fill="#000000" fill-rule="nonzero" fill-opacity="1" /><path clip-path="url(#clip650)" d="M2309.39 1267.16 L2309.39 1274.13 Q2306.23 1272.38 2303.03 1271.53 Q2299.87 1270.64 2296.63 1270.64 Q2289.37 1270.64 2285.36 1275.26 Q2281.35 1279.84 2281.35 1288.14 Q2281.35 1296.45 2285.36 1301.06 Q2289.37 1305.64 2296.63 1305.64 Q2299.87 1305.64 2303.03 1304.79 Q2306.23 1303.9 2309.39 1302.16 L2309.39 1309.04 Q2306.27 1310.5 2302.9 1311.23 Q2299.58 1311.96 2295.82 1311.96 Q2285.57 1311.96 2279.53 1305.52 Q2273.49 1299.08 2273.49 1288.14 Q2273.49 1277.04 2279.57 1270.68 Q2285.69 1264.32 2296.3 1264.32 Q2299.74 1264.32 2303.03 1265.05 Q2306.31 1265.74 2309.39 1267.16 Z" fill="#000000" fill-rule="nonzero" fill-opacity="1" /><path clip-path="url(#clip650)" d="M260.411 79.7327 L260.411 55.1842 L267.864 55.1842 L267.864 118.216 L260.411 118.216 L260.411 111.411 Q258.061 115.462 254.456 117.447 Q250.891 119.391 245.868 119.391 Q237.645 119.391 232.459 112.829 Q227.315 106.266 227.315 95.5717 Q227.315 84.8773 232.459 78.3149 Q237.645 71.7524 245.868 71.7524 Q250.891 71.7524 254.456 73.7373 Q258.061 75.6818 260.411 79.7327 M235.011 95.5717 Q235.011 103.795 238.374 108.494 Q241.776 113.153 247.691 113.153 Q253.605 113.153 257.008 108.494 Q260.411 103.795 260.411 95.5717 Q260.411 87.3484 257.008 82.6898 Q253.605 77.9908 247.691 77.9908 Q241.776 77.9908 238.374 82.6898 Q235.011 87.3484 235.011 95.5717 Z" fill="#000000" fill-rule="nonzero" fill-opacity="1" /><path clip-path="url(#clip650)" d="M2011.46 198.898 L2280.54 198.898 L2280.54 95.2176 L2011.46 95.2176  Z" fill="#ffffff" fill-rule="evenodd" fill-opacity="1"/>
<polyline clip-path="url(#clip650)" style="stroke:#000000; stroke-linecap:round; stroke-linejoin:round; stroke-width:4; stroke-opacity:1; fill:none" points="2011.46,198.898 2280.54,198.898 2280.54,95.2176 2011.46,95.2176 2011.46,198.898 "/>
<circle clip-path="url(#clip650)" cx="2107.75" cy="147.058" r="20.48" fill="#808080" fill-rule="evenodd" fill-opacity="1" stroke="#000000" stroke-opacity="1" stroke-width="4.55111"/>
<path clip-path="url(#clip650)" d="M2217.88 166.745 Q2216.07 171.375 2214.36 172.787 Q2212.65 174.199 2209.78 174.199 L2206.38 174.199 L2206.38 170.634 L2208.88 170.634 Q2210.63 170.634 2211.61 169.8 Q2212.58 168.967 2213.76 165.865 L2214.52 163.921 L2204.04 138.412 L2208.55 138.412 L2216.65 158.689 L2224.76 138.412 L2229.27 138.412 L2217.88 166.745 Z" fill="#000000" fill-rule="nonzero" fill-opacity="1" /><path clip-path="url(#clip650)" d="M2236.56 160.402 L2244.2 160.402 L2244.2 134.037 L2235.89 135.703 L2235.89 131.444 L2244.15 129.778 L2248.83 129.778 L2248.83 160.402 L2256.47 160.402 L2256.47 164.338 L2236.56 164.338 L2236.56 160.402 Z" fill="#000000" fill-rule="nonzero" fill-opacity="1" /></svg>
