<?xml version="1.0" encoding="utf-8"?>
<svg xmlns="http://www.w3.org/2000/svg" xmlns:xlink="http://www.w3.org/1999/xlink" width="600" height="400" viewBox="0 0 2400 1600">
<defs>
  <clipPath id="clip600">
    <rect x="0" y="0" width="2400" height="1600"/>
  </clipPath>
</defs>
<path clip-path="url(#clip600)" d="M0 1600 L2400 1600 L2400 0 L0 0  Z" fill="#ffffff" fill-rule="evenodd" fill-opacity="1"/>
<defs>
  <clipPath id="clip601">
    <rect x="112" y="47" width="2242" height="1440"/>
  </clipPath>
</defs>
<path clip-path="url(#clip600)" d="M112.177 1486.45 L2352.76 1486.45 L2352.76 47.2441 L112.177 47.2441  Z" fill="#ffffff" fill-rule="evenodd" fill-opacity="1"/>
<polyline clip-path="url(#clip601)" style="stroke:#000000; stroke-linecap:round; stroke-linejoin:round; stroke-width:2; stroke-opacity:0.1; fill:none" points="136.416,1486.45 136.416,47.2441 "/>
<polyline clip-path="url(#clip601)" style="stroke:#000000; stroke-linecap:round; stroke-linejoin:round; stroke-width:2; stroke-opacity:0.1; fill:none" points="601.69,1486.45 601.69,47.2441 "/>
<polyline clip-path="url(#clip601)" style="stroke:#000000; stroke-linecap:round; stroke-linejoin:round; stroke-width:2; stroke-opacity:0.1; fill:none" points="1066.96,1486.45 1066.96,47.2441 "/>
<polyline clip-path="url(#clip601)" style="stroke:#000000; stroke-linecap:round; stroke-linejoin:round; stroke-width:2; stroke-opacity:0.1; fill:none" points="1532.24,1486.45 1532.24,47.2441 "/>
<polyline clip-path="url(#clip601)" style="stroke:#000000; stroke-linecap:round; stroke-linejoin:round; stroke-width:2; stroke-opacity:0.1; fill:none" points="1997.51,1486.45 1997.51,47.2441 "/>
<polyline clip-path="url(#clip601)" style="stroke:#000000; stroke-linecap:round; stroke-linejoin:round; stroke-width:2; stroke-opacity:0.1; fill:none" points="112.177,1481.06 2352.76,1481.06 "/>
<polyline clip-path="url(#clip601)" style="stroke:#000000; stroke-linecap:round; stroke-linejoin:round; stroke-width:2; stroke-opacity:0.1; fill:none" points="112.177,1075.66 2352.76,1075.66 "/>
<polyline clip-path="url(#clip601)" style="stroke:#000000; stroke-linecap:round; stroke-linejoin:round; stroke-width:2; stroke-opacity:0.1; fill:none" points="112.177,670.254 2352.76,670.254 "/>
<polyline clip-path="url(#clip601)" style="stroke:#000000; stroke-linecap:round; stroke-linejoin:round; stroke-width:2; stroke-opacity:0.1; fill:none" points="112.177,264.852 2352.76,264.852 "/>
<polyline clip-path="url(#clip600)" style="stroke:#000000; stroke-linecap:round; stroke-linejoin:round; stroke-width:4; stroke-opacity:1; fill:none" points="112.177,1486.45 2352.76,1486.45 "/>
<polyline clip-path="url(#clip600)" style="stroke:#000000; stroke-linecap:round; stroke-linejoin:round; stroke-width:4; stroke-opacity:1; fill:none" points="136.416,1486.45 136.416,1467.55 "/>
<polyline clip-path="url(#clip600)" style="stroke:#000000; stroke-linecap:round; stroke-linejoin:round; stroke-width:4; stroke-opacity:1; fill:none" points="601.69,1486.45 601.69,1467.55 "/>
<polyline clip-path="url(#clip600)" style="stroke:#000000; stroke-linecap:round; stroke-linejoin:round; stroke-width:4; stroke-opacity:1; fill:none" points="1066.96,1486.45 1066.96,1467.55 "/>
<polyline clip-path="url(#clip600)" style="stroke:#000000; stroke-linecap:round; stroke-linejoin:round; stroke-width:4; stroke-opacity:1; fill:none" points="1532.24,1486.45 1532.24,1467.55 "/>
<polyline clip-path="url(#clip600)" style="stroke:#000000; stroke-linecap:round; stroke-linejoin:round; stroke-width:4; stroke-opacity:1; fill:none" points="1997.51,1486.45 1997.51,1467.55 "/>
<path clip-path="url(#clip600)" d="M83.4414 1532.02 L113.117 1532.02 L113.117 1535.95 L83.4414 1535.95 L83.4414 1532.02 Z" fill="#000000" fill-rule="nonzero" fill-opacity="1" /><path clip-path="url(#clip600)" d="M124.02 1544.91 L131.659 1544.91 L131.659 1518.55 L123.349 1520.21 L123.349 1515.95 L131.612 1514.29 L136.288 1514.29 L136.288 1544.91 L143.927 1544.91 L143.927 1548.85 L124.02 1548.85 L124.02 1544.91 Z" fill="#000000" fill-rule="nonzero" fill-opacity="1" /><path clip-path="url(#clip600)" d="M153.372 1542.97 L158.256 1542.97 L158.256 1548.85 L153.372 1548.85 L153.372 1542.97 Z" fill="#000000" fill-rule="nonzero" fill-opacity="1" /><path clip-path="url(#clip600)" d="M168.487 1514.29 L186.844 1514.29 L186.844 1518.22 L172.77 1518.22 L172.77 1526.7 Q173.788 1526.35 174.807 1526.19 Q175.825 1526 176.844 1526 Q182.631 1526 186.01 1529.17 Q189.39 1532.34 189.39 1537.76 Q189.39 1543.34 185.918 1546.44 Q182.445 1549.52 176.126 1549.52 Q173.95 1549.52 171.682 1549.15 Q169.436 1548.78 167.029 1548.04 L167.029 1543.34 Q169.112 1544.47 171.334 1545.03 Q173.557 1545.58 176.033 1545.58 Q180.038 1545.58 182.376 1543.48 Q184.714 1541.37 184.714 1537.76 Q184.714 1534.15 182.376 1532.04 Q180.038 1529.94 176.033 1529.94 Q174.158 1529.94 172.283 1530.35 Q170.432 1530.77 168.487 1531.65 L168.487 1514.29 Z" fill="#000000" fill-rule="nonzero" fill-opacity="1" /><path clip-path="url(#clip600)" d="M548.218 1532.02 L577.893 1532.02 L577.893 1535.95 L548.218 1535.95 L548.218 1532.02 Z" fill="#000000" fill-rule="nonzero" fill-opacity="1" /><path clip-path="url(#clip600)" d="M588.796 1544.91 L596.435 1544.91 L596.435 1518.55 L588.125 1520.21 L588.125 1515.95 L596.389 1514.29 L601.065 1514.29 L601.065 1544.91 L608.703 1544.91 L608.703 1548.85 L588.796 1548.85 L588.796 1544.91 Z" fill="#000000" fill-rule="nonzero" fill-opacity="1" /><path clip-path="url(#clip600)" d="M618.148 1542.97 L623.032 1542.97 L623.032 1548.85 L618.148 1548.85 L618.148 1542.97 Z" fill="#000000" fill-rule="nonzero" fill-opacity="1" /><path clip-path="url(#clip600)" d="M643.217 1517.37 Q639.606 1517.37 637.777 1520.93 Q635.972 1524.47 635.972 1531.6 Q635.972 1538.71 637.777 1542.27 Q639.606 1545.82 643.217 1545.82 Q646.851 1545.82 648.657 1542.27 Q650.486 1538.71 650.486 1531.6 Q650.486 1524.47 648.657 1520.93 Q646.851 1517.37 643.217 1517.37 M643.217 1513.66 Q649.027 1513.66 652.083 1518.27 Q655.162 1522.85 655.162 1531.6 Q655.162 1540.33 652.083 1544.94 Q649.027 1549.52 643.217 1549.52 Q637.407 1549.52 634.328 1544.94 Q631.273 1540.33 631.273 1531.6 Q631.273 1522.85 634.328 1518.27 Q637.407 1513.66 643.217 1513.66 Z" fill="#000000" fill-rule="nonzero" fill-opacity="1" /><path clip-path="url(#clip600)" d="M1013.99 1532.02 L1043.67 1532.02 L1043.67 1535.95 L1013.99 1535.95 L1013.99 1532.02 Z" fill="#000000" fill-rule="nonzero" fill-opacity="1" /><path clip-path="url(#clip600)" d="M1063.76 1517.37 Q1060.15 1517.37 1058.32 1520.93 Q1056.51 1524.47 1056.51 1531.6 Q1056.51 1538.71 1058.32 1542.27 Q1060.15 1545.82 1063.76 1545.82 Q1067.39 1545.82 1069.2 1542.27 Q1071.03 1538.71 1071.03 1531.6 Q1071.03 1524.47 1069.2 1520.93 Q1067.39 1517.37 1063.76 1517.37 M1063.76 1513.66 Q1069.57 1513.66 1072.62 1518.27 Q1075.7 1522.85 1075.7 1531.6 Q1075.7 1540.33 1072.62 1544.94 Q1069.57 1549.52 1063.76 1549.52 Q1057.95 1549.52 1054.87 1544.94 Q1051.81 1540.33 1051.81 1531.6 Q1051.81 1522.85 1054.87 1518.27 Q1057.95 1513.66 1063.76 1513.66 Z" fill="#000000" fill-rule="nonzero" fill-opacity="1" /><path clip-path="url(#clip600)" d="M1083.92 1542.97 L1088.8 1542.97 L1088.8 1548.85 L1083.92 1548.85 L1083.92 1542.97 Z" fill="#000000" fill-rule="nonzero" fill-opacity="1" /><path clip-path="url(#clip600)" d="M1099.04 1514.29 L1117.39 1514.29 L1117.39 1518.22 L1103.32 1518.22 L1103.32 1526.7 Q1104.34 1526.35 1105.35 1526.19 Q1106.37 1526 1107.39 1526 Q1113.18 1526 1116.56 1529.17 Q1119.94 1532.34 1119.94 1537.76 Q1119.94 1543.34 1116.47 1546.44 Q1112.99 1549.52 1106.67 1549.52 Q1104.5 1549.52 1102.23 1549.15 Q1099.98 1548.78 1097.58 1548.04 L1097.58 1543.34 Q1099.66 1544.47 1101.88 1545.03 Q1104.1 1545.58 1106.58 1545.58 Q1110.59 1545.58 1112.92 1543.48 Q1115.26 1541.37 1115.26 1537.76 Q1115.26 1534.15 1112.92 1532.04 Q1110.59 1529.94 1106.58 1529.94 Q1104.71 1529.94 1102.83 1530.35 Q1100.98 1530.77 1099.04 1531.65 L1099.04 1514.29 Z" fill="#000000" fill-rule="nonzero" fill-opacity="1" /><path clip-path="url(#clip600)" d="M1509.62 1517.37 Q1506.01 1517.37 1504.18 1520.93 Q1502.38 1524.47 1502.38 1531.6 Q1502.38 1538.71 1504.18 1542.27 Q1506.01 1545.82 1509.62 1545.82 Q1513.26 1545.82 1515.06 1542.27 Q1516.89 1538.71 1516.89 1531.6 Q1516.89 1524.47 1515.06 1520.93 Q1513.26 1517.37 1509.62 1517.37 M1509.62 1513.66 Q1515.43 1513.66 1518.49 1518.27 Q1521.57 1522.85 1521.57 1531.6 Q1521.57 1540.33 1518.49 1544.94 Q1515.43 1549.52 1509.62 1549.52 Q1503.81 1549.52 1500.73 1544.94 Q1497.68 1540.33 1497.68 1531.6 Q1497.68 1522.85 1500.73 1518.27 Q1503.81 1513.66 1509.62 1513.66 Z" fill="#000000" fill-rule="nonzero" fill-opacity="1" /><path clip-path="url(#clip600)" d="M1529.78 1542.97 L1534.67 1542.97 L1534.67 1548.85 L1529.78 1548.85 L1529.78 1542.97 Z" fill="#000000" fill-rule="nonzero" fill-opacity="1" /><path clip-path="url(#clip600)" d="M1554.85 1517.37 Q1551.24 1517.37 1549.41 1520.93 Q1547.61 1524.47 1547.61 1531.6 Q1547.61 1538.71 1549.41 1542.27 Q1551.24 1545.82 1554.85 1545.82 Q1558.49 1545.82 1560.29 1542.27 Q1562.12 1538.71 1562.12 1531.6 Q1562.12 1524.47 1560.29 1520.93 Q1558.49 1517.37 1554.85 1517.37 M1554.85 1513.66 Q1560.66 1513.66 1563.72 1518.27 Q1566.8 1522.85 1566.8 1531.6 Q1566.8 1540.33 1563.72 1544.94 Q1560.66 1549.52 1554.85 1549.52 Q1549.04 1549.52 1545.96 1544.94 Q1542.91 1540.33 1542.91 1531.6 Q1542.91 1522.85 1545.96 1518.27 Q1549.04 1513.66 1554.85 1513.66 Z" fill="#000000" fill-rule="nonzero" fill-opacity="1" /><path clip-path="url(#clip600)" d="M1975.39 1517.37 Q1971.78 1517.37 1969.95 1520.93 Q1968.15 1524.47 1968.15 1531.6 Q1968.15 1538.71 1969.95 1542.27 Q1971.78 1545.82 1975.39 1545.82 Q1979.03 1545.82 1980.83 1542.27 Q1982.66 1538.71 1982.66 1531.6 Q1982.66 1524.47 1980.83 1520.93 Q1979.03 1517.37 1975.39 1517.37 M1975.39 1513.66 Q1981.2 1513.66 1984.26 1518.27 Q1987.34 1522.85 1987.34 1531.6 Q1987.34 1540.33 1984.26 1544.94 Q1981.2 1549.52 1975.39 1549.52 Q1969.58 1549.52 1966.5 1544.94 Q1963.45 1540.33 1963.45 1531.6 Q1963.45 1522.85 1966.5 1518.27 Q1969.58 1513.66 1975.39 1513.66 Z" fill="#000000" fill-rule="nonzero" fill-opacity="1" /><path clip-path="url(#clip600)" d="M1995.56 1542.97 L2000.44 1542.97 L2000.44 1548.85 L1995.56 1548.85 L1995.56 1542.97 Z" fill="#000000" fill-rule="nonzero" fill-opacity="1" /><path clip-path="url(#clip600)" d="M2010.67 1514.29 L2029.03 1514.29 L2029.03 1518.22 L2014.95 1518.22 L2014.95 1526.7 Q2015.97 1526.35 2016.99 1526.19 Q2018.01 1526 2019.03 1526 Q2024.81 1526 2028.19 1529.17 Q2031.57 1532.34 2031.57 1537.76 Q2031.57 1543.34 2028.1 1546.44 Q2024.63 1549.52 2018.31 1549.52 Q2016.13 1549.52 2013.87 1549.15 Q2011.62 1548.78 2009.21 1548.04 L2009.21 1543.34 Q2011.3 1544.47 2013.52 1545.03 Q2015.74 1545.58 2018.22 1545.58 Q2022.22 1545.58 2024.56 1543.48 Q2026.9 1541.37 2026.9 1537.76 Q2026.9 1534.15 2024.56 1532.04 Q2022.22 1529.94 2018.22 1529.94 Q2016.34 1529.94 2014.47 1530.35 Q2012.62 1530.77 2010.67 1531.65 L2010.67 1514.29 Z" fill="#000000" fill-rule="nonzero" fill-opacity="1" /><polyline clip-path="url(#clip600)" style="stroke:#000000; stroke-linecap:round; stroke-linejoin:round; stroke-width:4; stroke-opacity:1; fill:none" points="112.177,1486.45 112.177,47.2441 "/>
<polyline clip-path="url(#clip600)" style="stroke:#000000; stroke-linecap:round; stroke-linejoin:round; stroke-width:4; stroke-opacity:1; fill:none" points="112.177,1481.06 131.075,1481.06 "/>
<polyline clip-path="url(#clip600)" style="stroke:#000000; stroke-linecap:round; stroke-linejoin:round; stroke-width:4; stroke-opacity:1; fill:none" points="112.177,1075.66 131.075,1075.66 "/>
<polyline clip-path="url(#clip600)" style="stroke:#000000; stroke-linecap:round; stroke-linejoin:round; stroke-width:4; stroke-opacity:1; fill:none" points="112.177,670.254 131.075,670.254 "/>
<polyline clip-path="url(#clip600)" style="stroke:#000000; stroke-linecap:round; stroke-linejoin:round; stroke-width:4; stroke-opacity:1; fill:none" points="112.177,264.852 131.075,264.852 "/>
<path clip-path="url(#clip600)" d="M64.2328 1466.86 Q60.6217 1466.86 58.793 1470.42 Q56.9875 1473.96 56.9875 1481.09 Q56.9875 1488.2 58.793 1491.76 Q60.6217 1495.31 64.2328 1495.31 Q67.867 1495.31 69.6726 1491.76 Q71.5013 1488.2 71.5013 1481.09 Q71.5013 1473.96 69.6726 1470.42 Q67.867 1466.86 64.2328 1466.86 M64.2328 1463.15 Q70.0429 1463.15 73.0985 1467.76 Q76.1772 1472.34 76.1772 1481.09 Q76.1772 1489.82 73.0985 1494.43 Q70.0429 1499.01 64.2328 1499.01 Q58.4226 1499.01 55.344 1494.43 Q52.2884 1489.82 52.2884 1481.09 Q52.2884 1472.34 55.344 1467.76 Q58.4226 1463.15 64.2328 1463.15 Z" fill="#000000" fill-rule="nonzero" fill-opacity="1" /><path clip-path="url(#clip600)" d="M59.8578 1089 L76.1772 1089 L76.1772 1092.94 L54.2328 1092.94 L54.2328 1089 Q56.8949 1086.25 61.4782 1081.62 Q66.0846 1076.96 67.2652 1075.62 Q69.5105 1073.1 70.3902 1071.36 Q71.2929 1069.6 71.2929 1067.91 Q71.2929 1065.16 69.3485 1063.42 Q67.4272 1061.69 64.3254 1061.69 Q62.1263 1061.69 59.6726 1062.45 Q57.2421 1063.21 54.4643 1064.76 L54.4643 1060.04 Q57.2884 1058.91 59.7421 1058.33 Q62.1958 1057.75 64.2328 1057.75 Q69.6031 1057.75 72.7976 1060.44 Q75.992 1063.12 75.992 1067.61 Q75.992 1069.74 75.1818 1071.66 Q74.3948 1073.56 72.2883 1076.15 Q71.7096 1076.82 68.6078 1080.04 Q65.5059 1083.24 59.8578 1089 Z" fill="#000000" fill-rule="nonzero" fill-opacity="1" /><path clip-path="url(#clip600)" d="M66.5939 657.048 L54.7884 675.497 L66.5939 675.497 L66.5939 657.048 M65.367 652.974 L71.2466 652.974 L71.2466 675.497 L76.1772 675.497 L76.1772 679.386 L71.2466 679.386 L71.2466 687.534 L66.5939 687.534 L66.5939 679.386 L50.9921 679.386 L50.9921 674.872 L65.367 652.974 Z" fill="#000000" fill-rule="nonzero" fill-opacity="1" /><path clip-path="url(#clip600)" d="M64.6495 262.989 Q61.5013 262.989 59.6495 265.142 Q57.8208 267.295 57.8208 271.045 Q57.8208 274.771 59.6495 276.947 Q61.5013 279.1 64.6495 279.1 Q67.7976 279.1 69.6263 276.947 Q71.4781 274.771 71.4781 271.045 Q71.4781 267.295 69.6263 265.142 Q67.7976 262.989 64.6495 262.989 M73.9318 248.336 L73.9318 252.596 Q72.1726 251.762 70.367 251.322 Q68.5846 250.883 66.8254 250.883 Q62.1958 250.883 59.7421 254.008 Q57.3115 257.133 56.9643 263.452 Q58.33 261.438 60.3902 260.373 Q62.4504 259.285 64.9272 259.285 Q70.1355 259.285 73.1448 262.457 Q76.1772 265.605 76.1772 271.045 Q76.1772 276.369 73.029 279.586 Q69.8809 282.804 64.6495 282.804 Q58.6541 282.804 55.4828 278.22 Q52.3116 273.614 52.3116 264.887 Q52.3116 256.693 56.2004 251.832 Q60.0893 246.947 66.6402 246.947 Q68.3994 246.947 70.1818 247.295 Q71.9874 247.642 73.9318 248.336 Z" fill="#000000" fill-rule="nonzero" fill-opacity="1" /><circle clip-path="url(#clip601)" cx="2289.34" cy="1312.77" r="14.4" fill="#808080" fill-rule="evenodd" fill-opacity="1" stroke="#000000" stroke-opacity="1" stroke-width="3.2"/>
<circle clip-path="url(#clip601)" cx="175.59" cy="87.9763" r="14.4" fill="#808080" fill-rule="evenodd" fill-opacity="1" stroke="#000000" stroke-opacity="1" stroke-width="3.2"/>
<circle clip-path="url(#clip601)" cx="1536.87" cy="1445.72" r="14.4" fill="#808080" fill-rule="evenodd" fill-opacity="1" stroke="#000000" stroke-opacity="1" stroke-width="3.2"/>
<circle clip-path="url(#clip601)" cx="1482.17" cy="1440.35" r="14.4" fill="#808080" fill-rule="evenodd" fill-opacity="1" stroke="#000000" stroke-opacity="1" stroke-width="3.2"/>
<path clip-path="url(#clip600)" d="M2293.64 1320.2 Q2284.6 1320.2 2281.12 1322.26 Q2277.64 1324.33 2277.64 1329.31 Q2277.64 1333.28 2280.23 1335.63 Q2282.86 1337.94 2287.36 1337.94 Q2293.56 1337.94 2297.28 1333.57 Q2301.05 1329.15 2301.05 1321.86 L2301.05 1320.2 L2293.64 1320.2 M2308.5 1317.12 L2308.5 1343.01 L2301.05 1343.01 L2301.05 1336.12 Q2298.5 1340.25 2294.69 1342.24 Q2290.88 1344.18 2285.37 1344.18 Q2278.41 1344.18 2274.27 1340.29 Q2270.18 1336.36 2270.18 1329.8 Q2270.18 1322.14 2275.29 1318.25 Q2280.43 1314.37 2290.6 1314.37 L2301.05 1314.37 L2301.05 1313.64 Q2301.05 1308.49 2297.65 1305.7 Q2294.29 1302.86 2288.17 1302.86 Q2284.28 1302.86 2280.59 1303.79 Q2276.91 1304.72 2273.5 1306.59 L2273.5 1299.7 Q2277.6 1298.12 2281.44 1297.35 Q2285.29 1296.54 2288.94 1296.54 Q2298.78 1296.54 2303.64 1301.65 Q2308.5 1306.75 2308.5 1317.12 Z" fill="#000000" fill-rule="nonzero" fill-opacity="1" /><path clip-path="url(#clip600)" d="M188.148 95.5717 Q188.148 87.3484 184.745 82.6898 Q181.383 77.9908 175.468 77.9908 Q169.554 77.9908 166.151 82.6898 Q162.789 87.3484 162.789 95.5717 Q162.789 103.795 166.151 108.494 Q169.554 113.153 175.468 113.153 Q181.383 113.153 184.745 108.494 Q188.148 103.795 188.148 95.5717 M162.789 79.7327 Q165.138 75.6818 168.703 73.7373 Q172.309 71.7524 177.291 71.7524 Q185.555 71.7524 190.7 78.3149 Q195.885 84.8773 195.885 95.5717 Q195.885 106.266 190.7 112.829 Q185.555 119.391 177.291 119.391 Q172.309 119.391 168.703 117.447 Q165.138 115.462 162.789 111.411 L162.789 118.216 L155.295 118.216 L155.295 55.1842 L162.789 55.1842 L162.789 79.7327 Z" fill="#000000" fill-rule="nonzero" fill-opacity="1" /><path clip-path="url(#clip600)" d="M1554.81 1432.33 L1554.81 1439.3 Q1551.65 1437.55 1548.45 1436.7 Q1545.29 1435.81 1542.05 1435.81 Q1534.8 1435.81 1530.79 1440.43 Q1526.78 1445.01 1526.78 1453.31 Q1526.78 1461.62 1530.79 1466.23 Q1534.8 1470.81 1542.05 1470.81 Q1545.29 1470.81 1548.45 1469.96 Q1551.65 1469.07 1554.81 1467.33 L1554.81 1474.21 Q1551.7 1475.67 1548.33 1476.4 Q1545.01 1477.13 1541.24 1477.13 Q1530.99 1477.13 1524.96 1470.69 Q1518.92 1464.25 1518.92 1453.31 Q1518.92 1442.21 1525 1435.85 Q1531.12 1429.49 1541.73 1429.49 Q1545.17 1429.49 1548.45 1430.22 Q1551.74 1430.91 1554.81 1432.33 Z" fill="#000000" fill-rule="nonzero" fill-opacity="1" /><path clip-path="url(#clip600)" d="M1495 1432.11 L1495 1407.56 L1502.45 1407.56 L1502.45 1470.59 L1495 1470.59 L1495 1463.79 Q1492.65 1467.84 1489.04 1469.82 Q1485.48 1471.77 1480.45 1471.77 Q1472.23 1471.77 1467.04 1465.2 Q1461.9 1458.64 1461.9 1447.95 Q1461.9 1437.25 1467.04 1430.69 Q1472.23 1424.13 1480.45 1424.13 Q1485.48 1424.13 1489.04 1426.11 Q1492.65 1428.06 1495 1432.11 M1469.6 1447.95 Q1469.6 1456.17 1472.96 1460.87 Q1476.36 1465.53 1482.28 1465.53 Q1488.19 1465.53 1491.59 1460.87 Q1495 1456.17 1495 1447.95 Q1495 1439.72 1491.59 1435.07 Q1488.19 1430.37 1482.28 1430.37 Q1476.36 1430.37 1472.96 1435.07 Q1469.6 1439.72 1469.6 1447.95 Z" fill="#000000" fill-rule="nonzero" fill-opacity="1" /><path clip-path="url(#clip600)" d="M2001.58 198.898 L2278.07 198.898 L2278.07 95.2176 L2001.58 95.2176  Z" fill="#ffffff" fill-rule="evenodd" fill-opacity="1"/>
<polyline clip-path="url(#clip600)" style="stroke:#000000; stroke-linecap:round; stroke-linejoin:round; stroke-width:4; stroke-opacity:1; fill:none" points="2001.58,198.898 2278.07,198.898 2278.07,95.2176 2001.58,95.2176 2001.58,198.898 "/>
<circle clip-path="url(#clip600)" cx="2101.16" cy="147.058" r="20.48" fill="#808080" fill-rule="evenodd" fill-opacity="1" stroke="#000000" stroke-opacity="1" stroke-width="4.55111"/>
<path clip-path="url(#clip600)" d="M2214.59 166.745 Q2212.78 171.375 2211.07 172.787 Q2209.36 174.199 2206.49 174.199 L2203.08 174.199 L2203.08 170.634 L2205.58 170.634 Q2207.34 170.634 2208.31 169.8 Q2209.29 168.967 2210.47 165.865 L2211.23 163.921 L2200.74 138.412 L2205.26 138.412 L2213.36 158.689 L2221.46 138.412 L2225.98 138.412 L2214.59 166.745 Z" fill="#000000" fill-rule="nonzero" fill-opacity="1" /><path clip-path="url(#clip600)" d="M2233.27 160.402 L2240.91 160.402 L2240.91 134.037 L2232.6 135.703 L2232.6 131.444 L2240.86 129.778 L2245.54 129.778 L2245.54 160.402 L2253.17 160.402 L2253.17 164.338 L2233.27 164.338 L2233.27 160.402 Z" fill="#000000" fill-rule="nonzero" fill-opacity="1" /></svg>
