<?xml version="1.0" encoding="utf-8"?>
<svg xmlns="http://www.w3.org/2000/svg" xmlns:xlink="http://www.w3.org/1999/xlink" width="600" height="400" viewBox="0 0 2400 1600">
<defs>
  <clipPath id="clip570">
    <rect x="0" y="0" width="2400" height="1600"/>
  </clipPath>
</defs>
<path clip-path="url(#clip570)" d="M0 1600 L2400 1600 L2400 0 L0 0  Z" fill="#ffffff" fill-rule="evenodd" fill-opacity="1"/>
<defs>
  <clipPath id="clip571">
    <rect x="156" y="47" width="2198" height="1440"/>
  </clipPath>
</defs>
<path clip-path="url(#clip570)" d="M156.112 1486.45 L2352.76 1486.45 L2352.76 47.2441 L156.112 47.2441  Z" fill="#ffffff" fill-rule="evenodd" fill-opacity="1"/>
<polyline clip-path="url(#clip571)" style="stroke:#000000; stroke-linecap:round; stroke-linejoin:round; stroke-width:2; stroke-opacity:0.1; fill:none" points="324.572,1486.45 324.572,47.2441 "/>
<polyline clip-path="url(#clip571)" style="stroke:#000000; stroke-linecap:round; stroke-linejoin:round; stroke-width:2; stroke-opacity:0.1; fill:none" points="847.606,1486.45 847.606,47.2441 "/>
<polyline clip-path="url(#clip571)" style="stroke:#000000; stroke-linecap:round; stroke-linejoin:round; stroke-width:2; stroke-opacity:0.1; fill:none" points="1370.64,1486.45 1370.64,47.2441 "/>
<polyline clip-path="url(#clip571)" style="stroke:#000000; stroke-linecap:round; stroke-linejoin:round; stroke-width:2; stroke-opacity:0.1; fill:none" points="1893.67,1486.45 1893.67,47.2441 "/>
<polyline clip-path="url(#clip571)" style="stroke:#000000; stroke-linecap:round; stroke-linejoin:round; stroke-width:2; stroke-opacity:0.1; fill:none" points="156.112,1462.47 2352.76,1462.47 "/>
<polyline clip-path="url(#clip571)" style="stroke:#000000; stroke-linecap:round; stroke-linejoin:round; stroke-width:2; stroke-opacity:0.1; fill:none" points="156.112,1058.9 2352.76,1058.9 "/>
<polyline clip-path="url(#clip571)" style="stroke:#000000; stroke-linecap:round; stroke-linejoin:round; stroke-width:2; stroke-opacity:0.1; fill:none" points="156.112,655.333 2352.76,655.333 "/>
<polyline clip-path="url(#clip571)" style="stroke:#000000; stroke-linecap:round; stroke-linejoin:round; stroke-width:2; stroke-opacity:0.1; fill:none" points="156.112,251.766 2352.76,251.766 "/>
<polyline clip-path="url(#clip570)" style="stroke:#000000; stroke-linecap:round; stroke-linejoin:round; stroke-width:4; stroke-opacity:1; fill:none" points="156.112,1486.45 2352.76,1486.45 "/>
<polyline clip-path="url(#clip570)" style="stroke:#000000; stroke-linecap:round; stroke-linejoin:round; stroke-width:4; stroke-opacity:1; fill:none" points="324.572,1486.45 324.572,1467.55 "/>
<polyline clip-path="url(#clip570)" style="stroke:#000000; stroke-linecap:round; stroke-linejoin:round; stroke-width:4; stroke-opacity:1; fill:none" points="847.606,1486.45 847.606,1467.55 "/>
<polyline clip-path="url(#clip570)" style="stroke:#000000; stroke-linecap:round; stroke-linejoin:round; stroke-width:4; stroke-opacity:1; fill:none" points="1370.64,1486.45 1370.64,1467.55 "/>
<polyline clip-path="url(#clip570)" style="stroke:#000000; stroke-linecap:round; stroke-linejoin:round; stroke-width:4; stroke-opacity:1; fill:none" points="1893.67,1486.45 1893.67,1467.55 "/>
<path clip-path="url(#clip570)" d="M270.857 1532.02 L300.533 1532.02 L300.533 1535.95 L270.857 1535.95 L270.857 1532.02 Z" fill="#000000" fill-rule="nonzero" fill-opacity="1" /><path clip-path="url(#clip570)" d="M320.625 1517.37 Q317.014 1517.37 315.186 1520.93 Q313.38 1524.47 313.38 1531.6 Q313.38 1538.71 315.186 1542.27 Q317.014 1545.82 320.625 1545.82 Q324.26 1545.82 326.065 1542.27 Q327.894 1538.71 327.894 1531.6 Q327.894 1524.47 326.065 1520.93 Q324.26 1517.37 320.625 1517.37 M320.625 1513.66 Q326.436 1513.66 329.491 1518.27 Q332.57 1522.85 332.57 1531.6 Q332.57 1540.33 329.491 1544.94 Q326.436 1549.52 320.625 1549.52 Q314.815 1549.52 311.737 1544.94 Q308.681 1540.33 308.681 1531.6 Q308.681 1522.85 311.737 1518.27 Q314.815 1513.66 320.625 1513.66 Z" fill="#000000" fill-rule="nonzero" fill-opacity="1" /><path clip-path="url(#clip570)" d="M340.787 1542.97 L345.672 1542.97 L345.672 1548.85 L340.787 1548.85 L340.787 1542.97 Z" fill="#000000" fill-rule="nonzero" fill-opacity="1" /><path clip-path="url(#clip570)" d="M368.704 1518.36 L356.898 1536.81 L368.704 1536.81 L368.704 1518.36 M367.477 1514.29 L373.357 1514.29 L373.357 1536.81 L378.287 1536.81 L378.287 1540.7 L373.357 1540.7 L373.357 1548.85 L368.704 1548.85 L368.704 1540.7 L353.102 1540.7 L353.102 1536.19 L367.477 1514.29 Z" fill="#000000" fill-rule="nonzero" fill-opacity="1" /><path clip-path="url(#clip570)" d="M794.932 1532.02 L824.608 1532.02 L824.608 1535.95 L794.932 1535.95 L794.932 1532.02 Z" fill="#000000" fill-rule="nonzero" fill-opacity="1" /><path clip-path="url(#clip570)" d="M844.701 1517.37 Q841.09 1517.37 839.261 1520.93 Q837.455 1524.47 837.455 1531.6 Q837.455 1538.71 839.261 1542.27 Q841.09 1545.82 844.701 1545.82 Q848.335 1545.82 850.14 1542.27 Q851.969 1538.71 851.969 1531.6 Q851.969 1524.47 850.14 1520.93 Q848.335 1517.37 844.701 1517.37 M844.701 1513.66 Q850.511 1513.66 853.566 1518.27 Q856.645 1522.85 856.645 1531.6 Q856.645 1540.33 853.566 1544.94 Q850.511 1549.52 844.701 1549.52 Q838.89 1549.52 835.812 1544.94 Q832.756 1540.33 832.756 1531.6 Q832.756 1522.85 835.812 1518.27 Q838.89 1513.66 844.701 1513.66 Z" fill="#000000" fill-rule="nonzero" fill-opacity="1" /><path clip-path="url(#clip570)" d="M864.863 1542.97 L869.747 1542.97 L869.747 1548.85 L864.863 1548.85 L864.863 1542.97 Z" fill="#000000" fill-rule="nonzero" fill-opacity="1" /><path clip-path="url(#clip570)" d="M883.96 1544.91 L900.279 1544.91 L900.279 1548.85 L878.335 1548.85 L878.335 1544.91 Q880.997 1542.16 885.58 1537.53 Q890.186 1532.88 891.367 1531.53 Q893.612 1529.01 894.492 1527.27 Q895.395 1525.51 895.395 1523.82 Q895.395 1521.07 893.45 1519.33 Q891.529 1517.6 888.427 1517.6 Q886.228 1517.6 883.774 1518.36 Q881.344 1519.13 878.566 1520.68 L878.566 1515.95 Q881.39 1514.82 883.844 1514.24 Q886.298 1513.66 888.335 1513.66 Q893.705 1513.66 896.899 1516.35 Q900.094 1519.03 900.094 1523.52 Q900.094 1525.65 899.284 1527.57 Q898.497 1529.47 896.39 1532.07 Q895.811 1532.74 892.71 1535.95 Q889.608 1539.15 883.96 1544.91 Z" fill="#000000" fill-rule="nonzero" fill-opacity="1" /><path clip-path="url(#clip570)" d="M1348.02 1517.37 Q1344.41 1517.37 1342.58 1520.93 Q1340.78 1524.47 1340.78 1531.6 Q1340.78 1538.71 1342.58 1542.27 Q1344.41 1545.82 1348.02 1545.82 Q1351.66 1545.82 1353.46 1542.27 Q1355.29 1538.71 1355.29 1531.6 Q1355.29 1524.47 1353.46 1520.93 Q1351.66 1517.37 1348.02 1517.37 M1348.02 1513.66 Q1353.83 1513.66 1356.89 1518.27 Q1359.97 1522.85 1359.97 1531.6 Q1359.97 1540.33 1356.89 1544.94 Q1353.83 1549.52 1348.02 1549.52 Q1342.21 1549.52 1339.13 1544.94 Q1336.08 1540.33 1336.08 1531.6 Q1336.08 1522.85 1339.13 1518.27 Q1342.21 1513.66 1348.02 1513.66 Z" fill="#000000" fill-rule="nonzero" fill-opacity="1" /><path clip-path="url(#clip570)" d="M1368.19 1542.97 L1373.07 1542.97 L1373.07 1548.85 L1368.19 1548.85 L1368.19 1542.97 Z" fill="#000000" fill-rule="nonzero" fill-opacity="1" /><path clip-path="url(#clip570)" d="M1393.25 1517.37 Q1389.64 1517.37 1387.82 1520.93 Q1386.01 1524.47 1386.01 1531.6 Q1386.01 1538.71 1387.82 1542.27 Q1389.64 1545.82 1393.25 1545.82 Q1396.89 1545.82 1398.69 1542.27 Q1400.52 1538.71 1400.52 1531.6 Q1400.52 1524.47 1398.69 1520.93 Q1396.89 1517.37 1393.25 1517.37 M1393.25 1513.66 Q1399.07 1513.66 1402.12 1518.27 Q1405.2 1522.85 1405.2 1531.6 Q1405.2 1540.33 1402.12 1544.94 Q1399.07 1549.52 1393.25 1549.52 Q1387.44 1549.52 1384.37 1544.94 Q1381.31 1540.33 1381.31 1531.6 Q1381.31 1522.85 1384.37 1518.27 Q1387.44 1513.66 1393.25 1513.66 Z" fill="#000000" fill-rule="nonzero" fill-opacity="1" /><path clip-path="url(#clip570)" d="M1871.86 1517.37 Q1868.24 1517.37 1866.42 1520.93 Q1864.61 1524.47 1864.61 1531.6 Q1864.61 1538.71 1866.42 1542.27 Q1868.24 1545.82 1871.86 1545.82 Q1875.49 1545.82 1877.3 1542.27 Q1879.12 1538.71 1879.12 1531.6 Q1879.12 1524.47 1877.3 1520.93 Q1875.49 1517.37 1871.86 1517.37 M1871.86 1513.66 Q1877.67 1513.66 1880.72 1518.27 Q1883.8 1522.85 1883.8 1531.6 Q1883.8 1540.33 1880.72 1544.94 Q1877.67 1549.52 1871.86 1549.52 Q1866.05 1549.52 1862.97 1544.94 Q1859.91 1540.33 1859.91 1531.6 Q1859.91 1522.85 1862.97 1518.27 Q1866.05 1513.66 1871.86 1513.66 Z" fill="#000000" fill-rule="nonzero" fill-opacity="1" /><path clip-path="url(#clip570)" d="M1892.02 1542.97 L1896.9 1542.97 L1896.9 1548.85 L1892.02 1548.85 L1892.02 1542.97 Z" fill="#000000" fill-rule="nonzero" fill-opacity="1" /><path clip-path="url(#clip570)" d="M1911.11 1544.91 L1927.43 1544.91 L1927.43 1548.85 L1905.49 1548.85 L1905.49 1544.91 Q1908.15 1542.16 1912.74 1537.53 Q1917.34 1532.88 1918.52 1531.53 Q1920.77 1529.01 1921.65 1527.27 Q1922.55 1525.51 1922.55 1523.82 Q1922.55 1521.07 1920.61 1519.33 Q1918.68 1517.6 1915.58 1517.6 Q1913.38 1517.6 1910.93 1518.36 Q1908.5 1519.13 1905.72 1520.68 L1905.72 1515.95 Q1908.55 1514.82 1911 1514.24 Q1913.45 1513.66 1915.49 1513.66 Q1920.86 1513.66 1924.05 1516.35 Q1927.25 1519.03 1927.25 1523.52 Q1927.25 1525.65 1926.44 1527.57 Q1925.65 1529.47 1923.55 1532.07 Q1922.97 1532.74 1919.86 1535.95 Q1916.76 1539.15 1911.11 1544.91 Z" fill="#000000" fill-rule="nonzero" fill-opacity="1" /><polyline clip-path="url(#clip570)" style="stroke:#000000; stroke-linecap:round; stroke-linejoin:round; stroke-width:4; stroke-opacity:1; fill:none" points="156.112,1486.45 156.112,47.2441 "/>
<polyline clip-path="url(#clip570)" style="stroke:#000000; stroke-linecap:round; stroke-linejoin:round; stroke-width:4; stroke-opacity:1; fill:none" points="156.112,1462.47 175.01,1462.47 "/>
<polyline clip-path="url(#clip570)" style="stroke:#000000; stroke-linecap:round; stroke-linejoin:round; stroke-width:4; stroke-opacity:1; fill:none" points="156.112,1058.9 175.01,1058.9 "/>
<polyline clip-path="url(#clip570)" style="stroke:#000000; stroke-linecap:round; stroke-linejoin:round; stroke-width:4; stroke-opacity:1; fill:none" points="156.112,655.333 175.01,655.333 "/>
<polyline clip-path="url(#clip570)" style="stroke:#000000; stroke-linecap:round; stroke-linejoin:round; stroke-width:4; stroke-opacity:1; fill:none" points="156.112,251.766 175.01,251.766 "/>
<path clip-path="url(#clip570)" d="M62.9365 1448.26 Q59.3254 1448.26 57.4967 1451.83 Q55.6912 1455.37 55.6912 1462.5 Q55.6912 1469.61 57.4967 1473.17 Q59.3254 1476.71 62.9365 1476.71 Q66.5707 1476.71 68.3763 1473.17 Q70.205 1469.61 70.205 1462.5 Q70.205 1455.37 68.3763 1451.83 Q66.5707 1448.26 62.9365 1448.26 M62.9365 1444.56 Q68.7467 1444.56 71.8022 1449.17 Q74.8809 1453.75 74.8809 1462.5 Q74.8809 1471.23 71.8022 1475.83 Q68.7467 1480.42 62.9365 1480.42 Q57.1264 1480.42 54.0477 1475.83 Q50.9921 1471.23 50.9921 1462.5 Q50.9921 1453.75 54.0477 1449.17 Q57.1264 1444.56 62.9365 1444.56 Z" fill="#000000" fill-rule="nonzero" fill-opacity="1" /><path clip-path="url(#clip570)" d="M83.0984 1473.87 L87.9827 1473.87 L87.9827 1479.75 L83.0984 1479.75 L83.0984 1473.87 Z" fill="#000000" fill-rule="nonzero" fill-opacity="1" /><path clip-path="url(#clip570)" d="M108.168 1448.26 Q104.557 1448.26 102.728 1451.83 Q100.922 1455.37 100.922 1462.5 Q100.922 1469.61 102.728 1473.17 Q104.557 1476.71 108.168 1476.71 Q111.802 1476.71 113.608 1473.17 Q115.436 1469.61 115.436 1462.5 Q115.436 1455.37 113.608 1451.83 Q111.802 1448.26 108.168 1448.26 M108.168 1444.56 Q113.978 1444.56 117.033 1449.17 Q120.112 1453.75 120.112 1462.5 Q120.112 1471.23 117.033 1475.83 Q113.978 1480.42 108.168 1480.42 Q102.358 1480.42 99.2789 1475.83 Q96.2234 1471.23 96.2234 1462.5 Q96.2234 1453.75 99.2789 1449.17 Q102.358 1444.56 108.168 1444.56 Z" fill="#000000" fill-rule="nonzero" fill-opacity="1" /><path clip-path="url(#clip570)" d="M64.1634 1044.7 Q60.5523 1044.7 58.7236 1048.26 Q56.918 1051.8 56.918 1058.93 Q56.918 1066.04 58.7236 1069.61 Q60.5523 1073.15 64.1634 1073.15 Q67.7976 1073.15 69.6031 1069.61 Q71.4318 1066.04 71.4318 1058.93 Q71.4318 1051.8 69.6031 1048.26 Q67.7976 1044.7 64.1634 1044.7 M64.1634 1040.99 Q69.9735 1040.99 73.029 1045.6 Q76.1077 1050.18 76.1077 1058.93 Q76.1077 1067.66 73.029 1072.27 Q69.9735 1076.85 64.1634 1076.85 Q58.3532 1076.85 55.2745 1072.27 Q52.219 1067.66 52.219 1058.93 Q52.219 1050.18 55.2745 1045.6 Q58.3532 1040.99 64.1634 1040.99 Z" fill="#000000" fill-rule="nonzero" fill-opacity="1" /><path clip-path="url(#clip570)" d="M84.3253 1070.3 L89.2095 1070.3 L89.2095 1076.18 L84.3253 1076.18 L84.3253 1070.3 Z" fill="#000000" fill-rule="nonzero" fill-opacity="1" /><path clip-path="url(#clip570)" d="M100.205 1072.24 L107.844 1072.24 L107.844 1045.88 L99.5335 1047.54 L99.5335 1043.29 L107.797 1041.62 L112.473 1041.62 L112.473 1072.24 L120.112 1072.24 L120.112 1076.18 L100.205 1076.18 L100.205 1072.24 Z" fill="#000000" fill-rule="nonzero" fill-opacity="1" /><path clip-path="url(#clip570)" d="M64.5337 641.131 Q60.9226 641.131 59.0939 644.696 Q57.2884 648.238 57.2884 655.367 Q57.2884 662.474 59.0939 666.038 Q60.9226 669.58 64.5337 669.58 Q68.168 669.58 69.9735 666.038 Q71.8022 662.474 71.8022 655.367 Q71.8022 648.238 69.9735 644.696 Q68.168 641.131 64.5337 641.131 M64.5337 637.428 Q70.3439 637.428 73.3994 642.034 Q76.4781 646.617 76.4781 655.367 Q76.4781 664.094 73.3994 668.7 Q70.3439 673.284 64.5337 673.284 Q58.7236 673.284 55.6449 668.7 Q52.5893 664.094 52.5893 655.367 Q52.5893 646.617 55.6449 642.034 Q58.7236 637.428 64.5337 637.428 Z" fill="#000000" fill-rule="nonzero" fill-opacity="1" /><path clip-path="url(#clip570)" d="M84.6956 666.733 L89.5799 666.733 L89.5799 672.613 L84.6956 672.613 L84.6956 666.733 Z" fill="#000000" fill-rule="nonzero" fill-opacity="1" /><path clip-path="url(#clip570)" d="M103.793 668.677 L120.112 668.677 L120.112 672.613 L98.1678 672.613 L98.1678 668.677 Q100.83 665.923 105.413 661.293 Q110.02 656.64 111.2 655.298 Q113.445 652.775 114.325 651.039 Q115.228 649.279 115.228 647.59 Q115.228 644.835 113.283 643.099 Q111.362 641.363 108.26 641.363 Q106.061 641.363 103.608 642.127 Q101.177 642.89 98.3993 644.441 L98.3993 639.719 Q101.223 638.585 103.677 638.006 Q106.131 637.428 108.168 637.428 Q113.538 637.428 116.733 640.113 Q119.927 642.798 119.927 647.289 Q119.927 649.418 119.117 651.339 Q118.33 653.238 116.223 655.83 Q115.645 656.501 112.543 659.719 Q109.441 662.913 103.793 668.677 Z" fill="#000000" fill-rule="nonzero" fill-opacity="1" /><path clip-path="url(#clip570)" d="M63.5847 237.565 Q59.9736 237.565 58.1449 241.129 Q56.3393 244.671 56.3393 251.801 Q56.3393 258.907 58.1449 262.472 Q59.9736 266.014 63.5847 266.014 Q67.2189 266.014 69.0244 262.472 Q70.8531 258.907 70.8531 251.801 Q70.8531 244.671 69.0244 241.129 Q67.2189 237.565 63.5847 237.565 M63.5847 233.861 Q69.3948 233.861 72.4503 238.467 Q75.529 243.051 75.529 251.801 Q75.529 260.528 72.4503 265.134 Q69.3948 269.717 63.5847 269.717 Q57.7745 269.717 54.6958 265.134 Q51.6403 260.528 51.6403 251.801 Q51.6403 243.051 54.6958 238.467 Q57.7745 233.861 63.5847 233.861 Z" fill="#000000" fill-rule="nonzero" fill-opacity="1" /><path clip-path="url(#clip570)" d="M83.7466 263.166 L88.6308 263.166 L88.6308 269.046 L83.7466 269.046 L83.7466 263.166 Z" fill="#000000" fill-rule="nonzero" fill-opacity="1" /><path clip-path="url(#clip570)" d="M112.983 250.412 Q116.339 251.129 118.214 253.398 Q120.112 255.666 120.112 259 Q120.112 264.115 116.594 266.916 Q113.075 269.717 106.594 269.717 Q104.418 269.717 102.103 269.277 Q99.8113 268.861 97.3576 268.004 L97.3576 263.49 Q99.3021 264.625 101.617 265.203 Q103.932 265.782 106.455 265.782 Q110.853 265.782 113.145 264.046 Q115.459 262.31 115.459 259 Q115.459 255.944 113.307 254.231 Q111.177 252.495 107.358 252.495 L103.33 252.495 L103.33 248.653 L107.543 248.653 Q110.992 248.653 112.82 247.287 Q114.649 245.898 114.649 243.305 Q114.649 240.643 112.751 239.231 Q110.876 237.796 107.358 237.796 Q105.436 237.796 103.237 238.213 Q101.038 238.629 98.3993 239.509 L98.3993 235.342 Q101.061 234.602 103.376 234.231 Q105.714 233.861 107.774 233.861 Q113.098 233.861 116.2 236.292 Q119.302 238.699 119.302 242.819 Q119.302 245.69 117.658 247.68 Q116.015 249.648 112.983 250.412 Z" fill="#000000" fill-rule="nonzero" fill-opacity="1" /><circle clip-path="url(#clip571)" cx="1500.36" cy="597.665" r="14.4" fill="#808080" fill-rule="evenodd" fill-opacity="1" stroke="#000000" stroke-opacity="1" stroke-width="3.2"/>
<circle clip-path="url(#clip571)" cx="1335.74" cy="1445.72" r="14.4" fill="#808080" fill-rule="evenodd" fill-opacity="1" stroke="#000000" stroke-opacity="1" stroke-width="3.2"/>
<circle clip-path="url(#clip571)" cx="2290.59" cy="1308.68" r="14.4" fill="#808080" fill-rule="evenodd" fill-opacity="1" stroke="#000000" stroke-opacity="1" stroke-width="3.2"/>
<circle clip-path="url(#clip571)" cx="218.281" cy="87.9763" r="14.4" fill="#808080" fill-rule="evenodd" fill-opacity="1" stroke="#000000" stroke-opacity="1" stroke-width="3.2"/>
<path clip-path="url(#clip570)" d="M1504.65 605.099 Q1495.62 605.099 1492.13 607.165 Q1488.65 609.231 1488.65 614.213 Q1488.65 618.183 1491.24 620.533 Q1493.88 622.842 1498.37 622.842 Q1504.57 622.842 1508.3 618.467 Q1512.06 614.051 1512.06 606.76 L1512.06 605.099 L1504.65 605.099 M1519.52 602.02 L1519.52 627.905 L1512.06 627.905 L1512.06 621.019 Q1509.51 625.151 1505.7 627.136 Q1501.9 629.08 1496.39 629.08 Q1489.42 629.08 1485.29 625.191 Q1481.2 621.262 1481.2 614.699 Q1481.2 607.043 1486.3 603.154 Q1491.44 599.266 1501.61 599.266 L1512.06 599.266 L1512.06 598.536 Q1512.06 593.392 1508.66 590.597 Q1505.3 587.761 1499.18 587.761 Q1495.29 587.761 1491.61 588.693 Q1487.92 589.624 1484.52 591.488 L1484.52 584.601 Q1488.61 583.021 1492.46 582.252 Q1496.31 581.442 1499.95 581.442 Q1509.8 581.442 1514.66 586.546 Q1519.52 591.65 1519.52 602.02 Z" fill="#000000" fill-rule="nonzero" fill-opacity="1" /><path clip-path="url(#clip570)" d="M1348.3 1453.31 Q1348.3 1445.09 1344.9 1440.43 Q1341.53 1435.73 1335.62 1435.73 Q1329.71 1435.73 1326.3 1440.43 Q1322.94 1445.09 1322.94 1453.31 Q1322.94 1461.53 1326.3 1466.23 Q1329.71 1470.89 1335.62 1470.89 Q1341.53 1470.89 1344.9 1466.23 Q1348.3 1461.53 1348.3 1453.31 M1322.94 1437.47 Q1325.29 1433.42 1328.86 1431.48 Q1332.46 1429.49 1337.44 1429.49 Q1345.71 1429.49 1350.85 1436.05 Q1356.04 1442.62 1356.04 1453.31 Q1356.04 1464.01 1350.85 1470.57 Q1345.71 1477.13 1337.44 1477.13 Q1332.46 1477.13 1328.86 1475.19 Q1325.29 1473.2 1322.94 1469.15 L1322.94 1475.96 L1315.45 1475.96 L1315.45 1412.92 L1322.94 1412.92 L1322.94 1437.47 Z" fill="#000000" fill-rule="nonzero" fill-opacity="1" /><path clip-path="url(#clip570)" d="M2308.53 1295.29 L2308.53 1302.26 Q2305.37 1300.52 2302.17 1299.67 Q2299.01 1298.78 2295.77 1298.78 Q2288.52 1298.78 2284.51 1303.4 Q2280.5 1307.97 2280.5 1316.28 Q2280.5 1324.58 2284.51 1329.2 Q2288.52 1333.78 2295.77 1333.78 Q2299.01 1333.78 2302.17 1332.93 Q2305.37 1332.04 2308.53 1330.29 L2308.53 1337.18 Q2305.41 1338.64 2302.05 1339.37 Q2298.73 1340.1 2294.96 1340.1 Q2284.71 1340.1 2278.68 1333.66 Q2272.64 1327.22 2272.64 1316.28 Q2272.64 1305.18 2278.72 1298.82 Q2284.83 1292.46 2295.45 1292.46 Q2298.89 1292.46 2302.17 1293.19 Q2305.45 1293.88 2308.53 1295.29 Z" fill="#000000" fill-rule="nonzero" fill-opacity="1" /><path clip-path="url(#clip570)" d="M231.102 79.7327 L231.102 55.1842 L238.556 55.1842 L238.556 118.216 L231.102 118.216 L231.102 111.411 Q228.753 115.462 225.148 117.447 Q221.583 119.391 216.56 119.391 Q208.336 119.391 203.151 112.829 Q198.007 106.266 198.007 95.5717 Q198.007 84.8773 203.151 78.3149 Q208.336 71.7524 216.56 71.7524 Q221.583 71.7524 225.148 73.7373 Q228.753 75.6818 231.102 79.7327 M205.703 95.5717 Q205.703 103.795 209.065 108.494 Q212.468 113.153 218.383 113.153 Q224.297 113.153 227.7 108.494 Q231.102 103.795 231.102 95.5717 Q231.102 87.3484 227.7 82.6898 Q224.297 77.9908 218.383 77.9908 Q212.468 77.9908 209.065 82.6898 Q205.703 87.3484 205.703 95.5717 Z" fill="#000000" fill-rule="nonzero" fill-opacity="1" /><path clip-path="url(#clip570)" d="M2007.44 198.898 L2279.53 198.898 L2279.53 95.2176 L2007.44 95.2176  Z" fill="#ffffff" fill-rule="evenodd" fill-opacity="1"/>
<polyline clip-path="url(#clip570)" style="stroke:#000000; stroke-linecap:round; stroke-linejoin:round; stroke-width:4; stroke-opacity:1; fill:none" points="2007.44,198.898 2279.53,198.898 2279.53,95.2176 2007.44,95.2176 2007.44,198.898 "/>
<circle clip-path="url(#clip570)" cx="2105.07" cy="147.058" r="20.48" fill="#808080" fill-rule="evenodd" fill-opacity="1" stroke="#000000" stroke-opacity="1" stroke-width="4.55111"/>
<path clip-path="url(#clip570)" d="M2216.54 166.745 Q2214.73 171.375 2213.02 172.787 Q2211.31 174.199 2208.44 174.199 L2205.03 174.199 L2205.03 170.634 L2207.53 170.634 Q2209.29 170.634 2210.27 169.8 Q2211.24 168.967 2212.42 165.865 L2213.18 163.921 L2202.7 138.412 L2207.21 138.412 L2215.31 158.689 L2223.41 138.412 L2227.93 138.412 L2216.54 166.745 Z" fill="#000000" fill-rule="nonzero" fill-opacity="1" /><path clip-path="url(#clip570)" d="M2235.22 160.402 L2242.86 160.402 L2242.86 134.037 L2234.55 135.703 L2234.55 131.444 L2242.81 129.778 L2247.49 129.778 L2247.49 160.402 L2255.13 160.402 L2255.13 164.338 L2235.22 164.338 L2235.22 160.402 Z" fill="#000000" fill-rule="nonzero" fill-opacity="1" /></svg>
