<?xml version="1.0" encoding="utf-8"?>
<svg xmlns="http://www.w3.org/2000/svg" xmlns:xlink="http://www.w3.org/1999/xlink" width="600" height="400" viewBox="0 0 2400 1600">
<defs>
  <clipPath id="clip740">
    <rect x="0" y="0" width="2400" height="1600"/>
  </clipPath>
</defs>
<path clip-path="url(#clip740)" d="M0 1600 L2400 1600 L2400 0 L0 0  Z" fill="#ffffff" fill-rule="evenodd" fill-opacity="1"/>
<defs>
  <clipPath id="clip741">
    <rect x="480" y="0" width="1681" height="1600"/>
  </clipPath>
</defs>
<path clip-path="url(#clip740)" d="M186.274 1486.45 L2352.76 1486.45 L2352.76 47.2441 L186.274 47.2441  Z" fill="#ffffff" fill-rule="evenodd" fill-opacity="1"/>
<defs>
  <clipPath id="clip742">
    <rect x="186" y="47" width="2167" height="1440"/>
  </clipPath>
</defs>
<polyline clip-path="url(#clip742)" style="stroke:#000000; stroke-linecap:round; stroke-linejoin:round; stroke-width:2; stroke-opacity:0.1; fill:none" points="447.714,1486.45 447.714,47.2441 "/>
<polyline clip-path="url(#clip742)" style="stroke:#000000; stroke-linecap:round; stroke-linejoin:round; stroke-width:2; stroke-opacity:0.1; fill:none" points="921.724,1486.45 921.724,47.2441 "/>
<polyline clip-path="url(#clip742)" style="stroke:#000000; stroke-linecap:round; stroke-linejoin:round; stroke-width:2; stroke-opacity:0.1; fill:none" points="1395.73,1486.45 1395.73,47.2441 "/>
<polyline clip-path="url(#clip742)" style="stroke:#000000; stroke-linecap:round; stroke-linejoin:round; stroke-width:2; stroke-opacity:0.1; fill:none" points="1869.74,1486.45 1869.74,47.2441 "/>
<polyline clip-path="url(#clip742)" style="stroke:#000000; stroke-linecap:round; stroke-linejoin:round; stroke-width:2; stroke-opacity:0.1; fill:none" points="2343.75,1486.45 2343.75,47.2441 "/>
<polyline clip-path="url(#clip742)" style="stroke:#000000; stroke-linecap:round; stroke-linejoin:round; stroke-width:2; stroke-opacity:0.1; fill:none" points="186.274,1450.3 2352.76,1450.3 "/>
<polyline clip-path="url(#clip742)" style="stroke:#000000; stroke-linecap:round; stroke-linejoin:round; stroke-width:2; stroke-opacity:0.1; fill:none" points="186.274,1151.86 2352.76,1151.86 "/>
<polyline clip-path="url(#clip742)" style="stroke:#000000; stroke-linecap:round; stroke-linejoin:round; stroke-width:2; stroke-opacity:0.1; fill:none" points="186.274,853.428 2352.76,853.428 "/>
<polyline clip-path="url(#clip742)" style="stroke:#000000; stroke-linecap:round; stroke-linejoin:round; stroke-width:2; stroke-opacity:0.1; fill:none" points="186.274,554.993 2352.76,554.993 "/>
<polyline clip-path="url(#clip742)" style="stroke:#000000; stroke-linecap:round; stroke-linejoin:round; stroke-width:2; stroke-opacity:0.1; fill:none" points="186.274,256.559 2352.76,256.559 "/>
<polyline clip-path="url(#clip740)" style="stroke:#000000; stroke-linecap:round; stroke-linejoin:round; stroke-width:4; stroke-opacity:1; fill:none" points="186.274,1486.45 2352.76,1486.45 "/>
<polyline clip-path="url(#clip740)" style="stroke:#000000; stroke-linecap:round; stroke-linejoin:round; stroke-width:4; stroke-opacity:1; fill:none" points="447.714,1486.45 447.714,1467.55 "/>
<polyline clip-path="url(#clip740)" style="stroke:#000000; stroke-linecap:round; stroke-linejoin:round; stroke-width:4; stroke-opacity:1; fill:none" points="921.724,1486.45 921.724,1467.55 "/>
<polyline clip-path="url(#clip740)" style="stroke:#000000; stroke-linecap:round; stroke-linejoin:round; stroke-width:4; stroke-opacity:1; fill:none" points="1395.73,1486.45 1395.73,1467.55 "/>
<polyline clip-path="url(#clip740)" style="stroke:#000000; stroke-linecap:round; stroke-linejoin:round; stroke-width:4; stroke-opacity:1; fill:none" points="1869.74,1486.45 1869.74,1467.55 "/>
<polyline clip-path="url(#clip740)" style="stroke:#000000; stroke-linecap:round; stroke-linejoin:round; stroke-width:4; stroke-opacity:1; fill:none" points="2343.75,1486.45 2343.75,1467.55 "/>
<path clip-path="url(#clip740)" d="M393.999 1532.02 L423.675 1532.02 L423.675 1535.95 L393.999 1535.95 L393.999 1532.02 Z" fill="#000000" fill-rule="nonzero" fill-opacity="1" /><path clip-path="url(#clip740)" d="M443.768 1517.37 Q440.156 1517.37 438.328 1520.93 Q436.522 1524.47 436.522 1531.6 Q436.522 1538.71 438.328 1542.27 Q440.156 1545.82 443.768 1545.82 Q447.402 1545.82 449.207 1542.27 Q451.036 1538.71 451.036 1531.6 Q451.036 1524.47 449.207 1520.93 Q447.402 1517.37 443.768 1517.37 M443.768 1513.66 Q449.578 1513.66 452.633 1518.27 Q455.712 1522.85 455.712 1531.6 Q455.712 1540.33 452.633 1544.94 Q449.578 1549.52 443.768 1549.52 Q437.957 1549.52 434.879 1544.94 Q431.823 1540.33 431.823 1531.6 Q431.823 1522.85 434.879 1518.27 Q437.957 1513.66 443.768 1513.66 Z" fill="#000000" fill-rule="nonzero" fill-opacity="1" /><path clip-path="url(#clip740)" d="M463.929 1542.97 L468.814 1542.97 L468.814 1548.85 L463.929 1548.85 L463.929 1542.97 Z" fill="#000000" fill-rule="nonzero" fill-opacity="1" /><path clip-path="url(#clip740)" d="M491.846 1518.36 L480.04 1536.81 L491.846 1536.81 L491.846 1518.36 M490.619 1514.29 L496.499 1514.29 L496.499 1536.81 L501.429 1536.81 L501.429 1540.7 L496.499 1540.7 L496.499 1548.85 L491.846 1548.85 L491.846 1540.7 L476.244 1540.7 L476.244 1536.19 L490.619 1514.29 Z" fill="#000000" fill-rule="nonzero" fill-opacity="1" /><path clip-path="url(#clip740)" d="M869.05 1532.02 L898.726 1532.02 L898.726 1535.95 L869.05 1535.95 L869.05 1532.02 Z" fill="#000000" fill-rule="nonzero" fill-opacity="1" /><path clip-path="url(#clip740)" d="M918.819 1517.37 Q915.208 1517.37 913.379 1520.93 Q911.573 1524.47 911.573 1531.6 Q911.573 1538.71 913.379 1542.27 Q915.208 1545.82 918.819 1545.82 Q922.453 1545.82 924.258 1542.27 Q926.087 1538.71 926.087 1531.6 Q926.087 1524.47 924.258 1520.93 Q922.453 1517.37 918.819 1517.37 M918.819 1513.66 Q924.629 1513.66 927.684 1518.27 Q930.763 1522.85 930.763 1531.6 Q930.763 1540.33 927.684 1544.94 Q924.629 1549.52 918.819 1549.52 Q913.008 1549.52 909.93 1544.94 Q906.874 1540.33 906.874 1531.6 Q906.874 1522.85 909.93 1518.27 Q913.008 1513.66 918.819 1513.66 Z" fill="#000000" fill-rule="nonzero" fill-opacity="1" /><path clip-path="url(#clip740)" d="M938.981 1542.97 L943.865 1542.97 L943.865 1548.85 L938.981 1548.85 L938.981 1542.97 Z" fill="#000000" fill-rule="nonzero" fill-opacity="1" /><path clip-path="url(#clip740)" d="M958.078 1544.91 L974.397 1544.91 L974.397 1548.85 L952.453 1548.85 L952.453 1544.91 Q955.115 1542.16 959.698 1537.53 Q964.305 1532.88 965.485 1531.53 Q967.73 1529.01 968.61 1527.27 Q969.513 1525.51 969.513 1523.82 Q969.513 1521.07 967.568 1519.33 Q965.647 1517.6 962.545 1517.6 Q960.346 1517.6 957.893 1518.36 Q955.462 1519.13 952.684 1520.68 L952.684 1515.95 Q955.508 1514.82 957.962 1514.24 Q960.416 1513.66 962.453 1513.66 Q967.823 1513.66 971.017 1516.35 Q974.212 1519.03 974.212 1523.52 Q974.212 1525.65 973.402 1527.57 Q972.615 1529.47 970.508 1532.07 Q969.929 1532.74 966.828 1535.95 Q963.726 1539.15 958.078 1544.91 Z" fill="#000000" fill-rule="nonzero" fill-opacity="1" /><path clip-path="url(#clip740)" d="M1373.12 1517.37 Q1369.51 1517.37 1367.68 1520.93 Q1365.87 1524.47 1365.87 1531.6 Q1365.87 1538.71 1367.68 1542.27 Q1369.51 1545.82 1373.12 1545.82 Q1376.75 1545.82 1378.56 1542.27 Q1380.39 1538.71 1380.39 1531.6 Q1380.39 1524.47 1378.56 1520.93 Q1376.75 1517.37 1373.12 1517.37 M1373.12 1513.66 Q1378.93 1513.66 1381.98 1518.27 Q1385.06 1522.85 1385.06 1531.6 Q1385.06 1540.33 1381.98 1544.94 Q1378.93 1549.52 1373.12 1549.52 Q1367.31 1549.52 1364.23 1544.94 Q1361.17 1540.33 1361.17 1531.6 Q1361.17 1522.85 1364.23 1518.27 Q1367.31 1513.66 1373.12 1513.66 Z" fill="#000000" fill-rule="nonzero" fill-opacity="1" /><path clip-path="url(#clip740)" d="M1393.28 1542.97 L1398.16 1542.97 L1398.16 1548.85 L1393.28 1548.85 L1393.28 1542.97 Z" fill="#000000" fill-rule="nonzero" fill-opacity="1" /><path clip-path="url(#clip740)" d="M1418.35 1517.37 Q1414.74 1517.37 1412.91 1520.93 Q1411.1 1524.47 1411.1 1531.6 Q1411.1 1538.71 1412.91 1542.27 Q1414.74 1545.82 1418.35 1545.82 Q1421.98 1545.82 1423.79 1542.27 Q1425.62 1538.71 1425.62 1531.6 Q1425.62 1524.47 1423.79 1520.93 Q1421.98 1517.37 1418.35 1517.37 M1418.35 1513.66 Q1424.16 1513.66 1427.21 1518.27 Q1430.29 1522.85 1430.29 1531.6 Q1430.29 1540.33 1427.21 1544.94 Q1424.16 1549.52 1418.35 1549.52 Q1412.54 1549.52 1409.46 1544.94 Q1406.4 1540.33 1406.4 1531.6 Q1406.4 1522.85 1409.46 1518.27 Q1412.54 1513.66 1418.35 1513.66 Z" fill="#000000" fill-rule="nonzero" fill-opacity="1" /><path clip-path="url(#clip740)" d="M1847.93 1517.37 Q1844.31 1517.37 1842.49 1520.93 Q1840.68 1524.47 1840.68 1531.6 Q1840.68 1538.71 1842.49 1542.27 Q1844.31 1545.82 1847.93 1545.82 Q1851.56 1545.82 1853.37 1542.27 Q1855.19 1538.71 1855.19 1531.6 Q1855.19 1524.47 1853.37 1520.93 Q1851.56 1517.37 1847.93 1517.37 M1847.93 1513.66 Q1853.74 1513.66 1856.79 1518.27 Q1859.87 1522.85 1859.87 1531.6 Q1859.87 1540.33 1856.79 1544.94 Q1853.74 1549.52 1847.93 1549.52 Q1842.12 1549.52 1839.04 1544.94 Q1835.98 1540.33 1835.98 1531.6 Q1835.98 1522.85 1839.04 1518.27 Q1842.12 1513.66 1847.93 1513.66 Z" fill="#000000" fill-rule="nonzero" fill-opacity="1" /><path clip-path="url(#clip740)" d="M1868.09 1542.97 L1872.97 1542.97 L1872.97 1548.85 L1868.09 1548.85 L1868.09 1542.97 Z" fill="#000000" fill-rule="nonzero" fill-opacity="1" /><path clip-path="url(#clip740)" d="M1887.18 1544.91 L1903.5 1544.91 L1903.5 1548.85 L1881.56 1548.85 L1881.56 1544.91 Q1884.22 1542.16 1888.8 1537.53 Q1893.41 1532.88 1894.59 1531.53 Q1896.84 1529.01 1897.72 1527.27 Q1898.62 1525.51 1898.62 1523.82 Q1898.62 1521.07 1896.68 1519.33 Q1894.75 1517.6 1891.65 1517.6 Q1889.45 1517.6 1887 1518.36 Q1884.57 1519.13 1881.79 1520.68 L1881.79 1515.95 Q1884.62 1514.82 1887.07 1514.24 Q1889.52 1513.66 1891.56 1513.66 Q1896.93 1513.66 1900.12 1516.35 Q1903.32 1519.03 1903.32 1523.52 Q1903.32 1525.65 1902.51 1527.57 Q1901.72 1529.47 1899.62 1532.07 Q1899.04 1532.74 1895.93 1535.95 Q1892.83 1539.15 1887.18 1544.91 Z" fill="#000000" fill-rule="nonzero" fill-opacity="1" /><path clip-path="url(#clip740)" d="M2320.89 1517.37 Q2317.28 1517.37 2315.45 1520.93 Q2313.65 1524.47 2313.65 1531.6 Q2313.65 1538.71 2315.45 1542.27 Q2317.28 1545.82 2320.89 1545.82 Q2324.53 1545.82 2326.33 1542.27 Q2328.16 1538.71 2328.16 1531.6 Q2328.16 1524.47 2326.33 1520.93 Q2324.53 1517.37 2320.89 1517.37 M2320.89 1513.66 Q2326.7 1513.66 2329.76 1518.27 Q2332.84 1522.85 2332.84 1531.6 Q2332.84 1540.33 2329.76 1544.94 Q2326.7 1549.52 2320.89 1549.52 Q2315.08 1549.52 2312 1544.94 Q2308.95 1540.33 2308.95 1531.6 Q2308.95 1522.85 2312 1518.27 Q2315.08 1513.66 2320.89 1513.66 Z" fill="#000000" fill-rule="nonzero" fill-opacity="1" /><path clip-path="url(#clip740)" d="M2341.06 1542.97 L2345.94 1542.97 L2345.94 1548.85 L2341.06 1548.85 L2341.06 1542.97 Z" fill="#000000" fill-rule="nonzero" fill-opacity="1" /><path clip-path="url(#clip740)" d="M2368.97 1518.36 L2357.17 1536.81 L2368.97 1536.81 L2368.97 1518.36 M2367.74 1514.29 L2373.62 1514.29 L2373.62 1536.81 L2378.56 1536.81 L2378.56 1540.7 L2373.62 1540.7 L2373.62 1548.85 L2368.97 1548.85 L2368.97 1540.7 L2353.37 1540.7 L2353.37 1536.19 L2367.74 1514.29 Z" fill="#000000" fill-rule="nonzero" fill-opacity="1" /><polyline clip-path="url(#clip740)" style="stroke:#000000; stroke-linecap:round; stroke-linejoin:round; stroke-width:4; stroke-opacity:1; fill:none" points="186.274,1486.45 186.274,47.2441 "/>
<polyline clip-path="url(#clip740)" style="stroke:#000000; stroke-linecap:round; stroke-linejoin:round; stroke-width:4; stroke-opacity:1; fill:none" points="186.274,1450.3 205.172,1450.3 "/>
<polyline clip-path="url(#clip740)" style="stroke:#000000; stroke-linecap:round; stroke-linejoin:round; stroke-width:4; stroke-opacity:1; fill:none" points="186.274,1151.86 205.172,1151.86 "/>
<polyline clip-path="url(#clip740)" style="stroke:#000000; stroke-linecap:round; stroke-linejoin:round; stroke-width:4; stroke-opacity:1; fill:none" points="186.274,853.428 205.172,853.428 "/>
<polyline clip-path="url(#clip740)" style="stroke:#000000; stroke-linecap:round; stroke-linejoin:round; stroke-width:4; stroke-opacity:1; fill:none" points="186.274,554.993 205.172,554.993 "/>
<polyline clip-path="url(#clip740)" style="stroke:#000000; stroke-linecap:round; stroke-linejoin:round; stroke-width:4; stroke-opacity:1; fill:none" points="186.274,256.559 205.172,256.559 "/>
<path clip-path="url(#clip740)" d="M62.9365 1436.1 Q59.3254 1436.1 57.4967 1439.66 Q55.6912 1443.2 55.6912 1450.33 Q55.6912 1457.44 57.4967 1461 Q59.3254 1464.55 62.9365 1464.55 Q66.5707 1464.55 68.3763 1461 Q70.205 1457.44 70.205 1450.33 Q70.205 1443.2 68.3763 1439.66 Q66.5707 1436.1 62.9365 1436.1 M62.9365 1432.39 Q68.7467 1432.39 71.8022 1437 Q74.8809 1441.58 74.8809 1450.33 Q74.8809 1459.06 71.8022 1463.67 Q68.7467 1468.25 62.9365 1468.25 Q57.1264 1468.25 54.0477 1463.67 Q50.9921 1459.06 50.9921 1450.33 Q50.9921 1441.58 54.0477 1437 Q57.1264 1432.39 62.9365 1432.39 Z" fill="#000000" fill-rule="nonzero" fill-opacity="1" /><path clip-path="url(#clip740)" d="M83.0984 1461.7 L87.9827 1461.7 L87.9827 1467.58 L83.0984 1467.58 L83.0984 1461.7 Z" fill="#000000" fill-rule="nonzero" fill-opacity="1" /><path clip-path="url(#clip740)" d="M108.168 1436.1 Q104.557 1436.1 102.728 1439.66 Q100.922 1443.2 100.922 1450.33 Q100.922 1457.44 102.728 1461 Q104.557 1464.55 108.168 1464.55 Q111.802 1464.55 113.608 1461 Q115.436 1457.44 115.436 1450.33 Q115.436 1443.2 113.608 1439.66 Q111.802 1436.1 108.168 1436.1 M108.168 1432.39 Q113.978 1432.39 117.033 1437 Q120.112 1441.58 120.112 1450.33 Q120.112 1459.06 117.033 1463.67 Q113.978 1468.25 108.168 1468.25 Q102.358 1468.25 99.2789 1463.67 Q96.2234 1459.06 96.2234 1450.33 Q96.2234 1441.58 99.2789 1437 Q102.358 1432.39 108.168 1432.39 Z" fill="#000000" fill-rule="nonzero" fill-opacity="1" /><path clip-path="url(#clip740)" d="M138.33 1436.1 Q134.719 1436.1 132.89 1439.66 Q131.084 1443.2 131.084 1450.33 Q131.084 1457.44 132.89 1461 Q134.719 1464.55 138.33 1464.55 Q141.964 1464.55 143.769 1461 Q145.598 1457.44 145.598 1450.33 Q145.598 1443.2 143.769 1439.66 Q141.964 1436.1 138.33 1436.1 M138.33 1432.39 Q144.14 1432.39 147.195 1437 Q150.274 1441.58 150.274 1450.33 Q150.274 1459.06 147.195 1463.67 Q144.14 1468.25 138.33 1468.25 Q132.519 1468.25 129.441 1463.67 Q126.385 1459.06 126.385 1450.33 Q126.385 1441.58 129.441 1437 Q132.519 1432.39 138.33 1432.39 Z" fill="#000000" fill-rule="nonzero" fill-opacity="1" /><path clip-path="url(#clip740)" d="M63.9319 1137.66 Q60.3208 1137.66 58.4921 1141.23 Q56.6865 1144.77 56.6865 1151.9 Q56.6865 1159 58.4921 1162.57 Q60.3208 1166.11 63.9319 1166.11 Q67.5661 1166.11 69.3717 1162.57 Q71.2004 1159 71.2004 1151.9 Q71.2004 1144.77 69.3717 1141.23 Q67.5661 1137.66 63.9319 1137.66 M63.9319 1133.96 Q69.742 1133.96 72.7976 1138.56 Q75.8763 1143.15 75.8763 1151.9 Q75.8763 1160.62 72.7976 1165.23 Q69.742 1169.81 63.9319 1169.81 Q58.1217 1169.81 55.043 1165.23 Q51.9875 1160.62 51.9875 1151.9 Q51.9875 1143.15 55.043 1138.56 Q58.1217 1133.96 63.9319 1133.96 Z" fill="#000000" fill-rule="nonzero" fill-opacity="1" /><path clip-path="url(#clip740)" d="M84.0938 1163.26 L88.978 1163.26 L88.978 1169.14 L84.0938 1169.14 L84.0938 1163.26 Z" fill="#000000" fill-rule="nonzero" fill-opacity="1" /><path clip-path="url(#clip740)" d="M109.163 1137.66 Q105.552 1137.66 103.723 1141.23 Q101.918 1144.77 101.918 1151.9 Q101.918 1159 103.723 1162.57 Q105.552 1166.11 109.163 1166.11 Q112.797 1166.11 114.603 1162.57 Q116.432 1159 116.432 1151.9 Q116.432 1144.77 114.603 1141.23 Q112.797 1137.66 109.163 1137.66 M109.163 1133.96 Q114.973 1133.96 118.029 1138.56 Q121.107 1143.15 121.107 1151.9 Q121.107 1160.62 118.029 1165.23 Q114.973 1169.81 109.163 1169.81 Q103.353 1169.81 100.274 1165.23 Q97.2187 1160.62 97.2187 1151.9 Q97.2187 1143.15 100.274 1138.56 Q103.353 1133.96 109.163 1133.96 Z" fill="#000000" fill-rule="nonzero" fill-opacity="1" /><path clip-path="url(#clip740)" d="M129.371 1134.58 L147.728 1134.58 L147.728 1138.52 L133.654 1138.52 L133.654 1146.99 Q134.672 1146.64 135.691 1146.48 Q136.709 1146.3 137.728 1146.3 Q143.515 1146.3 146.894 1149.47 Q150.274 1152.64 150.274 1158.06 Q150.274 1163.63 146.802 1166.74 Q143.33 1169.81 137.01 1169.81 Q134.834 1169.81 132.566 1169.44 Q130.32 1169.07 127.913 1168.33 L127.913 1163.63 Q129.996 1164.77 132.219 1165.32 Q134.441 1165.88 136.918 1165.88 Q140.922 1165.88 143.26 1163.77 Q145.598 1161.67 145.598 1158.06 Q145.598 1154.44 143.26 1152.34 Q140.922 1150.23 136.918 1150.23 Q135.043 1150.23 133.168 1150.65 Q131.316 1151.06 129.371 1151.94 L129.371 1134.58 Z" fill="#000000" fill-rule="nonzero" fill-opacity="1" /><path clip-path="url(#clip740)" d="M62.9365 839.227 Q59.3254 839.227 57.4967 842.792 Q55.6912 846.333 55.6912 853.463 Q55.6912 860.569 57.4967 864.134 Q59.3254 867.676 62.9365 867.676 Q66.5707 867.676 68.3763 864.134 Q70.205 860.569 70.205 853.463 Q70.205 846.333 68.3763 842.792 Q66.5707 839.227 62.9365 839.227 M62.9365 835.523 Q68.7467 835.523 71.8022 840.13 Q74.8809 844.713 74.8809 853.463 Q74.8809 862.19 71.8022 866.796 Q68.7467 871.38 62.9365 871.38 Q57.1264 871.38 54.0477 866.796 Q50.9921 862.19 50.9921 853.463 Q50.9921 844.713 54.0477 840.13 Q57.1264 835.523 62.9365 835.523 Z" fill="#000000" fill-rule="nonzero" fill-opacity="1" /><path clip-path="url(#clip740)" d="M83.0984 864.829 L87.9827 864.829 L87.9827 870.708 L83.0984 870.708 L83.0984 864.829 Z" fill="#000000" fill-rule="nonzero" fill-opacity="1" /><path clip-path="url(#clip740)" d="M98.978 866.773 L106.617 866.773 L106.617 840.408 L98.3067 842.074 L98.3067 837.815 L106.571 836.148 L111.246 836.148 L111.246 866.773 L118.885 866.773 L118.885 870.708 L98.978 870.708 L98.978 866.773 Z" fill="#000000" fill-rule="nonzero" fill-opacity="1" /><path clip-path="url(#clip740)" d="M138.33 839.227 Q134.719 839.227 132.89 842.792 Q131.084 846.333 131.084 853.463 Q131.084 860.569 132.89 864.134 Q134.719 867.676 138.33 867.676 Q141.964 867.676 143.769 864.134 Q145.598 860.569 145.598 853.463 Q145.598 846.333 143.769 842.792 Q141.964 839.227 138.33 839.227 M138.33 835.523 Q144.14 835.523 147.195 840.13 Q150.274 844.713 150.274 853.463 Q150.274 862.19 147.195 866.796 Q144.14 871.38 138.33 871.38 Q132.519 871.38 129.441 866.796 Q126.385 862.19 126.385 853.463 Q126.385 844.713 129.441 840.13 Q132.519 835.523 138.33 835.523 Z" fill="#000000" fill-rule="nonzero" fill-opacity="1" /><path clip-path="url(#clip740)" d="M63.9319 540.792 Q60.3208 540.792 58.4921 544.357 Q56.6865 547.899 56.6865 555.028 Q56.6865 562.135 58.4921 565.699 Q60.3208 569.241 63.9319 569.241 Q67.5661 569.241 69.3717 565.699 Q71.2004 562.135 71.2004 555.028 Q71.2004 547.899 69.3717 544.357 Q67.5661 540.792 63.9319 540.792 M63.9319 537.088 Q69.742 537.088 72.7976 541.695 Q75.8763 546.278 75.8763 555.028 Q75.8763 563.755 72.7976 568.361 Q69.742 572.945 63.9319 572.945 Q58.1217 572.945 55.043 568.361 Q51.9875 563.755 51.9875 555.028 Q51.9875 546.278 55.043 541.695 Q58.1217 537.088 63.9319 537.088 Z" fill="#000000" fill-rule="nonzero" fill-opacity="1" /><path clip-path="url(#clip740)" d="M84.0938 566.394 L88.978 566.394 L88.978 572.273 L84.0938 572.273 L84.0938 566.394 Z" fill="#000000" fill-rule="nonzero" fill-opacity="1" /><path clip-path="url(#clip740)" d="M99.9733 568.338 L107.612 568.338 L107.612 541.973 L99.3021 543.639 L99.3021 539.38 L107.566 537.713 L112.242 537.713 L112.242 568.338 L119.881 568.338 L119.881 572.273 L99.9733 572.273 L99.9733 568.338 Z" fill="#000000" fill-rule="nonzero" fill-opacity="1" /><path clip-path="url(#clip740)" d="M129.371 537.713 L147.728 537.713 L147.728 541.649 L133.654 541.649 L133.654 550.121 Q134.672 549.774 135.691 549.611 Q136.709 549.426 137.728 549.426 Q143.515 549.426 146.894 552.598 Q150.274 555.769 150.274 561.186 Q150.274 566.764 146.802 569.866 Q143.33 572.945 137.01 572.945 Q134.834 572.945 132.566 572.574 Q130.32 572.204 127.913 571.463 L127.913 566.764 Q129.996 567.898 132.219 568.454 Q134.441 569.01 136.918 569.01 Q140.922 569.01 143.26 566.903 Q145.598 564.797 145.598 561.186 Q145.598 557.574 143.26 555.468 Q140.922 553.361 136.918 553.361 Q135.043 553.361 133.168 553.778 Q131.316 554.195 129.371 555.074 L129.371 537.713 Z" fill="#000000" fill-rule="nonzero" fill-opacity="1" /><path clip-path="url(#clip740)" d="M62.9365 242.357 Q59.3254 242.357 57.4967 245.922 Q55.6912 249.464 55.6912 256.593 Q55.6912 263.7 57.4967 267.264 Q59.3254 270.806 62.9365 270.806 Q66.5707 270.806 68.3763 267.264 Q70.205 263.7 70.205 256.593 Q70.205 249.464 68.3763 245.922 Q66.5707 242.357 62.9365 242.357 M62.9365 238.654 Q68.7467 238.654 71.8022 243.26 Q74.8809 247.843 74.8809 256.593 Q74.8809 265.32 71.8022 269.927 Q68.7467 274.51 62.9365 274.51 Q57.1264 274.51 54.0477 269.927 Q50.9921 265.32 50.9921 256.593 Q50.9921 247.843 54.0477 243.26 Q57.1264 238.654 62.9365 238.654 Z" fill="#000000" fill-rule="nonzero" fill-opacity="1" /><path clip-path="url(#clip740)" d="M83.0984 267.959 L87.9827 267.959 L87.9827 273.839 L83.0984 273.839 L83.0984 267.959 Z" fill="#000000" fill-rule="nonzero" fill-opacity="1" /><path clip-path="url(#clip740)" d="M102.196 269.903 L118.515 269.903 L118.515 273.839 L96.5706 273.839 L96.5706 269.903 Q99.2326 267.149 103.816 262.519 Q108.422 257.866 109.603 256.524 Q111.848 254.001 112.728 252.265 Q113.631 250.505 113.631 248.816 Q113.631 246.061 111.686 244.325 Q109.765 242.589 106.663 242.589 Q104.464 242.589 102.01 243.353 Q99.5798 244.116 96.8021 245.667 L96.8021 240.945 Q99.6261 239.811 102.08 239.232 Q104.534 238.654 106.571 238.654 Q111.941 238.654 115.135 241.339 Q118.33 244.024 118.33 248.515 Q118.33 250.644 117.52 252.565 Q116.733 254.464 114.626 257.056 Q114.047 257.728 110.946 260.945 Q107.844 264.14 102.196 269.903 Z" fill="#000000" fill-rule="nonzero" fill-opacity="1" /><path clip-path="url(#clip740)" d="M138.33 242.357 Q134.719 242.357 132.89 245.922 Q131.084 249.464 131.084 256.593 Q131.084 263.7 132.89 267.264 Q134.719 270.806 138.33 270.806 Q141.964 270.806 143.769 267.264 Q145.598 263.7 145.598 256.593 Q145.598 249.464 143.769 245.922 Q141.964 242.357 138.33 242.357 M138.33 238.654 Q144.14 238.654 147.195 243.26 Q150.274 247.843 150.274 256.593 Q150.274 265.32 147.195 269.927 Q144.14 274.51 138.33 274.51 Q132.519 274.51 129.441 269.927 Q126.385 265.32 126.385 256.593 Q126.385 247.843 129.441 243.26 Q132.519 238.654 138.33 238.654 Z" fill="#000000" fill-rule="nonzero" fill-opacity="1" /><circle clip-path="url(#clip742)" cx="1422.67" cy="1223.83" r="14.4" fill="#808080" fill-rule="evenodd" fill-opacity="1" stroke="#000000" stroke-opacity="1" stroke-width="3.2"/>
<circle clip-path="url(#clip742)" cx="1361.96" cy="1445.72" r="14.4" fill="#808080" fill-rule="evenodd" fill-opacity="1" stroke="#000000" stroke-opacity="1" stroke-width="3.2"/>
<circle clip-path="url(#clip742)" cx="2291.44" cy="1230.27" r="14.4" fill="#808080" fill-rule="evenodd" fill-opacity="1" stroke="#000000" stroke-opacity="1" stroke-width="3.2"/>
<circle clip-path="url(#clip742)" cx="247.59" cy="87.9763" r="14.4" fill="#808080" fill-rule="evenodd" fill-opacity="1" stroke="#000000" stroke-opacity="1" stroke-width="3.2"/>
<path clip-path="url(#clip740)" d="M1426.96 1231.26 Q1417.93 1231.26 1414.44 1233.33 Q1410.96 1235.39 1410.96 1240.38 Q1410.96 1244.35 1413.55 1246.7 Q1416.19 1249 1420.68 1249 Q1426.88 1249 1430.61 1244.63 Q1434.37 1240.21 1434.37 1232.92 L1434.37 1231.26 L1426.96 1231.26 M1441.83 1228.18 L1441.83 1254.07 L1434.37 1254.07 L1434.37 1247.18 Q1431.82 1251.31 1428.01 1253.3 Q1424.21 1255.24 1418.7 1255.24 Q1411.73 1255.24 1407.6 1251.35 Q1403.51 1247.42 1403.51 1240.86 Q1403.51 1233.21 1408.61 1229.32 Q1413.76 1225.43 1423.92 1225.43 L1434.37 1225.43 L1434.37 1224.7 Q1434.37 1219.55 1430.97 1216.76 Q1427.61 1213.92 1421.49 1213.92 Q1417.6 1213.92 1413.92 1214.85 Q1410.23 1215.79 1406.83 1217.65 L1406.83 1210.76 Q1410.92 1209.18 1414.77 1208.41 Q1418.62 1207.6 1422.26 1207.6 Q1432.11 1207.6 1436.97 1212.71 Q1441.83 1217.81 1441.83 1228.18 Z" fill="#000000" fill-rule="nonzero" fill-opacity="1" /><path clip-path="url(#clip740)" d="M1374.52 1453.31 Q1374.52 1445.09 1371.12 1440.43 Q1367.75 1435.73 1361.84 1435.73 Q1355.93 1435.73 1352.52 1440.43 Q1349.16 1445.09 1349.16 1453.31 Q1349.16 1461.53 1352.52 1466.23 Q1355.93 1470.89 1361.84 1470.89 Q1367.75 1470.89 1371.12 1466.23 Q1374.52 1461.53 1374.52 1453.31 M1349.16 1437.47 Q1351.51 1433.42 1355.08 1431.48 Q1358.68 1429.49 1363.66 1429.49 Q1371.93 1429.49 1377.07 1436.05 Q1382.26 1442.62 1382.26 1453.31 Q1382.26 1464.01 1377.07 1470.57 Q1371.93 1477.13 1363.66 1477.13 Q1358.68 1477.13 1355.08 1475.19 Q1351.51 1473.2 1349.16 1469.15 L1349.16 1475.96 L1341.67 1475.96 L1341.67 1412.92 L1349.16 1412.92 L1349.16 1437.47 Z" fill="#000000" fill-rule="nonzero" fill-opacity="1" /><path clip-path="url(#clip740)" d="M2309.39 1216.88 L2309.39 1223.84 Q2306.23 1222.1 2303.03 1221.25 Q2299.87 1220.36 2296.63 1220.36 Q2289.37 1220.36 2285.36 1224.98 Q2281.35 1229.56 2281.35 1237.86 Q2281.35 1246.17 2285.36 1250.78 Q2289.37 1255.36 2296.63 1255.36 Q2299.87 1255.36 2303.03 1254.51 Q2306.23 1253.62 2309.39 1251.88 L2309.39 1258.76 Q2306.27 1260.22 2302.9 1260.95 Q2299.58 1261.68 2295.82 1261.68 Q2285.57 1261.68 2279.53 1255.24 Q2273.49 1248.8 2273.49 1237.86 Q2273.49 1226.76 2279.57 1220.4 Q2285.69 1214.04 2296.3 1214.04 Q2299.74 1214.04 2303.03 1214.77 Q2306.31 1215.46 2309.39 1216.88 Z" fill="#000000" fill-rule="nonzero" fill-opacity="1" /><path clip-path="url(#clip740)" d="M260.411 79.7327 L260.411 55.1842 L267.864 55.1842 L267.864 118.216 L260.411 118.216 L260.411 111.411 Q258.061 115.462 254.456 117.447 Q250.891 119.391 245.868 119.391 Q237.645 119.391 232.459 112.829 Q227.315 106.266 227.315 95.5717 Q227.315 84.8773 232.459 78.3149 Q237.645 71.7524 245.868 71.7524 Q250.891 71.7524 254.456 73.7373 Q258.061 75.6818 260.411 79.7327 M235.011 95.5717 Q235.011 103.795 238.374 108.494 Q241.776 113.153 247.691 113.153 Q253.605 113.153 257.008 108.494 Q260.411 103.795 260.411 95.5717 Q260.411 87.3484 257.008 82.6898 Q253.605 77.9908 247.691 77.9908 Q241.776 77.9908 238.374 82.6898 Q235.011 87.3484 235.011 95.5717 Z" fill="#000000" fill-rule="nonzero" fill-opacity="1" /><path clip-path="url(#clip740)" d="M2011.46 198.898 L2280.54 198.898 L2280.54 95.2176 L2011.46 95.2176  Z" fill="#ffffff" fill-rule="evenodd" fill-opacity="1"/>
<polyline clip-path="url(#clip740)" style="stroke:#000000; stroke-linecap:round; stroke-linejoin:round; stroke-width:4; stroke-opacity:1; fill:none" points="2011.46,198.898 2280.54,198.898 2280.54,95.2176 2011.46,95.2176 2011.46,198.898 "/>
<circle clip-path="url(#clip740)" cx="2107.75" cy="147.058" r="20.48" fill="#808080" fill-rule="evenodd" fill-opacity="1" stroke="#000000" stroke-opacity="1" stroke-width="4.55111"/>
<path clip-path="url(#clip740)" d="M2217.88 166.745 Q2216.07 171.375 2214.36 172.787 Q2212.65 174.199 2209.78 174.199 L2206.38 174.199 L2206.38 170.634 L2208.88 170.634 Q2210.63 170.634 2211.61 169.8 Q2212.58 168.967 2213.76 165.865 L2214.52 163.921 L2204.04 138.412 L2208.55 138.412 L2216.65 158.689 L2224.76 138.412 L2229.27 138.412 L2217.88 166.745 Z" fill="#000000" fill-rule="nonzero" fill-opacity="1" /><path clip-path="url(#clip740)" d="M2236.56 160.402 L2244.2 160.402 L2244.2 134.037 L2235.89 135.703 L2235.89 131.444 L2244.15 129.778 L2248.83 129.778 L2248.83 160.402 L2256.47 160.402 L2256.47 164.338 L2236.56 164.338 L2236.56 160.402 Z" fill="#000000" fill-rule="nonzero" fill-opacity="1" /></svg>
