<?xml version="1.0" encoding="utf-8"?>
<svg xmlns="http://www.w3.org/2000/svg" xmlns:xlink="http://www.w3.org/1999/xlink" width="600" height="400" viewBox="0 0 2400 1600">
<defs>
  <clipPath id="clip770">
    <rect x="0" y="0" width="2400" height="1600"/>
  </clipPath>
</defs>
<path clip-path="url(#clip770)" d="M0 1600 L2400 1600 L2400 0 L0 0  Z" fill="#ffffff" fill-rule="evenodd" fill-opacity="1"/>
<defs>
  <clipPath id="clip771">
    <rect x="480" y="0" width="1681" height="1600"/>
  </clipPath>
</defs>
<path clip-path="url(#clip770)" d="M112.177 1486.45 L2352.76 1486.45 L2352.76 47.2441 L112.177 47.2441  Z" fill="#ffffff" fill-rule="evenodd" fill-opacity="1"/>
<defs>
  <clipPath id="clip772">
    <rect x="112" y="47" width="2242" height="1440"/>
  </clipPath>
</defs>
<polyline clip-path="url(#clip772)" style="stroke:#000000; stroke-linecap:round; stroke-linejoin:round; stroke-width:2; stroke-opacity:0.1; fill:none" points="603.471,1486.45 603.471,47.2441 "/>
<polyline clip-path="url(#clip772)" style="stroke:#000000; stroke-linecap:round; stroke-linejoin:round; stroke-width:2; stroke-opacity:0.1; fill:none" points="1107.09,1486.45 1107.09,47.2441 "/>
<polyline clip-path="url(#clip772)" style="stroke:#000000; stroke-linecap:round; stroke-linejoin:round; stroke-width:2; stroke-opacity:0.1; fill:none" points="1610.7,1486.45 1610.7,47.2441 "/>
<polyline clip-path="url(#clip772)" style="stroke:#000000; stroke-linecap:round; stroke-linejoin:round; stroke-width:2; stroke-opacity:0.1; fill:none" points="2114.32,1486.45 2114.32,47.2441 "/>
<polyline clip-path="url(#clip772)" style="stroke:#000000; stroke-linecap:round; stroke-linejoin:round; stroke-width:2; stroke-opacity:0.1; fill:none" points="112.177,1483.99 2352.76,1483.99 "/>
<polyline clip-path="url(#clip772)" style="stroke:#000000; stroke-linecap:round; stroke-linejoin:round; stroke-width:2; stroke-opacity:0.1; fill:none" points="112.177,1085.31 2352.76,1085.31 "/>
<polyline clip-path="url(#clip772)" style="stroke:#000000; stroke-linecap:round; stroke-linejoin:round; stroke-width:2; stroke-opacity:0.1; fill:none" points="112.177,686.626 2352.76,686.626 "/>
<polyline clip-path="url(#clip772)" style="stroke:#000000; stroke-linecap:round; stroke-linejoin:round; stroke-width:2; stroke-opacity:0.1; fill:none" points="112.177,287.943 2352.76,287.943 "/>
<polyline clip-path="url(#clip770)" style="stroke:#000000; stroke-linecap:round; stroke-linejoin:round; stroke-width:4; stroke-opacity:1; fill:none" points="112.177,1486.45 2352.76,1486.45 "/>
<polyline clip-path="url(#clip770)" style="stroke:#000000; stroke-linecap:round; stroke-linejoin:round; stroke-width:4; stroke-opacity:1; fill:none" points="603.471,1486.45 603.471,1467.55 "/>
<polyline clip-path="url(#clip770)" style="stroke:#000000; stroke-linecap:round; stroke-linejoin:round; stroke-width:4; stroke-opacity:1; fill:none" points="1107.09,1486.45 1107.09,1467.55 "/>
<polyline clip-path="url(#clip770)" style="stroke:#000000; stroke-linecap:round; stroke-linejoin:round; stroke-width:4; stroke-opacity:1; fill:none" points="1610.7,1486.45 1610.7,1467.55 "/>
<polyline clip-path="url(#clip770)" style="stroke:#000000; stroke-linecap:round; stroke-linejoin:round; stroke-width:4; stroke-opacity:1; fill:none" points="2114.32,1486.45 2114.32,1467.55 "/>
<path clip-path="url(#clip770)" d="M549.999 1532.02 L579.675 1532.02 L579.675 1535.95 L549.999 1535.95 L549.999 1532.02 Z" fill="#000000" fill-rule="nonzero" fill-opacity="1" /><path clip-path="url(#clip770)" d="M590.577 1544.91 L598.216 1544.91 L598.216 1518.55 L589.906 1520.21 L589.906 1515.95 L598.17 1514.29 L602.846 1514.29 L602.846 1544.91 L610.485 1544.91 L610.485 1548.85 L590.577 1548.85 L590.577 1544.91 Z" fill="#000000" fill-rule="nonzero" fill-opacity="1" /><path clip-path="url(#clip770)" d="M619.929 1542.97 L624.813 1542.97 L624.813 1548.85 L619.929 1548.85 L619.929 1542.97 Z" fill="#000000" fill-rule="nonzero" fill-opacity="1" /><path clip-path="url(#clip770)" d="M644.998 1517.37 Q641.387 1517.37 639.558 1520.93 Q637.753 1524.47 637.753 1531.6 Q637.753 1538.71 639.558 1542.27 Q641.387 1545.82 644.998 1545.82 Q648.632 1545.82 650.438 1542.27 Q652.267 1538.71 652.267 1531.6 Q652.267 1524.47 650.438 1520.93 Q648.632 1517.37 644.998 1517.37 M644.998 1513.66 Q650.808 1513.66 653.864 1518.27 Q656.943 1522.85 656.943 1531.6 Q656.943 1540.33 653.864 1544.94 Q650.808 1549.52 644.998 1549.52 Q639.188 1549.52 636.109 1544.94 Q633.054 1540.33 633.054 1531.6 Q633.054 1522.85 636.109 1518.27 Q639.188 1513.66 644.998 1513.66 Z" fill="#000000" fill-rule="nonzero" fill-opacity="1" /><path clip-path="url(#clip770)" d="M1054.11 1532.02 L1083.79 1532.02 L1083.79 1535.95 L1054.11 1535.95 L1054.11 1532.02 Z" fill="#000000" fill-rule="nonzero" fill-opacity="1" /><path clip-path="url(#clip770)" d="M1103.88 1517.37 Q1100.27 1517.37 1098.44 1520.93 Q1096.63 1524.47 1096.63 1531.6 Q1096.63 1538.71 1098.44 1542.27 Q1100.27 1545.82 1103.88 1545.82 Q1107.51 1545.82 1109.32 1542.27 Q1111.15 1538.71 1111.15 1531.6 Q1111.15 1524.47 1109.32 1520.93 Q1107.51 1517.37 1103.88 1517.37 M1103.88 1513.66 Q1109.69 1513.66 1112.75 1518.27 Q1115.82 1522.85 1115.82 1531.6 Q1115.82 1540.33 1112.75 1544.94 Q1109.69 1549.52 1103.88 1549.52 Q1098.07 1549.52 1094.99 1544.94 Q1091.94 1540.33 1091.94 1531.6 Q1091.94 1522.85 1094.99 1518.27 Q1098.07 1513.66 1103.88 1513.66 Z" fill="#000000" fill-rule="nonzero" fill-opacity="1" /><path clip-path="url(#clip770)" d="M1124.04 1542.97 L1128.93 1542.97 L1128.93 1548.85 L1124.04 1548.85 L1124.04 1542.97 Z" fill="#000000" fill-rule="nonzero" fill-opacity="1" /><path clip-path="url(#clip770)" d="M1139.16 1514.29 L1157.51 1514.29 L1157.51 1518.22 L1143.44 1518.22 L1143.44 1526.7 Q1144.46 1526.35 1145.48 1526.19 Q1146.5 1526 1147.51 1526 Q1153.3 1526 1156.68 1529.17 Q1160.06 1532.34 1160.06 1537.76 Q1160.06 1543.34 1156.59 1546.44 Q1153.12 1549.52 1146.8 1549.52 Q1144.62 1549.52 1142.35 1549.15 Q1140.11 1548.78 1137.7 1548.04 L1137.7 1543.34 Q1139.78 1544.47 1142 1545.03 Q1144.23 1545.58 1146.7 1545.58 Q1150.71 1545.58 1153.05 1543.48 Q1155.38 1541.37 1155.38 1537.76 Q1155.38 1534.15 1153.05 1532.04 Q1150.71 1529.94 1146.7 1529.94 Q1144.83 1529.94 1142.95 1530.35 Q1141.1 1530.77 1139.16 1531.65 L1139.16 1514.29 Z" fill="#000000" fill-rule="nonzero" fill-opacity="1" /><path clip-path="url(#clip770)" d="M1588.08 1517.37 Q1584.47 1517.37 1582.65 1520.93 Q1580.84 1524.47 1580.84 1531.6 Q1580.84 1538.71 1582.65 1542.27 Q1584.47 1545.82 1588.08 1545.82 Q1591.72 1545.82 1593.52 1542.27 Q1595.35 1538.71 1595.35 1531.6 Q1595.35 1524.47 1593.52 1520.93 Q1591.72 1517.37 1588.08 1517.37 M1588.08 1513.66 Q1593.9 1513.66 1596.95 1518.27 Q1600.03 1522.85 1600.03 1531.6 Q1600.03 1540.33 1596.95 1544.94 Q1593.9 1549.52 1588.08 1549.52 Q1582.27 1549.52 1579.2 1544.94 Q1576.14 1540.33 1576.14 1531.6 Q1576.14 1522.85 1579.2 1518.27 Q1582.27 1513.66 1588.08 1513.66 Z" fill="#000000" fill-rule="nonzero" fill-opacity="1" /><path clip-path="url(#clip770)" d="M1608.25 1542.97 L1613.13 1542.97 L1613.13 1548.85 L1608.25 1548.85 L1608.25 1542.97 Z" fill="#000000" fill-rule="nonzero" fill-opacity="1" /><path clip-path="url(#clip770)" d="M1633.32 1517.37 Q1629.71 1517.37 1627.88 1520.93 Q1626.07 1524.47 1626.07 1531.6 Q1626.07 1538.71 1627.88 1542.27 Q1629.71 1545.82 1633.32 1545.82 Q1636.95 1545.82 1638.76 1542.27 Q1640.58 1538.71 1640.58 1531.6 Q1640.58 1524.47 1638.76 1520.93 Q1636.95 1517.37 1633.32 1517.37 M1633.32 1513.66 Q1639.13 1513.66 1642.18 1518.27 Q1645.26 1522.85 1645.26 1531.6 Q1645.26 1540.33 1642.18 1544.94 Q1639.13 1549.52 1633.32 1549.52 Q1627.51 1549.52 1624.43 1544.94 Q1621.37 1540.33 1621.37 1531.6 Q1621.37 1522.85 1624.43 1518.27 Q1627.51 1513.66 1633.32 1513.66 Z" fill="#000000" fill-rule="nonzero" fill-opacity="1" /><path clip-path="url(#clip770)" d="M2092.2 1517.37 Q2088.59 1517.37 2086.76 1520.93 Q2084.95 1524.47 2084.95 1531.6 Q2084.95 1538.71 2086.76 1542.27 Q2088.59 1545.82 2092.2 1545.82 Q2095.83 1545.82 2097.64 1542.27 Q2099.47 1538.71 2099.47 1531.6 Q2099.47 1524.47 2097.64 1520.93 Q2095.83 1517.37 2092.2 1517.37 M2092.2 1513.66 Q2098.01 1513.66 2101.06 1518.27 Q2104.14 1522.85 2104.14 1531.6 Q2104.14 1540.33 2101.06 1544.94 Q2098.01 1549.52 2092.2 1549.52 Q2086.39 1549.52 2083.31 1544.94 Q2080.25 1540.33 2080.25 1531.6 Q2080.25 1522.85 2083.31 1518.27 Q2086.39 1513.66 2092.2 1513.66 Z" fill="#000000" fill-rule="nonzero" fill-opacity="1" /><path clip-path="url(#clip770)" d="M2112.36 1542.97 L2117.24 1542.97 L2117.24 1548.85 L2112.36 1548.85 L2112.36 1542.97 Z" fill="#000000" fill-rule="nonzero" fill-opacity="1" /><path clip-path="url(#clip770)" d="M2127.48 1514.29 L2145.83 1514.29 L2145.83 1518.22 L2131.76 1518.22 L2131.76 1526.7 Q2132.78 1526.35 2133.79 1526.19 Q2134.81 1526 2135.83 1526 Q2141.62 1526 2145 1529.17 Q2148.38 1532.34 2148.38 1537.76 Q2148.38 1543.34 2144.91 1546.44 Q2141.43 1549.52 2135.11 1549.52 Q2132.94 1549.52 2130.67 1549.15 Q2128.42 1548.78 2126.02 1548.04 L2126.02 1543.34 Q2128.1 1544.47 2130.32 1545.03 Q2132.54 1545.58 2135.02 1545.58 Q2139.03 1545.58 2141.36 1543.48 Q2143.7 1541.37 2143.7 1537.76 Q2143.7 1534.15 2141.36 1532.04 Q2139.03 1529.94 2135.02 1529.94 Q2133.15 1529.94 2131.27 1530.35 Q2129.42 1530.77 2127.48 1531.65 L2127.48 1514.29 Z" fill="#000000" fill-rule="nonzero" fill-opacity="1" /><polyline clip-path="url(#clip770)" style="stroke:#000000; stroke-linecap:round; stroke-linejoin:round; stroke-width:4; stroke-opacity:1; fill:none" points="112.177,1486.45 112.177,47.2441 "/>
<polyline clip-path="url(#clip770)" style="stroke:#000000; stroke-linecap:round; stroke-linejoin:round; stroke-width:4; stroke-opacity:1; fill:none" points="112.177,1483.99 131.075,1483.99 "/>
<polyline clip-path="url(#clip770)" style="stroke:#000000; stroke-linecap:round; stroke-linejoin:round; stroke-width:4; stroke-opacity:1; fill:none" points="112.177,1085.31 131.075,1085.31 "/>
<polyline clip-path="url(#clip770)" style="stroke:#000000; stroke-linecap:round; stroke-linejoin:round; stroke-width:4; stroke-opacity:1; fill:none" points="112.177,686.626 131.075,686.626 "/>
<polyline clip-path="url(#clip770)" style="stroke:#000000; stroke-linecap:round; stroke-linejoin:round; stroke-width:4; stroke-opacity:1; fill:none" points="112.177,287.943 131.075,287.943 "/>
<path clip-path="url(#clip770)" d="M64.2328 1469.79 Q60.6217 1469.79 58.793 1473.35 Q56.9875 1476.89 56.9875 1484.02 Q56.9875 1491.13 58.793 1494.7 Q60.6217 1498.24 64.2328 1498.24 Q67.867 1498.24 69.6726 1494.7 Q71.5013 1491.13 71.5013 1484.02 Q71.5013 1476.89 69.6726 1473.35 Q67.867 1469.79 64.2328 1469.79 M64.2328 1466.08 Q70.0429 1466.08 73.0985 1470.69 Q76.1772 1475.27 76.1772 1484.02 Q76.1772 1492.75 73.0985 1497.36 Q70.0429 1501.94 64.2328 1501.94 Q58.4226 1501.94 55.344 1497.36 Q52.2884 1492.75 52.2884 1484.02 Q52.2884 1475.27 55.344 1470.69 Q58.4226 1466.08 64.2328 1466.08 Z" fill="#000000" fill-rule="nonzero" fill-opacity="1" /><path clip-path="url(#clip770)" d="M59.8578 1098.65 L76.1772 1098.65 L76.1772 1102.59 L54.2328 1102.59 L54.2328 1098.65 Q56.8949 1095.9 61.4782 1091.27 Q66.0846 1086.62 67.2652 1085.27 Q69.5105 1082.75 70.3902 1081.01 Q71.2929 1079.25 71.2929 1077.56 Q71.2929 1074.81 69.3485 1073.07 Q67.4272 1071.34 64.3254 1071.34 Q62.1263 1071.34 59.6726 1072.1 Q57.2421 1072.87 54.4643 1074.42 L54.4643 1069.69 Q57.2884 1068.56 59.7421 1067.98 Q62.1958 1067.4 64.2328 1067.4 Q69.6031 1067.4 72.7976 1070.09 Q75.992 1072.77 75.992 1077.26 Q75.992 1079.39 75.1818 1081.31 Q74.3948 1083.21 72.2883 1085.81 Q71.7096 1086.48 68.6078 1089.69 Q65.5059 1092.89 59.8578 1098.65 Z" fill="#000000" fill-rule="nonzero" fill-opacity="1" /><path clip-path="url(#clip770)" d="M66.5939 673.42 L54.7884 691.869 L66.5939 691.869 L66.5939 673.42 M65.367 669.346 L71.2466 669.346 L71.2466 691.869 L76.1772 691.869 L76.1772 695.757 L71.2466 695.757 L71.2466 703.906 L66.5939 703.906 L66.5939 695.757 L50.9921 695.757 L50.9921 691.244 L65.367 669.346 Z" fill="#000000" fill-rule="nonzero" fill-opacity="1" /><path clip-path="url(#clip770)" d="M64.6495 286.08 Q61.5013 286.08 59.6495 288.233 Q57.8208 290.385 57.8208 294.135 Q57.8208 297.862 59.6495 300.038 Q61.5013 302.191 64.6495 302.191 Q67.7976 302.191 69.6263 300.038 Q71.4781 297.862 71.4781 294.135 Q71.4781 290.385 69.6263 288.233 Q67.7976 286.08 64.6495 286.08 M73.9318 271.427 L73.9318 275.686 Q72.1726 274.853 70.367 274.413 Q68.5846 273.973 66.8254 273.973 Q62.1958 273.973 59.7421 277.098 Q57.3115 280.223 56.9643 286.543 Q58.33 284.529 60.3902 283.464 Q62.4504 282.376 64.9272 282.376 Q70.1355 282.376 73.1448 285.548 Q76.1772 288.696 76.1772 294.135 Q76.1772 299.459 73.029 302.677 Q69.8809 305.895 64.6495 305.895 Q58.6541 305.895 55.4828 301.311 Q52.3116 296.705 52.3116 287.978 Q52.3116 279.784 56.2004 274.923 Q60.0893 270.038 66.6402 270.038 Q68.3994 270.038 70.1818 270.386 Q71.9874 270.733 73.9318 271.427 Z" fill="#000000" fill-rule="nonzero" fill-opacity="1" /><circle clip-path="url(#clip772)" cx="2289.34" cy="1373" r="14.4" fill="#808080" fill-rule="evenodd" fill-opacity="1" stroke="#000000" stroke-opacity="1" stroke-width="3.2"/>
<circle clip-path="url(#clip772)" cx="175.59" cy="87.9763" r="14.4" fill="#808080" fill-rule="evenodd" fill-opacity="1" stroke="#000000" stroke-opacity="1" stroke-width="3.2"/>
<circle clip-path="url(#clip772)" cx="1690.44" cy="1445.72" r="14.4" fill="#808080" fill-rule="evenodd" fill-opacity="1" stroke="#000000" stroke-opacity="1" stroke-width="3.2"/>
<circle clip-path="url(#clip772)" cx="1505.15" cy="1436.94" r="14.4" fill="#808080" fill-rule="evenodd" fill-opacity="1" stroke="#000000" stroke-opacity="1" stroke-width="3.2"/>
<path clip-path="url(#clip770)" d="M2293.64 1380.43 Q2284.6 1380.43 2281.12 1382.5 Q2277.64 1384.56 2277.64 1389.55 Q2277.64 1393.52 2280.23 1395.86 Q2282.86 1398.17 2287.36 1398.17 Q2293.56 1398.17 2297.28 1393.8 Q2301.05 1389.38 2301.05 1382.09 L2301.05 1380.43 L2293.64 1380.43 M2308.5 1377.35 L2308.5 1403.24 L2301.05 1403.24 L2301.05 1396.35 Q2298.5 1400.48 2294.69 1402.47 Q2290.88 1404.41 2285.37 1404.41 Q2278.41 1404.41 2274.27 1400.52 Q2270.18 1396.59 2270.18 1390.03 Q2270.18 1382.38 2275.29 1378.49 Q2280.43 1374.6 2290.6 1374.6 L2301.05 1374.6 L2301.05 1373.87 Q2301.05 1368.72 2297.65 1365.93 Q2294.29 1363.09 2288.17 1363.09 Q2284.28 1363.09 2280.59 1364.02 Q2276.91 1364.96 2273.5 1366.82 L2273.5 1359.93 Q2277.6 1358.35 2281.44 1357.58 Q2285.29 1356.77 2288.94 1356.77 Q2298.78 1356.77 2303.64 1361.88 Q2308.5 1366.98 2308.5 1377.35 Z" fill="#000000" fill-rule="nonzero" fill-opacity="1" /><path clip-path="url(#clip770)" d="M188.148 95.5717 Q188.148 87.3484 184.745 82.6898 Q181.383 77.9908 175.468 77.9908 Q169.554 77.9908 166.151 82.6898 Q162.789 87.3484 162.789 95.5717 Q162.789 103.795 166.151 108.494 Q169.554 113.153 175.468 113.153 Q181.383 113.153 184.745 108.494 Q188.148 103.795 188.148 95.5717 M162.789 79.7327 Q165.138 75.6818 168.703 73.7373 Q172.309 71.7524 177.291 71.7524 Q185.555 71.7524 190.7 78.3149 Q195.885 84.8773 195.885 95.5717 Q195.885 106.266 190.7 112.829 Q185.555 119.391 177.291 119.391 Q172.309 119.391 168.703 117.447 Q165.138 115.462 162.789 111.411 L162.789 118.216 L155.295 118.216 L155.295 55.1842 L162.789 55.1842 L162.789 79.7327 Z" fill="#000000" fill-rule="nonzero" fill-opacity="1" /><path clip-path="url(#clip770)" d="M1708.39 1432.33 L1708.39 1439.3 Q1705.23 1437.55 1702.03 1436.7 Q1698.87 1435.81 1695.62 1435.81 Q1688.37 1435.81 1684.36 1440.43 Q1680.35 1445.01 1680.35 1453.31 Q1680.35 1461.62 1684.36 1466.23 Q1688.37 1470.81 1695.62 1470.81 Q1698.87 1470.81 1702.03 1469.96 Q1705.23 1469.07 1708.39 1467.33 L1708.39 1474.21 Q1705.27 1475.67 1701.9 1476.4 Q1698.58 1477.13 1694.81 1477.13 Q1684.57 1477.13 1678.53 1470.69 Q1672.49 1464.25 1672.49 1453.31 Q1672.49 1442.21 1678.57 1435.85 Q1684.69 1429.49 1695.3 1429.49 Q1698.74 1429.49 1702.03 1430.22 Q1705.31 1430.91 1708.39 1432.33 Z" fill="#000000" fill-rule="nonzero" fill-opacity="1" /><path clip-path="url(#clip770)" d="M1517.97 1428.7 L1517.97 1404.15 L1525.43 1404.15 L1525.43 1467.18 L1517.97 1467.18 L1517.97 1460.37 Q1515.62 1464.43 1512.02 1466.41 Q1508.45 1468.36 1503.43 1468.36 Q1495.21 1468.36 1490.02 1461.79 Q1484.88 1455.23 1484.88 1444.54 Q1484.88 1433.84 1490.02 1427.28 Q1495.21 1420.72 1503.43 1420.72 Q1508.45 1420.72 1512.02 1422.7 Q1515.62 1424.65 1517.97 1428.7 M1492.57 1444.54 Q1492.57 1452.76 1495.94 1457.46 Q1499.34 1462.12 1505.25 1462.12 Q1511.17 1462.12 1514.57 1457.46 Q1517.97 1452.76 1517.97 1444.54 Q1517.97 1436.31 1514.57 1431.65 Q1511.17 1426.95 1505.25 1426.95 Q1499.34 1426.95 1495.94 1431.65 Q1492.57 1436.31 1492.57 1444.54 Z" fill="#000000" fill-rule="nonzero" fill-opacity="1" /><path clip-path="url(#clip770)" d="M2001.58 198.898 L2278.07 198.898 L2278.07 95.2176 L2001.58 95.2176  Z" fill="#ffffff" fill-rule="evenodd" fill-opacity="1"/>
<polyline clip-path="url(#clip770)" style="stroke:#000000; stroke-linecap:round; stroke-linejoin:round; stroke-width:4; stroke-opacity:1; fill:none" points="2001.58,198.898 2278.07,198.898 2278.07,95.2176 2001.58,95.2176 2001.58,198.898 "/>
<circle clip-path="url(#clip770)" cx="2101.16" cy="147.058" r="20.48" fill="#808080" fill-rule="evenodd" fill-opacity="1" stroke="#000000" stroke-opacity="1" stroke-width="4.55111"/>
<path clip-path="url(#clip770)" d="M2214.59 166.745 Q2212.78 171.375 2211.07 172.787 Q2209.36 174.199 2206.49 174.199 L2203.08 174.199 L2203.08 170.634 L2205.58 170.634 Q2207.34 170.634 2208.31 169.8 Q2209.29 168.967 2210.47 165.865 L2211.23 163.921 L2200.74 138.412 L2205.26 138.412 L2213.36 158.689 L2221.46 138.412 L2225.98 138.412 L2214.59 166.745 Z" fill="#000000" fill-rule="nonzero" fill-opacity="1" /><path clip-path="url(#clip770)" d="M2233.27 160.402 L2240.91 160.402 L2240.91 134.037 L2232.6 135.703 L2232.6 131.444 L2240.86 129.778 L2245.54 129.778 L2245.54 160.402 L2253.17 160.402 L2253.17 164.338 L2233.27 164.338 L2233.27 160.402 Z" fill="#000000" fill-rule="nonzero" fill-opacity="1" /></svg>
