<?xml version="1.0" encoding="utf-8"?>
<svg xmlns="http://www.w3.org/2000/svg" xmlns:xlink="http://www.w3.org/1999/xlink" width="600" height="400" viewBox="0 0 2400 1600">
<defs>
  <clipPath id="clip380">
    <rect x="0" y="0" width="2400" height="1600"/>
  </clipPath>
</defs>
<path clip-path="url(#clip380)" d="M0 1600 L2400 1600 L2400 0 L0 0  Z" fill="#ffffff" fill-rule="evenodd" fill-opacity="1"/>
<defs>
  <clipPath id="clip381">
    <rect x="480" y="0" width="1681" height="1600"/>
  </clipPath>
</defs>
<path clip-path="url(#clip380)" d="M186.274 1486.45 L2352.76 1486.45 L2352.76 47.2441 L186.274 47.2441  Z" fill="#ffffff" fill-rule="evenodd" fill-opacity="1"/>
<defs>
  <clipPath id="clip382">
    <rect x="186" y="47" width="2167" height="1440"/>
  </clipPath>
</defs>
<polyline clip-path="url(#clip382)" style="stroke:#000000; stroke-linecap:round; stroke-linejoin:round; stroke-width:2; stroke-opacity:0.1; fill:none" points="328.939,1486.45 328.939,47.2441 "/>
<polyline clip-path="url(#clip382)" style="stroke:#000000; stroke-linecap:round; stroke-linejoin:round; stroke-width:2; stroke-opacity:0.1; fill:none" points="865.596,1486.45 865.596,47.2441 "/>
<polyline clip-path="url(#clip382)" style="stroke:#000000; stroke-linecap:round; stroke-linejoin:round; stroke-width:2; stroke-opacity:0.1; fill:none" points="1402.25,1486.45 1402.25,47.2441 "/>
<polyline clip-path="url(#clip382)" style="stroke:#000000; stroke-linecap:round; stroke-linejoin:round; stroke-width:2; stroke-opacity:0.1; fill:none" points="1938.91,1486.45 1938.91,47.2441 "/>
<polyline clip-path="url(#clip380)" style="stroke:#000000; stroke-linecap:round; stroke-linejoin:round; stroke-width:4; stroke-opacity:1; fill:none" points="186.274,1486.45 2352.76,1486.45 "/>
<polyline clip-path="url(#clip380)" style="stroke:#000000; stroke-linecap:round; stroke-linejoin:round; stroke-width:4; stroke-opacity:1; fill:none" points="328.939,1486.45 328.939,1467.55 "/>
<polyline clip-path="url(#clip380)" style="stroke:#000000; stroke-linecap:round; stroke-linejoin:round; stroke-width:4; stroke-opacity:1; fill:none" points="865.596,1486.45 865.596,1467.55 "/>
<polyline clip-path="url(#clip380)" style="stroke:#000000; stroke-linecap:round; stroke-linejoin:round; stroke-width:4; stroke-opacity:1; fill:none" points="1402.25,1486.45 1402.25,1467.55 "/>
<polyline clip-path="url(#clip380)" style="stroke:#000000; stroke-linecap:round; stroke-linejoin:round; stroke-width:4; stroke-opacity:1; fill:none" points="1938.91,1486.45 1938.91,1467.55 "/>
<path clip-path="url(#clip380)" d="M275.224 1532.02 L304.9 1532.02 L304.9 1535.95 L275.224 1535.95 L275.224 1532.02 Z" fill="#000000" fill-rule="nonzero" fill-opacity="1" /><path clip-path="url(#clip380)" d="M324.992 1517.37 Q321.381 1517.37 319.552 1520.93 Q317.747 1524.47 317.747 1531.6 Q317.747 1538.71 319.552 1542.27 Q321.381 1545.82 324.992 1545.82 Q328.626 1545.82 330.432 1542.27 Q332.26 1538.71 332.26 1531.6 Q332.26 1524.47 330.432 1520.93 Q328.626 1517.37 324.992 1517.37 M324.992 1513.66 Q330.802 1513.66 333.858 1518.27 Q336.936 1522.85 336.936 1531.6 Q336.936 1540.33 333.858 1544.94 Q330.802 1549.52 324.992 1549.52 Q319.182 1549.52 316.103 1544.94 Q313.048 1540.33 313.048 1531.6 Q313.048 1522.85 316.103 1518.27 Q319.182 1513.66 324.992 1513.66 Z" fill="#000000" fill-rule="nonzero" fill-opacity="1" /><path clip-path="url(#clip380)" d="M345.154 1542.97 L350.038 1542.97 L350.038 1548.85 L345.154 1548.85 L345.154 1542.97 Z" fill="#000000" fill-rule="nonzero" fill-opacity="1" /><path clip-path="url(#clip380)" d="M373.07 1518.36 L361.265 1536.81 L373.07 1536.81 L373.07 1518.36 M371.844 1514.29 L377.723 1514.29 L377.723 1536.81 L382.654 1536.81 L382.654 1540.7 L377.723 1540.7 L377.723 1548.85 L373.07 1548.85 L373.07 1540.7 L357.469 1540.7 L357.469 1536.19 L371.844 1514.29 Z" fill="#000000" fill-rule="nonzero" fill-opacity="1" /><path clip-path="url(#clip380)" d="M812.923 1532.02 L842.599 1532.02 L842.599 1535.95 L812.923 1535.95 L812.923 1532.02 Z" fill="#000000" fill-rule="nonzero" fill-opacity="1" /><path clip-path="url(#clip380)" d="M862.691 1517.37 Q859.08 1517.37 857.252 1520.93 Q855.446 1524.47 855.446 1531.6 Q855.446 1538.71 857.252 1542.27 Q859.08 1545.82 862.691 1545.82 Q866.326 1545.82 868.131 1542.27 Q869.96 1538.71 869.96 1531.6 Q869.96 1524.47 868.131 1520.93 Q866.326 1517.37 862.691 1517.37 M862.691 1513.66 Q868.501 1513.66 871.557 1518.27 Q874.636 1522.85 874.636 1531.6 Q874.636 1540.33 871.557 1544.94 Q868.501 1549.52 862.691 1549.52 Q856.881 1549.52 853.802 1544.94 Q850.747 1540.33 850.747 1531.6 Q850.747 1522.85 853.802 1518.27 Q856.881 1513.66 862.691 1513.66 Z" fill="#000000" fill-rule="nonzero" fill-opacity="1" /><path clip-path="url(#clip380)" d="M882.853 1542.97 L887.737 1542.97 L887.737 1548.85 L882.853 1548.85 L882.853 1542.97 Z" fill="#000000" fill-rule="nonzero" fill-opacity="1" /><path clip-path="url(#clip380)" d="M901.95 1544.91 L918.27 1544.91 L918.27 1548.85 L896.325 1548.85 L896.325 1544.91 Q898.987 1542.16 903.571 1537.53 Q908.177 1532.88 909.358 1531.53 Q911.603 1529.01 912.483 1527.27 Q913.385 1525.51 913.385 1523.82 Q913.385 1521.07 911.441 1519.33 Q909.52 1517.6 906.418 1517.6 Q904.219 1517.6 901.765 1518.36 Q899.335 1519.13 896.557 1520.68 L896.557 1515.95 Q899.381 1514.82 901.835 1514.24 Q904.288 1513.66 906.325 1513.66 Q911.696 1513.66 914.89 1516.35 Q918.085 1519.03 918.085 1523.52 Q918.085 1525.65 917.274 1527.57 Q916.487 1529.47 914.381 1532.07 Q913.802 1532.74 910.7 1535.95 Q907.598 1539.15 901.95 1544.91 Z" fill="#000000" fill-rule="nonzero" fill-opacity="1" /><path clip-path="url(#clip380)" d="M1379.64 1517.37 Q1376.03 1517.37 1374.2 1520.93 Q1372.39 1524.47 1372.39 1531.6 Q1372.39 1538.71 1374.2 1542.27 Q1376.03 1545.82 1379.64 1545.82 Q1383.27 1545.82 1385.08 1542.27 Q1386.91 1538.71 1386.91 1531.6 Q1386.91 1524.47 1385.08 1520.93 Q1383.27 1517.37 1379.64 1517.37 M1379.64 1513.66 Q1385.45 1513.66 1388.5 1518.27 Q1391.58 1522.85 1391.58 1531.6 Q1391.58 1540.33 1388.5 1544.94 Q1385.45 1549.52 1379.64 1549.52 Q1373.83 1549.52 1370.75 1544.94 Q1367.69 1540.33 1367.69 1531.6 Q1367.69 1522.85 1370.75 1518.27 Q1373.83 1513.66 1379.64 1513.66 Z" fill="#000000" fill-rule="nonzero" fill-opacity="1" /><path clip-path="url(#clip380)" d="M1399.8 1542.97 L1404.68 1542.97 L1404.68 1548.85 L1399.8 1548.85 L1399.8 1542.97 Z" fill="#000000" fill-rule="nonzero" fill-opacity="1" /><path clip-path="url(#clip380)" d="M1424.87 1517.37 Q1421.26 1517.37 1419.43 1520.93 Q1417.62 1524.47 1417.62 1531.6 Q1417.62 1538.71 1419.43 1542.27 Q1421.26 1545.82 1424.87 1545.82 Q1428.5 1545.82 1430.31 1542.27 Q1432.14 1538.71 1432.14 1531.6 Q1432.14 1524.47 1430.31 1520.93 Q1428.5 1517.37 1424.87 1517.37 M1424.87 1513.66 Q1430.68 1513.66 1433.74 1518.27 Q1436.81 1522.85 1436.81 1531.6 Q1436.81 1540.33 1433.74 1544.94 Q1430.68 1549.52 1424.87 1549.52 Q1419.06 1549.52 1415.98 1544.94 Q1412.93 1540.33 1412.93 1531.6 Q1412.93 1522.85 1415.98 1518.27 Q1419.06 1513.66 1424.87 1513.66 Z" fill="#000000" fill-rule="nonzero" fill-opacity="1" /><path clip-path="url(#clip380)" d="M1917.09 1517.37 Q1913.48 1517.37 1911.65 1520.93 Q1909.85 1524.47 1909.85 1531.6 Q1909.85 1538.71 1911.65 1542.27 Q1913.48 1545.82 1917.09 1545.82 Q1920.73 1545.82 1922.53 1542.27 Q1924.36 1538.71 1924.36 1531.6 Q1924.36 1524.47 1922.53 1520.93 Q1920.73 1517.37 1917.09 1517.37 M1917.09 1513.66 Q1922.9 1513.66 1925.96 1518.27 Q1929.04 1522.85 1929.04 1531.6 Q1929.04 1540.33 1925.96 1544.94 Q1922.9 1549.52 1917.09 1549.52 Q1911.28 1549.52 1908.21 1544.94 Q1905.15 1540.33 1905.15 1531.6 Q1905.15 1522.85 1908.21 1518.27 Q1911.28 1513.66 1917.09 1513.66 Z" fill="#000000" fill-rule="nonzero" fill-opacity="1" /><path clip-path="url(#clip380)" d="M1937.26 1542.97 L1942.14 1542.97 L1942.14 1548.85 L1937.26 1548.85 L1937.26 1542.97 Z" fill="#000000" fill-rule="nonzero" fill-opacity="1" /><path clip-path="url(#clip380)" d="M1956.35 1544.91 L1972.67 1544.91 L1972.67 1548.85 L1950.73 1548.85 L1950.73 1544.91 Q1953.39 1542.16 1957.97 1537.53 Q1962.58 1532.88 1963.76 1531.53 Q1966.01 1529.01 1966.89 1527.27 Q1967.79 1525.51 1967.79 1523.82 Q1967.79 1521.07 1965.84 1519.33 Q1963.92 1517.6 1960.82 1517.6 Q1958.62 1517.6 1956.17 1518.36 Q1953.74 1519.13 1950.96 1520.68 L1950.96 1515.95 Q1953.78 1514.82 1956.24 1514.24 Q1958.69 1513.66 1960.73 1513.66 Q1966.1 1513.66 1969.29 1516.35 Q1972.49 1519.03 1972.49 1523.52 Q1972.49 1525.65 1971.68 1527.57 Q1970.89 1529.47 1968.78 1532.07 Q1968.21 1532.74 1965.1 1535.95 Q1962 1539.15 1956.35 1544.91 Z" fill="#000000" fill-rule="nonzero" fill-opacity="1" /><polyline clip-path="url(#clip382)" style="stroke:#000000; stroke-linecap:round; stroke-linejoin:round; stroke-width:2; stroke-opacity:0.1; fill:none" points="186.274,1452.94 2352.76,1452.94 "/>
<polyline clip-path="url(#clip382)" style="stroke:#000000; stroke-linecap:round; stroke-linejoin:round; stroke-width:2; stroke-opacity:0.1; fill:none" points="186.274,1212.46 2352.76,1212.46 "/>
<polyline clip-path="url(#clip382)" style="stroke:#000000; stroke-linecap:round; stroke-linejoin:round; stroke-width:2; stroke-opacity:0.1; fill:none" points="186.274,971.971 2352.76,971.971 "/>
<polyline clip-path="url(#clip382)" style="stroke:#000000; stroke-linecap:round; stroke-linejoin:round; stroke-width:2; stroke-opacity:0.1; fill:none" points="186.274,731.486 2352.76,731.486 "/>
<polyline clip-path="url(#clip382)" style="stroke:#000000; stroke-linecap:round; stroke-linejoin:round; stroke-width:2; stroke-opacity:0.1; fill:none" points="186.274,491 2352.76,491 "/>
<polyline clip-path="url(#clip382)" style="stroke:#000000; stroke-linecap:round; stroke-linejoin:round; stroke-width:2; stroke-opacity:0.1; fill:none" points="186.274,250.515 2352.76,250.515 "/>
<polyline clip-path="url(#clip380)" style="stroke:#000000; stroke-linecap:round; stroke-linejoin:round; stroke-width:4; stroke-opacity:1; fill:none" points="186.274,1486.45 186.274,47.2441 "/>
<polyline clip-path="url(#clip380)" style="stroke:#000000; stroke-linecap:round; stroke-linejoin:round; stroke-width:4; stroke-opacity:1; fill:none" points="186.274,1452.94 205.172,1452.94 "/>
<polyline clip-path="url(#clip380)" style="stroke:#000000; stroke-linecap:round; stroke-linejoin:round; stroke-width:4; stroke-opacity:1; fill:none" points="186.274,1212.46 205.172,1212.46 "/>
<polyline clip-path="url(#clip380)" style="stroke:#000000; stroke-linecap:round; stroke-linejoin:round; stroke-width:4; stroke-opacity:1; fill:none" points="186.274,971.971 205.172,971.971 "/>
<polyline clip-path="url(#clip380)" style="stroke:#000000; stroke-linecap:round; stroke-linejoin:round; stroke-width:4; stroke-opacity:1; fill:none" points="186.274,731.486 205.172,731.486 "/>
<polyline clip-path="url(#clip380)" style="stroke:#000000; stroke-linecap:round; stroke-linejoin:round; stroke-width:4; stroke-opacity:1; fill:none" points="186.274,491 205.172,491 "/>
<polyline clip-path="url(#clip380)" style="stroke:#000000; stroke-linecap:round; stroke-linejoin:round; stroke-width:4; stroke-opacity:1; fill:none" points="186.274,250.515 205.172,250.515 "/>
<path clip-path="url(#clip380)" d="M62.9365 1438.74 Q59.3254 1438.74 57.4967 1442.31 Q55.6912 1445.85 55.6912 1452.98 Q55.6912 1460.08 57.4967 1463.65 Q59.3254 1467.19 62.9365 1467.19 Q66.5707 1467.19 68.3763 1463.65 Q70.205 1460.08 70.205 1452.98 Q70.205 1445.85 68.3763 1442.31 Q66.5707 1438.74 62.9365 1438.74 M62.9365 1435.04 Q68.7467 1435.04 71.8022 1439.64 Q74.8809 1444.23 74.8809 1452.98 Q74.8809 1461.7 71.8022 1466.31 Q68.7467 1470.89 62.9365 1470.89 Q57.1264 1470.89 54.0477 1466.31 Q50.9921 1461.7 50.9921 1452.98 Q50.9921 1444.23 54.0477 1439.64 Q57.1264 1435.04 62.9365 1435.04 Z" fill="#000000" fill-rule="nonzero" fill-opacity="1" /><path clip-path="url(#clip380)" d="M83.0984 1464.34 L87.9827 1464.34 L87.9827 1470.22 L83.0984 1470.22 L83.0984 1464.34 Z" fill="#000000" fill-rule="nonzero" fill-opacity="1" /><path clip-path="url(#clip380)" d="M108.168 1438.74 Q104.557 1438.74 102.728 1442.31 Q100.922 1445.85 100.922 1452.98 Q100.922 1460.08 102.728 1463.65 Q104.557 1467.19 108.168 1467.19 Q111.802 1467.19 113.608 1463.65 Q115.436 1460.08 115.436 1452.98 Q115.436 1445.85 113.608 1442.31 Q111.802 1438.74 108.168 1438.74 M108.168 1435.04 Q113.978 1435.04 117.033 1439.64 Q120.112 1444.23 120.112 1452.98 Q120.112 1461.7 117.033 1466.31 Q113.978 1470.89 108.168 1470.89 Q102.358 1470.89 99.2789 1466.31 Q96.2234 1461.7 96.2234 1452.98 Q96.2234 1444.23 99.2789 1439.64 Q102.358 1435.04 108.168 1435.04 Z" fill="#000000" fill-rule="nonzero" fill-opacity="1" /><path clip-path="url(#clip380)" d="M138.33 1438.74 Q134.719 1438.74 132.89 1442.31 Q131.084 1445.85 131.084 1452.98 Q131.084 1460.08 132.89 1463.65 Q134.719 1467.19 138.33 1467.19 Q141.964 1467.19 143.769 1463.65 Q145.598 1460.08 145.598 1452.98 Q145.598 1445.85 143.769 1442.31 Q141.964 1438.74 138.33 1438.74 M138.33 1435.04 Q144.14 1435.04 147.195 1439.64 Q150.274 1444.23 150.274 1452.98 Q150.274 1461.7 147.195 1466.31 Q144.14 1470.89 138.33 1470.89 Q132.519 1470.89 129.441 1466.31 Q126.385 1461.7 126.385 1452.98 Q126.385 1444.23 129.441 1439.64 Q132.519 1435.04 138.33 1435.04 Z" fill="#000000" fill-rule="nonzero" fill-opacity="1" /><path clip-path="url(#clip380)" d="M63.9319 1198.26 Q60.3208 1198.26 58.4921 1201.82 Q56.6865 1205.36 56.6865 1212.49 Q56.6865 1219.6 58.4921 1223.16 Q60.3208 1226.7 63.9319 1226.7 Q67.5661 1226.7 69.3717 1223.16 Q71.2004 1219.6 71.2004 1212.49 Q71.2004 1205.36 69.3717 1201.82 Q67.5661 1198.26 63.9319 1198.26 M63.9319 1194.55 Q69.742 1194.55 72.7976 1199.16 Q75.8763 1203.74 75.8763 1212.49 Q75.8763 1221.22 72.7976 1225.82 Q69.742 1230.41 63.9319 1230.41 Q58.1217 1230.41 55.043 1225.82 Q51.9875 1221.22 51.9875 1212.49 Q51.9875 1203.74 55.043 1199.16 Q58.1217 1194.55 63.9319 1194.55 Z" fill="#000000" fill-rule="nonzero" fill-opacity="1" /><path clip-path="url(#clip380)" d="M84.0938 1223.86 L88.978 1223.86 L88.978 1229.74 L84.0938 1229.74 L84.0938 1223.86 Z" fill="#000000" fill-rule="nonzero" fill-opacity="1" /><path clip-path="url(#clip380)" d="M109.163 1198.26 Q105.552 1198.26 103.723 1201.82 Q101.918 1205.36 101.918 1212.49 Q101.918 1219.6 103.723 1223.16 Q105.552 1226.7 109.163 1226.7 Q112.797 1226.7 114.603 1223.16 Q116.432 1219.6 116.432 1212.49 Q116.432 1205.36 114.603 1201.82 Q112.797 1198.26 109.163 1198.26 M109.163 1194.55 Q114.973 1194.55 118.029 1199.16 Q121.107 1203.74 121.107 1212.49 Q121.107 1221.22 118.029 1225.82 Q114.973 1230.41 109.163 1230.41 Q103.353 1230.41 100.274 1225.82 Q97.2187 1221.22 97.2187 1212.49 Q97.2187 1203.74 100.274 1199.16 Q103.353 1194.55 109.163 1194.55 Z" fill="#000000" fill-rule="nonzero" fill-opacity="1" /><path clip-path="url(#clip380)" d="M129.371 1195.18 L147.728 1195.18 L147.728 1199.11 L133.654 1199.11 L133.654 1207.58 Q134.672 1207.24 135.691 1207.08 Q136.709 1206.89 137.728 1206.89 Q143.515 1206.89 146.894 1210.06 Q150.274 1213.23 150.274 1218.65 Q150.274 1224.23 146.802 1227.33 Q143.33 1230.41 137.01 1230.41 Q134.834 1230.41 132.566 1230.04 Q130.32 1229.67 127.913 1228.93 L127.913 1224.23 Q129.996 1225.36 132.219 1225.92 Q134.441 1226.47 136.918 1226.47 Q140.922 1226.47 143.26 1224.37 Q145.598 1222.26 145.598 1218.65 Q145.598 1215.04 143.26 1212.93 Q140.922 1210.82 136.918 1210.82 Q135.043 1210.82 133.168 1211.24 Q131.316 1211.66 129.371 1212.54 L129.371 1195.18 Z" fill="#000000" fill-rule="nonzero" fill-opacity="1" /><path clip-path="url(#clip380)" d="M62.9365 957.77 Q59.3254 957.77 57.4967 961.335 Q55.6912 964.876 55.6912 972.006 Q55.6912 979.113 57.4967 982.677 Q59.3254 986.219 62.9365 986.219 Q66.5707 986.219 68.3763 982.677 Q70.205 979.113 70.205 972.006 Q70.205 964.876 68.3763 961.335 Q66.5707 957.77 62.9365 957.77 M62.9365 954.066 Q68.7467 954.066 71.8022 958.673 Q74.8809 963.256 74.8809 972.006 Q74.8809 980.733 71.8022 985.339 Q68.7467 989.923 62.9365 989.923 Q57.1264 989.923 54.0477 985.339 Q50.9921 980.733 50.9921 972.006 Q50.9921 963.256 54.0477 958.673 Q57.1264 954.066 62.9365 954.066 Z" fill="#000000" fill-rule="nonzero" fill-opacity="1" /><path clip-path="url(#clip380)" d="M83.0984 983.372 L87.9827 983.372 L87.9827 989.251 L83.0984 989.251 L83.0984 983.372 Z" fill="#000000" fill-rule="nonzero" fill-opacity="1" /><path clip-path="url(#clip380)" d="M98.978 985.316 L106.617 985.316 L106.617 958.951 L98.3067 960.617 L98.3067 956.358 L106.571 954.691 L111.246 954.691 L111.246 985.316 L118.885 985.316 L118.885 989.251 L98.978 989.251 L98.978 985.316 Z" fill="#000000" fill-rule="nonzero" fill-opacity="1" /><path clip-path="url(#clip380)" d="M138.33 957.77 Q134.719 957.77 132.89 961.335 Q131.084 964.876 131.084 972.006 Q131.084 979.113 132.89 982.677 Q134.719 986.219 138.33 986.219 Q141.964 986.219 143.769 982.677 Q145.598 979.113 145.598 972.006 Q145.598 964.876 143.769 961.335 Q141.964 957.77 138.33 957.77 M138.33 954.066 Q144.14 954.066 147.195 958.673 Q150.274 963.256 150.274 972.006 Q150.274 980.733 147.195 985.339 Q144.14 989.923 138.33 989.923 Q132.519 989.923 129.441 985.339 Q126.385 980.733 126.385 972.006 Q126.385 963.256 129.441 958.673 Q132.519 954.066 138.33 954.066 Z" fill="#000000" fill-rule="nonzero" fill-opacity="1" /><path clip-path="url(#clip380)" d="M63.9319 717.284 Q60.3208 717.284 58.4921 720.849 Q56.6865 724.391 56.6865 731.52 Q56.6865 738.627 58.4921 742.192 Q60.3208 745.733 63.9319 745.733 Q67.5661 745.733 69.3717 742.192 Q71.2004 738.627 71.2004 731.52 Q71.2004 724.391 69.3717 720.849 Q67.5661 717.284 63.9319 717.284 M63.9319 713.581 Q69.742 713.581 72.7976 718.187 Q75.8763 722.771 75.8763 731.52 Q75.8763 740.247 72.7976 744.854 Q69.742 749.437 63.9319 749.437 Q58.1217 749.437 55.043 744.854 Q51.9875 740.247 51.9875 731.52 Q51.9875 722.771 55.043 718.187 Q58.1217 713.581 63.9319 713.581 Z" fill="#000000" fill-rule="nonzero" fill-opacity="1" /><path clip-path="url(#clip380)" d="M84.0938 742.886 L88.978 742.886 L88.978 748.766 L84.0938 748.766 L84.0938 742.886 Z" fill="#000000" fill-rule="nonzero" fill-opacity="1" /><path clip-path="url(#clip380)" d="M99.9733 744.831 L107.612 744.831 L107.612 718.465 L99.3021 720.132 L99.3021 715.872 L107.566 714.206 L112.242 714.206 L112.242 744.831 L119.881 744.831 L119.881 748.766 L99.9733 748.766 L99.9733 744.831 Z" fill="#000000" fill-rule="nonzero" fill-opacity="1" /><path clip-path="url(#clip380)" d="M129.371 714.206 L147.728 714.206 L147.728 718.141 L133.654 718.141 L133.654 726.613 Q134.672 726.266 135.691 726.104 Q136.709 725.919 137.728 725.919 Q143.515 725.919 146.894 729.09 Q150.274 732.261 150.274 737.678 Q150.274 743.257 146.802 746.358 Q143.33 749.437 137.01 749.437 Q134.834 749.437 132.566 749.067 Q130.32 748.696 127.913 747.956 L127.913 743.257 Q129.996 744.391 132.219 744.946 Q134.441 745.502 136.918 745.502 Q140.922 745.502 143.26 743.395 Q145.598 741.289 145.598 737.678 Q145.598 734.067 143.26 731.96 Q140.922 729.854 136.918 729.854 Q135.043 729.854 133.168 730.27 Q131.316 730.687 129.371 731.567 L129.371 714.206 Z" fill="#000000" fill-rule="nonzero" fill-opacity="1" /><path clip-path="url(#clip380)" d="M62.9365 476.799 Q59.3254 476.799 57.4967 480.364 Q55.6912 483.905 55.6912 491.035 Q55.6912 498.141 57.4967 501.706 Q59.3254 505.248 62.9365 505.248 Q66.5707 505.248 68.3763 501.706 Q70.205 498.141 70.205 491.035 Q70.205 483.905 68.3763 480.364 Q66.5707 476.799 62.9365 476.799 M62.9365 473.095 Q68.7467 473.095 71.8022 477.702 Q74.8809 482.285 74.8809 491.035 Q74.8809 499.762 71.8022 504.368 Q68.7467 508.951 62.9365 508.951 Q57.1264 508.951 54.0477 504.368 Q50.9921 499.762 50.9921 491.035 Q50.9921 482.285 54.0477 477.702 Q57.1264 473.095 62.9365 473.095 Z" fill="#000000" fill-rule="nonzero" fill-opacity="1" /><path clip-path="url(#clip380)" d="M83.0984 502.401 L87.9827 502.401 L87.9827 508.28 L83.0984 508.28 L83.0984 502.401 Z" fill="#000000" fill-rule="nonzero" fill-opacity="1" /><path clip-path="url(#clip380)" d="M102.196 504.345 L118.515 504.345 L118.515 508.28 L96.5706 508.28 L96.5706 504.345 Q99.2326 501.59 103.816 496.961 Q108.422 492.308 109.603 490.965 Q111.848 488.442 112.728 486.706 Q113.631 484.947 113.631 483.257 Q113.631 480.503 111.686 478.766 Q109.765 477.03 106.663 477.03 Q104.464 477.03 102.01 477.794 Q99.5798 478.558 96.8021 480.109 L96.8021 475.387 Q99.6261 474.253 102.08 473.674 Q104.534 473.095 106.571 473.095 Q111.941 473.095 115.135 475.78 Q118.33 478.466 118.33 482.956 Q118.33 485.086 117.52 487.007 Q116.733 488.905 114.626 491.498 Q114.047 492.169 110.946 495.387 Q107.844 498.581 102.196 504.345 Z" fill="#000000" fill-rule="nonzero" fill-opacity="1" /><path clip-path="url(#clip380)" d="M138.33 476.799 Q134.719 476.799 132.89 480.364 Q131.084 483.905 131.084 491.035 Q131.084 498.141 132.89 501.706 Q134.719 505.248 138.33 505.248 Q141.964 505.248 143.769 501.706 Q145.598 498.141 145.598 491.035 Q145.598 483.905 143.769 480.364 Q141.964 476.799 138.33 476.799 M138.33 473.095 Q144.14 473.095 147.195 477.702 Q150.274 482.285 150.274 491.035 Q150.274 499.762 147.195 504.368 Q144.14 508.951 138.33 508.951 Q132.519 508.951 129.441 504.368 Q126.385 499.762 126.385 491.035 Q126.385 482.285 129.441 477.702 Q132.519 473.095 138.33 473.095 Z" fill="#000000" fill-rule="nonzero" fill-opacity="1" /><path clip-path="url(#clip380)" d="M63.9319 236.313 Q60.3208 236.313 58.4921 239.878 Q56.6865 243.42 56.6865 250.549 Q56.6865 257.656 58.4921 261.221 Q60.3208 264.762 63.9319 264.762 Q67.5661 264.762 69.3717 261.221 Q71.2004 257.656 71.2004 250.549 Q71.2004 243.42 69.3717 239.878 Q67.5661 236.313 63.9319 236.313 M63.9319 232.61 Q69.742 232.61 72.7976 237.216 Q75.8763 241.799 75.8763 250.549 Q75.8763 259.276 72.7976 263.883 Q69.742 268.466 63.9319 268.466 Q58.1217 268.466 55.043 263.883 Q51.9875 259.276 51.9875 250.549 Q51.9875 241.799 55.043 237.216 Q58.1217 232.61 63.9319 232.61 Z" fill="#000000" fill-rule="nonzero" fill-opacity="1" /><path clip-path="url(#clip380)" d="M84.0938 261.915 L88.978 261.915 L88.978 267.795 L84.0938 267.795 L84.0938 261.915 Z" fill="#000000" fill-rule="nonzero" fill-opacity="1" /><path clip-path="url(#clip380)" d="M103.191 263.859 L119.51 263.859 L119.51 267.795 L97.566 267.795 L97.566 263.859 Q100.228 261.105 104.811 256.475 Q109.418 251.822 110.598 250.48 Q112.844 247.957 113.723 246.221 Q114.626 244.461 114.626 242.772 Q114.626 240.017 112.682 238.281 Q110.76 236.545 107.658 236.545 Q105.459 236.545 103.006 237.309 Q100.575 238.073 97.7974 239.623 L97.7974 234.901 Q100.621 233.767 103.075 233.188 Q105.529 232.61 107.566 232.61 Q112.936 232.61 116.131 235.295 Q119.325 237.98 119.325 242.471 Q119.325 244.6 118.515 246.522 Q117.728 248.42 115.621 251.012 Q115.043 251.684 111.941 254.901 Q108.839 258.096 103.191 263.859 Z" fill="#000000" fill-rule="nonzero" fill-opacity="1" /><path clip-path="url(#clip380)" d="M129.371 233.235 L147.728 233.235 L147.728 237.17 L133.654 237.17 L133.654 245.642 Q134.672 245.295 135.691 245.133 Q136.709 244.948 137.728 244.948 Q143.515 244.948 146.894 248.119 Q150.274 251.29 150.274 256.707 Q150.274 262.285 146.802 265.387 Q143.33 268.466 137.01 268.466 Q134.834 268.466 132.566 268.096 Q130.32 267.725 127.913 266.984 L127.913 262.285 Q129.996 263.42 132.219 263.975 Q134.441 264.531 136.918 264.531 Q140.922 264.531 143.26 262.424 Q145.598 260.318 145.598 256.707 Q145.598 253.096 143.26 250.989 Q140.922 248.883 136.918 248.883 Q135.043 248.883 133.168 249.299 Q131.316 249.716 129.371 250.596 L129.371 233.235 Z" fill="#000000" fill-rule="nonzero" fill-opacity="1" /><circle clip-path="url(#clip382)" cx="1472" cy="1119.08" r="14.4" fill="#808080" fill-rule="evenodd" fill-opacity="1" stroke="#000000" stroke-opacity="1" stroke-width="3.2"/>
<circle clip-path="url(#clip382)" cx="1363.71" cy="1445.72" r="14.4" fill="#808080" fill-rule="evenodd" fill-opacity="1" stroke="#000000" stroke-opacity="1" stroke-width="3.2"/>
<circle clip-path="url(#clip382)" cx="2291.44" cy="1255.32" r="14.4" fill="#808080" fill-rule="evenodd" fill-opacity="1" stroke="#000000" stroke-opacity="1" stroke-width="3.2"/>
<circle clip-path="url(#clip382)" cx="247.59" cy="87.9763" r="14.4" fill="#808080" fill-rule="evenodd" fill-opacity="1" stroke="#000000" stroke-opacity="1" stroke-width="3.2"/>
<path clip-path="url(#clip380)" d="M1476.29 1126.52 Q1467.26 1126.52 1463.77 1128.58 Q1460.29 1130.65 1460.29 1135.63 Q1460.29 1139.6 1462.88 1141.95 Q1465.52 1144.26 1470.01 1144.26 Q1476.21 1144.26 1479.94 1139.88 Q1483.7 1135.47 1483.7 1128.18 L1483.7 1126.52 L1476.29 1126.52 M1491.16 1123.44 L1491.16 1149.32 L1483.7 1149.32 L1483.7 1142.44 Q1481.15 1146.57 1477.34 1148.55 Q1473.54 1150.5 1468.03 1150.5 Q1461.06 1150.5 1456.93 1146.61 Q1452.84 1142.68 1452.84 1136.12 Q1452.84 1128.46 1457.94 1124.57 Q1463.08 1120.68 1473.25 1120.68 L1483.7 1120.68 L1483.7 1119.95 Q1483.7 1114.81 1480.3 1112.01 Q1476.94 1109.18 1470.82 1109.18 Q1466.93 1109.18 1463.25 1110.11 Q1459.56 1111.04 1456.16 1112.91 L1456.16 1106.02 Q1460.25 1104.44 1464.1 1103.67 Q1467.95 1102.86 1471.59 1102.86 Q1481.44 1102.86 1486.3 1107.96 Q1491.16 1113.07 1491.16 1123.44 Z" fill="#000000" fill-rule="nonzero" fill-opacity="1" /><path clip-path="url(#clip380)" d="M1376.27 1453.31 Q1376.27 1445.09 1372.86 1440.43 Q1369.5 1435.73 1363.59 1435.73 Q1357.67 1435.73 1354.27 1440.43 Q1350.91 1445.09 1350.91 1453.31 Q1350.91 1461.53 1354.27 1466.23 Q1357.67 1470.89 1363.59 1470.89 Q1369.5 1470.89 1372.86 1466.23 Q1376.27 1461.53 1376.27 1453.31 M1350.91 1437.47 Q1353.26 1433.42 1356.82 1431.48 Q1360.43 1429.49 1365.41 1429.49 Q1373.67 1429.49 1378.82 1436.05 Q1384 1442.62 1384 1453.31 Q1384 1464.01 1378.82 1470.57 Q1373.67 1477.13 1365.41 1477.13 Q1360.43 1477.13 1356.82 1475.19 Q1353.26 1473.2 1350.91 1469.15 L1350.91 1475.96 L1343.41 1475.96 L1343.41 1412.92 L1350.91 1412.92 L1350.91 1437.47 Z" fill="#000000" fill-rule="nonzero" fill-opacity="1" /><path clip-path="url(#clip380)" d="M2309.39 1241.93 L2309.39 1248.9 Q2306.23 1247.16 2303.03 1246.31 Q2299.87 1245.42 2296.63 1245.42 Q2289.37 1245.42 2285.36 1250.03 Q2281.35 1254.61 2281.35 1262.92 Q2281.35 1271.22 2285.36 1275.84 Q2289.37 1280.42 2296.63 1280.42 Q2299.87 1280.42 2303.03 1279.57 Q2306.23 1278.67 2309.39 1276.93 L2309.39 1283.82 Q2306.27 1285.28 2302.9 1286.01 Q2299.58 1286.74 2295.82 1286.74 Q2285.57 1286.74 2279.53 1280.29 Q2273.49 1273.85 2273.49 1262.92 Q2273.49 1251.82 2279.57 1245.46 Q2285.69 1239.1 2296.3 1239.1 Q2299.74 1239.1 2303.03 1239.83 Q2306.31 1240.51 2309.39 1241.93 Z" fill="#000000" fill-rule="nonzero" fill-opacity="1" /><path clip-path="url(#clip380)" d="M260.411 79.7327 L260.411 55.1842 L267.864 55.1842 L267.864 118.216 L260.411 118.216 L260.411 111.411 Q258.061 115.462 254.456 117.447 Q250.891 119.391 245.868 119.391 Q237.645 119.391 232.459 112.829 Q227.315 106.266 227.315 95.5717 Q227.315 84.8773 232.459 78.3149 Q237.645 71.7524 245.868 71.7524 Q250.891 71.7524 254.456 73.7373 Q258.061 75.6818 260.411 79.7327 M235.011 95.5717 Q235.011 103.795 238.374 108.494 Q241.776 113.153 247.691 113.153 Q253.605 113.153 257.008 108.494 Q260.411 103.795 260.411 95.5717 Q260.411 87.3484 257.008 82.6898 Q253.605 77.9908 247.691 77.9908 Q241.776 77.9908 238.374 82.6898 Q235.011 87.3484 235.011 95.5717 Z" fill="#000000" fill-rule="nonzero" fill-opacity="1" /><path clip-path="url(#clip380)" d="M2011.46 198.898 L2280.54 198.898 L2280.54 95.2176 L2011.46 95.2176  Z" fill="#ffffff" fill-rule="evenodd" fill-opacity="1"/>
<polyline clip-path="url(#clip380)" style="stroke:#000000; stroke-linecap:round; stroke-linejoin:round; stroke-width:4; stroke-opacity:1; fill:none" points="2011.46,198.898 2280.54,198.898 2280.54,95.2176 2011.46,95.2176 2011.46,198.898 "/>
<circle clip-path="url(#clip380)" cx="2107.75" cy="147.058" r="20.48" fill="#808080" fill-rule="evenodd" fill-opacity="1" stroke="#000000" stroke-opacity="1" stroke-width="4.55111"/>
<path clip-path="url(#clip380)" d="M2217.88 166.745 Q2216.07 171.375 2214.36 172.787 Q2212.65 174.199 2209.78 174.199 L2206.38 174.199 L2206.38 170.634 L2208.88 170.634 Q2210.63 170.634 2211.61 169.8 Q2212.58 168.967 2213.76 165.865 L2214.52 163.921 L2204.04 138.412 L2208.55 138.412 L2216.65 158.689 L2224.76 138.412 L2229.27 138.412 L2217.88 166.745 Z" fill="#000000" fill-rule="nonzero" fill-opacity="1" /><path clip-path="url(#clip380)" d="M2236.56 160.402 L2244.2 160.402 L2244.2 134.037 L2235.89 135.703 L2235.89 131.444 L2244.15 129.778 L2248.83 129.778 L2248.83 160.402 L2256.47 160.402 L2256.47 164.338 L2236.56 164.338 L2236.56 160.402 Z" fill="#000000" fill-rule="nonzero" fill-opacity="1" /></svg>
