<?xml version="1.0" encoding="utf-8"?>
<svg xmlns="http://www.w3.org/2000/svg" xmlns:xlink="http://www.w3.org/1999/xlink" width="600" height="400" viewBox="0 0 2400 1600">
<defs>
  <clipPath id="clip440">
    <rect x="0" y="0" width="2400" height="1600"/>
  </clipPath>
</defs>
<path clip-path="url(#clip440)" d="M0 1600 L2400 1600 L2400 0 L0 0  Z" fill="#ffffff" fill-rule="evenodd" fill-opacity="1"/>
<defs>
  <clipPath id="clip441">
    <rect x="480" y="0" width="1681" height="1600"/>
  </clipPath>
</defs>
<path clip-path="url(#clip440)" d="M112.177 1486.45 L2352.76 1486.45 L2352.76 47.2441 L112.177 47.2441  Z" fill="#ffffff" fill-rule="evenodd" fill-opacity="1"/>
<defs>
  <clipPath id="clip442">
    <rect x="112" y="47" width="2242" height="1440"/>
  </clipPath>
</defs>
<polyline clip-path="url(#clip442)" style="stroke:#000000; stroke-linecap:round; stroke-linejoin:round; stroke-width:2; stroke-opacity:0.1; fill:none" points="147.224,1486.45 147.224,47.2441 "/>
<polyline clip-path="url(#clip442)" style="stroke:#000000; stroke-linecap:round; stroke-linejoin:round; stroke-width:2; stroke-opacity:0.1; fill:none" points="633.489,1486.45 633.489,47.2441 "/>
<polyline clip-path="url(#clip442)" style="stroke:#000000; stroke-linecap:round; stroke-linejoin:round; stroke-width:2; stroke-opacity:0.1; fill:none" points="1119.75,1486.45 1119.75,47.2441 "/>
<polyline clip-path="url(#clip442)" style="stroke:#000000; stroke-linecap:round; stroke-linejoin:round; stroke-width:2; stroke-opacity:0.1; fill:none" points="1606.02,1486.45 1606.02,47.2441 "/>
<polyline clip-path="url(#clip442)" style="stroke:#000000; stroke-linecap:round; stroke-linejoin:round; stroke-width:2; stroke-opacity:0.1; fill:none" points="2092.29,1486.45 2092.29,47.2441 "/>
<polyline clip-path="url(#clip440)" style="stroke:#000000; stroke-linecap:round; stroke-linejoin:round; stroke-width:4; stroke-opacity:1; fill:none" points="112.177,1486.45 2352.76,1486.45 "/>
<polyline clip-path="url(#clip440)" style="stroke:#000000; stroke-linecap:round; stroke-linejoin:round; stroke-width:4; stroke-opacity:1; fill:none" points="147.224,1486.45 147.224,1467.55 "/>
<polyline clip-path="url(#clip440)" style="stroke:#000000; stroke-linecap:round; stroke-linejoin:round; stroke-width:4; stroke-opacity:1; fill:none" points="633.489,1486.45 633.489,1467.55 "/>
<polyline clip-path="url(#clip440)" style="stroke:#000000; stroke-linecap:round; stroke-linejoin:round; stroke-width:4; stroke-opacity:1; fill:none" points="1119.75,1486.45 1119.75,1467.55 "/>
<polyline clip-path="url(#clip440)" style="stroke:#000000; stroke-linecap:round; stroke-linejoin:round; stroke-width:4; stroke-opacity:1; fill:none" points="1606.02,1486.45 1606.02,1467.55 "/>
<polyline clip-path="url(#clip440)" style="stroke:#000000; stroke-linecap:round; stroke-linejoin:round; stroke-width:4; stroke-opacity:1; fill:none" points="2092.29,1486.45 2092.29,1467.55 "/>
<path clip-path="url(#clip440)" d="M94.2496 1532.02 L123.925 1532.02 L123.925 1535.95 L94.2496 1535.95 L94.2496 1532.02 Z" fill="#000000" fill-rule="nonzero" fill-opacity="1" /><path clip-path="url(#clip440)" d="M134.828 1544.91 L142.467 1544.91 L142.467 1518.55 L134.157 1520.21 L134.157 1515.95 L142.421 1514.29 L147.096 1514.29 L147.096 1544.91 L154.735 1544.91 L154.735 1548.85 L134.828 1548.85 L134.828 1544.91 Z" fill="#000000" fill-rule="nonzero" fill-opacity="1" /><path clip-path="url(#clip440)" d="M164.18 1542.97 L169.064 1542.97 L169.064 1548.85 L164.18 1548.85 L164.18 1542.97 Z" fill="#000000" fill-rule="nonzero" fill-opacity="1" /><path clip-path="url(#clip440)" d="M179.295 1514.29 L197.652 1514.29 L197.652 1518.22 L183.578 1518.22 L183.578 1526.7 Q184.596 1526.35 185.615 1526.19 Q186.633 1526 187.652 1526 Q193.439 1526 196.818 1529.17 Q200.198 1532.34 200.198 1537.76 Q200.198 1543.34 196.726 1546.44 Q193.254 1549.52 186.934 1549.52 Q184.758 1549.52 182.49 1549.15 Q180.244 1548.78 177.837 1548.04 L177.837 1543.34 Q179.92 1544.47 182.143 1545.03 Q184.365 1545.58 186.842 1545.58 Q190.846 1545.58 193.184 1543.48 Q195.522 1541.37 195.522 1537.76 Q195.522 1534.15 193.184 1532.04 Q190.846 1529.94 186.842 1529.94 Q184.967 1529.94 183.092 1530.35 Q181.24 1530.77 179.295 1531.65 L179.295 1514.29 Z" fill="#000000" fill-rule="nonzero" fill-opacity="1" /><path clip-path="url(#clip440)" d="M580.017 1532.02 L609.693 1532.02 L609.693 1535.95 L580.017 1535.95 L580.017 1532.02 Z" fill="#000000" fill-rule="nonzero" fill-opacity="1" /><path clip-path="url(#clip440)" d="M620.596 1544.91 L628.235 1544.91 L628.235 1518.55 L619.924 1520.21 L619.924 1515.95 L628.188 1514.29 L632.864 1514.29 L632.864 1544.91 L640.503 1544.91 L640.503 1548.85 L620.596 1548.85 L620.596 1544.91 Z" fill="#000000" fill-rule="nonzero" fill-opacity="1" /><path clip-path="url(#clip440)" d="M649.947 1542.97 L654.832 1542.97 L654.832 1548.85 L649.947 1548.85 L649.947 1542.97 Z" fill="#000000" fill-rule="nonzero" fill-opacity="1" /><path clip-path="url(#clip440)" d="M675.017 1517.37 Q671.406 1517.37 669.577 1520.93 Q667.771 1524.47 667.771 1531.6 Q667.771 1538.71 669.577 1542.27 Q671.406 1545.82 675.017 1545.82 Q678.651 1545.82 680.456 1542.27 Q682.285 1538.71 682.285 1531.6 Q682.285 1524.47 680.456 1520.93 Q678.651 1517.37 675.017 1517.37 M675.017 1513.66 Q680.827 1513.66 683.882 1518.27 Q686.961 1522.85 686.961 1531.6 Q686.961 1540.33 683.882 1544.94 Q680.827 1549.52 675.017 1549.52 Q669.207 1549.52 666.128 1544.94 Q663.072 1540.33 663.072 1531.6 Q663.072 1522.85 666.128 1518.27 Q669.207 1513.66 675.017 1513.66 Z" fill="#000000" fill-rule="nonzero" fill-opacity="1" /><path clip-path="url(#clip440)" d="M1066.78 1532.02 L1096.46 1532.02 L1096.46 1535.95 L1066.78 1535.95 L1066.78 1532.02 Z" fill="#000000" fill-rule="nonzero" fill-opacity="1" /><path clip-path="url(#clip440)" d="M1116.55 1517.37 Q1112.94 1517.37 1111.11 1520.93 Q1109.3 1524.47 1109.3 1531.6 Q1109.3 1538.71 1111.11 1542.27 Q1112.94 1545.82 1116.55 1545.82 Q1120.18 1545.82 1121.99 1542.27 Q1123.82 1538.71 1123.82 1531.6 Q1123.82 1524.47 1121.99 1520.93 Q1120.18 1517.37 1116.55 1517.37 M1116.55 1513.66 Q1122.36 1513.66 1125.41 1518.27 Q1128.49 1522.85 1128.49 1531.6 Q1128.49 1540.33 1125.41 1544.94 Q1122.36 1549.52 1116.55 1549.52 Q1110.74 1549.52 1107.66 1544.94 Q1104.6 1540.33 1104.6 1531.6 Q1104.6 1522.85 1107.66 1518.27 Q1110.74 1513.66 1116.55 1513.66 Z" fill="#000000" fill-rule="nonzero" fill-opacity="1" /><path clip-path="url(#clip440)" d="M1136.71 1542.97 L1141.59 1542.97 L1141.59 1548.85 L1136.71 1548.85 L1136.71 1542.97 Z" fill="#000000" fill-rule="nonzero" fill-opacity="1" /><path clip-path="url(#clip440)" d="M1151.83 1514.29 L1170.18 1514.29 L1170.18 1518.22 L1156.11 1518.22 L1156.11 1526.7 Q1157.13 1526.35 1158.15 1526.19 Q1159.16 1526 1160.18 1526 Q1165.97 1526 1169.35 1529.17 Q1172.73 1532.34 1172.73 1537.76 Q1172.73 1543.34 1169.26 1546.44 Q1165.78 1549.52 1159.46 1549.52 Q1157.29 1549.52 1155.02 1549.15 Q1152.78 1548.78 1150.37 1548.04 L1150.37 1543.34 Q1152.45 1544.47 1154.67 1545.03 Q1156.9 1545.58 1159.37 1545.58 Q1163.38 1545.58 1165.71 1543.48 Q1168.05 1541.37 1168.05 1537.76 Q1168.05 1534.15 1165.71 1532.04 Q1163.38 1529.94 1159.37 1529.94 Q1157.5 1529.94 1155.62 1530.35 Q1153.77 1530.77 1151.83 1531.65 L1151.83 1514.29 Z" fill="#000000" fill-rule="nonzero" fill-opacity="1" /><path clip-path="url(#clip440)" d="M1583.4 1517.37 Q1579.79 1517.37 1577.96 1520.93 Q1576.16 1524.47 1576.16 1531.6 Q1576.16 1538.71 1577.96 1542.27 Q1579.79 1545.82 1583.4 1545.82 Q1587.04 1545.82 1588.84 1542.27 Q1590.67 1538.71 1590.67 1531.6 Q1590.67 1524.47 1588.84 1520.93 Q1587.04 1517.37 1583.4 1517.37 M1583.4 1513.66 Q1589.21 1513.66 1592.27 1518.27 Q1595.35 1522.85 1595.35 1531.6 Q1595.35 1540.33 1592.27 1544.94 Q1589.21 1549.52 1583.4 1549.52 Q1577.59 1549.52 1574.52 1544.94 Q1571.46 1540.33 1571.46 1531.6 Q1571.46 1522.85 1574.52 1518.27 Q1577.59 1513.66 1583.4 1513.66 Z" fill="#000000" fill-rule="nonzero" fill-opacity="1" /><path clip-path="url(#clip440)" d="M1603.57 1542.97 L1608.45 1542.97 L1608.45 1548.85 L1603.57 1548.85 L1603.57 1542.97 Z" fill="#000000" fill-rule="nonzero" fill-opacity="1" /><path clip-path="url(#clip440)" d="M1628.64 1517.37 Q1625.02 1517.37 1623.2 1520.93 Q1621.39 1524.47 1621.39 1531.6 Q1621.39 1538.71 1623.2 1542.27 Q1625.02 1545.82 1628.64 1545.82 Q1632.27 1545.82 1634.08 1542.27 Q1635.9 1538.71 1635.9 1531.6 Q1635.9 1524.47 1634.08 1520.93 Q1632.27 1517.37 1628.64 1517.37 M1628.64 1513.66 Q1634.45 1513.66 1637.5 1518.27 Q1640.58 1522.85 1640.58 1531.6 Q1640.58 1540.33 1637.5 1544.94 Q1634.45 1549.52 1628.64 1549.52 Q1622.83 1549.52 1619.75 1544.94 Q1616.69 1540.33 1616.69 1531.6 Q1616.69 1522.85 1619.75 1518.27 Q1622.83 1513.66 1628.64 1513.66 Z" fill="#000000" fill-rule="nonzero" fill-opacity="1" /><path clip-path="url(#clip440)" d="M2070.17 1517.37 Q2066.56 1517.37 2064.73 1520.93 Q2062.92 1524.47 2062.92 1531.6 Q2062.92 1538.71 2064.73 1542.27 Q2066.56 1545.82 2070.17 1545.82 Q2073.8 1545.82 2075.61 1542.27 Q2077.44 1538.71 2077.44 1531.6 Q2077.44 1524.47 2075.61 1520.93 Q2073.8 1517.37 2070.17 1517.37 M2070.17 1513.66 Q2075.98 1513.66 2079.03 1518.27 Q2082.11 1522.85 2082.11 1531.6 Q2082.11 1540.33 2079.03 1544.94 Q2075.98 1549.52 2070.17 1549.52 Q2064.36 1549.52 2061.28 1544.94 Q2058.22 1540.33 2058.22 1531.6 Q2058.22 1522.85 2061.28 1518.27 Q2064.36 1513.66 2070.17 1513.66 Z" fill="#000000" fill-rule="nonzero" fill-opacity="1" /><path clip-path="url(#clip440)" d="M2090.33 1542.97 L2095.21 1542.97 L2095.21 1548.85 L2090.33 1548.85 L2090.33 1542.97 Z" fill="#000000" fill-rule="nonzero" fill-opacity="1" /><path clip-path="url(#clip440)" d="M2105.44 1514.29 L2123.8 1514.29 L2123.8 1518.22 L2109.73 1518.22 L2109.73 1526.7 Q2110.75 1526.35 2111.76 1526.19 Q2112.78 1526 2113.8 1526 Q2119.59 1526 2122.97 1529.17 Q2126.35 1532.34 2126.35 1537.76 Q2126.35 1543.34 2122.88 1546.44 Q2119.4 1549.52 2113.08 1549.52 Q2110.91 1549.52 2108.64 1549.15 Q2106.39 1548.78 2103.99 1548.04 L2103.99 1543.34 Q2106.07 1544.47 2108.29 1545.03 Q2110.51 1545.58 2112.99 1545.58 Q2117 1545.58 2119.33 1543.48 Q2121.67 1541.37 2121.67 1537.76 Q2121.67 1534.15 2119.33 1532.04 Q2117 1529.94 2112.99 1529.94 Q2111.12 1529.94 2109.24 1530.35 Q2107.39 1530.77 2105.44 1531.65 L2105.44 1514.29 Z" fill="#000000" fill-rule="nonzero" fill-opacity="1" /><polyline clip-path="url(#clip442)" style="stroke:#000000; stroke-linecap:round; stroke-linejoin:round; stroke-width:2; stroke-opacity:0.1; fill:none" points="112.177,1483.28 2352.76,1483.28 "/>
<polyline clip-path="url(#clip442)" style="stroke:#000000; stroke-linecap:round; stroke-linejoin:round; stroke-width:2; stroke-opacity:0.1; fill:none" points="112.177,1086.96 2352.76,1086.96 "/>
<polyline clip-path="url(#clip442)" style="stroke:#000000; stroke-linecap:round; stroke-linejoin:round; stroke-width:2; stroke-opacity:0.1; fill:none" points="112.177,690.644 2352.76,690.644 "/>
<polyline clip-path="url(#clip442)" style="stroke:#000000; stroke-linecap:round; stroke-linejoin:round; stroke-width:2; stroke-opacity:0.1; fill:none" points="112.177,294.324 2352.76,294.324 "/>
<polyline clip-path="url(#clip440)" style="stroke:#000000; stroke-linecap:round; stroke-linejoin:round; stroke-width:4; stroke-opacity:1; fill:none" points="112.177,1486.45 112.177,47.2441 "/>
<polyline clip-path="url(#clip440)" style="stroke:#000000; stroke-linecap:round; stroke-linejoin:round; stroke-width:4; stroke-opacity:1; fill:none" points="112.177,1483.28 131.075,1483.28 "/>
<polyline clip-path="url(#clip440)" style="stroke:#000000; stroke-linecap:round; stroke-linejoin:round; stroke-width:4; stroke-opacity:1; fill:none" points="112.177,1086.96 131.075,1086.96 "/>
<polyline clip-path="url(#clip440)" style="stroke:#000000; stroke-linecap:round; stroke-linejoin:round; stroke-width:4; stroke-opacity:1; fill:none" points="112.177,690.644 131.075,690.644 "/>
<polyline clip-path="url(#clip440)" style="stroke:#000000; stroke-linecap:round; stroke-linejoin:round; stroke-width:4; stroke-opacity:1; fill:none" points="112.177,294.324 131.075,294.324 "/>
<path clip-path="url(#clip440)" d="M64.2328 1469.08 Q60.6217 1469.08 58.793 1472.65 Q56.9875 1476.19 56.9875 1483.32 Q56.9875 1490.43 58.793 1493.99 Q60.6217 1497.53 64.2328 1497.53 Q67.867 1497.53 69.6726 1493.99 Q71.5013 1490.43 71.5013 1483.32 Q71.5013 1476.19 69.6726 1472.65 Q67.867 1469.08 64.2328 1469.08 M64.2328 1465.38 Q70.0429 1465.38 73.0985 1469.99 Q76.1772 1474.57 76.1772 1483.32 Q76.1772 1492.05 73.0985 1496.65 Q70.0429 1501.24 64.2328 1501.24 Q58.4226 1501.24 55.344 1496.65 Q52.2884 1492.05 52.2884 1483.32 Q52.2884 1474.57 55.344 1469.99 Q58.4226 1465.38 64.2328 1465.38 Z" fill="#000000" fill-rule="nonzero" fill-opacity="1" /><path clip-path="url(#clip440)" d="M59.8578 1100.31 L76.1772 1100.31 L76.1772 1104.24 L54.2328 1104.24 L54.2328 1100.31 Q56.8949 1097.55 61.4782 1092.92 Q66.0846 1088.27 67.2652 1086.93 Q69.5105 1084.41 70.3902 1082.67 Q71.2929 1080.91 71.2929 1079.22 Q71.2929 1076.47 69.3485 1074.73 Q67.4272 1072.99 64.3254 1072.99 Q62.1263 1072.99 59.6726 1073.76 Q57.2421 1074.52 54.4643 1076.07 L54.4643 1071.35 Q57.2884 1070.22 59.7421 1069.64 Q62.1958 1069.06 64.2328 1069.06 Q69.6031 1069.06 72.7976 1071.74 Q75.992 1074.43 75.992 1078.92 Q75.992 1081.05 75.1818 1082.97 Q74.3948 1084.87 72.2883 1087.46 Q71.7096 1088.13 68.6078 1091.35 Q65.5059 1094.55 59.8578 1100.31 Z" fill="#000000" fill-rule="nonzero" fill-opacity="1" /><path clip-path="url(#clip440)" d="M66.5939 677.438 L54.7884 695.887 L66.5939 695.887 L66.5939 677.438 M65.367 673.364 L71.2466 673.364 L71.2466 695.887 L76.1772 695.887 L76.1772 699.776 L71.2466 699.776 L71.2466 707.924 L66.5939 707.924 L66.5939 699.776 L50.9921 699.776 L50.9921 695.262 L65.367 673.364 Z" fill="#000000" fill-rule="nonzero" fill-opacity="1" /><path clip-path="url(#clip440)" d="M64.6495 292.461 Q61.5013 292.461 59.6495 294.613 Q57.8208 296.766 57.8208 300.516 Q57.8208 304.243 59.6495 306.419 Q61.5013 308.572 64.6495 308.572 Q67.7976 308.572 69.6263 306.419 Q71.4781 304.243 71.4781 300.516 Q71.4781 296.766 69.6263 294.613 Q67.7976 292.461 64.6495 292.461 M73.9318 277.808 L73.9318 282.067 Q72.1726 281.234 70.367 280.794 Q68.5846 280.354 66.8254 280.354 Q62.1958 280.354 59.7421 283.479 Q57.3115 286.604 56.9643 292.924 Q58.33 290.91 60.3902 289.845 Q62.4504 288.757 64.9272 288.757 Q70.1355 288.757 73.1448 291.928 Q76.1772 295.076 76.1772 300.516 Q76.1772 305.84 73.029 309.058 Q69.8809 312.275 64.6495 312.275 Q58.6541 312.275 55.4828 307.692 Q52.3116 303.086 52.3116 294.359 Q52.3116 286.164 56.2004 281.303 Q60.0893 276.419 66.6402 276.419 Q68.3994 276.419 70.1818 276.766 Q71.9874 277.114 73.9318 277.808 Z" fill="#000000" fill-rule="nonzero" fill-opacity="1" /><circle clip-path="url(#clip442)" cx="2289.34" cy="1349.76" r="14.4" fill="#808080" fill-rule="evenodd" fill-opacity="1" stroke="#000000" stroke-opacity="1" stroke-width="3.2"/>
<circle clip-path="url(#clip442)" cx="175.59" cy="87.9763" r="14.4" fill="#808080" fill-rule="evenodd" fill-opacity="1" stroke="#000000" stroke-opacity="1" stroke-width="3.2"/>
<circle clip-path="url(#clip442)" cx="1593.95" cy="1445.72" r="14.4" fill="#808080" fill-rule="evenodd" fill-opacity="1" stroke="#000000" stroke-opacity="1" stroke-width="3.2"/>
<circle clip-path="url(#clip442)" cx="1562.09" cy="1437.28" r="14.4" fill="#808080" fill-rule="evenodd" fill-opacity="1" stroke="#000000" stroke-opacity="1" stroke-width="3.2"/>
<path clip-path="url(#clip440)" d="M2293.64 1357.19 Q2284.6 1357.19 2281.12 1359.26 Q2277.64 1361.32 2277.64 1366.31 Q2277.64 1370.28 2280.23 1372.63 Q2282.86 1374.94 2287.36 1374.94 Q2293.56 1374.94 2297.28 1370.56 Q2301.05 1366.14 2301.05 1358.85 L2301.05 1357.19 L2293.64 1357.19 M2308.5 1354.11 L2308.5 1380 L2301.05 1380 L2301.05 1373.11 Q2298.5 1377.24 2294.69 1379.23 Q2290.88 1381.17 2285.37 1381.17 Q2278.41 1381.17 2274.27 1377.28 Q2270.18 1373.36 2270.18 1366.79 Q2270.18 1359.14 2275.29 1355.25 Q2280.43 1351.36 2290.6 1351.36 L2301.05 1351.36 L2301.05 1350.63 Q2301.05 1345.49 2297.65 1342.69 Q2294.29 1339.85 2288.17 1339.85 Q2284.28 1339.85 2280.59 1340.79 Q2276.91 1341.72 2273.5 1343.58 L2273.5 1336.69 Q2277.6 1335.11 2281.44 1334.35 Q2285.29 1333.53 2288.94 1333.53 Q2298.78 1333.53 2303.64 1338.64 Q2308.5 1343.74 2308.5 1354.11 Z" fill="#000000" fill-rule="nonzero" fill-opacity="1" /><path clip-path="url(#clip440)" d="M188.148 95.5717 Q188.148 87.3484 184.745 82.6898 Q181.383 77.9908 175.468 77.9908 Q169.554 77.9908 166.151 82.6898 Q162.789 87.3484 162.789 95.5717 Q162.789 103.795 166.151 108.494 Q169.554 113.153 175.468 113.153 Q181.383 113.153 184.745 108.494 Q188.148 103.795 188.148 95.5717 M162.789 79.7327 Q165.138 75.6818 168.703 73.7373 Q172.309 71.7524 177.291 71.7524 Q185.555 71.7524 190.7 78.3149 Q195.885 84.8773 195.885 95.5717 Q195.885 106.266 190.7 112.829 Q185.555 119.391 177.291 119.391 Q172.309 119.391 168.703 117.447 Q165.138 115.462 162.789 111.411 L162.789 118.216 L155.295 118.216 L155.295 55.1842 L162.789 55.1842 L162.789 79.7327 Z" fill="#000000" fill-rule="nonzero" fill-opacity="1" /><path clip-path="url(#clip440)" d="M1611.9 1432.33 L1611.9 1439.3 Q1608.74 1437.55 1605.54 1436.7 Q1602.38 1435.81 1599.14 1435.81 Q1591.88 1435.81 1587.87 1440.43 Q1583.86 1445.01 1583.86 1453.31 Q1583.86 1461.62 1587.87 1466.23 Q1591.88 1470.81 1599.14 1470.81 Q1602.38 1470.81 1605.54 1469.96 Q1608.74 1469.07 1611.9 1467.33 L1611.9 1474.21 Q1608.78 1475.67 1605.41 1476.4 Q1602.09 1477.13 1598.33 1477.13 Q1588.08 1477.13 1582.04 1470.69 Q1576 1464.25 1576 1453.31 Q1576 1442.21 1582.08 1435.85 Q1588.2 1429.49 1598.81 1429.49 Q1602.25 1429.49 1605.54 1430.22 Q1608.82 1430.91 1611.9 1432.33 Z" fill="#000000" fill-rule="nonzero" fill-opacity="1" /><path clip-path="url(#clip440)" d="M1574.91 1429.04 L1574.91 1404.49 L1582.36 1404.49 L1582.36 1467.52 L1574.91 1467.52 L1574.91 1460.72 Q1572.56 1464.77 1568.95 1466.76 Q1565.39 1468.7 1560.36 1468.7 Q1552.14 1468.7 1546.95 1462.14 Q1541.81 1455.57 1541.81 1444.88 Q1541.81 1434.19 1546.95 1427.62 Q1552.14 1421.06 1560.36 1421.06 Q1565.39 1421.06 1568.95 1423.05 Q1572.56 1424.99 1574.91 1429.04 M1549.51 1444.88 Q1549.51 1453.1 1552.87 1457.8 Q1556.27 1462.46 1562.19 1462.46 Q1568.1 1462.46 1571.5 1457.8 Q1574.91 1453.1 1574.91 1444.88 Q1574.91 1436.66 1571.5 1432 Q1568.1 1427.3 1562.19 1427.3 Q1556.27 1427.3 1552.87 1432 Q1549.51 1436.66 1549.51 1444.88 Z" fill="#000000" fill-rule="nonzero" fill-opacity="1" /><path clip-path="url(#clip440)" d="M2001.58 198.898 L2278.07 198.898 L2278.07 95.2176 L2001.58 95.2176  Z" fill="#ffffff" fill-rule="evenodd" fill-opacity="1"/>
<polyline clip-path="url(#clip440)" style="stroke:#000000; stroke-linecap:round; stroke-linejoin:round; stroke-width:4; stroke-opacity:1; fill:none" points="2001.58,198.898 2278.07,198.898 2278.07,95.2176 2001.58,95.2176 2001.58,198.898 "/>
<circle clip-path="url(#clip440)" cx="2101.16" cy="147.058" r="20.48" fill="#808080" fill-rule="evenodd" fill-opacity="1" stroke="#000000" stroke-opacity="1" stroke-width="4.55111"/>
<path clip-path="url(#clip440)" d="M2214.59 166.745 Q2212.78 171.375 2211.07 172.787 Q2209.36 174.199 2206.49 174.199 L2203.08 174.199 L2203.08 170.634 L2205.58 170.634 Q2207.34 170.634 2208.31 169.8 Q2209.29 168.967 2210.47 165.865 L2211.23 163.921 L2200.74 138.412 L2205.26 138.412 L2213.36 158.689 L2221.46 138.412 L2225.98 138.412 L2214.59 166.745 Z" fill="#000000" fill-rule="nonzero" fill-opacity="1" /><path clip-path="url(#clip440)" d="M2233.27 160.402 L2240.91 160.402 L2240.91 134.037 L2232.6 135.703 L2232.6 131.444 L2240.86 129.778 L2245.54 129.778 L2245.54 160.402 L2253.17 160.402 L2253.17 164.338 L2233.27 164.338 L2233.27 160.402 Z" fill="#000000" fill-rule="nonzero" fill-opacity="1" /></svg>
