<?xml version="1.0" encoding="utf-8"?>
<svg xmlns="http://www.w3.org/2000/svg" xmlns:xlink="http://www.w3.org/1999/xlink" width="600" height="400" viewBox="0 0 2400 1600">
<defs>
  <clipPath id="clip700">
    <rect x="0" y="0" width="2400" height="1600"/>
  </clipPath>
</defs>
<path clip-path="url(#clip700)" d="M0 1600 L2400 1600 L2400 0 L0 0  Z" fill="#ffffff" fill-rule="evenodd" fill-opacity="1"/>
<defs>
  <clipPath id="clip701">
    <rect x="156" y="47" width="2197" height="1440"/>
  </clipPath>
</defs>
<path clip-path="url(#clip700)" d="M156.598 1486.45 L2352.76 1486.45 L2352.76 47.2441 L156.598 47.2441  Z" fill="#ffffff" fill-rule="evenodd" fill-opacity="1"/>
<polyline clip-path="url(#clip701)" style="stroke:#000000; stroke-linecap:round; stroke-linejoin:round; stroke-width:2; stroke-opacity:0.1; fill:none" points="549.124,1486.45 549.124,47.2441 "/>
<polyline clip-path="url(#clip701)" style="stroke:#000000; stroke-linecap:round; stroke-linejoin:round; stroke-width:2; stroke-opacity:0.1; fill:none" points="1022.85,1486.45 1022.85,47.2441 "/>
<polyline clip-path="url(#clip701)" style="stroke:#000000; stroke-linecap:round; stroke-linejoin:round; stroke-width:2; stroke-opacity:0.1; fill:none" points="1496.57,1486.45 1496.57,47.2441 "/>
<polyline clip-path="url(#clip701)" style="stroke:#000000; stroke-linecap:round; stroke-linejoin:round; stroke-width:2; stroke-opacity:0.1; fill:none" points="1970.29,1486.45 1970.29,47.2441 "/>
<polyline clip-path="url(#clip701)" style="stroke:#000000; stroke-linecap:round; stroke-linejoin:round; stroke-width:2; stroke-opacity:0.1; fill:none" points="156.598,1455.5 2352.76,1455.5 "/>
<polyline clip-path="url(#clip701)" style="stroke:#000000; stroke-linecap:round; stroke-linejoin:round; stroke-width:2; stroke-opacity:0.1; fill:none" points="156.598,1133.53 2352.76,1133.53 "/>
<polyline clip-path="url(#clip701)" style="stroke:#000000; stroke-linecap:round; stroke-linejoin:round; stroke-width:2; stroke-opacity:0.1; fill:none" points="156.598,811.567 2352.76,811.567 "/>
<polyline clip-path="url(#clip701)" style="stroke:#000000; stroke-linecap:round; stroke-linejoin:round; stroke-width:2; stroke-opacity:0.1; fill:none" points="156.598,489.602 2352.76,489.602 "/>
<polyline clip-path="url(#clip701)" style="stroke:#000000; stroke-linecap:round; stroke-linejoin:round; stroke-width:2; stroke-opacity:0.1; fill:none" points="156.598,167.636 2352.76,167.636 "/>
<polyline clip-path="url(#clip700)" style="stroke:#000000; stroke-linecap:round; stroke-linejoin:round; stroke-width:4; stroke-opacity:1; fill:none" points="156.598,1486.45 2352.76,1486.45 "/>
<polyline clip-path="url(#clip700)" style="stroke:#000000; stroke-linecap:round; stroke-linejoin:round; stroke-width:4; stroke-opacity:1; fill:none" points="549.124,1486.45 549.124,1467.55 "/>
<polyline clip-path="url(#clip700)" style="stroke:#000000; stroke-linecap:round; stroke-linejoin:round; stroke-width:4; stroke-opacity:1; fill:none" points="1022.85,1486.45 1022.85,1467.55 "/>
<polyline clip-path="url(#clip700)" style="stroke:#000000; stroke-linecap:round; stroke-linejoin:round; stroke-width:4; stroke-opacity:1; fill:none" points="1496.57,1486.45 1496.57,1467.55 "/>
<polyline clip-path="url(#clip700)" style="stroke:#000000; stroke-linecap:round; stroke-linejoin:round; stroke-width:4; stroke-opacity:1; fill:none" points="1970.29,1486.45 1970.29,1467.55 "/>
<path clip-path="url(#clip700)" d="M495.409 1532.02 L525.085 1532.02 L525.085 1535.95 L495.409 1535.95 L495.409 1532.02 Z" fill="#000000" fill-rule="nonzero" fill-opacity="1" /><path clip-path="url(#clip700)" d="M545.177 1517.37 Q541.566 1517.37 539.738 1520.93 Q537.932 1524.47 537.932 1531.6 Q537.932 1538.71 539.738 1542.27 Q541.566 1545.82 545.177 1545.82 Q548.812 1545.82 550.617 1542.27 Q552.446 1538.71 552.446 1531.6 Q552.446 1524.47 550.617 1520.93 Q548.812 1517.37 545.177 1517.37 M545.177 1513.66 Q550.988 1513.66 554.043 1518.27 Q557.122 1522.85 557.122 1531.6 Q557.122 1540.33 554.043 1544.94 Q550.988 1549.52 545.177 1549.52 Q539.367 1549.52 536.289 1544.94 Q533.233 1540.33 533.233 1531.6 Q533.233 1522.85 536.289 1518.27 Q539.367 1513.66 545.177 1513.66 Z" fill="#000000" fill-rule="nonzero" fill-opacity="1" /><path clip-path="url(#clip700)" d="M565.339 1542.97 L570.224 1542.97 L570.224 1548.85 L565.339 1548.85 L565.339 1542.97 Z" fill="#000000" fill-rule="nonzero" fill-opacity="1" /><path clip-path="url(#clip700)" d="M593.256 1518.36 L581.45 1536.81 L593.256 1536.81 L593.256 1518.36 M592.029 1514.29 L597.909 1514.29 L597.909 1536.81 L602.839 1536.81 L602.839 1540.7 L597.909 1540.7 L597.909 1548.85 L593.256 1548.85 L593.256 1540.7 L577.654 1540.7 L577.654 1536.19 L592.029 1514.29 Z" fill="#000000" fill-rule="nonzero" fill-opacity="1" /><path clip-path="url(#clip700)" d="M970.173 1532.02 L999.849 1532.02 L999.849 1535.95 L970.173 1535.95 L970.173 1532.02 Z" fill="#000000" fill-rule="nonzero" fill-opacity="1" /><path clip-path="url(#clip700)" d="M1019.94 1517.37 Q1016.33 1517.37 1014.5 1520.93 Q1012.7 1524.47 1012.7 1531.6 Q1012.7 1538.71 1014.5 1542.27 Q1016.33 1545.82 1019.94 1545.82 Q1023.58 1545.82 1025.38 1542.27 Q1027.21 1538.71 1027.21 1531.6 Q1027.21 1524.47 1025.38 1520.93 Q1023.58 1517.37 1019.94 1517.37 M1019.94 1513.66 Q1025.75 1513.66 1028.81 1518.27 Q1031.89 1522.85 1031.89 1531.6 Q1031.89 1540.33 1028.81 1544.94 Q1025.75 1549.52 1019.94 1549.52 Q1014.13 1549.52 1011.05 1544.94 Q1008 1540.33 1008 1531.6 Q1008 1522.85 1011.05 1518.27 Q1014.13 1513.66 1019.94 1513.66 Z" fill="#000000" fill-rule="nonzero" fill-opacity="1" /><path clip-path="url(#clip700)" d="M1040.1 1542.97 L1044.99 1542.97 L1044.99 1548.85 L1040.1 1548.85 L1040.1 1542.97 Z" fill="#000000" fill-rule="nonzero" fill-opacity="1" /><path clip-path="url(#clip700)" d="M1059.2 1544.91 L1075.52 1544.91 L1075.52 1548.85 L1053.58 1548.85 L1053.58 1544.91 Q1056.24 1542.16 1060.82 1537.53 Q1065.43 1532.88 1066.61 1531.53 Q1068.85 1529.01 1069.73 1527.27 Q1070.64 1525.51 1070.64 1523.82 Q1070.64 1521.07 1068.69 1519.33 Q1066.77 1517.6 1063.67 1517.6 Q1061.47 1517.6 1059.02 1518.36 Q1056.58 1519.13 1053.81 1520.68 L1053.81 1515.95 Q1056.63 1514.82 1059.08 1514.24 Q1061.54 1513.66 1063.58 1513.66 Q1068.95 1513.66 1072.14 1516.35 Q1075.33 1519.03 1075.33 1523.52 Q1075.33 1525.65 1074.52 1527.57 Q1073.74 1529.47 1071.63 1532.07 Q1071.05 1532.74 1067.95 1535.95 Q1064.85 1539.15 1059.2 1544.91 Z" fill="#000000" fill-rule="nonzero" fill-opacity="1" /><path clip-path="url(#clip700)" d="M1473.95 1517.37 Q1470.34 1517.37 1468.51 1520.93 Q1466.71 1524.47 1466.71 1531.6 Q1466.71 1538.71 1468.51 1542.27 Q1470.34 1545.82 1473.95 1545.82 Q1477.59 1545.82 1479.39 1542.27 Q1481.22 1538.71 1481.22 1531.6 Q1481.22 1524.47 1479.39 1520.93 Q1477.59 1517.37 1473.95 1517.37 M1473.95 1513.66 Q1479.76 1513.66 1482.82 1518.27 Q1485.9 1522.85 1485.9 1531.6 Q1485.9 1540.33 1482.82 1544.94 Q1479.76 1549.52 1473.95 1549.52 Q1468.14 1549.52 1465.06 1544.94 Q1462.01 1540.33 1462.01 1531.6 Q1462.01 1522.85 1465.06 1518.27 Q1468.14 1513.66 1473.95 1513.66 Z" fill="#000000" fill-rule="nonzero" fill-opacity="1" /><path clip-path="url(#clip700)" d="M1494.12 1542.97 L1499 1542.97 L1499 1548.85 L1494.12 1548.85 L1494.12 1542.97 Z" fill="#000000" fill-rule="nonzero" fill-opacity="1" /><path clip-path="url(#clip700)" d="M1519.18 1517.37 Q1515.57 1517.37 1513.74 1520.93 Q1511.94 1524.47 1511.94 1531.6 Q1511.94 1538.71 1513.74 1542.27 Q1515.57 1545.82 1519.18 1545.82 Q1522.82 1545.82 1524.62 1542.27 Q1526.45 1538.71 1526.45 1531.6 Q1526.45 1524.47 1524.62 1520.93 Q1522.82 1517.37 1519.18 1517.37 M1519.18 1513.66 Q1524.99 1513.66 1528.05 1518.27 Q1531.13 1522.85 1531.13 1531.6 Q1531.13 1540.33 1528.05 1544.94 Q1524.99 1549.52 1519.18 1549.52 Q1513.37 1549.52 1510.3 1544.94 Q1507.24 1540.33 1507.24 1531.6 Q1507.24 1522.85 1510.3 1518.27 Q1513.37 1513.66 1519.18 1513.66 Z" fill="#000000" fill-rule="nonzero" fill-opacity="1" /><path clip-path="url(#clip700)" d="M1948.47 1517.37 Q1944.86 1517.37 1943.03 1520.93 Q1941.23 1524.47 1941.23 1531.6 Q1941.23 1538.71 1943.03 1542.27 Q1944.86 1545.82 1948.47 1545.82 Q1952.11 1545.82 1953.91 1542.27 Q1955.74 1538.71 1955.74 1531.6 Q1955.74 1524.47 1953.91 1520.93 Q1952.11 1517.37 1948.47 1517.37 M1948.47 1513.66 Q1954.28 1513.66 1957.34 1518.27 Q1960.42 1522.85 1960.42 1531.6 Q1960.42 1540.33 1957.34 1544.94 Q1954.28 1549.52 1948.47 1549.52 Q1942.66 1549.52 1939.59 1544.94 Q1936.53 1540.33 1936.53 1531.6 Q1936.53 1522.85 1939.59 1518.27 Q1942.66 1513.66 1948.47 1513.66 Z" fill="#000000" fill-rule="nonzero" fill-opacity="1" /><path clip-path="url(#clip700)" d="M1968.64 1542.97 L1973.52 1542.97 L1973.52 1548.85 L1968.64 1548.85 L1968.64 1542.97 Z" fill="#000000" fill-rule="nonzero" fill-opacity="1" /><path clip-path="url(#clip700)" d="M1987.73 1544.91 L2004.05 1544.91 L2004.05 1548.85 L1982.11 1548.85 L1982.11 1544.91 Q1984.77 1542.16 1989.35 1537.53 Q1993.96 1532.88 1995.14 1531.53 Q1997.39 1529.01 1998.27 1527.27 Q1999.17 1525.51 1999.17 1523.82 Q1999.17 1521.07 1997.22 1519.33 Q1995.3 1517.6 1992.2 1517.6 Q1990 1517.6 1987.55 1518.36 Q1985.12 1519.13 1982.34 1520.68 L1982.34 1515.95 Q1985.16 1514.82 1987.62 1514.24 Q1990.07 1513.66 1992.11 1513.66 Q1997.48 1513.66 2000.67 1516.35 Q2003.87 1519.03 2003.87 1523.52 Q2003.87 1525.65 2003.06 1527.57 Q2002.27 1529.47 2000.16 1532.07 Q1999.58 1532.74 1996.48 1535.95 Q1993.38 1539.15 1987.73 1544.91 Z" fill="#000000" fill-rule="nonzero" fill-opacity="1" /><polyline clip-path="url(#clip700)" style="stroke:#000000; stroke-linecap:round; stroke-linejoin:round; stroke-width:4; stroke-opacity:1; fill:none" points="156.598,1486.45 156.598,47.2441 "/>
<polyline clip-path="url(#clip700)" style="stroke:#000000; stroke-linecap:round; stroke-linejoin:round; stroke-width:4; stroke-opacity:1; fill:none" points="156.598,1455.5 175.496,1455.5 "/>
<polyline clip-path="url(#clip700)" style="stroke:#000000; stroke-linecap:round; stroke-linejoin:round; stroke-width:4; stroke-opacity:1; fill:none" points="156.598,1133.53 175.496,1133.53 "/>
<polyline clip-path="url(#clip700)" style="stroke:#000000; stroke-linecap:round; stroke-linejoin:round; stroke-width:4; stroke-opacity:1; fill:none" points="156.598,811.567 175.496,811.567 "/>
<polyline clip-path="url(#clip700)" style="stroke:#000000; stroke-linecap:round; stroke-linejoin:round; stroke-width:4; stroke-opacity:1; fill:none" points="156.598,489.602 175.496,489.602 "/>
<polyline clip-path="url(#clip700)" style="stroke:#000000; stroke-linecap:round; stroke-linejoin:round; stroke-width:4; stroke-opacity:1; fill:none" points="156.598,167.636 175.496,167.636 "/>
<path clip-path="url(#clip700)" d="M63.4226 1441.3 Q59.8115 1441.3 57.9828 1444.86 Q56.1773 1448.4 56.1773 1455.53 Q56.1773 1462.64 57.9828 1466.2 Q59.8115 1469.74 63.4226 1469.74 Q67.0569 1469.74 68.8624 1466.2 Q70.6911 1462.64 70.6911 1455.53 Q70.6911 1448.4 68.8624 1444.86 Q67.0569 1441.3 63.4226 1441.3 M63.4226 1437.59 Q69.2328 1437.59 72.2883 1442.2 Q75.367 1446.78 75.367 1455.53 Q75.367 1464.26 72.2883 1468.87 Q69.2328 1473.45 63.4226 1473.45 Q57.6125 1473.45 54.5338 1468.87 Q51.4782 1464.26 51.4782 1455.53 Q51.4782 1446.78 54.5338 1442.2 Q57.6125 1437.59 63.4226 1437.59 Z" fill="#000000" fill-rule="nonzero" fill-opacity="1" /><path clip-path="url(#clip700)" d="M83.5845 1466.9 L88.4688 1466.9 L88.4688 1472.78 L83.5845 1472.78 L83.5845 1466.9 Z" fill="#000000" fill-rule="nonzero" fill-opacity="1" /><path clip-path="url(#clip700)" d="M108.654 1441.3 Q105.043 1441.3 103.214 1444.86 Q101.409 1448.4 101.409 1455.53 Q101.409 1462.64 103.214 1466.2 Q105.043 1469.74 108.654 1469.74 Q112.288 1469.74 114.094 1466.2 Q115.922 1462.64 115.922 1455.53 Q115.922 1448.4 114.094 1444.86 Q112.288 1441.3 108.654 1441.3 M108.654 1437.59 Q114.464 1437.59 117.52 1442.2 Q120.598 1446.78 120.598 1455.53 Q120.598 1464.26 117.52 1468.87 Q114.464 1473.45 108.654 1473.45 Q102.844 1473.45 99.765 1468.87 Q96.7095 1464.26 96.7095 1455.53 Q96.7095 1446.78 99.765 1442.2 Q102.844 1437.59 108.654 1437.59 Z" fill="#000000" fill-rule="nonzero" fill-opacity="1" /><path clip-path="url(#clip700)" d="M64.6495 1119.33 Q61.0384 1119.33 59.2097 1122.9 Q57.4041 1126.44 57.4041 1133.57 Q57.4041 1140.67 59.2097 1144.24 Q61.0384 1147.78 64.6495 1147.78 Q68.2837 1147.78 70.0892 1144.24 Q71.9179 1140.67 71.9179 1133.57 Q71.9179 1126.44 70.0892 1122.9 Q68.2837 1119.33 64.6495 1119.33 M64.6495 1115.63 Q70.4596 1115.63 73.5152 1120.23 Q76.5938 1124.82 76.5938 1133.57 Q76.5938 1142.29 73.5152 1146.9 Q70.4596 1151.48 64.6495 1151.48 Q58.8393 1151.48 55.7606 1146.9 Q52.7051 1142.29 52.7051 1133.57 Q52.7051 1124.82 55.7606 1120.23 Q58.8393 1115.63 64.6495 1115.63 Z" fill="#000000" fill-rule="nonzero" fill-opacity="1" /><path clip-path="url(#clip700)" d="M84.8114 1144.93 L89.6956 1144.93 L89.6956 1150.81 L84.8114 1150.81 L84.8114 1144.93 Z" fill="#000000" fill-rule="nonzero" fill-opacity="1" /><path clip-path="url(#clip700)" d="M100.691 1146.88 L108.33 1146.88 L108.33 1120.51 L100.02 1122.18 L100.02 1117.92 L108.283 1116.25 L112.959 1116.25 L112.959 1146.88 L120.598 1146.88 L120.598 1150.81 L100.691 1150.81 L100.691 1146.88 Z" fill="#000000" fill-rule="nonzero" fill-opacity="1" /><path clip-path="url(#clip700)" d="M65.0198 797.366 Q61.4087 797.366 59.58 800.93 Q57.7745 804.472 57.7745 811.602 Q57.7745 818.708 59.58 822.273 Q61.4087 825.815 65.0198 825.815 Q68.6541 825.815 70.4596 822.273 Q72.2883 818.708 72.2883 811.602 Q72.2883 804.472 70.4596 800.93 Q68.6541 797.366 65.0198 797.366 M65.0198 793.662 Q70.83 793.662 73.8855 798.268 Q76.9642 802.852 76.9642 811.602 Q76.9642 820.328 73.8855 824.935 Q70.83 829.518 65.0198 829.518 Q59.2097 829.518 56.131 824.935 Q53.0754 820.328 53.0754 811.602 Q53.0754 802.852 56.131 798.268 Q59.2097 793.662 65.0198 793.662 Z" fill="#000000" fill-rule="nonzero" fill-opacity="1" /><path clip-path="url(#clip700)" d="M85.1818 822.967 L90.066 822.967 L90.066 828.847 L85.1818 828.847 L85.1818 822.967 Z" fill="#000000" fill-rule="nonzero" fill-opacity="1" /><path clip-path="url(#clip700)" d="M104.279 824.912 L120.598 824.912 L120.598 828.847 L98.6539 828.847 L98.6539 824.912 Q101.316 822.157 105.899 817.528 Q110.506 812.875 111.686 811.532 Q113.932 809.009 114.811 807.273 Q115.714 805.514 115.714 803.824 Q115.714 801.069 113.77 799.333 Q111.848 797.597 108.746 797.597 Q106.547 797.597 104.094 798.361 Q101.663 799.125 98.8854 800.676 L98.8854 795.954 Q101.709 794.819 104.163 794.241 Q106.617 793.662 108.654 793.662 Q114.024 793.662 117.219 796.347 Q120.413 799.032 120.413 803.523 Q120.413 805.653 119.603 807.574 Q118.816 809.472 116.709 812.065 Q116.131 812.736 113.029 815.953 Q109.927 819.148 104.279 824.912 Z" fill="#000000" fill-rule="nonzero" fill-opacity="1" /><path clip-path="url(#clip700)" d="M64.0708 475.4 Q60.4597 475.4 58.631 478.965 Q56.8254 482.507 56.8254 489.636 Q56.8254 496.743 58.631 500.308 Q60.4597 503.849 64.0708 503.849 Q67.705 503.849 69.5105 500.308 Q71.3392 496.743 71.3392 489.636 Q71.3392 482.507 69.5105 478.965 Q67.705 475.4 64.0708 475.4 M64.0708 471.697 Q69.8809 471.697 72.9365 476.303 Q76.0151 480.886 76.0151 489.636 Q76.0151 498.363 72.9365 502.97 Q69.8809 507.553 64.0708 507.553 Q58.2606 507.553 55.1819 502.97 Q52.1264 498.363 52.1264 489.636 Q52.1264 480.886 55.1819 476.303 Q58.2606 471.697 64.0708 471.697 Z" fill="#000000" fill-rule="nonzero" fill-opacity="1" /><path clip-path="url(#clip700)" d="M84.2327 501.002 L89.1169 501.002 L89.1169 506.882 L84.2327 506.882 L84.2327 501.002 Z" fill="#000000" fill-rule="nonzero" fill-opacity="1" /><path clip-path="url(#clip700)" d="M113.469 488.248 Q116.825 488.965 118.7 491.234 Q120.598 493.502 120.598 496.835 Q120.598 501.951 117.08 504.752 Q113.561 507.553 107.08 507.553 Q104.904 507.553 102.589 507.113 Q100.297 506.696 97.8437 505.84 L97.8437 501.326 Q99.7882 502.46 102.103 503.039 Q104.418 503.618 106.941 503.618 Q111.339 503.618 113.631 501.882 Q115.945 500.146 115.945 496.835 Q115.945 493.78 113.793 492.067 Q111.663 490.331 107.844 490.331 L103.816 490.331 L103.816 486.488 L108.029 486.488 Q111.478 486.488 113.307 485.123 Q115.135 483.734 115.135 481.141 Q115.135 478.479 113.237 477.067 Q111.362 475.632 107.844 475.632 Q105.922 475.632 103.723 476.049 Q101.524 476.465 98.8854 477.345 L98.8854 473.178 Q101.547 472.437 103.862 472.067 Q106.2 471.697 108.26 471.697 Q113.584 471.697 116.686 474.127 Q119.788 476.535 119.788 480.655 Q119.788 483.525 118.145 485.516 Q116.501 487.484 113.469 488.248 Z" fill="#000000" fill-rule="nonzero" fill-opacity="1" /><path clip-path="url(#clip700)" d="M62.9365 153.435 Q59.3254 153.435 57.4967 157 Q55.6912 160.542 55.6912 167.671 Q55.6912 174.778 57.4967 178.342 Q59.3254 181.884 62.9365 181.884 Q66.5707 181.884 68.3763 178.342 Q70.205 174.778 70.205 167.671 Q70.205 160.542 68.3763 157 Q66.5707 153.435 62.9365 153.435 M62.9365 149.731 Q68.7467 149.731 71.8022 154.338 Q74.8809 158.921 74.8809 167.671 Q74.8809 176.398 71.8022 181.004 Q68.7467 185.588 62.9365 185.588 Q57.1264 185.588 54.0477 181.004 Q50.9921 176.398 50.9921 167.671 Q50.9921 158.921 54.0477 154.338 Q57.1264 149.731 62.9365 149.731 Z" fill="#000000" fill-rule="nonzero" fill-opacity="1" /><path clip-path="url(#clip700)" d="M83.0984 179.037 L87.9827 179.037 L87.9827 184.916 L83.0984 184.916 L83.0984 179.037 Z" fill="#000000" fill-rule="nonzero" fill-opacity="1" /><path clip-path="url(#clip700)" d="M111.015 154.43 L99.2095 172.879 L111.015 172.879 L111.015 154.43 M109.788 150.356 L115.668 150.356 L115.668 172.879 L120.598 172.879 L120.598 176.768 L115.668 176.768 L115.668 184.916 L111.015 184.916 L111.015 176.768 L95.4132 176.768 L95.4132 172.254 L109.788 150.356 Z" fill="#000000" fill-rule="nonzero" fill-opacity="1" /><circle clip-path="url(#clip701)" cx="1601.13" cy="1150.89" r="14.4" fill="#808080" fill-rule="evenodd" fill-opacity="1" stroke="#000000" stroke-opacity="1" stroke-width="3.2"/>
<circle clip-path="url(#clip701)" cx="1455.54" cy="1445.72" r="14.4" fill="#808080" fill-rule="evenodd" fill-opacity="1" stroke="#000000" stroke-opacity="1" stroke-width="3.2"/>
<circle clip-path="url(#clip701)" cx="2290.6" cy="1337.32" r="14.4" fill="#808080" fill-rule="evenodd" fill-opacity="1" stroke="#000000" stroke-opacity="1" stroke-width="3.2"/>
<circle clip-path="url(#clip701)" cx="218.754" cy="87.9763" r="14.4" fill="#808080" fill-rule="evenodd" fill-opacity="1" stroke="#000000" stroke-opacity="1" stroke-width="3.2"/>
<path clip-path="url(#clip700)" d="M1605.42 1158.33 Q1596.39 1158.33 1592.9 1160.39 Q1589.42 1162.46 1589.42 1167.44 Q1589.42 1171.41 1592.01 1173.76 Q1594.65 1176.07 1599.14 1176.07 Q1605.34 1176.07 1609.07 1171.69 Q1612.83 1167.28 1612.83 1159.99 L1612.83 1158.33 L1605.42 1158.33 M1620.29 1155.25 L1620.29 1181.13 L1612.83 1181.13 L1612.83 1174.25 Q1610.28 1178.38 1606.47 1180.36 Q1602.67 1182.31 1597.16 1182.31 Q1590.19 1182.31 1586.06 1178.42 Q1581.97 1174.49 1581.97 1167.93 Q1581.97 1160.27 1587.07 1156.38 Q1592.21 1152.49 1602.38 1152.49 L1612.83 1152.49 L1612.83 1151.76 Q1612.83 1146.62 1609.43 1143.82 Q1606.07 1140.99 1599.95 1140.99 Q1596.06 1140.99 1592.38 1141.92 Q1588.69 1142.85 1585.29 1144.71 L1585.29 1137.83 Q1589.38 1136.25 1593.23 1135.48 Q1597.08 1134.67 1600.72 1134.67 Q1610.57 1134.67 1615.43 1139.77 Q1620.29 1144.88 1620.29 1155.25 Z" fill="#000000" fill-rule="nonzero" fill-opacity="1" /><path clip-path="url(#clip700)" d="M1468.1 1453.31 Q1468.1 1445.09 1464.7 1440.43 Q1461.34 1435.73 1455.42 1435.73 Q1449.51 1435.73 1446.11 1440.43 Q1442.74 1445.09 1442.74 1453.31 Q1442.74 1461.53 1446.11 1466.23 Q1449.51 1470.89 1455.42 1470.89 Q1461.34 1470.89 1464.7 1466.23 Q1468.1 1461.53 1468.1 1453.31 M1442.74 1437.47 Q1445.09 1433.42 1448.66 1431.48 Q1452.26 1429.49 1457.25 1429.49 Q1465.51 1429.49 1470.65 1436.05 Q1475.84 1442.62 1475.84 1453.31 Q1475.84 1464.01 1470.65 1470.57 Q1465.51 1477.13 1457.25 1477.13 Q1452.26 1477.13 1448.66 1475.19 Q1445.09 1473.2 1442.74 1469.15 L1442.74 1475.96 L1435.25 1475.96 L1435.25 1412.92 L1442.74 1412.92 L1442.74 1437.47 Z" fill="#000000" fill-rule="nonzero" fill-opacity="1" /><path clip-path="url(#clip700)" d="M2308.55 1323.94 L2308.55 1330.9 Q2305.39 1329.16 2302.19 1328.31 Q2299.03 1327.42 2295.79 1327.42 Q2288.53 1327.42 2284.52 1332.04 Q2280.51 1336.62 2280.51 1344.92 Q2280.51 1353.22 2284.52 1357.84 Q2288.53 1362.42 2295.79 1362.42 Q2299.03 1362.42 2302.19 1361.57 Q2305.39 1360.68 2308.55 1358.94 L2308.55 1365.82 Q2305.43 1367.28 2302.06 1368.01 Q2298.74 1368.74 2294.98 1368.74 Q2284.73 1368.74 2278.69 1362.3 Q2272.65 1355.86 2272.65 1344.92 Q2272.65 1333.82 2278.73 1327.46 Q2284.85 1321.1 2295.46 1321.1 Q2298.9 1321.1 2302.19 1321.83 Q2305.47 1322.52 2308.55 1323.94 Z" fill="#000000" fill-rule="nonzero" fill-opacity="1" /><path clip-path="url(#clip700)" d="M231.575 79.7327 L231.575 55.1842 L239.028 55.1842 L239.028 118.216 L231.575 118.216 L231.575 111.411 Q229.225 115.462 225.62 117.447 Q222.055 119.391 217.032 119.391 Q208.809 119.391 203.624 112.829 Q198.479 106.266 198.479 95.5717 Q198.479 84.8773 203.624 78.3149 Q208.809 71.7524 217.032 71.7524 Q222.055 71.7524 225.62 73.7373 Q229.225 75.6818 231.575 79.7327 M206.176 95.5717 Q206.176 103.795 209.538 108.494 Q212.941 113.153 218.855 113.153 Q224.769 113.153 228.172 108.494 Q231.575 103.795 231.575 95.5717 Q231.575 87.3484 228.172 82.6898 Q224.769 77.9908 218.855 77.9908 Q212.941 77.9908 209.538 82.6898 Q206.176 87.3484 206.176 95.5717 Z" fill="#000000" fill-rule="nonzero" fill-opacity="1" /><path clip-path="url(#clip700)" d="M2007.5 198.898 L2279.55 198.898 L2279.55 95.2176 L2007.5 95.2176  Z" fill="#ffffff" fill-rule="evenodd" fill-opacity="1"/>
<polyline clip-path="url(#clip700)" style="stroke:#000000; stroke-linecap:round; stroke-linejoin:round; stroke-width:4; stroke-opacity:1; fill:none" points="2007.5,198.898 2279.55,198.898 2279.55,95.2176 2007.5,95.2176 2007.5,198.898 "/>
<circle clip-path="url(#clip700)" cx="2105.11" cy="147.058" r="20.48" fill="#808080" fill-rule="evenodd" fill-opacity="1" stroke="#000000" stroke-opacity="1" stroke-width="4.55111"/>
<path clip-path="url(#clip700)" d="M2216.56 166.745 Q2214.76 171.375 2213.04 172.787 Q2211.33 174.199 2208.46 174.199 L2205.06 174.199 L2205.06 170.634 L2207.56 170.634 Q2209.32 170.634 2210.29 169.8 Q2211.26 168.967 2212.44 165.865 L2213.2 163.921 L2202.72 138.412 L2207.23 138.412 L2215.33 158.689 L2223.44 138.412 L2227.95 138.412 L2216.56 166.745 Z" fill="#000000" fill-rule="nonzero" fill-opacity="1" /><path clip-path="url(#clip700)" d="M2235.24 160.402 L2242.88 160.402 L2242.88 134.037 L2234.57 135.703 L2234.57 131.444 L2242.83 129.778 L2247.51 129.778 L2247.51 160.402 L2255.15 160.402 L2255.15 164.338 L2235.24 164.338 L2235.24 160.402 Z" fill="#000000" fill-rule="nonzero" fill-opacity="1" /></svg>
