<?xml version="1.0" encoding="utf-8"?>
<svg xmlns="http://www.w3.org/2000/svg" xmlns:xlink="http://www.w3.org/1999/xlink" width="600" height="400" viewBox="0 0 2400 1600">
<defs>
  <clipPath id="clip640">
    <rect x="0" y="0" width="2400" height="1600"/>
  </clipPath>
</defs>
<path clip-path="url(#clip640)" d="M0 1600 L2400 1600 L2400 0 L0 0  Z" fill="#ffffff" fill-rule="evenodd" fill-opacity="1"/>
<defs>
  <clipPath id="clip641">
    <rect x="112" y="47" width="2242" height="1440"/>
  </clipPath>
</defs>
<path clip-path="url(#clip640)" d="M112.177 1486.45 L2352.76 1486.45 L2352.76 47.2441 L112.177 47.2441  Z" fill="#ffffff" fill-rule="evenodd" fill-opacity="1"/>
<polyline clip-path="url(#clip641)" style="stroke:#000000; stroke-linecap:round; stroke-linejoin:round; stroke-width:2; stroke-opacity:0.1; fill:none" points="456.526,1486.45 456.526,47.2441 "/>
<polyline clip-path="url(#clip641)" style="stroke:#000000; stroke-linecap:round; stroke-linejoin:round; stroke-width:2; stroke-opacity:0.1; fill:none" points="1032.52,1486.45 1032.52,47.2441 "/>
<polyline clip-path="url(#clip641)" style="stroke:#000000; stroke-linecap:round; stroke-linejoin:round; stroke-width:2; stroke-opacity:0.1; fill:none" points="1608.52,1486.45 1608.52,47.2441 "/>
<polyline clip-path="url(#clip641)" style="stroke:#000000; stroke-linecap:round; stroke-linejoin:round; stroke-width:2; stroke-opacity:0.1; fill:none" points="2184.51,1486.45 2184.51,47.2441 "/>
<polyline clip-path="url(#clip641)" style="stroke:#000000; stroke-linecap:round; stroke-linejoin:round; stroke-width:2; stroke-opacity:0.1; fill:none" points="112.177,1484.23 2352.76,1484.23 "/>
<polyline clip-path="url(#clip641)" style="stroke:#000000; stroke-linecap:round; stroke-linejoin:round; stroke-width:2; stroke-opacity:0.1; fill:none" points="112.177,1078.78 2352.76,1078.78 "/>
<polyline clip-path="url(#clip641)" style="stroke:#000000; stroke-linecap:round; stroke-linejoin:round; stroke-width:2; stroke-opacity:0.1; fill:none" points="112.177,673.343 2352.76,673.343 "/>
<polyline clip-path="url(#clip641)" style="stroke:#000000; stroke-linecap:round; stroke-linejoin:round; stroke-width:2; stroke-opacity:0.1; fill:none" points="112.177,267.901 2352.76,267.901 "/>
<polyline clip-path="url(#clip640)" style="stroke:#000000; stroke-linecap:round; stroke-linejoin:round; stroke-width:4; stroke-opacity:1; fill:none" points="112.177,1486.45 2352.76,1486.45 "/>
<polyline clip-path="url(#clip640)" style="stroke:#000000; stroke-linecap:round; stroke-linejoin:round; stroke-width:4; stroke-opacity:1; fill:none" points="456.526,1486.45 456.526,1467.55 "/>
<polyline clip-path="url(#clip640)" style="stroke:#000000; stroke-linecap:round; stroke-linejoin:round; stroke-width:4; stroke-opacity:1; fill:none" points="1032.52,1486.45 1032.52,1467.55 "/>
<polyline clip-path="url(#clip640)" style="stroke:#000000; stroke-linecap:round; stroke-linejoin:round; stroke-width:4; stroke-opacity:1; fill:none" points="1608.52,1486.45 1608.52,1467.55 "/>
<polyline clip-path="url(#clip640)" style="stroke:#000000; stroke-linecap:round; stroke-linejoin:round; stroke-width:4; stroke-opacity:1; fill:none" points="2184.51,1486.45 2184.51,1467.55 "/>
<path clip-path="url(#clip640)" d="M403.054 1532.02 L432.73 1532.02 L432.73 1535.95 L403.054 1535.95 L403.054 1532.02 Z" fill="#000000" fill-rule="nonzero" fill-opacity="1" /><path clip-path="url(#clip640)" d="M443.632 1544.91 L451.271 1544.91 L451.271 1518.55 L442.961 1520.21 L442.961 1515.95 L451.225 1514.29 L455.901 1514.29 L455.901 1544.91 L463.54 1544.91 L463.54 1548.85 L443.632 1548.85 L443.632 1544.91 Z" fill="#000000" fill-rule="nonzero" fill-opacity="1" /><path clip-path="url(#clip640)" d="M472.984 1542.97 L477.868 1542.97 L477.868 1548.85 L472.984 1548.85 L472.984 1542.97 Z" fill="#000000" fill-rule="nonzero" fill-opacity="1" /><path clip-path="url(#clip640)" d="M498.053 1517.37 Q494.442 1517.37 492.614 1520.93 Q490.808 1524.47 490.808 1531.6 Q490.808 1538.71 492.614 1542.27 Q494.442 1545.82 498.053 1545.82 Q501.688 1545.82 503.493 1542.27 Q505.322 1538.71 505.322 1531.6 Q505.322 1524.47 503.493 1520.93 Q501.688 1517.37 498.053 1517.37 M498.053 1513.66 Q503.864 1513.66 506.919 1518.27 Q509.998 1522.85 509.998 1531.6 Q509.998 1540.33 506.919 1544.94 Q503.864 1549.52 498.053 1549.52 Q492.243 1549.52 489.165 1544.94 Q486.109 1540.33 486.109 1531.6 Q486.109 1522.85 489.165 1518.27 Q492.243 1513.66 498.053 1513.66 Z" fill="#000000" fill-rule="nonzero" fill-opacity="1" /><path clip-path="url(#clip640)" d="M979.548 1532.02 L1009.22 1532.02 L1009.22 1535.95 L979.548 1535.95 L979.548 1532.02 Z" fill="#000000" fill-rule="nonzero" fill-opacity="1" /><path clip-path="url(#clip640)" d="M1029.32 1517.37 Q1025.7 1517.37 1023.88 1520.93 Q1022.07 1524.47 1022.07 1531.6 Q1022.07 1538.71 1023.88 1542.27 Q1025.7 1545.82 1029.32 1545.82 Q1032.95 1545.82 1034.76 1542.27 Q1036.58 1538.71 1036.58 1531.6 Q1036.58 1524.47 1034.76 1520.93 Q1032.95 1517.37 1029.32 1517.37 M1029.32 1513.66 Q1035.13 1513.66 1038.18 1518.27 Q1041.26 1522.85 1041.26 1531.6 Q1041.26 1540.33 1038.18 1544.94 Q1035.13 1549.52 1029.32 1549.52 Q1023.51 1549.52 1020.43 1544.94 Q1017.37 1540.33 1017.37 1531.6 Q1017.37 1522.85 1020.43 1518.27 Q1023.51 1513.66 1029.32 1513.66 Z" fill="#000000" fill-rule="nonzero" fill-opacity="1" /><path clip-path="url(#clip640)" d="M1049.48 1542.97 L1054.36 1542.97 L1054.36 1548.85 L1049.48 1548.85 L1049.48 1542.97 Z" fill="#000000" fill-rule="nonzero" fill-opacity="1" /><path clip-path="url(#clip640)" d="M1064.59 1514.29 L1082.95 1514.29 L1082.95 1518.22 L1068.88 1518.22 L1068.88 1526.7 Q1069.89 1526.35 1070.91 1526.19 Q1071.93 1526 1072.95 1526 Q1078.74 1526 1082.12 1529.17 Q1085.5 1532.34 1085.5 1537.76 Q1085.5 1543.34 1082.02 1546.44 Q1078.55 1549.52 1072.23 1549.52 Q1070.06 1549.52 1067.79 1549.15 Q1065.54 1548.78 1063.14 1548.04 L1063.14 1543.34 Q1065.22 1544.47 1067.44 1545.03 Q1069.66 1545.58 1072.14 1545.58 Q1076.14 1545.58 1078.48 1543.48 Q1080.82 1541.37 1080.82 1537.76 Q1080.82 1534.15 1078.48 1532.04 Q1076.14 1529.94 1072.14 1529.94 Q1070.26 1529.94 1068.39 1530.35 Q1066.54 1530.77 1064.59 1531.65 L1064.59 1514.29 Z" fill="#000000" fill-rule="nonzero" fill-opacity="1" /><path clip-path="url(#clip640)" d="M1585.9 1517.37 Q1582.29 1517.37 1580.46 1520.93 Q1578.66 1524.47 1578.66 1531.6 Q1578.66 1538.71 1580.46 1542.27 Q1582.29 1545.82 1585.9 1545.82 Q1589.54 1545.82 1591.34 1542.27 Q1593.17 1538.71 1593.17 1531.6 Q1593.17 1524.47 1591.34 1520.93 Q1589.54 1517.37 1585.9 1517.37 M1585.9 1513.66 Q1591.71 1513.66 1594.77 1518.27 Q1597.85 1522.85 1597.85 1531.6 Q1597.85 1540.33 1594.77 1544.94 Q1591.71 1549.52 1585.9 1549.52 Q1580.09 1549.52 1577.01 1544.94 Q1573.96 1540.33 1573.96 1531.6 Q1573.96 1522.85 1577.01 1518.27 Q1580.09 1513.66 1585.9 1513.66 Z" fill="#000000" fill-rule="nonzero" fill-opacity="1" /><path clip-path="url(#clip640)" d="M1606.06 1542.97 L1610.95 1542.97 L1610.95 1548.85 L1606.06 1548.85 L1606.06 1542.97 Z" fill="#000000" fill-rule="nonzero" fill-opacity="1" /><path clip-path="url(#clip640)" d="M1631.13 1517.37 Q1627.52 1517.37 1625.69 1520.93 Q1623.89 1524.47 1623.89 1531.6 Q1623.89 1538.71 1625.69 1542.27 Q1627.52 1545.82 1631.13 1545.82 Q1634.77 1545.82 1636.57 1542.27 Q1638.4 1538.71 1638.4 1531.6 Q1638.4 1524.47 1636.57 1520.93 Q1634.77 1517.37 1631.13 1517.37 M1631.13 1513.66 Q1636.94 1513.66 1640 1518.27 Q1643.08 1522.85 1643.08 1531.6 Q1643.08 1540.33 1640 1544.94 Q1636.94 1549.52 1631.13 1549.52 Q1625.32 1549.52 1622.24 1544.94 Q1619.19 1540.33 1619.19 1531.6 Q1619.19 1522.85 1622.24 1518.27 Q1625.32 1513.66 1631.13 1513.66 Z" fill="#000000" fill-rule="nonzero" fill-opacity="1" /><path clip-path="url(#clip640)" d="M2162.4 1517.37 Q2158.78 1517.37 2156.96 1520.93 Q2155.15 1524.47 2155.15 1531.6 Q2155.15 1538.71 2156.96 1542.27 Q2158.78 1545.82 2162.4 1545.82 Q2166.03 1545.82 2167.84 1542.27 Q2169.66 1538.71 2169.66 1531.6 Q2169.66 1524.47 2167.84 1520.93 Q2166.03 1517.37 2162.4 1517.37 M2162.4 1513.66 Q2168.21 1513.66 2171.26 1518.27 Q2174.34 1522.85 2174.34 1531.6 Q2174.34 1540.33 2171.26 1544.94 Q2168.21 1549.52 2162.4 1549.52 Q2156.59 1549.52 2153.51 1544.94 Q2150.45 1540.33 2150.45 1531.6 Q2150.45 1522.85 2153.51 1518.27 Q2156.59 1513.66 2162.4 1513.66 Z" fill="#000000" fill-rule="nonzero" fill-opacity="1" /><path clip-path="url(#clip640)" d="M2182.56 1542.97 L2187.44 1542.97 L2187.44 1548.85 L2182.56 1548.85 L2182.56 1542.97 Z" fill="#000000" fill-rule="nonzero" fill-opacity="1" /><path clip-path="url(#clip640)" d="M2197.67 1514.29 L2216.03 1514.29 L2216.03 1518.22 L2201.96 1518.22 L2201.96 1526.7 Q2202.97 1526.35 2203.99 1526.19 Q2205.01 1526 2206.03 1526 Q2211.82 1526 2215.2 1529.17 Q2218.58 1532.34 2218.58 1537.76 Q2218.58 1543.34 2215.1 1546.44 Q2211.63 1549.52 2205.31 1549.52 Q2203.14 1549.52 2200.87 1549.15 Q2198.62 1548.78 2196.21 1548.04 L2196.21 1543.34 Q2198.3 1544.47 2200.52 1545.03 Q2202.74 1545.58 2205.22 1545.58 Q2209.22 1545.58 2211.56 1543.48 Q2213.9 1541.37 2213.9 1537.76 Q2213.9 1534.15 2211.56 1532.04 Q2209.22 1529.94 2205.22 1529.94 Q2203.34 1529.94 2201.47 1530.35 Q2199.62 1530.77 2197.67 1531.65 L2197.67 1514.29 Z" fill="#000000" fill-rule="nonzero" fill-opacity="1" /><polyline clip-path="url(#clip640)" style="stroke:#000000; stroke-linecap:round; stroke-linejoin:round; stroke-width:4; stroke-opacity:1; fill:none" points="112.177,1486.45 112.177,47.2441 "/>
<polyline clip-path="url(#clip640)" style="stroke:#000000; stroke-linecap:round; stroke-linejoin:round; stroke-width:4; stroke-opacity:1; fill:none" points="112.177,1484.23 131.075,1484.23 "/>
<polyline clip-path="url(#clip640)" style="stroke:#000000; stroke-linecap:round; stroke-linejoin:round; stroke-width:4; stroke-opacity:1; fill:none" points="112.177,1078.78 131.075,1078.78 "/>
<polyline clip-path="url(#clip640)" style="stroke:#000000; stroke-linecap:round; stroke-linejoin:round; stroke-width:4; stroke-opacity:1; fill:none" points="112.177,673.343 131.075,673.343 "/>
<polyline clip-path="url(#clip640)" style="stroke:#000000; stroke-linecap:round; stroke-linejoin:round; stroke-width:4; stroke-opacity:1; fill:none" points="112.177,267.901 131.075,267.901 "/>
<path clip-path="url(#clip640)" d="M64.2328 1470.03 Q60.6217 1470.03 58.793 1473.59 Q56.9875 1477.13 56.9875 1484.26 Q56.9875 1491.37 58.793 1494.93 Q60.6217 1498.47 64.2328 1498.47 Q67.867 1498.47 69.6726 1494.93 Q71.5013 1491.37 71.5013 1484.26 Q71.5013 1477.13 69.6726 1473.59 Q67.867 1470.03 64.2328 1470.03 M64.2328 1466.32 Q70.0429 1466.32 73.0985 1470.93 Q76.1772 1475.51 76.1772 1484.26 Q76.1772 1492.99 73.0985 1497.59 Q70.0429 1502.18 64.2328 1502.18 Q58.4226 1502.18 55.344 1497.59 Q52.2884 1492.99 52.2884 1484.26 Q52.2884 1475.51 55.344 1470.93 Q58.4226 1466.32 64.2328 1466.32 Z" fill="#000000" fill-rule="nonzero" fill-opacity="1" /><path clip-path="url(#clip640)" d="M59.8578 1092.13 L76.1772 1092.13 L76.1772 1096.06 L54.2328 1096.06 L54.2328 1092.13 Q56.8949 1089.38 61.4782 1084.75 Q66.0846 1080.09 67.2652 1078.75 Q69.5105 1076.23 70.3902 1074.49 Q71.2929 1072.73 71.2929 1071.04 Q71.2929 1068.29 69.3485 1066.55 Q67.4272 1064.82 64.3254 1064.82 Q62.1263 1064.82 59.6726 1065.58 Q57.2421 1066.34 54.4643 1067.89 L54.4643 1063.17 Q57.2884 1062.04 59.7421 1061.46 Q62.1958 1060.88 64.2328 1060.88 Q69.6031 1060.88 72.7976 1063.57 Q75.992 1066.25 75.992 1070.74 Q75.992 1072.87 75.1818 1074.79 Q74.3948 1076.69 72.2883 1079.28 Q71.7096 1079.95 68.6078 1083.17 Q65.5059 1086.37 59.8578 1092.13 Z" fill="#000000" fill-rule="nonzero" fill-opacity="1" /><path clip-path="url(#clip640)" d="M66.5939 660.137 L54.7884 678.586 L66.5939 678.586 L66.5939 660.137 M65.367 656.063 L71.2466 656.063 L71.2466 678.586 L76.1772 678.586 L76.1772 682.475 L71.2466 682.475 L71.2466 690.623 L66.5939 690.623 L66.5939 682.475 L50.9921 682.475 L50.9921 677.961 L65.367 656.063 Z" fill="#000000" fill-rule="nonzero" fill-opacity="1" /><path clip-path="url(#clip640)" d="M64.6495 266.037 Q61.5013 266.037 59.6495 268.19 Q57.8208 270.343 57.8208 274.093 Q57.8208 277.82 59.6495 279.995 Q61.5013 282.148 64.6495 282.148 Q67.7976 282.148 69.6263 279.995 Q71.4781 277.82 71.4781 274.093 Q71.4781 270.343 69.6263 268.19 Q67.7976 266.037 64.6495 266.037 M73.9318 251.385 L73.9318 255.644 Q72.1726 254.81 70.367 254.371 Q68.5846 253.931 66.8254 253.931 Q62.1958 253.931 59.7421 257.056 Q57.3115 260.181 56.9643 266.5 Q58.33 264.486 60.3902 263.421 Q62.4504 262.334 64.9272 262.334 Q70.1355 262.334 73.1448 265.505 Q76.1772 268.653 76.1772 274.093 Q76.1772 279.417 73.029 282.634 Q69.8809 285.852 64.6495 285.852 Q58.6541 285.852 55.4828 281.269 Q52.3116 276.662 52.3116 267.935 Q52.3116 259.741 56.2004 254.88 Q60.0893 249.996 66.6402 249.996 Q68.3994 249.996 70.1818 250.343 Q71.9874 250.69 73.9318 251.385 Z" fill="#000000" fill-rule="nonzero" fill-opacity="1" /><circle clip-path="url(#clip641)" cx="2289.34" cy="1381.77" r="14.4" fill="#808080" fill-rule="evenodd" fill-opacity="1" stroke="#000000" stroke-opacity="1" stroke-width="3.2"/>
<circle clip-path="url(#clip641)" cx="175.59" cy="87.9763" r="14.4" fill="#808080" fill-rule="evenodd" fill-opacity="1" stroke="#000000" stroke-opacity="1" stroke-width="3.2"/>
<circle clip-path="url(#clip641)" cx="1644.23" cy="1445.72" r="14.4" fill="#808080" fill-rule="evenodd" fill-opacity="1" stroke="#000000" stroke-opacity="1" stroke-width="3.2"/>
<circle clip-path="url(#clip641)" cx="1468.82" cy="1420.76" r="14.4" fill="#808080" fill-rule="evenodd" fill-opacity="1" stroke="#000000" stroke-opacity="1" stroke-width="3.2"/>
<path clip-path="url(#clip640)" d="M2293.64 1389.2 Q2284.6 1389.2 2281.12 1391.27 Q2277.64 1393.33 2277.64 1398.32 Q2277.64 1402.29 2280.23 1404.64 Q2282.86 1406.94 2287.36 1406.94 Q2293.56 1406.94 2297.28 1402.57 Q2301.05 1398.15 2301.05 1390.86 L2301.05 1389.2 L2293.64 1389.2 M2308.5 1386.12 L2308.5 1412.01 L2301.05 1412.01 L2301.05 1405.12 Q2298.5 1409.25 2294.69 1411.24 Q2290.88 1413.18 2285.37 1413.18 Q2278.41 1413.18 2274.27 1409.29 Q2270.18 1405.36 2270.18 1398.8 Q2270.18 1391.15 2275.29 1387.26 Q2280.43 1383.37 2290.6 1383.37 L2301.05 1383.37 L2301.05 1382.64 Q2301.05 1377.49 2297.65 1374.7 Q2294.29 1371.86 2288.17 1371.86 Q2284.28 1371.86 2280.59 1372.8 Q2276.91 1373.73 2273.5 1375.59 L2273.5 1368.7 Q2277.6 1367.12 2281.44 1366.35 Q2285.29 1365.54 2288.94 1365.54 Q2298.78 1365.54 2303.64 1370.65 Q2308.5 1375.75 2308.5 1386.12 Z" fill="#000000" fill-rule="nonzero" fill-opacity="1" /><path clip-path="url(#clip640)" d="M188.148 95.5717 Q188.148 87.3484 184.745 82.6898 Q181.383 77.9908 175.468 77.9908 Q169.554 77.9908 166.151 82.6898 Q162.789 87.3484 162.789 95.5717 Q162.789 103.795 166.151 108.494 Q169.554 113.153 175.468 113.153 Q181.383 113.153 184.745 108.494 Q188.148 103.795 188.148 95.5717 M162.789 79.7327 Q165.138 75.6818 168.703 73.7373 Q172.309 71.7524 177.291 71.7524 Q185.555 71.7524 190.7 78.3149 Q195.885 84.8773 195.885 95.5717 Q195.885 106.266 190.7 112.829 Q185.555 119.391 177.291 119.391 Q172.309 119.391 168.703 117.447 Q165.138 115.462 162.789 111.411 L162.789 118.216 L155.295 118.216 L155.295 55.1842 L162.789 55.1842 L162.789 79.7327 Z" fill="#000000" fill-rule="nonzero" fill-opacity="1" /><path clip-path="url(#clip640)" d="M1662.18 1432.33 L1662.18 1439.3 Q1659.02 1437.55 1655.82 1436.7 Q1652.66 1435.81 1649.42 1435.81 Q1642.17 1435.81 1638.15 1440.43 Q1634.14 1445.01 1634.14 1453.31 Q1634.14 1461.62 1638.15 1466.23 Q1642.17 1470.81 1649.42 1470.81 Q1652.66 1470.81 1655.82 1469.96 Q1659.02 1469.07 1662.18 1467.33 L1662.18 1474.21 Q1659.06 1475.67 1655.7 1476.4 Q1652.37 1477.13 1648.61 1477.13 Q1638.36 1477.13 1632.32 1470.69 Q1626.29 1464.25 1626.29 1453.31 Q1626.29 1442.21 1632.36 1435.85 Q1638.48 1429.49 1649.09 1429.49 Q1652.54 1429.49 1655.82 1430.22 Q1659.1 1430.91 1662.18 1432.33 Z" fill="#000000" fill-rule="nonzero" fill-opacity="1" /><path clip-path="url(#clip640)" d="M1481.64 1412.51 L1481.64 1387.97 L1489.09 1387.97 L1489.09 1451 L1481.64 1451 L1481.64 1444.19 Q1479.29 1448.24 1475.69 1450.23 Q1472.12 1452.17 1467.1 1452.17 Q1458.87 1452.17 1453.69 1445.61 Q1448.54 1439.05 1448.54 1428.35 Q1448.54 1417.66 1453.69 1411.1 Q1458.87 1404.53 1467.1 1404.53 Q1472.12 1404.53 1475.69 1406.52 Q1479.29 1408.46 1481.64 1412.51 M1456.24 1428.35 Q1456.24 1436.58 1459.6 1441.28 Q1463.01 1445.93 1468.92 1445.93 Q1474.84 1445.93 1478.24 1441.28 Q1481.64 1436.58 1481.64 1428.35 Q1481.64 1420.13 1478.24 1415.47 Q1474.84 1410.77 1468.92 1410.77 Q1463.01 1410.77 1459.6 1415.47 Q1456.24 1420.13 1456.24 1428.35 Z" fill="#000000" fill-rule="nonzero" fill-opacity="1" /><path clip-path="url(#clip640)" d="M2001.58 198.898 L2278.07 198.898 L2278.07 95.2176 L2001.58 95.2176  Z" fill="#ffffff" fill-rule="evenodd" fill-opacity="1"/>
<polyline clip-path="url(#clip640)" style="stroke:#000000; stroke-linecap:round; stroke-linejoin:round; stroke-width:4; stroke-opacity:1; fill:none" points="2001.58,198.898 2278.07,198.898 2278.07,95.2176 2001.58,95.2176 2001.58,198.898 "/>
<circle clip-path="url(#clip640)" cx="2101.16" cy="147.058" r="20.48" fill="#808080" fill-rule="evenodd" fill-opacity="1" stroke="#000000" stroke-opacity="1" stroke-width="4.55111"/>
<path clip-path="url(#clip640)" d="M2214.59 166.745 Q2212.78 171.375 2211.07 172.787 Q2209.36 174.199 2206.49 174.199 L2203.08 174.199 L2203.08 170.634 L2205.58 170.634 Q2207.34 170.634 2208.31 169.8 Q2209.29 168.967 2210.47 165.865 L2211.23 163.921 L2200.74 138.412 L2205.26 138.412 L2213.36 158.689 L2221.46 138.412 L2225.98 138.412 L2214.59 166.745 Z" fill="#000000" fill-rule="nonzero" fill-opacity="1" /><path clip-path="url(#clip640)" d="M2233.27 160.402 L2240.91 160.402 L2240.91 134.037 L2232.6 135.703 L2232.6 131.444 L2240.86 129.778 L2245.54 129.778 L2245.54 160.402 L2253.17 160.402 L2253.17 164.338 L2233.27 164.338 L2233.27 160.402 Z" fill="#000000" fill-rule="nonzero" fill-opacity="1" /></svg>
