<?xml version="1.0" encoding="utf-8"?>
<svg xmlns="http://www.w3.org/2000/svg" xmlns:xlink="http://www.w3.org/1999/xlink" width="600" height="400" viewBox="0 0 2400 1600">
<defs>
  <clipPath id="clip610">
    <rect x="0" y="0" width="2400" height="1600"/>
  </clipPath>
</defs>
<path clip-path="url(#clip610)" d="M0 1600 L2400 1600 L2400 0 L0 0  Z" fill="#ffffff" fill-rule="evenodd" fill-opacity="1"/>
<defs>
  <clipPath id="clip611">
    <rect x="156" y="47" width="2197" height="1440"/>
  </clipPath>
</defs>
<path clip-path="url(#clip610)" d="M156.598 1486.45 L2352.76 1486.45 L2352.76 47.2441 L156.598 47.2441  Z" fill="#ffffff" fill-rule="evenodd" fill-opacity="1"/>
<polyline clip-path="url(#clip611)" style="stroke:#000000; stroke-linecap:round; stroke-linejoin:round; stroke-width:2; stroke-opacity:0.1; fill:none" points="525.047,1486.45 525.047,47.2441 "/>
<polyline clip-path="url(#clip611)" style="stroke:#000000; stroke-linecap:round; stroke-linejoin:round; stroke-width:2; stroke-opacity:0.1; fill:none" points="991.535,1486.45 991.535,47.2441 "/>
<polyline clip-path="url(#clip611)" style="stroke:#000000; stroke-linecap:round; stroke-linejoin:round; stroke-width:2; stroke-opacity:0.1; fill:none" points="1458.02,1486.45 1458.02,47.2441 "/>
<polyline clip-path="url(#clip611)" style="stroke:#000000; stroke-linecap:round; stroke-linejoin:round; stroke-width:2; stroke-opacity:0.1; fill:none" points="1924.51,1486.45 1924.51,47.2441 "/>
<polyline clip-path="url(#clip611)" style="stroke:#000000; stroke-linecap:round; stroke-linejoin:round; stroke-width:2; stroke-opacity:0.1; fill:none" points="156.598,1449.76 2352.76,1449.76 "/>
<polyline clip-path="url(#clip611)" style="stroke:#000000; stroke-linecap:round; stroke-linejoin:round; stroke-width:2; stroke-opacity:0.1; fill:none" points="156.598,1130.02 2352.76,1130.02 "/>
<polyline clip-path="url(#clip611)" style="stroke:#000000; stroke-linecap:round; stroke-linejoin:round; stroke-width:2; stroke-opacity:0.1; fill:none" points="156.598,810.278 2352.76,810.278 "/>
<polyline clip-path="url(#clip611)" style="stroke:#000000; stroke-linecap:round; stroke-linejoin:round; stroke-width:2; stroke-opacity:0.1; fill:none" points="156.598,490.536 2352.76,490.536 "/>
<polyline clip-path="url(#clip611)" style="stroke:#000000; stroke-linecap:round; stroke-linejoin:round; stroke-width:2; stroke-opacity:0.1; fill:none" points="156.598,170.793 2352.76,170.793 "/>
<polyline clip-path="url(#clip610)" style="stroke:#000000; stroke-linecap:round; stroke-linejoin:round; stroke-width:4; stroke-opacity:1; fill:none" points="156.598,1486.45 2352.76,1486.45 "/>
<polyline clip-path="url(#clip610)" style="stroke:#000000; stroke-linecap:round; stroke-linejoin:round; stroke-width:4; stroke-opacity:1; fill:none" points="525.047,1486.45 525.047,1467.55 "/>
<polyline clip-path="url(#clip610)" style="stroke:#000000; stroke-linecap:round; stroke-linejoin:round; stroke-width:4; stroke-opacity:1; fill:none" points="991.535,1486.45 991.535,1467.55 "/>
<polyline clip-path="url(#clip610)" style="stroke:#000000; stroke-linecap:round; stroke-linejoin:round; stroke-width:4; stroke-opacity:1; fill:none" points="1458.02,1486.45 1458.02,1467.55 "/>
<polyline clip-path="url(#clip610)" style="stroke:#000000; stroke-linecap:round; stroke-linejoin:round; stroke-width:4; stroke-opacity:1; fill:none" points="1924.51,1486.45 1924.51,1467.55 "/>
<path clip-path="url(#clip610)" d="M471.332 1532.02 L501.008 1532.02 L501.008 1535.95 L471.332 1535.95 L471.332 1532.02 Z" fill="#000000" fill-rule="nonzero" fill-opacity="1" /><path clip-path="url(#clip610)" d="M521.1 1517.37 Q517.489 1517.37 515.661 1520.93 Q513.855 1524.47 513.855 1531.6 Q513.855 1538.71 515.661 1542.27 Q517.489 1545.82 521.1 1545.82 Q524.735 1545.82 526.54 1542.27 Q528.369 1538.71 528.369 1531.6 Q528.369 1524.47 526.54 1520.93 Q524.735 1517.37 521.1 1517.37 M521.1 1513.66 Q526.911 1513.66 529.966 1518.27 Q533.045 1522.85 533.045 1531.6 Q533.045 1540.33 529.966 1544.94 Q526.911 1549.52 521.1 1549.52 Q515.29 1549.52 512.212 1544.94 Q509.156 1540.33 509.156 1531.6 Q509.156 1522.85 512.212 1518.27 Q515.29 1513.66 521.1 1513.66 Z" fill="#000000" fill-rule="nonzero" fill-opacity="1" /><path clip-path="url(#clip610)" d="M541.262 1542.97 L546.147 1542.97 L546.147 1548.85 L541.262 1548.85 L541.262 1542.97 Z" fill="#000000" fill-rule="nonzero" fill-opacity="1" /><path clip-path="url(#clip610)" d="M569.179 1518.36 L557.373 1536.81 L569.179 1536.81 L569.179 1518.36 M567.952 1514.29 L573.832 1514.29 L573.832 1536.81 L578.762 1536.81 L578.762 1540.7 L573.832 1540.7 L573.832 1548.85 L569.179 1548.85 L569.179 1540.7 L553.577 1540.7 L553.577 1536.19 L567.952 1514.29 Z" fill="#000000" fill-rule="nonzero" fill-opacity="1" /><path clip-path="url(#clip610)" d="M938.861 1532.02 L968.537 1532.02 L968.537 1535.95 L938.861 1535.95 L938.861 1532.02 Z" fill="#000000" fill-rule="nonzero" fill-opacity="1" /><path clip-path="url(#clip610)" d="M988.63 1517.37 Q985.019 1517.37 983.19 1520.93 Q981.384 1524.47 981.384 1531.6 Q981.384 1538.71 983.19 1542.27 Q985.019 1545.82 988.63 1545.82 Q992.264 1545.82 994.069 1542.27 Q995.898 1538.71 995.898 1531.6 Q995.898 1524.47 994.069 1520.93 Q992.264 1517.37 988.63 1517.37 M988.63 1513.66 Q994.44 1513.66 997.495 1518.27 Q1000.57 1522.85 1000.57 1531.6 Q1000.57 1540.33 997.495 1544.94 Q994.44 1549.52 988.63 1549.52 Q982.82 1549.52 979.741 1544.94 Q976.685 1540.33 976.685 1531.6 Q976.685 1522.85 979.741 1518.27 Q982.82 1513.66 988.63 1513.66 Z" fill="#000000" fill-rule="nonzero" fill-opacity="1" /><path clip-path="url(#clip610)" d="M1008.79 1542.97 L1013.68 1542.97 L1013.68 1548.85 L1008.79 1548.85 L1008.79 1542.97 Z" fill="#000000" fill-rule="nonzero" fill-opacity="1" /><path clip-path="url(#clip610)" d="M1027.89 1544.91 L1044.21 1544.91 L1044.21 1548.85 L1022.26 1548.85 L1022.26 1544.91 Q1024.93 1542.16 1029.51 1537.53 Q1034.12 1532.88 1035.3 1531.53 Q1037.54 1529.01 1038.42 1527.27 Q1039.32 1525.51 1039.32 1523.82 Q1039.32 1521.07 1037.38 1519.33 Q1035.46 1517.6 1032.36 1517.6 Q1030.16 1517.6 1027.7 1518.36 Q1025.27 1519.13 1022.5 1520.68 L1022.5 1515.95 Q1025.32 1514.82 1027.77 1514.24 Q1030.23 1513.66 1032.26 1513.66 Q1037.63 1513.66 1040.83 1516.35 Q1044.02 1519.03 1044.02 1523.52 Q1044.02 1525.65 1043.21 1527.57 Q1042.43 1529.47 1040.32 1532.07 Q1039.74 1532.74 1036.64 1535.95 Q1033.54 1539.15 1027.89 1544.91 Z" fill="#000000" fill-rule="nonzero" fill-opacity="1" /><path clip-path="url(#clip610)" d="M1435.41 1517.37 Q1431.8 1517.37 1429.97 1520.93 Q1428.16 1524.47 1428.16 1531.6 Q1428.16 1538.71 1429.97 1542.27 Q1431.8 1545.82 1435.41 1545.82 Q1439.04 1545.82 1440.85 1542.27 Q1442.68 1538.71 1442.68 1531.6 Q1442.68 1524.47 1440.85 1520.93 Q1439.04 1517.37 1435.41 1517.37 M1435.41 1513.66 Q1441.22 1513.66 1444.27 1518.27 Q1447.35 1522.85 1447.35 1531.6 Q1447.35 1540.33 1444.27 1544.94 Q1441.22 1549.52 1435.41 1549.52 Q1429.6 1549.52 1426.52 1544.94 Q1423.46 1540.33 1423.46 1531.6 Q1423.46 1522.85 1426.52 1518.27 Q1429.6 1513.66 1435.41 1513.66 Z" fill="#000000" fill-rule="nonzero" fill-opacity="1" /><path clip-path="url(#clip610)" d="M1455.57 1542.97 L1460.45 1542.97 L1460.45 1548.85 L1455.57 1548.85 L1455.57 1542.97 Z" fill="#000000" fill-rule="nonzero" fill-opacity="1" /><path clip-path="url(#clip610)" d="M1480.64 1517.37 Q1477.03 1517.37 1475.2 1520.93 Q1473.39 1524.47 1473.39 1531.6 Q1473.39 1538.71 1475.2 1542.27 Q1477.03 1545.82 1480.64 1545.82 Q1484.27 1545.82 1486.08 1542.27 Q1487.91 1538.71 1487.91 1531.6 Q1487.91 1524.47 1486.08 1520.93 Q1484.27 1517.37 1480.64 1517.37 M1480.64 1513.66 Q1486.45 1513.66 1489.5 1518.27 Q1492.58 1522.85 1492.58 1531.6 Q1492.58 1540.33 1489.5 1544.94 Q1486.45 1549.52 1480.64 1549.52 Q1474.83 1549.52 1471.75 1544.94 Q1468.69 1540.33 1468.69 1531.6 Q1468.69 1522.85 1471.75 1518.27 Q1474.83 1513.66 1480.64 1513.66 Z" fill="#000000" fill-rule="nonzero" fill-opacity="1" /><path clip-path="url(#clip610)" d="M1902.69 1517.37 Q1899.08 1517.37 1897.25 1520.93 Q1895.45 1524.47 1895.45 1531.6 Q1895.45 1538.71 1897.25 1542.27 Q1899.08 1545.82 1902.69 1545.82 Q1906.33 1545.82 1908.13 1542.27 Q1909.96 1538.71 1909.96 1531.6 Q1909.96 1524.47 1908.13 1520.93 Q1906.33 1517.37 1902.69 1517.37 M1902.69 1513.66 Q1908.5 1513.66 1911.56 1518.27 Q1914.64 1522.85 1914.64 1531.6 Q1914.64 1540.33 1911.56 1544.94 Q1908.5 1549.52 1902.69 1549.52 Q1896.88 1549.52 1893.8 1544.94 Q1890.75 1540.33 1890.75 1531.6 Q1890.75 1522.85 1893.8 1518.27 Q1896.88 1513.66 1902.69 1513.66 Z" fill="#000000" fill-rule="nonzero" fill-opacity="1" /><path clip-path="url(#clip610)" d="M1922.85 1542.97 L1927.74 1542.97 L1927.74 1548.85 L1922.85 1548.85 L1922.85 1542.97 Z" fill="#000000" fill-rule="nonzero" fill-opacity="1" /><path clip-path="url(#clip610)" d="M1941.95 1544.91 L1958.27 1544.91 L1958.27 1548.85 L1936.33 1548.85 L1936.33 1544.91 Q1938.99 1542.16 1943.57 1537.53 Q1948.18 1532.88 1949.36 1531.53 Q1951.6 1529.01 1952.48 1527.27 Q1953.39 1525.51 1953.39 1523.82 Q1953.39 1521.07 1951.44 1519.33 Q1949.52 1517.6 1946.42 1517.6 Q1944.22 1517.6 1941.77 1518.36 Q1939.34 1519.13 1936.56 1520.68 L1936.56 1515.95 Q1939.38 1514.82 1941.84 1514.24 Q1944.29 1513.66 1946.33 1513.66 Q1951.7 1513.66 1954.89 1516.35 Q1958.09 1519.03 1958.09 1523.52 Q1958.09 1525.65 1957.28 1527.57 Q1956.49 1529.47 1954.38 1532.07 Q1953.8 1532.74 1950.7 1535.95 Q1947.6 1539.15 1941.95 1544.91 Z" fill="#000000" fill-rule="nonzero" fill-opacity="1" /><polyline clip-path="url(#clip610)" style="stroke:#000000; stroke-linecap:round; stroke-linejoin:round; stroke-width:4; stroke-opacity:1; fill:none" points="156.598,1486.45 156.598,47.2441 "/>
<polyline clip-path="url(#clip610)" style="stroke:#000000; stroke-linecap:round; stroke-linejoin:round; stroke-width:4; stroke-opacity:1; fill:none" points="156.598,1449.76 175.496,1449.76 "/>
<polyline clip-path="url(#clip610)" style="stroke:#000000; stroke-linecap:round; stroke-linejoin:round; stroke-width:4; stroke-opacity:1; fill:none" points="156.598,1130.02 175.496,1130.02 "/>
<polyline clip-path="url(#clip610)" style="stroke:#000000; stroke-linecap:round; stroke-linejoin:round; stroke-width:4; stroke-opacity:1; fill:none" points="156.598,810.278 175.496,810.278 "/>
<polyline clip-path="url(#clip610)" style="stroke:#000000; stroke-linecap:round; stroke-linejoin:round; stroke-width:4; stroke-opacity:1; fill:none" points="156.598,490.536 175.496,490.536 "/>
<polyline clip-path="url(#clip610)" style="stroke:#000000; stroke-linecap:round; stroke-linejoin:round; stroke-width:4; stroke-opacity:1; fill:none" points="156.598,170.793 175.496,170.793 "/>
<path clip-path="url(#clip610)" d="M63.4226 1435.56 Q59.8115 1435.56 57.9828 1439.13 Q56.1773 1442.67 56.1773 1449.8 Q56.1773 1456.9 57.9828 1460.47 Q59.8115 1464.01 63.4226 1464.01 Q67.0569 1464.01 68.8624 1460.47 Q70.6911 1456.9 70.6911 1449.8 Q70.6911 1442.67 68.8624 1439.13 Q67.0569 1435.56 63.4226 1435.56 M63.4226 1431.86 Q69.2328 1431.86 72.2883 1436.46 Q75.367 1441.05 75.367 1449.8 Q75.367 1458.52 72.2883 1463.13 Q69.2328 1467.71 63.4226 1467.71 Q57.6125 1467.71 54.5338 1463.13 Q51.4782 1458.52 51.4782 1449.8 Q51.4782 1441.05 54.5338 1436.46 Q57.6125 1431.86 63.4226 1431.86 Z" fill="#000000" fill-rule="nonzero" fill-opacity="1" /><path clip-path="url(#clip610)" d="M83.5845 1461.16 L88.4688 1461.16 L88.4688 1467.04 L83.5845 1467.04 L83.5845 1461.16 Z" fill="#000000" fill-rule="nonzero" fill-opacity="1" /><path clip-path="url(#clip610)" d="M108.654 1435.56 Q105.043 1435.56 103.214 1439.13 Q101.409 1442.67 101.409 1449.8 Q101.409 1456.9 103.214 1460.47 Q105.043 1464.01 108.654 1464.01 Q112.288 1464.01 114.094 1460.47 Q115.922 1456.9 115.922 1449.8 Q115.922 1442.67 114.094 1439.13 Q112.288 1435.56 108.654 1435.56 M108.654 1431.86 Q114.464 1431.86 117.52 1436.46 Q120.598 1441.05 120.598 1449.8 Q120.598 1458.52 117.52 1463.13 Q114.464 1467.71 108.654 1467.71 Q102.844 1467.71 99.765 1463.13 Q96.7095 1458.52 96.7095 1449.8 Q96.7095 1441.05 99.765 1436.46 Q102.844 1431.86 108.654 1431.86 Z" fill="#000000" fill-rule="nonzero" fill-opacity="1" /><path clip-path="url(#clip610)" d="M64.6495 1115.82 Q61.0384 1115.82 59.2097 1119.38 Q57.4041 1122.93 57.4041 1130.06 Q57.4041 1137.16 59.2097 1140.73 Q61.0384 1144.27 64.6495 1144.27 Q68.2837 1144.27 70.0892 1140.73 Q71.9179 1137.16 71.9179 1130.06 Q71.9179 1122.93 70.0892 1119.38 Q68.2837 1115.82 64.6495 1115.82 M64.6495 1112.12 Q70.4596 1112.12 73.5152 1116.72 Q76.5938 1121.31 76.5938 1130.06 Q76.5938 1138.78 73.5152 1143.39 Q70.4596 1147.97 64.6495 1147.97 Q58.8393 1147.97 55.7606 1143.39 Q52.7051 1138.78 52.7051 1130.06 Q52.7051 1121.31 55.7606 1116.72 Q58.8393 1112.12 64.6495 1112.12 Z" fill="#000000" fill-rule="nonzero" fill-opacity="1" /><path clip-path="url(#clip610)" d="M84.8114 1141.42 L89.6956 1141.42 L89.6956 1147.3 L84.8114 1147.3 L84.8114 1141.42 Z" fill="#000000" fill-rule="nonzero" fill-opacity="1" /><path clip-path="url(#clip610)" d="M100.691 1143.37 L108.33 1143.37 L108.33 1117 L100.02 1118.67 L100.02 1114.41 L108.283 1112.74 L112.959 1112.74 L112.959 1143.37 L120.598 1143.37 L120.598 1147.3 L100.691 1147.3 L100.691 1143.37 Z" fill="#000000" fill-rule="nonzero" fill-opacity="1" /><path clip-path="url(#clip610)" d="M65.0198 796.077 Q61.4087 796.077 59.58 799.642 Q57.7745 803.183 57.7745 810.313 Q57.7745 817.419 59.58 820.984 Q61.4087 824.526 65.0198 824.526 Q68.6541 824.526 70.4596 820.984 Q72.2883 817.419 72.2883 810.313 Q72.2883 803.183 70.4596 799.642 Q68.6541 796.077 65.0198 796.077 M65.0198 792.373 Q70.83 792.373 73.8855 796.98 Q76.9642 801.563 76.9642 810.313 Q76.9642 819.04 73.8855 823.646 Q70.83 828.229 65.0198 828.229 Q59.2097 828.229 56.131 823.646 Q53.0754 819.04 53.0754 810.313 Q53.0754 801.563 56.131 796.98 Q59.2097 792.373 65.0198 792.373 Z" fill="#000000" fill-rule="nonzero" fill-opacity="1" /><path clip-path="url(#clip610)" d="M85.1818 821.678 L90.066 821.678 L90.066 827.558 L85.1818 827.558 L85.1818 821.678 Z" fill="#000000" fill-rule="nonzero" fill-opacity="1" /><path clip-path="url(#clip610)" d="M104.279 823.623 L120.598 823.623 L120.598 827.558 L98.6539 827.558 L98.6539 823.623 Q101.316 820.868 105.899 816.239 Q110.506 811.586 111.686 810.243 Q113.932 807.72 114.811 805.984 Q115.714 804.225 115.714 802.535 Q115.714 799.78 113.77 798.044 Q111.848 796.308 108.746 796.308 Q106.547 796.308 104.094 797.072 Q101.663 797.836 98.8854 799.387 L98.8854 794.665 Q101.709 793.53 104.163 792.952 Q106.617 792.373 108.654 792.373 Q114.024 792.373 117.219 795.058 Q120.413 797.743 120.413 802.234 Q120.413 804.364 119.603 806.285 Q118.816 808.183 116.709 810.776 Q116.131 811.447 113.029 814.665 Q109.927 817.859 104.279 823.623 Z" fill="#000000" fill-rule="nonzero" fill-opacity="1" /><path clip-path="url(#clip610)" d="M64.0708 476.334 Q60.4597 476.334 58.631 479.899 Q56.8254 483.441 56.8254 490.57 Q56.8254 497.677 58.631 501.241 Q60.4597 504.783 64.0708 504.783 Q67.705 504.783 69.5105 501.241 Q71.3392 497.677 71.3392 490.57 Q71.3392 483.441 69.5105 479.899 Q67.705 476.334 64.0708 476.334 M64.0708 472.631 Q69.8809 472.631 72.9365 477.237 Q76.0151 481.82 76.0151 490.57 Q76.0151 499.297 72.9365 503.904 Q69.8809 508.487 64.0708 508.487 Q58.2606 508.487 55.1819 503.904 Q52.1264 499.297 52.1264 490.57 Q52.1264 481.82 55.1819 477.237 Q58.2606 472.631 64.0708 472.631 Z" fill="#000000" fill-rule="nonzero" fill-opacity="1" /><path clip-path="url(#clip610)" d="M84.2327 501.936 L89.1169 501.936 L89.1169 507.816 L84.2327 507.816 L84.2327 501.936 Z" fill="#000000" fill-rule="nonzero" fill-opacity="1" /><path clip-path="url(#clip610)" d="M113.469 489.181 Q116.825 489.899 118.7 492.167 Q120.598 494.436 120.598 497.769 Q120.598 502.885 117.08 505.686 Q113.561 508.487 107.08 508.487 Q104.904 508.487 102.589 508.047 Q100.297 507.63 97.8437 506.774 L97.8437 502.26 Q99.7882 503.394 102.103 503.973 Q104.418 504.552 106.941 504.552 Q111.339 504.552 113.631 502.816 Q115.945 501.079 115.945 497.769 Q115.945 494.714 113.793 493.001 Q111.663 491.265 107.844 491.265 L103.816 491.265 L103.816 487.422 L108.029 487.422 Q111.478 487.422 113.307 486.056 Q115.135 484.667 115.135 482.075 Q115.135 479.413 113.237 478.001 Q111.362 476.566 107.844 476.566 Q105.922 476.566 103.723 476.982 Q101.524 477.399 98.8854 478.279 L98.8854 474.112 Q101.547 473.371 103.862 473.001 Q106.2 472.631 108.26 472.631 Q113.584 472.631 116.686 475.061 Q119.788 477.468 119.788 481.589 Q119.788 484.459 118.145 486.45 Q116.501 488.417 113.469 489.181 Z" fill="#000000" fill-rule="nonzero" fill-opacity="1" /><path clip-path="url(#clip610)" d="M62.9365 156.592 Q59.3254 156.592 57.4967 160.156 Q55.6912 163.698 55.6912 170.828 Q55.6912 177.934 57.4967 181.499 Q59.3254 185.041 62.9365 185.041 Q66.5707 185.041 68.3763 181.499 Q70.205 177.934 70.205 170.828 Q70.205 163.698 68.3763 160.156 Q66.5707 156.592 62.9365 156.592 M62.9365 152.888 Q68.7467 152.888 71.8022 157.494 Q74.8809 162.078 74.8809 170.828 Q74.8809 179.554 71.8022 184.161 Q68.7467 188.744 62.9365 188.744 Q57.1264 188.744 54.0477 184.161 Q50.9921 179.554 50.9921 170.828 Q50.9921 162.078 54.0477 157.494 Q57.1264 152.888 62.9365 152.888 Z" fill="#000000" fill-rule="nonzero" fill-opacity="1" /><path clip-path="url(#clip610)" d="M83.0984 182.193 L87.9827 182.193 L87.9827 188.073 L83.0984 188.073 L83.0984 182.193 Z" fill="#000000" fill-rule="nonzero" fill-opacity="1" /><path clip-path="url(#clip610)" d="M111.015 157.587 L99.2095 176.036 L111.015 176.036 L111.015 157.587 M109.788 153.513 L115.668 153.513 L115.668 176.036 L120.598 176.036 L120.598 179.925 L115.668 179.925 L115.668 188.073 L111.015 188.073 L111.015 179.925 L95.4132 179.925 L95.4132 175.411 L109.788 153.513 Z" fill="#000000" fill-rule="nonzero" fill-opacity="1" /><circle clip-path="url(#clip611)" cx="1404.31" cy="1294.37" r="14.4" fill="#808080" fill-rule="evenodd" fill-opacity="1" stroke="#000000" stroke-opacity="1" stroke-width="3.2"/>
<circle clip-path="url(#clip611)" cx="1426.47" cy="1445.72" r="14.4" fill="#808080" fill-rule="evenodd" fill-opacity="1" stroke="#000000" stroke-opacity="1" stroke-width="3.2"/>
<circle clip-path="url(#clip611)" cx="2290.6" cy="1343.73" r="14.4" fill="#808080" fill-rule="evenodd" fill-opacity="1" stroke="#000000" stroke-opacity="1" stroke-width="3.2"/>
<circle clip-path="url(#clip611)" cx="218.754" cy="87.9763" r="14.4" fill="#808080" fill-rule="evenodd" fill-opacity="1" stroke="#000000" stroke-opacity="1" stroke-width="3.2"/>
<path clip-path="url(#clip610)" d="M1408.6 1301.8 Q1399.57 1301.8 1396.09 1303.87 Q1392.6 1305.94 1392.6 1310.92 Q1392.6 1314.89 1395.19 1317.24 Q1397.83 1319.55 1402.32 1319.55 Q1408.52 1319.55 1412.25 1315.17 Q1416.02 1310.76 1416.02 1303.46 L1416.02 1301.8 L1408.6 1301.8 M1423.47 1298.72 L1423.47 1324.61 L1416.02 1324.61 L1416.02 1317.72 Q1413.46 1321.86 1409.66 1323.84 Q1405.85 1325.78 1400.34 1325.78 Q1393.37 1325.78 1389.24 1321.9 Q1385.15 1317.97 1385.15 1311.4 Q1385.15 1303.75 1390.25 1299.86 Q1395.4 1295.97 1405.56 1295.97 L1416.02 1295.97 L1416.02 1295.24 Q1416.02 1290.1 1412.61 1287.3 Q1409.25 1284.47 1403.13 1284.47 Q1399.25 1284.47 1395.56 1285.4 Q1391.87 1286.33 1388.47 1288.19 L1388.47 1281.31 Q1392.56 1279.73 1396.41 1278.96 Q1400.26 1278.15 1403.9 1278.15 Q1413.75 1278.15 1418.61 1283.25 Q1423.47 1288.35 1423.47 1298.72 Z" fill="#000000" fill-rule="nonzero" fill-opacity="1" /><path clip-path="url(#clip610)" d="M1439.03 1453.31 Q1439.03 1445.09 1435.63 1440.43 Q1432.27 1435.73 1426.35 1435.73 Q1420.44 1435.73 1417.03 1440.43 Q1413.67 1445.09 1413.67 1453.31 Q1413.67 1461.53 1417.03 1466.23 Q1420.44 1470.89 1426.35 1470.89 Q1432.27 1470.89 1435.63 1466.23 Q1439.03 1461.53 1439.03 1453.31 M1413.67 1437.47 Q1416.02 1433.42 1419.59 1431.48 Q1423.19 1429.49 1428.17 1429.49 Q1436.44 1429.49 1441.58 1436.05 Q1446.77 1442.62 1446.77 1453.31 Q1446.77 1464.01 1441.58 1470.57 Q1436.44 1477.13 1428.17 1477.13 Q1423.19 1477.13 1419.59 1475.19 Q1416.02 1473.2 1413.67 1469.15 L1413.67 1475.96 L1406.18 1475.96 L1406.18 1412.92 L1413.67 1412.92 L1413.67 1437.47 Z" fill="#000000" fill-rule="nonzero" fill-opacity="1" /><path clip-path="url(#clip610)" d="M2308.55 1330.34 L2308.55 1337.31 Q2305.39 1335.56 2302.19 1334.71 Q2299.03 1333.82 2295.79 1333.82 Q2288.53 1333.82 2284.52 1338.44 Q2280.51 1343.02 2280.51 1351.32 Q2280.51 1359.63 2284.52 1364.24 Q2288.53 1368.82 2295.79 1368.82 Q2299.03 1368.82 2302.19 1367.97 Q2305.39 1367.08 2308.55 1365.34 L2308.55 1372.22 Q2305.43 1373.68 2302.06 1374.41 Q2298.74 1375.14 2294.98 1375.14 Q2284.73 1375.14 2278.69 1368.7 Q2272.65 1362.26 2272.65 1351.32 Q2272.65 1340.22 2278.73 1333.86 Q2284.85 1327.5 2295.46 1327.5 Q2298.9 1327.5 2302.19 1328.23 Q2305.47 1328.92 2308.55 1330.34 Z" fill="#000000" fill-rule="nonzero" fill-opacity="1" /><path clip-path="url(#clip610)" d="M231.575 79.7327 L231.575 55.1842 L239.028 55.1842 L239.028 118.216 L231.575 118.216 L231.575 111.411 Q229.225 115.462 225.62 117.447 Q222.055 119.391 217.032 119.391 Q208.809 119.391 203.624 112.829 Q198.479 106.266 198.479 95.5717 Q198.479 84.8773 203.624 78.3149 Q208.809 71.7524 217.032 71.7524 Q222.055 71.7524 225.62 73.7373 Q229.225 75.6818 231.575 79.7327 M206.176 95.5717 Q206.176 103.795 209.538 108.494 Q212.941 113.153 218.855 113.153 Q224.769 113.153 228.172 108.494 Q231.575 103.795 231.575 95.5717 Q231.575 87.3484 228.172 82.6898 Q224.769 77.9908 218.855 77.9908 Q212.941 77.9908 209.538 82.6898 Q206.176 87.3484 206.176 95.5717 Z" fill="#000000" fill-rule="nonzero" fill-opacity="1" /><path clip-path="url(#clip610)" d="M2007.5 198.898 L2279.55 198.898 L2279.55 95.2176 L2007.5 95.2176  Z" fill="#ffffff" fill-rule="evenodd" fill-opacity="1"/>
<polyline clip-path="url(#clip610)" style="stroke:#000000; stroke-linecap:round; stroke-linejoin:round; stroke-width:4; stroke-opacity:1; fill:none" points="2007.5,198.898 2279.55,198.898 2279.55,95.2176 2007.5,95.2176 2007.5,198.898 "/>
<circle clip-path="url(#clip610)" cx="2105.11" cy="147.058" r="20.48" fill="#808080" fill-rule="evenodd" fill-opacity="1" stroke="#000000" stroke-opacity="1" stroke-width="4.55111"/>
<path clip-path="url(#clip610)" d="M2216.56 166.745 Q2214.76 171.375 2213.04 172.787 Q2211.33 174.199 2208.46 174.199 L2205.06 174.199 L2205.06 170.634 L2207.56 170.634 Q2209.32 170.634 2210.29 169.8 Q2211.26 168.967 2212.44 165.865 L2213.2 163.921 L2202.72 138.412 L2207.23 138.412 L2215.33 158.689 L2223.44 138.412 L2227.95 138.412 L2216.56 166.745 Z" fill="#000000" fill-rule="nonzero" fill-opacity="1" /><path clip-path="url(#clip610)" d="M2235.24 160.402 L2242.88 160.402 L2242.88 134.037 L2234.57 135.703 L2234.57 131.444 L2242.83 129.778 L2247.51 129.778 L2247.51 160.402 L2255.15 160.402 L2255.15 164.338 L2235.24 164.338 L2235.24 160.402 Z" fill="#000000" fill-rule="nonzero" fill-opacity="1" /></svg>
