<?xml version="1.0" encoding="utf-8"?>
<svg xmlns="http://www.w3.org/2000/svg" xmlns:xlink="http://www.w3.org/1999/xlink" width="600" height="400" viewBox="0 0 2400 1600">
<defs>
  <clipPath id="clip340">
    <rect x="0" y="0" width="2400" height="1600"/>
  </clipPath>
</defs>
<path clip-path="url(#clip340)" d="M0 1600 L2400 1600 L2400 0 L0 0  Z" fill="#ffffff" fill-rule="evenodd" fill-opacity="1"/>
<defs>
  <clipPath id="clip341">
    <rect x="480" y="0" width="1681" height="1600"/>
  </clipPath>
</defs>
<path clip-path="url(#clip340)" d="M156.598 1486.45 L2352.76 1486.45 L2352.76 47.2441 L156.598 47.2441  Z" fill="#ffffff" fill-rule="evenodd" fill-opacity="1"/>
<defs>
  <clipPath id="clip342">
    <rect x="156" y="47" width="2197" height="1440"/>
  </clipPath>
</defs>
<polyline clip-path="url(#clip342)" style="stroke:#000000; stroke-linecap:round; stroke-linejoin:round; stroke-width:2; stroke-opacity:0.1; fill:none" points="533.941,1486.45 533.941,47.2441 "/>
<polyline clip-path="url(#clip342)" style="stroke:#000000; stroke-linecap:round; stroke-linejoin:round; stroke-width:2; stroke-opacity:0.1; fill:none" points="988.544,1486.45 988.544,47.2441 "/>
<polyline clip-path="url(#clip342)" style="stroke:#000000; stroke-linecap:round; stroke-linejoin:round; stroke-width:2; stroke-opacity:0.1; fill:none" points="1443.15,1486.45 1443.15,47.2441 "/>
<polyline clip-path="url(#clip342)" style="stroke:#000000; stroke-linecap:round; stroke-linejoin:round; stroke-width:2; stroke-opacity:0.1; fill:none" points="1897.75,1486.45 1897.75,47.2441 "/>
<polyline clip-path="url(#clip342)" style="stroke:#000000; stroke-linecap:round; stroke-linejoin:round; stroke-width:2; stroke-opacity:0.1; fill:none" points="2352.35,1486.45 2352.35,47.2441 "/>
<polyline clip-path="url(#clip342)" style="stroke:#000000; stroke-linecap:round; stroke-linejoin:round; stroke-width:2; stroke-opacity:0.1; fill:none" points="156.598,1449.54 2352.76,1449.54 "/>
<polyline clip-path="url(#clip342)" style="stroke:#000000; stroke-linecap:round; stroke-linejoin:round; stroke-width:2; stroke-opacity:0.1; fill:none" points="156.598,1153.78 2352.76,1153.78 "/>
<polyline clip-path="url(#clip342)" style="stroke:#000000; stroke-linecap:round; stroke-linejoin:round; stroke-width:2; stroke-opacity:0.1; fill:none" points="156.598,858.024 2352.76,858.024 "/>
<polyline clip-path="url(#clip342)" style="stroke:#000000; stroke-linecap:round; stroke-linejoin:round; stroke-width:2; stroke-opacity:0.1; fill:none" points="156.598,562.265 2352.76,562.265 "/>
<polyline clip-path="url(#clip342)" style="stroke:#000000; stroke-linecap:round; stroke-linejoin:round; stroke-width:2; stroke-opacity:0.1; fill:none" points="156.598,266.506 2352.76,266.506 "/>
<polyline clip-path="url(#clip340)" style="stroke:#000000; stroke-linecap:round; stroke-linejoin:round; stroke-width:4; stroke-opacity:1; fill:none" points="156.598,1486.45 2352.76,1486.45 "/>
<polyline clip-path="url(#clip340)" style="stroke:#000000; stroke-linecap:round; stroke-linejoin:round; stroke-width:4; stroke-opacity:1; fill:none" points="533.941,1486.45 533.941,1467.55 "/>
<polyline clip-path="url(#clip340)" style="stroke:#000000; stroke-linecap:round; stroke-linejoin:round; stroke-width:4; stroke-opacity:1; fill:none" points="988.544,1486.45 988.544,1467.55 "/>
<polyline clip-path="url(#clip340)" style="stroke:#000000; stroke-linecap:round; stroke-linejoin:round; stroke-width:4; stroke-opacity:1; fill:none" points="1443.15,1486.45 1443.15,1467.55 "/>
<polyline clip-path="url(#clip340)" style="stroke:#000000; stroke-linecap:round; stroke-linejoin:round; stroke-width:4; stroke-opacity:1; fill:none" points="1897.75,1486.45 1897.75,1467.55 "/>
<polyline clip-path="url(#clip340)" style="stroke:#000000; stroke-linecap:round; stroke-linejoin:round; stroke-width:4; stroke-opacity:1; fill:none" points="2352.35,1486.45 2352.35,1467.55 "/>
<path clip-path="url(#clip340)" d="M480.226 1532.02 L509.902 1532.02 L509.902 1535.95 L480.226 1535.95 L480.226 1532.02 Z" fill="#000000" fill-rule="nonzero" fill-opacity="1" /><path clip-path="url(#clip340)" d="M529.994 1517.37 Q526.383 1517.37 524.554 1520.93 Q522.749 1524.47 522.749 1531.6 Q522.749 1538.71 524.554 1542.27 Q526.383 1545.82 529.994 1545.82 Q533.628 1545.82 535.434 1542.27 Q537.262 1538.71 537.262 1531.6 Q537.262 1524.47 535.434 1520.93 Q533.628 1517.37 529.994 1517.37 M529.994 1513.66 Q535.804 1513.66 538.86 1518.27 Q541.938 1522.85 541.938 1531.6 Q541.938 1540.33 538.86 1544.94 Q535.804 1549.52 529.994 1549.52 Q524.184 1549.52 521.105 1544.94 Q518.05 1540.33 518.05 1531.6 Q518.05 1522.85 521.105 1518.27 Q524.184 1513.66 529.994 1513.66 Z" fill="#000000" fill-rule="nonzero" fill-opacity="1" /><path clip-path="url(#clip340)" d="M550.156 1542.97 L555.04 1542.97 L555.04 1548.85 L550.156 1548.85 L550.156 1542.97 Z" fill="#000000" fill-rule="nonzero" fill-opacity="1" /><path clip-path="url(#clip340)" d="M578.072 1518.36 L566.267 1536.81 L578.072 1536.81 L578.072 1518.36 M576.846 1514.29 L582.725 1514.29 L582.725 1536.81 L587.656 1536.81 L587.656 1540.7 L582.725 1540.7 L582.725 1548.85 L578.072 1548.85 L578.072 1540.7 L562.471 1540.7 L562.471 1536.19 L576.846 1514.29 Z" fill="#000000" fill-rule="nonzero" fill-opacity="1" /><path clip-path="url(#clip340)" d="M935.87 1532.02 L965.546 1532.02 L965.546 1535.95 L935.87 1535.95 L935.87 1532.02 Z" fill="#000000" fill-rule="nonzero" fill-opacity="1" /><path clip-path="url(#clip340)" d="M985.639 1517.37 Q982.028 1517.37 980.199 1520.93 Q978.393 1524.47 978.393 1531.6 Q978.393 1538.71 980.199 1542.27 Q982.028 1545.82 985.639 1545.82 Q989.273 1545.82 991.079 1542.27 Q992.907 1538.71 992.907 1531.6 Q992.907 1524.47 991.079 1520.93 Q989.273 1517.37 985.639 1517.37 M985.639 1513.66 Q991.449 1513.66 994.504 1518.27 Q997.583 1522.85 997.583 1531.6 Q997.583 1540.33 994.504 1544.94 Q991.449 1549.52 985.639 1549.52 Q979.829 1549.52 976.75 1544.94 Q973.694 1540.33 973.694 1531.6 Q973.694 1522.85 976.75 1518.27 Q979.829 1513.66 985.639 1513.66 Z" fill="#000000" fill-rule="nonzero" fill-opacity="1" /><path clip-path="url(#clip340)" d="M1005.8 1542.97 L1010.68 1542.97 L1010.68 1548.85 L1005.8 1548.85 L1005.8 1542.97 Z" fill="#000000" fill-rule="nonzero" fill-opacity="1" /><path clip-path="url(#clip340)" d="M1024.9 1544.91 L1041.22 1544.91 L1041.22 1548.85 L1019.27 1548.85 L1019.27 1544.91 Q1021.93 1542.16 1026.52 1537.53 Q1031.12 1532.88 1032.31 1531.53 Q1034.55 1529.01 1035.43 1527.27 Q1036.33 1525.51 1036.33 1523.82 Q1036.33 1521.07 1034.39 1519.33 Q1032.47 1517.6 1029.37 1517.6 Q1027.17 1517.6 1024.71 1518.36 Q1022.28 1519.13 1019.5 1520.68 L1019.5 1515.95 Q1022.33 1514.82 1024.78 1514.24 Q1027.24 1513.66 1029.27 1513.66 Q1034.64 1513.66 1037.84 1516.35 Q1041.03 1519.03 1041.03 1523.52 Q1041.03 1525.65 1040.22 1527.57 Q1039.43 1529.47 1037.33 1532.07 Q1036.75 1532.74 1033.65 1535.95 Q1030.55 1539.15 1024.9 1544.91 Z" fill="#000000" fill-rule="nonzero" fill-opacity="1" /><path clip-path="url(#clip340)" d="M1420.53 1517.37 Q1416.92 1517.37 1415.09 1520.93 Q1413.29 1524.47 1413.29 1531.6 Q1413.29 1538.71 1415.09 1542.27 Q1416.92 1545.82 1420.53 1545.82 Q1424.17 1545.82 1425.97 1542.27 Q1427.8 1538.71 1427.8 1531.6 Q1427.8 1524.47 1425.97 1520.93 Q1424.17 1517.37 1420.53 1517.37 M1420.53 1513.66 Q1426.34 1513.66 1429.4 1518.27 Q1432.48 1522.85 1432.48 1531.6 Q1432.48 1540.33 1429.4 1544.94 Q1426.34 1549.52 1420.53 1549.52 Q1414.72 1549.52 1411.64 1544.94 Q1408.59 1540.33 1408.59 1531.6 Q1408.59 1522.85 1411.64 1518.27 Q1414.72 1513.66 1420.53 1513.66 Z" fill="#000000" fill-rule="nonzero" fill-opacity="1" /><path clip-path="url(#clip340)" d="M1440.69 1542.97 L1445.58 1542.97 L1445.58 1548.85 L1440.69 1548.85 L1440.69 1542.97 Z" fill="#000000" fill-rule="nonzero" fill-opacity="1" /><path clip-path="url(#clip340)" d="M1465.76 1517.37 Q1462.15 1517.37 1460.32 1520.93 Q1458.52 1524.47 1458.52 1531.6 Q1458.52 1538.71 1460.32 1542.27 Q1462.15 1545.82 1465.76 1545.82 Q1469.4 1545.82 1471.2 1542.27 Q1473.03 1538.71 1473.03 1531.6 Q1473.03 1524.47 1471.2 1520.93 Q1469.4 1517.37 1465.76 1517.37 M1465.76 1513.66 Q1471.57 1513.66 1474.63 1518.27 Q1477.71 1522.85 1477.71 1531.6 Q1477.71 1540.33 1474.63 1544.94 Q1471.57 1549.52 1465.76 1549.52 Q1459.95 1549.52 1456.87 1544.94 Q1453.82 1540.33 1453.82 1531.6 Q1453.82 1522.85 1456.87 1518.27 Q1459.95 1513.66 1465.76 1513.66 Z" fill="#000000" fill-rule="nonzero" fill-opacity="1" /><path clip-path="url(#clip340)" d="M1875.93 1517.37 Q1872.32 1517.37 1870.49 1520.93 Q1868.69 1524.47 1868.69 1531.6 Q1868.69 1538.71 1870.49 1542.27 Q1872.32 1545.82 1875.93 1545.82 Q1879.57 1545.82 1881.37 1542.27 Q1883.2 1538.71 1883.2 1531.6 Q1883.2 1524.47 1881.37 1520.93 Q1879.57 1517.37 1875.93 1517.37 M1875.93 1513.66 Q1881.74 1513.66 1884.8 1518.27 Q1887.88 1522.85 1887.88 1531.6 Q1887.88 1540.33 1884.8 1544.94 Q1881.74 1549.52 1875.93 1549.52 Q1870.12 1549.52 1867.04 1544.94 Q1863.99 1540.33 1863.99 1531.6 Q1863.99 1522.85 1867.04 1518.27 Q1870.12 1513.66 1875.93 1513.66 Z" fill="#000000" fill-rule="nonzero" fill-opacity="1" /><path clip-path="url(#clip340)" d="M1896.09 1542.97 L1900.98 1542.97 L1900.98 1548.85 L1896.09 1548.85 L1896.09 1542.97 Z" fill="#000000" fill-rule="nonzero" fill-opacity="1" /><path clip-path="url(#clip340)" d="M1915.19 1544.91 L1931.51 1544.91 L1931.51 1548.85 L1909.57 1548.85 L1909.57 1544.91 Q1912.23 1542.16 1916.81 1537.53 Q1921.42 1532.88 1922.6 1531.53 Q1924.84 1529.01 1925.72 1527.27 Q1926.63 1525.51 1926.63 1523.82 Q1926.63 1521.07 1924.68 1519.33 Q1922.76 1517.6 1919.66 1517.6 Q1917.46 1517.6 1915.01 1518.36 Q1912.58 1519.13 1909.8 1520.68 L1909.8 1515.95 Q1912.62 1514.82 1915.08 1514.24 Q1917.53 1513.66 1919.57 1513.66 Q1924.94 1513.66 1928.13 1516.35 Q1931.33 1519.03 1931.33 1523.52 Q1931.33 1525.65 1930.52 1527.57 Q1929.73 1529.47 1927.62 1532.07 Q1927.04 1532.74 1923.94 1535.95 Q1920.84 1539.15 1915.19 1544.91 Z" fill="#000000" fill-rule="nonzero" fill-opacity="1" /><path clip-path="url(#clip340)" d="M2329.49 1517.37 Q2325.88 1517.37 2324.05 1520.93 Q2322.25 1524.47 2322.25 1531.6 Q2322.25 1538.71 2324.05 1542.27 Q2325.88 1545.82 2329.49 1545.82 Q2333.13 1545.82 2334.93 1542.27 Q2336.76 1538.71 2336.76 1531.6 Q2336.76 1524.47 2334.93 1520.93 Q2333.13 1517.37 2329.49 1517.37 M2329.49 1513.66 Q2335.3 1513.66 2338.36 1518.27 Q2341.44 1522.85 2341.44 1531.6 Q2341.44 1540.33 2338.36 1544.94 Q2335.3 1549.52 2329.49 1549.52 Q2323.68 1549.52 2320.61 1544.94 Q2317.55 1540.33 2317.55 1531.6 Q2317.55 1522.85 2320.61 1518.27 Q2323.68 1513.66 2329.49 1513.66 Z" fill="#000000" fill-rule="nonzero" fill-opacity="1" /><path clip-path="url(#clip340)" d="M2349.66 1542.97 L2354.54 1542.97 L2354.54 1548.85 L2349.66 1548.85 L2349.66 1542.97 Z" fill="#000000" fill-rule="nonzero" fill-opacity="1" /><path clip-path="url(#clip340)" d="M2377.57 1518.36 L2365.77 1536.81 L2377.57 1536.81 L2377.57 1518.36 M2376.35 1514.29 L2382.23 1514.29 L2382.23 1536.81 L2387.16 1536.81 L2387.16 1540.7 L2382.23 1540.7 L2382.23 1548.85 L2377.57 1548.85 L2377.57 1540.7 L2361.97 1540.7 L2361.97 1536.19 L2376.35 1514.29 Z" fill="#000000" fill-rule="nonzero" fill-opacity="1" /><polyline clip-path="url(#clip340)" style="stroke:#000000; stroke-linecap:round; stroke-linejoin:round; stroke-width:4; stroke-opacity:1; fill:none" points="156.598,1486.45 156.598,47.2441 "/>
<polyline clip-path="url(#clip340)" style="stroke:#000000; stroke-linecap:round; stroke-linejoin:round; stroke-width:4; stroke-opacity:1; fill:none" points="156.598,1449.54 175.496,1449.54 "/>
<polyline clip-path="url(#clip340)" style="stroke:#000000; stroke-linecap:round; stroke-linejoin:round; stroke-width:4; stroke-opacity:1; fill:none" points="156.598,1153.78 175.496,1153.78 "/>
<polyline clip-path="url(#clip340)" style="stroke:#000000; stroke-linecap:round; stroke-linejoin:round; stroke-width:4; stroke-opacity:1; fill:none" points="156.598,858.024 175.496,858.024 "/>
<polyline clip-path="url(#clip340)" style="stroke:#000000; stroke-linecap:round; stroke-linejoin:round; stroke-width:4; stroke-opacity:1; fill:none" points="156.598,562.265 175.496,562.265 "/>
<polyline clip-path="url(#clip340)" style="stroke:#000000; stroke-linecap:round; stroke-linejoin:round; stroke-width:4; stroke-opacity:1; fill:none" points="156.598,266.506 175.496,266.506 "/>
<path clip-path="url(#clip340)" d="M63.4226 1435.34 Q59.8115 1435.34 57.9828 1438.91 Q56.1773 1442.45 56.1773 1449.58 Q56.1773 1456.68 57.9828 1460.25 Q59.8115 1463.79 63.4226 1463.79 Q67.0569 1463.79 68.8624 1460.25 Q70.6911 1456.68 70.6911 1449.58 Q70.6911 1442.45 68.8624 1438.91 Q67.0569 1435.34 63.4226 1435.34 M63.4226 1431.64 Q69.2328 1431.64 72.2883 1436.24 Q75.367 1440.83 75.367 1449.58 Q75.367 1458.3 72.2883 1462.91 Q69.2328 1467.49 63.4226 1467.49 Q57.6125 1467.49 54.5338 1462.91 Q51.4782 1458.3 51.4782 1449.58 Q51.4782 1440.83 54.5338 1436.24 Q57.6125 1431.64 63.4226 1431.64 Z" fill="#000000" fill-rule="nonzero" fill-opacity="1" /><path clip-path="url(#clip340)" d="M83.5845 1460.94 L88.4688 1460.94 L88.4688 1466.82 L83.5845 1466.82 L83.5845 1460.94 Z" fill="#000000" fill-rule="nonzero" fill-opacity="1" /><path clip-path="url(#clip340)" d="M108.654 1435.34 Q105.043 1435.34 103.214 1438.91 Q101.409 1442.45 101.409 1449.58 Q101.409 1456.68 103.214 1460.25 Q105.043 1463.79 108.654 1463.79 Q112.288 1463.79 114.094 1460.25 Q115.922 1456.68 115.922 1449.58 Q115.922 1442.45 114.094 1438.91 Q112.288 1435.34 108.654 1435.34 M108.654 1431.64 Q114.464 1431.64 117.52 1436.24 Q120.598 1440.83 120.598 1449.58 Q120.598 1458.3 117.52 1462.91 Q114.464 1467.49 108.654 1467.49 Q102.844 1467.49 99.765 1462.91 Q96.7095 1458.3 96.7095 1449.58 Q96.7095 1440.83 99.765 1436.24 Q102.844 1431.64 108.654 1431.64 Z" fill="#000000" fill-rule="nonzero" fill-opacity="1" /><path clip-path="url(#clip340)" d="M64.6495 1139.58 Q61.0384 1139.58 59.2097 1143.15 Q57.4041 1146.69 57.4041 1153.82 Q57.4041 1160.92 59.2097 1164.49 Q61.0384 1168.03 64.6495 1168.03 Q68.2837 1168.03 70.0892 1164.49 Q71.9179 1160.92 71.9179 1153.82 Q71.9179 1146.69 70.0892 1143.15 Q68.2837 1139.58 64.6495 1139.58 M64.6495 1135.88 Q70.4596 1135.88 73.5152 1140.48 Q76.5938 1145.07 76.5938 1153.82 Q76.5938 1162.54 73.5152 1167.15 Q70.4596 1171.73 64.6495 1171.73 Q58.8393 1171.73 55.7606 1167.15 Q52.7051 1162.54 52.7051 1153.82 Q52.7051 1145.07 55.7606 1140.48 Q58.8393 1135.88 64.6495 1135.88 Z" fill="#000000" fill-rule="nonzero" fill-opacity="1" /><path clip-path="url(#clip340)" d="M84.8114 1165.18 L89.6956 1165.18 L89.6956 1171.06 L84.8114 1171.06 L84.8114 1165.18 Z" fill="#000000" fill-rule="nonzero" fill-opacity="1" /><path clip-path="url(#clip340)" d="M100.691 1167.13 L108.33 1167.13 L108.33 1140.76 L100.02 1142.43 L100.02 1138.17 L108.283 1136.5 L112.959 1136.5 L112.959 1167.13 L120.598 1167.13 L120.598 1171.06 L100.691 1171.06 L100.691 1167.13 Z" fill="#000000" fill-rule="nonzero" fill-opacity="1" /><path clip-path="url(#clip340)" d="M65.0198 843.822 Q61.4087 843.822 59.58 847.387 Q57.7745 850.929 57.7745 858.059 Q57.7745 865.165 59.58 868.73 Q61.4087 872.271 65.0198 872.271 Q68.6541 872.271 70.4596 868.73 Q72.2883 865.165 72.2883 858.059 Q72.2883 850.929 70.4596 847.387 Q68.6541 843.822 65.0198 843.822 M65.0198 840.119 Q70.83 840.119 73.8855 844.725 Q76.9642 849.309 76.9642 858.059 Q76.9642 866.785 73.8855 871.392 Q70.83 875.975 65.0198 875.975 Q59.2097 875.975 56.131 871.392 Q53.0754 866.785 53.0754 858.059 Q53.0754 849.309 56.131 844.725 Q59.2097 840.119 65.0198 840.119 Z" fill="#000000" fill-rule="nonzero" fill-opacity="1" /><path clip-path="url(#clip340)" d="M85.1818 869.424 L90.066 869.424 L90.066 875.304 L85.1818 875.304 L85.1818 869.424 Z" fill="#000000" fill-rule="nonzero" fill-opacity="1" /><path clip-path="url(#clip340)" d="M104.279 871.369 L120.598 871.369 L120.598 875.304 L98.6539 875.304 L98.6539 871.369 Q101.316 868.614 105.899 863.984 Q110.506 859.332 111.686 857.989 Q113.932 855.466 114.811 853.73 Q115.714 851.971 115.714 850.281 Q115.714 847.526 113.77 845.79 Q111.848 844.054 108.746 844.054 Q106.547 844.054 104.094 844.818 Q101.663 845.582 98.8854 847.133 L98.8854 842.41 Q101.709 841.276 104.163 840.697 Q106.617 840.119 108.654 840.119 Q114.024 840.119 117.219 842.804 Q120.413 845.489 120.413 849.98 Q120.413 852.109 119.603 854.031 Q118.816 855.929 116.709 858.521 Q116.131 859.193 113.029 862.41 Q109.927 865.605 104.279 871.369 Z" fill="#000000" fill-rule="nonzero" fill-opacity="1" /><path clip-path="url(#clip340)" d="M64.0708 548.064 Q60.4597 548.064 58.631 551.628 Q56.8254 555.17 56.8254 562.3 Q56.8254 569.406 58.631 572.971 Q60.4597 576.512 64.0708 576.512 Q67.705 576.512 69.5105 572.971 Q71.3392 569.406 71.3392 562.3 Q71.3392 555.17 69.5105 551.628 Q67.705 548.064 64.0708 548.064 M64.0708 544.36 Q69.8809 544.36 72.9365 548.966 Q76.0151 553.55 76.0151 562.3 Q76.0151 571.026 72.9365 575.633 Q69.8809 580.216 64.0708 580.216 Q58.2606 580.216 55.1819 575.633 Q52.1264 571.026 52.1264 562.3 Q52.1264 553.55 55.1819 548.966 Q58.2606 544.36 64.0708 544.36 Z" fill="#000000" fill-rule="nonzero" fill-opacity="1" /><path clip-path="url(#clip340)" d="M84.2327 573.665 L89.1169 573.665 L89.1169 579.545 L84.2327 579.545 L84.2327 573.665 Z" fill="#000000" fill-rule="nonzero" fill-opacity="1" /><path clip-path="url(#clip340)" d="M113.469 560.911 Q116.825 561.628 118.7 563.897 Q120.598 566.165 120.598 569.499 Q120.598 574.614 117.08 577.415 Q113.561 580.216 107.08 580.216 Q104.904 580.216 102.589 579.776 Q100.297 579.36 97.8437 578.503 L97.8437 573.989 Q99.7882 575.124 102.103 575.702 Q104.418 576.281 106.941 576.281 Q111.339 576.281 113.631 574.545 Q115.945 572.809 115.945 569.499 Q115.945 566.443 113.793 564.73 Q111.663 562.994 107.844 562.994 L103.816 562.994 L103.816 559.151 L108.029 559.151 Q111.478 559.151 113.307 557.786 Q115.135 556.397 115.135 553.804 Q115.135 551.142 113.237 549.73 Q111.362 548.295 107.844 548.295 Q105.922 548.295 103.723 548.712 Q101.524 549.128 98.8854 550.008 L98.8854 545.841 Q101.547 545.101 103.862 544.73 Q106.2 544.36 108.26 544.36 Q113.584 544.36 116.686 546.79 Q119.788 549.198 119.788 553.318 Q119.788 556.189 118.145 558.179 Q116.501 560.147 113.469 560.911 Z" fill="#000000" fill-rule="nonzero" fill-opacity="1" /><path clip-path="url(#clip340)" d="M62.9365 252.305 Q59.3254 252.305 57.4967 255.869 Q55.6912 259.411 55.6912 266.541 Q55.6912 273.647 57.4967 277.212 Q59.3254 280.754 62.9365 280.754 Q66.5707 280.754 68.3763 277.212 Q70.205 273.647 70.205 266.541 Q70.205 259.411 68.3763 255.869 Q66.5707 252.305 62.9365 252.305 M62.9365 248.601 Q68.7467 248.601 71.8022 253.207 Q74.8809 257.791 74.8809 266.541 Q74.8809 275.267 71.8022 279.874 Q68.7467 284.457 62.9365 284.457 Q57.1264 284.457 54.0477 279.874 Q50.9921 275.267 50.9921 266.541 Q50.9921 257.791 54.0477 253.207 Q57.1264 248.601 62.9365 248.601 Z" fill="#000000" fill-rule="nonzero" fill-opacity="1" /><path clip-path="url(#clip340)" d="M83.0984 277.906 L87.9827 277.906 L87.9827 283.786 L83.0984 283.786 L83.0984 277.906 Z" fill="#000000" fill-rule="nonzero" fill-opacity="1" /><path clip-path="url(#clip340)" d="M111.015 253.3 L99.2095 271.749 L111.015 271.749 L111.015 253.3 M109.788 249.226 L115.668 249.226 L115.668 271.749 L120.598 271.749 L120.598 275.638 L115.668 275.638 L115.668 283.786 L111.015 283.786 L111.015 275.638 L95.4132 275.638 L95.4132 271.124 L109.788 249.226 Z" fill="#000000" fill-rule="nonzero" fill-opacity="1" /><circle clip-path="url(#clip342)" cx="1450.84" cy="1337.23" r="14.4" fill="#808080" fill-rule="evenodd" fill-opacity="1" stroke="#000000" stroke-opacity="1" stroke-width="3.2"/>
<circle clip-path="url(#clip342)" cx="1408.97" cy="1445.72" r="14.4" fill="#808080" fill-rule="evenodd" fill-opacity="1" stroke="#000000" stroke-opacity="1" stroke-width="3.2"/>
<circle clip-path="url(#clip342)" cx="2290.6" cy="1323.97" r="14.4" fill="#808080" fill-rule="evenodd" fill-opacity="1" stroke="#000000" stroke-opacity="1" stroke-width="3.2"/>
<circle clip-path="url(#clip342)" cx="218.754" cy="87.9763" r="14.4" fill="#808080" fill-rule="evenodd" fill-opacity="1" stroke="#000000" stroke-opacity="1" stroke-width="3.2"/>
<path clip-path="url(#clip340)" d="M1455.14 1344.67 Q1446.1 1344.67 1442.62 1346.73 Q1439.14 1348.8 1439.14 1353.78 Q1439.14 1357.75 1441.73 1360.1 Q1444.36 1362.41 1448.86 1362.41 Q1455.06 1362.41 1458.78 1358.03 Q1462.55 1353.62 1462.55 1346.33 L1462.55 1344.67 L1455.14 1344.67 M1470 1341.59 L1470 1367.47 L1462.55 1367.47 L1462.55 1360.59 Q1460 1364.72 1456.19 1366.7 Q1452.38 1368.65 1446.87 1368.65 Q1439.9 1368.65 1435.77 1364.76 Q1431.68 1360.83 1431.68 1354.27 Q1431.68 1346.61 1436.79 1342.72 Q1441.93 1338.83 1452.1 1338.83 L1462.55 1338.83 L1462.55 1338.1 Q1462.55 1332.96 1459.15 1330.16 Q1455.78 1327.33 1449.67 1327.33 Q1445.78 1327.33 1442.09 1328.26 Q1438.41 1329.19 1435 1331.05 L1435 1324.17 Q1439.09 1322.59 1442.94 1321.82 Q1446.79 1321.01 1450.44 1321.01 Q1460.28 1321.01 1465.14 1326.11 Q1470 1331.22 1470 1341.59 Z" fill="#000000" fill-rule="nonzero" fill-opacity="1" /><path clip-path="url(#clip340)" d="M1421.53 1453.31 Q1421.53 1445.09 1418.13 1440.43 Q1414.77 1435.73 1408.85 1435.73 Q1402.94 1435.73 1399.54 1440.43 Q1396.17 1445.09 1396.17 1453.31 Q1396.17 1461.53 1399.54 1466.23 Q1402.94 1470.89 1408.85 1470.89 Q1414.77 1470.89 1418.13 1466.23 Q1421.53 1461.53 1421.53 1453.31 M1396.17 1437.47 Q1398.52 1433.42 1402.09 1431.48 Q1405.69 1429.49 1410.68 1429.49 Q1418.94 1429.49 1424.08 1436.05 Q1429.27 1442.62 1429.27 1453.31 Q1429.27 1464.01 1424.08 1470.57 Q1418.94 1477.13 1410.68 1477.13 Q1405.69 1477.13 1402.09 1475.19 Q1398.52 1473.2 1396.17 1469.15 L1396.17 1475.96 L1388.68 1475.96 L1388.68 1412.92 L1396.17 1412.92 L1396.17 1437.47 Z" fill="#000000" fill-rule="nonzero" fill-opacity="1" /><path clip-path="url(#clip340)" d="M2308.55 1310.58 L2308.55 1317.54 Q2305.39 1315.8 2302.19 1314.95 Q2299.03 1314.06 2295.79 1314.06 Q2288.53 1314.06 2284.52 1318.68 Q2280.51 1323.26 2280.51 1331.56 Q2280.51 1339.87 2284.52 1344.48 Q2288.53 1349.06 2295.79 1349.06 Q2299.03 1349.06 2302.19 1348.21 Q2305.39 1347.32 2308.55 1345.58 L2308.55 1352.46 Q2305.43 1353.92 2302.06 1354.65 Q2298.74 1355.38 2294.98 1355.38 Q2284.73 1355.38 2278.69 1348.94 Q2272.65 1342.5 2272.65 1331.56 Q2272.65 1320.46 2278.73 1314.1 Q2284.85 1307.74 2295.46 1307.74 Q2298.9 1307.74 2302.19 1308.47 Q2305.47 1309.16 2308.55 1310.58 Z" fill="#000000" fill-rule="nonzero" fill-opacity="1" /><path clip-path="url(#clip340)" d="M231.575 79.7327 L231.575 55.1842 L239.028 55.1842 L239.028 118.216 L231.575 118.216 L231.575 111.411 Q229.225 115.462 225.62 117.447 Q222.055 119.391 217.032 119.391 Q208.809 119.391 203.624 112.829 Q198.479 106.266 198.479 95.5717 Q198.479 84.8773 203.624 78.3149 Q208.809 71.7524 217.032 71.7524 Q222.055 71.7524 225.62 73.7373 Q229.225 75.6818 231.575 79.7327 M206.176 95.5717 Q206.176 103.795 209.538 108.494 Q212.941 113.153 218.855 113.153 Q224.769 113.153 228.172 108.494 Q231.575 103.795 231.575 95.5717 Q231.575 87.3484 228.172 82.6898 Q224.769 77.9908 218.855 77.9908 Q212.941 77.9908 209.538 82.6898 Q206.176 87.3484 206.176 95.5717 Z" fill="#000000" fill-rule="nonzero" fill-opacity="1" /><path clip-path="url(#clip340)" d="M2007.5 198.898 L2279.55 198.898 L2279.55 95.2176 L2007.5 95.2176  Z" fill="#ffffff" fill-rule="evenodd" fill-opacity="1"/>
<polyline clip-path="url(#clip340)" style="stroke:#000000; stroke-linecap:round; stroke-linejoin:round; stroke-width:4; stroke-opacity:1; fill:none" points="2007.5,198.898 2279.55,198.898 2279.55,95.2176 2007.5,95.2176 2007.5,198.898 "/>
<circle clip-path="url(#clip340)" cx="2105.11" cy="147.058" r="20.48" fill="#808080" fill-rule="evenodd" fill-opacity="1" stroke="#000000" stroke-opacity="1" stroke-width="4.55111"/>
<path clip-path="url(#clip340)" d="M2216.56 166.745 Q2214.76 171.375 2213.04 172.787 Q2211.33 174.199 2208.46 174.199 L2205.06 174.199 L2205.06 170.634 L2207.56 170.634 Q2209.32 170.634 2210.29 169.8 Q2211.26 168.967 2212.44 165.865 L2213.2 163.921 L2202.72 138.412 L2207.23 138.412 L2215.33 158.689 L2223.44 138.412 L2227.95 138.412 L2216.56 166.745 Z" fill="#000000" fill-rule="nonzero" fill-opacity="1" /><path clip-path="url(#clip340)" d="M2235.24 160.402 L2242.88 160.402 L2242.88 134.037 L2234.57 135.703 L2234.57 131.444 L2242.83 129.778 L2247.51 129.778 L2247.51 160.402 L2255.15 160.402 L2255.15 164.338 L2235.24 164.338 L2235.24 160.402 Z" fill="#000000" fill-rule="nonzero" fill-opacity="1" /></svg>
