<?xml version="1.0" encoding="utf-8"?>
<svg xmlns="http://www.w3.org/2000/svg" xmlns:xlink="http://www.w3.org/1999/xlink" width="600" height="400" viewBox="0 0 2400 1600">
<defs>
  <clipPath id="clip400">
    <rect x="0" y="0" width="2400" height="1600"/>
  </clipPath>
</defs>
<path clip-path="url(#clip400)" d="M0 1600 L2400 1600 L2400 0 L0 0  Z" fill="#ffffff" fill-rule="evenodd" fill-opacity="1"/>
<defs>
  <clipPath id="clip401">
    <rect x="480" y="0" width="1681" height="1600"/>
  </clipPath>
</defs>
<path clip-path="url(#clip400)" d="M112.177 1486.45 L2352.76 1486.45 L2352.76 47.2441 L112.177 47.2441  Z" fill="#ffffff" fill-rule="evenodd" fill-opacity="1"/>
<defs>
  <clipPath id="clip402">
    <rect x="112" y="47" width="2242" height="1440"/>
  </clipPath>
</defs>
<polyline clip-path="url(#clip402)" style="stroke:#000000; stroke-linecap:round; stroke-linejoin:round; stroke-width:2; stroke-opacity:0.1; fill:none" points="275.305,1486.45 275.305,47.2441 "/>
<polyline clip-path="url(#clip402)" style="stroke:#000000; stroke-linecap:round; stroke-linejoin:round; stroke-width:2; stroke-opacity:0.1; fill:none" points="873.892,1486.45 873.892,47.2441 "/>
<polyline clip-path="url(#clip402)" style="stroke:#000000; stroke-linecap:round; stroke-linejoin:round; stroke-width:2; stroke-opacity:0.1; fill:none" points="1472.48,1486.45 1472.48,47.2441 "/>
<polyline clip-path="url(#clip402)" style="stroke:#000000; stroke-linecap:round; stroke-linejoin:round; stroke-width:2; stroke-opacity:0.1; fill:none" points="2071.07,1486.45 2071.07,47.2441 "/>
<polyline clip-path="url(#clip402)" style="stroke:#000000; stroke-linecap:round; stroke-linejoin:round; stroke-width:2; stroke-opacity:0.1; fill:none" points="112.177,1216.38 2352.76,1216.38 "/>
<polyline clip-path="url(#clip402)" style="stroke:#000000; stroke-linecap:round; stroke-linejoin:round; stroke-width:2; stroke-opacity:0.1; fill:none" points="112.177,912.538 2352.76,912.538 "/>
<polyline clip-path="url(#clip402)" style="stroke:#000000; stroke-linecap:round; stroke-linejoin:round; stroke-width:2; stroke-opacity:0.1; fill:none" points="112.177,608.699 2352.76,608.699 "/>
<polyline clip-path="url(#clip402)" style="stroke:#000000; stroke-linecap:round; stroke-linejoin:round; stroke-width:2; stroke-opacity:0.1; fill:none" points="112.177,304.861 2352.76,304.861 "/>
<polyline clip-path="url(#clip400)" style="stroke:#000000; stroke-linecap:round; stroke-linejoin:round; stroke-width:4; stroke-opacity:1; fill:none" points="112.177,1486.45 2352.76,1486.45 "/>
<polyline clip-path="url(#clip400)" style="stroke:#000000; stroke-linecap:round; stroke-linejoin:round; stroke-width:4; stroke-opacity:1; fill:none" points="275.305,1486.45 275.305,1467.55 "/>
<polyline clip-path="url(#clip400)" style="stroke:#000000; stroke-linecap:round; stroke-linejoin:round; stroke-width:4; stroke-opacity:1; fill:none" points="873.892,1486.45 873.892,1467.55 "/>
<polyline clip-path="url(#clip400)" style="stroke:#000000; stroke-linecap:round; stroke-linejoin:round; stroke-width:4; stroke-opacity:1; fill:none" points="1472.48,1486.45 1472.48,1467.55 "/>
<polyline clip-path="url(#clip400)" style="stroke:#000000; stroke-linecap:round; stroke-linejoin:round; stroke-width:4; stroke-opacity:1; fill:none" points="2071.07,1486.45 2071.07,1467.55 "/>
<path clip-path="url(#clip400)" d="M221.833 1532.02 L251.509 1532.02 L251.509 1535.95 L221.833 1535.95 L221.833 1532.02 Z" fill="#000000" fill-rule="nonzero" fill-opacity="1" /><path clip-path="url(#clip400)" d="M262.412 1544.91 L270.05 1544.91 L270.05 1518.55 L261.74 1520.21 L261.74 1515.95 L270.004 1514.29 L274.68 1514.29 L274.68 1544.91 L282.319 1544.91 L282.319 1548.85 L262.412 1548.85 L262.412 1544.91 Z" fill="#000000" fill-rule="nonzero" fill-opacity="1" /><path clip-path="url(#clip400)" d="M291.763 1542.97 L296.648 1542.97 L296.648 1548.85 L291.763 1548.85 L291.763 1542.97 Z" fill="#000000" fill-rule="nonzero" fill-opacity="1" /><path clip-path="url(#clip400)" d="M316.833 1517.37 Q313.222 1517.37 311.393 1520.93 Q309.587 1524.47 309.587 1531.6 Q309.587 1538.71 311.393 1542.27 Q313.222 1545.82 316.833 1545.82 Q320.467 1545.82 322.272 1542.27 Q324.101 1538.71 324.101 1531.6 Q324.101 1524.47 322.272 1520.93 Q320.467 1517.37 316.833 1517.37 M316.833 1513.66 Q322.643 1513.66 325.698 1518.27 Q328.777 1522.85 328.777 1531.6 Q328.777 1540.33 325.698 1544.94 Q322.643 1549.52 316.833 1549.52 Q311.022 1549.52 307.944 1544.94 Q304.888 1540.33 304.888 1531.6 Q304.888 1522.85 307.944 1518.27 Q311.022 1513.66 316.833 1513.66 Z" fill="#000000" fill-rule="nonzero" fill-opacity="1" /><path clip-path="url(#clip400)" d="M820.918 1532.02 L850.594 1532.02 L850.594 1535.95 L820.918 1535.95 L820.918 1532.02 Z" fill="#000000" fill-rule="nonzero" fill-opacity="1" /><path clip-path="url(#clip400)" d="M870.686 1517.37 Q867.075 1517.37 865.247 1520.93 Q863.441 1524.47 863.441 1531.6 Q863.441 1538.71 865.247 1542.27 Q867.075 1545.82 870.686 1545.82 Q874.321 1545.82 876.126 1542.27 Q877.955 1538.71 877.955 1531.6 Q877.955 1524.47 876.126 1520.93 Q874.321 1517.37 870.686 1517.37 M870.686 1513.66 Q876.497 1513.66 879.552 1518.27 Q882.631 1522.85 882.631 1531.6 Q882.631 1540.33 879.552 1544.94 Q876.497 1549.52 870.686 1549.52 Q864.876 1549.52 861.798 1544.94 Q858.742 1540.33 858.742 1531.6 Q858.742 1522.85 861.798 1518.27 Q864.876 1513.66 870.686 1513.66 Z" fill="#000000" fill-rule="nonzero" fill-opacity="1" /><path clip-path="url(#clip400)" d="M890.848 1542.97 L895.733 1542.97 L895.733 1548.85 L890.848 1548.85 L890.848 1542.97 Z" fill="#000000" fill-rule="nonzero" fill-opacity="1" /><path clip-path="url(#clip400)" d="M905.964 1514.29 L924.32 1514.29 L924.32 1518.22 L910.246 1518.22 L910.246 1526.7 Q911.265 1526.35 912.283 1526.19 Q913.302 1526 914.32 1526 Q920.107 1526 923.487 1529.17 Q926.867 1532.34 926.867 1537.76 Q926.867 1543.34 923.394 1546.44 Q919.922 1549.52 913.603 1549.52 Q911.427 1549.52 909.158 1549.15 Q906.913 1548.78 904.506 1548.04 L904.506 1543.34 Q906.589 1544.47 908.811 1545.03 Q911.033 1545.58 913.51 1545.58 Q917.515 1545.58 919.853 1543.48 Q922.191 1541.37 922.191 1537.76 Q922.191 1534.15 919.853 1532.04 Q917.515 1529.94 913.51 1529.94 Q911.635 1529.94 909.76 1530.35 Q907.908 1530.77 905.964 1531.65 L905.964 1514.29 Z" fill="#000000" fill-rule="nonzero" fill-opacity="1" /><path clip-path="url(#clip400)" d="M1449.86 1517.37 Q1446.25 1517.37 1444.42 1520.93 Q1442.62 1524.47 1442.62 1531.6 Q1442.62 1538.71 1444.42 1542.27 Q1446.25 1545.82 1449.86 1545.82 Q1453.5 1545.82 1455.3 1542.27 Q1457.13 1538.71 1457.13 1531.6 Q1457.13 1524.47 1455.3 1520.93 Q1453.5 1517.37 1449.86 1517.37 M1449.86 1513.66 Q1455.67 1513.66 1458.73 1518.27 Q1461.81 1522.85 1461.81 1531.6 Q1461.81 1540.33 1458.73 1544.94 Q1455.67 1549.52 1449.86 1549.52 Q1444.05 1549.52 1440.98 1544.94 Q1437.92 1540.33 1437.92 1531.6 Q1437.92 1522.85 1440.98 1518.27 Q1444.05 1513.66 1449.86 1513.66 Z" fill="#000000" fill-rule="nonzero" fill-opacity="1" /><path clip-path="url(#clip400)" d="M1470.03 1542.97 L1474.91 1542.97 L1474.91 1548.85 L1470.03 1548.85 L1470.03 1542.97 Z" fill="#000000" fill-rule="nonzero" fill-opacity="1" /><path clip-path="url(#clip400)" d="M1495.1 1517.37 Q1491.48 1517.37 1489.66 1520.93 Q1487.85 1524.47 1487.85 1531.6 Q1487.85 1538.71 1489.66 1542.27 Q1491.48 1545.82 1495.1 1545.82 Q1498.73 1545.82 1500.54 1542.27 Q1502.36 1538.71 1502.36 1531.6 Q1502.36 1524.47 1500.54 1520.93 Q1498.73 1517.37 1495.1 1517.37 M1495.1 1513.66 Q1500.91 1513.66 1503.96 1518.27 Q1507.04 1522.85 1507.04 1531.6 Q1507.04 1540.33 1503.96 1544.94 Q1500.91 1549.52 1495.1 1549.52 Q1489.29 1549.52 1486.21 1544.94 Q1483.15 1540.33 1483.15 1531.6 Q1483.15 1522.85 1486.21 1518.27 Q1489.29 1513.66 1495.1 1513.66 Z" fill="#000000" fill-rule="nonzero" fill-opacity="1" /><path clip-path="url(#clip400)" d="M2048.95 1517.37 Q2045.34 1517.37 2043.51 1520.93 Q2041.7 1524.47 2041.7 1531.6 Q2041.7 1538.71 2043.51 1542.27 Q2045.34 1545.82 2048.95 1545.82 Q2052.58 1545.82 2054.39 1542.27 Q2056.22 1538.71 2056.22 1531.6 Q2056.22 1524.47 2054.39 1520.93 Q2052.58 1517.37 2048.95 1517.37 M2048.95 1513.66 Q2054.76 1513.66 2057.81 1518.27 Q2060.89 1522.85 2060.89 1531.6 Q2060.89 1540.33 2057.81 1544.94 Q2054.76 1549.52 2048.95 1549.52 Q2043.14 1549.52 2040.06 1544.94 Q2037 1540.33 2037 1531.6 Q2037 1522.85 2040.06 1518.27 Q2043.14 1513.66 2048.95 1513.66 Z" fill="#000000" fill-rule="nonzero" fill-opacity="1" /><path clip-path="url(#clip400)" d="M2069.11 1542.97 L2074 1542.97 L2074 1548.85 L2069.11 1548.85 L2069.11 1542.97 Z" fill="#000000" fill-rule="nonzero" fill-opacity="1" /><path clip-path="url(#clip400)" d="M2084.23 1514.29 L2102.58 1514.29 L2102.58 1518.22 L2088.51 1518.22 L2088.51 1526.7 Q2089.53 1526.35 2090.55 1526.19 Q2091.56 1526 2092.58 1526 Q2098.37 1526 2101.75 1529.17 Q2105.13 1532.34 2105.13 1537.76 Q2105.13 1543.34 2101.66 1546.44 Q2098.18 1549.52 2091.87 1549.52 Q2089.69 1549.52 2087.42 1549.15 Q2085.18 1548.78 2082.77 1548.04 L2082.77 1543.34 Q2084.85 1544.47 2087.07 1545.03 Q2089.3 1545.58 2091.77 1545.58 Q2095.78 1545.58 2098.12 1543.48 Q2100.45 1541.37 2100.45 1537.76 Q2100.45 1534.15 2098.12 1532.04 Q2095.78 1529.94 2091.77 1529.94 Q2089.9 1529.94 2088.02 1530.35 Q2086.17 1530.77 2084.23 1531.65 L2084.23 1514.29 Z" fill="#000000" fill-rule="nonzero" fill-opacity="1" /><polyline clip-path="url(#clip400)" style="stroke:#000000; stroke-linecap:round; stroke-linejoin:round; stroke-width:4; stroke-opacity:1; fill:none" points="112.177,1486.45 112.177,47.2441 "/>
<polyline clip-path="url(#clip400)" style="stroke:#000000; stroke-linecap:round; stroke-linejoin:round; stroke-width:4; stroke-opacity:1; fill:none" points="112.177,1216.38 131.075,1216.38 "/>
<polyline clip-path="url(#clip400)" style="stroke:#000000; stroke-linecap:round; stroke-linejoin:round; stroke-width:4; stroke-opacity:1; fill:none" points="112.177,912.538 131.075,912.538 "/>
<polyline clip-path="url(#clip400)" style="stroke:#000000; stroke-linecap:round; stroke-linejoin:round; stroke-width:4; stroke-opacity:1; fill:none" points="112.177,608.699 131.075,608.699 "/>
<polyline clip-path="url(#clip400)" style="stroke:#000000; stroke-linecap:round; stroke-linejoin:round; stroke-width:4; stroke-opacity:1; fill:none" points="112.177,304.861 131.075,304.861 "/>
<path clip-path="url(#clip400)" d="M56.2699 1229.72 L63.9087 1229.72 L63.9087 1203.36 L55.5986 1205.02 L55.5986 1200.76 L63.8624 1199.1 L68.5383 1199.1 L68.5383 1229.72 L76.1772 1229.72 L76.1772 1233.66 L56.2699 1233.66 L56.2699 1229.72 Z" fill="#000000" fill-rule="nonzero" fill-opacity="1" /><path clip-path="url(#clip400)" d="M59.8578 925.883 L76.1772 925.883 L76.1772 929.818 L54.2328 929.818 L54.2328 925.883 Q56.8949 923.128 61.4782 918.498 Q66.0846 913.846 67.2652 912.503 Q69.5105 909.98 70.3902 908.244 Q71.2929 906.485 71.2929 904.795 Q71.2929 902.04 69.3485 900.304 Q67.4272 898.568 64.3254 898.568 Q62.1263 898.568 59.6726 899.332 Q57.2421 900.096 54.4643 901.647 L54.4643 896.924 Q57.2884 895.79 59.7421 895.211 Q62.1958 894.633 64.2328 894.633 Q69.6031 894.633 72.7976 897.318 Q75.992 900.003 75.992 904.494 Q75.992 906.623 75.1818 908.545 Q74.3948 910.443 72.2883 913.035 Q71.7096 913.707 68.6078 916.924 Q65.5059 920.119 59.8578 925.883 Z" fill="#000000" fill-rule="nonzero" fill-opacity="1" /><path clip-path="url(#clip400)" d="M69.0476 607.345 Q72.404 608.063 74.279 610.331 Q76.1772 612.6 76.1772 615.933 Q76.1772 621.049 72.6587 623.85 Q69.1402 626.65 62.6587 626.65 Q60.4828 626.65 58.168 626.211 Q55.8764 625.794 53.4227 624.938 L53.4227 620.424 Q55.3671 621.558 57.6819 622.137 Q59.9967 622.715 62.5198 622.715 Q66.918 622.715 69.2096 620.979 Q71.5244 619.243 71.5244 615.933 Q71.5244 612.877 69.3717 611.164 Q67.242 609.428 63.4226 609.428 L59.3949 609.428 L59.3949 605.586 L63.6078 605.586 Q67.0569 605.586 68.8855 604.22 Q70.7142 602.831 70.7142 600.239 Q70.7142 597.577 68.8161 596.165 Q66.9411 594.729 63.4226 594.729 Q61.5013 594.729 59.3023 595.146 Q57.1032 595.563 54.4643 596.442 L54.4643 592.276 Q57.1264 591.535 59.4412 591.165 Q61.7791 590.794 63.8393 590.794 Q69.1633 590.794 72.2652 593.225 Q75.367 595.632 75.367 599.752 Q75.367 602.623 73.7235 604.614 Q72.08 606.581 69.0476 607.345 Z" fill="#000000" fill-rule="nonzero" fill-opacity="1" /><path clip-path="url(#clip400)" d="M66.5939 291.655 L54.7884 310.104 L66.5939 310.104 L66.5939 291.655 M65.367 287.581 L71.2466 287.581 L71.2466 310.104 L76.1772 310.104 L76.1772 313.993 L71.2466 313.993 L71.2466 322.141 L66.5939 322.141 L66.5939 313.993 L50.9921 313.993 L50.9921 309.479 L65.367 287.581 Z" fill="#000000" fill-rule="nonzero" fill-opacity="1" /><circle clip-path="url(#clip402)" cx="2289.34" cy="1300.53" r="14.4" fill="#808080" fill-rule="evenodd" fill-opacity="1" stroke="#000000" stroke-opacity="1" stroke-width="3.2"/>
<circle clip-path="url(#clip402)" cx="175.59" cy="87.9763" r="14.4" fill="#808080" fill-rule="evenodd" fill-opacity="1" stroke="#000000" stroke-opacity="1" stroke-width="3.2"/>
<circle clip-path="url(#clip402)" cx="1499.79" cy="1445.72" r="14.4" fill="#808080" fill-rule="evenodd" fill-opacity="1" stroke="#000000" stroke-opacity="1" stroke-width="3.2"/>
<circle clip-path="url(#clip402)" cx="1386.17" cy="1442.27" r="14.4" fill="#808080" fill-rule="evenodd" fill-opacity="1" stroke="#000000" stroke-opacity="1" stroke-width="3.2"/>
<path clip-path="url(#clip400)" d="M2293.64 1307.97 Q2284.6 1307.97 2281.12 1310.03 Q2277.64 1312.1 2277.64 1317.08 Q2277.64 1321.05 2280.23 1323.4 Q2282.86 1325.71 2287.36 1325.71 Q2293.56 1325.71 2297.28 1321.33 Q2301.05 1316.92 2301.05 1309.63 L2301.05 1307.97 L2293.64 1307.97 M2308.5 1304.89 L2308.5 1330.77 L2301.05 1330.77 L2301.05 1323.89 Q2298.5 1328.02 2294.69 1330 Q2290.88 1331.95 2285.37 1331.95 Q2278.41 1331.95 2274.27 1328.06 Q2270.18 1324.13 2270.18 1317.57 Q2270.18 1309.91 2275.29 1306.02 Q2280.43 1302.13 2290.6 1302.13 L2301.05 1302.13 L2301.05 1301.4 Q2301.05 1296.26 2297.65 1293.46 Q2294.29 1290.63 2288.17 1290.63 Q2284.28 1290.63 2280.59 1291.56 Q2276.91 1292.49 2273.5 1294.36 L2273.5 1287.47 Q2277.6 1285.89 2281.44 1285.12 Q2285.29 1284.31 2288.94 1284.31 Q2298.78 1284.31 2303.64 1289.41 Q2308.5 1294.52 2308.5 1304.89 Z" fill="#000000" fill-rule="nonzero" fill-opacity="1" /><path clip-path="url(#clip400)" d="M188.148 95.5717 Q188.148 87.3484 184.745 82.6898 Q181.383 77.9908 175.468 77.9908 Q169.554 77.9908 166.151 82.6898 Q162.789 87.3484 162.789 95.5717 Q162.789 103.795 166.151 108.494 Q169.554 113.153 175.468 113.153 Q181.383 113.153 184.745 108.494 Q188.148 103.795 188.148 95.5717 M162.789 79.7327 Q165.138 75.6818 168.703 73.7373 Q172.309 71.7524 177.291 71.7524 Q185.555 71.7524 190.7 78.3149 Q195.885 84.8773 195.885 95.5717 Q195.885 106.266 190.7 112.829 Q185.555 119.391 177.291 119.391 Q172.309 119.391 168.703 117.447 Q165.138 115.462 162.789 111.411 L162.789 118.216 L155.295 118.216 L155.295 55.1842 L162.789 55.1842 L162.789 79.7327 Z" fill="#000000" fill-rule="nonzero" fill-opacity="1" /><path clip-path="url(#clip400)" d="M1517.73 1432.33 L1517.73 1439.3 Q1514.57 1437.55 1511.37 1436.7 Q1508.21 1435.81 1504.97 1435.81 Q1497.72 1435.81 1493.71 1440.43 Q1489.7 1445.01 1489.7 1453.31 Q1489.7 1461.62 1493.71 1466.23 Q1497.72 1470.81 1504.97 1470.81 Q1508.21 1470.81 1511.37 1469.96 Q1514.57 1469.07 1517.73 1467.33 L1517.73 1474.21 Q1514.61 1475.67 1511.25 1476.4 Q1507.93 1477.13 1504.16 1477.13 Q1493.91 1477.13 1487.88 1470.69 Q1481.84 1464.25 1481.84 1453.31 Q1481.84 1442.21 1487.92 1435.85 Q1494.03 1429.49 1504.65 1429.49 Q1508.09 1429.49 1511.37 1430.22 Q1514.65 1430.91 1517.73 1432.33 Z" fill="#000000" fill-rule="nonzero" fill-opacity="1" /><path clip-path="url(#clip400)" d="M1398.99 1434.03 L1398.99 1409.48 L1406.45 1409.48 L1406.45 1472.51 L1398.99 1472.51 L1398.99 1465.71 Q1396.64 1469.76 1393.04 1471.74 Q1389.47 1473.69 1384.45 1473.69 Q1376.23 1473.69 1371.04 1467.12 Q1365.9 1460.56 1365.9 1449.87 Q1365.9 1439.17 1371.04 1432.61 Q1376.23 1426.05 1384.45 1426.05 Q1389.47 1426.05 1393.04 1428.03 Q1396.64 1429.98 1398.99 1434.03 M1373.59 1449.87 Q1373.59 1458.09 1376.96 1462.79 Q1380.36 1467.45 1386.27 1467.45 Q1392.19 1467.45 1395.59 1462.79 Q1398.99 1458.09 1398.99 1449.87 Q1398.99 1441.64 1395.59 1436.98 Q1392.19 1432.29 1386.27 1432.29 Q1380.36 1432.29 1376.96 1436.98 Q1373.59 1441.64 1373.59 1449.87 Z" fill="#000000" fill-rule="nonzero" fill-opacity="1" /><path clip-path="url(#clip400)" d="M2001.58 198.898 L2278.07 198.898 L2278.07 95.2176 L2001.58 95.2176  Z" fill="#ffffff" fill-rule="evenodd" fill-opacity="1"/>
<polyline clip-path="url(#clip400)" style="stroke:#000000; stroke-linecap:round; stroke-linejoin:round; stroke-width:4; stroke-opacity:1; fill:none" points="2001.58,198.898 2278.07,198.898 2278.07,95.2176 2001.58,95.2176 2001.58,198.898 "/>
<circle clip-path="url(#clip400)" cx="2101.16" cy="147.058" r="20.48" fill="#808080" fill-rule="evenodd" fill-opacity="1" stroke="#000000" stroke-opacity="1" stroke-width="4.55111"/>
<path clip-path="url(#clip400)" d="M2214.59 166.745 Q2212.78 171.375 2211.07 172.787 Q2209.36 174.199 2206.49 174.199 L2203.08 174.199 L2203.08 170.634 L2205.58 170.634 Q2207.34 170.634 2208.31 169.8 Q2209.29 168.967 2210.47 165.865 L2211.23 163.921 L2200.74 138.412 L2205.26 138.412 L2213.36 158.689 L2221.46 138.412 L2225.98 138.412 L2214.59 166.745 Z" fill="#000000" fill-rule="nonzero" fill-opacity="1" /><path clip-path="url(#clip400)" d="M2233.27 160.402 L2240.91 160.402 L2240.91 134.037 L2232.6 135.703 L2232.6 131.444 L2240.86 129.778 L2245.54 129.778 L2245.54 160.402 L2253.17 160.402 L2253.17 164.338 L2233.27 164.338 L2233.27 160.402 Z" fill="#000000" fill-rule="nonzero" fill-opacity="1" /></svg>
